<svg xmlns="http://www.w3.org/2000/svg" width="19" height="19" viewBox="0 0 19 19"><defs><style>.a{fill:#70f5e7;}</style></defs><path class="a" d="M18.6,9h-.1a.9.9,0,0,0-1.1-.1L12,13.5a4.3,4.3,0,0,1-2.4,1.2,4.4,4.4,0,0,1-2.5-1.2L1.6,8.9A.9.9,0,0,0,.5,9h0a.9.9,0,0,0,0,1.3L8.6,18a1.2,1.2,0,0,0,.9.4,1.1,1.1,0,0,0,.9-.4l8.2-7.7A.9.9,0,0,0,18.6,9Z"/><path class="a" d="M18.6,1.2h-.1a.8.8,0,0,0-1.1,0L12,5.7A4.3,4.3,0,0,1,9.6,6.9,4.4,4.4,0,0,1,7.1,5.7L1.6,1.2a.8.8,0,0,0-1.1,0h0a.9.9,0,0,0,0,1.3l8.1,7.8.9.3a1.4,1.4,0,0,0,.9-.3l8.2-7.8A.9.9,0,0,0,18.6,1.2Z"/></svg>