<svg xmlns="http://www.w3.org/2000/svg" width="1489.3" height="752" viewBox="0 0 1489.3 752"><defs><style>.a,.b,.d,.e,.f,.g,.h,.i,.j,.k,.l,.m,.n{fill:none;stroke:#16dac7;stroke-miterlimit:10;stroke-width:0.5px;}.b{stroke-dasharray:2 2;}.c{fill:#16dac7;}.d{stroke-dasharray:2 2;}.e{stroke-dasharray:2.01 2.01;}.f{stroke-dasharray:2 2;}.g{stroke-dasharray:2 2;}.h{stroke-dasharray:1.99 1.99;}.i{stroke-dasharray:2.01 2.01;}.j{stroke-dasharray:1.99 1.99;}.k{stroke-dasharray:2 2;}.l{stroke-dasharray:2.01 2.01;}.m{stroke-dasharray:2.01 2.01;}.n{stroke-dasharray:2 2;}</style></defs><line class="a" x1="766.2" y1="495.8" x2="766.2" y2="496.8"/><path class="b" d="M766.2,498.8V711.5a15.1,15.1,0,0,1-15.1,15l-74-.4"/><line class="a" x1="676.1" y1="726.1" x2="675.1" y2="726.1"/><circle class="c" cx="766.2" cy="495.9" r="1.9"/><line class="a" x1="784.2" y1="495.7" x2="784.2" y2="496.7"/><path class="d" d="M784.2,498.7V645.2a14.9,14.9,0,0,0,15.1,15l252.7-.4"/><line class="a" x1="1053" y1="659.8" x2="1054" y2="659.8"/><circle class="c" cx="784.2" cy="495.8" r="1.9"/><line class="a" x1="802.2" y1="495.7" x2="802.2" y2="496.7"/><path class="e" d="M802.2,498.7v51a15.1,15.1,0,0,0,15.1,15l360.7-.4a15,15,0,0,0,15-15V507.9a15,15,0,0,1,15-15h72.8"/><line class="a" x1="1281.9" y1="492.9" x2="1282.9" y2="492.9"/><circle class="c" cx="802.2" cy="495.8" r="1.9"/><line class="a" x1="748.2" y1="495.8" x2="748.2" y2="496.8"/><path class="f" d="M748.2,498.8V630.4a15,15,0,0,1-15.1,15L229.7,645"/><line class="a" x1="228.7" y1="645" x2="227.7" y2="645"/><circle class="c" cx="748.2" cy="495.9" r="1.9"/><line class="a" x1="730.1" y1="495.7" x2="730.1" y2="496.7"/><path class="g" d="M730.1,498.7v59.2a15,15,0,0,1-15.1,15l-683.7-.4a15,15,0,0,1-15-15v-78"/><line class="a" x1="16.3" y1="478.5" x2="16.3" y2="477.5"/><circle class="c" cx="730.1" cy="495.8" r="1.9"/><line class="a" x1="712.2" y1="495.7" x2="712.2" y2="496.7"/><path class="h" d="M712.2,498.7v21.6a14.9,14.9,0,0,1-15,15h-192a15,15,0,0,1-14.9-15V457.6a15,15,0,0,0-15-15h-15"/><line class="a" x1="459.3" y1="442.6" x2="458.3" y2="442.6"/><circle class="c" cx="712.2" cy="495.8" r="1.9"/><line class="a" x1="748.1" y1="253.5" x2="748.1" y2="252.5"/><path class="i" d="M748.1,250.5V37.9a14.9,14.9,0,0,1,15.1-15l63.7.4"/><line class="a" x1="827.9" y1="23.3" x2="828.9" y2="23.3"/><circle class="c" cx="748.1" cy="253.4" r="1.9"/><line class="a" x1="730.1" y1="253.7" x2="730.1" y2="252.7"/><path class="j" d="M730.1,250.7V104.1a14.9,14.9,0,0,0-15.1-15l-123.2.4"/><line class="a" x1="590.8" y1="89.5" x2="589.8" y2="89.5"/><circle class="c" cx="730.1" cy="253.6" r="1.9"/><line class="a" x1="712.1" y1="253.6" x2="712.1" y2="252.6"/><path class="k" d="M712.1,250.6V199.7a14.9,14.9,0,0,0-15.1-15l-360.7.3a15,15,0,0,1-15-15V151.9a15,15,0,0,0-15-15H238.5"/><line class="a" x1="237.5" y1="137" x2="236.5" y2="137"/><circle class="c" cx="712.1" cy="253.5" r="1.9"/><line class="a" x1="766.1" y1="253.5" x2="766.1" y2="252.5"/><path class="l" d="M766.1,250.5V127.9a15,15,0,0,1,15.1-15l566.7.4"/><line class="a" x1="1348.9" y1="113.3" x2="1349.9" y2="113.3"/><circle class="c" cx="766.1" cy="253.4" r="1.9"/><line class="a" x1="784.3" y1="253.6" x2="784.3" y2="252.6"/><path class="m" d="M784.3,250.6V191.4a15,15,0,0,1,15.1-15l249.7.4"/><line class="a" x1="1050.1" y1="176.8" x2="1051.1" y2="176.8"/><circle class="c" cx="784.3" cy="253.5" r="1.9"/><line class="a" x1="802.1" y1="253.6" x2="802.1" y2="252.6"/><path class="n" d="M802.1,250.6V229a15,15,0,0,1,15.1-15h191.9a15.1,15.1,0,0,1,15,15v92a15,15,0,0,0,15,15H1477"/><line class="a" x1="1478" y1="336.1" x2="1479" y2="336.1"/><circle class="c" cx="802.1" cy="253.5" r="1.9"/></svg>