<svg xmlns="http://www.w3.org/2000/svg" width="762.7" height="540.4" viewBox="0 0 762.7 540.4"><defs><style>.a,.b,.d,.e,.f,.g,.h,.i,.j{fill:none;stroke:#16dac7;stroke-miterlimit:10;}.a,.b,.d,.g,.h,.i,.j{stroke-width:0.5px;}.b{stroke-dasharray:2.01 2.01;}.c{fill:#16dac7;}.d{stroke-dasharray:2.01 2.01;}.e,.f{stroke-width:0.47px;}.f{stroke-dasharray:1.88 1.88;}.g{stroke-dasharray:1.99 1.99;}.h{stroke-dasharray:1.99 1.99;}.i{stroke-dasharray:2 2;}.j{stroke-dasharray:2 2;}</style></defs><line class="a" x1="332.3" y1="240.8" x2="332.3" y2="239.8"/><path class="b" d="M332.3,237.8V25.1a15,15,0,0,1,15-15l63.7.4"/><line class="a" x1="412" y1="10.5" x2="413" y2="10.5"/><circle class="c" cx="332.3" cy="240.7" r="1.9"/><line class="a" x1="314.2" y1="240.9" x2="314.2" y2="239.9"/><path class="d" d="M314.2,237.9V91.3a15,15,0,0,0-15-15l-270.1.4"/><line class="a" x1="28.1" y1="76.7" x2="27.1" y2="76.7"/><circle class="c" cx="314.2" cy="240.8" r="1.9"/><line class="e" x1="350.3" y1="240.9" x2="350.3" y2="239.9"/><path class="f" d="M350.3,238.1V95.2c0-7.3,6.7-13.2,15-13.2l292.5.4"/><line class="e" x1="658.7" y1="82.4" x2="659.7" y2="82.4"/><path class="c" d="M352,240.8a1.7,1.7,0,0,1-1.7,1.7,1.7,1.7,0,0,1-1.8-1.7,1.8,1.8,0,0,1,1.8-1.8A1.8,1.8,0,0,1,352,240.8Z"/><line class="a" x1="368.4" y1="240.8" x2="368.4" y2="239.8"/><path class="g" d="M368.4,237.8V178.6a15.1,15.1,0,0,1,15.1-15l235.7.4a16,16,0,0,1,16,16V291.9a15,15,0,0,0,15,15h98.3"/><line class="a" x1="749.5" y1="306.9" x2="750.5" y2="306.9"/><circle class="c" cx="368.4" cy="240.7" r="1.9"/><line class="a" x1="341.3" y1="453.7" x2="341.3" y2="454.7"/><path class="h" d="M341.3,456.7V512a15.1,15.1,0,0,1-15.1,15L163,526.6"/><line class="a" x1="162" y1="526.6" x2="161" y2="526.6"/><path class="c" d="M339.4,453.8a1.9,1.9,0,1,1,3.8,0,1.9,1.9,0,1,1-3.8,0Z"/><line class="a" x1="314.2" y1="453.6" x2="314.2" y2="454.6"/><path class="i" d="M314.2,456.6v12.9a14.9,14.9,0,0,1-15,15l-200.7-.3a15,15,0,0,1-14.9-15V336.5a15,15,0,0,0-15-15H7.8"/><line class="a" x1="6.8" y1="321.4" x2="5.8" y2="321.4"/><circle class="c" cx="314.2" cy="453.7" r="1.9"/><line class="a" x1="368.4" y1="453.7" x2="368.4" y2="454.7"/><path class="j" d="M368.4,456.6v59.2a14.9,14.9,0,0,0,15.1,15l351.8-.4"/><line class="a" x1="736.3" y1="530.4" x2="737.3" y2="530.4"/><circle class="c" cx="368.4" cy="453.7" r="1.9"/></svg>