<svg xmlns="http://www.w3.org/2000/svg" width="70" height="66" viewBox="0 0 70 66"><defs><style>.a{fill:#70f5e7;}</style></defs><path class="a" d="M35.9,42.8v4.1H44a2.4,2.4,0,0,1,2.5,2,4.8,4.8,0,0,1,0,1.7,1.5,1.5,0,0,1-1.4,1.3H25.4a2.3,2.3,0,0,1-1.4-.4l-.3-.4A3,3,0,0,1,25.3,47h8.9V42.8l-1.3-.2a11.5,11.5,0,0,1-9.3-10,36.5,36.5,0,0,1-.1-4.7.9.9,0,0,1,.8-.8.8.8,0,0,1,.8.9v3a9.9,9.9,0,0,0,19.7,1.9c.2-1.3.1-2.7.2-4.1a2.7,2.7,0,0,1,0-.9.8.8,0,0,1,.8-.8.8.8,0,0,1,.8.7,25.6,25.6,0,0,1-.3,6.2,11.6,11.6,0,0,1-10.1,8.7ZM25.2,50.2H45v-.3c0-1.1-.2-1.3-1.4-1.3h-17c-1.4,0-1.5.4-1.5,1.6Z"/><path class="a" d="M26.8,25.7c0-1.8-.1-3.5,0-5.3a8.2,8.2,0,0,1,16.3-.9,8.8,8.8,0,0,1,.2,1.7v9a8.3,8.3,0,0,1-16.5.7C26.7,29.2,26.8,27.4,26.8,25.7Zm1.6,4.5A6.7,6.7,0,0,0,31.9,36a6.4,6.4,0,0,0,7.2-.6,6.1,6.1,0,0,0,2.5-5.2H39.3c-.6,0-1-.4-.9-.9s.4-.7.9-.7h2.3V26.9H39.2c-.5,0-.9-.3-.8-.8a.7.7,0,0,1,.8-.8h2.4V23.6H39.2a.8.8,0,1,1,0-1.6h2.4a6.6,6.6,0,1,0-13.1,0h2.4a.7.7,0,0,1,.8.8.8.8,0,0,1-.8.8H28.5v1.7h2.4a.8.8,0,1,1-.1,1.6H28.5v1.7h2.3c.6,0,1,.4.9.9s-.4.7-.9.7Z"/><rect class="a" x="24.8" y="27.8" width="2.6" height="0.96"/><rect class="a" x="42.9" y="27.8" width="2.6" height="0.96"/><path class="a" d="M62.9,22.4c-.2,0-.3-.1-.4-.4l-.3-1.2a59.1,59.1,0,0,0-3.9-8l-1-1.7c1.3-1.4,1.4-2.9.3-4a2.6,2.6,0,0,0-3.6,0,2.7,2.7,0,0,0-.7,1.4L38.7,11.7l-7.8,1.7-14.2,3a.6.6,0,0,1-.7-.2,2.6,2.6,0,0,0-3-.5,2.5,2.5,0,0,0-1.3,2.8,9.1,9.1,0,0,0,.9,1.7h.1l-.2.3L9.8,25.3a37.6,37.6,0,0,0-2.3,5.5c-.1.5-.2.7-.7.6s-1,.4-1,1.1a5.3,5.3,0,0,0,.1,1.3A8,8,0,0,0,12,40.5a8.1,8.1,0,0,0,8.6-2.7,8.2,8.2,0,0,0,2-5.2c0-.8-.4-1.2-1.1-1.2H21c-1.1-4.1-3.3-7.6-5.2-11.1l.9-1.7c.1-.1.2-.3.4-.3l14.4-3.1,7.7-1.6,14.5-3.2.6.7-2.8,5.1a28.3,28.3,0,0,0-2.3,5.7c-.1.4-.3.5-.7.5s-1.1.4-1.1,1.2.1,1.2.2,1.8a8.7,8.7,0,0,0,8.8,6.4,8.5,8.5,0,0,0,7.8-8C64.3,22.7,64,22.4,62.9,22.4Zm-48.7-5a.6.6,0,1,1,0,1.2c-.4,0-.6-.2-.6-.5A.6.6,0,0,1,14.2,17.4Zm.4,21.4a6.5,6.5,0,0,1-6.8-5.4H20.5C20.7,35.8,17.7,38.6,14.6,38.8ZM19,31.4H9.4a47.6,47.6,0,0,1,4.8-9.9C16,24.7,17.9,27.8,19,31.4ZM55.8,8.3q.6.1.6.6c0,.4-.2.7-.6.7a.6.6,0,0,1-.6-.6A.7.7,0,0,1,55.8,8.3Zm0,4.1c1.8,3.3,3.7,6.4,4.8,10H51C52.1,18.8,54,15.7,55.8,12.4Zm.1,17.4c-3.1.1-6.2-2.4-6.4-5.4H62.1A6.3,6.3,0,0,1,55.9,29.8Z"/><path class="a" d="M35,15.2a1.8,1.8,0,0,1-1.7-1.7,1.8,1.8,0,0,1,1.8-1.8,1.8,1.8,0,0,1,1.7,1.8A1.8,1.8,0,0,1,35,15.2Z"/></svg>