<svg xmlns="http://www.w3.org/2000/svg" width="70" height="66" viewBox="0 0 70 66"><defs><style>.a{fill:#70f5e7;}</style></defs><path class="a" d="M35.9,42.8v4.1H44a2.4,2.4,0,0,1,2.5,2,4.8,4.8,0,0,1,0,1.7,1.5,1.5,0,0,1-1.4,1.3H25.4a2.3,2.3,0,0,1-1.4-.4l-.3-.4A3,3,0,0,1,25.3,47h8.9V42.8l-1.3-.2a11.5,11.5,0,0,1-9.3-10,36.5,36.5,0,0,1-.1-4.7.9.9,0,0,1,.8-.8.8.8,0,0,1,.8.9v3a9.9,9.9,0,0,0,19.7,1.9c.2-1.3.1-2.7.2-4.1a2.7,2.7,0,0,1,0-.9.8.8,0,0,1,.8-.8.8.8,0,0,1,.8.7,25.6,25.6,0,0,1-.3,6.2,11.6,11.6,0,0,1-10.1,8.7ZM25.2,50.2H45v-.3c0-1.1-.2-1.3-1.4-1.3h-17c-1.4,0-1.5.4-1.5,1.6Z"/><path class="a" d="M26.8,25.7c0-1.8-.1-3.5,0-5.3a8.2,8.2,0,0,1,16.3-.9,8.8,8.8,0,0,1,.2,1.7v9a8.3,8.3,0,0,1-16.5.7C26.7,29.2,26.8,27.4,26.8,25.7Zm1.6,4.5A6.7,6.7,0,0,0,31.9,36a6.4,6.4,0,0,0,7.2-.6,6.1,6.1,0,0,0,2.5-5.2H39.3c-.6,0-1-.4-.9-.9s.4-.7.9-.7h2.3V26.9H39.2c-.5,0-.9-.3-.8-.8a.7.7,0,0,1,.8-.8h2.4V23.6H39.2a.8.8,0,1,1,0-1.6h2.4a6.6,6.6,0,1,0-13.1,0h2.4a.7.7,0,0,1,.8.8.8.8,0,0,1-.8.8H28.5v1.7h2.4a.8.8,0,1,1-.1,1.6H28.5v1.7h2.3c.6,0,1,.4.9.9s-.4.7-.9.7Z"/><rect class="a" x="24.8" y="27.8" width="2.6" height="0.96"/><rect class="a" x="42.9" y="27.8" width="2.6" height="0.96"/><path class="a" d="M23.1,38.9l-2.4-5.4a.7.7,0,0,1,0-.9A14.1,14.1,0,0,0,22,26.8a14.6,14.6,0,0,0-3.3-9.7C14.4,11.6,7.1,9,.6,11.4a.8.8,0,0,0-.6.8H0a.8.8,0,0,0,1.1.8,14.8,14.8,0,0,1,16.2,5,12.4,12.4,0,0,1,2.9,8.3,12.9,12.9,0,0,1-1,4.8c-.1.1-.1.1-.1.2a4.1,4.1,0,0,0-.7,1.7,4.1,4.1,0,0,0,.7,1.7c.6,1.3,1.1,2.6,1.8,4a.7.7,0,0,1-.2.7l-1.8,2.1c-.2.1-.3.4-.4.6l-2.1,7c-.3,1.1-.7,1.5-1.8,1.5A18.9,18.9,0,0,1,3,46.1l-1.4-1a1,1,0,0,0-1.6.8H0a.9.9,0,0,0,.4.8,26.8,26.8,0,0,0,7.8,4.6V64.8A1.2,1.2,0,0,0,9.4,66h0a1.2,1.2,0,0,0,1.2-1.2V52.2H11l3.2.4a4,4,0,0,0,4-3.3c.6-2,1.2-4,1.9-6a1.2,1.2,0,0,1,.4-.8c.9-1,1.8-2.1,2.8-3.1A1.7,1.7,0,0,1,23.1,38.9Z"/><path class="a" d="M47,25.5c.8,1.8,1.5,3.6,2.4,5.3a1.4,1.4,0,0,1,0,.9A13,13,0,0,0,48,37.5a15,15,0,0,0,3.3,9.7c4.2,5.4,11.5,8.1,18,5.8a1.1,1.1,0,0,0,.7-1.1h0a.7.7,0,0,0-1-.6,15.1,15.1,0,0,1-16.3-5A12.2,12.2,0,0,1,49.8,38a11.3,11.3,0,0,1,1.1-4.8V33a3.6,3.6,0,0,0,.7-1.7,4.7,4.7,0,0,0-.7-1.7c-.5-1.3-1.1-2.6-1.7-3.9a.8.8,0,0,1,.1-.8l1.8-2a1.6,1.6,0,0,0,.4-.7l2.1-7a1.6,1.6,0,0,1,1.8-1.4,18.5,18.5,0,0,1,11.7,4.4l1.3,1a.9.9,0,0,0,1.6-.7h0a.9.9,0,0,0-.4-.8A25,25,0,0,0,61.8,13V1.2A1.2,1.2,0,0,0,60.6,0h0a1.1,1.1,0,0,0-1.1,1.2V12.1h-.4l-3.3-.3c-2-.1-3.4,1.1-4,3.2L50,21a2.2,2.2,0,0,1-.5.8L46.7,25Z"/></svg>