<svg xmlns="http://www.w3.org/2000/svg" width="70" height="66" viewBox="0 0 70 66"><defs><style>.a,.b{fill:#70f5e7;}.b{stroke:#70f5e7;stroke-linecap:round;stroke-linejoin:round;stroke-width:0.75px;}</style></defs><path class="a" d="M25.1,50.2c0-1.2.1-1.6,1.5-1.6h6.9l-.3-.6v-.6a1.1,1.1,0,0,1,.1-.5h-8a3,3,0,0,0-1.6,4.1l.3.4a2.3,2.3,0,0,0,1.4.4H40.7L41,51l.4-.8H25.1Z"/><path class="a" d="M46.6,27.8a.8.8,0,0,0-.8-.7.8.8,0,0,0-.8.8,2.7,2.7,0,0,0,0,.9c-.1,1.4,0,2.8-.2,4.1A9.9,9.9,0,0,1,25.1,31V28a.8.8,0,0,0-.8-.9.9.9,0,0,0-.8.8,36.5,36.5,0,0,0,.1,4.7,11.5,11.5,0,0,0,9.3,10l1.3.2v1.6a3.7,3.7,0,0,1,1.7-1v-.6h.3A11.6,11.6,0,0,0,46.3,34,25.6,25.6,0,0,0,46.6,27.8Z"/><path class="a" d="M26.8,25.7c0-1.8-.1-3.5,0-5.3a8.2,8.2,0,0,1,16.3-.9,8.8,8.8,0,0,1,.2,1.7v9a8.3,8.3,0,0,1-16.5.7C26.7,29.2,26.8,27.4,26.8,25.7Zm1.6,4.5A6.7,6.7,0,0,0,31.9,36a6.4,6.4,0,0,0,7.2-.6,6.1,6.1,0,0,0,2.5-5.2H39.3c-.6,0-1-.4-.9-.9s.4-.7.9-.7h2.3V26.9H39.2c-.5,0-.9-.3-.8-.8a.7.7,0,0,1,.8-.8h2.4V23.6H39.2a.8.8,0,1,1,0-1.6h2.4a6.6,6.6,0,1,0-13.1,0h2.4a.7.7,0,0,1,.8.8.8.8,0,0,1-.8.8H28.5v1.7h2.4a.8.8,0,1,1-.1,1.6H28.5v1.7h2.3c.6,0,1,.4.9.9s-.4.7-.9.7Z"/><rect class="a" x="24.8" y="27.8" width="2.6" height="0.96"/><rect class="a" x="42.9" y="27.8" width="2.6" height="0.96"/><rect class="a" x="20.4" y="23.3" width="2" height="12.64" rx="1"/><rect class="a" x="17.2" y="19.2" width="2" height="20.71" rx="1"/><rect class="a" x="14" y="23.3" width="2" height="12.64" rx="1"/><path class="b" d="M49.7,29.2l2.1-.3c.4-2.2,2.4-4.8,4.7-4.8A1.5,1.5,0,0,1,58,25.6c0,1.5-1.9,2.8-4.9,3.6a19.4,19.4,0,0,1,.5,2c0,3.1-4.9,2.7-4.9,6.8A3.2,3.2,0,0,0,52,41.2c.9,0,2.3-.1,4.3-1.9l.3.4c-2.2,1.8-3.6,2.2-5.3,2.2S47,40.6,47,38.3c0-4,5.2-4.5,5.2-6.3a14.4,14.4,0,0,1-.4-2.3v-.2l-1.8.2Zm3.3-.6c2.4-.6,3.8-1.6,3.8-3s-.3-.9-.8-.9-3,1.5-3,3.9Z"/><path class="b" d="M59.2,39.6a.6.6,0,0,0-.1.4c0,.2.1.3.2.3a1.7,1.7,0,0,0,.9-.7l2.3-2.8.3.3-2.7,3.3c-.8,1-1.2,1.3-1.9,1.3a.7.7,0,0,1-.8-.8,5.8,5.8,0,0,1,.5-1.7l2.3-5.5a32.9,32.9,0,0,1-2.9,3.9l-.3-.2a28.8,28.8,0,0,0,4.7-7.3l1.4-3.3h1.5Z"/><path class="b" d="M38.7,60.7l2.4-5.8a17.4,17.4,0,0,0-3.7.5V55a10.8,10.8,0,0,1,4.3-1.2L44,48.4a5.2,5.2,0,0,1,.7-1.5c-2.1-.5-4.2-1.2-5.8-1.7a3.6,3.6,0,0,0-1.4-.2c-2.1,0-2.5,1.3-2.5,1.9a1.8,1.8,0,0,0,2,1.6l1.8-.3-.5,1.1-1.2.2c-1.4,0-2.7-.7-2.7-2.3s2.5-3.3,4.7-3.3,3.9,1.4,6.2,2.2A6.2,6.2,0,0,1,50,43.2c1.2,0,1.8.6,1.8,1.4s-2.1,2.7-4.1,2.7L46,47.1l-.6,1.2-2.2,5.4H47l-.5,1.2H42.7l-2.5,5.8Zm7.7-14.3,1.5.2c2.1,0,3-1.4,3-2.2s-.3-.8-.9-.8S47.5,44.6,46.4,46.4Z"/><path class="b" d="M50.2,53.5c0-.1,0-.1-.1-.1h-.2l-2.4,3-.3-.2,2.7-3.4c.4-.5.9-1,1.4-1s.7.3.7.6a6.1,6.1,0,0,1-.3,1.1l-2.1,5c0,.1-.1.3-.1.4s.1.3.2.3.6-.3,1-.7l2.2-2.8.3.3-2.7,3.3c-.8,1-1.3,1.3-1.9,1.3a.8.8,0,0,1-.9-.8,4.3,4.3,0,0,1,.6-1.7l1.9-4.5Zm3.7-5.6a1.1,1.1,0,0,1-1,1.2.9.9,0,0,1-.8-.9,1,1,0,0,1,1-1.1A.8.8,0,0,1,53.9,47.9Z"/><path class="b" d="M55.6,53.5a.1.1,0,0,0-.1-.1c-.1,0-.2,0-.2.1l-2.5,3-.3-.2,2.8-3.4c.4-.5.9-1,1.4-1a.6.6,0,0,1,.6.6,2.6,2.6,0,0,1-.3,1.1l-1.7,4v.3c0,.1,0,.1.1.1l.3-.2L58.2,54c1-1.6,1.6-2.2,2.3-2.2s1,.3,1,.8a2.4,2.4,0,0,1-.2.8l-2.1,5.2a.6.6,0,0,0-.1.4c0,.2.1.3.2.3a1.7,1.7,0,0,0,.9-.7l2.3-2.8.3.3-2.7,3.3c-.8,1-1.3,1.3-2,1.3a.7.7,0,0,1-.8-.8,5.8,5.8,0,0,1,.5-1.7l2-4.7v-.2a.2.2,0,0,0-.2-.2.4.4,0,0,0-.4.3l-4.1,6c-.6.9-1.1,1.3-1.5,1.3a.5.5,0,0,1-.6-.6,4.9,4.9,0,0,1,.6-1.7l2-4.7Z"/></svg>