<svg xmlns="http://www.w3.org/2000/svg" width="70" height="66" viewBox="0 0 70 66"><defs><style>.a,.b,.c{fill:#70f5e7;}.b,.c,.d{stroke:#70f5e7;stroke-miterlimit:10;}.b{stroke-width:0.5px;}.c,.d{stroke-width:2px;}.d{fill:none;}</style></defs><path class="a" d="M35.9,42.8v4.1H44a2.4,2.4,0,0,1,2.5,2,4.8,4.8,0,0,1,0,1.7,1.5,1.5,0,0,1-1.4,1.3H25.4a2.3,2.3,0,0,1-1.4-.4l-.3-.4A3,3,0,0,1,25.3,47h8.9V42.8l-1.3-.2a11.5,11.5,0,0,1-9.3-10,36.5,36.5,0,0,1-.1-4.7.9.9,0,0,1,.8-.8.8.8,0,0,1,.8.9v3a9.9,9.9,0,0,0,19.7,1.9c.2-1.3.1-2.7.2-4.1a2.7,2.7,0,0,1,0-.9.8.8,0,0,1,.8-.8.8.8,0,0,1,.8.7,25.6,25.6,0,0,1-.3,6.2,11.6,11.6,0,0,1-10.1,8.7ZM25.2,50.2H45v-.3c0-1.1-.2-1.3-1.4-1.3h-17c-1.4,0-1.5.4-1.5,1.6Z"/><path class="a" d="M43.1,19.6a.7.7,0,0,1-.6-.2l-1.5-1a6.3,6.3,0,0,1,.6,3.6H39.2a.8.8,0,1,0,0,1.6h2.4v1.7H39.2a.7.7,0,0,0-.8.8c-.1.5.3.8.8.8h2.4v1.7H39.3c-.5,0-.9.2-.9.7s.3.9.9.9h2.3a6.1,6.1,0,0,1-2.5,5.2,6.4,6.4,0,0,1-7.2.6,6.7,6.7,0,0,1-3.5-5.8h2.4c.5,0,.9-.2.9-.7s-.3-.9-.9-.9H28.5V26.9h2.3a.8.8,0,1,0,.1-1.6H28.5V23.6h2.4a.8.8,0,0,0,.8-.8.7.7,0,0,0-.8-.8H28.5A6.7,6.7,0,0,1,31,15.9l-.9.4a1.2,1.2,0,0,1-1.6-.1,7.1,7.1,0,0,0-1.7,4.2c-.1,1.8,0,3.5,0,5.3s-.1,3.5,0,5.2a8.3,8.3,0,0,0,16.5-.7v-9A8.8,8.8,0,0,0,43.1,19.6Z"/><rect class="a" x="24.8" y="27.8" width="2.6" height="0.96"/><rect class="a" x="42.9" y="27.8" width="2.6" height="0.96"/><path class="b" d="M50.3,18.2a34,34,0,0,1-.3-4.5A11.8,11.8,0,0,0,44.6,3.3,15.9,15.9,0,0,0,32.8.9a11.6,11.6,0,0,0-8.5,6.4c-1,1.9-1.8,3.8-3,5.7s-2.6,6.7-2.3,7.2a4.8,4.8,0,0,0,1.5,2,29.6,29.6,0,0,0,2.1-2.6l1.5-2c.3-.4,2.3-.8,2.5-.9a25.4,25.4,0,0,1,11.3.8,27,27,0,0,1,6.2,2.9c.1.1,1.8,1.2,1.9,1.6s.7,2.9.7,3a8.8,8.8,0,0,0,.7,2.9,6.1,6.1,0,0,0,2.1-1.1c.6-.4.8-3.5.8-3.9A14.8,14.8,0,0,0,50.3,18.2Zm-1.6,7.9c-.2,0-.3.2-.4.3s-.4-1.3-.5-1.8L47,21.7a1.6,1.6,0,0,0-.7-1.1,27.6,27.6,0,0,0-8-4.1A26.9,26.9,0,0,0,24.5,16a2.8,2.8,0,0,0-1.1.8l-2.7,3.4-.3.3a4.3,4.3,0,0,1-.4-.7c-.1-.1,0-.4.1-.6L23,15.6a1.4,1.4,0,0,1,.8-.5,18.3,18.3,0,0,1,5.7-.8,23.1,23.1,0,0,1,6.9.6,27.9,27.9,0,0,1,10.3,4.5l.6.5A2.6,2.6,0,0,1,48,21c.3,1.4.7,2.7,1,4.1S49.1,25.7,48.7,26.1Zm.6-4.4-.3-.9A2.9,2.9,0,0,0,47.9,19a20.3,20.3,0,0,0-5.5-3.2A26.7,26.7,0,0,0,36,13.7a30.2,30.2,0,0,0-11.6,0l-.9.3A2.7,2.7,0,0,0,22,15.1l-.7.8h-.1a22.4,22.4,0,0,1,1.3-2.7c1-1.6,1.7-3.1,2.5-4.7a10.7,10.7,0,0,1,9.3-6.6,15.2,15.2,0,0,1,9.3,2.1,10.9,10.9,0,0,1,5.3,9.7,26.3,26.3,0,0,0,.4,4.9c.1,1.1.1,2.1.1,3.2Z"/><path class="b" d="M26.6,10.3A8.8,8.8,0,0,1,31,4.6a14.2,14.2,0,0,1,3.3-1.1c.4-.1.7,0,.8.4s-.2.5-.6.6a9.7,9.7,0,0,0-5,2.6,7.5,7.5,0,0,0-1.9,3.5v.2a.6.6,0,0,1-.7.4c-.3,0-.4-.3-.4-.6Z"/><path class="c" d="M27.7,19.3s-5.5.9-7.4,1.8"/><path class="d" d="M47.8,26.6a7.1,7.1,0,0,0-5.4-4.4"/><rect class="a" x="24.8" y="27.8" width="2.6" height="0.96"/><rect class="a" x="42.9" y="27.8" width="2.6" height="0.96"/><rect class="a" x="57.2" y="23.3" width="2" height="12.64" rx="1"/><rect class="a" x="54" y="19.2" width="2" height="20.71" rx="1"/><rect class="a" x="50.8" y="23.3" width="2" height="12.64" rx="1"/><rect class="a" x="18.7" y="23.3" width="2" height="12.64" rx="1"/><rect class="a" x="15.5" y="19.2" width="2" height="20.71" rx="1"/><rect class="a" x="12.3" y="23.3" width="2" height="12.64" rx="1"/></svg>