<svg xmlns="http://www.w3.org/2000/svg" width="70" height="66" viewBox="0 0 70 66"><defs><style>.a{fill:#70f5e7;}</style></defs><path class="a" d="M35.9,42.8v4.1H44a2.4,2.4,0,0,1,2.5,2,4.8,4.8,0,0,1,0,1.7,1.5,1.5,0,0,1-1.4,1.3H25.4a2.3,2.3,0,0,1-1.4-.4l-.3-.4A3,3,0,0,1,25.3,47h8.9V42.8l-1.3-.2a11.5,11.5,0,0,1-9.3-10,36.5,36.5,0,0,1-.1-4.7.9.9,0,0,1,.8-.8.8.8,0,0,1,.8.9v3a9.9,9.9,0,0,0,19.7,1.9c.2-1.3.1-2.7.2-4.1a2.7,2.7,0,0,1,0-.9.8.8,0,0,1,.8-.8.8.8,0,0,1,.8.7,25.6,25.6,0,0,1-.3,6.2,11.6,11.6,0,0,1-10.1,8.7ZM25.2,50.2H45v-.3c0-1.1-.2-1.3-1.4-1.3h-17c-1.4,0-1.5.4-1.5,1.6Z"/><path class="a" d="M26.8,25.7c0-1.8-.1-3.5,0-5.3a8.2,8.2,0,0,1,16.3-.9,8.8,8.8,0,0,1,.2,1.7v9a8.3,8.3,0,0,1-16.5.7C26.7,29.2,26.8,27.4,26.8,25.7Zm1.6,4.5A6.7,6.7,0,0,0,31.9,36a6.4,6.4,0,0,0,7.2-.6,6.1,6.1,0,0,0,2.5-5.2H39.3c-.6,0-1-.4-.9-.9s.4-.7.9-.7h2.3V26.9H39.2c-.5,0-.9-.3-.8-.8a.7.7,0,0,1,.8-.8h2.4V23.6H39.2a.8.8,0,1,1,0-1.6h2.4a6.6,6.6,0,1,0-13.1,0h2.4a.7.7,0,0,1,.8.8.8.8,0,0,1-.8.8H28.5v1.7h2.4a.8.8,0,1,1-.1,1.6H28.5v1.7h2.3c.6,0,1,.4.9.9s-.4.7-.9.7Z"/><rect class="a" x="24.8" y="27.8" width="2.6" height="0.96"/><rect class="a" x="42.9" y="27.8" width="2.6" height="0.96"/><path class="a" d="M25,38.7l-2.3-.9h0l1.3-.5a7.5,7.5,0,0,1-.6-1.3l-2.3,1A1.4,1.4,0,0,1,20,37,105,105,0,0,0,2.3,33.3l-1.1-.2c-.7,0-1.1.6-.7,1.1l.8.4H2.4a103.7,103.7,0,0,1,21.2,5l3.2,1.2A15.9,15.9,0,0,1,25,38.7Z"/><path class="a" d="M25.3,45.9A100.8,100.8,0,0,0,5.1,39.6l-3.8-.7c-.5,0-.9.2-.9.6s.2.8.7.9h1a87.9,87.9,0,0,1,15.1,3.8l6.6,2.5A2.3,2.3,0,0,1,25.3,45.9Z"/><path class="a" d="M33.5,58.3c0,.8-.5,1.1-1,.9l-.5-.3A84.2,84.2,0,0,0,2.1,46.6l-1-.3c-.5-.1-.8-.4-.7-.8a.8.8,0,0,1,1-.6c1.9.5,1.8.6,3.7,1A96.3,96.3,0,0,1,32.9,57.7,3.3,3.3,0,0,1,33.5,58.3Z"/><path class="a" d="M33.3,12.4h.1a6.6,6.6,0,0,0-13,1.4,6.7,6.7,0,0,0,5.5,6.4,3.7,3.7,0,0,1,.4-1.4,5,5,0,0,1-4.4-5A5.1,5.1,0,0,1,27,8.7a4.9,4.9,0,0,1,4.9,4.1A3.7,3.7,0,0,1,33.3,12.4Z"/><path class="a" d="M19.4,58.6a.8.8,0,0,1-1.2.6l-3.4-1.6c-5-2.1-8.2-3.6-13.4-4.9-.8-.2-1.1-.5-1-1s.5-.6,1.3-.4c6.5,1.6,10.8,3.6,16.9,6.5C19,57.9,19.4,58.1,19.4,58.6Z"/><path class="a" d="M27.7,3.2V4.4a.7.7,0,0,1-.7.7.6.6,0,0,1-.7-.7,10.4,10.4,0,0,1,0-2.5.6.6,0,0,1,.7-.7.7.7,0,0,1,.7.7V3.2Z"/><path class="a" d="M18.8,10.7c0,.6-.4,1-.9.8l-2.4-.7a.8.8,0,0,1-.5-.9.8.8,0,0,1,1-.5l2.3.8Z"/><path class="a" d="M39,10.3c-.1.1-.3.4-.5.5l-2.4.7c-.4.2-.7,0-.9-.4a.7.7,0,0,1,.5-.9L38,9.4A.8.8,0,0,1,39,10.3Z"/><path class="a" d="M30,5.3c.1-.2.1-.4.2-.5l.9-2.1a.7.7,0,0,1,1-.4.7.7,0,0,1,.3,1,21.4,21.4,0,0,1-1,2.2,1,1,0,0,1-.8.4C30.4,5.8,30.2,5.5,30,5.3Z"/><path class="a" d="M15.4,15.7c-.5,0-.9-.2-.9-.6s.2-.8.8-.8l2.2-.3c.5,0,.9.2.9.7s-.3.7-.8.8Z"/><path class="a" d="M24,5.2c-.2.3-.4.6-.6.6a.7.7,0,0,1-.8-.2,18.9,18.9,0,0,1-1.1-2.5c-.1-.2.1-.6.3-.8a1.1,1.1,0,0,1,.8.1C23.1,3.3,23.5,4.2,24,5.2Z"/><path class="a" d="M24.9,22.2a.7.7,0,0,1,.8.9,20.5,20.5,0,0,1-.5,2.4.6.6,0,0,1-.8.5.8.8,0,0,1-.6-.8,22.7,22.7,0,0,1,.6-2.5C24.4,22.5,24.8,22.3,24.9,22.2Z"/><path class="a" d="M22.2,21.2a7.2,7.2,0,0,1-2,2.8,1,1,0,0,1-.7-.2c-.1-.2-.2-.6-.1-.7A18.8,18.8,0,0,1,21,20.8a1.1,1.1,0,0,1,.8-.1C22,20.8,22.1,21.1,22.2,21.2Z"/><path class="a" d="M20.7,7.5a.7.7,0,0,1-1.1.6l-2-1.8a1,1,0,0,1,.1-.9.7.7,0,0,1,.7-.2l2.3,2Z"/><path class="a" d="M36.6,5.8l-.4.6L34.5,7.9c-.4.4-.8.4-1.1,0s-.2-.7.2-1.1l1.7-1.5a1.1,1.1,0,0,1,.8-.1C36.3,5.3,36.4,5.6,36.6,5.8Z"/><path class="a" d="M19.6,18.6c-.1.1-.2.4-.4.5l-2,1.2c-.5.2-.9.1-1.1-.3a.8.8,0,0,1,.3-1l2.1-1.1A.7.7,0,0,1,19.6,18.6Z"/><path class="a" d="M68.2,57.4H65.4v-9a.5.5,0,0,1,.4-.6,4.5,4.5,0,0,0,3.3-4.5,4.5,4.5,0,0,0-3.6-4.5,4.7,4.7,0,0,0-5.6,3.4A4.7,4.7,0,0,0,63,47.8c.4.1.5.3.5.7v8.9H42.9a14.7,14.7,0,0,0,0-2.1H41v2.1h-.2v1.9H68.2a1,1,0,0,0,.9-.9A.9.9,0,0,0,68.2,57.4Zm-6.5-14a2.8,2.8,0,1,1,5.6-.1,2.8,2.8,0,0,1-2.8,2.8A2.7,2.7,0,0,1,61.7,43.4Z"/><path class="a" d="M57.1,18l-2.5-1.3a.7.7,0,0,1-.5-.7c.1-2.3,0-4.6.1-6.9a1.6,1.6,0,0,0-.9-1.5L49,5.5a7.1,7.1,0,0,0-2.9.1l-4.2,2A1.5,1.5,0,0,0,41,9.1c.1,1.2,0,2.5,0,3.8v.7l1.1,1.1a8.3,8.3,0,0,1,.8,1.2V9.7a.8.8,0,0,1,.4-.7l3.9-1.9h.7l4,1.9a.8.8,0,0,1,.4.7v7a1.3,1.3,0,0,0,.9,1.4l2.4,1.2a.8.8,0,0,1,.4.8V26c0,.9.3,1.4,1,1.4s.9-.5.9-1.3V19.3A1.2,1.2,0,0,0,57.1,18Z"/><path class="a" d="M54.2,31.2h9.3v4.5a1,1,0,0,0,1,1.1c.5,0,.9-.4.9-1.1V30.4a1,1,0,0,0-1.1-1.1H53.4a1,1,0,0,0-1.1,1.1V54.7a.9.9,0,0,0,.9.8.8.8,0,0,0,.9-.8,2,2,0,0,0,.1-.7V31.2Z"/><path class="a" d="M50.4,52.7V50.9a.9.9,0,0,0-.9-1,1,1,0,0,0-1,.9v3.8a1,1,0,0,0,1,.9.9.9,0,0,0,.9-1Z"/><path class="a" d="M59.8,52.8v1.7a.9.9,0,0,0,.9,1c.5.1.9-.3.9-.9a22.8,22.8,0,0,0,0-3.7.9.9,0,0,0-.9-1c-.6,0-.9.4-.9,1.1v1.8Z"/><path class="a" d="M56,52.7v1.8c.1.6.4,1,1,1a.9.9,0,0,0,.9-1V50.9a.9.9,0,0,0-.9-1c-.6,0-.9.4-1,1h0v1.7Z"/><path class="a" d="M50.4,29.2v-1a1,1,0,0,0-.9-.8c-.4,0-.9.2-.9.7a9.6,9.6,0,0,0,0,2.4.7.7,0,0,0,.9.6.9.9,0,0,0,.9-.8V29.2Z"/><path class="a" d="M46.6,12.4a3.4,3.4,0,0,0,0-1,.7.7,0,0,0-.8-.8.8.8,0,0,0-1,.7v2.3a.9.9,0,0,0,1,.7.9.9,0,0,0,.8-.9A3.4,3.4,0,0,0,46.6,12.4Z"/><path class="a" d="M46.6,23.7a4.1,4.1,0,0,0,0-1.1c0-.4-.3-.7-.8-.8s-.9.2-.9.7a17.7,17.7,0,0,0-.1,2.3.9.9,0,0,0,1,.7c.5-.1.8-.3.8-.9a2.7,2.7,0,0,0,0-.9Z"/><path class="a" d="M50.4,34.9v-1a1.1,1.1,0,0,0-.9-.9.9.9,0,0,0-.9.8,8.8,8.8,0,0,0,0,2.3.8.8,0,0,0,.9.7c.5,0,.8-.4.9-.9h0v-.9Z"/><path class="a" d="M59.8,34.9V36a1.1,1.1,0,0,0,.9.8.9.9,0,0,0,.9-.7V33.7a1,1,0,0,0-.9-.7c-.5,0-.8.4-.9.9h0v.9Z"/><path class="a" d="M54.2,23.6a4.5,4.5,0,0,0-.1-1.1.8.8,0,0,0-.8-.7c-.5,0-.9.2-.9.7a18.5,18.5,0,0,0-.1,2.3.9.9,0,0,0,.9.7.8.8,0,0,0,.9-.7A4.9,4.9,0,0,0,54.2,23.6Z"/><path class="a" d="M56,34.9a3.7,3.7,0,0,0,.1,1.1.8.8,0,0,0,.8.8.8.8,0,0,0,.9-.8,8.1,8.1,0,0,0,0-2.2.7.7,0,0,0-.9-.7.7.7,0,0,0-.8.7A4.5,4.5,0,0,0,56,34.9Z"/><path class="a" d="M50.4,46.1v-1a1,1,0,0,0-.8-.8c-.5,0-1,.2-1,.7a8.9,8.9,0,0,0,0,2.3.7.7,0,0,0,.9.7,1,1,0,0,0,.9-.8V46.1Z"/><path class="a" d="M44.8,18v1a1,1,0,0,0,1,.9.8.8,0,0,0,.8-.9,6,6,0,0,0,0-1.9.8.8,0,0,0-.8-.9,1,1,0,0,0-1,.8v1Z"/><path class="a" d="M48.5,18.1a4.5,4.5,0,0,0,.1,1.1.8.8,0,0,0,.9.7.9.9,0,0,0,.9-.8V17a.8.8,0,0,0-.9-.8.8.8,0,0,0-.9.7A4.9,4.9,0,0,0,48.5,18.1Z"/><path class="a" d="M56,40.6a3.4,3.4,0,0,0,.1,1c0,.5.3.7.8.8a.8.8,0,0,0,.9-.8,8.1,8.1,0,0,0,0-2.2.7.7,0,0,0-.8-.7.8.8,0,0,0-.9.8,4,4,0,0,0,0,1.1Z"/><path class="a" d="M50.4,23.7v-1c-.1-.5-.4-.9-.9-.9s-.9.2-.9.7a8.9,8.9,0,0,0,0,2.3c0,.5.4.7.9.7s.8-.3.9-.9Z"/><path class="a" d="M56,46.2a3.4,3.4,0,0,0,.1,1,.7.7,0,0,0,.8.8c.5,0,.9-.2.9-.7a8.9,8.9,0,0,0,0-2.3.7.7,0,0,0-.8-.7.8.8,0,0,0-.9.8,4.1,4.1,0,0,0,0,1.1Z"/><path class="a" d="M50.4,12.4v-1a.9.9,0,0,0-.9-.8.7.7,0,0,0-.9.7,8.8,8.8,0,0,0,0,2.3c0,.5.5.7,1,.7a1.1,1.1,0,0,0,.8-.9v-1Z"/><path class="a" d="M48.5,40.6a3.4,3.4,0,0,0,.1,1,.9.9,0,0,0,.9.8c.5,0,.8-.4.9-.9v-2a.8.8,0,0,0-.9-.8.8.8,0,0,0-.9.7c0,.1-.1.1-.1.2v1Z"/></svg>