<svg xmlns="http://www.w3.org/2000/svg" width="70" height="66" viewBox="0 0 70 66"><defs><style>.a{fill:#70f5e7;}.b{fill:none;stroke:#70f5e7;stroke-miterlimit:10;stroke-width:1.5px;}</style></defs><path class="a" d="M46.6,27.8a.8.8,0,0,0-.8-.7.8.8,0,0,0-.8.8,2.7,2.7,0,0,0,0,.9c-.1,1.4,0,2.8-.2,4.1A9.9,9.9,0,0,1,25.1,31V28a.8.8,0,0,0-.8-.9.9.9,0,0,0-.8.8,36.5,36.5,0,0,0,.1,4.7,11.5,11.5,0,0,0,9.3,10l1.3.2V45h1.7V42.8h.3A11.6,11.6,0,0,0,46.3,34,25.6,25.6,0,0,0,46.6,27.8Z"/><path class="a" d="M41.5,50.2H25.1c0-1.2.1-1.6,1.5-1.6h4.5a.6.6,0,0,1-.1-.4,1.5,1.5,0,0,1-.7-1.3h-5a3,3,0,0,0-1.6,4.1l.3.4a2.3,2.3,0,0,0,1.4.4h16A1.7,1.7,0,0,1,41.5,50.2Z"/><path class="a" d="M26.8,25.7c0-1.8-.1-3.5,0-5.3a8.2,8.2,0,0,1,16.3-.9,8.8,8.8,0,0,1,.2,1.7v9a8.3,8.3,0,0,1-16.5.7C26.7,29.2,26.8,27.4,26.8,25.7Zm1.6,4.5A6.7,6.7,0,0,0,31.9,36a6.4,6.4,0,0,0,7.2-.6,6.1,6.1,0,0,0,2.5-5.2H39.3c-.6,0-1-.4-.9-.9s.4-.7.9-.7h2.3V26.9H39.2c-.5,0-.9-.3-.8-.8a.7.7,0,0,1,.8-.8h2.4V23.6H39.2a.8.8,0,1,1,0-1.6h2.4a6.6,6.6,0,1,0-13.1,0h2.4a.7.7,0,0,1,.8.8.8.8,0,0,1-.8.8H28.5v1.7h2.4a.8.8,0,1,1-.1,1.6H28.5v1.7h2.3c.6,0,1,.4.9.9s-.4.7-.9.7Z"/><rect class="a" x="24.8" y="27.8" width="2.6" height="0.96"/><rect class="a" x="42.9" y="27.8" width="2.6" height="0.96"/><rect class="a" x="54" y="23.3" width="2" height="12.64" rx="1"/><rect class="a" x="50.8" y="19.2" width="2" height="20.71" rx="1"/><rect class="a" x="47.6" y="23.3" width="2" height="12.64" rx="1"/><rect class="a" x="20.4" y="23.3" width="2" height="12.64" rx="1"/><rect class="a" x="17.2" y="19.2" width="2" height="20.71" rx="1"/><rect class="a" x="14" y="23.3" width="2" height="12.64" rx="1"/><path class="a" d="M53.3,43.7a6,6,0,0,0-6.6-5.2l-3.1.5a6.1,6.1,0,0,0-5.2,4.3c0,.1-.2.3-.4.4l-6.8,1-1.2.5a2,2,0,0,0-.8,1.9,2.4,2.4,0,0,0,2.4,2.1l3.2-.5h0l1.5-.2,2.2-.4c.4-.1.6,0,.8.4a8.5,8.5,0,0,0,2.3,2,1.7,1.7,0,0,1,.5-1.4,6.1,6.1,0,0,1-1.6-1.3l1.9-.2a1.4,1.4,0,0,1,1.3-.8h.2a2.3,2.3,0,0,0-.4-2.8l.5-.2,3.4-.5a1.4,1.4,0,0,1,1.4,1.2,1.5,1.5,0,0,1-1,1.8h-.7a1.4,1.4,0,0,1,.2.6.6.6,0,0,1,0,.6c0,.1-.1.2-.2.3h.6a3,3,0,0,0,2-4.7,2.7,2.7,0,0,0-2.6-1.2h-.8L44,42a3.1,3.1,0,0,0-1.9,1.2h-.8l-1.4.2a4.6,4.6,0,0,1,3.2-2.9,30.3,30.3,0,0,1,4.2-.6,4.6,4.6,0,0,1,4.4,6,4.6,4.6,0,0,1-2.1,2.6h.1a1.6,1.6,0,0,1,.9.7c0,.1.1.2.1.3A6,6,0,0,0,53.3,43.7Zm-13,1.1,1.6-.3a.9.9,0,0,1,.9.7.8.8,0,0,1-.7.9l-2.4.4-7.9,1.2q-1.1.1-1.2-.6c-.1-.6.3-.9,1-1Z"/><path class="b" d="M56.6,51.5l-1.1-.4v-.2l.5-1.2a6.6,6.6,0,0,0,.3-3.4,5.7,5.7,0,0,0-3.1-4.1,3.9,3.9,0,0,0-1.5-.6,7.7,7.7,0,0,1,1.4,3.7,1.9,1.9,0,0,1,.5.9,2.9,2.9,0,0,1,.1,2.4l-.6,1.6-6.3-2.4A10.4,10.4,0,0,1,48,45.4a2.6,2.6,0,0,1,1.3-1,3.3,3.3,0,0,0-1.7-2,3.8,3.8,0,0,0-2,2.1l-.9,1.9c0,.2-.1.3-.1.5l-1.1-.4c-.4-.2-.6-.1-.7.3l-3.7,9.6a1.6,1.6,0,0,0,1,2.2l10.8,4.2a1.7,1.7,0,0,0,2.3-1l3.7-9.6C57,51.8,56.9,51.7,56.6,51.5Zm-6.7,2.6a1.9,1.9,0,0,1-1.1,1.2.1.1,0,0,0-.1.1l-.6,2.1c-.1.4-.3.5-.7.4l-.7-.3-.7-.3a.4.4,0,0,1-.2-.7,17.4,17.4,0,0,1,1-1.9v-.2a1.7,1.7,0,0,1,0-1.7,1.9,1.9,0,0,1,1.7-.8A1.8,1.8,0,0,1,49.9,54.1Z"/></svg>