<svg xmlns="http://www.w3.org/2000/svg" width="70" height="66" viewBox="0 0 70 66"><defs><style>.a{fill:#70f5e7;}</style></defs><path class="a" d="M35.9,42.8v4.1H44a2.4,2.4,0,0,1,2.5,2,4.8,4.8,0,0,1,0,1.7,1.5,1.5,0,0,1-1.4,1.3H25.4a2.3,2.3,0,0,1-1.4-.4l-.3-.4A3,3,0,0,1,25.3,47h8.9V42.8l-1.3-.2a11.5,11.5,0,0,1-9.3-10,36.5,36.5,0,0,1-.1-4.7.9.9,0,0,1,.8-.8.8.8,0,0,1,.8.9v3a9.9,9.9,0,0,0,19.7,1.9c.2-1.3.1-2.7.2-4.1a2.7,2.7,0,0,1,0-.9.8.8,0,0,1,.8-.8.8.8,0,0,1,.8.7,25.6,25.6,0,0,1-.3,6.2,11.6,11.6,0,0,1-10.1,8.7ZM25.2,50.2H45v-.3c0-1.1-.2-1.3-1.4-1.3h-17c-1.4,0-1.5.4-1.5,1.6Z"/><path class="a" d="M26.8,25.7c0-1.8-.1-3.5,0-5.3a8.2,8.2,0,0,1,16.3-.9,8.8,8.8,0,0,1,.2,1.7v9a8.3,8.3,0,0,1-16.5.7C26.7,29.2,26.8,27.4,26.8,25.7Zm1.6,4.5A6.7,6.7,0,0,0,31.9,36a6.4,6.4,0,0,0,7.2-.6,6.1,6.1,0,0,0,2.5-5.2H39.3c-.6,0-1-.4-.9-.9s.4-.7.9-.7h2.3V26.9H39.2c-.5,0-.9-.3-.8-.8a.7.7,0,0,1,.8-.8h2.4V23.6H39.2a.8.8,0,1,1,0-1.6h2.4a6.6,6.6,0,1,0-13.1,0h2.4a.7.7,0,0,1,.8.8.8.8,0,0,1-.8.8H28.5v1.7h2.4a.8.8,0,1,1-.1,1.6H28.5v1.7h2.3c.6,0,1,.4.9.9s-.4.7-.9.7Z"/><rect class="a" x="24.8" y="27.8" width="2.6" height="0.96"/><rect class="a" x="42.9" y="27.8" width="2.6" height="0.96"/><path class="a" d="M58.8,11.8v-1L44.1,6.4,42.5,7l-.4,3.7-1.4.4L41,9.5l-.7-4.2-2.8-.9c-1.2-.3-2.2-.9-3.5-.5L12.1,10.5c-.6.2-.9.4-.9,1.2q.2,12.3,0,24.6a18.7,18.7,0,0,0,1.4,7.4c.3.5.5,1.1.8,1.6l1.7.8,4-1.3,2.3-.2h3.2l-5,2L18,47.6,17.1,50a5.7,5.7,0,0,1,0,1.3A37.8,37.8,0,0,0,34.3,63.8a3.8,3.8,0,0,0,1.5,0A38.2,38.2,0,0,0,53.9,50.2a24.7,24.7,0,0,0,5-15.4C58.7,27.2,58.8,19.5,58.8,11.8ZM55,42.6c-3.7,8.6-9,14.6-19,18.5a3.4,3.4,0,0,1-2,0,33.8,33.8,0,0,1-14.4-11l.7-1.9,5.6-2.6,1-2.2c.1-.1-7.5-.7-7.5-.7l-3.8,1.2a23.3,23.3,0,0,1-1.8-8.7c.1-7,0-14.1,0-21.2,0-1.3.2-1.5,1.4-1.9L31.8,7.2c1.5-.5,3.2-1.1,4.6-.5l2.2.6.5,2.3-.4,3.8L43.6,12V8.7l4.5,1.4,6.8,2c1.2.4,1.4.6,1.4,1.9,0,7.2-.1,14.4,0,21.6A18.2,18.2,0,0,1,55,42.6Z"/></svg>