<svg xmlns="http://www.w3.org/2000/svg" width="70" height="66" viewBox="0 0 70 66"><defs><style>.a,.b,.c{fill:#70f5e7;}.b,.c{stroke:#70f5e7;stroke-miterlimit:10;}.b{stroke-width:0.55px;}.c{stroke-width:0.28px;}</style></defs><path class="a" d="M36.9,51.9a2.4,2.4,0,0,0,.7-1.7H32.7l.2,1.7Z"/><path class="a" d="M28.6,46.9H25.3a3,3,0,0,0-1.6,4.1l.3.4a1.6,1.6,0,0,1,1.2-1.3h-.1c0-1.2.1-1.6,1.5-1.6h2.2A9.9,9.9,0,0,1,28.6,46.9Z"/><path class="a" d="M46.6,27.8a.8.8,0,0,0-.8-.7.8.8,0,0,0-.8.8,2.7,2.7,0,0,0,0,.9c-.1,1.4,0,2.8-.2,4.1A9.9,9.9,0,0,1,25.1,31V28a.8.8,0,0,0-.8-.9.9.9,0,0,0-.8.8,36.5,36.5,0,0,0,.1,4.7,11.5,11.5,0,0,0,9.3,10l1.3.2v4.1H32.4a15.5,15.5,0,0,0,.3,1.7h4.7a.6.6,0,0,1-.1-.4L37,47.1a.3.3,0,0,1-.1-.2h-1V42.8h.3A11.6,11.6,0,0,0,46.3,34,25.6,25.6,0,0,0,46.6,27.8Z"/><path class="a" d="M46.5,48.9a2.4,2.4,0,0,0-2.5-2H40.7l.7,1.7h2.2c1.2,0,1.4.2,1.4,1.3a2.1,2.1,0,0,1,1.3,1.3.8.8,0,0,0,.2-.6A4.8,4.8,0,0,0,46.5,48.9Z"/><path class="a" d="M26.8,25.7c0-1.8-.1-3.5,0-5.3a8.2,8.2,0,0,1,16.3-.9,8.8,8.8,0,0,1,.2,1.7v9a8.3,8.3,0,0,1-16.5.7C26.7,29.2,26.8,27.4,26.8,25.7Zm1.6,4.5A6.7,6.7,0,0,0,31.9,36a6.4,6.4,0,0,0,7.2-.6,6.1,6.1,0,0,0,2.5-5.2H39.3c-.6,0-1-.4-.9-.9s.4-.7.9-.7h2.3V26.9H39.2c-.5,0-.9-.3-.8-.8a.7.7,0,0,1,.8-.8h2.4V23.6H39.2a.8.8,0,1,1,0-1.6h2.4a6.6,6.6,0,1,0-13.1,0h2.4a.7.7,0,0,1,.8.8.8.8,0,0,1-.8.8H28.5v1.7h2.4a.8.8,0,1,1-.1,1.6H28.5v1.7h2.3c.6,0,1,.4.9.9s-.4.7-.9.7Z"/><rect class="a" x="24.8" y="27.8" width="2.6" height="0.96"/><rect class="a" x="42.9" y="27.8" width="2.6" height="0.96"/><path class="b" d="M30.2,13.4h.1l.9-.4C30.5,11,29.8,9,29,6.9l-.6-2.1h.8a3.7,3.7,0,0,0,3-3.6c-.1-.4-.2-.6-.7-.6a3.2,3.2,0,0,0-3,1.2l-.6.7-.3-1.3c0-.3-.2-.5-.5-.4s-.4.3-.4.6.3,1.4.5,2.1.3,1.3.4,2l-.3-.2a3.8,3.8,0,0,0-4.2.5c-.4.4-.5.5-.1,1a3.6,3.6,0,0,0,3.6,1.5l1.7-.6c.4,1.3.8,2.6,1.3,4l-1.4-.7-.3-.4a2.3,2.3,0,0,0-2.2-1.3,5.4,5.4,0,0,0-3.4,1.4h-.4L11.5,6.2,8.2,4.8c-.6-.3-.9-.1-.8.6a2.2,2.2,0,0,0,.1.8,20.2,20.2,0,0,0,.7,2.3H7.8l-6.4-2c-.2,0-.4-.1-.6.1s-.1.4,0,.7a9.2,9.2,0,0,0,2.3,3.6,14.4,14.4,0,0,1,1.8,2.5,6.3,6.3,0,0,0,5.2,3.5l.3.2a4.7,4.7,0,0,0,2.1,1.6c2,.7,4-.4,5.3-1.8a.4.4,0,0,0,0-.6.5.5,0,0,0-.6-.1c-.1.1-.1.2-.2.2a17.7,17.7,0,0,1-1.7,1.2,3.1,3.1,0,0,1-3.7-.6H12a11.5,11.5,0,0,0,3.1-1.1c.3-.2.4-.4.2-.7a.4.4,0,0,0-.6-.2l-.3.2-2,.7A5.3,5.3,0,0,1,6,13.4L5.8,13l.5.2a9.2,9.2,0,0,0,6.1.5c.3,0,.4-.2.4-.5a.4.4,0,0,0-.4-.4h-.3a8.6,8.6,0,0,1-5.9-.7A10.7,10.7,0,0,1,2,7.7H2l2.4.7L19.6,13a2,2,0,0,0,2.3-.6l.8-.9a4.2,4.2,0,0,1,3.1-1.3,1.4,1.4,0,0,1,1.4,1,1.8,1.8,0,0,1-1,2,3,3,0,0,0-1.6,2.2,15.7,15.7,0,0,1-1.8,4.2,6.8,6.8,0,0,1-5.3,3.3,10.7,10.7,0,0,1-5-1,1.9,1.9,0,0,0-1.8.1L7.4,24.3l-.3.2-.3-1.2c0-.4,0-.6.5-.8l4.5-2.3a.5.5,0,0,0,.3-.7.5.5,0,0,0-.7-.1L6.7,21.8a1.4,1.4,0,0,0-.8,1,2.8,2.8,0,0,0,.1.9,4.7,4.7,0,0,0,1.9,3.2,4.8,4.8,0,0,0,3.3.8,1.5,1.5,0,0,0,1.5-1l1.2-2.6c.3-.6.3-.6.9-.5a8.6,8.6,0,0,0,5.7-.6,9.3,9.3,0,0,0,3.7-3.9,17.4,17.4,0,0,0,1.3-3.6,2,2,0,0,1,1.1-1.4l.4-.3.9-.4h.4l1.8-.3C30.1,13.1,30.2,13.2,30.2,13.4Zm1-12a2.7,2.7,0,0,1-2.7,2.4A2.6,2.6,0,0,1,31.2,1.4ZM23.9,6.3a2.8,2.8,0,0,1,3.8.4A2.8,2.8,0,0,1,23.9,6.3Zm-4.2,5.8L9.8,9l-.4-.3a8.5,8.5,0,0,1-1-2.8l13,5.6A1.3,1.3,0,0,1,19.7,12.1ZM7.6,25.3a.1.1,0,0,0,.1-.1l3.6-2.4.5-.2h.1L9,26.4A3,3,0,0,1,7.6,25.3Zm4.2,1.2-.4.3H9.9L11,25.4l1.6-2.1c.2-.3.4-.3.7-.1Z"/><path class="c" d="M25.7,11.9v.2a.6.6,0,0,1-.5.6c-.2,0-.4-.2-.4-.6v-.4c0-.3.1-.4.4-.5s.4.2.5.5v.2Z"/><path class="a" d="M68.3,27.5,66.4,26c-.9-.7-1.2-.7-1.9.3-3.7,4.9-14.8,19.6-15.8,20.8A2.9,2.9,0,0,0,48,50c.3,1.7.3,1.6,2,1.5A3.2,3.2,0,0,0,52.6,50c1.5-2.1,3.1-4.2,4.7-6.2l2.1-2.7c3-4.1,6.1-8.1,9.1-12.1C69,28.3,69,28,68.3,27.5ZM60,37.6,51.2,49.2a1.3,1.3,0,0,1-1.5.6,1.5,1.5,0,0,1,.2-1.7c4.6-5.9,9.1-11.9,13.7-17.9l.3-.4,1.3,1Zm6.2-8.1-1.3-1,.7-1,1.3.9Z"/><path class="a" d="M41.7,53.2a9.1,9.1,0,0,1,.7-1.4c.7-1.3,1.9-1.4,2.9-.2a3.5,3.5,0,0,1,.7.9,3.9,3.9,0,0,0,4.3,1.8c1-.1,2-.4,3-.6l.5-.2a.9.9,0,0,1,1,.6.8.8,0,0,1-.4.9c-2.3.8-4.6,1.4-7,.7a5.9,5.9,0,0,1-2.6-2.1l-.9-1.2a9.1,9.1,0,0,0-.7,1.4c-.3.6-.6,1.3-1.4,1.3s-1.2-.6-1.5-1.3a5.9,5.9,0,0,1-.6-1.4c-1.6,3.2-4.4,2.6-7.1,2.1a15,15,0,0,0,.2,2.2v.9c0,2.1-1.4,3.1-3.4,2.5a7.3,7.3,0,0,1-4.2-3.5,6.8,6.8,0,0,1-.9-2.5,2.3,2.3,0,0,1,2.5-2.6,14.7,14.7,0,0,1,2.9.5l.8.2-.3-2.4c-.2-1.6-.5-3.1-.7-4.7a.9.9,0,0,1,.7-1.1,1,1,0,0,1,.9.9c.4,2.5.7,4.9,1.1,7.4a.6.6,0,0,0,.5.6c1,.1,2,.4,2.9.4s2.6-.9,2.7-2.6-.1-1.1-.1-1.7v-.8a1,1,0,0,1,.7-.8.8.8,0,0,1,1,.5,22.5,22.5,0,0,1,.8,2.4C41,51.2,41.3,52.2,41.7,53.2Zm-10.5,4-.3-2.8c-.1-.2-.2-.4-.3-.4l-3.4-.9c-1.2-.1-1.5.3-1.2,1.4a6.3,6.3,0,0,0,3.4,3.9C30.4,58.9,31.3,58.9,31.2,57.2Z"/></svg>