<svg xmlns="http://www.w3.org/2000/svg" width="80" height="80" viewBox="0 0 80 80"><defs><style>.a{fill:#16dac7;}</style></defs><path class="a" d="M57.8,41.6c.1-.1.2-.3.1-.4a8,8,0,0,0-4.2-2.5,12.7,12.7,0,0,1-3.7-1c-2.4-1.3-2.4-3.8,0-5.1a1.8,1.8,0,0,0,1.1-2l.6-24.8a4.6,4.6,0,0,1,.2-2c.5-.8,21.5-.4,21.5-.4,4,.1,5.7,2.1,5.8,5.3s.1,5.6,0,8.4-.9,5.5-5.1,5.5c0,0-15.4-.2-16.2,0a.2.2,0,0,0-.2.2v3.8c0,1.1.1,2.1,0,3.1s.2,2.4,1.6,3.2,1.8,3.3,0,4.6l-1.5.8c-.1,0-.1.2,0,.3l1.1,1c1.1,1.3,1,2.7-.5,3.5a14.5,14.5,0,0,1-4.7,1.6c-3.2.5-6.4.7-9.7,1-.6,0-1.3.1-1.4-.9s.7-.8,1.4-.9l11.3-1.4A9.5,9.5,0,0,0,57.8,41.6ZM57.5,6.1V20.5a.3.3,0,0,0,.3.3H74.4c2.2,0,3-1.7,3-4s.1-5,0-7.6-1.6-3.4-4.2-3.5-15.4.2-15.4.2S57.5,6,57.5,6.1Zm-1.6.3c.1-1-.5-1.8-1.3-1.7s-1.1.6-1.1,1a.9.9,0,0,0-.1.5c-.1,7.7-.3,15.4-.5,23v3.3a1.6,1.6,0,0,0,2.3,1.6c.5-.4.8-.7.8-1.3V19.4C56,19.3,56.1,8.6,55.9,6.4ZM51.1,34.3a.2.2,0,0,0-.3-.1c-1.1.8-1,1.4.2,2a7.6,7.6,0,0,0,6.9,0c1.2-.6,1.3-1.2.2-2h-.3C56.3,36.8,52.4,36.3,51.1,34.3Z"/><path class="a" d="M46.1,73.2a11,11,0,0,1-5.1,0,17,17,0,0,1-2.4-.9c-2.4-1.2-2.4-3.7-.1-5a10.8,10.8,0,0,1,10.2,0c2.3,1.3,2.3,3.8-.1,5A18.4,18.4,0,0,1,46.1,73.2ZM40.2,71a10.2,10.2,0,0,0,6.9,0l.6-.2c1.2-.5,1.2-1.4,0-2a9.1,9.1,0,0,0-8.2,0c-1.2.6-1.2,1.5,0,2Z"/><path class="a" d="M6.1,56.5a5.4,5.4,0,0,1,1.8,0,10.5,10.5,0,0,1,3.6.8,2.6,2.6,0,0,1,1.8,2.5,2.6,2.6,0,0,1-1.8,2.4,9.9,9.9,0,0,1-9,.1A3,3,0,0,1,.7,59.8a2.6,2.6,0,0,1,1.9-2.5A10.5,10.5,0,0,1,6.1,56.5Zm2.4,1.7a7.1,7.1,0,0,0-2.9,0,11.3,11.3,0,0,0-2.4.8c-.9.4-.9,1.1,0,1.6a8.5,8.5,0,0,0,7.6,0c1-.5,1-1.2,0-1.7Z"/><path class="a" d="M34,70.2c-6.7-.8-13.4-1.1-19.9-3.2a21.7,21.7,0,0,1-3.5-1.5,1,1,0,0,1-.6-1.3c.2-.4,1-.4,1.3-.2,4.4,2.3,9.3,2.9,14.1,3.5l8.8.9c.7.1,1.6,0,1.5,1S34.7,70.2,34,70.2Z"/><path class="a" d="M27.7,45.5a.7.7,0,0,1,.7.7c-.1.4,0,.8-.8,1s-3.6.6-5.3,1.2-5.8,1.8-8.7,2.9a11,11,0,0,0-5,3.8.9.9,0,0,1-1.4.4,1,1,0,0,1,0-1.5,13.9,13.9,0,0,1,5.6-4.3,56.6,56.6,0,0,1,14.4-4.2Z"/><path class="a" d="M32.6,42.8a9.4,9.4,0,0,1,4.7,0l1.7.7c2.1,1,2.1,3.3.1,4.4a9.1,9.1,0,0,1-8.5,0c-2-1.1-2-3.4.1-4.4Zm-.7,3.7a9.2,9.2,0,0,0,5.7,0l.6-.2c.7-.3.8-.8,0-1.3a7.9,7.9,0,0,0-6.7,0c-.8.5-.8,1,.1,1.3Z"/></svg>