<svg xmlns="http://www.w3.org/2000/svg" xmlns:xlink="http://www.w3.org/1999/xlink" width="9123.5" height="1081.3" viewBox="0 0 9123.5 1081.3"><defs><style>.a,.d{fill:none;}.b{clip-path:url(#a);}.c{fill:url(#b);}.d{stroke:#fff;stroke-miterlimit:10;}</style><clipPath id="a"><rect class="a" y="-53" width="11015" height="1154.11"/></clipPath><linearGradient id="b" x1="6196" y1="2094.72" x2="4264.74" y2="-1250.32" gradientUnits="userSpaceOnUse"><stop offset="0" stop-color="#8fb0d1"/><stop offset="0.16" stop-color="#3e7bb8"/><stop offset="0.23" stop-color="#1b65ae"/><stop offset="0.3" stop-color="#1f60ae"/><stop offset="0.38" stop-color="#2c53ae"/><stop offset="0.46" stop-color="#423cad"/><stop offset="0.52" stop-color="#5627ad"/><stop offset="0.64" stop-color="#41147d"/><stop offset="0.73" stop-color="#33085e"/><stop offset="0.78" stop-color="#2e0452"/><stop offset="1" stop-color="#00043d"/></linearGradient></defs><g class="b"><rect class="c" x="-49.9" y="-53.8" width="11091" height="1870.74"/></g><path class="d" d="M1263.5,322.2c-86.8,7.3-173.2,18.8-260,26.2L809.7,576.8,971,634.6"/><polyline class="d" points="1173.7 634.6 1003 576.8 900 470.4"/><polyline class="d" points="1539.5 456.8 1434.6 502.2 1339.9 599.5 1428.9 722.2 1661.2 959 1787 854.6 1670 743.4 1436.4 503.5 1432.7 502.9"/><polyline class="d" points="1462.8 366.2 1347 454.5 1231.9 498.2 1339.9 599.5"/><polyline class="d" points="1263.5 322.2 1345 230.4 1539.5 454.5 1591.9 581.7 1698.4 494.8"/><polyline class="d" points="2014.1 311.5 1767.5 366.2 1659.7 447.1 1770.1 369.7 1939.1 470.6 2032.7 564.4 2130.6 473.5 2187 385.8 2395.9 605.7 2653.3 684.8"/><polyline class="d" points="2453.3 687 2195.4 605.7 2189.7 603.5 2130.6 687 2032.7 564.4 1933.3 684.8 1767.7 579.9 1592.1 364.2 1816.1 311.5"/><polyline class="d" points="2189.7 603.5 2290.3 494.5 2399.5 385.8 2337.3 306.6 2453.3 261.7 2535 307.7 2583.3 292.4 2672.3 383 2762.6 296.8 2903.5 97.8 3144.5 323.9 3221.3 515.9 3415.3 318.8 3662.6 398.8 3833.5 614.6 3696.8 742.6"/><polygon class="d" points="3161.7 667.3 2986.6 469.3 2810.1 687 2581.9 475.9 2672.3 383 2758.6 478.3 2810.1 469.3 2986.6 684.8 3167 888.4 3276.8 792.4 3161.7 667.3"/><polyline class="d" points="2758.6 478.3 2903.5 319.8 3144.5 97.8 3225.9 319.8 3410.1 518.6 3661.5 610.8"/><polyline class="d" points="3487.9 737.3 3661.5 610.8 3833.3 397.7 3992.4 304.2"/><polyline class="d" points="3661.1 398.3 3805.7 305.7 3903.5 223 3992.4 304.2 4119 259.9 4323 474.2 4155.5 559.9"/><polyline class="d" points="4225.9 372.2 4119 474.2 3980.4 556.4 4155.5 777.4 4337.2 833.3 4530.6 617.4 4740.2 724.5 4862.1 802.2 4735 922.2 4530.6 829.3 4337.2 617.4 4155.5 559.9 4055.6 651.3"/><polyline class="d" points="4962.3 451.5 5061.3 341.9 5523 451.5 5346.6 669.7 5198.1 699.5 5286.6 828.5 5379.5 701.3 5523 669.7 5344.7 452.4 5061.3 567.5 4868.7 341.9 4666.9 564.6 4583.9 438.8 4666.4 342.5 4632.7 303.4 4825.7 83 5102.6 90.2 5203.6 184.1 5095 312.4 4821.7 304.2 4720.9 202.6"/><polyline class="d" points="5659.6 243.3 5776.8 343.3 5867 347.5 6062.1 562.6 6011.7 631.3"/><polyline class="d" points="6612.5 714.1 6405.7 719.5 6195.5 942.2 6008.8 823.8 5818 626.4 5868.6 561.3 6061.8 347.5 5776.8 119.5 5565 343.3 5276.4 312.4 5203.6 184.1"/><polyline class="d" points="6708.6 475.3 6612.5 714.1 6713.3 814.9"/><line class="d" x1="6610.6" y1="358.6" x2="6909.2" y2="454.9"/><path class="d" d="M6612.5,141.3l306.1,107.3,203.1,207.2-219.3,21L6709.1,690.6l107.3,23.5L6619,907l-211.1,37.4L6198.6,719.5c-1.3,0-186.9-88.2-186.9-88.2"/><polyline class="d" points="6904.9 690 7024.8 568.5 7210.1 785.8 7325.3 724.6 7425.3 836.5"/><polyline class="d" points="7521.6 222.5 7603.5 336.8 7750.6 524.1 7931.5 301.7 7605.9 120.7 7427 336.8 7411.9 423.2 7230.3 629.6 7210.1 786.2"/><polyline class="d" points="7727 786.2 7833.3 683.9 7956.1 594.2 8067.7 707.6"/><polyline class="d" points="7022.2 354.3 6914.8 454.3 6708.6 475.3 6894.6 681.7 7024.8 786.2 7210.1 576.8 7232.4 413.5 7409.3 632.4 7623 683.9 7833.3 890.6 7962.6 836.5 8158.8 595.9 8078.4 553.7 8290.1 328.9 8457.3 406.8 8638.9 628.6 8702.6 455 8790.9 344.6"/><path class="d" d="M8290.1,328.9l22-22.4,107.4-141.7L8309.2,81.3,8079.4,328.9l198.7,218.4,177.8,82.9,181.4-221.1s67.5-168.8,66.7-168.8l184.1,221-71.3,175.5,112.9,96.9"/><line class="d" x1="6011.7" y1="631.3" x2="5914.9" y2="724.6"/></svg>