<svg xmlns="http://www.w3.org/2000/svg" xmlns:xlink="http://www.w3.org/1999/xlink" width="959.1" height="897.7" viewBox="0 0 959.1 897.7"><defs><style>.a,.b,.k,.m,.n,.r,.s,.u{fill:none;}.b,.j,.n,.o,.p,.q,.r,.s,.u{opacity:0.68;}.c{clip-path:url(#a);}.d{fill:url(#b);}.e{clip-path:url(#c);}.f{fill:url(#d);}.g{clip-path:url(#e);}.h{opacity:0.69;}.i{clip-path:url(#f);}.k,.m,.n,.o,.p,.q,.r,.s,.t,.u{stroke:#fff;}.k,.m,.n,.o,.p,.q,.r,.s,.t{stroke-miterlimit:10;}.k{stroke-width:0.35px;}.l,.t{opacity:0.1;}.m,.s,.u{stroke-width:0.66px;}.n{stroke-width:0.27px;}.o,.p,.q,.t{fill:#fff;}.o,.t{stroke-width:0.03px;}.p{stroke-width:0.08px;}.q{stroke-width:0.04px;}.r{stroke-width:0.63px;}.u{stroke-linecap:round;stroke-linejoin:round;}</style><clipPath id="a"><rect class="a" x="-1220.8" width="959.1" height="897.73"/></clipPath><linearGradient id="b" x1="-569.25" y1="810.89" x2="-569.25" y2="178.98" gradientUnits="userSpaceOnUse"><stop offset="0" stop-color="#43beec"/><stop offset="0.11" stop-color="#39a7dc"/><stop offset="0.33" stop-color="#1e6bb2"/><stop offset="0.35" stop-color="#1b65ae"/><stop offset="0.47" stop-color="#1f509a"/><stop offset="0.72" stop-color="#2a1966"/><stop offset="0.8" stop-color="#2e0452"/><stop offset="1" stop-color="#281e4d"/></linearGradient><clipPath id="c"><rect class="a" width="959.1" height="897.73"/></clipPath><linearGradient id="d" x1="729.22" y1="623.71" x2="729.22" y2="138.03" gradientUnits="userSpaceOnUse"><stop offset="0" stop-color="#210838"/><stop offset="1"/></linearGradient><clipPath id="e"><rect class="a" x="-1.5" y="-63.2" width="962.1" height="962.14"/></clipPath><clipPath id="f"><rect class="b" x="-257.4" y="-262.3" width="1452.4" height="1592.75"/></clipPath></defs><g class="c"><rect class="d" x="-1401.9" y="-4.4" width="1665.2" height="1172.3"/><rect class="a" x="-1385.7" y="-65.3" width="1624" height="962.94"/></g><g class="e"><rect class="f" x="-103.4" y="-2.9" width="1665.2" height="901.03"/><rect class="a" x="-164.9" y="-65.3" width="1624" height="962.94"/></g><g class="g"><g class="h"><g class="i"><g class="j"><path class="k" d="M582.8,447.2a111,111,0,1,0-111,111A111,111,0,0,0,582.8,447.2Z"/></g><g class="l"><circle class="m" cx="475.4" cy="470.7" r="317.8"/></g><circle class="n" cx="459.5" cy="160.5" r="23.3"/><circle class="o" cx="440.4" cy="147.1" r="2.6"/><circle class="n" cx="83.6" cy="227.8" r="23.3"/><circle class="o" cx="95.8" cy="208.1" r="2.6"/><circle class="p" cx="83.6" cy="227.8" r="6.9"/><circle class="q" cx="513.8" cy="548.6" r="3.3"/><circle class="o" cx="373.7" cy="498.6" r="2.6"/><circle class="r" cx="889.6" cy="971.8" r="277"/><circle class="s" cx="294.9" cy="296.2" r="580"/><circle class="t" cx="577.4" cy="882.1" r="2.6"/><circle class="u" cx="464.5" cy="651.8" r="569.9"/><line class="s" x1="-232.3" y1="957.3" x2="1322.8" y2="304.1"/><path class="s" d="M-339.8,153.5C135.8,136.2,597.2,2.1,880.7-299.2"/><line class="s" x1="-412.8" y1="459.3" x2="1128.2" y2="1145.4"/></g></g></g></svg>