<svg xmlns="http://www.w3.org/2000/svg" xmlns:xlink="http://www.w3.org/1999/xlink" width="959.1" height="897.7" viewBox="0 0 959.1 897.7"><defs><style>.a,.b,.e,.l{fill:none;}.b,.l{opacity:0.68;}.c{clip-path:url(#a);}.d{fill:url(#b);}.e,.l{stroke:#fff;}.e{stroke-linecap:round;stroke-linejoin:round;stroke-width:0.26px;}.f{fill:#fff;}.g{clip-path:url(#c);}.h{fill:url(#d);}.i{clip-path:url(#e);}.j{opacity:0.69;}.k{clip-path:url(#f);}.l{stroke-miterlimit:10;stroke-width:0.66px;}</style><clipPath id="a"><rect class="a" width="959.1" height="897.73"/></clipPath><linearGradient id="b" x1="651.52" y1="810.89" x2="651.52" y2="178.98" gradientUnits="userSpaceOnUse"><stop offset="0" stop-color="#43beec"/><stop offset="0.11" stop-color="#39a7dc"/><stop offset="0.33" stop-color="#1e6bb2"/><stop offset="0.35" stop-color="#1b65ae"/><stop offset="0.47" stop-color="#1f509a"/><stop offset="0.72" stop-color="#2a1966"/><stop offset="0.8" stop-color="#2e0452"/><stop offset="1" stop-color="#281e4d"/></linearGradient><clipPath id="c"><rect class="a" x="-1258.7" width="959.1" height="897.73"/></clipPath><linearGradient id="d" x1="-529.45" y1="623.71" x2="-529.45" y2="138.03" gradientUnits="userSpaceOnUse"><stop offset="0" stop-color="#210838"/><stop offset="1"/></linearGradient><clipPath id="e"><rect class="a" x="-1260.2" y="-63.2" width="962.1" height="962.14"/></clipPath><clipPath id="f"><rect class="b" x="-1516.1" y="-262.3" width="1452.4" height="1592.75"/></clipPath></defs><g class="c"><rect class="d" x="-181.1" y="-4.4" width="1665.2" height="1172.3"/><rect class="a" x="-164.9" y="-65.3" width="1624" height="962.94"/></g><polyline class="e" points="120.8 249.1 171.3 306 207.7 301.9 267.4 352 322.4 214.5 348.4 279.6 447.6 281 499 350.2 565 333.8 516.8 271.4 672.5 267.8 716.6 346.1 823.1 265.9 872.3 301.9"/><polyline class="e" points="73.9 346.1 171.3 306 160.9 368.4"/><line class="e" x1="293.2" y1="287.5" x2="238.7" y2="186.3"/><line class="e" x1="267.1" y1="239.1" x2="295.1" y2="174.9"/><path class="e" d="M381.6,280.1,379.3,342s-35,45.9-33.7,45.9"/><line class="e" x1="405.3" y1="391.6" x2="379.3" y2="342"/><line class="e" x1="481.3" y1="219.1" x2="447.6" y2="281"/><line class="e" x1="503.6" y1="397" x2="499" y2="350.2"/><polyline class="e" points="614.7 371.1 565 333.8 567.3 393.9"/><polyline class="e" points="545.5 219.1 516.8 271.4 503.6 258.7"/><polyline class="e" points="668.4 223.6 645 268.4 600.1 196.3"/><line class="e" x1="716.6" y1="346.1" x2="716.6" y2="380.7"/><polyline class="e" points="867.3 219.1 823.1 265.9 814.5 207.5"/><line class="e" x1="827.7" y1="358.3" x2="787.7" y2="292.6"/><line class="e" x1="785.3" y1="397" x2="804" y2="319.4"/><circle class="f" cx="73.9" cy="346.1" r="1.3"/><circle class="f" cx="160.6" cy="368.4" r="1.3"/><circle class="f" cx="171.3" cy="306.6" r="1.3"/><circle class="f" cx="208.1" cy="302.1" r="1.3"/><circle class="f" cx="120.8" cy="248.9" r="1.3"/><circle class="f" cx="238.7" cy="186.3" r="1.3"/><circle class="f" cx="295.1" cy="174.9" r="1.3"/><circle class="f" cx="322.4" cy="214.5" r="1.3"/><circle class="f" cx="348.2" cy="280.1" r="1.3"/><circle class="f" cx="381.6" cy="280.1" r="1.3"/><circle class="f" cx="447.6" cy="281" r="1.3"/><circle class="f" cx="481.3" cy="219.1" r="1.3"/><circle class="f" cx="503.6" cy="258.8" r="1.3"/><circle class="f" cx="293.2" cy="287.5" r="1.3"/><circle class="f" cx="267.1" cy="352" r="1.3"/><circle class="f" cx="345.6" cy="387.9" r="1.3"/><circle class="f" cx="405.3" cy="391.6" r="1.3"/><circle class="f" cx="503.6" cy="397" r="1.3"/><circle class="f" cx="567.4" cy="393.9" r="1.3"/><circle class="f" cx="614.7" cy="370.9" r="1.3"/><circle class="f" cx="545.5" cy="219.1" r="1.3"/><circle class="f" cx="600.1" cy="196.3" r="1.3"/><circle class="f" cx="645.1" cy="268.4" r="1.3"/><circle class="f" cx="668.4" cy="223.5" r="1.3"/><circle class="f" cx="672.5" cy="267.5" r="1.3"/><circle class="f" cx="716.6" cy="346.1" r="1.3"/><circle class="f" cx="716.6" cy="381" r="1.3"/><circle class="f" cx="787.7" cy="292.6" r="1.3"/><circle class="f" cx="804" cy="319.4" r="1.3"/><circle class="f" cx="785.3" cy="397" r="1.3"/><circle class="f" cx="827.7" cy="358.5" r="1.3"/><circle class="f" cx="814.5" cy="206.7" r="1.3"/><circle class="f" cx="867.3" cy="218.8" r="1.3"/><circle class="f" cx="872.3" cy="301.4" r="1.3"/><g class="g"><rect class="h" x="-1362.1" y="-2.9" width="1665.2" height="901.03"/><rect class="a" x="-1423.6" y="-65.3" width="1624" height="962.94"/></g><g class="i"><g class="j"><g class="k"><line class="l" x1="-1491" y1="957.3" x2="64.2" y2="304.1"/></g></g></g></svg>