<svg xmlns="http://www.w3.org/2000/svg" width="112.6" height="150.9" viewBox="0 0 112.6 150.9"><defs><style>.a{fill:#70f5e7;}.b,.c{fill:none;stroke-linecap:round;stroke-linejoin:round;}.b{stroke:#70f5e7;}.c{stroke:#fff;}.d{fill:#fff;}</style></defs><path class="a" d="M49.1,143.4V133h1.3v10.4Z"/><path class="a" d="M57.3,143.2a3.1,3.1,0,0,1-1.6.4c-1.4,0-2.2-.9-2.2-2.6v-4.7H52.1v-1h1.4v-1.7l1.3-.3v2h2.5v1H54.8V141c0,1,.5,1.4,1.2,1.4l1.1-.2Z"/><path class="a" d="M65.5,143.3a1.9,1.9,0,0,1-.9.3,1.4,1.4,0,0,1-1.4-1,3.4,3.4,0,0,1-2.5,1,2.1,2.1,0,0,1-2.3-2.1c0-2.1,2.1-2.5,4.8-2.5,0-1.5,0-2.7-1.8-2.7a4.3,4.3,0,0,0-2.1.5l-.3-1a5.5,5.5,0,0,1,2.6-.6c2.5,0,2.9,1.3,2.9,3.5v2.9c0,.6.1.9.6.9h.2Zm-2.3-3.5c-2.1,0-3.4.3-3.4,1.6a1.2,1.2,0,0,0,1.3,1.1,3,3,0,0,0,2.1-.8Z"/><path class="a" d="M69.6,143.3a1.8,1.8,0,0,1-1,.3c-1.1,0-1.4-.8-1.4-1.7V131.4h1.3v10.4c0,.3.1.7.6.7h.3Z"/><path class="a" d="M72.1,133.7a.8.8,0,0,1-.8-.9.8.8,0,0,1,.8-.8.8.8,0,0,1,.9.9A.9.9,0,0,1,72.1,133.7Zm1.7,9.6a1.8,1.8,0,0,1-1,.3c-1.1,0-1.4-.8-1.4-1.7v-6.6h1.3v6.5c0,.3.1.7.6.7h.3Z"/><path class="a" d="M82,143.3a1.9,1.9,0,0,1-.9.3,1.3,1.3,0,0,1-1.4-1,3.4,3.4,0,0,1-2.5,1,2.1,2.1,0,0,1-2.3-2.1c0-2.1,2.1-2.5,4.8-2.5,0-1.5,0-2.7-1.8-2.7a4.3,4.3,0,0,0-2.1.5l-.4-1a6.3,6.3,0,0,1,2.7-.6c2.5,0,2.9,1.3,2.9,3.5v2.9c0,.6.1.9.5.9h.3Zm-2.3-3.5c-2.1,0-3.5.3-3.5,1.6a1.2,1.2,0,0,0,1.3,1.1,3.1,3.1,0,0,0,2.2-.8Z"/><polygon class="b" points="16.4 41.7 10.6 28.9 11.7 20.3 27.4 19 54.1 6.2 61.7 12.3 62.1 23.2 58.4 36.7 70.4 47.2 77.2 62.5 86.7 64.9 107.5 81.5 105.8 86.5 100 81 91.8 82.8 97.1 90.7 88.6 105.2 85 105.2 80.2 110.1 80.7 118.3 75.4 118.6 70.1 112.8 58.3 108.9 63.2 103.2 72.7 105.4 85 105.2 87.2 95 84.5 83.8 58.4 69 42.3 53.2 32.8 37.7 25.3 38.1 20.3 43.7 16.4 41.7"/><polygon class="b" points="25.4 74.8 19.2 74.9 24.6 82.6 23.9 93.2 28.1 97.6 35.1 90.5 34.3 78.5 32.8 73 25.4 74.8"/><line class="c" x1="64.1" y1="63.3" x2="64.1" y2="128.3"/><circle class="d" cx="64.1" cy="63.4" r="2.2"/><path class="d" d="M61.6,63.4a2.5,2.5,0,1,0,2.5-2.5,2.5,2.5,0,0,0-2.5,2.5Zm4.4,0a1.9,1.9,0,0,1-1.9,1.9,1.8,1.8,0,0,1-1.9-1.9,1.9,1.9,0,0,1,1.9-1.9A2,2,0,0,1,66,63.4Z"/><rect class="d" x="60.8" y="127.8" width="6.5" height="1"/></svg>