<svg xmlns="http://www.w3.org/2000/svg" width="213.3" height="83.6" viewBox="0 0 213.3 83.6"><defs><style>.a{fill:#70f5e7;}.b,.c{fill:none;}.b{stroke:#70f5e7;stroke-miterlimit:10;}.c{stroke:#fff;stroke-linecap:round;stroke-linejoin:round;}.d{fill:#fff;}</style></defs><path class="a" d="M7.5,41.5V31.1H8.8V41.5Z"/><path class="a" d="M16.7,41.5V36c0-1.3-.7-1.6-1.6-1.6a3.3,3.3,0,0,0-2.1.8v6.3H11.7V33.4h.7l.5.8a4.4,4.4,0,0,1,2.5-.9c2,0,2.6,1.1,2.6,2.7v5.5Z"/><path class="a" d="M24.7,41.3a3.8,3.8,0,0,1-1.6.4c-1.4,0-2.3-.9-2.3-2.6V34.4H19.4v-1h1.4V31.7l1.3-.3v2h2.5v1H22.1v4.7c0,1,.5,1.4,1.3,1.4l1-.2Z"/><path class="a" d="M32.2,40.9a4,4,0,0,1-2.6.8c-2.3,0-3.8-1.6-3.8-4.1s1.4-4.3,3.6-4.3,3,1.5,3,3.2-.1.9-.1,1.3H27.2a2.5,2.5,0,0,0,2.6,2.7,4.3,4.3,0,0,0,2.1-.5ZM31.1,37v-.6c0-1.2-.5-2-1.8-2s-2.1,1.3-2.1,2.6Z"/><path class="a" d="M34.5,41.5V33.4h.8l.4,1.1a2.8,2.8,0,0,1,2.4-1.2h.7l-.2,1.2h-.7a2.8,2.8,0,0,0-2.1,1v6Z"/><path class="a" d="M45.3,41.5V36c0-1.3-.7-1.6-1.6-1.6a3.6,3.6,0,0,0-2.1.8v6.3H40.3V33.4h.8l.4.8a4.4,4.4,0,0,1,2.5-.9c2.1,0,2.6,1.1,2.6,2.7v5.5Z"/><path class="a" d="M52.4,33.3c2.5,0,3.7,1.8,3.7,4.2a3.9,3.9,0,0,1-3.8,4.2c-2.6,0-3.7-1.9-3.7-4.2S50,33.3,52.4,33.3Zm-.1,7.2c1.6,0,2.4-1.4,2.4-3s-.8-3.1-2.4-3.1-2.4,1.4-2.4,3.1S50.7,40.5,52.3,40.5Z"/><path class="a" d="M63.5,41.5l-.3-.8a3.3,3.3,0,0,1-2.2,1c-2.1,0-3.5-1.7-3.5-4s1.5-4.4,3.8-4.4a3.9,3.9,0,0,1,1.8.4V29.5h1.3v12Zm-.4-6.7a3.1,3.1,0,0,0-1.6-.4c-1.7,0-2.6,1.2-2.6,3.1s.9,3,2.3,3a3,3,0,0,0,1.9-.8Z"/><path class="a" d="M73.6,41.4a2.9,2.9,0,0,1-1,.3,1.5,1.5,0,0,1-1.4-1,3.4,3.4,0,0,1-2.5,1,2.1,2.1,0,0,1-2.3-2.1c0-2.1,2.1-2.5,4.8-2.5,0-1.5,0-2.7-1.8-2.7a4.3,4.3,0,0,0-2.1.5l-.3-1a5.5,5.5,0,0,1,2.6-.6c2.5,0,2.9,1.3,2.9,3.5v2.9c0,.6.1.9.6.9h.3Zm-2.4-3.5c-2.1,0-3.4.3-3.4,1.5a1.2,1.2,0,0,0,1.3,1.2,2.7,2.7,0,0,0,2.1-.9Z"/><path class="a" d="M77.6,41.4a1.8,1.8,0,0,1-1,.3c-1,0-1.3-.8-1.3-1.7V29.5h1.3V39.9c0,.3,0,.6.5.6h.3Z"/><path class="a" d="M85.2,40.9a4,4,0,0,1-2.6.8c-2.3,0-3.8-1.6-3.8-4.1s1.4-4.3,3.6-4.3,3,1.5,3,3.2-.1.9-.1,1.3H80.2a2.5,2.5,0,0,0,2.6,2.7,3.7,3.7,0,0,0,2-.5ZM84.1,37v-.6c0-1.2-.5-2-1.8-2s-2.1,1.3-2.1,2.6Z"/><path class="a" d="M87.4,40.1a5.3,5.3,0,0,0,2,.5c1.3,0,1.8-.6,1.8-1.3s-4-.9-4-3.7,1.1-2.3,2.8-2.3a5,5,0,0,1,2.2.4l-.4,1a4.5,4.5,0,0,0-1.8-.3c-1.1,0-1.6.5-1.6,1.1s4,.9,4,3.6-.9,2.6-3,2.6a5,5,0,0,1-2.4-.6Z"/><polygon class="b" points="183.9 4.9 138.8 12.4 139.6 22.7 121.6 32 137.2 59.8 140.8 58 148.8 61.3 171.6 70 178.8 64 187.9 64 198.3 59.8 197.2 50.9 203.2 44 206.5 30.4 192.5 15.3 183.9 13.1 183.9 4.9"/><line class="c" x1="137.6" y1="38.5" x2="96.5" y2="38.5"/><circle class="d" cx="137.5" cy="38.5" r="2.2"/><path class="d" d="M137.5,36a2.6,2.6,0,1,0,2.5,2.5,2.5,2.5,0,0,0-2.5-2.5Zm0,4.5a2,2,0,1,1,0-3.9,2,2,0,0,1,1.9,1.9,2,2,0,0,1-1.9,2Z"/><rect class="d" x="96" y="35.3" width="1" height="6.5"/></svg>