<svg xmlns="http://www.w3.org/2000/svg" width="353.8" height="252.5" viewBox="0 0 353.8 252.5"><defs><style>.a{fill:#70f5e7;}.b,.c{fill:none;}.b{stroke:#70f5e7;stroke-miterlimit:10;}.c{stroke:#fff;stroke-linecap:round;stroke-linejoin:round;}.d{fill:#fff;}</style></defs><path class="a" d="M170.4,229.3V218.8h6.2v1.1h-4.9v3.5h4.1v1.1h-4.1v3.6h5.1v1.2Z"/><path class="a" d="M178.6,227.8a4.2,4.2,0,0,0,2,.5c1.3,0,1.8-.5,1.8-1.2s-4-.9-4-3.7,1.1-2.4,2.8-2.4a4.7,4.7,0,0,1,2.2.5l-.4,1a4.3,4.3,0,0,0-1.7-.4c-1.2,0-1.7.5-1.7,1.2s4.1.8,4.1,3.6c0,1.3-1,2.5-3.1,2.5a5.3,5.3,0,0,1-2.4-.6Z"/><path class="a" d="M189.8,229a3.1,3.1,0,0,1-1.6.4c-1.4,0-2.2-.8-2.2-2.6v-4.7h-1.4v-.9H186v-1.7l1.3-.4v2.1h2.5v.9h-2.5v4.8c0,1,.5,1.4,1.2,1.4l1.1-.2Z"/><path class="a" d="M198,229.2l-.9.2a1.3,1.3,0,0,1-1.4-.9,3.4,3.4,0,0,1-2.5.9,2,2,0,0,1-2.3-2c0-2.1,2.1-2.6,4.8-2.6,0-1.4,0-2.6-1.8-2.6a5.6,5.6,0,0,0-2.1.4l-.4-1a8.3,8.3,0,0,1,2.7-.6c2.5,0,2.9,1.4,2.9,3.6v2.9c0,.5,0,.8.5.8h.3Zm-2.3-3.5c-2.1,0-3.5.3-3.5,1.5a1.3,1.3,0,0,0,1.3,1.2,3.2,3.2,0,0,0,2.2-.9Z"/><path class="a" d="M205.1,229.3l-.3-.8a3.4,3.4,0,0,1-2.2.9c-2.1,0-3.5-1.7-3.5-4s1.5-4.4,3.8-4.4a3.9,3.9,0,0,1,1.8.4v-4.2H206v12.1Zm-.4-6.7a3.1,3.1,0,0,0-1.6-.4c-1.7,0-2.6,1.1-2.6,3.1s.9,3,2.3,3a2.7,2.7,0,0,0,1.9-.8Z"/><path class="a" d="M211.9,221c2.5,0,3.7,1.9,3.7,4.2a3.9,3.9,0,0,1-3.8,4.2c-2.6,0-3.7-1.9-3.7-4.2A3.9,3.9,0,0,1,211.9,221Zm-.1,7.3c1.7,0,2.4-1.4,2.4-3.1s-.7-3-2.4-3-2.4,1.3-2.4,3S210.2,228.3,211.8,228.3Z"/><path class="a" d="M217.5,227.8a4.3,4.3,0,0,0,2.1.5c1.2,0,1.7-.5,1.7-1.2s-4-.9-4-3.7,1.1-2.4,2.9-2.4a4.6,4.6,0,0,1,2.1.5l-.3,1a4.8,4.8,0,0,0-1.8-.4c-1.1,0-1.6.5-1.6,1.2s4,.8,4,3.6c0,1.3-1,2.5-3.1,2.5a5.3,5.3,0,0,1-2.4-.6Z"/><path class="a" d="M179.9,233.2h1.3v6.6a4,4,0,0,1-4.1,4c-3,0-4-2.1-4-4.1v-6.5h1.2v6.5a2.8,2.8,0,1,0,5.6.1Z"/><path class="a" d="M188.9,243.6v-5.5c0-1.3-.7-1.6-1.6-1.6a3.9,3.9,0,0,0-2.2.8v6.3h-1.3v-8.1h.8l.5.8a4.4,4.4,0,0,1,2.5-.9c2,0,2.6,1.1,2.6,2.7v5.5Z"/><path class="a" d="M193.5,233.9a.8.8,0,0,1-.8-.9.7.7,0,0,1,.8-.8c.5,0,.8.3.8.9A.8.8,0,0,1,193.5,233.9Zm1.6,9.6a1.8,1.8,0,0,1-1,.3c-1,0-1.3-.8-1.3-1.7v-6.6h1.3V242c0,.3,0,.7.5.7h.3Z"/><path class="a" d="M202.3,243.6l-.3-.8a3.3,3.3,0,0,1-2.2,1c-2.1,0-3.5-1.7-3.5-4s1.5-4.4,3.8-4.4a3.9,3.9,0,0,1,1.8.4v-4.2h1.3v12Zm-.4-6.7a3.1,3.1,0,0,0-1.6-.4c-1.7,0-2.6,1.2-2.6,3.1s.9,3,2.3,3a2.7,2.7,0,0,0,1.9-.8Z"/><path class="a" d="M209.1,235.4c2.5,0,3.7,1.8,3.7,4.2a3.9,3.9,0,0,1-3.8,4.2c-2.6,0-3.7-1.9-3.7-4.2S206.8,235.4,209.1,235.4Zm-.1,7.2c1.7,0,2.4-1.4,2.4-3s-.7-3.1-2.4-3.1-2.4,1.4-2.4,3.1S207.4,242.6,209,242.6Z"/><path class="a" d="M214.7,242.2a5.9,5.9,0,0,0,2.1.5c1.2,0,1.7-.6,1.7-1.3s-4-.9-4-3.7,1.1-2.3,2.9-2.3a4.8,4.8,0,0,1,2.1.4l-.3,1a4.8,4.8,0,0,0-1.8-.3c-1.1,0-1.6.5-1.6,1.1s4,.9,4,3.6-1,2.6-3.1,2.6a5.3,5.3,0,0,1-2.4-.6Z"/><path class="b" d="M151.8,126.4l3.9,10.5a1.1,1.1,0,0,1,.1.8l-1.3,25a2.2,2.2,0,0,0,.4,1.3l13.2,19.7.5.6,9,6.1a2.8,2.8,0,0,0,1.5.4l6.7-.7,1.2.2,10,5a1.4,1.4,0,0,0,1.1.2l14.6-1.4a2.3,2.3,0,0,1,1.9.9l4.7,6.2.6.5,2.7,1.6a2,2,0,0,0,2.9-.7h0a2.2,2.2,0,0,1,2.5-.9l3.9,1.3a2,2,0,0,1,1.1.9l3.2,5.3.2.3,1.2,3a2.2,2.2,0,0,0,1.1,1.2l2.4,1.1a2.1,2.1,0,0,0,2.9-2.3l-.2-1.9a2,2,0,0,1,.7-1.9l8.9-7.9a2.4,2.4,0,0,1,1.8-.5l15.8,3.3h.9l14.6-3.1a2,2,0,0,1,2.4,1.1l6.7,14.8a2.2,2.2,0,0,0,3.9,0l1.3-2.9a2,2,0,0,0,.2-1.3l-3.6-17.4a2,2,0,0,1,.8-2.1l17.4-13.4a2,2,0,0,0,.8-1.2l4.2-15.5a1.4,1.4,0,0,1,.7-1l22.4-19.4a2.3,2.3,0,0,0,.6-2.2l-1.9-7a2,2,0,0,0-1.2-1.3l-3.4-1.6a2.2,2.2,0,0,0-2.6.7l-6,7.9a2.1,2.1,0,0,1-1.5.9l-28.6,2a1.5,1.5,0,0,1-1.1-.2l-28-14.7h-.3l-17.3-6.2-.8-.2-97.9,3.3A2.2,2.2,0,0,0,151.8,126.4Z"/><polygon class="b" points="97.3 16.8 45.3 5.6 12.2 23.3 21.1 30.9 29.2 35 23.7 37.7 8.5 40 14.2 47.4 29.8 44 28.5 50.7 13.6 59.8 22.6 75.5 41.2 77.2 30.6 91.5 34.6 93.4 55.9 76.7 80 68.1 97.9 73.6 97.3 16.8"/><line class="c" x1="195.2" y1="183.7" x2="195.2" y2="217.4"/><circle class="d" cx="195.2" cy="183.8" r="2.2"/><path class="d" d="M192.7,183.8a2.5,2.5,0,1,0,2.5-2.5,2.5,2.5,0,0,0-2.5,2.5Zm4.4,0a1.9,1.9,0,1,1-1.9-1.9,1.8,1.8,0,0,1,1.9,1.9Z"/><rect class="d" x="192" y="216.9" width="6.5" height="1"/></svg>