<svg xmlns="http://www.w3.org/2000/svg" width="106.1" height="68.7" viewBox="0 0 106.1 68.7"><defs><style>.a{fill:#70f5e7;}.b,.c{fill:none;stroke-linecap:round;stroke-linejoin:round;}.b{stroke:#70f5e7;}.c{stroke:#fff;}.d{fill:#fff;}</style></defs><path class="a" d="M66.4,33.1H64V32h3.6v4.7a5,5,0,0,1-3.3,1c-2.8,0-4.9-2.2-4.9-5.4a5.1,5.1,0,0,1,5.1-5.4,5.4,5.4,0,0,1,3,.8l-.5,1.1a3.7,3.7,0,0,0-2.5-.7c-2.7,0-3.7,2.2-3.7,4.1s1.6,4.3,3.7,4.3a3.7,3.7,0,0,0,1.8-.4Z"/><path class="a" d="M70.2,37.5v-8H71l.3,1.1a3.3,3.3,0,0,1,2.5-1.3h.7l-.2,1.2h-.7a2.6,2.6,0,0,0-2.1,1.1v5.9Z"/><path class="a" d="M81.4,37a4.8,4.8,0,0,1-2.6.7c-2.3,0-3.8-1.6-3.8-4.1s1.4-4.3,3.6-4.3,3,1.5,3,3.3-.1.8-.1,1.3H76.4A2.5,2.5,0,0,0,79,36.6a4.8,4.8,0,0,0,2-.5Zm-1.1-4v-.5c0-1.2-.5-2-1.8-2A2.2,2.2,0,0,0,76.4,33Z"/><path class="a" d="M89.2,37.1a5,5,0,0,1-2.4.6c-2,0-3.7-1.4-3.7-4.1s1.7-4.3,4-4.3a3.4,3.4,0,0,1,2,.5l-.3,1a3.5,3.5,0,0,0-1.7-.4c-1.6,0-2.7,1-2.7,3.2s1.2,3,2.6,3a2.8,2.8,0,0,0,1.8-.5Z"/><path class="a" d="M91.5,27.8a.8.8,0,0,1-.8-.8.9.9,0,0,1,.8-.9.8.8,0,0,1,.9.9A.9.9,0,0,1,91.5,27.8Zm1.7,9.6a1.8,1.8,0,0,1-1,.3c-1.1,0-1.4-.7-1.4-1.6V29.5h1.3v6.4c0,.4.1.7.6.7s.2,0,.2-.1Z"/><path class="a" d="M101.4,37.4a1.2,1.2,0,0,1-.9.3,1.4,1.4,0,0,1-1.4-.9,4.1,4.1,0,0,1-2.5.9,2.1,2.1,0,0,1-2.3-2c0-2.1,2.1-2.6,4.8-2.6,0-1.4,0-2.7-1.8-2.7a4.1,4.1,0,0,0-2.1.5l-.4-1a6,6,0,0,1,2.7-.6c2.5,0,2.9,1.4,2.9,3.6v2.9c0,.5,0,.8.5.8h.3ZM99.1,34c-2.1,0-3.5.3-3.5,1.5a1.2,1.2,0,0,0,1.3,1.1,3.3,3.3,0,0,0,2.2-.8Z"/><polygon class="b" points="18.9 20.8 11.8 31.2 19.7 43.7 25.4 58.4 38.7 64.7 37.9 53 48.6 45.8 41.4 42.2 40.1 32.8 35.8 23.1 44.1 24.4 54.3 17.3 64.2 18.3 67.8 7.9 39.1 9.8 18.9 20.8"/><line class="c" x1="25" y1="32" x2="54.9" y2="32"/><circle class="d" cx="25.1" cy="32" r="2.2"/><path class="d" d="M25.1,34.5A2.5,2.5,0,1,0,22.6,32a2.6,2.6,0,0,0,2.5,2.5Zm0-4.4a1.9,1.9,0,1,1,0,3.8,1.9,1.9,0,0,1,0-3.8Z"/><rect class="d" x="54.4" y="28.7" width="1" height="6.5"/></svg>