<svg xmlns="http://www.w3.org/2000/svg" width="316.4" height="181.7" viewBox="0 0 316.4 181.7"><defs><style>.a{fill:#70f5e7;}.b,.c{fill:none;}.b{stroke:#70f5e7;stroke-miterlimit:10;}.c{stroke:#fff;stroke-linecap:round;stroke-linejoin:round;}.d{fill:#fff;}</style></defs><path class="a" d="M270.7,91a5.3,5.3,0,0,1-3,.8c-2.8,0-4.8-2.2-4.8-5.4s2-5.4,5-5.4a4.7,4.7,0,0,1,2.8.7l-.5,1a4.6,4.6,0,0,0-2.3-.5c-1.9,0-3.7,1.3-3.7,4.2s1.2,4.2,3.7,4.2a5,5,0,0,0,2.4-.6Z"/><path class="a" d="M279,91.5a1.5,1.5,0,0,1-1,.3,1.3,1.3,0,0,1-1.3-.9,4.1,4.1,0,0,1-2.5.9,2.1,2.1,0,0,1-2.3-2c0-2.1,2.1-2.6,4.8-2.6,0-1.4-.1-2.6-1.8-2.6a4.8,4.8,0,0,0-2.2.4l-.3-1a5.5,5.5,0,0,1,2.6-.6c2.5,0,3,1.4,3,3.6v2.9c0,.5,0,.8.5.8h.3Zm-2.3-3.4c-2.1,0-3.5.3-3.5,1.5a1.2,1.2,0,0,0,1.3,1.1,3.3,3.3,0,0,0,2.2-.8Z"/><path class="a" d="M285.7,91.6V86.1c0-1.3-.6-1.5-1.5-1.5a3.9,3.9,0,0,0-2.2.8v6.2h-1.3v-8h.8l.5.7a4.4,4.4,0,0,1,2.5-.9c2,0,2.5,1.2,2.5,2.7v5.5Z"/><path class="a" d="M296.1,91.5a1.7,1.7,0,0,1-1,.3,1.6,1.6,0,0,1-1.4-.9,3.7,3.7,0,0,1-2.5.9,2.1,2.1,0,0,1-2.3-2c0-2.1,2.1-2.6,4.8-2.6,0-1.4,0-2.6-1.8-2.6a4.4,4.4,0,0,0-2.1.4l-.3-1a5.5,5.5,0,0,1,2.6-.6c2.5,0,2.9,1.4,2.9,3.6v2.9c0,.5.1.8.6.8h.3Zm-2.4-3.4c-2,0-3.4.3-3.4,1.5a1.2,1.2,0,0,0,1.3,1.1,3,3,0,0,0,2.1-.8Z"/><path class="a" d="M303.2,91.6l-.4-.7a3.4,3.4,0,0,1-2.2.9c-2,0-3.5-1.7-3.5-4s1.6-4.4,3.9-4.4a4.5,4.5,0,0,1,1.8.4V79.6h1.3v12Zm-.4-6.7a4.7,4.7,0,0,0-1.7-.3c-1.6,0-2.6,1.1-2.6,3.1s1,3,2.4,3a3,3,0,0,0,1.9-.8Z"/><path class="a" d="M313.2,91.5a1.5,1.5,0,0,1-1,.3,1.3,1.3,0,0,1-1.3-.9,4.1,4.1,0,0,1-2.5.9,2.1,2.1,0,0,1-2.3-2c0-2.1,2.1-2.6,4.8-2.6,0-1.4-.1-2.6-1.9-2.6a4.6,4.6,0,0,0-2.1.4l-.3-1a5.5,5.5,0,0,1,2.6-.6c2.5,0,2.9,1.4,2.9,3.6v2.9c0,.5.1.8.6.8h.3Zm-2.3-3.4c-2.1,0-3.5.3-3.5,1.5a1.2,1.2,0,0,0,1.3,1.1,3.3,3.3,0,0,0,2.2-.8Zm-2.6-6,1.4-2.3h1.5l-1.9,2.3Z"/><path class="b" d="M5,42.2,5.7,97a1.5,1.5,0,0,0,.4,1l52,49.2a1.2,1.2,0,0,0,1,.4l100.4-3.3h.5l17.5,6.3h.2l28.2,14.8a1.2,1.2,0,0,0,.8.2l29-2.1a2,2,0,0,0,1.1-.6l6.5-8.6a1.6,1.6,0,0,1,1.7-.5l4.2,1.9a1.4,1.4,0,0,1,.8.9l2.2,7.7a1.4,1.4,0,0,0,1.2,1l9.9.7.9-.3,8.8-6.1a1.4,1.4,0,0,0-.4-2.5L260,153.9a1.4,1.4,0,0,1-.9-2.1l2-3.3a1.5,1.5,0,0,0-.9-2.2h0a1.4,1.4,0,0,1,0-2.8l15.5-2.4h.4l5.9-2.9a1.4,1.4,0,0,1,2,1.7l-3.7,10.7a1.5,1.5,0,0,0,1,1.9l15.9,4a1.5,1.5,0,0,0,1.8-1.7l-1.9-10.6v-.3l-8.5-18.3-.5-.6-19-12.6-.5-.6L261,93.6a1.5,1.5,0,0,0-2-.7l-10.6,5.6a1.4,1.4,0,0,1-2.1-.9L244.9,91a1.3,1.3,0,0,0-1-1c-4.5-1.4-27.1-8.4-27.6-8.7s-1.7,15.5-1.9,18.1a2.2,2.2,0,0,0,.1.8l5.7,12a1.4,1.4,0,0,1-.5,1.8l-8.7,5.3a1.3,1.3,0,0,0-.7,1.5l2.6,11.2a1.4,1.4,0,0,1-1.7,1.7l-4.8-1a1.6,1.6,0,0,1-1.1-1l-3.6-12.4a1.2,1.2,0,0,0-.8-.9l-38.4-16.8a1.5,1.5,0,0,1-.6-2.2l19-25.7a1.4,1.4,0,0,1,1.7-.4l8,3.8a1.4,1.4,0,0,0,.9.1l14.1-2.3a1.4,1.4,0,0,0,.7-2.4l-10.6-10a1.4,1.4,0,0,1,.2-2.2l7.8-5.4a1.3,1.3,0,0,0,.6-1.3l-.9-13.2a1.4,1.4,0,0,1,1.6-1.5l14.6,1.6a1.8,1.8,0,0,1,.9.4l13.1,13a1.4,1.4,0,0,1,.3,1.7l-3.1,5.7a1.8,1.8,0,0,1-.8.7l-13.2,4.1c-.4.2-.7.4-.8.7l-1.1,1.7a1.4,1.4,0,0,0,.7,2l2.7,1.2a1.1,1.1,0,0,0,1,.1l9-2.3a1.1,1.1,0,0,1,1.1.2l7.6,4.9,14.8,10.1a1.4,1.4,0,0,0,1.1.3l1.8-.4a1.5,1.5,0,0,0,.9-2.1l-1.3-2.6a1.4,1.4,0,0,1,1.2-2.1h3.9a1.3,1.3,0,0,0,1.3-.9l.7-1.6a1.8,1.8,0,0,0-.2-1.4l-5.9-7.4c0-.1-.1-.2-.1-.3l-1.7-4a1.5,1.5,0,0,1,1.6-2l1.2.2a1.5,1.5,0,0,1,.9.6l2.7,3.8.2.2,2.4,2.1a1.4,1.4,0,0,0,2-.1l7.6-8.2a1.4,1.4,0,0,0-.3-2.2L251.4,45.2a1.1,1.1,0,0,1-.7-1.4l1-6.2a1.3,1.3,0,0,0-.6-1.4l-36-21.8a1.1,1.1,0,0,0-.8-.2L185.4,14a1.6,1.6,0,0,0-1.3.8l-7,13.3a1.4,1.4,0,0,0,.5,1.8l13.9,8.8a1.4,1.4,0,0,1,.5,1.8L186.5,52a1.5,1.5,0,0,1-2.4.4l-2.4-2.9a1.5,1.5,0,0,1-.1-1.8l1.1-1.6a1.4,1.4,0,0,0-.3-1.9l-4.2-3.5L163.3,27.5a1.4,1.4,0,0,1-.1-2l9.3-11.1a1.4,1.4,0,0,0-.8-2.3L160.3,10a1.5,1.5,0,0,0-1.7,1.2l-2.2,15.7v.5l3.7,15a1.4,1.4,0,0,1-2.3,1.4l-5.6-4.6a1.4,1.4,0,0,0-2.2.6l-3.5,9a1.5,1.5,0,0,1-1.8.9l-9.5-3.3a1.4,1.4,0,0,1-.7-2.2l4.2-5.4a1.4,1.4,0,0,0,.1-1.6l-13-21.3a1.3,1.3,0,0,0-1.4-.7L97.7,19.6a1.4,1.4,0,0,1-1.2-.4L85.4,7.8a1.6,1.6,0,0,0-1.3-.4L60.2,10.9a1.4,1.4,0,0,0-1.1,1l-3.6,13a1.5,1.5,0,0,0,.7,1.6l9.7,5.8a1.4,1.4,0,0,0,1.5,0l10.7-6.5a1.4,1.4,0,0,1,1.7.2l7.9,7.4,13.9,14.4a1.4,1.4,0,0,1-.9,2.4l-7.2.8-.9-.3L71.7,37.6l-.8-.3L6.4,40.8A1.4,1.4,0,0,0,5,42.2Z"/><line class="c" x1="255.4" y1="88.3" x2="119.8" y2="88.3"/><circle class="d" cx="255.3" cy="88.3" r="2.2"/><path class="d" d="M255.3,85.8a2.5,2.5,0,1,0,2.5,2.5,2.6,2.6,0,0,0-2.5-2.5Zm0,4.4a1.9,1.9,0,1,1,0-3.8,1.9,1.9,0,1,1,0,3.8Z"/><rect class="d" x="119.3" y="85" width="1" height="6.5"/></svg>