<svg xmlns="http://www.w3.org/2000/svg" width="208.3" height="114.7" viewBox="0 0 208.3 114.7"><defs><style>.a{fill:#70f5e7;}.b,.c{fill:none;stroke-linecap:round;stroke-linejoin:round;}.b{stroke:#70f5e7;}.c{stroke:#fff;}.d{fill:#fff;}</style></defs><path class="a" d="M6.4,50.5V40.1h5.9v1.1H7.7v3.6h3.8v1.1H7.7v4.6Z"/><path class="a" d="M14,50.5V42.4h.8l.3,1.1a3.2,3.2,0,0,1,2.5-1.2h.7l-.2,1.2h-.7a2.8,2.8,0,0,0-2.1,1v6Z"/><path class="a" d="M25.7,50.4l-1,.2a1.2,1.2,0,0,1-1.3-.9,3.6,3.6,0,0,1-2.5.9,2,2,0,0,1-2.3-2c0-2.1,2.1-2.5,4.8-2.5,0-1.5-.1-2.7-1.8-2.7a4.8,4.8,0,0,0-2.2.5l-.3-1a5.5,5.5,0,0,1,2.6-.6c2.5,0,3,1.3,3,3.5v2.9c0,.6,0,.9.5.9h.3Zm-2.3-3.5c-2.1,0-3.5.3-3.5,1.5a1.2,1.2,0,0,0,1.3,1.2,2.9,2.9,0,0,0,2.2-.9Z"/><path class="a" d="M32.5,50.5V45c0-1.3-.7-1.6-1.6-1.6a3.9,3.9,0,0,0-2.2.8v6.3H27.4V42.4h.8l.5.8a4.4,4.4,0,0,1,2.5-.9c2,0,2.5,1.1,2.5,2.7v5.5Z"/><path class="a" d="M41.8,50.1a4.8,4.8,0,0,1-2.4.5,3.7,3.7,0,0,1-3.7-4c0-2.8,1.7-4.3,4.1-4.3a5,5,0,0,1,2,.4l-.4,1.1a2.5,2.5,0,0,0-1.6-.4c-1.7,0-2.8,1-2.8,3.2a2.7,2.7,0,0,0,2.7,2.9,4.4,4.4,0,0,0,1.8-.4Z"/><path class="a" d="M44.1,40.8a.8.8,0,0,1-.8-.9.8.8,0,0,1,.8-.8.8.8,0,0,1,.9.9A.9.9,0,0,1,44.1,40.8Zm1.7,9.6a2.4,2.4,0,0,1-1,.2c-1.1,0-1.4-.7-1.4-1.6V42.4h1.3v6.5a.5.5,0,0,0,.6.6h.3Z"/><path class="a" d="M54.1,50.4l-1,.2a1.3,1.3,0,0,1-1.4-.9,3.4,3.4,0,0,1-2.5.9,2,2,0,0,1-2.3-2c0-2.1,2.1-2.5,4.8-2.5,0-1.5,0-2.7-1.8-2.7a4.3,4.3,0,0,0-2.1.5l-.3-1a5.5,5.5,0,0,1,2.6-.6c2.5,0,2.9,1.3,2.9,3.5v2.9c0,.6.1.9.6.9h.2Zm-2.4-3.5c-2.1,0-3.4.3-3.4,1.5a1.2,1.2,0,0,0,1.3,1.2,2.7,2.7,0,0,0,2.1-.9Z"/><polygon class="b" points="111.2 35.5 85.1 33.4 86.7 43.4 107.8 50.5 118.5 63.9 113.8 95.8 156.2 106.9 166.7 93.2 182 99 195.2 88.5 189.4 75.7 190.5 67.1 182.9 61.6 199.5 32 147.8 6.7 139.9 19.4 122.5 26.6 113.6 21 111.2 35.5"/><line class="c" x1="124.8" y1="46.2" x2="57.4" y2="46.2"/><circle class="d" cx="124.7" cy="46.2" r="2.2"/><path class="d" d="M124.7,43.7a2.5,2.5,0,1,0,2.5,2.5,2.5,2.5,0,0,0-2.5-2.5Zm0,4.4a1.9,1.9,0,1,1,0-3.8,1.9,1.9,0,0,1,0,3.8Z"/><rect class="d" x="56.9" y="43" width="1" height="6.5"/></svg>