<svg xmlns="http://www.w3.org/2000/svg" width="125.1" height="40.7" viewBox="0 0 125.1 40.7"><defs><style>.a{fill:#70f5e7;}.b,.c{fill:none;stroke-linecap:round;stroke-linejoin:round;}.b{stroke:#70f5e7;}.c{stroke:#fff;}.d{fill:#fff;}</style></defs><path class="a" d="M83.5,23.9a4.5,4.5,0,0,0,2.3.7c1.4,0,2.4-.6,2.4-1.8,0-2.8-4.9-1.7-4.9-5.2,0-1.6,1.4-2.7,3.4-2.7a5.1,5.1,0,0,1,2.7.7l-.5.9a5.1,5.1,0,0,0-2.2-.5c-1.3,0-2.1.6-2.1,1.6,0,2.5,4.9,1.4,4.9,5.1,0,1.7-1.4,3-3.7,3a5.2,5.2,0,0,1-2.8-.8Z"/><path class="a" d="M97,25.5l-.4-.8a3.4,3.4,0,0,1-2.4,1c-1.9,0-2.6-1.3-2.6-2.9V17.4h1.3v5.4c0,1.3.7,1.7,1.6,1.7a3.1,3.1,0,0,0,2-.8V17.4h1.3v8.1Z"/><path class="a" d="M101.2,15.8a.8.8,0,0,1-.8-.9.8.8,0,0,1,.8-.8c.5,0,.8.3.8.9A.8.8,0,0,1,101.2,15.8Zm1.6,9.6a1.7,1.7,0,0,1-.9.3c-1.1,0-1.4-.8-1.4-1.7V17.4h1.3v6.5c0,.3,0,.7.5.7h.3Z"/><path class="a" d="M103.8,25.5v-1l4.7-6h-4.6V17.4h6v1.2l-4.6,5.8H110v1.1Z"/><path class="a" d="M118.4,25.4a1.9,1.9,0,0,1-.9.3,1.3,1.3,0,0,1-1.4-1,3.6,3.6,0,0,1-2.5,1,2.1,2.1,0,0,1-2.3-2.1c0-2.1,2.1-2.5,4.8-2.5,0-1.5,0-2.7-1.8-2.7a4.1,4.1,0,0,0-2.1.5l-.4-1a6,6,0,0,1,2.7-.6c2.5,0,2.9,1.3,2.9,3.6v2.8c0,.6,0,.9.5.9h.3Zm-2.3-3.5c-2.1,0-3.5.3-3.5,1.6a1.2,1.2,0,0,0,1.3,1.1,3.3,3.3,0,0,0,2.2-.8Z"/><polygon class="b" points="2.9 26.3 9.8 13.9 31.3 11.9 33.4 18.2 44.4 21.8 26.2 30.5 10.5 31.8 2.9 26.3"/><line class="c" x1="23.4" y1="21.2" x2="79.3" y2="21.2"/><circle class="d" cx="23.5" cy="21.2" r="2.2"/><path class="d" d="M23.5,23.7A2.6,2.6,0,1,0,21,21.2a2.5,2.5,0,0,0,2.5,2.5Zm0-4.5a1.9,1.9,0,0,1,1.9,2,1.9,1.9,0,0,1-3.8,0,1.9,1.9,0,0,1,1.9-2Z"/><rect class="d" x="78.8" y="17.9" width="1" height="6.5"/></svg>