<svg xmlns="http://www.w3.org/2000/svg" width="187.3" height="59.9" viewBox="0 0 187.3 59.9"><defs><style>.a,.b{fill:#70f5e7;}.a{fill-opacity:0.26;stroke-miterlimit:10;stroke-width:0.25px;}.a,.c{stroke:#70f5e7;}.c,.d{fill:none;stroke-linecap:round;stroke-linejoin:round;}.d{stroke:#fff;}.e{fill:#fff;}</style></defs><line class="a" x1="41" y1="16.8" x2="123.3" y2="16.8"/><path class="b" d="M133.1,20.7V15.9H128v4.8h-1.2V10.3H128v4.5h5.1V10.3h1.3V20.7Z"/><path class="b" d="M140.4,12.5c2.5,0,3.7,1.9,3.7,4.2a3.9,3.9,0,0,1-3.8,4.2c-2.5,0-3.7-1.9-3.7-4.2A3.9,3.9,0,0,1,140.4,12.5Zm-.1,7.2c1.7,0,2.5-1.3,2.5-3s-.8-3.1-2.5-3.1-2.4,1.4-2.4,3.1S138.7,19.7,140.3,19.7Z"/><path class="b" d="M148.5,20.6a1.8,1.8,0,0,1-1,.3c-1,0-1.3-.8-1.3-1.7V8.7h1.3V19.1c0,.3,0,.7.5.7h.3Z"/><path class="b" d="M156.8,20.6a2.4,2.4,0,0,1-1,.3,1.5,1.5,0,0,1-1.4-1,3.2,3.2,0,0,1-2.4,1,2.1,2.1,0,0,1-2.3-2.1c0-2.1,2-2.5,4.7-2.5,0-1.5,0-2.7-1.8-2.7a4.6,4.6,0,0,0-2.1.5l-.3-1a5.5,5.5,0,0,1,2.6-.6c2.5,0,2.9,1.3,2.9,3.5v2.9c0,.6.1.9.6.9h.3Zm-2.4-3.5c-2,0-3.4.3-3.4,1.6a1.2,1.2,0,0,0,1.3,1.1,2.9,2.9,0,0,0,2.1-.8Z"/><path class="b" d="M163.5,20.7V15.2c0-1.3-.7-1.6-1.6-1.6a3.6,3.6,0,0,0-2.1.8v6.3h-1.3V12.6h.8l.4.8a4.4,4.4,0,0,1,2.5-.9c2.1,0,2.6,1.1,2.6,2.7v5.5Z"/><path class="b" d="M172.8,20.7l-.4-.7a3.1,3.1,0,0,1-2.2.9c-2,0-3.4-1.7-3.4-4s1.5-4.4,3.8-4.4a4.5,4.5,0,0,1,1.8.4V8.7h1.3v12Zm-.4-6.7a3.7,3.7,0,0,0-1.7-.4c-1.6,0-2.6,1.2-2.6,3.1s1,3,2.4,3a3,3,0,0,0,1.9-.8Z"/><path class="b" d="M182.8,20.6a1.9,1.9,0,0,1-.9.3,1.3,1.3,0,0,1-1.4-1,3.4,3.4,0,0,1-2.5,1,2.1,2.1,0,0,1-2.3-2.1c0-2.1,2.1-2.5,4.8-2.5,0-1.5,0-2.7-1.8-2.7a4.1,4.1,0,0,0-2.1.5l-.4-1a6.3,6.3,0,0,1,2.7-.6c2.5,0,2.9,1.3,2.9,3.5v2.9c0,.6,0,.9.5.9h.3Zm-2.3-3.5c-2.1,0-3.5.3-3.5,1.6a1.2,1.2,0,0,0,1.3,1.1,3.1,3.1,0,0,0,2.2-.8Z"/><polygon class="c" points="10.7 41.1 17.6 43.6 27.5 36.8 46 54.3 45.1 36.5 55.4 26.8 49 21.2 57.5 13.4 38.8 9.2 37 19.2 28.3 15.2 10.7 41.1"/><line class="d" x1="42.5" y1="17.5" x2="121.9" y2="17.5"/><circle class="e" cx="42.6" cy="17.5" r="2.2"/><path class="e" d="M42.6,20a2.5,2.5,0,1,0-2.5-2.5A2.5,2.5,0,0,0,42.6,20Zm0-4.4a1.9,1.9,0,0,1,1.9,1.9,1.9,1.9,0,0,1-1.9,2,2,2,0,0,1-1.9-2,2,2,0,0,1,1.9-1.9Z"/><rect class="e" x="121.4" y="14.3" width="1" height="6.5"/></svg>