<svg xmlns="http://www.w3.org/2000/svg" width="110.8" height="94.9" viewBox="0 0 110.8 94.9"><defs><style>.a{fill:#70f5e7;}.b{fill:none;stroke:#fff;stroke-linecap:round;stroke-linejoin:round;}.c{fill:#fff;}</style></defs><path class="a" d="M22.5,21.4V11h2.9c2.5,0,3.9,1.1,3.9,3.3s-1.4,3.3-3.9,3.3H23.7v3.8Zm3-4.9a2.1,2.1,0,0,0,2.4-2.2c0-1.2-.6-2.2-2.4-2.2H23.7v4.4Z"/><path class="a" d="M37.4,21.3a1.7,1.7,0,0,1-1,.3,1.6,1.6,0,0,1-1.4-.9,3.9,3.9,0,0,1-2.5.9,2.1,2.1,0,0,1-2.3-2.1c0-2.1,2.1-2.5,4.8-2.5,0-1.4,0-2.7-1.8-2.7a4.3,4.3,0,0,0-2.1.5l-.3-1a5.5,5.5,0,0,1,2.6-.6c2.5,0,2.9,1.4,2.9,3.6v2.9c0,.5.1.8.6.8h.3ZM35,17.9c-2.1,0-3.4.3-3.4,1.5a1.2,1.2,0,0,0,1.3,1.1,3,3,0,0,0,2.1-.8Z"/><path class="a" d="M44.1,21.4V15.9c0-1.3-.7-1.6-1.6-1.6a2.9,2.9,0,0,0-2.1.9v6.2H39.1v-8h.7l.5.7a4.4,4.4,0,0,1,2.5-.9c2,0,2.6,1.2,2.6,2.7v5.5Z"/><path class="a" d="M54.4,21.3a1.5,1.5,0,0,1-1,.3,1.3,1.3,0,0,1-1.3-.9,4.1,4.1,0,0,1-2.5.9,2.1,2.1,0,0,1-2.3-2.1c0-2.1,2.1-2.5,4.8-2.5,0-1.4,0-2.7-1.8-2.7a4.8,4.8,0,0,0-2.2.5l-.3-1a5.7,5.7,0,0,1,2.7-.6c2.5,0,2.9,1.4,2.9,3.6v2.9c0,.5,0,.8.5.8h.3Zm-2.3-3.4c-2.1,0-3.5.3-3.5,1.5a1.2,1.2,0,0,0,1.3,1.1,3.3,3.3,0,0,0,2.2-.8Z"/><path class="a" d="M65.6,21.4V15.9A1.4,1.4,0,0,0,64,14.3a2.8,2.8,0,0,0-1.9.9v6.2H60.8V15.9c0-1.2-.5-1.6-1.5-1.6a2.8,2.8,0,0,0-1.9.9v6.2H56.1v-8h.8l.5.7a3.3,3.3,0,0,1,2.1-.9,2.5,2.5,0,0,1,2.3,1.1,4,4,0,0,1,2.5-1.1c1.8,0,2.6,1,2.6,2.7v5.5Z"/><path class="a" d="M75.9,21.3a1.5,1.5,0,0,1-1,.3,1.6,1.6,0,0,1-1.4-.9,3.7,3.7,0,0,1-2.5.9,2,2,0,0,1-2.2-2.1c0-2.1,2-2.5,4.7-2.5,0-1.4,0-2.7-1.8-2.7a4.3,4.3,0,0,0-2.1.5l-.3-1a5.5,5.5,0,0,1,2.6-.6c2.5,0,2.9,1.4,2.9,3.6v2.9c0,.5.1.8.6.8h.3Zm-2.4-3.4c-2,0-3.4.3-3.4,1.5a1.2,1.2,0,0,0,1.3,1.1,3,3,0,0,0,2.1-.8Zm-2.6-6,1.5-2.3h1.5L72,11.9Z"/><path class="a" d="M74.3,53h0l19.5,2.2,7.7,13.5h-.1L94,76.2a2.1,2.1,0,0,0-.6,1.8l1.2,6h-.1l-6.1-8.4L89.9,66a2.1,2.1,0,0,0-1.6-2.3L76.2,61.2h-.4a2.1,2.1,0,0,0-1.3.5L63.9,70.7a1.9,1.9,0,0,0-.7,2.1l2.2,7.3-5.3,6.3H60L32.6,66.2l2.9-12.6h0L52.2,65.2a1.9,1.9,0,0,0,1.2.4,2.3,2.3,0,0,0,1.1-.3L74.3,53h0m0-1h-.5L53.9,64.4l-.5.2-.6-.2L36.1,52.8l-.6-.2a1.1,1.1,0,0,0-1,.8L31.6,65.9A1,1,0,0,0,32,67L59.4,87.2l.6.2a.9.9,0,0,0,.8-.4l5.4-6.2a1.2,1.2,0,0,0,.2-1l-2.2-7.3a1.1,1.1,0,0,1,.3-1.1l10.6-9a1.1,1.1,0,0,1,.7-.3H76l12.1,2.6a1,1,0,0,1,.8,1.2l-1.5,9.6a1.1,1.1,0,0,0,.2.8l6.1,8.3a1.4,1.4,0,0,0,.9.5,1,1,0,0,0,1-1.3l-1.2-5.9a1.7,1.7,0,0,1,.3-1l7.5-7.5a.9.9,0,0,0,.1-1.2L94.7,54.7l-.8-.5L74.5,52Z"/><line class="b" x1="47.7" y1="68.3" x2="47.7" y2="27.6"/><circle class="c" cx="47.7" cy="68.2" r="2.2"/><path class="c" d="M50.2,68.2a2.5,2.5,0,1,0-2.5,2.5,2.5,2.5,0,0,0,2.5-2.5Zm-4.5,0a1.9,1.9,0,0,1,2-1.9,1.9,1.9,0,0,1,1.9,1.9,2,2,0,0,1-1.9,1.9,2,2,0,0,1-2-1.9Z"/><rect class="c" x="44.4" y="27.1" width="6.5" height="1"/></svg>