<svg xmlns="http://www.w3.org/2000/svg" width="164.2" height="99" viewBox="0 0 164.2 99"><defs><style>.a{fill:#70f5e7;}.b,.c{fill:none;stroke-linecap:round;stroke-linejoin:round;}.b{stroke:#70f5e7;}.c{stroke:#fff;}.d{fill:#fff;}</style></defs><path class="a" d="M4.1,52.6V42.2h6.2v1.1H5.4v3.5H9.5v1.1H5.4v3.6h5.1v1.1Z"/><path class="a" d="M12.2,51.2a4.6,4.6,0,0,0,2.1.5c1.3,0,1.8-.6,1.8-1.2s-4-.9-4-3.7,1.1-2.4,2.8-2.4a3.7,3.7,0,0,1,2.2.5l-.4,1a4.4,4.4,0,0,0-1.8-.4c-1.1,0-1.6.5-1.6,1.2s4,.8,4,3.6-.9,2.5-3,2.5a4.6,4.6,0,0,1-2.4-.6Z"/><path class="a" d="M19.4,55.9V44.6h.9l.3.7a3.5,3.5,0,0,1,2.3-.9c2.1,0,3.4,1.8,3.4,4s-1.5,4.4-3.8,4.4a4.5,4.5,0,0,1-1.8-.4v3.5Zm1.3-4.6a3.3,3.3,0,0,0,1.7.4c1.6,0,2.6-1.2,2.6-3.1s-1-3-2.4-3a3.2,3.2,0,0,0-1.9.7Z"/><path class="a" d="M34.8,52.6l-.9.2a1.4,1.4,0,0,1-1.4-.9,3.9,3.9,0,0,1-2.5.9,2.1,2.1,0,0,1-2.3-2c0-2.1,2.1-2.6,4.8-2.6,0-1.4,0-2.6-1.8-2.6a4.1,4.1,0,0,0-2.1.4l-.4-1a6.3,6.3,0,0,1,2.7-.6c2.5,0,2.9,1.4,2.9,3.6v2.9c0,.5,0,.8.5.8h.3Zm-2.3-3.5c-2.1,0-3.5.3-3.5,1.5a1.3,1.3,0,0,0,1.3,1.2,3.2,3.2,0,0,0,2.2-.9Z"/><path class="a" d="M41.6,52.6V47.1c0-1.3-.7-1.5-1.6-1.5a3.9,3.9,0,0,0-2.2.8v6.2H36.5v-8h.8l.5.7a4.4,4.4,0,0,1,2.5-.9c2,0,2.6,1.2,2.6,2.7v5.5Zm.8-11.5v.2c0,1-.5,1.6-1.7,1.6s-1.3-.8-2-.8-.7.9-.7.9h-.8v-.3a1.4,1.4,0,0,1,1.6-1.5c1.1,0,1.4.8,2,.8s.7-.3.7-.9Z"/><path class="a" d="M52,52.6l-1,.2a1.3,1.3,0,0,1-1.3-.9,4.1,4.1,0,0,1-2.5.9,2.1,2.1,0,0,1-2.3-2c0-2.1,2.1-2.6,4.8-2.6,0-1.4-.1-2.6-1.9-2.6a4.6,4.6,0,0,0-2.1.4l-.3-1a5.5,5.5,0,0,1,2.6-.6c2.5,0,3,1.4,3,3.6v2.9c0,.5,0,.8.5.8h.3Zm-2.3-3.5c-2.1,0-3.5.3-3.5,1.5a1.3,1.3,0,0,0,1.3,1.2,3.4,3.4,0,0,0,2.2-.9Z"/><polygon class="b" points="51.8 29.9 45.1 14.7 59.8 9.7 114.3 14 156.7 25.2 148.2 37.6 137.5 37.6 136.6 44.1 128.2 52.8 128.8 61.9 110.3 83.3 79.9 91.3 73.4 80.3 64.5 80.2 60.8 55 70.1 32.7 60.6 27.8 51.8 29.9"/><line class="c" x1="76.7" y1="48.4" x2="55.3" y2="48.4"/><circle class="d" cx="76.6" cy="48.4" r="2.2"/><path class="d" d="M76.6,45.9A2.6,2.6,0,0,0,74,48.4a2.6,2.6,0,0,0,5.1,0,2.5,2.5,0,0,0-2.5-2.5Zm0,4.4a2,2,0,1,1,1.9-1.9,2,2,0,0,1-1.9,1.9Z"/><rect class="d" x="54.8" y="45.1" width="1" height="6.5"/></svg>