<svg xmlns="http://www.w3.org/2000/svg" width="81.3" height="111.5" viewBox="0 0 81.3 111.5"><defs><style>.a,.b,.e{fill:none;stroke-linecap:round;stroke-linejoin:round;}.a{stroke:#70f5e7;}.b,.e{stroke:#fff;}.b{stroke-width:0.94px;}.c{fill:#fff;}.d{fill:#70f5e7;}</style></defs><polygon class="a" points="27.1 87.4 38.1 82.5 44.9 84.9 54.9 78.2 73.4 95.7 68.6 107.7 27.1 87.4"/><line class="b" x1="35.6" y1="85.7" x2="35.6" y2="24.1"/><circle class="c" cx="35.6" cy="85.6" r="2.1"/><path class="c" d="M38,85.6a2.3,2.3,0,0,0-2.4-2.3,2.3,2.3,0,0,0-2.3,2.3A2.3,2.3,0,0,0,35.6,88,2.4,2.4,0,0,0,38,85.6Zm-4.2,0a1.8,1.8,0,1,1,1.8,1.8,1.8,1.8,0,0,1-1.8-1.8Z"/><rect class="c" x="32.6" y="23.7" width="6.1" height="0.94"/><path class="d" d="M21,17.3V6.8h3.3c1.8,0,3.1.8,3.1,2.6a2.7,2.7,0,0,1-1.5,2.3,2.4,2.4,0,0,1,1.9,2.5c0,1.6-1.5,3.1-3.8,3.1Zm3.9-6A1.9,1.9,0,0,0,26,9.5c0-.9-.5-1.6-1.9-1.6H22.2v3.4Zm-.8,4.8c1.4,0,2.3-.8,2.3-1.9a1.8,1.8,0,0,0-2-1.9H22.2v3.8Z"/><path class="d" d="M35.7,16.7a4,4,0,0,1-2.6.7c-2.3,0-3.8-1.6-3.8-4.1S30.7,9,32.9,9s3,1.5,3,3.3a6.2,6.2,0,0,1-.1,1.3H30.7a2.5,2.5,0,0,0,2.6,2.7,5.9,5.9,0,0,0,2.1-.5Zm-1.1-4c0-.1.1-.4.1-.5a1.8,1.8,0,0,0-1.9-2,2.3,2.3,0,0,0-2.1,2.5Zm-3-5,1.5-2.3h1.4L32.7,7.7Z"/><path class="d" d="M40.4,17.2a2.4,2.4,0,0,1-1,.2c-1.1,0-1.4-.7-1.4-1.6V5.2h1.3V15.7a.5.5,0,0,0,.6.6h.3Z"/><path class="d" d="M47.2,10.2a2.4,2.4,0,0,1,.5,1.5,2.7,2.7,0,0,1-2.9,2.8h-.5c-.1,0-.4.4-.4.6s.2.6,1,.6c2.7,0,3.5.9,3.5,2.3s-1.3,2.7-3.6,2.7-3.1-.8-3.1-2.3a2,2,0,0,1,1.5-1.9,1.4,1.4,0,0,1-.5-1.1v-.3l.7-.9A2.6,2.6,0,0,1,42,11.8,2.7,2.7,0,0,1,44.8,9a3.6,3.6,0,0,1,1.5.3h2.8v1Zm-4.3,8c0,.8.6,1.4,2,1.4s2.2-.5,2.2-1.5-.5-1.3-2.2-1.3h-.8A1.4,1.4,0,0,0,42.9,18.2Zm3.6-6.5A1.6,1.6,0,0,0,44.8,10a1.7,1.7,0,0,0-1.7,1.8,1.6,1.6,0,0,0,1.7,1.7A1.6,1.6,0,0,0,46.5,11.7Z"/><path class="d" d="M51.1,7.5a.7.7,0,0,1-.8-.8.9.9,0,0,1,.8-.9.8.8,0,0,1,.9.9A.9.9,0,0,1,51.1,7.5Zm1.7,9.7a2.4,2.4,0,0,1-1,.2c-1.1,0-1.4-.7-1.4-1.6V9.2h1.3v6.5a.5.5,0,0,0,.6.6h.3Z"/><path class="d" d="M60,16.8a3.7,3.7,0,0,1-2.3.6c-2,0-3.7-1.4-3.7-4.1S55.7,9,58,9a3.4,3.4,0,0,1,2,.5l-.3,1a3.7,3.7,0,0,0-1.7-.3c-1.6,0-2.7.9-2.7,3.1s1.2,3,2.6,3a2.8,2.8,0,0,0,1.8-.5Z"/><path class="d" d="M68.1,17.2l-.9.2a1.4,1.4,0,0,1-1.4-.9,3.4,3.4,0,0,1-2.5.9,2.1,2.1,0,0,1-2.3-2c0-2.1,2.1-2.6,4.8-2.6,0-1.4,0-2.6-1.8-2.6a5.6,5.6,0,0,0-2.1.4l-.4-1A6.3,6.3,0,0,1,64.2,9c2.5,0,2.9,1.4,2.9,3.6v2.9c0,.5,0,.8.5.8h.3Zm-2.3-3.5c-2.1,0-3.5.3-3.5,1.5a1.3,1.3,0,0,0,1.3,1.2,3.2,3.2,0,0,0,2.2-.9Z"/><line class="e" x1="34.7" y1="86.3" x2="34.7" y2="24.9"/><circle class="c" cx="34.7" cy="86.2" r="2.2"/><path class="c" d="M37.2,86.2a2.5,2.5,0,1,0-2.5,2.5,2.5,2.5,0,0,0,2.5-2.5Zm-4.4,0a1.8,1.8,0,0,1,1.9-1.9,1.9,1.9,0,0,1,1.9,1.9,2,2,0,0,1-1.9,1.9,1.9,1.9,0,0,1-1.9-1.9Z"/><rect class="c" x="31.4" y="24.4" width="6.5" height="1"/></svg>