<svg xmlns="http://www.w3.org/2000/svg" width="148.7" height="235.9" viewBox="0 0 148.7 235.9"><defs><style>.a{fill:#70f5e7;}.b,.c{fill:none;stroke-linecap:round;stroke-linejoin:round;}.b{stroke:#70f5e7;}.c{stroke:#fff;}.d{fill:#fff;}</style></defs><path class="a" d="M87.8,174.3l-1-3H82.5l-.9,3H80.3l3.5-10.5h1.7l3.7,10.5ZM84.6,165l-1.7,5.2h3.5Z"/><path class="a" d="M90.7,174.3v-8.1h.8l.4,1.1a2.9,2.9,0,0,1,2.4-1.3l.7.2-.2,1.2h-.7a2.8,2.8,0,0,0-2.1,1v6Z"/><path class="a" d="M101.2,167.2a2.6,2.6,0,0,1,.5,1.5,2.7,2.7,0,0,1-2.9,2.8h-.6a1.5,1.5,0,0,0-.3.7c0,.3.1.5.9.5,2.8,0,3.6.9,3.6,2.3s-1.4,2.7-3.6,2.7-3.2-.7-3.2-2.3a2,2,0,0,1,1.6-1.9,1.2,1.2,0,0,1-.5-1.1v-.3l.7-.9a2.3,2.3,0,0,1-1.4-2.4,2.7,2.7,0,0,1,2.8-2.8,3.6,3.6,0,0,1,1.5.3h2.8v1Zm-4.4,8c0,.8.7,1.4,2,1.4s2.3-.5,2.3-1.5-.5-1.3-2.3-1.3h-.7C97.3,174,96.8,174.4,96.8,175.2Zm3.7-6.5a1.5,1.5,0,0,0-1.7-1.6,1.6,1.6,0,0,0-1.7,1.7,1.6,1.6,0,0,0,1.7,1.7A1.6,1.6,0,0,0,100.5,168.7Z"/><path class="a" d="M110.2,173.7a4.6,4.6,0,0,1-2.7.7c-2.3,0-3.7-1.6-3.7-4.1s1.4-4.3,3.5-4.3,3.1,1.5,3.1,3.3a5.9,5.9,0,0,1-.2,1.3h-5.1a2.6,2.6,0,0,0,2.7,2.7,3.7,3.7,0,0,0,2-.5Zm-1.1-4v-.5c0-1.2-.6-2-1.8-2a2.3,2.3,0,0,0-2.1,2.5Z"/><path class="a" d="M117.5,174.3v-5.5c0-1.3-.7-1.6-1.6-1.6a3.3,3.3,0,0,0-2.1.8v6.3h-1.3v-8.1h.7l.5.8a3.8,3.8,0,0,1,2.5-1c2,0,2.6,1.2,2.6,2.8v5.5Z"/><path class="a" d="M125.5,174a2.7,2.7,0,0,1-1.6.4c-1.4,0-2.3-.8-2.3-2.5v-4.8h-1.4v-.9h1.4v-1.7l1.3-.3v2h2.5v.9h-2.5v4.8c0,1,.5,1.4,1.3,1.4l1-.2Z"/><path class="a" d="M127.9,164.5a.8.8,0,0,1,0-1.6c.6,0,.9.3.9.8S128.5,164.5,127.9,164.5Zm1.7,9.7a2.4,2.4,0,0,1-1,.2c-1.1,0-1.4-.7-1.4-1.6v-6.6h1.3v6.5a.5.5,0,0,0,.6.6h.3Z"/><path class="a" d="M136.5,174.3v-5.5c0-1.3-.7-1.6-1.6-1.6a3.9,3.9,0,0,0-2.2.8v6.3h-1.3v-8.1h.8l.5.8a3.8,3.8,0,0,1,2.5-1c2,0,2.6,1.2,2.6,2.8v5.5Z"/><path class="a" d="M146.8,174.2l-1,.2a1.4,1.4,0,0,1-1.4-.9,3.2,3.2,0,0,1-2.5.9,2,2,0,0,1-2.2-2c0-2.1,2-2.6,4.7-2.6,0-1.4,0-2.6-1.8-2.6a4.6,4.6,0,0,0-2.1.5l-.3-1a5.4,5.4,0,0,1,2.6-.7c2.5,0,2.9,1.4,2.9,3.6v2.9c0,.5.1.8.6.8h.3Zm-2.4-3.5c-2,0-3.4.3-3.4,1.5a1.2,1.2,0,0,0,1.3,1.2,3.1,3.1,0,0,0,2.1-.9Z"/><polyline class="b" points="42.7 13.7 47.3 4.8 66.9 5.5 95.5 25.1 90.7 35.5 98.9 37.9 113.6 31.8 112.2 39.7 95.8 56.1 90.6 79.8 101.9 94.4 93.5 107.8 70.8 112.3 44.3 160.4 50.4 168.2 31.4 198.2 53.9 226.8 34.8 228.8 31.4 208.8 12.8 194.4 20.2 150.5 17.2 119.5 28.8 78.9 28.8 49.4"/><line class="c" x1="40.2" y1="170.7" x2="77" y2="170.7"/><circle class="d" cx="40.3" cy="170.7" r="2.2"/><path class="d" d="M40.3,173.2a2.5,2.5,0,1,0-2.5-2.5,2.5,2.5,0,0,0,2.5,2.5Zm0-4.4a1.8,1.8,0,0,1,1.9,1.9,1.9,1.9,0,0,1-3.8,0,1.8,1.8,0,0,1,1.9-1.9Z"/><rect class="d" x="76.5" y="167.4" width="1" height="6.5"/></svg>