<svg xmlns="http://www.w3.org/2000/svg" width="129.5" height="279.7" viewBox="0 0 129.5 279.7"><defs><style>.a{fill:#70f5e7;}.b{fill:none;stroke:#fff;stroke-linecap:round;stroke-linejoin:round;}.c{fill:#fff;}</style></defs><path class="a" d="M21,192.7a5.3,5.3,0,0,1-2.9.9c-2.9,0-4.9-2.2-4.9-5.4s2-5.4,5-5.4a5.8,5.8,0,0,1,2.8.6l-.4,1.1a5.4,5.4,0,0,0-2.4-.5c-1.9,0-3.7,1.3-3.7,4.1s1.3,4.2,3.8,4.2a3.5,3.5,0,0,0,2.3-.6Z"/><path class="a" d="M24.2,186.1a4,4,0,0,1,2.4-.9c2.1,0,2.6,1.1,2.6,2.7v5.5H27.9v-5.5c0-1.3-.7-1.6-1.5-1.6a3.6,3.6,0,0,0-2.2.8v6.3H22.9v-12h1.3Z"/><path class="a" d="M32.5,183.7a.8.8,0,0,1-.8-.9.8.8,0,0,1,.8-.8.8.8,0,0,1,.9.9A.9.9,0,0,1,32.5,183.7Zm1.7,9.6a1.8,1.8,0,0,1-1,.3c-1.1,0-1.4-.8-1.4-1.7v-6.6h1.3v6.5c0,.3.1.7.6.7H34Z"/><path class="a" d="M38.3,193.3a1.7,1.7,0,0,1-.9.3c-1.1,0-1.4-.8-1.4-1.7V181.4h1.3v10.4c0,.3,0,.7.5.7h.3Z"/><path class="a" d="M45.9,192.8a4,4,0,0,1-2.6.8c-2.3,0-3.8-1.6-3.8-4.1s1.5-4.3,3.6-4.3,3,1.5,3,3.2a5.3,5.3,0,0,1-.1,1.3H40.9a2.5,2.5,0,0,0,2.6,2.7,4.1,4.1,0,0,0,2.1-.5Zm-1.1-3.9c0-.2.1-.4.1-.6a1.8,1.8,0,0,0-1.9-2c-1.4,0-2,1.3-2.1,2.6Z"/><path class="a" d="M110.3,24.1l1.5,16.1a.4.4,0,0,0,.1.3l7.8,17.1L106,92.8a.8.8,0,0,0-.1.4v29.4L94.4,163.1c0,.1-.1.2,0,.4l3,30.8-7.5,43.8a1.3,1.3,0,0,0,.4,1l18.4,14.1,3,18.1-9.9-2.4L76.7,240l10.8-97.8,13.3-56.4v-.2L105,29.1l5.3-5m.9-2.1L104,28.6,99.8,85.5,86.5,142,75.7,240.3l25.5,29.5,11.8,2.9-3.4-20L90.9,238.3l7.5-43.9-3-31L107,122.7V93.2l13.9-35.7-8-17.4L111.2,22Z"/><line class="b" x1="87.7" y1="186.7" x2="50.8" y2="186.7"/><circle class="c" cx="87.5" cy="186.7" r="2.2"/><path class="c" d="M87.5,184.2a2.5,2.5,0,1,0,2.5,2.5,2.5,2.5,0,0,0-2.5-2.5Zm0,4.4a2,2,0,0,1-1.9-1.9,2,2,0,1,1,1.9,1.9Z"/><rect class="c" x="50.3" y="183.4" width="1" height="6.5"/></svg>