<svg xmlns="http://www.w3.org/2000/svg" width="206.8" height="39" viewBox="0 0 206.8 39"><defs><style>.a,.b,.c{fill:#70f5e7;}.b{fill-opacity:0.21;stroke-width:1.27px;}.b,.c{stroke:#70f5e7;stroke-miterlimit:10;}.c{stroke-width:0.93px;}.d{fill:#98969c;}</style></defs><path class="a" d="M22.5,24,18.9,12.7h1.5l1.8,5.6q.8,2.3,1.2,4.2h0c.3-1.3.8-2.7,1.3-4.2l1.9-5.6h1.6L24.1,24Z"/><path class="a" d="M36.1,19.9a4,4,0,0,1-4,4.3A3.9,3.9,0,0,1,28.2,20a4,4,0,0,1,4-4.3A3.9,3.9,0,0,1,36.1,19.9Zm-6.4.1c0,1.7,1,3.1,2.4,3.1s2.5-1.3,2.5-3.2-.7-3.1-2.4-3.1S29.7,18.4,29.7,20Z"/><path class="a" d="M43.7,23.7a5.2,5.2,0,0,1-2.3.5,3.9,3.9,0,0,1-4-4.2,4.1,4.1,0,0,1,4.3-4.3,4.4,4.4,0,0,1,2,.5l-.3,1.1a3.2,3.2,0,0,0-1.7-.4A2.8,2.8,0,0,0,38.9,20a2.8,2.8,0,0,0,2.8,3,4.4,4.4,0,0,0,1.8-.4Z"/><path class="a" d="M46.1,20.2A2.6,2.6,0,0,0,48.9,23a6.3,6.3,0,0,0,2.3-.4l.2,1.1a7.1,7.1,0,0,1-2.7.5,3.8,3.8,0,0,1-4-4.1c0-2.5,1.5-4.4,3.8-4.4s3.4,2.3,3.4,3.8a1.5,1.5,0,0,1-.1.7Zm4.4-1c0-1-.4-2.4-2.1-2.4a2.3,2.3,0,0,0-2.2,2.4Z"/><path class="a" d="M53.5,22.5a3.6,3.6,0,0,0,1.9.6c1.1,0,1.6-.5,1.6-1.2s-.4-1.1-1.5-1.5-2.1-1.3-2.1-2.3a2.5,2.5,0,0,1,2.7-2.4,4.4,4.4,0,0,1,2,.5l-.3,1.1a3.4,3.4,0,0,0-1.7-.5c-.9,0-1.3.5-1.3,1.1s.4,1,1.5,1.4,2.1,1.2,2.1,2.4-1.1,2.5-3,2.5a5.2,5.2,0,0,1-2.3-.6Z"/><rect class="b" x="65" y="3" width="75.8" height="33.73" rx="16.9"/><circle class="c" cx="77.1" cy="19.8" r="8.7"/><path class="d" d="M164.3,6.1l2.7-.2a4.8,4.8,0,0,1,3.3.9,2.6,2.6,0,0,1,.9,2.1,2.9,2.9,0,0,1-2.1,2.9h0a2.8,2.8,0,0,1,1.6,2.3,22.5,22.5,0,0,0,.9,3.1h-1.5a13.3,13.3,0,0,1-.7-2.7c-.4-1.6-1-2.1-2.3-2.2h-1.4v4.9h-1.4Zm1.4,5.1h1.5c1.5,0,2.5-.8,2.5-2.1s-1-2.1-2.6-2.1h-1.4Z"/><path class="d" d="M173.7,13.4a2.5,2.5,0,0,0,2.7,2.8,6.3,6.3,0,0,0,2.3-.4l.2,1.1a7.1,7.1,0,0,1-2.7.5c-2.5,0-3.9-1.7-3.9-4.1s1.4-4.4,3.7-4.4,3.4,2.3,3.4,3.8a1.5,1.5,0,0,1-.1.7Zm4.3-1c0-1-.4-2.4-2.1-2.4a2.3,2.3,0,0,0-2.2,2.4Z"/><path class="d" d="M187.7,5.3v9.8c0,.7.1,1.5.1,2.1h-1.3V15.8h0a2.9,2.9,0,0,1-2.7,1.6c-2,0-3.5-1.7-3.5-4.1s1.7-4.4,3.6-4.4a2.7,2.7,0,0,1,2.5,1.3h0V5.3Zm-1.4,7.1a1.3,1.3,0,0,0-.1-.6,2.2,2.2,0,0,0-2.1-1.7c-1.5,0-2.4,1.3-2.4,3.1s.8,3,2.4,3a2.1,2.1,0,0,0,2.1-1.8,1.3,1.3,0,0,0,.1-.6Z"/><path class="d" d="M153.2,22v9.8c0,.7.1,1.5.1,2.1H152V32.5h0a2.9,2.9,0,0,1-2.7,1.6c-2,0-3.5-1.7-3.5-4.1s1.7-4.4,3.6-4.4a2.7,2.7,0,0,1,2.5,1.3h0V22Zm-1.4,7.1a1.3,1.3,0,0,0-.1-.6,2.2,2.2,0,0,0-2.1-1.7c-1.5,0-2.4,1.3-2.4,3.1s.8,3,2.4,3a2.1,2.1,0,0,0,2.1-1.8,1.3,1.3,0,0,0,.1-.6Z"/><path class="d" d="M156.1,30.1a2.6,2.6,0,0,0,2.8,2.8,5.7,5.7,0,0,0,2.2-.4l.3,1a5.4,5.4,0,0,1-2.7.6,3.8,3.8,0,0,1-4-4.1c0-2.5,1.4-4.4,3.8-4.4s3.3,2.3,3.3,3.8v.7Zm4.3-1c0-1-.4-2.4-2-2.4a2.4,2.4,0,0,0-2.3,2.4Z"/><path class="d" d="M172,31.9c0,.7.1,1.4.1,2h-1.3v-1h0a3.3,3.3,0,0,1-2.5,1.2,2.3,2.3,0,0,1-2.5-2.4c0-1.9,1.7-3,4.9-3h0a1.7,1.7,0,0,0-1.9-1.9,3.9,3.9,0,0,0-2.1.6l-.3-1a5,5,0,0,1,2.6-.7c2.5,0,3.1,1.7,3.1,3.3Zm-1.4-2.1c-1.6-.1-3.4.2-3.4,1.8a1.3,1.3,0,0,0,1.3,1.4,2,2,0,0,0,2-1.4.6.6,0,0,0,.1-.4Z"/><path class="d" d="M174,28.4c0-1-.1-1.8-.1-2.6h1.3v1.4h0a3.2,3.2,0,0,1,2.9-1.6c2,0,3.4,1.7,3.4,4.1s-1.8,4.4-3.7,4.4a2.7,2.7,0,0,1-2.4-1.3h-.1v4.4H174Zm1.4,2.2a1.3,1.3,0,0,0,.1.6,2.3,2.3,0,0,0,2.2,1.7c1.5,0,2.4-1.3,2.4-3.1s-.8-3-2.4-3a2.3,2.3,0,0,0-2.2,1.8c0,.2-.1.4-.1.6Z"/><path class="d" d="M190.4,29.8a4,4,0,0,1-4.1,4.3c-2.1,0-3.8-1.6-3.8-4.2a4,4,0,0,1,4-4.3A3.9,3.9,0,0,1,190.4,29.8Zm-6.4.1c0,1.7,1,3.1,2.4,3.1s2.5-1.4,2.5-3.2-.7-3.1-2.5-3.1S184,28.3,184,29.9Z"/><path class="d" d="M192.2,25.8l1.8,4.8a9.8,9.8,0,0,1,.5,1.6h0l.6-1.7,1.6-4.7h1.5L196,31.6c-1,2.7-1.8,4.1-2.8,5a4.7,4.7,0,0,1-1.8,1l-.3-1.3a4.2,4.2,0,0,0,1.3-.7,5.5,5.5,0,0,0,1.2-1.6.8.8,0,0,0,0-.8l-3-7.4Z"/><path class="d" d="M206.3,29.8a4,4,0,0,1-4,4.3,3.9,3.9,0,0,1-3.9-4.2,4,4,0,0,1,4-4.3A3.9,3.9,0,0,1,206.3,29.8Zm-6.4.1c0,1.7,1,3.1,2.4,3.1s2.5-1.4,2.5-3.2-.7-3.1-2.4-3.1S199.9,28.3,199.9,29.9Z"/></svg>