<svg xmlns="http://www.w3.org/2000/svg" width="262.5" height="241.3" viewBox="0 0 262.5 241.3"><defs><style>.a{fill:#70f5e7;}.b,.c{fill:none;stroke-linecap:round;stroke-linejoin:round;}.b{stroke:#70f5e7;}.c{stroke:#fff;}.d{fill:#fff;}</style></defs><path class="a" d="M218.5,130.7V120.3h3.3c1.8,0,3.1.8,3.1,2.6a2.7,2.7,0,0,1-1.5,2.2,2.5,2.5,0,0,1,1.9,2.6c0,1.6-1.6,3-3.8,3Zm3.8-5.9a1.9,1.9,0,0,0,1.2-1.8c0-.9-.5-1.6-1.9-1.6h-1.9v3.4Zm-.7,4.8c1.4,0,2.3-.8,2.3-1.9a1.8,1.8,0,0,0-2-1.9h-2.2v3.8Z"/><path class="a" d="M227.4,130.7v-8h.8l.4,1.1a3.1,3.1,0,0,1,2.4-1.3h.7l-.2,1.2h-.7a2.7,2.7,0,0,0-2.1,1.1v5.9Z"/><path class="a" d="M239.2,130.7l-1,.2a1.6,1.6,0,0,1-1.4-.9,3.7,3.7,0,0,1-2.5.9,2,2,0,0,1-2.2-2c0-2.1,2-2.6,4.7-2.6,0-1.4,0-2.6-1.8-2.6a4.4,4.4,0,0,0-2.1.4l-.3-1a5.5,5.5,0,0,1,2.6-.6c2.5,0,2.9,1.4,2.9,3.6V129c0,.5.1.8.6.8h.3Zm-2.4-3.5c-2,0-3.4.3-3.4,1.5a1.2,1.2,0,0,0,1.3,1.1,3,3,0,0,0,2.1-.8Z"/><path class="a" d="M240.7,129.3a4.6,4.6,0,0,0,2.1.5c1.3,0,1.7-.6,1.7-1.2s-4-.9-4-3.7,1.2-2.4,2.9-2.4a4,4,0,0,1,2.2.5l-.4,1a4.4,4.4,0,0,0-1.8-.4c-1.1,0-1.6.5-1.6,1.2s4,.8,4,3.6c0,1.3-1,2.5-3,2.5a4.6,4.6,0,0,1-2.4-.6Z"/><path class="a" d="M248.6,121a.8.8,0,0,1-.8-.8.8.8,0,0,1,.8-.9c.5,0,.8.3.8.9A.8.8,0,0,1,248.6,121Zm1.6,9.7a2.2,2.2,0,0,1-.9.2c-1.1,0-1.4-.7-1.4-1.6v-6.6h1.3v6.4c0,.4,0,.7.5.7h.3Z"/><path class="a" d="M254.4,130.7a2.4,2.4,0,0,1-1,.2c-1,0-1.3-.7-1.3-1.6V118.7h1.2v10.4c0,.4.1.7.6.7h.3Z"/><polygon class="b" points="117.9 188.8 116.6 196.6 100.2 213 108.3 212.5 124.5 223.7 122.1 234.6 130.6 223.9 148.6 200.6 151 183.3 188.9 165.8 204.5 109.4 224.6 88.2 224.1 62.5 142.6 32.9 135.6 12.9 126.9 22.2 93 28.2 89.4 11.5 84 8.4 64.5 11.8 67.4 22.7 53.8 31.4 48.3 24.2 34.1 25.5 35.5 59.1 27.3 58.1 10.2 68.4 15.7 92.3 40.4 99 60.6 93.4 82.4 113.7 98.9 144.9 98.4 159.6 118.6 174.4 117.9 188.8"/><line class="c" x1="177" y1="127.2" x2="213.9" y2="127.2"/><circle class="d" cx="177.1" cy="127.2" r="2.2"/><path class="d" d="M177.1,129.7a2.6,2.6,0,1,0-2.5-2.5,2.6,2.6,0,0,0,2.5,2.5Zm0-4.5a2,2,0,1,1,0,3.9,2,2,0,0,1-1.9-1.9,2,2,0,0,1,1.9-2Z"/><rect class="d" x="213.4" y="123.9" width="1" height="6.5"/></svg>