<svg xmlns="http://www.w3.org/2000/svg" xmlns:xlink="http://www.w3.org/1999/xlink" width="51.1" height="46.2" viewBox="0 0 51.1 46.2"><defs><style>.a,.c{fill:none;}.b{clip-path:url(#a);}.c{stroke:#fff;stroke-linecap:round;stroke-linejoin:round;stroke-width:0.66px;opacity:0.68;}.d{fill:#70f5e7;}</style><clipPath id="a"><rect class="a" x="-764.3" y="215.3" width="1894.6" height="898.09"/></clipPath></defs><g class="b"><circle class="c" cx="192.9" cy="656" r="656.7"/></g><path class="d" d="M26.1,33.6v4.2h8.1a2.5,2.5,0,0,1,2.6,1.9,5.4,5.4,0,0,1,0,1.8,1.5,1.5,0,0,1-1.5,1.2H15.6a2,2,0,0,1-1.3-.4l-.3-.4a2.8,2.8,0,0,1,1.5-4h9V33.6l-1.4-.2a11.4,11.4,0,0,1-9.2-9.9,37.3,37.3,0,0,1-.1-4.7.8.8,0,0,1,.8-.9.9.9,0,0,1,.8.9v3A9.9,9.9,0,0,0,35,23.7a18.5,18.5,0,0,0,.2-4.1v-.9a.8.8,0,0,1,1.6,0,25,25,0,0,1-.3,6.1,11.6,11.6,0,0,1-10.1,8.8ZM15.4,41H35.2v-.3c0-1.1-.2-1.3-1.3-1.3h-17c-1.5,0-1.6.4-1.5,1.6Z"/><path class="d" d="M17.1,16.5c0-1.8-.1-3.5,0-5.3a8.2,8.2,0,0,1,6.8-7.4,8.3,8.3,0,0,1,9.5,6.5,9.9,9.9,0,0,1,.2,1.7v9a8.5,8.5,0,0,1-6.3,8.1,8.2,8.2,0,0,1-10.2-7.3C17,20,17.1,18.3,17.1,16.5Zm1.6,4.6a6.3,6.3,0,0,0,3.4,5.7,6.5,6.5,0,0,0,9.8-5.7H29.5a.9.9,0,0,1-.9-1,.9.9,0,0,1,1-.7h2.3V17.8H29.5c-.5-.1-.9-.4-.9-.9a.8.8,0,0,1,.9-.8h2.4V14.4H29.4a.8.8,0,0,1-.8-.8.9.9,0,0,1,.9-.8h2.4a6.8,6.8,0,0,0-3.4-6.6,6.5,6.5,0,0,0-7.2.5,6.6,6.6,0,0,0-2.6,6.1h2.5a.9.9,0,0,1,.8.8.7.7,0,0,1-.8.8H18.7v1.7h2.5a.8.8,0,0,1,.8,1,1,1,0,0,1-.9.7H18.7v1.6h2.4a.8.8,0,0,1,.9,1,.9.9,0,0,1-1,.7Z"/><rect class="d" x="15" y="18.6" width="2.6" height="0.96"/><rect class="d" x="33.2" y="18.6" width="2.6" height="0.96"/><rect class="d" x="44.3" y="14.1" width="2" height="12.64" rx="1"/><rect class="d" x="41.1" y="10" width="2" height="20.71" rx="1"/><rect class="d" x="37.9" y="14.1" width="2" height="12.64" rx="1"/><rect class="d" x="10.6" y="14.1" width="2" height="12.64" rx="1"/><rect class="d" x="7.4" y="10" width="2" height="20.71" rx="1"/><rect class="d" x="4.2" y="14.1" width="2" height="12.64" rx="1"/></svg>