<svg xmlns="http://www.w3.org/2000/svg" width="206.8" height="39" viewBox="0 0 206.8 39"><defs><style>.a{fill:#98969c;}.b,.c,.d{fill:#70f5e7;}.b{fill-opacity:0.21;stroke-width:1.27px;}.b,.c{stroke:#70f5e7;stroke-miterlimit:10;}.c{stroke-width:0.93px;}</style></defs><path class="a" d="M22.1,24,18.4,12.7H20l1.8,5.6q.6,2.3,1.2,4.2h0c.3-1.3.8-2.7,1.3-4.2l1.9-5.6h1.5L23.7,24Z"/><path class="a" d="M35.7,19.9a4,4,0,0,1-4.1,4.3c-2.1,0-3.8-1.6-3.8-4.2s1.7-4.3,4-4.3A3.9,3.9,0,0,1,35.7,19.9Zm-6.4.1c0,1.7,1,3.1,2.4,3.1s2.5-1.3,2.5-3.2-.7-3.1-2.5-3.1S29.3,18.4,29.3,20Z"/><path class="a" d="M43.3,23.7a5.8,5.8,0,0,1-2.4.5,3.9,3.9,0,0,1-4-4.2,4.2,4.2,0,0,1,4.4-4.3,4.8,4.8,0,0,1,2,.5L43,17.3a3.5,3.5,0,0,0-1.7-.4A2.8,2.8,0,0,0,38.4,20a2.8,2.8,0,0,0,2.8,3,4,4,0,0,0,1.8-.4Z"/><path class="a" d="M45.7,20.2A2.6,2.6,0,0,0,48.5,23a5.7,5.7,0,0,0,2.2-.4l.3,1.1a7.1,7.1,0,0,1-2.7.5,3.8,3.8,0,0,1-4-4.1c0-2.5,1.4-4.4,3.8-4.4s3.3,2.3,3.3,3.8v.7Zm4.3-1c0-1-.4-2.4-2-2.4a2.4,2.4,0,0,0-2.3,2.4Z"/><path class="a" d="M53,22.5a4.3,4.3,0,0,0,2,.6c1.1,0,1.6-.5,1.6-1.2s-.5-1.1-1.5-1.5-2.2-1.3-2.2-2.3a2.5,2.5,0,0,1,2.8-2.4,5.3,5.3,0,0,1,2,.5l-.4,1.1a3,3,0,0,0-1.6-.5c-.9,0-1.4.5-1.4,1.1s.5,1,1.6,1.4S58,20.5,58,21.7s-1.1,2.5-3,2.5a5.2,5.2,0,0,1-2.3-.6Z"/><rect class="b" x="64.6" y="3" width="75.8" height="33.73" rx="16.9"/><circle class="c" cx="129" cy="19.8" r="8.7"/><path class="d" d="M163.8,6.1l2.8-.2a4.8,4.8,0,0,1,3.3.9,2.9,2.9,0,0,1,.8,2.1,2.9,2.9,0,0,1-2.1,2.9h0a2.8,2.8,0,0,1,1.7,2.3,15.6,15.6,0,0,0,.8,3.1h-1.5c-.1-.3-.4-1.3-.7-2.7s-.9-2.1-2.3-2.2h-1.3v4.9h-1.5Zm1.5,5.1h1.5c1.5,0,2.5-.8,2.5-2.1S168.2,7,166.7,7h-1.4Z"/><path class="d" d="M173.2,13.4a2.6,2.6,0,0,0,2.8,2.8,5.7,5.7,0,0,0,2.2-.4l.3,1.1a7.1,7.1,0,0,1-2.7.5,3.8,3.8,0,0,1-4-4.1c0-2.5,1.4-4.4,3.8-4.4s3.3,2.3,3.3,3.8v.7Zm4.3-1c0-1-.4-2.4-2-2.4a2.4,2.4,0,0,0-2.3,2.4Z"/><path class="d" d="M187.3,5.3v9.8a14.1,14.1,0,0,0,.1,2.1h-1.3V15.8h0a3.2,3.2,0,0,1-2.8,1.6c-1.9,0-3.4-1.7-3.4-4.1s1.6-4.4,3.6-4.4a2.5,2.5,0,0,1,2.4,1.3h.1V5.3Zm-1.4,7.1c0-.2-.1-.4-.1-.6a2.2,2.2,0,0,0-2.1-1.7c-1.6,0-2.5,1.3-2.5,3.1s.9,3,2.4,3a2.3,2.3,0,0,0,2.2-1.8c0-.2.1-.4.1-.6Z"/><path class="d" d="M152.8,22v9.8a14.1,14.1,0,0,0,.1,2.1h-1.3V32.5h-.1a2.9,2.9,0,0,1-2.7,1.6c-1.9,0-3.4-1.7-3.4-4.1s1.6-4.4,3.6-4.4a2.8,2.8,0,0,1,2.4,1.2h0V22Zm-1.5,7.1v-.6a2.2,2.2,0,0,0-2.1-1.7c-1.6,0-2.5,1.3-2.5,3.1s.9,3,2.4,3a2.3,2.3,0,0,0,2.2-1.8v-2Z"/><path class="d" d="M155.7,30.1a2.5,2.5,0,0,0,2.7,2.8,6.3,6.3,0,0,0,2.3-.4l.2,1a5.4,5.4,0,0,1-2.7.6c-2.5,0-3.9-1.7-3.9-4.1s1.4-4.4,3.7-4.4,3.4,2.3,3.4,3.8a1.5,1.5,0,0,1-.1.7Zm4.3-1c0-1-.4-2.4-2.1-2.4a2.3,2.3,0,0,0-2.2,2.4Z"/><path class="d" d="M171.6,31.9a12.7,12.7,0,0,0,.1,2h-1.3v-1h-.1a3,3,0,0,1-2.5,1.2,2.3,2.3,0,0,1-2.4-2.4c0-1.9,1.7-3,4.8-3h0a1.7,1.7,0,0,0-1.8-1.9,3.5,3.5,0,0,0-2.1.6l-.4-1a5.7,5.7,0,0,1,2.7-.7c2.5,0,3.1,1.7,3.1,3.3Zm-1.4-2.1c-1.6-.1-3.5.2-3.5,1.8a1.4,1.4,0,0,0,1.4,1.4,2,2,0,0,0,2-1.4c0-.1.1-.3.1-.4Z"/><path class="d" d="M173.5,28.4V25.8h1.3v1.4h0a3.1,3.1,0,0,1,2.9-1.6c1.9,0,3.4,1.7,3.4,4.1s-1.8,4.4-3.7,4.4a2.9,2.9,0,0,1-2.5-1.3h0v4.4h-1.5Zm1.5,2.2a1.3,1.3,0,0,0,.1.6,2.2,2.2,0,0,0,2.2,1.7c1.5,0,2.4-1.3,2.4-3.1s-.8-3-2.4-3a2.3,2.3,0,0,0-2.2,1.8,1.3,1.3,0,0,0-.1.6Z"/><path class="d" d="M189.9,29.8a4,4,0,0,1-4,4.3,3.9,3.9,0,0,1-3.9-4.2,4,4,0,0,1,4-4.3C188.4,25.6,189.9,27.3,189.9,29.8Zm-6.4.1c0,1.7,1,3.1,2.5,3.1s2.4-1.4,2.4-3.2-.7-3.1-2.4-3.1S183.5,28.3,183.5,29.9Z"/><path class="d" d="M191.8,25.8l1.7,4.8.6,1.6h0a15.4,15.4,0,0,1,.5-1.7l1.6-4.7h1.6l-2.2,5.8c-1.1,2.7-1.8,4.1-2.8,5a3.3,3.3,0,0,1-1.8.9l-.4-1.2a2.8,2.8,0,0,0,1.3-.7,4.2,4.2,0,0,0,1.2-1.6c.1-.2.2-.3.2-.4s-.1-.2-.2-.4l-2.9-7.4Z"/><path class="d" d="M205.8,29.8a4,4,0,0,1-4,4.3,3.9,3.9,0,0,1-3.9-4.2,4,4,0,0,1,4-4.3C204.3,25.6,205.8,27.3,205.8,29.8Zm-6.4.1c0,1.7,1,3.1,2.5,3.1s2.4-1.4,2.4-3.2-.7-3.1-2.4-3.1S199.4,28.3,199.4,29.9Z"/></svg>