<svg xmlns="http://www.w3.org/2000/svg" width="276.7" height="149.8" viewBox="0 0 276.7 149.8"><defs><style>.a{fill:#70f5e7;}.b{fill:none;stroke:#fff;stroke-linecap:round;stroke-linejoin:round;}.c{fill:#fff;}</style></defs><path class="a" d="M20.8,118.5v-9.4l-3.3,7.8H16.3l-3.4-7.8v9.4H11.8V108.1h1.9l3.2,7.6,3.1-7.6h2v10.4Z"/><path class="a" d="M30.6,118a4.5,4.5,0,0,1-2.6.7c-2.3,0-3.8-1.6-3.8-4.1s1.4-4.3,3.6-4.3,3,1.5,3,3.3-.1.8-.1,1.3H25.6a2.5,2.5,0,0,0,2.6,2.7,4.8,4.8,0,0,0,2-.5Zm-1.1-4v-.5c0-1.2-.5-2-1.8-2a2.2,2.2,0,0,0-2.1,2.5Zm-3-5,1.4-2.3h1.5L27.6,109Z"/><path class="a" d="M37.3,118.5l-1.9-3.2h-.1l-2,3.2H31.8l2.9-4.2L32,110.5h1.6l1.8,2.9h.1l1.8-2.9h1.5l-2.7,3.9,2.9,4.1Z"/><path class="a" d="M41.3,108.8a.9.9,0,0,1-.8-.8.9.9,0,0,1,.8-.9.8.8,0,0,1,.9.9A.8.8,0,0,1,41.3,108.8Zm1.7,9.6a1.8,1.8,0,0,1-1,.3c-1.1,0-1.4-.7-1.4-1.6v-6.6h1.3v6.4c0,.4.1.7.6.7h.3Z"/><path class="a" d="M50.3,118.1a4.6,4.6,0,0,1-2.4.6c-2,0-3.7-1.4-3.7-4.1a4.1,4.1,0,0,1,6.1-3.8l-.4,1a3.5,3.5,0,0,0-1.6-.3c-1.7,0-2.8.9-2.8,3.1s1.2,3,2.6,3a2.8,2.8,0,0,0,1.8-.5Z"/><path class="a" d="M55.1,110.3c2.5,0,3.7,1.9,3.7,4.2a3.9,3.9,0,0,1-3.8,4.2c-2.6,0-3.7-1.9-3.7-4.2A3.9,3.9,0,0,1,55.1,110.3Zm-.1,7.3c1.7,0,2.4-1.4,2.4-3.1s-.7-3-2.4-3-2.4,1.3-2.4,3S53.4,117.6,55,117.6Z"/><path class="a" d="M81.7,8.5h0l21.8,10.8a1.6,1.6,0,0,0,.9.3h.2l32.3-3.1L148,31c.1.2.3.3.5.5l8.7,5.3a1.5,1.5,0,0,0,1.1.4,1.9,1.9,0,0,0,1.7-1l3.1-5.1-.9-.5.9.5,11.5,3.8,7.2,12,3,7.6a2,2,0,0,0,1.1,1.1l12.5,5.6h0l-3.3,29.9a1.7,1.7,0,0,0,.3,1.4l9,12.7,2.2,6.4a2.5,2.5,0,0,0,1.1,1.2l8.1,3.5a1.3,1.3,0,0,0,.8.2h.6l13.6-3.7,5.1,1.5h.6a2.1,2.1,0,0,0,1.9-1.2L246,95l21.3-.6v.1l-4.2,6.3-.3.8-2.2,14.1h0l-8.9,2.3h-9.6a2.1,2.1,0,0,0-1.9,1.2l-1.8,4.3a2,2,0,0,0,.3,2.1l3.4,3.9.7-.6-.8.7-6.5,1.2a2,2,0,0,0-1.3.8l-4.2,5.9.8.6-.9-.6-13-7.5-1.1-.2h-.4l-15.8,3.2-27.6-11.4-30.2-15.1h0l4-13a1.9,1.9,0,0,0-.3-1.8L92.8,23.7l-.6-.6L84,18.7l-.9-.2a1.9,1.9,0,0,0-1.7.9,1.9,1.9,0,0,0-.2,1.9L87,34.9a.5.5,0,0,0,.2.4l26,38.2-.3,7.5h-.1L98.6,66.9h0L99.7,65a2,2,0,0,0-.3-2.6L81.9,46.8l-.7.8.7-.9,2.4-.6A1.8,1.8,0,0,0,85.6,45a1.9,1.9,0,0,0-.1-1.8L67,10l-.9.4.9-.5L81.7,8.5h0m0-1h-.1L66.9,8.9a1.1,1.1,0,0,0-.8,1.5L84.7,43.6a1.1,1.1,0,0,1-.7,1.6l-2.3.6a1.1,1.1,0,0,0-.5,1.8L98.7,63.1a.9.9,0,0,1,.2,1.3l-1.2,1.9a1.1,1.1,0,0,0,.2,1.3l14.2,14.1a1.1,1.1,0,0,0,.8.3,1,1,0,0,0,1-1l.3-7.4a.8.8,0,0,0-.2-.7L88,34.7a.3.3,0,0,1-.1-.2L82.1,20.9a1,1,0,0,1,1-1.4h.5L91.7,24l.3.3,52.8,67.8a1,1,0,0,1,.2.9l-4.1,13.1a1.1,1.1,0,0,0,.6,1.2l30.1,15.1h.1l27.7,11.4h.6l15.7-3.2h.8l13,7.5h.5a1,1,0,0,0,.9-.4l4.2-5.9a.8.8,0,0,1,.7-.4l6.5-1.2a1,1,0,0,0,.6-1.7l-3.3-3.9a.9.9,0,0,1-.2-1.1l1.8-4.3a1.3,1.3,0,0,1,1-.6h9.9l8.8-2.3a1.1,1.1,0,0,0,.8-.8l2.2-14.1a.5.5,0,0,1,.2-.4l4.1-6.4a1,1,0,0,0-.9-1.6h0L246,94a1.1,1.1,0,0,0-1,.6l-7.5,18.1a1.1,1.1,0,0,1-1,.6h-.3l-5.1-1.5h-.6l-13.6,3.8h-.7l-8.1-3.6a.9.9,0,0,1-.6-.6l-2.2-6.3c0-.1,0-.2-.1-.2l-9-12.8a.8.8,0,0,1-.1-.7l3.3-29.8a1.1,1.1,0,0,0-.6-1.1l-12.5-5.6-.5-.6-3-7.6c-.1-.1-.1-.1-.1-.2l-7.3-11.9a1.2,1.2,0,0,0-.5-.5l-11.5-3.7h-.3a1.2,1.2,0,0,0-.9.5l-3,5.1a1.2,1.2,0,0,1-.9.5l-.6-.2L149,30.6c-.1-.1-.2-.1-.2-.2L137.7,15.9a.9.9,0,0,0-.8-.4h-.1l-32.3,3.1h-.6L82.1,7.6Z"/><line class="b" x1="196.5" y1="114.6" x2="63.4" y2="114.6"/><circle class="c" cx="196.4" cy="114.6" r="2.2"/><path class="c" d="M196.4,112.1a2.5,2.5,0,1,0,2.5,2.5,2.6,2.6,0,0,0-2.5-2.5Zm0,4.5a2,2,0,1,1,0-3.9,2,2,0,0,1,1.9,1.9,2,2,0,0,1-1.9,2Z"/><rect class="c" x="62.9" y="111.4" width="1" height="6.5"/></svg>