<svg xmlns="http://www.w3.org/2000/svg" width="126.1" height="46.2" viewBox="0 0 126.1 46.2"><defs><style>.a{fill:#70f5e7;}.b,.c{fill:none;stroke-linecap:round;stroke-linejoin:round;}.b{stroke:#70f5e7;}.c{stroke:#fff;}.d{fill:#fff;}</style></defs><path class="a" d="M71.9,21.7h1.3v6.6a4,4,0,0,1-4.1,4c-3,0-4-2.1-4-4.1V21.7h1.2v6.5A2.7,2.7,0,0,0,69,31.1a2.7,2.7,0,0,0,2.9-2.8Z"/><path class="a" d="M75.8,32.1V24h.8l.4,1.1a2.8,2.8,0,0,1,2.4-1.2h.7l-.2,1.2h-.7a2.8,2.8,0,0,0-2.1,1v6Z"/><path class="a" d="M87,32.1l-.5-.8a3.1,3.1,0,0,1-2.3,1c-1.9,0-2.6-1.3-2.6-2.9V24h1.3v5.4c0,1.3.7,1.7,1.6,1.7a3.3,3.3,0,0,0,2-.8V24h1.3v8.1Z"/><path class="a" d="M95.4,25a2.6,2.6,0,0,1,.6,1.5,2.9,2.9,0,0,1-3,2.9h-.5a1.5,1.5,0,0,0-.3.7c0,.3.1.6.9.6,2.7,0,3.5.8,3.5,2.2s-1.3,2.7-3.6,2.7-3.1-.7-3.1-2.3a2.1,2.1,0,0,1,1.6-1.9,1.2,1.2,0,0,1-.5-1.1v-.3l.6-.8a2.6,2.6,0,0,1-1.4-2.4A2.7,2.7,0,0,1,93,23.9a3.1,3.1,0,0,1,1.5.3l2.8-.2v1Zm-4.3,8c0,.8.7,1.5,2,1.5s2.3-.6,2.3-1.6-.5-1.2-2.3-1.2h-.8A1.5,1.5,0,0,0,91.1,33Zm3.7-6.5a1.5,1.5,0,0,0-1.7-1.6,1.7,1.7,0,1,0,0,3.4A1.7,1.7,0,0,0,94.8,26.5Z"/><path class="a" d="M104.1,32.1l-.5-.8a3.1,3.1,0,0,1-2.3,1c-2,0-2.6-1.3-2.6-2.9V24H100v5.4c0,1.3.7,1.7,1.6,1.7a3.3,3.3,0,0,0,2-.8V24h1.2v8.1Z"/><path class="a" d="M114,32a2.4,2.4,0,0,1-1,.3,1.5,1.5,0,0,1-1.4-1,3.2,3.2,0,0,1-2.4,1,2.1,2.1,0,0,1-2.3-2.1c0-2.1,2-2.5,4.7-2.5,0-1.5,0-2.7-1.8-2.7a4.6,4.6,0,0,0-2.1.5l-.3-1a5.5,5.5,0,0,1,2.6-.6c2.5,0,2.9,1.3,2.9,3.5v2.9c0,.6.1.9.6.9h.3Zm-2.4-3.5c-2,0-3.4.3-3.4,1.6a1.2,1.2,0,0,0,1.3,1.1,2.9,2.9,0,0,0,2.1-.8Z"/><path class="a" d="M114.4,24h1.5l2.5,6.7,2.2-6.7H122l-3.3,9.1a3.1,3.1,0,0,1-3,2.3,2.9,2.9,0,0,1-1.4-.5l.4-.9,1.1.2c1.1,0,1.6-.8,2-2Z"/><polygon class="b" points="12 12.8 6.8 36.5 28.3 40.9 33.8 34.3 36.3 23.4 20.1 12.3 12 12.8"/><line class="c" x1="23.8" y1="28.5" x2="60.6" y2="28.5"/><circle class="d" cx="23.9" cy="28.5" r="2.2"/><path class="d" d="M23.9,31a2.5,2.5,0,1,0-2.5-2.5A2.5,2.5,0,0,0,23.9,31Zm0-4.4a2,2,0,0,1,1.9,1.9,1.9,1.9,0,0,1-1.9,1.9A1.8,1.8,0,0,1,22,28.5a1.9,1.9,0,0,1,1.9-1.9Z"/><rect class="d" x="60.1" y="25.3" width="1" height="6.5"/></svg>