<svg xmlns="http://www.w3.org/2000/svg" width="173" height="56.7" viewBox="0 0 173 56.7"><defs><style>.a{fill:#70f5e7;}.b{fill:none;stroke:#fff;stroke-linecap:round;stroke-linejoin:round;}.c{fill:#fff;}</style></defs><path class="a" d="M16.9,37.9a5.3,5.3,0,0,1-3,.8C11,38.7,9,36.6,9,33.3A5,5,0,0,1,14.1,28a4.3,4.3,0,0,1,2.7.6l-.4,1a4.9,4.9,0,0,0-2.3-.5c-1.9,0-3.7,1.3-3.7,4.2s1.2,4.2,3.7,4.2a5,5,0,0,0,2.4-.6Z"/><path class="a" d="M21.9,30.3c2.6,0,3.7,1.9,3.7,4.2a3.9,3.9,0,0,1-3.8,4.2c-2.5,0-3.7-1.9-3.7-4.2A3.9,3.9,0,0,1,21.9,30.3Zm0,7.3c1.6,0,2.4-1.4,2.4-3.1s-.8-3-2.4-3-2.4,1.3-2.4,3S20.2,37.6,21.9,37.6Z"/><path class="a" d="M27.5,37.1a4.6,4.6,0,0,0,2.1.5c1.3,0,1.7-.6,1.7-1.2s-4-.9-4-3.7,1.2-2.4,2.9-2.4a4,4,0,0,1,2.2.5l-.4,1a4.4,4.4,0,0,0-1.8-.4c-1.1,0-1.6.5-1.6,1.2s4,.8,4,3.6c0,1.3-1,2.5-3,2.5a4.6,4.6,0,0,1-2.4-.6Z"/><path class="a" d="M38.8,38.3a3.4,3.4,0,0,1-1.6.4c-1.4,0-2.2-.8-2.2-2.6V31.4H33.5v-.9H35V28.8l1.3-.4v2.1h2.4v.9H36.3v4.8c0,1,.4,1.4,1.2,1.4l1-.2Z"/><path class="a" d="M47,38.5l-1,.2a1.3,1.3,0,0,1-1.3-.9,4.1,4.1,0,0,1-2.5.9,2.1,2.1,0,0,1-2.3-2c0-2.1,2.1-2.6,4.8-2.6,0-1.4-.1-2.6-1.9-2.6a6.5,6.5,0,0,0-2.1.4l-.3-1a5.5,5.5,0,0,1,2.6-.6c2.5,0,2.9,1.4,2.9,3.6v2.9c0,.5.1.8.6.8h.3ZM44.7,35c-2.1,0-3.5.3-3.5,1.5a1.3,1.3,0,0,0,1.3,1.2,3.4,3.4,0,0,0,2.2-.9Z"/><path class="a" d="M58.5,38.6l-2.2-4.3H54.1v4.3H52.8V28.1h3.1c2.5,0,3.5,1.3,3.5,3a3.2,3.2,0,0,1-1.8,2.8l2.5,4.7Zm-1.8-5.4a2.2,2.2,0,0,0,1.4-2.1c0-1.2-.9-1.9-2.2-1.9H54.1v4Z"/><path class="a" d="M62.8,28.8A.7.7,0,0,1,62,28a.8.8,0,0,1,.8-.9c.5,0,.8.3.8.9A.8.8,0,0,1,62.8,28.8Zm1.6,9.7a2.4,2.4,0,0,1-1,.2c-1,0-1.3-.7-1.3-1.6V30.5h1.3V37c0,.3,0,.6.5.6h.3Z"/><path class="a" d="M71.7,38.1a3.8,3.8,0,0,1-2.4.6c-2,0-3.7-1.4-3.7-4.1a3.9,3.9,0,0,1,4.1-4.3,3.7,3.7,0,0,1,2,.5l-.4,1a3.5,3.5,0,0,0-1.6-.3c-1.6,0-2.7.9-2.7,3.1s1.2,3,2.6,3a2.8,2.8,0,0,0,1.8-.5Z"/><path class="a" d="M79.8,38.5l-1,.2a1.3,1.3,0,0,1-1.3-.9,4.1,4.1,0,0,1-2.5.9,2.1,2.1,0,0,1-2.3-2c0-2.1,2-2.6,4.7-2.6,0-1.4,0-2.6-1.8-2.6a6.5,6.5,0,0,0-2.1.4l-.3-1a5.5,5.5,0,0,1,2.6-.6c2.5,0,2.9,1.4,2.9,3.6v2.9c0,.5.1.8.6.8h.3ZM77.4,35c-2,0-3.4.3-3.4,1.5a1.2,1.2,0,0,0,1.3,1.2,2.9,2.9,0,0,0,2.1-.9Z"/><path class="a" d="M128.5,13.7h0l24.8,4.7,12.8,13.9L163,45.8h0L153.8,47h0l-2.5-11.1a2.1,2.1,0,0,0-1.4-1.5l-7.4-2.3-3.6-5.2a2.2,2.2,0,0,0-1.7-.9,2.1,2.1,0,0,0-1.6.8l-3.2,3.9.8.6-.8-.6-8.2-6.6h0l4.2-10.3h.1m0-1a1.2,1.2,0,0,0-1,.7l-4.2,10.3a1,1,0,0,0,.3,1.2l8.2,6.6.6.2a.9.9,0,0,0,.8-.4l3.2-3.9a1.2,1.2,0,0,1,.8-.4,1.2,1.2,0,0,1,.9.5l3.6,5.1a.7.7,0,0,0,.5.4l7.4,2.4a1.2,1.2,0,0,1,.7.7l2.5,11.1a1.1,1.1,0,0,0,1,.8h.2l9.1-1.2a1.2,1.2,0,0,0,.9-.8l3.1-13.5a.8.8,0,0,0-.3-.9L154.1,17.7a.9.9,0,0,0-.6-.3l-24.8-4.7Z"/><line class="b" x1="153.3" y1="34.9" x2="83.2" y2="34.9"/><circle class="c" cx="153.2" cy="34.9" r="2.2"/><path class="c" d="M153.2,32.4a2.5,2.5,0,1,0,2.5,2.5,2.5,2.5,0,0,0-2.5-2.5Zm0,4.4a2,2,0,0,1-1.9-1.9,2,2,0,0,1,1.9-2,1.9,1.9,0,0,1,1.9,2,1.9,1.9,0,0,1-1.9,1.9Z"/><rect class="c" x="82.7" y="31.6" width="1" height="6.5"/></svg>