<svg xmlns="http://www.w3.org/2000/svg" width="22.9" height="19.7" viewBox="0 0 22.9 19.7"><defs><style>.a{fill:#eedea4;stroke:#000321;stroke-miterlimit:10;stroke-width:0.5px;}</style></defs><polygon class="a" points="20.9 8 22.2 5.3 20.9 5.3 21.1 3 14.7 3.4 13.9 2.3 11.2 3.1 11.7 4.6 10.8 4.5 10.8 2.7 10 4.4 11.6 1.1 7.7 3 4.7 6 5.5 10.1 3.5 12.4 2.1 13.9 1.9 16.1 3 16.6 2.2 18.1 4 18.8 4.4 17.1 6.1 16.7 7.6 14 9.5 16.3 11.8 16.1 11.5 17.8 13 18 12.7 12.1 15.2 11.9 16.2 13.2 18.6 11.6 18.1 9.7 21.5 9.1 20.9 8"/></svg>