<svg xmlns="http://www.w3.org/2000/svg" width="111.6" height="70" viewBox="0 0 111.6 70"><defs><style>.a{fill:#eedea4;stroke:#000321;stroke-miterlimit:10;stroke-width:0.5px;}</style></defs><path class="a" d="M110.6,43.5l-.7-3.7-2.5-5.4-5.6-3.7L99.4,25l-3.9,2.1L95,24.4l-8.2-2.5c-.2-.1-.5,5.3-.5,5.3l1.8,3.9L85,32.9,86,37l-2.3-.4-1.1-4L70.9,27.5l6-8,2.7,1.2,5-.8-4-3.7,2.8-2-.3-4.5,4.8.5L92,14.3l-1.1,2-4.1,1.3-.6,1,1.3.6,2.9-.7L92.7,20l4.4,3,1.2-.3-.9-1.8h2l.4-1L98,17.6l-.8-1.9,1.2.2.9,1.3,1,.9,2.9-3.1-6.6-3.6L97,9.1,86.4,2.7H77.7L75.4,7,80,9.9l-2,4.2-1.3-1.6.7-1-1.5-1.2L71.4,6.2l3.3-4-4.3-.8-.7,5L71,11.9,68,9.5,66.7,13,63,11.7l1.8-2.2-4-6.6L52.7,4.3,49.2.7,41.9,1.8,40.7,6,44,8l3.5-2.2L50,8.2l4.6,4.7-3.1.3L45.3,9.3l-19,1L11.5,7.1,2,12.2l2.5,2.1,2.3,1.2-1.5.8-4.4.6,1.7,2.2,4.4-1L6.7,20,2.4,22.6,5,27.1l5.3.5-3,4.1,1.1.5,6.1-4.8L21.4,25l5.1,1.6L41.7,40.9l1.4,3.9-.4,7.5,4,5.9,2.8,1.9,2.4-.2L55,61.5l4.7-.5,1.7,2.2,1.3.8.6-.9,1.8.6,1,1.7.5,1.2,1.9.8-.3-1.9,3.1-2.7,4.9,1,4.8-1,2.7,5.8,1-2.2-1.1-5.5L89,56.7l1.3-4.8,6.9-6,3.2.3,3.4-2.4-5-1.3,1.1-1.9-2.7-.5,6.7-1.1,2.6-1.3L105,42.1Z"/></svg>