<svg xmlns="http://www.w3.org/2000/svg" width="175" height="111.5" viewBox="0 0 175 111.5"><defs><style>.a,.c{fill:none;stroke-linecap:round;stroke-linejoin:round;}.a{stroke:#fff;stroke-width:0.94px;}.b{fill:#fff;}.c{stroke:#70f5e7;}</style></defs><line class="a" x1="44" y1="61.8" x2="105.6" y2="61.8"/><path class="b" d="M44.1,63.9A2.1,2.1,0,0,1,42,61.8a2.2,2.2,0,0,1,2.1-2.1,2.1,2.1,0,0,1,2.1,2.1A2.1,2.1,0,0,1,44.1,63.9Z"/><path class="b" d="M44.1,64.2a2.4,2.4,0,0,0,2.4-2.4,2.3,2.3,0,0,0-2.4-2.3,2.3,2.3,0,0,0-2.3,2.3,2.3,2.3,0,0,0,2.3,2.4Zm0-4.2a1.8,1.8,0,1,1-1.8,1.8A1.8,1.8,0,0,1,44.1,60Z"/><rect class="b" x="105.1" y="58.8" width="0.9" height="6.09"/><path class="b" d="M115.5,66.9l-1-3h-4.2l-1,3H108l3.6-10.4h1.6L117,66.9Zm-3.2-9.3-1.7,5.3h3.5Z"/><path class="b" d="M120.8,66.8a1.8,1.8,0,0,1-1,.3c-1,0-1.3-.8-1.3-1.7V54.9h1.3V65.3c0,.3,0,.7.5.7h.3Z"/><path class="b" d="M128.4,66.3a4.5,4.5,0,0,1-2.6.8c-2.3,0-3.8-1.6-3.8-4.1s1.4-4.3,3.6-4.3,3,1.5,3,3.2-.1.9-.1,1.3h-5.1a2.5,2.5,0,0,0,2.6,2.7,3.7,3.7,0,0,0,2-.5Zm-1.1-3.9v-.6c0-1.2-.5-2-1.8-2s-2.1,1.3-2.1,2.6Z"/><path class="b" d="M140.1,66.9V61.4c0-1.1-.5-1.6-1.5-1.6a3,3,0,0,0-1.9.8v6.3h-1.3V61.4c0-1.2-.6-1.6-1.6-1.6a2.9,2.9,0,0,0-1.8.8v6.3h-1.3V58.8h.8l.5.8a3,3,0,0,1,2.1-.9,2.5,2.5,0,0,1,2.3,1,4.1,4.1,0,0,1,2.4-1c1.8,0,2.6,1,2.6,2.7v5.5Z"/><path class="b" d="M150.5,66.8a2.9,2.9,0,0,1-1,.3,1.4,1.4,0,0,1-1.4-1,3.4,3.4,0,0,1-2.5,1,2.1,2.1,0,0,1-2.3-2.1c0-2.1,2.1-2.5,4.8-2.5,0-1.5,0-2.7-1.8-2.7a4.3,4.3,0,0,0-2.1.5l-.3-1a5.5,5.5,0,0,1,2.6-.6c2.5,0,2.9,1.3,2.9,3.5v2.9c0,.6.1.9.6.9h.2Zm-2.4-3.5c-2.1,0-3.4.3-3.4,1.5A1.2,1.2,0,0,0,146,66a3,3,0,0,0,2.1-.8Z"/><path class="b" d="M157.2,66.9V61.4c0-1.3-.7-1.6-1.6-1.6a3.9,3.9,0,0,0-2.2.8v6.3h-1.2V58.8h.7l.5.8a4.4,4.4,0,0,1,2.5-.9c2,0,2.6,1.1,2.6,2.7v5.5Z"/><path class="b" d="M161.8,57.2a.8.8,0,0,1-.8-.9.7.7,0,0,1,.8-.8c.5,0,.8.3.8.9A.8.8,0,0,1,161.8,57.2Zm1.6,9.6a1.8,1.8,0,0,1-1,.3c-1,0-1.3-.8-1.3-1.7V58.8h1.3v6.5c0,.3,0,.7.5.7h.3Z"/><path class="b" d="M171.7,66.8a2.4,2.4,0,0,1-1,.3,1.3,1.3,0,0,1-1.3-1,3.6,3.6,0,0,1-2.5,1,2.1,2.1,0,0,1-2.3-2.1c0-2.1,2-2.5,4.7-2.5,0-1.5,0-2.7-1.8-2.7a4.6,4.6,0,0,0-2.1.5l-.3-1a5.5,5.5,0,0,1,2.6-.6c2.5,0,2.9,1.3,2.9,3.5v2.9c0,.6.1.9.6.9h.3Zm-2.4-3.5c-2,0-3.4.3-3.4,1.5a1.2,1.2,0,0,0,1.3,1.2,2.9,2.9,0,0,0,2.1-.8Z"/><polygon class="c" points="18.4 20.9 10.3 28.9 16.3 34.4 6.4 44.2 7.4 61.8 15.2 74.5 12.4 78.9 3.2 96 24.6 94.1 26.7 100.4 37.4 104 45.8 100 64.4 96.4 64.4 90.8 72 83.2 58 64.8 80.3 55.9 73.4 17.3 68.5 15.9 68.7 10.9 48 17.5 30.7 8.3 26.7 7.4 18.6 7.4 28 19.8 18.4 20.9"/></svg>