<svg xmlns="http://www.w3.org/2000/svg" width="1088" height="461.6" viewBox="0 0 1088 461.6"><defs><style>.a,.b,.d,.e,.f,.g{fill:none;stroke:#eedea4;stroke-miterlimit:10;stroke-width:0.5px;}.b{stroke-dasharray:1.99 1.99;}.c{fill:#eedea4;}.d{stroke-dasharray:1.99 1.99;}.e{stroke-dasharray:2.01 2.01;}.f{stroke-dasharray:1.99 1.99;}.g{stroke-dasharray:2 2;}</style></defs><line class="a" x1="708" y1="205" x2="709" y2="205"/><path class="b" d="M711,205h342a15,15,0,0,0,15-15V138.4"/><line class="a" x1="1068" y1="137.4" x2="1068" y2="136.4"/><circle class="c" cx="708.1" cy="205" r="1.9"/><line class="a" x1="450.8" y1="279.1" x2="449.8" y2="279.1"/><path class="d" d="M447.8,279.1H333a15,15,0,0,0-15,15V449.6"/><line class="a" x1="318" y1="450.6" x2="318" y2="451.6"/><circle class="c" cx="450.7" cy="279.1" r="1.9"/><line class="a" x1="519" y1="338.8" x2="518" y2="338.8"/><path class="e" d="M516,338.8H195.2c-9,0-16.2-9.9-16.2-18.2V195.3c0-9.2-7.3-14.6-16.3-14.6H7.3"/><line class="a" x1="6.3" y1="180.7" x2="5.3" y2="180.7"/><circle class="c" cx="518.9" cy="338.8" r="1.9"/><line class="a" x1="535.6" y1="309.3" x2="534.6" y2="309.3"/><path class="f" d="M532.6,309.3H260.4c-18.2,0-32.8-6.2-32.8-24.4V10.3"/><line class="a" x1="227.6" y1="9.3" x2="227.6" y2="8.3"/><circle class="c" cx="535.5" cy="309.3" r="1.9"/><line class="a" x1="590.7" y1="190.2" x2="591.7" y2="190.2"/><path class="g" d="M593.7,190.2H879a15,15,0,0,1,15,15V430.6a15,15,0,0,0,15,15h172.9"/><line class="a" x1="1082.9" y1="445.6" x2="1083.9" y2="445.6"/><circle class="c" cx="590.8" cy="190.2" r="1.9"/></svg>