<svg xmlns="http://www.w3.org/2000/svg" width="41.2" height="67.4" viewBox="0 0 41.2 67.4"><defs><style>.a{fill:#eedea4;stroke:#000321;stroke-miterlimit:10;stroke-width:0.5px;}</style></defs><polygon class="a" points="40.1 10.3 25.8 5.1 24.6 1.6 23 3.2 17.1 4.3 16.5 1.3 15.5 0.8 12.1 1.4 12.6 3.3 10.2 4.8 9.3 3.6 6.8 3.8 7 9.7 5.6 9.5 2.6 11.3 3.6 15.5 7.9 16.7 11.4 15.7 15.2 19.2 18.1 24.7 18 27.3 21.6 29.9 21.5 32.4 18.9 33.4 17.5 33 18.3 31.2 13.3 27.8 9.9 27.7 9.1 29.2 7.6 26.2 7.4 23 6.1 24.1 5.4 34.1 3 44 1.1 61.2 5.6 66.4 7.7 66.9 11 66.5 7.1 61.5 10.4 56.3 9.3 54.9 14 46.5 17.9 45.7 19.4 43.3 17.4 40.8 21.2 41.5 22.2 40.4 23.7 38.5 26.8 34.4 27.3 31.4 33.9 28.4 36.6 18.5 40.1 14.8 40.1 10.3"/></svg>