<svg xmlns="http://www.w3.org/2000/svg" width="193.1" height="149.6" viewBox="0 0 193.1 149.6"><defs><style>.a{fill:#282c4a;}</style></defs><path class="a" d="M13,84.8l.2-.6,1.9-.8,2.2.2,3.5,1.8,2,.9-.4.3-2.9.2.2-.8-1.3-.4-.5-.7H16.7l-1.1-.2-.6-.7-1.3.9Z"/><path class="a" d="M25.3,87.1l-1.2-.5-.4.3.7,1.2-1.7.3v.3h1.3l1.1.3,1.6-.5h1.5V88l-2.1-1Z"/><polygon class="a" points="5.4 91.8 6.5 92.9 7.8 93.2 9.6 93.8 12 95.9 13.8 96.1 14.2 91.7 12.5 90.8 9.1 91.1 9.8 88.7 8.5 89 7 89.1 6.7 89.8 7.4 90.5 6.2 90.8 5.4 91.8"/><polygon class="a" points="45.1 102.9 43.5 101.4 39.7 100.7 39.3 101 36.9 98.4 35.5 101.1 36 102.2 37 102.8 37.6 105.7 43.6 104.7 45.1 102.9"/><polyline class="a" points="17.5 109.7 16.2 110.8 16.3 112.9 21 121.3 26.7 125.4 27.9 124.4 28.2 127.4 29.6 130.7 30.4 129.1 33.8 129.2 38.8 132.6 38 134.5 39.4 134.9 42 133.8 42.1 131.3 38.6 128.7 38.7 126.1 35.8 120.7 32 117.1 28.4 118.1 24.1 116.9 23.1 112.7 26.1 110.9 26.4 109.2 24.1 109.4 22.2 107.1 20.7 109.8 19 110.2 18.6 111.9 16.8 111.2 17.5 109.7"/><polygon class="a" points="78.9 62.6 78.9 64.1 78.2 66 78.9 66.7 78.9 68.3 80.3 68.2 79.9 65.5 81 63.1 79.9 62.5 78.9 62.6"/><path class="a" d="M187.6,88l1.4-2.6-6.2-75.3-4.9.5-8.1,3.2.4,1.9-5.7.6.4,1.7-4.9-.4-1.5,9.6-2.6,1.6-.6-.5,2.2-2.5c.1-.1-.5-8.2-.5-8.2h-3.6l-1.9,3.6.6,2.2,1.1,1.3-.4.6-8.9-3.4-.4.6,1.6,1.6-6.5,1.7.6-1.6-8,2.7.5-1.6-2.3-1.1-.7,2.4.8,2.1-1.8-.2-2.6,1.9-.2,1.2-2.7-.9-.3.4,1.3,1.5-2.2-.5-.7-2.5-2.3-2,5.4,1.4,3-1.2-.8-1.8-5-2.6-2.4-.3L116,21.4l.5,2-4.5-.3L110.8,25l-3-.7,1.5,1.5.4,3.9,1.4.4v.5l-3.5,3.1-.3,3.7,2.2,1.4,4.5-1.1,1,.7-1.4.9-4.4.2.3,1.6.7.2-.5,1.5-1.3-1.1-1.4,1.2v2.9l-6.1,1.5-.5-1-2.1.8-1-1-.8-.5v.5l-.8.2.3,1.1-3.3.8,1.5.4-.7.7.6.5-.9.8v1.5L93,53l2.1,1.1-1,1.8,2.3-.2.3.7,1.2.4.9-.4.8.6v1.2l.6-.2.7,1,4.9,3.7-.4,1.4.7,1.2.7-1.1L109,63l3.2-.2-.4,1.1.8,3.6,3,1.8,1.6-.7s.7.5.7.6l3.3-.8-1.7,6.2-3.3-.3-5.3-.3-2.6-1.1-2.3.9.3,1.4-.8.4L102,74.1l-.5-.8-4.3-1.5.8-1.3V68.3l-1.6-.5-7.7,1-3,1.7-2.8-.2-1-.4-4,4.4s.1,1.3.1,1.4l-7,9.7.4,8.4,6,7.2,2.7,1.5,5.6-.4,6.1-1.6,1.4,2h3.4l-.7,5.2,4.8,10.7-2.1,5.7,6.1,17.8,1.4.6,6.4-1.4L118,135l.2-2.5,2.3-1-.7-4.7,5.8-5.1-1.5-8.6,1.5-4,8-7.6,2-6.5-6.3,1.2-1.4-.8.3-.9-5.6-6.8-4.8-11.2h.4l1.3,1.8.4-.5,4.2,5.8.4,2.2,2.9,4.8s.9,3.3,1,3.3l7-2.2s6.2-2.8,6.2-3,2.5-4.5,2.5-4.5L141,81.4l-.2-1.2-3.9,2.3-.9-1.3-3.1-4.3,1.8-1,1.8,2.8,3,1.1,1.5-.4,1.1,1.4,6.3.7h2.8l3.7,4.6,1.3-1.3.6,1.4-.4,1.7,4.6,11,1.9-1.8,1.1-5.8,6.3-5.9,3.8-1.1,2.5,5.2v1.4l1.8-1.1,1.8,6.3-.4,2.4,1.7,1.9,1.2,3.4,2.8,1.9-.8-2.4V102l-1.7-1.7L182,100l-1.2-2.6,1.2-3.8,2.4,1.9,1.9,1.9v.9l1.7-1.6,2.4-1.3V91.1ZM125.9,63.4l-2.9.2-1.7-.9-2.8-.3-2,1.2-1.7-.2a13.6,13.6,0,0,0-1.2-1.2,14.8,14.8,0,0,1,1-2.7l2-2.7,2.4.7-1,.7,1.2,1.3,2.9-.9,3.7,2.3s1,1.5,1,1.6A7.6,7.6,0,0,1,125.9,63.4Z"/></svg>