<svg xmlns="http://www.w3.org/2000/svg" width="39.4" height="29.5" viewBox="0 0 39.4 29.5"><defs><style>.a{fill:#eedea4;stroke:#000321;stroke-miterlimit:10;stroke-width:0.5px;}</style></defs><polygon class="a" points="38.7 26.5 38.1 25.5 36.6 25.3 35.1 26.2 33.8 25.3 32.8 24.2 30.9 23.9 30.5 24.8 31.2 25.3 31.6 24.9 31.9 25.4 32.5 25.6 32.7 26.5 33.5 26.4 35.6 27.9 36.1 27.4 35.9 26.8 36.8 26 37.7 26.3 37.6 27.1 38.3 28 38.1 27.2 38.7 26.5"/><polygon class="a" points="25.3 16.3 24.4 16 22.4 16.6 21.1 16 20.8 15 19.5 13.2 20 8.8 18 7.9 17.6 6.8 16.5 5 14.7 4.5 14.2 5.4 12.8 4.5 11.2 2.4 6.5 2.8 3.3 1.3 1 1.5 3.8 6.6 3 6.8 5.8 9.2 5.5 9.7 7.8 12 7.9 10.6 4.2 5.1 3.2 2.8 4.7 3.6 12.3 13.3 11.6 15.3 16 17.5 20 19.2 22.3 18.7 24.3 19.9 25 18.9 26.3 18.6 25.6 17.8 25.9 17 27.4 17.1 28.8 16.7 29.1 14.6 29.8 13.4 26.4 13.5 25.3 16.3"/></svg>