<svg xmlns="http://www.w3.org/2000/svg" width="195.1" height="84.7" viewBox="0 0 195.1 84.7"><defs><style>.a{fill:#70f5e7;}.b,.c{fill:none;stroke-linecap:round;stroke-linejoin:round;}.b{stroke:#70f5e7;}.c{stroke:#fff;}.d{fill:#fff;}</style></defs><path class="a" d="M13.7,61.8V51.4h6.2v1.1H15v3.4h4.1v1.2H15v3.6h5.1v1.1Z"/><path class="a" d="M27.4,61.4a4.5,4.5,0,0,1-2.3.6,3.8,3.8,0,0,1-3.8-4.1,4,4,0,0,1,4.1-4.3,3.7,3.7,0,0,1,2,.5l-.3,1a3.9,3.9,0,0,0-1.7-.4c-1.6,0-2.7,1-2.7,3.2s1.2,2.9,2.6,2.9a2.8,2.8,0,0,0,1.8-.4Z"/><path class="a" d="M34.5,61.8,34,61a3.1,3.1,0,0,1-2.3,1c-2,0-2.6-1.3-2.6-2.9V53.8h1.3v5.3c0,1.3.7,1.7,1.5,1.7A2.9,2.9,0,0,0,34,60V53.8h1.2v8Z"/><path class="a" d="M44.4,61.7a1.5,1.5,0,0,1-1,.3,1.6,1.6,0,0,1-1.4-.9,3.7,3.7,0,0,1-2.5.9,2.1,2.1,0,0,1-2.2-2.1c0-2.1,2-2.5,4.7-2.5,0-1.5,0-2.7-1.8-2.7a4.6,4.6,0,0,0-2.1.5l-.3-1a5.5,5.5,0,0,1,2.6-.6c2.5,0,2.9,1.4,2.9,3.6v2.9c0,.5.1.8.6.8h.3ZM42,58.2c-2,0-3.4.4-3.4,1.6a1.2,1.2,0,0,0,1.3,1.1,3,3,0,0,0,2.1-.8Z"/><path class="a" d="M51.5,61.8l-.4-.7a3.4,3.4,0,0,1-2.2.9c-2,0-3.4-1.7-3.4-4s1.5-4.4,3.8-4.4a4.5,4.5,0,0,1,1.8.4V49.8h1.3v12Zm-.4-6.7a3.7,3.7,0,0,0-1.7-.4c-1.6,0-2.6,1.2-2.6,3.1s1,3,2.4,3a3.2,3.2,0,0,0,1.9-.7Z"/><path class="a" d="M58.2,53.6c2.6,0,3.7,1.9,3.7,4.2S60.5,62,58.1,62s-3.7-1.9-3.7-4.2A3.9,3.9,0,0,1,58.2,53.6Zm0,7.2c1.6,0,2.4-1.3,2.4-3s-.8-3.1-2.4-3.1-2.4,1.4-2.4,3.1S56.5,60.8,58.2,60.8Z"/><path class="a" d="M64,61.8v-8h.8l.4,1.1a2.7,2.7,0,0,1,2.4-1.3h.7l-.2,1.2h-.7a2.6,2.6,0,0,0-2.1,1.1v5.9Z"/><path class="b" d="M147.7,11.5,185,26.1a3.5,3.5,0,0,1,1.8,5L173.5,54.8a3,3,0,0,1-2.2,1.7l-14.8,3.7a3.6,3.6,0,0,0-2.6,2.7l-2.3,11.5A3.4,3.4,0,0,1,147,77l-12-4.3a3.5,3.5,0,0,1-1.9-4.9l4.7-9.4a3.6,3.6,0,0,0-1.7-4.8l-5.8-2.7a3.4,3.4,0,0,1-2-3.5l2.1-19.9a3,3,0,0,1,1-2l12.5-13.2A3.5,3.5,0,0,1,147.7,11.5Z"/><path class="b" d="M147.7,11.5,185,26.1a3.5,3.5,0,0,1,1.8,5L173.5,54.8a3,3,0,0,1-2.2,1.7l-14.8,3.7a3.6,3.6,0,0,0-2.6,2.7l-2.3,11.5A3.4,3.4,0,0,1,147,77l-12-4.3a3.5,3.5,0,0,1-1.9-4.9l4.7-9.4a3.6,3.6,0,0,0-1.7-4.8l-5.8-2.7a3.4,3.4,0,0,1-2-3.5l2.1-19.9a3,3,0,0,1,1-2l12.5-13.2A3.5,3.5,0,0,1,147.7,11.5Z"/><line class="c" x1="144.5" y1="58.2" x2="73" y2="58.2"/><circle class="d" cx="144.4" cy="58.2" r="2.2"/><path class="d" d="M144.4,55.7a2.5,2.5,0,1,0,2.5,2.5,2.5,2.5,0,0,0-2.5-2.5Zm0,4.5a2,2,0,0,1-1.9-2,2,2,0,0,1,1.9-1.9,1.9,1.9,0,0,1,1.9,1.9,1.9,1.9,0,0,1-1.9,2Z"/><rect class="d" x="72.5" y="55" width="1" height="6.5"/></svg>