<svg xmlns="http://www.w3.org/2000/svg" width="41" height="49.9" viewBox="0 0 41 49.9"><defs><style>.a{fill:#eedea4;stroke:#000321;stroke-miterlimit:10;stroke-width:0.5px;}</style></defs><polygon class="a" points="23.4 46.4 22.9 47 24.1 47.4 24.7 48.1 25.3 48 25.3 47.1 25.8 46.6 24.4 46.6 23.4 46.4"/><polygon class="a" points="26 42.2 24.9 41.9 24.2 40.3 22.9 39.1 23.3 37.7 23.2 36.5 22.4 35.8 21.8 36.1 21.5 36.2 20.3 35.9 20.1 35.2 17.7 35.4 18.8 33.5 16.6 32.5 17 31.5 16.9 30 17.8 29.2 17.3 28.7 18 28.1 16.4 27.7 16.3 28.6 15.5 28.2 14 30.4 13.2 30.8 13.1 30.7 12.3 32.1 10.4 32.9 9.4 32.3 9.1 33.9 6.3 33.7 6.5 34.8 8.8 35.5 9.9 37 9.4 40.5 3.5 40 1.9 40.5 2.6 42.2 3.6 42 4.6 42.5 3.6 44.9 4 47.7 5 47.7 5.7 48.9 9 48 11 45.7 10.9 44.7 11.8 43.8 11.9 43 13.1 43 14 41.7 15.2 40.2 16.9 40.8 18.3 39.7 18.7 39.9 19.3 39.3 20.1 39.2 21.1 40.9 22.9 42.7 25.7 44.3 26 45.5 25.8 46.6 26.2 46.6 27.1 45 26.5 44.2 27.4 44 28 44.6 28.2 44 26 42.2"/><polygon class="a" points="20.1 43.1 19.3 43.3 18.6 43.3 19.2 44.1 19.1 45.3 19.6 45.8 20.3 45 20.2 43.7 20.1 43.1"/><polygon class="a" points="2.2 30.2 3.9 29.2 4.9 29.2 4.8 26.7 5.7 26.2 4.9 25.1 3.6 25.2 2.6 25.3 2.9 26 1.3 26.4 1.4 27.3 2.1 28 1 29.4 2.2 30.2"/><path class="a" d="M7.9,25.5v2.1H6.6l-.7,2L7,30l1.1.2-1.3.4L5.9,32l6.4-1.4L12,29.5l.6-1.3-1.5-.5L9.3,24.4,8,24l1-2.1-1.8-.3.6-.8V20L4.7,22l1,2.8Z"/><polygon class="a" points="28.2 14.2 31.2 11.6 31.6 9.5 33.4 9.1 32.9 5.3 31.1 3.7 34.4 4.5 35.7 2.5 40.1 2.8 39.7 0.9 31.9 0.7 24.1 5.1 25.3 5.7 21.8 11.2 16.2 15.4 15.7 19.6 18.3 21.2 21.1 19.3 22.2 19.9 23.8 24.8 26.7 23.5 27.6 20.1 28.8 18.4 27.2 17.1 28.2 14.2"/><polygon class="a" points="20.7 21.7 20.7 21.7 20.2 21.8 19.8 23 19.2 22.6 18.6 23.7 19.1 25.3 19.4 25.7 20.3 25.7 20.2 25.1 21 25.5 21.3 24.9 20.7 24.5 21 23.9 21.4 23.4 20.7 23 21 21.7 20.7 21.7 20.8 21.7 20.7 21.7"/><polygon class="a" points="30.5 43.6 29.7 44.8 30.6 46.1 31.2 47.7 32.6 48.4 32.5 47.2 33.7 46.4 32.9 46 32.8 44.9 32.3 43.9 33.2 44 34.3 43.3 35.4 43.4 35.8 42.2 32.7 42.4 30.5 43.6"/></svg>