<svg xmlns="http://www.w3.org/2000/svg" width="155.9" height="172.1" viewBox="0 0 155.9 172.1"><defs><style>.a{fill:#70f5e7;}.b,.c,.d{fill:none;}.b,.c{stroke:#70f5e7;}.b{stroke-miterlimit:10;stroke-width:0;}.c,.d{stroke-linecap:round;stroke-linejoin:round;}.d{stroke:#fff;}.e{fill:#fff;}</style></defs><path class="a" d="M77.6,161.8l-3.8-10.5h1.6l3.1,9.3,3.2-9.3h1.4l-3.8,10.5Z"/><path class="a" d="M89.9,161.2a4.6,4.6,0,0,1-2.7.7c-2.2,0-3.7-1.5-3.7-4s1.4-4.3,3.5-4.3,3.1,1.5,3.1,3.2a5.9,5.9,0,0,1-.2,1.3h-5a2.5,2.5,0,0,0,2.6,2.7,3.7,3.7,0,0,0,2-.5Zm-1.1-4v-.5c0-1.2-.6-2-1.8-2a2.3,2.3,0,0,0-2.1,2.5Z"/><path class="a" d="M97.2,161.8v-5.5c0-1.3-.7-1.6-1.6-1.6a3.6,3.6,0,0,0-2.1.8v6.3H92.2v-8.1H93l.4.8a3.8,3.8,0,0,1,2.5-.9c2,0,2.6,1.1,2.6,2.7v5.5Z"/><path class="a" d="M106.9,161.2a4.6,4.6,0,0,1-2.7.7c-2.3,0-3.7-1.5-3.7-4s1.4-4.3,3.5-4.3,3,1.5,3,3.2a5.7,5.7,0,0,1-.1,1.3h-5.1a2.6,2.6,0,0,0,2.6,2.7,4.1,4.1,0,0,0,2.1-.5Zm-1.1-4v-.5c0-1.2-.6-2-1.8-2s-2.1,1.3-2.2,2.5Z"/><path class="a" d="M108.3,161.8v-1l4.6-6h-4.5v-1.1h6v1.1l-4.5,5.9h4.6v1.1Z"/><path class="a" d="M121.8,161.8l-.4-.8a3.6,3.6,0,0,1-2.4.9c-1.9,0-2.5-1.3-2.5-2.8v-5.4h1.3v5.4c0,1.3.6,1.7,1.5,1.7a2.8,2.8,0,0,0,2-.8v-6.3h1.3v8.1Z"/><path class="a" d="M131.1,161.2a4.5,4.5,0,0,1-2.6.7c-2.3,0-3.8-1.5-3.8-4s1.4-4.3,3.6-4.3,3,1.5,3,3.2a5.9,5.9,0,0,1-.2,1.3h-5a2.5,2.5,0,0,0,2.6,2.7,3.7,3.7,0,0,0,2-.5Zm-1.1-4v-.5c0-1.2-.5-2-1.8-2a2.3,2.3,0,0,0-2.1,2.5Z"/><path class="a" d="M135.7,161.7a2.2,2.2,0,0,1-.9.2c-1.1,0-1.4-.7-1.4-1.6V149.7h1.3v10.5c0,.3,0,.6.5.6h.3Z"/><path class="a" d="M144,161.7l-1,.2a1.2,1.2,0,0,1-1.3-.9,3.6,3.6,0,0,1-2.5.9,2,2,0,0,1-2.3-2c0-2.1,2.1-2.6,4.8-2.6,0-1.4-.1-2.6-1.9-2.6a4.6,4.6,0,0,0-2.1.5l-.3-1a5.5,5.5,0,0,1,2.6-.6c2.5,0,3,1.3,3,3.5V160c0,.5,0,.9.5.9h.3Zm-2.3-3.5c-2.1,0-3.5.3-3.5,1.5a1.2,1.2,0,0,0,1.3,1.2,3.4,3.4,0,0,0,2.2-.9Z"/><path class="b" d="M19.4,31.2h0a3.7,3.7,0,0,0,3.2,3.6h1a3.5,3.5,0,0,0,3.7-4.5l-2.4-7.6a3.5,3.5,0,0,1,2.4-4.4l22.6-6.5a3.6,3.6,0,0,1,3.8,1.4l5.4,7.6a3.5,3.5,0,0,0,3.1,1.5l62.3-3.7a3.4,3.4,0,0,1,3.7,3.7L127,39a3.6,3.6,0,0,0,3.4,3.8h4.1a3.6,3.6,0,0,1,3.1,5L127.4,70.4a3,3,0,0,0,0,2.9l2.9,6.1a3.6,3.6,0,0,1-2.5,5L100,89.2a3.5,3.5,0,0,0-2.8,4.4l3.8,14a3.5,3.5,0,0,1-1.5,3.9l-20.3,13a3.6,3.6,0,0,1-4.7-.8l-7.6-10a2.8,2.8,0,0,1-.7-1.7L61.7,68.7A3.4,3.4,0,0,0,59,65.6L17.3,56.2a3.5,3.5,0,0,1-2.7-2.8L11.3,34.2a4.1,4.1,0,0,1,.3-2.2l1.2-2.4A3.5,3.5,0,0,1,19.4,31.2Z"/><path class="c" d="M19.4,31.2h0a3.7,3.7,0,0,0,3.2,3.6h1a3.5,3.5,0,0,0,3.7-4.5l-2.4-7.6a3.5,3.5,0,0,1,2.4-4.4l22.6-6.5a3.6,3.6,0,0,1,3.8,1.4l5.4,7.6a3.5,3.5,0,0,0,3.1,1.5l62.3-3.7a3.4,3.4,0,0,1,3.7,3.7L127,39a3.6,3.6,0,0,0,3.4,3.8h4.1a3.6,3.6,0,0,1,3.1,5L127.4,70.4a3,3,0,0,0,0,2.9l2.9,6.1a3.6,3.6,0,0,1-2.5,5L100,89.2a3.5,3.5,0,0,0-2.8,4.4l3.8,14a3.5,3.5,0,0,1-1.5,3.9l-20.3,13a3.6,3.6,0,0,1-4.7-.8l-7.6-10a2.8,2.8,0,0,1-.7-1.7L61.7,68.7A3.4,3.4,0,0,0,59,65.6L17.3,56.2a3.5,3.5,0,0,1-2.7-2.8L11.3,34.2a4.1,4.1,0,0,1,.3-2.2l1.2-2.4A3.5,3.5,0,0,1,19.4,31.2Z"/><line class="d" x1="108.2" y1="75.9" x2="108.2" y2="147.5"/><circle class="e" cx="108.2" cy="76" r="2.2"/><path class="e" d="M105.6,76a2.6,2.6,0,1,0,5.1,0,2.6,2.6,0,0,0-5.1,0Zm4.5,0a2,2,0,1,1-1.9-1.9,2,2,0,0,1,1.9,1.9Z"/><rect class="e" x="104.9" y="147" width="6.5" height="1"/></svg>