<svg xmlns="http://www.w3.org/2000/svg" width="231" height="199.7" viewBox="0 0 231 199.7"><defs><style>.a{fill:#70f5e7;}.b,.c,.d{fill:none;}.b,.c{stroke:#70f5e7;}.b{stroke-miterlimit:10;stroke-width:0;}.c,.d{stroke-linecap:round;stroke-linejoin:round;}.d{stroke:#fff;}.e{fill:#fff;}</style></defs><path class="a" d="M13.1,82.8a5.2,5.2,0,0,1-2.9.8c-2.9,0-4.9-2.1-4.9-5.3s2-5.4,5-5.4a4.8,4.8,0,0,1,2.8.6l-.4,1a5.1,5.1,0,0,0-2.4-.5c-1.9,0-3.7,1.4-3.7,4.2s1.3,4.2,3.8,4.2a4.2,4.2,0,0,0,2.3-.6Z"/><path class="a" d="M18.2,75.2c2.5,0,3.7,1.9,3.7,4.2s-1.5,4.2-3.8,4.2-3.7-1.8-3.7-4.2A3.9,3.9,0,0,1,18.2,75.2Zm-.1,7.3c1.7,0,2.4-1.4,2.4-3.1s-.7-3-2.4-3-2.4,1.4-2.4,3S16.5,82.5,18.1,82.5Z"/><path class="a" d="M26.3,83.4a2.4,2.4,0,0,1-1,.2c-1.1,0-1.4-.7-1.4-1.6V71.4h1.3V81.9a.5.5,0,0,0,.6.6h.3Z"/><path class="a" d="M31.3,75.2c2.5,0,3.7,1.9,3.7,4.2s-1.5,4.2-3.8,4.2-3.7-1.8-3.7-4.2A3.9,3.9,0,0,1,31.3,75.2Zm-.1,7.3c1.7,0,2.4-1.4,2.4-3.1s-.7-3-2.4-3-2.4,1.4-2.4,3S29.6,82.5,31.2,82.5Z"/><path class="a" d="M46.5,83.5V78a1.4,1.4,0,0,0-1.6-1.6,2.6,2.6,0,0,0-1.8.8v6.3H41.8V78c0-1.2-.6-1.6-1.6-1.6a3,3,0,0,0-1.9.8v6.3H37V75.4h.8l.5.8a3.3,3.3,0,0,1,2.2-1,2.4,2.4,0,0,1,2.2,1.1,4,4,0,0,1,2.5-1.1c1.8,0,2.6,1.1,2.6,2.8v5.5Z"/><path class="a" d="M50.3,71.4h1.3v4.4a3.9,3.9,0,0,1,1.9-.6c2.2,0,3.6,1.5,3.6,4a4,4,0,0,1-4.2,4.4,5.3,5.3,0,0,1-2.6-.7Zm1.3,10.8a2.8,2.8,0,0,0,1.4.4c2,0,2.7-1.8,2.7-3.3s-.6-2.9-2.4-2.9a3.6,3.6,0,0,0-1.7.5Z"/><path class="a" d="M59.8,73.7a.7.7,0,0,1-.8-.8.8.8,0,0,1,.8-.8.8.8,0,1,1,0,1.6Zm1.7,9.7a2.4,2.4,0,0,1-1,.2c-1.1,0-1.4-.7-1.4-1.6V75.4h1.3v6.5a.5.5,0,0,0,.6.6h.3Z"/><path class="a" d="M69.7,83.4l-.9.2a1.3,1.3,0,0,1-1.4-.9,3.4,3.4,0,0,1-2.5.9,2,2,0,0,1-2.3-2c0-2.1,2.1-2.6,4.8-2.6,0-1.4,0-2.6-1.8-2.6a4.1,4.1,0,0,0-2.1.5l-.4-1.1a8.3,8.3,0,0,1,2.7-.6c2.5,0,2.9,1.4,2.9,3.6v2.9c0,.5,0,.8.5.8h.3Zm-2.3-3.5c-2.1,0-3.5.3-3.5,1.5a1.2,1.2,0,0,0,1.3,1.2,3.2,3.2,0,0,0,2.2-.9Z"/><path class="b" d="M100.8,126.7l16.3-18.8a3.6,3.6,0,0,0,.8-3l-7.9-40a3.5,3.5,0,0,1,.9-3.1L141,31.5l1-.7,31.7-15.2a3.4,3.4,0,0,1,4.6,4.6L166.5,44.4a3.9,3.9,0,0,0-.3,2.1l3.4,19.3a3.4,3.4,0,0,0,2.6,2.8L213.9,78a3.3,3.3,0,0,1,2.7,3l4.2,40.8a3.4,3.4,0,0,1-3.1,3.8l-19.5,1.7A3.6,3.6,0,0,0,195,131l2.3,54.8a3.6,3.6,0,0,1-3.9,3.6l-7.5-.9a3.5,3.5,0,0,1-3.1-4l1.8-10.7a3.5,3.5,0,0,0-3.8-4l-18.2,1.7a3.4,3.4,0,0,1-3-1.3l-18.3-22.1a3,3,0,0,0-1.4-1.1l-37.8-14.8A3.5,3.5,0,0,1,100.8,126.7Z"/><path class="c" d="M100.8,126.7l16.3-18.8a3.6,3.6,0,0,0,.8-3l-7.9-40a3.5,3.5,0,0,1,.9-3.1L141,31.5l1-.7,31.7-15.2a3.4,3.4,0,0,1,4.6,4.6L166.5,44.4a3.9,3.9,0,0,0-.3,2.1l3.4,19.3a3.4,3.4,0,0,0,2.6,2.8L213.9,78a3.3,3.3,0,0,1,2.7,3l4.2,40.8a3.4,3.4,0,0,1-3.1,3.8l-19.5,1.7A3.6,3.6,0,0,0,195,131l2.3,54.8a3.6,3.6,0,0,1-3.9,3.6l-7.5-.9a3.5,3.5,0,0,1-3.1-4l1.8-10.7a3.5,3.5,0,0,0-3.8-4l-18.2,1.7a3.4,3.4,0,0,1-3-1.3l-18.3-22.1a3,3,0,0,0-1.4-1.1l-37.8-14.8A3.5,3.5,0,0,1,100.8,126.7Z"/><line class="d" x1="144" y1="79.9" x2="72.4" y2="79.9"/><circle class="e" cx="143.9" cy="79.9" r="2.2"/><path class="e" d="M143.9,77.4a2.5,2.5,0,1,0,2.5,2.5,2.5,2.5,0,0,0-2.5-2.5Zm0,4.4a1.9,1.9,0,0,1-1.9-1.9,1.8,1.8,0,0,1,1.9-1.9,1.9,1.9,0,0,1,1.9,1.9,2,2,0,0,1-1.9,1.9Z"/><rect class="e" x="71.9" y="76.6" width="1" height="6.5"/></svg>