<svg xmlns="http://www.w3.org/2000/svg" width="200.3" height="125.6" viewBox="0 0 200.3 125.6"><defs><style>.a{fill:#70f5e7;}.b,.c{fill:none;stroke-linecap:round;stroke-linejoin:round;}.b{stroke:#70f5e7;}.c{stroke:#fff;}.d{fill:#fff;}</style></defs><path class="a" d="M13.7,26.5l-2.2-4.3H9.2v4.3H7.9V16h3.2c2.4,0,3.5,1.3,3.5,3a3.2,3.2,0,0,1-1.9,2.8l2.5,4.7Zm-1.9-5.4A2.2,2.2,0,0,0,13.2,19c0-1.2-.9-1.9-2.2-1.9H9.2v4Z"/><path class="a" d="M23,25.9a4.6,4.6,0,0,1-2.7.7c-2.3,0-3.7-1.6-3.7-4.1s1.4-4.3,3.5-4.3,3,1.5,3,3.3a6.2,6.2,0,0,1-.1,1.3H17.9a2.6,2.6,0,0,0,2.6,2.7,5.4,5.4,0,0,0,2.1-.5Zm-1.1-4v-.5c0-1.2-.6-2-1.8-2S18,20.7,18,21.9Z"/><path class="a" d="M26,16.7a.7.7,0,0,1-.8-.8A.8.8,0,0,1,26,15c.5,0,.8.3.8.9A.8.8,0,0,1,26,16.7Zm1.6,9.7a2.4,2.4,0,0,1-1,.2c-1,0-1.4-.7-1.4-1.6V18.4h1.3v6.5a.5.5,0,0,0,.6.6h.3Z"/><path class="a" d="M34.5,26.5V20.9c0-1.2-.7-1.5-1.6-1.5a3.9,3.9,0,0,0-2.2.8v6.3H29.4V18.4h.8l.5.8a3.8,3.8,0,0,1,2.5-1c2,0,2.6,1.2,2.6,2.7v5.6Z"/><path class="a" d="M41.5,18.2c2.6,0,3.7,1.9,3.7,4.2a3.9,3.9,0,0,1-3.8,4.2c-2.5,0-3.7-1.9-3.7-4.2A3.9,3.9,0,0,1,41.5,18.2Zm-.1,7.3c1.7,0,2.5-1.4,2.5-3.1s-.8-3-2.5-3-2.4,1.3-2.4,3S39.8,25.5,41.4,25.5Z"/><path class="a" d="M58,16h1.3v6.6a3.9,3.9,0,0,1-4.1,4,3.7,3.7,0,0,1-4-4V16h1.2v6.6a2.8,2.8,0,1,0,5.6,0Z"/><path class="a" d="M67,26.5V20.9c0-1.2-.7-1.5-1.6-1.5a3.9,3.9,0,0,0-2.2.8v6.3H61.9V18.4h.8l.5.8a3.8,3.8,0,0,1,2.5-1c2,0,2.6,1.2,2.6,2.7v5.6Z"/><path class="a" d="M71.6,16.7a.7.7,0,0,1-.8-.8.8.8,0,0,1,.8-.9c.5,0,.8.3.8.9A.8.8,0,0,1,71.6,16.7Zm1.6,9.7a2.4,2.4,0,0,1-1,.2c-1,0-1.4-.7-1.4-1.6V18.4h1.3v6.5a.5.5,0,0,0,.6.6H73Z"/><path class="a" d="M80.4,26.5l-.3-.8a3.4,3.4,0,0,1-2.2.9c-2.1,0-3.5-1.7-3.5-4s1.5-4.4,3.8-4.4a3.9,3.9,0,0,1,1.8.4V14.4h1.3V26.5ZM80,19.7a3.9,3.9,0,0,0-1.6-.3c-1.7,0-2.6,1.1-2.6,3.1s.9,3,2.3,3a2.7,2.7,0,0,0,1.9-.8Z"/><path class="a" d="M87.2,18.2c2.5,0,3.7,1.9,3.7,4.2a3.9,3.9,0,0,1-3.8,4.2c-2.6,0-3.7-1.9-3.7-4.2A3.9,3.9,0,0,1,87.2,18.2Zm-.1,7.3c1.7,0,2.4-1.4,2.4-3.1s-.7-3-2.4-3-2.4,1.3-2.4,3S85.5,25.5,87.1,25.5Z"/><path class="a" d="M25.9,43.7a4,4,0,0,1-2.6.7c-2.3,0-3.8-1.6-3.8-4.1S21,36,23.1,36s3,1.5,3,3.3a6.2,6.2,0,0,1-.1,1.3H20.9a2.5,2.5,0,0,0,2.6,2.7,5.4,5.4,0,0,0,2.1-.5Zm-1.1-4c.1-.1.1-.4.1-.5a1.8,1.8,0,0,0-1.9-2c-1.4,0-2,1.3-2.1,2.5Z"/><path class="a" d="M32.3,44.3V33.8h1.3V44.3Z"/><path class="a" d="M36.4,44.3V36.2h.8l.4,1.1A2.9,2.9,0,0,1,40,36l.7.2-.2,1.1h-.7a2.7,2.7,0,0,0-2.1,1.1v6Z"/><path class="a" d="M44.5,44.2a2.2,2.2,0,0,1-.9.2c-1.1,0-1.4-.7-1.4-1.6V32.2h1.3V42.7c0,.3.1.6.5.6h.3Z"/><path class="a" d="M52.8,44.2l-1,.2a1.2,1.2,0,0,1-1.3-.9,3.6,3.6,0,0,1-2.5.9,2,2,0,0,1-2.3-2c0-2.1,2.1-2.6,4.8-2.6,0-1.4,0-2.6-1.8-2.6a6.7,6.7,0,0,0-2.2.4l-.3-1a7.1,7.1,0,0,1,2.6-.6c2.5,0,3,1.4,3,3.6v2.9c0,.5,0,.8.5.8h.3Zm-2.3-3.5c-2.1,0-3.5.3-3.5,1.5a1.3,1.3,0,0,0,1.3,1.2,3.4,3.4,0,0,0,2.2-.9Z"/><path class="a" d="M59.6,44.3V38.8c0-1.3-.7-1.6-1.6-1.6a3.9,3.9,0,0,0-2.2.8v6.3H54.5V36.2h.8l.5.8a3.8,3.8,0,0,1,2.5-1c2,0,2.6,1.2,2.6,2.8v5.5Z"/><path class="a" d="M68.8,44.3l-.3-.8a3.4,3.4,0,0,1-2.2.9c-2.1,0-3.5-1.7-3.5-4S64.3,36,66.6,36a3.9,3.9,0,0,1,1.8.4V32.2h1.3V44.3Zm-.4-6.7a3.1,3.1,0,0,0-1.6-.4c-1.7,0-2.6,1.1-2.6,3.1s.9,3,2.3,3a3,3,0,0,0,1.9-.8Z"/><path class="a" d="M78.9,44.2l-1,.2a1.4,1.4,0,0,1-1.4-.9,3.4,3.4,0,0,1-2.5.9,2,2,0,0,1-2.3-2c0-2.1,2.1-2.6,4.8-2.6,0-1.4,0-2.6-1.8-2.6a6,6,0,0,0-2.1.4l-.3-1a7.1,7.1,0,0,1,2.6-.6c2.5,0,2.9,1.4,2.9,3.6v2.9c0,.5.1.8.6.8h.3Zm-2.4-3.5c-2.1,0-3.4.3-3.4,1.5a1.2,1.2,0,0,0,1.3,1.2,3.1,3.1,0,0,0,2.1-.9Z"/><polygon class="b" points="110.3 56.1 101.8 56.6 104.5 62.9 90 67.2 90.9 74.8 97.1 81.6 86.7 94.8 98 102.2 113 92.8 123 92.6 122.1 69.9 130.3 65.3 122.3 54.9 110.3 56.1"/><path class="b" d="M149.1,8,120.8,26.3l9.5,26.1,19.6,6.3.4,19-12.1.4L131.9,96l9.6,4.2,10.1,1.6L140,105.6l-8.5,12.5,58.7-12.8-2.1-10.2,4.7-11.2L179,78.5,162.9,48.7,151.1,45l8.8-19.7-16.1-2,5.3-8Z"/><line class="c" x1="132.2" y1="40.1" x2="83.4" y2="40.1"/><circle class="d" cx="132.1" cy="40.1" r="2.2"/><path class="d" d="M132.1,37.6a2.5,2.5,0,1,0,2.5,2.5,2.5,2.5,0,0,0-2.5-2.5Zm0,4.4a1.9,1.9,0,1,1,0-3.8,1.9,1.9,0,1,1,0,3.8Z"/><rect class="d" x="82.9" y="36.9" width="1" height="6.5"/></svg>