<svg xmlns="http://www.w3.org/2000/svg" width="313.2" height="211.6" viewBox="0 0 313.2 211.6"><defs><style>.a{fill:#70f5e7;}.b,.c{fill:none;stroke-linecap:round;stroke-linejoin:round;}.b{stroke:#70f5e7;}.c{stroke:#fff;}.d{fill:#fff;}</style></defs><path class="a" d="M15.5,139l-4.9-9.5V139H9.4V128.6h2.1l4.9,9.5v-9.5h1.2V139Z"/><path class="a" d="M23.6,130.8c2.5,0,3.7,1.9,3.7,4.2a3.9,3.9,0,0,1-3.8,4.2c-2.5,0-3.7-1.9-3.7-4.2A3.9,3.9,0,0,1,23.6,130.8Zm-.1,7.2c1.7,0,2.4-1.3,2.4-3s-.7-3.1-2.4-3.1-2.4,1.4-2.4,3.1S21.9,138,23.5,138Z"/><path class="a" d="M29.4,139v-8.1h.7l.4,1.1a3,3,0,0,1,2.5-1.2h.7l-.3,1.2h-.6a2.6,2.6,0,0,0-2.1,1.1V139Z"/><path class="a" d="M40.5,139l-.4-.8a3.4,3.4,0,0,1-2.4,1c-1.9,0-2.6-1.3-2.6-2.9v-5.4h1.3v5.4c0,1.3.7,1.7,1.6,1.7a3.1,3.1,0,0,0,2-.8v-6.3h1.3V139Z"/><path class="a" d="M49.8,138.4a4.6,4.6,0,0,1-2.7.8c-2.3,0-3.7-1.6-3.7-4.1s1.4-4.3,3.5-4.3,3,1.5,3,3.2a5.3,5.3,0,0,1-.1,1.3H44.7a2.6,2.6,0,0,0,2.7,2.7,3.7,3.7,0,0,0,2-.5Zm-1.1-3.9v-.6c0-1.2-.6-2-1.8-2s-2.1,1.3-2.1,2.6Z"/><path class="a" d="M57.1,131.9a2.6,2.6,0,0,1,.5,1.5,2.9,2.9,0,0,1-2.9,2.9h-.6c0,.1-.3.5-.3.7s.1.6.9.6c2.8,0,3.6.8,3.6,2.2s-1.4,2.7-3.7,2.7-3.1-.7-3.1-2.3a2.1,2.1,0,0,1,1.6-1.9,1.1,1.1,0,0,1-.5-1v-.4l.7-.8a2.5,2.5,0,0,1-1.5-2.4,2.8,2.8,0,0,1,2.9-2.8,2.9,2.9,0,0,1,1.4.3l2.8-.2v1ZM52.7,140c0,.7.7,1.4,2,1.4s2.3-.6,2.3-1.6-.5-1.2-2.3-1.2h-.8A1.5,1.5,0,0,0,52.7,140Zm3.7-6.6a1.5,1.5,0,0,0-1.7-1.6,1.7,1.7,0,1,0,0,3.4A1.7,1.7,0,0,0,56.4,133.4Z"/><path class="a" d="M66.7,138.9a1.9,1.9,0,0,1-.9.3,1.3,1.3,0,0,1-1.4-1,3.4,3.4,0,0,1-2.5,1,2.1,2.1,0,0,1-2.3-2.1c0-2.1,2.1-2.5,4.8-2.5,0-1.5,0-2.7-1.8-2.7a4.1,4.1,0,0,0-2.1.5l-.4-1a6,6,0,0,1,2.7-.6c2.5,0,2.9,1.3,2.9,3.6v2.8c0,.6,0,.9.5.9h.3Zm-2.3-3.5c-2.1,0-3.5.3-3.5,1.6a1.2,1.2,0,0,0,1.3,1.1,3.1,3.1,0,0,0,2.2-.8Z"/><polygon class="b" points="85.2 148.1 80.1 186.9 104.6 201.2 130.4 184.1 140.1 189.2 152.2 155.7 143.6 125.5 159.1 116.9 166.2 88.4 199.5 50.8 222.1 41 251.8 48.3 263.6 30.5 304.2 33.2 300.2 15.2 228.8 14 158 53.6 168.6 59.1 136.8 110 85.2 148.1"/><line class="c" x1="124.7" y1="133.5" x2="70.1" y2="133.5"/><circle class="d" cx="124.6" cy="133.5" r="2.2"/><path class="d" d="M124.6,131a2.6,2.6,0,0,0,0,5.1,2.6,2.6,0,0,0,0-5.1Zm0,4.5a2,2,0,1,1,0-3.9,2,2,0,0,1,1.9,1.9,2,2,0,0,1-1.9,2Z"/><rect class="d" x="69.6" y="130.3" width="1" height="6.5"/></svg>