<svg xmlns="http://www.w3.org/2000/svg" width="154.1" height="211" viewBox="0 0 154.1 211"><defs><style>.a{fill:#70f5e7;}.b,.c{fill:none;stroke-linecap:round;stroke-linejoin:round;}.b{stroke:#70f5e7;}.c{stroke:#fff;}.d{fill:#fff;}</style></defs><path class="a" d="M102.2,156.2a4.5,4.5,0,0,0,2.3.7c1.4,0,2.3-.7,2.3-1.8,0-2.8-4.9-1.8-4.9-5.2,0-1.6,1.5-2.7,3.4-2.7a6,6,0,0,1,2.7.6l-.5,1a4.6,4.6,0,0,0-2.1-.5c-1.4,0-2.2.6-2.2,1.5,0,2.6,4.9,1.5,4.9,5.2,0,1.7-1.4,3-3.7,3a4.6,4.6,0,0,1-2.7-.8Z"/><path class="a" d="M115.7,157.8l-.5-.8a3.5,3.5,0,0,1-2.3,1c-2,0-2.6-1.4-2.6-2.9v-5.4h1.3v5.4c0,1.3.6,1.7,1.5,1.7a2.8,2.8,0,0,0,2-.8v-6.3h1.3v8.1Z"/><path class="a" d="M124.9,157.2a4.5,4.5,0,0,1-2.6.8c-2.3,0-3.8-1.6-3.8-4.1s1.4-4.3,3.6-4.3,3,1.5,3,3.2-.1.9-.1,1.3h-5.1a2.5,2.5,0,0,0,2.6,2.7,3.7,3.7,0,0,0,2-.5Zm-1.1-3.9v-.6c0-1.2-.5-2-1.8-2s-2.1,1.3-2.1,2.6Z"/><path class="a" d="M132.6,157.4a4.2,4.2,0,0,1-2.3.6c-2,0-3.7-1.5-3.7-4.1s1.7-4.3,4-4.3a4.6,4.6,0,0,1,2,.4l-.3,1.1a2.7,2.7,0,0,0-1.7-.4c-1.6,0-2.7,1-2.7,3.2a2.6,2.6,0,0,0,2.6,2.9,3.7,3.7,0,0,0,1.8-.4Z"/><path class="a" d="M135,148.1a.8.8,0,0,1-.8-.9.8.8,0,0,1,.8-.8c.5,0,.8.3.8.9A.8.8,0,0,1,135,148.1Zm1.6,9.6a1.7,1.7,0,0,1-.9.3c-1.1,0-1.4-.8-1.4-1.7v-6.6h1.3v6.5c0,.3.1.7.5.7h.3Z"/><path class="a" d="M144.9,157.7a2.4,2.4,0,0,1-1,.3,1.3,1.3,0,0,1-1.3-1,3.6,3.6,0,0,1-2.5,1,2.1,2.1,0,0,1-2.3-2.1c0-2.1,2.1-2.5,4.8-2.5,0-1.5-.1-2.7-1.8-2.7a4.8,4.8,0,0,0-2.2.5l-.3-1a5.5,5.5,0,0,1,2.6-.6c2.5,0,3,1.3,3,3.5V156c0,.6,0,.9.5.9h.3Zm-2.3-3.5c-2.1,0-3.5.3-3.5,1.5a1.2,1.2,0,0,0,1.3,1.2,3.3,3.3,0,0,0,2.2-.8Z"/><polygon class="b" points="17.3 155.4 32.3 200.8 59.1 188.4 67 157.5 77.7 142.3 63.3 129.7 72.2 103.8 99.6 79.9 103.6 60.3 119.7 56.9 115.8 21.9 99.4 7.2 76.8 17.1 43.5 54.6 36.4 83.1 20.9 91.7 29.5 121.9 17.3 155.4"/><line class="c" x1="42" y1="153.4" x2="97.9" y2="153.4"/><circle class="d" cx="42.1" cy="153.4" r="2.2"/><path class="d" d="M42.1,156a2.6,2.6,0,1,0-2.5-2.6,2.6,2.6,0,0,0,2.5,2.6Zm0-4.5a2,2,0,1,1-1.9,1.9,2,2,0,0,1,1.9-1.9Z"/><rect class="d" x="97.4" y="150.2" width="1" height="6.5"/></svg>