<svg xmlns="http://www.w3.org/2000/svg" width="167.1" height="57.5" viewBox="0 0 167.1 57.5"><defs><style>.a{fill:#70f5e7;}.b,.c,.d{fill:none;}.b,.c{stroke:#70f5e7;}.b{stroke-miterlimit:10;stroke-width:0;}.c,.d{stroke-linecap:round;stroke-linejoin:round;}.d{stroke:#fff;}.e{fill:#fff;}</style></defs><path class="a" d="M88.6,43.8V33.4h2.8c3.7,0,5.2,2.4,5.2,5.1a4.9,4.9,0,0,1-5.3,5.3Zm2.7-1.1a3.7,3.7,0,0,0,4-4c0-2.7-1.7-4.2-3.9-4.2H89.9v8.2Z"/><path class="a" d="M99.5,34.1a.8.8,0,0,1-.8-.8.8.8,0,0,1,.8-.9c.5,0,.8.3.8.9A.8.8,0,0,1,99.5,34.1Zm1.6,9.7a2.4,2.4,0,0,1-1,.2c-1,0-1.3-.7-1.3-1.6V35.8h1.3v6.4c0,.4,0,.7.5.7h.3Z"/><path class="a" d="M108,43.8V38.3c0-1.3-.7-1.5-1.6-1.5a3.9,3.9,0,0,0-2.2.8v6.2h-1.3v-8h.8l.5.7a4.4,4.4,0,0,1,2.5-.9c2,0,2.6,1.2,2.6,2.7v5.5Z"/><path class="a" d="M118.3,43.8l-1,.2a1.3,1.3,0,0,1-1.3-.9,4.1,4.1,0,0,1-2.5.9,2.1,2.1,0,0,1-2.3-2c0-2.1,2.1-2.6,4.7-2.6,0-1.4,0-2.6-1.8-2.6a4.6,4.6,0,0,0-2.1.4l-.3-1a5.5,5.5,0,0,1,2.6-.6c2.5,0,2.9,1.4,2.9,3.6v2.9c0,.5.1.8.6.8h.3Zm-2.4-3.5c-2,0-3.4.3-3.4,1.5a1.3,1.3,0,0,0,1.3,1.2,2.9,2.9,0,0,0,2.1-.9Z"/><path class="a" d="M129.4,43.8V38.3a1.3,1.3,0,0,0-1.5-1.5,3,3,0,0,0-1.9.8v6.2h-1.3V38.3c0-1.1-.6-1.5-1.6-1.5a2.9,2.9,0,0,0-1.8.8v6.2H120v-8h.8l.5.7a3,3,0,0,1,2.1-.9,2.5,2.5,0,0,1,2.3,1.1,3.9,3.9,0,0,1,2.4-1.1c1.8,0,2.6,1,2.6,2.7v5.5Z"/><path class="a" d="M139.8,43.8l-1,.2a1.5,1.5,0,0,1-1.4-.9,3.9,3.9,0,0,1-2.5.9,2.1,2.1,0,0,1-2.3-2c0-2.1,2.1-2.6,4.8-2.6,0-1.4,0-2.6-1.8-2.6a4.4,4.4,0,0,0-2.1.4l-.3-1a5.5,5.5,0,0,1,2.6-.6c2.5,0,2.9,1.4,2.9,3.6v2.9c0,.5.1.8.6.8h.2Zm-2.4-3.5c-2.1,0-3.4.3-3.4,1.5a1.2,1.2,0,0,0,1.3,1.2,3.1,3.1,0,0,0,2.1-.9Z"/><path class="a" d="M141.4,43.8v-8h.8l.4,1.1a3.1,3.1,0,0,1,2.5-1.3h.7l-.3,1.2h-.6a2.9,2.9,0,0,0-2.2,1.1v5.9Z"/><path class="a" d="M152.4,43.4a3.8,3.8,0,0,1-2.4.6c-2,0-3.7-1.4-3.7-4.1s1.7-4.3,4-4.3a3.4,3.4,0,0,1,2,.5l-.3,1a3.7,3.7,0,0,0-1.7-.3c-1.6,0-2.7.9-2.7,3.1s1.2,3,2.6,3a2.8,2.8,0,0,0,1.8-.5Z"/><path class="a" d="M160.5,43.8l-1,.2a1.5,1.5,0,0,1-1.4-.9,3.9,3.9,0,0,1-2.5.9,2.1,2.1,0,0,1-2.3-2c0-2.1,2.1-2.6,4.8-2.6,0-1.4,0-2.6-1.8-2.6a4.4,4.4,0,0,0-2.1.4l-.3-1a5.5,5.5,0,0,1,2.6-.6c2.5,0,2.9,1.4,2.9,3.6v2.9c0,.5.1.8.6.8h.3Zm-2.4-3.5c-2.1,0-3.4.3-3.4,1.5A1.2,1.2,0,0,0,156,43a3.1,3.1,0,0,0,2.1-.9Z"/><polyline class="b" points="29.5 9.6 29 10.1 28.7 10.6 28.3 10.9"/><polygon class="c" points="20.4 21.4 15.1 17.9 9.2 28.3 14 43.1 17.3 46.6 25.5 46.6 23.9 40.9 31.4 44.9 34.4 38.8 28.7 35.9 31.2 30.4 35.4 25.9 28.8 22.2 31.9 10.1 24.5 10.6 20.4 21.4"/><line class="d" x1="27.9" y1="40.7" x2="83.8" y2="40.7"/><circle class="e" cx="28" cy="40.7" r="2.2"/><path class="e" d="M28,43.2a2.5,2.5,0,1,0-2.5-2.5A2.6,2.6,0,0,0,28,43.2Zm0-4.4a1.9,1.9,0,0,1,2,1.9,2,2,0,0,1-2,1.9,2,2,0,0,1-1.9-1.9A1.9,1.9,0,0,1,28,38.8Z"/><rect class="e" x="83.3" y="37.4" width="1" height="6.5"/></svg>