<svg xmlns="http://www.w3.org/2000/svg" width="127.3" height="38" viewBox="0 0 127.3 38"><defs><style>.a{fill:#fff;}</style></defs><path class="a" d="M16.3,32h0a1.3,1.3,0,0,0,.1-1.6l-6.3-7.5a5.5,5.5,0,0,1-1.6-3.3,5.9,5.9,0,0,1,1.6-3.5l6.3-7.5A1.4,1.4,0,0,0,16.3,7h0a1.2,1.2,0,0,0-1.8,0L3.8,18.3a1.8,1.8,0,0,0-.5,1.2,1.7,1.7,0,0,0,.5,1.2L14.5,32.1A1.2,1.2,0,0,0,16.3,32Z"/><path class="a" d="M27.1,32h0a1.2,1.2,0,0,0,0-1.6l-6.2-7.5a5.5,5.5,0,0,1-1.7-3.3,5.9,5.9,0,0,1,1.7-3.5l6.2-7.5a1.2,1.2,0,0,0,0-1.6h0a1.2,1.2,0,0,0-1.8,0L14.5,18.3a1.7,1.7,0,0,0-.4,1.2,1.6,1.6,0,0,0,.4,1.2L25.3,32.1A1.2,1.2,0,0,0,27.1,32Z"/><path class="a" d="M48.2,29.8,40.9,9.9h2.9l6.1,17.8,6-17.8h2.7L51.4,29.8Z"/><path class="a" d="M66.6,14.1c4.9,0,7.1,3.6,7.1,8s-2.8,8-7.3,8-7-3.5-7-8S62.2,14.1,66.6,14.1ZM66.5,28c3.1,0,4.6-2.7,4.6-5.9s-1.5-5.8-4.6-5.8-4.6,2.6-4.6,5.8S63.3,28,66.5,28Z"/><path class="a" d="M82.1,29.7a3.9,3.9,0,0,1-1.8.4c-2.1,0-2.7-1.3-2.7-3.1V6.8h2.5v20c0,.6.1,1.2,1.1,1.2h.5Z"/><path class="a" d="M88.7,29.8,83.2,14.4h2.6l4.5,13.2h.1l4.5-13.2h2.4L91.8,29.8Z"/><path class="a" d="M111.1,28.8a9,9,0,0,1-5.1,1.3c-4.4,0-7.2-3-7.2-7.8s2.8-8.2,6.9-8.2,5.7,2.9,5.7,6.3a19.4,19.4,0,0,1-.2,2.4h-9.7c0,2.5,1.4,5.2,4.9,5.2a8.4,8.4,0,0,0,4-1ZM109,21.2V20.1c0-2.2-1.1-3.8-3.5-3.8s-3.9,2.5-4,4.9Z"/><path class="a" d="M115.4,29.8V14.4h1.5l.8,2.1a5.9,5.9,0,0,1,4.6-2.4,3.2,3.2,0,0,1,1.4.3l-.5,2.2-1.2-.2a5.3,5.3,0,0,0-4.1,2.1V29.8Z"/></svg>