<?xml version="1.0" encoding="utf-8"?>
<!-- Generator: Adobe Illustrator 25.1.0, SVG Export Plug-In . SVG Version: 6.00 Build 0)  -->
<svg version="1.1" id="Capa_1" xmlns="http://www.w3.org/2000/svg" xmlns:xlink="http://www.w3.org/1999/xlink" x="0px" y="0px"
	 viewBox="0 0 281.6 193.7" style="enable-background:new 0 0 281.6 193.7;" xml:space="preserve">
<style type="text/css">
	.st0{fill:#7BC086;}
	.st1{stroke:#FFFFFF;stroke-miterlimit:10;}
	.st2{fill:#FFFFFF;}
	.st3{enable-background:new    ;}
	.st4{fill:none;stroke:#FFFFFF;stroke-width:0.5;stroke-miterlimit:10;}
	.st5{fill:#028879;}
	.st6{fill:#FFFFFF;stroke:#008879;stroke-width:0.5;stroke-miterlimit:10;}
</style>
<rect x="4.8" y="124.3" class="st0" width="264" height="10"/>
<g>
	<path class="st1" d="M181.8,60.3v59h-95v-59H181.8 M182.8,59.3h-97v61h97V59.3z"/>
	<path class="st2" d="M170.8,106.3c2.8,0,5,2.2,5,5s-2.2,5-5,5s-5-2.2-5-5S168.1,106.3,170.8,106.3 M170.8,105.3c-3.3,0-6,2.7-6,6
		s2.7,6,6,6s6-2.7,6-6S174.1,105.3,170.8,105.3z"/>
</g>
<g>
	<path class="st1" d="M259.8,74.3v44h-71.2v-44H259.8 M260.8,73.3h-73.2v46h73.2V73.3z"/>
	<path class="st2" d="M251.8,106.3c2.8,0,5,2.2,5,5s-2.2,5-5,5s-5-2.2-5-5S249.1,106.3,251.8,106.3 M251.8,105.3c-3.3,0-6,2.7-6,6
		s2.7,6,6,6s6-2.7,6-6S255.1,105.3,251.8,105.3z"/>
</g>
<g>
	<rect x="25.8" y="74.3" class="st2" width="48" height="5"/>
	<rect x="25.8" y="84.3" class="st2" width="48" height="5"/>
	<rect x="25.8" y="94.3" class="st2" width="48" height="5"/>
	<rect x="43.8" y="104.3" class="st2" width="30" height="5"/>
</g>
<rect x="76.8" y="59.3" class="st2" width="3" height="61"/>
<g class="st3">
	<path class="st2" d="M33.4,30.6v1.8h-2.5V40h-2.2v-7.6h-2.5v-1.8H33.4z"/>
	<path class="st2" d="M35.8,29.6h2L36,32h-1.7L35.8,29.6z M36.7,37.9c0,0.4,0.1,0.5,0.4,0.5c0.3,0,0.6-0.1,0.6-0.1l0.1,1.5
		c0,0-0.6,0.4-1.4,0.4c-1.8,0-1.9-1.3-1.9-2.3v-5.2h2.2V37.9z"/>
	<path class="st2" d="M39,32.8v-1.3l2.2-0.5v1.9H43v1.7h-1.8v2.9c0,0.5,0.3,0.8,0.8,0.8c0.3,0,0.5-0.1,0.7-0.1l0.4,1.7
		c-0.4,0.3-1.1,0.5-1.9,0.5c-1.3,0-2.2-0.9-2.2-2.3v-3.4h-1.1v-1.7H39z"/>
	<path class="st2" d="M50.6,40h-1.7l-0.4-0.6c-0.4,0.4-1.1,0.7-1.9,0.7c-1.9,0-2.5-1.2-2.5-2.5v-4.9h2.2v4.6c0,0.7,0.3,1.1,0.9,1.1
		c0.4,0,0.9-0.2,1.1-0.4v-5.2h2.3V40z"/>
	<path class="st2" d="M54.3,37.9c0,0.4,0.2,0.5,0.5,0.5c0.1,0,0.2,0,0.2,0l0.3,1.4c-0.3,0.2-0.9,0.4-1.4,0.4c-1.2,0-1.9-0.8-1.9-2
		v-9h2.2V37.9z"/>
	<path class="st2" d="M59.4,32.6c2.7,0,3.7,1.7,3.7,3.8c0,2.1-1.4,3.8-3.6,3.8c-2.6,0-3.6-1.6-3.6-3.8S57.2,32.6,59.4,32.6z
		 M59.5,38.4c0.9,0,1.4-0.8,1.4-1.9c0-1.2-0.4-2.1-1.4-2.1c-0.8,0-1.3,0.6-1.3,1.9C58.1,37.5,58.4,38.4,59.5,38.4z"/>
</g>
<g class="st3">
	<path class="st2" d="M45.2,173.1h-3.3l-0.5,1.6h-2.3l3.3-9.4h2.4l3.4,9.4h-2.5L45.2,173.1z M43.5,167.5l-1,3.8h2.2L43.5,167.5z"/>
	<path class="st2" d="M49.2,167.5h1.3l0.4,0.6c0,0,1-0.7,2.4-0.7c2.1,0,2.5,1.2,2.5,2.5v4.9h-2.2v-4.6c0-0.7-0.3-1.1-0.9-1.1
		c-0.7,0-1.2,0.4-1.2,0.4v5.2h-2.2V167.5z M55.3,164.4c0,0.1,0,0.3,0,0.4c0,1.3-0.9,1.8-1.7,1.8s-1.4-0.8-2.1-0.8
		c-0.8,0-0.8,0.7-0.8,0.7l-1.1,0c0-0.1,0-0.2,0-0.3c0-1.1,0.6-1.9,1.9-1.9c0.9,0,1.5,0.7,2,0.7c0.5,0,0.7-0.3,0.7-0.7H55.3z"/>
	<path class="st2" d="M60.5,167.4c2.7,0,3.7,1.7,3.7,3.8c0,2.1-1.4,3.8-3.6,3.8c-2.6,0-3.6-1.6-3.6-3.8S58.2,167.4,60.5,167.4z
		 M60.5,173.1c0.9,0,1.4-0.8,1.4-1.9c0-1.2-0.4-2.1-1.4-2.1c-0.8,0-1.3,0.6-1.3,1.9C59.2,172.2,59.5,173.1,60.5,173.1z"/>
</g>
<g class="st3">
	<path class="st2" d="M103.3,40.1l-1.7-3.4h-1.1v3.4h-2.2v-9.4h3.6c2.3,0,3.5,1.1,3.5,3c0,1.2-1.1,2.2-1.8,2.4l2.2,4.1H103.3z
		 M100.5,32.5V35h0.9c1.2,0,1.7-0.7,1.7-1.3c0-0.8-0.6-1.2-1.5-1.2H100.5z"/>
	<path class="st2" d="M108.7,37.1c0.1,0.7,0.8,1.2,1.8,1.2c0.8,0,1.4-0.2,1.9-0.4l0.4,1.7c-0.7,0.4-1.6,0.7-2.6,0.7
		c-2.2,0-3.8-1.2-3.8-3.7c0-2.3,1.4-3.9,3.5-3.9c2.3,0,3.1,1.6,3.1,3.1c0,0.6-0.1,1.2-0.1,1.2H108.7z M110.8,35.9c0-0.1,0-0.2,0-0.2
		c0-0.7-0.3-1.1-1-1.1c-0.7,0-1.2,0.5-1.2,1.3H110.8z"/>
	<path class="st2" d="M118.9,35c-0.7-0.3-1.1-0.4-1.9-0.4c-0.6,0-0.9,0.2-0.9,0.4c0,0.9,3.4,0.3,3.4,2.7c0,1.6-1.1,2.6-3.3,2.6
		c-1,0-2-0.4-2.5-0.7l0.5-1.7c0.5,0.3,1.3,0.5,2.1,0.5c0.7,0,1-0.2,1-0.5c0-0.9-3.5-0.3-3.5-2.8c0-1.5,1.1-2.4,3-2.4
		c1.1,0,2,0.3,2.5,0.5L118.9,35z"/>
	<path class="st2" d="M127.2,40.1h-1.7l-0.4-0.6c-0.4,0.4-1.1,0.7-1.9,0.7c-1.9,0-2.5-1.2-2.5-2.5v-4.9h2.2v4.6
		c0,0.7,0.3,1.1,0.9,1.1c0.4,0,0.9-0.2,1.1-0.4v-5.2h2.3V40.1z"/>
	<path class="st2" d="M136.9,35.5c0-0.6-0.2-1-0.8-1c-0.3,0-0.8,0.1-1,0.4v5.2h-2.2v-4.6c0-0.6-0.2-1-0.8-1c-0.3,0-0.8,0.1-1,0.4
		v5.2h-2.2v-7.3h1.7l0.4,0.6c0,0,0.9-0.7,2.1-0.7c0.9,0,1.6,0.3,1.9,0.7c0.4-0.4,1.2-0.7,2.1-0.7c1.4,0,2.3,0.8,2.3,2.3v5.1h-2.2
		V35.5z"/>
	<path class="st2" d="M142.5,37.1c0.1,0.7,0.8,1.2,1.8,1.2c0.8,0,1.4-0.2,1.9-0.4l0.4,1.7c-0.7,0.4-1.6,0.7-2.6,0.7
		c-2.2,0-3.8-1.2-3.8-3.7c0-2.3,1.4-3.9,3.5-3.9c2.3,0,3.1,1.6,3.1,3.1c0,0.6-0.1,1.2-0.1,1.2H142.5z M144.7,35.9c0-0.1,0-0.2,0-0.2
		c0-0.7-0.4-1.1-1-1.1c-0.7,0-1.2,0.5-1.2,1.3H144.7z"/>
	<path class="st2" d="M148.1,32.9h1.7l0.4,0.6c0.4-0.3,1.1-0.7,2-0.7c1.7,0,2.4,1,2.4,2.6v4.8h-2.2v-4.6c0-0.7-0.3-1.1-1-1.1
		c-0.4,0-0.9,0.2-1.1,0.4v5.2h-2.2V32.9z"/>
</g>
<g class="st3">
	<path class="st2" d="M165.9,162.8v1.8h-2.5v7.6h-2.2v-7.6h-2.5v-1.8H165.9z"/>
	<path class="st2" d="M169.4,163c0,0.7-0.4,1.1-1.2,1.1c-0.8,0-1.2-0.5-1.2-1.1c0-0.7,0.3-1.1,1.2-1.1
		C169,161.8,169.4,162.3,169.4,163z M169.3,170.1c0,0.4,0.2,0.5,0.5,0.5c0.1,0,0.2,0,0.2,0l0.3,1.4c-0.3,0.2-0.9,0.4-1.4,0.4
		c-1.2,0-1.9-0.8-1.9-2v-5.4h2.2V170.1z"/>
	<path class="st2" d="M171.2,164.9h1.7l0.4,0.6c0,0,0.7-0.7,2.1-0.7c1.6,0,2.9,1.1,2.9,3.7c0,2.5-1.7,3.9-3.6,3.9
		c-0.6,0-1.2-0.2-1.2-0.2v2.9h-2.2V164.9z M173.4,170.4c0,0,0.4,0.2,1,0.2c0.9,0,1.5-0.7,1.5-2c0-1.3-0.6-1.9-1.4-1.9
		c-0.7,0-1.1,0.3-1.1,0.3V170.4z"/>
	<path class="st2" d="M182.6,164.8c2.7,0,3.7,1.7,3.7,3.8c0,2.1-1.4,3.8-3.6,3.8c-2.6,0-3.6-1.6-3.6-3.8S180.4,164.8,182.6,164.8z
		 M182.6,170.6c0.9,0,1.4-0.8,1.4-1.9c0-1.2-0.4-2.1-1.4-2.1c-0.8,0-1.3,0.6-1.3,1.9C181.3,169.7,181.6,170.6,182.6,170.6z"/>
	<path class="st2" d="M197.7,172.2H196l-0.4-0.6c0,0-0.5,0.7-1.8,0.7c-1.6,0-3.2-1.2-3.2-3.7c0-2.3,1.5-3.8,3.6-3.8
		c0.6,0,1.2,0.2,1.2,0.2v-3.6h2.2V172.2z M195.5,166.7c0,0-0.4-0.2-1-0.2c-0.9,0-1.5,0.7-1.5,2c0,1.3,0.6,1.9,1.4,1.9
		c0.7,0,1.1-0.3,1.1-0.3V166.7z"/>
	<path class="st2" d="M201.2,169.2c0.1,0.7,0.8,1.2,1.8,1.2c0.8,0,1.4-0.2,1.9-0.4l0.4,1.7c-0.7,0.4-1.6,0.7-2.6,0.7
		c-2.2,0-3.8-1.2-3.8-3.7c0-2.3,1.4-3.9,3.5-3.9c2.3,0,3.1,1.6,3.1,3.1c0,0.6-0.1,1.2-0.1,1.2H201.2z M203.3,167.9
		c0-0.1,0-0.2,0-0.2c0-0.7-0.4-1.1-1-1.1c-0.7,0-1.2,0.5-1.2,1.3H203.3z"/>
	<path class="st2" d="M214,164.8c0.7,0,1.3,0.2,1.7,0.4l-0.6,1.8c-0.3-0.2-0.7-0.3-1.2-0.3c-1,0-1.7,0.6-1.7,1.8
		c0,1.4,1,1.8,1.8,1.8c0.5,0,0.9-0.1,1.2-0.3l0.6,1.7c-0.5,0.3-1.4,0.6-2.3,0.6c-2.1,0-3.5-1.5-3.5-3.7
		C210,166.1,211.7,164.8,214,164.8z"/>
	<path class="st2" d="M220,164.8c2.7,0,3.7,1.7,3.7,3.8c0,2.1-1.4,3.8-3.6,3.8c-2.6,0-3.6-1.6-3.6-3.8S217.8,164.8,220,164.8z
		 M220,170.6c0.9,0,1.4-0.8,1.4-1.9c0-1.2-0.4-2.1-1.4-2.1c-0.8,0-1.3,0.6-1.3,1.9C218.7,169.7,219,170.6,220,170.6z"/>
	<path class="st2" d="M224.9,164.9h1.7l0.4,0.6c0.4-0.3,1.1-0.7,2-0.7c1.7,0,2.4,1,2.4,2.6v4.8h-2.2v-4.6c0-0.7-0.3-1.1-1-1.1
		c-0.4,0-0.9,0.2-1.1,0.4v5.2h-2.2V164.9z"/>
	<path class="st2" d="M233.3,164.9v-1.3l2.2-0.5v1.9h1.8v1.7h-1.8v2.9c0,0.5,0.3,0.8,0.8,0.8c0.3,0,0.5-0.1,0.7-0.1l0.4,1.7
		c-0.4,0.3-1.1,0.5-1.9,0.5c-1.3,0-2.2-0.9-2.2-2.3v-3.4h-1.1v-1.7H233.3z"/>
	<path class="st2" d="M240.4,169.2c0.1,0.7,0.8,1.2,1.8,1.2c0.8,0,1.4-0.2,1.9-0.4l0.4,1.7c-0.7,0.4-1.6,0.7-2.6,0.7
		c-2.2,0-3.8-1.2-3.8-3.7c0-2.3,1.4-3.9,3.5-3.9c2.3,0,3.1,1.6,3.1,3.1c0,0.6-0.1,1.2-0.1,1.2H240.4z M242.5,167.9
		c0-0.1,0-0.2,0-0.2c0-0.7-0.4-1.1-1-1.1c-0.7,0-1.2,0.5-1.2,1.3H242.5z"/>
	<path class="st2" d="M245.9,164.9h1.7l0.4,0.6c0.4-0.3,1.1-0.7,2-0.7c1.7,0,2.4,1,2.4,2.6v4.8h-2.2v-4.6c0-0.7-0.3-1.1-1-1.1
		c-0.4,0-0.9,0.2-1.1,0.4v5.2h-2.2V164.9z"/>
	<path class="st2" d="M256.3,163c0,0.7-0.4,1.1-1.2,1.1c-0.8,0-1.2-0.5-1.2-1.1c0-0.7,0.3-1.1,1.2-1.1
		C255.9,161.8,256.3,162.3,256.3,163z M256.2,170.1c0,0.4,0.2,0.5,0.5,0.5c0.1,0,0.2,0,0.2,0l0.3,1.4c-0.3,0.2-0.9,0.4-1.4,0.4
		c-1.2,0-1.9-0.8-1.9-2v-5.4h2.2V170.1z"/>
	<path class="st2" d="M264.7,172.2H263l-0.4-0.6c0,0-0.5,0.7-1.8,0.7c-1.6,0-3.2-1.2-3.2-3.7c0-2.3,1.5-3.8,3.6-3.8
		c0.6,0,1.2,0.2,1.2,0.2v-3.6h2.2V172.2z M262.5,166.7c0,0-0.4-0.2-1-0.2c-0.9,0-1.5,0.7-1.5,2c0,1.3,0.6,1.9,1.4,1.9
		c0.7,0,1.1-0.3,1.1-0.3V166.7z"/>
	<path class="st2" d="M269.5,164.8c2.7,0,3.7,1.7,3.7,3.8c0,2.1-1.4,3.8-3.6,3.8c-2.6,0-3.6-1.6-3.6-3.8S267.3,164.8,269.5,164.8z
		 M269.5,170.6c0.9,0,1.4-0.8,1.4-1.9c0-1.2-0.4-2.1-1.4-2.1c-0.8,0-1.3,0.6-1.3,1.9C268.2,169.7,268.5,170.6,269.5,170.6z"/>
</g>
<g class="st3">
	<path class="st2" d="M179,40.1v-9.4h3.7c2.3,0,3.5,1,3.5,3.1c0,1.8-1.2,3.2-3.8,3.2h-1.2v3.2H179z M181.2,32.5v2.7h1.1
		c1.3,0,1.7-0.8,1.7-1.4c0-0.8-0.6-1.2-1.5-1.2H181.2z"/>
	<path class="st2" d="M187.3,32.9h1.6l0.5,1c0.3-0.5,0.9-1.1,1.8-1.1c0.4,0,0.6,0.1,0.8,0.2l-0.3,1.8c-0.2,0-0.3-0.1-0.5-0.1
		c-0.6,0-1.2,0.2-1.5,0.5v4.9h-2.2V32.9z"/>
	<path class="st2" d="M195.7,32.7c2.7,0,3.7,1.7,3.7,3.8c0,2.1-1.4,3.8-3.6,3.8c-2.6,0-3.6-1.6-3.6-3.8S193.4,32.7,195.7,32.7z
		 M195.7,38.5c0.9,0,1.4-0.8,1.4-1.9c0-1.2-0.4-2.1-1.4-2.1c-0.8,0-1.3,0.6-1.3,1.9C194.3,37.6,194.7,38.5,195.7,38.5z"/>
	<path class="st2" d="M201.1,32.9c0-0.1,0-0.3,0-0.4c0-2.3,1.5-3.3,3.3-3.3c0.5,0,0.9,0.1,1.4,0.2l-0.4,1.7
		c-0.2-0.1-0.5-0.1-0.8-0.1c-0.8,0-1.5,0.4-1.5,1.5c0,0.2,0,0.3,0,0.4h1.9v1.7h-1.8V43h-2.2v-8.4h-1.2v-1.7H201.1z"/>
	<path class="st2" d="M212.3,40.1h-1.7l-0.4-0.6c-0.4,0.4-1.1,0.7-1.9,0.7c-1.9,0-2.5-1.2-2.5-2.5v-4.9h2.2v4.6
		c0,0.7,0.3,1.1,0.9,1.1c0.4,0,0.9-0.2,1.1-0.4v-5.2h2.3V40.1z"/>
	<path class="st2" d="M213.8,32.9h1.7l0.4,0.6c0.4-0.3,1.1-0.7,2-0.7c1.7,0,2.4,1,2.4,2.6v4.8h-2.2v-4.6c0-0.7-0.3-1.1-1-1.1
		c-0.4,0-0.9,0.2-1.1,0.4v5.2h-2.2V32.9z"/>
	<path class="st2" d="M228.5,40.1h-1.7l-0.4-0.6c0,0-0.5,0.7-1.8,0.7c-1.6,0-3.2-1.2-3.2-3.7c0-2.3,1.5-3.8,3.6-3.8
		c0.6,0,1.2,0.2,1.2,0.2v-3.6h2.2V40.1z M226.2,34.7c0,0-0.4-0.2-1-0.2c-0.9,0-1.5,0.7-1.5,2c0,1.3,0.6,1.9,1.4,1.9
		c0.7,0,1.1-0.3,1.1-0.3V34.7z"/>
	<path class="st2" d="M232.4,30.9c0,0.7-0.4,1.1-1.2,1.1c-0.8,0-1.2-0.5-1.2-1.1c0-0.7,0.3-1.1,1.2-1.1
		C232,29.8,232.4,30.2,232.4,30.9z M232.3,38c0,0.4,0.2,0.5,0.5,0.5c0.1,0,0.2,0,0.2,0l0.3,1.4c-0.3,0.2-0.9,0.4-1.4,0.4
		c-1.2,0-1.9-0.8-1.9-2v-5.4h2.2V38z"/>
	<path class="st2" d="M236.9,34.6h-3.2v-1.8h5.9l0.1,1.5l-3.2,4h3.2v1.8h-6v-1.4L236.9,34.6z"/>
	<path class="st2" d="M241,33.4c0.5-0.3,1.6-0.6,2.7-0.6c2.6,0,3.1,1.2,3.1,3.2V38c0,0.3,0.2,0.5,0.5,0.5c0.1,0,0.2,0,0.3,0l0.3,1.4
		c-0.3,0.2-0.9,0.4-1.4,0.4c-0.9,0-1.4-0.3-1.7-0.9c-0.3,0.5-1,0.9-2,0.9c-1,0-2.2-0.5-2.2-2c0-1.8,1.9-2.4,4-2.4
		c0-0.8-0.3-1.3-1.2-1.3c-0.7,0-1.2,0.1-1.8,0.4L241,33.4z M244.5,37.1c-1,0-1.8,0.2-1.8,0.9c0,0.4,0.2,0.7,0.7,0.7
		c0.5,0,0.9-0.2,1-0.5V37.1z"/>
	<path class="st2" d="M252.3,32.7c0.7,0,1.3,0.2,1.7,0.4l-0.6,1.8c-0.3-0.2-0.7-0.3-1.2-0.3c-1,0-1.7,0.6-1.7,1.8
		c0,1.4,1,1.8,1.8,1.8c0.5,0,0.9-0.1,1.2-0.3l0.6,1.7c-0.5,0.3-1.4,0.6-2.3,0.6c-2.1,0-3.5-1.5-3.5-3.7
		C248.3,34,250.1,32.7,252.3,32.7z"/>
	<path class="st2" d="M257.5,30.9c0,0.7-0.4,1.1-1.2,1.1c-0.8,0-1.2-0.5-1.2-1.1c0-0.7,0.3-1.1,1.2-1.1
		C257.1,29.8,257.5,30.2,257.5,30.9z M257.4,38c0,0.4,0.2,0.5,0.5,0.5c0.1,0,0.2,0,0.2,0l0.3,1.4c-0.3,0.2-0.9,0.4-1.4,0.4
		c-1.2,0-1.9-0.8-1.9-2v-5.4h2.2V38z"/>
	<path class="st2" d="M262.5,32.7c2.7,0,3.7,1.7,3.7,3.8c0,2.1-1.4,3.8-3.6,3.8c-2.6,0-3.6-1.6-3.6-3.8S260.2,32.7,262.5,32.7z
		 M262.5,38.5c0.9,0,1.4-0.8,1.4-1.9c0-1.2-0.4-2.1-1.4-2.1c-0.8,0-1.3,0.6-1.3,1.9C261.2,37.6,261.5,38.5,262.5,38.5z M262.7,29.7
		h2l-1.9,2.4h-1.7L262.7,29.7z"/>
	<path class="st2" d="M267.4,32.9h1.7l0.4,0.6c0.4-0.3,1.1-0.7,2-0.7c1.7,0,2.4,1,2.4,2.6v4.8h-2.2v-4.6c0-0.7-0.3-1.1-1-1.1
		c-0.4,0-0.9,0.2-1.1,0.4v5.2h-2.2V32.9z"/>
</g>
<g>
	<g>
		<line class="st4" x1="251.8" y1="111.1" x2="251.8" y2="150"/>
		<g>
			<path class="st2" d="M250,111.2c0-1,0.8-1.9,1.9-1.9s1.9,0.8,1.9,1.9c0,1-0.8,1.9-1.9,1.9S250,112.3,250,111.2z"/>
		</g>
	</g>
</g>
<g>
	<g>
		<line class="st4" x1="170.8" y1="111.1" x2="170.8" y2="150"/>
		<g>
			<path class="st2" d="M169,111.2c0-1,0.8-1.9,1.9-1.9s1.9,0.8,1.9,1.9c0,1-0.8,1.9-1.9,1.9S169,112.3,169,111.2z"/>
		</g>
	</g>
</g>
<g>
	<g>
		<line class="st4" x1="51.4" y1="129.7" x2="51.4" y2="161.4"/>
		<g>
			<path class="st2" d="M49.5,129.8c0-1,0.8-1.9,1.9-1.9s1.9,0.8,1.9,1.9c0,1-0.8,1.9-1.9,1.9S49.5,130.8,49.5,129.8z"/>
		</g>
	</g>
</g>
<g>
	<g>
		<line class="st4" x1="127.8" y1="72.6" x2="127.8" y2="45.4"/>
		<g>
			<path class="st2" d="M129.6,72.5c0,1-0.8,1.9-1.9,1.9s-1.9-0.8-1.9-1.9c0-1,0.8-1.9,1.9-1.9S129.6,71.4,129.6,72.5z"/>
		</g>
	</g>
</g>
<g>
	<g>
		<line class="st4" x1="224.3" y1="85.8" x2="224.3" y2="45.4"/>
		<g>
			<path class="st2" d="M226.1,85.7c0,1-0.8,1.9-1.9,1.9s-1.9-0.8-1.9-1.9c0-1,0.8-1.9,1.9-1.9S226.1,84.7,226.1,85.7z"/>
		</g>
	</g>
</g>
<line class="st4" x1="170.8" y1="150" x2="251.8" y2="150"/>
<line class="st4" x1="209.6" y1="150" x2="209.6" y2="161.4"/>
<g>
	<rect x="47" y="45.2" class="st2" width="1" height="31.6"/>
	<path class="st5" d="M47.7,45.4v31.1h-0.5V45.4H47.7 M48.2,44.9h-0.5h-0.5h-0.5v0.5v31.1v0.5h0.5h0.5h0.5v-0.5V45.4V44.9L48.2,44.9
		z"/>
</g>
<g>
	<path class="st6" d="M49.3,76.8c0,1-0.8,1.9-1.9,1.9s-1.9-0.8-1.9-1.9c0-1,0.8-1.9,1.9-1.9S49.3,75.8,49.3,76.8z"/>
</g>
</svg>
