<?xml version="1.0" encoding="utf-8"?>
<!-- Generator: Adobe Illustrator 25.1.0, SVG Export Plug-In . SVG Version: 6.00 Build 0)  -->
<svg version="1.1" id="Capa_1" xmlns="http://www.w3.org/2000/svg" xmlns:xlink="http://www.w3.org/1999/xlink" x="0px" y="0px"
	 viewBox="0 0 227 48" style="enable-background:new 0 0 227 48;" xml:space="preserve">
<style type="text/css">
	.st0{clip-path:url(#SVGID_2_);}
	.st1{fill:none;}
	.st2{fill:#B2B2B2;}
</style>
<g>
	<defs>
		<rect id="SVGID_1_" width="226.2" height="47.1"/>
	</defs>
	<clipPath id="SVGID_2_">
		<use xlink:href="#SVGID_1_"  style="overflow:visible;"/>
	</clipPath>
	<g class="st0">
		<rect x="4" y="16.1" class="st1" width="24" height="22"/>
		<path class="st2" d="M17.6,28.4h-2.3c-0.8,0-1.4-0.6-1.4-1.4s0.6-1.4,1.4-1.4h2.3c0.8,0,1.4,0.6,1.4,1.4S18.4,28.4,17.6,28.4z"/>
		<path class="st2" d="M32.8,28.4h-2.3c-0.8,0-1.4-0.6-1.4-1.4s0.6-1.4,1.4-1.4h2.3c0.8,0,1.4,0.6,1.4,1.4S33.6,28.4,32.8,28.4z"/>
		<path class="st2" d="M51.8,28.4h-2.3c-0.8,0-1.4-0.6-1.4-1.4s0.6-1.4,1.4-1.4h2.3c0.8,0,1.4,0.6,1.4,1.4S52.5,28.4,51.8,28.4z"/>
		<path class="st2" d="M134.7,28.4H72.4c-0.8,0-1.4-0.6-1.4-1.4s0.6-1.4,1.4-1.4h62.3c0.8,0,1.4,0.6,1.4,1.4S135.5,28.4,134.7,28.4z
			"/>
		<path class="st2" d="M158.4,28.4h-8.3c-0.8,0-1.4-0.6-1.4-1.4s0.6-1.4,1.4-1.4h8.3c0.8,0,1.4,0.6,1.4,1.4S159.1,28.4,158.4,28.4z"
			/>
		<path class="st2" d="M200.2,28.4H192c-0.8,0-1.4-0.6-1.4-1.4s0.6-1.4,1.4-1.4h8.3c0.8,0,1.4,0.6,1.4,1.4
			C201.6,27.8,201,28.4,200.2,28.4z"/>
		<path class="st2" d="M170.3,28.4H168c-0.8,0-1.4-0.6-1.4-1.4s0.6-1.4,1.4-1.4h2.3c0.8,0,1.4,0.6,1.4,1.4S171,28.4,170.3,28.4z"/>
		<path class="st2" d="M182.3,28.4H180c-0.8,0-1.4-0.6-1.4-1.4s0.6-1.4,1.4-1.4h2.3c0.8,0,1.4,0.6,1.4,1.4S183.1,28.4,182.3,28.4z"
			/>
		<path class="st2" d="M74.7,2.8h-2.3c-0.8,0-1.4-0.6-1.4-1.4S71.6,0,72.4,0h2.3c0.8,0,1.4,0.6,1.4,1.4S75.4,2.8,74.7,2.8z"/>
		<path class="st2" d="M91.3,2.8H89c-0.8,0-1.4-0.6-1.4-1.4S88.2,0,89,0h2.3c0.8,0,1.4,0.6,1.4,1.4S92.1,2.8,91.3,2.8z"/>
		<path class="st2" d="M127.9,2.8h-24.5c-0.8,0-1.4-0.6-1.4-1.4s0.6-1.4,1.4-1.4h24.5c0.8,0,1.4,0.6,1.4,1.4S128.7,2.8,127.9,2.8z"
			/>
		<path class="st2" d="M223.4,2.8h-2.3c-0.8,0-1.4-0.6-1.4-1.4s0.6-1.4,1.4-1.4h2.3c0.8,0,1.4,0.6,1.4,1.4S224.2,2.8,223.4,2.8z"/>
		<path class="st2" d="M200.3,2.8H138c-0.8,0-1.4-0.6-1.4-1.4S137.2,0,138,0h62.3c0.8,0,1.4,0.6,1.4,1.4S201.1,2.8,200.3,2.8z"/>
		<path class="st2" d="M219.2,19.9h-2.3c-0.8,0-1.4-0.6-1.4-1.4s0.6-1.4,1.4-1.4h2.3c0.8,0,1.4,0.6,1.4,1.4S220,19.9,219.2,19.9z"/>
		<path class="st2" d="M200.3,19.9H138c-0.8,0-1.4-0.6-1.4-1.4s0.6-1.4,1.4-1.4h62.3c0.8,0,1.4,0.6,1.4,1.4S201.1,19.9,200.3,19.9z"
			/>
		<path class="st2" d="M126.6,19.9H68.2c-0.8,0-1.4-0.6-1.4-1.4s0.6-1.4,1.4-1.4h58.4c0.8,0,1.4,0.6,1.4,1.4S127.4,19.9,126.6,19.9z
			"/>
		<path class="st2" d="M56.9,19.9H22.7c-0.8,0-1.4-0.6-1.4-1.4s0.6-1.4,1.4-1.4h34.2c0.8,0,1.4,0.6,1.4,1.4S57.6,19.9,56.9,19.9z"/>
		<path class="st2" d="M210.2,11.3h-2.3c-0.8,0-1.4-0.6-1.4-1.4c0-0.8,0.6-1.4,1.4-1.4h2.3c0.8,0,1.4,0.6,1.4,1.4
			C211.6,10.7,211,11.3,210.2,11.3z"/>
		<path class="st2" d="M190.3,11.3h-50.2c-0.8,0-1.4-0.6-1.4-1.4c0-0.8,0.6-1.4,1.4-1.4h50.2c0.8,0,1.4,0.6,1.4,1.4
			C191.7,10.7,191.1,11.3,190.3,11.3z"/>
		<path class="st2" d="M63.6,11.3H25.3c-0.8,0-1.4-0.6-1.4-1.4c0-0.8,0.6-1.4,1.4-1.4h38.2c0.8,0,1.4,0.6,1.4,1.4
			C65,10.7,64.4,11.3,63.6,11.3z"/>
		<path class="st2" d="M114,11.3H75.7c-0.8,0-1.4-0.6-1.4-1.4c0-0.8,0.6-1.4,1.4-1.4H114c0.8,0,1.4,0.6,1.4,1.4
			C115.4,10.7,114.7,11.3,114,11.3z"/>
		<rect y="24.1" class="st1" width="29" height="23"/>
		<path class="st2" d="M19.7,33.2h-10V38h10V33.2z"/>
		<path class="st2" d="M65,33.2H20.8V38H65V33.2z"/>
		<path class="st2" d="M134.9,33.2H66.2V38h68.7V33.2z"/>
		<path class="st2" d="M201.1,33.2h-65V38h65V33.2z"/>
		<path class="st2" d="M226.3,33.2h-24V38h24V33.2z"/>
	</g>
</g>
</svg>
