<?xml version="1.0" encoding="utf-8"?>
<!-- Generator: Adobe Illustrator 24.2.0, SVG Export Plug-In . SVG Version: 6.00 Build 0)  -->
<svg version="1.1" id="Layer_1" xmlns="http://www.w3.org/2000/svg" xmlns:xlink="http://www.w3.org/1999/xlink" x="0px" y="0px"
	 viewBox="0 0 1096 280" style="enable-background:new 0 0 1096 280;" xml:space="preserve">
<style type="text/css">
	.st0{fill:#85782F;}
	.st1{fill:#223A73;}
</style>
<g id="Layer_1_1_">
</g>
<g id="Layer_2_1_">
	<g>
		<g>
			<g>
				<g>
					<path class="st0" d="M73.8,179.8L73.8,179.8c-0.7,0-1.2,0.5-1.3,1.2l-4.4,37.4c-0.2,1.5,1.1,2.9,2.6,2.8h0.1
						c1.3-0.1,2.3-1.1,2.4-2.4l2-37.6C75.2,180.4,74.6,179.8,73.8,179.8z"/>
					<path class="st0" d="M74.7,162l-1.5,12.9c-0.1,0.7,0.5,1.3,1.2,1.3l0,0c0.6,0,1-0.5,1.1-1.1l0.7-13c0-0.4-0.3-0.8-0.8-0.8l0,0
						C75,161.4,74.8,161.7,74.7,162z"/>
					<path class="st0" d="M75.6,154.3l-0.3,2.8c0,0.4,0.3,0.7,0.6,0.6l0,0c0.3,0,0.5-0.3,0.5-0.5l0.2-2.9c0-0.3-0.2-0.5-0.5-0.5l0,0
						C75.8,153.9,75.6,154.1,75.6,154.3z"/>
					<path class="st0" d="M74.2,154.1l-1,2.9c-0.1,0.4,0.1,0.8,0.5,0.8l0,0c0.3,0,0.5-0.2,0.6-0.4l0.9-2.9c0.1-0.3-0.1-0.6-0.4-0.6
						l0,0C74.5,153.8,74.3,153.9,74.2,154.1z"/>
					<path class="st0" d="M71.5,161.7l-4.6,12.6c-0.3,0.7,0.2,1.5,0.9,1.6l0,0c0.6,0.1,1.1-0.3,1.3-0.8l3.8-12.9
						c0.1-0.4-0.2-0.9-0.6-1l0,0C71.9,161.2,71.6,161.4,71.5,161.7z"/>
					<path class="st0" d="M68.2,160.7l-7.7,11.7c-0.4,0.7-0.1,1.5,0.6,1.8l0,0c0.6,0.2,1.2,0,1.5-0.5l6.9-12.2
						c0.2-0.4,0-0.9-0.4-1.1c0,0,0,0-0.1,0C68.8,160.3,68.4,160.4,68.2,160.7z"/>
					<path class="st0" d="M72.8,153.7l-1.8,2.7c-0.2,0.4-0.1,0.8,0.3,0.9l0,0c0.3,0.1,0.6,0,0.7-0.3l1.6-2.8c0.2-0.3,0-0.6-0.3-0.7
						c0,0,0,0-0.1,0C73.1,153.5,72.9,153.5,72.8,153.7z"/>
					<path class="st0" d="M71.3,153l-2.5,2.4c-0.3,0.3-0.3,0.8,0.1,1l0,0c0.3,0.1,0.6,0.1,0.8-0.1l2.4-2.6c0.2-0.2,0.2-0.6-0.1-0.8
						c0,0-0.1,0-0.1-0.1C71.7,152.8,71.4,152.8,71.3,153z"/>
					<path class="st0" d="M65,158.9l-10.7,10c-0.6,0.6-0.5,1.5,0.2,2l0,0c0.5,0.3,1.2,0.2,1.6-0.2l10-10.7c0.3-0.3,0.3-0.9-0.1-1.1
						c0,0-0.1,0-0.1-0.1C65.6,158.6,65.3,158.6,65,158.9z"/>
					<path class="st0" d="M62.1,156.3l-13.2,7.6c-0.7,0.4-0.9,1.4-0.3,2.1l0,0c0.4,0.5,1.2,0.5,1.7,0.2l12.7-8.4
						c0.4-0.3,0.5-0.9,0.1-1.3l0,0C62.8,156.2,62.4,156.1,62.1,156.3z"/>
					<path class="st0" d="M69.8,151.8l-3.2,1.9c-0.4,0.2-0.5,0.8-0.1,1.1l0,0c0.2,0.2,0.6,0.2,0.8,0l3.1-2.1
						c0.3-0.2,0.3-0.6,0.1-0.9l0,0C70.3,151.7,70,151.7,69.8,151.8z"/>
					<path class="st0" d="M68.6,150.2l-3.8,1.1c-0.5,0.1-0.7,0.7-0.4,1.1l0,0c0.2,0.3,0.5,0.4,0.8,0.3l3.7-1.4
						c0.4-0.1,0.5-0.6,0.3-0.9l0,0C69.1,150.3,68.8,150.2,68.6,150.2z"/>
					<path class="st0" d="M59.7,152.9l-15.3,4.6c-0.9,0.3-1.3,1.2-0.8,2l0,0c0.3,0.6,1,0.8,1.7,0.6l15-5.5c0.5-0.2,0.7-0.8,0.4-1.2
						c0,0,0,0,0-0.1C60.5,152.9,60.1,152.8,59.7,152.9z"/>
					<path class="st0" d="M58.2,148.8l-16.6,1c-0.9,0.1-1.5,0.9-1.3,1.8l0,0c0.2,0.7,0.8,1.1,1.5,1l16.6-2c0.5-0.1,0.8-0.6,0.7-1.1
						v-0.1C58.9,149,58.6,148.8,58.2,148.8z"/>
					<path class="st0" d="M67.7,148.2l-4.2,0.2c-0.5,0-0.8,0.5-0.7,1l0,0c0.1,0.3,0.4,0.5,0.8,0.5l4.2-0.5c0.4,0,0.6-0.4,0.5-0.8
						l0,0C68.2,148.4,68,148.2,67.7,148.2z"/>
					<path class="st0" d="M58.5,145.1L58.5,145.1c0-0.4-0.3-0.8-0.7-0.9l-17.2-3c-0.8-0.1-1.6,0.5-1.6,1.3l0,0c0,0.1,0,0.2,0,0.3
						c0,0.7,0.5,1.2,1.2,1.3l17.3,1.9c0.5,0.1,0.9-0.3,0.9-0.8C58.5,145.2,58.5,145.1,58.5,145.1z"/>
					<path class="st0" d="M67.4,145.9l-4.4-0.8c-0.5-0.1-0.9,0.3-0.9,0.8l0,0c0,0.4,0.3,0.7,0.7,0.7l4.4,0.5c0.4,0,0.7-0.3,0.7-0.7
						l0,0C67.9,146.2,67.7,146,67.4,145.9z"/>
					<path class="st0" d="M58.5,139.5L42,132.4c-0.9-0.4-1.9,0.1-2.1,1.1l0,0c-0.2,0.7,0.3,1.5,1,1.8l16.9,6.1
						c0.5,0.2,1-0.1,1.1-0.6c0-0.1,0-0.2,0.1-0.2C59.1,140.1,58.9,139.7,58.5,139.5z"/>
					<path class="st0" d="M67.8,143.5l-4.4-1.9c-0.5-0.2-1,0.1-1.1,0.6l0,0c-0.1,0.4,0.2,0.8,0.5,0.9l4.5,1.6
						c0.3,0.1,0.7-0.1,0.8-0.4v-0.1C68.2,143.9,68,143.6,67.8,143.5z"/>
					<path class="st0" d="M73.5,146.5c0.1-0.2-0.1-0.5-0.4-0.6l-1-0.4c-0.3-0.1-0.7,0.1-0.7,0.4l0,0c0,0.2,0.1,0.4,0.3,0.5l1,0.4
						C73.1,146.8,73.4,146.7,73.5,146.5z"/>
					<path class="st0" d="M68.7,141.1l-4-3c-0.4-0.3-1-0.2-1.2,0.3l0,0c-0.2,0.4,0,0.8,0.3,1l4.2,2.7c0.3,0.2,0.8,0.1,0.9-0.3l0,0
						C69.1,141.6,69,141.3,68.7,141.1z"/>
					<path class="st0" d="M74.1,145.7c0.1-0.2,0-0.5-0.2-0.7l-1.3-1c-0.3-0.2-0.7-0.1-0.8,0.2l0,0c-0.1,0.2,0,0.5,0.2,0.6l1.4,0.9
						C73.7,145.9,74,145.9,74.1,145.7z"/>
					<path class="st0" d="M60.4,134.9l-15-11.2c-0.8-0.6-1.9-0.3-2.4,0.6l0,0c-0.3,0.7-0.1,1.6,0.6,2l15.7,10.2
						c0.4,0.3,1,0.1,1.2-0.3c0-0.1,0.1-0.2,0.1-0.3C60.9,135.6,60.8,135.2,60.4,134.9z"/>
					<path class="st0" d="M63.5,130.8l-12.6-15c-0.7-0.8-1.9-0.8-2.5,0l0,0c-0.5,0.6-0.5,1.6,0.1,2.2L62,132.2
						c0.3,0.4,0.9,0.3,1.3,0c0.1-0.1,0.2-0.2,0.2-0.3C63.8,131.5,63.8,131.1,63.5,130.8z"/>
					<path class="st0" d="M74.9,145c0.2-0.2,0.2-0.5-0.1-0.8l-1.4-1.6c-0.2-0.3-0.6-0.3-0.8,0l0,0c-0.2,0.2-0.1,0.5,0,0.7l1.5,1.6
						C74.4,145.1,74.7,145.2,74.9,145z"/>
					<path class="st0" d="M70.4,139l-3.4-4.1c-0.3-0.4-1-0.4-1.3,0l0,0c-0.3,0.3-0.3,0.8,0,1.1l3.7,3.9c0.3,0.3,0.7,0.3,1,0l0,0
						C70.6,139.6,70.6,139.2,70.4,139z"/>
					<path class="st0" d="M75.8,144.6c0.2-0.1,0.3-0.5,0.1-0.7l-1.1-2.2c-0.1-0.3-0.5-0.4-0.8-0.2l0,0c-0.2,0.2-0.3,0.5-0.2,0.7
						l1.3,2.2C75.3,144.6,75.6,144.7,75.8,144.6z"/>
					<path class="st0" d="M72.6,137.3l-2.6-5.1c-0.2-0.5-0.9-0.6-1.3-0.3l0,0c-0.4,0.3-0.5,0.8-0.2,1.1l2.9,5
						c0.2,0.3,0.6,0.4,0.9,0.2l0,0C72.7,138,72.8,137.6,72.6,137.3z"/>
					<path class="st0" d="M67.6,127.2l-9.1-18.1c-0.5-0.9-1.7-1.2-2.5-0.6l0,0c-0.7,0.5-0.9,1.5-0.4,2.2l10.2,17.5
						c0.3,0.5,1,0.7,1.5,0.3l0,0C67.7,128.3,67.8,127.7,67.6,127.2z"/>
					<path class="st0" d="M76.8,144.4L76.8,144.4c0.2-0.1,0.4-0.4,0.3-0.7l-0.6-2.6c-0.1-0.3-0.4-0.5-0.7-0.4l0,0
						c-0.3,0.1-0.5,0.4-0.4,0.7l0.8,2.6C76.3,144.2,76.5,144.4,76.8,144.4z"/>
					<path class="st0" d="M72.6,125l-4.9-20.7c-0.2-1-1.3-1.6-2.3-1.2c0,0-0.1,0-0.1,0.1c-0.8,0.3-1.2,1.2-1,2l6.2,20.3
						c0.2,0.6,0.8,0.9,1.4,0.7l0,0C72.5,126,72.8,125.5,72.6,125z"/>
					<path class="st0" d="M75.3,136.4l-1.4-6c-0.1-0.5-0.7-0.8-1.2-0.6l0,0c-0.4,0.2-0.7,0.6-0.5,1.1l1.8,5.9
						c0.1,0.4,0.5,0.6,0.8,0.5l0,0C75.2,137.1,75.4,136.7,75.3,136.4z"/>
					<path class="st0" d="M77.8,144.4c0.3,0,0.5-0.3,0.4-0.6v-2.7c0-0.3-0.2-0.5-0.5-0.5l0,0c-0.3,0-0.6,0.3-0.6,0.6l0.2,2.7
						C77.3,144.1,77.5,144.4,77.8,144.4z"/>
					<path class="st0" d="M78.2,136.2v-6.6c0-0.5-0.4-0.9-1-0.9l0,0c-0.5,0-0.9,0.5-0.8,1l0.4,6.5c0,0.4,0.3,0.6,0.7,0.7l0,0
						C77.9,136.9,78.2,136.6,78.2,136.2z"/>
					<path class="st0" d="M78.2,124.1v-22.2c0-1-0.9-1.8-1.9-1.7c-0.1,0-0.1,0-0.2,0c-0.9,0.1-1.5,0.9-1.5,1.8l1.4,22.1
						c0,0.6,0.5,1,1.1,1l0,0C77.8,125.1,78.2,124.7,78.2,124.1z"/>
					<path class="st0" d="M81.1,136.8l1.6-6.7c0.1-0.5-0.2-1-0.7-1.1l0,0c-0.5-0.1-1,0.3-1,0.7l-1.2,6.8c-0.1,0.4,0.2,0.7,0.5,0.8
						l0,0C80.6,137.5,81,137.2,81.1,136.8z"/>
					<path class="st0" d="M78.8,144.6c0.3,0,0.5-0.2,0.6-0.5l0.6-2.6c0.1-0.3-0.1-0.5-0.3-0.6l0,0c-0.3-0.1-0.7,0.1-0.7,0.4
						l-0.5,2.6C78.4,144.3,78.5,144.6,78.8,144.6z"/>
					<path class="st0" d="M83.9,124.7l5.3-22.4c0.2-1-0.4-1.9-1.4-2.1c-0.1,0-0.2,0-0.3,0c-0.9-0.1-1.7,0.5-1.8,1.4l-3.9,22.6
						c-0.1,0.6,0.3,1.1,0.9,1.2l0,0C83.3,125.6,83.8,125.3,83.9,124.7z"/>
					<path class="st0" d="M83.6,138.1l3.3-6.6c0.2-0.5,0-1.1-0.5-1.3l0,0c-0.5-0.2-1,0-1.2,0.5l-2.9,6.7c-0.1,0.3,0,0.7,0.3,0.9l0,0
						C83,138.6,83.5,138.5,83.6,138.1z"/>
					<path class="st0" d="M79.7,145.1c0.2,0.1,0.5,0,0.7-0.3l1.1-2.3c0.1-0.2,0-0.5-0.2-0.7l0,0c-0.3-0.2-0.7-0.1-0.8,0.2l-1,2.4
						C79.3,144.6,79.4,145,79.7,145.1z"/>
					<path class="st0" d="M89.4,126.6l10.7-21.4c0.5-0.9,0-2-1-2.3c-0.1,0-0.2-0.1-0.4-0.1c-0.8-0.3-1.7,0.1-2.1,0.9l-9.4,22
						c-0.2,0.5,0,1.2,0.6,1.4c0,0,0,0,0.1,0C88.6,127.3,89.2,127.1,89.4,126.6z"/>
					<path class="st0" d="M80.4,145.7c0.2,0.2,0.5,0.1,0.7-0.2l1.6-1.9c0.2-0.2,0.2-0.5,0-0.7l0,0c-0.2-0.3-0.6-0.2-0.8,0l-1.5,2
						C80.2,145.2,80.2,145.6,80.4,145.7z"/>
					<path class="st0" d="M94.4,129.7l16.1-19.1c0.7-0.8,0.5-2-0.4-2.5c-0.1-0.1-0.3-0.2-0.4-0.3c-0.7-0.5-1.7-0.3-2.2,0.4
						l-14.8,20.1c-0.4,0.5-0.3,1.2,0.2,1.5l0,0C93.4,130.2,94.1,130.2,94.4,129.7z"/>
					<path class="st0" d="M85.8,140l5-6c0.4-0.4,0.3-1-0.2-1.4l0,0c-0.4-0.3-1-0.2-1.3,0.2l-4.6,6.3c-0.2,0.3-0.2,0.7,0.1,0.9l0,0
						C85.1,140.3,85.6,140.3,85.8,140z"/>
					<path class="st0" d="M98.6,134l20.7-15.4c0.9-0.7,1-2.1,0.2-2.9l0,0c-0.7-0.7-1.8-0.8-2.6-0.1l-19.7,16.7
						c-0.5,0.4-0.5,1.1-0.1,1.6l0,0C97.5,134.2,98.2,134.3,98.6,134z"/>
					<path class="st0" d="M87.5,142.3l6.6-4.9c0.4-0.3,0.5-1,0.1-1.4l0,0c-0.3-0.4-0.9-0.4-1.3-0.1l-6.3,5.3
						c-0.3,0.2-0.3,0.6-0.1,0.9l0,0C86.7,142.4,87.2,142.5,87.5,142.3z"/>
					<path class="st0" d="M81,146.5c0.2,0.2,0.5,0.2,0.8,0l1.8-1.4c0.2-0.2,0.3-0.4,0.2-0.7l0,0c-0.2-0.3-0.6-0.4-0.8-0.2l-1.8,1.5
						C80.9,146,80.9,146.3,81,146.5z"/>
					<path class="st0" d="M88.5,144.8l8.1-3.5c0.5-0.2,0.7-0.8,0.5-1.3l0,0c-0.2-0.5-0.8-0.6-1.3-0.4l-7.8,4
						c-0.3,0.2-0.5,0.5-0.3,0.8l0,0C87.8,144.8,88.2,145,88.5,144.8z"/>
					<path class="st0" d="M101.8,139.1l25.7-11.1c0.6-0.3,0.9-1,0.5-1.6c-0.3-0.5-0.6-1-1-1.6c-0.3-0.5-1-0.7-1.5-0.4L100.8,137
						c-0.6,0.3-0.8,1-0.5,1.5l0,0C100.6,139.1,101.2,139.4,101.8,139.1z"/>
					<path class="st0" d="M89,147.6l9.1-1.6c0.5-0.1,0.9-0.6,0.8-1.2l0,0c-0.1-0.5-0.6-0.8-1.2-0.7l-9,2.2c-0.3,0.1-0.5,0.4-0.5,0.7
						l0,0C88.2,147.4,88.6,147.7,89,147.6z"/>
					<path class="st0" d="M103.6,145l27.7-4.9c1.2-0.2,1.9-1.4,1.6-2.6l0,0c-0.3-1-1.4-1.6-2.4-1.4l-27.3,6.6
						c-0.6,0.1-1,0.7-0.8,1.3c0,0,0,0,0,0.1C102.5,144.7,103,145.1,103.6,145z"/>
					<path class="st0" d="M104,151.2l29.1,1.7c1.2,0.1,2.3-0.9,2.2-2.2l0,0c-0.1-1.1-1-2-2.1-2l-29.1,0.1c-0.6,0-1.1,0.5-1.1,1.1
						l0,0C102.9,150.6,103.4,151.2,104,151.2z"/>
					<path class="st0" d="M88.7,150.3l9.6,0.6c0.6,0,1-0.4,1-1l0,0c0-0.5-0.4-1-1-1h-9.6c-0.3,0-0.6,0.3-0.7,0.6l0,0
						C88.1,149.9,88.4,150.3,88.7,150.3z"/>
					<path class="st0" d="M103.1,157.4l28.8,8.6c1.2,0.4,2.5-0.4,2.7-1.7l0,0c0.2-1.1-0.5-2.1-1.6-2.4l-29.2-6.8
						c-0.6-0.1-1.3,0.2-1.4,0.9l0,0C102.1,156.6,102.5,157.2,103.1,157.4z"/>
					<path class="st0" d="M88,152.9l9.6,2.9c0.6,0.2,1.1-0.2,1.2-0.7l0,0c0.1-0.5-0.2-1-0.7-1.1l-9.7-2.3c-0.3-0.1-0.7,0.1-0.8,0.5
						l0,0C87.5,152.4,87.7,152.8,88,152.9z"/>
					<path class="st0" d="M81.5,150.3c0,0,0,0.1-0.1,0.1c-0.1,0.2,0,0.5,0.2,0.6l0,0l1.8,0.5c0.3,0.1,0.6-0.1,0.6-0.3l0,0
						c0.1-0.3-0.1-0.6-0.4-0.7l-1.8-0.4l0,0C81.7,150,81.6,150.1,81.5,150.3z"/>
					<path class="st0" d="M86.8,155.3l9,5.2c0.5,0.3,1.2,0.1,1.4-0.5l0,0c0.2-0.5,0-1-0.5-1.3l-9.3-4.6c-0.3-0.2-0.7,0-0.9,0.3l0,0
						C86.4,154.7,86.5,155.1,86.8,155.3z"/>
					<path class="st0" d="M80.9,151.3L80.9,151.3c-0.2,0.2-0.1,0.5,0.1,0.7l0,0l1.7,1c0.3,0.1,0.6,0.1,0.7-0.2l0,0
						c0.1-0.3,0-0.6-0.2-0.7l-1.8-0.9l0,0C81.2,151,81,151.1,80.9,151.3z"/>
					<path class="st0" d="M100.8,163.4l26.9,15.5c1.2,0.7,2.6,0.1,3.1-1.1l0,0c0.4-1-0.1-2.2-1.1-2.7l-27.8-13.8
						c-0.6-0.3-1.3,0-1.6,0.6l0,0C100.1,162.4,100.3,163.1,100.8,163.4z"/>
					<path class="st0" d="M85.2,157.5l7.9,7.5c0.5,0.4,1.2,0.3,1.5-0.2l0,0c0.3-0.4,0.2-1-0.2-1.4l-8.4-7c-0.3-0.2-0.7-0.2-0.9,0.1
						l0,0C84.9,156.8,84.9,157.2,85.2,157.5z"/>
					<path class="st0" d="M97.3,168.9l23.5,22.2c1,0.9,2.6,0.8,3.4-0.4l0,0c0.6-0.9,0.4-2.2-0.4-2.9l-24.9-20.7
						c-0.5-0.4-1.3-0.3-1.7,0.2l0,0C96.8,167.8,96.9,168.5,97.3,168.9z"/>
					<path class="st0" d="M80.2,152L80.2,152c-0.2,0.2-0.2,0.5,0,0.7l0,0l1.6,1.5c0.2,0.2,0.6,0.2,0.8-0.1l0,0
						c0.2-0.2,0.1-0.6-0.1-0.7l-1.7-1.4l0,0C80.6,151.9,80.3,151.9,80.2,152z"/>
					<path class="st0" d="M83.1,159.3l6.3,9.5c0.4,0.5,1.1,0.6,1.6,0.2l0,0c0.4-0.4,0.4-1,0.1-1.4l-6.9-9.1
						c-0.2-0.3-0.7-0.4-0.9-0.1l0,0C83,158.6,82.9,159,83.1,159.3z"/>
					<path class="st0" d="M92.6,173.8l18.5,28.1c0.8,1.2,2.5,1.4,3.5,0.4l0,0c0.8-0.8,1-2.1,0.3-3.1l-20.2-26.9
						c-0.4-0.6-1.3-0.7-1.8-0.2l0,0C92.4,172.6,92.3,173.3,92.6,173.8z"/>
					<path class="st0" d="M79.3,152.7L79.3,152.7c-0.2,0.1-0.3,0.4-0.1,0.6l1.3,1.9c0.2,0.3,0.6,0.3,0.8,0.1l0,0
						c0.2-0.2,0.3-0.5,0.1-0.7l-1.4-1.8C79.8,152.6,79.5,152.6,79.3,152.7z"/>
					<path class="st0" d="M80.6,160.7l4.1,11.3c0.2,0.6,1,0.9,1.6,0.6l0,0c0.5-0.3,0.7-0.9,0.4-1.4l-4.8-11
						c-0.2-0.4-0.6-0.5-0.9-0.3h-0.1C80.6,160.1,80.5,160.4,80.6,160.7z"/>
					<path class="st0" d="M86.8,177.6l12,33c0.5,1.4,2.1,2,3.4,1.2l0,0c1-0.6,1.4-1.9,1-3l-14.1-32.2c-0.3-0.7-1.1-1-1.8-0.6l0,0
						C86.8,176.4,86.5,177,86.8,177.6z"/>
					<path class="st0" d="M78.4,153.3L78.4,153.3c-0.2,0.1-0.3,0.3-0.3,0.6c0.2,0.6,0.5,1.7,0.8,2.5c0.1,0.3,0.5,0.5,0.8,0.3l0,0
						c0.3-0.1,0.4-0.4,0.3-0.7c-0.3-0.6-0.7-1.8-1-2.4C78.9,153.3,78.6,153.2,78.4,153.3z"/>
					<path class="st0" d="M76.9,154.2l0.3,2.7c0,0.4,0.4,0.6,0.8,0.5l0,0c0.3-0.1,0.4-0.4,0.4-0.6l-0.5-2.6c0-0.3-0.3-0.4-0.6-0.4
						l0,0C77,153.7,76.9,153.9,76.9,154.2z"/>
					<path class="st0" d="M79.9,180.1l4.2,36.2c0.2,1.5,1.7,2.5,3.1,2l0,0c1.2-0.4,1.9-1.5,1.7-2.8l-6.5-35.8
						c-0.1-0.7-0.9-1.2-1.6-1l0,0C80.3,178.9,79.9,179.5,79.9,180.1z"/>
					<path class="st0" d="M78.4,160.9h-0.1c-0.3,0.1-0.5,0.4-0.5,0.7l1.5,12.5c0.1,0.7,0.8,1.1,1.4,0.9l0,0c0.5-0.2,0.9-0.7,0.8-1.3
						l-2.2-12.3C79.2,161.1,78.8,160.8,78.4,160.9z"/>
					<path class="st0" d="M84.4,146.1c-0.1-0.3-0.5-0.5-0.8-0.3l-1.9,1c-0.2,0.1-0.4,0.4-0.4,0.6v0.1c0.1,0.2,0.4,0.3,0.7,0.2l0,0
						l1.9-0.8C84.4,146.7,84.5,146.4,84.4,146.1L84.4,146.1z"/>
					<path class="st0" d="M84.6,147.9c0-0.3-0.3-0.6-0.6-0.5l-1.8,0.4h-0.1c-0.3,0.1-0.5,0.3-0.5,0.6c0,0.2,0.2,0.3,0.4,0.3
						c0.1,0,0.2,0,0.2,0l2-0.3C84.5,148.4,84.7,148.1,84.6,147.9L84.6,147.9z"/>
					<path class="st0" d="M82.1,149H82c-0.3,0-0.5,0.2-0.5,0.4l0,0c0,0.1,0.1,0.3,0.2,0.3c0.1,0.1,0.2,0.1,0.4,0.1l1.9,0.1
						c0.3,0,0.5-0.2,0.5-0.4l0,0c0.1-0.3-0.2-0.6-0.5-0.6L82.1,149z"/>
					<path class="st0" d="M81.2,150.4c0,0.1,0,0.2,0,0.3c0.1-0.2,0.2-0.4,0.3-0.6C81.4,150.1,81.3,150.2,81.2,150.4z"/>
					<path class="st0" d="M72.7,227.4c0.1-1.5-1.1-2.7-2.6-2.7c-0.2,0-0.4,0-0.6,0c-1.2,0-2.3,1-2.4,2.2l-0.6,4.8
						c-0.2,1.8,1.2,3.3,2.9,3.3l0,0c1.6,0,2.9-1.2,3-2.8L72.7,227.4z"/>
					<path class="st0" d="M66.3,179.3L66.3,179.3c-0.7-0.1-1.3,0.2-1.6,0.9l-18.6,51c-0.7,1.9,0.7,4,2.8,4h0.3
						c1.3,0,2.5-0.9,2.8-2.1l15.3-52C67.6,180.2,67.1,179.4,66.3,179.3z"/>
					<path class="st0" d="M58.8,177.1L58.8,177.1c-0.7-0.3-1.4,0-1.7,0.5l-34.3,52.2c-1.5,2.3,0.1,5.3,2.8,5.3l0,0
						c1.2,0,2.3-0.7,3-1.7l31-54.3C59.9,178.4,59.6,177.4,58.8,177.1z"/>
					<path class="st0" d="M120,206c-0.9-1.2-2.7-1.4-3.8-0.3l0,0c-0.9,0.8-1.1,2.2-0.4,3.2l16.1,24.5c0.6,1,1.7,1.6,2.9,1.6l0,0
						c2.9,0,4.5-3.3,2.8-5.6L120,206z"/>
					<path class="st0" d="M106.5,216.4c-0.6-1.3-2.1-1.8-3.3-1.1c-0.2,0.1-0.3,0.2-0.5,0.3c-1,0.6-1.4,1.8-1.1,2.9l5.3,14.7
						c0.4,1.2,1.5,1.9,2.8,1.9h0.4c2.1,0,3.6-2.2,2.7-4.1L106.5,216.4z"/>
					<path class="st0" d="M90.5,223.9c-0.3-1.5-1.9-2.4-3.3-1.8c-1.3,0.2-2.2,1.4-2.1,2.7l0.9,7.7c0.2,1.5,1.4,2.6,2.9,2.6l0,0
						c1.8,0,3.2-1.7,2.9-3.5L90.5,223.9z"/>
					<path class="st0" d="M122.6,110.7c-0.8,0.7-0.9,2-0.2,2.8c0.1,0.1,0.2,0.3,0.4,0.4c0.7,0.7,1.8,0.8,2.5,0.2l29.3-21.8
						c0.8-0.6,1.3-1.6,1.3-2.7l0,0c0-2.8-3.3-4.4-5.5-2.5L122.6,110.7z"/>
					<path class="st0" d="M131.8,121.3c-1.1,0.6-1.6,2-0.9,3.1l0,0c0.6,1,1.8,1.3,2.8,0.9l20.5-8.8c1.1-0.5,1.8-1.5,1.8-2.7l0,0
						c0-2.2-2.3-3.6-4.3-2.6L131.8,121.3z"/>
					<path class="st0" d="M138.1,134.3c-1.3,0.3-2,1.6-1.6,2.9l0,0c0.3,1.1,1.4,1.8,2.6,1.6l14.7-2.6c1.3-0.2,2.2-1.4,2.2-2.7v-0.1
						c0-1.8-1.6-3.1-3.4-2.6L138.1,134.3z"/>
					<path class="st0" d="M141.1,148.7c-1.3,0-2.4,1.1-2.3,2.4l0,0c0.1,1.2,1,2.1,2.2,2.2l12.1,0.7c1.6,0.1,2.9-1.1,2.9-2.7l0,0
						c0-1.5-1.2-2.7-2.7-2.7L141.1,148.7z"/>
					<path class="st0" d="M140.7,163.7c-1.3-0.3-2.6,0.6-2.9,1.9l0,0c-0.2,1.2,0.5,2.3,1.6,2.6l13,3.9c1.7,0.5,3.5-0.8,3.5-2.6v-0.2
						c0-1.3-0.9-2.4-2.1-2.6L140.7,163.7z"/>
					<path class="st0" d="M137.1,178.7c-1.3-0.6-2.8,0-3.3,1.3c0,0,0,0,0,0.1c-0.4,1.1,0,2.4,1,3l17.1,9.9c1.8,1,4.1-0.3,4.1-2.3
						v-0.8c0-1-0.6-2-1.5-2.4L137.1,178.7z"/>
					<path class="st0" d="M130.2,193.1c-1.1-0.9-2.8-0.7-3.6,0.5l0,0c-0.7,1-0.5,2.4,0.3,3.2l23.2,21.9c2.2,2.1,5.9,0.5,5.9-2.5l0,0
						c0-1-0.5-2-1.3-2.7L130.2,193.1z"/>
					<path class="st0" d="M54.6,105.1L54.6,105.1c0.8-0.6,1-1.6,0.6-2.4L35.3,63c-0.6-1.1-1.7-1.8-3-1.8l0,0c-2.6,0-4.2,2.8-2.9,5
						l22.4,38.3C52.4,105.5,53.7,105.7,54.6,105.1z"/>
					<path class="st0" d="M64.8,99.5C64.9,99.5,64.9,99.5,64.8,99.5c0.9-0.4,1.4-1.3,1.2-2.3l-8-33.8c-0.3-1.3-1.5-2.3-2.9-2.3H55
						c-2,0-3.4,1.9-2.9,3.9l10.1,33.2C62.6,99.3,63.8,99.9,64.8,99.5z"/>
					<path class="st0" d="M76.4,96.7C76.4,96.7,76.5,96.7,76.4,96.7c1-0.1,1.8-1,1.8-2V64.2c0-1.6-1.3-3-3-3l0,0
						c-1.7,0-3.1,1.5-3,3.2l1.9,30.5C74.3,95.9,75.3,96.8,76.4,96.7z"/>
					<path class="st0" d="M88.7,96.8L88.7,96.8c1.1,0.1,2-0.5,2.3-1.5l7.2-30.4c0.5-1.9-1-3.7-3-3.7l0,0c-1.5,0-2.7,1.1-3,2.5
						l-5.3,30.7C86.7,95.6,87.5,96.7,88.7,96.8z"/>
					<path class="st0" d="M100.9,99.7L100.9,99.7c1,0.4,2.1-0.1,2.6-1L120,65.9c1.1-2.2-0.5-4.7-2.9-4.7l0,0c-1.3,0-2.5,0.8-3,2
						L99.7,97C99.2,98,99.7,99.3,100.9,99.7z"/>
					<path class="st0" d="M112.4,105.3L112.4,105.3c0.9,0.6,2.1,0.4,2.8-0.4l31.6-37.7c2-2.4,0.3-6.1-2.8-6.1l0,0
						c-1.2,0-2.3,0.6-3,1.5l-29.2,39.6C111.1,103.3,111.4,104.7,112.4,105.3z"/>
					<g>
						<path class="st0" d="M73.1,147.4c0-0.3-0.2-0.5-0.5-0.5l-0.4-0.1c-0.4-0.1-0.6,0.3-0.5,0.6l0,0c0.1,0.2,0.2,0.3,0.4,0.3h0.4
							C72.8,147.8,73.1,147.6,73.1,147.4z"/>
						<path class="st0" d="M72.5,147.9c-0.3,0-0.5,0.2-0.4,0.5l0,0c0,0.1,0.1,0.3,0.3,0.3l0.3,0.1c0.3,0,0.5-0.1,0.5-0.4
							c0-0.2-0.1-0.4-0.4-0.4C72.8,147.9,72.5,147.9,72.5,147.9z"/>
						<circle class="st0" cx="72.8" cy="149.3" r="0.4"/>
					</g>
					<g>
						<path class="st0" d="M51.6,173.2C51.5,173.2,51.5,173.2,51.6,173.2c-0.6-0.4-1.4-0.3-1.9,0.1L7,213.6c-0.7,0.6-1,1.5-1,2.4
							l0,0c0,3,3.7,4.5,5.8,2.3l40.1-42.9C52.4,174.7,52.3,173.7,51.6,173.2z"/>
						<path class="st0" d="M44.8,169.8c0.8-0.5,0.9-1.6,0.3-2.3l0,0c-0.5-0.5-1.3-0.6-1.9-0.3L7.3,187.9c-0.9,0.5-1.4,1.4-1.4,2.5
							l0,0c0,2.3,2.5,3.6,4.4,2.4L44.8,169.8z"/>
						<path class="st0" d="M39.1,162.4c0.9-0.3,1.3-1.4,0.9-2.2l0,0c-0.4-0.7-1.1-1-1.8-0.8l-30.4,9.1c-1.1,0.3-1.8,1.3-1.8,2.4v0.2
							c0,1.7,1.7,2.9,3.4,2.3L39.1,162.4z"/>
						<path class="st0" d="M35.1,153.4c1-0.1,1.6-1.1,1.4-2l0,0c-0.2-0.8-0.9-1.3-1.7-1.2l-26.6,1.5c-1.3,0.1-2.3,1.2-2.3,2.5l0,0
							c0,1.5,1.3,2.7,2.8,2.5L35.1,153.4z"/>
						<path class="st0" d="M33.6,143.4c1,0.1,1.9-0.7,1.9-1.7l0,0c0-0.8-0.6-1.5-1.4-1.7l-25.3-4.5c-1.5-0.3-2.9,0.9-2.9,2.5l0,0
							c0,1.3,1,2.3,2.2,2.5L33.6,143.4z"/>
						<path class="st0" d="M34.5,132.9c1,0.4,2-0.2,2.3-1.2l0,0c0.2-0.8-0.2-1.7-1-2L9.4,118.3c-1.6-0.7-3.5,0.5-3.5,2.3v0.4
							c0,1.1,0.7,2,1.7,2.3L34.5,132.9z"/>
						<path class="st0" d="M37.8,122.5c0.9,0.6,2.1,0.3,2.6-0.7l0,0c0.4-0.8,0.2-1.7-0.5-2.2L10.6,97.8c-2-1.5-4.7-0.1-4.7,2.4l0,0
							c0,1,0.5,1.9,1.3,2.5L37.8,122.5z"/>
						<path class="st0" d="M43.6,112.8c0.8,0.8,2,0.8,2.8-0.1l0,0c0.6-0.7,0.6-1.7,0-2.4L12.2,69.6c-2.1-2.5-6.3-1-6.3,2.3l0,0
							c0,0.9,0.4,1.8,1,2.4L43.6,112.8z"/>
					</g>
				</g>
			</g>
		</g>
		<g>
			<g>
				<path class="st1" d="M182.1,179.3h9.8v33.3h15.6l-0.4,7.9h-25V179.3z"/>
				<path class="st1" d="M243.5,203.5H229v9.1h18.4v7.9h-28.2v-41.2h27.7v7.9H229v8.3h14.5V203.5z"/>
				<path class="st1" d="M291.2,196.2v21.3c0,0-6.1,3.7-14.2,3.7c-9.5,0-19.8-5-19.8-21.3c0-14.5,10.1-21.2,19.7-21.2
					s14.2,3.6,14.2,3.6l-1.8,8.1c0,0-4.5-3.3-11.2-3.3c-8,0-11,6.7-11,12.8c0,10.4,6.9,12.8,10.8,12.8c1.9,0,4.3-0.4,4.3-0.4v-8.6
					H274l0.5-7.5L291.2,196.2L291.2,196.2z"/>
				<path class="st1" d="M327.6,213.4h-14.4l-2.1,7.2H301l14.3-41.2H326l14.9,41.2H330L327.6,213.4z M320.1,188.7l-4.5,16.7h9.5
					L320.1,188.7z"/>
				<path class="st1" d="M364.5,220.6h-12.3v-41.2h12.3c14.7,0,22.7,8.3,22.7,20.2C387.2,211.1,379.6,220.6,364.5,220.6z
					 M365.9,212.4c5.9,0,11.4-4.4,11.4-12.9c0-5.5-2.8-12-11.5-12H362v24.9H365.9z"/>
				<path class="st1" d="M418.5,178.7c14.2,0,20.5,9.6,20.5,21.2c0,11.7-7.5,21.2-20.5,21.2c-14.4,0-20.5-9.5-20.5-21.2
					C398,188.3,405.4,178.7,418.5,178.7z M418.5,212.8c7,0,10.6-5.7,10.6-12.8s-4.1-12.8-10.6-12.8c-6.9,0-10.6,5.8-10.6,12.8
					C407.9,207.1,412.1,212.8,418.5,212.8z"/>
				<g>
					<path class="st1" d="M508.8,188.1c5.4,0,8.5,1.9,8.5,1.9l-0.5,3.4c0,0-3.4-1.7-8-1.7c-5.9,0-11.5,4.1-11.5,12.8
						c0,7.2,4.2,13,11.6,13c4.7,0,8.2-2.1,8.2-2.1l0.4,3.3c0,0-3.3,2.6-8.6,2.6c-8.9,0-15.6-6-15.6-16.8
						C493.2,195.4,499.4,188.1,508.8,188.1z"/>
					<path class="st1" d="M536.7,188.1c9.6,0,15.2,7.6,15.2,16.5c0,8.4-5.3,16.7-15.2,16.7c-10.2,0-15.2-8.3-15.2-16.7
						C521.5,196.3,527,188.1,536.7,188.1z M536.8,217.6c6.6-0.1,11-5.3,11-12.9c0-9.3-5.7-12.9-11-12.9c-6.1,0-11.2,4.3-11.2,12.9
						C525.6,212.7,530.9,217.7,536.8,217.6z"/>
					<path class="st1" d="M562.2,191.6v29.2h-3.5v-32.2h6.1l9.9,23.3l9.4-23.3h6.3v32.2h-3.9v-29.2l-10,24.3h-4L562.2,191.6z"/>
					<path class="st1" d="M599.5,188.5h4v32.2h-4V188.5z"/>
					<path class="st1" d="M627.9,193.2c0,0-3-1.8-7-1.8c-3.6,0-6.6,1.8-6.6,4.8c0,6,15.1,7.2,15.1,16.2c0,5.1-4.6,8.9-10.9,8.9
						c-5.2,0-8.7-2.3-8.7-2.3l0.8-3.3c0,0,3.7,2.2,8,2.2c3.6,0,6.8-1.8,6.9-5c0.1-6.5-15.1-7.7-15.1-16.4c0-5,4.8-8.4,10.4-8.4
						c5.2,0,8,1.8,8,1.8L627.9,193.2z"/>
					<path class="st1" d="M636.4,188.5h4v32.2h-4V188.5z"/>
					<path class="st1" d="M662.4,188.1c9.6,0,15.2,7.6,15.2,16.5c0,8.4-5.3,16.7-15.2,16.7c-10.2,0-15.2-8.3-15.2-16.7
						C647.3,196.3,652.7,188.1,662.4,188.1z M662.5,217.6c6.6-0.1,11-5.3,11-12.9c0-9.3-5.7-12.9-11-12.9c-6.1,0-11.2,4.3-11.2,12.9
						C651.3,212.7,656.7,217.7,662.5,217.6z M663,178.7h4.5l-5.7,7.3h-3.3L663,178.7z"/>
					<path class="st1" d="M684.4,188.5h6.4l15.4,29.4v-29.4h3.6v32.2h-6.4L688,191.3v29.5h-3.6V188.5z"/>
					<path class="st1" d="M739.4,220.8H731v-32.2h8.6c11.6,0,16.3,7.9,16.3,16.3C756,214.1,749.9,220.8,739.4,220.8z M739.5,217.3
						c7.4,0,12.4-4.7,12.4-12.5c0-8.4-5.2-12.8-12.1-12.8h-4.7v25.3H739.5z"/>
					<path class="st1" d="M779.5,206h-12.6v11.3h15.7v3.5h-19.7v-32.2H782v3.5h-15.1v10.6h12.6V206z"/>
					<path class="st1" d="M801,188.5h4v28.8h13.6l-0.2,3.5H801V188.5z"/>
					<path class="st1" d="M840.3,211.6h-13.1l-3,9.1h-4l10.9-32.2h5l11.7,32.2h-4.4L840.3,211.6z M833.5,192.1l-5.2,16.2h10.9
						L833.5,192.1z"/>
					<path class="st1" d="M885.2,188.5h4.3l-11.7,32.2h-5.1L861,188.5h4.6l9.8,28.7L885.2,188.5z"/>
					<path class="st1" d="M911.1,206h-12.6v11.3h15.7v3.5h-19.7v-32.2h19.1v3.5h-15.1v10.6h12.6V206z"/>
					<path class="st1" d="M920.4,220.8v-32.2h9.7c7.6,0,10.8,3.9,10.8,9.2c0,6-5.7,8.7-5.7,8.7l7.7,14.3h-4.7l-6.8-13.2h-7v13.2
						H920.4z M924.4,192v12.3h8c0,0,4.4-1.4,4.4-6.5c0-3.7-2.7-5.8-6.8-5.8H924.4z"/>
					<path class="st1" d="M957.8,220.8h-8.4v-32.2h8.6c11.6,0,16.3,7.9,16.3,16.3C974.3,214.1,968.3,220.8,957.8,220.8z
						 M957.8,217.3c7.4,0,12.4-4.7,12.4-12.5c0-8.4-5.2-12.8-12.1-12.8h-4.7v25.3H957.8z"/>
					<path class="st1" d="M997.2,211.6h-13.1l-3,9.1h-4l10.9-32.2h5l11.7,32.2h-4.4L997.2,211.6z M990.4,192.1l-5.2,16.2h10.9
						L990.4,192.1z"/>
					<path class="st1" d="M1018.1,220.8h-8.4v-32.2h8.6c11.6,0,16.3,7.9,16.3,16.3C1034.7,214.1,1028.6,220.8,1018.1,220.8z
						 M1018.2,217.3c7.4,0,12.4-4.7,12.4-12.5c0-8.4-5.2-12.8-12.1-12.8h-4.7v25.3H1018.2z"/>
				</g>
				<g>
					<rect x="461.6" y="170.1" class="st1" width="8" height="59.7"/>
				</g>
			</g>
			<g>
				<path class="st0" d="M180.7,81h20.5v74.1h-20.5V81z"/>
				<path class="st0" d="M218.9,81h25.7l20.8,45.7V81h20v74.1h-25l-21.5-45.7v45.7h-20V81z"/>
				<path class="st0" d="M348.6,129.1h-24.9v26.1h-20.5V81h50.6v16.9h-30.1v14h24.9V129.1z"/>
				<path class="st0" d="M397.1,79.7c25.3,0,38.2,17.1,38.2,38.4c0,21.4-13.2,38.5-38.2,38.5c-26.1,0-38.2-17.1-38.2-38.5
					C358.9,96.8,372.5,79.7,397.1,79.7z M397.1,137.2c10.2,0,16.3-8.3,16.3-19.2c0-10.7-6.5-19-16.3-19s-16.3,8.3-16.3,19
					C380.8,128.9,387.1,137.2,397.1,137.2z"/>
				<path class="st0" d="M448.2,155.2V81h28.7c19.9,0,30.3,9.1,30.3,26.3c0,8-6,15.9-13.5,18.9l15.4,29h-23l-11.4-24.5h-5.9v24.5
					L448.2,155.2L448.2,155.2z M468.8,98.3v17.5h6.5c6.9,0,10.1-4.8,10.1-9s-2.3-8.6-9.4-8.6L468.8,98.3L468.8,98.3z"/>
				<path class="st0" d="M578.8,81h27.1v74.1h-20.5v-46.7L571.3,145h-15.2L542,108.4v46.7h-20.5V81h27.1l15.2,39.7L578.8,81z"/>
				<path class="st0" d="M670.2,126.3h-26.1v12h32.5v16.9h-53.1V81h51.8v16.9H644v11.4h26.1L670.2,126.3L670.2,126.3z"/>
				<path class="st0" d="M770.6,129.1h-24.9v26.1h-20.5V81h50.6v16.9h-30.1v14h24.9V129.1z"/>
				<path class="st0" d="M785.8,81h20.5v74.1h-20.5V81z"/>
				<path class="st0" d="M824.1,81h25.7l20.8,45.7V81h20v74.1h-25l-21.5-45.7v45.7h-20V81z"/>
				<path class="st0" d="M950.3,142.8h-24.1l-3.5,12.4h-22.3L924.5,81H952l24.1,74.1h-22.3L950.3,142.8z M938.2,98l-7.5,28.3h15.1
					L938.2,98z"/>
				<path class="st0" d="M1006.5,138.3h27.9v16.9h-48.6V81h20.7V138.3z"/>
			</g>
		</g>
	</g>
</g>
</svg>
