<svg width="36" height="36" viewBox="0 0 36 36" fill="none" xmlns="http://www.w3.org/2000/svg">
<circle cx="18" cy="18" r="18" fill="#FAD601"/>
<path d="M21.6 18.7C21.5 18.6 21.3 18.6 21.2 18.7L19.3 20.3C19.2 20.4 19.1 20.3 19.1 20.2L19.5 16.5C19.6 15.9 19.1 15.4 18.5 15.4C17.9 15.4 17.4 15.9 17.4 16.5L17.8 20.3C17.8 20.4 17.7 20.5 17.6 20.4L15.7 18.8C15.6 18.7 15.4 18.7 15.3 18.8C15.2 18.9 15.2 19.1 15.3 19.3L18.1 22C18.2 22.1 18.3 22.1 18.4 22.1C18.5 22.1 18.6 22.1 18.7 22L21.5 19.3C21.7 19 21.7 18.8 21.6 18.7Z" fill="#223A73"/>
<path d="M15.6 24.3C15.3 24.3 15.2 24.1 15.2 23.8C15.2 23.6 15.4 23.4 15.6 23.4H21.2C21.7 23.4 22 24 21.7 24.4C21.6 24.5 21.4 24.6 21.2 24.6L15.6 24.3Z" fill="#223A73"/>
<path d="M22.7 9C22.4 8.8 22.1 8.7 21.8 8.7L11.6 8.5C11.3 8.5 11 8.9 11 9.3L10.8 27.3C10.8 27.6 10.9 28 11.1 28.2C11.3 28.4 11.4 28.5 11.6 28.5H25.3H25.4C25.7 28.4 25.9 28.1 25.9 27.7L26 12.4C26 11.9 25.8 11.4 25.4 11.1L22.7 9ZM12.6 26.8L12.3 9.6H21.1V12.2C21.1 12.5 21.2 12.9 21.4 13.1C21.6 13.3 21.7 13.4 21.9 13.4H24.7L24.9 26.8H12.6ZM24.6 11.9H22.3V9.6L24.6 11.9Z" fill="#223A73"/>
</svg>
