<svg width="13" height="16" viewBox="0 0 13 16" fill="none" xmlns="http://www.w3.org/2000/svg">
<path d="M12.9 14.3L9.10001 9.79999C9.00001 9.69999 8.10001 8.69999 8.10001 7.79999C8.10001 6.79999 9.00001 5.79999 9.10001 5.69999L12.9 1.09999C13.1 0.799994 13.1 0.499994 12.9 0.199994C12.6 -0.200006 12.1 -0.200006 11.8 0.199994L6.50001 5.69999L1.30001 0.199994C1.00001 -0.100006 0.500012 -0.100006 0.200012 0.199994C1.22041e-05 0.499994 1.22041e-05 0.899994 0.200012 1.09999L3.90001 5.69999C4.00001 5.79999 4.90001 6.79999 4.90001 7.69999C4.90001 8.69999 4.00001 9.69999 3.90001 9.79999L0.100012 14.3C-0.0999878 14.6 -0.0999878 14.9 0.100012 15.2C0.400012 15.6 0.900012 15.6 1.20001 15.2L6.40001 9.69999L11.6 15.2C11.9 15.5 12.4 15.5 12.7 15.2C13.1 15 13.1 14.5 12.9 14.3Z" fill="white"/>
</svg>
