<svg width="82" height="82" viewBox="0 0 82 82" fill="none" xmlns="http://www.w3.org/2000/svg">
<path d="M41 82C63.6437 82 82 63.6437 82 41C82 18.3563 63.6437 0 41 0C18.3563 0 0 18.3563 0 41C0 63.6437 18.3563 82 41 82Z" fill="#323138"/>
<path d="M23.4 59.3C23.4 59.1 23.4 58.9 23.4 58.7C23.4 50.5 23.4 42.2 23.4 34C23.4 31.6 24.1 29.5 25.6 27.6C27.2 25.5 29.4 24.1 31.9 23.1C36.2 21.4 40.6 21.1 45 21.9C47.6 22.3 50.1 23.2 52.3 24.6C55.9 26.9 57.8 30.1 57.8 34.5C57.7 42.6 57.8 50.6 57.8 58.7C57.8 58.8 57.8 59 57.8 59.2C57.9 59.1 57.9 59.1 58 59.1C59.6 57.5 61 55.8 62.1 53.8C62.2 53.7 62.2 53.5 62.2 53.3C62.2 47.1 62.2 41 62.2 34.8C62.2 31.3 61.1 28.2 59.1 25.3C56.8 22 53.6 19.9 49.9 18.5C45.8 17 41.5 16.5 37.1 17.1C33.6 17.5 30.3 18.6 27.3 20.5C22 23.9 19.1 28.8 19.1 35.2C19.1 41.2 19.1 47.2 19.1 53.3C19.1 53.5 19.2 53.7 19.2 53.8C20.3 55.7 21.7 57.4 23.2 59C23.2 59.2 23.2 59.2 23.4 59.3ZM25.7 41.2C25.7 41.3 25.7 41.4 25.7 41.5C25.7 47.9 25.7 54.4 25.7 60.8C25.7 61.8 26 62.3 26.8 62.7C27.6 63.1 28.3 63.1 29 62.7C29.7 62.3 30.1 61.8 30.1 60.9C30.1 59.2 30.1 57.5 30.1 55.9C30.1 51.8 30.1 47.7 30.1 43.6C30.1 42.4 29.4 41.4 28.2 41.3C27.4 41.1 26.5 41.2 25.7 41.2ZM55.3 41.2C54.4 41.2 53.6 41.1 52.8 41.2C51.7 41.3 50.9 42.3 50.9 43.4C50.9 49.3 50.9 55.1 50.9 61C50.9 61.3 51 61.6 51.1 61.8C51.6 62.7 53.2 63.4 54.3 62.6C54.5 62.4 54.7 62.3 54.9 62.2C55.2 62.1 55.3 61.9 55.3 61.5C55.3 54.8 55.3 48.2 55.3 41.5C55.3 41.5 55.3 41.3 55.3 41.2Z" fill="#BD9B3A"/>
<path d="M23.4 59.3C23.3 59.2 23.2 59.1 23.1 59.1C21.5 57.6 20.2 55.8 19.1 53.9C19 53.7 19 53.5 19 53.4C19 47.4 19 41.4 19 35.3C19 28.9 21.9 24 27.2 20.6C30.2 18.7 33.5 17.6 37 17.2C41.4 16.7 45.6 17.1 49.8 18.6C53.5 20 56.7 22.1 59 25.4C61 28.2 62.1 31.4 62.1 34.9C62.1 41.1 62.1 47.2 62.1 53.4C62.1 53.6 62.1 53.8 62 53.9C60.9 55.9 59.5 57.6 57.9 59.2C57.9 59.2 57.8 59.2 57.7 59.3C57.7 59.1 57.7 59 57.7 58.8C57.7 50.7 57.6 42.7 57.7 34.6C57.7 30.2 55.8 27 52.2 24.7C50 23.2 47.5 22.4 44.9 22C40.4 21.2 36 21.5 31.8 23.2C29.3 24.2 27.2 25.6 25.5 27.7C24.1 29.6 23.3 31.7 23.3 34.1C23.3 42.3 23.3 50.6 23.3 58.8C23.4 58.9 23.4 59.1 23.4 59.3Z" fill="#BD9B3A"/>
<path d="M25.7 41.2C26.6 41.2 27.4 41.1 28.2 41.2C29.3 41.3 30.1 42.3 30.1 43.5C30.1 47.6 30.1 51.7 30.1 55.8C30.1 57.5 30.1 59.2 30.1 60.8C30.1 61.6 29.7 62.2 29 62.6C28.3 63 27.6 63.1 26.8 62.6C26 62.2 25.7 61.6 25.7 60.7C25.8 54.3 25.7 47.8 25.7 41.4C25.7 41.4 25.7 41.3 25.7 41.2Z" fill="#BD9B3A"/>
<path d="M55.3 41.2C55.3 41.3 55.3 41.5 55.3 41.6C55.3 48.3 55.3 54.9 55.3 61.6C55.3 61.9 55.2 62.1 54.9 62.3C54.7 62.4 54.5 62.6 54.3 62.7C53.2 63.5 51.6 62.9 51.1 61.9C51.1 61.6 51 61.3 51 61C51 55.1 51 49.3 51 43.4C51 42.3 51.8 41.3 52.9 41.2C53.6 41.1 54.5 41.2 55.3 41.2Z" fill="#BD9B3A"/>
</svg>
