<?xml version="1.0" encoding="utf-8"?>
<!-- Generator: Adobe Illustrator 25.1.0, SVG Export Plug-In . SVG Version: 6.00 Build 0)  -->
<svg version="1.1" id="Capa_1" xmlns="http://www.w3.org/2000/svg" xmlns:xlink="http://www.w3.org/1999/xlink" x="0px" y="0px"
	 viewBox="0 0 190.7 185" style="enable-background:new 0 0 190.7 185;" xml:space="preserve">
<style type="text/css">
	.st0{fill:#DFDCD7;}
	.st1{opacity:0.8;}
	.st2{fill:#FFFFFF;}
	.st3{fill:#629389;}
</style>
<g id="a">
</g>
<g id="b">
	<g id="c">
		<g>
			<path class="st0" d="M4.1,0h182.5c2.3,0,4.1,1.8,4.1,4.1v176.8c0,2.3-1.8,4.1-4.1,4.1H4.1c-2.3,0-4.1-1.8-4.1-4.1V4.1
				C0,1.8,1.8,0,4.1,0z"/>
			<g class="st1">
				<polygon class="st2" points="21.2,126.2 18,131.2 20.3,132.2 21.7,137.2 23.1,137.2 26.3,145.4 27.2,147.7 28.1,150.4 34,155.4 
					38.1,160.9 59.6,160 61.9,156.7 66.5,155.1 67.4,151.8 72.4,146.8 76.1,142.7 82.9,142.2 86.1,139 91.6,144 93.4,146.8 
					92.9,149.5 94.8,151.3 94.3,153.2 92,154.1 92,157.7 93.4,160 95.7,160.5 97.5,157.3 98.4,159.6 96.6,162.3 96.6,165.9 
					98.4,170.1 101.2,170.5 108.9,162.3 109.4,159.6 108.9,156.4 111.7,154.5 111.7,150 110.3,143.6 110.3,141.3 112.1,139.9 
					113.5,144 115.3,145.9 115.3,147.2 113.5,148.6 113.5,150.4 116.7,150.9 120.3,153.2 123.1,149.5 122.6,146.8 124.9,144.5 
					121.7,141.3 121.7,138.6 123.5,133.5 122.6,131.2 121.2,132.2 121.2,134 119.9,135.8 118.5,134 119.9,132.2 117.6,128.1 
					121.2,123.9 120.8,118.9 121.2,114.3 123.1,113.9 122.6,112.5 124.9,111.2 126.7,105.2 129.5,103.4 132.7,96.5 132.3,91.5 
					133.6,87.9 134,81 138.6,74.2 139.1,71 143.2,67.3 144.5,63.2 150.9,62.3 157.3,49 168.7,46.3 174.2,44.5 174.7,42.2 
					178.8,39.9 179.7,37.6 176.1,31.7 168.7,28.5 164.6,28.5 164.2,30.8 162.1,31.9 160.3,30.6 158,32.8 159.8,33.3 160.8,35.1 
					158,36.5 156.6,35.6 157.6,34.2 152.5,34.7 153,36 153.9,37.9 150.7,43.3 143.4,47 137.9,48.4 133.4,52.5 130.6,53.4 
					124.2,58.9 111,59.3 106.4,57 101.8,58.4 100.5,61.6 101.4,64.8 100,65.7 97.3,72.6 95.4,73 94.5,71.2 91.3,72.1 91.8,68.9 
					94.5,69.8 94.5,67.6 96.8,67.1 85.4,63.4 80.4,67.6 80.4,68.9 74.9,71.7 74.9,72.6 75.8,73 75.4,73.9 71.2,74.8 68.5,77.1 
					68.5,79.9 67.1,81.2 68.5,82.6 68.1,84.4 65.3,85.8 63.5,88.6 64.9,89 67.6,85.8 68.5,86.3 66.7,89.5 66.2,94.5 64.9,98.1 
					63.5,100 65.8,100.4 66.7,101.3 66.7,104.1 65.3,106.8 62.6,107.7 60.8,107.7 60.8,106.4 58,106.8 53.9,109.1 53,110.9 
					51.6,111.4 51.2,114.1 49.3,115.9 49.3,118.2 47.5,119.6 44.8,120.1 44.3,121.4 42,123.7 39.7,124.2 38.8,126.4 33.3,127.8 
					32,129.6 33.8,130.1 36.1,133.3 36.5,137.9 37.5,142 36.5,146.1 33.8,146.1 32,144.7 32.9,142.4 34.7,143.4 34.7,140.1 
					32.4,140.1 32,138.3 30.6,136.5 28.8,136.5 27,132.9 23.8,131 				"/>
			</g>
			<g>
				<path class="st3" d="M16.3,30l-1.4-2.9h-1V30H12V22h3.1c2,0,3,0.9,3,2.5c0,1-0.9,1.9-1.5,2l1.9,3.5H16.3L16.3,30z M13.9,23.5
					v2.1h0.8c1.1,0,1.4-0.6,1.4-1.1c0-0.7-0.5-1-1.3-1H13.9L13.9,23.5z"/>
				<path class="st3" d="M20.9,27.4c0.1,0.6,0.7,1.1,1.5,1.1c1,0,1.8-0.4,1.8-0.4l0.2,1.6c0,0-0.9,0.6-2.2,0.6c-1.9,0-3.3-1-3.3-3.1
					c0-2,1.2-3.3,3-3.3c1.9,0,2.6,1.3,2.6,2.6c0,0.5-0.1,1.1-0.1,1.1L20.9,27.4L20.9,27.4z M22.7,26.4c0.1-0.7-0.2-1.1-0.8-1.1
					c-0.6,0-1,0.5-1,1.2L22.7,26.4L22.7,26.4z"/>
				<path class="st3" d="M31.2,23.8v1.6l-1.1-0.1c0.1,0.1,0.2,0.4,0.2,0.6c0,0.7-0.3,2.2-2.5,2.2c-0.1,0-0.3,0-0.4,0
					c0,0-0.1,0.1-0.1,0.2s0.2,0.2,0.6,0.2c1.6,0,2.9,0.4,2.9,1.8c0,1.2-1.1,2.3-3,2.3c-1.5,0-2.7-0.6-2.7-1.9c0-0.9,1.2-1.6,1.2-1.6
					c-0.4-0.2-0.5-0.4-0.5-0.9l0.4-0.5c-0.6-0.3-1-1-1-1.8c0-1.1,0.7-2.3,2.5-2.3c0.6,0,1.3,0.2,1.3,0.2L31.2,23.8L31.2,23.8z
					 M27.4,30c0,0-0.4,0.2-0.4,0.6s0.4,0.7,1,0.7s1-0.3,1-0.7c0-0.3-0.4-0.5-1-0.5C27.7,30,27.4,30,27.4,30z M27.1,25.9
					c0,0.5,0.3,0.8,0.8,0.8s0.8-0.4,0.8-0.9c0-0.6-0.3-0.8-0.8-0.8S27.1,25.4,27.1,25.9z"/>
				<path class="st3" d="M33.9,22.1c0,0.6-0.3,1-1,1s-1-0.4-1-1c0-0.6,0.3-1,1-1S33.9,21.5,33.9,22.1z M33.9,23.8H32v4.4
					c0,0.8,0.1,1.9,1.6,1.9c0.7,0,1.2-0.4,1.2-0.4l-0.1-1.2c0,0-0.2,0.1-0.5,0.1c-0.2,0-0.3-0.1-0.3-0.5L33.9,23.8L33.9,23.8z"/>
				<path class="st3" d="M38.2,23.7c2.3,0,3.1,1.4,3.1,3.2s-1.2,3.2-3.1,3.2c-2.2,0-3.1-1.4-3.1-3.2S36.3,23.7,38.2,23.7L38.2,23.7z
					 M38.3,20.7H40l-1.6,2H37C37,22.8,38.3,20.7,38.3,20.7z M38.3,28.6c0.7,0,1.2-0.7,1.2-1.6c0-1.1-0.3-1.8-1.2-1.8
					c-0.7,0-1.2,0.5-1.2,1.6S37.4,28.7,38.3,28.6L38.3,28.6z"/>
				<path class="st3" d="M42.4,23.8h1.1l0.3,0.5c0,0,0.9-0.6,2.1-0.6c1.8,0,2.1,1,2.1,2.1V30h-1.9v-3.9c0-0.6-0.2-0.9-0.8-0.9
					s-1,0.3-1,0.3V30h-1.9C42.4,30,42.4,23.8,42.4,23.8z"/>
				<path class="st3" d="M56.1,21.9c1.6,0,2.5,0.5,2.5,0.5L58.2,24c0,0-0.7-0.5-1.9-0.5c-1,0-2.2,0.6-2.2,2.5c0,2.1,1.5,2.5,2.1,2.5
					c1.2,0,2-0.6,2-0.6l0.3,1.6c0,0-0.9,0.7-2.5,0.7s-3.9-0.8-3.9-4.2C52.2,23.5,53.9,21.8,56.1,21.9L56.1,21.9z"/>
				<path class="st3" d="M59.6,24.2c0,0,1.1-0.5,2.3-0.5c2.2,0,2.7,1.1,2.7,2.8v1.9c0,0.2,0.1,0.4,0.3,0.4c0.3,0,0.5-0.1,0.5-0.1
					l0.1,1.2c0,0-0.6,0.4-1.4,0.4c-0.7,0-1-0.5-1.1-1c0,0-0.7,1-2,1c-0.8,0-1.8-0.4-1.8-1.7c0-2,2.9-2,3.5-2c0-0.7-0.3-1.1-1.1-1.1
					c-1,0-2,0.5-2,0.5L59.6,24.2L59.6,24.2z M62.7,27.4c-0.8,0-1.5,0.2-1.5,0.7c0,0.3,0.2,0.6,0.6,0.6c0.5,0,0.9-0.4,0.9-0.4V27.4
					L62.7,27.4z"/>
				<path class="st3" d="M66.2,23.8h1.1l0.5,0.9c0.5-0.7,1.2-1,1.7-1s0.7,0.1,0.7,0.1l-0.1,1.6c0,0-0.3-0.1-0.7-0.1
					c-0.7,0-1.2,0.5-1.2,0.5V30h-1.9V23.8z"/>
				<path class="st3" d="M72.9,22.1c0,0.6-0.3,1-1,1s-1-0.4-1-1c0-0.6,0.3-1,1-1S72.9,21.5,72.9,22.1z M72.8,23.8h-1.9v4.4
					c0,0.8,0.1,1.9,1.6,1.9c0.7,0,1.2-0.4,1.2-0.4l-0.1-1.2c0,0-0.2,0.1-0.5,0.1c-0.2,0-0.3-0.1-0.3-0.5V23.8L72.8,23.8z"/>
				<path class="st3" d="M76.3,24c0,0,0.5-0.4,1.4-0.4c1,0,2.7,0.5,2.7,3.2c0,2.1-1.5,3.3-3.3,3.3c-1.5,0-2.8-0.6-2.8-0.6v-8.8h1.9
					L76.3,24L76.3,24z M76.3,28.5c0,0,0.4,0.1,0.8,0.1c0.7,0,1.3-0.5,1.3-1.8c0-1-0.5-1.6-1.2-1.6c-0.5,0-0.9,0.2-0.9,0.2
					C76.3,25.5,76.3,28.5,76.3,28.5z"/>
				<path class="st3" d="M83.1,27.4c0.1,0.6,0.7,1.1,1.5,1.1c1,0,1.8-0.4,1.8-0.4l0.2,1.6c0,0-0.9,0.6-2.2,0.6c-1.9,0-3.3-1-3.3-3.1
					c0-2,1.2-3.3,3-3.3c1.9,0,2.7,1.3,2.7,2.6c0,0.5-0.1,1.1-0.1,1.1L83.1,27.4L83.1,27.4z M84.9,26.4c0.1-0.7-0.2-1.1-0.8-1.1
					c-0.6,0-1,0.5-1,1.2L84.9,26.4L84.9,26.4z"/>
			</g>
			<path class="st3" d="M150.2,68.5c-4,0-7.3-3.3-7.3-7.3s3.3-7.3,7.3-7.3s7.3,3.3,7.3,7.3S154.3,68.5,150.2,68.5z M150.2,55.8
				c-2.9,0-5.3,2.4-5.3,5.3s2.4,5.3,5.3,5.3s5.3-2.4,5.3-5.3S153.2,55.8,150.2,55.8z"/>
			<path class="st3" d="M105.2,78.5c-4,0-7.3-3.3-7.3-7.3s3.3-7.3,7.3-7.3s7.3,3.3,7.3,7.3S109.3,78.5,105.2,78.5z M105.2,65.8
				c-2.9,0-5.3,2.4-5.3,5.3s2.4,5.3,5.3,5.3s5.3-2.4,5.3-5.3S108.2,65.8,105.2,65.8z"/>
			<path class="st3" d="M67.2,94.5c-4,0-7.3-3.3-7.3-7.3s3.3-7.3,7.3-7.3s7.3,3.3,7.3,7.3S71.3,94.5,67.2,94.5z M67.2,81.8
				c-2.9,0-5.3,2.4-5.3,5.3s2.4,5.3,5.3,5.3s5.3-2.4,5.3-5.3S70.2,81.8,67.2,81.8z"/>
			<path class="st3" d="M120.2,135.5c-4,0-7.3-3.3-7.3-7.3s3.3-7.3,7.3-7.3s7.3,3.3,7.3,7.3C127.5,132.2,124.3,135.5,120.2,135.5z
				 M120.2,122.8c-2.9,0-5.3,2.4-5.3,5.3s2.4,5.3,5.3,5.3s5.3-2.4,5.3-5.3S123.2,122.8,120.2,122.8z"/>
		</g>
	</g>
</g>
</svg>
