<?xml version="1.0" encoding="utf-8"?>
<!-- Generator: Adobe Illustrator 25.1.0, SVG Export Plug-In . SVG Version: 6.00 Build 0)  -->
<svg version="1.1" id="Capa_1" xmlns="http://www.w3.org/2000/svg" xmlns:xlink="http://www.w3.org/1999/xlink" x="0px" y="0px"
	 viewBox="0 0 190.7 185" style="enable-background:new 0 0 190.7 185;" xml:space="preserve">
<style type="text/css">
	.st0{fill:#DFDCD7;}
	.st1{opacity:0.8;}
	.st2{fill:#FFFFFF;}
	.st3{fill:#629389;}
</style>
<g id="a">
</g>
<g id="b">
	<g id="c">
		<g>
			<path class="st0" d="M4.1,0h182.5c2.3,0,4.1,1.8,4.1,4.1v176.8c0,2.3-1.8,4.1-4.1,4.1H4.1c-2.3,0-4.1-1.8-4.1-4.1V4.1
				C0,1.8,1.8,0,4.1,0z"/>
			<g class="st1">
				<polygon class="st2" points="21.2,126.2 18,131.2 20.3,132.2 21.7,137.2 23.1,137.2 26.3,145.4 27.2,147.7 28.1,150.4 34,155.4 
					38.1,160.9 59.6,160 61.9,156.7 66.5,155.1 67.4,151.8 72.4,146.8 76.1,142.7 82.9,142.2 86.1,139 91.6,144 93.4,146.8 
					92.9,149.5 94.8,151.3 94.3,153.2 92,154.1 92,157.7 93.4,160 95.7,160.5 97.5,157.3 98.4,159.6 96.6,162.3 96.6,165.9 
					98.4,170.1 101.2,170.5 108.9,162.3 109.4,159.6 108.9,156.4 111.7,154.5 111.7,150 110.3,143.6 110.3,141.3 112.1,139.9 
					113.5,144 115.3,145.9 115.3,147.2 113.5,148.6 113.5,150.4 116.7,150.9 120.3,153.2 123.1,149.5 122.6,146.8 124.9,144.5 
					121.7,141.3 121.7,138.6 123.5,133.5 122.6,131.2 121.2,132.2 121.2,134 119.9,135.8 118.5,134 119.9,132.2 117.6,128.1 
					121.2,123.9 120.8,118.9 121.2,114.3 123.1,113.9 122.6,112.5 124.9,111.2 126.7,105.2 129.5,103.4 132.7,96.5 132.3,91.5 
					133.6,87.9 134,81 138.6,74.2 139.1,71 143.2,67.3 144.5,63.2 150.9,62.3 157.3,49 168.7,46.3 174.2,44.5 174.7,42.2 
					178.8,39.9 179.7,37.6 176.1,31.7 168.7,28.5 164.6,28.5 164.2,30.8 162.1,31.9 160.3,30.6 158,32.8 159.8,33.3 160.8,35.1 
					158,36.5 156.6,35.6 157.6,34.2 152.5,34.7 153,36 153.9,37.9 150.7,43.3 143.4,47 137.9,48.4 133.4,52.5 130.6,53.4 
					124.2,58.9 111,59.3 106.4,57 101.8,58.4 100.5,61.6 101.4,64.8 100,65.7 97.3,72.6 95.4,73 94.5,71.2 91.3,72.1 91.8,68.9 
					94.5,69.8 94.5,67.6 96.8,67.1 85.4,63.4 80.4,67.6 80.4,68.9 74.9,71.7 74.9,72.6 75.8,73 75.4,73.9 71.2,74.8 68.5,77.1 
					68.5,79.9 67.1,81.2 68.5,82.6 68.1,84.4 65.3,85.8 63.5,88.6 64.9,89 67.6,85.8 68.5,86.3 66.7,89.5 66.2,94.5 64.9,98.1 
					63.5,100 65.8,100.4 66.7,101.3 66.7,104.1 65.3,106.8 62.6,107.7 60.8,107.7 60.8,106.4 58,106.8 53.9,109.1 53,110.9 
					51.6,111.4 51.2,114.1 49.3,115.9 49.3,118.2 47.5,119.6 44.8,120.1 44.3,121.4 42,123.7 39.7,124.2 38.8,126.4 33.3,127.8 
					32,129.6 33.8,130.1 36.1,133.3 36.5,137.9 37.5,142 36.5,146.1 33.8,146.1 32,144.7 32.9,142.4 34.7,143.4 34.7,140.1 
					32.4,140.1 32,138.3 30.6,136.5 28.8,136.5 27,132.9 23.8,131 				"/>
			</g>
			<g>
				<path class="st3" d="M12,22h1.9v6.5H17L16.9,30H12L12,22L12,22z"/>
				<path class="st3" d="M18,24.2c0,0,1.1-0.5,2.3-0.5c2.2,0,2.7,1.1,2.7,2.8v1.9c0,0.2,0.1,0.4,0.3,0.4c0.3,0,0.5-0.1,0.5-0.1
					l0.1,1.2c0,0-0.6,0.4-1.4,0.4c-0.7,0-1-0.5-1.1-1c0,0-0.7,1-2,1c-0.9,0-1.8-0.4-1.8-1.7c0-2,2.9-2,3.5-2c0-0.7-0.3-1.1-1.1-1.1
					c-1,0-2,0.5-2,0.5L18,24.2L18,24.2z M21.1,27.4c-0.8,0-1.5,0.2-1.5,0.7c0,0.3,0.2,0.6,0.6,0.6c0.5,0,0.9-0.4,0.9-0.4V27.4
					L21.1,27.4z"/>
				<path class="st3" d="M30.8,27.5c0,1.6-0.9,2.6-2.3,2.6c-0.8,0-1.3-0.3-1.3-0.3l0.1-1.5c0,0,0.4,0.2,0.9,0.2
					c0.4,0,0.7-0.4,0.7-0.8V22h1.9L30.8,27.5L30.8,27.5z"/>
				<path class="st3" d="M32.4,24.2c0,0,1.1-0.5,2.3-0.5c2.2,0,2.7,1.1,2.7,2.8v1.9c0,0.2,0.1,0.4,0.3,0.4c0.3,0,0.5-0.1,0.5-0.1
					l0.1,1.2c0,0-0.6,0.4-1.4,0.4c-0.7,0-1-0.5-1.1-1c0,0-0.7,1-2,1c-0.8,0-1.8-0.4-1.8-1.7c0-2,2.9-2,3.5-2c0-0.7-0.3-1.1-1.1-1.1
					c-1,0-2,0.5-2,0.5L32.4,24.2L32.4,24.2z M35.5,27.4c-0.8,0-1.5,0.2-1.5,0.7c0,0.3,0.2,0.6,0.6,0.6c0.5,0,0.9-0.4,0.9-0.4V27.4
					L35.5,27.4z"/>
				<path class="st3" d="M44.6,23.8v1.6l-1.1-0.1c0.1,0.1,0.2,0.4,0.2,0.6c0,0.7-0.3,2.2-2.5,2.2c-0.1,0-0.3,0-0.4,0
					c0,0-0.1,0.1-0.1,0.2s0.2,0.2,0.6,0.2c1.6,0,2.9,0.4,2.9,1.8c0,1.2-1.1,2.3-3,2.3c-1.5,0-2.7-0.6-2.7-1.9c0-0.9,1.2-1.6,1.2-1.6
					c-0.4-0.2-0.5-0.4-0.5-0.9l0.4-0.5c-0.7-0.3-1-1-1-1.8c0-1.1,0.7-2.3,2.5-2.3c0.6,0,1.3,0.2,1.3,0.2L44.6,23.8L44.6,23.8z
					 M40.7,30c0,0-0.4,0.2-0.4,0.6s0.4,0.7,1,0.7s1-0.3,1-0.7c0-0.3-0.4-0.5-1-0.5C41,30,40.7,30,40.7,30z M40.4,25.9
					c0,0.5,0.3,0.8,0.8,0.8s0.8-0.4,0.8-0.9c0-0.6-0.3-0.8-0.8-0.8S40.4,25.4,40.4,25.9z"/>
				<path class="st3" d="M50.8,30h-1.1l-0.3-0.5c0,0-1.1,0.6-2.1,0.6c-1.6,0-2-1-2-2.1v-4.2h1.9v3.9c0,0.6,0.2,0.9,0.7,0.9
					c0.5,0,1-0.3,1-0.3v-4.5h1.9V30z"/>
				<path class="st3" d="M52.3,24.2c0,0,1.1-0.5,2.3-0.5c2.2,0,2.7,1.1,2.7,2.8v1.9c0,0.2,0.1,0.4,0.3,0.4c0.3,0,0.5-0.1,0.5-0.1
					l0.1,1.2c0,0-0.6,0.4-1.4,0.4c-0.7,0-1-0.5-1.1-1c0,0-0.7,1-2,1c-0.8,0-1.8-0.4-1.8-1.7c0-2,2.9-2,3.5-2c0-0.7-0.3-1.1-1.1-1.1
					c-1,0-2,0.5-2,0.5L52.3,24.2L52.3,24.2z M55.4,27.4c-0.8,0-1.5,0.2-1.5,0.7c0,0.3,0.2,0.6,0.6,0.6c0.5,0,0.9-0.4,0.9-0.4V27.4
					L55.4,27.4z"/>
				<path class="st3" d="M67.7,30h-1.1l-0.3-0.5c0,0-0.8,0.6-1.9,0.6c-1.4,0-2.7-1-2.7-3.2c0-2,1.3-3.3,3.1-3.3
					c0.5,0,1.1,0.2,1.1,0.2v-3.1h1.9L67.7,30L67.7,30z M65.8,25.3c0,0-0.3-0.2-0.8-0.2c-0.7,0-1.3,0.6-1.3,1.7s0.5,1.6,1.2,1.6
					c0.6,0,0.9-0.2,0.9-0.2S65.8,25.3,65.8,25.3z"/>
				<path class="st3" d="M70.7,27.4c0.1,0.6,0.7,1.1,1.5,1.1c1,0,1.8-0.4,1.8-0.4l0.2,1.6c0,0-0.9,0.6-2.2,0.6c-1.9,0-3.3-1-3.3-3.1
					c0-2,1.2-3.3,3-3.3c1.9,0,2.7,1.3,2.7,2.6c0,0.5-0.1,1.1-0.1,1.1L70.7,27.4L70.7,27.4z M72.5,26.3c0.1-0.7-0.2-1.1-0.8-1.1
					c-0.6,0-1,0.5-1,1.2L72.5,26.3L72.5,26.3z"/>
				<path class="st3" d="M78.7,22h1.9V30h-1.9C78.7,30,78.7,22,78.7,22z"/>
				<path class="st3" d="M84.1,24c0,0,0.5-0.4,1.4-0.4c1,0,2.7,0.5,2.7,3.2c0,2.1-1.5,3.3-3.3,3.3c-1.5,0-2.8-0.6-2.8-0.6v-8.8h1.9
					L84.1,24L84.1,24z M84.1,28.5c0,0,0.4,0.1,0.8,0.1c0.7,0,1.3-0.5,1.3-1.8c0-1-0.5-1.6-1.2-1.6c-0.5,0-0.9,0.2-0.9,0.2
					C84.1,25.5,84.1,28.5,84.1,28.5z"/>
				<path class="st3" d="M91.2,22.1c0,0.6-0.3,1-1,1s-1-0.4-1-1c0-0.6,0.3-1,1-1S91.2,21.5,91.2,22.1z M91.2,23.8h-1.9v4.4
					c0,0.8,0.1,1.9,1.6,1.9c0.7,0,1.2-0.4,1.2-0.4L92,28.5c0,0-0.2,0.1-0.5,0.1c-0.2,0-0.3-0.1-0.3-0.5V23.8L91.2,23.8z"/>
				<path class="st3" d="M92.8,23.8h1.1l0.5,0.9c0.5-0.7,1.2-1,1.7-1s0.7,0.1,0.7,0.1l-0.1,1.6c0,0-0.3-0.1-0.7-0.1
					c-0.7,0-1.2,0.5-1.2,0.5V30h-1.9V23.8z"/>
				<path class="st3" d="M99.5,22.1c0,0.6-0.3,1-1,1s-1-0.4-1-1c0-0.6,0.3-1,1-1S99.5,21.5,99.5,22.1z M99.4,23.8h-1.9v4.4
					c0,0.8,0.1,1.9,1.6,1.9c0.7,0,1.2-0.4,1.2-0.4l-0.1-1.2c0,0-0.2,0.1-0.5,0.1c-0.2,0-0.3-0.1-0.3-0.5V23.8L99.4,23.8z"/>
				<path class="st3" d="M103.9,23.7c1.1,0,1.7,0.4,1.7,0.4l-0.2,1.7c0,0-0.6-0.4-1.3-0.4s-1.4,0.5-1.4,1.6c0,1.2,0.8,1.6,1.5,1.6
					s1.3-0.5,1.3-0.5l0.2,1.7c0,0-0.7,0.5-1.8,0.5c-1.1,0-3.1-0.5-3.1-3.2C100.7,25,102,23.7,103.9,23.7L103.9,23.7z"/>
				<path class="st3" d="M109.3,23.7c2.3,0,3.1,1.4,3.1,3.2s-1.2,3.2-3.1,3.2c-2.2,0-3.1-1.4-3.1-3.2S107.4,23.7,109.3,23.7
					L109.3,23.7z M109.3,28.6c0.7,0,1.2-0.7,1.2-1.6c0-1.1-0.3-1.8-1.2-1.8c-0.7,0-1.2,0.5-1.2,1.6S108.5,28.7,109.3,28.6
					L109.3,28.6z"/>
				<path class="st3" d="M15.5,36.5c1.3,0,2.1,0.5,2.1,0.5l-0.1,0.8c0,0-0.8-0.4-1.9-0.4c-1.4,0-2.8,1-2.8,3.1c0,1.7,1,3.2,2.8,3.2
					c1.1,0,2-0.5,2-0.5l0.1,0.8c0,0-0.8,0.6-2.1,0.6c-2.2,0-3.8-1.5-3.8-4.1C11.7,38.3,13.2,36.5,15.5,36.5L15.5,36.5z"/>
				<path class="st3" d="M19.5,41.7c0,0.9,0.6,2,2,2c0.9,0,1.7-0.4,1.7-0.4l0.1,0.7c0,0-0.7,0.5-2,0.5c-1.7,0-2.8-1.2-2.8-3.1
					s1.2-3.2,2.8-3.2s2.2,1,2.2,2.1c0,0.7-0.1,1.3-0.1,1.3L19.5,41.7L19.5,41.7z M22.5,41c0,0,0-0.2,0-0.5c0-0.4-0.2-1.4-1.4-1.4
					c-0.9,0-1.6,1-1.6,1.9L22.5,41L22.5,41z"/>
				<path class="st3" d="M28.4,39.4c0,0-0.7-0.3-1.5-0.3c-0.8,0-1.2,0.4-1.2,0.8c0,1.2,3,1.1,3,3c0,0.9-0.7,1.8-2.3,1.8
					c-1,0-1.8-0.4-1.8-0.4l0.1-0.8c0,0,0.9,0.4,1.7,0.4c1,0,1.3-0.5,1.3-0.8c0-1.3-3-1.1-3-3c0-0.9,0.8-1.7,2.1-1.7
					c1,0,1.6,0.3,1.6,0.3L28.4,39.4L28.4,39.4z"/>
				<path class="st3" d="M30.2,38.7c0,0,0.9-0.4,2-0.4c1.9,0,2.2,1,2.2,2.7v2.2c0,0.5,0.1,0.7,0.8,0.6l0,0.7c0,0-0.3,0.2-0.7,0.2
					c-0.6,0-0.9-0.3-1-0.8c0,0-0.7,0.8-1.9,0.8c-1,0-1.7-0.6-1.7-1.5c0-1.6,1.6-1.9,3.6-1.9c0-1.1,0-2-1.4-2c-0.9,0-1.8,0.4-1.8,0.4
					L30.2,38.7L30.2,38.7z M33.4,41.8c-1.5,0.1-2.6,0.2-2.6,1.1c0,0.5,0.5,0.9,1,0.9c0.9,0,1.6-0.7,1.6-0.7V41.8z"/>
				<path class="st3" d="M39.5,39.3c0,0-0.2-0.1-0.6-0.1c-0.9,0-1.6,0.8-1.6,0.8v4.5h-1v-6H37l0.3,0.9c0,0,0.7-1,1.8-1
					c0.4,0,0.6,0.1,0.6,0.1L39.5,39.3L39.5,39.3z"/>
			</g>
			<path class="st3" d="M120.2,134.5c-4,0-7.3-3.3-7.3-7.3s3.3-7.3,7.3-7.3s7.3,3.3,7.3,7.3S124.3,134.5,120.2,134.5z M120.2,121.8
				c-2.9,0-5.3,2.4-5.3,5.3s2.4,5.3,5.3,5.3s5.3-2.4,5.3-5.3S123.2,121.8,120.2,121.8z"/>
		</g>
	</g>
</g>
</svg>
