<?xml version="1.0" encoding="utf-8"?>
<!-- Generator: Adobe Illustrator 24.2.0, SVG Export Plug-In . SVG Version: 6.00 Build 0)  -->
<!DOCTYPE svg PUBLIC "-//W3C//DTD SVG 1.1//EN" "http://www.w3.org/Graphics/SVG/1.1/DTD/svg11.dtd" [
	<!ENTITY ns_extend "http://ns.adobe.com/Extensibility/1.0/">
	<!ENTITY ns_ai "http://ns.adobe.com/AdobeIllustrator/10.0/">
	<!ENTITY ns_graphs "http://ns.adobe.com/Graphs/1.0/">
	<!ENTITY ns_vars "http://ns.adobe.com/Variables/1.0/">
	<!ENTITY ns_imrep "http://ns.adobe.com/ImageReplacement/1.0/">
	<!ENTITY ns_sfw "http://ns.adobe.com/SaveForWeb/1.0/">
	<!ENTITY ns_custom "http://ns.adobe.com/GenericCustomNamespace/1.0/">
	<!ENTITY ns_adobe_xpath "http://ns.adobe.com/XPath/1.0/">
]>
<svg version="1.1" id="Layer_1" xmlns:x="&ns_extend;" xmlns:i="&ns_ai;" xmlns:graph="&ns_graphs;"
	 xmlns="http://www.w3.org/2000/svg" xmlns:xlink="http://www.w3.org/1999/xlink" x="0px" y="0px" viewBox="0 0 27 27"
	 style="enable-background:new 0 0 27 27;" xml:space="preserve">
<style type="text/css">
	.st0{fill:#5e636e;}
</style>
<metadata>
	<sfw  xmlns="&ns_sfw;">
		<slices></slices>
		<sliceSourceBounds  bottomLeftOrigin="true" height="21.2" width="19.8" x="3.6" y="2.9"></sliceSourceBounds>
	</sfw>
</metadata>
<g>
	<g>
		<path class="st0" d="M14.2,23.9l8.8-9.4c0.3-0.2,0.4-0.7,0.4-1s-0.2-0.7-0.4-1l-8.8-9.3c-0.4-0.4-1.1-0.4-1.5,0l0,0
			c-0.3,0.3-0.3,0.8,0,1.3l5.2,6.2c0.1,0.2,1.3,1.5,1.3,2.9c0,1.3-1.1,2.7-1.3,2.8l-5.2,6.2c-0.3,0.3-0.3,0.8,0,1.3l0,0
			C13.1,24.2,13.9,24.2,14.2,23.9z"/>
		<path class="st0" d="M5.4,23.9l8.8-9.4c0.3-0.2,0.4-0.7,0.4-1s-0.2-0.7-0.4-1L5.4,3.2C5,2.8,4.3,2.8,3.9,3.2l0,0
			C3.6,3.5,3.6,4,3.9,4.5L9,10.6c0.1,0.2,1.3,1.5,1.3,2.9c0,1.3-1.1,2.7-1.3,2.8l-5.2,6.2c-0.3,0.3-0.3,0.8,0,1.3l0,0
			C4.3,24.2,4.9,24.2,5.4,23.9z"/>
	</g>
</g>
</svg>
