<?xml version="1.0" encoding="utf-8"?>
<!-- Generator: Adobe Illustrator 24.2.0, SVG Export Plug-In . SVG Version: 6.00 Build 0)  -->
<svg version="1.1" id="Layer_1" xmlns="http://www.w3.org/2000/svg" xmlns:xlink="http://www.w3.org/1999/xlink" x="0px" y="0px"
	 viewBox="0 0 27 27" style="enable-background:new 0 0 27 27;" xml:space="preserve">
	 <style type="text/css">
	.st0{fill:#223a73;}
</style>
<g>
	<path class="st0" d="M5.3,9.9L5.3,9.9L5.3,9.9 M4.6,11.2c0-0.2,0.2-0.3,0.3-0.2l5.9,3.3c0.2,0.1,0.3,0.2,0.3,0.4l0,5.8
		c0,0.4-0.4,0.6-0.7,0.4l-4.8-2.2c-0.2-0.1-0.3-0.2-0.3-0.4L4.6,11.2z M3.9,9.3c-0.3,0-0.4,0.2-0.4,0.6c0,2.8,0,5.7,0,8.5
		c0,0.9,0.4,1.6,1.2,1.9c2.4,1.1,4.8,2.2,7.3,3.4c0.1,0.1,0.3,0.1,0.4,0.1c0.3,0,0.4-0.2,0.4-0.6c0-1.5,0-3,0-4.4c0-1.5,0-2.9,0-4.4
		c0-0.7-0.3-1.2-0.9-1.5c-2.5-1.2-5.1-2.3-7.6-3.5C4.2,9.3,4,9.3,3.9,9.3L3.9,9.3z"/>
	<path class="st0" d="M22.1,11.1c0.1-0.1,0.2,0,0.2,0.1c-0.1,1.1-0.6,5.4-0.6,7.1c0,0.2,0,0.3-0.3,0.4l-5.2,2.4
		c-0.2,0.1-0.3,0-0.3-0.2l0-6.3c0-0.1,0.1-0.2,0.1-0.2L22.1,11.1z M23.1,9.3c-0.1,0-0.2,0-0.4,0.1c-2.5,1.2-5,2.3-7.6,3.5
		c-0.6,0.3-0.9,0.7-0.9,1.4c0,1.5,0,2.9,0,4.4c0,1.5,0,3,0,4.5c0,0.3,0.1,0.5,0.3,0.5c0,0,0.1,0,0.1,0c0.1,0,0.3,0,0.4-0.1
		c2.4-1.1,4.8-2.2,7.2-3.3c0.9-0.4,1.3-1.1,1.3-2c0-2.8,0-5.6,0-8.4C23.5,9.5,23.4,9.3,23.1,9.3L23.1,9.3z"/>
	<path class="st0" d="M22,7.6c-0.1-0.1-0.1-0.2-0.3-0.2c-2.2-1.3-4.5-2.5-6.7-3.8c-0.5-0.3-1.1-0.3-1.7-0.1C12.1,4,10.8,4.6,9.5,5.2
		C8.2,5.8,6.9,6.4,5.6,7C5.3,7.1,5.2,7.2,5.3,7.4c0,0,0,0,0,0.1c0.1,0.1,0.2,0.2,0.3,0.2c2.1,1.2,4.2,2.4,6.4,3.6
		c0.8,0.4,1.5,0.5,2.4,0.1c2.4-1.1,4.9-2.2,7.3-3.3C22,7.9,22.1,7.8,22,7.6z M19.9,7.8c-1,0.4-5,1.7-6.5,2.4c-0.2,0.1-0.3,0.1-0.5,0
		L8.4,7.6c-0.1-0.1-0.1-0.3,0-0.3l5.5-2.5c0.1,0,0.2,0,0.3,0L20,7.6C20.1,7.7,20,7.8,19.9,7.8z"/>
</g>
</svg>
