<?xml version="1.0" encoding="utf-8"?>
<!-- Generator: Adobe Illustrator 26.0.2, SVG Export Plug-In . SVG Version: 6.00 Build 0)  -->
<svg version="1.1" id="Layer_1" xmlns="http://www.w3.org/2000/svg" xmlns:xlink="http://www.w3.org/1999/xlink" x="0px" y="0px"
	 viewBox="0 0 320.5 439.4" style="enable-background:new 0 0 320.5 439.4;" xml:space="preserve">
<style type="text/css">
	.st0{fill-rule:evenodd;
        clip-rule:evenodd;
        fill:#84A6A5;
        stroke:#1C303A;
        stroke-width:0.75;
        stroke-linecap:round;
        stroke-linejoin:round;
        stroke-miterlimit:10;
        transition:all 0.7s ease;
    }
    
</style>
<g id="regiones">
	<path id="magdalenamedio" class="st0" d="M122.1,90.8c1.1,0.3,1.5,1.1,2.6,0.8c1-0.4-0.8,1-1,0.1c-0.6,0.2-1.6,0.4-2-0.2
		c-0.2-0.6-2-0.9,0.1-0.9L122.1,90.8z M138.3,89.8c0.6,0.1,1.5,0.4,1.8,0.7c-0.1,1.3-0.2,3.5-0.1,4.5c0.4-0.3,0.2,0.7,0.5,0.5
		c-0.1,0.8-0.5,2.4-0.6,2.4c-1.3-0.2-1.7,0.7-2.8,1c0,0.7-0.3,1.4,0.6,1.2c0.5,0.1,1,0.1,1.5,0.3c0.4-0.2,2.4,0.5,1.9-0.3
		c0.5,0,1-0.8,0.9-1.7c0.3-1.2,1.5-1,2.1-1.4c0.3,0.6,0.4-0.4,1.5-0.2c1,0.1,1.4-1.5,1.6,0.2c0.1,0.8-1.8,0.9-1.6,2.2
		c-1,0.1-1.1,1.7-2,2.6c-0.3,0.8,1,1.5,0.8,2c-0.6,0.1-1,0.7-1.4,0.6c-0.1,0.5,0.1,0.2,0.4,0.6c0.3,0.5,2.4-0.5,2.2,1
		c-0.5,0.5-0.9,1.4-1.4,1.7c0.7-0.4,1.8,0.2,1.8,0.7c0.2,0.7,0.8,0.1,0.8-0.3c0.8,0.1,1-0.6,0.7-1.2c-0.6-0.8-0.1-1.8,1.2-1
		c0.8,0.8-0.1,2.1,0.1,3.2c-1.3,0.3,0.1,1.9-1.3,2.3c-0.1,0.6-0.5,1.5-0.8,2.2c-0.4,1.2,1.8,1.1,1.6,2.4c-0.3,1,0.2,1.7,1.2,1.4
		c0.9,0,0.5,1,1.2,0.8c0.4,1-0.4,1.5-0.7,2c-0.4,0.1-1.5,0.1-1.2,1.1c0.1,0.8,0.5,2-0.7,2.6c-0.7,1-0.8,1.7-2.2,2.1
		c-0.7,1-1.3-0.1-1.7-0.4c-0.7-0.1-1.1-1.2-2.1-1c-0.7-0.2-0.6-0.1-0.1,0.3c0.5,0.3,0.5,1.2,1.3,0.9c0.2,0.3,0.2,0.8,0.8,1
		c0.7,0.4,0.2,1.4,1,1.6c0.6,0.5,1.9,0.9,2.6,0.6c0.8-0.4,0.8,1.4,2,0.6c0.7-0.2,1.5,0.6,1.8,0.1c-0.1-0.9-0.1-1.8,0.9-2.3
		c1,0.3,2.3,0.5,3.3,0.5c1.1,0.5,1.6-0.6,2.7-0.1c0.4,0.1-0.1,1.6,0.3,2.3c0.9,0.8,2.7,1,2,2.6c0.5,0.9,1.4,1.7,1.6,2.2
		c0.4,1.1-0.5,1.5-0.9,2.3c0.3,0.6,0.4,1.4,1.1,1.6c-0.3,0.3-0.2,1-0.6,1.3c0.7,1,0.5,1.9,1.6,2.3c0.5,0.4,1.3-0.2,1.1,0.9
		c0.3,1.1,0.5,0.9,1.3,0.7c1-1,0.7,2,1.2,0.2c0.7,0,1.5,0.1,2.3-0.2c0.7,0.5,0.6,1.7,0.4,2.4c0.1,1.2,1.1,0.1,1.4,0.2
		c-0.1,1,1,2,0,3c0.2,0.7-0.1,1.3,0.2,1.8c0.3,1.2,0,2-0.8,2.8c-0.6,0.6-0.5,1.2-0.5,1.9c-0.3,0.7,0.6,1.4-0.7,1.4
		c-0.7,0.4-2,2.1-2.6,0.6c-0.5-1.2-0.9-2.3-2-2.7c-0.6-1.4-2.8,0.9-0.9,1c0.2,1,1.2,0.8,1.4,1.8c-0.8,1,0.5,2.5-0.7,3.2
		c-0.5,1.1,1,3.2-0.9,3.2c-1.2-0.3-0.7,2.5-2.3,1.9c0,0.7-1.4,0.7-1.5,1.5c-0.9,0.8-1.2,2.3-2.2,3.2c-0.1-1.6-1.1-2-1.7-0.3
		c-0.7,0.9-2.1,0.3-2.8-0.5c-1.2-0.3-1,1.7-0.8,2.2c-0.4,0.7,1.9,2.1-0.2,2.4c-1.2,0.2-1.6-1.2-2.8-0.8c-0.9-1.2-0.2,0.7-0.7,1.2
		c-0.4,1.2-1.1,1.7-2,1c-0.5-1-1.3-1.6-0.5-2.9c-0.1-0.8,1.6,0.4,1.4-1c0.6-1.2,1.1-2.2-0.1-3.4c-0.1-0.9-0.9-0.4-1.6-1.1
		c-1.7-1.3-1.3,1.4-2.6,1.8c-1.1,0.5-0.4,2.5-1.8,2.8c0.6,0.7,1,1.8,0.1,3c0.2,1-0.6,3.2-1.2,1.4c-0.8-0.3-1-1.3-1.7-0.7
		c-1-0.5-1.3,1.5-2.2,1.5c0.2-1.8-2.1,1.3-1.4-0.3c-0.3,0.1-0.7-0.4-1.3-0.4c-0.5,0-1.3,0.2-1.7,0.4c-0.6-1-0.9-1.4-1.2-2.2
		c-0.9-0.3-1.3-0.2-1.5-0.9c-0.1-1.3-1.7-0.8-2.5-1.8c-0.1,0.4-0.4,1-0.4,1.6c-0.6-0.3-0.7,0.7-1.7,0.5c0.5,1-1.4,2.5-1,1.2
		c0.2-0.3-0.4-0.3-0.4-0.8c-0.4-1.2-1.4,1.1-2.4,1.3c-0.3,0.4-1.1,0.1-1.8-0.2c-0.2,0.6,0.4,0.6,0.2,1c0.3,0.7-0.6,1-0.3,2
		c-0.3,0.7-0.8,0.7-1.3,1.8c0.3,1.5-1.1,2.1-1.5,3.3c0.1,0.9-0.3,2.5-1.3,2c1-0.8-0.2-0.7-0.2-1.3c-1-0.4-0.5,0.4-0.6,1
		c-0.7,0,0,1.5-1,0.9c0.3,1.1-0.9,2.7-1.5,2.1c-0.4-0.1-0.9-0.3-0.8-0.6c-0.2,0-0.7,0.1-0.2-0.1c0.2-0.3,0.9-0.7,0.8-1.1
		c-0.3,0.2-0.7-0.3-0.4-0.5c-0.4-0.6,0.5-0.7,0.7-1.3c0.2-0.5,1-0.6,0.2-1.1c0-0.3,0.5-0.4,0.7-0.7c0.1-0.2,0.2-0.5,0.3-0.4
		c0.6-0.3-0.1-0.7-0.1-1.2c-0.6,0,0.1-0.5,0.5-0.2c-0.1-0.6-0.8-0.6-1.3-0.4c-0.4-0.3-0.8,0.4-1-0.3c-0.4,0.2-1-0.3-0.2-0.6
		c0.5-0.5,0.3-1,0.8-1.3c0.6-0.2,0.8-0.7,0.6-0.9c0.7-0.1,0.3-1.3,0.8-1.6c-0.1-1.1,1.4,0,1.6-0.8c-0.1-1.5,0.8-2.7,1.9-3.4
		c-0.8-0.8-0.9-2,0.5-2c0.1-1.2,0-1.7-0.5-1.5c-0.6,0.3-0.7,0.2-1.2,0.2c-0.3,0.3-0.9-0.7-1.1,0c-0.7,0.2-0.8,0.4-1.1,1
		c0.1,0.6-1.2,0.1-1.7,0c-0.8-0.1-1.7-0.9-2.3-0.5c-0.7-0.3-1.8-0.6-0.5-1c1.2,0.2,2.2-1,2-2.4c0.5-0.8,1.1-1.6,2.1-1.7
		c0.8-0.5,0.7-3.2,1.7-1.4c0.5,1.1,1,1,0.9-0.1c0.2-0.8,0.3-1.6-0.8-1.4c-0.7-0.4-0.4-1-1-1.4c-0.6-0.5-0.8-0.9-0.7-1.6
		c-0.6-0.3-0.7,0.2-0.8-0.7c-0.4-0.8,0.5,0.1,0.7-0.3c0.6,0.1,1.3,0.3,1.3,0.7c1,0.6,0.9-1.4,1.4-2.3c-0.6-1,0.9-1.1,0.9-1.9
		c0.4-0.2,1-0.9,1.7-1.4c0.6-0.9,2.4-2.4,1.8-3c-0.6,0.4-1.8-1.1-0.3-0.8c0.4,1.2,1.4,0.3,1.5-0.7c0.4-0.3,0.3-1,0.5-1.5
		c0.1-0.6,1.1-0.6,1.2-0.7c0.4-0.2,0.7,0.4,0.7-0.4c-0.1-0.9,1-0.4,1.5-1.1c0.1-0.3,0.7-1-0.7-0.8c-0.4,0.4-0.7-0.2-1.1-0.2
		c-1.2,0.6-0.4-1.1-0.7-1.9c-0.5,0.2-0.4-0.6-0.4-1c-0.4-1-1-1.4-1-2.4c0.2-0.7,1-2,0.1-2.7c0-0.8,0.9-1.4,1.3-2.1
		c0.8-0.6,1.1-1.6-0.1-1.8c-0.3-0.9-2.2,0.6-1.5,0.9c0.1,1.4-1.3,2.1-2.2,2.3c-0.8-2-3.6-2.5-2.2-4.4c0.7-1.1-0.1-4.7,2.4-4.2
		c0.9-0.7-0.2-0.9-0.5-1.4c-0.1-1.2-0.3-1.5-0.4-2.7c0.2-1.8-0.3-3-1.5-4.3c-0.8-1.1-0.9-1.1-1-2.4c-0.7-0.6-0.7-1.4-1.4-1.8
		c-0.2-0.4-0.7-1.4,0.1-1.6c-0.2-0.6,1.1-0.7,1.3-0.9c0.8-0.4,1.3-0.7,2.3-0.3c-0.1-0.8,1.2-0.8,0.4-1.5c-0.7-0.3,0-1.1-0.1-1.5
		c0-0.3,0-1.3,0.7-1c0.2,0,1.1,0.1,1.2-0.6c0.6-0.4,1-1.4,1.7-0.8c1-0.9,0.4-0.8-0.4-1.5c0.2-0.4,0.9-0.2,1.3-0.5
		c0.2-0.5-0.3-1.3,0.5-1.6c-0.2-0.6-1.2-0.5-1.2-1.3c-0.3-0.8,0.5-0.1,0.6-0.1c1.6-0.2,3.8,0.4,4.8-0.3c0.7-1.1-1.5,0-1.1-0.8
		c0.4-1,2.4,0.2,2.7-1.6c0.9-0.5,1.3-2,0.1-1.7c-0.2-0.5-0.5-0.4-0.9-0.1c-1.6-0.6-3,1.5-4.4,0.2c-0.2-1-2.3-2-0.7-1.3
		c0.6-0.1,1.7,0.8,2.1-0.6c0.2-1.4,1.5-2.8,2.9-2.6c0.4-0.9,1,1.1,1-0.6c0.3-0.1,0.8-0.3,1.2-0.1c0.5-0.5,0.3-0.5,0.9-0.2
		c0.2-0.3,1.4,0.7,0.4,0.4c-0.2,0.4,0.6,0.4,0.7,0.6c0.6-0.5,1.4,0.4,2.2,0.2c0.4,0.2,0.9,1,0.8,0.9c0.8-0.6,0.8-1.3,1.2-2.2
		c0.5,0,0.2-0.4,0.6-0.6C137.5,89.4,136.8,89.4,138.3,89.8L138.3,89.8z"/>
	<path id="antioquia" class="st0" d="M68.6,94.6c1.1,1.4,0.6,2.3-0.1,3.2c1.6,0.1,1.5,2.4,2.1,2.8c0.9-0.7,1.8,0,2.1,0.7
		c-0.1,0.7-0.2,1.3,1,1.2c-0.8,0.6,1.2,1.8,0.1,3.1c0,0.8,1.8,1.7,0,1.8c-1.5,0.6-2,2.1-2.8,3.1c-0.4,1-0.9,2.6-0.5,3
		c-0.9-0.3-0.8,1.3-1.7,1.5c0,0.7-0.9,0.8-0.4,1.8c0.4,1.1,0.3,2.8-0.6,3.7c-0.9,0.9-0.9,2.9-1.2,4c0.7,1.8-1.4,3.8,0.2,5.1
		c1.1,0.9,1,2.4,2.3,3.4c4.5,1.1,10.1,1.2,14.6,1.4c0.4-0.5,0.2-1.4,0.7-1.8c-0.5-0.8,1.4-0.8,1.1-2c-0.3-0.6,0.6-0.8,0.1-1.4
		c0.2-0.4,0.3-1,0.4-1.4c0.6-0.7,1.4,1.4,2.1,0.4c0.6-0.3,2,0.8,2.3-0.4c1.1-0.6,1-0.8,1.2-1.9c0.4-0.6,0-1.7,1.4-1.3
		c0.3-1,1.3-1.8,0.8-2.8c1.1,0.5,1.3-0.3,2-0.9c1.6,0.3,1.2-2.2,1.6-2.1c1,0,1.2-1.5,2.2-1.7c0.1-0.6-0.1-1.3,0.7-1.4
		c0.5,0.5,1,0.4,1.6,0.3c0.7,0,1.2,0.5,1.6-0.5c0.8,1.2,1.9,0.3,3-0.2c1,0.3,2-0.3,2.5-1.4c0.3-0.9,1.3-2.4,1.9-1.2
		c0.2,1,0.9,1.6,1.6,1.5c0.8,0.3,0.9,1,1.7,1.1c0.3,0.7,0.8,0.7,1.4,0.9c0.2,0.7,0.9,0.3,1.2,1.3c1,1.4,1.9,2.5,1.6,4.4
		c0.1,1.1,0.1,1.3,0.3,2.4c-0.1,1,1.7,0.8,0.6,1.7c-2.1-0.3-2.3,2.3-2.2,3.9c-0.8,0.6-1,2.4,0.2,2.6c0.9,0.9,2.1,3.3,3.1,1.3
		c1.7-0.3-0.3-2.5,1.8-2.3c0.1-0.5,1.9,0.5,1.2,1c-0.4,0.6-1,1.3-1.5,1.9c-1.2,1,0.3,1.7-0.2,2.6c-0.2,0.8-0.7,1.4-0.2,2.1
		c0.2,0.6,1,1.5,0.7,2.3c0.2,0.4,0.7,0.1,0.5,0.8c0.1,0.9-0.2,1.9,0.9,1.3c0.4,1,1.1-0.2,1.9,0.4c0.1,0.4-0.6,0.3-0.4,0.9
		c-1.2,0.1-1.3,0.4-1.7,1.4c-0.3-0.6-0.6,0.2-1.4,0.1c-0.3,0.5-0.2,0.9-0.5,1.4c-0.2,0.2-0.5,2.1-1.3,1.7c-1-1.6-1.4,0.7,0.1,0.2
		c0.1,1-1.6,2.6-2.4,3.4c-0.4,0.4-0.9,0.7-1.1,1c-0.4,0.2-0.5,0.9-1.3,1.3c0.5,1.1-0.4,2.1-0.6,3.1c-0.4,0-0.7-0.1-0.8-0.6
		c-0.5-0.1-1.1-0.4-1.5-0.2c-0.8-0.6-0.2,0.5-0.3,0.9c0.3-0.3,1,0.1,0.6,0.6c0.1,0.6,0.2,0.6,0.7,0.9c0.1,0.6,0.6,0.7,0.6,1.1
		c0.2,0.6,1.8,0.3,1.2,1.1c0.1,2.2-0.5,1.5-1.7,0.2c-0.3,1.2-0.9,2.4-2.2,2.5c-0.8,0.9-1,1.8-1.1,3c-0.7,0.8-2.2,0.3-2.4,1.1
		c0.8,0.4,1.3,0.6,2,0.4c1,0.5,2.1,0.8,3.1,0.8c0.1-0.3,0.2-1,0.6-1c0.7-0.5,0.9-0.4,1.5-0.1c0.5-0.1,0.8,0.1,1.3-0.2
		c0.6-0.4,0.5,0.2,0.6,1.3c-1.2,0.2-1.6,1.2-0.5,2c-0.7,0.8-2.2,1.7-1.8,3.4c-0.2,1-1.7-0.2-1.7,0.9c-0.5,0.4-0.2,1.5-0.9,1.7
		c0.8,0.2-0.4,0.7-0.6,1c-0.3,0.3-0.3,1.1-1,1.3c-0.2,0.7,0.6,0.1,0.8,0.6c0.4,0.1,0.6-0.2,1,0c0.5-0.3,1-0.1,1.1,0.4
		c-0.4-0.3-1.1,0.2-0.5,0.2c0,0.5,0.6,0.9,0.1,1.2c-0.3-0.2-0.2,0.5-0.5,0.5c-0.2,0.2-0.8,0.4-0.2,0.8c0.3,0.4-0.6,0.6-0.6,1.2
		c-0.8,0-0.4,1-0.6,1.1c-0.1,0.5,0.9,0.1,0.4,0.7c-0.3,0.3-0.8,0.7-0.9,0.9c0.3-0.1,0.5-0.1,0.5,0.3c-0.4,0-1.1-0.7-1.5-0.4
		c-0.4,0.4-0.9,0.7-1.5,0.2c-0.4-0.2-1-0.1-1.4,0.1c-0.4,0.3-0.9,0.4-1.4,0.3c-0.5,0.1-0.5,0.5-1.2,0.4c-0.2,0.5-0.2,0.7-0.5,1
		c-0.5,0.6-0.9,1.2-1,1.9c0.1,0.4-0.9,0.2-1.1-0.1c-0.5,0.1-1.2,0.2-1.4,0.7c-0.2,0.4-1,0.6-1.5,0.1c-0.8-0.2-0.9,0.9-1.7,1.2
		c-0.6,0.5-0.3,1.3,0.4,1.7c-0.3,1.4-1.8,2.5,0,3.8c-0.7,1.2-2,2.6-1.6,4c0.2,1-1.6,1.6-0.9,2.9c-0.5,0.8-1.7,0.5-2.2,1.5
		c-1.2,0.6-0.3,2.1-1.7,2.5c-0.8,1-0.4,2.4-1,3.6c0.1,0.7,0.2,1.5-0.6,1.8c-1.1,0.9-0.7,1.7-1.8,2.7c0.1,1-1,1.1-1.4,1.7
		c-0.5,1.4-1.6-0.2-2.6-0.1c0.2-0.6-0.4-1.4,0.3-2.1c0.2-0.8,0.1-1.6,0.8-2.3c0.3-0.8,0-1.6,0.1-2.4c-0.2-1.1-0.6-1.3-1.6-1.3
		c-0.4-0.1-1.5-0.2-0.9-0.6c-0.1-0.6,1-0.4,0.2-1c0.2-0.3,0.3-1.4,0-1.8c0.1-0.3,0.3-0.7,0.3-1c-0.1-0.3,0.2-0.8,0.2-1.1
		c0.5-0.5,0.8-1.5,1.5-1.1c0.7,0,1,0.3,1.9,0.1c1.2,0.5,0.6-2.2,0-1.4c-0.7-0.2-1.2-0.3-1.8-0.4c-0.2-0.3-0.8-0.4-1.3-0.3
		c-0.4,0.3,0.6-1.7-0.6-1.1c0,0.3-1.2,0.7-1.3,0.3c-0.5-0.3,0-0.5-0.1-1.1c-0.7-0.1,0.9-0.6,0.6-1.3c-0.4-1.1-0.9,0.1-1.6-0.3
		c-0.9-0.3-0.6-1.7-1.7-2.1c-0.2-1-0.7-1.8-1.4-2.7c0.4-1.4,0.4-3,2.4-3.1c0.4-0.7,0.1-2.4,1.3-1.7c0.8-0.5-0.5-1-0.6-1.6
		c0.1-0.9,0.4-1.9-0.9-1.8c-1.1-0.4-2.1-0.1-2.2-1.7c-0.3-1,0.1-2.4,0-3.3c0.8-0.6,2.1-0.4,2-1.5c0.2-1.5-3.4-1.9-1.6-3.4
		c-0.2-0.6,0.2-0.9-0.4-1.1c0.2-0.6-0.2-1.3-0.5-2c0.2-1.2,1.4-1.1,1.1-2.2c0.2-1-0.8-1.6-1.4-2.4c-0.4,0.2-1.4,0.9-1.7-0.1
		c-0.7-1-0.8-2.6-0.9-3.7c-0.3-0.4-0.2-0.6-0.7-1c-0.7-0.4-1.6,0.3-2.5,0.1c-1.1-0.1-2,0.6-2.8,0.8c-1.1-0.1-1.2,0.1-2.4-0.2
		c-1.3-0.4-2.1-0.5-3.2,0.2c-0.8-0.2-0.8,0.1-1.2,0.2c-1.2-0.5,0-2.1-1.7-2.5c0.8-0.9-1.3-0.7-0.7-1.8c0-0.2,0-0.8,0.3-1.1
		c-0.8-0.2,1.1-0.6-0.4-1c-0.4-0.5,1.7-0.7,0.1-0.6c-0.7-0.7,0.5-1,0.4-1.2c-0.6-1.3-1.4,0.3-1.4-0.7c0.1-0.7-0.9-0.4-0.9-1.6
		c-0.7,0.4-1.6-0.5-0.6-1.1c2-0.6-1.9-0.1-0.4-1.2c0-1.1-1.2,1.2-1.1-0.6c-0.1-0.1-1.1,0.1-0.1-0.7c0.6-0.5-1.2-0.7-0.5-1.8
		c0.2-0.6-0.6-1.4,0.7-1c0.3-0.9,0.8-0.9,1-0.5c0.4-1,1.4,0,1.6-0.1c1,0-0.5-0.9,1-0.7c0.5-0.6,0.1-2.4-0.5-2.6
		c-0.4,0.4,0.2-0.7-0.2-0.4c-1-1.3,2.9-0.8,4-1.3c0.5,0.5,1,0.5,1.7,0.3c0.3,0.6,0.6-0.3,0.7,0.6c0.5,0.8,1.1-0.7,1.3-1.2
		c0-0.9,0.1-1.6,0.7-2.2c-0.2-0.9,1.2,0.2,0.4-0.7c-0.2-0.9-0.6-2.2-1-2.8c-0.8-0.1-1.1-1.5-1.7-1.3c-1.5-0.8-1-4.6-3.5-5.4
		c-1.2-2.3-4-1.4-5.7-2.3c-0.3-2.4-5.3-3.7-4.5-6.1c1.2,0.3,2.9-1.5,2.7-2.9c0.5-0.3-0.1-2.6,1.5-2.6c1-1-0.3-2.5,0.1-3.7
		c-1.1-0.9-0.4-2.6,0.3-1.8c-0.3,0-0.5,0.3-0.6,0.3c-0.5,0.8,1.1,2.3,0.7,0.8c0.3-0.2,0.7,0.4,0.6,0.3c-0.6,0.2,0.5,0.4-0.4,0.5
		c0.2,0.4-0.9,0.1-0.4,1.4c0.1,0.7,0.9,1,1.5-0.1c0-0.5,1.8-0.6,1.9-0.3c-0.8,0.1-1.1,0.6-1,0.9c0.1,0.5,1.2-0.2,0.4,0.4
		c-2,0.4,0.7,0.7,0,1c-0.2-0.3-1.4-0.3-0.5,0.1c0.1,0.4,1,0.8-0.2,0.6c-0.2-0.7-1.9-0.7-1.6,0.4c-0.3,1.1-0.3,3.2,1.8,2.7
		c1.8,0.3,3.2-0.4,3.2-1.7c0.8-0.8-0.7-1.3,0.3-1.7c0.1,0.1,0.4-1.4,0-1.5c-0.1,0.1,0.1-0.2-0.1-0.1c-0.1,0-0.2,0-0.1,0.1
		c0.1,0.3,0,0.3,0,0.4c-0.1,0.4-0.3,0-0.2-0.4c0.1-0.3,0.3-0.9-0.1-0.6c-0.4,0.2,0.4-1.4,0-2c0-0.8-0.5-1.6-0.7-2.3
		c0.6-1.2,0.5-2.7-0.1-3.8c-1,0-0.5-2.4-2-2.4c-1,0.1-2.2-1.5-2.1-0.6c0.4,0.3,0.8,0,0,0.1c-0.6-1,1.4-1.6,1.3-2.4
		c1.8-0.5,5.6-0.1,6.5-2c-0.4-1.6,3.2-1,3.4-2.8C67.2,95.5,68.2,95.4,68.6,94.6L68.6,94.6z"/>
	<path id="caribe" class="st0" d="M75,81C74.8,81.8,74.4,80.3,75,81C74.9,81,74.9,81,75,81z M82.9,70.6 M83.2,70.6 M83.3,70.3
		 M83.3,70.3 M83.3,70.3 M83.4,70.3 M83.4,70.1c0.3,0.3-0.1,0.2,0.2,0.3c0-0.2,0.1-0.1,0.5-0.1c-0.1,0.3-1,0.1-0.7,0.1
		c0.1,0.1,0.2-0.3,0.1-0.2C83.4,70.2,83.2,70.3,83.4,70.1L83.4,70.1z M86.7,61.1 M87.6,61 M87.7,61 M87.6,61 M87.7,61 M88.1,60.7
		 M85.4,60.7 M88.3,60.7 M88.5,60.6 M88.2,60.6 M88.3,60.6 M88.6,60.6 M88.4,60.6 M88.4,60.6 M88.3,60.6 M84.9,60.5 M88.6,60.4
		c0,0.3-0.3,0-0.4,0.2C88.3,60.5,88.5,60.4,88.6,60.4z M85.6,60.3 M85.9,60.3 M85.5,60.3 M85.5,60.3 M85.5,60.3 M85.7,60.3
		 M85.9,60.2C85.9,60.3,85.9,60.2,85.9,60.2L85.9,60.2z M86,60.3 M85.4,60.2 M86.1,60.2 M85.4,60.3 M85.4,60.2 M86.1,60.2
		 M86.9,60.1 M86.8,60.1 M86.4,60.1c1,0.1-0.7,0.4-0.2,0.1C86.3,60.1,86.4,60.3,86.4,60.1z M86.9,60.1 M86.7,60.1 M86.7,60.1
		 M86.4,60.1 M86.4,60.1 M90.6,56.8 M90.6,56.7 M90.7,54.9c0.3,0.5,1.5,0.6,0.7,0.7c0,0.3,0.3-0.2,0.2,0.3c-0.2,0.4-0.5-0.2-0.5,0.1
		c-0.5-0.4-0.3,1-0.8,0.3C90.1,55.6,90.5,55.3,90.7,54.9L90.7,54.9z M193.8,0.4c1.6,1.1,2.6-0.1,4.1,0.9c1,0.5,1.5,1.3,2.6,1.1
		c1.2,0.3,2,0.7,3.1,1c1.5,0.8,1.6,2.5,2.6,3.9c0.9,1.5,2.9,4,0.8,5.1c-1.2,0.3-2.6,1.6-3.6,2.4c0-0.3-0.9-0.7-0.7-0.3
		c0.5,0.1-1.1,0.1-0.3,0.5c0.7-0.4,1.1-0.5,0.4,0.5c-0.5,0.9-0.3,1.5-0.7,0.9c-0.5,0.3,0.3,0.2-0.6,0.4c-0.1-0.1-0.1,0.3-0.7,0.2
		c0.8,1.4-4,1.2-5,1.9c-3.4,1.5-7.7,1.8-10.7,3.5c-2.5,4.1-4.5,9-7.3,12.8c-1.7-0.4-2.6-0.2-4.2,0.3c-0.7,0.2-1.1,0-1.9,0.9
		c-0.4,0.4,0.6,1.1-0.4,1.5c-0.2,0.5-0.5,0.7-0.6,1.1c-0.5,1.1-1.2,2.1-2.1,2.8c-1.1-0.2-1.3,0.8-1.6,1.7c-0.7,0.6,0.1,1.9-1.2,1.9
		c-0.1,0.9-0.5,1.9-0.9,2.6c-0.5,1-1.9,1.8-2.4,3c-0.1,0.5-0.2,1.8-1.1,2.2c-0.9,0.1-0.5,1.5-0.3,1.9c-0.5,0.6-0.7,1.4-0.3,2.1
		c-0.4,1.1,0.2,2.2-0.2,3.2c-0.6,0.9,0.2,1.7-0.5,2.3c-1.2,0.7-0.5,2.2-1.5,3.2c0.1,0.5-0.7,1.5,0,1.5c0.3,0.6-0.3,0.9,0.1,1.1
		c0.5,0.5,1.4,0.8,0.5,1.4c-1.1,1.1-1.2,2.5-2.3,3.6c-0.6,1.2-0.4,2.5-1.2,3.3c-1.5-0.3-1.8,1.7-2.4,2.1c-0.7,0.2,0.5,0.8-0.4,1.3
		c-1,0.3-1.4,1.6-1.6,2.6c-1,0.4-0.8,2-1.7,2.9c-1.2-0.4-0.5,2.3-1.9,1.4c-1,1.5,0.4,3.2-0.9,4.6c0,1.2,0.7,2.7-0.2,3.3
		c1.4,1.4-0.7,1.9-1.7,1.8c-0.2,0.5-0.4,0.3-0.6,0.2c-0.6,0.3-1.7,0.2-2,1.3c0,0.7-0.2,1.4-0.6,1.7c-0.6-0.2,0.3,0.9-1.2,0.5
		c-0.7-0.3-1.3,0-1.9-0.3c-0.4,0-1.6,0.1-1.2-0.5c-0.3-1,1.1-0.9,1.3-1.4c0.2-0.4,1.7-0.3,1.7-0.3c-0.2-0.7,0.7-1.9,0.4-2.4
		c-0.3-0.1-0.1-0.8-0.5-0.5c0-1.4,0.3-3.7,0-4.7c-0.9-0.1-2.6-0.9-2.8-0.1c0.1,0.3-0.6,0.3-0.6,1.1c-0.1,0.6-0.8,1.4-1,1.4
		c-0.1-0.7-1-1-1.6-0.9c-0.6-0.4-1-0.2-1.5-0.2c-0.2-0.2-0.9-0.4-0.2-0.6c0.6,0.2-0.6-0.9-0.8-0.4c-0.3-0.6-0.7,0.5-1.6,0.1
		c-0.5,0.1-0.6,0.8-0.7,0.9c-0.4-0.6-0.8,0.1-1.4-0.1c-1.6,0-1.9,1.9-2.6,3c-0.4,0.9-1.2,0.2-1.5,0.1c-0.8-0.1-1.5-0.2-0.1,0.4
		c0.6,2.2,2.9,1.5,4.3,0.7c0.9,0.6,1.2-0.6,1.7,0.4c1.2-0.4,0.4,1.5-0.4,1.9c-0.2,1.4-1.8,0.7-2.4,1.1c-0.6,0.8,0.8,0.5,1.1,0.6
		c0.2,0.9-0.8,0.6-1.3,0.9c-1.6-0.1-3.5,0.1-4.3-0.3c0.2,1,0.6,1.1,1.4,1.6c-0.6,0.4-0.6,1-0.5,1.5c-0.1,0.7-1.2,0.4-1.4,0.8
		c0.2,0.6,1.9,0.6,0.6,1c-0.2,1.1-0.9-0.3-1.3,0.8c-0.4,0.4-0.7,0.8-1,1.1c-0.6,0.2-1.5-0.3-1.4,0.7c0,0.4-0.3,1.1-0.2,1.6
		c0.7,0.2,0.6,1-0.1,1.3c-0.1,1-1.4-0.2-1.6,0.5c-0.9,0.1-1.2,0.6-2,0.8c0,0.4-0.9,1-0.1,1.8c0.3,0.3,0.7,1.2,1.2,1.8
		c0.6,0.8,0.2,1.9-0.4,0.8c-0.8,0.3-1.1-1.1-1.8-1.1c-0.4-0.5-1.2-1-1.8-0.8c-0.9-0.8-1.1-3.1-2.3-1.4c-0.1,0.9-1.1,2-1.8,2.7
		c-1.4-1.1-2.6,1.7-3.9,0.4c-0.3-0.6-1.1,1-1.6,0.2c-0.6-0.1-1.2,0.4-1.6-0.1c-0.4-0.6-1.1,0.2-1,0.6c0.5,0.8-1.2,1-1.3,2
		c-0.6,0.5-1.4,0.1-1.1,1c-0.1,1.6-2,1.5-2.5,2.7c-1.7-1.1-0.1,0.8-1.3,1.3c0.1,1.7-2.1,0.7-1.6,2.4c-0.6,0.8,0,1.4-1.2,1.8
		c-0.3,1.2-1.7,0.4-2.4,0.4c-0.7,1.2-1.7-1.3-2.3-0.1c0.3,0.7-0.6,1.3-0.1,1.9c-0.8,0.3-0.1,0.9-0.5,1.6c-0.2,0.7-1.5,0.5-0.9,1.4
		c-0.8,0.5,0,2.4-1.7,1.6c-4.5-0.6-9.4-0.3-13.6-1.6c-1-0.8-1-2.1-1.8-2.8c-0.9-0.9-1.4-2.2-0.7-3.5c0.3-1.4,0-2.5,0.3-3.8
		c0.1-1.5,1.1-2.5,1.6-3.6c0.6-1.3-0.7-2.9,0.1-3.7c0.4-0.2,0.3-1.1,1.2-1.2c-0.2-1.6,1.9-0.2,0.6-1.8c0.5-1.5,1.1-2.6,1.8-3.9
		c0.6-1,2.1-1.3,2.6-1.8c-1.7-0.7,0-2.6-1.1-3.7c-0.5-0.6,0.7-0.9-0.8-1c-0.4-0.4,0.3-0.9-0.4-1.4c-0.1-0.9-1.7-0.5-2-0.4
		c0-1.3-1-2.4-1.9-3c1.7-0.7-0.1-2.4,0.1-3.4c1.1-0.4,2.5-0.8,2.6-1.9c1.1-0.5,1.5-1.2,1.4-2c1.2-1.3,2.6-2.7,2.3-4.5
		c0-0.9,2.6-1.2,1.6-2.4c0.6-1.8,3.9-1,4-3.1c-0.2,0.3-0.6,0,0.6-0.8c1.1,0.2,2.4,0.9,2.7,0.4c0.3-0.1,1.5,0.1,1.1,0.4
		c-1.1-0.3-1.4,0.9-0.3,0.4c0.2,0.3,0.9,0,0.9,0c0.8-0.7,1.5-0.4,2.3-0.2c0.7,0.2,1.5-0.5,1.8-1.1c0.7-1.4,0.9-1.7,1.2-3.4
		c0.2-1.2-0.5-2.4-1.3-3c-0.4-0.5-2.7,0-1.8-0.4c0.1-0.7,1.5-1,1.3-1.7c1.1-1.1,0.2-2.5,1.2-3.5c0.2-0.8,0.7-1.7,0.5-2.5
		c0.5-1-0.1-2.5,0.1-3.2c0.3,0.1,1.2-1.3,1-1.1c-0.5,0.2-0.5-0.7,0-0.5c-0.1,0.7,0.8,0,0.3-1c-0.2-0.4-0.8,0.4-0.5-0.2
		c1.1-0.4-0.6-0.2-1.1,0.3c-0.6,0.5-1.5,1.1-1.5,1c0.1,1.1-1.4,1-1.1,1.2c-0.7,0.3-0.4-0.6-0.2-0.2c0.2-0.6,1.1-0.5,1.4-1.2
		c0.4-0.4,0.9-1.6,1.3-0.9c0.2-0.5-1.6-0.7-0.4-0.9c0.9,0.2-0.3-1,0.6-1c-0.2,0.4,0.3,1.2,0.9,0.5c0.5,0.3,0.2-0.3,0.2-0.1
		c0.4-0.6,0.5-0.2,0.7-0.5c0.1,0.3,0.4-0.3,0.1-0.6c0.1-0.5,0-0.7,0-1.1c0.2-0.4-0.5-0.6-0.5-0.6c0.2,0.4-0.2,0-0.2-0.1
		c0.5,0,0.2,0,0.3-0.2c-0.2,0-0.6-0.5-0.7-0.4c0.2,0.1-0.1,0.6,0.1,0.7c-0.9-0.1,0.2-0.4-0.2-0.9c0.5-0.5,1.3-0.4,1.6-1.8
		c-0.4-0.4,0.2-1.5-0.5-1.9c0.6-0.5,1.7-0.7,1.8-1.7c1.2-0.2,1-1.6,2.2-1.5c1.4,0.7,3-1.8,2.4-1.4c-0.2-1.1,0.1-1.7,1.2-1.4
		c0.3-0.8,1.4-0.7,2-1.2c0.3-0.8,1.3-0.5,1.7-1.1c0.7-0.1,1.1-0.5,1.4-1.3c0.5-1-1.2,0.2,0.1-0.8c1.1-0.4,1.9-0.6,2-1.2
		c0.4-0.2,0.7-0.6,0.8-0.9c0.9,0.2,2.5-0.2,1.7-1.4c0.6-0.1,2,0.5,3,0.9c3.6,1.6,7.8,3.1,11.6,1.9c1.1-0.4,1.8-1.3,2.1-2.4
		c-0.1-0.6-0.7-1-0.3-1.6c0-0.8-0.7-0.9-0.1-1.5c-0.1-0.3-0.2-0.2-0.2-0.5c-0.5-0.1,0.5-0.4,0.4-0.7c0.1,0,0.1,0,0.1-0.3
		c-0.3,0.2,0-0.2,0.1-0.1c0.2-0.1,0.7-0.3,0.2-0.4c-0.3-0.2,0.6-0.5,0.2-0.9c0.4,0.1,0.6-0.2,0.8,0.2c0.8,0.1-0.2-0.7,0.3-0.9
		c0.4-0.4,0.2,0.3,0.6,0.3c-0.1-0.7,0.3,0,0.6-0.1c-0.2-0.5-0.2-0.8,0.2-0.4c-0.2,0.3,0.2,0.7,0.5,0.4c-0.2-0.6,0.5-0.7,0.5-0.2
		c0.3-0.1,0.2-0.9,0.5-0.3c0.3-0.3,1.5,0,2,0.3c0.6,0.7,1.9,0.7,2.8,1.4c1.7,0.6,3.3,0.1,5.1,0.6c1.7-0.6,3.4,0.2,5-0.3
		c2.9,0.4,6.2-0.5,7.7-3c0.7-0.7,1.3-1.1,2.2-1.4c1.2-1.7,3.3-2.5,4.9-3.3c1.4-0.5,1.8-2.3,3.2-2.9c1.6-1.2,3.8-1.1,5.3-2.1
		c1.1-0.3,2.4-1,3.6-0.9c1.7-0.9,3.6-1.9,5.1-2.8c-0.2,0.8,1.2-0.6,0-0.1c1.1-1.7,2.4-3.8,2.8-5.9c0-1-0.1-2.5-1-2.5
		c0.7-1.1,2.6-0.3,4.1-0.8c1-0.2,2.3-0.8,1.5,0.5c-0.9,0.7-0.9,0.9-0.3,1.3c-0.1,0.3-0.3,1,0.1,0.6c-0.1-0.3,0.3,0.3,0.2,0.1
		c0-0.2,0-0.2,0-0.3c0-0.1,0,0,0.1-0.2c0-0.1,0-0.4,0.1-0.1c0,0.2-0.1,0.3-0.1,0.6c0.3,0,0.5-0.2,0.6,0c0.3,0-0.3-0.3,0.2-0.1
		c0.2,0.3,0.2-0.2,0.4-0.2c0.2,0-0.3-0.7,0.2-0.4c0.6-0.6,0.8-0.1,1.3-0.4c0.3-0.2-0.2-0.8-0.3-1c0.5-0.4-0.7-0.2-0.3-0.9
		c-0.5-0.3-1.5-0.1-1.5,0.2c-0.7-0.4,1.2-1.2,1.6-1.8c0.6-0.7,1.2-0.8,1.9-1c-0.5,0.3-1.2,1.7,0.3,1.7c-0.2-0.8,2.7-1.1,1.2-1.9
		c-0.3,0.2,1.3-1.4,1.1-0.6c0.1,0.2-0.6,0.9,0.1,0.8c-0.2-0.1,0.6-0.1,0.3,0.3c0.7-0.4-0.5-1,0.7-0.8c0.5-0.7,1.3-0.2,0.9-0.6
		c-0.5,0-1.2,0.5-0.8,0c0.3-0.3,0.6-0.4,0.2-0.5c-0.3,0-0.8,0.5-1.1,0.3c1.1-1.3-0.6,0.6-0.9,0.3C191.8,0.9,193.4,0.6,193.8,0.4
		L193.8,0.4z M121.1,90.8c-0.3,0.3,1,0.7,1.2,1.4c1-0.4,1.6-0.1,2.5-0.2c0.9-0.9-1.4,0.4-1.7-0.7C122.6,90.7,121.7,90.8,121.1,90.8z
		"/>
	<path id="surandina" class="st0" d="M77.4,195.3c0.5,0.8,1.1,1.5,1.3,2.4c0,0.9,1.6,0.9,1.1,2c0.6,0.8,1.6,0.3,2,0.1
		c0.8,0.6-0.2,1.6-0.4,1.7c0.6,0.3-0.2,0.8,0.2,1c0.1,0.2,0.7,0.5,1.2,0c0.6-1.1,1.1,0.7,0.7,0.8c0.7-0.2,1.2,0.2,1.6,0.4
		c0.5-0.2,1.3,0.5,1.9,0.1c1.1,1.9-0.6,1.6-1.4,1.6c-0.5-0.1-0.8-0.1-1.5-0.2c-0.4,0.2-1.1,1.1-1.1,1.5c0,0.4-0.2,0.8-0.1,1.1
		c-0.3,0.5-0.3,0.8,0,1.3c-0.3,0.8-0.2,1.3,0,1.6c-0.5,0.2-0.9,1.1-0.1,1.1c0.6,0.1,1.2,0.1,1.9,0.4c0.1,0.8,0.4,1.6,0.2,2.4
		c0.4,0.9-1.2,1.9-0.8,2.9c-0.6,0.7-0.5,1.6-0.4,2.3c0.4,0.2,1.5,0.5,2.1,0.8c1.1,0.3-0.3,1.9-0.9,1.8c0,0.9-0.2,2-0.9,2.7
		c-0.5-0.3-1.1,1.1-0.8,1.4c-0.8,0.9-1.3,1.7-1.7,2.9c-0.7,0.2-1.1,1.1-0.8,1.7c-0.4,0.3-0.7,0.5-0.9,0.8c-0.2,0.3-0.3,1,0,1.4
		c0.2,1-0.8,1.9-1,2.8c0,0.8-0.8,1.6-0.3,2.3c0.4,0.4-1.1,0.9-0.5,1.6c0.6,0.6,0,1.6,0.3,2.3c-0.6,0.2,0,1.3-0.8,1.3
		c-0.9-0.4-0.2,1.1-0.2,1.2c0.8,1.1-1.5,1.1,0,1.8c0.2,0.7,0.4,1.1,0.9,1.2c0.3,0.9,0.9,1.3,0.4,2.5c1.3,0.8,3,2.2,4.2,2.9
		c1.2-0.7,2,0.5,1.6,1.6c0.4,0.6,1.8,0.4,1.5,1.5c0,0.6-0.3,1.2-1,1.5c-0.1,0.7-0.5,1.4-1,1.9c-0.4,0.6-0.4,1.2,0.2,1.8
		c-0.1,0.6,0.2,1.1-0.3,1.1c-0.6,0.2-0.4,1,0.3,1.4c-0.1,0.7-0.4,1.6-0.4,2c-0.2,0.8-1.4,0.8-1.8,1.2c0.6,0.3-0.7,1,0.3,1
		c-0.4,0.9-0.6,1.5-1.3,2.2c-1.1,0.1-1.3,1.7-1.4,1.9c1.2-0.1,0.2,1.6,0.7,2.2c-0.5,0.5-2.1,1.4-1,1.9c1.2-0.1-0.4,1.8,0.7,2.2
		c0.8,0.8,0,0.6-0.2,1.4c-0.4,0.4-0.6,1.2-0.9,1.9c-0.5,0.6-1.2,0.4-1.4-0.4c-0.7-0.2-1.5-0.2-1.9,0.3c-0.8,0.8-1.2,2.1-2.2,2.6
		c0.8,0.5,0.1,2.4,1.2,2.1c0.6-0.7,0.8,0.4,0.7,0.7c0.5,0.2-0.4,0.9-0.4,1.1c-0.6,0.7-0.2,1.3-0.3,1.7c-0.5,0.7-0.5,0.6-0.5,1.5
		c0.3,0.8-0.8,1.1-0.4,1.6c-0.1,0-0.4,0.5-0.8,0.6c0.1,0.7-1.2,1.2-1.5,1.9c0.5,0.3,0.3,0.8,0.2,1.1c-0.3,0.4,0.5,0.2,0.3,0.8
		c0.1,1.1,1.3,0.8,1.7,1.1c0.2-0.1,0.6,0.2,1.1,0.2c0.5-0.3,0.6,0,0.8,0.1c0.4,0.1,0.7,0.3,1.1,0.8c0.7,0.1,0.4,0.4,0.4,0.6
		c1,0.8-0.8,0.7-1.2,1c-0.5-0.6-1.3-0.6-1.6,0c-0.7-0.2-0.2,0.3,0.1,0.3c-0.4,0.8-1.5,0.2-1.4,0.9c-0.2-0.7-0.7,0.1-1-0.4
		c-0.4,0.6-1.5,0.8-1.5,0c-0.6,0-1.7-0.1-2.1,0.5c-0.9,0.1-1-1-1.8-1.2c-0.4-0.8-1.8-0.5-2-1.6c0-0.3-0.3-0.6,0-0.9
		c0.5-0.7,0.4-1.9,0.5-2.9c-0.9-0.6-1-1.6-1.1-2.5c0.2-0.7-0.1-1.2,0.1-2c-0.6-0.2-0.8-0.9-1.5-1.2c-0.1-0.8-1.3-1-1.7-0.2
		c-1.5,0.7-3.1,1.1-4.6,1.9c-0.3-0.1-1.2,0.9-1.1,1c0.4,0.5,0.3,1,1,1.1c0.5,0.1,0.6,0.6,0.7,1.1c0.9,0.1,1,1,2,0.8
		c0.4,0.3,1.6-0.1,0.8,0.6c0.1,0.9-1.3,1.4-1,2.1c1.1,0.4-0.5,1.8,0.8,1.8c-0.3,0.4,1.1,1.2-0.1,0.9c-0.9,0-1.9-0.7-2.8-0.8
		c-1.1,0.5-1.9,0.6-2.7,1.6c-1,0.2-3.3-0.2-3,1.2c-0.8,0.8-1.6,1.7-0.6,2.7c-2,0.5-2,4-2,5.6c1,0.7,1.9,0.4,1.5,1.6
		c-0.9,1,0.8,2.2,0.4,3.4c0.5,0,0.3,1,0.2,1c-0.1,0.7-0.9,0.6-1.8,0.2c-0.9,0-1.8,1-2.8,0.5c-0.9,0.4-1.6-0.8-2.6-0.8
		c-0.6,0.3-0.4,0.1-1.3,0c-0.9,0-3.6,0.5-2.8-0.9c0.1-1.3-0.2-3.2,0.9-4.1c0.6-1.2,0.1-2.4-1.4-1.6c-1.3-0.1-2-1.5-3.3-1.5
		c-0.4-0.8-1.1-1-0.3-1.8c0.6-0.2,0.3-0.3,0.1-0.5c0.8-0.7-0.3-0.6-0.5-1.1c-0.5-0.8-1,0.6-1.7,0c-0.6,0.1-1.1,0.2-1.4,0.9
		c-1.2,0.4-2.9-0.3-4-0.7c-0.9-1-2-1.4-2.9-1.6c-0.5-0.3-0.4-1.5-1.3-0.8c-1,0.1-1.7-0.5-1.4-1.3c-0.3-1.3-2.5-1.3-2-2.5
		c1-0.2,0.3-0.8-0.1-0.9c-1.4-0.9,2.5-1.8,3.6-2.2c1.1-0.2,0.7-1.1,1.7-1.4c1.4,0.2,1.4-0.7,0.6-1.7c0.5-0.8-0.2-1.9,0.3-2.2
		c0.5-0.8,1.3-0.8,2.3-0.5c1,0.9,2-0.4,1.7-1.4c0.6-0.6-0.5-0.5,0.4-1.1c0.7,0,0.4-1.1,0.8-1.2c-0.9,0,0.5-1.5-0.5-1
		c0-0.8-0.6-0.3-0.9-0.8c-0.2-0.7-0.9-1.1-1.4-1.3c-0.9-0.7,0.2-1.1,0.6-0.5c0.1-0.6,0.7-1.2,0.8-1.4c0.7-0.2-0.4-1.6,0.8-1.3
		c0.6-0.2,1.4,0,0.9-0.6c0.4-0.2,1-0.5,1.1-0.9c1.2-0.6,1.7,0,1.8,1.1c0.4-0.2,0-1.5,0.9-1.1c0.5-0.3-0.6-0.9,0.3-1.2
		c1.1-0.2,2.1-1.6,3.4-0.3c1.2,0.6,1.2-1.5,2.7-1.6c0.5-0.2,1.4-0.2,1.8-0.2c0,1,1.3,0.7,1.6,0.4c0.3-1-0.4-1.5-1.1-2.1
		c0.3-1.1,1.1-1.6,1.2-2.5c-0.2-0.5-0.3-1.1-0.1-1.5c-0.5-0.6-1.2-1.8-2.1-2c0.5-1-0.5-1.9-0.3-2.9c1.3-0.5,2.2-1.5,2-2.8
		c1-0.6,0-1.8,1-2.3c0.3-0.5,1-0.7,0.7-1.4c1.3,0.1,1.8-0.6,1.2-1.5c-1.3-0.1-1.9-1-1.3-2.3c0-2.2,2.1,2.3,3.2-0.2
		c1-0.1,2-0.1,2.2-0.9c1.4-0.1,2,0.9,3.1,1.4c0.7-0.6,0.8-1.6,1.3-2.1c-0.4-0.7,0.8-1.3,0.4-2.3c0.8-1.6,2.6-2.5,1.6-4.5
		c0.7-0.8,1-1.8,0.8-2.9c0-1,1.1-1.1,1.1-2.1c0.1-1.1,1.5-1.4,1.5-2.5c-0.2-0.9-0.9-0.9-1.7-1.2c-0.3-0.8-0.9-1-1.2-2
		c-0.2-0.7-1.1-0.6-1.4-1c0.5-0.9-0.6-1.2-1-1.3c0.4-1.4,1.7,0.1,2.2-1.1c0.8-0.5,0.1-1.4-0.3-1.7c-0.2-1.2,1.1-0.9,1.4-1.9
		c-0.2-1.1-0.8-1.5-1-2.5c0.7,0.3,1.8,0.7,2.6,0.8c0.8-1.2,1.7,0.8,2.7-0.5c1.3,1,2.4-0.8,3.7-0.1c0.2-0.6,0.8-1.7,1.3-2.5
		c0.8-0.5-0.5-0.9,0.2-1.9c0.1-1-1.1,0.1-1.7-0.5c-1.6-0.3,1.1-2.2,0.7-3.4c0.1-1.7-1.8-1.3-2.2-2.9c0.3-1-1.6-2.1-0.5-2.9
		c1.2,0,2.7-1,3.6-1.6c0.1-0.4,0.9-0.9,1.1-0.9c-0.7-0.7-1.1-1.5,0-1.7c0.9,0.1,0.8-1,1.3-1.5c0.5-0.9,0.7-2,0.7-2.9
		c-1.1-0.8,0.7-1.3,1.1-1.8c0.8-0.9,1.9-1,3-1.3c0.3-0.7,0.8-1.3,0.2-1.8c2.1,0.1,0.1-2.7,1.3-3.5C78,195,77.5,195.6,77.4,195.3
		L77.4,195.3z"/>
	<path id="pacifico" class="st0" d="M3.5,288.2 M47,221.7 M43.5,99.7c0.4,0.3-0.1,0.5,0.6,0.9c0.1,0.8,0.6,0.5,0.9,1.3
		c0.7,0.5,1.1,1.5,1.1,2.5c0.5,0.9,2.2,1.7,2.8,1.9c0.5,0.2,1.2,1,1.3,1.3c0.1,0.7,1.2,1.5,1.2,2.1c0.6,0.8,1.1,1.6,2.4,1.3
		c0.1,1.4,1.1,2.3,0.7,3.7c1.3,1.8-2.3,2.1-1.4,4.1c-0.5,0.4-0.5,2.8-2.1,2.9c-0.5,0.9-1.6-0.3-1,1.4c1.8,1.7,3.9,3.8,5.3,5.4
		c4.2-0.7,7.3,3.7,8.1,7.1c0.5,0.2,0.7,0.2,1.1,0.4c0.5,1.3,1.3,0.8,1.5,2.1c0.3,0.7,0.4,1.6,0.8,2.2c-0.7-0.5-0.5,0.5-1,0.8
		c-0.4,0.7-0.2,1.6-0.6,2.5c-0.2,1-1.2,1-1.3,0c-0.2,0.3-0.9-0.3-1.5,0c-1.1-1.1-3.2,0.5-4.8,0.3c-0.3,0.6,0.7,0.5,0.2,1.2
		c0.8-0.5,1.3,2.1,0.6,2.5c-1.4-0.1,0.1,0.7-0.9,0.7c-0.3-0.4-1.6-0.4-1.7,0c-0.7-0.8-0.6,1.1-1.9,0.6c0.6,0.5-0.3,1.8,0.5,2.3
		c1.2,0.1-1.4,1.8,0.3,1c-0.3,1.9,0.9,0,1.1,0.7c-1.7,1.2,2.2,0.7,0.5,1.3c-1.2,0.7,0,1.4,0.7,1.3c-0.1,1.4,1.1,0.6,0.8,1.7
		c0.1,0.1,1.1-0.5,1.4,0.6c-0.2,0-0.9,0.3-0.6,1c1.4-0.2,0.1,0.2-0.1,0.5c1.6,0.7-0.3,0.8,0.6,1.3c-0.8,0.5-0.1,0.8-0.4,1.3
		c0.1,1,1.1,0.6,0.9,1.7c1.4,0.1,0.4,2.6,1.8,2.2c0.3-0.3,1.5-0.1,2.2-0.7c0.7,0.1,2.6,0.6,3.3,0.7c0.7-0.1,1.7,0,2.4-0.7
		c1.5-0.1,2.7-0.3,3.9-0.4c0.4,0.5,0.7,0.6,0.7,1.1c0.4,1,0.1,2.7,1,3.6c0,1,1.2,0.7,1.6,0.2c0.6,0.6,1.3,1.3,1.4,2
		c0,0.8,0.1,1.6-0.7,1.8c-1,0.9,0.1,1.6,0.1,2.4c-0.1,0.6,0.3,0.4,0.4,0.9c0,0.6-0.6,1.1-0.5,1.8c1.2,0.8,2.7,1.7,1.9,3.1
		c-1.2,0-2.2,0.7-1.8,2c-0.2,1-0.1,2.9,0.7,3.2c0.9,0.4,3.2,0.2,2.4,1.7c-0.2,1,0.9,1.2,0.8,2c-1.2-0.6-1.4,0.5-1.4,1.5
		c-1,0.7-2.3,0.7-2.3,2.1c0.2,1.1-1.3,1.6-0.6,2.8c0.2,0.9-0.2,1.9-1,2c1,0.9-0.8,2.4-2,2.1c-0.7,0.8-2.1,1.5-2.6,2.2
		c0.9,0.9,0.1,1.7,0,2.8c-0.4,0.8-0.7,1.7-1.2,2.2c-0.9-0.1-1.6,0.8-0.6,1.3c0.7,0.6-0.4,0.6-0.8,1.1c-0.3,0.7-1.4,0.9-2.3,1.4
		c-0.7,0.6-1.9-0.1-1.7,1.2c0.7,0.9,0.8,1.6,1.3,2.6c0.4,1.2,2.3,0.9,1.7,2.7c-0.3,1.3-2.3,3.2-0.1,3.1c0.6-0.1,1.5-0.4,1,0.7
		c-0.4,0.6,0.2,1.1,0.2,1.2c-0.8,0.8-1.3,2.2-1.6,2.9c-1.1-0.6-2,0.4-3,0.4c-0.9-1-1.7,0.9-2.6-0.3c-0.7,0.2-1.2,0.7-2,0.1
		c-0.9-0.2-2-0.8-1.1,0.4c0.2,0.6,0.9,1.3,0.4,2.2c-0.8,0.3-1.3,0.7-1,1.6c1.4,0.3,0.1,2.5-0.9,1.8c-0.7-0.3-1.5,1-0.5,0.9
		c0.7,0.5,0.1,1.7,1.5,1.6c0.4,0.6,0.8,1.7,1.4,2c0.2,1.1,1.6,0.5,1.8,1.6c0.2,1.2-1.4,1.6-1.5,2.7c0,1.1-1.4,1.2-1.1,2.4
		c0.6,1.4-1.1,2-0.6,3.5c0.3,1.6-2,2.4-1.9,4.1c0.1,0.7-0.6,1.2-0.4,1.9c-0.7,0.2-0.6,2.4-1.8,1.6c-0.5-0.9-2.2-1.4-2.8-0.9
		c-0.1,1.1-2.1,0-2.5,1.3c-1.4,0.6-1.8-1.7-2.5-1c-0.1,1.2-0.6,2.4,0.7,2.7c1.3,0.1,1.1,2-0.4,1.6c-0.3,0.5-0.2,1.1-0.9,1.4
		c-0.8,0.7-0.2,1.8-1.1,2.6c0.9,1.5-1.8,1.9-1.9,3.1c0.1,0.5,0.6,1.8,0.4,2.5c0.9,0.3,1.8,1.6,2,2.2c-0.4,0.6,0.3,1.2,0,1.8
		c-0.5,0.7-1.9,2.1-0.4,2.6c0.6,0.5,0.5,2.1-0.5,1.6c-0.9,0.5-0.7-1.4-1.7-0.4c-0.8-0.3-1.5,0.6-2.3,0.7c-0.1,1.9-1.2,0.7-2.4,0.4
		c-1.1,0-1.5,0.7-2.5,1c-0.5,0.4,0.6,1.1-0.3,1.1c-0.7-0.3-0.2,1.5-0.8,1c0.2-1.5-1.2-1.2-1.9-0.8c0.1,0.7-1.3,0.5-0.7,1.1
		c-0.5,0.2-2.3,0-1.6,1.2c-0.4,0.4-0.3,0.4-0.8,0.9c-0.3,0.7-0.4,1-1.1,0.5c-0.7,0.7,0.6,1,0.9,1.3c0.5,0.6,0.9,1.3,1.4,1.2
		c0.1,0.4,0.4,0.4,0.6,0.4c-0.3,0.4-0.5,1,0.1,1.1c-0.6,0.2-0.1,1.3-1.1,1.3c-0.4,0.5,0.5,0.4-0.2,1c0.8,1-0.6,2.2-1.3,1.4
		c-0.7-0.5-1.7-0.3-2.1-0.1c-0.4,0.5-1,0.8-0.6,1.5c-0.3,1.1,0.3,2,0.4,2.9c-0.9,0-2.1,0.3-2.1,1.2c-1.5,0.3-5.4,2.8-5,0.9
		c-0.4-0.5-0.7-0.7-1.1-0.3c-0.9,0-1.2,0.9-2.2,0.7c0.4,0.9-0.6-0.4-0.1-0.7c-0.4-0.5-0.9,0.3-1.4-0.2c-0.2-0.3-0.9,0.1-0.8-0.2
		c0-0.7-0.9-0.7-1-1.2c-1,0.3-2-0.2-2.3-0.6c-0.5-0.7-0.4-1.5-1.4-1.8c-0.4-0.1-0.7-1.2-1.5-1.2c-0.5-0.6-0.9-0.2-0.9-0.8
		c-0.3,0-0.9-0.6-1-0.9c-0.4,0,0.5-0.4,0-0.4c-0.1,0.5-0.7,0,0-0.2c0.7-0.4,0.5-0.5-0.1-0.2c-1,0.1-1.3-0.8-1.3-1.8
		c0.4-0.4-1.6,0.1-2.2-1.3c-1.4-0.3-1.2-1.1-1.3-1.6c0.7-0.9,1.6-0.6,1.4-1.1c0.9-1.7,3.1-3.9,4.6-3.4c-0.8,0.2-1,1.6-0.4,0.5
		c0.4,0.2,0.4,0,0.4,0c0.1,0.1,0.6-0.4,0.3-0.3c0,0.1-0.2,0.2-0.1,0c0.3-0.1,1.6-0.4,1.1,0c-0.2,0.3-0.3,0.2-0.3,0.2
		c-0.1,0,0,0,0,0.1c-0.1,0-0.1,0.1-0.3,0c0.1-0.5-0.3-0.2-0.2-0.1c0.3,0.3-0.7,0.1-0.4,0.5c-0.5,0,0.5,0.4,0.2,0c0.7,1,0-0.5,0.7,0
		c-0.2,0.4,0.2-0.4,0.3,0.4c0.5,0.7-0.9,0.3-0.1,0.3c1.2,0.6-1.7,0.7-0.1,0.6c0.9,0.8,0.4-0.8,0.8-1.2c0.4,1.3,0.5-0.5,0.6,0.4
		c0.2,0.5,0.2,1,0.3,0.2c-0.6-1.2,1,0.2,0.7-0.7c0.9-0.1,1.5,0,1.6,0.5c1.1-0.1-0.3,1.6,0.8,0.5c-0.3-0.2,0.1-1.3,0.3-1.3
		c-0.1-1.1,0.5-1.3-0.2-2.5c-1.4,0.7-1.1-0.6-1.2-1.2c0.6-0.4,0.4-0.6-0.2-1.3c-0.7,0-0.5-0.8-1,0.2c-0.3,0.7-1.1,0.3-0.6-0.7
		c-0.5-1.4,0.2-0.6,0.5-1c-1.2-0.2-1.1-1.8-1.6-2.8c0-1.4,0.5-2.2,1.2-2.7c0.2-1.5,1.5-1.6,1.1-3.2c0.8-0.7,1.5-2.7,1.5-1.5
		c0.5-0.4-0.1-2.1,1-1.7c0.4-0.1,0.9-1.2,1.6-1.7c0.1-0.9,0.7-0.9,1.3-1.1c1.1-0.2,2.1-2,3.6-1.3c1.2-0.3,2.8-0.6,3.6-0.6
		c-0.1,0.1,0.3,0.6,0.2,0.9c0.5,0.1,1.6-0.2,1.6,0.9c0.7-0.7,1.2-1.1,2.1-1.1c0.8-0.7,0.9,1.6,1.9,0.4c0.6-0.3,0.4-1.7,1.7-1.5
		c0.3-0.1,0.7-0.2,1.3,0.1c0.3,0.3,0.8-0.1,0.4-0.5c0.3-0.4-0.6-0.9,0.3-1.3c0.6,0.4,1.8-0.9,0.5-0.9c1.2-0.6,1.7-1.6,1.8-2.8
		c0.1-0.3,1.4-2.5,0.1-2.2c-0.6,0.8,0.2-0.5,0.2-0.9c1.1-1.8,3.1-2.8,3.6-5.1c0.3,0.7,1.7,0.8,1-0.3c0.5-0.9-2.1,0.8-0.8-0.8
		c0.8-1,2-2.7,3-2.9c0.3,0.3,0.8-1.4,1.3-2c0.4-0.4,0.1,0.6,0.2,0.6c1.1,0.2,0.6-1.2-0.2-1.5c1.1-1.2,1.5-3,3.1-2.8
		c0.5,0,1.3-0.6,1.6-1.3c0-1.2,1.2,0.2,0.7-1.4c-0.5-0.4-0.8,0.4-0.8-0.9c-0.6-1.4,1.3-0.4,0.5-1.8c-0.7-1.4,1.2,0.1,1.3-0.9
		c0.3-0.9,1.3-1,1.9-1.4c-0.2-0.2-0.4-0.1-0.5-0.3c-0.1,0-0.5-1.4-0.8,0.2c-1.2-0.4-1.7,1.3-2.4,0.9c-0.4,0-1.6,0.2-1.7,0.2
		c-0.5-0.1-1.3-0.9-1-1.1c0.7-1-1-0.5-0.6-1.2c0.2-0.6,0.1-1,0.7-1.3c0.3-0.5,0.3,0,0.5-0.4c0.7,0.1,1-0.1,1.7-0.7
		c-0.1-0.2,0.4-0.8,0.3-0.8c0.1-0.6-1.1-0.2-1-1c-0.4,0.3-0.8,0.8-0.9,0.1c-0.4,0.7-0.8,0.8-0.9,0.9c-0.2,0.4-0.4,0.7-0.3,0.9
		c-0.2,0.4-0.1,0.8-0.6,1.4c-0.5,2.3-1.4-1.5-2.6-1.6c-0.7-1.8-2.9-2.5-2.3-4.7c-0.7-0.6,0.8-3.5,1.1-2.3c-1,0.9,0.7,0.4,0.9-0.1
		c1,0.2,1.1-0.8-0.1-0.7c0-0.1,1.1-0.3,1.4-1.2c0.9-1.6,0.3,0.2,0.8-0.5c0.1-0.9-0.1-0.6,0.5-1c0.3-0.5,0.1-0.3-0.1-0.3
		c0.2-1.1,0.3-2.3,0.8-2.7c-0.6-0.7,0.4-2.5,0-3.7c-0.1-0.6-0.4-2.3,0.5-2c0.1-1.2-0.6-0.7-1.2-0.7c1-0.8-1-1.6-0.2-2.8
		c-0.5-1.1-0.3-1.5-0.6-2.3c0-3.3-0.7-5.4-0.4-8.7c-0.4-0.9-0.4-1.8-0.5-2.9c0.4,0.2,0.6,0.7,0.5,0.1c0.4,0.1-0.6-0.3,0.1-0.3
		c-0.3,0.1,0-0.9-0.4-0.6c-0.1-0.7-0.5,0.1-0.7,0.1c0.2-1-0.8-1.5-1.2-1.3c-0.4,0.3-0.4,0.5-0.9,0.1c-1.5,0.3,0.6-1.9,0.3-2.7
		c0.3-1.1,0.7,0.4,1.6-0.6c0.6-0.7,1.3-0.7,1.7,0c1.1,0.1,1.2-1.1,1.5-1.4c-0.1,0,1-0.7,1.1-1.2c0.7-0.9,0.4-2.3,0.7-1.8
		c0.2-0.2-0.2-1.4-0.1-0.4c-0.6-0.4-0.4-1.2-0.7-1.1c0.1-0.8-0.4-0.1-0.5-0.7c0-0.3-0.1-0.5-0.3-0.5c0.1-0.6-0.2-1.5-0.4-1.7
		c-0.1-0.7-0.5-1.5-0.7-2.3c0-0.4-0.7-1.2-0.3-0.3c0.6,0.7-0.3,1.4-0.1,0.9c-0.4-0.6,0-1-1.2-1.9c-1.3-1.4-1.2-1.4-1.8-2.3
		c-0.3-0.5,0-1.5,0.1-2.4c0.1-0.6-0.3-1.4,0.2-0.5c0.7,0.1,0.9,0.7,1.4,1.3c0.4-0.3,0.2-1.1,0.5-1.5c0.1-0.9,0.7-2.2-0.1-2.1
		c-0.2-0.4-0.9-0.3-0.3-0.7c0.5-0.1,0.6,0.1,1.1-0.1c0-0.6-0.8-0.8-0.1-1.1c0-0.5,0.4-0.9,0.1-1.3c0.5-0.6,0.9-1.2,0.7-2.1
		c-0.3-0.7-1.3-0.2-1.1-1c-0.6-0.4-0.8-0.9-0.8-1.2c0.3-0.4-0.1-0.5,0-1c-0.7,0.1-0.4-0.2-1.3-0.5c-1-0.2-1.7,1.1-1.4,1.4
		c-0.6-0.4-0.4,0.4-0.7-0.2c-0.1-0.2,0-0.9,0-1.3c-0.3-0.9-0.9-1.5-0.8-2c-0.6-0.9-1-1.5-2.3-1.9c0,0.1-0.6-1.1-0.8-0.1
		c-0.1,0.4-0.2,1-0.5,0.4c-0.4-0.7-0.1-1.7,0.1-2.1c0-0.5,0.6-0.6,1-0.7c0.6-2-2.4-3.1-3.2-4.6c0-0.2-0.5-0.7-0.7-0.5
		c-0.2,0.2-0.6-0.2-0.7-0.4c0.1-0.4-0.6-0.5-0.5-0.5c0-0.2-0.3-0.3-0.5-0.6c-0.9-0.4,1.4-3.8,1.5-5.1c0.1-2.8,1.5-0.7,2.3-2.1
		c0.8-0.5,0.7-1,0.3-1.6c-0.3-0.5-0.5-1.1-0.7-1.6c-0.3-0.3,0.2-0.9-0.1-1.3c0-0.5,0.3-1,0.7-1.1c1,0.1,1.1,0.6,2,1.2
		c0.1,1,0.7,2.2,1.2,3c0.2,0.2,0.6,0.9,1,0.7c0.6-0.4,0.9-1.2,1.2-1.7c1.1,0.7,0.6-1,1.3-1.5c-0.2-0.5,0.3-0.6,0.6-0.7
		c0.1-0.8,0.8-0.9,0.8-1.7c0.7,0.1,0.3-1.1,1-1c-0.1-0.5,1.1,0.4,1-0.4c-0.2-0.5-0.5-0.8-0.7-1.2c-0.3-0.3,0.7-0.5,0.6-0.8
		c-0.1-0.3,0.4-0.8,0.5-1.1c0.7-0.2,1.6-0.8,2.5-0.5c0.5-0.2,1.9,0.1,1.5-0.5c-0.6-0.4,0.2-0.6,0-1c-0.6-0.2-1.2-1-1.5-1.3
		c-0.4,0.1,0.2-0.5-0.1-0.8c0.1-0.4,0.5-0.8,0.1-1.4c-0.4-0.6,0.2-1-0.7-1.2c0.1-0.3,0.1-0.9-0.2-1.3c-0.2-0.3-0.9-0.8-0.7-1.2
		c0-0.2-0.4-0.6-0.4-0.9c-0.5,0.9-1.6-0.5-1.2-1.3c0.2-0.7-0.4-1.1-0.3-1.8c-1-0.7-0.8-2.6-2.2-1.8c0-0.4-0.5-1,0-1.2
		c0.2-0.5-0.1-1.2,0.5-1.1c0.7-0.3-0.2-0.9,0.9-0.6c-0.3-0.5-0.3-1-0.4-1.6c0.6-0.4,1.3,0.7,1-0.5C43.9,100,43.4,99.9,43.5,99.7
		L43.5,99.7z"/>
	<path id="orinoquia" class="st0" d="M294.9,161.6c0.8,0.7,1.5,1,2.5,0.7c1.1,0.5,2.6-0.2,3.3,0.9c0.8-0.1,1.6-0.2,2,0.7
		c0.7,0.4,2.3,1.2,0.9,1.8c-0.8,1,0.3,2.1,0.8,2.9c0.6,0.4,1.1,1,1.1,1.7c-0.8,0.4-1.5,1-2.1,1.6c-1.3,0.5-1.8,1.8-2.8,2.7
		c-0.2,1.3-1,2.5-1,3.9c-0.1,1.1,0.3,2.2,0.6,3.2c1,0.6-0.6,1.3-0.3,2.2c-0.7,0.8-1.7,1.2-2.5,1.8c-1.3,1-3.7,1.6-3.2,3.6
		c1.6,1.3-1.3,3.5,0.6,5c0.6,1.9-1.1,4.6,0,7c0.2,2.7-0.8,5.4-0.7,7.8c2,0.9,2,3.1,2.1,4.7c-1.7,0.3-0.4,3.8,0.4,4.9
		c1,1.2,2.2,3.5-0.3,3.7c-1.3,0.2-3.4,4.2-4,2c-0.5-1.7-3.1-0.2-3-2c-0.7,0.9-1.4,3.1-1,0.8c-0.5,0.1-1.8,1.9-1.3,0.3
		c0.7-1.5-2.1-0.4-2.1-0.5c0.5,1.5-2-0.3-3,0.2c-1.8-1.1,0,1.8-1.4,1.7c-2.3-0.8-1.3,0.4-0.5,1.5c-0.4,0.6-2-1.5-1.3,0
		c0.1,1.3-1-0.5-1.5,0.5c-1.1,0.2,0.6,2-0.8,1.3c-0.2-0.6-1.6-1.3-1-0.2c0.7,0.3,0.4,1.3,0,0.3c-0.4-0.4-0.6,0.4-1.2,0
		c-0.8,1.2-1.5-1.8-1.8-0.3c0.4,0,1.4,0.9,0.6,0.8c-0.6-0.6-1.7,0.4-2.4-0.5c-0.7,0.3-0.6,2.3-1.9,1.5c-0.6-1.1-1.2,0.2-0.5,0.8
		c0.5,1.1-0.3,0.4-0.5-0.2c-1,0.3-2.3,1-1.8-0.8c-1.1-0.7,0.6,2-0.9,1.4c-1.3-1.2-2,2.2-3.1,0.7c-0.7,0.9-1.1-1.3-2,0.4
		c-0.9,0.5-0.8-0.2-0.3-0.6c0-0.7-1.3,0.4-0.8-0.6c-0.2-1.1-1,1.3-1.1,0c0.2-1.3-2.4-1.2-0.7,0.3c-0.7,1.4-0.9,0.4-0.6-0.7
		c-0.9-0.9-2,2.2-2.8,0.7c-0.7,1.7-1-1.6-2-0.6c-0.4,0.2-0.4,1.9-0.7,1.1c-0.2-0.9-1.8,0.1-2.5-0.5c-0.4,0.5,1.1-0.1,0.2,0.9
		c0.3,0.7-0.2,3-0.7,1.4c-0.4,0.1-0.6,1.2-1.3,0.3c-0.8,0-1.2,2.1-1.4,0.3c-0.7-1-1.3,0-0.2,0.3c0.1,1.5-1.4-0.7-1.8,0.2
		c-0.1,1.7-0.6,0.8-1.4,0c-0.2,0.9,1.5,3-0.5,1.3c-1.3-2.1-0.6,0.2-0.3,0.9c0.4,2.7-3.6-1.3-2,1.3c0.1,1.3-2.3,1.8-2,0.2
		c-0.7,0-2.2,1.4-2.7,0.3c0,1.2-2.4,1.4-0.2,2.4c1,0.1,0.5,1.4-0.1,0.5c-1.7,0,1.3,2.8-0.4,2.6c0.2-0.7-0.9-1.7-0.7-0.5
		c1.3,0.9-1.1,1.6-1.1,0.2c0.8,1.7-0.4,0-0.9,1.1c-0.7,0.7-1,1.3-1,2c-2.2,0.4,1.1,0.3,0.8,1.4c-2.6-0.7,1.2,3.8-2.2,3.1
		c-0.5,0.7-0.1,2.3-2,2.4c-2.6,0-2.4,1.9-5.3,2.3c-2.1,1.6-7.3,1.9-8.3,3.9c0.3,1.1,1.4,0.8,2.2,0.5c0.5,0.6,0.7,1.3,1.4,1.2
		c0.4,0.1,1-0.7,1.3-0.2c0.1,0.5,0.2,1.3,0.7,1.4c0.5,0.3,0.8,0.9,1.2,1.3c-0.1,0.7,0.6,1.1,0.7,1.6c0.6,0.8,0.1,1.5,1.4,2
		c0.7,0.1,1.1,0,2.1,0.6c-0.1-0.9,1.4,1.2,0.1,0.4c0.2,1,1.8,0.6,1.5,0c1-0.2,1.2-0.1,1.6,0c0.8,0.9,1.4-0.1,2,1.1
		c1.2,0.3-0.3-1.9,1.1-0.6c0.6-0.8,1.1-0.8,0.8-0.1c0.7-0.1,1.6,0.6,1.5-0.2c0.9,1.1,0.5-0.9,1.2,0c-0.6-1.1,0.7-0.2,1.5-0.3
		c0.4-1.1,1-0.9,1.1-0.3c0.7,0.1,0.2,1,1.2,1.5c-0.4,0.4-0.1,0.8-0.7,1c-0.5-0.6,0.2,0.8-0.9,0.4c-0.1,0.7-1.3,0.9-1.3,1.1
		c-0.5,0.2,0.2,1.4-1,1.4c-0.4-0.2-0.7,0.8-0.9,0.8c-0.3,0.5-0.6,0.2-0.9,0.3c-0.2,0.1-0.6-0.4-1-0.1c-0.3,0.3-0.6,0.2-1.1,0.3
		c-0.8,0-1,0.5-1.4,0.6c-0.4,0.5-0.5-0.3-1-0.2c0.1,0.8-0.6-0.3-1,0.4c-0.3-0.6-1.1,0.2-1.1,0.2c0.3,0.5-0.6,0.4-0.5,0.5
		c-0.1,0.4-0.9,0.7-1,0.2c-0.2,0.1-0.6,0.1-1,0.4c-0.4,0.2-0.7,0.2-1.1,0.1c-0.2,0.4-0.4,0.2-0.7,0.3c0.1,0.2-0.6,0.3-0.4,0.6
		c-0.5-0.3-0.6-0.2-1-0.1c-0.1-0.1-0.4,0.3-0.5,0c-0.3,0.1-0.3-0.5-0.6-0.2c0,0.2-0.6-0.5-0.7-0.1c-0.2,0.5-0.6-0.1-0.8-0.2
		c0,0.2-0.4,0.3-0.6,0.3c-0.2,0.4-1-0.3-1.1,0c-0.6-0.4-0.7,0.3-1.1-0.2c0.1-0.5-0.5,0-0.4,0c-0.1,0.3-0.3,0.7-0.4,1
		c-0.1-0.2-0.6,0.3-0.5,0.3c-0.3,0.1-0.8,1-1.2,0.9c-0.4,0-0.4,0.6-0.8,0.5c-0.3,0-0.3,0-0.5,0.2c-0.7-0.3-0.8,0.5-1.3,0.2
		c-0.6,0.2-0.5,0.7-1.4,0.6c-0.3,0.7-1.8,0.9-2.2,1.9c-0.6,0.3-1,1.6-1.7,0.8c-0.7-0.2-0.9-1.1-1.6-0.7c-0.8-1.2-2.6-0.8-1.6,1.1
		c0.1,1.2,0.2,2.1-0.9,2.8c-0.6,0.6-0.3,1.6-0.7,2c0.1,0.7-1.1,1-0.6,1.7c-0.1,0.9-0.4,1.3-0.7,1.7c0,0.3-0.1,0.4-0.2,0.7
		c-0.1,0.4-0.3,0.2-0.1,0.5c-0.2,0,0,0.3-0.3,0.2c0.3,0.4-0.3,0,0,0.5c0.4,0-0.7,0.3-0.6,0.1c0,0.5,0.3,0.5,0.1,0.8
		c0.2,0.2,0.3,0.5,0.1,0.7c-0.5,0.2,0.1,0.7,0.2,0.4c0.3,0.4,0.1,0.9,0.6,1c-0.1,0.1,0.1,0.5,0.2,0.6c0.2,0.3,0.9,1.8-0.5,0.9
		c-0.1-0.5-0.3-1.9-0.8-0.8c0.8,1.4,0.1,0.3-0.3,0.5c-0.4-0.2-0.2,0-0.1,0.1c-0.4-0.2,0.4,0.4-0.3,0.2c0.3,0.2-0.1,0.5,0.3,0.5
		c-0.1,0.1-0.2,0.1,0,0.3c-0.1,0.1-0.3,0.2-0.3,0.3c0.5,0.2-0.3,0-0.1,0.3c-0.1,0.2,0.3,0.3-0.1,0.2c-0.5,0-1,0.7-1.1,1.2
		c-0.2,0.2-0.7,1-1.5,0.6c0-0.6-1.4-0.4-1.7,0.3c-0.8,0.2,0.5,2-1.2,1.9c-1.4,2-5.4,4.3-5.7,6c1.1,0,1.1,1.2,0.3,1.7
		c0.5,0.4,0.6,0.9,1.4,1.3c0.4-0.1,0.4-1.3,0.7,0c0.7,0.8-0.5,1.6,0.7,1.9c-1.2,0.8,0.8,0.7,0.6,0.1c0.9,0.2,1.2,1.7,1.2,1.8
		c0.1,0.8-1.1,1.4,0.3,1.5c1.1-0.2-0.4-1.3,0.8-0.6c1.5-0.5-0.9,1.1,0.7,0.9c0.4-0.3,0.5,2.1,0.9,0.6c1.7-0.8-0.9,0.9,0.6,1.6
		c0.9,1,3,0.8,1.9,1.7c0.8,0.3,2.6-1.8,1.5-0.2c-1.2,1.5,2-0.3,1.2,1.3c-0.3,1.1,1.7-0.3,1.7-1.2c0.8,0.4-0.7,1.2,0.7,1.1
		c1.2,0.2,1.1-2.1,1.9-0.4c0.4,1,0.8,0,1,0.2c0.4,0.7,0,1.2,1.1,1.5c-0.8,1.1,2,0.2,0.4,1.5c-1.6,0.4-2.7,0-3.9,0.8
		c-1.2,1-2.6-0.7-4.1-0.2c-0.6,1.8-3.7,1.4-3.7,3.5c-1.1,1.1,1.2,3-0.4,3.3c-2,1.3-4.5,0.3-6.9,0.7c-1.8-0.8-1.2,2.3-3.2,1.7
		c-1.6,0.4-0.6,3.5-2.9,4.2c0,1.6-0.2,2.9-1.5,3.6c-0.3,0.9-1.2,0.2-1.8,0c-0.4-0.6-1.3-0.4-1.3-1.2c0.6-1-1.4-1.3-1.5,0.1
		c-1.3,3-4.1,3.3-5.6,0.6c-1.2-0.4-1.8-2.3-2.9-1.1c-1.4,1.2-4.1,1.7-4.9-0.7c-2.7-2.5-1.9,3.3-4.1,1.5c-2.4,1.8-3-1.5-4.9-2
		c-0.8-1.5-1.9,1-3.2-0.5c-1.2,1.1-2.4-0.2-2.7-0.4c-1.1,2.1-0.6-2.8-2.4-1.1c-1.2,0.7,0.8-1.4-0.7-0.8c-1,0.3-1.5-2.1-2.4-0.5
		c-1.3,0.8-2.5-0.3-3.6-0.9c-1.4-0.4-3.9-0.3-3.9-2.2c-0.5-0.6-1.6,0.5-1.8-1.2c-1.1-0.2-2.3,1.7-2.3-0.7c-0.7,0.3-1.5,0.9-2.5-0.4
		c0.5-1.1,0.9-1.6-0.6-1.5c-0.5-2.5-5,1.4-2.9-1.1c-0.8-2.6-1.8,2.9-2.2,0.1c-1.1-1.4,0,1.4-1.7,0.2c-1.7-0.4-1.2-0.8-1.5-1.7
		c-0.5-0.7-1.9,0.9-1.2-0.1c1.7-0.8-2.2-2.3-0.2-2.3c1.4-0.8-0.2-1-0.8-1.2c-0.1-0.3,1.3,0.3,1-0.9c0.2-1.9-1.9-2.7-3.4-2.4
		c-1.3,0.5-1.9-1.3-3.3-1c-0.8,0.8-3.2-1.2-1.5-1.4c0.1-0.7-1.6-1.7-0.5-2.4c1.3-0.3-0.4-1.4-0.5-2.2c-0.7-0.6-2.9,0.9-1.9-0.8
		c-0.9-0.6-1.5,1.2-2.6,0.6c-1.3,0,0.5-0.8-0.8-1.4c-1-1.3,1.2-1.7-0.2-2.9c-1.6-0.3-0.8-0.9-0.8-1.9c-0.9-0.4-1.6-0.8-2.3-1.3
		c-0.9,0.9-2.9,0.9-3.6-0.4c-1.2,1.2-1.3-0.9-1.8-1.3c-1.5,0.4-1.5-1.3-2.8-1.1c-0.8,0.7-2.1,0.2-2.8,0.9c0-1-1.2-1.9-1.9-0.9
		c-0.9-0.4-0.9-1.5-1.8-1.9c0.1-1.1-1.8-0.5-0.7-1.4c0.8-1-1.1-0.7-1.5-1.7c-0.6-0.3,0.4,1.9-0.3,0.7c-0.4-0.5-2,0.1-2.3-0.6
		c-0.6-0.1-0.9-1-1.4-0.9c-0.2,0-0.4-0.5-0.6-0.2c-0.5,0.3-1.1-0.3-1.3-0.1c-0.5-0.4-1.6,0-1.7-1.1c0-0.6-0.5-0.4-0.4-0.9
		c0.7-0.6-0.7-1.1,0.3-1.6c0.5-0.5,1.1-0.9,1.2-1.3c0.5-0.6,1-0.5,0.6-1c1.1-0.4,0.2-2.1,0.8-2.3c0.4-0.6,0.3-0.7,0.1-1.2
		c0-0.7,0.7-1.2,0.9-1.8c0.2-0.3-0.3-0.4-0.1-0.7c0-0.2-0.5-0.7-0.2-0.5c0.8,0.2,1.3,1.4,2,0.3c0.8-0.3,1.8-0.1,2.3-1.1
		c1,0,0-1.5,1.2-1.3c0.4-0.9,1.3-1.5,2.4-1.5c0.7-0.1,0.8-1.1,1.7-0.9c0.8-0.5,2-0.7,1.9-2c0.3-1.3,2.1-1.4,2.1-2.7
		c0-0.9,0.9-1.8,1.4-2.2c0.7-0.9,1-2.4,2.1-2.8c1.6-0.2,2.5-1.3,2-2.8c1.1-0.7,0.9-2.6,2.4-2.6c0.4-1.1,1.5-1.2,1.8-2.4
		c0.7-0.4,1-2.1,1.6-2.3c1.4,0.4,0.7-0.9,1.5-1.7c1.2-0.7-0.8-1.8,0.4-2.7c-0.3-0.4-0.7-1.5,0.5-1.2c1.6-0.1,2.4-2.1,3.5-3.5
		c1.4-0.7,2.1-2.7,3.1-3.3c0.8-0.6,1.2-1.9,2.1-2.1c0.9-1.3,2-2.5,3.2-3.6c0.2-1.8,2.2-2.7,0.8-4.3c1.1-0.6,0.6-2,0.4-2.9
		c0.6-1.5,2.2-0.9,2.5-2.7c0.4-0.9,0.8-2.2,1.8-2.4c0.4-0.7,1.1-1.3,1.3-1.7c0.7-0.3,0.3-1.1,1.2-1.4c0.5-0.8,0.8-0.9,1.6-0.7
		c0.2-0.7-1.1-1.8,0.3-2c0.7-1.2,1.1-1.7,1.9-3.1c0.9-0.1,1.4-0.3,2.1,0.3c0.8,0,1.5-1.1,1.9-1.5c0.8,0,0.7-0.3,1-1.1
		c0.6-0.3,1.2-0.2,1.6,0.1c0.6-1.2,0.9-1.5,2.1-1.5c0.6-1,1.8,0,1.9-1.3c0.6,0.1,2.3,0.6,1.5-0.6c-0.1-0.9,0.2-1.5-0.8-2.1
		c0.3-1.5-1.3-2.3-0.2-3.6c0.8-0.4,1.5-0.4,1.6-1.3c0.5-0.8,1.4-1,2.1-1.5c0.7-0.6,1.8-0.2,2.2,0.6c-0.9,1-1,1.9-0.1,2.9
		c-0.3,0.9,0.8,1.8,0.6,2.7c0.6,0.6,1.8,0.9,2.4,0.8c1.1-0.9,2.8-1.3,4.3-0.4c1.6,0.1,2.9,0.9,3.6,1.8c0.6,0.3,0.5,1.1,0.9-0.8
		c0.3-4.4,2-9.3,1.8-13.4c-1.4-1.4,0.8-2.5,0.2-4.1c0.4-1.1,0.7-2.7,1.9-1.2c0.6-1.2,2.2-2,1.6-3.4c-0.6,0.1-1.3-0.8-1.6-1.2
		c0.8-0.8,1.2-1.9,2-2.9c-0.1-0.8,0.2-1.7,0.4-2.3c-0.3-0.6,0.5,0.1,0.6,0.3c0.6-0.8,1.9-1.6,2.3-0.3c0.5,0.8,1.6,0.8,1.5,1.9
		c0.8,0.5,1.8-1.4,2.6-1.8c0.6,0,1.7-0.4,0.9-0.9c1-0.8,2.2-1.5,2.6-2.7c1-0.6,1.3-1.6,1.9-2.1c0.8-0.4,1.2,1.3,2,1.7
		c1.9,0.3,0.9-3,1.8-3.8c-0.2-0.6,2.1-0.7,0.7-1.1c-0.3,0-0.6-1-0.9-1.2c0.1-0.5-0.8-0.5-0.6-1c-0.2-0.7-1-0.8-1.8-1
		c-0.7-0.5-2-1-2.4-1.1c0.5-1.5,2-1.3,3.3-0.9c0.7-0.6,0.1-1.4-0.1-2.1c0.3-1-1.4-1.9,0.3-2.4c1.3-1.2-1.7,0.2-0.9-1
		c-0.4-0.3-0.6-0.8-0.2-1.3c-0.6-0.5-0.5-1.3-1.1-1.1c1-1,0.4-2.3,1.2-3.3c0.5-0.8,1-1.1,0.6-0.3c-0.4,0.4-0.2,1.1-0.3,1.7
		c0.4,0.5,0.5,1.1,1,1.3c0.3,0.3,1.2,0.1,1.1,1c-0.3,0.3,0.2,0.8,0.3,1.2c1.1,0.6,2.3,1,3.4,1.6c1.3-0.1,1.9-1.7,3.4-1.6
		c1.3-2,3.7,0.1,5.1-1.5c1.7-0.4,4.5,0.4,4.9-1c0.7-0.1,0.9,0.8,1.7,0.9c-0.4-1,0.6,0.4,0.6-0.5c0.6-0.1,0.1-0.5,0.9,0.2
		c0.3,0.3,0.4-0.5,0.8,0.1c0.5-0.6,1.6,0,0.9-1.1c0.6,0.2,0.8,0.8,1,0.1c1,0.1,0.7,0.5,1.7,0.3c0.3-0.6,1-0.9,1.8-1
		c0.1,0.7,0.2-1,0.9,0.1c0.5,0.2,0.4-0.8,0.7-0.7c1.2,0.8,2.3,1.1,3.3,0.5c1.1,1.1,1.8,0,2.8,1.3c1-0.2,2.5,0,3.1,0
		c0.7-0.6,2.2-0.9,2.7,0c1.1,0.4,2.1,0.1,3.4,0c1-0.3,1.7-0.4,2.5-0.3c0.6,0.8,1.5-0.7,2.3-0.8c0.7-0.3,0.7-0.6,1.7-0.6
		c1-0.5,1.9,0.8,2.5,0.3c1.1,0.5,2.1-0.7,3.2,0.1c0.6-1.1,0.3,0.7,1.3,0.6c0.1,1,1.7,1,1.8,2c0.7-0.2-0.9,1.2,0.6,0.6
		c0.9,0.7,1.2-0.6,1.3,0.7c1.2-0.5,2.1,1.1,2.3,2.1c1.6,0.9,3.2-0.5,4.8,0.2c2.3,0.5,5.4,0.3,7.1-1.5c1.4-1.2,2.9-1.1,3.8,0.4
		c1.8,0.9,2.5-1.5,3.9-1.9c0.2-1,1.3-0.8,1.8-1.4c0.8-0.5,1.3,0.1,1.8,0.6c1.1-0.3,2.1,0.6,3.2,0.6c0.9-0.3,2.1-0.4,2.6,0.5
		c0.9-0.3,2.2-0.3,2.8,0.5c1.1,0.4,1.7-0.6,2.6-1c0.7,0.5,1.6,0.7,2-0.3c1.4-0.2,2.7-0.2,4.1,0c1,1.1,2-0.2,2.9-0.5
		c1-0.2,1.9-0.7,2.9-0.8c0.9-0.2,1.9,0,2.5,0.8c0.6-0.2,1.2-0.3,1.7-0.5c1.2-0.5,1.9-1.6,3.1-2.2
		C293.9,161.8,294.5,161.8,294.9,161.6L294.9,161.6z"/>
	<path id="nororiente" class="st0" d="M158.3,83.9c0.7,0.8,0,1.4,0.9,1.9c0.7,0.7-0.1,1.4-0.4,1.7c0.9,0.3,0.7,1.8,1.6,1.4
		c0.7-0.2,0.9-0.6,1.2-1.1c0.7,0,1.5,0.6,1.5-0.2c0.2,0.6,0.5,0.3,0.6,0.8c0,0.4,0.6-0.4,0.7,0.2c0.2,0.1-0.1,0.1,0.1,0.4
		c0.5,1.5,1.8,5.8,2,8.2c0.2,1.4,0.9,4.8,1.6,4.7c1.7,1.5,4.2,4.7,5.8,6.1c0,0.3,0.5,0.1,0.6,0.7c-0.4,0.5,0.5,0.9,0.1,1.4
		c-0.1,0.4-0.3,1.2,0.1,1.2c0.1,1.3,0.5,1.1,0.8,2.4c-0.7,0.4,0.2,1-0.5,1.3c0.4,0.4,1,1.4,0.5,2.1c0.6,0.9-0.6,0.2-0.9-0.2
		c-0.8-0.2-0.6,0.4-0.8,0.8c0.1,0.6-0.9,0.3-0.6,0.9c-0.3,0.3-1.1,0.2-1.3,0.9c0,0.3,0.8,0.4,0.8,0.8c0,0.4,0.2,0.8,0.4,1.3
		c-0.2,0.5,0,1.3-0.6,1.6c-0.2,0.8-0.1,1.6-0.1,2.5c-0.3,1.4,0.1,2.4,0.5,3.7c-0.5,0.9-1,1.8,0.1,2.5c0.1,1.1,0.6,2.2,2.4,1.8
		c0.7,0.5,1.2,0.3,1.9,0.2c1.2,0.2,2.5-0.6,3.1,1.2c0.5,0.5-0.2,1.5-0.1,2.1c1,2.1,2.2,6.1,5,6.3c1.5,0.7,2.9,0,4.2-0.4
		c-0.1-1.3,2.8-0.8,3.1,0.1c1.1-0.2,2.4-0.6,3.1-0.3c-0.8,1.4,1.6-0.1,2,0.5c0.5,0.1,0.9,0.4,1.2-0.3c-0.1,1.6,1.4-1,2.5,0.6
		c1.3-0.1,2.6-0.5,3.4,0c0.7-0.1,2.1-0.4,3-0.3c0.6,0.7,0.1,0.4,0.5,1c1.4,0.5,3,0.4,3.8-0.7c1.4,0.4,0.6-1.3,1.6-0.8
		c0.5-0.7,1.9,0,1.2-0.8c0.7,0.1,1.5,0,2.2-0.2c0.4-0.4,2-0.1,2.4-0.3c1,1.1,2.4,0.6,3.3,0.5c0.7,0.8,0.3,0.8,1.1,1.4
		c0.4,0.9,1.7,0.3,2,0.5c0.2,0.1,0.7,0.9,1.4,0.5c0.6,0.9,2,1.8,3.4,0.9c0.9-1,2.4-0.8,3.7-0.7c5.9,7.6,12.6,15.5,17.9,22.9
		c-0.7,0.9-2,1.3-3.1,1.6c-2.9,0.6-5.6-0.6-8.3,0.1c-1.2-0.5-0.7-1.8-1.8-2.3c-0.9,0-1.2-0.4-1.5-0.8c-0.5,0.5-2.4,0-1.3-0.7
		c-0.7-0.1-1-1.4-2-1.4c0-0.9-1.1-0.8-1.1-1.5c-0.5,0.8-1.5-0.2-2.2,0.3c-0.8,0.4-1.8,0.2-2,0c-0.8-0.6-2.4-0.3-2.8,0.1
		c-0.9,0.3-1.8,1.1-2.8,1.3c-0.5-0.4-1.1-0.2-1.7-0.2c-1,0.4-2.5,0.5-3.6,0.5c-0.9,0-1-0.8-2-0.7c-0.9,0-1.5,1.1-2.4,0.4
		c-1.4,0.5-2.6,0-3.7-0.7c-0.3,0.7-1.7-0.7-2.1-0.2c-0.6,0.7-2.2-0.7-2.8-0.6c0.1,0.5-0.6,0.9-1.2,0.2c0.1,0.9-0.8,0-1.5,0.7
		c-0.2,0.4-0.9,0.8-1.3,0.7c0.1-0.3-1.2-0.7-1.2,0.1c-0.5-0.6-0.9-0.7-0.5,0.2c-0.6-0.3-1.3,0.6-1.7,0.1c-0.2,0.9-1.1-1.1-1,0
		c-0.5,0-0.3,0.6-0.9,0c0.3,0.9-1.2,0-1.1-0.4c-1,0-1.3,1.5-3.1,0.9c-2.1-0.5-3.6,1.7-5.7,0.6c-1.4,1.2-3.3,1.2-4.5,2.5
		c-1.2,0.5-2-0.9-3.2-1.1c-0.8-0.2-1.1-1-1.2-1.5c0.4-0.8-0.6-0.9-1-1.1c-0.2-0.2-0.7-0.4-0.7-0.9c-0.4-0.6-0.6-1.6,0-2
		c0.1-0.5,0.5-0.9-0.3-0.1c-0.3,1-1,1.8-2,1.1c-0.3-0.4-1-0.8-1.5-0.2c-0.2-0.1-0.6-1.1-0.5-1.6c0.2-0.7,1.2-0.2,0.9-1.1
		c0.5-0.1,0.6-0.8,1.2-1.1c0.4-0.5-0.5-0.9,0-1.4c0-0.8,0.7-0.7,1-0.9c0.4-0.1,0.4-0.4,0.5-0.8c1.8,0.2-1.3-1.9,0.4-1.8
		c0.7-0.4,0.5-1.5,1.3-1.7c0.5-0.3,0.5-1.4,0.3-1.8c0.6-0.5-0.6-1.5-1-2.2c-0.2-0.7-1.5,0.5-2.1-0.3c-0.9-0.1-1.9,0.4-2.1-0.9
		c0.3-1.2-0.4,0.2-0.9-0.2c-1-0.2,0.2-1.6-0.5-2.4c-0.3-1.3-1.8,0.3-2.6-0.4c-0.6,1.5-0.3-0.2-1-0.3c-1.1,0.8-1.5,0.1-1.7-1.1
		c0.3-0.8-1.2,0.5-1.2-0.6c-0.9-0.2-0.9-1.4-1.4-2.2c0.5-0.3,0.4-1.1,0.6-1.4c-0.8-0.1-1-1.3-0.9-1.9c1.1-0.3,0.9-1.6,0.6-2.2
		c-0.4-0.6-1.9-1.8-1.3-3.1c-0.9-0.8-2.7-1.2-2.5-2.9c0.8-0.9-0.9-1.1-1.3-0.6c-1.1,0.3-2.3,0-3.4-0.2c-1-0.4-2-0.1-2.3,1.1
		c0.7,1-0.2,1.4-0.8,0.9c-1-0.1-2,0.4-2.3-0.7c-0.5-0.5-0.7,0.5-1.5,0c-1-0.1-1.9-0.6-2.2-1.4c0.4-0.8-1.2-1.1-1.1-1.8
		c-0.2-0.2-1.3-0.1-1.1-0.9c-0.4-0.3-1.3-0.7-0.2-0.4c1.1-0.2,1.6,1.1,2.3,0.9c0.4,1.1,1.1,0.9,2,0.3c1.4-0.6,1.3-1.7,2.6-2.8
		c0.2-0.9-0.2-1.6,0-2.5c0.5-0.6,1.2,0,1.5-0.9c0.9-0.2,0.5-2.1-0.1-1.7c-0.2-1.4-2.3,0.2-2-1.7c0.6-1.4-1.3-1.5-1.6-2.5
		c0.3-0.8,0.7-1.8,0.9-2.4c1.3-0.4,0-1.8,1.1-2.2c0.4-0.5-0.1-1.9,0.5-2.4c0-1.5-3-1.2-1.5,0.1c0.1,0.8,0,1.3-1,1.5
		c0.2,0.9-0.9,0.3-0.6-0.1c-0.4-0.5-1.3-0.7-1.8-0.5c0.7-0.5,1.2-1.4,1.5-2.1c-0.6-1.1-2.1,0.1-2.4-0.8c-0.6,0-0.2-0.5,0.3-0.5
		c0.6-0.5,1.4-0.6,0.3-1.4c-0.7-1.2,0.6-2.2,1-3.4c0.7-0.1,0.8-0.7,1.2-1.6c2-0.2,0.6-2,0.3-3.1c1.3-0.5-0.3-2.6,0.5-3.6
		c1-1.2-0.6-3.2,0.8-4.1c0.7,0.4,1-0.6,2-0.3c1.2,0.1,1.9,0.5,2.8-0.2c1.4,0.6,1.9-1.7,3.4-1.3c0.3-0.6,0.6-0.8,1.1-1
		C157.3,84,158.3,83.2,158.3,83.9L158.3,83.9z"/>
	<path id="amzonia" class="st0" d="M298.4,225c1.1,1.6,0.7,5.3,3.7,4c1.3-1.3,1.6,2.1,2.2,2.5c0.2,1.3,0.6,2.6,1.2,4.1
		c0.5,1.3,3.6,2.2,2.1,4.1c-0.5,1-1.7,1.6-1.5,2.7c-4,0.7-6.4,5.7-9.9,7.7c-1.8-0.3-3.8,6-1.9,3.9c0.4-0.9,2.6-1,2.8-0.2
		c1.4,0.9,3.8-0.9,3.7,1.6c1.2,0.7-0.3,3.5,1.7,2.1c1.4,0.3,1.5,1.7,2.9,2.4c1,0.9,1.9,1.8,2.7,3.1c0.7,1.2,4.1,2,2.8,3.9
		c-1,1.4,0.2,3.9,1.5,5c1.7-0.8,1.4,2.4,0.7,3.3c0.1,1.3,2,2,2,3.8c0.1,1.9,1.3,3.8,2.1,5.3c-0.2,2.2,2,3.7,1.4,6.2
		c1.7,0.6,2.1,2.7,0.7,3.6c2.5,2.5-2.8,1.7-4.4,2.8c-2.2,1.1-0.3-2.1-2-2.5c-0.9-0.9-1-2.4,0.6-1.7c1.2-0.9,0.4-2.2,0.5-3.5
		c-0.5-1.4-0.3-3.2-1.4-3.8c0.4-1.8-0.3-3.1,0.1-4.8c-0.9,0.1-0.4-1.3-2-1.7c0.3-2.4-1.9-0.8-2.7-1.5c-0.8-1.5-1.2-3.4-1.1-4.5
		c-0.4-1.1,1.2-2-0.2-2.6c-0.1-1.4-1.9-1.4-1.7-0.2c-0.6-0.1-1.1,1.3-2.4,0.8c-0.8,0.4-2.5-0.2-1.6,1.5c-0.5,1.2-1.2,2.6-2.4,2.7
		c-1.2,0.3-2.5-2.1-3,0c-1.3,0.8-2,3-3.6,2.8c0.3,0.7,0,2.1,0.1,2.2c-1.3-0.9-2.4-0.9-3.1-0.1c-0.1-1.5-0.8-1.7-1.9-2.7
		c-0.3-1.1-1-1.4-1.8-1.5c-0.4-0.1-0.6-3-0.7-0.8c-0.5,1.4-1.2,1.9-1.3,3.1c-0.2,0.4-0.7,0.9-0.8,1.1c0.5-0.3-0.4,0.7,0,0.3
		c0,0.7,0.9,0.2,1.2,0.2c0.4-0.2-0.7,1.5-0.1,1.3c0.1-0.3,0.6,0.4,0.8-0.2c1.2,0.1,0,1.1,0.5,1.3c0.3-0.3,0.5-0.3,0.4,0.1
		c-10.7-0.2-22.2,0.3-32.6-0.1c-0.4-0.4-0.6-0.1-0.9-0.3c-0.6,0.1-0.5-0.5-0.9,0c0-0.4-1-0.5-1.1-0.5c-0.4-0.1-0.2-0.1-0.7-0.3
		c-0.6,0.3-0.8,0.5-1.3,0.7c-0.4,0.3-0.6,0.6-1.1,0.7c-0.2,0-0.9,0.1-1.2-0.2c-0.7,0-1.6-0.2-1.7,0.4c-0.2-0.1-0.8,0.6-0.9,0.5
		c-0.6-0.2-0.9,0.2-1.2-0.4c-1.5-0.6,0.1,4.8-0.4,5.9c0.5,3-0.8,8.5,0.3,10.7c1,1.3,2.8-1.8,3.5-0.7c-0.2,2.3,2.5-0.9,3.4,0.9
		c1.2,0.3,2.7-0.5,3.7,0.2c-0.1,1,0.9,0.6,1.1,0c0.4-0.6,0.3-0.6,0.9-0.3c0.6-0.2,1.2-0.3,1.5,0.4c0.3,0.4,1.1,0.1,1.4,0.3
		c0.2,0.7,1.9,1.3,0.7,2c0.1,0.3,2,0.9,1,1.1c-1,0.5,0.9,1.6,1.1,1.6c0.1,1.2-1.6,0.7-0.4,2c0.8,1.3-1.7,0.9-0.7,2.2
		c0.6-0.1,2.2,1.8,1.4,2.1c-0.4-0.6-1.6-0.6-1.8-0.2c-0.2,0.8,0,0.9-1,1c-0.2-0.1-0.8-0.1-1.3,0c-0.7,0.1,0.2-0.6-0.1-1.1
		c-0.3-0.4-1,0.9-1,0.2c-0.5-0.5-0.6,1.5-1.1,0c-0.8-0.6-1.1-1.3-1.7-1.8c0.1-0.3-0.7-0.5-0.8-0.8c-0.8,0.2-1.6,0.8-1.9,1.4
		c-0.6-0.1-1.1,0.4-1.3,0.8c0.1,0.3-0.6,0.8-0.5,0.8c-0.5-0.3-0.8-0.8-1.1-1.2c-0.5-0.1-0.9,0-1.1,0.3c-0.5-0.2-0.8,1.6-1.5,0.9
		c-0.6,0.2-1.2,1.3-1.6,1c-0.6-0.8-1.6,0.5-2.3-0.1c-0.7-0.5-0.7,1.4-1.7,0.5c-0.4-0.7-0.8,0-0.9-0.1c0.3,0.9-0.7,0.6-1.1,0.1
		c-0.6,5.6,0.3,13-0.2,18.4c-0.4,0.5-0.5,1.2,0.1,1.5c1,0.3,1.5,1.3,2.1,2c0.3,0.1,0.6,0.6,0.7,0.7c0.2,0.5,0.8,1,1.3,1.1
		c0.1-0.3,0.8,0.1,1,0c0.5-0.1,0.5,0.8,0.6,0.9c0.6-0.3,1,0.8,1.4,0.5c0,0.2,0.6,0.5,0.6,0.5c0,0.2,0.3,0.2,0.3,0.4
		c0.1,0.3,0.5,0.5,0.6,0.5c0,0.2,0.3,0,0.3,0.2c0.2,0,0.5-0.1,0.4,0.1c0.6,0.2,0.7,0.2,1.4,0.6c-0.1,0.8,1.1,0.1,0.9,0.9
		c-0.4,0.2,0.1,0.7,0.2,0.9c0.4,0.1,0.2,0.7,0,1.3c0.5,0.3,0.4,0.5,0.8,0.7c-0.5,0.1,0.5,0.3,0,0.5c-0.2,0.5-0.2,0.4-0.3,0.8
		c-0.2,0.1-0.4,0.6-0.5,0.5c0.1,0.2-0.1,0.5-0.2,0.6c-0.1,0.3-0.3,0-0.3,0.3c-0.2,0.2-0.3,0.4,0,0.5c0.1,0.3,0.1,0.4,0.3,0.5
		c0.1,0.6,0.4,0.3,0.6,0.9c-0.1,0.2,0.5,0,0.5,0.6c-0.6,0.4-0.1,0.7,0.3,0.7c0.5,0.6,0.7,0.2,0.7,1.1c0.1,0.1-0.4,0.7,0.2,0.9
		c0.4,0.6,0.9,0.5,1.4,1.2c-0.2,1,1.7,0.5,0.9,1.1c0.2,0.1-0.8,0.6,0,0.7c0.5,0.2-0.1,0.9,0.1,1c1.8,1.7-1.2,3.8,0.5,5.8
		c0.4,1.8-1,2.7-1,4.6c-4.1,23.8-8.5,48.4-12.9,72.2c-1,0.9-1.9-2.7-3-2.9c-0.4-1.8-4.1-0.6-3.3-3.1c0.3-2.1-2.5-2.2-2.7-4.3
		c-1.4-1.5-2.6-0.2-3.9,0.2c-1.6,2.1-3.1,1-3.9-0.5c-0.8,0.2-1.4,0.9-2.2,0.1c-1-1.4-2.7-0.5-0.1-3c5-8.4,10.9-16.6,15.8-25
		c-1-0.6,0.5-3-1.1-2.5c0.2,1.7-2.6,1.7-1.5-0.1c-0.4-1.6-0.7,0.8-1.6-0.1c-0.2-1.5-0.6-3.7-2.8-1.9c-1.7-0.3-0.6-1.6,0.6-1.5
		c0.4-0.8-0.9-0.3-1.4-0.9c-0.8,0.2-1.9,1.9-2.5,0.3c0-1.1-0.5-1.4-1.3-0.7c-0.8,0.1-1.4-2.4-2.2-1.2c2.8,0.7-1.4,2.6-1.6,0.5
		c0.3-0.7,0.8-1.7-0.1-1c-1.9,0.3,0.6-1.9-1.2-1.9c-0.9,0-1.8-0.4-2.1-1.2c-1,0.1-2,0-2-1.3c-0.5-1.3-1.4-0.2-2.1,0.2
		c-0.8,0-1.9-2.2-2.1-0.5c0.5,0.6,1,2.7-0.3,1.6c-0.5-1.1-2.1-0.3-3-0.1c-0.1,0.4,0.6,1.9-0.4,1.2c-0.5,0.4-0.8,1.9-1.7,0.6
		c-0.6-1.1-1.2,0.6-1.8,0.7c-0.5-0.3,0.8-1.3-0.4-1c-0.2,0.9-1.1,1.1-1.9,1.2c-0.8,1.2-1.2-0.5-0.8-1c-0.8-0.5-0.9-2-1.8-2.1
		c-0.8,0.4,0.5,2.8-1,1.8c-1-0.6,0.2-1.9-0.5-2.4c-1.2,0-2.3-0.3-3.1-1.2c-0.9,0-2.8,1.5-2.2-0.5c0.8-0.8-0.7-1.6-0.5-0.4
		c-1.1,0.3-1.5,0.8-2.3,0.8c-0.4,1.5-0.9,3.3-2.4,3c0.4,0.8,0.4,2.3-0.7,1.3c-0.2,0-1.7,0.4-2-0.6c-1.1-0.5-1.5,1.5-2.6,1.8
		c0.1,1.3-1,2.3-1.3,0.8c-0.5-0.3-1.4,0.3-2.1-0.2c0.4,0.9-0.9,0.5-1.2,1.1c-1.6,0.7-2.7-0.1-2.7-1.6c-0.6,1.5-2.2-0.4-3.1,0.1
		c-0.8-0.4-1.5-0.8-2.1-1.5c-1.1-0.4-0.5,1.1-1.4,1.7c-0.5,1.5-1.1-0.2-1.2-0.8c-0.7-0.1-1.3,1.6-1.5,0.1c-1.1,0-2.4,1.4-3.9,1.2
		c-1.3,0.9-0.4-1-1.3-1.5c-0.2-1.3-0.6-1-1.4-0.8c-0.6-1.2-0.6-0.6-1,0.1c-0.7-0.1-1.2-1.1-2.1-1.2c0-1-1.9-2.5-1-3.6
		c1.4,0.2,1.1-2,2.5-2.3c-0.2-0.4-1.9-0.3-0.7-1.3c0.5-0.3-0.9-0.6-0.8-1.3c0.4-0.7,0.3-1.6,0.3-2.5c1-1.1-1.7-0.4-0.9-1.6
		c0.5-0.9-0.3-1.1-0.9-0.9c-0.2-0.5-1-2.3-1.1-0.8c0.6,0.9-1.4,1.2-0.6,0.5c0.2,0.1,0.2-0.4-0.5-0.2c-0.8-0.4-1.1,0.5-0.8,1
		c-1,0.4-0.6-0.8-1.6-0.7c-0.4-0.9-2.2,0.1-2-0.3c0-1.6-2.1-1.1-2.7-2.2c0-0.9,0.7-0.9,0.6-1.9c0.3-0.6,2.1-1.8,1.1-1.5
		c-0.8,0.4-1-0.8-0.3-1.1c-0.5-0.3-0.3-0.7-0.3-1.2c-1.1,0.3-1.2-0.6-1.2-1.3c-0.8,0.3-2-0.8-0.7-0.4c0.6-0.4-0.1-1.1-0.5-1.1
		c-0.3-0.8,1.1-1.9-0.5-1.3c-1-0.3,0-2.1-1.1-1.6c-0.5-0.5-1-1-1.7-0.4c-1.1,0.4-0.9-1.4-1.1-1.3c0.3,1.1-0.7,2-1.1,1.1
		c-0.8,0.2-2.3-0.3-2.3-1.4c-0.6-0.8-0.4-2.4-1.8-1.5c-1.4,0.2,0.6-1.7-0.7-1.1c-0.3,1.2-1.7-0.5-1.4-1.2c0.5-0.4,0-1.6-0.3-0.6
		c-0.3,2.2-3.1-0.6-4-0.3c-2.3,0.2-2-1.5-2.4-2.8c-1.8-0.4-0.4-1.1,0.4-0.9c-0.4-1,1-1.4-0.4-1.2c-0.3-1,0.1-1.2-0.9-0.8
		c0.8-1.3-2.2-0.8-1.4-2.2c2-0.3-1-1.7,0.1-2.5c-1.1-0.4,0.1-2.6-1.4-1.4c-0.4-1,0.2-2-1.2-1.6c-0.1-1.2-1.1,0.3-1.1-0.9
		c-1,0.8-1.1-1.5-1.8-1.7c-0.6-0.3-1.2-0.7-1-1.1c-1.1,0.9-2.1,0.3-1.9-0.6c-0.4,1.1-1.6,0-1.2-0.9c-0.6-0.9-1-3.7-2.5-2.3
		c-0.4,1.5-2,0.5-2.2,0.2c-0.7,0.5-1.6-1.3-1.9-1.7c-1.8-0.3-2.3-2.2-4.2-2.3c-1.5-1.9-1.9,1-3.3,1.6c-1.5-0.7-2.7-0.6-4.2-1.1
		c-1.2-0.9-2.4-1.6-3.9-1.6c-0.1-0.9,0-1-0.9-1.2c-0.5-1.1-1,0-2-0.3c-1,0.2-2.2-0.2-2.9-0.4c-0.9-0.2-1.1-2.9-2.2-1.8
		c-0.1-0.8-0.7-0.4-0.7-1.2c-1-0.7-1.2-1.2-1.7-2c-1-0.1-1-0.5-0.3-0.6c-0.6-0.4-0.7-1.2-1.7-1.3c-0.6-1.4-2.3,1.1-2.2-1.5
		c-0.7-0.9-1.4,0.3-2.1-0.4c-0.7,0.6-0.3-1-1.3-0.5c0.2-1.4-1.1-0.1-1.4-0.7c-0.6,0.9-0.7,1.8-1.8,1.1c-2,0-0.1,4.6-1.1,3.7
		c-0.4-0.5-2,1-2.9-0.3c-1.2,1.1-1.6,1.1-2.6-0.1c-0.5,0.4-1.3-0.7-2.2-0.3c-0.5-0.8-1.5,0.5-1,0.7c-0.8-0.7-1.8-0.1-2.6,0.1
		c-1,0-2-0.4-2.2-0.8c-1.2,0.5-1.7-0.9-2.6-0.3c-1.4,0.1-1.5-1.2-1.9-2.5c0.4,0,0.7-0.6,0.5-1c-0.2-0.4-0.4-0.9-0.4-1.7
		c-0.6-0.7-0.7-1.9-0.3-2.4c0.6-1.4-2.1-0.4-1.6-2.2c0.5-1.8,0.6-4.3,2-4.9c-1.2-1.2,0.4-2,0.8-2.9c0.4-1.4,3.6-0.3,3.9-1.8
		c0.9-0.2,2.1-1.1,3.2,0c1.1,0.2,2.1,0.6,1.1-0.5c0.1-0.3-0.8-0.3-0.4-1c0.4-0.8-0.8-1.5,0.4-2.2c0.3-0.5,0.6-1.2,0.7-1.5
		c-0.7,0.1-1.4-0.2-2.2-0.3c-0.3-0.8-1.2-0.4-1.1-1.3c-0.2-0.4-0.7-0.7-1.2-0.7c-0.5-1-0.3-1.4,0.6-1.9c0.9-0.3,2.4-1.1,3.5-1.4
		c0.8-0.3,1.4-0.8,2.1-1.1c0.7,0.4,0.9,1.1,1.7,1.5c0.5,0.5,0.8,1.2,0.5,1.9c0.4,0.4-0.3,1.2,0.3,1.8c-0.1,0.9,1.4,1.3,0.7,2.4
		c-0.1,0.8-0.1,1.6-0.6,2c0,0.5,0.1,0.5,0.3,1c0.2,1.2,1.8,0.6,2.1,1.7c0.7,0.3,1.4,1.8,1.9,0.5c0.8,0.1,1.9-0.3,2,0.6
		c0.6,0,1.2-0.6,1.4-0.4c0.3-0.1,1.1,0.4,0.9,0c0.1,0,1.9-0.4,1-0.8c-0.6,0,0.2-0.3,0.5-0.3c0.3-0.9,1.6,0.9,2.2-0.1
		c1.6,0.2-0.8-1.4,0.9-0.9c0.7,0.4,1.7-0.4,1.9,0.7c0.1-0.7-0.4-1.7,0.6-0.7c0.6,0.9,1.8,0.4,0.9,1.7c-0.5,0.3,1.3,0.5,1.1,1.5
		c0.9,0.1,1.2,2.6,2.2,1c1.2,0.2,0.9,2.3,2.1,0.9c1.4,0.2,2.8-1.1,3.4,0.6c1.1-0.2,1.8,0.3,1.7,1.4c0.7,1,1.5-0.6,1.8,0.7
		c1.2,1,2.5-0.1,3.4-0.2c0.4,1,1.8,0.5,2,1.6c-1.5,1.3,2.1,1.6,1.1,3c-1.5,0.7,1.2,2.3,0.1,2.7c1.1,0.5,2-0.4,2.9-0.7
		c0.2,0.8-0.4,1.3,0.9,0.9c1.4-0.7,1.6,1.2,2.2,2c-1.5,0.3-0.7,1.8,0.1,2.4c-0.8,0.4-1.1,0.9,0,1.3c1.1,0.8,2.7-0.1,3.7,1.3
		c1.5-0.1,3.9-0.2,4.3,1.8c0.3,0.9-0.2,1.8-1,1.3c0.7,0.4,2.5,0.8,0.6,1.4c-1.3,0.2,2.2,1.7,0.3,2.3c-0.3,0.9,1.5-1,1.6,0.5
		c-1.5,0.8,3.4,2.5,2.2,0.8c0.9-0.2,1,2.6,1.8,0.3c0.5-2.2,1.3,0.7,0.6,0.9c1.4-1.6,3-0.2,4.1,0.1c1.2,0.1-1.2,1.8,0.8,2.2
		c0.9,0.8,1.6-1.6,1.8,0.6c0.6,1.2,2.2-1.7,2.7,0.7c0.8-0.1,1.2-0.1,1.4,0.9c1.1,1.7,3.8,0.8,5.2,2.4c1,0.7,2.2-0.1,3-0.6
		c0.7,0.5,1.1,1.5,2.1,1c0.4,0.6-0.9,1.4,0.4,0.8c1.9-1.2,1.1,3.6,2.5,1.1c0.5,2.1,3-0.2,4.1,1.2c0.9-1.6,2,0.3,3,0.8
		c0.8,1.7,2.4,1.6,4.1,1.1c1.4,1.3,1.1-3.9,3.4-1.6c0.8,1.7,2.4,2.4,4.1,1.4c0.9-0.8,1.8-1.5,2.5-0.3c1.4,0.8,2.7,3.1,4.5,2.9
		c0.3-0.8,4.3-5.3,3.8-2.6c0.4,0.6,1,0.5,1.5,1c0.6,0.2,1.5,0.7,1.8-0.2c2.4-0.5,0.2-4,2.7-4.5c0.8-2.2,0.9-3.5,3.2-3.6
		c0-2.3,2.4-1,3.9-1.4c2,0.4,4.3-0.1,5.3-1.3c-1-1.5-0.2-3.1,0.5-4.2c2.3-0.4,3.2-3.5,5.6-1.4c1.1-0.1,2.2-0.7,3.3-1
		c1.1,0.9,4-1.2,1.6-1.1c0.7-1-1.4-0.8-0.7-1.8c-0.6-0.9-0.5,0.8-1.2-0.4c0-0.8-1.3-1-1,0.1c-0.7,0.7-2.2,0.1-1.3-0.6
		c-0.9-0.6-0.7,1.5-1.8,1.4c-1.2,0.3,0.9-1.6-0.9-1.2c-1.5,0.7,0-0.9-0.2-1.2c-0.5,0.8-2.4,1.2-1.4,0.5c-0.2-0.7-2.9-0.7-2.7-2.4
		c1.5-0.8-0.4-0.9-0.4,0.1c-0.7-0.6-0.1-1.5-1.3-1.2c0.1-0.5,1-1.1-0.3-0.9c-1-0.6,0.5,0.9-1,0.7c-1-0.3,0.2-0.9,0.1-1.5
		c0-0.2-0.7-0.6-0.6-1.3c-0.9-1-0.7,0.2-1.6,0.1c-0.5-0.5,0.9-0.8-0.4-1c0.3-0.7,0.3-1.7-0.4-2.3c0.2,1.4-1.5,0-1.4-0.6
		c-0.9-0.1,1-1,0-1.4c-1.1-0.5-1.4-0.8,0.8-2.2c1.3-2,4.4-3.2,5.2-5.3c-0.2-0.5,0.1-0.8,0.4-1c0.5-0.7,1.6-0.7,1.7,0
		c1.6-0.1,1.1-1.4,2.3-1.9c-0.1-0.2,0.8,0.1,0.3-0.2c-0.1-0.3,0.6-0.3,0.1-0.4c0.2-0.2,0.4-0.2,0.3-0.4c0-0.1,0.2-0.2,0-0.3
		c-0.3,0.1,0.1-0.4-0.2-0.5c0.6,0.2-0.2-0.3,0.3-0.3c-0.7-0.2,0.6-0.2,0.5,0.1c0.8,0.6-0.7-2,0.6-0.9c-0.9,1.6,2.5,1.4,0.6,0.4
		c0-0.2,0-0.4-0.2-0.7c0.1-0.2-0.2-0.3-0.4-0.4c0.2-0.4-0.2-0.8-0.3-0.7c-0.7,0,0.2-0.7,0-0.7c0.2-0.2-0.3-0.5-0.1-0.6
		c0.3,0-0.3-0.8-0.1-0.6c0.1,0,1-0.1,0.5-0.3c0-0.5,0.2-0.1,0.2-0.5c0.2,0.3-0.1-0.4,0.2-0.1c-0.2-0.4,0.1-0.3,0.2-0.8
		c0.2,0,0-0.6,0.4-0.8c0.3-0.3,0.5-1.4,0.4-2c0.5-0.4,0.7-0.9,0.8-1.4c0.2-0.9,0.5-2,1.5-2.8c0-1-0.5-2.6-0.1-3.6
		c0.9-0.5,1.1,1,2,0.6c0.3,0.2,0.9,0.7,1.4,1c0.6,0.3,0.8-0.6,1.3-0.9c0.4-0.8,1.6-1.4,2.3-1.8c0.1-0.4,1.3-0.1,1-0.7
		c0.7-0.1,1,0,1.3-0.4c0.6,0.2,0.6-0.2,0.9-0.2c0.2,0.5,0.4-0.4,0.6-0.3c0.2-0.2,0.9-0.3,1-0.8c0.4-0.2,0.6-0.5,1-0.6
		c-0.3-0.3,0.4-0.6,0.2-1c0.4,0.1,0.5-0.3,0.7,0.4c0.3-0.3,0.9,0,1-0.2c0.4,0.4,0.8,0.3,1,0.1c0.5,0.1,0.3-0.6,0.8-0.1
		c0.1,0.4,0.5,0.1,0.6-0.1c0.5-0.1,0.5,0.3,0.6,0.2c0.4-0.1,0.2,0.3,0.5,0.3c0.4,0,0.3,0,0.8-0.1c0.2-0.3,1,0.5,0.8-0.3
		c0.6,0.1,0.2-0.5,0.7-0.2c0-0.2,0.6-0.4,0.8-0.2c0.5,0,0.9-0.5,1.3-0.5c0.4-0.3,0.3,0.2,0.6,0.2c0.7-0.1,0.2-0.6,0.9-0.5
		c0.5,0-0.2-0.6,0.4-0.5c0.5-0.4,0.5-0.2,1.1-0.2c0.5-0.4,0.9,0.6,1-0.3c0.4,0.7,0.7,0.5,1,0.2c0.4-0.3,1.1-0.5,1.9-0.7
		c0.2,0.3,0.5-0.2,0.7-0.2c0.7,0.2,0.7,0.3,1.2,0.1c0.5,0,0.7-1.1,1.2-1c0.8,0,1.1-0.9,0.8-1.3c0.4-0.2,1.2-0.9,1.9-1.2
		c0.6,0,0.1-1,0.6-0.4c0.2-0.4,0.5-0.6,0.5-1.3c-1.1-0.6-0.5-1.2-1.4-1.5c-0.1-0.9-1,1-1.8,0.5c-1.3-0.8-0.3,0.3-0.8,0.3
		c-0.2-0.3-0.4,0.8-1.1,0.1c0.4,0.7-1.1,0.2-1.5-0.1c0.7-1.1-0.8,1-1.3-0.1c0.3,0.5-0.2,1.7-1.1,0.5c-0.1-0.4-1.3,0-1.6-0.9
		c0.1,0.4-1.7-0.3-1.4,0.5c0,0.7-2.2,0-1.2-0.2c0.6,0.5-0.5-1.4-0.6-0.4c-1-1.1-1.7-0.2-2.8-1.3c0-0.9-0.8-2-1.3-2.8
		c0.2-0.6-0.6-0.8-0.8-1.3c-0.8-0.2-0.9-1-1.1-1.7c-0.6-0.5-1.1,0.7-1.7,0.1c-0.5-0.3-0.9-1.6-1.9-0.7c-0.6-0.3-1.2,0-1.4-1.3
		c4-1.7,9.3-3.5,12.3-5.4c1.8-0.2,3.7-1,3.4-2.7c2.3,0.5,1.9-2.1,1.3-3.1c2.3,0.4,0.2-1.3-0.6-1.1c1-0.3,0.9-0.6,1.2-1.4
		c0.6-0.5,0.9-1.8,1.7-0.9c-0.3-1.8-0.1-0.2,1-0.1c1.2-0.3-1-1.7,0.3-1.5c0.3,0.4,0.2,1.7,0.9,0.8c0.1-0.7-1.5-2.7,0-2.2
		c1.3,0.5-0.9-1.6-1.2-1.6c1.4-0.2,0.9-1.8,2-1c1.4-0.4,2.2-1.3,2.5,0.3c2.3-0.1,1-1.5,1.4-2.3c1.2,1.7,3.1,0.2,1.7-1.2
		c-1.2-2.6,2.5,2.3,1.5,0.1c-1.1-2.3,0.4-0.7,0.8-0.3c-0.3-1.6,1-1.5,1.8-0.8c1.2-0.5-1.4-1-0.1-1.3c0.9,0.1,0.6,2.2,1.3,0.9
		c0.2-1.5,1.6,0.5,1.8-1c0.4,0.3,0.5,1.2,0.7,0.2c-0.1-0.8,0.8-2.6-0.3-2.3c0.6-0.4,1.7,0.2,2.5,0c0,0.4,0.3,1.1,0.4,0.3
		c-0.1-1.6,1.7-1.2,1.7,0c0.8,0.5,0.7-1.5,1.3,0c0.8-0.2,1.9-2.2,2.1-0.8c-1.4,2.4,1.9,0.4,0.1-0.7c0.9-0.6,1.3,0.5,1.4,1.2
		c0.5,0.1,0.9-1.4,1-0.3c-0.5,1,1.4-0.3,0.7,0.8c-1.2,0.9,1,0.4,1.1-0.4c0.6-0.5,0.8,1.8,1.4,0.4c1,1.4,1.5-1.6,2.9-0.9
		c0.9,0.9,1.1-0.7,0.6-1.2c1-0.6,0,2.4,1.4,1.1c0.8-1.4,1.5,1.2,1.7,0.3c-0.6-0.5-0.8-2.2,0.2-1.3c0.8,0.9,1.6-0.4,1.6-1.2
		c0.6-0.3,1.5,0.7,2.3,0c0.3,0.3,1.2,0.5,0.6-0.1c-1.5-0.6,0.2-1.2,0.4,0.2c0.5,0.1,1-0.3,1.4-0.1c0.2-0.9,1.2,1.2,0.8-0.1
		c-1-0.5-0.2-1.5,0.3-0.5c0.8,1.1,1.2,0.1,0.7-0.6c0.5-0.6,1.2-0.9,1.8-0.4c0.3-0.6-0.6-1.9,0.6-0.7c1.5,1.1,0.3-1-0.4-1.3
		c0.7-0.6,3.2,0.5,2.2-1.3c0.1-1.6,2.1,0,3.3-0.3c1.5,1-0.1-1.5,1.6-0.4c1.9-1.3,0.5,1,1.3,1.2c0.9-1.6,1.2-0.8,1.2,0
		c0.7-1.8,0.8-2.2,1.5-0.9c1.1-0.2,2.7,0.3,2.7,1.7c1.9-0.2,3.9-4.2,5.6-3.1C297.9,223,297.7,224.3,298.4,225L298.4,225z"/>
	<path id="bogota" class="st0" d="M130.2,200.9c0-0.3,1.3,0.1,1.7,0.4c-0.5,0.8,0,2.2-0.1,3.4c0.1,0.6-0.8,0.9,0,1.3
		c0.2,0.4,0.9-0.1,0.4,0.8c-0.3,1.3-1,1.3-1.6,2.5c-0.9,0.2-0.4,1.6-1.5,1.9c-0.5,1.4,1.1,2.1-0.2,3.4c-0.5,0.7-1.2,1.6-0.5,2.3
		c0.5,1,1,1.7,0.2,2.7c0.2,0.7,0.1,2.2-0.6,2.9c-0.9-0.7-2.2,0.1-2.5,1.4c-0.3,0.4-1.1,1.8-1.8,2c0.6,1.1,0.7,1.8-0.5,1.4
		c-0.6,0.7-1.5,1.4-1.8,2.2c-0.8,0.2-1.7,0-0.8-0.8c0.5-0.8,1.2-1.8,1.5-2.8c0.9-1,0.4-2.6,0.3-3.3c0.2-1,0.5-3.1,1.3-3.2
		c1.3,1.5,2.2,0.5,2-1.2c-0.1-1.4,1.6-2,0.6-3c0.1-0.9,0.5-3.7-1.1-2.9c-1,1.2-1-0.7-1.1-1.4c0-0.6-0.1-2,0.4-1.4
		c0.2-1-0.5-1.4-0.4-2.7c-0.2-0.6,1.1,0,1.5-0.5c0.4-0.1,1-0.3,1-0.5c0.4-0.4,1.4-0.2,1.3-0.7c-0.3-0.5-0.3-0.9,0-1.3
		c0.7-0.5,1,0,1-0.9c0.4-0.4,0.1-1.3,0.8-1.1c0.4-0.1,0.2-0.6,0.4-0.8C129.6,200.8,130.3,200.5,130.2,200.9L130.2,200.9z"/>
	<path id="centroandina" class="st0" d="M121.2,229.5c0,0.9-1,1.4-1.5,2c-1.4,0.4-1,2.5-2.2,3.4c-0.6,0.3-1.8,0.7-1.8,1.8
		c0.8,0.9,0.1,2-0.3,2.6c1.5,1.8-1,2.7-1,4.7c-1.9,0.8-2.3,3-3.8,3.7c-0.6,1.2-1.6,1.8-2.2,2.4c-1.4,1.9-3,3.3-4.3,5.4
		c-0.4,0.6-1.4,0.3-2.2,0.8c0.1,0.7,0.5,1.1-0.1,2c0.5,0.9,0.5,1.2-0.1,2c-0.8,0.8-0.2,1.9-1.8,1.4c-0.2,1.7-1.6,2.4-2.2,3.9
		c-0.8-0.1-0.9,1.4-1.9,1.2c-0.5,1-1.1,1.9-1.5,2.9c1,1.7-1.8,1.9-2.6,2.6c-0.7,1.1-1,2.4-2.1,3.1c-0.9,1-0.4,2.6-1.9,3
		c-0.9,0.8-0.7,2.4-1.8,2.8c-0.7,0.5-1.6,0.3-2.1,1c-0.5,0.7-2.2,0.1-2.6,1.2c-0.4,0.8-1.4,0.5-1.2,1.7c-0.9,0.3-1.4,1.3-2.4,1
		c-0.5,0.5-1.2,1.1-1.7,0.2c-0.6-0.9-1.6,0.8-1.6-0.5c-0.2-0.6-0.3-1.4-0.5-1.9c1.4-0.4,1.6-2.5,2.7-2.7c0.7-0.3,1.6,0.1,1.8,0.9
		c1-0.1,1-1,1.4-1.6c0.4-0.5,0.4-1.1,1-1.4c-1-0.6-0.7-1.8-0.8-2.8c-2.4-0.1,1.7-1.7,0.3-2.8c0.7-1.6-1.2-1,0.1-2.4
		c0.4-0.7,1.8-0.9,1.7-1.8c0.5-0.5,0.7-1.2,0.1-1.4c0.7-0.2-0.3-1.3,0.9-0.8c0.9-0.6,1.3-0.9,1.2-1.9c0.6-0.7,0.1-1.3-0.4-1.9
		c0-0.3,0.2-0.6,0.4-0.6c0.4-0.2,0.1-0.7,0.1-1.2c-0.5-0.7-0.4-1.1,0-1.8c0.6-0.5,0.9-1.1,1-1.8c0.4-0.2,0.8-0.7,0.9-1
		c0.1-0.6,0.1-1.4-0.7-1.7c-1,0.3-0.7-1.1-0.8-1.6c-0.3-0.8-1.3-0.3-1.9-0.5c-1.2-1.6-4.8-2.1-3.7-4.4c-0.8-0.4-0.4-1.2-1.3-1.2
		c0.5-1.1-1.7-1.5-0.1-1.8c0.4-0.9-0.8-1.6-0.1-2.2c0.6,0.5,0.8-0.6,0.7-0.9c0.8-0.4-0.2-1.2,0.4-1.8c-0.4-0.7-0.7-1.2-0.2-1.8
		c0.9-0.3-0.2-0.6,0.2-1.4c0.1-0.7,0.5-1.2,0.5-1.9c0.8-0.9,1.1-2.1,0.7-3c0.2-0.5-0.1-0.8,0.4-1c0.2-0.5,1-0.6,0.4-1.3
		c0.2-0.9,1.3-1.1,1.4-2.2c0.2-0.9,1.7-1.5,1.2-2.6c0.5-0.8,0.9-0.5,1.3-1.1c0.2-0.8,0.5-1.5,0.6-2.2c0.5,0,1.8-1.1,1-1.8
		c0.3-1.1,1.1-1,1.6-1.8c0-0.8,1.1-1.5,1.1-2.1c0.2-0.9,1.6-1.1,1.3-2c0.1-1.1,0.5-2.7,0.7-4c1-0.7,1.4-1.5,1.5-2.5
		c0.8-0.6,1.4-1.4,2.3-1.5c0.5-0.7-0.1-2,1.2-2.5c-0.1-1.3,0.1-3.2,1.5-4.2c0.3-1-1.7-2.4-0.1-3.2c1-1.1-1.4-2.1,0.1-2.9
		c0.7-0.4,1-1.7,2-0.9c0.7,0.2,1.2-0.3,1.4-0.8c0.6-0.2,1.1-0.5,1.7,0c0.5,0.1,0.6-0.2,0.6-0.6c0.2-0.4,0.5-1,0.9-1.4
		c0.3-0.4,0.5-0.5,0.6-1c0.3-0.1,0.8-0.1,0.9-0.4c0.5-0.2,1.2,0.1,1.6-0.4c0.6-0.3,1.3-0.3,1.9,0.1c0.6,0.3,0.9-0.6,1.5-0.5
		c0.6,0.1,1.1,0.6,1.7,0.6c0.7,0.8,1.5-0.3,1.8-1.6c-0.5-0.7,1.1,0,0.5-1.2c1,0-0.5-1.5,0.9-1c0,0.5,1.2,0.5,0.3,1.2
		c0.8,0.8,1.4-1.2,1.2-2.1c0.9-1,1.6-1.8,1.6-3.2c0.4-1.3,1.5-0.9,1.1-2.3c0.4-0.4,0.6-1.1,0.4-1.6c-0.2-0.2-0.4-1.1,0.3-0.7
		c1,0.8,2-0.4,3.3-1.7c0.5,0.5,0.5,0.9,0.9,1.1c-0.6,0.4,0.5,1.3,0.8,0c0.2-0.9,0.2-1.1,1.1-1.2c0.1-0.5,1.2-0.2,0.8-1
		c0.5-0.7,0.2-1.2,1.2-0.4c1,0.4,1.8,0.7,1.9,1.6c0,0.5,1.7,0.1,1.5,1.1c0.3,0.2,0.6,1.6,1.2,1.6c0.7-0.6,1.6-0.4,2.4-0.2
		c0.2,0.4,0.5,0.1,0.2,0.7c0.6-0.5,1.6-1.3,1.6-0.2c0.9-0.5,1.2-2,2.3-1.4c0.5-0.7,1,0.6,1.6,0.9c0.9,1.6,1.1-1.3,1.2-2
		c0.6-0.8,0.7-1.9-0.2-2.3c0-0.6,1.4-1.2,1.1-2.3c0.3-1.1,1.9-1.3,1.8-2.4c0.3-1.4,1.5-0.2,2.3,0.2c0.7-0.2,1.5,1.5,1.6,2.1
		c-0.2,0.9-0.5,1.9-1,2.6c-0.9-0.2-1.1-0.1-1.1,0.8c-1.1,1.2,0.8,1.8,0.8,2.5c1.6,1,2-1.9,2-2.7c0.7,1.1,2.1-0.3,2.4,1.3
		c1,0.5,2.5-0.8,1.2-1.8c-0.8-0.2,0.3-1-0.4-1.5c-0.2-1.7,1.5-1.7,2.2-0.4c1.7,0.9,1.8-2.1,3-1.4c0,1,0.6,1.8,1.1,0.4
		c0.9-1.1,1.2-2.4,2.4-3.2c0.8-0.2,0.7-0.8,1.8-0.8c0.2-1.3,0.9-1.9,2-1.8c0.6-1.1-0.7-2.8,0.6-3.8c0-0.7-0.2-2,0-2.7
		c-0.1-0.9-1.2-0.6-1.3-1.6c-2-0.1,0.7-2.4,1-0.7c1.6,0.1,1.2,2.7,2.6,3.1c1.1-0.2,1.7-1.4,2.8-1.5c-0.7-0.7,0.2-1.6-0.1-2.4
		c0.6-0.7,1.2-1.3,1.4-2.2c0.2-0.9-0.4-1.5-0.1-2.3c-0.5-0.8,0.1-1.8,0.6-2.4c1-0.3,2.3,0.4,3.3-0.1c0.1,0.9,1.8,1.8,1.1,2.5
		c0.2,0.5,0.2,1.7-0.5,1.9c-0.5,0.2-0.5,0.9-0.8,1.3c-1.7,0.4-0.2,1.1-0.2,2c-0.8-0.2-0.6,0.3-0.8,0.7c-0.3,0-0.5,0.4-0.9,0.3
		c-0.4,0.6-0.7,1.3-0.3,1.8c-0.1,0.7-0.9,0.7-1.1,1.5c-0.4,0.1-0.2,0.8-0.9,0.8c-0.5,0.6,0.2,1.7,0.3,1.9c0.8-0.9,1.3,0.2,2.1,0.4
		c1.5,0-0.1,2.2,0.1,2.3c0.8-0.1,0.5,0.8,1,1.2c-0.7,0.3,0,1,0.1,1.2c-0.6,1.2,2.2-0.2,1,1c-1.1,0.5-0.8,1-0.3,1.8
		c-0.3,1,0.9,1.8,0.1,2.7c-1.3-0.4-2.7-0.6-3.3,0.9c0.2,0.3,1.7,0.4,2.1,1.1c0.8,0.3,1.9,0.4,2,1.1c0,0.5,0.3,0.6,0.6,0.9
		c0.1,0.4,0.7,1.2,0.9,1.5c1.4,0.2-0.7,0.6-0.6,1.1c0,2.1-1.5,5.4-2.9,2.6c-0.8-1.3-1.4,0.2-1.8,0.8c-1,0.4-1.1,1.4-1.8,2.1
		c-0.5,0.7-2.3,1.2-1.4,1.8c-0.5,0.7-1.9,0.2-2.2,1.6c-0.8,0.8-1.9,1.3-1.8-0.1c-1.1-0.1-1.4-2-2.4-1.7c-0.6,0.2-0.8,0.8-1.4,0.9
		c0.1-0.7-0.8-0.5-0.4-0.2c-0.5,0.9-0.3,1.6-0.5,2.5c-0.7,1.1-1.5,2.1-1.8,2.9c0.4,0.5,1.2,1.2,1.7,1.4c-0.1,1.3-1.2,2.1-1.9,3
		c-1.3-1.6-1.6,0.5-1.9,1.6c0.6,1.4-1.6,2.4-0.2,3.6c0.6,2.9-1.2,6.7-1.2,9.9c-0.1,1.1-0.7,5.6-1.2,4.6c-0.8-0.7-1.7-1.8-3.3-1.9
		c-1.9-1-3.8-0.7-5.2,0.5c-0.5-0.4-2.3-0.3-2.1-1.3c0-0.9-0.9-1.7-0.6-2.6c-1.2-0.8-0.4-1.8,0.1-2.7c-0.4-0.8-1.5-1.2-2.2-0.6
		c-0.7,0.5-1.9,0.8-2.2,1.7c0.1,1.1-1.9,0.5-2,2c0.8,1,0.4,2.9,1.7,3.7c-1,0.7,0.9,2.3-0.9,1.8c-1-0.5-0.9,0.3-1.4,0.7
		c-1-0.4-1.9,1.2-2.7,0.6c-0.3,0.9-0.8,1.7-1.5,1.1c-0.7-0.2-1.2,0.7-1.4,1.1c-0.9-0.3-1.2,1.4-2.2,1.5c-1.4,0.4,0.4-1.6,0-2.4
		c-0.5-0.8,1.1-2.2-0.2-2.8c-0.4-0.8-0.7-1.6,0-2.4c0.9-1,1.2-2.1,0.4-3c0.1-1.3,1.4-1.5,1.4-2.7c0.8-0.4,1.2-1.3,1.6-1.9
		c0.5-0.9,0.4-1.1-0.2-1.3c-0.2-0.4-1-0.6,0.1-0.9c0-1-0.3-2.5-0.1-3.4c0.8-0.7-1.6-1-1.5-0.9c-0.4-0.2-0.4,0.3-0.5,0.5
		c0.2,0.7-0.3,0.3-0.7,0.7c-0.1,0-0.3,1.2-0.6,1.5c-0.1,0-0.8,0-1,0.5c-0.1,0.2,0.1,1.1,0.2,1.2c-0.4,0.4-1.3,0.3-1.4,0.6
		c-0.3,0.5-1.2,0.4-1.9,0.7c-0.7-0.6-0.5,1.6,0,1.7c-0.1,0.2,0.3,1.8-0.3,0.9c-0.2,1.4-0.1,3.2,0.6,3.5c1.7-1.9,1.8,1.8,1.6,2.8
		c0.8,0.9-1.2,1.8-0.7,3.4c0.6,2.3-1.7,0.8-2.2,0.6c-0.6,1.5-1.4,3.2-0.7,4.6c-0.2,1.5-0.9,2.8-1.6,4.1
		C121,228.2,119.2,230.4,121.2,229.5L121.2,229.5z"/>
</g>
</svg>

