<svg xmlns="http://www.w3.org/2000/svg" viewBox="0 0 25.02 25"><defs><style>.cls-1{fill:#4e4d4d;}</style></defs><g id="Capa_2" data-name="Capa 2"><g id="Capa_1-2" data-name="Capa 1"><path class="cls-1" d="M0,8.29V7.9a1.29,1.29,0,0,1,.49-.52L12,.17a.87.87,0,0,1,1,0q5.74,3.62,11.5,7.2a.79.79,0,0,1,0,1.45c-.74.43-1.46.9-2.2,1.36l-.17.13.13.08c.77.48,1.55.95,2.32,1.44a.73.73,0,0,1,0,1.32l-.14.09-2.1,1.31-.23.15a1.85,1.85,0,0,1,.23.15l2.12,1.3.21.14a.72.72,0,0,1,0,1.2,2.82,2.82,0,0,1-.29.18L12.71,25h-.4l-.41-.25L.61,17.68a1.47,1.47,0,0,1-.61-.6v-.39a1.45,1.45,0,0,1,.61-.59l2-1.27.21-.14-.21-.15c-.67-.42-1.33-.84-2-1.24A1.54,1.54,0,0,1,0,12.69v-.4a1.45,1.45,0,0,1,.61-.59l2-1.27.21-.14-.21-.15C2,9.73,1.31,9.3.63,8.9A1.54,1.54,0,0,1,0,8.29Zm2.12-.2,10.39,6.47L22.9,8.09,12.51,1.58Zm18.62,7.48-.21.12-7,4.36-.6.37a.74.74,0,0,1-.83,0,1.18,1.18,0,0,1-.19-.11L4.49,15.69l-.24-.14L2.12,16.89,12.51,23.4,22.9,16.89ZM12.51,19l10.38-6.47-2.15-1.32-.23.14-7.44,4.63a.94.94,0,0,1-1.13,0c-2.48-1.56-5-3.1-7.45-4.65l-.24-.14L2.12,12.49Z"/></g></g></svg>