<svg width="24" height="24" fill="none" xmlns="http://www.w3.org/2000/svg"><path d="M12 2c5.3 0 9.5 4.526 9.5 10S17.3 22 12 22s-9.5-4.421-9.5-10S6.7 2 12 2zm-8.2 9.895c0 4.947 3.7 8.947 8.2 8.947 4.5 0 8.2-4 8.2-8.947 0-4.948-3.7-8.948-8.2-8.948-4.5 0-8.2 4-8.2 8.948z" fill="#fff"/><path d="M18.9 10.21c.2-.105.4-.42.3-.631-.1-.21-.3-.316-.5-.21l-5.4 1.473c-.5.105-.6.842-.2 1.158.2.105.3.105.5.105l5.3-1.895zM20.8 10.42c.663 0 1.2-.565 1.2-1.262 0-.698-.537-1.263-1.2-1.263-.663 0-1.2.565-1.2 1.263 0 .697.537 1.263 1.2 1.263zM5.1 10.21c-.2-.105-.4-.42-.3-.631.1-.21.3-.316.5-.21l5.4 1.473c.5.105.6.842.2 1.158-.2.105-.3.105-.5.105L5.1 10.21zM3.2 10.42c.663 0 1.2-.565 1.2-1.262 0-.698-.537-1.263-1.2-1.263-.663 0-1.2.565-1.2 1.263 0 .697.537 1.263 1.2 1.263zM8.7 18.42c-.1.211-.4.316-.6.106-.2-.105-.2-.421-.1-.632l2.6-5.263c.3-.526 1-.42 1.1.105.1.211 0 .421-.1.527L8.7 18.42zM7.3 21.368c.663 0 1.2-.565 1.2-1.263s-.537-1.263-1.2-1.263c-.663 0-1.2.565-1.2 1.263s.537 1.263 1.2 1.263zM15.3 18.42c.1.211.4.316.6.106.2-.105.2-.421.1-.632l-2.6-5.263c-.3-.526-1-.42-1.1.105-.1.211 0 .421.1.527l2.9 5.158zM16.7 21.368c.663 0 1.2-.565 1.2-1.263s-.537-1.263-1.2-1.263c-.662 0-1.2.565-1.2 1.263s.538 1.263 1.2 1.263zM12 9.684c1.105 0 2-.942 2-2.105s-.895-2.105-2-2.105-2 .942-2 2.105.895 2.105 2 2.105z" fill="#fff"/></svg>