<?xml version="1.0" encoding="utf-8"?>
<!-- Generator: Adobe Illustrator 24.2.0, SVG Export Plug-In . SVG Version: 6.00 Build 0)  -->
<svg version="1.1" id="Layer_1" xmlns="http://www.w3.org/2000/svg" xmlns:xlink="http://www.w3.org/1999/xlink" x="0px" y="0px"
	 viewBox="0 0 110.6 103.3" style="enable-background:new 0 0 110.6 103.3;" xml:space="preserve">
<style type="text/css">
	.st0{fill:#917D26;}
</style>
<g>
	<path class="st0" d="M12.8,28.8c8.1-15,24-25.2,42.3-25.2c18.4,0,34.3,10.3,42.4,25.4c1-0.6,2.1-1.1,3.3-1.4
		C92.2,11.2,74.9,0,55.1,0c-19.8,0-37,11.1-45.7,27.5C10.7,27.7,11.8,28.2,12.8,28.8z"/>
	<path class="st0" d="M54.8,13.4c-7.8,0-14.1,6.3-14.1,14.1c0,7.8,6.3,14.1,14.1,14.1c7.8,0,14.1-6.3,14.1-14.1
		C68.9,19.7,62.6,13.4,54.8,13.4z M54.8,38.4c-6,0-10.8-4.9-10.8-10.8c0-6,4.9-10.8,10.8-10.8c6,0,10.8,4.9,10.8,10.8
		C65.6,33.5,60.8,38.4,54.8,38.4z"/>
	<path class="st0" d="M103.2,30.3c-4.1,0-7.4,3.3-7.4,7.4c0,0.9,0.2,1.7,0.4,2.5c-12,6.6-26.2,10.4-41.5,10.4
		c-14.9,0-28.8-3.7-40.6-10c0.4-0.9,0.6-1.9,0.6-2.9c0-4.1-3.3-7.4-7.4-7.4c-4.1,0-7.4,3.3-7.4,7.4c0,4.1,3.3,7.4,7.4,7.4
		c1.6,0,3.1-0.5,4.3-1.4c11.7,6.5,25.4,10.4,40.1,10.9L31,86.8c-0.9-0.4-1.9-0.6-3-0.6c-4.1,0-7.4,3.3-7.4,7.4
		c0,4.1,3.3,7.4,7.4,7.4c4.1,0,7.4-3.3,7.4-7.4c0-1.8-0.7-3.5-1.7-4.8l21-32.6L76,88.6c-1.2,1.3-1.9,3-1.9,5c0,4.1,3.3,7.4,7.4,7.4
		c4.1,0,7.4-3.3,7.4-7.4c0-4.1-3.3-7.4-7.4-7.4c-1,0-1.9,0.2-2.7,0.5l-21-32.1c15-0.5,29-4.5,40.8-11.2c1.3,1.1,2.9,1.7,4.7,1.7
		c4.1,0,7.4-3.3,7.4-7.4C110.6,33.6,107.3,30.3,103.2,30.3z M7.4,41.7c-2.2,0-4-1.8-4-4c0-2.2,1.8-4,4-4c2.2,0,4,1.8,4,4
		C11.4,39.9,9.6,41.7,7.4,41.7z M28.1,97.5c-2.2,0-4-1.8-4-4c0-2.2,1.8-4,4-4c2.2,0,4,1.8,4,4C32.1,95.7,30.3,97.5,28.1,97.5z
		 M85.4,93.5c0,2.2-1.8,4-4,4c-2.2,0-4-1.8-4-4c0-2.2,1.8-4,4-4C83.6,89.5,85.4,91.3,85.4,93.5z M103.2,41.7c-2.2,0-4-1.8-4-4
		c0-2.2,1.8-4,4-4c2.2,0,4,1.8,4,4C107.2,39.9,105.4,41.7,103.2,41.7z"/>
	<path class="st0" d="M88.7,86.1c0.9,0.8,1.6,1.8,2.1,2.9c9.8-9.4,16-22.6,16-37.3c0-1.4-0.1-2.8-0.2-4.1c-1.1,0.4-2.2,0.6-3.4,0.6
		c0,0-0.1,0-0.1,0c0.1,1.2,0.1,2.4,0.1,3.6C103.2,65.2,97.7,77.3,88.7,86.1z"/>
	<g>
		<path class="st0" d="M18.9,88.5c0.6-1.1,1.3-2,2.2-2.8C12.4,77,7,65,7,51.7c0-1.2,0.1-2.4,0.1-3.6c-1.2,0-2.4-0.3-3.5-0.7
			c-0.1,1.4-0.2,2.8-0.2,4.2C3.5,66.1,9.4,79.2,18.9,88.5z"/>
		<path class="st0" d="M71.6,96.9c-5.1,1.9-10.7,2.9-16.5,2.9c-6,0-11.8-1.1-17.1-3.1c-0.4,1.2-0.9,2.2-1.7,3.2
			c5.8,2.3,12.1,3.5,18.7,3.5c6.4,0,12.5-1.2,18.2-3.3C72.6,99.1,72,98,71.6,96.9z"/>
	</g>
</g>
</svg>
