<svg xmlns="http://www.w3.org/2000/svg" viewBox="0 0 188.44 218.39"><defs><style>@keyframes logoanimation {
	 from {
		 fill: #fff0;
	}
	 to {
		 fill: #fff;
	}
}
.cls-1{
    fill: #fff0;
}
.cls-1:nth-child(1) {
	 animation: logoanimation 0.2s 0.0285714286s forwards;
}
 .cls-1:nth-child(2) {
	 animation: logoanimation 0.2s 0.0571428571s forwards;
}
 .cls-1:nth-child(3) {
	 animation: logoanimation 0.2s 0.0857142857s forwards;
}
 .cls-1:nth-child(4) {
	 animation: logoanimation 0.2s 0.1142857143s forwards;
}
 .cls-1:nth-child(5) {
	 animation: logoanimation 0.2s 0.1428571429s forwards;
}
 .cls-1:nth-child(6) {
	 animation: logoanimation 0.2s 0.1714285714s forwards;
}
 .cls-1:nth-child(7) {
	 animation: logoanimation 0.2s 0.2s forwards;
}
 .cls-1:nth-child(8) {
	 animation: logoanimation 0.2s 0.2285714286s forwards;
}
 .cls-1:nth-child(9) {
	 animation: logoanimation 0.2s 0.2571428571s forwards;
}
 .cls-1:nth-child(10) {
	 animation: logoanimation 0.2s 0.2857142857s forwards;
}
 .cls-1:nth-child(11) {
	 animation: logoanimation 0.2s 0.3142857143s forwards;
}
 .cls-1:nth-child(12) {
	 animation: logoanimation 0.2s 0.3428571429s forwards;
}
 .cls-1:nth-child(13) {
	 animation: logoanimation 0.2s 0.3714285714s forwards;
}
 .cls-1:nth-child(14) {
	 animation: logoanimation 0.2s 0.4s forwards;
}
 .cls-1:nth-child(15) {
	 animation: logoanimation 0.2s 0.4285714286s forwards;
}
 .cls-1:nth-child(16) {
	 animation: logoanimation 0.2s 0.4571428571s forwards;
}
 .cls-1:nth-child(17) {
	 animation: logoanimation 0.2s 0.4857142857s forwards;
}
 .cls-1:nth-child(18) {
	 animation: logoanimation 0.2s 0.5142857143s forwards;
}
 .cls-1:nth-child(19) {
	 animation: logoanimation 0.2s 0.5428571429s forwards;
}
 .cls-1:nth-child(20) {
	 animation: logoanimation 0.2s 0.5714285714s forwards;
}
 .cls-1:nth-child(21) {
	 animation: logoanimation 0.2s 0.6s forwards;
}
 .cls-1:nth-child(22) {
	 animation: logoanimation 0.2s 0.6285714286s forwards;
}
 .cls-1:nth-child(23) {
	 animation: logoanimation 0.2s 0.6571428571s forwards;
}
 .cls-1:nth-child(24) {
	 animation: logoanimation 0.2s 0.6857142857s forwards;
}
 .cls-1:nth-child(25) {
	 animation: logoanimation 0.2s 0.7142857143s forwards;
}
 .cls-1:nth-child(26) {
	 animation: logoanimation 0.2s 0.7428571429s forwards;
}
 .cls-1:nth-child(27) {
	 animation: logoanimation 0.2s 0.7714285714s forwards;
}
 .cls-1:nth-child(28) {
	 animation: logoanimation 0.2s 0.8s forwards;
}
 .cls-1:nth-child(29) {
	 animation: logoanimation 0.2s 0.8285714286s forwards;
}
 .cls-1:nth-child(30) {
	 animation: logoanimation 0.2s 0.8571428571s forwards;
}
 .cls-1:nth-child(31) {
	 animation: logoanimation 0.2s 0.8857142857s forwards;
}
 .cls-1:nth-child(32) {
	 animation: logoanimation 0.2s 0.9142857143s forwards;
}
 .cls-1:nth-child(33) {
	 animation: logoanimation 0.2s 0.9428571429s forwards;
}
 .cls-1:nth-child(34) {
	 animation: logoanimation 0.2s 0.9714285714s forwards;
}
 .cls-1:nth-child(35) {
	 animation: logoanimation 0.2s 1s forwards;
}
 .cls-1:nth-child(36) {
	 animation: logoanimation 0.2s 1.0285714286s forwards;
}
 .cls-1:nth-child(37) {
	 animation: logoanimation 0.2s 1.0571428571s forwards;
}
 .cls-1:nth-child(38) {
	 animation: logoanimation 0.2s 1.0857142857s forwards;
}
 .cls-1:nth-child(39) {
	 animation: logoanimation 0.2s 1.1142857143s forwards;
}
 .cls-1:nth-child(40) {
	 animation: logoanimation 0.2s 1.1428571429s forwards;
}
 .cls-1:nth-child(41) {
	 animation: logoanimation 0.2s 1.1714285714s forwards;
}
 .cls-1:nth-child(42) {
	 animation: logoanimation 0.2s 1.2s forwards;
}
 .cls-1:nth-child(43) {
	 animation: logoanimation 0.2s 1.2285714286s forwards;
}
 .cls-1:nth-child(44) {
	 animation: logoanimation 0.2s 1.2571428571s forwards;
}
 .cls-1:nth-child(45) {
	 animation: logoanimation 0.2s 1.2857142857s forwards;
}
 .cls-1:nth-child(46) {
	 animation: logoanimation 0.2s 1.3142857143s forwards;
}
 .cls-1:nth-child(47) {
	 animation: logoanimation 0.2s 1.3428571429s forwards;
}
 .cls-1:nth-child(48) {
	 animation: logoanimation 0.2s 1.3714285714s forwards;
}
 .cls-1:nth-child(49) {
	 animation: logoanimation 0.2s 1.4s forwards;
}
 .cls-1:nth-child(50) {
	 animation: logoanimation 0.2s 1.4285714286s forwards;
}
 .cls-1:nth-child(51) {
	 animation: logoanimation 0.2s 1.4571428571s forwards;
}
 .cls-1:nth-child(52) {
	 animation: logoanimation 0.2s 1.4857142857s forwards;
}
 .cls-1:nth-child(53) {
	 animation: logoanimation 0.2s 1.5142857143s forwards;
}
 .cls-1:nth-child(54) {
	 animation: logoanimation 0.2s 1.5428571429s forwards;
}
 .cls-1:nth-child(55) {
	 animation: logoanimation 0.2s 1.5714285714s forwards;
}
 .cls-1:nth-child(56) {
	 animation: logoanimation 0.2s 1.6s forwards;
}
 .cls-1:nth-child(57) {
	 animation: logoanimation 0.2s 1.6285714286s forwards;
}
 .cls-1:nth-child(58) {
	 animation: logoanimation 0.2s 1.6571428571s forwards;
}
 .cls-1:nth-child(59) {
	 animation: logoanimation 0.2s 1.6857142857s forwards;
}
 .cls-1:nth-child(60) {
	 animation: logoanimation 0.2s 1.7142857143s forwards;
}
 .cls-1:nth-child(61) {
	 animation: logoanimation 0.2s 1.7428571429s forwards;
}
 .cls-1:nth-child(62) {
	 animation: logoanimation 0.2s 1.7714285714s forwards;
}
 .cls-1:nth-child(63) {
	 animation: logoanimation 0.2s 1.8s forwards;
}
 .cls-1:nth-child(64) {
	 animation: logoanimation 0.2s 1.8285714286s forwards;
}
 .cls-1:nth-child(65) {
	 animation: logoanimation 0.2s 1.8571428571s forwards;
}
 .cls-1:nth-child(66) {
	 animation: logoanimation 0.2s 1.8857142857s forwards;
}
 .cls-1:nth-child(67) {
	 animation: logoanimation 0.2s 1.9142857143s forwards;
}
 .cls-1:nth-child(68) {
	 animation: logoanimation 0.2s 1.9428571429s forwards;
}
 .cls-1:nth-child(69) {
	 animation: logoanimation 0.2s 1.9714285714s forwards;
}
 .cls-1:nth-child(70) {
	 animation: logoanimation 0.2s 2s forwards;
}
 .cls-1:nth-child(71) {
	 animation: logoanimation 0.2s 2.0285714286s forwards;
}
 .cls-1:nth-child(72) {
	 animation: logoanimation 0.2s 2.0571428571s forwards;
}
 .cls-1:nth-child(73) {
	 animation: logoanimation 0.2s 2.0857142857s forwards;
}
 .cls-1:nth-child(74) {
	 animation: logoanimation 0.2s 2.1142857143s forwards;
}
 .cls-1:nth-child(75) {
	 animation: logoanimation 0.2s 2.1428571429s forwards;
}
 .cls-1:nth-child(76) {
	 animation: logoanimation 0.2s 2.1714285714s forwards;
}
 .cls-1:nth-child(77) {
	 animation: logoanimation 0.2s 2.2s forwards;
}
 .cls-1:nth-child(78) {
	 animation: logoanimation 0.2s 2.2285714286s forwards;
}
 .cls-1:nth-child(79) {
	 animation: logoanimation 0.2s 2.2571428571s forwards;
}
 .cls-1:nth-child(80) {
	 animation: logoanimation 0.2s 2.2857142857s forwards;
}
 .cls-1:nth-child(81) {
	 animation: logoanimation 0.2s 2.3142857143s forwards;
}
 .cls-1:nth-child(82) {
	 animation: logoanimation 0.2s 2.3428571429s forwards;
}
 .cls-1:nth-child(83) {
	 animation: logoanimation 0.2s 2.3714285714s forwards;
}
 .cls-1:nth-child(84) {
	 animation: logoanimation 0.2s 2.4s forwards;
}
 .cls-1:nth-child(85) {
	 animation: logoanimation 0.2s 2.4285714286s forwards;
}
 .cls-1:nth-child(86) {
	 animation: logoanimation 0.2s 2.4571428571s forwards;
}
 .cls-1:nth-child(87) {
	 animation: logoanimation 0.2s 2.4857142857s forwards;
}
 .cls-1:nth-child(88) {
	 animation: logoanimation 0.2s 2.5142857143s forwards;
}
 .cls-1:nth-child(89) {
	 animation: logoanimation 0.2s 2.5428571429s forwards;
}
 .cls-1:nth-child(90) {
	 animation: logoanimation 0.2s 2.5714285714s forwards;
}
 .cls-1:nth-child(91) {
	 animation: logoanimation 0.2s 2.6s forwards;
}
 .cls-1:nth-child(92) {
	 animation: logoanimation 0.2s 2.6285714286s forwards;
}
 .cls-1:nth-child(93) {
	 animation: logoanimation 0.2s 2.6571428571s forwards;
}
 .cls-1:nth-child(94) {
	 animation: logoanimation 0.2s 2.6857142857s forwards;
}
 .cls-1:nth-child(95) {
	 animation: logoanimation 0.2s 2.7142857143s forwards;
}
 .cls-1:nth-child(96) {
	 animation: logoanimation 0.2s 2.7428571429s forwards;
}
 .cls-1:nth-child(97) {
	 animation: logoanimation 0.2s 2.7714285714s forwards;
}
 .cls-1:nth-child(98) {
	 animation: logoanimation 0.2s 2.8s forwards;
}
 .cls-1:nth-child(99) {
	 animation: logoanimation 0.2s 2.8285714286s forwards;
}
 .cls-1:nth-child(100) {
	 animation: logoanimation 0.2s 2.8571428571s forwards;
}
 .cls-1:nth-child(101) {
	 animation: logoanimation 0.2s 2.8857142857s forwards;
}
 .cls-1:nth-child(102) {
	 animation: logoanimation 0.2s 2.9142857143s forwards;
}
 .cls-1:nth-child(103) {
	 animation: logoanimation 0.2s 2.9428571429s forwards;
}
 .cls-1:nth-child(104) {
	 animation: logoanimation 0.2s 2.9714285714s forwards;
}</style></defs><title>logo-paz</title><g id="Capa_2" data-name="Capa 2"><g id="Capa_1-2" data-name="Capa 1"><circle class="cls-1" cx="84.05" cy="110.65" r="0.45"/><path class="cls-1" d="M83.64,108.85a.52.52,0,0,0-.56.61h0a.52.52,0,0,0,.34.38,1.67,1.67,0,0,0,.4.08.57.57,0,0,0,.63-.47.54.54,0,0,0-.44-.53A2.45,2.45,0,0,0,83.64,108.85Z"/><path class="cls-1" d="M84.4,108.27a.69.69,0,0,0-.66-.68l-.51-.09a.59.59,0,0,0-.67.77h0a.6.6,0,0,0,.5.42l.54.06A.69.69,0,0,0,84.4,108.27Z"/><path class="cls-1" d="M84.9,107.12a.69.69,0,0,0-.48-.82l-1.21-.52a.62.62,0,0,0-.87.53v0a.62.62,0,0,0,.41.62l1.26.45A.67.67,0,0,0,84.9,107.12Z"/><path class="cls-1" d="M85.66,106.11a.68.68,0,0,0-.28-.9L83.73,104a.64.64,0,0,0-1,.31h0a.64.64,0,0,0,.26.75l1.74,1.13A.68.68,0,0,0,85.66,106.11Z"/><path class="cls-1" d="M86.63,105.31a.69.69,0,0,0-.06-1l-1.72-2a.66.66,0,0,0-1,0l0,0a.65.65,0,0,0,0,.85l1.86,2A.67.67,0,0,0,86.63,105.31Z"/><path class="cls-1" d="M87.76,104.75a.7.7,0,0,0,.16-.94L86.51,101a.68.68,0,0,0-1-.26h0a.67.67,0,0,0-.21.91l1.59,2.72A.68.68,0,0,0,87.76,104.75Z"/><path class="cls-1" d="M89,104.46h0a.68.68,0,0,0,.37-.87l-.78-3.29a.69.69,0,0,0-.84-.51h0a.68.68,0,0,0-.49.87l1,3.26A.67.67,0,0,0,89,104.46Z"/><path class="cls-1" d="M90.25,104.47a.68.68,0,0,0,.56-.76v-3.4a.7.7,0,0,0-.64-.69h0a.7.7,0,0,0-.73.73l.22,3.42A.67.67,0,0,0,90.25,104.47Z"/><path class="cls-1" d="M91.48,104.77a.69.69,0,0,0,.72-.62l.76-3.24a.66.66,0,0,0-.43-.8h0a.69.69,0,0,0-.91.53L91,103.94A.68.68,0,0,0,91.48,104.77Z"/><path class="cls-1" d="M92.6,105.34a.67.67,0,0,0,.84-.43L94.88,102a.67.67,0,0,0-.22-.87h0a.68.68,0,0,0-1,.3l-1.27,3A.67.67,0,0,0,92.6,105.34Z"/><path class="cls-1" d="M93.56,106.16a.68.68,0,0,0,.92-.23l2-2.34a.68.68,0,0,0,0-.89h0a.68.68,0,0,0-1,0l-1.83,2.48A.69.69,0,0,0,93.56,106.16Z"/><path class="cls-1" d="M94.31,107.18a.68.68,0,0,0,.94,0l2.32-1.73a.66.66,0,0,0,.19-.85h0a.67.67,0,0,0-1-.2l-2.22,1.88A.69.69,0,0,0,94.31,107.18Z"/><path class="cls-1" d="M98.58,106.69a.66.66,0,0,0-1-.43l-2.43,1.23a.75.75,0,0,0-.44.7.83.83,0,0,0,0,.15.67.67,0,0,0,.92.2h0l2.43-1a.68.68,0,0,0,.39-.78Z"/><path class="cls-1" d="M98.87,108.88a.66.66,0,0,0-.82-.62l-2.3.56-.15,0a.68.68,0,0,0-.59.73.6.6,0,0,0,.56.43.72.72,0,0,0,.29,0l2.47-.43a.66.66,0,0,0,.54-.66Z"/><path class="cls-1" d="M95.67,110.27h-.16a.65.65,0,0,0-.58.56h0a.55.55,0,0,0,.24.44,1,1,0,0,0,.49.16l2.37.14a.66.66,0,0,0,.69-.55h0a.66.66,0,0,0-.65-.77Z"/><path class="cls-1" d="M94.89,111.9l-.09.17a.5.5,0,0,0,.29.71l0,0,2.26.67a.65.65,0,0,0,.8-.41v0a.65.65,0,0,0-.47-.84l-2.33-.54h0A.46.46,0,0,0,94.89,111.9Z"/><path class="cls-1" d="M94.12,113.14h0a.57.57,0,0,0,.16.83l0,0,2.13,1.23a.67.67,0,0,0,.91-.25h0a.66.66,0,0,0-.29-.91L94.84,113h0A.59.59,0,0,0,94.12,113.14Z"/><path class="cls-1" d="M93.26,114.1l0,0a.56.56,0,0,0,0,.83h0l2,1.85a.66.66,0,0,0,1-.07h0a.66.66,0,0,0-.1-.92L94,114.08h0A.54.54,0,0,0,93.26,114.1Z"/><path class="cls-1" d="M92.19,115h0a.59.59,0,0,0-.15.81l1.57,2.39a.7.7,0,0,0,1,.14h0a.69.69,0,0,0,.1-.93L93,115.1A.58.58,0,0,0,92.19,115Z"/><path class="cls-1" d="M91,115.67h0a.59.59,0,0,0-.32.7l1,3.09a.72.72,0,0,0,1,.43h0A.72.72,0,0,0,93,119c-.33-.81-.89-2.22-1.22-3A.58.58,0,0,0,91,115.67Z"/><path class="cls-1" d="M89.17,116.8l.39,3.35a.72.72,0,0,0,1,.59h0a.71.71,0,0,0,.47-.8l-.61-3.32a.6.6,0,0,0-.73-.48h0A.6.6,0,0,0,89.17,116.8Z"/><path class="cls-1" d="M87.53,116.94l-.42,3.58a.73.73,0,0,0,.81.8h0a.73.73,0,0,0,.64-.68l.19-3.6a.61.61,0,0,0-.65-.65h0A.63.63,0,0,0,87.53,116.94Z"/><path class="cls-1" d="M85.79,116.74l-1.31,3.6a.75.75,0,0,0,.64,1h0a.76.76,0,0,0,.79-.54L87,117.13a.61.61,0,0,0-.52-.78h0A.59.59,0,0,0,85.79,116.74Z"/><path class="cls-1" d="M84,116.21l-2.24,3.41a.78.78,0,0,0,.44,1.18h0a.79.79,0,0,0,.89-.37l2-3.56a.61.61,0,0,0-.35-.89l-.08,0A.61.61,0,0,0,84,116.21Z"/><path class="cls-1" d="M82.09,115.26l-3.19,3a.81.81,0,0,0,.18,1.31h0a.82.82,0,0,0,1-.17l3-3.23a.61.61,0,0,0-.15-1l-.12-.06A.61.61,0,0,0,82.09,115.26Z"/><path class="cls-1" d="M80.26,113.84l-4,2.33a.85.85,0,0,0-.13,1.38h0a.84.84,0,0,0,1,.06L81,115.05a.71.71,0,0,0,.08-1.11h0A.68.68,0,0,0,80.26,113.84Z"/><path class="cls-1" d="M78.7,111.85l-4.79,1.43a.9.9,0,0,0-.47,1.37h0a.9.9,0,0,0,1,.32l4.68-1.73a.73.73,0,0,0,.35-1.1h0A.71.71,0,0,0,78.7,111.85Z"/><path class="cls-1" d="M77.61,109.34l-5.33.31a.93.93,0,0,0-.82,1.24v0a.9.9,0,0,0,1,.6l5.3-.64a.77.77,0,0,0,.63-1h0A.76.76,0,0,0,77.61,109.34Z"/><path class="cls-1" d="M77.22,106.44l-5.53-1a1,1,0,0,0-1.14,1h0a1,1,0,0,0,.87.91L77,108a.79.79,0,0,0,.87-.82v0A.8.8,0,0,0,77.22,106.44Z"/><path class="cls-1" d="M77.67,103.39,72.18,101a1,1,0,0,0-1.38.75v0a1,1,0,0,0,.64,1.11l5.64,2a.76.76,0,0,0,1-.56l0-.11A.77.77,0,0,0,77.67,103.39Z"/><path class="cls-1" d="M78.87,100.36,73.82,96.6a1,1,0,0,0-1.56.41v0a1,1,0,0,0,.38,1.28l5.29,3.44a.83.83,0,0,0,1.19-.31v0A.84.84,0,0,0,78.87,100.36Z"/><path class="cls-1" d="M81,97.69l-4.31-5.14a1.08,1.08,0,0,0-1.66,0h0A1.07,1.07,0,0,0,75.06,94l4.63,4.86a.84.84,0,0,0,1.24,0h0A.84.84,0,0,0,81,97.69Z"/><path class="cls-1" d="M83.8,95.62l-3.24-6.47a1.1,1.1,0,0,0-1.63-.38h0a1.09,1.09,0,0,0-.29,1.43l3.66,6.27a.85.85,0,0,0,1.17.3h0A.88.88,0,0,0,83.8,95.62Z"/><path class="cls-1" d="M87.19,94.43,85.4,86.87a1.12,1.12,0,0,0-1.49-.79h0a1.1,1.1,0,0,0-.66,1.37l2.26,7.43a.87.87,0,0,0,1,.59h0A.89.89,0,0,0,87.19,94.43Z"/><path class="cls-1" d="M90.81,94.26V86a1.14,1.14,0,0,0-1.22-1.14h0a1.15,1.15,0,0,0-1.07,1.21L89,94.31a.87.87,0,0,0,.84.82h0A.87.87,0,0,0,90.81,94.26Z"/><path class="cls-1" d="M94.36,95l2-8.47a1.15,1.15,0,0,0-.94-1.39h0a1.15,1.15,0,0,0-1.31.94l-1.47,8.56a.89.89,0,0,0,.63,1h0A.86.86,0,0,0,94.36,95Z"/><path class="cls-1" d="M97.6,96.63l4.14-8.24a1.16,1.16,0,0,0-.6-1.59h0a1.14,1.14,0,0,0-1.5.62L96,95.87A.89.89,0,0,0,96.38,97h0A.86.86,0,0,0,97.6,96.63Z"/><path class="cls-1" d="M100.34,99l6.29-7.5a1.17,1.17,0,0,0-.22-1.71h0a1.17,1.17,0,0,0-1.62.26L99,97.86A.87.87,0,0,0,99.07,99h0A.86.86,0,0,0,100.34,99Z"/><path class="cls-1" d="M102.42,101.83l8.34-6.21a1.18,1.18,0,0,0,.19-1.73l0,0a1.18,1.18,0,0,0-1.66-.12l-7.91,6.71a.85.85,0,0,0-.17,1.13h0A.85.85,0,0,0,102.42,101.83Z"/><path class="cls-1" d="M103.75,105.08l10.12-4.36a1.2,1.2,0,0,0,.58-1.66v0a1.19,1.19,0,0,0-1.6-.51l-9.8,5a.86.86,0,0,0-.43,1v0A.83.83,0,0,0,103.75,105.08Z"/><path class="cls-1" d="M104.27,108.51l11.43-2a1.2,1.2,0,0,0,1-1.45l0-.06a1.2,1.2,0,0,0-1.46-.88l-11.25,2.72a.86.86,0,0,0-.65.91v0A.83.83,0,0,0,104.27,108.51Z"/><path class="cls-1" d="M104,111.93l12.06.7a1.22,1.22,0,0,0,1.29-1.2v0a1.21,1.21,0,0,0-1.22-1.23l-12.06,0a.86.86,0,0,0-.85.76h0A.85.85,0,0,0,104,111.93Z"/><path class="cls-1" d="M103.11,115.18l12,3.6a1.24,1.24,0,0,0,1.56-.94v0a1.24,1.24,0,0,0-.94-1.45l-12.19-2.82a.83.83,0,0,0-1,.56v0A.82.82,0,0,0,103.11,115.18Z"/><path class="cls-1" d="M101.62,118.22l11.31,6.53a1.25,1.25,0,0,0,1.78-.6v0a1.25,1.25,0,0,0-.6-1.6l-11.69-5.81a.85.85,0,0,0-1.12.36h0A.85.85,0,0,0,101.62,118.22Z"/><path class="cls-1" d="M99.53,120.92l10,9.39a1.29,1.29,0,0,0,1.94-.2v0a1.27,1.27,0,0,0-.24-1.71l-10.51-8.74a.85.85,0,0,0-1.18.1l0,0A.84.84,0,0,0,99.53,120.92Z"/><path class="cls-1" d="M96.92,123.23l7.88,12a1.32,1.32,0,0,0,2,.23h0a1.32,1.32,0,0,0,.15-1.75l-8.63-11.47a.83.83,0,0,0-1.18-.15l-.06.05A.83.83,0,0,0,96.92,123.23Z"/><path class="cls-1" d="M93.81,125,99,139.18a1.36,1.36,0,0,0,2,.7l0,0a1.35,1.35,0,0,0,.55-1.7l-6-13.8a.84.84,0,0,0-1.15-.41l-.09,0A.84.84,0,0,0,93.81,125Z"/><path class="cls-1" d="M91,125.26l-.14,0a.83.83,0,0,0-.61.9l1.82,15.64A1.39,1.39,0,0,0,93.9,143h0a1.38,1.38,0,0,0,.94-1.57l-2.81-15.5A.84.84,0,0,0,91,125.26Z"/><path class="cls-1" d="M86.4,126.66l-1.9,16.2A1.43,1.43,0,0,0,86,144.45h0a1.43,1.43,0,0,0,1.33-1.35l.87-16.28a.93.93,0,0,0-1-1h0A.92.92,0,0,0,86.4,126.66Z"/><path class="cls-1" d="M82.32,126.25,76.55,142.1a1.47,1.47,0,0,0,1.18,2h0a1.47,1.47,0,0,0,1.62-1l4.76-16.18a.94.94,0,0,0-.76-1.2h0A1,1,0,0,0,82.32,126.25Z"/><path class="cls-1" d="M78.21,125l-9.67,14.68a1.54,1.54,0,0,0,.75,2.28h0a1.53,1.53,0,0,0,1.86-.68L79.9,126a1,1,0,0,0-.49-1.36l-.08,0A1,1,0,0,0,78.21,125Z"/><path class="cls-1" d="M74.21,122.69,60.84,135.3a1.6,1.6,0,0,0,.23,2.5l0,0a1.6,1.6,0,0,0,2-.26l12.56-13.45a.94.94,0,0,0-.17-1.44l-.13-.08A1,1,0,0,0,74.21,122.69Z"/><path class="cls-1" d="M70.51,119.46,53.92,129a1.66,1.66,0,0,0-.37,2.59l0,0a1.67,1.67,0,0,0,2.11.22l16-10.61a1.06,1.06,0,0,0,.18-1.61l0,0A1.08,1.08,0,0,0,70.51,119.46Z"/><path class="cls-1" d="M67.57,115.18l-19.22,5.75a1.74,1.74,0,0,0-1,2.53l0,0a1.73,1.73,0,0,0,2.09.74l18.84-7a1.06,1.06,0,0,0,.54-1.52l0-.09A1.06,1.06,0,0,0,67.57,115.18Z"/><path class="cls-1" d="M65.66,110l-20.9,1.21a1.79,1.79,0,0,0-1.63,2.26v0a1.81,1.81,0,0,0,2,1.31l20.81-2.54a1.05,1.05,0,0,0,.89-1.33,1.21,1.21,0,0,1-.05-.18A1,1,0,0,0,65.66,110Z"/><path class="cls-1" d="M66,105.38v0a1.06,1.06,0,0,0-.88-1L43.57,100.5a1.69,1.69,0,0,0-2,1.65v.41a1.7,1.7,0,0,0,1.5,1.66l21.75,2.44A1.06,1.06,0,0,0,66,105.59Z"/><path class="cls-1" d="M66.08,98.39,45.42,89.47a1.91,1.91,0,0,0-2.62,1.34v0A1.91,1.91,0,0,0,44,93.06l21.23,7.61a1,1,0,0,0,1.37-.77c0-.1,0-.2.07-.3A1,1,0,0,0,66.08,98.39Z"/><path class="cls-1" d="M68.47,92.62l-18.82-14a2,2,0,0,0-3,.73l0,0a2,2,0,0,0,.7,2.51L67.08,94.7a1.06,1.06,0,0,0,1.53-.43l.17-.33A1.05,1.05,0,0,0,68.47,92.62Z"/><path class="cls-1" d="M72.34,87.4,56.57,68.6a2,2,0,0,0-3.15,0l0,0a2,2,0,0,0,.1,2.7l17,17.8A1.05,1.05,0,0,0,72,89.1l.29-.33A1.06,1.06,0,0,0,72.34,87.4Z"/><path class="cls-1" d="M77.45,83,66,60.22a2.12,2.12,0,0,0-3.18-.74h0a2.13,2.13,0,0,0-.56,2.77l12.84,22a1.3,1.3,0,0,0,1.86.42h0A1.33,1.33,0,0,0,77.45,83Z"/><path class="cls-1" d="M83.8,80.11l-6.16-26a2.11,2.11,0,0,0-2.85-1.47l-.16.06a2.13,2.13,0,0,0-1.22,2.57l7.78,25.54a1.35,1.35,0,0,0,1.72.87h0A1.35,1.35,0,0,0,83.8,80.11Z"/><path class="cls-1" d="M90.81,79V51.18a2.11,2.11,0,0,0-2.36-2.09l-.28,0a2.11,2.11,0,0,0-1.85,2.23l1.75,27.77a1.33,1.33,0,0,0,1.42,1.25h.06A1.33,1.33,0,0,0,90.81,79Z"/><path class="cls-1" d="M98,79.79l6.66-28.09a2.11,2.11,0,0,0-1.82-2.58l-.36,0a2.11,2.11,0,0,0-2.31,1.74L95.28,79.24a1.33,1.33,0,0,0,1.09,1.54h.06A1.35,1.35,0,0,0,98,79.79Z"/><path class="cls-1" d="M104.87,82.16l13.5-26.86a2.11,2.11,0,0,0-1.2-2.94l-.44-.15a2.12,2.12,0,0,0-2.63,1.17L102.34,81a1.35,1.35,0,0,0,.73,1.76l.07,0A1.34,1.34,0,0,0,104.87,82.16Z"/><path class="cls-1" d="M111.15,86.07l20.17-24a2.11,2.11,0,0,0-.5-3.14l-.52-.33a2.11,2.11,0,0,0-2.79.55L109,84.33a1.38,1.38,0,0,0,.28,1.94h0A1.4,1.4,0,0,0,111.15,86.07Z"/><path class="cls-1" d="M116.42,91.41l26-19.36a2.41,2.41,0,0,0,.26-3.64l0,0a2.42,2.42,0,0,0-3.27-.14l-24.74,21a1.4,1.4,0,0,0-.17,2l0,0A1.39,1.39,0,0,0,116.42,91.41Z"/><path class="cls-1" d="M120.38,97.91,152.61,84a1.43,1.43,0,0,0,.66-2c-.39-.66-.78-1.31-1.19-1.95a1.42,1.42,0,0,0-1.85-.51L119.16,95.32a1.41,1.41,0,0,0-.63,1.9v0A1.43,1.43,0,0,0,120.38,97.91Z"/><path class="cls-1" d="M122.66,105.27l34.81-6.13a2.52,2.52,0,0,0,2-3.24l0-.06a2.54,2.54,0,0,0-3-1.71l-34.33,8.31a1.41,1.41,0,0,0-1,1.69l0,.07A1.4,1.4,0,0,0,122.66,105.27Z"/><path class="cls-1" d="M123.18,113.05l36.47,2.13a2.61,2.61,0,0,0,2.76-2.74h0a2.62,2.62,0,0,0-2.63-2.48l-36.53.17a1.45,1.45,0,0,0-1.43,1.43v0A1.45,1.45,0,0,0,123.18,113.05Z"/><path class="cls-1" d="M122,120.84l36.11,10.82a2.63,2.63,0,0,0,3.35-2.11v-.05a2.64,2.64,0,0,0-2-3L122.74,118A1.45,1.45,0,0,0,121,119.1v0A1.47,1.47,0,0,0,122,120.84Z"/><path class="cls-1" d="M119.18,128.36,153,147.87a2.72,2.72,0,0,0,3.9-1.38h0a2.72,2.72,0,0,0-1.33-3.43l-34.93-17.33a1.47,1.47,0,0,0-2,.71v0A1.48,1.48,0,0,0,119.18,128.36Z"/><path class="cls-1" d="M114.79,135.32l29.56,27.9a2.76,2.76,0,0,0,4.21-.49l0-.06a2.78,2.78,0,0,0-.54-3.66L116.8,133a1.49,1.49,0,0,0-2.17.27l0,0A1.5,1.5,0,0,0,114.79,135.32Z"/><path class="cls-1" d="M108.86,141.39l23.2,35.29a2.89,2.89,0,0,0,4.41.5h0a2.89,2.89,0,0,0,.32-3.83L111.4,139.59a1.53,1.53,0,0,0-2.25-.23l0,0A1.55,1.55,0,0,0,108.86,141.39Z"/><path class="cls-1" d="M101.51,146.2l15.06,41.41a3,3,0,0,0,4.3,1.53l0,0a3,3,0,0,0,1.2-3.73L104.48,145a1.58,1.58,0,0,0-2.21-.76l0,0A1.59,1.59,0,0,0,101.51,146.2Z"/><path class="cls-1" d="M93,149.35l5.3,45.43a3.06,3.06,0,0,0,3.93,2.57l.06,0a3.06,3.06,0,0,0,2.12-3.47l-8.16-45a1.62,1.62,0,0,0-2-1.28h0A1.64,1.64,0,0,0,93,149.35Z"/><path class="cls-1" d="M85.26,149h-.05a1.67,1.67,0,0,0-1.6,1.47l-5.49,46.93a3.15,3.15,0,0,0,3.27,3.51h.06a3.13,3.13,0,0,0,3-3L87,150.7A1.66,1.66,0,0,0,85.26,149Z"/><path class="cls-1" d="M75.85,148.29h0a1.72,1.72,0,0,0-1.92,1.11l-23.31,64a3.71,3.71,0,0,0,3.49,5h.35A3.72,3.72,0,0,0,58,215.72l19.2-65.26A1.72,1.72,0,0,0,75.85,148.29Z"/><path class="cls-1" d="M66.39,145.58l0,0a1.78,1.78,0,0,0-2.16.67L21.08,211.77a4.27,4.27,0,0,0,3.57,6.62h0a4.28,4.28,0,0,0,3.71-2.15l38.9-68.15A1.76,1.76,0,0,0,66.39,145.58Z"/><path class="cls-1" d="M57.32,140.66l0,0a1.86,1.86,0,0,0-2.31.18L1.31,191.44A4.23,4.23,0,0,0,0,194.49H0a4.19,4.19,0,0,0,7.25,2.86l50.37-53.91A1.85,1.85,0,0,0,57.32,140.66Z"/><path class="cls-1" d="M48.86,136.42a1.93,1.93,0,0,0,.35-2.89l0,0a1.9,1.9,0,0,0-2.36-.36l-45,26A3.57,3.57,0,0,0,0,162.22H0a3.57,3.57,0,0,0,5.55,3Z"/><path class="cls-1" d="M41.62,127.12a2,2,0,0,0,1.07-2.82l0,0a2,2,0,0,0-2.29-1L2.23,134.73a3.12,3.12,0,0,0-2.23,3V138a3.13,3.13,0,0,0,4.22,2.94Z"/><path class="cls-1" d="M36.72,115.86a2.05,2.05,0,0,0,1.74-2.54v0a2,2,0,0,0-2.11-1.55L3,113.67A3.13,3.13,0,0,0,0,116.8H0a3.13,3.13,0,0,0,3.51,3.11Z"/><path class="cls-1" d="M34.8,103.29a2.11,2.11,0,0,0,2.35-2.07v-.06a2.12,2.12,0,0,0-1.75-2.1L3.68,93.46A3.14,3.14,0,0,0,0,96.55v0A3.12,3.12,0,0,0,2.78,99.7Z"/><path class="cls-1" d="M35.86,90.14a2.19,2.19,0,0,0,2.86-1.56v0A2.18,2.18,0,0,0,37.47,86L4.37,71.76A3.13,3.13,0,0,0,0,74.63v.45a3.14,3.14,0,0,0,2.07,3Z"/><path class="cls-1" d="M40,77.07a2.25,2.25,0,0,0,3.24-.88l0,0a2.25,2.25,0,0,0-.67-2.81L5.94,46A3.72,3.72,0,0,0,0,49H0a3.74,3.74,0,0,0,1.69,3.12Z"/><path class="cls-1" d="M47.34,64.88a2.32,2.32,0,0,0,3.46-.11l0,0a2.34,2.34,0,0,0,0-3l-43-51.21A4.46,4.46,0,0,0,0,13.41H0a4.46,4.46,0,0,0,1.23,3.07Z"/><path class="cls-1" d="M61.18,55.14l0,0a2.4,2.4,0,0,0,.74-3L37,2.3A4.19,4.19,0,0,0,33.23,0h0a4.17,4.17,0,0,0-3.61,6.28l28.1,48.13A2.38,2.38,0,0,0,61.18,55.14Z"/><path class="cls-1" d="M74,48.14h0a2.45,2.45,0,0,0,1.5-2.85l-10-42.4A3.75,3.75,0,0,0,61.86,0h-.23a3.74,3.74,0,0,0-3.58,4.84L70.76,46.58A2.46,2.46,0,0,0,74,48.14Z"/><path class="cls-1" d="M88.55,44.57h0a2.51,2.51,0,0,0,2.22-2.49V3.75A3.75,3.75,0,0,0,87.08,0h0a3.75,3.75,0,0,0-3.74,4l2.42,38.26A2.51,2.51,0,0,0,88.55,44.57Z"/><path class="cls-1" d="M103.91,44.75h0a2.53,2.53,0,0,0,2.78-1.94l9-38.11A3.81,3.81,0,0,0,112.07,0h0a3.81,3.81,0,0,0-3.76,3.17l-6.61,38.6A2.57,2.57,0,0,0,103.91,44.75Z"/><path class="cls-1" d="M119.25,48.36h0a2.59,2.59,0,0,0,3.19-1.28L143.18,5.92A4.09,4.09,0,0,0,139.52,0h0a4.1,4.1,0,0,0-3.76,2.49l-18,42.38A2.62,2.62,0,0,0,119.25,48.36Z"/><path class="cls-1" d="M133.75,55.47l0,0a2.65,2.65,0,0,0,3.47-.53L177,7.63A4.65,4.65,0,0,0,173.44,0h0a4.66,4.66,0,0,0-3.74,1.89L133,51.63A2.68,2.68,0,0,0,133.75,55.47Z"/><path class="cls-1" d="M146.51,62.2a2.41,2.41,0,0,0-.21,3.49l.47.47a2.42,2.42,0,0,0,3.2.28l36.78-27.37a4.19,4.19,0,0,0,1.69-3.36h0a4.19,4.19,0,0,0-6.9-3.19Z"/><path class="cls-1" d="M158.09,75.53A2.8,2.8,0,0,0,157,79.45l0,0a2.77,2.77,0,0,0,3.49,1.12L186.2,69.53a3.69,3.69,0,0,0,2.24-3.39h0a3.7,3.7,0,0,0-5.38-3.3Z"/><path class="cls-1" d="M166,91.8A2.86,2.86,0,0,0,164,95.4v0a2.86,2.86,0,0,0,3.23,2l18.42-3.25a3.4,3.4,0,0,0,2.82-3.35v-.12a3.41,3.41,0,0,0-4.21-3.31Z"/><path class="cls-1" d="M169.79,109.91a2.89,2.89,0,0,0-2.88,3V113a2.9,2.9,0,0,0,2.73,2.78l15.19.89a3.42,3.42,0,0,0,3.61-3.41h0a3.42,3.42,0,0,0-3.43-3.41Z"/><path class="cls-1" d="M169.29,128.79a3,3,0,0,0-3.57,2.39v.06a2.94,2.94,0,0,0,2.06,3.31l16.28,4.88a3.41,3.41,0,0,0,4.39-3.26v-.23a3.41,3.41,0,0,0-2.64-3.32Z"/><path class="cls-1" d="M164.75,147.64a3,3,0,0,0-4.14,1.58l0,.07a3,3,0,0,0,1.29,3.73l21.47,12.4a3.4,3.4,0,0,0,5.1-2.95v-1a3.38,3.38,0,0,0-1.89-3Z"/><path class="cls-1" d="M156.09,165.68a3.11,3.11,0,0,0-4.56.65l0,0a3.11,3.11,0,0,0,.44,4L181,197.83a4.4,4.4,0,0,0,7.42-3.2h0a4.4,4.4,0,0,0-1.59-3.39Z"/><path class="cls-1" d="M143.21,181.89a3.2,3.2,0,0,0-4.74-.41l-.06.06a3.19,3.19,0,0,0-.47,4.08l20.24,30.79a4.41,4.41,0,0,0,3.68,2h0a4.4,4.4,0,0,0,3.51-7Z"/><path class="cls-1" d="M126.31,195a2.94,2.94,0,0,0-4.19-1.37l-.62.34a3,3,0,0,0-1.32,3.59l6.7,18.43a3.73,3.73,0,0,0,3.5,2.44h.49a3.72,3.72,0,0,0,3.41-5.2Z"/><path class="cls-1" d="M106.27,204.3a3.47,3.47,0,0,0-6.76,1.1l1.13,9.71a3.72,3.72,0,0,0,3.7,3.28h0A3.72,3.72,0,0,0,108,214Z"/><path class="cls-1" d="M83.88,208.69a3.16,3.16,0,0,0-3.27-3.33l-.73,0a3.13,3.13,0,0,0-3,2.77l-.72,6.08a3.72,3.72,0,0,0,3.7,4.15h0a3.72,3.72,0,0,0,3.71-3.52Z"/></g></g></svg>