<?xml version="1.0" encoding="utf-8"?>
<!-- Generator: Adobe Illustrator 24.2.0, SVG Export Plug-In . SVG Version: 6.00 Build 0)  -->
<svg version="1.1" id="Layer_1" xmlns="http://www.w3.org/2000/svg" xmlns:xlink="http://www.w3.org/1999/xlink" x="0px" y="0px" viewBox="0 0 27 27" style="enable-background:new 0 0 27 27;" xml:space="preserve">
<style>
	 	.st0{
			 fill:#223a73;
		 }
	 </style>
	<g>
		<g>
			<path class="st0" d="M14.3,23.2L14.3,23.2c0.3-0.4,0.3-0.9,0-1.2l-4.9-5.8c-0.1-0.1-1.2-1.4-1.2-2.6c0-1.3,1.1-2.5,1.2-2.7
				l4.9-5.8c0.3-0.4,0.3-0.9,0-1.2l0,0c-0.4-0.4-1-0.4-1.4,0l-8.3,8.8c-0.2,0.3-0.4,0.6-0.4,0.9c0,0.3,0.1,0.7,0.4,0.9l8.3,8.8
				C13.2,23.6,13.9,23.6,14.3,23.2z"/>
			<path class="st0" d="M22.6,23.2L22.6,23.2c0.3-0.4,0.3-0.9,0-1.2l-4.9-5.8c-0.1-0.1-1.2-1.4-1.2-2.6c0-1.3,1.1-2.5,1.2-2.7
				l4.9-5.8c0.3-0.4,0.3-0.9,0-1.2l0,0c-0.4-0.4-1-0.4-1.4,0l-8.3,8.8c-0.2,0.3-0.4,0.6-0.4,0.9c0,0.3,0.1,0.7,0.4,0.9l8.3,8.8
				C21.6,23.6,22.2,23.6,22.6,23.2z"/>
		</g>
	</g>
</svg>
