<?xml version="1.0" encoding="utf-8"?>
<!-- Generator: Adobe Illustrator 24.2.0, SVG Export Plug-In . SVG Version: 6.00 Build 0)  -->
<svg version="1.1" id="Layer_1" xmlns="http://www.w3.org/2000/svg" xmlns:xlink="http://www.w3.org/1999/xlink" x="0px" y="0px"
	 viewBox="0 0 27 27" style="enable-background:new 0 0 27 27;" xml:space="preserve">
	 <style>
	 	.st0{
			 fill:#223a73;
		 }
	 </style>
<g>
	<path class="st0" d="M18.3,8.9L18.3,8.9c-0.2-0.2-0.4-0.2-0.6,0l-3,2.5c-0.1,0.1-0.4,0-0.3-0.2l0.6-5.9c0.1-0.9-0.6-1.8-1.5-1.8
		c-1,0-1.8,0.8-1.7,1.8l0.6,6c0,0.2-0.2,0.3-0.3,0.2L9,8.9c-0.2-0.2-0.4-0.1-0.6,0l0,0c-0.2,0.2-0.2,0.5,0,0.7l4.5,4.3
		c0.1,0.1,0.3,0.2,0.5,0.2c0.2,0,0.4-0.1,0.5-0.2l4.5-4.3C18.5,9.4,18.5,9.1,18.3,8.9z"/>
	<path class="st0" d="M8.8,17.8c-0.4,0-0.7-0.4-0.7-0.8c0,0,0,0,0,0c0-0.3,0.3-0.6,0.7-0.6l8.9-0.1c0.9,0,1.3,1,0.8,1.6l0,0
		c-0.2,0.2-0.5,0.3-0.8,0.3L8.8,17.8z"/>
	<path class="st0" d="M8.8,23c-0.4,0-0.7-0.4-0.7-0.8c0,0,0,0,0,0c0-0.3,0.3-0.6,0.7-0.6l8.9-0.1c0.9,0,1.3,1,0.8,1.6l0,0
		c-0.2,0.2-0.5,0.3-0.8,0.3L8.8,23z"/>
	<path class="st0" d="M18.2,19.2c0.4,0,0.7,0.4,0.7,0.8c0,0,0,0,0,0c0,0.3-0.3,0.6-0.7,0.6l-8.9,0.1c-0.9,0-1.3-1-0.8-1.6l0,0
		c0.2-0.2,0.5-0.3,0.8-0.3L18.2,19.2z"/>
</g>
</svg>
