<?xml version="1.0" encoding="utf-8"?>
<!-- Generator: Adobe Illustrator 24.2.0, SVG Export Plug-In . SVG Version: 6.00 Build 0)  -->
<svg version="1.1" id="Layer_1" xmlns="http://www.w3.org/2000/svg" xmlns:xlink="http://www.w3.org/1999/xlink" x="0px" y="0px" viewBox="0 0 27 27" style="enable-background:new 0 0 27 27;" xml:space="preserve">
<style>
	 	.st0{
			 fill:#223a73;
		 }
	 </style>
	<g>
		<path class="st0" d="M11.5,12.4c0.2,0.3,0.6,0.3,0.9,0c0,0,0,0,0,0c0.2-0.2,0.2-0.5,0-0.8l-4.8-6C7.2,5,6.3,5.3,6.2,6v0 c0,0.2,0,0.5,0.2,0.7L11.5,12.4z"/>
		<path class="st0" d="M13.8,15.9c-0.2-0.3-0.1-0.7,0.2-0.9c0,0,0,0,0,0c0.2-0.2,0.6-0.1,0.8,0.1l5,5.8c0.5,0.6,0.1,1.4-0.7,1.4h0 c-0.3,0-0.5-0.1-0.6-0.3L13.8,15.9z"/>
		<g>
			<path class="st0" d="M16.1,6.4h2.4l2.3,7.6h-2.1l-0.9-3.7c-0.2-0.7-0.4-1.6-0.6-2.4h0c-0.2,0.8-0.3,1.7-0.5,2.4L15.9,14h-2.1 L16.1,6.4z M15.5,10.8h3.7v1.6h-3.7V10.8z M15.9,4.7c0-0.7,0.6-1.2,1.4-1.2c0.8,0,1.4,0.5,1.4,1.2s-0.6,1.2-1.4,1.2 C16.4,5.9,15.9,5.4,15.9,4.7z M17.7,4.7c0-0.3-0.2-0.5-0.4-0.5c-0.2,0-0.4,0.2-0.4,0.5c0,0.3,0.2,0.5,0.4,0.5 C17.5,5.2,17.7,5,17.7,4.7z"/>
		</g>
		<g>
			<path class="st0" d="M6.7,15.9h2.1l1.7,3.4l0.7,1.7h0c-0.1-0.8-0.3-2-0.3-2.9v-2.2h1.9v7.6h-2.1l-1.7-3.4l-0.7-1.7h0 c0.1,0.9,0.3,2,0.3,2.9v2.2H6.7V15.9z M9.1,14.9c-0.2,0-0.3,0.1-0.4,0.5l-1.3-0.1C7.5,14,8.1,13.5,9,13.5c0.8,0,1.2,0.6,1.6,0.6 c0.2,0,0.3-0.1,0.4-0.5l1.3,0.1c-0.1,1.3-0.7,1.8-1.6,1.8C9.8,15.5,9.4,14.9,9.1,14.9z"/>
		</g>
	</g>
</svg>
