<?xml version="1.0" encoding="utf-8"?>
<!-- Generator: Adobe Illustrator 24.2.0, SVG Export Plug-In . SVG Version: 6.00 Build 0)  -->
<!DOCTYPE svg PUBLIC "-//W3C//DTD SVG 1.1//EN" "http://www.w3.org/Graphics/SVG/1.1/DTD/svg11.dtd" [
	<!ENTITY ns_extend "http://ns.adobe.com/Extensibility/1.0/">
	<!ENTITY ns_ai "http://ns.adobe.com/AdobeIllustrator/10.0/">
	<!ENTITY ns_graphs "http://ns.adobe.com/Graphs/1.0/">
	<!ENTITY ns_vars "http://ns.adobe.com/Variables/1.0/">
	<!ENTITY ns_imrep "http://ns.adobe.com/ImageReplacement/1.0/">
	<!ENTITY ns_sfw "http://ns.adobe.com/SaveForWeb/1.0/">
	<!ENTITY ns_custom "http://ns.adobe.com/GenericCustomNamespace/1.0/">
	<!ENTITY ns_adobe_xpath "http://ns.adobe.com/XPath/1.0/">
]>
<svg version="1.1" id="Layer_1" xmlns:x="&ns_extend;" xmlns:i="&ns_ai;" xmlns:graph="&ns_graphs;"
	 xmlns="http://www.w3.org/2000/svg" xmlns:xlink="http://www.w3.org/1999/xlink" x="0px" y="0px" viewBox="0 0 27 27"
	 style="enable-background:new 0 0 27 27;" xml:space="preserve">
<style type="text/css">
	.st0{fill:#223A73;}
</style>
<metadata>
	<sfw  xmlns="&ns_sfw;">
		<slices></slices>
		<sliceSourceBounds  bottomLeftOrigin="true" height="21.5" width="23.9" x="2" y="2.2"></sliceSourceBounds>
	</sfw>
</metadata>
<g>
	<g>
		<path class="st0" d="M25.5,8.3C25.5,8.8,25,9,24.6,9l0,0c-0.5,0-0.7-0.4-0.7-0.7l-0.2-3.8c0-1,1.1-1.5,1.8-0.9l0,0
			c0.2,0.2,0.4,0.5,0.4,0.9L25.5,8.3z"/>
	</g>
	<g>
		<path class="st0" d="M14.8,15.9c0,0.6-0.6,0.8-1,0.8l0,0c-0.4,0-0.7-0.4-0.7-0.8L12.7,4.6c0-1.1,1.2-1.7,2.1-1l0,0
			c0.3,0.3,0.4,0.6,0.4,1L14.8,15.9z"/>
	</g>
	<g>
		<path class="st0" d="M20.1,11.9c0,0.6-0.6,0.8-1,0.8l0,0c-0.4,0-0.7-0.4-0.7-0.8L18,4.8c0-1.1,1.2-1.7,2.1-1l0,0
			c0.3,0.3,0.4,0.6,0.4,1L20.1,11.9z"/>
	</g>
	<g>
		<path class="st0" d="M9.4,21.3c0,0.6-0.4,1-1,0.8l0,0c-0.4,0-0.7-0.4-0.7-0.8L7.4,4.6c0-1.1,1.2-1.7,2.1-1l0,0
			c0.3,0.3,0.4,0.6,0.4,1L9.4,21.3z"/>
	</g>
	<g>
		<path class="st0" d="M4.3,24c0,0.6-0.6,0.8-1,0.8l0,0c-0.4,0-0.7-0.4-0.7-0.8L2,4.6c0-1.1,1.2-1.7,2.1-1l0,0
			c0.3,0.3,0.4,0.6,0.4,1L4.3,24z"/>
	</g>
</g>
</svg>
