<?xml version="1.0" encoding="utf-8"?>
<!-- Generator: Adobe Illustrator 24.2.0, SVG Export Plug-In . SVG Version: 6.00 Build 0)  -->
<!DOCTYPE svg PUBLIC "-//W3C//DTD SVG 1.1//EN" "http://www.w3.org/Graphics/SVG/1.1/DTD/svg11.dtd" [
	<!ENTITY ns_extend "http://ns.adobe.com/Extensibility/1.0/">
	<!ENTITY ns_ai "http://ns.adobe.com/AdobeIllustrator/10.0/">
	<!ENTITY ns_graphs "http://ns.adobe.com/Graphs/1.0/">
	<!ENTITY ns_vars "http://ns.adobe.com/Variables/1.0/">
	<!ENTITY ns_imrep "http://ns.adobe.com/ImageReplacement/1.0/">
	<!ENTITY ns_sfw "http://ns.adobe.com/SaveForWeb/1.0/">
	<!ENTITY ns_custom "http://ns.adobe.com/GenericCustomNamespace/1.0/">
	<!ENTITY ns_adobe_xpath "http://ns.adobe.com/XPath/1.0/">
]>
<svg version="1.1" id="a" xmlns:x="&ns_extend;" xmlns:i="&ns_ai;" xmlns:graph="&ns_graphs;"
	 xmlns="http://www.w3.org/2000/svg" xmlns:xlink="http://www.w3.org/1999/xlink" x="0px" y="0px" viewBox="0 0 300 300"
	 style="enable-background:new 0 0 300 300;" xml:space="preserve">
<style type="text/css">
	.st0{fill:#223A73;}
</style>
<metadata>
	<sfw  xmlns="&ns_sfw;">
		<slices></slices>
		<sliceSourceBounds  bottomLeftOrigin="true" height="219.1" width="235.4" x="32.3" y="40.5"></sliceSourceBounds>
	</sfw>
</metadata>
<path class="st0" d="M150,40.5c60.5,0,109.5,49,109.5,109.5s-49,109.5-109.5,109.5S40.5,210.5,40.5,150S89.5,40.5,150,40.5z
	 M56.1,149.4c0,54.1,42,98.1,93.9,98.1s93.9-43.9,93.9-98.1s-42-98.1-93.9-98.1S56.1,95.2,56.1,149.4z"/>
<g>
	<g>
		<g>
			<path class="st0" d="M165.1,145.3c-1.5,0-3-0.4-4.3-1.2c-2.8-1.8-4.3-4.9-3.8-8.2s2.8-5.9,6-6.7l59.1-15.7
				c0.5-0.1,1.1-0.2,1.6-0.2c2.5,0,4.7,1.5,5.7,3.7c0.7,1.7,0.8,3.5,0,5.1c-0.7,1.6-2.1,2.8-3.7,3.4l-58,19.4
				C166.9,145.1,166,145.3,165.1,145.3L165.1,145.3L165.1,145.3z"/>
			<path class="st0" d="M223.7,114.7c1.8,0,3.6,1.1,4.3,2.8l0,0.1c1.1,2.6-0.2,5.6-2.8,6.4l-58,19.4c-0.7,0.2-1.4,0.4-2.1,0.4
				c-1.2,0-2.5-0.3-3.5-1c-5-3.1-3.9-10.7,1.8-12.2l59.1-15.7C222.9,114.8,223.3,114.7,223.7,114.7 M223.7,111.7
				c-0.7,0-1.3,0.1-2,0.3l-59.1,15.7c-3.8,1-6.5,4.1-7.1,8c-0.6,3.9,1.1,7.6,4.5,9.7c1.5,0.9,3.3,1.5,5.1,1.5c1.1,0,2.1-0.2,3.1-0.5
				l58-19.4c2.1-0.7,3.8-2.2,4.6-4.2c0.9-2,0.9-4.3,0-6.3l0,0l0-0.1C229.6,113.5,226.8,111.7,223.7,111.7L223.7,111.7L223.7,111.7z"
				/>
		</g>
		<g>
			<path class="st0" d="M250.6,125.1c-4.2,0-8.1-1.6-11.1-4.6c-6.1-6.1-6.1-16,0-22.1c2.9-2.9,6.9-4.6,11.1-4.6s8.1,1.6,11,4.6
				c6.1,6.1,6.1,16,0,22.1C258.7,123.5,254.7,125.1,250.6,125.1L250.6,125.1z"/>
			<path class="st0" d="M250.6,95.3c3.6,0,7.2,1.4,10,4.1c5.5,5.5,5.5,14.5,0,20c-2.8,2.8-6.4,4.1-10,4.1s-7.2-1.4-10-4.1
				c-5.5-5.5-5.5-14.5,0-20C243.3,96.7,247,95.3,250.6,95.3 M250.6,92.3c-4.6,0-8.9,1.8-12.1,5c-3.2,3.2-5,7.5-5,12.1
				s1.8,8.9,5,12.1c3.2,3.2,7.5,5,12.1,5s8.9-1.8,12.1-5c6.7-6.7,6.7-17.6,0-24.2C259.5,94.1,255.2,92.4,250.6,92.3L250.6,92.3
				L250.6,92.3z"/>
		</g>
	</g>
	<g>
		<g>
			<path class="st0" d="M134.9,145.3c-0.9,0-1.8-0.1-2.6-0.4l-58-19.4c-1.7-0.6-3-1.8-3.7-3.4c-0.7-1.6-0.7-3.5,0-5.1
				c1-2.3,3.3-3.8,5.7-3.8c0.5,0,1.1,0.1,1.6,0.2l59.1,15.7c3.2,0.9,5.5,3.4,6,6.7s-1,6.4-3.8,8.2
				C137.9,144.9,136.4,145.3,134.9,145.3L134.9,145.3z"/>
			<path class="st0" d="M76.3,114.7c0.4,0,0.8,0.1,1.2,0.2l59.1,15.7c5.7,1.5,6.8,9.1,1.8,12.2c-1.1,0.7-2.3,1-3.5,1
				c-0.7,0-1.4-0.1-2.1-0.4l-58-19.4c-2.7-0.9-4-3.9-2.8-6.4l0-0.1C72.7,115.8,74.5,114.7,76.3,114.7 M76.3,111.7L76.3,111.7
				c-3.1,0-5.8,1.8-7.1,4.6l0,0.1c-0.9,2-0.9,4.3,0,6.3c0.9,2,2.6,3.5,4.6,4.2l58,19.4c1,0.3,2,0.5,3.1,0.5c1.8,0,3.6-0.5,5.1-1.5
				c3.4-2.1,5.1-5.8,4.5-9.7s-3.3-7-7.1-8L78.3,112C77.6,111.8,77,111.7,76.3,111.7L76.3,111.7L76.3,111.7z"/>
		</g>
		<g>
			<path class="st0" d="M49.4,125.1c-4.2,0-8.1-1.6-11-4.6c-6.1-6.1-6.1-16,0-22.1c3-2.9,6.9-4.6,11-4.6s8.1,1.6,11,4.6
				c6.1,6.1,6.1,16,0,22.1C57.5,123.5,53.6,125.1,49.4,125.1z"/>
			<path class="st0" d="M49.4,95.3c3.6,0,7.2,1.4,10,4.1c5.5,5.5,5.5,14.5,0,20c-2.8,2.8-6.4,4.1-10,4.1s-7.2-1.4-10-4.1
				c-5.5-5.5-5.5-14.5,0-20C42.2,96.7,45.8,95.3,49.4,95.3 M49.4,92.3c-4.6,0-8.9,1.8-12.1,5c-6.7,6.7-6.7,17.6,0,24.2
				c3.2,3.2,7.5,5,12.1,5s8.9-1.8,12.1-5c3.2-3.2,5-7.5,5-12.1s-1.8-8.9-5-12.1C58.3,94.1,54,92.3,49.4,92.3L49.4,92.3L49.4,92.3z"
				/>
		</g>
	</g>
</g>
<g>
	<g>
		<g>
			<path class="st0" d="M102.6,216c-1.6,0-3.1-0.6-4.3-1.7c-2.3-2.2-2.7-5.6-0.9-8.1l34.4-50.5c1.6-2.3,4-3.6,6.8-3.6
				c3.9,0,7.2,2.7,8.1,6.5c0.5,2.4,0,4.9-1.5,6.8l-37.6,48.2C106.4,215.1,104.6,216,102.6,216L102.6,216z"/>
			<path class="st0" d="M138.6,153.6c2.9,0,5.9,1.9,6.6,5.3l0,0c0.4,1.9,0,4-1.3,5.6l-37.6,48.2c-0.9,1.2-2.3,1.8-3.7,1.8
				c-1.2,0-2.3-0.4-3.3-1.3l-0.1-0.1c-1.7-1.6-2-4.2-0.7-6.1l34.4-50.5C134.5,154.5,136.5,153.6,138.6,153.6 M138.6,150.6
				c-3.2,0-6.2,1.6-8,4.2l-34.4,50.5c-2.2,3.2-1.7,7.4,1.1,10l0,0c1.5,1.4,3.3,2.1,5.3,2.1c2.4,0,4.6-1.1,6.1-3l37.6-48.2
				c1.8-2.3,2.4-5.2,1.8-8.1C147.2,153.7,143.2,150.6,138.6,150.6L138.6,150.6L138.6,150.6z"/>
		</g>
		<g>
			<path class="st0" d="M86.1,247c-6,0-11.5-3.5-14.1-8.9c-3.7-7.8-0.4-17.1,7.4-20.9c2.1-1,4.4-1.5,6.7-1.5c6,0,11.5,3.5,14.1,8.9
				c3.7,7.8,0.4,17.1-7.4,20.9C90.7,246.5,88.5,247,86.1,247z"/>
			<path class="st0" d="M86.1,217.2c5.3,0,10.3,3,12.8,8c3.4,7,0.4,15.5-6.7,18.9c-2,0.9-4.1,1.4-6.1,1.4c-5.3,0-10.3-3-12.8-8
				c-3.4-7-0.4-15.5,6.7-18.9C82,217.6,84.1,217.2,86.1,217.2 M86.1,214.2L86.1,214.2c-2.6,0-5.1,0.6-7.4,1.7
				c-4.1,2-7.2,5.4-8.8,9.8c-1.5,4.3-1.3,9,0.7,13.1c2.8,5.9,8.9,9.7,15.5,9.7c2.6,0,5.1-0.6,7.4-1.7c4.1-2,7.2-5.4,8.8-9.8
				c1.5-4.3,1.3-9-0.7-13.1C98.8,218,92.7,214.2,86.1,214.2L86.1,214.2L86.1,214.2z"/>
		</g>
	</g>
	<g>
		<g>
			<path class="st0" d="M197.4,215.9c-1.9,0-3.7-0.9-4.9-2.4l-37.8-48.1c-1.5-1.9-2.1-4.4-1.6-6.8c0.8-3.8,4.1-6.5,8.1-6.5
				c2.7,0,5.2,1.3,6.7,3.6l34.6,50.4c1.8,2.6,1.4,5.9-0.9,8.1C200.5,215.3,199,215.9,197.4,215.9L197.4,215.9L197.4,215.9z"/>
			<path class="st0" d="M161.2,153.6c2.1,0,4.1,0.9,5.5,2.9l34.6,50.4c1.3,1.9,1.1,4.5-0.6,6.1l-0.1,0.1c-0.9,0.9-2.1,1.3-3.3,1.3
				c-1.4,0-2.8-0.6-3.7-1.8l-37.8-48.1c-1.2-1.6-1.7-3.6-1.3-5.6C155.4,155.5,158.3,153.6,161.2,153.6 M161.2,150.6
				c-4.6,0-8.6,3.2-9.6,7.7c-0.6,2.8,0.1,5.8,1.9,8.1l37.8,48.1c1.5,1.9,3.7,3,6.1,3c2,0,3.9-0.8,5.4-2.1l0.1-0.1
				c2.8-2.6,3.2-6.9,1.1-10l-34.6-50.4C167.4,152.1,164.5,150.6,161.2,150.6L161.2,150.6L161.2,150.6z"/>
		</g>
		<g>
			<path class="st0" d="M214,246.8c-2.3,0-4.6-0.5-6.7-1.5c-3.8-1.8-6.6-4.9-8-8.9s-1.2-8.2,0.6-11.9c2.6-5.4,8.1-8.9,14.1-8.9
				c2.3,0,4.6,0.5,6.7,1.5c7.8,3.7,11.1,13,7.4,20.8C225.5,243.3,220,246.8,214,246.8L214,246.8L214,246.8z"/>
			<path class="st0" d="M214,217c2,0,4.1,0.4,6,1.4c7.1,3.3,10.1,11.8,6.7,18.8c-2.4,5.1-7.5,8.1-12.8,8.1c-2,0-4.1-0.4-6-1.4
				c-7.1-3.3-10.1-11.8-6.7-18.8C203.6,220,208.7,217,214,217 M214,214c-6.6,0-12.7,3.9-15.5,9.8c-2,4.1-2.2,8.8-0.6,13.1
				c1.5,4.3,4.7,7.8,8.8,9.7c2.3,1.1,4.8,1.6,7.3,1.6c6.6,0,12.7-3.9,15.5-9.8c2-4.1,2.2-8.8,0.6-13.1c-1.5-4.3-4.7-7.8-8.8-9.7
				C219,214.6,216.5,214,214,214L214,214z"/>
		</g>
	</g>
</g>
<circle class="st0" cx="150.4" cy="97.4" r="23"/>
</svg>
