<?xml version="1.0" encoding="utf-8"?>
<!-- Generator: Adobe Illustrator 24.2.0, SVG Export Plug-In . SVG Version: 6.00 Build 0)  -->
<!DOCTYPE svg PUBLIC "-//W3C//DTD SVG 1.1//EN" "http://www.w3.org/Graphics/SVG/1.1/DTD/svg11.dtd" [
	<!ENTITY ns_extend "http://ns.adobe.com/Extensibility/1.0/">
	<!ENTITY ns_ai "http://ns.adobe.com/AdobeIllustrator/10.0/">
	<!ENTITY ns_graphs "http://ns.adobe.com/Graphs/1.0/">
	<!ENTITY ns_vars "http://ns.adobe.com/Variables/1.0/">
	<!ENTITY ns_imrep "http://ns.adobe.com/ImageReplacement/1.0/">
	<!ENTITY ns_sfw "http://ns.adobe.com/SaveForWeb/1.0/">
	<!ENTITY ns_custom "http://ns.adobe.com/GenericCustomNamespace/1.0/">
	<!ENTITY ns_adobe_xpath "http://ns.adobe.com/XPath/1.0/">
]>
<svg version="1.1" id="a" xmlns:x="&ns_extend;" xmlns:i="&ns_ai;" xmlns:graph="&ns_graphs;"
	 xmlns="http://www.w3.org/2000/svg" xmlns:xlink="http://www.w3.org/1999/xlink" x="0px" y="0px" viewBox="0 0 300 300"
	 style="enable-background:new 0 0 300 300;" xml:space="preserve">
<style type="text/css">
	.st0{fill:#223A73;}
</style>
<metadata>
	<sfw  xmlns="&ns_sfw;">
		<slices></slices>
		<sliceSourceBounds  bottomLeftOrigin="true" height="110.6" width="127.9" x="88.5" y="94.7"></sliceSourceBounds>
	</sfw>
</metadata>
<path class="st0" d="M156,203.5L156,203.5c6.1-8.6,8.1-94.6,0.1-106.9l-0.1-0.1c-2-2.3-5.6-2.4-7.7-0.2l-46,48.4
	c-1.3,1.4-2.1,3.3-2,5.2c0,1.9,0.7,3.8,2,5.2l46,48.4C150.4,205.9,154,205.8,156,203.5L156,203.5z"/>
<path class="st0" d="M211,203.5L211,203.5c6.1-8.6,8.1-94.6,0.1-106.9l-0.1-0.1c-2-2.3-5.6-2.4-7.7-0.2l-46,48.4
	c-1.3,1.4-2.1,3.3-2,5.2c0,1.9,0.7,3.8,2,5.2l46,48.4C205.4,205.9,209,205.8,211,203.5L211,203.5z"/>
<path class="st0" d="M102.1,95l-7.8,0.1c-3.4,0-5.9,6.2-5.8,13.8c0.6,25,2.2,54.9,3.1,82.8c0.3,7.8,1,13.9,5.6,13.5
	c4.4-0.4,7.9-2.6,8-13.7c0.3-30.9,0.2-68.9,0.1-89.6C105.2,98.1,103.8,95,102.1,95L102.1,95z"/>
</svg>
