<?xml version="1.0" encoding="utf-8"?>
<!-- Generator: Adobe Illustrator 24.2.0, SVG Export Plug-In . SVG Version: 6.00 Build 0)  -->
<!DOCTYPE svg PUBLIC "-//W3C//DTD SVG 1.1//EN" "http://www.w3.org/Graphics/SVG/1.1/DTD/svg11.dtd" [
	<!ENTITY ns_extend "http://ns.adobe.com/Extensibility/1.0/">
	<!ENTITY ns_ai "http://ns.adobe.com/AdobeIllustrator/10.0/">
	<!ENTITY ns_graphs "http://ns.adobe.com/Graphs/1.0/">
	<!ENTITY ns_vars "http://ns.adobe.com/Variables/1.0/">
	<!ENTITY ns_imrep "http://ns.adobe.com/ImageReplacement/1.0/">
	<!ENTITY ns_sfw "http://ns.adobe.com/SaveForWeb/1.0/">
	<!ENTITY ns_custom "http://ns.adobe.com/GenericCustomNamespace/1.0/">
	<!ENTITY ns_adobe_xpath "http://ns.adobe.com/XPath/1.0/">
]>
<svg version="1.1" id="a" xmlns:x="&ns_extend;" xmlns:i="&ns_ai;" xmlns:graph="&ns_graphs;"
	 xmlns="http://www.w3.org/2000/svg" xmlns:xlink="http://www.w3.org/1999/xlink" x="0px" y="0px" viewBox="0 0 300 300"
	 style="enable-background:new 0 0 300 300;" xml:space="preserve">
<style type="text/css">
	.st0{fill:#223A73;}
</style>
<metadata>
	<sfw  xmlns="&ns_sfw;">
		<slices></slices>
		<sliceSourceBounds  bottomLeftOrigin="true" height="174.8" width="214" x="43" y="62.6"></sliceSourceBounds>
	</sfw>
</metadata>
<path class="st0" d="M223.8,237.4c18.8,0,33.9-15.7,33.2-34.5l-5.2-131.4c-0.2-4.7-3-8.5-6.5-8.9h-0.1c-0.4-0.1-149.5-0.1-149.5-0.1
	v0c-3.7,0.4-6.6,4.4-6.6,9.5v19.5H49.6v0.1c-3.7,0.4-6.6,4.4-6.6,9.5l0,105.4c0,17.1,13.8,31,31,31L223.8,237.4L223.8,237.4z
	 M97.4,215.5c4.6-1.1,11.2-5.1,11.2-13.7l-4.8-126.1h133.4l0,123c0,9.2-7.5,16.7-16.7,16.7L97.4,215.5L97.4,215.5z M75.6,215.5
	L75.6,215.5c-7.2,0-13.1-5.7-13.5-12.9l-4.3-97.9h31.3l0,97.3C89.1,209.5,83,215.5,75.6,215.5L75.6,215.5z"/>
<path class="st0" d="M134.1,107.8c-3.5-0.2-6.1-3.4-5.7-6.8v-0.1c0.4-2.9,2.8-5,5.7-5l76.4-0.5c7.4-0.1,11.4,8.7,6.5,14.1l0,0
	c-1.7,1.8-4.1,2.8-6.6,2.7L134.1,107.8L134.1,107.8z"/>
</svg>
