<?xml version="1.0" encoding="utf-8"?>
<!-- Generator: Adobe Illustrator 24.2.0, SVG Export Plug-In . SVG Version: 6.00 Build 0)  -->
<!DOCTYPE svg PUBLIC "-//W3C//DTD SVG 1.1//EN" "http://www.w3.org/Graphics/SVG/1.1/DTD/svg11.dtd" [
	<!ENTITY ns_extend "http://ns.adobe.com/Extensibility/1.0/">
	<!ENTITY ns_ai "http://ns.adobe.com/AdobeIllustrator/10.0/">
	<!ENTITY ns_graphs "http://ns.adobe.com/Graphs/1.0/">
	<!ENTITY ns_vars "http://ns.adobe.com/Variables/1.0/">
	<!ENTITY ns_imrep "http://ns.adobe.com/ImageReplacement/1.0/">
	<!ENTITY ns_sfw "http://ns.adobe.com/SaveForWeb/1.0/">
	<!ENTITY ns_custom "http://ns.adobe.com/GenericCustomNamespace/1.0/">
	<!ENTITY ns_adobe_xpath "http://ns.adobe.com/XPath/1.0/">
]>
<svg version="1.1" id="a" xmlns:x="&ns_extend;" xmlns:i="&ns_ai;" xmlns:graph="&ns_graphs;"
	 xmlns="http://www.w3.org/2000/svg" xmlns:xlink="http://www.w3.org/1999/xlink" x="0px" y="0px" viewBox="0 0 300 300"
	 style="enable-background:new 0 0 300 300;" xml:space="preserve">
<style type="text/css">
	.st0{fill:#223A73;}
</style>
<metadata>
	<sfw  xmlns="&ns_sfw;">
		<slices></slices>
		<sliceSourceBounds  bottomLeftOrigin="true" height="146" width="158.6" x="76" y="77"></sliceSourceBounds>
	</sfw>
</metadata>
<path class="st0" d="M139.6,203.9L139.6,203.9c6.1-8.6,8.1-94.6,0.1-106.9l-0.1-0.1c-2-2.3-5.6-2.4-7.7-0.2l-46,48.4
	c-1.3,1.4-2.1,3.3-2,5.2c0,1.9,0.7,3.8,2,5.2l46,48.4C134,206.3,137.6,206.2,139.6,203.9L139.6,203.9z"/>
<path class="st0" d="M76.4,137.1L76.4,137.1L76.4,137.1 M76.5,131c0.5-1.3,1.6-2,3.1-2c10.9,0.2,21.7,0.4,32.6,0.6
	c3.5,0.1,5.2,2,5.2,5.7c-0.1,11.1-0.1,22.3-0.2,33.5c0,0.7-0.1,1.2-0.3,1.7c-0.5,1.3-1.6,1.9-3.2,1.9c-5.7-0.1-11.4-0.2-17.1-0.3
	c-5.6-0.1-11.1-0.2-16.7-0.3c-2.7,0-4-1.4-3.9-4.3c0.1-11.7,0.2-23.3,0.2-35C76.2,132,76.3,131.5,76.5,131L76.5,131L76.5,131z"/>
<g id="b">
	<g>
		<path class="st0" d="M234.6,149c0,13.4-1.7,24.5-5.2,35.2c-4.5,13.6-11.5,25.7-21.1,36.2c-2.1,2.3-4.8,3.1-7.8,2.2
			c-3-0.8-4.9-2.9-5.6-5.9c-0.6-2.5,0.1-4.8,1.8-6.7c8-8.7,13.8-18.7,17.6-29.9c2.3-6.7,3.7-13.5,4.3-20.5
			c0.5-5.3,0.5-10.6,0.1-15.9c-0.9-11.1-3.6-21.7-8.1-31.8c-3.6-8-8.1-15.3-13.6-22.2c-2.1-2.6-2.5-5.5-1-8.4c1.5-3,4-4.5,7.4-4.3
			c2.2,0.1,4.1,1.1,5.5,2.8c9.4,11.7,16.4,24.7,20.7,39C232.9,129.4,234.6,140.2,234.6,149L234.6,149z"/>
		<path class="st0" d="M207,150.2c-0.1,15.2-3.6,28.6-10.9,41c-2.2,3.6-4.6,7.1-7.5,10.3c-2.8,3.1-7.5,3.4-10.6,0.7
			c-3.3-2.8-3.8-7.6-1.1-10.8c4.1-4.8,7.4-10,9.8-15.8c2.7-6.4,4.2-13,4.6-19.9c1-17.4-4-33-14.4-46.9c-2.2-3-2.2-6.5-0.6-9.1
			c2.8-4.6,9.4-5,12.6-0.7c7.8,10.1,13.1,21.3,15.9,33.7C206.4,139.2,207,145,207,150.2L207,150.2z"/>
		<path class="st0" d="M179,150.6c-0.1,11.7-3.1,21.5-9.3,30.4c-1.8,2.5-4.2,3.8-7.2,3.5c-3.2-0.3-5.4-2.1-6.6-5.1
			c-1-2.5-0.6-5,1-7.2c2.5-3.4,4.3-7.2,5.4-11.3c1.6-6,1.6-12.1,0.3-18.1c-1.2-5.5-3.5-10.5-6.6-15.2c-2.4-3.6-1.4-8.3,2.2-10.8
			c3.5-2.4,8.3-1.5,10.7,2c5.4,7.9,8.7,16.5,9.9,26C178.9,147,178.9,149.2,179,150.6L179,150.6z"/>
	</g>
</g>
</svg>
