<?xml version="1.0" encoding="utf-8"?>
<!-- Generator: Adobe Illustrator 24.2.0, SVG Export Plug-In . SVG Version: 6.00 Build 0)  -->
<!DOCTYPE svg PUBLIC "-//W3C//DTD SVG 1.1//EN" "http://www.w3.org/Graphics/SVG/1.1/DTD/svg11.dtd" [
	<!ENTITY ns_extend "http://ns.adobe.com/Extensibility/1.0/">
	<!ENTITY ns_ai "http://ns.adobe.com/AdobeIllustrator/10.0/">
	<!ENTITY ns_graphs "http://ns.adobe.com/Graphs/1.0/">
	<!ENTITY ns_vars "http://ns.adobe.com/Variables/1.0/">
	<!ENTITY ns_imrep "http://ns.adobe.com/ImageReplacement/1.0/">
	<!ENTITY ns_sfw "http://ns.adobe.com/SaveForWeb/1.0/">
	<!ENTITY ns_custom "http://ns.adobe.com/GenericCustomNamespace/1.0/">
	<!ENTITY ns_adobe_xpath "http://ns.adobe.com/XPath/1.0/">
]>
<svg version="1.1" id="a" xmlns:x="&ns_extend;" xmlns:i="&ns_ai;" xmlns:graph="&ns_graphs;"
	 xmlns="http://www.w3.org/2000/svg" xmlns:xlink="http://www.w3.org/1999/xlink" x="0px" y="0px" viewBox="0 0 300 300"
	 style="enable-background:new 0 0 300 300;" xml:space="preserve">
<style type="text/css">
	.st0{fill:#223A73;}
</style>
<metadata>
	<sfw  xmlns="&ns_sfw;">
		<slices></slices>
		<sliceSourceBounds  bottomLeftOrigin="true" height="210.2" width="239.3" x="30.4" y="44.9"></sliceSourceBounds>
	</sfw>
</metadata>
<g>
	<path class="st0" d="M104,88.5c-2.6-4.4-7.7-5.9-11.8-3.3c-4.3,2.7-5.8,9-3.3,13.9c16.7,32.5,16.8,61.9,1.9,93.9
		c-3.1,6.7-0.8,15,5.3,18.3l0,0c6,3.2,13.1,0.2,15.8-6.6C127.7,165,126.4,127,104,88.5z"/>
	<path class="st0" d="M60.9,106.1c-3.3,1.8-4.5,6.1-2.6,9.4c12.8,21.9,12.9,41.9,1.5,63.5c-2.4,4.5-0.6,10.1,4,12.4
		c4.6,2.2,10,0.2,12.1-4.5c12.1-26.8,11-52.5-6.1-78.5C67.9,105.4,64,104.4,60.9,106.1L60.9,106.1z"/>
	<path class="st0" d="M32.9,119.6L32.9,119.6c-2.4,1.3-3.2,4.4-1.8,6.7c9.2,15.8,9.3,30.1,1.1,45.7c-1.7,3.3-0.4,7.3,2.9,8.9l0,0
		c3.3,1.6,7.2,0.1,8.7-3.2c8.7-19.3,8-37.8-4.4-56.5C38,119,35.1,118.3,32.9,119.6L32.9,119.6z"/>
</g>
<g>
	<path class="st0" d="M244.7,60.4c-11.4-9.6-25.9-15.1-40.9-15.5c-14.9-0.4-29.7,4.3-41.7,13.2c-14.9,11.1-23.9,25.9-26.9,43.9
		c-0.7,4.4,1.6,8.6,5.7,10.3c2.7,1.1,5.8,1,8.3-0.5s4.3-3.9,4.7-6.8c3.6-23.7,24.2-40.9,49.1-40.9c1.3,0,3.8,0.1,6.2,0.5
		c15.1,2.3,27.9,11.3,35.3,24.6c7.3,13.2,8.1,28.7,2.1,42.5c-5.3,12.1-10.9,24.4-16.3,36.2c-2.4,5.1-4.7,10.3-7.1,15.4
		c-1.6,3.6-3.2,7.2-4.9,10.8c-3.9,8.7-7.9,17.7-12.2,26.3c-4.9,10-13,15.2-24.2,15.6c-0.3,0-0.7,0-1,0c-12.8,0-23.5-8.5-26.8-21.4
		c-1-3.9-4.4-6.8-8.4-7.1h-0.1c-3-0.3-6,0.9-8,3.2c-2,2.3-2.8,5.4-2.1,8.4c4.9,20.9,23.7,35.9,44.9,35.9c0.2,0,0.5,0,0.7,0
		c19.7-0.3,34.4-9.9,42.7-27.6c12.5-26.8,24.9-54.1,36.9-80.6l2.7-6c4-8.7,6-17.6,6.1-26.4C269.8,92.7,261.5,74.5,244.7,60.4
		L244.7,60.4z"/>
	<path class="st0" d="M185,194.8c-2.3,5,0,11,5,13.2c1.3,0.6,2.7,0.9,4.1,0.9c3.8,0,7.5-2.2,9.1-5.9l25.5-56.8
		c5.3-11.7,4.4-25.3-2.4-36.2c-6.6-10.7-18-17.4-30.4-18c-0.6,0-1.2,0-1.8,0c-22.1,0-40,18-40,40c0,1.3,0.3,2.6,0.7,3.8
		c1.1,4.4,5,7.7,9.7,7.7c3.7,0,6.8,3,6.8,6.8s-3,6.8-6.8,6.8c-5.5,0-10,4.5-10,10s4.5,10,10,10c14.8,0,26.8-12,26.8-26.8
		c0-11-6.7-20.4-16.2-24.6c2.7-7.9,10.2-13.7,19-13.7c0.3,0,0.6,0,0.9,0c5.9,0.3,11.1,3.4,14.3,8.5c3.3,5.3,3.7,11.9,1.2,17.6
		L185,194.8L185,194.8z"/>
</g>
</svg>
