<?xml version="1.0" encoding="utf-8"?>
<!-- Generator: Adobe Illustrator 24.2.0, SVG Export Plug-In . SVG Version: 6.00 Build 0)  -->
<!DOCTYPE svg PUBLIC "-//W3C//DTD SVG 1.1//EN" "http://www.w3.org/Graphics/SVG/1.1/DTD/svg11.dtd" [
	<!ENTITY ns_extend "http://ns.adobe.com/Extensibility/1.0/">
	<!ENTITY ns_ai "http://ns.adobe.com/AdobeIllustrator/10.0/">
	<!ENTITY ns_graphs "http://ns.adobe.com/Graphs/1.0/">
	<!ENTITY ns_vars "http://ns.adobe.com/Variables/1.0/">
	<!ENTITY ns_imrep "http://ns.adobe.com/ImageReplacement/1.0/">
	<!ENTITY ns_sfw "http://ns.adobe.com/SaveForWeb/1.0/">
	<!ENTITY ns_custom "http://ns.adobe.com/GenericCustomNamespace/1.0/">
	<!ENTITY ns_adobe_xpath "http://ns.adobe.com/XPath/1.0/">
]>
<svg version="1.1" id="a" xmlns:x="&ns_extend;" xmlns:i="&ns_ai;" xmlns:graph="&ns_graphs;"
	 xmlns="http://www.w3.org/2000/svg" xmlns:xlink="http://www.w3.org/1999/xlink" x="0px" y="0px" viewBox="0 0 300 300"
	 style="enable-background:new 0 0 300 300;" xml:space="preserve">
<style type="text/css">
	.st0{fill:#223A73;}
</style>
<metadata>
	<sfw  xmlns="&ns_sfw;">
		<slices></slices>
		<sliceSourceBounds  bottomLeftOrigin="true" height="216" width="170.1" x="65" y="42"></sliceSourceBounds>
	</sfw>
</metadata>
<path class="st0" d="M235,250.7V101.2c0-4-3.2-7.3-7.2-7.3h-10.4V51.5c0-5.2-4.2-9.5-9.3-9.5H92.8C77.4,42,65,54.7,65,70.4v159.3
	c0,15.7,12.4,28.4,27.8,28.4h135.1C231.8,258,235,254.7,235,250.7L235,250.7z M81.9,74.8c0-4.4-0.3-16.1,12.7-16.1h108.8v16.1H81.9z
	 M92.8,243.6c-7.6,0-13.7-6.3-13.7-14V103.2c4.4,3.2,9.8,5.1,15.5,5.1h126.3v135.4C220.9,243.6,92.8,243.6,92.8,243.6z"/>
<g>
	<path class="st0" d="M172,127.4c-2-3.5-6.1-4.7-9.4-2.6c-3.5,2.2-4.7,7.2-2.7,11.1c13.3,25.9,13.4,49.4,1.5,74.9
		c-2.5,5.4-0.6,12,4.2,14.6l0,0c4.8,2.6,10.4,0.2,12.6-5.3C190.9,188.4,189.8,158,172,127.4L172,127.4z"/>
	<path class="st0" d="M137.6,141.4c-2.7,1.5-3.6,4.9-2,7.5c10.2,17.5,10.3,33.4,1.2,50.7c-1.9,3.6-0.5,8.1,3.2,9.9
		c3.6,1.8,8,0.1,9.7-3.6c9.6-21.4,8.8-41.9-4.8-62.6C143.2,140.8,140.1,140,137.6,141.4L137.6,141.4z"/>
	<path class="st0" d="M115.3,152.1L115.3,152.1c-1.9,1.1-2.6,3.5-1.5,5.4c7.3,12.6,7.4,24,0.8,36.5c-1.4,2.6-0.3,5.8,2.3,7.1l0,0
		c2.6,1.3,5.8,0.1,6.9-2.6c6.9-15.4,6.3-30.2-3.5-45.1C119.3,151.7,117.1,151.1,115.3,152.1L115.3,152.1z"/>
</g>
</svg>
