<?xml version="1.0" encoding="utf-8"?>
<!-- Generator: Adobe Illustrator 24.2.0, SVG Export Plug-In . SVG Version: 6.00 Build 0)  -->
<!DOCTYPE svg PUBLIC "-//W3C//DTD SVG 1.1//EN" "http://www.w3.org/Graphics/SVG/1.1/DTD/svg11.dtd" [
	<!ENTITY ns_extend "http://ns.adobe.com/Extensibility/1.0/">
	<!ENTITY ns_ai "http://ns.adobe.com/AdobeIllustrator/10.0/">
	<!ENTITY ns_graphs "http://ns.adobe.com/Graphs/1.0/">
	<!ENTITY ns_vars "http://ns.adobe.com/Variables/1.0/">
	<!ENTITY ns_imrep "http://ns.adobe.com/ImageReplacement/1.0/">
	<!ENTITY ns_sfw "http://ns.adobe.com/SaveForWeb/1.0/">
	<!ENTITY ns_custom "http://ns.adobe.com/GenericCustomNamespace/1.0/">
	<!ENTITY ns_adobe_xpath "http://ns.adobe.com/XPath/1.0/">
]>
<svg version="1.1" id="a" xmlns:x="&ns_extend;" xmlns:i="&ns_ai;" xmlns:graph="&ns_graphs;"
	 xmlns="http://www.w3.org/2000/svg" xmlns:xlink="http://www.w3.org/1999/xlink" x="0px" y="0px" viewBox="0 0 300 300"
	 style="enable-background:new 0 0 300 300;" xml:space="preserve">
<style type="text/css">
	.st0{fill:#223A73;}
</style>
<metadata>
	<sfw  xmlns="&ns_sfw;">
		<slices></slices>
		<sliceSourceBounds  bottomLeftOrigin="true" height="218" width="173.5" x="63.2" y="39"></sliceSourceBounds>
	</sfw>
</metadata>
<g>
	<path class="st0" d="M203.5,47.6c-2.6-2-5.8-3.1-9.1-3.1L97.2,43v0c-3,0.3-5.4,3.6-5.4,7.7l-2,173.1c0,3.3,1.1,6.4,3,8.5
		c1.5,1.7,3.3,2.5,5,2.6v0h131.7c0,0,0.1,0,0.1,0h0.1c0.5,0.1,0.9,0.1,1.4,0h0.1v0c2.8-0.6,5-3.7,5-7.7l0.6-146.7
		c0-4.8-2.2-9.4-6.1-12.3L203.5,47.6L203.5,47.6z M106.4,219.1l-2.6-165.4H188l-0.3,25.2c0,3.3,1.1,6.4,3,8.5
		c1.5,1.6,3.2,2.4,4.8,2.6v0.1h26.5l2.1,129L106.4,219.1L106.4,219.1z M221.8,75.9h-22.2c0-0.3-0.4-22.1-0.4-22.1L221.8,75.9
		L221.8,75.9z"/>
	<path class="st0" d="M197.4,233l0.2,12.1H79.8L77.2,79.8H98c-0.4-3.5-0.8-6.9-1.1-10.4L70.6,69v0c-3,0.3-5.4,3.6-5.4,7.7l-2,173.1
		c0,3.3,1.1,6.4,3,8.5c1.5,1.7,3.3,2.5,5,2.6v0h131.7c0,0,0.1,0,0.1,0h0.1c0.5,0.1,0.9,0,1.4,0h0.1v0c2.8-0.5,5-3.7,5-7.7l0.1-19.6
		C205.6,233.7,201.4,233.6,197.4,233L197.4,233z"/>
</g>
<g>
	<path class="st0" d="M116.3,141.2v4.9c0,2.1,4.4,3.7,9.9,3.7c18.1-0.2,60-0.3,80.2-0.7c5.6-0.1,6.3-1.1,6.1-3.9
		c-0.2-2.7-0.9-4.5-9-4.6c-22.4-0.4-67.3-1.2-82.2-1.2C118.5,139.2,116.3,140.1,116.3,141.2L116.3,141.2z"/>
	<path class="st0" d="M212.4,179.8v-4.9c0-2.1-1-3.9-3.1-3.7c-6.9,0.5-81.6,1.8-89.3,2.5c-2.2,0.2-3.8,0.7-3.7,3.5
		c0.1,2.7,0.8,4.9,3.9,4.9c8.6,0.1,84.4-0.5,90.1-0.7C211.3,181.4,212.5,180.9,212.4,179.8L212.4,179.8z"/>
	<path class="st0" d="M117.5,197.8v-4.9c0-2.1,1-3.9,3.1-3.7c6.9,0.5,39.6-0.8,47.3-0.1c2.1,0.2,3.8,0.7,3.7,3.5
		c-0.1,2.7-0.8,4.9-3.9,4.9c-8.6,0.1-42.4,2.1-48.1,1.9C118.6,199.4,117.4,198.8,117.5,197.8L117.5,197.8z"/>
	<path class="st0" d="M212.4,112.9V108c0-2.1-1.4-3.6-5.1-3.4c-12.3,0.6-70.6,2.1-84.4,2.9c-3.8,0.2-6.9,0.8-6.7,3.6
		c0.2,2.7,1.3,4.9,6.8,4.8c15.2-0.1,75.1-0.8,85.3-1.1C210.2,114.8,212.5,113.9,212.4,112.9L212.4,112.9z"/>
	<path class="st0" d="M212.4,163v-4.9c0-2.1-2.3-3.4-6.1-3.1c-12.3,0.8-69.7,2.2-83.5,3.2c-3.8,0.3-6.8,0.8-6.6,3.7
		c0.2,2.7,1.3,4.9,6.8,4.8c15.2-0.3,76.1-1,86.2-1.3C211.2,165.2,212.5,164,212.4,163L212.4,163z"/>
	<path class="st0" d="M182,73.7c-21.3,0.5-50,1.3-61.1,1.7c-2.5,0.1-4.5,1-4.5,2.1l0.1,4.9c0,2.1,4.1,3.6,9.1,3.3
		c12.9-0.7,37.5,0.1,56.5-0.1L182,73.7L182,73.7z"/>
	<path class="st0" d="M212.4,128.6v-4.9c0-2.1-1.6-3.2-6.1-3c-14.6,0.9-65.9,2.5-82.2,3.6c-4.5,0.3-8.1,0.9-7.9,3.7
		c0.2,2.7,1.6,4.9,8.1,4.7c18.1-0.4,72.9-1.3,85-1.8C211.5,131,212.5,129.7,212.4,128.6L212.4,128.6z"/>
</g>
</svg>
