<?xml version="1.0" encoding="utf-8"?>
<!-- Generator: Adobe Illustrator 24.2.0, SVG Export Plug-In . SVG Version: 6.00 Build 0)  -->
<!DOCTYPE svg PUBLIC "-//W3C//DTD SVG 1.1//EN" "http://www.w3.org/Graphics/SVG/1.1/DTD/svg11.dtd" [
	<!ENTITY ns_extend "http://ns.adobe.com/Extensibility/1.0/">
	<!ENTITY ns_ai "http://ns.adobe.com/AdobeIllustrator/10.0/">
	<!ENTITY ns_graphs "http://ns.adobe.com/Graphs/1.0/">
	<!ENTITY ns_vars "http://ns.adobe.com/Variables/1.0/">
	<!ENTITY ns_imrep "http://ns.adobe.com/ImageReplacement/1.0/">
	<!ENTITY ns_sfw "http://ns.adobe.com/SaveForWeb/1.0/">
	<!ENTITY ns_custom "http://ns.adobe.com/GenericCustomNamespace/1.0/">
	<!ENTITY ns_adobe_xpath "http://ns.adobe.com/XPath/1.0/">
]>
<svg version="1.1" id="a" xmlns:x="&ns_extend;" xmlns:i="&ns_ai;" xmlns:graph="&ns_graphs;"
	 xmlns="http://www.w3.org/2000/svg" xmlns:xlink="http://www.w3.org/1999/xlink" x="0px" y="0px" viewBox="0 0 300 300"
	 style="enable-background:new 0 0 300 300;" xml:space="preserve">
<style type="text/css">
	.st0{fill:#223A73;}
</style>
<metadata>
	<sfw  xmlns="&ns_sfw;">
		<slices></slices>
		<sliceSourceBounds  bottomLeftOrigin="true" height="143.4" width="120.7" x="89.3" y="77.5"></sliceSourceBounds>
	</sfw>
</metadata>
<path class="st0" d="M208.5,212.1l-35.1-41.7c-0.7-1.3-9.3-9.9-9.3-18.5c0-9.3,7.9-18.5,9.3-19.2l35.1-42.3c2-2.7,2-5.9,0-8.6l0,0
	c-2.6-3.3-7.3-3.3-9.9,0l-49,50.3l-48.3-50.9c-2.7-2.7-7.3-2.7-9.9,0l0,0c-2,2.7-2,5.9,0,8.6l34.4,42.3c0.7,1.3,9.3,9.9,9.3,18.5
	c0,9.3-7.9,18.5-9.3,19.2l-35.1,41.7c-2,2.6-2,5.9,0,8.6l0,0c2.7,3.3,7.3,3.3,9.9,0l48.3-50.9l48.3,50.9c2.6,2.6,7.3,2.6,9.9,0l0,0
	C210.5,218.1,210.5,214.1,208.5,212.1L208.5,212.1z"/>
</svg>
