<?xml version="1.0" encoding="utf-8"?>
<!-- Generator: Adobe Illustrator 24.2.0, SVG Export Plug-In . SVG Version: 6.00 Build 0)  -->
<!DOCTYPE svg PUBLIC "-//W3C//DTD SVG 1.1//EN" "http://www.w3.org/Graphics/SVG/1.1/DTD/svg11.dtd" [
	<!ENTITY ns_extend "http://ns.adobe.com/Extensibility/1.0/">
	<!ENTITY ns_ai "http://ns.adobe.com/AdobeIllustrator/10.0/">
	<!ENTITY ns_graphs "http://ns.adobe.com/Graphs/1.0/">
	<!ENTITY ns_vars "http://ns.adobe.com/Variables/1.0/">
	<!ENTITY ns_imrep "http://ns.adobe.com/ImageReplacement/1.0/">
	<!ENTITY ns_sfw "http://ns.adobe.com/SaveForWeb/1.0/">
	<!ENTITY ns_custom "http://ns.adobe.com/GenericCustomNamespace/1.0/">
	<!ENTITY ns_adobe_xpath "http://ns.adobe.com/XPath/1.0/">
]>
<svg version="1.1" id="a" xmlns:x="&ns_extend;" xmlns:i="&ns_ai;" xmlns:graph="&ns_graphs;"
	 xmlns="http://www.w3.org/2000/svg" xmlns:xlink="http://www.w3.org/1999/xlink" x="0px" y="0px" viewBox="0 0 300 300"
	 style="enable-background:new 0 0 300 300;" xml:space="preserve">
<style type="text/css">
	.st0{fill:#223A73;}
</style>
<metadata>
	<sfw  xmlns="&ns_sfw;">
		<slices></slices>
		<sliceSourceBounds  bottomLeftOrigin="true" height="127.8" width="149.4" x="75.3" y="83.1"></sliceSourceBounds>
	</sfw>
</metadata>
<path class="st0" d="M150.8,103l44.6,21.8c1.2,0.6,1.2,2.3,0,2.8l-44.6,21.9c-0.4,0.2-1,0.2-1.4,0l-44.6-21.9
	c-1.2-0.6-1.2-2.3,0-2.8l44.7-21.8C149.8,102.8,150.3,102.8,150.8,103L150.8,103z M152.2,89.7c-1.8-0.8-3.6-0.8-5.3,0
	c-10.8,5.1-51.6,24.3-68.7,32.8c-1.6,0.8-2.9,1.8-2.9,3.8c0,2,1.2,3,2.9,3.8c21.2,10.6,42.3,21.1,63.5,31.7c2.8,1.4,5.6,2.1,8.4,2.1
	s5.4-0.7,8.2-2c21.2-10.6,42.4-21.2,63.7-31.8c1.6-0.8,2.9-1.9,2.8-3.8c0-1.8-1.2-2.9-2.8-3.7C203.7,113.5,163,94.7,152.2,89.7z"/>
<path class="st0" d="M221.9,148.6c-3.2-1.6-7-3.5-11.3-5.5c-0.8-0.4-1.6-0.4-2.4-0.1c-3.2,1.4-11.3,4.8-14.2,6.2
	c-0.4,0.2-0.4,0.8,0,1l1.3,0.6c1.2,0.6,1.2,2.3,0,2.9l-44.6,21.9c-0.4,0.2-1,0.2-1.4,0l-44.6-21.9c-1.2-0.6-1.2-2.3,0-2.9l0,0
	c0.4-0.2,0.5-0.8,0-1.1c-3.9-2.1-10-5.4-12.5-6.8c-0.8-0.4-1.7-0.5-2.5-0.1c-4.4,2.1-8.4,4.1-11.5,5.6c-1.6,0.8-2.9,1.8-2.9,3.8
	c0,1.9,1.2,3,2.9,3.8c21.2,10.6,42.3,21.1,63.5,31.7c2.8,1.4,5.6,2.1,8.4,2.1s5.4-0.7,8.2-2c21.2-10.6,42.4-21.2,63.6-31.8
	c1.6-0.8,2.9-1.9,2.8-3.8C224.7,150.4,223.5,149.3,221.9,148.6L221.9,148.6z"/>
<path class="st0" d="M221.9,175.6c-3.2-1.6-7-3.5-11.3-5.5c-0.8-0.4-1.6-0.4-2.4-0.1c-3.2,1.4-11.3,4.8-14.2,6.2
	c-0.4,0.2-0.4,0.8,0,1l1.3,0.6c1.2,0.6,1.2,2.3,0,2.9l-44.6,21.9c-0.4,0.2-1,0.2-1.4,0l-44.6-21.9c-1.2-0.6-1.2-2.3,0-2.9l0,0
	c0.4-0.2,0.5-0.8,0-1.1c-3.9-2.1-10-5.4-12.5-6.8c-0.8-0.4-1.7-0.5-2.5-0.1c-4.4,2.1-8.4,4.1-11.5,5.6c-1.6,0.8-2.9,1.8-2.9,3.8
	c0,1.9,1.2,3,2.9,3.8c21.2,10.6,42.3,21.1,63.5,31.7c2.8,1.4,5.6,2.1,8.4,2.1s5.4-0.7,8.2-2c21.2-10.6,42.4-21.2,63.6-31.8
	c1.6-0.8,2.9-1.9,2.8-3.8C224.7,177.4,223.5,176.3,221.9,175.6L221.9,175.6z"/>
</svg>
