<?xml version="1.0" encoding="utf-8"?>
<!-- Generator: Adobe Illustrator 24.2.0, SVG Export Plug-In . SVG Version: 6.00 Build 0)  -->
<!DOCTYPE svg PUBLIC "-//W3C//DTD SVG 1.1//EN" "http://www.w3.org/Graphics/SVG/1.1/DTD/svg11.dtd" [
	<!ENTITY ns_extend "http://ns.adobe.com/Extensibility/1.0/">
	<!ENTITY ns_ai "http://ns.adobe.com/AdobeIllustrator/10.0/">
	<!ENTITY ns_graphs "http://ns.adobe.com/Graphs/1.0/">
	<!ENTITY ns_vars "http://ns.adobe.com/Variables/1.0/">
	<!ENTITY ns_imrep "http://ns.adobe.com/ImageReplacement/1.0/">
	<!ENTITY ns_sfw "http://ns.adobe.com/SaveForWeb/1.0/">
	<!ENTITY ns_custom "http://ns.adobe.com/GenericCustomNamespace/1.0/">
	<!ENTITY ns_adobe_xpath "http://ns.adobe.com/XPath/1.0/">
]>
<svg version="1.1" id="a" xmlns:x="&ns_extend;" xmlns:i="&ns_ai;" xmlns:graph="&ns_graphs;"
	 xmlns="http://www.w3.org/2000/svg" xmlns:xlink="http://www.w3.org/1999/xlink" x="0px" y="0px" viewBox="0 0 300 300"
	 style="enable-background:new 0 0 300 300;" xml:space="preserve">
<style type="text/css">
	.st0{fill:#223A73;}
</style>
<metadata>
	<sfw  xmlns="&ns_sfw;">
		<slices></slices>
		<sliceSourceBounds  bottomLeftOrigin="true" height="210.2" width="198" x="51" y="44.9"></sliceSourceBounds>
	</sfw>
</metadata>
<g>
	<circle class="st0" cx="72.9" cy="151.1" r="21.9"/>
	<circle class="st0" cx="227.1" cy="66.8" r="21.9"/>
	<circle class="st0" cx="227.1" cy="233.2" r="21.9"/>
	<path class="st0" d="M179.5,75.6c3.5-1.6,7.5,0.2,8.7,3.8l0,0.1c1,3-0.3,6.3-3.1,7.7l-73.2,38.4c-7.1,3.7-15.1-2.8-13-10.5l0,0
		c0.7-2.6,2.6-4.8,5.1-5.8C104,109.3,179.5,75.6,179.5,75.6z"/>
	<path class="st0" d="M179.5,225.4c3.5,1.6,7.5-0.2,8.7-3.8l0-0.1c1-3-0.3-6.3-3.1-7.7l-73.2-38.4c-7.1-3.7-15.1,2.8-13,10.5l0,0
		c0.7,2.6,2.6,4.8,5.1,5.9L179.5,225.4z"/>
</g>
</svg>
