<?xml version="1.0" encoding="utf-8"?>
<!-- Generator: Adobe Illustrator 24.2.0, SVG Export Plug-In . SVG Version: 6.00 Build 0)  -->
<!DOCTYPE svg PUBLIC "-//W3C//DTD SVG 1.1//EN" "http://www.w3.org/Graphics/SVG/1.1/DTD/svg11.dtd" [
	<!ENTITY ns_extend "http://ns.adobe.com/Extensibility/1.0/">
	<!ENTITY ns_ai "http://ns.adobe.com/AdobeIllustrator/10.0/">
	<!ENTITY ns_graphs "http://ns.adobe.com/Graphs/1.0/">
	<!ENTITY ns_vars "http://ns.adobe.com/Variables/1.0/">
	<!ENTITY ns_imrep "http://ns.adobe.com/ImageReplacement/1.0/">
	<!ENTITY ns_sfw "http://ns.adobe.com/SaveForWeb/1.0/">
	<!ENTITY ns_custom "http://ns.adobe.com/GenericCustomNamespace/1.0/">
	<!ENTITY ns_adobe_xpath "http://ns.adobe.com/XPath/1.0/">
]>
<svg version="1.1" id="a" xmlns:x="&ns_extend;" xmlns:i="&ns_ai;" xmlns:graph="&ns_graphs;"
	 xmlns="http://www.w3.org/2000/svg" xmlns:xlink="http://www.w3.org/1999/xlink" x="0px" y="0px" viewBox="0 0 300 300"
	 style="enable-background:new 0 0 300 300;" xml:space="preserve">
<style type="text/css">
	.st0{fill:#223A73;}
</style>
<metadata>
	<sfw  xmlns="&ns_sfw;">
		<slices></slices>
		<sliceSourceBounds  bottomLeftOrigin="true" height="171.1" width="158.6" x="70.7" y="64.5"></sliceSourceBounds>
	</sfw>
</metadata>
<path class="st0" d="M150.8,78.4l44.6,21.8c1.2,0.6,1.2,2.3,0,2.8L150.7,125c-0.4,0.2-1,0.2-1.4,0l-44.6-21.9
	c-1.2-0.6-1.2-2.3,0-2.8l44.7-21.8C149.8,78.2,150.3,78.2,150.8,78.4L150.8,78.4z M152.2,65.1c-1.8-0.8-3.6-0.8-5.3,0
	c-10.8,5.1-51.6,24.3-68.7,32.8c-1.6,0.8-2.9,1.8-2.9,3.8c0,1.9,1.2,3,2.9,3.8c21.2,10.6,42.3,21.1,63.5,31.7
	c2.8,1.4,5.6,2.1,8.4,2.1s5.4-0.7,8.2-2c21.2-10.6,42.4-21.2,63.6-31.8c1.6-0.8,2.9-1.9,2.8-3.8c0-1.8-1.2-2.9-2.8-3.7
	C203.7,88.9,163,70,152.2,65.1L152.2,65.1z"/>
<path class="st0" d="M84.6,125.6L84.6,125.6 M84.6,140.4l43.6,20.1c1.4,0.6,2.2,2,2.2,3.5l0,45.9c0,2.8-2.9,4.6-5.4,3.4l-38-17.8
	c-1.3-0.6-2.2-2-2.2-3.4L84.6,140.4 M74.2,120.9c-2.2,0-3.5,1.7-3.5,4.7c0,22.4,0,44.9,0,67.3c0,7.1,3.2,12.3,9.7,15.3
	c19.2,8.9,38.4,17.7,57.6,26.6c1.1,0.5,2.1,0.8,3,0.8c2.2,0,3.4-1.7,3.4-5c0-11.7,0-23.5,0-35.2s-0.1-23,0-34.5
	c0-5.5-2.3-9.3-7.2-11.6c-20.1-9.2-40.1-18.5-60.2-27.8C75.9,121.1,75,120.8,74.2,120.9L74.2,120.9L74.2,120.9z"/>
<path class="st0" d="M215.4,140.5c0,0,0,36.5,0,52.1c0,2-0.1,2.3-2.1,3.2l-40.9,18.9c-1.3,0.6-2.7-0.3-2.7-1.8v-50.1
	c0-0.8,0.4-1.4,1.1-1.8L215.4,140.5 M226,120.9c-0.9,0-1.9,0.3-3.1,0.8c-20,9.2-40,18.4-60,27.6c-4.8,2.2-7.2,5.8-7.2,11.1
	c0,11.6,0,23.2,0,34.7s0,23.9,0,35.8c0,2.1,0.6,3.8,2.7,4.2c0.2,0,0.5,0.1,0.7,0.1c1.1,0,2.2-0.4,3.2-0.8
	c18.9-8.7,37.9-17.4,56.8-26.2c6.8-3.1,10.2-8.3,10.2-15.9c-0.1-22.2,0-44.4,0-66.6C229.3,122.6,228.1,120.9,226,120.9L226,120.9
	L226,120.9z"/>
</svg>
