<?xml version="1.0" encoding="utf-8"?>
<!-- Generator: Adobe Illustrator 24.2.0, SVG Export Plug-In . SVG Version: 6.00 Build 0)  -->
<!DOCTYPE svg PUBLIC "-//W3C//DTD SVG 1.1//EN" "http://www.w3.org/Graphics/SVG/1.1/DTD/svg11.dtd" [
	<!ENTITY ns_extend "http://ns.adobe.com/Extensibility/1.0/">
	<!ENTITY ns_ai "http://ns.adobe.com/AdobeIllustrator/10.0/">
	<!ENTITY ns_graphs "http://ns.adobe.com/Graphs/1.0/">
	<!ENTITY ns_vars "http://ns.adobe.com/Variables/1.0/">
	<!ENTITY ns_imrep "http://ns.adobe.com/ImageReplacement/1.0/">
	<!ENTITY ns_sfw "http://ns.adobe.com/SaveForWeb/1.0/">
	<!ENTITY ns_custom "http://ns.adobe.com/GenericCustomNamespace/1.0/">
	<!ENTITY ns_adobe_xpath "http://ns.adobe.com/XPath/1.0/">
]>
<svg version="1.1" id="a" xmlns:x="&ns_extend;" xmlns:i="&ns_ai;" xmlns:graph="&ns_graphs;"
	 xmlns="http://www.w3.org/2000/svg" xmlns:xlink="http://www.w3.org/1999/xlink" x="0px" y="0px" viewBox="0 0 300 300"
	 style="enable-background:new 0 0 300 300;" xml:space="preserve">
<style type="text/css">
	.st0{fill:#223A73;}
</style>
<metadata>
	<sfw  xmlns="&ns_sfw;">
		<slices></slices>
		<sliceSourceBounds  bottomLeftOrigin="true" height="110.2" width="119.7" x="90.1" y="95"></sliceSourceBounds>
	</sfw>
</metadata>
<g>
	<path class="st0" d="M138.2,190.6L138.2,190.6c4.6-6.5,6.1-71.3,0-80.6l0,0c-1.5-1.8-4.2-1.8-5.8-0.1l-34.7,36.5
		c-1,1.1-1.6,2.5-1.5,3.9c0,1.4,0.5,2.9,1.5,3.9l34.7,36.5C134,192.5,136.7,192.4,138.2,190.6L138.2,190.6z"/>
	<path class="st0" d="M90.6,140.2L90.6,140.2 M90.6,135.7c0.4-0.9,1.2-1.5,2.3-1.5c8.2,0.2,16.4,0.3,24.6,0.5
		c2.6,0.1,3.9,1.5,3.9,4.3c0,8.4-0.1,16.8-0.2,25.2c0,0.5-0.1,0.9-0.2,1.3c-0.4,0.9-1.2,1.5-2.4,1.4c-4.3-0.1-8.6-0.2-12.9-0.2
		s-8.4-0.2-12.6-0.2c-2,0-3-1.1-3-3.2c0.1-8.8,0.1-17.6,0.2-26.4C90.4,136.4,90.5,136,90.6,135.7L90.6,135.7L90.6,135.7z"/>
	<g id="b">
		<g>
			<path class="st0" d="M209.8,149.3c0,10.1-1.3,18.4-3.9,26.5c-3.4,10.2-8.7,19.4-15.9,27.3c-1.6,1.7-3.6,2.3-5.8,1.7
				s-3.7-2.2-4.2-4.5c-0.4-1.9,0.1-3.6,1.4-5.1c6-6.6,10.4-14.1,13.3-22.5c1.7-5,2.8-10.2,3.2-15.5c0.4-4,0.4-8,0.1-12
				c-0.7-8.3-2.7-16.3-6.1-24c-2.7-6-6.1-11.6-10.2-16.7c-1.6-1.9-1.9-4.1-0.7-6.4c1.1-2.2,3.1-3.4,5.6-3.3c1.7,0.1,3.1,0.8,4.1,2.1
				c7.1,8.8,12.3,18.6,15.6,29.4C208.6,134.4,209.8,142.6,209.8,149.3L209.8,149.3z"/>
			<path class="st0" d="M189,150.2c0,11.5-2.7,21.6-8.2,30.9c-1.6,2.8-3.5,5.4-5.6,7.8c-2.1,2.3-5.7,2.6-8,0.5
				c-2.5-2.1-2.9-5.7-0.8-8.1c3.1-3.6,5.5-7.6,7.4-11.9c2-4.8,3.2-9.8,3.5-15c0.8-13.1-3-24.9-10.9-35.4c-1.7-2.2-1.7-4.9-0.5-6.8
				c2.1-3.5,7.1-3.8,9.5-0.6c5.8,7.6,9.9,16.1,12,25.4C188.5,141.8,189,146.2,189,150.2L189,150.2z"/>
			<path class="st0" d="M167.9,150.4c-0.1,8.8-2.3,16.2-7,22.9c-1.3,1.9-3.1,2.9-5.4,2.6c-2.4-0.2-4.1-1.6-5-3.8
				c-0.8-1.9-0.5-3.8,0.7-5.4c1.9-2.6,3.2-5.4,4-8.5c1.2-4.5,1.2-9.1,0.2-13.6c-0.9-4.1-2.6-7.9-5-11.4c-1.8-2.7-1.1-6.3,1.6-8.1
				c2.7-1.8,6.2-1.1,8.1,1.5c4.1,5.9,6.6,12.5,7.4,19.6C167.8,147.8,167.8,149.4,167.9,150.4L167.9,150.4z"/>
		</g>
	</g>
</g>
</svg>
