<?xml version="1.0" encoding="utf-8"?>
<!-- Generator: Adobe Illustrator 24.2.0, SVG Export Plug-In . SVG Version: 6.00 Build 0)  -->
<!DOCTYPE svg PUBLIC "-//W3C//DTD SVG 1.1//EN" "http://www.w3.org/Graphics/SVG/1.1/DTD/svg11.dtd" [
	<!ENTITY ns_extend "http://ns.adobe.com/Extensibility/1.0/">
	<!ENTITY ns_ai "http://ns.adobe.com/AdobeIllustrator/10.0/">
	<!ENTITY ns_graphs "http://ns.adobe.com/Graphs/1.0/">
	<!ENTITY ns_vars "http://ns.adobe.com/Variables/1.0/">
	<!ENTITY ns_imrep "http://ns.adobe.com/ImageReplacement/1.0/">
	<!ENTITY ns_sfw "http://ns.adobe.com/SaveForWeb/1.0/">
	<!ENTITY ns_custom "http://ns.adobe.com/GenericCustomNamespace/1.0/">
	<!ENTITY ns_adobe_xpath "http://ns.adobe.com/XPath/1.0/">
]>
<svg version="1.1" id="a" xmlns:x="&ns_extend;" xmlns:i="&ns_ai;" xmlns:graph="&ns_graphs;"
	 xmlns="http://www.w3.org/2000/svg" xmlns:xlink="http://www.w3.org/1999/xlink" x="0px" y="0px" viewBox="0 0 300 300"
	 style="enable-background:new 0 0 300 300;" xml:space="preserve">
<style type="text/css">
	.st0{fill:#223A73;}
</style>
<metadata>
	<sfw  xmlns="&ns_sfw;">
		<slices></slices>
		<sliceSourceBounds  bottomLeftOrigin="true" height="119.8" width="100.9" x="99.2" y="89.3"></sliceSourceBounds>
	</sfw>
</metadata>
<path class="st0" d="M198.8,201.9l-29.3-34.8c-0.6-1.1-7.7-8.3-7.7-15.5c0-7.7,6.6-15.5,7.7-16l29.3-35.3c1.7-2.2,1.7-5,0-7.2l0,0
	c-2.2-2.8-6.1-2.8-8.3,0l-40.8,42l-40.3-42.5c-2.2-2.2-6.1-2.2-8.3,0l0,0c-1.7,2.2-1.7,5,0,7.2l28.7,35.3c0.6,1.1,7.7,8.3,7.7,15.5
	c0,7.7-6.6,15.5-7.7,16l-29.3,34.8c-1.7,2.2-1.7,5,0,7.2l0,0c2.2,2.8,6.1,2.8,8.3,0l40.3-42.5l40.3,42.5c2.2,2.2,6.1,2.2,8.3,0l0,0
	C200.4,206.9,200.4,203.6,198.8,201.9L198.8,201.9z"/>
</svg>
