<?xml version="1.0" encoding="utf-8"?>
<!-- Generator: Adobe Illustrator 24.2.0, SVG Export Plug-In . SVG Version: 6.00 Build 0)  -->
<!DOCTYPE svg PUBLIC "-//W3C//DTD SVG 1.1//EN" "http://www.w3.org/Graphics/SVG/1.1/DTD/svg11.dtd" [
	<!ENTITY ns_extend "http://ns.adobe.com/Extensibility/1.0/">
	<!ENTITY ns_ai "http://ns.adobe.com/AdobeIllustrator/10.0/">
	<!ENTITY ns_graphs "http://ns.adobe.com/Graphs/1.0/">
	<!ENTITY ns_vars "http://ns.adobe.com/Variables/1.0/">
	<!ENTITY ns_imrep "http://ns.adobe.com/ImageReplacement/1.0/">
	<!ENTITY ns_sfw "http://ns.adobe.com/SaveForWeb/1.0/">
	<!ENTITY ns_custom "http://ns.adobe.com/GenericCustomNamespace/1.0/">
	<!ENTITY ns_adobe_xpath "http://ns.adobe.com/XPath/1.0/">
]>
<svg version="1.1" id="a" xmlns:x="&ns_extend;" xmlns:i="&ns_ai;" xmlns:graph="&ns_graphs;"
	 xmlns="http://www.w3.org/2000/svg" xmlns:xlink="http://www.w3.org/1999/xlink" x="0px" y="0px" viewBox="0 0 300 300"
	 style="enable-background:new 0 0 300 300;" xml:space="preserve">
<style type="text/css">
	.st0{fill:#223A73;}
</style>
<metadata>
	<sfw  xmlns="&ns_sfw;">
		<slices></slices>
		<sliceSourceBounds  bottomLeftOrigin="true" height="112.2" width="80.9" x="109.6" y="93.9"></sliceSourceBounds>
	</sfw>
</metadata>
<g>
	<path class="st0" d="M109.6,195.2l0.1,6.3c0,2.7,4.5,4.8,10.1,4.6c18.4-0.5,40.3-1.7,60.8-2.4c5.7-0.2,10.2-0.8,9.9-4.5
		c-0.3-3.5-1.9-6.3-10.1-6.4c-22.7-0.2-50.6-0.3-65.7-0.2C111.8,192.7,109.6,193,109.6,195.2L109.6,195.2z"/>
	<path class="st0" d="M150,93.9c-22.3,0-40.4,18.7-40.4,41.7c0,24.6,37.6,55.1,37.6,55.1c0.8,0.8,1.9,1.3,3,1.2c1.1,0,2.2-0.4,3-1.2
		c0,0,37.1-33.7,37.1-55.1C190.4,112.6,172.3,93.9,150,93.9L150,93.9z M150,153.4c-9.5,0-17.2-7.9-17.2-17.7S140.5,118,150,118
		s17.2,7.9,17.2,17.7S159.5,153.4,150,153.4z"/>
</g>
</svg>
