<?xml version="1.0" encoding="utf-8"?>
<!-- Generator: Adobe Illustrator 24.2.0, SVG Export Plug-In . SVG Version: 6.00 Build 0)  -->
<!DOCTYPE svg PUBLIC "-//W3C//DTD SVG 1.1//EN" "http://www.w3.org/Graphics/SVG/1.1/DTD/svg11.dtd" [
	<!ENTITY ns_extend "http://ns.adobe.com/Extensibility/1.0/">
	<!ENTITY ns_ai "http://ns.adobe.com/AdobeIllustrator/10.0/">
	<!ENTITY ns_graphs "http://ns.adobe.com/Graphs/1.0/">
	<!ENTITY ns_vars "http://ns.adobe.com/Variables/1.0/">
	<!ENTITY ns_imrep "http://ns.adobe.com/ImageReplacement/1.0/">
	<!ENTITY ns_sfw "http://ns.adobe.com/SaveForWeb/1.0/">
	<!ENTITY ns_custom "http://ns.adobe.com/GenericCustomNamespace/1.0/">
	<!ENTITY ns_adobe_xpath "http://ns.adobe.com/XPath/1.0/">
]>
<svg version="1.1" id="a" xmlns:x="&ns_extend;" xmlns:i="&ns_ai;" xmlns:graph="&ns_graphs;"
	 xmlns="http://www.w3.org/2000/svg" xmlns:xlink="http://www.w3.org/1999/xlink" x="0px" y="0px" viewBox="0 0 300 300"
	 style="enable-background:new 0 0 300 300;" xml:space="preserve">
<style type="text/css">
	.st0{fill:#223A73;}
</style>
<metadata>
	<sfw  xmlns="&ns_sfw;">
		<slices></slices>
		<sliceSourceBounds  bottomLeftOrigin="true" height="171" width="172.5" x="63.8" y="64.5"></sliceSourceBounds>
	</sfw>
</metadata>
<g>
	<path class="st0" d="M169.5,158.3L169.5,158.3L169.5,158.3 M169.8,171.8l47.7-0.3c1.5,0,2.4,0.9,2.5,2.2l0.8,41.9
		c0.1,2.6-3.1,5.5-5.8,5.5h-41.6c-1.5,0-2.4-0.8-2.4-2.2L169.8,171.8 M158.1,158.4c-2.4,0.9-3.8,3.1-3.7,5.8
		c0.4,20.5,0.8,40.9,1.2,61.4c0.1,6.5,3.7,9.8,10.8,9.8c21-0.1,42-0.3,63-0.4c1.3,0,2.4-0.2,3.3-0.6c2.4-0.9,3.6-3,3.6-6
		c-0.2-10.7-0.4-21.4-0.6-32.1c-0.2-10.5-0.5-21-0.6-31.5c-0.1-5-2.6-7.5-8.1-7.4c-22,0.2-43.9,0.3-65.9,0.5
		C159.9,157.9,158.9,158.1,158.1,158.4L158.1,158.4L158.1,158.4z"/>
	<path class="st0" d="M157.1,131.3L157.1,131.3L157.1,131.3 M170.7,131l-0.3-47.7c0-1.5,0.9-2.4,2.2-2.5l41.9-0.8
		c2.6-0.1,5.5,3.1,5.5,5.8v41.6c0,1.5-0.8,2.4-2.2,2.4L170.7,131 M157.3,142.7c0.9,2.4,3.1,3.8,5.8,3.7c20.5-0.4,40.9-0.8,61.4-1.2
		c6.5-0.1,9.8-3.7,9.8-10.8c-0.1-21-0.3-42-0.4-63c0-1.3-0.2-2.3-0.6-3.3c-0.9-2.4-3-3.6-6-3.6c-10.7,0.2-21.4,0.4-32.1,0.6
		c-10.5,0.2-21,0.5-31.5,0.6c-5,0.1-7.5,2.7-7.4,8.1c0.2,22,0.3,43.9,0.5,65.9C156.7,140.8,156.9,141.8,157.3,142.7L157.3,142.7
		L157.3,142.7z"/>
	<path class="st0" d="M129.6,158.6L129.6,158.6L129.6,158.6 M130,172l-48.2-0.2c-1.5,0-2.4,0.9-2.4,2.2l1.1,41.6
		c0.1,2.5,3.3,5.4,6.1,5.4l42-0.1c1.5,0,2.4-0.9,2.4-2.2L130,172 M141.1,158.7c2.4,0.9,4,3,4,5.8c0.5,20.3,1,40.6,1.6,60.9
		c0.2,6.5-3.3,9.8-10.4,9.7c-21.2-0.1-42.4-0.2-63.6-0.3c-1.3,0-2.4-0.2-3.3-0.6c-2.4-0.9-3.8-3-3.9-5.9
		c-0.3-10.6-0.5-21.2-0.8-31.8c-0.3-10.4-0.5-20.8-0.8-31.2c-0.2-5,2.3-7.4,7.8-7.4c22.2,0.1,44.3,0.2,66.5,0.3
		C139.2,158.2,140.2,158.4,141.1,158.7L141.1,158.7L141.1,158.7z"/>
	<path class="st0" d="M144.6,131.2L144.6,131.2L144.6,131.2 M130.8,131.5l-0.3-46.7c0-1.4-0.9-2.3-2.3-2.3l-42.9,0.9
		c-2.6,0.1-5.6,3.2-5.5,5.9l0.5,40.7c0,1.4,0.9,2.3,2.3,2.3L130.8,131.5 M144.6,142.4c-0.9,2.4-3.1,3.8-5.9,3.9
		c-20.9,0.4-41.9,0.8-62.8,1.2c-6.7,0.1-10.1-3.3-10.2-10.2c-0.2-20.5-0.3-41.1-0.4-61.7c0-1.2,0.2-2.3,0.5-3.2
		c0.9-2.3,3-3.7,6.1-3.7c10.9-0.2,21.9-0.4,32.8-0.7c10.7-0.2,21.4-0.3,32.2-0.7c5.1-0.2,7.7,2.3,7.7,7.6c0.1,21.5,0.3,43,0.4,64.4
		C145.2,140.5,145,141.5,144.6,142.4L144.6,142.4L144.6,142.4z"/>
</g>
</svg>
