<?xml version="1.0" encoding="utf-8"?>
<!-- Generator: Adobe Illustrator 24.2.0, SVG Export Plug-In . SVG Version: 6.00 Build 0)  -->
<!DOCTYPE svg PUBLIC "-//W3C//DTD SVG 1.1//EN" "http://www.w3.org/Graphics/SVG/1.1/DTD/svg11.dtd" [
	<!ENTITY ns_extend "http://ns.adobe.com/Extensibility/1.0/">
	<!ENTITY ns_ai "http://ns.adobe.com/AdobeIllustrator/10.0/">
	<!ENTITY ns_graphs "http://ns.adobe.com/Graphs/1.0/">
	<!ENTITY ns_vars "http://ns.adobe.com/Variables/1.0/">
	<!ENTITY ns_imrep "http://ns.adobe.com/ImageReplacement/1.0/">
	<!ENTITY ns_sfw "http://ns.adobe.com/SaveForWeb/1.0/">
	<!ENTITY ns_custom "http://ns.adobe.com/GenericCustomNamespace/1.0/">
	<!ENTITY ns_adobe_xpath "http://ns.adobe.com/XPath/1.0/">
]>
<svg version="1.1" id="a" xmlns:x="&ns_extend;" xmlns:i="&ns_ai;" xmlns:graph="&ns_graphs;"
	 xmlns="http://www.w3.org/2000/svg" xmlns:xlink="http://www.w3.org/1999/xlink" x="0px" y="0px" viewBox="0 0 300 300"
	 style="enable-background:new 0 0 300 300;" xml:space="preserve">
<style type="text/css">
	.st0{fill:#223A73;}
</style>
<metadata>
	<sfw  xmlns="&ns_sfw;">
		<slices></slices>
		<sliceSourceBounds  bottomLeftOrigin="true" height="93.9" width="148.9" x="75.6" y="103"></sliceSourceBounds>
	</sfw>
</metadata>
<g>
	<path class="st0" d="M137,126.7L137,126.7c-3.1,3.7-4.2,41.2,0,46.6l0,0c1,1,2.9,1.1,4,0.1l23.7-21.1c0.7-0.6,1.1-1.4,1-2.3
		c0-0.8-0.4-1.7-1-2.3L141,126.6C139.9,125.6,138.1,125.7,137,126.7L137,126.7z"/>
	<path class="st0" d="M224.5,117.2c0.1,19.7-2.1,43.3-1,65.3c0.4,7.7-6.8,14.3-17,14.4c-33.8,0.2-74.2-0.1-111.9,0
		c-5.3,0-10-0.1-13.3-0.6c0,0-6.2-1.2-5.5-10.6c1.4-19.7,0.2-43.3-0.2-65.3c-0.2-10.4,6.9-15.9,17.1-16.1
		c33.8-0.6,74.2-0.7,111.9-1.2C215,102.9,224.4,108.3,224.5,117.2L224.5,117.2z M86,117.7c0.1,0.7,0.2,1.5,0.2,2.4
		c1.1,22.4,2.2,49.6,2.8,66.4c1.7-0.1,3.5-0.2,5.6-0.3c40.4-1.1,89.7-2.1,118.2-2.6c0-0.3,0-0.6-0.1-1c-0.7-23.8-1.3-52.8-1.6-69.3
		c-1.8,0.2-3.9,0.4-6.4,0.4C164.1,115.2,114.3,116.9,86,117.7L86,117.7z"/>
</g>
</svg>
