<?xml version="1.0" encoding="utf-8"?>
<!-- Generator: Adobe Illustrator 24.2.0, SVG Export Plug-In . SVG Version: 6.00 Build 0)  -->
<!DOCTYPE svg PUBLIC "-//W3C//DTD SVG 1.1//EN" "http://www.w3.org/Graphics/SVG/1.1/DTD/svg11.dtd" [
	<!ENTITY ns_extend "http://ns.adobe.com/Extensibility/1.0/">
	<!ENTITY ns_ai "http://ns.adobe.com/AdobeIllustrator/10.0/">
	<!ENTITY ns_graphs "http://ns.adobe.com/Graphs/1.0/">
	<!ENTITY ns_vars "http://ns.adobe.com/Variables/1.0/">
	<!ENTITY ns_imrep "http://ns.adobe.com/ImageReplacement/1.0/">
	<!ENTITY ns_sfw "http://ns.adobe.com/SaveForWeb/1.0/">
	<!ENTITY ns_custom "http://ns.adobe.com/GenericCustomNamespace/1.0/">
	<!ENTITY ns_adobe_xpath "http://ns.adobe.com/XPath/1.0/">
]>
<svg version="1.1" id="a" xmlns:x="&ns_extend;" xmlns:i="&ns_ai;" xmlns:graph="&ns_graphs;"
	 xmlns="http://www.w3.org/2000/svg" xmlns:xlink="http://www.w3.org/1999/xlink" x="0px" y="0px" viewBox="0 0 300 300"
	 style="enable-background:new 0 0 300 300;" xml:space="preserve">
<style type="text/css">
	.st0{fill:#223A73;}
</style>
<metadata>
	<sfw  xmlns="&ns_sfw;">
		<slices></slices>
		<sliceSourceBounds  bottomLeftOrigin="true" height="88.1" width="123" x="88.5" y="105.9"></sliceSourceBounds>
	</sfw>
</metadata>
<g>
	<g>
		<path class="st0" d="M117,154.8c-2.1,0-4.2-0.1-6.3-0.1c-0.9,0-1.7-0.7-1.7-1.5c0-2.2-0.1-4.4-0.1-6.6c0-0.9,0.8-1.6,1.8-1.6
			c2.1,0.1,4.3,0.1,6.4,0.2c1,0,1.7,0.7,1.7,1.6c0,2.1,0,4.3-0.1,6.5C118.8,154.1,118,154.8,117,154.8L117,154.8z"/>
		<path class="st0" d="M111.3,163.2c1.8,0.1,3.6,0.1,5.4,0.2c1.1,0,2,0.8,2,1.8c0,2.1,0,4.1-0.1,6c0,1-0.9,1.8-2.1,1.8
			c-1.8,0-3.5,0-5.2-0.1c-1.1,0-2-0.8-2-1.8c0-2-0.1-4-0.1-6.1C109.2,164,110.1,163.1,111.3,163.2L111.3,163.2z"/>
		<path class="st0" d="M117.1,136.7c-2.2,0-4.4-0.1-6.6-0.1c-1,0-1.8-0.7-1.8-1.6c0-2.2-0.1-4.4-0.1-6.5c0-0.9,0.8-1.7,1.9-1.6
			c2.2,0.1,4.5,0.1,6.8,0.2c1,0,1.8,0.7,1.8,1.6c0,2,0,4.2-0.1,6.4C118.9,136,118.1,136.7,117.1,136.7z"/>
		<path class="st0" d="M114.3,194c-2.8-0.2-4.6-0.9-4.7-8.1c0-0.9,0-1.9-0.1-2.8s0.9-1.7,1.9-1.7c1.7,0.1,3.4,0.1,5.2,0.1
			c1,0,1.8,0.8,1.8,1.7c0,1.9-0.1,3.7-0.1,5.3C118.2,193.6,117.3,194.2,114.3,194L114.3,194z"/>
		<path class="st0" d="M119.1,115.8c0,0.3,0,0.6,0,0.9c0,1-1,1.9-2.2,1.8c-2.2,0-4.3-0.1-6.4-0.1c-1.2,0-2.1-0.8-2.1-1.9
			c0-2,0-3.8,0-5.3c0-2.5,0.9-4.5,2-4.5h5C117.5,106.8,119.1,110.8,119.1,115.8L119.1,115.8z"/>
	</g>
	<g>
		<path class="st0" d="M128.9,145.2c2.1,0,4.2,0.1,6.3,0.1c0.9,0,1.7,0.7,1.7,1.5c0,2.2,0.1,4.4,0.1,6.6c0,0.9-0.8,1.6-1.8,1.6
			c-2.1-0.1-4.3-0.1-6.4-0.2c-1,0-1.7-0.7-1.7-1.6c0-2.1,0-4.3,0.1-6.5C127.1,145.9,127.9,145.2,128.9,145.2L128.9,145.2z"/>
		<path class="st0" d="M134.6,136.9c-1.8-0.1-3.6-0.1-5.4-0.2c-1.1,0-2-0.8-2-1.8c0-2.1,0-4.1,0.1-6c0-1,0.9-1.8,2.1-1.8
			c1.8,0,3.5,0,5.2,0.1c1.1,0,2,0.8,2,1.8c0,2,0.1,4,0.1,6.1C136.7,136.1,135.8,136.9,134.6,136.9L134.6,136.9z"/>
		<path class="st0" d="M128.9,163.3c2.2,0,4.4,0.1,6.6,0.1c1,0,1.8,0.7,1.8,1.6c0,2.2,0.1,4.4,0.1,6.5c0,0.9-0.8,1.7-1.9,1.6
			c-2.2-0.1-4.5-0.1-6.8-0.2c-1,0-1.8-0.7-1.8-1.6c0-2,0-4.2,0.1-6.4C127,164.1,127.8,163.3,128.9,163.3L128.9,163.3z"/>
		<path class="st0" d="M131.6,106.1c2.8,0.2,4.6,0.9,4.7,8.2c0,0.9,0,1.8,0.1,2.8s-0.9,1.7-1.9,1.7c-1.7-0.1-3.4-0.1-5.2-0.2
			c-1,0-1.8-0.8-1.8-1.7c0-1.9,0.1-3.7,0.1-5.3C127.7,106.5,128.6,105.8,131.6,106.1L131.6,106.1z"/>
		<path class="st0" d="M126.8,184.2c0-0.3,0-0.6,0-0.9c0-1,1-1.9,2.2-1.9c2.2,0,4.3,0.1,6.4,0.1c1.1,0,2.1,0.9,2.1,1.9
			c0,2,0,3.8,0,5.3c0,2.5-0.9,4.5-2,4.5h-5C128.5,193.2,126.8,189.2,126.8,184.2L126.8,184.2z"/>
	</g>
	<g>
		<path class="st0" d="M153.9,154.8c-2.1,0-4.2-0.1-6.3-0.1c-0.9,0-1.7-0.7-1.7-1.5c0-2.2-0.1-4.4-0.1-6.6c0-0.9,0.8-1.6,1.8-1.6
			c2.1,0.1,4.3,0.1,6.4,0.2c1,0,1.7,0.7,1.7,1.6c0,2.1,0,4.3-0.1,6.5C155.7,154.1,154.9,154.8,153.9,154.8L153.9,154.8z"/>
		<path class="st0" d="M148.2,163.2c1.8,0.1,3.6,0.1,5.4,0.2c1.1,0,2,0.8,2,1.8c0,2.1,0,4.1-0.1,6c0,1-0.9,1.8-2.1,1.8
			c-1.8,0-3.5,0-5.2-0.1c-1.1,0-2-0.8-2-1.8c0-2-0.1-4-0.1-6.1C146.1,164,147.1,163.1,148.2,163.2L148.2,163.2z"/>
		<path class="st0" d="M154,136.7c-2.2,0-4.4-0.1-6.6-0.1c-1,0-1.8-0.7-1.8-1.6c0-2.2-0.1-4.4-0.1-6.5c0-0.9,0.8-1.7,1.9-1.6
			c2.2,0.1,4.5,0.1,6.8,0.2c1,0,1.8,0.7,1.8,1.6c0,2,0,4.2-0.1,6.4C155.9,136,155,136.7,154,136.7z"/>
		<path class="st0" d="M151.3,194c-2.8-0.2-4.6-0.9-4.7-8.1c0-0.9,0-1.9-0.1-2.8s0.9-1.7,1.9-1.7c1.7,0.1,3.4,0.1,5.2,0.1
			c1,0,1.8,0.8,1.8,1.7c0,1.9-0.1,3.7-0.1,5.3C155.2,193.6,154.2,194.2,151.3,194L151.3,194z"/>
		<path class="st0" d="M156.1,115.8c0,0.3,0,0.6,0,0.9c0,1-1,1.9-2.2,1.8c-2.2,0-4.3-0.1-6.4-0.1c-1.1,0-2.1-0.8-2.1-1.9
			c0-2,0-3.8,0-5.3c0-2.5,0.9-4.5,2-4.5h5C154.4,106.8,156.1,110.8,156.1,115.8L156.1,115.8z"/>
	</g>
	<g>
		<path class="st0" d="M165.9,145.2c2.1,0,4.2,0.1,6.3,0.1c0.9,0,1.7,0.7,1.7,1.5c0,2.2,0.1,4.4,0.1,6.6c0,0.9-0.8,1.6-1.8,1.6
			c-2.1-0.1-4.3-0.1-6.4-0.2c-1,0-1.7-0.7-1.7-1.6c0-2.1,0-4.3,0.1-6.5C164.1,145.9,164.9,145.2,165.9,145.2L165.9,145.2z"/>
		<path class="st0" d="M171.6,136.9c-1.8-0.1-3.6-0.1-5.4-0.2c-1.1,0-2-0.8-2-1.8c0-2.1,0-4.1,0.1-6c0-1,0.9-1.8,2.1-1.8
			c1.8,0,3.5,0,5.2,0.1c1.1,0,2,0.8,2,1.8c0,2,0.1,4,0.1,6.1C173.7,136.1,172.8,136.9,171.6,136.9L171.6,136.9z"/>
		<path class="st0" d="M165.8,163.3c2.2,0,4.4,0.1,6.6,0.1c1,0,1.8,0.7,1.8,1.6c0,2.2,0.1,4.4,0.1,6.5c0,0.9-0.8,1.7-1.9,1.6
			c-2.2-0.1-4.5-0.1-6.8-0.2c-1,0-1.8-0.7-1.8-1.6c0-2,0-4.2,0.1-6.4C164,164.1,164.8,163.3,165.8,163.3L165.8,163.3z"/>
		<path class="st0" d="M168.6,106.1c2.8,0.2,4.6,0.9,4.7,8.2c0,0.9,0,1.8,0.1,2.8s-0.9,1.7-1.9,1.7c-1.7-0.1-3.4-0.1-5.2-0.2
			c-1,0-1.8-0.8-1.8-1.7c0-1.9,0.1-3.7,0.1-5.3C164.6,106.5,165.6,105.8,168.6,106.1L168.6,106.1z"/>
		<path class="st0" d="M163.8,184.2c0-0.3,0-0.6,0-0.9c0-1,1-1.9,2.2-1.9c2.2,0,4.3,0.1,6.4,0.1c1.1,0,2.1,0.9,2.1,1.9
			c0,2,0,3.8,0,5.3c0,2.5-0.9,4.5-2,4.5h-5C165.4,193.2,163.7,189.2,163.8,184.2L163.8,184.2z"/>
	</g>
	<g>
		<path class="st0" d="M190.9,154.8c-2.1,0-4.2-0.1-6.3-0.1c-0.9,0-1.7-0.7-1.7-1.5c0-2.2-0.1-4.4-0.1-6.6c0-0.9,0.8-1.6,1.8-1.6
			c2.1,0.1,4.3,0.1,6.4,0.2c1,0,1.7,0.7,1.7,1.6c0,2.1,0,4.3-0.1,6.5C192.7,154.1,191.9,154.8,190.9,154.8L190.9,154.8z"/>
		<path class="st0" d="M185.2,163.2c1.8,0.1,3.6,0.1,5.4,0.2c1.1,0,2,0.8,2,1.8c0,2.1,0,4.1-0.1,6c0,1-0.9,1.8-2.1,1.8
			c-1.8,0-3.5,0-5.2-0.1c-1.1,0-2-0.8-2-1.8c0-2-0.1-4-0.1-6.1C183.1,164,184,163.1,185.2,163.2L185.2,163.2z"/>
		<path class="st0" d="M191,136.7c-2.2,0-4.4-0.1-6.6-0.1c-1,0-1.8-0.7-1.8-1.6c0-2.2-0.1-4.4-0.1-6.5c0-0.9,0.8-1.7,1.9-1.6
			c2.2,0.1,4.5,0.1,6.8,0.2c1,0,1.8,0.7,1.8,1.6c0,2,0,4.2-0.1,6.4C192.8,136,192,136.7,191,136.7z"/>
		<path class="st0" d="M188.2,194c-2.8-0.2-4.6-0.9-4.7-8.1c0-0.9,0-1.9-0.1-2.8s0.9-1.7,1.9-1.7c1.7,0.1,3.4,0.1,5.2,0.1
			c1,0,1.8,0.8,1.8,1.7c0,1.9-0.1,3.7-0.1,5.3C192.2,193.6,191.2,194.2,188.2,194L188.2,194z"/>
		<path class="st0" d="M193,115.8c0,0.3,0,0.6,0,0.9c0,1-1,1.9-2.2,1.8c-2.2,0-4.3-0.1-6.4-0.1c-1.1,0-2.1-0.8-2.1-1.9
			c0-2,0-3.8,0-5.3c0-2.5,0.9-4.5,2-4.5h5C191.4,106.8,193.1,110.8,193,115.8L193,115.8z"/>
	</g>
	<g>
		<path class="st0" d="M208.6,136.9c-1.8-0.1-3.6-0.1-5.4-0.2c-1.1,0-2-0.8-2-1.8c0-2.1,0-4.1,0.1-6c0-1,0.9-1.8,2.1-1.8
			c1.8,0,3.5,0,5.2,0.1c1.1,0,2,0.8,2,1.8c0,2,0.1,4,0.1,6.1C210.7,136.1,209.7,136.9,208.6,136.9L208.6,136.9z"/>
		<path class="st0" d="M205.5,106.1c2.8,0.2,4.6,0.9,4.7,8.2c0,0.9,0,1.8,0.1,2.8s-0.9,1.7-1.9,1.7c-1.7-0.1-3.4-0.1-5.2-0.2
			c-1,0-1.8-0.8-1.8-1.7c0-1.9,0.1-3.7,0.1-5.3C201.6,106.5,202.6,105.8,205.5,106.1L205.5,106.1z"/>
		<path class="st0" d="M200.8,146.9c0-0.3,0-0.6,0-0.9c0-1,1-1.9,2.2-1.9c2.2,0,4.3,0.1,6.4,0.1c1.1,0,2.1,0.9,2.1,1.9
			c0,2,0,3.8,0,5.3c0,2.5-0.9,4.5-2,4.5h-5C202.4,155.8,200.7,151.8,200.8,146.9L200.8,146.9z"/>
	</g>
	<path class="st0" d="M92.6,106l4.9,0.1c2.1,0,3.6,4.1,3.3,9.1c-0.8,16.5,0.6,52.5-0.5,71c-0.3,5.1-4.2,8.2-7.1,7.9
		c-2.7-0.2-4.8-1.7-4.7-9.1c0.4-20.4,1.5-60.8,2-74.4C90.6,108,91.5,106,92.6,106L92.6,106z"/>
</g>
</svg>
