<?xml version="1.0" encoding="utf-8"?>
<!-- Generator: Adobe Illustrator 24.2.0, SVG Export Plug-In . SVG Version: 6.00 Build 0)  -->
<!DOCTYPE svg PUBLIC "-//W3C//DTD SVG 1.1//EN" "http://www.w3.org/Graphics/SVG/1.1/DTD/svg11.dtd" [
	<!ENTITY ns_extend "http://ns.adobe.com/Extensibility/1.0/">
	<!ENTITY ns_ai "http://ns.adobe.com/AdobeIllustrator/10.0/">
	<!ENTITY ns_graphs "http://ns.adobe.com/Graphs/1.0/">
	<!ENTITY ns_vars "http://ns.adobe.com/Variables/1.0/">
	<!ENTITY ns_imrep "http://ns.adobe.com/ImageReplacement/1.0/">
	<!ENTITY ns_sfw "http://ns.adobe.com/SaveForWeb/1.0/">
	<!ENTITY ns_custom "http://ns.adobe.com/GenericCustomNamespace/1.0/">
	<!ENTITY ns_adobe_xpath "http://ns.adobe.com/XPath/1.0/">
]>
<svg version="1.1" id="a" xmlns:x="&ns_extend;" xmlns:i="&ns_ai;" xmlns:graph="&ns_graphs;"
	 xmlns="http://www.w3.org/2000/svg" xmlns:xlink="http://www.w3.org/1999/xlink" x="0px" y="0px" viewBox="0 0 300 300"
	 style="enable-background:new 0 0 300 300;" xml:space="preserve">
<style type="text/css">
	.st0{fill:#223A73;}
</style>
<metadata>
	<sfw  xmlns="&ns_sfw;">
		<slices></slices>
		<sliceSourceBounds  bottomLeftOrigin="true" height="105.5" width="150" x="77.8" y="94.3"></sliceSourceBounds>
	</sfw>
</metadata>
<g>
	<path class="st0" d="M128.1,148.3L128.1,148.3c-2.6,3.1-3.4,33.7,0,38.1l0,0c0.9,0.8,2.4,0.9,3.2,0.1l19.4-17.2
		c0.6-0.5,0.9-1.2,0.9-1.9s-0.3-1.4-0.9-1.9l-19.4-17.2C130.4,147.4,128.9,147.4,128.1,148.3L128.1,148.3z"/>
	<path class="st0" d="M199.5,140.6c0.1,16.1-1.7,35.4-0.8,53.3c0.3,6.3-5.5,11.7-13.9,11.7c-27.6,0.2-60.6-0.1-91.4,0
		c-4.3,0-8.1-0.1-10.9-0.5c0,0-5.1-1-4.5-8.7c1.2-16.1,0.2-35.4-0.2-53.3c-0.2-8.5,5.6-13,14-13.1c27.6-0.5,60.6-0.6,91.4-1
		C191.8,128.8,199.5,133.3,199.5,140.6L199.5,140.6z M86.4,140.9c0.1,0.6,0.1,1.2,0.2,1.9c0.9,18.3,1.8,40.5,2.3,54.3
		c1.3-0.1,2.9-0.2,4.6-0.2c33-0.9,73.3-1.7,96.5-2.1c0-0.3,0-0.5,0-0.8c-0.6-19.4-1.1-43.1-1.3-56.6c-1.5,0.2-3.2,0.3-5.2,0.4
		C150.2,138.9,109.5,140.3,86.4,140.9L86.4,140.9z"/>
	<path class="st0" d="M101.6,133.1c-0.1-1.5-0.1-3-0.2-4.4c0-0.7-0.1-1.3-0.2-1.9c23.1-0.7,63.8-2,97.1-3.2c2-0.1,3.7-0.2,5.2-0.4
		c0.2,13.5,0.7,37.2,1.3,56.6c0,0.3,0,0.5,0,0.8c-2.7,0.1-5.7,0.1-8.8,0.2c-0.1,3.6-0.2,7.2-0.3,10.8c1.3,0,2.6,0,3.9,0
		c8.3-0.1,14.2-5.4,13.9-11.7c-0.9-17.9,0.9-37.2,0.8-53.3c0-7.3-7.7-11.7-16.3-11.6c-30.8,0.4-63.8,0.5-91.4,1
		c-8.3,0.2-14.1,4.6-14,13.1c0,1.4,0.1,2.7,0.1,4.1C95.7,133,98.7,133.1,101.6,133.1L101.6,133.1z"/>
	<path class="st0" d="M115.1,118.3c-0.1-1.5-0.1-3-0.2-4.4c0-0.7-0.1-1.3-0.2-1.9c23.1-0.7,63.8-2,97.1-3.2c2-0.1,3.7-0.2,5.2-0.4
		c0.2,13.5,0.7,37.2,1.3,56.6c0,0.3,0,0.5,0,0.8c-2.7,0.1-5.7,0.1-8.8,0.2c-0.1,3.6-0.2,7.2-0.3,10.8c1.3,0,2.6,0,3.9,0
		c8.3-0.1,14.2-5.4,13.9-11.7c-0.9-17.9,0.9-37.2,0.8-53.3c0-7.3-7.7-11.7-16.3-11.6c-30.8,0.4-63.8,0.5-91.4,1
		c-8.3,0.2-14.1,4.6-14,13.1c0,1.3,0.1,2.7,0.1,4.1C109.2,118.2,112.2,118.3,115.1,118.3L115.1,118.3z"/>
</g>
</svg>
