<?xml version="1.0" encoding="utf-8"?>
<!-- Generator: Adobe Illustrator 24.2.0, SVG Export Plug-In . SVG Version: 6.00 Build 0)  -->
<!DOCTYPE svg PUBLIC "-//W3C//DTD SVG 1.1//EN" "http://www.w3.org/Graphics/SVG/1.1/DTD/svg11.dtd" [
	<!ENTITY ns_extend "http://ns.adobe.com/Extensibility/1.0/">
	<!ENTITY ns_ai "http://ns.adobe.com/AdobeIllustrator/10.0/">
	<!ENTITY ns_graphs "http://ns.adobe.com/Graphs/1.0/">
	<!ENTITY ns_vars "http://ns.adobe.com/Variables/1.0/">
	<!ENTITY ns_imrep "http://ns.adobe.com/ImageReplacement/1.0/">
	<!ENTITY ns_sfw "http://ns.adobe.com/SaveForWeb/1.0/">
	<!ENTITY ns_custom "http://ns.adobe.com/GenericCustomNamespace/1.0/">
	<!ENTITY ns_adobe_xpath "http://ns.adobe.com/XPath/1.0/">
]>
<svg version="1.1" id="a" xmlns:x="&ns_extend;" xmlns:i="&ns_ai;" xmlns:graph="&ns_graphs;"
	 xmlns="http://www.w3.org/2000/svg" xmlns:xlink="http://www.w3.org/1999/xlink" x="0px" y="0px" viewBox="0 0 300 300"
	 style="enable-background:new 0 0 300 300;" xml:space="preserve">
<style type="text/css">
	.st0{fill:#223A73;}
</style>
<metadata>
	<sfw  xmlns="&ns_sfw;">
		<slices></slices>
		<sliceSourceBounds  bottomLeftOrigin="true" height="149" width="214.2" x="42.9" y="75.5"></sliceSourceBounds>
	</sfw>
</metadata>
<path class="st0" d="M61.3,98.1l-7.8-0.7c-3.3-0.3-6.3,5.2-6.6,12.2c-1,23.4-2.9,72.9-3.8,99.1c-0.2,7.3,0.1,13.1,4.7,13.2
	c4.4,0.1,8-1.6,8.8-12c2.3-28.9,6.2-85.8,7.5-105.1C64.2,101.3,63,98.3,61.3,98.1z"/>
<path class="st0" d="M207.8,94.6l-7.6,2.6c-3.2,1.1-4.5,7.7-2.8,14.7c5.6,23.2,17.7,72.2,24.2,98c1.8,7.2,3.8,12.7,8.1,10.9
	c4.1-1.8,7.1-5,4.9-15.4c-6-29-18.2-86.1-22.5-105.4C211.5,96.4,209.5,94,207.8,94.6L207.8,94.6z"/>
<path class="st0" d="M253.8,80.2l-7.8,0.1c-3.4,0-5.9,6.6-5.8,14.6c0.6,26.6,2.2,82.9,3.2,112.6c0.3,8.3,1,14.8,5.6,14.4
	c4.4-0.4,7.9-2.8,8-14.6c0.2-32.9,0.1-97.8,0-119.7C256.9,83.5,255.5,80.2,253.8,80.2L253.8,80.2z"/>
<path class="st0" d="M91.2,88.1l-7.8,0.1c-3.4,0-5.9,6.2-5.8,13.8c0.6,25,2.2,77.9,3.1,105.8c0.3,7.8,1,13.9,5.6,13.5
	c4.4-0.4,7.9-2.6,8-13.7c0.3-30.9,0.2-91.9,0.1-112.6C94.3,91.2,92.9,88.1,91.2,88.1L91.2,88.1z"/>
<path class="st0" d="M156.2,91.3l-7.8,0.1c-3.4,0-5.9,6.2-5.8,13.8c0.6,25,2.2,77.9,3.1,105.8c0.3,7.8,1,13.9,5.6,13.5
	c4.4-0.4,7.9-2.6,8-13.7c0.3-30.9,0.2-91.9,0.1-112.6C159.3,94.3,157.9,91.3,156.2,91.3L156.2,91.3z"/>
<path class="st0" d="M123.6,75.5l-7.8,0.1c-3.4,0-5.9,6.8-5.7,15c0.7,27.4,2.3,85.3,3.2,115.9c0.3,8.5,1,15.2,5.6,14.8
	c4.4-0.4,7.9-2.8,7.9-15c0.2-33.9,0.1-100.6-0.1-123.2C126.8,78.9,125.3,75.5,123.6,75.5L123.6,75.5z"/>
<path class="st0" d="M180.7,87.1l-7.8,1.5c-3.3,0.7-5.1,7.3-4,14.9c3.7,25,11.6,77.9,15.9,105.8c1.2,7.8,2.7,13.8,7.2,12.6
	c4.3-1.2,7.5-4.1,6.2-15.3c-3.5-31.1-10.9-92.4-13.6-113.2C184.2,89.6,182.4,86.8,180.7,87.1L180.7,87.1z"/>
</svg>
