<?xml version="1.0" encoding="utf-8"?>
<!-- Generator: Adobe Illustrator 24.2.0, SVG Export Plug-In . SVG Version: 6.00 Build 0)  -->
<!DOCTYPE svg PUBLIC "-//W3C//DTD SVG 1.1//EN" "http://www.w3.org/Graphics/SVG/1.1/DTD/svg11.dtd" [
	<!ENTITY ns_extend "http://ns.adobe.com/Extensibility/1.0/">
	<!ENTITY ns_ai "http://ns.adobe.com/AdobeIllustrator/10.0/">
	<!ENTITY ns_graphs "http://ns.adobe.com/Graphs/1.0/">
	<!ENTITY ns_vars "http://ns.adobe.com/Variables/1.0/">
	<!ENTITY ns_imrep "http://ns.adobe.com/ImageReplacement/1.0/">
	<!ENTITY ns_sfw "http://ns.adobe.com/SaveForWeb/1.0/">
	<!ENTITY ns_custom "http://ns.adobe.com/GenericCustomNamespace/1.0/">
	<!ENTITY ns_adobe_xpath "http://ns.adobe.com/XPath/1.0/">
]>
<svg version="1.1" id="a" xmlns:x="&ns_extend;" xmlns:i="&ns_ai;" xmlns:graph="&ns_graphs;"
	 xmlns="http://www.w3.org/2000/svg" xmlns:xlink="http://www.w3.org/1999/xlink" x="0px" y="0px" viewBox="0 0 300 300"
	 style="enable-background:new 0 0 300 300;" xml:space="preserve">
<style type="text/css">
	.st0{fill:#223A73;}
</style>
<metadata>
	<sfw  xmlns="&ns_sfw;">
		<slices></slices>
		<sliceSourceBounds  bottomLeftOrigin="true" height="216.6" width="146" x="77" y="41.7"></sliceSourceBounds>
	</sfw>
</metadata>
<g>
	<path class="st0" d="M195.5,172.9L195.5,172.9c-1.7-1.5-4.1-1.5-5.8-0.1l-27.2,22.8c-1.3,1.1-3.3,0.1-3.1-1.6l5.2-53.8
		c0.8-8.4-5.3-16.1-13.7-16.5c-8.9-0.4-16.1,7.1-15.2,15.9l5.3,54.3c0.2,1.7-1.8,2.8-3.1,1.6l-27.2-22.7c-1.7-1.4-4.1-1.4-5.7,0.1
		l-0.1,0c-2,1.7-2,4.7-0.1,6.5l41,38.9c1.2,1.1,2.8,1.7,4.4,1.7c1.6,0,3.2-0.6,4.4-1.7l41-38.9C197.5,177.6,197.4,174.6,195.5,172.9
		L195.5,172.9z"/>
	<path class="st0" d="M109.1,253.7c-3.7-0.2-6.5-3.6-6-7.2v-0.1c0.4-3.1,3-5.3,6.1-5.3l80.8-0.5c7.8-0.1,12.1,9.2,6.9,14.9l0,0
		c-1.8,1.9-4.3,3-6.9,2.8L109.1,253.7L109.1,253.7z"/>
</g>
<g id="b">
	<g>
		<path class="st0" d="M149,41.7c13.4,0,24.5,1.7,35.2,5.2c13.6,4.5,25.7,11.5,36.2,21.1c2.3,2.1,3.1,4.8,2.2,7.8
			c-0.8,3-2.9,4.9-5.9,5.6c-2.5,0.6-4.8-0.1-6.7-1.8c-8.7-8-18.7-13.8-29.9-17.6c-6.7-2.3-13.5-3.7-20.5-4.3
			c-5.3-0.5-10.6-0.5-15.9-0.1c-11.1,0.9-21.7,3.6-31.8,8.1c-8,3.6-15.3,8.1-22.2,13.6c-2.6,2.1-5.5,2.5-8.4,1c-3-1.5-4.5-4-4.3-7.4
			c0.1-2.2,1.1-4.1,2.8-5.5c11.7-9.4,24.7-16.3,39-20.7C129.4,43.3,140.2,41.7,149,41.7L149,41.7z"/>
		<path class="st0" d="M150.2,69.2c15.2,0.1,28.6,3.6,41,10.9c3.6,2.2,7.1,4.6,10.3,7.5c3.1,2.8,3.4,7.5,0.7,10.6
			c-2.8,3.3-7.6,3.8-10.8,1.1c-4.8-4.1-10-7.3-15.8-9.8c-6.4-2.7-13-4.2-19.9-4.6c-17.4-1-33,4-46.9,14.4c-3,2.2-6.5,2.2-9.1,0.7
			c-4.6-2.8-5-9.4-0.7-12.6c10.1-7.8,21.3-13.1,33.7-15.9C139.2,69.9,145,69.3,150.2,69.2L150.2,69.2z"/>
		<path class="st0" d="M150.6,97.3c11.7,0.1,21.5,3.1,30.4,9.3c2.5,1.8,3.8,4.2,3.5,7.2c-0.3,3.2-2.1,5.4-5.1,6.6
			c-2.5,1-5,0.6-7.2-1c-3.4-2.5-7.2-4.3-11.3-5.4c-6-1.6-12.1-1.6-18.1-0.3c-5.5,1.2-10.5,3.5-15.2,6.6c-3.6,2.4-8.3,1.4-10.8-2.2
			c-2.4-3.5-1.5-8.3,2-10.7c7.9-5.4,16.5-8.7,26-9.9C147,97.4,149.2,97.3,150.6,97.3L150.6,97.3z"/>
	</g>
</g>
</svg>
