<?xml version="1.0" encoding="utf-8"?>
<!-- Generator: Adobe Illustrator 24.2.0, SVG Export Plug-In . SVG Version: 6.00 Build 0)  -->
<!DOCTYPE svg PUBLIC "-//W3C//DTD SVG 1.1//EN" "http://www.w3.org/Graphics/SVG/1.1/DTD/svg11.dtd" [
	<!ENTITY ns_extend "http://ns.adobe.com/Extensibility/1.0/">
	<!ENTITY ns_ai "http://ns.adobe.com/AdobeIllustrator/10.0/">
	<!ENTITY ns_graphs "http://ns.adobe.com/Graphs/1.0/">
	<!ENTITY ns_vars "http://ns.adobe.com/Variables/1.0/">
	<!ENTITY ns_imrep "http://ns.adobe.com/ImageReplacement/1.0/">
	<!ENTITY ns_sfw "http://ns.adobe.com/SaveForWeb/1.0/">
	<!ENTITY ns_custom "http://ns.adobe.com/GenericCustomNamespace/1.0/">
	<!ENTITY ns_adobe_xpath "http://ns.adobe.com/XPath/1.0/">
]>
<svg version="1.1" id="a" xmlns:x="&ns_extend;" xmlns:i="&ns_ai;" xmlns:graph="&ns_graphs;"
	 xmlns="http://www.w3.org/2000/svg" xmlns:xlink="http://www.w3.org/1999/xlink" x="0px" y="0px" viewBox="0 0 300 300"
	 style="enable-background:new 0 0 300 300;" xml:space="preserve">
<style type="text/css">
	.st0{fill:#223A73;}
</style>
<metadata>
	<sfw  xmlns="&ns_sfw;">
		<slices></slices>
		<sliceSourceBounds  bottomLeftOrigin="true" height="204.3" width="125.1" x="87.5" y="47.8"></sliceSourceBounds>
	</sfw>
</metadata>
<path class="st0" d="M207.7,147.3L207.7,147.3c-2.2-1.9-5.3-1.9-7.5-0.1l-35.4,29.6c-0.8,0.7-8.2,7.6-15.7,7.6s-15.5-6.9-16.4-7.6
	l-35.4-29.6c-2.2-1.8-5.3-1.8-7.4,0.1l-0.1,0.1c-2.6,2.2-2.6,6.2-0.2,8.5l53.3,50.7c1.6,1.5,3.6,2.3,5.8,2.2c2.1,0,4.2-0.7,5.8-2.2
	l53.3-50.7C210.3,153.5,210.2,149.6,207.7,147.3L207.7,147.3z"/>
<path class="st0" d="M207.7,112L207.7,112c-2.2-1.9-5.3-1.9-7.5-0.1l-35.4,29.6c-1.7,1.4-4.3,0.1-4.1-2.1l6.8-70
	c1.1-10.9-6.9-20.9-17.8-21.4c-11.6-0.6-20.9,9.3-19.8,20.8l6.9,70.7c0.2,2.2-2.4,3.6-4.1,2.1l-35.4-29.6c-2.2-1.8-5.3-1.8-7.4,0.1
	l-0.1,0.1c-2.6,2.2-2.6,6.2-0.2,8.5l53.3,50.7c1.6,1.5,3.6,2.3,5.8,2.2c2.1,0,4.2-0.7,5.8-2.2l53.3-50.7
	C210.3,118.2,210.2,114.2,207.7,112L207.7,112z"/>
<path class="st0" d="M95.3,246.1c-4.8-0.3-8.4-4.6-7.8-9.4l0-0.1c0.5-4,3.8-6.9,7.9-6.9l105.2-0.6c10.1-0.1,15.7,12,9,19.4l0,0
	c-2.3,2.5-5.6,3.9-9.1,3.7L95.3,246.1L95.3,246.1z"/>
</svg>
