<?xml version="1.0" encoding="utf-8"?>
<!-- Generator: Adobe Illustrator 24.2.0, SVG Export Plug-In . SVG Version: 6.00 Build 0)  -->
<!DOCTYPE svg PUBLIC "-//W3C//DTD SVG 1.1//EN" "http://www.w3.org/Graphics/SVG/1.1/DTD/svg11.dtd" [
	<!ENTITY ns_extend "http://ns.adobe.com/Extensibility/1.0/">
	<!ENTITY ns_ai "http://ns.adobe.com/AdobeIllustrator/10.0/">
	<!ENTITY ns_graphs "http://ns.adobe.com/Graphs/1.0/">
	<!ENTITY ns_vars "http://ns.adobe.com/Variables/1.0/">
	<!ENTITY ns_imrep "http://ns.adobe.com/ImageReplacement/1.0/">
	<!ENTITY ns_sfw "http://ns.adobe.com/SaveForWeb/1.0/">
	<!ENTITY ns_custom "http://ns.adobe.com/GenericCustomNamespace/1.0/">
	<!ENTITY ns_adobe_xpath "http://ns.adobe.com/XPath/1.0/">
]>
<svg version="1.1" id="a" xmlns:x="&ns_extend;" xmlns:i="&ns_ai;" xmlns:graph="&ns_graphs;"
	 xmlns="http://www.w3.org/2000/svg" xmlns:xlink="http://www.w3.org/1999/xlink" x="0px" y="0px" viewBox="0 0 300 300"
	 style="enable-background:new 0 0 300 300;" xml:space="preserve">
<style type="text/css">
	.st0{fill:#223A73;}
</style>
<metadata>
	<sfw  xmlns="&ns_sfw;">
		<slices></slices>
		<sliceSourceBounds  bottomLeftOrigin="true" height="209.8" width="160.6" x="69.7" y="45.1"></sliceSourceBounds>
	</sfw>
</metadata>
<g>
	<path class="st0" d="M189.1,134.1L189.1,134.1c-1.5-1.3-3.6-1.3-5.1-0.1l-24,20.1c-1.2,1-2.9,0.1-2.8-1.5l4.6-47.5
		c0.7-7.4-4.7-14.2-12.1-14.5c-7.9-0.4-14.2,6.3-13.4,14.1l4.7,47.9c0.1,1.5-1.6,2.4-2.8,1.5l-24-20.1c-1.5-1.2-3.6-1.2-5,0.1l0,0
		c-1.7,1.5-1.8,4.2-0.1,5.8l36.2,34.4c1.1,1,2.5,1.5,3.9,1.5c1.4,0,2.8-0.5,3.9-1.5l36.2-34.4C190.9,138.2,190.8,135.6,189.1,134.1
		L189.1,134.1z"/>
	<path class="st0" d="M112.9,205.4c-3.3-0.2-5.7-3.1-5.3-6.4v-0.1c0.4-2.7,2.6-4.7,5.3-4.7l71.3-0.4c6.9,0,10.7,8.1,6.1,13.2l0,0
		c-1.6,1.7-3.8,2.6-6.1,2.5L112.9,205.4L112.9,205.4z"/>
</g>
<path class="st0" d="M194,50.1c-2.9-2.2-6.3-3.4-9.9-3.4L77.8,45.1v0c-3.3,0.4-5.9,4-5.9,8.5l-2.2,189.1c0,3.6,1.2,7,3.3,9.3
	c1.7,1.9,3.6,2.7,5.5,2.8v0h143.9c0,0,0.1,0,0.1,0h0.1c0.5,0.1,1,0.1,1.5,0h0.1v0c3.1-0.6,5.5-4.1,5.5-8.4l0.7-160.3
	c0-5.3-2.4-10.2-6.6-13.4L194,50.1L194,50.1z M87.8,237.6L85,56.9h92.1l-0.3,27.5c0,3.6,1.2,7,3.3,9.3c1.6,1.8,3.4,2.7,5.3,2.8v0.1
	h28.9l2.2,141L87.8,237.6L87.8,237.6z M214,81h-24.3c0-0.4-0.4-24.2-0.4-24.2L214,81z"/>
</svg>
