<?xml version="1.0" encoding="utf-8"?>
<!-- Generator: Adobe Illustrator 24.2.0, SVG Export Plug-In . SVG Version: 6.00 Build 0)  -->
<!DOCTYPE svg PUBLIC "-//W3C//DTD SVG 1.1//EN" "http://www.w3.org/Graphics/SVG/1.1/DTD/svg11.dtd" [
	<!ENTITY ns_extend "http://ns.adobe.com/Extensibility/1.0/">
	<!ENTITY ns_ai "http://ns.adobe.com/AdobeIllustrator/10.0/">
	<!ENTITY ns_graphs "http://ns.adobe.com/Graphs/1.0/">
	<!ENTITY ns_vars "http://ns.adobe.com/Variables/1.0/">
	<!ENTITY ns_imrep "http://ns.adobe.com/ImageReplacement/1.0/">
	<!ENTITY ns_sfw "http://ns.adobe.com/SaveForWeb/1.0/">
	<!ENTITY ns_custom "http://ns.adobe.com/GenericCustomNamespace/1.0/">
	<!ENTITY ns_adobe_xpath "http://ns.adobe.com/XPath/1.0/">
]>
<svg version="1.1" id="a" xmlns:x="&ns_extend;" xmlns:i="&ns_ai;" xmlns:graph="&ns_graphs;"
	 xmlns="http://www.w3.org/2000/svg" xmlns:xlink="http://www.w3.org/1999/xlink" x="0px" y="0px" viewBox="0 0 300 300"
	 style="enable-background:new 0 0 300 300;" xml:space="preserve">
<style type="text/css">
	.st0{fill:#223A73;}
</style>
<metadata>
	<sfw  xmlns="&ns_sfw;">
		<slices></slices>
		<sliceSourceBounds  bottomLeftOrigin="true" height="211.3" width="146.2" x="76.9" y="44.3"></sliceSourceBounds>
	</sfw>
</metadata>
<path class="st0" d="M138,196.5L110.7,175c-1.7-1.3-4.1-1.3-5.7,0.1l-0.1,0c-2,1.6-2,4.5-0.1,6.1l41.1,36.7c1.2,1.1,2.8,1.6,4.4,1.6
	c1.6,0,3.2-0.5,4.4-1.6l41.1-36.7c1.9-1.7,1.8-4.5-0.1-6.2l-0.1,0c-1.6-1.3-4.1-1.4-5.7-0.1l-27.3,21.4c-1.3,1-3.3,0.1-3.1-1.6
	l5.2-50.7c0.8-7.9-5.4-15.1-13.8-15.5c-9-0.4-16.1,6.7-15.2,15l5.3,51.2C141.3,196.5,139.3,197.5,138,196.5L138,196.5z"/>
<path class="st0" d="M185.2,238.9l-81.1,0.5c-3.1,0-5.7,2.1-6.1,5v0.1c-0.5,3.5,2.3,6.6,6,6.8l81.1,4.3c2.6,0.1,5.2-0.8,7-2.6l0,0
	C197.4,247.6,193,238.9,185.2,238.9L185.2,238.9z"/>
<path class="st0" d="M181.7,44.3c0.2,0,0.4,0,0.6,0c8.5,0.3,12.4,10.2,6.4,15.9l-62.5,59.3c-1.3,1.2-2.9,1.8-4.6,1.9
	c-1.5,0-3-0.4-4.2-1.3c0,0-0.1,0-0.1-0.1c-3.2-2.3-3.8-6.8-1.1-9.7l58.5-63C176.5,45.5,179,44.4,181.7,44.3"/>
<g>
	<path class="st0" d="M78.2,80.6C78.2,80.6,78.1,80.7,78.2,80.6L78.2,80.6z"/>
	<path class="st0" d="M78.2,80.6L78.2,80.6L78.2,80.6z"/>
	<path class="st0" d="M78.3,80.6L78.3,80.6L78.3,80.6z"/>
	<path class="st0" d="M78.3,80.6L78.3,80.6z"/>
	<path class="st0" d="M221.7,76.3C221.7,76.3,221.8,76.3,221.7,76.3L221.7,76.3z"/>
	<path class="st0" d="M216.6,61.9c-6.4-2.5-12.5-4.8-18.2-6.7c-0.4,3.5-2,6.9-4.8,9.5l-7,6.6c6.6,2.3,13.4,5.2,20.7,8.7
		c5.1,2.5,11.3,1.1,14.4-3.8C225.1,71,221.9,64,216.6,61.9L216.6,61.9z"/>
	<path class="st0" d="M221.7,76.3L221.7,76.3L221.7,76.3z"/>
	<path class="st0" d="M149.4,65l16.5-17.7c-27.8-3.5-51,3.6-84.6,22.3c-4.8,2.7-5.3,7.2-2.9,11c2.2,3.6,6.9,5.2,11.3,2.9
		C111.8,72,130.3,65.5,149.4,65L149.4,65z"/>
</g>
<g>
	<path class="st0" d="M95.8,102.5L95.8,102.5C95.8,102.4,95.8,102.4,95.8,102.5z"/>
	<path class="st0" d="M95.8,102.5L95.8,102.5L95.8,102.5z"/>
	<path class="st0" d="M95.8,102.5L95.8,102.5L95.8,102.5z"/>
	<path class="st0" d="M202.9,99.2C202.9,99.2,202.9,99.2,202.9,99.2L202.9,99.2z"/>
	<path class="st0" d="M199.1,87.1c-7.8-3.1-14.9-5.5-21.4-7.3l-13.9,13.2c8.8,1.8,18,5.2,28.4,10.3c3.8,1.9,8.5-0.5,10.8-4.1
		C205.4,95.3,203.1,88.7,199.1,87.1L199.1,87.1z"/>
	<path class="st0" d="M137.5,77.8c-12,2.5-24.3,8-39.5,16.4c-3.6,2-4,5.4-2.2,8.2c1.7,2.7,5.2,3.9,8.4,2.2c5.1-2.7,9.9-4.9,14.6-6.8
		L137.5,77.8L137.5,77.8z"/>
	<path class="st0" d="M202.9,99.2L202.9,99.2z"/>
</g>
<path class="st0" d="M183.8,109.8c-11-4.3-20.9-6.6-30.2-7.2l-15.4,14.7c12.1-2.1,24.8-0.8,38.6,5.9c3.7,1.8,8.1,0.3,10.4-3
	C189.7,116.5,187.7,111.3,183.8,109.8z"/>
</svg>
