<?xml version="1.0" encoding="utf-8"?>
<!-- Generator: Adobe Illustrator 24.2.0, SVG Export Plug-In . SVG Version: 6.00 Build 0)  -->
<!DOCTYPE svg PUBLIC "-//W3C//DTD SVG 1.1//EN" "http://www.w3.org/Graphics/SVG/1.1/DTD/svg11.dtd" [
	<!ENTITY ns_extend "http://ns.adobe.com/Extensibility/1.0/">
	<!ENTITY ns_ai "http://ns.adobe.com/AdobeIllustrator/10.0/">
	<!ENTITY ns_graphs "http://ns.adobe.com/Graphs/1.0/">
	<!ENTITY ns_vars "http://ns.adobe.com/Variables/1.0/">
	<!ENTITY ns_imrep "http://ns.adobe.com/ImageReplacement/1.0/">
	<!ENTITY ns_sfw "http://ns.adobe.com/SaveForWeb/1.0/">
	<!ENTITY ns_custom "http://ns.adobe.com/GenericCustomNamespace/1.0/">
	<!ENTITY ns_adobe_xpath "http://ns.adobe.com/XPath/1.0/">
]>
<svg version="1.1" id="a" xmlns:x="&ns_extend;" xmlns:i="&ns_ai;" xmlns:graph="&ns_graphs;"
	 xmlns="http://www.w3.org/2000/svg" xmlns:xlink="http://www.w3.org/1999/xlink" x="0px" y="0px" viewBox="0 0 300 300"
	 style="enable-background:new 0 0 300 300;" xml:space="preserve">
<style type="text/css">
	.st0{fill:#223A73;}
</style>
<metadata>
	<sfw  xmlns="&ns_sfw;">
		<slices></slices>
		<sliceSourceBounds  bottomLeftOrigin="true" height="159.2" width="113.6" x="93.2" y="70.4"></sliceSourceBounds>
	</sfw>
</metadata>
<path class="st0" d="M202.4,128.6L202.4,128.6c-2-1.7-4.8-1.8-6.8-0.1l-32.1,26.9c-1.6,1.3-3.9,0.1-3.7-1.9l6.2-63.6
	c1-9.9-6.3-19-16.2-19.5c-10.6-0.5-19,8.4-18,18.8l6.2,64.2c0.2,2-2.1,3.2-3.7,1.9l-32.1-26.9c-2-1.6-4.8-1.6-6.8,0.1l-0.1,0.1
	c-2.3,2-2.4,5.6-0.2,7.7l48.4,46c1.4,1.3,3.3,2.1,5.2,2c1.9,0,3.8-0.7,5.2-2l48.4-46C204.8,134.2,204.7,130.7,202.4,128.6
	L202.4,128.6z"/>
<path class="st0" d="M100.4,224.2c-4.4-0.2-7.7-4.2-7.1-8.6v-0.1c0.5-3.6,3.5-6.3,7.2-6.3l95.5-0.6c9.2-0.1,14.3,10.9,8.2,17.6l0,0
	c-2.1,2.3-5.1,3.5-8.2,3.3C195.9,229.6,100.4,224.2,100.4,224.2z"/>
</svg>
