<?xml version="1.0" encoding="utf-8"?>
<!-- Generator: Adobe Illustrator 24.2.0, SVG Export Plug-In . SVG Version: 6.00 Build 0)  -->
<!DOCTYPE svg PUBLIC "-//W3C//DTD SVG 1.1//EN" "http://www.w3.org/Graphics/SVG/1.1/DTD/svg11.dtd" [
	<!ENTITY ns_extend "http://ns.adobe.com/Extensibility/1.0/">
	<!ENTITY ns_ai "http://ns.adobe.com/AdobeIllustrator/10.0/">
	<!ENTITY ns_graphs "http://ns.adobe.com/Graphs/1.0/">
	<!ENTITY ns_vars "http://ns.adobe.com/Variables/1.0/">
	<!ENTITY ns_imrep "http://ns.adobe.com/ImageReplacement/1.0/">
	<!ENTITY ns_sfw "http://ns.adobe.com/SaveForWeb/1.0/">
	<!ENTITY ns_custom "http://ns.adobe.com/GenericCustomNamespace/1.0/">
	<!ENTITY ns_adobe_xpath "http://ns.adobe.com/XPath/1.0/">
]>
<svg version="1.1" id="a" xmlns:x="&ns_extend;" xmlns:i="&ns_ai;" xmlns:graph="&ns_graphs;"
	 xmlns="http://www.w3.org/2000/svg" xmlns:xlink="http://www.w3.org/1999/xlink" x="0px" y="0px" viewBox="0 0 300 300"
	 style="enable-background:new 0 0 300 300;" xml:space="preserve">
<style type="text/css">
	.st0{fill:#223A73;}
</style>
<metadata>
	<sfw  xmlns="&ns_sfw;">
		<slices></slices>
		<sliceSourceBounds  bottomLeftOrigin="true" height="107.3" width="118.4" x="90.7" y="96.4"></sliceSourceBounds>
	</sfw>
</metadata>
<g>
	<ellipse class="st0" cx="141.7" cy="162.9" rx="18.5" ry="19.4"/>
	<path class="st0" d="M206,119.8c-0.2-2-1.3-3.6-6.7-3.5c-12.7,0.3-19.4,0.9-27.3,1.3c-1.1,0.1-2.1-0.7-2.4-1.7
		c-1.4-5.1-2.9-12-4.2-15.8c-1.2-3.5-4.2-3.8-8.1-3.8c-15.1,0.3-32.7,1.1-42.7,1.5c-0.9,0-1.8,0.2-2.4,0.5c-0.7,0.2-1.2,0.9-1.5,1.8
		c-1.5,4.1-3.1,12-4.6,17.2c-0.4,1.3-1.6,2.3-3.1,2.3c-2.7,0.1-9.5,0-9.7,0c-2.1-0.1-2.6,3.2-2.6,4.6c0.1,10.3,1.4,75.2,1.4,75.7
		c0.1,2.1,0.9,3.7,4.6,3.7c10.4-0.1,95.5-2.1,102.4-2.1c10,0,10-6,10-11C209.2,182.1,206,120.3,206,119.8L206,119.8z M120.2,119.2
		c0-1.4,0.7-2.7,2.1-2.6c4.7,0.3,27-0.5,32.3-0.1c1.5,0.1,2.6,0.4,2.5,2.4c-0.1,1.9-0.5,3.3-2.6,3.3c-5.8,0-29,1.4-32.8,1.3
		c-0.7,0-1.5-0.4-1.5-1.1L120.2,119.2L120.2,119.2z M141.7,188.6c-14.1,0-25.5-11.4-25.5-25.5s11.4-25.5,25.5-25.5
		s25.5,11.4,25.5,25.5S155.8,188.6,141.7,188.6z M193.6,139.3c-5.8,0-6,0.4-9.9,0.3c-0.7,0-1.5-0.4-1.5-1.1v-3.3
		c0-1.4,0.7-2.6,2.1-2.6c4.7,0.3,4,0.5,9.3,0.9c1.5,0.1,2.6,0.4,2.5,2.4C196.1,137.9,195.7,139.3,193.6,139.3L193.6,139.3z"/>
</g>
</svg>
