<?xml version="1.0" encoding="utf-8"?>
<!-- Generator: Adobe Illustrator 24.2.0, SVG Export Plug-In . SVG Version: 6.00 Build 0)  -->
<!DOCTYPE svg PUBLIC "-//W3C//DTD SVG 1.1//EN" "http://www.w3.org/Graphics/SVG/1.1/DTD/svg11.dtd" [
	<!ENTITY ns_extend "http://ns.adobe.com/Extensibility/1.0/">
	<!ENTITY ns_ai "http://ns.adobe.com/AdobeIllustrator/10.0/">
	<!ENTITY ns_graphs "http://ns.adobe.com/Graphs/1.0/">
	<!ENTITY ns_vars "http://ns.adobe.com/Variables/1.0/">
	<!ENTITY ns_imrep "http://ns.adobe.com/ImageReplacement/1.0/">
	<!ENTITY ns_sfw "http://ns.adobe.com/SaveForWeb/1.0/">
	<!ENTITY ns_custom "http://ns.adobe.com/GenericCustomNamespace/1.0/">
	<!ENTITY ns_adobe_xpath "http://ns.adobe.com/XPath/1.0/">
]>
<svg version="1.1" id="a" xmlns:x="&ns_extend;" xmlns:i="&ns_ai;" xmlns:graph="&ns_graphs;"
	 xmlns="http://www.w3.org/2000/svg" xmlns:xlink="http://www.w3.org/1999/xlink" x="0px" y="0px" viewBox="0 0 300 300"
	 style="enable-background:new 0 0 300 300;" xml:space="preserve">
<style type="text/css">
	.st0{fill:#223A73;}
</style>
<metadata>
	<sfw  xmlns="&ns_sfw;">
		<slices></slices>
		<sliceSourceBounds  bottomLeftOrigin="true" height="164.3" width="233.1" x="33.4" y="67.9"></sliceSourceBounds>
	</sfw>
</metadata>
<path class="st0" d="M222.6,130.9c0.1,25.1-2.7,55-1.3,82.9c0.5,9.8-8.6,18.1-21.6,18.2c-42.9,0.3-94.2-0.1-142.1,0
	c-6.7,0-12.7-0.1-16.9-0.8c0,0-7.9-1.5-7-13.5c1.8-25,0.3-55-0.3-82.9c-0.3-13.2,8.7-20.2,21.7-20.4c43-0.8,94.2-0.9,142.1-1.6
	C210.6,112.7,222.5,119.6,222.6,130.9L222.6,130.9z M46.7,131.5c0.1,0.9,0.2,1.9,0.3,3c1.4,28.5,2.8,62.9,3.6,84.3
	c2.1-0.2,4.5-0.3,7.1-0.4c51.3-1.4,114-2.7,150.1-3.4c0-0.4-0.1-0.8-0.1-1.2c-0.9-30.2-1.7-67-2-88c-2.3,0.3-5,0.4-8.1,0.6
	C145.9,128.4,82.7,130.4,46.7,131.5L46.7,131.5z"/>
<path class="st0" d="M70.3,119.3c-0.1-2.3-0.2-4.6-0.3-6.8c-0.1-1.1-0.2-2.1-0.3-3c35.9-1,99.1-3.1,150.9-5.1
	c3.1-0.1,5.8-0.3,8.1-0.6c0.3,21,1.1,57.8,2,88c0,0.4,0,0.8,0.1,1.2c-4.2,0.1-8.8,0.2-13.7,0.2c-0.1,5.6-0.3,11.1-0.4,16.7
	c2,0,4,0,6,0c13-0.1,22-8.4,21.6-18.2c-1.4-27.9,1.4-57.8,1.3-82.9c-0.1-11.3-12-18.2-25.3-18c-47.9,0.6-99.2,0.8-142.1,1.6
	c-13,0.2-22,7.2-21.7,20.4c0,2.1,0.1,4.2,0.2,6.3C61.2,119.2,65.7,119.3,70.3,119.3z"/>
<path class="st0" d="M91.3,96.3c-0.1-2.3-0.2-4.6-0.3-6.8c-0.1-1.1-0.2-2.1-0.3-3c35.9-1,99.1-3.1,150.9-5.1
	c3.1-0.1,5.8-0.3,8.1-0.6c0.3,21,1.1,57.8,2,88c0,0.4,0,0.8,0.1,1.2c-4.2,0.1-8.8,0.2-13.7,0.2c-0.1,5.6-0.3,11.1-0.4,16.7
	c2,0,4,0,6,0c13-0.1,22-8.4,21.5-18.2c-1.4-27.9,1.4-57.8,1.3-82.9c-0.1-11.3-12-18.2-25.3-18c-47.9,0.6-99.2,0.8-142.1,1.6
	c-13,0.2-22,7.2-21.7,20.4c0.1,2.1,0.1,4.2,0.2,6.3C82.2,96.2,86.7,96.3,91.3,96.3L91.3,96.3z"/>
<path class="st0" d="M199,196.5l-41.4-43.8c-1.2-1.3-2.8-1.9-4.4-1.8c-1.6,0-3.1,0.8-4.3,2.1l-36.5,43.5l-23.5-24.9
	c-0.8-0.9-1.9-1.3-3-1.3c-1.1,0-2.2,0.5-2.9,1.4l-26.7,31.9c-1.2,1.5-1.1,3.9,0.2,5.2l0,0c4.6,3.6,133.6,2.5,142.4-4.8l0.1-0.1
	C201,202.1,201,198.6,199,196.5L199,196.5z"/>
</svg>
