<?xml version="1.0" encoding="utf-8"?>
<!-- Generator: Adobe Illustrator 24.2.0, SVG Export Plug-In . SVG Version: 6.00 Build 0)  -->
<svg version="1.1" id="Layer_1" xmlns="http://www.w3.org/2000/svg" xmlns:xlink="http://www.w3.org/1999/xlink" x="0px" y="0px"
	 viewBox="0 0 18.2 21.8" style="enable-background:new 0 0 18.2 21.8;" xml:space="preserve">
<style type="text/css">
	.st0{fill:#917D26;}
</style>
<path class="st0" d="M18,20.1l-5.3-6.3c-0.1-0.2-1.4-1.5-1.4-2.8c0-1.4,1.2-2.8,1.4-2.9L18,1.7c0.3-0.4,0.3-0.9,0-1.3l0,0
	c-0.4-0.5-1.1-0.5-1.5,0L9.1,8L1.8,0.3c-0.4-0.4-1.1-0.4-1.5,0l0,0c-0.3,0.4-0.3,0.9,0,1.3L5.5,8c0.1,0.2,1.4,1.5,1.4,2.8
	c0,1.4-1.2,2.8-1.4,2.9l-5.3,6.3c-0.3,0.4-0.3,0.9,0,1.3l0,0c0.4,0.5,1.1,0.5,1.5,0l7.3-7.7l7.3,7.7c0.4,0.4,1.1,0.4,1.5,0l0,0
	C18.3,21,18.3,20.4,18,20.1z"/>
</svg>
