<svg xmlns="http://www.w3.org/2000/svg" viewBox="0 0 24.99 25"><defs><style>.cls-1{fill:#4e4d4d;}</style></defs><g id="Capa_2" data-name="Capa 2"><g id="Capa_1-2" data-name="Capa 1"><path class="cls-1" d="M8.93,0h1.32L11,.11a9.41,9.41,0,0,1,6.81,4.73c.29.5.51,1,.78,1.6a9.55,9.55,0,0,1-1.43,18.39,9.15,9.15,0,0,1-5.8-.75,9.54,9.54,0,0,1-5-5.52A9.57,9.57,0,0,1,.09,10.85L0,10.25V8.93c0-.07,0-.14,0-.21.1-.53.15-1.08.29-1.6A9.25,9.25,0,0,1,3.14,2.5,9.3,9.3,0,0,1,8.31.09Zm7.85,6a8.07,8.07,0,0,0-15.3,3.1A7.94,7.94,0,0,0,6,16.76a9.34,9.34,0,0,1,2.71-8A9.37,9.37,0,0,1,16.78,6ZM8.23,19a8,8,0,0,0,8.12,4.47,8.11,8.11,0,0,0,7.12-7.08A8,8,0,0,0,19,8.22a9.4,9.4,0,0,1-2.72,8.07A9.38,9.38,0,0,1,8.23,19Zm7.5-4.24L10.24,9.28a5.13,5.13,0,0,0-1,1l5.48,5.48ZM8.36,11.51l-.6,1.39,4.32,4.32a7.34,7.34,0,0,0,1.38-.61Zm8.87.6L12.9,7.78a7.67,7.67,0,0,0-1.34.59l5.08,5.09Zm-2.54-4.7,2.83,2.91.07-.05a7.74,7.74,0,0,0-.21-2.66A8.06,8.06,0,0,0,14.69,7.41Zm-7.08,10a6.31,6.31,0,0,0,2.62.2L7.41,14.74A7.71,7.71,0,0,0,7.61,17.36Z"/></g></g></svg>