<svg xmlns="http://www.w3.org/2000/svg" viewBox="0 0 22.09 25"><defs><style>.cls-1{fill:#4e4d4d;}</style></defs><g id="Capa_2" data-name="Capa 2"><g id="Capa_1-2" data-name="Capa 1"><path class="cls-1" d="M1.88,0H16.41l.11,0a2,2,0,0,1,1.48,1,2.26,2.26,0,0,1,.29,1.19V3.8H20A2.1,2.1,0,0,1,21.88,5a2.33,2.33,0,0,1,.21,1.07V22.88a2.1,2.1,0,0,1-1.21,1.91,2.33,2.33,0,0,1-1.07.21H5.9a2.13,2.13,0,0,1-2.09-2.17c0-.2,0-1.4,0-1.64H2.14A2.09,2.09,0,0,1,.21,20,2.33,2.33,0,0,1,0,18.91V2.29A2.63,2.63,0,0,1,0,1.8,2,2,0,0,1,1.43.13,3.33,3.33,0,0,1,1.88,0ZM5.21,9.43V22.8a.71.71,0,0,0,.78.79h13.9a.77.77,0,0,0,.8-.81q0-8.38,0-16.78a.77.77,0,0,0-.8-.8H9.62l-.19,0V8.69a.71.71,0,0,1-.75.74H5.21ZM16.88,3.8c0-.26,0-1.49,0-1.72a.7.7,0,0,0-.66-.67,1.61,1.61,0,0,0-.22,0H2.29a1.47,1.47,0,0,0-.21,0,.71.71,0,0,0-.67.66V18.9a1.92,1.92,0,0,0,0,.24.69.69,0,0,0,.62.64c.25,0,1.5,0,1.77,0v-.29c0-4.14,0-7.29,0-11.43a2.34,2.34,0,0,1,.72-1.75c.61-.59,1.2-1.2,1.81-1.8a3.39,3.39,0,0,1,.51-.41,2.22,2.22,0,0,1,1.21-.3h8.83ZM8,5.23a.68.68,0,0,0-.65.23l-1,1-.91.91A.68.68,0,0,0,5.22,8H8Z"/><path class="cls-1" d="M12.93,12.34H7.49a1.34,1.34,0,0,1-.35,0,.7.7,0,0,1,.11-1.37H18.41a2,2,0,0,1,.35,0,.7.7,0,0,1-.11,1.37H12.93Z"/><path class="cls-1" d="M13,15.15H7.49a1.34,1.34,0,0,1-.35,0,.7.7,0,0,1,.11-1.37H18.41a1.34,1.34,0,0,1,.35,0,.68.68,0,0,1,.52.72.72.72,0,0,1-.63.65H13Z"/><path class="cls-1" d="M12.93,18H7.26a.71.71,0,0,1-.64-.69.72.72,0,0,1,.63-.71H18.71A.7.7,0,0,1,18.63,18h-5.7Z"/><path class="cls-1" d="M12.93,20.78H7.49a1.34,1.34,0,0,1-.35,0,.7.7,0,0,1,.11-1.37H18.41a2,2,0,0,1,.35,0,.7.7,0,0,1-.11,1.37H12.93Z"/></g></g></svg>