<?xml version="1.0" encoding="utf-8"?>
<!-- Generator: Adobe Illustrator 24.2.0, SVG Export Plug-In . SVG Version: 6.00 Build 0)  -->
<!DOCTYPE svg PUBLIC "-//W3C//DTD SVG 1.1//EN" "http://www.w3.org/Graphics/SVG/1.1/DTD/svg11.dtd" [
	<!ENTITY ns_extend "http://ns.adobe.com/Extensibility/1.0/">
	<!ENTITY ns_ai "http://ns.adobe.com/AdobeIllustrator/10.0/">
	<!ENTITY ns_graphs "http://ns.adobe.com/Graphs/1.0/">
	<!ENTITY ns_vars "http://ns.adobe.com/Variables/1.0/">
	<!ENTITY ns_imrep "http://ns.adobe.com/ImageReplacement/1.0/">
	<!ENTITY ns_sfw "http://ns.adobe.com/SaveForWeb/1.0/">
	<!ENTITY ns_custom "http://ns.adobe.com/GenericCustomNamespace/1.0/">
	<!ENTITY ns_adobe_xpath "http://ns.adobe.com/XPath/1.0/">
]>
<svg version="1.1" id="a" xmlns:x="&ns_extend;" xmlns:i="&ns_ai;" xmlns:graph="&ns_graphs;"
	 xmlns="http://www.w3.org/2000/svg" xmlns:xlink="http://www.w3.org/1999/xlink" x="0px" y="0px" viewBox="0 0 300 300"
	 style="enable-background:new 0 0 300 300;" xml:space="preserve">
<style type="text/css">
	.st0{fill:#223A73;}
</style>
<metadata>
	<sfw  xmlns="&ns_sfw;">
		<slices></slices>
		<sliceSourceBounds  bottomLeftOrigin="true" height="119.3" width="189.2" x="55.4" y="90.4"></sliceSourceBounds>
	</sfw>
</metadata>
<path class="st0" d="M224.1,172.2l-41.4-43.8c-1.2-1.3-2.8-1.9-4.4-1.8c-1.6,0-3.1,0.8-4.3,2.1l-36.5,43.5l-23.5-24.9
	c-0.8-0.9-1.9-1.3-3-1.3c-1.1,0-2.2,0.5-2.9,1.4l-26.7,31.9c-1.2,1.5-1.1,3.9,0.2,5.2l0,0c4.6,3.6,133.6,2.5,142.4-4.8l0.1-0.1
	C226.1,177.7,226,174.2,224.1,172.2L224.1,172.2z"/>
<path class="st0" d="M55.4,191.6c-0.1-25.1,2.7-55,1.3-82.9c-0.5-9.8,8.6-18.2,21.5-18.2c42.9-0.3,94.2,0.1,142.1,0
	c6.7,0,12.6,0.1,16.9,0.8c0,0,7.9,1.5,7,13.5c-1.8,25-0.3,55,0.3,82.9c0.3,13.2-8.7,20.1-21.7,20.4c-42.9,0.8-94.2,0.9-142.1,1.6
	C67.4,209.8,55.5,202.9,55.4,191.6L55.4,191.6z M231.3,191c-0.1-0.9-0.2-1.9-0.3-3c-1.4-28.5-2.8-62.9-3.6-84.3
	c-2.1,0.2-4.5,0.3-7.1,0.4c-51.3,1.4-114,2.7-150.1,3.3c0,0.4,0.1,0.8,0.1,1.2c0.9,30.2,1.7,67,2,88c2.3-0.3,5-0.4,8.1-0.6
	C132.1,194.1,195.3,192.1,231.3,191L231.3,191z"/>
</svg>
