<svg xmlns="http://www.w3.org/2000/svg" viewBox="0 0 50 50"><defs><style>.cls-1{fill:#fff;}</style></defs><title>Recurso 3</title><g id="Capa_2" data-name="Capa 2"><g id="Layer_11" data-name="Layer 11"><path class="cls-1" d="M15.33,0a2,2,0,0,0,.21.1A2.49,2.49,0,0,1,17,1.27c.79,1.38,1.59,2.76,2.37,4.15a2.46,2.46,0,0,1,0,2.51c-.77,1.38-1.56,2.74-2.35,4.11A2.44,2.44,0,0,1,15,13.32l-.48,0H2.85a3.77,3.77,0,0,1-1-.1A2.37,2.37,0,0,1,.19,11.77c-.07-.15-.13-.3-.19-.44V2.05l.13-.36A2.52,2.52,0,0,1,1.69.13L2.05,0ZM8.64,11.65c2,0,4,0,5.95,0A1.15,1.15,0,0,0,15.73,11c.68-1.24,1.39-2.47,2.11-3.68a1.18,1.18,0,0,0,0-1.32c-.71-1.2-1.41-2.41-2.08-3.64a1.24,1.24,0,0,0-1.25-.72c-3.89,0-7.77,0-11.66,0a3.17,3.17,0,0,0-.44,0,.83.83,0,0,0-.74.73c0,.11,0,.23,0,.34v7.81c0,.11,0,.23,0,.34a.81.81,0,0,0,.77.74,4,4,0,0,0,.49,0Z"/><path class="cls-1" d="M0,29.49c.05-.12.11-.23.15-.35a2.45,2.45,0,0,1,2.22-1.63c.15,0,.3,0,.44,0,3.91,0,7.81,0,11.72,0a4.47,4.47,0,0,1,1.15.14A2.23,2.23,0,0,1,17,28.73c.81,1.41,1.63,2.81,2.42,4.23a2.4,2.4,0,0,1,0,2.43c-.79,1.4-1.58,2.8-2.4,4.19a2.38,2.38,0,0,1-2.18,1.24H2.54A2.47,2.47,0,0,1,.12,39.11C.09,39,0,39,0,38.86Zm8.64,9.67c2,0,4,0,5.95,0a1.14,1.14,0,0,0,1.14-.65c.68-1.24,1.38-2.47,2.1-3.68a1.19,1.19,0,0,0,0-1.36c-.7-1.18-1.38-2.36-2-3.56a1.28,1.28,0,0,0-1.28-.75c-3.89,0-7.77,0-11.66,0H2.46a.82.82,0,0,0-.79.78c0,.14,0,.29,0,.44v7.46c0,.16,0,.33,0,.49a.83.83,0,0,0,.82.8H8.64Z"/><path class="cls-1" d="M24.14,30.93V28.25a3.37,3.37,0,0,1,0-6.49V19.07a3.36,3.36,0,0,1,0-6.47V9.89a3.42,3.42,0,0,1-2.24-2,3.18,3.18,0,0,1-.08-2.15A3.33,3.33,0,0,1,28.27,6c.34,1.62-.48,3-2.41,3.88v2.67A3.35,3.35,0,0,1,28.32,16c0,1.36-.83,2.34-2.45,3.06v2.68a3.37,3.37,0,0,1,2.45,3.45c0,1.33-.77,2.22-2.46,3.05v2.68a3.35,3.35,0,0,1,0,6.46v2.72a3.37,3.37,0,0,1,2.23,2,3.27,3.27,0,0,1,.09,2.16A3.33,3.33,0,0,1,21.73,44c-.34-1.63.48-3,2.41-3.88V37.4a3.36,3.36,0,0,1,0-6.47ZM26.66,6.69a1.66,1.66,0,1,0-3.32,0,1.66,1.66,0,0,0,3.32,0ZM25,17.49a1.65,1.65,0,0,0,1.67-1.66A1.68,1.68,0,0,0,25,14.16a1.67,1.67,0,0,0,0,3.33Zm1.67,16.66a1.66,1.66,0,0,0-3.32,0,1.66,1.66,0,1,0,3.32,0Zm-3.32,9.19a1.66,1.66,0,1,0,3.32,0,1.66,1.66,0,0,0-3.32,0Zm1.65-20A1.66,1.66,0,1,0,26.66,25,1.65,1.65,0,0,0,25,23.34Z"/><path class="cls-1" d="M41.36,50c-2,0-4,0-6,0a2.66,2.66,0,0,1-2.51-1.46c-.71-1.27-1.44-2.54-2.17-3.81a2.6,2.6,0,0,1,0-2.81c.73-1.27,1.46-2.54,2.17-3.81a2.62,2.62,0,0,1,2.47-1.45c4,0,8,0,12,0A2.51,2.51,0,0,1,50,38.73a2.83,2.83,0,0,1,0,.58c0,2.68,0,5.37,0,8A2.48,2.48,0,0,1,47.36,50Zm0-11.66h-6a1.07,1.07,0,0,0-1,.6c-.69,1.24-1.39,2.49-2.12,3.72a1.19,1.19,0,0,0,0,1.36c.71,1.18,1.4,2.38,2.06,3.59a1.23,1.23,0,0,0,1.24.73c3.73,0,7.45,0,11.18,0,.27,0,.55,0,.83,0a.77.77,0,0,0,.72-.42,1.57,1.57,0,0,0,.13-.65V39.4a1.41,1.41,0,0,0,0-.29.8.8,0,0,0-.76-.75,3.85,3.85,0,0,0-.48,0Z"/><path class="cls-1" d="M41.32,22.49h-6a2.44,2.44,0,0,1-1.76-.58,3.21,3.21,0,0,1-.64-.78c-.77-1.32-1.52-2.65-2.28-4a2.51,2.51,0,0,1,0-2.64c.76-1.34,1.52-2.68,2.3-4a2.47,2.47,0,0,1,2.28-1.32c4.07,0,8.14,0,12.2,0A2.57,2.57,0,0,1,50,11.75q0,4.08,0,8.15a2.54,2.54,0,0,1-2.58,2.59Zm0-11.65c-2,0-4,0-6,0a1.12,1.12,0,0,0-1.07.61c-.7,1.26-1.42,2.52-2.15,3.76a1.15,1.15,0,0,0,0,1.28c.72,1.23,1.44,2.47,2.13,3.72a1.1,1.1,0,0,0,1.1.63c1.11,0,2.21,0,3.32,0,2.81,0,5.62,0,8.44,0,.93,0,1.25-.39,1.2-1.22,0-.52,0-1,0-1.57V11.85a.85.85,0,0,0-.45-.9,1.57,1.57,0,0,0-.61-.11Z"/><path class="cls-1" d="M7.86,8.32H4.49a3.09,3.09,0,0,1-.43,0,.82.82,0,0,1-.18-1.58,1.88,1.88,0,0,1,.53-.07h7a1.85,1.85,0,0,1,.58.09.8.8,0,0,1,.48.83.79.79,0,0,1-.68.72,2.57,2.57,0,0,1-.48,0Z"/><path class="cls-1" d="M6.25,5c-.7,0-1.4,0-2.1,0a.81.81,0,0,1-.8-.65.79.79,0,0,1,.44-.89,1.61,1.61,0,0,1,.61-.11c1,0,2,0,3,0,.33,0,.65,0,1,0A.83.83,0,0,1,8.34,5H6.25Z"/><path class="cls-1" d="M7.91,34.17h3.71a.83.83,0,0,1,.87.8.84.84,0,0,1-.86.86c-.16,0-.32,0-.49,0H4.51a2.64,2.64,0,0,1-.49,0A.84.84,0,0,1,3.33,35a.83.83,0,0,1,.77-.8,2.54,2.54,0,0,1,.39,0Z"/><path class="cls-1" d="M6.23,32.5H4.38a1.56,1.56,0,0,1-.57-.1.81.81,0,0,1-.47-.83A.77.77,0,0,1,4,30.86c1.48,0,3,0,4.43,0a.78.78,0,0,1,.7.71.8.8,0,0,1-.51.85,1.57,1.57,0,0,1-.52.08Z"/><path class="cls-1" d="M42.07,45H38.61a1.89,1.89,0,0,1-.58-.08.81.81,0,0,1,.2-1.57,2.54,2.54,0,0,1,.39,0h6.93a2.54,2.54,0,0,1,.39,0,.83.83,0,0,1,.72.75.82.82,0,0,1-.55.83,1.82,1.82,0,0,1-.57.07Z"/><path class="cls-1" d="M43.74,41.67H42a2.54,2.54,0,0,1-.39,0,.85.85,0,0,1-.77-.86.8.8,0,0,1,.82-.79h4.19a.81.81,0,0,1,.82.8.84.84,0,0,1-.73.84,3.1,3.1,0,0,1-.43,0Z"/><path class="cls-1" d="M42,17.49H38.35a.82.82,0,0,1-.85-.82.85.85,0,0,1,.84-.84h7.22a1.88,1.88,0,0,1,.53.06.81.81,0,0,1-.17,1.59,2.54,2.54,0,0,1-.39,0Z"/><path class="cls-1" d="M43.74,14.16c-.69,0-1.39,0-2.09,0a.83.83,0,0,1,0-1.65c1.4,0,2.8,0,4.19,0a.81.81,0,0,1,.82.85.83.83,0,0,1-.82.8Z"/></g></g></svg>