<?xml version="1.0" encoding="utf-8"?>
<!-- Generator: Adobe Illustrator 24.2.0, SVG Export Plug-In . SVG Version: 6.00 Build 0)  -->
<!DOCTYPE svg PUBLIC "-//W3C//DTD SVG 1.1//EN" "http://www.w3.org/Graphics/SVG/1.1/DTD/svg11.dtd" [
	<!ENTITY ns_extend "http://ns.adobe.com/Extensibility/1.0/">
	<!ENTITY ns_ai "http://ns.adobe.com/AdobeIllustrator/10.0/">
	<!ENTITY ns_graphs "http://ns.adobe.com/Graphs/1.0/">
	<!ENTITY ns_vars "http://ns.adobe.com/Variables/1.0/">
	<!ENTITY ns_imrep "http://ns.adobe.com/ImageReplacement/1.0/">
	<!ENTITY ns_sfw "http://ns.adobe.com/SaveForWeb/1.0/">
	<!ENTITY ns_custom "http://ns.adobe.com/GenericCustomNamespace/1.0/">
	<!ENTITY ns_adobe_xpath "http://ns.adobe.com/XPath/1.0/">
]>
<svg version="1.1" id="a" xmlns:x="&ns_extend;" xmlns:i="&ns_ai;" xmlns:graph="&ns_graphs;"
	 xmlns="http://www.w3.org/2000/svg" xmlns:xlink="http://www.w3.org/1999/xlink" x="0px" y="0px" viewBox="0 0 300 300"
	 style="enable-background:new 0 0 300 300;" xml:space="preserve">
<style type="text/css">
	.st0{fill:#223A73;}
</style>
<metadata>
	<sfw  xmlns="&ns_sfw;">
		<slices></slices>
		<sliceSourceBounds  bottomLeftOrigin="true" height="216.7" width="174" x="63" y="41.6"></sliceSourceBounds>
	</sfw>
</metadata>
<path class="st0" d="M237,251V101c0-4.1-3.3-7.3-7.3-7.3h-10.6V51.2c0-5.3-4.3-9.5-9.5-9.5h-118C75.8,41.7,63,54.4,63,70.1v159.8
	c0,15.7,12.7,28.5,28.5,28.5h138.2C233.7,258.4,237,255.1,237,251L237,251z M80.3,74.5c0-4.5-0.3-16.2,13-16.2h111.3v16.2H80.3z
	 M91.5,243.9c-7.7,0-14-6.3-14-14V103c4.5,3.2,10,5.1,15.9,5.1h129.2v135.8H91.5z"/>
<path class="st0" d="M103.6,145c-4.3-0.2-7.5-4.1-7-8.4v-0.1c0.5-3.5,3.4-6.2,7-6.2l94-0.6c9.1-0.1,14.1,10.7,8,17.4l0,0
	c-2.1,2.2-5,3.4-8.1,3.3L103.6,145L103.6,145z"/>
</svg>
