<?xml version="1.0" encoding="utf-8"?>
<!-- Generator: Adobe Illustrator 24.2.0, SVG Export Plug-In . SVG Version: 6.00 Build 0)  -->
<!DOCTYPE svg PUBLIC "-//W3C//DTD SVG 1.1//EN" "http://www.w3.org/Graphics/SVG/1.1/DTD/svg11.dtd" [
	<!ENTITY ns_extend "http://ns.adobe.com/Extensibility/1.0/">
	<!ENTITY ns_ai "http://ns.adobe.com/AdobeIllustrator/10.0/">
	<!ENTITY ns_graphs "http://ns.adobe.com/Graphs/1.0/">
	<!ENTITY ns_vars "http://ns.adobe.com/Variables/1.0/">
	<!ENTITY ns_imrep "http://ns.adobe.com/ImageReplacement/1.0/">
	<!ENTITY ns_sfw "http://ns.adobe.com/SaveForWeb/1.0/">
	<!ENTITY ns_custom "http://ns.adobe.com/GenericCustomNamespace/1.0/">
	<!ENTITY ns_adobe_xpath "http://ns.adobe.com/XPath/1.0/">
]>
<svg version="1.1" id="a" xmlns:x="&ns_extend;" xmlns:i="&ns_ai;" xmlns:graph="&ns_graphs;"
	 xmlns="http://www.w3.org/2000/svg" xmlns:xlink="http://www.w3.org/1999/xlink" x="0px" y="0px" viewBox="0 0 300 300"
	 style="enable-background:new 0 0 300 300;" xml:space="preserve">
<style type="text/css">
	.st0{fill:#223A73;}
</style>
<metadata>
	<sfw  xmlns="&ns_sfw;">
		<slices></slices>
		<sliceSourceBounds  bottomLeftOrigin="true" height="140.4" width="101.1" x="99.4" y="79.8"></sliceSourceBounds>
	</sfw>
</metadata>
<path class="st0" d="M99.4,206.6l0.1,7.8c0,3.4,5.7,6,12.6,5.8c23-0.6,50.4-2.1,76-3c7.1-0.2,12.8-1,12.4-5.6
	c-0.4-4.4-2.4-7.9-12.6-8c-28.4-0.3-63.2-0.4-82.2-0.2C102.2,203.4,99.5,203.8,99.4,206.6L99.4,206.6z"/>
<path class="st0" d="M150,79.8c-27.9,0-50.5,23.4-50.5,52.2c0,30.8,47.1,68.9,47.1,68.9c1,1,2.4,1.6,3.8,1.6c1.4,0,2.8-0.5,3.8-1.6
	c0,0,46.3-42.1,46.3-68.9C200.5,103.2,177.9,79.8,150,79.8L150,79.8z M150,154.2c-11.9,0-21.5-9.9-21.5-22.2s9.6-22.2,21.5-22.2
	s21.5,9.9,21.5,22.2S161.9,154.2,150,154.2z"/>
</svg>
