<?xml version="1.0" encoding="utf-8"?>
<!-- Generator: Adobe Illustrator 24.2.0, SVG Export Plug-In . SVG Version: 6.00 Build 0)  -->
<!DOCTYPE svg PUBLIC "-//W3C//DTD SVG 1.1//EN" "http://www.w3.org/Graphics/SVG/1.1/DTD/svg11.dtd" [
	<!ENTITY ns_extend "http://ns.adobe.com/Extensibility/1.0/">
	<!ENTITY ns_ai "http://ns.adobe.com/AdobeIllustrator/10.0/">
	<!ENTITY ns_graphs "http://ns.adobe.com/Graphs/1.0/">
	<!ENTITY ns_vars "http://ns.adobe.com/Variables/1.0/">
	<!ENTITY ns_imrep "http://ns.adobe.com/ImageReplacement/1.0/">
	<!ENTITY ns_sfw "http://ns.adobe.com/SaveForWeb/1.0/">
	<!ENTITY ns_custom "http://ns.adobe.com/GenericCustomNamespace/1.0/">
	<!ENTITY ns_adobe_xpath "http://ns.adobe.com/XPath/1.0/">
]>
<svg version="1.1" id="a" xmlns:x="&ns_extend;" xmlns:i="&ns_ai;" xmlns:graph="&ns_graphs;"
	 xmlns="http://www.w3.org/2000/svg" xmlns:xlink="http://www.w3.org/1999/xlink" x="0px" y="0px" viewBox="0 0 300 300"
	 style="enable-background:new 0 0 300 300;" xml:space="preserve">
<style type="text/css">
	.st0{fill:#223A73;}
</style>
<metadata>
	<sfw  xmlns="&ns_sfw;">
		<slices></slices>
		<sliceSourceBounds  bottomLeftOrigin="true" height="38.7" width="157.4" x="71.7" y="125.1"></sliceSourceBounds>
	</sfw>
</metadata>
<g>
	<path class="st0" d="M96.8,159.1l-5.7,0.1c-2.4,0-2.9,2.1-2.8,2.9c0.2,2.8-0.6,7.3-0.2,10.4c0.1,0.9,0.6,1.5,4,1.5
		c3.2-0.1,5.8-0.3,5.9-1.6c0.4-3.4,0.2-9,0.3-11.3C98.3,160.6,98,159,96.8,159.1L96.8,159.1z"/>
	<path class="st0" d="M80.5,159l-5.7,0.1c-2.4,0-2.9,2.1-2.8,2.9c0.2,2.8-0.6,7.3-0.2,10.4c0.1,0.9,0.6,1.5,4,1.5
		c3.2-0.1,5.8-0.3,5.9-1.6c0.4-3.4,0.2-9,0.3-11.3C82,160.5,81.7,159,80.5,159L80.5,159z"/>
	<path class="st0" d="M129.5,159l-5.7,0.1c-2.4,0-2.8,2-2.8,2.9c0,5.1-0.6,7.3-0.2,10.4c0.1,0.9,0.6,1.5,4,1.5
		c3.2-0.1,5.8-0.3,5.9-1.6c0.4-3.4,0.2-9,0.3-11.3C131,160.5,130.7,159,129.5,159L129.5,159z"/>
	<path class="st0" d="M145.8,159l-5.7,0.1c-2.4,0-2.8,2-2.8,2.9c0,5.1-0.6,7.3-0.1,10.4c0.1,0.9,0.6,1.5,4,1.5
		c3.2-0.1,5.8-0.3,5.9-1.6c0.4-3.4,0.2-9,0.3-11.3C147.3,160.5,147.1,159,145.8,159L145.8,159z"/>
	<path class="st0" d="M162.2,159l-5.7,0.1c-2.4,0-2.8,2-2.8,2.9c0,5.1-0.6,7.3-0.1,10.4c0.1,0.9,0.6,1.5,4,1.5
		c3.2-0.1,5.8-0.3,5.9-1.6c0.4-3.4,0.2-9,0.3-11.3C163.7,160.5,163.4,159,162.2,159L162.2,159z"/>
	<path class="st0" d="M178.5,159l-5.7,0.1c-2.4,0-2.8,2-2.8,2.9c0,5.1-0.6,7.3-0.1,10.4c0.1,0.9,0.6,1.5,4,1.5
		c3.2-0.1,5.8-0.3,5.9-1.6c0.4-3.4,0.2-9,0.3-11.3C180,160.5,179.7,159,178.5,159L178.5,159z"/>
	<path class="st0" d="M211.2,159l-5.7,0.1c-2.4,0-2.8,2-2.8,2.9c0,5.1-0.6,7.3-0.1,10.4c0.1,0.9,0.6,1.5,4,1.5
		c3.2-0.1,5.8-0.3,5.9-1.6c0.4-3.4,0.2-9,0.3-11.3C212.7,160.5,212.4,159,211.2,159L211.2,159z"/>
	<path class="st0" d="M227.5,159l-5.7,0.1c-2.4,0-2.8,2-2.8,2.9c0,5.1-0.6,7.3-0.1,10.4c0.1,0.9,0.6,1.5,4,1.5
		c3.2-0.1,5.8-0.3,5.9-1.6c0.4-3.4,0.2-9,0.3-11.3C229,160.5,228.7,159,227.5,159L227.5,159z"/>
	<path class="st0" d="M106.9,174.9l3.7-0.1c2.4,0,4.3-1.8,4.1-3.9c-0.6-7.1,0.1-22-0.7-29.9c-0.2-2.2-0.8-3.9-4.1-3.8
		c-3.2,0.1-5.7,0.8-5.8,3.9c-0.1,8.8,0.2,26,0.4,31.9C104.7,174,105.7,174.9,106.9,174.9L106.9,174.9z"/>
	<path class="st0" d="M188.6,173.9l3.7-0.1c2.4,0,4.3-1.8,4.1-3.9c-0.6-7.1,0.1-22-0.7-29.9c-0.2-2.2-0.8-3.9-4.1-3.8
		c-3.2,0.1-5.7,0.8-5.8,3.9c-0.1,8.8,0.2,26,0.4,31.9C186.3,173,187.4,173.9,188.6,173.9L188.6,173.9z"/>
</g>
</svg>
