<?xml version="1.0" encoding="utf-8"?>
<!-- Generator: Adobe Illustrator 24.2.0, SVG Export Plug-In . SVG Version: 6.00 Build 0)  -->
<!DOCTYPE svg PUBLIC "-//W3C//DTD SVG 1.1//EN" "http://www.w3.org/Graphics/SVG/1.1/DTD/svg11.dtd" [
	<!ENTITY ns_extend "http://ns.adobe.com/Extensibility/1.0/">
	<!ENTITY ns_ai "http://ns.adobe.com/AdobeIllustrator/10.0/">
	<!ENTITY ns_graphs "http://ns.adobe.com/Graphs/1.0/">
	<!ENTITY ns_vars "http://ns.adobe.com/Variables/1.0/">
	<!ENTITY ns_imrep "http://ns.adobe.com/ImageReplacement/1.0/">
	<!ENTITY ns_sfw "http://ns.adobe.com/SaveForWeb/1.0/">
	<!ENTITY ns_custom "http://ns.adobe.com/GenericCustomNamespace/1.0/">
	<!ENTITY ns_adobe_xpath "http://ns.adobe.com/XPath/1.0/">
]>
<svg version="1.1" id="a" xmlns:x="&ns_extend;" xmlns:i="&ns_ai;" xmlns:graph="&ns_graphs;"
	 xmlns="http://www.w3.org/2000/svg" xmlns:xlink="http://www.w3.org/1999/xlink" x="0px" y="0px" viewBox="0 0 300 300"
	 style="enable-background:new 0 0 300 300;" xml:space="preserve">
<style type="text/css">
	.st0{fill:#223A73;}
</style>
<metadata>
	<sfw  xmlns="&ns_sfw;">
		<slices></slices>
		<sliceSourceBounds  bottomLeftOrigin="true" height="218" width="173.5" x="63.2" y="39"></sliceSourceBounds>
	</sfw>
</metadata>
<path class="st0" d="M203.5,47.6c-2.6-2-5.8-3.1-9.1-3.1L97.2,43v0c-3,0.3-5.4,3.6-5.4,7.7l-2,173.1c0,3.3,1.1,6.4,3,8.5
	c1.5,1.7,3.3,2.5,5,2.6v0h131.7c0,0,0.1,0,0.1,0h0.1c0.5,0.1,0.9,0.1,1.4,0h0.1v0c2.8-0.6,5-3.7,5-7.7l0.6-146.7
	c0-4.8-2.2-9.4-6.1-12.3L203.5,47.6L203.5,47.6z M106.4,219.1l-2.6-165.4H188l-0.3,25.2c0,3.3,1.1,6.4,3,8.5
	c1.5,1.6,3.2,2.4,4.8,2.6v0.1h26.5l2.1,129L106.4,219.1L106.4,219.1z M221.8,75.9h-22.2c0-0.3-0.4-22.1-0.4-22.1L221.8,75.9
	L221.8,75.9z"/>
<path class="st0" d="M197.4,233l0.2,12.1H79.8L77.2,79.8H98c-0.4-3.5-0.8-6.9-1.1-10.4L70.6,69v0c-3,0.3-5.4,3.6-5.4,7.7l-2,173.1
	c0,3.3,1.1,6.4,3,8.5c1.5,1.7,3.3,2.5,5,2.6v0h131.7c0,0,0.1,0,0.1,0h0.1c0.5,0.1,0.9,0,1.4,0h0.1v0c2.8-0.5,5-3.7,5-7.7l0.1-19.6
	C205.6,233.7,201.4,233.6,197.4,233L197.4,233z"/>
</svg>
