<?xml version="1.0" encoding="utf-8"?>
<!-- Generator: Adobe Illustrator 24.2.0, SVG Export Plug-In . SVG Version: 6.00 Build 0)  -->
<!DOCTYPE svg PUBLIC "-//W3C//DTD SVG 1.1//EN" "http://www.w3.org/Graphics/SVG/1.1/DTD/svg11.dtd" [
	<!ENTITY ns_extend "http://ns.adobe.com/Extensibility/1.0/">
	<!ENTITY ns_ai "http://ns.adobe.com/AdobeIllustrator/10.0/">
	<!ENTITY ns_graphs "http://ns.adobe.com/Graphs/1.0/">
	<!ENTITY ns_vars "http://ns.adobe.com/Variables/1.0/">
	<!ENTITY ns_imrep "http://ns.adobe.com/ImageReplacement/1.0/">
	<!ENTITY ns_sfw "http://ns.adobe.com/SaveForWeb/1.0/">
	<!ENTITY ns_custom "http://ns.adobe.com/GenericCustomNamespace/1.0/">
	<!ENTITY ns_adobe_xpath "http://ns.adobe.com/XPath/1.0/">
]>
<svg version="1.1" id="a" xmlns:x="&ns_extend;" xmlns:i="&ns_ai;" xmlns:graph="&ns_graphs;"
	 xmlns="http://www.w3.org/2000/svg" xmlns:xlink="http://www.w3.org/1999/xlink" x="0px" y="0px" viewBox="0 0 300 300"
	 style="enable-background:new 0 0 300 300;" xml:space="preserve">
<style type="text/css">
	.st0{fill:#223A73;}
</style>
<metadata>
	<sfw  xmlns="&ns_sfw;">
		<slices></slices>
		<sliceSourceBounds  bottomLeftOrigin="true" height="201.4" width="147.9" x="76" y="49.3"></sliceSourceBounds>
	</sfw>
</metadata>
<path class="st0" d="M138.8,139.2L138.8,139.2c2.1-2.2,2.2-5.5,0.4-7.9L91.2,70.6c-4.6-5.9-14-3.4-15.1,4c-0.4,2.5,0.4,5,2.1,6.9
	l51.7,57.6C132.3,141.8,136.4,141.8,138.8,139.2L138.8,139.2z"/>
<path class="st0" d="M162.2,166.4c-1.9-2.2-5.2-2.7-7.7-1.2l-0.1,0.1c-3,1.9-3.8,5.9-1.6,8.8l46.9,61.6c1.5,2,3.9,3.2,6.4,3.4
	c7.5,0.3,11.7-8.4,6.8-14.1L162.2,166.4L162.2,166.4z"/>
<path class="st0" d="M188,73.2c8.4,0,14.1-4.7,14.1-12s-5.6-12-14.1-12s-14.1,4.7-14.1,12S179.6,73.2,188,73.2z M188,56.6
	c2.5,0,4.5,1.9,4.5,4.7c0,2.8-2,4.7-4.5,4.7s-4.4-1.9-4.4-4.7S185.6,56.6,188,56.6z"/>
<path class="st0" d="M177.5,138.7h21.3l3.8,16.2H224l-23.2-76.3h-24.4l-23.2,76.3h20.7L177.5,138.7L177.5,138.7z M187.8,93.7h0.5
	c1.9,7.6,3.8,16.9,5.6,24.2l1.2,5.3h-14l1.2-5.3C184.3,110.6,186.2,101.4,187.8,93.7L187.8,93.7z"/>
<path class="st0" d="M120.3,156.3c-3.3,0-7.5-6.1-15.7-6.1s-15.3,4.9-16,17.9l12.9,0.9c0.5-4,1.9-4.9,3.8-4.9
	c3.3,0,7.5,6.1,15.7,6.1s15.3-4.9,16-17.8l-12.9-0.9C123.6,155.4,122.2,156.3,120.3,156.3L120.3,156.3z"/>
<path class="st0" d="M124.5,196.5c0,9.4,1.6,20.9,2.6,29.1h-0.5l-7.3-17.1l-16.9-34.1H81.8v76.3H101v-22.1c0-9.4-1.6-20.4-2.6-29.1
	h0.5l7.3,17l16.9,34.2h20.7v-76.3h-19.3V196.5L124.5,196.5z"/>
</svg>
