<?xml version="1.0" encoding="utf-8"?>
<!-- Generator: Adobe Illustrator 24.2.0, SVG Export Plug-In . SVG Version: 6.00 Build 0)  -->
<!DOCTYPE svg PUBLIC "-//W3C//DTD SVG 1.1//EN" "http://www.w3.org/Graphics/SVG/1.1/DTD/svg11.dtd" [
	<!ENTITY ns_extend "http://ns.adobe.com/Extensibility/1.0/">
	<!ENTITY ns_ai "http://ns.adobe.com/AdobeIllustrator/10.0/">
	<!ENTITY ns_graphs "http://ns.adobe.com/Graphs/1.0/">
	<!ENTITY ns_vars "http://ns.adobe.com/Variables/1.0/">
	<!ENTITY ns_imrep "http://ns.adobe.com/ImageReplacement/1.0/">
	<!ENTITY ns_sfw "http://ns.adobe.com/SaveForWeb/1.0/">
	<!ENTITY ns_custom "http://ns.adobe.com/GenericCustomNamespace/1.0/">
	<!ENTITY ns_adobe_xpath "http://ns.adobe.com/XPath/1.0/">
]>
<svg version="1.1" id="a" xmlns:x="&ns_extend;" xmlns:i="&ns_ai;" xmlns:graph="&ns_graphs;"
	 xmlns="http://www.w3.org/2000/svg" xmlns:xlink="http://www.w3.org/1999/xlink" x="0px" y="0px" viewBox="0 0 300 300"
	 style="enable-background:new 0 0 300 300;" xml:space="preserve">
<style type="text/css">
	.st0{fill:#223A73;}
</style>
<metadata>
	<sfw  xmlns="&ns_sfw;">
		<slices></slices>
		<sliceSourceBounds  bottomLeftOrigin="true" height="98.3" width="145" x="77.5" y="100.9"></sliceSourceBounds>
	</sfw>
</metadata>
<g>
	<path class="st0" d="M87.5,142.1l-5.7,0.1c-2.4,0-4.4,0.7-4.3,1.6c0.2,2.8,0.9,8.6,1.4,11.7c0.1,0.9,0.6,1.5,4,1.5
		c3.2-0.1,5.8-0.3,5.9-1.6c0.4-3.4,0.9-10.2,1-12.5C89.7,142.5,88.7,142.1,87.5,142.1L87.5,142.1z"/>
	<path class="st0" d="M212.7,159.1l5.7-0.6c2.4-0.3,4.3-1.2,4.1-2c-0.5-2.7-1.8-8.5-2.6-11.5c-0.2-0.8-0.8-1.5-4.1-1.1
		c-3.2,0.4-5.7,0.9-5.7,2.2c-0.1,3.5,0.1,10.2,0.3,12.5C210.5,159,211.5,159.2,212.7,159.1L212.7,159.1z"/>
	<path class="st0" d="M144.2,100.8h-5.7c-2.4,0-4.4,4.6-4.3,10.1c0.3,18.5,1,57.6,1.5,78.2c0.1,5.8,0.6,10.3,4,10
		c3.2-0.2,5.8-1.9,5.9-10.1c0.4-22.9,0.9-67.9,0.9-83.2C146.4,103.1,145.4,100.8,144.2,100.8L144.2,100.8z"/>
	<path class="st0" d="M98.9,168.9l5.7-0.1c2.4,0,4.3-1.8,4.1-3.9c-0.6-7.1-1.9-22-2.7-29.9c-0.2-2.2-0.8-3.9-4.1-3.8
		c-3.2,0.1-5.7,0.8-5.8,3.9c-0.1,8.8,0.2,26,0.4,31.9C96.6,168,97.7,168.9,98.9,168.9L98.9,168.9z"/>
	<path class="st0" d="M176.6,173l5.7-0.1c2.4,0,4.3-2.1,4.1-4.6c-0.6-8.4-2.1-26-2.9-35.4c-0.2-2.6-0.8-4.6-4.2-4.5
		c-3.2,0.1-5.7,0.9-5.7,4.6c0,10.4,0.4,30.7,0.6,37.6C174.3,172,175.4,173,176.6,173L176.6,173z"/>
	<path class="st0" d="M118.6,183.5l5.7-0.1c2.4,0,4.2-3.1,4-6.9c-0.9-12.6-2.9-39.2-4-53.3c-0.3-3.9-0.9-7-4.3-6.8
		c-3.2,0.2-5.7,1.3-5.6,7c0.3,15.6,1.3,46.3,1.8,56.7C116.3,182,117.4,183.6,118.6,183.5L118.6,183.5z"/>
	<path class="st0" d="M197.2,185l5.7-0.1c2.4,0,4.2-3.1,4-6.9c-0.9-12.6-2.9-39.2-4-53.3c-0.3-3.9-0.9-7-4.3-6.8
		c-3.2,0.2-5.7,1.3-5.6,7c0.3,15.6,1.4,46.3,1.8,56.7C194.9,183.5,196,185,197.2,185L197.2,185z"/>
	<path class="st0" d="M158.8,190l5.7-0.1c2.4,0,4.2-3.7,3.9-8.2c-1-15-3.3-46.6-4.6-63.3c-0.4-4.7-1-8.3-4.4-8.1
		c-3.2,0.2-5.7,1.6-5.5,8.2c0.5,18.5,1.9,55,2.4,67.3C156.5,188.2,157.6,190,158.8,190L158.8,190z"/>
</g>
</svg>
