<?xml version="1.0" encoding="utf-8"?>
<!-- Generator: Adobe Illustrator 24.2.0, SVG Export Plug-In . SVG Version: 6.00 Build 0)  -->
<!DOCTYPE svg PUBLIC "-//W3C//DTD SVG 1.1//EN" "http://www.w3.org/Graphics/SVG/1.1/DTD/svg11.dtd" [
	<!ENTITY ns_extend "http://ns.adobe.com/Extensibility/1.0/">
	<!ENTITY ns_ai "http://ns.adobe.com/AdobeIllustrator/10.0/">
	<!ENTITY ns_graphs "http://ns.adobe.com/Graphs/1.0/">
	<!ENTITY ns_vars "http://ns.adobe.com/Variables/1.0/">
	<!ENTITY ns_imrep "http://ns.adobe.com/ImageReplacement/1.0/">
	<!ENTITY ns_sfw "http://ns.adobe.com/SaveForWeb/1.0/">
	<!ENTITY ns_custom "http://ns.adobe.com/GenericCustomNamespace/1.0/">
	<!ENTITY ns_adobe_xpath "http://ns.adobe.com/XPath/1.0/">
]>
<svg version="1.1" id="a" xmlns:x="&ns_extend;" xmlns:i="&ns_ai;" xmlns:graph="&ns_graphs;"
	 xmlns="http://www.w3.org/2000/svg" xmlns:xlink="http://www.w3.org/1999/xlink" x="0px" y="0px" viewBox="0 0 300 300"
	 style="enable-background:new 0 0 300 300;" xml:space="preserve">
<style type="text/css">
	.st0{fill:#223A73;}
</style>
<metadata>
	<sfw  xmlns="&ns_sfw;">
		<slices></slices>
		<sliceSourceBounds  bottomLeftOrigin="true" height="110.3" width="67.5" x="121.5" y="94.9"></sliceSourceBounds>
	</sfw>
</metadata>
<path class="st0" d="M125.8,205l10.4-0.1c4.5,0,7.9-6.2,7.7-13.8c-0.8-25-2.9-54.9-4.1-82.8c-0.3-7.8-1.3-13.9-7.4-13.5
	c-5.8,0.4-10.5,2.6-10.6,13.7c-0.3,31-0.3,68.9-0.1,89.6C121.6,201.9,123.5,205,125.8,205L125.8,205z"/>
<path class="st0" d="M185,95l-10.4-0.1c-4.5,0-8.1,6.1-8,13.6c0.2,25.1,1.5,54.9,2,82.9c0.1,7.8,1,13.9,7.1,13.6
	c5.8-0.3,10.5-2.4,10.9-13.6c1.1-30.9,2.1-68.9,2.4-89.6C189.1,98.1,187.2,95,185,95L185,95z"/>
</svg>
