<?xml version="1.0" encoding="utf-8"?>
<!-- Generator: Adobe Illustrator 24.2.0, SVG Export Plug-In . SVG Version: 6.00 Build 0)  -->
<!DOCTYPE svg PUBLIC "-//W3C//DTD SVG 1.1//EN" "http://www.w3.org/Graphics/SVG/1.1/DTD/svg11.dtd" [
	<!ENTITY ns_extend "http://ns.adobe.com/Extensibility/1.0/">
	<!ENTITY ns_ai "http://ns.adobe.com/AdobeIllustrator/10.0/">
	<!ENTITY ns_graphs "http://ns.adobe.com/Graphs/1.0/">
	<!ENTITY ns_vars "http://ns.adobe.com/Variables/1.0/">
	<!ENTITY ns_imrep "http://ns.adobe.com/ImageReplacement/1.0/">
	<!ENTITY ns_sfw "http://ns.adobe.com/SaveForWeb/1.0/">
	<!ENTITY ns_custom "http://ns.adobe.com/GenericCustomNamespace/1.0/">
	<!ENTITY ns_adobe_xpath "http://ns.adobe.com/XPath/1.0/">
]>
<svg version="1.1" id="a" xmlns:x="&ns_extend;" xmlns:i="&ns_ai;" xmlns:graph="&ns_graphs;"
	 xmlns="http://www.w3.org/2000/svg" xmlns:xlink="http://www.w3.org/1999/xlink" x="0px" y="0px" viewBox="0 0 300 300"
	 style="enable-background:new 0 0 300 300;" xml:space="preserve">
<style type="text/css">
	.st0{fill:#223A73;}
</style>
<metadata>
	<sfw  xmlns="&ns_sfw;">
		<slices></slices>
		<sliceSourceBounds  bottomLeftOrigin="true" height="192.2" width="204" x="48" y="53.9"></sliceSourceBounds>
	</sfw>
</metadata>
<g>
	<circle class="st0" cx="58.8" cy="125" r="10.8"/>
	<path class="st0" d="M66.4,152.9c-0.2-3.8-3.7-6.6-7.5-6.1h-0.1c-3.2,0.5-5.5,3.2-5.5,6.4l-0.6,83.6c-0.1,8.1,9.6,12.3,15.5,6.8
		l0,0c2-1.9,3.1-4.5,2.9-7.2L66.4,152.9L66.4,152.9z"/>
</g>
<g>
	<circle class="st0" cx="149.2" cy="125" r="10.8"/>
	<path class="st0" d="M156.8,152.9c-0.2-3.8-3.7-6.6-7.5-6.1h-0.1c-3.2,0.5-5.5,3.2-5.5,6.4l-0.6,83.6c-0.1,8.1,9.6,12.3,15.5,6.8
		l0,0c2-1.9,3.1-4.5,2.9-7.2L156.8,152.9L156.8,152.9z"/>
</g>
<g>
	<circle class="st0" cx="194.5" cy="155.1" r="10.8"/>
	<path class="st0" d="M202.1,183c-0.2-3.8-3.7-6.6-7.5-6.1h-0.1c-3.2,0.5-5.5,3.2-5.5,6.4l-0.6,53.4c-0.1,8.1,9.6,12.3,15.5,6.8l0,0
		c2-1.9,3.1-4.5,2.9-7.2L202.1,183L202.1,183z"/>
</g>
<g>
	<circle class="st0" cx="104" cy="64.7" r="10.8"/>
	<path class="st0" d="M111.6,92.6c-0.2-3.8-3.7-6.6-7.5-6.1H104c-3.2,0.5-5.5,3.2-5.5,6.4l-0.6,143.9c-0.1,8.1,9.6,12.3,15.5,6.8
		l0,0c2-1.9,3.1-4.5,2.9-7.2L111.6,92.6L111.6,92.6z"/>
</g>
<g>
	<circle class="st0" cx="239.7" cy="64.7" r="10.8"/>
	<path class="st0" d="M247.3,92.6c-0.2-3.8-3.7-6.6-7.5-6.1h-0.1c-3.2,0.5-5.5,3.2-5.5,6.4l-0.6,143.9c-0.1,8.1,9.6,12.3,15.5,6.8
		l0,0c2-1.9,3.1-4.5,2.9-7.2L247.3,92.6L247.3,92.6z"/>
</g>
</svg>
