<?xml version="1.0" encoding="utf-8"?>
<!-- Generator: Adobe Illustrator 24.2.0, SVG Export Plug-In . SVG Version: 6.00 Build 0)  -->
<!DOCTYPE svg PUBLIC "-//W3C//DTD SVG 1.1//EN" "http://www.w3.org/Graphics/SVG/1.1/DTD/svg11.dtd" [
	<!ENTITY ns_extend "http://ns.adobe.com/Extensibility/1.0/">
	<!ENTITY ns_ai "http://ns.adobe.com/AdobeIllustrator/10.0/">
	<!ENTITY ns_graphs "http://ns.adobe.com/Graphs/1.0/">
	<!ENTITY ns_vars "http://ns.adobe.com/Variables/1.0/">
	<!ENTITY ns_imrep "http://ns.adobe.com/ImageReplacement/1.0/">
	<!ENTITY ns_sfw "http://ns.adobe.com/SaveForWeb/1.0/">
	<!ENTITY ns_custom "http://ns.adobe.com/GenericCustomNamespace/1.0/">
	<!ENTITY ns_adobe_xpath "http://ns.adobe.com/XPath/1.0/">
]>
<svg version="1.1" id="a" xmlns:x="&ns_extend;" xmlns:i="&ns_ai;" xmlns:graph="&ns_graphs;"
	 xmlns="http://www.w3.org/2000/svg" xmlns:xlink="http://www.w3.org/1999/xlink" x="0px" y="0px" viewBox="0 0 300 300"
	 style="enable-background:new 0 0 300 300;" xml:space="preserve">
<style type="text/css">
	.st0{fill:#223A73;}
</style>
<metadata>
	<sfw  xmlns="&ns_sfw;">
		<slices></slices>
		<sliceSourceBounds  bottomLeftOrigin="true" height="188.2" width="196.6" x="52.8" y="55.8"></sliceSourceBounds>
	</sfw>
</metadata>
<path class="st0" d="M119.9,190.2c37,0,67.1-30,67.1-67.1S156.9,56,119.9,56s-67.1,30-67.1,67.1S82.8,190.2,119.9,190.2L119.9,190.2
	z M67.9,123.5c0-30,23.3-54.3,52-54.3s52,24.3,52,54.3s-23.3,54.3-52,54.3S67.9,153.5,67.9,123.5z"/>
<path class="st0" d="M125.3,136.9l-0.1,0.1L125.3,136.9 M139.3,129.2l-0.6,92c0,2.8,1.6,4.7,4.2,4.8l80.8,1.5
	c4.9,0.1,10.5-5.9,10.5-11.2l0-80.1c0-2.8-1.6-4.6-4.2-4.7L139.3,129.2 M125.6,118.6c1.5-3.8,4.9-6.1,9.4-6
	c32.9,0.6,65.8,1.3,98.7,1.9c10.5,0.2,15.8,6,15.8,17.3c-0.1,33.7-0.4,67.5-0.7,101.3c0,2-0.3,3.8-0.9,5.3c-1.5,3.8-4.8,5.8-9.6,5.8
	c-17.2-0.3-34.4-0.7-51.6-1c-16.9-0.3-33.7-0.8-50.6-0.9c-8.1-0.1-12-4.2-11.9-13c0.3-35.3,0.5-70.6,0.7-105.9
	C124.7,121.6,125,120,125.6,118.6L125.6,118.6L125.6,118.6z"/>
</svg>
