<?xml version="1.0" encoding="utf-8"?>
<!-- Generator: Adobe Illustrator 24.2.0, SVG Export Plug-In . SVG Version: 6.00 Build 0)  -->
<!DOCTYPE svg PUBLIC "-//W3C//DTD SVG 1.1//EN" "http://www.w3.org/Graphics/SVG/1.1/DTD/svg11.dtd" [
	<!ENTITY ns_extend "http://ns.adobe.com/Extensibility/1.0/">
	<!ENTITY ns_ai "http://ns.adobe.com/AdobeIllustrator/10.0/">
	<!ENTITY ns_graphs "http://ns.adobe.com/Graphs/1.0/">
	<!ENTITY ns_vars "http://ns.adobe.com/Variables/1.0/">
	<!ENTITY ns_imrep "http://ns.adobe.com/ImageReplacement/1.0/">
	<!ENTITY ns_sfw "http://ns.adobe.com/SaveForWeb/1.0/">
	<!ENTITY ns_custom "http://ns.adobe.com/GenericCustomNamespace/1.0/">
	<!ENTITY ns_adobe_xpath "http://ns.adobe.com/XPath/1.0/">
]>
<svg version="1.1" id="a" xmlns:x="&ns_extend;" xmlns:i="&ns_ai;" xmlns:graph="&ns_graphs;"
	 xmlns="http://www.w3.org/2000/svg" xmlns:xlink="http://www.w3.org/1999/xlink" x="0px" y="0px" viewBox="0 0 300 300"
	 style="enable-background:new 0 0 300 300;" xml:space="preserve">
<style type="text/css">
	.st0{fill:#223A73;}
</style>
<metadata>
	<sfw  xmlns="&ns_sfw;">
		<slices></slices>
		<sliceSourceBounds  bottomLeftOrigin="true" height="110.6" width="127.9" x="88.4" y="94.7"></sliceSourceBounds>
	</sfw>
</metadata>
<path class="st0" d="M148.8,96.5L148.8,96.5c-6.1,8.6-8.1,94.6-0.1,106.9l0.1,0.1c2,2.3,5.6,2.4,7.7,0.2l46-48.4
	c1.3-1.4,2.1-3.3,2-5.2c0-1.9-0.7-3.8-2-5.2l-46-48.4C154.4,94.1,150.8,94.2,148.8,96.5L148.8,96.5z"/>
<path class="st0" d="M93.8,96.5L93.8,96.5c-6.1,8.6-8.1,94.6-0.1,106.9l0.1,0.1c2,2.3,5.6,2.4,7.7,0.2l46-48.4
	c1.3-1.4,2.1-3.3,2-5.2c0-1.9-0.7-3.8-2-5.2l-46-48.4C99.4,94.1,95.8,94.2,93.8,96.5L93.8,96.5z"/>
<path class="st0" d="M202.7,205l7.8-0.1c3.4,0,5.9-6.2,5.8-13.8c-0.6-25-2.2-54.9-3.1-82.8c-0.3-7.8-1-13.9-5.6-13.5
	c-4.4,0.4-7.9,2.6-8,13.7c-0.3,31-0.2,68.9-0.1,89.6C199.6,201.9,201,205,202.7,205L202.7,205z"/>
</svg>
