<?xml version="1.0" encoding="utf-8"?>
<!-- Generator: Adobe Illustrator 24.2.0, SVG Export Plug-In . SVG Version: 6.00 Build 0)  -->
<!DOCTYPE svg PUBLIC "-//W3C//DTD SVG 1.1//EN" "http://www.w3.org/Graphics/SVG/1.1/DTD/svg11.dtd" [
	<!ENTITY ns_extend "http://ns.adobe.com/Extensibility/1.0/">
	<!ENTITY ns_ai "http://ns.adobe.com/AdobeIllustrator/10.0/">
	<!ENTITY ns_graphs "http://ns.adobe.com/Graphs/1.0/">
	<!ENTITY ns_vars "http://ns.adobe.com/Variables/1.0/">
	<!ENTITY ns_imrep "http://ns.adobe.com/ImageReplacement/1.0/">
	<!ENTITY ns_sfw "http://ns.adobe.com/SaveForWeb/1.0/">
	<!ENTITY ns_custom "http://ns.adobe.com/GenericCustomNamespace/1.0/">
	<!ENTITY ns_adobe_xpath "http://ns.adobe.com/XPath/1.0/">
]>
<svg version="1.1" id="a" xmlns:x="&ns_extend;" xmlns:i="&ns_ai;" xmlns:graph="&ns_graphs;"
	 xmlns="http://www.w3.org/2000/svg" xmlns:xlink="http://www.w3.org/1999/xlink" x="0px" y="0px" viewBox="0 0 300 300"
	 style="enable-background:new 0 0 300 300;" xml:space="preserve">
<style type="text/css">
	.st0{fill:#223A73;}
</style>
<metadata>
	<sfw  xmlns="&ns_sfw;">
		<slices></slices>
		<sliceSourceBounds  bottomLeftOrigin="true" height="110.6" width="151" x="76" y="94.3"></sliceSourceBounds>
	</sfw>
</metadata>
<g>
	<path class="st0" d="M139.6,203.9L139.6,203.9c6.1-8.6,8.1-94.6,0.1-106.9l-0.1-0.1c-2-2.3-5.6-2.4-7.7-0.2l-46,48.4
		c-1.3,1.4-2.1,3.3-2,5.2c0,1.9,0.7,3.8,2,5.2l46,48.4C134,206.3,137.6,206.2,139.6,203.9L139.6,203.9z"/>
	<path class="st0" d="M76.4,137.1L76.4,137.1L76.4,137.1 M76.5,131c0.5-1.3,1.6-2,3.1-2c10.9,0.2,21.7,0.4,32.6,0.6
		c3.5,0.1,5.2,2,5.2,5.7c-0.1,11.1-0.1,22.3-0.2,33.5c0,0.7-0.1,1.2-0.3,1.7c-0.5,1.3-1.6,1.9-3.2,1.9c-5.7-0.1-11.4-0.2-17.1-0.3
		c-5.6-0.1-11.1-0.2-16.7-0.3c-2.7,0-4-1.4-3.9-4.3c0.1-11.7,0.2-23.3,0.2-35C76.2,132,76.3,131.5,76.5,131L76.5,131L76.5,131z"/>
</g>
<path class="st0" d="M226.1,186.7L205,161.6c-0.4-0.8-5.6-6-5.6-11.2c0-5.6,4.8-11.2,5.6-11.6l21.1-25.5c1.2-1.6,1.2-3.6,0-5.2l0,0
	c-1.6-2-4.4-2-6,0l-29.5,30.3l-29.1-30.7c-1.6-1.6-4.4-1.6-6,0l0,0c-1.2,1.6-1.2,3.6,0,5.2l20.7,25.5c0.4,0.8,5.6,6,5.6,11.2
	c0,5.6-4.8,11.2-5.6,11.6l-21.1,25.1c-1.2,1.6-1.2,3.6,0,5.2l0,0c1.6,2,4.4,2,6,0l29.1-30.7l29.1,30.7c1.6,1.6,4.4,1.6,6,0l0,0
	C227.3,190.3,227.3,187.9,226.1,186.7z"/>
</svg>
