<?xml version="1.0" encoding="utf-8"?>
<!-- Generator: Adobe Illustrator 24.2.0, SVG Export Plug-In . SVG Version: 6.00 Build 0)  -->
<!DOCTYPE svg PUBLIC "-//W3C//DTD SVG 1.1//EN" "http://www.w3.org/Graphics/SVG/1.1/DTD/svg11.dtd" [
	<!ENTITY ns_extend "http://ns.adobe.com/Extensibility/1.0/">
	<!ENTITY ns_ai "http://ns.adobe.com/AdobeIllustrator/10.0/">
	<!ENTITY ns_graphs "http://ns.adobe.com/Graphs/1.0/">
	<!ENTITY ns_vars "http://ns.adobe.com/Variables/1.0/">
	<!ENTITY ns_imrep "http://ns.adobe.com/ImageReplacement/1.0/">
	<!ENTITY ns_sfw "http://ns.adobe.com/SaveForWeb/1.0/">
	<!ENTITY ns_custom "http://ns.adobe.com/GenericCustomNamespace/1.0/">
	<!ENTITY ns_adobe_xpath "http://ns.adobe.com/XPath/1.0/">
]>
<svg version="1.1" id="Layer_1" xmlns:x="&ns_extend;" xmlns:i="&ns_ai;" xmlns:graph="&ns_graphs;"
	 xmlns="http://www.w3.org/2000/svg" xmlns:xlink="http://www.w3.org/1999/xlink" x="0px" y="0px" viewBox="0 0 32 32"
	 style="enable-background:new 0 0 32 32;" xml:space="preserve">
<style type="text/css">
	.st0{fill:#223A73;}
</style>
<metadata>
	<sfw  xmlns="&ns_sfw;">
		<slices></slices>
		<sliceSourceBounds  bottomLeftOrigin="true" height="17.9" width="21.7" x="5.9" y="7.1"></sliceSourceBounds>
	</sfw>
</metadata>
<g id="Layer_34">
	<path class="st0" d="M24.1,23.3c-0.2,0-0.4-0.1-0.5-0.2c-0.3-0.3-0.3-0.8,0-1.1l0,0c2.9-2.9,4.9-7.2,0-12c-0.3-0.3-0.3-0.8,0-1.1
		s0.8-0.3,1.1,0c3.9,3.9,3.9,10.2,0,14.2C24.5,23.2,24.3,23.3,24.1,23.3z"/>
	<path class="st0" d="M21.9,21.1c-0.2,0-0.4-0.1-0.5-0.2c-0.3-0.3-0.2-0.8,0-1c2.9-2.1,2.8-5.5,0-7.6l0,0c-0.3-0.3-0.2-0.8,0.1-1.1
		c0.3-0.2,0.7-0.2,1,0c2.7,2.7,2.7,7.1,0,9.8C22.3,21.1,22.1,21.1,21.9,21.1z"/>
	<path class="st0" d="M20.3,13.3L20.3,13.3c-0.1-0.1-0.3-0.2-0.6-0.2c-0.4,0-0.8,0.3-0.8,0.8c0,0.2,0.1,0.4,0.2,0.5l0,0
		c0.4,0.4,1,1.6,1,2.3c0,1.3-1.3,1.7-2.6,1.7v1.5c1,0,2-0.4,2.7-1.1C21.8,17.2,21.8,14.8,20.3,13.3z"/>
</g>
<g>
	<g id="Layer_34_1_">
		<path class="st0" d="M17.7,24.9c-0.1,0-0.3,0-0.4-0.1L10.4,20c-0.2-0.1-0.3-0.3-0.3-0.6l0.5-6.8c0-0.2,0.3-0.7,0.5-0.8l6.3-4.7
			C17.5,7,17.7,7,18,7.1c0.2,0.1,0.4,0.4,0.4,0.6v16.5c0,0.3-0.1,0.5-0.4,0.6C17.9,24.9,17.8,24.9,17.7,24.9z M10.9,19l6.2,4.2
			l0.4-15l-6,4.7L10.9,19z"/>
		<path class="st0" d="M10.8,20.1H8c-1.1,0-2.1-0.9-2.1-2.1v-4.1c0-1.1,0.9-2.1,2.1-2.1h2.8c0.4,0,0.7,0.3,0.7,0.7l-0.8,6.6
			C10.6,19.5,11.1,20.1,10.8,20.1z M7.4,12.6c-0.4,0-0.7,0.3-0.7,0.7v5.3c0,0.4,0.3,0.7,0.7,0.7L10,19l0.4-6L7.4,12.6z"/>
	</g>
</g>
</svg>
