<?xml version="1.0" encoding="utf-8"?>
<!-- Generator: Adobe Illustrator 24.2.0, SVG Export Plug-In . SVG Version: 6.00 Build 0)  -->
<!DOCTYPE svg PUBLIC "-//W3C//DTD SVG 1.1//EN" "http://www.w3.org/Graphics/SVG/1.1/DTD/svg11.dtd" [
	<!ENTITY ns_extend "http://ns.adobe.com/Extensibility/1.0/">
	<!ENTITY ns_ai "http://ns.adobe.com/AdobeIllustrator/10.0/">
	<!ENTITY ns_graphs "http://ns.adobe.com/Graphs/1.0/">
	<!ENTITY ns_vars "http://ns.adobe.com/Variables/1.0/">
	<!ENTITY ns_imrep "http://ns.adobe.com/ImageReplacement/1.0/">
	<!ENTITY ns_sfw "http://ns.adobe.com/SaveForWeb/1.0/">
	<!ENTITY ns_custom "http://ns.adobe.com/GenericCustomNamespace/1.0/">
	<!ENTITY ns_adobe_xpath "http://ns.adobe.com/XPath/1.0/">
]>
<svg version="1.1" id="Layer_1" xmlns:x="&ns_extend;" xmlns:i="&ns_ai;" xmlns:graph="&ns_graphs;"
	 xmlns="http://www.w3.org/2000/svg" xmlns:xlink="http://www.w3.org/1999/xlink" x="0px" y="0px" viewBox="0 0 32 32"
	 style="enable-background:new 0 0 32 32;" xml:space="preserve">
<style type="text/css">
	.st0{fill:#223A73;}
</style>
<metadata>
	<sfw  xmlns="&ns_sfw;">
		<slices></slices>
		<sliceSourceBounds  bottomLeftOrigin="true" height="17.3" width="19.4" x="5.9" y="7.7"></sliceSourceBounds>
	</sfw>
</metadata>
<g>
	<g id="Layer_34">
		<path class="st0" d="M17.2,24.3c-0.1,0-0.3,0-0.4-0.1l-6.6-4.6C10,19.4,9.9,19.2,9.9,19l0.5-6.5c0-0.2,0.3-0.7,0.4-0.8l6-4.5
			C17,7,17.3,7,17.5,7.1s0.4,0.3,0.4,0.6v15.9c0,0.2-0.1,0.5-0.4,0.6C17.4,24.3,17.3,24.3,17.2,24.3z M10.7,18.6l6,4l0.4-14.5
			l-5.8,4.5L10.7,18.6z"/>
		<path class="st0" d="M10.6,19.6H7.9c-1.1,0-2-0.9-2-2v-4c0-1.1,0.9-2,2-2h2.7c0.4,0,0.7,0.3,0.7,0.7l-0.8,6.3
			C10.5,19.1,11,19.6,10.6,19.6z M7.4,12.4c-0.4,0-0.7,0.3-0.7,0.7v5.1c0,0.4,0.3,0.7,0.7,0.7l2.5-0.3l0.4-5.8L7.4,12.4z"/>
	</g>
	<path class="st0" d="M25.2,19.2l-2-2.3c0-0.1-0.5-0.6-0.5-1c0-0.5,0.4-1,0.5-1.1l2-2.4c0.1-0.1,0.1-0.3,0-0.5l0,0
		c-0.1-0.2-0.4-0.2-0.6,0l-2.8,2.8l-2.7-2.9c-0.1-0.1-0.4-0.1-0.6,0l0,0c-0.1,0.1-0.1,0.3,0,0.5l1.9,2.4c0,0.1,0.5,0.6,0.5,1
		c0,0.5-0.4,1-0.5,1.1l-2,2.3c-0.1,0.1-0.1,0.3,0,0.5l0,0c0.1,0.2,0.4,0.2,0.6,0l2.7-2.9l2.7,2.9c0.1,0.1,0.4,0.1,0.6,0l0,0
		C25.3,19.6,25.3,19.3,25.2,19.2z"/>
</g>
</svg>
