<?xml version="1.0" encoding="utf-8"?>
<!-- Generator: Adobe Illustrator 24.2.0, SVG Export Plug-In . SVG Version: 6.00 Build 0)  -->
<!DOCTYPE svg PUBLIC "-//W3C//DTD SVG 1.1//EN" "http://www.w3.org/Graphics/SVG/1.1/DTD/svg11.dtd" [
	<!ENTITY ns_extend "http://ns.adobe.com/Extensibility/1.0/">
	<!ENTITY ns_ai "http://ns.adobe.com/AdobeIllustrator/10.0/">
	<!ENTITY ns_graphs "http://ns.adobe.com/Graphs/1.0/">
	<!ENTITY ns_vars "http://ns.adobe.com/Variables/1.0/">
	<!ENTITY ns_imrep "http://ns.adobe.com/ImageReplacement/1.0/">
	<!ENTITY ns_sfw "http://ns.adobe.com/SaveForWeb/1.0/">
	<!ENTITY ns_custom "http://ns.adobe.com/GenericCustomNamespace/1.0/">
	<!ENTITY ns_adobe_xpath "http://ns.adobe.com/XPath/1.0/">
]>
<svg version="1.1" id="a" xmlns:x="&ns_extend;" xmlns:i="&ns_ai;" xmlns:graph="&ns_graphs;"
	 xmlns="http://www.w3.org/2000/svg" xmlns:xlink="http://www.w3.org/1999/xlink" x="0px" y="0px" viewBox="0 0 300 300"
	 style="enable-background:new 0 0 300 300;" xml:space="preserve">
<style type="text/css">
	.st0{fill:#223A73;}
</style>
<metadata>
	<sfw  xmlns="&ns_sfw;">
		<slices></slices>
		<sliceSourceBounds  bottomLeftOrigin="true" height="204" width="212.1" x="45.4" y="44.2"></sliceSourceBounds>
	</sfw>
</metadata>
<path class="st0" d="M45.8,53.9l-0.3,6.7c-0.1,2.9,2,5.4,6.6,5.3c15.3-0.3,179.9,1.6,197,1c4.7-0.2,8.5-0.7,8.4-4.7
	c-0.1-3.8-1.4-6.8-8.2-7c-18.9-0.5-186.1-3.5-198.6-3.5C48.4,51.8,45.9,52.5,45.8,53.9L45.8,53.9z"/>
<path class="st0" d="M57.5,52.7l-6.7-0.3c-2.9-0.1-5.4,2-5.3,6.6c0.3,15.3,0.6,116.6,1.1,133.6c0.2,4.7,0.7,8.5,4.7,8.4
	c3.8-0.1,6.8-1.4,7-8.2c0.5-18.9,1.4-122.7,1.4-135.3C59.6,55.2,58.9,52.7,57.5,52.7L57.5,52.7z"/>
<path class="st0" d="M254.8,59.2l-6.7-0.3c-2.9-0.1-5.4,2-5.3,6.6c0.3,15.3,0.6,116.6,1.1,133.6c0.1,4.7,0.7,8.5,4.7,8.4
	c3.8-0.1,6.8-1.4,6.9-8.2c0.5-18.9,1.4-122.7,1.4-135.3C257,61.8,256.3,59.3,254.8,59.2L254.8,59.2z"/>
<path class="st0" d="M173.2,202.9l0.2-6.5c0.1-2.8-5.3-5-11.9-4.8c-22.1,0.4-79.3-0.8-103.9-0.2c-6.8,0.2-11.1,5.3-10.8,9.1
	c0.2,3.6,2.1,6.5,11.9,6.7c27.3,0.4,90.4-1.7,108.6-1.7C170.4,205.5,173.2,204.3,173.2,202.9L173.2,202.9z"/>
<path class="st0" d="M254.7,197.1l-0.2,6c-0.1,2.6-1.4,4.8-4,4.5c-8.5-0.9-16.1-0.4-25.9-0.8c-2.7-0.1-4.7-1-4.4-4.5
	c0.3-3.4-1.4-9.6,2.4-9.5c10.6,0.3,22.4,1.7,29.5,2.2C253.4,195.1,254.8,195.8,254.7,197.1L254.7,197.1z"/>
<path class="st0" d="M153.9,135.6l-5,4.7c-2.2,2-5,2.7-6.9,0.4c-6.2-7.6-12.6-13.3-20.2-21.4c-2.1-2.2-3-4.6,0.1-7.2
	c2.9-2.5,6.6-8.8,9.6-5.7c8.3,8.7,16.7,19.4,22,25.5C154.4,133,155,134.6,153.9,135.6z"/>
<path class="st0" d="M138.8,135.1l4.7,5c2.1,2.1,4.8,3,6.8,0.8c6.6-7.1,37.4-42.6,45.6-50.3c2.2-2.1,3.3-4.4,0.4-7.2
	c-2.8-2.7-6-9.2-9.2-6.3c-8.9,8.2-41.9,48.5-47.7,54.2C138.4,132.4,137.8,134.1,138.8,135.1L138.8,135.1z"/>
<path class="st0" d="M110.8,154.4l-0.6,6.8c-0.2,2.9,1,5.6,4,5.6c9.8,0.1,56.7-0.9,67.9,0.1c3,0.2,5.5-0.5,5.6-4.5
	c0.1-3.8,2.8-10.7-1.5-11.1c-12-1.1-64.1,1.5-72.1,1.1C112.5,152.3,110.9,152.9,110.8,154.4z"/>
<path class="st0" d="M172.3,192.5l-6.5-0.2c-2.8-0.1-5,5.3-4.8,11.9c0.4,22.1-0.4,16,0.2,40.6c0.2,6.9,5.3,11.1,9.1,10.9
	c3.6-0.2,6.5-2.1,6.7-11.9c0.4-27.3-2-27.1-2.1-45.3C174.9,195.3,173.7,192.5,172.3,192.5L172.3,192.5z"/>
<path class="st0" d="M228.1,203.3l-6-9.1c-1.5-2.4-8-2.2-12.6,2.6c-15.8,16.6-23.2,26.9-39.7,42.7c-5,4.7-6.3,10.5-4,13.6
	c2.2,2.9,5.3,4.3,13.6-1c22.9-14.8,29.9-33.1,45-43.2C227.2,207,228.8,204.5,228.1,203.3z"/>
</svg>
