<?xml version="1.0" encoding="utf-8"?>
<!-- Generator: Adobe Illustrator 24.2.0, SVG Export Plug-In . SVG Version: 6.00 Build 0)  -->
<!DOCTYPE svg PUBLIC "-//W3C//DTD SVG 1.1//EN" "http://www.w3.org/Graphics/SVG/1.1/DTD/svg11.dtd" [
	<!ENTITY ns_extend "http://ns.adobe.com/Extensibility/1.0/">
	<!ENTITY ns_ai "http://ns.adobe.com/AdobeIllustrator/10.0/">
	<!ENTITY ns_graphs "http://ns.adobe.com/Graphs/1.0/">
	<!ENTITY ns_vars "http://ns.adobe.com/Variables/1.0/">
	<!ENTITY ns_imrep "http://ns.adobe.com/ImageReplacement/1.0/">
	<!ENTITY ns_sfw "http://ns.adobe.com/SaveForWeb/1.0/">
	<!ENTITY ns_custom "http://ns.adobe.com/GenericCustomNamespace/1.0/">
	<!ENTITY ns_adobe_xpath "http://ns.adobe.com/XPath/1.0/">
]>
<svg version="1.1" id="a" xmlns:x="&ns_extend;" xmlns:i="&ns_ai;" xmlns:graph="&ns_graphs;"
	 xmlns="http://www.w3.org/2000/svg" xmlns:xlink="http://www.w3.org/1999/xlink" x="0px" y="0px" viewBox="0 0 300 300"
	 style="enable-background:new 0 0 300 300;" xml:space="preserve">
<style type="text/css">
	.st0{fill:#223A73;}
</style>
<metadata>
	<sfw  xmlns="&ns_sfw;">
		<slices></slices>
		<sliceSourceBounds  bottomLeftOrigin="true" height="126" width="96.2" x="101.9" y="86"></sliceSourceBounds>
	</sfw>
</metadata>
<g>
	<path class="st0" d="M101.9,155.8v4.9c0,2.1,4.4,3.7,9.9,3.7c18.1-0.2,60-0.3,80.2-0.7c5.6-0.1,6.3-1.1,6.1-3.9
		c-0.2-2.7-0.9-4.5-9-4.6c-22.4-0.4-67.3-1.2-82.2-1.2C104.1,153.8,101.9,154.7,101.9,155.8L101.9,155.8z"/>
	<path class="st0" d="M198.1,194.4v-4.9c0-2.1-1-3.9-3.1-3.7c-6.9,0.5-81.6,1.8-89.3,2.5c-2.2,0.2-3.8,0.7-3.7,3.5
		c0.1,2.7,0.8,4.9,3.9,4.9c8.6,0.1,84.4-0.5,90.2-0.7C197,196,198.1,195.5,198.1,194.4L198.1,194.4z"/>
	<path class="st0" d="M103.1,212.4v-4.9c0-2.1,1-3.9,3.1-3.7c6.9,0.5,39.6-0.8,47.3-0.1c2.1,0.2,3.8,0.7,3.7,3.5
		c-0.1,2.7-0.8,4.9-3.9,4.9c-8.6,0.1-42.4,2.1-48.1,1.9C104.2,214,103.1,213.4,103.1,212.4L103.1,212.4z"/>
	<path class="st0" d="M198.1,127.5v-4.9c0-2.1-1.4-3.6-5.1-3.4c-12.3,0.6-70.6,2.1-84.4,2.9c-3.8,0.2-6.9,0.8-6.7,3.6
		c0.2,2.7,1.3,4.9,6.8,4.8c15.2-0.1,75.1-0.8,85.3-1.1C195.8,129.4,198.1,128.5,198.1,127.5L198.1,127.5z"/>
	<path class="st0" d="M198.1,177.6v-4.9c0-2.1-2.3-3.4-6.1-3.1c-12.3,0.8-69.7,2.2-83.5,3.2c-3.8,0.3-6.8,0.8-6.6,3.7
		c0.2,2.7,1.3,4.9,6.8,4.8c15.2-0.3,76.1-1,86.2-1.3C196.8,179.7,198.1,178.6,198.1,177.6L198.1,177.6z"/>
	<path class="st0" d="M102,92.1l0.1,4.9c0,2.1,4.1,3.6,9.1,3.3c16.6-0.8,52.5,0.6,71-0.5c5.1-0.3,8.2-4.2,7.9-7.1
		c-0.2-2.7-1.7-4.8-9.1-4.7c-20.4,0.4-60.8,1.5-74.4,2C104.1,90.1,102,91,102,92.1L102,92.1z"/>
	<path class="st0" d="M198.1,143.2v-4.9c0-2.1-1.6-3.2-6.1-3c-14.6,0.9-65.9,2.5-82.2,3.6c-4.5,0.3-8.1,0.9-7.9,3.7
		c0.2,2.7,1.6,4.9,8.1,4.7c18.1-0.4,72.9-1.3,85-1.8C197.1,145.6,198.1,144.3,198.1,143.2L198.1,143.2z"/>
</g>
</svg>
