<?xml version="1.0" encoding="utf-8"?>
<!-- Generator: Adobe Illustrator 24.2.0, SVG Export Plug-In . SVG Version: 6.00 Build 0)  -->
<!DOCTYPE svg PUBLIC "-//W3C//DTD SVG 1.1//EN" "http://www.w3.org/Graphics/SVG/1.1/DTD/svg11.dtd" [
	<!ENTITY ns_extend "http://ns.adobe.com/Extensibility/1.0/">
	<!ENTITY ns_ai "http://ns.adobe.com/AdobeIllustrator/10.0/">
	<!ENTITY ns_graphs "http://ns.adobe.com/Graphs/1.0/">
	<!ENTITY ns_vars "http://ns.adobe.com/Variables/1.0/">
	<!ENTITY ns_imrep "http://ns.adobe.com/ImageReplacement/1.0/">
	<!ENTITY ns_sfw "http://ns.adobe.com/SaveForWeb/1.0/">
	<!ENTITY ns_custom "http://ns.adobe.com/GenericCustomNamespace/1.0/">
	<!ENTITY ns_adobe_xpath "http://ns.adobe.com/XPath/1.0/">
]>
<svg version="1.1" id="a" xmlns:x="&ns_extend;" xmlns:i="&ns_ai;" xmlns:graph="&ns_graphs;"
	 xmlns="http://www.w3.org/2000/svg" xmlns:xlink="http://www.w3.org/1999/xlink" x="0px" y="0px" viewBox="0 0 300 300"
	 style="enable-background:new 0 0 300 300;" xml:space="preserve">
<style type="text/css">
	.st0{fill:#223A73;}
</style>
<metadata>
	<sfw  xmlns="&ns_sfw;">
		<slices></slices>
		<sliceSourceBounds  bottomLeftOrigin="true" height="204.1" width="161.9" x="69" y="47.9"></sliceSourceBounds>
	</sfw>
</metadata>
<g>
	<path class="st0" d="M163.5,246.9c30.2-1.8,44.9-23,41.2-53.4l17.7,14.8c0.9,0.8,2.1,1.2,3.4,1.2c1.3,0,2.5-0.5,3.4-1.3
		c1.7-1.5,2.3-3.8,1.4-6c-0.3-0.7-0.8-1.4-1.3-1.9l-26.5-25.1c-1.2-1.1-2.7-1.7-4.4-1.7h-0.2c-1.6,0-3.2,0.6-4.4,1.8l-26.5,25.1
		c-0.4,0.4-0.7,0.8-1,1.2c-1.3,2.3-0.7,5,1.1,6.6c1.4,1.2,3.2,1.6,5,1.1c0.7-0.2,1.3-0.6,1.9-1.1l19.1-16c0,24.8-6.2,39.3-30.6,39.9
		c-4,0.1-7.2,3.4-7.2,7.4l0,0C155.6,243.8,159.2,247.2,163.5,246.9L163.5,246.9z"/>
	<path class="st0" d="M141,80.5c-30.2,1.8-44.8,23-41.2,53.4l-17.7-14.8c-0.9-0.8-2.1-1.2-3.3-1.2c-1.3,0-2.5,0.5-3.4,1.3
		c-1.7,1.5-2.3,3.8-1.4,6c0.3,0.7,0.8,1.4,1.3,1.9l26.5,25.1c1.2,1.1,2.7,1.7,4.4,1.7h0.2c1.7,0,3.2-0.6,4.4-1.8l26.5-25.2
		c0.4-0.4,0.7-0.8,1-1.2c1.3-2.3,0.7-5-1.1-6.6c-1.4-1.2-3.2-1.6-5-1.1c-0.7,0.2-1.3,0.6-1.9,1.1l-19.1,16
		c0-24.8,6.2-39.3,30.6-39.9c4-0.1,7.2-3.4,7.2-7.4l0,0C148.9,83.6,145.3,80.2,141,80.5L141,80.5z"/>
</g>
<path class="st0" d="M76.5,252.1c-5,0.1-8.6-4.7-7.2-9.4c1.9-6.4,5-15.8,9.2-28.3c7.8-23.5,11.9-35.6,12.3-36.3
	c3.3-6.8,5.6-10.8,7-11.9c1.4-1.2,4-1.7,7.7-1.7c3.8,0,6.3,0.5,7.6,1.5c3.1,2.4,7.5,12.1,13.4,29.4c5.9,17.2,9.3,27.9,10.3,32
	c1,4.1,2.4,9.1,4.2,14.9l0.1,0.2c1.5,4.8-2.2,9.6-7.2,9.4l-1.3,0c-2.9-0.1-5.4-1.9-6.5-4.6c-0.6-1.4-1.2-3-1.8-4.9
	c-1.5-4.6-2.7-7.4-3.4-8.3c-1.3-1.5-4.6-2.2-9.9-2.2c-10.8,0-17.7,0.8-20.6,2.3c-1.6,0.8-3.3,3.8-5.1,8.8c-0.7,1.8-1.2,3.4-1.8,4.7
	C82.1,250.2,79.5,252,76.5,252.1L76.5,252.1L76.5,252.1z M100.2,218.9h9.9c4.1,0,6.1-0.6,6.1-1.8v-0.4c0-4.9-2.8-14.6-8.4-29.3
	c-1.1-2.8-1.8-4.2-2.2-4.2c-0.2,0-0.9,1.5-2.2,4.4c-6.6,15.4-9.9,25.3-9.9,29.5C93.4,218.3,95.7,218.9,100.2,218.9L100.2,218.9z"/>
<path class="st0" d="M165.6,149.6c1.1-4,5.3-6.3,9.3-5c2.5,0.8,5.1,1.6,6.6,2.2c3.8,1.2,8,1.9,12.8,1.9c8.9,0,13.4-3.4,13.4-10.3
	c0-4-1.9-7.2-5.7-9.6c-1.3-0.8-6.2-2.7-14.8-5.8s-14.1-5.7-16.6-8c-2.5-2.3-4.4-4.7-5.6-7.3c-1.2-2.5-1.8-5.8-1.8-9.8
	c0-11.4,5.7-18.9,17-22.4c4.2-1.3,8.3-2,12.5-2h2.1c8.1,0,14.8,1.3,20.1,3.8l0,0c2.9,1.4,4.4,4.5,3.7,7.6l0,0
	c-0.9,3.9-4.9,6.3-8.8,5.2c-0.6-0.2-1.2-0.3-1.9-0.5c-5.5-1.6-10.4-2.4-14.6-2.4s-7.5,0.8-9.9,2.5c-2.4,1.7-3.6,3.6-3.6,5.9
	c0,4.2,1.9,7.4,5.5,9.7c0.4,0.2,5.1,1.9,13.8,5.1c8.8,3.2,14.5,6,17.3,8.5c2.8,2.5,4.8,5,6.1,7.5c1.3,2.5,1.9,5.6,1.9,9.4v2.2
	c0,3.4-0.7,6.7-2.1,10c-4.1,9.8-14.1,14.6-29.8,14.6h-2.2c-7.7,0-14.3-1.3-19.9-3.9c-0.6-0.3-1.2-0.6-1.8-1
	C166,156.1,164.8,152.7,165.6,149.6L165.6,149.6L165.6,149.6z M213.3,50.9v0.9c0,2.3-3.6,6.7-10.8,13.3c-3.1,2.8-6.1,4.2-8.9,4.2
	h-0.5c-2.4,0-4.5-0.8-6.1-2.5c-8.2-8.2-12.4-13.7-12.4-16.2c0-1.8,1.6-2.6,4.7-2.6h1c2.5,0,5.4,1.5,8.4,4.6c3.1,3.1,5.1,4.6,5.9,4.6
	c0.1,0,0.8-0.7,2.1-2.2c1.3-1.4,2.5-2.6,3.4-3.5c2.6-2.4,5-3.6,7.4-3.6C211.4,48,213.3,49,213.3,50.9L213.3,50.9z"/>
</svg>
