<?xml version="1.0" encoding="utf-8"?>
<!-- Generator: Adobe Illustrator 24.2.0, SVG Export Plug-In . SVG Version: 6.00 Build 0)  -->
<!DOCTYPE svg PUBLIC "-//W3C//DTD SVG 1.1//EN" "http://www.w3.org/Graphics/SVG/1.1/DTD/svg11.dtd" [
	<!ENTITY ns_extend "http://ns.adobe.com/Extensibility/1.0/">
	<!ENTITY ns_ai "http://ns.adobe.com/AdobeIllustrator/10.0/">
	<!ENTITY ns_graphs "http://ns.adobe.com/Graphs/1.0/">
	<!ENTITY ns_vars "http://ns.adobe.com/Variables/1.0/">
	<!ENTITY ns_imrep "http://ns.adobe.com/ImageReplacement/1.0/">
	<!ENTITY ns_sfw "http://ns.adobe.com/SaveForWeb/1.0/">
	<!ENTITY ns_custom "http://ns.adobe.com/GenericCustomNamespace/1.0/">
	<!ENTITY ns_adobe_xpath "http://ns.adobe.com/XPath/1.0/">
]>
<svg version="1.1" id="a" xmlns:x="&ns_extend;" xmlns:i="&ns_ai;" xmlns:graph="&ns_graphs;"
	 xmlns="http://www.w3.org/2000/svg" xmlns:xlink="http://www.w3.org/1999/xlink" x="0px" y="0px" viewBox="0 0 300 300"
	 style="enable-background:new 0 0 300 300;" xml:space="preserve">
<style type="text/css">
	.st0{fill:#223A73;}
</style>
<metadata>
	<sfw  xmlns="&ns_sfw;">
		<slices></slices>
		<sliceSourceBounds  bottomLeftOrigin="true" height="215.3" width="221" x="39.5" y="42.4"></sliceSourceBounds>
	</sfw>
</metadata>
<path class="st0" d="M260.4,237.5L215,46.7c-0.4-1.5-1.3-2.7-2.6-3.5c-1.3-0.8-2.8-1-4.3-0.7l-50.1,11.9c-0.6-2.4-2.9-4.2-5.5-4.2
	H45.2c-3.1,0-5.7,2.5-5.7,5.7v196c0,3.1,2.5,5.7,5.7,5.7h107.4c3.1,0,5.7-2.6,5.7-5.7V89.4L197,252.5c0.7,2.9,3.4,4.7,6.3,4.3
	c0.2,0,0.4-0.1,0.5-0.1l52.2-12.4c1.5-0.4,2.7-1.3,3.5-2.6S260.7,238.9,260.4,237.5L260.4,237.5z M50.9,61.6h42.3v184.6H50.9V61.6z
	 M146.9,246.2h-42.3V61.6h42.3V246.2z M206.8,244.3L164.1,64.7l41.2-9.8L248,234.6L206.8,244.3L206.8,244.3z"/>
<path class="st0" d="M79.5,198.5c-0.1,4.3-4,7.6-8.2,7.2h-0.1c-3.6-0.4-6.2-3.3-6.4-6.9L62,104.9c-0.3-9.1,10.4-14.3,17.2-8.4l0,0
	c2.3,2,3.6,4.9,3.5,8L79.5,198.5L79.5,198.5z"/>
<path class="st0" d="M224.7,195.6c0.9,4.2-2.1,8.4-6.4,8.9h-0.1c-3.5,0.5-6.8-1.7-7.8-5.2L186,108.6c-2.4-8.8,6.8-16.3,14.7-12.2
	l0,0c2.7,1.4,4.6,4,5.2,7L224.7,195.6L224.7,195.6z"/>
<path class="st0" d="M118.7,101.2c0.1-4.3,4-7.6,8.2-7.2h0.1c3.6,0.4,6.2,3.3,6.4,6.9l2.8,93.9c0.3,9.1-10.4,14.3-17.2,8.4l0,0
	c-2.3-2-3.6-4.9-3.5-8L118.7,101.2L118.7,101.2z"/>
</svg>
