<?xml version="1.0" encoding="utf-8"?>
<!-- Generator: Adobe Illustrator 26.1.0, SVG Export Plug-In . SVG Version: 6.00 Build 0)  -->
<svg version="1.1" id="Capa_1" xmlns="http://www.w3.org/2000/svg" xmlns:xlink="http://www.w3.org/1999/xlink" x="0px" y="0px"
	 viewBox="0 0 100 100" style="enable-background:new 0 0 100 100;" xml:space="preserve">
<style type="text/css">
	.st0{opacity:0.1;fill:#096B68;enable-background:new    ;}
	.st1{opacity:0.2;fill:#096B68;enable-background:new    ;}
	.st2{opacity:0.5;fill:#096B68;enable-background:new    ;}
	.st3{fill:#096B68;}
	.st4{fill:none;stroke:#E4DECD;stroke-width:2;stroke-miterlimit:10;}
</style>
<g>
	<path class="st0" d="M99.1,46c2.4,30.3-22.8,55.5-53.1,53.1C22.1,97.2,2.8,77.9,0.9,54C-1.5,23.7,23.7-1.5,54,0.9
		C77.9,2.8,97.2,22.1,99.1,46z"/>
	<path class="st1" d="M94.5,45.4c2.8,28.3-20.8,51.9-49.1,49.1c-20.9-2.1-37.8-19-39.9-39.9C2.6,26.3,26.3,2.6,54.6,5.5
		C75.5,7.6,92.4,24.5,94.5,45.4z"/>
	<circle class="st2" cx="50" cy="50" r="40.1"/>
	<circle class="st3" cx="50" cy="50" r="34.8"/>
	<line class="st4" x1="69.6" y1="50" x2="30.5" y2="50"/>
	<line class="st4" x1="50" y1="69.6" x2="50" y2="30.5"/>
</g>
</svg>
