<?xml version="1.0" encoding="utf-8"?>
<!-- Generator: Adobe Illustrator 26.1.0, SVG Export Plug-In . SVG Version: 6.00 Build 0)  -->
<svg version="1.1" id="Capa_1" xmlns="http://www.w3.org/2000/svg" xmlns:xlink="http://www.w3.org/1999/xlink" x="0px" y="0px"
	 viewBox="0 0 100 100" style="enable-background:new 0 0 100 100;" xml:space="preserve">
<style type="text/css">
	.st0{opacity:0.1;fill:#233A71;enable-background:new    ;}
	.st1{opacity:0.2;fill:#233A71;enable-background:new    ;}
	.st2{opacity:0.5;fill:#233A71;enable-background:new    ;}
	.st3{fill:#233A71;}
	.st4{fill:none;stroke:#E4DECD;stroke-width:2;stroke-miterlimit:10;}
</style>
<g>
	<path class="st0" d="M99.09,45.99c2.41,30.31-22.8,55.52-53.1,53.1C22.13,97.19,2.81,77.87,0.91,54.02
		C-1.5,23.71,23.71-1.51,54.02,0.91C77.87,2.81,97.19,22.13,99.09,45.99z"/>
	<path class="st1" d="M94.53,45.42c2.82,28.27-20.84,51.94-49.12,49.11C24.49,92.44,7.56,75.51,5.47,54.58
		C2.64,26.31,26.31,2.64,54.59,5.47C75.51,7.56,92.44,24.49,94.53,45.42z"/>
	<circle class="st2" cx="50" cy="50" r="40.11"/>
	<circle class="st3" cx="50" cy="50" r="34.81"/>
	<line class="st4" x1="69.55" y1="50" x2="30.45" y2="50"/>
	<line class="st4" x1="50" y1="69.55" x2="50" y2="30.45"/>
</g>
</svg>
