<?xml version="1.0" encoding="utf-8"?>
<!-- Generator: Adobe Illustrator 26.1.0, SVG Export Plug-In . SVG Version: 6.00 Build 0)  -->
<svg version="1.1" id="Capa_1" xmlns="http://www.w3.org/2000/svg" xmlns:xlink="http://www.w3.org/1999/xlink" x="0px" y="0px"
	 viewBox="0 0 1000 500" style="enable-background:new 0 0 1000 500;" xml:space="preserve">
<style type="text/css">
	.st0{opacity:0.51;}
	.st1{fill:#060706;}
	.st2{fill:#057A3D;}
	.st3{opacity:0.25;fill:#319965;enable-background:new    ;}
	.st4{opacity:0.4;fill:#319965;enable-background:new    ;}
	.st5{opacity:0.55;fill:#319965;enable-background:new    ;}
	.st6{opacity:0.7;fill:#319965;enable-background:new    ;}
</style>
<g class="st0">
	<path class="st1" d="M61.1,200.8H14.6V19.4h51.7c20.1,0,34.4,1,42.8,3c8.3,2.1,15.2,5.5,20.7,10.2c6.6,5.5,11.7,12.4,15.2,20.6
		c3.6,8.3,5.3,17.6,5.3,27.9c0,10.9-1.8,20.4-5.3,28.5c-3.1,8.2-8.2,14.9-15.2,20.3c-5,4-11.1,6.8-18.2,8.6
		c-6.4,1.7-17.4,2.6-33.2,2.6H70h-8.9V200.8L61.1,200.8z M61.1,101h9.4c11.7,0,20-1.7,24.9-5.1c4.7-3.1,7.1-8.6,7.1-16.5
		c0-7.5-2.3-12.9-6.9-16.2C91,60,82.8,58.4,71,58.4h-9.9V101z"/>
	<path class="st1" d="M300.8,75.6v63.9c0,14.3-1.1,24.7-3.2,31.2c-2.3,6.8-6.2,12.9-11.6,18.3c-5.2,5.4-12.1,9.6-20.6,12.4
		c-8.1,2.7-17.8,4.1-29.2,4.1c-11.3,0-20.9-1.4-28.9-4.1c-8.2-2.6-15.2-6.8-21.1-12.4c-5.4-5.1-9.2-11.1-11.4-18.1
		c-2.2-6.4-3.4-16.9-3.4-31.5V75.6h42.1v66.8c0,10.5,1.8,18,5.3,22.6c3.2,4.8,8.8,7.2,16.7,7.2s13.5-2.3,16.9-6.9
		c3.4-4.6,5.1-12.2,5.1-22.8V75.6H300.8z"/>
	<path class="st1" d="M462.3,147h-95.2c0.2,9.7,2.7,17.2,7.3,22.3c4.8,5.3,11.7,7.9,20.8,7.9c6.6,0,12.3-1.3,17-3.8
		c4.8-2.7,8.3-6.4,10.4-11.1l33.2,13.4c-3.9,9.5-10.9,16.9-21.1,22.1c-10.1,5.3-22.4,7.9-37,7.9c-21.8,0-39.3-6.1-52.5-18.3
		c-13.1-11.9-19.7-27.8-19.7-47.7c0-19.4,6.6-35.6,19.7-48.7c13.1-12.8,29.8-19.2,50.1-19.2c20.6,0,37,6.5,48.9,19.5
		c6.1,6.7,10.7,14.5,13.6,23.4c3,8.9,4.5,19,4.5,30.4L462.3,147L462.3,147z M418.8,122.1c-0.8-6.9-3.4-12.6-8.1-17
		c-4.6-4.4-10.3-6.6-17-6.6c-7,0-12.7,1.9-17.1,5.8c-4.5,4.4-7.4,10.3-8.5,17.7L418.8,122.1L418.8,122.1z"/>
	<path class="st1" d="M487.8,8.7h42.1v65.5c0,6.4-0.1,10.9-0.2,13.3c-0.3,4.2-0.7,7.2-1,9.1c5.2-9,11.1-15.4,17.7-19
		c6.6-3.9,15.2-5.8,25.9-5.8c16.7,0,30.2,6.1,40.7,18.2c10.3,12.3,15.5,28.5,15.5,48.5c0,20.6-5.2,36.9-15.5,48.9
		c-10.4,12.2-24.5,18.3-42.2,18.3c-8.8,0-16.7-2.1-23.4-6.3c-7-4.1-13.3-10.3-18.9-18.8v20.3h-40.6L487.8,8.7L487.8,8.7z
		 M526.9,138.4c0,10,2.6,17.7,7.8,23.1c4.8,5.5,11.7,8.3,20.8,8.3c9,0,16-2.8,21-8.3s7.5-13.2,7.5-23.1c0-9.8-2.5-17.5-7.5-23
		c-5.1-5.6-12.1-8.4-21-8.4c-9,0-15.9,2.8-20.8,8.4C529.6,120.8,526.9,128.5,526.9,138.4z"/>
	<path class="st1" d="M656.2,200.8V8.7h44.4v192.1L656.2,200.8L656.2,200.8z"/>
	<path class="st1" d="M880.7,190.4l9.2-33.7c6.5,5.7,13.5,10,21.3,12.9c7.7,3.1,15.5,4.6,23.3,4.6c5.6,0,9.8-0.9,12.6-2.9
		c2.9-1.7,4.3-4.2,4.3-7.5c0-5.5-5.8-9.6-17.5-12.4c-4-0.9-7.1-1.7-9.2-2.4c-13.5-4-23-8.8-28.6-14.5c-6.1-5.9-9.2-13.5-9.2-22.8
		c0-12.1,4.6-21.8,13.8-29.1c8.8-7.3,21.2-10.9,37-10.9c7.7,0,15.9,0.9,24.5,2.7c7.3,1.5,15.7,4.4,25.4,8.7l-9.2,30.4
		c-6-4.1-11.9-7.1-18-9.1c-5.7-2.1-11.7-3.1-18-3.1c-5.1,0-9,0.8-11.5,2.4c-2.5,1.5-3.7,3.8-3.7,6.8c0,4.3,5.8,8,17.5,11.1
		c3.8,1.2,5.7,1.7,5.8,1.7c15.2,4.3,25.8,9.4,32,15.2c6,6.2,8.9,14.2,8.9,24.1c0,12.8-4.9,23.1-14.8,30.9
		c-10.1,7.9-23.1,11.9-39,11.9c-11.1,0-21.2-1.3-30.5-3.8C898,199.3,889.1,195.5,880.7,190.4z"/>
	<path class="st1" d="M173.6,448.7l-0.2-93.9h-18.7v-31.2h18.7v-37.3h43.9v37.3h18.5v31.2h-18.5v93.9H173.6z"/>
	<path class="st1" d="M256.2,448.7V323.6h40.4V349c5.7-9.9,12.5-17.4,20.3-22.3c7.6-4.7,16.8-7.1,27.6-7.1c8.2,0,15.4,1.2,21.8,3.7
		c6.3,2.8,11.4,6.6,15.3,11.4c3.6,4.8,5.9,9.9,7.1,15.2c1.4,6.9,2.1,15.9,2.1,27.1v71.6h-44.4v-67c0-10.2-1.6-17.4-4.8-21.8
		c-3.2-4.5-8.5-6.8-15.7-6.8c-9.1,0-15.7,3.4-20,10.2c-4.2,6.8-6.3,17.8-6.3,33v52.5L256.2,448.7L256.2,448.7z"/>
	<path class="st1" d="M420.9,448.7V323.6H465v125.1L420.9,448.7L420.9,448.7z M426.5,291.3h0.2c0-4.6,1.6-8.4,4.8-11.4
		c3.2-3.2,7.1-4.8,11.6-4.8c4.8,0,8.7,1.5,11.8,4.6c3.1,3.1,4.6,6.9,4.6,11.6c0,4.8-1.6,8.8-4.8,11.9c-3.1,3.2-7,4.8-11.6,4.8
		c-4.7,0-8.7-1.7-11.9-5.1C428.1,299.9,426.5,296,426.5,291.3z"/>
	<path class="st1" d="M590.9,364.7c-4.3-3.8-8.4-6.6-12.4-8.3c-3.5-1.7-7.7-2.6-12.5-2.6c-8.8,0-15.8,2.9-20.8,8.7
		c-5.2,5.7-7.8,13.5-7.8,23.5c0,9.6,2.7,17.2,8.1,22.8c5.2,5.8,12.4,8.7,21.7,8.7c4.4,0,8.6-0.9,12.6-2.7c4.3-2.1,8-4.8,11.2-8.2
		v38.3c-5.3,2.8-10.6,5-16,6.7c-5.7,1.3-11.1,2-16.2,2c-19.3,0-34.9-6.2-46.7-18.6c-4-4.1-7.4-8.7-10-13.6s-4.6-10.3-6-16.1
		c-1.4-5.8-2-12.1-2-19c0-19.8,6-35.8,18.1-48.1c12.1-12.4,27.8-18.5,47-18.5c6,0,11.8,0.7,17.2,2c5.3,1.3,10.1,3.3,14.5,5.8V364.7
		L590.9,364.7z"/>
	<path class="st1" d="M764.5,438.3l9.2-33.7c6.5,5.7,13.5,10,21.3,12.9c7.7,3,15.5,4.6,23.3,4.6c5.6,0,9.8-1,12.6-2.9
		c2.9-1.7,4.3-4.2,4.3-7.5c0-5.5-5.8-9.6-17.5-12.4c-4-0.9-7.1-1.7-9.2-2.4c-13.5-4-23-8.8-28.6-14.5c-6.1-5.9-9.2-13.5-9.2-22.8
		c0-12.1,4.6-21.8,13.8-29.1c8.8-7.3,21.2-10.9,37-10.9c7.7,0,15.9,0.9,24.5,2.7c7.3,1.5,15.7,4.4,25.4,8.7l-9.2,30.4
		c-6-4-11.9-7.1-18-9c-5.7-2.1-11.7-3.1-18-3.1c-5.1,0-9,0.8-11.5,2.4c-2.5,1.5-3.7,3.8-3.7,6.8c0,4.3,5.8,8,17.5,11.1
		c3.8,1.1,5.7,1.7,5.8,1.7c15.2,4.3,25.8,9.4,32,15.2c6,6.2,8.9,14.2,8.9,24.1c0,12.8-4.9,23.1-14.8,30.9
		c-10.1,7.9-23.1,11.9-39,11.9c-11.1,0-21.2-1.3-30.5-3.8C781.8,447.2,772.9,443.4,764.5,438.3z"/>
	<path class="st1" d="M14.6,448.7V252h120.6v43.3H66.9v34h64.4v42.3H66.9v33.1h68.2v44.1L14.6,448.7L14.6,448.7z M110.5,200.8
		l-32.9,37.4H61.1l19.5-37.4H110.5z"/>
</g>
<g>
	<path class="st2" d="M58,196.4H11.5V15h51.7c20.1,0,34.4,1,42.8,3c8.3,2.1,15.2,5.5,20.7,10.2c6.6,5.5,11.7,12.4,15.2,20.6
		c3.6,8.3,5.3,17.6,5.3,27.9c0,10.9-1.8,20.4-5.3,28.5c-3.1,8.2-8.2,14.9-15.2,20.3c-5,4-11.1,6.8-18.2,8.6
		c-6.4,1.7-17.4,2.6-33.2,2.6h-8.4H58V196.4L58,196.4z M58,96.6h9.4c11.7,0,20-1.7,24.9-5.1c4.7-3.1,7.1-8.6,7.1-16.5
		c0-7.5-2.3-12.9-6.9-16.2C87.9,55.6,79.7,54,67.9,54H58V96.6z"/>
	<path class="st2" d="M297.7,71.2v63.9c0,14.3-1.1,24.7-3.2,31.2c-2.3,6.8-6.2,12.9-11.6,18.3c-5.2,5.4-12.1,9.6-20.6,12.4
		c-8.1,2.7-17.8,4.1-29.2,4.1c-11.3,0-20.9-1.4-28.9-4.1c-8.2-2.6-15.2-6.8-21.1-12.4c-5.4-5.1-9.2-11.1-11.4-18.1
		c-2.2-6.4-3.4-16.9-3.4-31.5V71.2h42.1V138c0,10.5,1.8,18,5.3,22.6c3.2,4.8,8.8,7.2,16.7,7.2s13.5-2.3,16.9-6.9
		c3.4-4.6,5.1-12.2,5.1-22.8V71.2H297.7z"/>
	<path class="st2" d="M459.2,142.6H364c0.2,9.7,2.7,17.2,7.3,22.3c4.8,5.3,11.7,7.9,20.8,7.9c6.6,0,12.3-1.3,17-3.8
		c4.8-2.7,8.3-6.4,10.4-11.1l33.2,13.4c-3.9,9.5-10.9,16.9-21.1,22.1c-10.1,5.3-22.4,7.9-37,7.9c-21.8,0-39.3-6.1-52.5-18.3
		c-13.1-11.9-19.7-27.8-19.7-47.7c0-19.4,6.6-35.6,19.7-48.7c13.1-12.8,29.8-19.2,50.1-19.2c20.6,0,37,6.5,48.9,19.5
		c6.1,6.7,10.7,14.5,13.6,23.4c3,8.9,4.5,19,4.5,30.4L459.2,142.6L459.2,142.6z M415.7,117.7c-0.8-6.9-3.4-12.6-8.1-17
		c-4.6-4.4-10.3-6.6-17-6.6c-7,0-12.7,1.9-17.1,5.8c-4.5,4.4-7.4,10.3-8.5,17.7L415.7,117.7L415.7,117.7z"/>
	<path class="st2" d="M484.7,4.3h42.1v65.5c0,6.4-0.1,10.9-0.2,13.3c-0.3,4.2-0.7,7.2-1,9.1c5.2-9,11.1-15.4,17.7-19
		c6.6-3.9,15.2-5.8,25.9-5.8c16.7,0,30.2,6.1,40.7,18.2c10.3,12.3,15.5,28.5,15.5,48.5c0,20.6-5.2,36.9-15.5,48.9
		c-10.4,12.2-24.5,18.3-42.2,18.3c-8.8,0-16.7-2.1-23.4-6.3c-7-4.1-13.3-10.3-18.9-18.8v20.3h-40.6L484.7,4.3L484.7,4.3z M523.8,134
		c0,10,2.6,17.7,7.8,23.1c4.8,5.5,11.7,8.3,20.8,8.3c9,0,16-2.8,21-8.3s7.5-13.2,7.5-23.1c0-9.8-2.5-17.5-7.5-23
		c-5.1-5.6-12.1-8.4-21-8.4c-9,0-15.9,2.8-20.8,8.4C526.5,116.4,523.8,124.1,523.8,134z"/>
	<path class="st2" d="M653.1,196.4V4.3h44.4v192.1L653.1,196.4L653.1,196.4z"/>
	<path class="st2" d="M877.6,186l9.2-33.7c6.5,5.7,13.5,10,21.3,12.9c7.7,3.1,15.5,4.6,23.3,4.6c5.6,0,9.8-0.9,12.6-2.9
		c2.9-1.7,4.3-4.2,4.3-7.5c0-5.5-5.8-9.6-17.5-12.4c-4-0.9-7.1-1.7-9.2-2.4c-13.5-4-23-8.8-28.6-14.5c-6.1-5.9-9.2-13.5-9.2-22.8
		c0-12.1,4.6-21.8,13.8-29.1c8.8-7.3,21.2-10.9,37-10.9c7.7,0,15.9,0.9,24.5,2.7c7.3,1.5,15.7,4.4,25.4,8.7l-9.2,30.4
		c-6-4.1-11.9-7.1-18-9.1c-5.7-2.1-11.7-3.1-18-3.1c-5.1,0-9,0.8-11.5,2.4c-2.5,1.5-3.7,3.8-3.7,6.8c0,4.3,5.8,8,17.5,11.1
		c3.8,1.2,5.7,1.7,5.8,1.7c15.2,4.3,25.8,9.4,32,15.2c6,6.2,8.9,14.2,8.9,24.1c0,12.8-4.9,23.1-14.8,30.9
		c-10.1,7.9-23.1,11.9-39,11.9c-11.1,0-21.2-1.3-30.5-3.8C894.9,194.9,886,191.1,877.6,186z"/>
	<path class="st2" d="M170.5,444.3l-0.2-93.9h-18.7v-31.2h18.7v-37.3h43.9v37.3h18.5v31.2h-18.5v93.9H170.5z"/>
	<path class="st2" d="M253.1,444.3V319.2h40.4v25.4c5.7-9.9,12.5-17.4,20.3-22.3c7.6-4.7,16.8-7.1,27.6-7.1c8.2,0,15.4,1.2,21.8,3.7
		c6.3,2.8,11.4,6.6,15.3,11.4c3.6,4.8,5.9,9.9,7.1,15.2c1.4,6.9,2.1,15.9,2.1,27.1v71.6h-44.4v-67c0-10.2-1.6-17.4-4.8-21.8
		c-3.2-4.5-8.5-6.8-15.7-6.8c-9.1,0-15.7,3.4-20,10.2c-4.2,6.8-6.3,17.8-6.3,33v52.5L253.1,444.3L253.1,444.3z"/>
	<path class="st2" d="M417.8,444.3V319.2h44.1v125.1L417.8,444.3L417.8,444.3z M423.4,286.9h0.2c0-4.6,1.6-8.4,4.8-11.4
		c3.2-3.2,7.1-4.8,11.6-4.8c4.8,0,8.7,1.5,11.8,4.6c3.1,3.1,4.6,6.9,4.6,11.6c0,4.8-1.6,8.8-4.8,11.9c-3.1,3.2-7,4.8-11.6,4.8
		c-4.7,0-8.7-1.7-11.9-5.1C425,295.5,423.4,291.6,423.4,286.9z"/>
	<path class="st2" d="M587.8,360.3c-4.3-3.8-8.4-6.6-12.4-8.3c-3.5-1.7-7.7-2.6-12.5-2.6c-8.8,0-15.8,2.9-20.8,8.7
		c-5.2,5.7-7.8,13.5-7.8,23.5c0,9.6,2.7,17.2,8.1,22.8c5.2,5.8,12.4,8.7,21.7,8.7c4.4,0,8.6-0.9,12.6-2.7c4.3-2.1,8-4.8,11.2-8.2
		v38.3c-5.3,2.8-10.6,5-16,6.7c-5.7,1.3-11.1,2-16.2,2c-19.3,0-34.9-6.2-46.7-18.6c-4-4.1-7.4-8.7-10-13.6s-4.6-10.3-6-16.1
		c-1.4-5.8-2-12.1-2-19c0-19.8,6-35.8,18.1-48.1c12.1-12.4,27.8-18.5,47-18.5c6,0,11.8,0.7,17.2,2c5.3,1.3,10.1,3.3,14.5,5.8V360.3
		L587.8,360.3z"/>
	<path class="st2" d="M761.4,433.9l9.2-33.7c6.5,5.7,13.5,10,21.3,12.9c7.7,3,15.5,4.6,23.3,4.6c5.6,0,9.8-1,12.6-2.9
		c2.9-1.7,4.3-4.2,4.3-7.5c0-5.5-5.8-9.6-17.5-12.4c-4-0.9-7.1-1.7-9.2-2.4c-13.5-4-23-8.8-28.6-14.5c-6.1-5.9-9.2-13.5-9.2-22.8
		c0-12.1,4.6-21.8,13.8-29.1c8.8-7.3,21.2-10.9,37-10.9c7.7,0,15.9,0.9,24.5,2.7c7.3,1.5,15.7,4.4,25.4,8.7l-9.2,30.4
		c-6-4-11.9-7.1-18-9c-5.7-2.1-11.7-3.1-18-3.1c-5.1,0-9,0.8-11.5,2.4c-2.5,1.5-3.7,3.8-3.7,6.8c0,4.3,5.8,8,17.5,11.1
		c3.8,1.1,5.7,1.7,5.8,1.7c15.2,4.3,25.8,9.4,32,15.2c6,6.2,8.9,14.2,8.9,24.1c0,12.8-4.9,23.1-14.8,30.9
		c-10.1,7.9-23.1,11.9-39,11.9c-11.1,0-21.2-1.3-30.5-3.8C778.7,442.8,769.8,439,761.4,433.9z"/>
	<path class="st2" d="M11.5,444.3V247.6h120.6v43.3H63.8v34h64.4v42.3H63.8v33.1H132v44.1L11.5,444.3L11.5,444.3z M107.4,196.4
		l-32.9,37.4H58l19.5-37.4H107.4z"/>
</g>
<g>
	<path class="st3" d="M787.5,8.1c-61.9,0-112,50.1-112,112s50.1,112,112,112s112-50.1,112-112S849.4,8.1,787.5,8.1z M787.5,224.3
		c-57.5,0-104.2-46.7-104.2-104.2c0-57.5,46.7-104.2,104.2-104.2s104.2,46.7,104.2,104.2C891.7,177.6,845,224.3,787.5,224.3z"/>
	<path class="st3" d="M787.5,15.9c-57.5,0-104.2,46.7-104.2,104.2c0,57.5,46.7,104.2,104.2,104.2s104.2-46.7,104.2-104.2
		C891.7,62.6,845,15.9,787.5,15.9z M787.5,214.8c-52.3,0-94.7-42.4-94.7-94.7c0-52.3,42.4-94.7,94.7-94.7s94.7,42.4,94.7,94.7
		C882.2,172.4,839.8,214.8,787.5,214.8z"/>
	<path class="st4" d="M787.5,15.9c-57.5,0-104.2,46.7-104.2,104.2c0,57.5,46.7,104.2,104.2,104.2s104.2-46.7,104.2-104.2
		C891.7,62.6,845,15.9,787.5,15.9z M787.5,214.8c-52.3,0-94.7-42.4-94.7-94.7c0-52.3,42.4-94.7,94.7-94.7s94.7,42.4,94.7,94.7
		C882.2,172.4,839.8,214.8,787.5,214.8z"/>
	<path class="st3" d="M787.5,25.4c-52.3,0-94.7,42.4-94.7,94.7c0,52.3,42.4,94.7,94.7,94.7s94.7-42.4,94.7-94.7
		C882.2,67.8,839.8,25.4,787.5,25.4z M787.5,205c-46.9,0-84.9-38-84.9-84.9s38-84.9,84.9-84.9s84.9,38,84.9,84.9
		S834.4,205,787.5,205z"/>
	<path class="st4" d="M787.5,25.4c-52.3,0-94.7,42.4-94.7,94.7c0,52.3,42.4,94.7,94.7,94.7s94.7-42.4,94.7-94.7
		C882.2,67.8,839.8,25.4,787.5,25.4z M787.5,205c-46.9,0-84.9-38-84.9-84.9s38-84.9,84.9-84.9s84.9,38,84.9,84.9
		S834.4,205,787.5,205z"/>
	<path class="st5" d="M787.5,25.4c-52.3,0-94.7,42.4-94.7,94.7c0,52.3,42.4,94.7,94.7,94.7s94.7-42.4,94.7-94.7
		C882.2,67.8,839.8,25.4,787.5,25.4z M787.5,205c-46.9,0-84.9-38-84.9-84.9s38-84.9,84.9-84.9s84.9,38,84.9,84.9
		S834.4,205,787.5,205z"/>
	<path class="st3" d="M787.5,35.2c-46.9,0-84.9,38-84.9,84.9s38,84.9,84.9,84.9s84.9-38,84.9-84.9S834.4,35.2,787.5,35.2z
		 M787.5,193.8c-40.7,0-73.7-33-73.7-73.7s33-73.7,73.7-73.7s73.7,33,73.7,73.7S828.2,193.8,787.5,193.8z"/>
	<path class="st4" d="M787.5,35.2c-46.9,0-84.9,38-84.9,84.9s38,84.9,84.9,84.9s84.9-38,84.9-84.9S834.4,35.2,787.5,35.2z
		 M787.5,193.8c-40.7,0-73.7-33-73.7-73.7s33-73.7,73.7-73.7s73.7,33,73.7,73.7S828.2,193.8,787.5,193.8z"/>
	<path class="st5" d="M787.5,35.2c-46.9,0-84.9,38-84.9,84.9s38,84.9,84.9,84.9s84.9-38,84.9-84.9S834.4,35.2,787.5,35.2z
		 M787.5,193.8c-40.7,0-73.7-33-73.7-73.7s33-73.7,73.7-73.7s73.7,33,73.7,73.7S828.2,193.8,787.5,193.8z"/>
	<path class="st6" d="M787.5,35.2c-46.9,0-84.9,38-84.9,84.9s38,84.9,84.9,84.9s84.9-38,84.9-84.9S834.4,35.2,787.5,35.2z
		 M787.5,193.8c-40.7,0-73.7-33-73.7-73.7s33-73.7,73.7-73.7s73.7,33,73.7,73.7S828.2,193.8,787.5,193.8z"/>
</g>
<g>
	<path class="st3" d="M675.2,267.8c-61.9,0-112,50.1-112,112s50.1,112,112,112s112-50.1,112-112S737.1,267.8,675.2,267.8z
		 M675.2,484C617.7,484,571,437.3,571,379.8c0-57.5,46.7-104.2,104.2-104.2s104.2,46.7,104.2,104.2C779.4,437.3,732.7,484,675.2,484
		z"/>
	<path class="st3" d="M675.2,275.6c-57.5,0-104.2,46.7-104.2,104.2c0,57.5,46.7,104.2,104.2,104.2s104.2-46.7,104.2-104.2
		C779.4,322.3,732.7,275.6,675.2,275.6z M675.2,474.5c-52.3,0-94.7-42.4-94.7-94.7c0-52.3,42.4-94.7,94.7-94.7s94.7,42.4,94.7,94.7
		C769.9,432.1,727.5,474.5,675.2,474.5z"/>
	<path class="st4" d="M675.2,275.6c-57.5,0-104.2,46.7-104.2,104.2c0,57.5,46.7,104.2,104.2,104.2s104.2-46.7,104.2-104.2
		C779.4,322.3,732.7,275.6,675.2,275.6z M675.2,474.5c-52.3,0-94.7-42.4-94.7-94.7c0-52.3,42.4-94.7,94.7-94.7s94.7,42.4,94.7,94.7
		C769.9,432.1,727.5,474.5,675.2,474.5z"/>
	<path class="st3" d="M675.2,285.1c-52.3,0-94.7,42.4-94.7,94.7c0,52.3,42.4,94.7,94.7,94.7s94.7-42.4,94.7-94.7
		C769.9,327.5,727.5,285.1,675.2,285.1z M675.2,464.7c-46.9,0-84.9-38-84.9-84.9s38-84.9,84.9-84.9s84.9,38,84.9,84.9
		S722.1,464.7,675.2,464.7z"/>
	<path class="st4" d="M675.2,285.1c-52.3,0-94.7,42.4-94.7,94.7c0,52.3,42.4,94.7,94.7,94.7s94.7-42.4,94.7-94.7
		C769.9,327.5,727.5,285.1,675.2,285.1z M675.2,464.7c-46.9,0-84.9-38-84.9-84.9s38-84.9,84.9-84.9s84.9,38,84.9,84.9
		S722.1,464.7,675.2,464.7z"/>
	<path class="st5" d="M675.2,285.1c-52.3,0-94.7,42.4-94.7,94.7c0,52.3,42.4,94.7,94.7,94.7s94.7-42.4,94.7-94.7
		C769.9,327.5,727.5,285.1,675.2,285.1z M675.2,464.7c-46.9,0-84.9-38-84.9-84.9s38-84.9,84.9-84.9s84.9,38,84.9,84.9
		S722.1,464.7,675.2,464.7z"/>
	<path class="st3" d="M675.2,294.9c-46.9,0-84.9,38-84.9,84.9s38,84.9,84.9,84.9s84.9-38,84.9-84.9S722.1,294.9,675.2,294.9z
		 M675.2,453.5c-40.7,0-73.7-33-73.7-73.7s33-73.7,73.7-73.7s73.7,33,73.7,73.7S715.9,453.5,675.2,453.5z"/>
	<path class="st4" d="M675.2,294.9c-46.9,0-84.9,38-84.9,84.9s38,84.9,84.9,84.9s84.9-38,84.9-84.9S722.1,294.9,675.2,294.9z
		 M675.2,453.5c-40.7,0-73.7-33-73.7-73.7s33-73.7,73.7-73.7s73.7,33,73.7,73.7S715.9,453.5,675.2,453.5z"/>
	<path class="st5" d="M675.2,294.9c-46.9,0-84.9,38-84.9,84.9s38,84.9,84.9,84.9s84.9-38,84.9-84.9S722.1,294.9,675.2,294.9z
		 M675.2,453.5c-40.7,0-73.7-33-73.7-73.7s33-73.7,73.7-73.7s73.7,33,73.7,73.7S715.9,453.5,675.2,453.5z"/>
	<path class="st6" d="M675.2,294.9c-46.9,0-84.9,38-84.9,84.9s38,84.9,84.9,84.9s84.9-38,84.9-84.9S722.1,294.9,675.2,294.9z
		 M675.2,453.5c-40.7,0-73.7-33-73.7-73.7s33-73.7,73.7-73.7s73.7,33,73.7,73.7S715.9,453.5,675.2,453.5z"/>
</g>
</svg>
