<?xml version="1.0" encoding="utf-8"?>
<!-- Generator: Adobe Illustrator 25.4.1, SVG Export Plug-In . SVG Version: 6.00 Build 0)  -->
<svg version="1.1" id="Capa_1" xmlns="http://www.w3.org/2000/svg" xmlns:xlink="http://www.w3.org/1999/xlink" x="0px" y="0px"
	 viewBox="0 0 300 300" style="enable-background:new 0 0 300 300;" xml:space="preserve">
<style type="text/css">
	.st0{opacity:0.25;fill:#319965;}
	.st1{fill:#319965;}
	.st2{opacity:0.3;fill:#319965;}
	.st3{fill:#F5AF5A;}
	.st4{opacity:0.4;fill:#319965;}
	.st5{fill:#7F5699;}
	.st6{opacity:0.6;}
	.st7{fill:#0A9797;}
	.st8{fill:#E4DECD;}
</style>
<g>
	<ellipse transform="matrix(0.7071 -0.7071 0.7071 0.7071 -62.1322 150)" class="st0" cx="150" cy="150" rx="149" ry="149"/>
	<path class="st1" d="M150,2c81.6,0,148,66.4,148,148c0,81.6-66.4,148-148,148S2,231.6,2,150C2,68.4,68.4,2,150,2 M150,0
		C67.3,0,0,67.3,0,150s67.3,150,150,150s150-67.3,150-150S232.7,0,150,0L150,0z"/>
</g>
<g>
	
		<ellipse transform="matrix(0.7071 -0.7071 0.7071 0.7071 -62.1323 150.0002)" class="st2" cx="150" cy="150" rx="140.8" ry="140.8"/>
	<path class="st3" d="M150,10.3c77.1,0,139.7,62.7,139.7,139.8c0,77.1-62.7,139.7-139.7,139.7S10.3,227.1,10.3,150
		C10.3,72.9,72.9,10.3,150,10.3 M150,8.2C71.8,8.2,8.2,71.8,8.2,150c0,78.2,63.6,141.8,141.8,141.8S291.8,228.2,291.8,150
		C291.8,71.8,228.2,8.2,150,8.2L150,8.2z"/>
</g>
<g>
	<circle class="st4" cx="150" cy="150" r="132.5"/>
	<path class="st5" d="M150,18.5c72.5,0,131.5,59,131.5,131.5c0,72.5-59,131.5-131.5,131.5S18.5,222.5,18.5,150
		C18.5,77.5,77.5,18.5,150,18.5 M150,16.4C76.4,16.4,16.4,76.4,16.4,150c0,73.6,59.9,133.6,133.6,133.6S283.6,223.6,283.6,150
		C283.6,76.4,223.6,16.4,150,16.4L150,16.4z"/>
</g>
<g class="st6">
	<circle class="st1" cx="150" cy="150" r="124.3"/>
	<path class="st7" d="M150,26.8c32.9,0,63.8,12.8,87.1,36.1s36.1,54.2,36.1,87.1s-12.8,63.8-36.1,87.1
		c-23.3,23.3-54.2,36.1-87.1,36.1s-63.8-12.8-87.1-36.1c-23.3-23.3-36.1-54.2-36.1-87.1s12.8-63.8,36.1-87.1
		C86.2,39.7,117.1,26.8,150,26.8 M150,24.6C80.8,24.6,24.6,80.8,24.6,150S80.8,275.4,150,275.4S275.4,219.2,275.4,150
		S219.2,24.6,150,24.6L150,24.6z"/>
</g>
<circle class="st8" cx="150" cy="150" r="117.2"/>
</svg>
