<svg xmlns="http://www.w3.org/2000/svg" viewBox="0 0 998.73 1073.56"><defs><style>.cls-1{fill:#e3ddcd;}.cls-2,.cls-3,.cls-6{fill:none;}.cls-2,.cls-3{stroke:#e3ddcd;stroke-miterlimit:10;}.cls-2{stroke-width:3.48px;}.cls-3,.cls-6{stroke-linecap:round;}.cls-3{stroke-width:3.22px;}.cls-4{fill:#fff;}.cls-5{opacity:0.1;}.cls-6{stroke:#345ba6;stroke-linejoin:round;stroke-width:4.83px;}.cls-7{fill:#233b6d;}</style></defs><g id="Capa_2" data-name="Capa 2"><g id="Capa_1-2" data-name="Capa 1"><path class="cls-1" d="M837.16,1020V993.39l-9.11,22.12h-3.6L815,993.39V1020h-3.2V990.64h5.54l9,21.27L835,990.64h5.72V1020Z"/><path class="cls-1" d="M864.86,1018.44a12.81,12.81,0,0,1-7.43,2c-6.45,0-10.59-4.46-10.59-11.49s4-12.12,10-12.12c6.35,0,8.47,4.23,8.47,9.19a20.08,20.08,0,0,1-.36,3.61H850.71c.09,3.69,2.12,7.61,7.35,7.61a12.38,12.38,0,0,0,5.77-1.4Zm-3.11-11.17c0-.45.09-1.08.09-1.54,0-3.33-1.57-5.63-5.13-5.63-4,0-5.86,3.61-6,7.17Z"/><path class="cls-1" d="M885.5,1020v-15.5c0-3.65-1.94-4.46-4.47-4.46a10.15,10.15,0,0,0-6.08,2.3V1020H871.3V997.31h2.21l1.35,2.16a11.46,11.46,0,0,1,7-2.61c5.72,0,7.29,3.29,7.29,7.66V1020Z"/><path class="cls-1" d="M911.58,1020l-1.31-2.21a9.47,9.47,0,0,1-6.57,2.66c-5.41,0-7.3-3.7-7.3-8.07V997.31H900v15.09c0,3.65,1.94,4.87,4.47,4.87a8.14,8.14,0,0,0,5.63-2.34V997.31h3.65V1020Zm-10.05-26.81,4.1-6.63h4.1l-5.18,6.63Z"/><path class="cls-1" d="M947.71,1020l-1-2.12a9.52,9.52,0,0,1-6.26,2.57c-5.73,0-9.74-4.78-9.74-11.22,0-7.21,4.33-12.39,10.77-12.39a12.11,12.11,0,0,1,5.09,1.12V986.13h3.65V1020Zm-1.13-18.88a10.06,10.06,0,0,0-4.73-1.08c-4.55,0-7.3,3.29-7.3,8.74s2.71,8.47,6.63,8.47a8.31,8.31,0,0,0,5.4-2.21Z"/><path class="cls-1" d="M974.07,1018.44a12.85,12.85,0,0,1-7.44,2c-6.44,0-10.59-4.46-10.59-11.49s4-12.12,10.05-12.12c6.36,0,8.47,4.23,8.47,9.19a19.21,19.21,0,0,1-.36,3.61H959.92c.09,3.69,2.12,7.61,7.34,7.61a12.31,12.31,0,0,0,5.77-1.4ZM971,1007.27c0-.45.09-1.08.09-1.54,0-3.33-1.58-5.63-5.14-5.63-4,0-5.86,3.61-5.95,7.17Z"/><path class="cls-1" d="M800.14,1060.24v-15.5c0-3.65-1.93-4.46-4.46-4.46a10.21,10.21,0,0,0-6.08,2.3v17.66H786v-22.71h2.21l1.35,2.17a11.47,11.47,0,0,1,7-2.62c5.72,0,7.29,3.29,7.29,7.66v15.5Z"/><path class="cls-1" d="M829.2,1060a5.69,5.69,0,0,1-2.74.72,3.83,3.83,0,0,1-3.84-2.61,10.1,10.1,0,0,1-7,2.61c-3.65,0-6.45-2.16-6.45-5.76,0-5.91,5.86-7.17,13.43-7.17,0-4,0-7.48-5.09-7.48a12.91,12.91,0,0,0-6,1.35l-.9-2.83a16.33,16.33,0,0,1,7.39-1.72c7,0,8.2,3.83,8.2,10.05v8.16c0,1.48.18,2.34,1.58,2.34a2.37,2.37,0,0,0,.81-.13Zm-6.62-9.82c-5.81,0-9.69.9-9.69,4.33a3.41,3.41,0,0,0,3.65,3.24,8.63,8.63,0,0,0,6-2.39Z"/><path class="cls-1" d="M838.57,1060.24l-8.2-22.71h3.88l6.58,19.43H841l6.67-19.43h3.6l-8.15,22.71Z"/><path class="cls-1" d="M871.46,1058.67a12.9,12.9,0,0,1-7.43,2c-6.45,0-10.59-4.46-10.59-11.48s4-12.13,10-12.13c6.35,0,8.47,4.24,8.47,9.2a20.06,20.06,0,0,1-.36,3.6H857.31c.09,3.7,2.12,7.62,7.35,7.62a12.38,12.38,0,0,0,5.77-1.4Zm-3.11-11.18c0-.45.09-1.08.09-1.53,0-3.33-1.57-5.63-5.13-5.63-4,0-5.86,3.6-5.95,7.16Z"/><path class="cls-1" d="M892,1040.37a6.76,6.76,0,0,1,1.44,4.19,7.88,7.88,0,0,1-8.2,8,7.14,7.14,0,0,1-1.49-.13,3.9,3.9,0,0,0-.9,1.85c0,1,.36,1.57,2.62,1.57,7.66,0,9.91,2.39,9.91,6.36,0,4.28-3.74,7.66-10.18,7.66-4.83,0-8.74-2.08-8.74-6.45,0-3.06,2.25-4.64,4.46-5.45a3.16,3.16,0,0,1-1.49-3,6.56,6.56,0,0,1,0-.86l1.85-2.43a7.21,7.21,0,0,1-4-6.76,7.61,7.61,0,0,1,7.88-7.89,10.13,10.13,0,0,1,4.19.81l7.89-.36v2.84Zm-12.17,22.53c0,2.17,1.81,4,5.64,4,3.56,0,6.31-1.53,6.31-4.32,0-2-1.4-3.61-6.31-3.61-1.35,0-2.21-.09-2.21-.09C881.19,1059.43,879.79,1060.69,879.79,1062.9ZM890,1044.56c0-3.47-2.3-4.64-4.73-4.64-2.66,0-4.68,1.62-4.68,5a4.45,4.45,0,0,0,4.68,4.64C888.27,1049.61,890,1047.67,890,1044.56Z"/><path class="cls-1" d="M919.22,1060a5.73,5.73,0,0,1-2.75.72,3.81,3.81,0,0,1-3.83-2.61,10.13,10.13,0,0,1-7,2.61c-3.65,0-6.44-2.16-6.44-5.76,0-5.91,5.85-7.17,13.42-7.17,0-4,0-7.48-5.09-7.48a13,13,0,0,0-6,1.35l-.9-2.83a16.33,16.33,0,0,1,7.39-1.72c7,0,8.2,3.83,8.2,10.05v8.16c0,1.48.18,2.34,1.58,2.34a2.33,2.33,0,0,0,.81-.13Zm-6.63-9.82c-5.81,0-9.68.9-9.68,4.33a3.4,3.4,0,0,0,3.65,3.24,8.61,8.61,0,0,0,6-2.39Z"/><path class="cls-1" d="M939.36,1059.07a12.6,12.6,0,0,1-6.67,1.62c-5.59,0-10.46-4-10.46-11.48,0-7.67,4.87-12.13,11.45-12.13a11.41,11.41,0,0,1,5.63,1.31l-1,2.88a9.22,9.22,0,0,0-4.64-1c-4.55,0-7.66,2.71-7.66,8.93,0,5.49,3.42,8.29,7.34,8.29a9.27,9.27,0,0,0,5.09-1.22Z"/><path class="cls-1" d="M946,1032.85a2.37,2.37,0,0,1,0-4.73,2.22,2.22,0,0,1,2.38,2.47A2.29,2.29,0,0,1,946,1032.85Zm4.64,27.12a5.55,5.55,0,0,1-2.75.72c-3,0-3.88-2-3.88-4.59v-18.57h3.65v18.21c0,.94.18,1.85,1.58,1.85a2.33,2.33,0,0,0,.81-.14Z"/><path class="cls-1" d="M964.67,1037.08c7.17,0,10.41,5.28,10.41,11.81s-4.14,11.8-10.68,11.8c-7.16,0-10.41-5.27-10.41-11.8S958.14,1037.08,964.67,1037.08Zm-.18,20.42c4.64,0,6.81-3.88,6.81-8.61s-2.17-8.61-6.81-8.61-6.76,3.88-6.76,8.61S959.85,1057.5,964.49,1057.5Zm-3.74-24.07,4.1-6.62H969l-5.18,6.62Z"/><path class="cls-1" d="M995.08,1060.24v-15.5c0-3.65-1.93-4.46-4.46-4.46a10.21,10.21,0,0,0-6.08,2.3v17.66h-3.65v-22.71h2.21l1.35,2.17a11.46,11.46,0,0,1,7-2.62c5.73,0,7.3,3.29,7.3,7.66v15.5Z"/><path class="cls-2" d="M487.48,1069.65a40,40,0,1,1,40-40A40,40,0,0,1,487.48,1069.65Z"/><circle class="cls-1" cx="487.49" cy="1029.68" r="31.26"/><path class="cls-2" d="M583.13,1069.65a40,40,0,1,1,40-40A40,40,0,0,1,583.13,1069.65Z"/><circle class="cls-1" cx="583.13" cy="1029.68" r="31.26"/><path class="cls-2" d="M678.78,1069.65a40,40,0,1,1,40-40A40,40,0,0,1,678.78,1069.65Z"/><circle class="cls-1" cx="678.78" cy="1029.68" r="31.26"/><path class="cls-2" d="M391.84,1069.65a40,40,0,1,1,40-40A40,40,0,0,1,391.84,1069.65Z"/><circle class="cls-1" cx="391.84" cy="1029.68" r="31.26"/><line class="cls-3" x1="780.36" y1="1029.68" x2="732.19" y2="1029.68"/><path class="cls-4" d="M732.61,1022.42a7.26,7.26,0,1,0,7.25,7.26A7.26,7.26,0,0,0,732.61,1022.42Z"/><path class="cls-1" d="M732.61,1021.46a8.23,8.23,0,1,1-8.23,8.22,8.23,8.23,0,0,1,8.23-8.22Zm0,14.51a6.29,6.29,0,1,0-6.3-6.29,6.29,6.29,0,0,0,6.3,6.29Z"/><path class="cls-1" d="M530.44,982.81a2.06,2.06,0,0,0,2.06-2.06V968.42a2.06,2.06,0,1,0-4.11,0v12.33A2.05,2.05,0,0,0,530.44,982.81Zm-23.76-13.36a2.42,2.42,0,0,0,1.15-.29l10.7-6.17a2,2,0,1,0-2.06-3.53l-10.69,6.17a2.06,2.06,0,0,0,.9,3.82Zm47.62,0a2.19,2.19,0,0,0,1.54-1,2,2,0,0,0-.74-2.79l-10.69-6.17a2,2,0,1,0-2.06,3.53l10.7,6.17a2.18,2.18,0,0,0,1.25.25Zm-23.86-7.17a8.25,8.25,0,0,0,8.22-8.22V927.8c1.27,2.75,3.56,5.72,6.42,6.45,3.9,1.06,8.68-2.06,9.77-5.68.55-2,.19-4.32-.9-7.13C548.61,908.6,542,896.28,534,886.92a2.11,2.11,0,0,0-1.54-.71H504.75a2.07,2.07,0,0,0-1.22.42c-3,2.19-5.34,5.92-7.32,10.37a59.22,59.22,0,0,0-4.27,14.64,34.59,34.59,0,0,0,.32,13.94c1.06,4,3.91,7.4,8.16,7.9a13.36,13.36,0,0,0,2.95-.29,6.89,6.89,0,0,0,2.19,3,7.31,7.31,0,0,0,4.36,1.41,5.82,5.82,0,0,0,3.31-1.16,6.67,6.67,0,0,0,1.48,1.8,7.44,7.44,0,0,0,4.43,1.42,8.1,8.1,0,0,0,3.08-.71V954a8.1,8.1,0,0,0,8.22,8.22Zm0-4.11a4.05,4.05,0,0,1-4.11-4.11V934.51a2.06,2.06,0,0,0-3.92-.9,4.38,4.38,0,0,1-3.27,1.93,4,4,0,0,1-2-.64,2.53,2.53,0,0,1-1.06-2.44,2.05,2.05,0,0,0-3.88-.94c-.84,1.68-1.28,2-2.31,2a4,4,0,0,1-1.93-.64,2.53,2.53,0,0,1-1.12-2.44,2.07,2.07,0,0,0-1.22-1.89,2.13,2.13,0,0,0-2.25.38,5.12,5.12,0,0,1-2.54.48c-2.45-.31-3.72-1.84-4.59-4.91s-.91-7.52-.19-12.17a55,55,0,0,1,4-13.62,24.08,24.08,0,0,1,5.62-8.34H531.5c7.21,8.51,14.1,21.57,18.59,32.59.94,2.4,1,3.79.81,4.56a4.51,4.51,0,0,1-4.73,2.82c-2.18-.82-2.72-2.28-3.66-3.95l-4.07-8.18a2.06,2.06,0,0,0-3.89.93V954a4.05,4.05,0,0,1-4.11,4.11Z"/><g class="cls-5"><path class="cls-1" d="M532.82,17.19A380.46,380.46,0,0,1,680.87,748,380.45,380.45,0,0,1,384.78,47.08a377.93,377.93,0,0,1,148-29.89m0-17.19C313.26,0,135.28,178,135.28,397.54s178,397.55,397.54,397.55,397.55-178,397.55-397.55S752.38,0,532.82,0Z"/></g><path class="cls-1" d="M368.59,149V119.63H377c7,0,10.77,3.15,10.77,9.28,0,5.27-3.74,9.28-10.77,9.28h-4.78V149Zm8.65-14c5.05,0,6.81-3.11,6.81-6.17,0-3.38-1.81-6.09-6.76-6.09h-5.05V135Z"/><path class="cls-1" d="M410.58,148.74a5.7,5.7,0,0,1-2.75.72,3.82,3.82,0,0,1-3.83-2.62,10.11,10.11,0,0,1-7,2.62c-3.65,0-6.44-2.16-6.44-5.77,0-5.9,5.86-7.16,13.43-7.16,0-4.06,0-7.48-5.09-7.48a12.88,12.88,0,0,0-5.95,1.35l-.9-2.84a16.35,16.35,0,0,1,7.39-1.71c7,0,8.2,3.83,8.2,10.05v8.15c0,1.49.18,2.34,1.57,2.34a2.39,2.39,0,0,0,.82-.13ZM404,138.91c-5.81,0-9.69.91-9.69,4.33a3.41,3.41,0,0,0,3.65,3.24,8.64,8.64,0,0,0,6-2.38Z"/><path class="cls-1" d="M429.55,149v-15.5c0-3.65-1.94-4.46-4.46-4.46a10.24,10.24,0,0,0-6.09,2.29V149h-3.65V126.3h2.21l1.35,2.16a11.49,11.49,0,0,1,7-2.61c5.72,0,7.3,3.29,7.3,7.66V149Z"/><path class="cls-1" d="M456.71,147.43a12.81,12.81,0,0,1-7.43,2c-6.44,0-10.59-4.46-10.59-11.49s4-12.12,10.05-12.12c6.35,0,8.47,4.23,8.47,9.19a19,19,0,0,1-.36,3.6H442.57c.09,3.7,2.11,7.62,7.34,7.62a12.34,12.34,0,0,0,5.77-1.4Zm-3.1-11.17c0-.45.09-1.09.09-1.54,0-3.33-1.58-5.63-5.14-5.63-4,0-5.86,3.61-5.95,7.17Z"/><path class="cls-1" d="M469.78,148.74a5.55,5.55,0,0,1-2.75.72c-3,0-3.88-2-3.88-4.6V115.12h3.65V144.5c0,.95.18,1.85,1.58,1.85a2.56,2.56,0,0,0,.81-.14Z"/><path class="cls-1" d="M501.27,149l-1-2.12a9.55,9.55,0,0,1-6.26,2.57c-5.73,0-9.74-4.78-9.74-11.22,0-7.21,4.33-12.39,10.77-12.39a12.11,12.11,0,0,1,5.09,1.12V115.12h3.65V149Zm-1.13-18.88a10.06,10.06,0,0,0-4.73-1.08c-4.55,0-7.3,3.29-7.3,8.74s2.71,8.47,6.63,8.47a8.31,8.31,0,0,0,5.4-2.21Z"/><path class="cls-1" d="M527.63,147.43a12.85,12.85,0,0,1-7.44,2c-6.44,0-10.59-4.46-10.59-11.49s4-12.12,10-12.12c6.35,0,8.47,4.23,8.47,9.19a19,19,0,0,1-.36,3.6H513.48c.09,3.7,2.11,7.62,7.34,7.62a12.34,12.34,0,0,0,5.77-1.4Zm-3.11-11.17c0-.45.09-1.09.09-1.54,0-3.33-1.58-5.63-5.14-5.63-4,0-5.86,3.61-6,7.17Z"/><path class="cls-1" d="M335.84,161.84a2.37,2.37,0,1,1,2.39-2.26A2.3,2.3,0,0,1,335.84,161.84ZM340.48,189a5.55,5.55,0,0,1-2.75.72c-3,0-3.87-2-3.87-4.59V166.52h3.64v18.21c0,.94.19,1.85,1.58,1.85a2.33,2.33,0,0,0,.81-.14Z"/><path class="cls-1" d="M359.81,189.23v-15.5c0-3.65-1.94-4.46-4.46-4.46a10.22,10.22,0,0,0-6.09,2.3v17.66h-3.65V166.52h2.21l1.35,2.17a11.47,11.47,0,0,1,7-2.62c5.72,0,7.3,3.29,7.3,7.66v15.5Z"/><path class="cls-1" d="M371.7,198.38v-29.2h-4.24v-2.66h4.24v-.94c0-6.27,3.38-10.64,9.28-10.64a12.79,12.79,0,0,1,3.69.5l-.67,2.88a9.72,9.72,0,0,0-2.79-.36c-4.06,0-6,2.71-6,7.12v1.44h6.45v2.66h-6.45v29.2Z"/><path class="cls-1" d="M393.55,166.07c7.16,0,10.41,5.27,10.41,11.81s-4.15,11.8-10.68,11.8c-7.17,0-10.41-5.27-10.41-11.8S387,166.07,393.55,166.07Zm-.18,20.41c4.64,0,6.8-3.87,6.8-8.6s-2.16-8.61-6.8-8.61-6.76,3.88-6.76,8.61S388.73,186.48,393.37,186.48Z"/><path class="cls-1" d="M409.77,189.23V166.52H412l1.08,3.11a8.37,8.37,0,0,1,6.85-3.56,5,5,0,0,1,2,.36l-.67,3.34a6,6,0,0,0-1.89-.27,7.57,7.57,0,0,0-5.95,3v16.76Z"/><path class="cls-1" d="M452.62,189.23v-15.5c0-3.06-1.54-4.46-4.46-4.46a8,8,0,0,0-5.19,2.35v17.61h-3.65v-15.5c0-3.33-1.62-4.46-4.46-4.46a8.1,8.1,0,0,0-5.18,2.35v17.61H426V166.52h2.21l1.35,2.17a9.17,9.17,0,0,1,6.08-2.62c4.15,0,5.59,1.85,6.36,3,0,0,3.15-3,6.94-3,5,0,7.3,2.84,7.3,7.66v15.5Z"/><path class="cls-1" d="M481.67,189a5.7,5.7,0,0,1-2.75.72,3.82,3.82,0,0,1-3.83-2.61,10.1,10.1,0,0,1-7,2.61c-3.65,0-6.45-2.16-6.45-5.76,0-5.91,5.86-7.17,13.43-7.17,0-4.05-.05-7.48-5.09-7.48a12.91,12.91,0,0,0-5.95,1.35l-.9-2.83a16.2,16.2,0,0,1,7.39-1.72c7,0,8.2,3.83,8.2,10.05v8.16c0,1.48.18,2.34,1.58,2.34a2.16,2.16,0,0,0,.81-.14Zm-6.62-9.82c-5.81,0-9.69.9-9.69,4.33a3.41,3.41,0,0,0,3.65,3.24,8.63,8.63,0,0,0,6-2.39Z"/><path class="cls-1" d="M501.81,188.06a12.57,12.57,0,0,1-6.67,1.62c-5.58,0-10.45-4-10.45-11.49s4.87-12.12,11.44-12.12a11.42,11.42,0,0,1,5.64,1.31l-1,2.88a9.29,9.29,0,0,0-4.65-1c-4.55,0-7.66,2.71-7.66,8.92,0,5.5,3.43,8.29,7.35,8.29a9.39,9.39,0,0,0,5.09-1.21Z"/><path class="cls-1" d="M508.43,161.84a2.37,2.37,0,1,1,2.39-2.26A2.3,2.3,0,0,1,508.43,161.84ZM513.07,189a5.5,5.5,0,0,1-2.75.72c-3,0-3.87-2-3.87-4.59V166.52h3.65v18.21c0,.94.18,1.85,1.58,1.85a2.38,2.38,0,0,0,.81-.14Z"/><path class="cls-1" d="M527.13,166.07c7.16,0,10.41,5.27,10.41,11.81s-4.15,11.8-10.68,11.8c-7.17,0-10.41-5.27-10.41-11.8S520.59,166.07,527.13,166.07ZM527,186.48c4.64,0,6.8-3.87,6.8-8.6s-2.16-8.61-6.8-8.61-6.76,3.88-6.76,8.61S522.31,186.48,527,186.48Zm-3.74-24.06,4.1-6.62h4.1l-5.18,6.62Z"/><path class="cls-1" d="M557.54,189.23v-15.5c0-3.65-1.94-4.46-4.46-4.46a10.21,10.21,0,0,0-6.08,2.3v17.66h-3.65V166.52h2.2l1.36,2.17a11.46,11.46,0,0,1,7-2.62c5.72,0,7.3,3.29,7.3,7.66v15.5Z"/><line class="cls-3" x1="564.77" y1="161.33" x2="799.9" y2="161.33"/><path class="cls-4" d="M799.49,168.59a7.26,7.26,0,1,0-7.26-7.26A7.27,7.27,0,0,0,799.49,168.59Z"/><path class="cls-1" d="M799.49,169.55a8.23,8.23,0,1,1,8.22-8.22,8.23,8.23,0,0,1-8.22,8.22Zm0-14.52a6.3,6.3,0,1,0,6.29,6.3,6.3,6.3,0,0,0-6.29-6.3Z"/><path class="cls-1" d="M848.19,194a3.76,3.76,0,0,0-3.76,3.77V220.4a3.77,3.77,0,0,0,7.53,0V197.81A3.77,3.77,0,0,0,848.19,194Zm43.54,24.48a4.4,4.4,0,0,0-2.12.53L870,230.34a3.74,3.74,0,0,0,3.76,6.47l19.59-11.29a3.73,3.73,0,0,0,1.36-5.12,3.69,3.69,0,0,0-3-1.88Zm-87.24.06a4,4,0,0,0-2.83,1.82,3.72,3.72,0,0,0,1.36,5.12l19.58,11.29a3.74,3.74,0,1,0,3.77-6.47l-19.59-11.29a3.89,3.89,0,0,0-2.29-.47Zm43.7,13.11a15.12,15.12,0,0,0-15.06,15.06v48.07c-2.33-5-6.51-10.49-11.76-11.83-7.14-1.94-15.89,3.78-17.89,10.42-1,3.7-.35,7.91,1.65,13.06C814.91,330,827,352.56,841.6,369.7a3.83,3.83,0,0,0,2.83,1.3h50.82a3.78,3.78,0,0,0,2.24-.76c5.42-4,9.79-10.86,13.41-19a107.77,107.77,0,0,0,7.82-26.82c1.43-9.23,1.42-17.86-.58-25.53-1.94-7.4-7.16-13.56-14.95-14.47a24.89,24.89,0,0,0-5.41.53,12.52,12.52,0,0,0-4-5.47,13.38,13.38,0,0,0-8-2.59,10.79,10.79,0,0,0-6.06,2.12,12.42,12.42,0,0,0-2.7-3.3,13.66,13.66,0,0,0-8.12-2.59,14.66,14.66,0,0,0-5.65,1.3V246.76a14.84,14.84,0,0,0-15.06-15.06Zm0,7.53a7.43,7.43,0,0,1,7.53,7.53v35.77a3.77,3.77,0,0,0,7.18,1.65c.83-1.73,4-3.53,6-3.53a7.33,7.33,0,0,1,3.71,1.17c1.09.8,1.94,1.73,1.94,4.47a3.77,3.77,0,0,0,7.12,1.71c1.53-3.06,2.35-3.56,4.23-3.59a7.49,7.49,0,0,1,3.53,1.18c1.18.84,2.06,1.8,2.06,4.47a3.79,3.79,0,0,0,2.24,3.47,3.87,3.87,0,0,0,4.11-.71,9.59,9.59,0,0,1,4.65-.88c4.49.57,6.82,3.39,8.41,9s1.67,13.77.36,22.3A102,102,0,0,1,904,348.17c-3.11,7-6.93,12.47-10.29,15.3H846.25c-13.22-15.59-25.84-39.53-34.06-59.71-1.71-4.41-1.87-6.94-1.47-8.36a8.25,8.25,0,0,1,8.65-5.17c4,1.51,5,4.18,6.7,7.23l7.48,15a3.76,3.76,0,0,0,7.11-1.7v-64a7.44,7.44,0,0,1,7.53-7.53Z"/><path class="cls-2" d="M850.25,200.64a40,40,0,1,1,40-40A40,40,0,0,1,850.25,200.64Z"/><circle class="cls-1" cx="850.25" cy="160.67" r="31.26"/><line class="cls-6" x1="850.25" y1="144.02" x2="850.25" y2="177.33"/><line class="cls-6" x1="866.91" y1="160.67" x2="833.59" y2="160.67"/><path class="cls-2" d="M43.24,1071.82a40,40,0,1,1,40-40A40,40,0,0,1,43.24,1071.82Z"/><circle class="cls-1" cx="43.24" cy="1031.85" r="31.26"/><path class="cls-7" d="M47.37,1010.67a2.15,2.15,0,0,0-2.28.3l-12.3,10.26H24.1a2.14,2.14,0,0,0-2.14,2.15v12.89a2.14,2.14,0,0,0,2.14,2.15h8.69l12.3,10.25a2.09,2.09,0,0,0,1.38.5,2.16,2.16,0,0,0,2.15-2.15v-34.39a2.17,2.17,0,0,0-1.25-2Z"/><path class="cls-7" d="M63.1,1020.17a21.52,21.52,0,0,0-7.69-6.84,1.56,1.56,0,0,0-1.48,2.75,18.39,18.39,0,0,1,6.57,5.83,14,14,0,0,1,2.44,7.78,13.77,13.77,0,0,1-2.44,7.77,18.41,18.41,0,0,1-6.57,5.84,1.56,1.56,0,1,0,1.48,2.74,21.52,21.52,0,0,0,7.69-6.84,16.82,16.82,0,0,0,0-19Z"/><path class="cls-7" d="M53.8,1035.93a1.56,1.56,0,0,0,1.74,2.58,10.7,10.7,0,0,0,0-17.64,1.56,1.56,0,0,0-1.74,2.59,7.59,7.59,0,0,1,0,12.47Z"/><path class="cls-1" d="M21.13,881.68l-2.88-8.33H6.31l-2.7,8.33H0L9.91,852.3h4.6l10.63,29.38ZM12,855.55,7.25,870.33h9.92Z"/><path class="cls-1" d="M44.51,881.68l-1.3-2.21a9.5,9.5,0,0,1-6.58,2.66c-5.41,0-7.3-3.69-7.3-8.06V859H33v15.1c0,3.65,1.94,4.86,4.46,4.86a8.1,8.1,0,0,0,5.63-2.34V859h3.65v22.71Z"/><path class="cls-1" d="M69.52,881.68l-1-2.12a9.56,9.56,0,0,1-6.27,2.57c-5.72,0-9.73-4.77-9.73-11.22,0-7.21,4.33-12.39,10.77-12.39a12,12,0,0,1,5.09,1.13V847.8H72v33.88ZM68.39,862.8a10.11,10.11,0,0,0-4.73-1.08c-4.55,0-7.3,3.29-7.3,8.74s2.7,8.47,6.62,8.47a8.37,8.37,0,0,0,5.41-2.2Z"/><path class="cls-1" d="M81.59,854.29A2.37,2.37,0,1,1,84,852,2.3,2.3,0,0,1,81.59,854.29Zm4.64,27.12a5.55,5.55,0,0,1-2.75.72c-3,0-3.87-2-3.87-4.59V859h3.65v18.21c0,.94.18,1.84,1.57,1.84a2.43,2.43,0,0,0,.82-.13Z"/><path class="cls-1" d="M100.29,858.52c7.16,0,10.41,5.27,10.41,11.81s-4.15,11.8-10.68,11.8c-7.17,0-10.41-5.27-10.41-11.8S93.75,858.52,100.29,858.52Zm-.18,20.41c4.64,0,6.8-3.87,6.8-8.6s-2.16-8.61-6.8-8.61-6.76,3.88-6.76,8.61S95.47,878.93,100.11,878.93Z"/><path class="cls-1" d="M3.74,921.91V892.53h8.43c7,0,10.77,3.15,10.77,9.28,0,5.27-3.74,9.28-10.77,9.28H7.39v10.82Zm8.65-14c5.05,0,6.81-3.11,6.81-6.17,0-3.38-1.81-6.09-6.76-6.09h-5v12.26Z"/><path class="cls-1" d="M35.55,921.64a5.55,5.55,0,0,1-2.75.72c-3,0-3.88-2-3.88-4.6V888h3.65V917.4c0,1,.18,1.85,1.58,1.85a2.56,2.56,0,0,0,.81-.14Z"/><path class="cls-1" d="M58.84,921.64a5.7,5.7,0,0,1-2.75.72,3.81,3.81,0,0,1-3.83-2.62,10.11,10.11,0,0,1-7,2.62c-3.65,0-6.44-2.16-6.44-5.77,0-5.9,5.86-7.16,13.43-7.16,0-4.06,0-7.48-5.1-7.48a12.87,12.87,0,0,0-5.94,1.35l-.9-2.84a16.35,16.35,0,0,1,7.39-1.71c7,0,8.2,3.83,8.2,10V917c0,1.49.18,2.34,1.57,2.34a2.33,2.33,0,0,0,.81-.13Zm-6.62-9.83c-5.82,0-9.69.9-9.69,4.33a3.41,3.41,0,0,0,3.65,3.24,8.64,8.64,0,0,0,6-2.38Z"/><path class="cls-1" d="M59.92,899.2h4.19l7.12,18.74,6.26-18.74h3.79L72,924.7c-1.21,3.38-3.6,6.35-8.24,6.35a7.42,7.42,0,0,1-4-1.17l1.13-2.75a6.67,6.67,0,0,0,3,.73c3.2,0,4.55-2.39,5.64-5.73Z"/><path class="cls-1" d="M92.63,931l9.91-40.69h3.11L95.78,931Z"/><path class="cls-1" d="M120.92,921.91V892.53h8.43c7,0,10.77,3.15,10.77,9.28,0,5.27-3.74,9.28-10.77,9.28h-4.78v10.82Zm8.65-14c5.05,0,6.81-3.11,6.81-6.17,0-3.38-1.81-6.09-6.76-6.09h-5.05v12.26Z"/><path class="cls-1" d="M162.91,921.64a5.7,5.7,0,0,1-2.75.72,3.81,3.81,0,0,1-3.83-2.62,10.11,10.11,0,0,1-7,2.62c-3.65,0-6.44-2.16-6.44-5.77,0-5.9,5.86-7.16,13.43-7.16,0-4.06,0-7.48-5.09-7.48a12.88,12.88,0,0,0-5.95,1.35l-.9-2.84a16.35,16.35,0,0,1,7.39-1.71c7,0,8.2,3.83,8.2,10V917c0,1.49.18,2.34,1.57,2.34a2.43,2.43,0,0,0,.82-.13Zm-6.62-9.83c-5.82,0-9.69.9-9.69,4.33a3.41,3.41,0,0,0,3.65,3.24,8.64,8.64,0,0,0,6-2.38Z"/><path class="cls-1" d="M182.87,921.91l-1.31-2.21a9.5,9.5,0,0,1-6.58,2.66c-5.4,0-7.3-3.7-7.3-8.07V899.2h3.65v15.09c0,3.65,1.94,4.87,4.46,4.87a8.14,8.14,0,0,0,5.64-2.34V899.2h3.65v22.71Z"/><path class="cls-1" d="M192.24,917.9a14.2,14.2,0,0,0,5.85,1.39c3.52,0,4.87-1.62,4.87-3.47,0-5.49-11.26-2.61-11.26-10.45,0-4,3.15-6.62,8-6.62a12.81,12.81,0,0,1,6.12,1.26l-1,2.84a13.33,13.33,0,0,0-5-1c-3.16,0-4.6,1.44-4.6,3.24,0,5.1,11.35,2.39,11.35,10.23,0,3.74-2.74,7.08-8.6,7.08a13.66,13.66,0,0,1-6.76-1.67Z"/><path class="cls-1" d="M228.64,920.33a12.84,12.84,0,0,1-7.43,2c-6.45,0-10.59-4.46-10.59-11.49s4-12.12,10-12.12c6.35,0,8.47,4.23,8.47,9.19a19.88,19.88,0,0,1-.36,3.6H214.49c.09,3.7,2.12,7.62,7.35,7.62a12.3,12.3,0,0,0,5.76-1.4Zm-3.11-11.17c.05-.45.09-1.09.09-1.54,0-3.33-1.58-5.63-5.14-5.63-4,0-5.85,3.61-5.94,7.17Z"/><line class="cls-3" x1="43.24" y1="931.46" x2="43.24" y2="979.62"/><path class="cls-4" d="M36,979.21A7.26,7.26,0,1,0,43.24,972,7.26,7.26,0,0,0,36,979.21Z"/><path class="cls-1" d="M35,979.21a8.23,8.23,0,1,1,8.22,8.23A8.23,8.23,0,0,1,35,979.21Zm14.51,0a6.29,6.29,0,1,0-6.29,6.3,6.29,6.29,0,0,0,6.29-6.3Z"/></g></g></svg>