<svg xmlns="http://www.w3.org/2000/svg" viewBox="0 0 1153.87 730.06"><defs><style>.cls-1{opacity:0.27;}.cls-2{fill:#e3ddcd;}.cls-3{fill:#345ba6;opacity:0.7;}.cls-4,.cls-6,.cls-7,.cls-9{fill:none;stroke:#e3ddcd;stroke-miterlimit:10;}.cls-4,.cls-9{stroke-linecap:round;}.cls-4{stroke-width:4px;}.cls-5{fill:#fff;}.cls-6{stroke-width:3.59px;}.cls-7{stroke-width:3.48px;}.cls-8{fill:#233b6d;}.cls-9{stroke-width:3.22px;}</style></defs><g id="Capa_2" data-name="Capa 2"><g id="Capa_1-2" data-name="Capa 1"><g class="cls-1"><path class="cls-2" d="M571.22,197.12a198.51,198.51,0,1,1-77.49,15.65,197.84,197.84,0,0,1,77.49-15.65m0-9c-114.92,0-208.09,93.17-208.09,208.1s93.17,208.1,208.09,208.1,208.1-93.17,208.1-208.1-93.17-208.1-208.1-208.1Z"/></g><path class="cls-2" d="M43.51,42.11V5.6H54c8.68,0,13.39,3.92,13.39,11.54,0,6.55-4.65,11.53-13.39,11.53H48.05V42.11ZM54.26,24.75c6.27,0,8.46-3.86,8.46-7.67,0-4.2-2.24-7.56-8.4-7.56H48.05V24.75Z"/><path class="cls-2" d="M95.7,41.78a7.14,7.14,0,0,1-3.41.89,4.74,4.74,0,0,1-4.76-3.25,12.59,12.59,0,0,1-8.74,3.25c-4.54,0-8-2.69-8-7.17,0-7.33,7.28-8.9,16.69-8.9,0-5-.06-9.3-6.33-9.3A16.1,16.1,0,0,0,73.75,19l-1.12-3.52a20.26,20.26,0,0,1,9.18-2.13c8.74,0,10.2,4.76,10.2,12.49V36c0,1.85.22,2.91,2,2.91a3,3,0,0,0,1-.16ZM87.47,29.57c-7.22,0-12,1.12-12,5.37,0,2.58,2.3,4,4.54,4a10.73,10.73,0,0,0,7.5-3Z"/><path class="cls-2" d="M119.28,42.11V22.85c0-4.54-2.41-5.55-5.55-5.55a12.69,12.69,0,0,0-7.56,2.86v22h-4.53V13.89h2.74l1.68,2.69a14.23,14.23,0,0,1,8.68-3.25c7.11,0,9.07,4.09,9.07,9.52V42.11Z"/><path class="cls-2" d="M153,40.15a16,16,0,0,1-9.24,2.52c-8,0-13.15-5.54-13.15-14.28s5-15.06,12.48-15.06c7.9,0,10.53,5.26,10.53,11.42a24.31,24.31,0,0,1-.45,4.48H135.46c.11,4.59,2.63,9.47,9.13,9.47A15.28,15.28,0,0,0,151.76,37Zm-3.86-13.89c.06-.56.11-1.34.11-1.9,0-4.14-2-7-6.38-7-5,0-7.28,4.48-7.39,8.9Z"/><path class="cls-2" d="M169.29,41.78a6.91,6.91,0,0,1-3.42.89c-3.75,0-4.82-2.52-4.82-5.71V0h4.54V36.51c0,1.18.22,2.3,2,2.3a3.29,3.29,0,0,0,1-.17Z"/><path class="cls-2" d="M208.43,42.11l-1.23-2.63a11.87,11.87,0,0,1-7.79,3.19c-7.11,0-12.09-5.93-12.09-13.94,0-9,5.37-15.4,13.38-15.4a15,15,0,0,1,6.33,1.4V0h4.53V42.11ZM207,18.65a12.51,12.51,0,0,0-5.88-1.35c-5.66,0-9.07,4.09-9.07,10.87s3.36,10.53,8.23,10.53A10.38,10.38,0,0,0,207,36Z"/><path class="cls-2" d="M241.19,40.15A16,16,0,0,1,232,42.67c-8,0-13.16-5.54-13.16-14.28s5-15.06,12.49-15.06c7.89,0,10.52,5.26,10.52,11.42a24.29,24.29,0,0,1-.44,4.48H223.6c.12,4.59,2.64,9.47,9.13,9.47A15.25,15.25,0,0,0,239.9,37Zm-3.87-13.89c.06-.56.12-1.34.12-1.9,0-4.14-2-7-6.39-7-5,0-7.28,4.48-7.39,8.9Z"/><path class="cls-2" d="M2.8,58.06a2.78,2.78,0,0,1-2.8-3,2.81,2.81,0,0,1,2.8-2.92,2.78,2.78,0,0,1,3,3.08A2.85,2.85,0,0,1,2.8,58.06ZM8.57,91.78a6.91,6.91,0,0,1-3.42.89C1.4,92.67.34,90.15.34,87V63.89H4.87V86.51c0,1.18.23,2.3,2,2.3a3,3,0,0,0,1-.17Z"/><path class="cls-2" d="M32.59,92.11V72.85c0-4.54-2.41-5.55-5.54-5.55a12.66,12.66,0,0,0-7.56,2.86v22H15V63.89h2.74l1.69,2.69a14.21,14.21,0,0,1,8.68-3.25c7.11,0,9.07,4.09,9.07,9.52V92.11Z"/><path class="cls-2" d="M47.37,103.48V67.19H42.11v-3.3h5.26V62.71c0-7.78,4.2-13.21,11.54-13.21a15.83,15.83,0,0,1,4.59.61l-.84,3.59a11.9,11.9,0,0,0-3.47-.45c-5,0-7.45,3.36-7.45,8.85v1.79h8v3.3h-8v36.29Z"/><path class="cls-2" d="M74.53,63.33c8.91,0,12.94,6.55,12.94,14.67S82.32,92.67,74.2,92.67c-8.91,0-12.94-6.55-12.94-14.67S66.41,63.33,74.53,63.33ZM74.31,88.7c5.77,0,8.46-4.82,8.46-10.7s-2.69-10.7-8.46-10.7-8.4,4.82-8.4,10.7S68.54,88.7,74.31,88.7Z"/><path class="cls-2" d="M94.69,92.11V63.89h2.75l1.34,3.86a10.43,10.43,0,0,1,8.51-4.42,6.2,6.2,0,0,1,2.52.45L109,67.92a7.52,7.52,0,0,0-2.35-.34,9.45,9.45,0,0,0-7.39,3.7V92.11Z"/><path class="cls-2" d="M148,92.11V72.85c0-3.81-1.9-5.55-5.54-5.55A9.88,9.88,0,0,0,136,70.22V92.11h-4.54V72.85c0-4.15-2-5.55-5.54-5.55s-6.44,2.92-6.44,2.92V92.11h-4.54V63.89h2.74l1.68,2.69a11.4,11.4,0,0,1,7.56-3.25c5.16,0,7,2.29,7.9,3.69,0,0,3.92-3.69,8.62-3.69,6.28,0,9.08,3.53,9.08,9.52V92.11Z"/><path class="cls-2" d="M184.07,91.78a7.19,7.19,0,0,1-3.42.89,4.75,4.75,0,0,1-4.76-3.25,12.56,12.56,0,0,1-8.73,3.25c-4.54,0-8-2.69-8-7.17,0-7.33,7.28-8.9,16.69-8.9,0-5-.06-9.3-6.33-9.3A16.1,16.1,0,0,0,162.12,69L161,65.46a20.26,20.26,0,0,1,9.18-2.13c8.74,0,10.19,4.76,10.19,12.49V86c0,1.85.23,2.91,2,2.91a3,3,0,0,0,1-.16Zm-8.23-12.21c-7.23,0-12,1.12-12,5.37,0,2.58,2.29,4,4.53,4a10.74,10.74,0,0,0,7.51-3Z"/><path class="cls-2" d="M209.1,90.66a15.62,15.62,0,0,1-8.29,2c-6.94,0-13-4.93-13-14.28,0-9.52,6.05-15.06,14.22-15.06A14.2,14.2,0,0,1,209,65l-1.23,3.59A11.37,11.37,0,0,0,202,67.3c-5.65,0-9.52,3.36-9.52,11.09,0,6.83,4.26,10.31,9.13,10.31A11.6,11.6,0,0,0,208,87.18Z"/><path class="cls-2" d="M217.33,58.06a2.78,2.78,0,0,1-2.8-3,2.81,2.81,0,0,1,2.8-2.92,2.78,2.78,0,0,1,3,3.08A2.85,2.85,0,0,1,217.33,58.06Zm5.77,33.72a6.91,6.91,0,0,1-3.42.89c-3.75,0-4.81-2.52-4.81-5.71V63.89h4.53V86.51c0,1.18.23,2.3,2,2.3a3,3,0,0,0,1-.17Z"/><path class="cls-2" d="M240.57,63.33c8.91,0,12.94,6.55,12.94,14.67s-5.16,14.67-13.27,14.67c-8.91,0-12.94-6.55-12.94-14.67S232.45,63.33,240.57,63.33Zm-.22,25.37c5.77,0,8.45-4.82,8.45-10.7s-2.68-10.7-8.45-10.7S232,72.12,232,78,234.58,88.7,240.35,88.7ZM235.7,58.79l5.1-8.23h5.09l-6.44,8.23Z"/><path class="cls-2" d="M278.37,92.11V72.85c0-4.54-2.41-5.55-5.54-5.55a12.66,12.66,0,0,0-7.56,2.86v22h-4.54V63.89h2.75l1.68,2.69a14.21,14.21,0,0,1,8.68-3.25c7.11,0,9.07,4.09,9.07,9.52V92.11Z"/><rect class="cls-2" x="7.73" y="221.24" width="267.39" height="349.96"/><rect class="cls-3" x="32.31" y="249.31" width="219.22" height="24.58"/><rect class="cls-3" x="32.31" y="294.41" width="219.22" height="24.58"/><rect class="cls-3" x="32.31" y="339.51" width="109.61" height="24.58"/><rect class="cls-3" x="32.31" y="384.61" width="219.22" height="24.58"/><rect class="cls-3" x="32.31" y="429.71" width="219.22" height="24.58"/><rect class="cls-3" x="32.31" y="474.8" width="58.98" height="24.58"/><line class="cls-4" x1="135.82" y1="159.16" x2="135.82" y2="262.02"/><circle class="cls-5" cx="135.82" cy="261.51" r="9.02" transform="translate(-117.2 110.46) rotate(-31.72)"/><path class="cls-2" d="M125.6,261.51a10.23,10.23,0,1,1,10.22,10.22,10.24,10.24,0,0,1-10.22-10.22Zm18.05,0a7.83,7.83,0,1,0-7.83,7.82,7.84,7.84,0,0,0,7.83-7.82Z"/><path class="cls-2" d="M913.27,42.11V9L902,36.51h-4.48L885.72,9V42.11h-4V5.6h6.89L899.83,32,910.52,5.6h7.12V42.11Z"/><path class="cls-2" d="M947.71,40.15a16,16,0,0,1-9.24,2.52c-8,0-13.16-5.54-13.16-14.28s5-15.06,12.48-15.06c7.9,0,10.53,5.26,10.53,11.42a24.29,24.29,0,0,1-.44,4.48H930.12c.12,4.59,2.63,9.47,9.13,9.47A15.25,15.25,0,0,0,946.42,37Zm-3.87-13.89c.06-.56.12-1.34.12-1.9,0-4.14-2-7-6.39-7-5,0-7.28,4.48-7.39,8.9Z"/><path class="cls-2" d="M973.36,42.11V22.85c0-4.54-2.41-5.55-5.55-5.55a12.66,12.66,0,0,0-7.56,2.86v22h-4.53V13.89h2.74l1.68,2.69a14.23,14.23,0,0,1,8.68-3.25c7.11,0,9.07,4.09,9.07,9.52V42.11Z"/><path class="cls-2" d="M1005.78,42.11l-1.62-2.74a11.85,11.85,0,0,1-8.18,3.3c-6.72,0-9.07-4.59-9.07-10V13.89h4.53V32.65c0,4.53,2.41,6.05,5.55,6.05a10.11,10.11,0,0,0,7-2.92V13.89h4.53V42.11ZM993.29,8.79l5.1-8.23h5.09L997,8.79Z"/><path class="cls-2" d="M1050.69,42.11l-1.23-2.63a11.87,11.87,0,0,1-7.79,3.19c-7.11,0-12.09-5.93-12.09-13.94,0-9,5.37-15.4,13.38-15.4a15,15,0,0,1,6.33,1.4V0h4.54V42.11Zm-1.4-23.46a12.51,12.51,0,0,0-5.88-1.35c-5.66,0-9.07,4.09-9.07,10.87s3.36,10.53,8.23,10.53a10.35,10.35,0,0,0,6.72-2.75Z"/><path class="cls-2" d="M1083.45,40.15a16,16,0,0,1-9.24,2.52c-8,0-13.16-5.54-13.16-14.28s5-15.06,12.49-15.06c7.89,0,10.53,5.26,10.53,11.42a24.31,24.31,0,0,1-.45,4.48h-17.75c.11,4.59,2.63,9.47,9.12,9.47a15.25,15.25,0,0,0,7.17-1.74Zm-3.86-13.89c.05-.56.11-1.34.11-1.9,0-4.14-2-7-6.39-7-5,0-7.28,4.48-7.39,8.9Z"/><path class="cls-2" d="M867.26,92.11V72.85c0-4.54-2.4-5.55-5.54-5.55a12.66,12.66,0,0,0-7.56,2.86v22h-4.54V63.89h2.75l1.68,2.69a14.23,14.23,0,0,1,8.68-3.25c7.11,0,9.07,4.09,9.07,9.52V92.11Z"/><path class="cls-2" d="M903.38,91.78a7.14,7.14,0,0,1-3.41.89,4.74,4.74,0,0,1-4.76-3.25,12.59,12.59,0,0,1-8.74,3.25c-4.53,0-8-2.69-8-7.17,0-7.33,7.28-8.9,16.69-8.9,0-5,0-9.3-6.33-9.3A16.13,16.13,0,0,0,881.43,69l-1.12-3.52a20.27,20.27,0,0,1,9.19-2.13c8.73,0,10.19,4.76,10.19,12.49V86c0,1.85.22,2.91,2,2.91a3,3,0,0,0,1-.16Zm-8.23-12.21c-7.22,0-12,1.12-12,5.37,0,2.58,2.3,4,4.54,4a10.73,10.73,0,0,0,7.5-3Z"/><path class="cls-2" d="M915,92.11,904.84,63.89h4.82L917.83,88H918l8.29-24.13h4.48L920.63,92.11Z"/><path class="cls-2" d="M955.91,90.15a16,16,0,0,1-9.24,2.52c-8,0-13.16-5.54-13.16-14.28s5-15.06,12.49-15.06c7.9,0,10.53,5.26,10.53,11.42a24.31,24.31,0,0,1-.45,4.48H938.33c.11,4.59,2.63,9.47,9.13,9.47A15.24,15.24,0,0,0,954.62,87Zm-3.86-13.89c.05-.56.11-1.34.11-1.9,0-4.14-2-7-6.38-7-5,0-7.28,4.48-7.4,8.9Z"/><path class="cls-2" d="M981.39,67.42a8.39,8.39,0,0,1,1.79,5.2,9.8,9.8,0,0,1-10.19,10,8.4,8.4,0,0,1-1.85-.17,4.94,4.94,0,0,0-1.12,2.3c0,1.23.45,2,3.25,2,9.52,0,12.32,3,12.32,7.9,0,5.32-4.65,9.52-12.65,9.52-6,0-10.87-2.58-10.87-8,0-3.81,2.8-5.77,5.55-6.78a3.94,3.94,0,0,1-1.85-3.69,8,8,0,0,1,.05-1.07l2.3-3a9,9,0,0,1-4.93-8.4c0-4.59,3.08-9.8,9.8-9.8a12.6,12.6,0,0,1,5.21,1l9.8-.45v3.53Zm-15.12,28c0,2.68,2.24,5,7,5,4.43,0,7.84-1.9,7.84-5.38,0-2.52-1.73-4.48-7.84-4.48-1.68,0-2.74-.11-2.74-.11C968,91.1,966.27,92.67,966.27,95.42ZM979,72.62c0-4.31-2.85-5.76-5.88-5.76-3.3,0-5.82,2-5.82,6.27a5.55,5.55,0,0,0,5.82,5.77C976.8,78.9,979,76.49,979,72.62Z"/><path class="cls-2" d="M1015.27,91.78a7.18,7.18,0,0,1-3.41.89,4.75,4.75,0,0,1-4.77-3.25,12.54,12.54,0,0,1-8.73,3.25c-4.54,0-8-2.69-8-7.17,0-7.33,7.28-8.9,16.69-8.9,0-5-.06-9.3-6.33-9.3A16.1,16.1,0,0,0,993.32,69l-1.12-3.52a20.26,20.26,0,0,1,9.18-2.13c8.74,0,10.2,4.76,10.2,12.49V86c0,1.85.22,2.91,2,2.91a3,3,0,0,0,1-.16ZM1007,79.57c-7.22,0-12,1.12-12,5.37,0,2.58,2.29,4,4.54,4a10.73,10.73,0,0,0,7.5-3Z"/><path class="cls-2" d="M1040.3,90.66a15.6,15.6,0,0,1-8.29,2c-6.94,0-13-4.93-13-14.28,0-9.52,6-15.06,14.23-15.06a14.26,14.26,0,0,1,7,1.62L1039,68.54a11.36,11.36,0,0,0-5.76-1.24c-5.66,0-9.52,3.36-9.52,11.09,0,6.83,4.25,10.31,9.12,10.31a11.58,11.58,0,0,0,6.33-1.52Z"/><path class="cls-2" d="M1048.53,58.06a2.78,2.78,0,0,1-2.8-3,2.81,2.81,0,0,1,2.8-2.92,2.77,2.77,0,0,1,3,3.08A2.84,2.84,0,0,1,1048.53,58.06Zm5.77,33.72a6.89,6.89,0,0,1-3.41.89c-3.76,0-4.82-2.52-4.82-5.71V63.89h4.54V86.51c0,1.18.22,2.3,2,2.3a2.91,2.91,0,0,0,1-.17Z"/><path class="cls-2" d="M1071.77,63.33c8.91,0,12.94,6.55,12.94,14.67s-5.15,14.67-13.27,14.67c-8.91,0-12.94-6.55-12.94-14.67S1063.65,63.33,1071.77,63.33Zm-.22,25.37c5.77,0,8.45-4.82,8.45-10.7s-2.68-10.7-8.45-10.7-8.4,4.82-8.4,10.7S1065.78,88.7,1071.55,88.7Zm-4.65-29.91,5.1-8.23h5.09l-6.44,8.23Z"/><path class="cls-2" d="M1109.57,92.11V72.85c0-4.54-2.4-5.55-5.54-5.55a12.66,12.66,0,0,0-7.56,2.86v22h-4.54V63.89h2.75l1.68,2.69a14.23,14.23,0,0,1,8.68-3.25c7.11,0,9.07,4.09,9.07,9.52V92.11Z"/><path class="cls-6" d="M911.6,281.2A41.25,41.25,0,1,1,952.84,240,41.29,41.29,0,0,1,911.6,281.2Z"/><circle class="cls-2" cx="911.6" cy="239.95" r="32.26"/><path class="cls-6" d="M1010.3,281.2A41.25,41.25,0,1,1,1051.54,240,41.29,41.29,0,0,1,1010.3,281.2Z"/><circle class="cls-2" cx="1010.3" cy="239.95" r="32.26"/><path class="cls-6" d="M1109,281.2A41.25,41.25,0,1,1,1150.24,240,41.29,41.29,0,0,1,1109,281.2Z"/><circle class="cls-2" cx="1108.99" cy="239.95" r="32.26"/><path class="cls-6" d="M812.9,281.2A41.25,41.25,0,1,1,854.14,240,41.3,41.3,0,0,1,812.9,281.2Z"/><circle class="cls-2" cx="812.9" cy="239.95" r="32.26"/><line class="cls-4" x1="981.67" y1="120.69" x2="981.67" y2="180.56"/><path class="cls-5" d="M972.65,180.05a9,9,0,1,0,9-9A9,9,0,0,0,972.65,180.05Z"/><path class="cls-2" d="M971.45,180.05a10.23,10.23,0,1,1,10.22,10.22,10.23,10.23,0,0,1-10.22-10.22Zm18,0a7.83,7.83,0,1,0-7.83,7.82,7.83,7.83,0,0,0,7.83-7.82Z"/><path class="cls-2" d="M1065,286.24a4.69,4.69,0,0,0-4.68,4.68V319a4.68,4.68,0,1,0,9.36,0V290.92A4.68,4.68,0,0,0,1065,286.24Zm54.11,30.42a5.65,5.65,0,0,0-2.63.66l-24.35,14a4.65,4.65,0,1,0,4.68,8l24.35-14a4.68,4.68,0,0,0-2-8.7Zm-108.43.07a4.9,4.9,0,0,0-3.51,2.27,4.62,4.62,0,0,0,1.68,6.36l24.35,14a4.65,4.65,0,1,0,4.68-8l-24.35-14a5,5,0,0,0-2.85-.58ZM1065,333a18.78,18.78,0,0,0-18.72,18.72V411.5c-2.89-6.26-8.1-13-14.62-14.69-8.88-2.41-19.75,4.69-22.23,12.94-1.26,4.6-.44,9.83,2,16.23,12.15,29.24,27.12,57.3,45.33,78.61a4.77,4.77,0,0,0,3.51,1.61h63.18a4.67,4.67,0,0,0,2.78-.95c6.73-5,12.16-13.49,16.67-23.62a134,134,0,0,0,9.72-33.35c1.77-11.46,1.76-22.2-.73-31.73-2.4-9.2-8.89-16.86-18.57-18a31.11,31.11,0,0,0-6.73.66,15.61,15.61,0,0,0-5-6.8,16.76,16.76,0,0,0-9.95-3.22,13.41,13.41,0,0,0-7.53,2.64,15.32,15.32,0,0,0-3.36-4.1,17,17,0,0,0-10.09-3.22,18.48,18.48,0,0,0-7,1.61V351.77c-.2-12.53-10.08-18.75-18.72-18.72Zm0,9.36a9.23,9.23,0,0,1,9.36,9.36v44.46a4.81,4.81,0,0,0,3.66,4.6,4.75,4.75,0,0,0,5.26-2.56c1-2.15,4.93-4.38,7.46-4.38a9,9,0,0,1,4.61,1.46c1.36,1,2.41,2.15,2.41,5.56a4.68,4.68,0,0,0,8.85,2.12c1.9-3.81,2.92-4.42,5.27-4.46a9.24,9.24,0,0,1,4.38,1.46c1.47,1,2.56,2.24,2.56,5.56a4.73,4.73,0,0,0,2.78,4.31,4.83,4.83,0,0,0,5.12-.88,11.72,11.72,0,0,1,5.77-1.09c5.58.71,8.48,4.2,10.46,11.18s2.07,17.12.44,27.72a126.49,126.49,0,0,1-9,31c-3.88,8.7-8.62,15.5-12.8,19h-59c-16.43-19.38-32.11-49.13-42.34-74.22-2.13-5.47-2.32-8.62-1.83-10.38a10.27,10.27,0,0,1,10.75-6.43c5,1.87,6.21,5.19,8.34,9l9.29,18.65a4.69,4.69,0,0,0,8.85-2.12V351.76a9.23,9.23,0,0,1,9.35-9.36Z"/><path class="cls-7" d="M51.38,726.73a40,40,0,1,1,40-40A40,40,0,0,1,51.38,726.73Z"/><circle class="cls-2" cx="51.38" cy="686.76" r="31.26"/><path class="cls-8" d="M55.51,665.58a2.18,2.18,0,0,0-2.28.31l-12.3,10.25H32.24a2.15,2.15,0,0,0-2.15,2.15v12.9a2.15,2.15,0,0,0,2.15,2.14h8.69l12.3,10.26a2.14,2.14,0,0,0,1.38.49,2.13,2.13,0,0,0,2.15-2.15V667.54a2.17,2.17,0,0,0-1.25-2Z"/><path class="cls-8" d="M71.24,675.09a21.42,21.42,0,0,0-7.69-6.84A1.56,1.56,0,0,0,62.06,671a18.34,18.34,0,0,1,6.58,5.83,13.67,13.67,0,0,1,0,15.56,18.34,18.34,0,0,1-6.58,5.83,1.57,1.57,0,0,0-.62,2.12,1.55,1.55,0,0,0,2.11.62,21.51,21.51,0,0,0,7.69-6.84,16.8,16.8,0,0,0,0-19Z"/><path class="cls-8" d="M61.93,690.84a1.56,1.56,0,1,0,1.75,2.59,10.71,10.71,0,0,0,0-17.65,1.56,1.56,0,1,0-1.75,2.59,7.58,7.58,0,0,1,0,12.47Z"/><path class="cls-2" d="M192.7,680.69l-2.88-8.34H177.88l-2.71,8.34h-3.6l9.91-29.38h4.6l10.63,29.38Zm-9.1-26.14-4.78,14.78h9.92Z"/><path class="cls-2" d="M216.08,680.69l-1.3-2.21a9.5,9.5,0,0,1-6.58,2.66c-5.41,0-7.3-3.7-7.3-8.07V658h3.65v15.09c0,3.65,1.93,4.87,4.46,4.87a8.12,8.12,0,0,0,5.63-2.34V658h3.65v22.71Z"/><path class="cls-2" d="M241.08,680.69l-1-2.12a9.52,9.52,0,0,1-6.26,2.57c-5.72,0-9.73-4.78-9.73-11.22,0-7.21,4.32-12.39,10.77-12.39a12.11,12.11,0,0,1,5.09,1.12V646.8h3.65v33.89ZM240,661.81a10.11,10.11,0,0,0-4.73-1.08c-4.55,0-7.3,3.29-7.3,8.74s2.7,8.47,6.62,8.47a8.35,8.35,0,0,0,5.41-2.21Z"/><path class="cls-2" d="M253.16,653.29a2.37,2.37,0,1,1,2.38-2.25A2.28,2.28,0,0,1,253.16,653.29Zm4.64,27.13a5.55,5.55,0,0,1-2.75.72c-3,0-3.88-2-3.88-4.6V658h3.65v18.2c0,1,.18,1.85,1.58,1.85a2.12,2.12,0,0,0,.81-.14Z"/><path class="cls-2" d="M271.85,657.53c7.17,0,10.41,5.27,10.41,11.8s-4.14,11.81-10.68,11.81c-7.16,0-10.41-5.27-10.41-11.81S265.32,657.53,271.85,657.53Zm-.18,20.41c4.65,0,6.81-3.88,6.81-8.61s-2.16-8.6-6.81-8.6-6.75,3.87-6.75,8.6S267,677.94,271.67,677.94Z"/><path class="cls-2" d="M175.31,720.91V691.54h8.42c7,0,10.77,3.15,10.77,9.28,0,5.27-3.74,9.28-10.77,9.28H179v10.81ZM184,707c5,0,6.8-3.11,6.8-6.18,0-3.38-1.8-6.08-6.76-6.08h-5V707Z"/><path class="cls-2" d="M207.11,720.64a5.49,5.49,0,0,1-2.74.72c-3,0-3.88-2-3.88-4.59V687h3.65v29.38c0,.94.18,1.85,1.58,1.85a2.56,2.56,0,0,0,.81-.14Z"/><path class="cls-2" d="M230.41,720.64a5.7,5.7,0,0,1-2.75.72,3.81,3.81,0,0,1-3.83-2.61,10.13,10.13,0,0,1-7,2.61c-3.65,0-6.44-2.16-6.44-5.76,0-5.91,5.85-7.17,13.42-7.17,0-4,0-7.48-5.09-7.48a13,13,0,0,0-5.95,1.35l-.9-2.83a16.37,16.37,0,0,1,7.39-1.72c7,0,8.2,3.83,8.2,10V716c0,1.48.18,2.34,1.58,2.34a2.33,2.33,0,0,0,.81-.13Zm-6.63-9.82c-5.81,0-9.68.9-9.68,4.33a3.4,3.4,0,0,0,3.65,3.24,8.61,8.61,0,0,0,6-2.39Z"/><path class="cls-2" d="M231.49,698.2h4.19L242.8,717l6.26-18.75h3.78l-9.28,25.51c-1.22,3.38-3.6,6.35-8.24,6.35a7.42,7.42,0,0,1-4-1.17l1.13-2.75a6.68,6.68,0,0,0,3,.72c3.2,0,4.55-2.39,5.63-5.72Z"/><path class="cls-2" d="M264.19,730l9.92-40.69h3.11L267.35,730Z"/><path class="cls-2" d="M292.49,720.91V691.54h8.42c7,0,10.77,3.15,10.77,9.28,0,5.27-3.74,9.28-10.77,9.28h-4.77v10.81Zm8.65-14c5.05,0,6.8-3.11,6.8-6.18,0-3.38-1.8-6.08-6.76-6.08h-5V707Z"/><path class="cls-2" d="M334.48,720.64a5.7,5.7,0,0,1-2.75.72,3.81,3.81,0,0,1-3.83-2.61,10.13,10.13,0,0,1-7,2.61c-3.65,0-6.44-2.16-6.44-5.76,0-5.91,5.85-7.17,13.42-7.17,0-4,0-7.48-5.09-7.48a13,13,0,0,0-5.95,1.35l-.9-2.83a16.37,16.37,0,0,1,7.39-1.72c7,0,8.2,3.83,8.2,10V716c0,1.48.18,2.34,1.58,2.34a2.33,2.33,0,0,0,.81-.13Zm-6.63-9.82c-5.81,0-9.68.9-9.68,4.33a3.4,3.4,0,0,0,3.65,3.24,8.61,8.61,0,0,0,6-2.39Z"/><path class="cls-2" d="M354.44,720.91l-1.31-2.2a9.54,9.54,0,0,1-6.58,2.65c-5.41,0-7.3-3.69-7.3-8.06V698.2h3.65v15.1c0,3.65,1.94,4.87,4.46,4.87a8.11,8.11,0,0,0,5.63-2.35V698.2h3.65v22.71Z"/><path class="cls-2" d="M363.8,716.9a14.21,14.21,0,0,0,5.86,1.4c3.52,0,4.87-1.62,4.87-3.47,0-5.5-11.27-2.61-11.27-10.45,0-4,3.16-6.63,8-6.63a12.68,12.68,0,0,1,6.13,1.27l-1,2.83a13.35,13.35,0,0,0-5.05-1c-3.15,0-4.59,1.44-4.59,3.24,0,5.09,11.35,2.39,11.35,10.23,0,3.74-2.75,7.07-8.6,7.07a13.63,13.63,0,0,1-6.76-1.66Z"/><path class="cls-2" d="M400.21,719.34a12.93,12.93,0,0,1-7.44,2c-6.44,0-10.59-4.46-10.59-11.48s4-12.13,10.05-12.13c6.36,0,8.47,4.24,8.47,9.2a19.19,19.19,0,0,1-.36,3.6H386.06c.09,3.7,2.12,7.62,7.34,7.62a12.31,12.31,0,0,0,5.77-1.4Zm-3.11-11.18c0-.45.09-1.08.09-1.53,0-3.33-1.58-5.63-5.14-5.63-4,0-5.86,3.6-5.95,7.16Z"/><line class="cls-9" x1="158.8" y1="686.77" x2="110.63" y2="686.77"/><path class="cls-5" d="M111,679.51a7.26,7.26,0,1,0,7.26,7.26A7.26,7.26,0,0,0,111,679.51Z"/><path class="cls-2" d="M111,678.54a8.23,8.23,0,1,1-8.22,8.23,8.24,8.24,0,0,1,8.22-8.23Zm0,14.52a6.3,6.3,0,1,0-6.29-6.29,6.3,6.3,0,0,0,6.29,6.29Z"/></g></g></svg>