<?xml version="1.0" encoding="utf-8"?>
<!-- Generator: Adobe Illustrator 26.1.0, SVG Export Plug-In . SVG Version: 6.00 Build 0)  -->
<svg version="1.1" id="Capa_1" xmlns="http://www.w3.org/2000/svg" xmlns:xlink="http://www.w3.org/1999/xlink" x="0px" y="0px"
	 viewBox="0 0 250 50" style="enable-background:new 0 0 250 50;" xml:space="preserve">
<style type="text/css">
	.st0{opacity:0.72;}
	.st1{opacity:0.25;enable-background:new    ;}
	.st2{opacity:0.4;enable-background:new    ;}
	.st3{opacity:0.55;enable-background:new    ;}
	.st4{opacity:0.7;enable-background:new    ;}
	.st5{fill:#E4DECD;}
	.st6{fill:#057A3D;}
	.st7{opacity:0.25;fill:#319965;enable-background:new    ;}
	.st8{opacity:0.4;fill:#319965;enable-background:new    ;}
	.st9{opacity:0.55;fill:#319965;enable-background:new    ;}
	.st10{opacity:0.7;fill:#319965;enable-background:new    ;}
</style>
<g class="st0">
	<path d="M16.8,8.3c4.9,0,7,3.3,7,7.3c0,2.3-0.9,4.4-2.4,5.7l2.2,2.9h-3.3l-1.2-1.6c-0.7,0.2-1.5,0.3-2.3,0.3c-4.9,0-7-3.3-7-7.3
		C9.7,11.6,12.3,8.3,16.8,8.3z M17.7,16.3l1.8,2.4c0.6-0.8,0.9-1.9,0.9-3.1c0-2.4-1.4-4.4-3.6-4.4c-2.4,0-3.6,2-3.6,4.4
		c0,2.4,1.5,4.4,3.6,4.4c0.2,0,0.4,0,0.6,0l-1.4-2.1L17.7,16.3z"/>
	<path d="M35.6,22.7H33l-0.6-0.9c-0.5,0.5-1.6,1.1-2.9,1.1c-2.9,0-3.8-1.8-3.8-3.8v-7.4h3.4v6.9c0,1.1,0.5,1.6,1.4,1.6
		c0.7,0,1.3-0.3,1.6-0.6v-7.9h3.4V22.7z"/>
	<path d="M41.3,8.8c0,1.1-0.6,1.7-1.8,1.7c-1.3,0-1.8-0.7-1.8-1.7c0-1.1,0.5-1.7,1.8-1.7C40.8,7,41.3,7.7,41.3,8.8z M41.2,19.4
		c0,0.6,0.3,0.8,0.8,0.8c0.1,0,0.3,0,0.4-0.1l0.5,2.1c-0.4,0.4-1.3,0.7-2.1,0.7c-1.8,0-2.9-1.2-2.9-3v-8.1h3.4V19.4z"/>
	<path d="M46.9,18c0.1,1,1.2,1.9,2.7,1.9c1.2,0,2.1-0.3,2.8-0.7l0.7,2.6c-1.1,0.7-2.4,1-3.9,1c-3.3,0-5.8-1.8-5.8-5.5
		c0-3.5,2.1-5.8,5.3-5.8c3.4,0,4.7,2.3,4.7,4.7c0,0.8-0.2,1.9-0.2,1.9H46.9z M50.1,16.2c0-0.1,0-0.3,0-0.4c0-1-0.5-1.6-1.5-1.6
		c-1,0-1.8,0.8-1.8,2H50.1z M49.1,6.9h3.1l-2.8,3.6h-2.5L49.1,6.9z"/>
	<path d="M55.3,11.7h2.6l0.6,0.9c0.6-0.5,1.7-1.1,3.1-1.1c2.6,0,3.7,1.5,3.7,3.9v7.3h-3.4v-6.9c0-1.1-0.5-1.6-1.5-1.6
		c-0.7,0-1.3,0.3-1.7,0.6v7.9h-3.4V11.7z"/>
	<path d="M70.3,18c0.1,1,1.2,1.9,2.7,1.9c1.2,0,2.1-0.3,2.8-0.7l0.7,2.6c-1.1,0.7-2.4,1-3.9,1c-3.3,0-5.8-1.8-5.8-5.5
		c0-3.5,2.1-5.8,5.3-5.8c3.4,0,4.7,2.3,4.7,4.7c0,0.8-0.2,1.9-0.2,1.9H70.3z M73.5,16.2c0-0.1,0-0.3,0-0.4c0-1-0.5-1.6-1.5-1.6
		c-1,0-1.8,0.8-1.8,2H73.5z"/>
	<path d="M85.7,14.9c-1.1-0.5-1.7-0.6-2.9-0.6c-0.9,0-1.3,0.3-1.3,0.7c0,1.3,5.1,0.4,5.1,4.1c0,2.3-1.7,3.9-4.9,3.9
		c-1.6,0-3-0.6-3.7-1.1l0.7-2.6c0.8,0.4,2,0.8,3.2,0.8c1,0,1.5-0.3,1.5-0.8c0-1.3-5.2-0.4-5.2-4.2c0-2.2,1.7-3.6,4.6-3.6
		c1.7,0,3,0.4,3.8,0.8L85.7,14.9z"/>
	<path d="M100.8,14.9c-1.1-0.5-1.7-0.6-2.9-0.6c-0.9,0-1.3,0.3-1.3,0.7c0,1.3,5.1,0.4,5.1,4.1c0,2.3-1.7,3.9-4.9,3.9
		c-1.6,0-3-0.6-3.7-1.1l0.7-2.6c0.8,0.4,2,0.8,3.2,0.8c1,0,1.5-0.3,1.5-0.8c0-1.3-5.2-0.4-5.2-4.2c0-2.2,1.7-3.6,4.6-3.6
		c1.7,0,3,0.4,3.8,0.8L100.8,14.9z"/>
	<path d="M115.7,11.7h2.6l0.6,0.9c0.6-0.5,1.7-1.1,3.1-1.1c2.6,0,3.7,1.5,3.7,3.9v7.3h-3.4v-6.9c0-1.1-0.5-1.6-1.5-1.6
		c-0.7,0-1.3,0.3-1.7,0.6v7.9h-3.4V11.7z"/>
	<path d="M136.5,19.4c0,0.6,0.3,0.8,0.8,0.8c0.1,0,0.3,0,0.4-0.1l0.5,2.1c-0.4,0.4-1.3,0.7-2.1,0.7c-1.8,0-2.9-1.2-2.9-3V6.3h3.4
		V19.4z"/>
	<path d="M158.6,14.9c-1.1-0.5-1.7-0.6-2.9-0.6c-0.9,0-1.3,0.3-1.3,0.7c0,1.3,5.1,0.4,5.1,4.1c0,2.3-1.7,3.9-4.9,3.9
		c-1.6,0-3-0.6-3.7-1.1l0.7-2.6c0.8,0.4,2,0.8,3.2,0.8c1,0,1.5-0.3,1.5-0.8c0-1.3-5.2-0.4-5.2-4.2c0-2.2,1.7-3.6,4.6-3.6
		c1.7,0,3,0.4,3.8,0.8L158.6,14.9z"/>
	<path d="M166.6,11.7h2.6l0.6,0.9c0,0,1.1-1.1,3.1-1.1c2.4,0,4.3,1.7,4.3,5.5c0,3.8-2.6,5.9-5.4,5.9c-0.9,0-1.9-0.3-1.9-0.3v4.3
		h-3.3V11.7z M170,20c0,0,0.6,0.3,1.5,0.3c1.3,0,2.2-1.1,2.2-3.1c0-1.9-0.9-2.9-2.1-2.9c-1,0-1.6,0.4-1.6,0.4V20z"/>
	<path d="M188.8,22.7h-2.6l-0.6-0.9c-0.5,0.5-1.6,1.1-2.9,1.1c-2.9,0-3.8-1.8-3.8-3.8v-7.4h3.4v6.9c0,1.1,0.5,1.6,1.4,1.6
		c0.7,0,1.3-0.3,1.6-0.6v-7.9h3.4V22.7z"/>
	<path d="M194,18c0.1,1,1.2,1.9,2.7,1.9c1.2,0,2.1-0.3,2.8-0.7l0.7,2.6c-1.1,0.7-2.4,1-3.9,1c-3.3,0-5.8-1.8-5.8-5.5
		c0-3.5,2.1-5.8,5.3-5.8c3.4,0,4.7,2.3,4.7,4.7c0,0.8-0.2,1.9-0.2,1.9H194z M197.1,16.2c0-0.1,0-0.3,0-0.4c0-1-0.5-1.6-1.5-1.6
		c-1,0-1.8,0.8-1.8,2H197.1z"/>
	<path d="M205.7,12.1c0,0,0.9-0.6,2.4-0.6c1.7,0,4.8,1,4.8,5.6c0,3.7-2.7,5.7-5.8,5.7c-2.7,0-4.8-1.1-4.8-1.1V6.3h3.4V12.1z
		 M205.7,20c0,0,0.6,0.3,1.5,0.3c1.2,0,2.2-1,2.2-3.1c0-1.8-0.8-2.9-2.1-2.9c-0.6,0-1.4,0.3-1.6,0.4V20z"/>
	<path d="M218.1,19.4c0,0.6,0.3,0.8,0.8,0.8c0.1,0,0.3,0,0.4-0.1l0.5,2.1c-0.4,0.4-1.3,0.7-2.1,0.7c-1.8,0-2.9-1.2-2.9-3V6.3h3.4
		V19.4z"/>
	<path d="M240.2,14.9c-1.1-0.5-1.7-0.6-2.9-0.6c-0.9,0-1.3,0.3-1.3,0.7c0,1.3,5.1,0.4,5.1,4.1c0,2.3-1.7,3.9-4.9,3.9
		c-1.6,0-3-0.6-3.7-1.1l0.7-2.6c0.8,0.4,2,0.8,3.2,0.8c1,0,1.5-0.3,1.5-0.8c0-1.3-5.2-0.4-5.2-4.2c0-2.2,1.7-3.6,4.6-3.6
		c1.7,0,3,0.4,3.8,0.8L240.2,14.9z"/>
	<path d="M13,38.2c0.1,1,1.2,1.9,2.7,1.9c1.2,0,2.1-0.3,2.8-0.7l0.7,2.6c-1.1,0.7-2.4,1-3.9,1c-3.3,0-5.8-1.8-5.8-5.5
		c0-3.5,2.1-5.8,5.3-5.8c3.4,0,4.7,2.3,4.7,4.7c0,0.8-0.2,1.9-0.2,1.9H13z M16.2,36.3c0-0.1,0-0.3,0-0.4c0-1-0.5-1.6-1.5-1.6
		c-1,0-1.8,0.8-1.8,2H16.2z M15.2,27.1h3.1l-2.8,3.6h-2.5L15.2,27.1z"/>
	<path d="M21.9,31.8v-2l3.3-0.8v2.8H28v2.6h-2.7v4.4c0,0.7,0.4,1.2,1.3,1.2c0.4,0,0.8-0.1,1-0.2l0.6,2.5c-0.7,0.4-1.6,0.7-2.8,0.7
		c-2,0-3.4-1.3-3.4-3.5v-5.1h-1.7v-2.6H21.9z"/>
	<path d="M29.6,31.8h2.6l0.6,0.9c0.6-0.5,1.7-1.1,3.1-1.1c2.6,0,3.7,1.5,3.7,3.9v7.3h-3.4v-6.9c0-1.1-0.5-1.6-1.5-1.6
		c-0.7,0-1.3,0.3-1.7,0.6v7.9h-3.4V31.8z"/>
	<path d="M45.2,28.9c0,1.1-0.6,1.7-1.8,1.7c-1.3,0-1.8-0.7-1.8-1.7c0-1.1,0.5-1.7,1.8-1.7C44.7,27.2,45.2,27.8,45.2,28.9z
		 M45.1,39.5c0,0.6,0.3,0.8,0.8,0.8c0.1,0,0.3,0,0.4-0.1l0.5,2.1c-0.4,0.4-1.3,0.7-2.1,0.7c-1.8,0-2.9-1.2-2.9-3v-8.1h3.4V39.5z"/>
	<path d="M53.4,31.6c1,0,2,0.3,2.6,0.6l-0.9,2.7c-0.5-0.3-1.1-0.4-1.8-0.4c-1.4,0-2.6,0.9-2.6,2.7c0,2.1,1.5,2.7,2.7,2.7
		c0.7,0,1.3-0.2,1.8-0.5l0.8,2.6C55.3,42.7,54,43,52.7,43c-3.2,0-5.3-2.2-5.3-5.6C47.4,33.6,50,31.6,53.4,31.6z"/>
	<path d="M77,35c-1.1-0.5-1.7-0.6-2.9-0.6c-0.9,0-1.3,0.3-1.3,0.7c0,1.3,5.1,0.4,5.1,4.1c0,2.3-1.7,3.9-4.9,3.9
		c-1.6,0-3-0.6-3.7-1.1l0.7-2.6c0.8,0.4,2,0.8,3.2,0.8c1,0,1.5-0.3,1.5-0.8c0-1.3-5.2-0.4-5.2-4.2c0-2.2,1.7-3.6,4.6-3.6
		c1.7,0,3,0.4,3.8,0.8L77,35z"/>
	<path d="M95.1,42.8h-2.6l-0.6-0.9c0,0-0.7,1.1-2.7,1.1c-2.4,0-4.7-1.8-4.7-5.6c0-3.5,2.3-5.8,5.4-5.8c0.9,0,1.9,0.3,1.9,0.3v-5.5
		h3.4V42.8z M91.7,34.5c0,0-0.6-0.3-1.5-0.3c-1.3,0-2.2,1.1-2.2,3.1c0,1.9,0.9,2.9,2.1,2.9c1,0,1.6-0.4,1.6-0.4V34.5z"/>
	<path d="M100.3,38.2c0.1,1,1.2,1.9,2.7,1.9c1.2,0,2.1-0.3,2.8-0.7l0.7,2.6c-1.1,0.7-2.4,1-3.9,1c-3.3,0-5.8-1.8-5.8-5.5
		c0-3.5,2.1-5.8,5.3-5.8c3.4,0,4.7,2.3,4.7,4.7c0,0.8-0.2,1.9-0.2,1.9H100.3z M103.5,36.3c0-0.1,0-0.3,0-0.4c0-1-0.5-1.6-1.5-1.6
		c-1,0-1.8,0.8-1.8,2H103.5z"/>
	<path d="M119.5,31.6c1,0,2,0.3,2.6,0.6l-0.9,2.7c-0.5-0.3-1.1-0.4-1.8-0.4c-1.4,0-2.6,0.9-2.6,2.7c0,2.1,1.5,2.7,2.7,2.7
		c0.7,0,1.3-0.2,1.8-0.5l0.8,2.6c-0.8,0.5-2.1,0.8-3.4,0.8c-3.2,0-5.3-2.2-5.3-5.6C113.5,33.6,116.1,31.6,119.5,31.6z"/>
	<path d="M139.3,39.5c0,0.6,0.3,0.8,0.8,0.8c0.1,0,0.3,0,0.4-0.1l0.5,2.1c-0.4,0.4-1.3,0.7-2.1,0.7c-1.8,0-2.9-1.2-2.9-3V26.4h3.4
		V39.5z"/>
	<path d="M166.7,35.8c0-0.9-0.3-1.5-1.3-1.5c-0.5,0-1.1,0.2-1.5,0.6v7.9h-3.4v-7c0-0.9-0.3-1.5-1.3-1.5c-0.5,0-1.1,0.2-1.6,0.6v7.9
		h-3.4V31.8h2.6l0.6,0.9c0,0,1.3-1.1,3.2-1.1c1.4,0,2.4,0.5,2.9,1.1c0.6-0.6,1.8-1.1,3.1-1.1c2.2,0,3.4,1.3,3.4,3.5v7.6h-3.4V35.8z"
		/>
	<path d="M175.7,32.2c0,0,0.9-0.6,2.4-0.6c1.7,0,4.8,1,4.8,5.6c0,3.7-2.7,5.7-5.8,5.7c-2.7,0-4.8-1.1-4.8-1.1V26.4h3.4V32.2z
		 M175.7,40.1c0,0,0.6,0.3,1.5,0.3c1.2,0,2.2-1,2.2-3.1c0-1.8-0.8-2.9-2.1-2.9c-0.6,0-1.4,0.3-1.6,0.4V40.1z"/>
	<path d="M188.3,28.9c0,1.1-0.6,1.7-1.8,1.7c-1.3,0-1.8-0.7-1.8-1.7c0-1.1,0.5-1.7,1.8-1.7C187.7,27.2,188.3,27.8,188.3,28.9z
		 M188.1,39.5c0,0.6,0.3,0.8,0.8,0.8c0.1,0,0.3,0,0.4-0.1l0.5,2.1c-0.4,0.4-1.3,0.7-2.1,0.7c-1.8,0-2.9-1.2-2.9-3v-8.1h3.4V39.5z"/>
	<path d="M191.2,32.6c0.8-0.5,2.4-1,4.1-1c3.9,0,4.7,1.9,4.7,4.9v3.1c0,0.5,0.3,0.7,0.7,0.7c0.1,0,0.3,0,0.4-0.1l0.5,2.1
		c-0.4,0.3-1.3,0.7-2.1,0.7c-1.4,0-2.2-0.5-2.6-1.4c-0.4,0.7-1.6,1.4-3.1,1.4c-1.5,0-3.3-0.8-3.3-3c0-2.8,2.8-3.6,6.1-3.6
		c0-1.2-0.5-1.9-1.9-1.9c-1,0-1.9,0.2-2.8,0.6L191.2,32.6z M196.6,38.2c-1.5,0.1-2.7,0.3-2.7,1.3c0,0.5,0.4,1,1.1,1
		c0.7,0,1.3-0.4,1.6-0.7V38.2z"/>
	<g>
		<path class="st1" d="M108.3,10.8c-3.8,0-6.9,3.1-6.9,6.9s3.1,6.9,6.9,6.9s6.9-3.1,6.9-6.9S112.1,10.8,108.3,10.8z M108.3,24.1
			c-3.5,0-6.4-2.9-6.4-6.4s2.9-6.4,6.4-6.4s6.4,2.9,6.4,6.4S111.8,24.1,108.3,24.1z"/>
		<path class="st1" d="M108.3,11.3c-3.5,0-6.4,2.9-6.4,6.4s2.9,6.4,6.4,6.4s6.4-2.9,6.4-6.4S111.8,11.3,108.3,11.3z M108.3,23.5
			c-3.2,0-5.8-2.6-5.8-5.8s2.6-5.8,5.8-5.8s5.8,2.6,5.8,5.8S111.5,23.5,108.3,23.5z"/>
		<path class="st2" d="M108.3,11.3c-3.5,0-6.4,2.9-6.4,6.4s2.9,6.4,6.4,6.4s6.4-2.9,6.4-6.4S111.8,11.3,108.3,11.3z M108.3,23.5
			c-3.2,0-5.8-2.6-5.8-5.8s2.6-5.8,5.8-5.8s5.8,2.6,5.8,5.8S111.5,23.5,108.3,23.5z"/>
		<path class="st1" d="M108.3,11.9c-3.2,0-5.8,2.6-5.8,5.8s2.6,5.8,5.8,5.8s5.8-2.6,5.8-5.8S111.5,11.9,108.3,11.9z M108.3,22.9
			c-2.9,0-5.2-2.3-5.2-5.2s2.3-5.2,5.2-5.2c2.9,0,5.2,2.3,5.2,5.2S111.2,22.9,108.3,22.9z"/>
		<path class="st2" d="M108.3,11.9c-3.2,0-5.8,2.6-5.8,5.8s2.6,5.8,5.8,5.8s5.8-2.6,5.8-5.8S111.5,11.9,108.3,11.9z M108.3,22.9
			c-2.9,0-5.2-2.3-5.2-5.2s2.3-5.2,5.2-5.2c2.9,0,5.2,2.3,5.2,5.2S111.2,22.9,108.3,22.9z"/>
		<path class="st3" d="M108.3,11.9c-3.2,0-5.8,2.6-5.8,5.8s2.6,5.8,5.8,5.8s5.8-2.6,5.8-5.8S111.5,11.9,108.3,11.9z M108.3,22.9
			c-2.9,0-5.2-2.3-5.2-5.2s2.3-5.2,5.2-5.2c2.9,0,5.2,2.3,5.2,5.2S111.2,22.9,108.3,22.9z"/>
		<path class="st1" d="M108.3,12.5c-2.9,0-5.2,2.3-5.2,5.2s2.3,5.2,5.2,5.2c2.9,0,5.2-2.3,5.2-5.2S111.2,12.5,108.3,12.5z
			 M108.3,22.2c-2.5,0-4.5-2-4.5-4.5s2-4.5,4.5-4.5s4.5,2,4.5,4.5S110.8,22.2,108.3,22.2z"/>
		<path class="st2" d="M108.3,12.5c-2.9,0-5.2,2.3-5.2,5.2s2.3,5.2,5.2,5.2c2.9,0,5.2-2.3,5.2-5.2S111.2,12.5,108.3,12.5z
			 M108.3,22.2c-2.5,0-4.5-2-4.5-4.5s2-4.5,4.5-4.5s4.5,2,4.5,4.5S110.8,22.2,108.3,22.2z"/>
		<path class="st3" d="M108.3,12.5c-2.9,0-5.2,2.3-5.2,5.2s2.3,5.2,5.2,5.2c2.9,0,5.2-2.3,5.2-5.2S111.2,12.5,108.3,12.5z
			 M108.3,22.2c-2.5,0-4.5-2-4.5-4.5s2-4.5,4.5-4.5s4.5,2,4.5,4.5S110.8,22.2,108.3,22.2z"/>
		<path class="st4" d="M108.3,12.5c-2.9,0-5.2,2.3-5.2,5.2s2.3,5.2,5.2,5.2c2.9,0,5.2-2.3,5.2-5.2S111.2,12.5,108.3,12.5z
			 M108.3,22.2c-2.5,0-4.5-2-4.5-4.5s2-4.5,4.5-4.5s4.5,2,4.5,4.5S110.8,22.2,108.3,22.2z"/>
	</g>
	<g>
		<path class="st1" d="M144.3,10.8c-3.8,0-6.9,3.1-6.9,6.9s3.1,6.9,6.9,6.9s6.9-3.1,6.9-6.9S148.1,10.8,144.3,10.8z M144.3,24.1
			c-3.5,0-6.4-2.9-6.4-6.4s2.9-6.4,6.4-6.4s6.4,2.9,6.4,6.4S147.8,24.1,144.3,24.1z"/>
		<path class="st1" d="M144.3,11.3c-3.5,0-6.4,2.9-6.4,6.4s2.9,6.4,6.4,6.4s6.4-2.9,6.4-6.4S147.8,11.3,144.3,11.3z M144.3,23.5
			c-3.2,0-5.8-2.6-5.8-5.8s2.6-5.8,5.8-5.8s5.8,2.6,5.8,5.8S147.5,23.5,144.3,23.5z"/>
		<path class="st2" d="M144.3,11.3c-3.5,0-6.4,2.9-6.4,6.4s2.9,6.4,6.4,6.4s6.4-2.9,6.4-6.4S147.8,11.3,144.3,11.3z M144.3,23.5
			c-3.2,0-5.8-2.6-5.8-5.8s2.6-5.8,5.8-5.8s5.8,2.6,5.8,5.8S147.5,23.5,144.3,23.5z"/>
		<path class="st1" d="M144.3,11.9c-3.2,0-5.8,2.6-5.8,5.8s2.6,5.8,5.8,5.8s5.8-2.6,5.8-5.8S147.5,11.9,144.3,11.9z M144.3,22.9
			c-2.9,0-5.2-2.3-5.2-5.2s2.3-5.2,5.2-5.2s5.2,2.3,5.2,5.2S147.2,22.9,144.3,22.9z"/>
		<path class="st2" d="M144.3,11.9c-3.2,0-5.8,2.6-5.8,5.8s2.6,5.8,5.8,5.8s5.8-2.6,5.8-5.8S147.5,11.9,144.3,11.9z M144.3,22.9
			c-2.9,0-5.2-2.3-5.2-5.2s2.3-5.2,5.2-5.2s5.2,2.3,5.2,5.2S147.2,22.9,144.3,22.9z"/>
		<path class="st3" d="M144.3,11.9c-3.2,0-5.8,2.6-5.8,5.8s2.6,5.8,5.8,5.8s5.8-2.6,5.8-5.8S147.5,11.9,144.3,11.9z M144.3,22.9
			c-2.9,0-5.2-2.3-5.2-5.2s2.3-5.2,5.2-5.2s5.2,2.3,5.2,5.2S147.2,22.9,144.3,22.9z"/>
		<path class="st1" d="M144.3,12.5c-2.9,0-5.2,2.3-5.2,5.2s2.3,5.2,5.2,5.2s5.2-2.3,5.2-5.2S147.2,12.5,144.3,12.5z M144.3,22.2
			c-2.5,0-4.5-2-4.5-4.5s2-4.5,4.5-4.5s4.5,2,4.5,4.5S146.8,22.2,144.3,22.2z"/>
		<path class="st2" d="M144.3,12.5c-2.9,0-5.2,2.3-5.2,5.2s2.3,5.2,5.2,5.2s5.2-2.3,5.2-5.2S147.2,12.5,144.3,12.5z M144.3,22.2
			c-2.5,0-4.5-2-4.5-4.5s2-4.5,4.5-4.5s4.5,2,4.5,4.5S146.8,22.2,144.3,22.2z"/>
		<path class="st3" d="M144.3,12.5c-2.9,0-5.2,2.3-5.2,5.2s2.3,5.2,5.2,5.2s5.2-2.3,5.2-5.2S147.2,12.5,144.3,12.5z M144.3,22.2
			c-2.5,0-4.5-2-4.5-4.5s2-4.5,4.5-4.5s4.5,2,4.5,4.5S146.8,22.2,144.3,22.2z"/>
		<path class="st4" d="M144.3,12.5c-2.9,0-5.2,2.3-5.2,5.2s2.3,5.2,5.2,5.2s5.2-2.3,5.2-5.2S147.2,12.5,144.3,12.5z M144.3,22.2
			c-2.5,0-4.5-2-4.5-4.5s2-4.5,4.5-4.5s4.5,2,4.5,4.5S146.8,22.2,144.3,22.2z"/>
	</g>
	<g>
		<path class="st1" d="M226.3,10.8c-3.8,0-6.9,3.1-6.9,6.9s3.1,6.9,6.9,6.9s6.9-3.1,6.9-6.9S230.1,10.8,226.3,10.8z M226.3,24.1
			c-3.5,0-6.4-2.9-6.4-6.4s2.9-6.4,6.4-6.4s6.4,2.9,6.4,6.4S229.8,24.1,226.3,24.1z"/>
		<path class="st1" d="M226.3,11.3c-3.5,0-6.4,2.9-6.4,6.4s2.9,6.4,6.4,6.4s6.4-2.9,6.4-6.4S229.8,11.3,226.3,11.3z M226.3,23.5
			c-3.2,0-5.8-2.6-5.8-5.8s2.6-5.8,5.8-5.8s5.8,2.6,5.8,5.8S229.5,23.5,226.3,23.5z"/>
		<path class="st2" d="M226.3,11.3c-3.5,0-6.4,2.9-6.4,6.4s2.9,6.4,6.4,6.4s6.4-2.9,6.4-6.4S229.8,11.3,226.3,11.3z M226.3,23.5
			c-3.2,0-5.8-2.6-5.8-5.8s2.6-5.8,5.8-5.8s5.8,2.6,5.8,5.8S229.5,23.5,226.3,23.5z"/>
		<path class="st1" d="M226.3,11.9c-3.2,0-5.8,2.6-5.8,5.8s2.6,5.8,5.8,5.8s5.8-2.6,5.8-5.8S229.5,11.9,226.3,11.9z M226.3,22.9
			c-2.9,0-5.2-2.3-5.2-5.2s2.3-5.2,5.2-5.2s5.2,2.3,5.2,5.2S229.2,22.9,226.3,22.9z"/>
		<path class="st2" d="M226.3,11.9c-3.2,0-5.8,2.6-5.8,5.8s2.6,5.8,5.8,5.8s5.8-2.6,5.8-5.8S229.5,11.9,226.3,11.9z M226.3,22.9
			c-2.9,0-5.2-2.3-5.2-5.2s2.3-5.2,5.2-5.2s5.2,2.3,5.2,5.2S229.2,22.9,226.3,22.9z"/>
		<path class="st3" d="M226.3,11.9c-3.2,0-5.8,2.6-5.8,5.8s2.6,5.8,5.8,5.8s5.8-2.6,5.8-5.8S229.5,11.9,226.3,11.9z M226.3,22.9
			c-2.9,0-5.2-2.3-5.2-5.2s2.3-5.2,5.2-5.2s5.2,2.3,5.2,5.2S229.2,22.9,226.3,22.9z"/>
		<path class="st1" d="M226.3,12.5c-2.9,0-5.2,2.3-5.2,5.2s2.3,5.2,5.2,5.2s5.2-2.3,5.2-5.2S229.2,12.5,226.3,12.5z M226.3,22.2
			c-2.5,0-4.5-2-4.5-4.5s2-4.5,4.5-4.5s4.5,2,4.5,4.5S228.8,22.2,226.3,22.2z"/>
		<path class="st2" d="M226.3,12.5c-2.9,0-5.2,2.3-5.2,5.2s2.3,5.2,5.2,5.2s5.2-2.3,5.2-5.2S229.2,12.5,226.3,12.5z M226.3,22.2
			c-2.5,0-4.5-2-4.5-4.5s2-4.5,4.5-4.5s4.5,2,4.5,4.5S228.8,22.2,226.3,22.2z"/>
		<path class="st3" d="M226.3,12.5c-2.9,0-5.2,2.3-5.2,5.2s2.3,5.2,5.2,5.2s5.2-2.3,5.2-5.2S229.2,12.5,226.3,12.5z M226.3,22.2
			c-2.5,0-4.5-2-4.5-4.5s2-4.5,4.5-4.5s4.5,2,4.5,4.5S228.8,22.2,226.3,22.2z"/>
		<path class="st4" d="M226.3,12.5c-2.9,0-5.2,2.3-5.2,5.2s2.3,5.2,5.2,5.2s5.2-2.3,5.2-5.2S229.2,12.5,226.3,12.5z M226.3,22.2
			c-2.5,0-4.5-2-4.5-4.5s2-4.5,4.5-4.5s4.5,2,4.5,4.5S228.8,22.2,226.3,22.2z"/>
	</g>
	<g>
		<path class="st1" d="M62.3,30.8c-3.8,0-6.9,3.1-6.9,6.9c0,3.8,3.1,6.9,6.9,6.9s6.9-3.1,6.9-6.9C69.2,33.9,66.1,30.8,62.3,30.8z
			 M62.3,44.1c-3.5,0-6.4-2.9-6.4-6.4c0-3.5,2.9-6.4,6.4-6.4s6.4,2.9,6.4,6.4C68.7,41.2,65.8,44.1,62.3,44.1z"/>
		<path class="st1" d="M62.3,31.3c-3.5,0-6.4,2.9-6.4,6.4c0,3.5,2.9,6.4,6.4,6.4s6.4-2.9,6.4-6.4C68.7,34.2,65.8,31.3,62.3,31.3z
			 M62.3,43.5c-3.2,0-5.8-2.6-5.8-5.8c0-3.2,2.6-5.8,5.8-5.8c3.2,0,5.8,2.6,5.8,5.8C68.1,40.9,65.5,43.5,62.3,43.5z"/>
		<path class="st2" d="M62.3,31.3c-3.5,0-6.4,2.9-6.4,6.4c0,3.5,2.9,6.4,6.4,6.4s6.4-2.9,6.4-6.4C68.7,34.2,65.8,31.3,62.3,31.3z
			 M62.3,43.5c-3.2,0-5.8-2.6-5.8-5.8c0-3.2,2.6-5.8,5.8-5.8c3.2,0,5.8,2.6,5.8,5.8C68.1,40.9,65.5,43.5,62.3,43.5z"/>
		<path class="st1" d="M62.3,31.9c-3.2,0-5.8,2.6-5.8,5.8c0,3.2,2.6,5.8,5.8,5.8c3.2,0,5.8-2.6,5.8-5.8
			C68.1,34.5,65.5,31.9,62.3,31.9z M62.3,42.9c-2.9,0-5.2-2.3-5.2-5.2c0-2.9,2.3-5.2,5.2-5.2c2.9,0,5.2,2.3,5.2,5.2
			C67.5,40.6,65.2,42.9,62.3,42.9z"/>
		<path class="st2" d="M62.3,31.9c-3.2,0-5.8,2.6-5.8,5.8c0,3.2,2.6,5.8,5.8,5.8c3.2,0,5.8-2.6,5.8-5.8
			C68.1,34.5,65.5,31.9,62.3,31.9z M62.3,42.9c-2.9,0-5.2-2.3-5.2-5.2c0-2.9,2.3-5.2,5.2-5.2c2.9,0,5.2,2.3,5.2,5.2
			C67.5,40.6,65.2,42.9,62.3,42.9z"/>
		<path class="st3" d="M62.3,31.9c-3.2,0-5.8,2.6-5.8,5.8c0,3.2,2.6,5.8,5.8,5.8c3.2,0,5.8-2.6,5.8-5.8
			C68.1,34.5,65.5,31.9,62.3,31.9z M62.3,42.9c-2.9,0-5.2-2.3-5.2-5.2c0-2.9,2.3-5.2,5.2-5.2c2.9,0,5.2,2.3,5.2,5.2
			C67.5,40.6,65.2,42.9,62.3,42.9z"/>
		<path class="st1" d="M62.3,32.5c-2.9,0-5.2,2.3-5.2,5.2c0,2.9,2.3,5.2,5.2,5.2c2.9,0,5.2-2.3,5.2-5.2
			C67.5,34.8,65.2,32.5,62.3,32.5z M62.3,42.2c-2.5,0-4.5-2-4.5-4.5s2-4.5,4.5-4.5s4.5,2,4.5,4.5S64.8,42.2,62.3,42.2z"/>
		<path class="st2" d="M62.3,32.5c-2.9,0-5.2,2.3-5.2,5.2c0,2.9,2.3,5.2,5.2,5.2c2.9,0,5.2-2.3,5.2-5.2
			C67.5,34.8,65.2,32.5,62.3,32.5z M62.3,42.2c-2.5,0-4.5-2-4.5-4.5s2-4.5,4.5-4.5s4.5,2,4.5,4.5S64.8,42.2,62.3,42.2z"/>
		<path class="st3" d="M62.3,32.5c-2.9,0-5.2,2.3-5.2,5.2c0,2.9,2.3,5.2,5.2,5.2c2.9,0,5.2-2.3,5.2-5.2
			C67.5,34.8,65.2,32.5,62.3,32.5z M62.3,42.2c-2.5,0-4.5-2-4.5-4.5s2-4.5,4.5-4.5s4.5,2,4.5,4.5S64.8,42.2,62.3,42.2z"/>
		<path class="st4" d="M62.3,32.5c-2.9,0-5.2,2.3-5.2,5.2c0,2.9,2.3,5.2,5.2,5.2c2.9,0,5.2-2.3,5.2-5.2
			C67.5,34.8,65.2,32.5,62.3,32.5z M62.3,42.2c-2.5,0-4.5-2-4.5-4.5s2-4.5,4.5-4.5s4.5,2,4.5,4.5S64.8,42.2,62.3,42.2z"/>
	</g>
	<g>
		<path class="st1" d="M128.3,30.8c-3.8,0-6.9,3.1-6.9,6.9c0,3.8,3.1,6.9,6.9,6.9s6.9-3.1,6.9-6.9C135.2,33.9,132.1,30.8,128.3,30.8
			z M128.3,44.1c-3.5,0-6.4-2.9-6.4-6.4c0-3.5,2.9-6.4,6.4-6.4s6.4,2.9,6.4,6.4C134.7,41.2,131.8,44.1,128.3,44.1z"/>
		<path class="st1" d="M128.3,31.3c-3.5,0-6.4,2.9-6.4,6.4c0,3.5,2.9,6.4,6.4,6.4s6.4-2.9,6.4-6.4C134.7,34.2,131.8,31.3,128.3,31.3
			z M128.3,43.5c-3.2,0-5.8-2.6-5.8-5.8c0-3.2,2.6-5.8,5.8-5.8c3.2,0,5.8,2.6,5.8,5.8C134.1,40.9,131.5,43.5,128.3,43.5z"/>
		<path class="st2" d="M128.3,31.3c-3.5,0-6.4,2.9-6.4,6.4c0,3.5,2.9,6.4,6.4,6.4s6.4-2.9,6.4-6.4C134.7,34.2,131.8,31.3,128.3,31.3
			z M128.3,43.5c-3.2,0-5.8-2.6-5.8-5.8c0-3.2,2.6-5.8,5.8-5.8c3.2,0,5.8,2.6,5.8,5.8C134.1,40.9,131.5,43.5,128.3,43.5z"/>
		<path class="st1" d="M128.3,31.9c-3.2,0-5.8,2.6-5.8,5.8c0,3.2,2.6,5.8,5.8,5.8c3.2,0,5.8-2.6,5.8-5.8
			C134.1,34.5,131.5,31.9,128.3,31.9z M128.3,42.9c-2.9,0-5.2-2.3-5.2-5.2c0-2.9,2.3-5.2,5.2-5.2c2.9,0,5.2,2.3,5.2,5.2
			C133.5,40.6,131.2,42.9,128.3,42.9z"/>
		<path class="st2" d="M128.3,31.9c-3.2,0-5.8,2.6-5.8,5.8c0,3.2,2.6,5.8,5.8,5.8c3.2,0,5.8-2.6,5.8-5.8
			C134.1,34.5,131.5,31.9,128.3,31.9z M128.3,42.9c-2.9,0-5.2-2.3-5.2-5.2c0-2.9,2.3-5.2,5.2-5.2c2.9,0,5.2,2.3,5.2,5.2
			C133.5,40.6,131.2,42.9,128.3,42.9z"/>
		<path class="st3" d="M128.3,31.9c-3.2,0-5.8,2.6-5.8,5.8c0,3.2,2.6,5.8,5.8,5.8c3.2,0,5.8-2.6,5.8-5.8
			C134.1,34.5,131.5,31.9,128.3,31.9z M128.3,42.9c-2.9,0-5.2-2.3-5.2-5.2c0-2.9,2.3-5.2,5.2-5.2c2.9,0,5.2,2.3,5.2,5.2
			C133.5,40.6,131.2,42.9,128.3,42.9z"/>
		<path class="st1" d="M128.3,32.5c-2.9,0-5.2,2.3-5.2,5.2c0,2.9,2.3,5.2,5.2,5.2c2.9,0,5.2-2.3,5.2-5.2
			C133.5,34.8,131.2,32.5,128.3,32.5z M128.3,42.2c-2.5,0-4.5-2-4.5-4.5s2-4.5,4.5-4.5s4.5,2,4.5,4.5S130.8,42.2,128.3,42.2z"/>
		<path class="st2" d="M128.3,32.5c-2.9,0-5.2,2.3-5.2,5.2c0,2.9,2.3,5.2,5.2,5.2c2.9,0,5.2-2.3,5.2-5.2
			C133.5,34.8,131.2,32.5,128.3,32.5z M128.3,42.2c-2.5,0-4.5-2-4.5-4.5s2-4.5,4.5-4.5s4.5,2,4.5,4.5S130.8,42.2,128.3,42.2z"/>
		<path class="st3" d="M128.3,32.5c-2.9,0-5.2,2.3-5.2,5.2c0,2.9,2.3,5.2,5.2,5.2c2.9,0,5.2-2.3,5.2-5.2
			C133.5,34.8,131.2,32.5,128.3,32.5z M128.3,42.2c-2.5,0-4.5-2-4.5-4.5s2-4.5,4.5-4.5s4.5,2,4.5,4.5S130.8,42.2,128.3,42.2z"/>
		<path class="st4" d="M128.3,32.5c-2.9,0-5.2,2.3-5.2,5.2c0,2.9,2.3,5.2,5.2,5.2c2.9,0,5.2-2.3,5.2-5.2
			C133.5,34.8,131.2,32.5,128.3,32.5z M128.3,42.2c-2.5,0-4.5-2-4.5-4.5s2-4.5,4.5-4.5s4.5,2,4.5,4.5S130.8,42.2,128.3,42.2z"/>
	</g>
	<g>
		<path class="st1" d="M147.3,30.8c-3.8,0-6.9,3.1-6.9,6.9c0,3.8,3.1,6.9,6.9,6.9s6.9-3.1,6.9-6.9C154.2,33.9,151.1,30.8,147.3,30.8
			z M147.3,44.1c-3.5,0-6.4-2.9-6.4-6.4c0-3.5,2.9-6.4,6.4-6.4s6.4,2.9,6.4,6.4C153.7,41.2,150.8,44.1,147.3,44.1z"/>
		<path class="st1" d="M147.3,31.3c-3.5,0-6.4,2.9-6.4,6.4c0,3.5,2.9,6.4,6.4,6.4s6.4-2.9,6.4-6.4C153.7,34.2,150.8,31.3,147.3,31.3
			z M147.3,43.5c-3.2,0-5.8-2.6-5.8-5.8c0-3.2,2.6-5.8,5.8-5.8s5.8,2.6,5.8,5.8C153.1,40.9,150.5,43.5,147.3,43.5z"/>
		<path class="st2" d="M147.3,31.3c-3.5,0-6.4,2.9-6.4,6.4c0,3.5,2.9,6.4,6.4,6.4s6.4-2.9,6.4-6.4C153.7,34.2,150.8,31.3,147.3,31.3
			z M147.3,43.5c-3.2,0-5.8-2.6-5.8-5.8c0-3.2,2.6-5.8,5.8-5.8s5.8,2.6,5.8,5.8C153.1,40.9,150.5,43.5,147.3,43.5z"/>
		<path class="st1" d="M147.3,31.9c-3.2,0-5.8,2.6-5.8,5.8c0,3.2,2.6,5.8,5.8,5.8s5.8-2.6,5.8-5.8C153.1,34.5,150.5,31.9,147.3,31.9
			z M147.3,42.9c-2.9,0-5.2-2.3-5.2-5.2c0-2.9,2.3-5.2,5.2-5.2s5.2,2.3,5.2,5.2C152.5,40.6,150.2,42.9,147.3,42.9z"/>
		<path class="st2" d="M147.3,31.9c-3.2,0-5.8,2.6-5.8,5.8c0,3.2,2.6,5.8,5.8,5.8s5.8-2.6,5.8-5.8C153.1,34.5,150.5,31.9,147.3,31.9
			z M147.3,42.9c-2.9,0-5.2-2.3-5.2-5.2c0-2.9,2.3-5.2,5.2-5.2s5.2,2.3,5.2,5.2C152.5,40.6,150.2,42.9,147.3,42.9z"/>
		<path class="st3" d="M147.3,31.9c-3.2,0-5.8,2.6-5.8,5.8c0,3.2,2.6,5.8,5.8,5.8s5.8-2.6,5.8-5.8C153.1,34.5,150.5,31.9,147.3,31.9
			z M147.3,42.9c-2.9,0-5.2-2.3-5.2-5.2c0-2.9,2.3-5.2,5.2-5.2s5.2,2.3,5.2,5.2C152.5,40.6,150.2,42.9,147.3,42.9z"/>
		<path class="st1" d="M147.3,32.5c-2.9,0-5.2,2.3-5.2,5.2c0,2.9,2.3,5.2,5.2,5.2s5.2-2.3,5.2-5.2C152.5,34.8,150.2,32.5,147.3,32.5
			z M147.3,42.2c-2.5,0-4.5-2-4.5-4.5s2-4.5,4.5-4.5s4.5,2,4.5,4.5S149.8,42.2,147.3,42.2z"/>
		<path class="st2" d="M147.3,32.5c-2.9,0-5.2,2.3-5.2,5.2c0,2.9,2.3,5.2,5.2,5.2s5.2-2.3,5.2-5.2C152.5,34.8,150.2,32.5,147.3,32.5
			z M147.3,42.2c-2.5,0-4.5-2-4.5-4.5s2-4.5,4.5-4.5s4.5,2,4.5,4.5S149.8,42.2,147.3,42.2z"/>
		<path class="st3" d="M147.3,32.5c-2.9,0-5.2,2.3-5.2,5.2c0,2.9,2.3,5.2,5.2,5.2s5.2-2.3,5.2-5.2C152.5,34.8,150.2,32.5,147.3,32.5
			z M147.3,42.2c-2.5,0-4.5-2-4.5-4.5s2-4.5,4.5-4.5s4.5,2,4.5,4.5S149.8,42.2,147.3,42.2z"/>
		<path class="st4" d="M147.3,32.5c-2.9,0-5.2,2.3-5.2,5.2c0,2.9,2.3,5.2,5.2,5.2s5.2-2.3,5.2-5.2C152.5,34.8,150.2,32.5,147.3,32.5
			z M147.3,42.2c-2.5,0-4.5-2-4.5-4.5s2-4.5,4.5-4.5s4.5,2,4.5,4.5S149.8,42.2,147.3,42.2z"/>
	</g>
</g>
<g>
	<rect x="-52.1" y="-118.6" style="fill:none;" width="251.6" height="39.6"/>
	<text transform="matrix(1 0 0 1 -52.1411 -100.2271)"><tspan x="0" y="0" class="st5" style="font-family:'ObliquaITCStd-Bold'; font-size:22px;">Quiénes son los pueblos </tspan><tspan x="0" y="21" class="st5" style="font-family:'ObliquaITCStd-Bold'; font-size:22px;">Étnicos</tspan></text>
</g>
<g>
	<circle class="st5" cx="62" cy="37.2" r="4.5"/>
	<circle class="st5" cx="108" cy="17.3" r="4.5"/>
	<circle class="st5" cx="128" cy="37.3" r="4.5"/>
	<circle class="st5" cx="144" cy="17.3" r="4.5"/>
	<circle class="st5" cx="147" cy="37.4" r="4.5"/>
	<circle class="st5" cx="226" cy="17.3" r="4.5"/>
	<path class="st6" d="M16.5,7.9c4.9,0,7,3.3,7,7.3c0,2.3-0.9,4.4-2.4,5.7l2.2,2.9H20l-1.2-1.6c-0.7,0.2-1.5,0.3-2.3,0.3
		c-4.9,0-7-3.3-7-7.3C9.4,11.2,11.9,7.9,16.5,7.9z M17.4,15.9l1.8,2.4c0.6-0.8,0.9-1.9,0.9-3.1c0-2.4-1.4-4.4-3.6-4.4
		c-2.4,0-3.6,2-3.6,4.4c0,2.4,1.5,4.4,3.6,4.4c0.2,0,0.4,0,0.6,0l-1.4-2.1L17.4,15.9z"/>
	<path class="st6" d="M35.3,22.2h-2.6l-0.6-0.9c-0.5,0.5-1.6,1.1-2.9,1.1c-2.9,0-3.8-1.8-3.8-3.8v-7.4h3.4v6.9
		c0,1.1,0.5,1.6,1.4,1.6c0.7,0,1.3-0.3,1.6-0.6v-7.9h3.4V22.2z"/>
	<path class="st6" d="M41,8.3c0,1.1-0.6,1.7-1.8,1.7c-1.3,0-1.8-0.7-1.8-1.7c0-1.1,0.5-1.7,1.8-1.7C40.5,6.6,41,7.2,41,8.3z
		 M40.9,19c0,0.6,0.3,0.8,0.8,0.8c0.1,0,0.3,0,0.4-0.1l0.5,2.1c-0.4,0.4-1.3,0.7-2.1,0.7c-1.8,0-2.9-1.2-2.9-3v-8.1h3.4V19z"/>
	<path class="st6" d="M46.6,17.6c0.1,1,1.2,1.9,2.7,1.9c1.2,0,2.1-0.3,2.8-0.7l0.7,2.6c-1.1,0.7-2.4,1-3.9,1c-3.3,0-5.8-1.8-5.8-5.5
		c0-3.5,2.1-5.8,5.3-5.8c3.4,0,4.7,2.3,4.7,4.7c0,0.8-0.2,1.9-0.2,1.9H46.6z M49.8,15.8c0-0.1,0-0.3,0-0.4c0-1-0.5-1.6-1.5-1.6
		c-1,0-1.8,0.8-1.8,2H49.8z M48.8,6.5h3.1l-2.8,3.6h-2.5L48.8,6.5z"/>
	<path class="st6" d="M55,11.3h2.6l0.6,0.9c0.6-0.5,1.7-1.1,3.1-1.1c2.6,0,3.7,1.5,3.7,3.9v7.3h-3.4v-6.9c0-1.1-0.5-1.6-1.5-1.6
		c-0.7,0-1.3,0.3-1.7,0.6v7.9H55V11.3z"/>
	<path class="st6" d="M70,17.6c0.1,1,1.2,1.9,2.7,1.9c1.2,0,2.1-0.3,2.8-0.7l0.7,2.6c-1.1,0.7-2.4,1-3.9,1c-3.3,0-5.8-1.8-5.8-5.5
		c0-3.5,2.1-5.8,5.3-5.8c3.4,0,4.7,2.3,4.7,4.7c0,0.8-0.2,1.9-0.2,1.9H70z M73.2,15.8c0-0.1,0-0.3,0-0.4c0-1-0.5-1.6-1.5-1.6
		c-1,0-1.8,0.8-1.8,2H73.2z"/>
	<path class="st6" d="M85.4,14.4c-1.1-0.5-1.7-0.6-2.9-0.6c-0.9,0-1.3,0.3-1.3,0.7c0,1.3,5.1,0.4,5.1,4.1c0,2.3-1.7,3.9-4.9,3.9
		c-1.6,0-3-0.6-3.7-1.1l0.7-2.6c0.8,0.4,2,0.8,3.2,0.8c1,0,1.5-0.3,1.5-0.8c0-1.3-5.2-0.4-5.2-4.2c0-2.2,1.7-3.6,4.6-3.6
		c1.7,0,3,0.4,3.8,0.8L85.4,14.4z"/>
	<path class="st6" d="M100.5,14.4c-1.1-0.5-1.7-0.6-2.9-0.6c-0.9,0-1.3,0.3-1.3,0.7c0,1.3,5.1,0.4,5.1,4.1c0,2.3-1.7,3.9-4.9,3.9
		c-1.6,0-3-0.6-3.7-1.1l0.7-2.6c0.8,0.4,2,0.8,3.2,0.8c1,0,1.5-0.3,1.5-0.8c0-1.3-5.2-0.4-5.2-4.2c0-2.2,1.7-3.6,4.6-3.6
		c1.7,0,3,0.4,3.8,0.8L100.5,14.4z"/>
	<path class="st6" d="M115.4,11.3h2.6l0.6,0.9c0.6-0.5,1.7-1.1,3.1-1.1c2.6,0,3.7,1.5,3.7,3.9v7.3h-3.4v-6.9c0-1.1-0.5-1.6-1.5-1.6
		c-0.7,0-1.3,0.3-1.7,0.6v7.9h-3.4V11.3z"/>
	<path class="st6" d="M136.2,19c0,0.6,0.3,0.8,0.8,0.8c0.1,0,0.3,0,0.4-0.1l0.5,2.1c-0.4,0.4-1.3,0.7-2.1,0.7c-1.8,0-2.9-1.2-2.9-3
		V5.9h3.4V19z"/>
	<path class="st6" d="M158.3,14.4c-1.1-0.5-1.7-0.6-2.9-0.6c-0.9,0-1.3,0.3-1.3,0.7c0,1.3,5.1,0.4,5.1,4.1c0,2.3-1.7,3.9-4.9,3.9
		c-1.6,0-3-0.6-3.7-1.1l0.7-2.6c0.8,0.4,2,0.8,3.2,0.8c1,0,1.5-0.3,1.5-0.8c0-1.3-5.2-0.4-5.2-4.2c0-2.2,1.7-3.6,4.6-3.6
		c1.7,0,3,0.4,3.8,0.8L158.3,14.4z"/>
	<path class="st6" d="M166.3,11.3h2.6l0.6,0.9c0,0,1.1-1.1,3.1-1.1c2.4,0,4.3,1.7,4.3,5.5c0,3.8-2.6,5.9-5.4,5.9
		c-0.9,0-1.9-0.3-1.9-0.3v4.3h-3.3V11.3z M169.7,19.5c0,0,0.6,0.3,1.5,0.3c1.3,0,2.2-1.1,2.2-3.1c0-1.9-0.9-2.9-2.1-2.9
		c-1,0-1.6,0.4-1.6,0.4V19.5z"/>
	<path class="st6" d="M188.5,22.2H186l-0.6-0.9c-0.5,0.5-1.6,1.1-2.9,1.1c-2.9,0-3.8-1.8-3.8-3.8v-7.4h3.4v6.9
		c0,1.1,0.5,1.6,1.4,1.6c0.7,0,1.3-0.3,1.6-0.6v-7.9h3.4V22.2z"/>
	<path class="st6" d="M193.7,17.6c0.1,1,1.2,1.9,2.7,1.9c1.2,0,2.1-0.3,2.8-0.7l0.7,2.6c-1.1,0.7-2.4,1-3.9,1
		c-3.3,0-5.8-1.8-5.8-5.5c0-3.5,2.1-5.8,5.3-5.8c3.4,0,4.7,2.3,4.7,4.7c0,0.8-0.2,1.9-0.2,1.9H193.7z M196.8,15.8c0-0.1,0-0.3,0-0.4
		c0-1-0.5-1.6-1.5-1.6c-1,0-1.8,0.8-1.8,2H196.8z"/>
	<path class="st6" d="M205.4,11.7c0,0,0.9-0.6,2.4-0.6c1.7,0,4.8,1,4.8,5.6c0,3.7-2.7,5.7-5.8,5.7c-2.7,0-4.8-1.1-4.8-1.1V5.9h3.4
		V11.7z M205.4,19.6c0,0,0.6,0.3,1.5,0.3c1.2,0,2.2-1,2.2-3.1c0-1.7-0.8-2.9-2.1-2.9c-0.6,0-1.4,0.3-1.6,0.4V19.6z"/>
	<path class="st6" d="M217.8,19c0,0.6,0.3,0.8,0.8,0.8c0.1,0,0.3,0,0.4-0.1l0.5,2.1c-0.4,0.4-1.3,0.7-2.1,0.7c-1.8,0-2.9-1.2-2.9-3
		V5.9h3.4V19z"/>
	<path class="st6" d="M239.9,14.4c-1.1-0.5-1.7-0.6-2.9-0.6c-0.9,0-1.3,0.3-1.3,0.7c0,1.3,5.1,0.4,5.1,4.1c0,2.3-1.7,3.9-4.9,3.9
		c-1.6,0-3-0.6-3.7-1.1l0.7-2.6c0.8,0.4,2,0.8,3.2,0.8c1,0,1.5-0.3,1.5-0.8c0-1.3-5.2-0.4-5.2-4.2c0-2.2,1.7-3.6,4.6-3.6
		c1.7,0,3,0.4,3.8,0.8L239.9,14.4z"/>
	<path class="st6" d="M12.7,37.8c0.1,1,1.2,1.9,2.7,1.9c1.2,0,2.1-0.3,2.8-0.7l0.7,2.6c-1.1,0.7-2.4,1-3.9,1c-3.3,0-5.8-1.8-5.8-5.5
		c0-3.5,2.1-5.8,5.3-5.8c3.4,0,4.7,2.3,4.7,4.7c0,0.8-0.2,1.9-0.2,1.9H12.7z M15.8,35.9c0-0.1,0-0.3,0-0.4c0-1-0.5-1.6-1.5-1.6
		c-1,0-1.8,0.8-1.8,2H15.8z M14.9,26.7h3.1l-2.8,3.6h-2.5L14.9,26.7z"/>
	<path class="st6" d="M21.6,31.4v-2l3.3-0.8v2.8h2.7V34h-2.7v4.4c0,0.7,0.4,1.2,1.3,1.2c0.4,0,0.8-0.1,1-0.2l0.6,2.5
		c-0.7,0.4-1.6,0.7-2.8,0.7c-2,0-3.4-1.3-3.4-3.5V34h-1.7v-2.6H21.6z"/>
	<path class="st6" d="M29.3,31.4h2.6l0.6,0.9c0.6-0.5,1.7-1.1,3.1-1.1c2.6,0,3.7,1.5,3.7,3.9v7.3h-3.4v-6.9c0-1.1-0.5-1.6-1.5-1.6
		c-0.7,0-1.3,0.3-1.7,0.6v7.9h-3.4V31.4z"/>
	<path class="st6" d="M44.9,28.5c0,1.1-0.6,1.7-1.8,1.7c-1.3,0-1.8-0.7-1.8-1.7c0-1.1,0.5-1.7,1.8-1.7
		C44.4,26.7,44.9,27.4,44.9,28.5z M44.8,39.1c0,0.6,0.3,0.8,0.8,0.8c0.1,0,0.3,0,0.4-0.1l0.5,2.1c-0.4,0.4-1.3,0.7-2.1,0.7
		c-1.8,0-2.9-1.2-2.9-3v-8.1h3.4V39.1z"/>
	<path class="st6" d="M53.1,31.2c1,0,2,0.3,2.6,0.6l-0.9,2.7c-0.5-0.3-1.1-0.4-1.8-0.4c-1.4,0-2.6,0.9-2.6,2.7
		c0,2.1,1.5,2.7,2.7,2.7c0.7,0,1.3-0.2,1.8-0.5l0.8,2.6c-0.8,0.5-2.1,0.8-3.4,0.8c-3.2,0-5.3-2.2-5.3-5.6
		C47.1,33.2,49.7,31.2,53.1,31.2z"/>
	<path class="st6" d="M76.7,34.6C75.6,34.1,75,34,73.8,34c-0.9,0-1.3,0.3-1.3,0.7c0,1.3,5.1,0.4,5.1,4.1c0,2.3-1.7,3.9-4.9,3.9
		c-1.6,0-3-0.6-3.7-1.1l0.7-2.6c0.8,0.4,2,0.8,3.2,0.8c1,0,1.5-0.3,1.5-0.8c0-1.3-5.2-0.4-5.2-4.2c0-2.2,1.7-3.6,4.6-3.6
		c1.7,0,3,0.4,3.8,0.8L76.7,34.6z"/>
	<path class="st6" d="M94.8,42.4h-2.6l-0.6-0.9c0,0-0.7,1.1-2.7,1.1c-2.4,0-4.7-1.8-4.7-5.6c0-3.5,2.3-5.8,5.4-5.8
		c0.9,0,1.9,0.3,1.9,0.3V26h3.4V42.4z M91.4,34.1c0,0-0.6-0.3-1.5-0.3c-1.3,0-2.2,1.1-2.2,3.1c0,1.9,0.9,2.9,2.1,2.9
		c1,0,1.6-0.4,1.6-0.4V34.1z"/>
	<path class="st6" d="M100,37.8c0.1,1,1.2,1.9,2.7,1.9c1.2,0,2.1-0.3,2.8-0.7l0.7,2.6c-1.1,0.7-2.4,1-3.9,1c-3.3,0-5.8-1.8-5.8-5.5
		c0-3.5,2.1-5.8,5.3-5.8c3.4,0,4.7,2.3,4.7,4.7c0,0.8-0.2,1.9-0.2,1.9H100z M103.2,35.9c0-0.1,0-0.3,0-0.4c0-1-0.5-1.6-1.5-1.6
		c-1,0-1.8,0.8-1.8,2H103.2z"/>
	<path class="st6" d="M119.2,31.2c1,0,2,0.3,2.6,0.6l-0.9,2.7c-0.5-0.3-1.1-0.4-1.8-0.4c-1.4,0-2.6,0.9-2.6,2.7
		c0,2.1,1.5,2.7,2.7,2.7c0.7,0,1.3-0.2,1.8-0.5l0.8,2.6c-0.8,0.5-2.1,0.8-3.4,0.8c-3.2,0-5.3-2.2-5.3-5.6
		C113.2,33.2,115.8,31.2,119.2,31.2z"/>
	<path class="st6" d="M139,39.1c0,0.6,0.3,0.8,0.8,0.8c0.1,0,0.3,0,0.4-0.1l0.5,2.1c-0.4,0.4-1.3,0.7-2.1,0.7c-1.8,0-2.9-1.2-2.9-3
		V26h3.4V39.1z"/>
	<path class="st6" d="M166.4,35.4c0-0.9-0.3-1.5-1.3-1.5c-0.5,0-1.1,0.2-1.5,0.6v7.9h-3.4v-7c0-0.9-0.3-1.5-1.3-1.5
		c-0.5,0-1.1,0.2-1.6,0.6v7.9h-3.4V31.4h2.6l0.6,0.9c0,0,1.3-1.1,3.2-1.1c1.4,0,2.4,0.5,2.9,1.1c0.6-0.6,1.8-1.1,3.1-1.1
		c2.2,0,3.4,1.3,3.4,3.5v7.6h-3.4V35.4z"/>
	<path class="st6" d="M175.4,31.8c0,0,0.9-0.6,2.4-0.6c1.7,0,4.8,1,4.8,5.6c0,3.7-2.7,5.7-5.8,5.7c-2.7,0-4.8-1.1-4.8-1.1V26h3.4
		V31.8z M175.4,39.7c0,0,0.6,0.3,1.5,0.3c1.2,0,2.2-1,2.2-3.1c0-1.8-0.8-2.9-2.1-2.9c-0.6,0-1.4,0.3-1.6,0.4V39.7z"/>
	<path class="st6" d="M188,28.5c0,1.1-0.6,1.7-1.8,1.7c-1.3,0-1.8-0.7-1.8-1.7c0-1.1,0.5-1.7,1.8-1.7C187.4,26.7,188,27.4,188,28.5z
		 M187.8,39.1c0,0.6,0.3,0.8,0.8,0.8c0.1,0,0.3,0,0.4-0.1l0.5,2.1c-0.4,0.4-1.3,0.7-2.1,0.7c-1.8,0-2.9-1.2-2.9-3v-8.1h3.4V39.1z"/>
	<path class="st6" d="M190.9,32.2c0.8-0.5,2.4-1,4.1-1c3.9,0,4.7,1.9,4.7,4.9v3.1c0,0.5,0.3,0.7,0.7,0.7c0.1,0,0.3,0,0.4-0.1
		l0.5,2.1c-0.4,0.3-1.3,0.7-2.1,0.7c-1.4,0-2.2-0.5-2.6-1.4c-0.4,0.7-1.6,1.4-3.1,1.4c-1.5,0-3.3-0.8-3.3-3c0-2.8,2.8-3.6,6.1-3.6
		c0-1.2-0.5-1.9-1.9-1.9c-1,0-1.9,0.2-2.8,0.6L190.9,32.2z M196.3,37.8c-1.5,0.1-2.7,0.3-2.7,1.3c0,0.5,0.4,1,1.1,1
		c0.7,0,1.3-0.4,1.6-0.7V37.8z"/>
	<g>
		<path class="st7" d="M108,10.4c-3.8,0-6.9,3.1-6.9,6.9s3.1,6.9,6.9,6.9s6.9-3.1,6.9-6.9S111.8,10.4,108,10.4z M108,23.6
			c-3.5,0-6.4-2.9-6.4-6.4s2.9-6.4,6.4-6.4s6.4,2.9,6.4,6.4S111.5,23.6,108,23.6z"/>
		<path class="st7" d="M108,10.9c-3.5,0-6.4,2.9-6.4,6.4s2.9,6.4,6.4,6.4s6.4-2.9,6.4-6.4S111.5,10.9,108,10.9z M108,23.1
			c-3.2,0-5.8-2.6-5.8-5.8s2.6-5.8,5.8-5.8s5.8,2.6,5.8,5.8S111.2,23.1,108,23.1z"/>
		<path class="st8" d="M108,10.9c-3.5,0-6.4,2.9-6.4,6.4s2.9,6.4,6.4,6.4s6.4-2.9,6.4-6.4S111.5,10.9,108,10.9z M108,23.1
			c-3.2,0-5.8-2.6-5.8-5.8s2.6-5.8,5.8-5.8s5.8,2.6,5.8,5.8S111.2,23.1,108,23.1z"/>
		<path class="st7" d="M108,11.5c-3.2,0-5.8,2.6-5.8,5.8s2.6,5.8,5.8,5.8s5.8-2.6,5.8-5.8S111.2,11.5,108,11.5z M108,22.5
			c-2.9,0-5.2-2.3-5.2-5.2s2.3-5.2,5.2-5.2s5.2,2.3,5.2,5.2S110.9,22.5,108,22.5z"/>
		<path class="st8" d="M108,11.5c-3.2,0-5.8,2.6-5.8,5.8s2.6,5.8,5.8,5.8s5.8-2.6,5.8-5.8S111.2,11.5,108,11.5z M108,22.5
			c-2.9,0-5.2-2.3-5.2-5.2s2.3-5.2,5.2-5.2s5.2,2.3,5.2,5.2S110.9,22.5,108,22.5z"/>
		<path class="st9" d="M108,11.5c-3.2,0-5.8,2.6-5.8,5.8s2.6,5.8,5.8,5.8s5.8-2.6,5.8-5.8S111.2,11.5,108,11.5z M108,22.5
			c-2.9,0-5.2-2.3-5.2-5.2s2.3-5.2,5.2-5.2s5.2,2.3,5.2,5.2S110.9,22.5,108,22.5z"/>
		<path class="st7" d="M108,12.1c-2.9,0-5.2,2.3-5.2,5.2s2.3,5.2,5.2,5.2s5.2-2.3,5.2-5.2S110.9,12.1,108,12.1z M108,21.8
			c-2.5,0-4.5-2-4.5-4.5s2-4.5,4.5-4.5s4.5,2,4.5,4.5S110.5,21.8,108,21.8z"/>
		<path class="st8" d="M108,12.1c-2.9,0-5.2,2.3-5.2,5.2s2.3,5.2,5.2,5.2s5.2-2.3,5.2-5.2S110.9,12.1,108,12.1z M108,21.8
			c-2.5,0-4.5-2-4.5-4.5s2-4.5,4.5-4.5s4.5,2,4.5,4.5S110.5,21.8,108,21.8z"/>
		<path class="st9" d="M108,12.1c-2.9,0-5.2,2.3-5.2,5.2s2.3,5.2,5.2,5.2s5.2-2.3,5.2-5.2S110.9,12.1,108,12.1z M108,21.8
			c-2.5,0-4.5-2-4.5-4.5s2-4.5,4.5-4.5s4.5,2,4.5,4.5S110.5,21.8,108,21.8z"/>
		<path class="st10" d="M108,12.1c-2.9,0-5.2,2.3-5.2,5.2s2.3,5.2,5.2,5.2s5.2-2.3,5.2-5.2S110.9,12.1,108,12.1z M108,21.8
			c-2.5,0-4.5-2-4.5-4.5s2-4.5,4.5-4.5s4.5,2,4.5,4.5S110.5,21.8,108,21.8z"/>
	</g>
	<g>
		<path class="st7" d="M144,10.4c-3.8,0-6.9,3.1-6.9,6.9s3.1,6.9,6.9,6.9c3.8,0,6.9-3.1,6.9-6.9S147.8,10.4,144,10.4z M144,23.6
			c-3.5,0-6.4-2.9-6.4-6.4s2.9-6.4,6.4-6.4c3.5,0,6.4,2.9,6.4,6.4S147.5,23.6,144,23.6z"/>
		<path class="st7" d="M144,10.9c-3.5,0-6.4,2.9-6.4,6.4s2.9,6.4,6.4,6.4c3.5,0,6.4-2.9,6.4-6.4S147.5,10.9,144,10.9z M144,23.1
			c-3.2,0-5.8-2.6-5.8-5.8s2.6-5.8,5.8-5.8c3.2,0,5.8,2.6,5.8,5.8S147.2,23.1,144,23.1z"/>
		<path class="st8" d="M144,10.9c-3.5,0-6.4,2.9-6.4,6.4s2.9,6.4,6.4,6.4c3.5,0,6.4-2.9,6.4-6.4S147.5,10.9,144,10.9z M144,23.1
			c-3.2,0-5.8-2.6-5.8-5.8s2.6-5.8,5.8-5.8c3.2,0,5.8,2.6,5.8,5.8S147.2,23.1,144,23.1z"/>
		<path class="st7" d="M144,11.5c-3.2,0-5.8,2.6-5.8,5.8s2.6,5.8,5.8,5.8c3.2,0,5.8-2.6,5.8-5.8S147.2,11.5,144,11.5z M144,22.5
			c-2.9,0-5.2-2.3-5.2-5.2s2.3-5.2,5.2-5.2c2.9,0,5.2,2.3,5.2,5.2S146.9,22.5,144,22.5z"/>
		<path class="st8" d="M144,11.5c-3.2,0-5.8,2.6-5.8,5.8s2.6,5.8,5.8,5.8c3.2,0,5.8-2.6,5.8-5.8S147.2,11.5,144,11.5z M144,22.5
			c-2.9,0-5.2-2.3-5.2-5.2s2.3-5.2,5.2-5.2c2.9,0,5.2,2.3,5.2,5.2S146.9,22.5,144,22.5z"/>
		<path class="st9" d="M144,11.5c-3.2,0-5.8,2.6-5.8,5.8s2.6,5.8,5.8,5.8c3.2,0,5.8-2.6,5.8-5.8S147.2,11.5,144,11.5z M144,22.5
			c-2.9,0-5.2-2.3-5.2-5.2s2.3-5.2,5.2-5.2c2.9,0,5.2,2.3,5.2,5.2S146.9,22.5,144,22.5z"/>
		<path class="st7" d="M144,12.1c-2.9,0-5.2,2.3-5.2,5.2s2.3,5.2,5.2,5.2c2.9,0,5.2-2.3,5.2-5.2S146.9,12.1,144,12.1z M144,21.8
			c-2.5,0-4.5-2-4.5-4.5s2-4.5,4.5-4.5c2.5,0,4.5,2,4.5,4.5S146.5,21.8,144,21.8z"/>
		<path class="st8" d="M144,12.1c-2.9,0-5.2,2.3-5.2,5.2s2.3,5.2,5.2,5.2c2.9,0,5.2-2.3,5.2-5.2S146.9,12.1,144,12.1z M144,21.8
			c-2.5,0-4.5-2-4.5-4.5s2-4.5,4.5-4.5c2.5,0,4.5,2,4.5,4.5S146.5,21.8,144,21.8z"/>
		<path class="st9" d="M144,12.1c-2.9,0-5.2,2.3-5.2,5.2s2.3,5.2,5.2,5.2c2.9,0,5.2-2.3,5.2-5.2S146.9,12.1,144,12.1z M144,21.8
			c-2.5,0-4.5-2-4.5-4.5s2-4.5,4.5-4.5c2.5,0,4.5,2,4.5,4.5S146.5,21.8,144,21.8z"/>
		<path class="st10" d="M144,12.1c-2.9,0-5.2,2.3-5.2,5.2s2.3,5.2,5.2,5.2c2.9,0,5.2-2.3,5.2-5.2S146.9,12.1,144,12.1z M144,21.8
			c-2.5,0-4.5-2-4.5-4.5s2-4.5,4.5-4.5c2.5,0,4.5,2,4.5,4.5S146.5,21.8,144,21.8z"/>
	</g>
	<g>
		<path class="st7" d="M226,10.4c-3.8,0-6.9,3.1-6.9,6.9s3.1,6.9,6.9,6.9c3.8,0,6.9-3.1,6.9-6.9S229.8,10.4,226,10.4z M226,23.6
			c-3.5,0-6.4-2.9-6.4-6.4s2.9-6.4,6.4-6.4c3.5,0,6.4,2.9,6.4,6.4S229.5,23.6,226,23.6z"/>
		<path class="st7" d="M226,10.9c-3.5,0-6.4,2.9-6.4,6.4s2.9,6.4,6.4,6.4c3.5,0,6.4-2.9,6.4-6.4S229.5,10.9,226,10.9z M226,23.1
			c-3.2,0-5.8-2.6-5.8-5.8s2.6-5.8,5.8-5.8c3.2,0,5.8,2.6,5.8,5.8S229.2,23.1,226,23.1z"/>
		<path class="st8" d="M226,10.9c-3.5,0-6.4,2.9-6.4,6.4s2.9,6.4,6.4,6.4c3.5,0,6.4-2.9,6.4-6.4S229.5,10.9,226,10.9z M226,23.1
			c-3.2,0-5.8-2.6-5.8-5.8s2.6-5.8,5.8-5.8c3.2,0,5.8,2.6,5.8,5.8S229.2,23.1,226,23.1z"/>
		<path class="st7" d="M226,11.5c-3.2,0-5.8,2.6-5.8,5.8s2.6,5.8,5.8,5.8c3.2,0,5.8-2.6,5.8-5.8S229.2,11.5,226,11.5z M226,22.5
			c-2.9,0-5.2-2.3-5.2-5.2s2.3-5.2,5.2-5.2c2.9,0,5.2,2.3,5.2,5.2S228.9,22.5,226,22.5z"/>
		<path class="st8" d="M226,11.5c-3.2,0-5.8,2.6-5.8,5.8s2.6,5.8,5.8,5.8c3.2,0,5.8-2.6,5.8-5.8S229.2,11.5,226,11.5z M226,22.5
			c-2.9,0-5.2-2.3-5.2-5.2s2.3-5.2,5.2-5.2c2.9,0,5.2,2.3,5.2,5.2S228.9,22.5,226,22.5z"/>
		<path class="st9" d="M226,11.5c-3.2,0-5.8,2.6-5.8,5.8s2.6,5.8,5.8,5.8c3.2,0,5.8-2.6,5.8-5.8S229.2,11.5,226,11.5z M226,22.5
			c-2.9,0-5.2-2.3-5.2-5.2s2.3-5.2,5.2-5.2c2.9,0,5.2,2.3,5.2,5.2S228.9,22.5,226,22.5z"/>
		<path class="st7" d="M226,12.1c-2.9,0-5.2,2.3-5.2,5.2s2.3,5.2,5.2,5.2c2.9,0,5.2-2.3,5.2-5.2S228.9,12.1,226,12.1z M226,21.8
			c-2.5,0-4.5-2-4.5-4.5s2-4.5,4.5-4.5c2.5,0,4.5,2,4.5,4.5S228.5,21.8,226,21.8z"/>
		<path class="st8" d="M226,12.1c-2.9,0-5.2,2.3-5.2,5.2s2.3,5.2,5.2,5.2c2.9,0,5.2-2.3,5.2-5.2S228.9,12.1,226,12.1z M226,21.8
			c-2.5,0-4.5-2-4.5-4.5s2-4.5,4.5-4.5c2.5,0,4.5,2,4.5,4.5S228.5,21.8,226,21.8z"/>
		<path class="st9" d="M226,12.1c-2.9,0-5.2,2.3-5.2,5.2s2.3,5.2,5.2,5.2c2.9,0,5.2-2.3,5.2-5.2S228.9,12.1,226,12.1z M226,21.8
			c-2.5,0-4.5-2-4.5-4.5s2-4.5,4.5-4.5c2.5,0,4.5,2,4.5,4.5S228.5,21.8,226,21.8z"/>
		<path class="st10" d="M226,12.1c-2.9,0-5.2,2.3-5.2,5.2s2.3,5.2,5.2,5.2c2.9,0,5.2-2.3,5.2-5.2S228.9,12.1,226,12.1z M226,21.8
			c-2.5,0-4.5-2-4.5-4.5s2-4.5,4.5-4.5c2.5,0,4.5,2,4.5,4.5S228.5,21.8,226,21.8z"/>
	</g>
	<g>
		<path class="st7" d="M62,30.4c-3.8,0-6.9,3.1-6.9,6.9s3.1,6.9,6.9,6.9s6.9-3.1,6.9-6.9S65.8,30.4,62,30.4z M62,43.6
			c-3.5,0-6.4-2.9-6.4-6.4s2.9-6.4,6.4-6.4c3.5,0,6.4,2.9,6.4,6.4C68.4,40.8,65.5,43.6,62,43.6z"/>
		<path class="st7" d="M62,30.9c-3.5,0-6.4,2.9-6.4,6.4s2.9,6.4,6.4,6.4c3.5,0,6.4-2.9,6.4-6.4C68.4,33.7,65.5,30.9,62,30.9z
			 M62,43.1c-3.2,0-5.8-2.6-5.8-5.8c0-3.2,2.6-5.8,5.8-5.8c3.2,0,5.8,2.6,5.8,5.8S65.2,43.1,62,43.1z"/>
		<path class="st8" d="M62,30.9c-3.5,0-6.4,2.9-6.4,6.4s2.9,6.4,6.4,6.4c3.5,0,6.4-2.9,6.4-6.4C68.4,33.7,65.5,30.9,62,30.9z
			 M62,43.1c-3.2,0-5.8-2.6-5.8-5.8c0-3.2,2.6-5.8,5.8-5.8c3.2,0,5.8,2.6,5.8,5.8S65.2,43.1,62,43.1z"/>
		<path class="st7" d="M62,31.5c-3.2,0-5.8,2.6-5.8,5.8c0,3.2,2.6,5.8,5.8,5.8c3.2,0,5.8-2.6,5.8-5.8C67.8,34.1,65.2,31.5,62,31.5z
			 M62,42.5c-2.9,0-5.2-2.3-5.2-5.2s2.3-5.2,5.2-5.2c2.9,0,5.2,2.3,5.2,5.2S64.9,42.5,62,42.5z"/>
		<path class="st8" d="M62,31.5c-3.2,0-5.8,2.6-5.8,5.8c0,3.2,2.6,5.8,5.8,5.8c3.2,0,5.8-2.6,5.8-5.8C67.8,34.1,65.2,31.5,62,31.5z
			 M62,42.5c-2.9,0-5.2-2.3-5.2-5.2s2.3-5.2,5.2-5.2c2.9,0,5.2,2.3,5.2,5.2S64.9,42.5,62,42.5z"/>
		<path class="st9" d="M62,31.5c-3.2,0-5.8,2.6-5.8,5.8c0,3.2,2.6,5.8,5.8,5.8c3.2,0,5.8-2.6,5.8-5.8C67.8,34.1,65.2,31.5,62,31.5z
			 M62,42.5c-2.9,0-5.2-2.3-5.2-5.2s2.3-5.2,5.2-5.2c2.9,0,5.2,2.3,5.2,5.2S64.9,42.5,62,42.5z"/>
		<path class="st7" d="M62,32.1c-2.9,0-5.2,2.3-5.2,5.2s2.3,5.2,5.2,5.2c2.9,0,5.2-2.3,5.2-5.2S64.9,32.1,62,32.1z M62,41.8
			c-2.5,0-4.5-2-4.5-4.5s2-4.5,4.5-4.5s4.5,2,4.5,4.5S64.5,41.8,62,41.8z"/>
		<path class="st8" d="M62,32.1c-2.9,0-5.2,2.3-5.2,5.2s2.3,5.2,5.2,5.2c2.9,0,5.2-2.3,5.2-5.2S64.9,32.1,62,32.1z M62,41.8
			c-2.5,0-4.5-2-4.5-4.5s2-4.5,4.5-4.5s4.5,2,4.5,4.5S64.5,41.8,62,41.8z"/>
		<path class="st9" d="M62,32.1c-2.9,0-5.2,2.3-5.2,5.2s2.3,5.2,5.2,5.2c2.9,0,5.2-2.3,5.2-5.2S64.9,32.1,62,32.1z M62,41.8
			c-2.5,0-4.5-2-4.5-4.5s2-4.5,4.5-4.5s4.5,2,4.5,4.5S64.5,41.8,62,41.8z"/>
		<path class="st10" d="M62,32.1c-2.9,0-5.2,2.3-5.2,5.2s2.3,5.2,5.2,5.2c2.9,0,5.2-2.3,5.2-5.2S64.9,32.1,62,32.1z M62,41.8
			c-2.5,0-4.5-2-4.5-4.5s2-4.5,4.5-4.5c2.5,0,4.5,2,4.5,4.5S64.5,41.8,62,41.8z"/>
	</g>
	<g>
		<path class="st7" d="M128,30.4c-3.8,0-6.9,3.1-6.9,6.9s3.1,6.9,6.9,6.9c3.8,0,6.9-3.1,6.9-6.9S131.8,30.4,128,30.4z M128,43.6
			c-3.5,0-6.4-2.9-6.4-6.4s2.9-6.4,6.4-6.4c3.5,0,6.4,2.9,6.4,6.4C134.4,40.8,131.5,43.6,128,43.6z"/>
		<path class="st7" d="M128,30.9c-3.5,0-6.4,2.9-6.4,6.4s2.9,6.4,6.4,6.4c3.5,0,6.4-2.9,6.4-6.4C134.4,33.7,131.5,30.9,128,30.9z
			 M128,43.1c-3.2,0-5.8-2.6-5.8-5.8c0-3.2,2.6-5.8,5.8-5.8s5.8,2.6,5.8,5.8S131.2,43.1,128,43.1z"/>
		<path class="st8" d="M128,30.9c-3.5,0-6.4,2.9-6.4,6.4s2.9,6.4,6.4,6.4c3.5,0,6.4-2.9,6.4-6.4C134.4,33.7,131.5,30.9,128,30.9z
			 M128,43.1c-3.2,0-5.8-2.6-5.8-5.8c0-3.2,2.6-5.8,5.8-5.8s5.8,2.6,5.8,5.8S131.2,43.1,128,43.1z"/>
		<path class="st7" d="M128,31.5c-3.2,0-5.8,2.6-5.8,5.8c0,3.2,2.6,5.8,5.8,5.8s5.8-2.6,5.8-5.8C133.8,34.1,131.2,31.5,128,31.5z
			 M128,42.5c-2.9,0-5.2-2.3-5.2-5.2s2.3-5.2,5.2-5.2c2.9,0,5.2,2.3,5.2,5.2S130.9,42.5,128,42.5z"/>
		<path class="st8" d="M128,31.5c-3.2,0-5.8,2.6-5.8,5.8c0,3.2,2.6,5.8,5.8,5.8s5.8-2.6,5.8-5.8C133.8,34.1,131.2,31.5,128,31.5z
			 M128,42.5c-2.9,0-5.2-2.3-5.2-5.2s2.3-5.2,5.2-5.2c2.9,0,5.2,2.3,5.2,5.2S130.9,42.5,128,42.5z"/>
		<path class="st9" d="M128,31.5c-3.2,0-5.8,2.6-5.8,5.8c0,3.2,2.6,5.8,5.8,5.8s5.8-2.6,5.8-5.8C133.8,34.1,131.2,31.5,128,31.5z
			 M128,42.5c-2.9,0-5.2-2.3-5.2-5.2s2.3-5.2,5.2-5.2c2.9,0,5.2,2.3,5.2,5.2S130.9,42.5,128,42.5z"/>
		<path class="st7" d="M128,32.1c-2.9,0-5.2,2.3-5.2,5.2s2.3,5.2,5.2,5.2c2.9,0,5.2-2.3,5.2-5.2S130.9,32.1,128,32.1z M128,41.8
			c-2.5,0-4.5-2-4.5-4.5s2-4.5,4.5-4.5c2.5,0,4.5,2,4.5,4.5S130.5,41.8,128,41.8z"/>
		<path class="st8" d="M128,32.1c-2.9,0-5.2,2.3-5.2,5.2s2.3,5.2,5.2,5.2c2.9,0,5.2-2.3,5.2-5.2S130.9,32.1,128,32.1z M128,41.8
			c-2.5,0-4.5-2-4.5-4.5s2-4.5,4.5-4.5c2.5,0,4.5,2,4.5,4.5S130.5,41.8,128,41.8z"/>
		<path class="st9" d="M128,32.1c-2.9,0-5.2,2.3-5.2,5.2s2.3,5.2,5.2,5.2c2.9,0,5.2-2.3,5.2-5.2S130.9,32.1,128,32.1z M128,41.8
			c-2.5,0-4.5-2-4.5-4.5s2-4.5,4.5-4.5c2.5,0,4.5,2,4.5,4.5S130.5,41.8,128,41.8z"/>
		<path class="st10" d="M128,32.1c-2.9,0-5.2,2.3-5.2,5.2s2.3,5.2,5.2,5.2c2.9,0,5.2-2.3,5.2-5.2S130.9,32.1,128,32.1z M128,41.8
			c-2.5,0-4.5-2-4.5-4.5s2-4.5,4.5-4.5c2.5,0,4.5,2,4.5,4.5S130.5,41.8,128,41.8z"/>
	</g>
	<g>
		<path class="st7" d="M147,30.4c-3.8,0-6.9,3.1-6.9,6.9s3.1,6.9,6.9,6.9c3.8,0,6.9-3.1,6.9-6.9S150.8,30.4,147,30.4z M147,43.6
			c-3.5,0-6.4-2.9-6.4-6.4s2.9-6.4,6.4-6.4c3.5,0,6.4,2.9,6.4,6.4C153.4,40.8,150.5,43.6,147,43.6z"/>
		<path class="st7" d="M147,30.9c-3.5,0-6.4,2.9-6.4,6.4s2.9,6.4,6.4,6.4c3.5,0,6.4-2.9,6.4-6.4C153.4,33.7,150.5,30.9,147,30.9z
			 M147,43.1c-3.2,0-5.8-2.6-5.8-5.8c0-3.2,2.6-5.8,5.8-5.8c3.2,0,5.8,2.6,5.8,5.8S150.2,43.1,147,43.1z"/>
		<path class="st8" d="M147,30.9c-3.5,0-6.4,2.9-6.4,6.4s2.9,6.4,6.4,6.4c3.5,0,6.4-2.9,6.4-6.4C153.4,33.7,150.5,30.9,147,30.9z
			 M147,43.1c-3.2,0-5.8-2.6-5.8-5.8c0-3.2,2.6-5.8,5.8-5.8c3.2,0,5.8,2.6,5.8,5.8S150.2,43.1,147,43.1z"/>
		<path class="st7" d="M147,31.5c-3.2,0-5.8,2.6-5.8,5.8c0,3.2,2.6,5.8,5.8,5.8c3.2,0,5.8-2.6,5.8-5.8
			C152.8,34.1,150.2,31.5,147,31.5z M147,42.5c-2.9,0-5.2-2.3-5.2-5.2s2.3-5.2,5.2-5.2c2.9,0,5.2,2.3,5.2,5.2S149.9,42.5,147,42.5z"
			/>
		<path class="st8" d="M147,31.5c-3.2,0-5.8,2.6-5.8,5.8c0,3.2,2.6,5.8,5.8,5.8c3.2,0,5.8-2.6,5.8-5.8
			C152.8,34.1,150.2,31.5,147,31.5z M147,42.5c-2.9,0-5.2-2.3-5.2-5.2s2.3-5.2,5.2-5.2c2.9,0,5.2,2.3,5.2,5.2S149.9,42.5,147,42.5z"
			/>
		<path class="st9" d="M147,31.5c-3.2,0-5.8,2.6-5.8,5.8c0,3.2,2.6,5.8,5.8,5.8c3.2,0,5.8-2.6,5.8-5.8
			C152.8,34.1,150.2,31.5,147,31.5z M147,42.5c-2.9,0-5.2-2.3-5.2-5.2s2.3-5.2,5.2-5.2c2.9,0,5.2,2.3,5.2,5.2S149.9,42.5,147,42.5z"
			/>
		<path class="st7" d="M147,32.1c-2.9,0-5.2,2.3-5.2,5.2s2.3,5.2,5.2,5.2c2.9,0,5.2-2.3,5.2-5.2S149.9,32.1,147,32.1z M147,41.8
			c-2.5,0-4.5-2-4.5-4.5s2-4.5,4.5-4.5c2.5,0,4.5,2,4.5,4.5S149.5,41.8,147,41.8z"/>
		<path class="st8" d="M147,32.1c-2.9,0-5.2,2.3-5.2,5.2s2.3,5.2,5.2,5.2c2.9,0,5.2-2.3,5.2-5.2S149.9,32.1,147,32.1z M147,41.8
			c-2.5,0-4.5-2-4.5-4.5s2-4.5,4.5-4.5c2.5,0,4.5,2,4.5,4.5S149.5,41.8,147,41.8z"/>
		<path class="st9" d="M147,32.1c-2.9,0-5.2,2.3-5.2,5.2s2.3,5.2,5.2,5.2c2.9,0,5.2-2.3,5.2-5.2S149.9,32.1,147,32.1z M147,41.8
			c-2.5,0-4.5-2-4.5-4.5s2-4.5,4.5-4.5c2.5,0,4.5,2,4.5,4.5S149.5,41.8,147,41.8z"/>
		<path class="st10" d="M147,32.1c-2.9,0-5.2,2.3-5.2,5.2s2.3,5.2,5.2,5.2c2.9,0,5.2-2.3,5.2-5.2S149.9,32.1,147,32.1z M147,41.8
			c-2.5,0-4.5-2-4.5-4.5s2-4.5,4.5-4.5c2.5,0,4.5,2,4.5,4.5S149.5,41.8,147,41.8z"/>
	</g>
</g>
</svg>
