<?xml version="1.0" encoding="utf-8"?>
<!-- Generator: Adobe Illustrator 25.1.0, SVG Export Plug-In . SVG Version: 6.00 Build 0)  -->
<svg version="1.1" id="Capa_1" xmlns="http://www.w3.org/2000/svg" xmlns:xlink="http://www.w3.org/1999/xlink" x="0px" y="0px"
	 viewBox="0 0 216.9 35.9" style="enable-background:new 0 0 216.9 35.9;" xml:space="preserve">
<style type="text/css">
	.st0{fill:none;stroke:#FFFFFF;stroke-linecap:round;stroke-linejoin:round;}
	.st1{fill:none;stroke:#FFFFFF;stroke-linecap:round;stroke-linejoin:round;stroke-dasharray:2.82,2.82;}
	.st2{fill:none;stroke:#FFFFFF;stroke-linecap:round;stroke-linejoin:round;stroke-dasharray:2.98,2.98;}
	.st3{fill:none;stroke:#FFFFFF;stroke-width:2;stroke-linecap:round;stroke-linejoin:round;}
	.st4{opacity:0.5;}
	.st5{fill:#FFFFFF;}
</style>
<line class="st0" x1="1" y1="0.8" x2="1" y2="2.2"/>
<line class="st1" x1="1" y1="5.1" x2="1" y2="31.8"/>
<polyline class="st0" points="1,33.2 1,34.8 2.5,34.8 "/>
<line class="st2" x1="5.5" y1="34.8" x2="212.9" y2="34.8"/>
<polyline class="st0" points="214.4,34.8 215.9,34.8 215.9,33.2 "/>
<line class="st1" x1="215.9" y1="30.4" x2="215.9" y2="3.7"/>
<line class="st0" x1="215.9" y1="2.2" x2="215.9" y2="0.8"/>
<line class="st3" x1="1" y1="35.2" x2="215.9" y2="35.2"/>
<g class="st4">
	<circle class="st5" cx="40.4" cy="22.4" r="7.6"/>
	<circle class="st5" cx="10.8" cy="9.3" r="7.6"/>
	<circle class="st5" cx="66.7" cy="16.2" r="7.6"/>
	<circle class="st5" cx="51.4" cy="6.1" r="3.9"/>
	<circle class="st5" cx="24" cy="20.1" r="3.9"/>
	<circle class="st5" cx="199.8" cy="17.1" r="15"/>
	<circle class="st5" cx="101.8" cy="17.1" r="15"/>
	<rect x="161.8" y="5.7" class="st5" width="11.4" height="5"/>
	<rect x="160.7" y="23.4" class="st5" width="11.4" height="5"/>
	<rect x="129.7" y="9.6" class="st5" width="11.4" height="5"/>
	<rect x="136.9" y="20.9" class="st5" width="11.4" height="5"/>
	<rect x="151.4" y="14" class="st5" width="11.4" height="5"/>
</g>
</svg>
