<svg xmlns="http://www.w3.org/2000/svg" viewBox="0 0 216.86 35.9"><defs><style>.cls-1,.cls-2,.cls-3,.cls-4{fill:none;stroke:#fff;stroke-linecap:round;stroke-linejoin:round;}.cls-2{stroke-dasharray:2.82 2.82;}.cls-3{stroke-dasharray:2.98 2.98;}.cls-4{stroke-width:2px;}.cls-5{opacity:0.5;}.cls-6{fill:#fff;}</style></defs><g id="Capa_2" data-name="Capa 2"><g id="Díal_Home" data-name="Díal Home"><line class="cls-1" x1="1" y1="0.5" x2="1" y2="2"/><line class="cls-2" x1="1" y1="4.82" x2="1" y2="31.59"/><polyline class="cls-1" points="1 33 1 34.5 2.5 34.5"/><line class="cls-3" x1="5.48" y1="34.5" x2="212.86" y2="34.5"/><polyline class="cls-1" points="214.36 34.5 215.86 34.5 215.86 33"/><line class="cls-2" x1="215.86" y1="30.18" x2="215.86" y2="3.41"/><line class="cls-1" x1="215.86" y1="2" x2="215.86" y2="0.5"/><line class="cls-4" x1="1" y1="34.9" x2="215.86" y2="34.9"/><g class="cls-5"><circle class="cls-6" cx="36.85" cy="22.12" r="7.6"/><circle class="cls-6" cx="66.74" cy="16" r="7.6"/><circle class="cls-6" cx="47.86" cy="5.84" r="3.9"/><circle class="cls-6" cx="18.74" cy="20.43" r="3.9"/><path class="cls-6" d="M4.57,2.29A7.46,7.46,0,0,0,1.47,3V16.82a7.46,7.46,0,0,0,3.1.66,7.6,7.6,0,0,0,0-15.19Z"/><path class="cls-6" d="M211.5,9.88a7.59,7.59,0,0,0,4.5,6.94V3A7.59,7.59,0,0,0,211.5,9.88Z"/><circle class="cls-6" cx="190.12" cy="16.84" r="15.04"/><circle class="cls-6" cx="101.78" cy="16.84" r="15.04"/><circle class="cls-6" cx="126.47" cy="8.62" r="6.11"/><circle class="cls-6" cx="127.31" cy="27.42" r="3.12"/><circle class="cls-6" cx="141.48" cy="26.47" r="4.43"/><circle class="cls-6" cx="150.59" cy="9.07" r="3.12"/><circle class="cls-6" cx="157.52" cy="23.8" r="3.12"/></g></g></g></svg>