<?xml version="1.0" encoding="utf-8"?>
<!-- Generator: Adobe Illustrator 26.2.1, SVG Export Plug-In . SVG Version: 6.00 Build 0)  -->
<svg version="1.1" id="Capa_1" xmlns="http://www.w3.org/2000/svg" xmlns:xlink="http://www.w3.org/1999/xlink" x="0px" y="0px"
	 viewBox="0 0 100 100" style="enable-background:new 0 0 100 100;" xml:space="preserve">
<style type="text/css">
	.st0{fill:#FFFFFF;}
	.st1{fill:#EC645D;}
</style>
<ellipse transform="matrix(0.9732 -0.2298 0.2298 0.9732 -10.15 12.8251)" class="st0" cx="50" cy="50" rx="38.4" ry="38.4"/>
<g>
	<g>
		<g>
			<path class="st1" d="M57.5,30.7c-1-0.9-2.2-1.4-3.5-1.4c-1,0-1.9,0.3-2.7,0.8l-14,8.8h-5.1c-2.8,0-5.1,2.3-5.1,5.1v12.2
				c0,2.8,2.3,5.1,5.1,5.1h5.1l14.1,8.8c0.8,0.5,1.7,0.8,2.7,0.8c1.3,0,2.6-0.5,3.5-1.4c0.5-0.5,0.9-1,1.1-1.6
				c0.3-0.6,0.4-1.3,0.4-2.1V50.1v0V34.4c0-0.7-0.1-1.4-0.4-2.1C58.3,31.7,58,31.1,57.5,30.7z M55.3,50L55.3,50v15.7
				c0,0.8-0.6,1.3-1.3,1.3c-0.2,0-0.5-0.1-0.7-0.2L39,58c-0.5-0.3-1.1-0.5-1.7-0.5h-5.3c-0.7,0-1.3-0.6-1.3-1.3V43.9
				c0-0.7,0.6-1.3,1.3-1.3h5.3c0.6,0,1.2-0.2,1.7-0.5l14.2-8.9c0.2-0.1,0.5-0.2,0.7-0.2c0.7,0,1.3,0.5,1.3,1.3L55.3,50L55.3,50z"/>
			<path class="st1" d="M53.9,70.9c-1,0-1.9-0.3-2.7-0.8l-14-8.8h-5.1c-2.8,0-5.1-2.3-5.1-5.1V43.9c0-2.8,2.3-5.1,5.1-5.1h5.1
				l14-8.8c0.8-0.5,1.8-0.8,2.7-0.8c1.3,0,2.6,0.5,3.6,1.4c0.5,0.5,0.9,1,1.2,1.6c0.3,0.7,0.4,1.3,0.4,2.1v31.4
				c0,0.7-0.1,1.4-0.4,2.1c-0.3,0.6-0.7,1.2-1.2,1.6C56.5,70.4,55.3,70.9,53.9,70.9z M32.1,38.9c-2.8,0-5.1,2.3-5.1,5.1v12.2
				c0,2.8,2.3,5.1,5.1,5.1h5.1l0,0L51.3,70c0.8,0.5,1.7,0.8,2.7,0.8c1.3,0,2.6-0.5,3.5-1.4c0.5-0.5,0.9-1,1.1-1.6
				c0.3-0.6,0.4-1.3,0.4-2V34.4c0-0.7-0.1-1.4-0.4-2c-0.3-0.6-0.6-1.2-1.1-1.6c-0.9-0.9-2.2-1.4-3.5-1.4c-0.9,0-1.9,0.3-2.7,0.8
				l-14,8.8H32.1z M53.9,67.1c-0.3,0-0.5-0.1-0.7-0.2L39,58c-0.5-0.3-1.1-0.5-1.7-0.5h-5.3c-0.8,0-1.4-0.6-1.4-1.4V43.9
				c0-0.8,0.6-1.4,1.4-1.4h5.3c0.6,0,1.2-0.2,1.7-0.5l14.2-8.9c0.2-0.1,0.5-0.2,0.7-0.2c0.8,0,1.4,0.6,1.4,1.4v31.4
				C55.3,66.5,54.7,67.1,53.9,67.1z M32.1,42.6c-0.7,0-1.3,0.6-1.3,1.3v12.2c0,0.7,0.6,1.3,1.3,1.3h5.3c0.6,0,1.2,0.2,1.7,0.5
				l14.2,8.9c0.2,0.1,0.4,0.2,0.7,0.2c0.7,0,1.3-0.6,1.3-1.3V34.4c0-0.7-0.6-1.3-1.3-1.3c-0.2,0-0.5,0.1-0.7,0.2l-14.2,8.9
				c-0.5,0.3-1.1,0.5-1.7,0.5H32.1z"/>
		</g>
		<g>
			<path class="st1" d="M64.3,40.8c-0.5-0.9-1.6-1.3-2.5-0.9c-0.9,0.5-1.3,1.6-0.9,2.5c1.1,2.2,1.7,4.8,1.7,7.5
				c0,2.8-0.6,5.4-1.7,7.6c-0.5,0.9-0.1,2.1,0.8,2.5c0.3,0.1,0.6,0.2,0.9,0.2c0.7,0,1.4-0.4,1.7-1c1.4-2.7,2.1-6,2.1-9.3
				C66.4,46.7,65.7,43.6,64.3,40.8z"/>
			<path class="st1" d="M62.6,60.5c-0.3,0-0.6-0.1-0.9-0.2c-1-0.5-1.3-1.6-0.8-2.6c1.1-2.2,1.7-4.9,1.7-7.6c0-2.7-0.6-5.3-1.7-7.5
				c-0.2-0.5-0.3-1-0.1-1.5c0.2-0.5,0.5-0.9,1-1.1c0.3-0.1,0.6-0.2,0.9-0.2c0.7,0,1.4,0.4,1.7,1.1c1.4,2.7,2.1,5.9,2.1,9.2
				c0,3.4-0.7,6.6-2.1,9.4C64,60.1,63.3,60.5,62.6,60.5z M62.6,39.8c-0.3,0-0.6,0.1-0.8,0.2c-0.4,0.2-0.8,0.6-0.9,1.1
				c-0.2,0.5-0.1,1,0.1,1.4c1.1,2.2,1.7,4.8,1.7,7.6c0,2.8-0.6,5.4-1.7,7.7c-0.5,0.9-0.1,2,0.8,2.5c0.3,0.1,0.5,0.2,0.8,0.2
				c0.7,0,1.3-0.4,1.6-1c1.4-2.7,2.1-6,2.1-9.3c0-3.3-0.7-6.5-2.1-9.2C64,40.2,63.3,39.8,62.6,39.8z"/>
		</g>
		<g>
			<path class="st1" d="M67.2,34.8c-0.9,0.5-1.3,1.6-0.9,2.5c1.8,3.7,2.8,8.1,2.8,12.7c0,4.7-1,9.1-2.9,12.8
				c-0.5,0.9-0.1,2.1,0.8,2.5c0.3,0.1,0.6,0.2,0.9,0.2c0.7,0,1.4-0.4,1.7-1c2.2-4.3,3.3-9.3,3.3-14.5c0-5.2-1.1-10.1-3.2-14.4
				C69.2,34.7,68.1,34.4,67.2,34.8z"/>
			<path class="st1" d="M67.9,65.7c-0.3,0-0.6-0.1-0.9-0.2c-0.5-0.2-0.8-0.6-1-1.1c-0.2-0.5-0.1-1,0.1-1.5c1.9-3.7,2.9-8.2,2.9-12.8
				c0-4.6-1-9-2.8-12.7c-0.5-1-0.1-2.1,0.9-2.6c0.3-0.1,0.6-0.2,0.9-0.2c0.7,0,1.4,0.4,1.7,1.1C71.9,39.9,73,44.9,73,50
				c0,5.3-1.1,10.3-3.3,14.6C69.3,65.3,68.7,65.7,67.9,65.7z M68,34.7c-0.3,0-0.6,0.1-0.8,0.2c-0.4,0.2-0.8,0.6-0.9,1.1
				s-0.1,1,0.1,1.4c1.8,3.7,2.8,8.1,2.8,12.7c0,4.7-1,9.1-2.9,12.9c-0.2,0.4-0.3,0.9-0.1,1.4c0.2,0.5,0.5,0.8,0.9,1.1
				c0.3,0.1,0.5,0.2,0.8,0.2c0.7,0,1.3-0.4,1.6-1c2.2-4.3,3.3-9.3,3.3-14.5c0-5.2-1.1-10.1-3.2-14.3C69.4,35.1,68.7,34.7,68,34.7z"
				/>
		</g>
	</g>
</g>
</svg>
