<?xml version="1.0" encoding="utf-8"?>
<!-- Generator: Adobe Illustrator 26.3.1, SVG Export Plug-In . SVG Version: 6.00 Build 0)  -->
<svg version="1.1" id="Capa_1" xmlns="http://www.w3.org/2000/svg" xmlns:xlink="http://www.w3.org/1999/xlink" x="0px" y="0px"
	 viewBox="0 0 100 100" style="enable-background:new 0 0 100 100;" xml:space="preserve">
<style type="text/css">
	.st0{fill:#FFFFFF;}
	.st1{fill:#EC645D;}
</style>
<ellipse class="st0" cx="50" cy="50" rx="38.4" ry="38.4"/>
<g>
	<path class="st1" d="M53.1,53v10c0,2.6,0,4.1,0.1,4.5c0.3,2.3,0.9,3.5,2.1,3.5c0.3,0,0.9-0.1,1.9-0.4c0.3-0.1,0.6-0.2,1.2-0.2
		c2,0,2.9,0.8,2.9,2.5c0,0.7-0.3,1.3-1,1.8c-0.6,0.5-1.5,0.8-2.4,0.8c-0.8,0-2.1-0.1-3.7-0.3c-1.7-0.2-2.9-0.3-3.7-0.3
		c-1.3,0-2.8,0.1-4.5,0.3c-2,0.3-3.3,0.4-4,0.4c-2.1,0-3.1-0.9-3.1-2.6c0-1.7,0.9-2.5,2.6-2.5c0.4,0,1,0.1,1.8,0.2
		c0.8,0.2,1.4,0.2,1.8,0.2c1.2,0,2-1.6,2.3-4.9c0-0.2,0-2.4,0-6.7V53c0-4.3,0-6.5,0-6.7c-0.3-3.2-1-4.9-2.3-4.9
		c-0.4,0-1,0.1-1.7,0.3c-0.8,0.2-1.3,0.3-1.7,0.3c-1.9,0-2.8-0.8-2.8-2.5c0-1.7,1.1-2.6,3.4-2.6c1,0,1.7,0,2.1,0.1
		c1.6,0.2,2.7,0.3,3.2,0.3c0.4,0,1-0.1,1.9-0.2c0.8-0.1,1.5-0.2,1.9-0.2c1.5,0,2.2,1,2.2,3c0,0.2,0,0.5-0.1,0.9
		c0,0.4-0.1,0.7-0.1,0.9c0,0.4-0.1,2-0.1,4.8C53.1,48.7,53.1,50.8,53.1,53z M49.1,32.9c-1.2,0-2.2-0.4-3-1.3c-0.8-0.8-1.3-1.9-1.3-3
		c0-1.2,0.4-2.2,1.3-3c0.8-0.8,1.9-1.2,3-1.2c1.2,0,2.2,0.4,3,1.2c0.8,0.8,1.3,1.8,1.3,3c0,1.2-0.4,2.2-1.3,3
		C51.3,32.4,50.3,32.9,49.1,32.9z"/>
</g>
</svg>
