<?xml version="1.0" encoding="utf-8"?>
<!-- Generator: Adobe Illustrator 24.2.0, SVG Export Plug-In . SVG Version: 6.00 Build 0)  -->
<svg version="1.1" id="Layer_1" xmlns="http://www.w3.org/2000/svg" xmlns:xlink="http://www.w3.org/1999/xlink" x="0px" y="0px" viewBox="0 0 27 27" style="enable-background:new 0 0 27 27;" xml:space="preserve">
<style type="text/css">
	.st0{fill:#223a73;}
</style>
	<g>
		<circle class="st0" cx="6.7" cy="13.8" r="2.2"/>
		<circle class="st0" cx="20.3" cy="5.7" r="2.2"/>
		<circle class="st0" cx="20.3" cy="21.3" r="2.2"/>
		<path class="st0" d="M17,6.6c0.4-0.2,0.8,0,0.9,0.4c0,0,0,0,0,0c0.1,0.3,0,0.6-0.3,0.8l-7.5,3.9c-0.7,0.4-1.6-0.3-1.3-1.1l0,0
			c0.1-0.3,0.3-0.5,0.5-0.6L17,6.6z"/>
		<path class="st0" d="M17,20.5c0.4,0.2,0.8,0,0.9-0.4c0,0,0,0,0,0c0.1-0.3,0-0.6-0.3-0.8l-7.5-3.9c-0.7-0.4-1.6,0.3-1.3,1.1l0,0
			C8.8,16.7,9,16.9,9.2,17L17,20.5z"/>
	</g>
</svg>
