<svg width="42" height="38" viewBox="0 0 42 38" fill="none" xmlns="http://www.w3.org/2000/svg">
<g clip-path="url(#clip0_71_711)">
<path d="M41.8 16.3C40.3 15.9 36 14.9 32.2 15.7H25.8C25.1 15.7 24.4 16 24 16.5L23.9 16.4C23.3 15.7 23.1 14.7 23.2 13.8C23.2 13.7 23.2 13.5 23.2 13.4C23.1 12.5 22.5 11.7 21.6 11.5L21.5 4.09999L21.3 3.39999H21.2L21 4.09999L20.9 11.5C19.9 11.7 19.2 12.5 19.2 13.5C19.2 13.6 19.2 13.7 19.2 13.8C19.3 14.7 19.1 15.6 18.5 16.4C18.5 16.4 18.5 16.4 18.4 16.5C17.9 16 17.3 15.8 16.6 15.8H9.79998C5.99998 14.9 1.69998 15.9 0.199976 16.4C-0.100024 16.5 -0.100024 16.9 0.199976 17C0.499976 17 0.699976 17 0.999976 17.1C0.999976 17.2 1.09998 17.3 1.19998 17.3C1.49998 17.4 1.79998 17.5 2.09998 17.5C2.09998 17.6 2.19998 17.6 2.19998 17.7C2.49998 17.8 2.79998 17.9 3.09998 17.9C2.99998 17.9 3.09998 18 3.09998 18C3.39998 18.1 3.69998 18.2 3.99998 18.2C3.99998 18.3 3.99998 18.3 3.99998 18.4C4.29998 18.5 4.59998 18.6 4.89998 18.6C4.89998 18.7 4.89998 18.7 4.99998 18.8C5.29998 18.9 5.59998 19 5.89998 19C5.89998 19.1 5.89998 19.1 5.99998 19.2C6.29998 19.3 6.59998 19.4 6.89998 19.4C6.89998 19.5 6.89998 19.5 6.89998 19.5C7.19998 19.6 7.59998 19.7 7.79998 19.7V19.8C8.09998 19.9 8.49998 20 8.69998 20.1V20.2C8.99998 20.4 9.39998 20.5 9.59998 20.5V20.6C9.89998 20.8 10.4 20.9 10.5 20.9V21C10.8 21.2 11.3 21.3 11.4 21.3C11.4 21.3 11.4 21.3 11.5 21.3C11.5 21.4 11.5 21.4 11.5 21.4C11.7 21.6 12.2 21.7 12.3 21.7H12.4C12.4 21.8 12.4 21.8 12.4 21.9C12.6 22.1 13 22.2 13.1 22.2C13.1 22.2 13.2 22.2 13.3 22.1C13.3 22.2 13.3 22.2 13.3 22.3C13.4 22.5 13.9 22.7 13.9 22.6C13.9 22.6 14 22.5 14.2 22.5C14.2 22.6 14.2 22.7 14.3 22.7C14.4 22.9 14.8 23.1 14.9 23C15 23 15.1 22.9 15.2 22.8C15.2 22.9 15.2 23 15.3 23.1C15.4 23.3 15.7 23.5 15.8 23.4C15.9 23.3 16 23.3 16.1 23.2C16.1 23.3 16.1 23.4 16.1 23.5C16.1 23.7 16.4 23.9 16.5 23.8C16.8 23.6 16.8 23.2 16.8 23.2L17.3 19H17.4C17.5 20.4 17.8 23 17.9 23.9C17.9 24.4 18.1 25.1 18.3 25.8C17.4 28.6 18 32.2 18.9 33.1C19.2 33.4 19.5 33.4 19.7 33.3C19.8 33.7 20 34.1 20.2 34.3C20.9 35 21.6 34.2 21.7 34C21.8 33.8 21.8 33.6 21.8 33.4C22 33.4 22.2 33.3 22.3 33.1C23.2 32.3 23.8 28.9 23 26.1C23.4 25.3 23.6 24.4 23.6 23.7C23.6 23 23.9 21.1 24 19.7L24.4 23.2C24.4 23.2 24.5 23.6 24.7 23.8C24.8 23.9 25.1 23.7 25.1 23.5C25.1 23.4 25.1 23.3 25.2 23.1C25.3 23.2 25.5 23.3 25.6 23.4C25.7 23.5 26.1 23.3 26.1 23.1C26.1 23 26.1 22.9 26.2 22.8C26.3 22.9 26.4 22.9 26.5 22.9C26.6 23 27 22.8 27.1 22.6C27.1 22.5 27.1 22.5 27.2 22.4C27.3 22.4 27.4 22.5 27.5 22.5C27.6 22.6 28 22.4 28.1 22.2C28.1 22.2 28.1 22.1 28.1 22C28.2 22 28.3 22.1 28.3 22.1C28.4 22.2 28.8 22 29 21.8V21.7C29.1 21.7 29.1 21.7 29.1 21.7C29.2 21.8 29.7 21.6 29.9 21.4V21.3C29.9 21.3 29.9 21.3 30 21.3C30.1 21.3 30.6 21.2 30.9 21V20.9C31 20.9 31.5 20.8 31.8 20.6V20.5C32 20.5 32.4 20.4 32.7 20.2V20.1C32.9 20.1 33.3 20 33.6 19.8V19.7C33.9 19.7 34.2 19.6 34.5 19.5C34.5 19.5 34.5 19.4 34.6 19.3C34.9 19.3 35.2 19.2 35.5 19.1C35.5 19.1 35.6 19 35.6 18.9C35.9 18.9 36.2 18.8 36.5 18.7C36.5 18.7 36.6 18.6 36.6 18.5C36.9 18.5 37.2 18.4 37.5 18.3C37.5 18.3 37.6 18.2 37.6 18.1C37.9 18.1 38.2 18 38.4 17.9C38.4 17.9 38.5 17.8 38.5 17.7C38.8 17.7 39.1 17.6 39.3 17.5C39.4 17.5 39.4 17.4 39.5 17.3C39.8 17.3 40.1 17.2 40.3 17.1C40.4 17.1 40.5 17 40.5 16.9C40.8 16.9 41 16.8 41.3 16.7C42.1 16.8 42.1 16.4 41.8 16.3Z" fill="white"/>
<path d="M4.89996 14.8C6.69996 7.6 13.2 2.3 21 2.3C28.8 2.3 35.3 7.6 37.1 14.8C38 14.9 38.8 15 39.5 15.1C37.8 6.5 30.1 0 21 0C11.9 0 4.19996 6.5 2.39996 15.1C3.19996 15 3.99996 14.9 4.89996 14.8Z" fill="white"/>
<path d="M39.4 18.5L39.3 18.6H39.2C39 18.7 38.8 18.7 38.5 18.8L38.4 19L38.2 19.1C38 19.2 37.8 19.2 37.6 19.3C37.4 28.4 30 35.7 20.9 35.7C11.8 35.7 4.39998 28.4 4.19998 19.3C3.99998 19.3 3.79998 19.2 3.59998 19.1V19L3.49998 18.9C3.19998 18.9 2.99998 18.8 2.79998 18.7H2.69998L2.59998 18.6C2.39998 18.6 2.19998 18.5 2.09998 18.5C2.09998 18.7 2.09998 18.9 2.09998 19.1C2.09998 29.5 10.6 38 21 38C31.4 38 39.9 29.5 39.9 19.1C39.9 18.9 39.9 18.7 39.9 18.5C39.8 18.4 39.6 18.5 39.4 18.5Z" fill="white"/>
</g>
<defs>
<clipPath id="clip0_71_711">
<rect width="42" height="37.9" fill="white"/>
</clipPath>
</defs>
</svg>
