<?xml version="1.0" encoding="utf-8"?>
<!-- Generator: Adobe Illustrator 24.2.0, SVG Export Plug-In . SVG Version: 6.00 Build 0)  -->
<!DOCTYPE svg PUBLIC "-//W3C//DTD SVG 1.1//EN" "http://www.w3.org/Graphics/SVG/1.1/DTD/svg11.dtd" [
	<!ENTITY ns_extend "http://ns.adobe.com/Extensibility/1.0/">
	<!ENTITY ns_ai "http://ns.adobe.com/AdobeIllustrator/10.0/">
	<!ENTITY ns_graphs "http://ns.adobe.com/Graphs/1.0/">
	<!ENTITY ns_vars "http://ns.adobe.com/Variables/1.0/">
	<!ENTITY ns_imrep "http://ns.adobe.com/ImageReplacement/1.0/">
	<!ENTITY ns_sfw "http://ns.adobe.com/SaveForWeb/1.0/">
	<!ENTITY ns_custom "http://ns.adobe.com/GenericCustomNamespace/1.0/">
	<!ENTITY ns_adobe_xpath "http://ns.adobe.com/XPath/1.0/">
]>
<svg version="1.1" id="Layer_1" xmlns:x="&ns_extend;" xmlns:i="&ns_ai;" xmlns:graph="&ns_graphs;"
	 xmlns="http://www.w3.org/2000/svg" xmlns:xlink="http://www.w3.org/1999/xlink" x="0px" y="0px" viewBox="0 0 474 114"
	 style="enable-background:new 0 0 474 114;" xml:space="preserve">
	<style type="text/css">
		.st0{fill:#85782F;}
		.st1{fill:#213B73;}
	</style>
	<metadata>
		<sfw  xmlns="&ns_sfw;">
			<slices></slices>
			<sliceSourceBounds  bottomLeftOrigin="true" height="73.8" width="436.7" x="619.7" y="-857.9"></sliceSourceBounds>
			<optimizationSettings>
				<targetSettings  fileFormat="PNG24Format" targetSettingsID="0">
					<PNG24Format  filtered="false" interlaced="false" matteColor="#FFFFFF" noMatteColor="false" transparency="true">
						</PNG24Format>
				</targetSettings>
			</optimizationSettings>
		</sfw>
	</metadata>
	<g>
		<g>
			<g>
				<path class="st0" d="M47.5,70.4C47.5,70.4,47.5,70.4,47.5,70.4c-0.3,0-0.5,0.2-0.6,0.5l-1.9,15.9C45,87.5,45.5,88,46.2,88l0,0
					c0.5,0,1-0.5,1-1l0.9-16C48.1,70.7,47.8,70.4,47.5,70.4z"/>
				<path class="st0" d="M47.9,62.9l-0.6,5.5c0,0.3,0.2,0.6,0.5,0.5c0,0,0,0,0,0c0.2,0,0.4-0.2,0.5-0.5l0.3-5.5
					c0-0.2-0.1-0.3-0.3-0.3h0C48,62.6,47.9,62.8,47.9,62.9z"/>
				<path class="st0" d="M48.2,59.6l-0.1,1.2c0,0.2,0.1,0.3,0.3,0.3c0,0,0,0,0,0c0.1,0,0.2-0.1,0.2-0.2l0.1-1.2
					c0-0.1-0.1-0.2-0.2-0.2l0,0C48.3,59.4,48.3,59.5,48.2,59.6z"/>
				<path class="st0" d="M47.7,59.6l-0.4,1.2c-0.1,0.2,0.1,0.3,0.2,0.3c0,0,0,0,0,0c0.1,0,0.2-0.1,0.3-0.2l0.4-1.2
					c0-0.1,0-0.3-0.2-0.3c0,0,0,0,0,0C47.8,59.4,47.7,59.5,47.7,59.6z"/>
				<path class="st0" d="M46.5,62.8l-2,5.4c-0.1,0.3,0.1,0.6,0.4,0.7c0,0,0,0,0,0c0.2,0,0.5-0.1,0.5-0.4l1.6-5.5
					c0.1-0.2-0.1-0.4-0.3-0.4l0,0C46.7,62.5,46.5,62.6,46.5,62.8z"/>
				<path class="st0" d="M45.1,62.3l-3.3,5c-0.2,0.3-0.1,0.7,0.3,0.8c0,0,0,0,0,0c0.2,0.1,0.5,0,0.6-0.2l2.9-5.2
					c0.1-0.2,0-0.4-0.2-0.5c0,0,0,0,0,0C45.3,62.1,45.2,62.2,45.1,62.3z"/>
				<path class="st0" d="M47,59.4l-0.8,1.2c-0.1,0.1,0,0.4,0.1,0.4c0,0,0,0,0,0c0.1,0,0.2,0,0.3-0.1l0.7-1.2c0.1-0.1,0-0.3-0.1-0.3
					c0,0,0,0,0,0C47.2,59.3,47.1,59.3,47,59.4z"/>
				<path class="st0" d="M46.4,59l-1.1,1c-0.1,0.1-0.1,0.4,0.1,0.4c0,0,0,0,0,0c0.1,0.1,0.2,0,0.3-0.1l1-1.1c0.1-0.1,0.1-0.3-0.1-0.3
					c0,0,0,0,0,0C46.6,59,46.5,59,46.4,59z"/>
				<path class="st0" d="M43.7,61.6l-4.5,4.3c-0.3,0.2-0.2,0.7,0.1,0.8c0,0,0,0,0,0c0.2,0.1,0.5,0.1,0.7-0.1l4.2-4.5
					c0.1-0.1,0.1-0.4-0.1-0.5c0,0,0,0,0,0C44,61.4,43.8,61.5,43.7,61.6z"/>
				<path class="st0" d="M42.5,60.5l-5.6,3.2c-0.3,0.2-0.4,0.6-0.1,0.9c0,0,0,0,0,0c0.2,0.2,0.5,0.2,0.7,0.1l5.4-3.6
					c0.2-0.1,0.2-0.4,0.1-0.5l0,0C42.8,60.4,42.6,60.4,42.5,60.5z"/>
				<path class="st0" d="M45.8,58.6l-1.4,0.8c-0.2,0.1-0.2,0.3,0,0.5l0,0c0.1,0.1,0.2,0.1,0.3,0L46,59c0.1-0.1,0.1-0.3,0-0.4
					c0,0,0,0,0,0C46,58.5,45.9,58.5,45.8,58.6z"/>
				<path class="st0" d="M45.3,57.9l-1.6,0.5c-0.2,0.1-0.3,0.3-0.2,0.5l0,0c0.1,0.1,0.2,0.2,0.3,0.1l1.6-0.6c0.2-0.1,0.2-0.2,0.1-0.4
					c0,0,0,0,0,0C45.5,57.9,45.4,57.9,45.3,57.9z"/>
				<path class="st0" d="M41.5,59L35,61c-0.4,0.1-0.5,0.5-0.3,0.9c0,0,0,0,0,0c0.1,0.2,0.4,0.3,0.7,0.3l6.4-2.4
					c0.2-0.1,0.3-0.3,0.2-0.5c0,0,0,0,0,0C41.8,59,41.7,59,41.5,59z"/>
				<path class="st0" d="M40.8,57.3l-7.1,0.4c-0.4,0-0.7,0.4-0.5,0.8c0,0,0,0,0,0c0.1,0.3,0.4,0.5,0.7,0.4l7-0.9
					c0.2,0,0.4-0.2,0.3-0.4c0,0,0,0,0-0.1C41.2,57.4,41,57.3,40.8,57.3z"/>
				<path class="st0" d="M44.9,57l-1.8,0.1c-0.2,0-0.3,0.2-0.3,0.4c0,0,0,0,0,0c0.1,0.1,0.2,0.2,0.3,0.2l1.8-0.2
					c0.2,0,0.3-0.2,0.2-0.3l0,0C45.1,57.1,45,57,44.9,57z"/>
				<path class="st0" d="M41,55.7L41,55.7c0-0.2-0.1-0.3-0.3-0.4l-7.3-1.3c-0.3-0.1-0.7,0.2-0.7,0.6c0,0,0,0,0,0c0,0,0,0.1,0,0.1
					c0,0.3,0.2,0.5,0.5,0.6l7.4,0.8C40.8,56.2,41,56,41,55.7C41,55.8,41,55.7,41,55.7z"/>
				<path class="st0" d="M44.8,56.1l-1.9-0.3c-0.2,0-0.4,0.1-0.4,0.3l0,0c0,0.2,0.1,0.3,0.3,0.3l1.9,0.2c0.2,0,0.3-0.1,0.3-0.3l0,0
					C45,56.2,44.9,56.1,44.8,56.1z"/>
				<path class="st0" d="M41,53.3l-7-3c-0.4-0.2-0.8,0.1-0.9,0.5c0,0,0,0,0,0c-0.1,0.3,0.1,0.6,0.4,0.7l7.2,2.6
					c0.2,0.1,0.4-0.1,0.5-0.3c0,0,0-0.1,0-0.1C41.2,53.6,41.1,53.4,41,53.3z"/>
				<path class="st0" d="M44.9,55l-1.9-0.8c-0.2-0.1-0.4,0-0.5,0.3c0,0,0,0,0,0c0,0.2,0.1,0.3,0.2,0.4l1.9,0.7c0.1,0.1,0.3,0,0.3-0.2
					c0,0,0,0,0,0C45.1,55.2,45,55.1,44.9,55z"/>
				<path class="st0" d="M47.4,56.3c0-0.1,0-0.2-0.2-0.3l-0.4-0.2c-0.1-0.1-0.3,0-0.3,0.2c0,0,0,0,0,0c0,0.1,0.1,0.2,0.1,0.2l0.4,0.2
					C47.2,56.4,47.3,56.4,47.4,56.3z"/>
				<path class="st0" d="M45.3,54l-1.7-1.3c-0.2-0.1-0.4-0.1-0.5,0.1c0,0,0,0,0,0c-0.1,0.2,0,0.3,0.1,0.4l1.8,1.2
					c0.1,0.1,0.3,0,0.4-0.1l0,0C45.5,54.2,45.4,54.1,45.3,54z"/>
				<path class="st0" d="M47.6,56c0.1-0.1,0-0.2-0.1-0.3L47,55.2c-0.1-0.1-0.3,0-0.3,0.1c0,0,0,0,0,0c0,0.1,0,0.2,0.1,0.3l0.6,0.4
					C47.4,56.1,47.6,56,47.6,56z"/>
				<path class="st0" d="M41.8,51.4l-6.4-4.7c-0.3-0.3-0.8-0.1-1,0.2c0,0,0,0,0,0c-0.1,0.3,0,0.7,0.2,0.8l6.7,4.3
					c0.2,0.1,0.4,0,0.5-0.1c0,0,0-0.1,0.1-0.1C42,51.7,41.9,51.5,41.8,51.4z"/>
				<path class="st0" d="M43.1,49.6l-5.3-6.4c-0.3-0.3-0.8-0.3-1.1,0c0,0,0,0,0,0c-0.2,0.3-0.2,0.7,0,0.9l5.7,6
					c0.1,0.2,0.4,0.1,0.5,0c0,0,0.1-0.1,0.1-0.1C43.2,50,43.2,49.8,43.1,49.6z"/>
				<path class="st0" d="M47.9,55.7c0.1-0.1,0.1-0.2,0-0.3l-0.6-0.7c-0.1-0.1-0.3-0.1-0.3,0c0,0,0,0,0,0c-0.1,0.1-0.1,0.2,0,0.3
					l0.6,0.7C47.7,55.7,47.9,55.8,47.9,55.7z"/>
				<path class="st0" d="M46,53.1l-1.5-1.7c-0.1-0.2-0.4-0.2-0.6,0l0,0c-0.1,0.1-0.1,0.3,0,0.5l1.6,1.6c0.1,0.1,0.3,0.1,0.4,0l0,0
					C46.1,53.4,46.1,53.2,46,53.1z"/>
				<path class="st0" d="M48.3,55.5c0.1-0.1,0.1-0.2,0.1-0.3l-0.5-0.9c-0.1-0.1-0.2-0.2-0.3-0.1c0,0,0,0,0,0
					c-0.1,0.1-0.1,0.2-0.1,0.3l0.5,0.9C48.1,55.5,48.2,55.5,48.3,55.5z"/>
				<path class="st0" d="M47,52.4l-1.1-2.2c-0.1-0.2-0.4-0.3-0.6-0.1c0,0,0,0,0,0c-0.2,0.1-0.2,0.3-0.1,0.5l1.2,2.1
					c0.1,0.1,0.3,0.2,0.4,0.1l0,0C47,52.7,47.1,52.5,47,52.4z"/>
				<path class="st0" d="M44.8,48.1L41,40.4c-0.2-0.4-0.7-0.5-1.1-0.3l0,0c-0.3,0.2-0.4,0.6-0.2,0.9l4.3,7.4c0.1,0.2,0.4,0.3,0.6,0.1
					l0,0C44.9,48.6,44.9,48.3,44.8,48.1z"/>
				<path class="st0" d="M48.7,55.4L48.7,55.4c0.1,0,0.2-0.2,0.1-0.3L48.6,54c0-0.1-0.2-0.2-0.3-0.2c0,0,0,0,0,0
					c-0.1,0-0.2,0.2-0.2,0.3l0.3,1.1C48.5,55.3,48.6,55.4,48.7,55.4z"/>
				<path class="st0" d="M47,47.2l-2.1-8.8c-0.1-0.4-0.6-0.7-1-0.5c0,0,0,0-0.1,0c-0.3,0.1-0.5,0.5-0.4,0.9l2.6,8.6
					c0.1,0.2,0.3,0.4,0.6,0.3c0,0,0,0,0,0C46.9,47.6,47,47.4,47,47.2z"/>
				<path class="st0" d="M48.1,52l-0.6-2.6c-0.1-0.2-0.3-0.3-0.5-0.3c0,0,0,0,0,0c-0.2,0.1-0.3,0.3-0.2,0.5l0.8,2.5
					c0,0.2,0.2,0.2,0.4,0.2l0,0C48.1,52.3,48.2,52.2,48.1,52z"/>
				<path class="st0" d="M49.2,55.4c0.1,0,0.2-0.1,0.2-0.3l0-1.1c0-0.1-0.1-0.2-0.2-0.2c0,0,0,0,0,0c-0.1,0-0.3,0.1-0.2,0.2l0.1,1.2
					C49,55.3,49.1,55.4,49.2,55.4z"/>
				<path class="st0" d="M49.4,52l0-2.8c0-0.2-0.2-0.4-0.4-0.4l0,0c-0.2,0-0.4,0.2-0.4,0.4l0.2,2.8c0,0.2,0.1,0.3,0.3,0.3l0,0
					C49.2,52.3,49.4,52.1,49.4,52z"/>
				<path class="st0" d="M49.4,46.8l0-9.4c0-0.4-0.4-0.8-0.8-0.7c0,0-0.1,0-0.1,0c-0.4,0-0.6,0.4-0.6,0.8l0.6,9.4
					c0,0.2,0.2,0.4,0.5,0.4c0,0,0,0,0,0C49.2,47.2,49.4,47,49.4,46.8z"/>
				<path class="st0" d="M50.6,52.2l0.7-2.9c0.1-0.2-0.1-0.4-0.3-0.5c0,0,0,0,0,0c-0.2,0-0.4,0.1-0.4,0.3L50,52.1
					c0,0.2,0.1,0.3,0.2,0.3l0,0C50.3,52.5,50.5,52.4,50.6,52.2z"/>
				<path class="st0" d="M49.6,55.5c0.1,0,0.2-0.1,0.2-0.2l0.3-1.1c0-0.1,0-0.2-0.1-0.3c0,0,0,0,0,0c-0.1,0-0.3,0-0.3,0.2l-0.2,1.1
					C49.4,55.4,49.5,55.5,49.6,55.5z"/>
				<path class="st0" d="M51.8,47.1l2.3-9.5c0.1-0.4-0.2-0.8-0.6-0.9c0,0-0.1,0-0.1,0c-0.4,0-0.7,0.2-0.8,0.6l-1.6,9.6
					c0,0.2,0.1,0.5,0.4,0.5c0,0,0,0,0,0C51.5,47.4,51.7,47.3,51.8,47.1z"/>
				<path class="st0" d="M51.6,52.8L53,50c0.1-0.2,0-0.5-0.2-0.5c0,0,0,0,0,0c-0.2-0.1-0.4,0-0.5,0.2l-1.2,2.9
					c-0.1,0.1,0,0.3,0.1,0.4l0,0C51.4,53,51.6,52.9,51.6,52.8z"/>
				<path class="st0" d="M50,55.7c0.1,0,0.2,0,0.3-0.1l0.5-1c0.1-0.1,0-0.2-0.1-0.3c0,0,0,0,0,0c-0.1-0.1-0.3,0-0.3,0.1l-0.4,1
					C49.8,55.5,49.9,55.7,50,55.7z"/>
				<path class="st0" d="M54.1,47.9l4.6-9.1c0.2-0.4,0-0.9-0.4-1c0,0-0.1,0-0.2-0.1c-0.4-0.1-0.7,0.1-0.9,0.4l-4,9.3
					c-0.1,0.2,0,0.5,0.2,0.6c0,0,0,0,0,0C53.7,48.2,54,48.1,54.1,47.9z"/>
				<path class="st0" d="M50.3,56c0.1,0.1,0.2,0,0.3-0.1l0.7-0.8c0.1-0.1,0.1-0.2,0-0.3c0,0,0,0,0,0c-0.1-0.1-0.3-0.1-0.4,0l-0.6,0.8
					C50.2,55.8,50.2,55.9,50.3,56z"/>
				<path class="st0" d="M56.2,49.2l6.8-8.1c0.3-0.3,0.2-0.8-0.2-1.1c-0.1,0-0.1-0.1-0.2-0.1c-0.3-0.2-0.7-0.1-0.9,0.2l-6.3,8.5
					c-0.2,0.2-0.1,0.5,0.1,0.7c0,0,0,0,0,0C55.8,49.4,56.1,49.4,56.2,49.2z"/>
				<path class="st0" d="M52.6,53.5l2.1-2.5c0.1-0.2,0.1-0.4-0.1-0.6c0,0,0,0,0,0c-0.2-0.1-0.4-0.1-0.5,0.1l-2,2.7
					c-0.1,0.1-0.1,0.3,0,0.4l0,0C52.3,53.7,52.5,53.7,52.6,53.5z"/>
				<path class="st0" d="M58,51l8.8-6.5c0.4-0.3,0.4-0.9,0.1-1.2l0,0c-0.3-0.3-0.8-0.3-1.1,0l-8.4,7.1c-0.2,0.2-0.2,0.5-0.1,0.7
					c0,0,0,0,0,0C57.5,51.1,57.8,51.1,58,51z"/>
				<path class="st0" d="M53.3,54.5l2.8-2.1c0.2-0.1,0.2-0.4,0.1-0.6c0,0,0,0,0,0c-0.1-0.2-0.4-0.2-0.6,0L52.9,54
					c-0.1,0.1-0.1,0.3-0.1,0.4l0,0C53,54.6,53.1,54.6,53.3,54.5z"/>
				<path class="st0" d="M50.5,56.3c0.1,0.1,0.2,0.1,0.3,0l0.8-0.6c0.1-0.1,0.1-0.2,0.1-0.3c0,0,0,0,0,0c-0.1-0.1-0.2-0.2-0.3-0.1
					L50.6,56C50.5,56.1,50.5,56.2,50.5,56.3z"/>
				<path class="st0" d="M53.7,55.6l3.4-1.5c0.2-0.1,0.3-0.4,0.2-0.6c0,0,0,0,0,0c-0.1-0.2-0.3-0.3-0.5-0.2l-3.3,1.7
					c-0.1,0.1-0.2,0.2-0.1,0.4l0,0C53.4,55.6,53.6,55.7,53.7,55.6z"/>
				<path class="st0" d="M59.3,53.2l10.9-4.7c0.3-0.1,0.4-0.4,0.2-0.7c-0.1-0.2-0.3-0.4-0.4-0.7c-0.1-0.2-0.4-0.3-0.6-0.2l-10.5,5.3
					c-0.2,0.1-0.3,0.4-0.2,0.6c0,0,0,0,0,0C58.8,53.2,59.1,53.3,59.3,53.2z"/>
				<path class="st0" d="M53.9,56.8l3.9-0.7c0.2,0,0.4-0.3,0.3-0.5c0,0,0,0,0,0c-0.1-0.2-0.3-0.4-0.5-0.3l-3.8,0.9
					c-0.1,0-0.2,0.2-0.2,0.3l0,0C53.6,56.7,53.7,56.8,53.9,56.8z"/>
				<path class="st0" d="M60.1,55.7l11.8-2.1c0.5-0.1,0.8-0.6,0.7-1.1l0,0c-0.1-0.4-0.6-0.7-1-0.6l-11.6,2.8
					c-0.3,0.1-0.4,0.3-0.3,0.6c0,0,0,0,0,0C59.6,55.6,59.9,55.7,60.1,55.7z"/>
				<path class="st0" d="M60.3,58.3L72.6,59c0.5,0,1-0.4,0.9-0.9l0,0c0-0.5-0.4-0.8-0.9-0.8l-12.3,0.1c-0.3,0-0.5,0.2-0.5,0.5
					c0,0,0,0,0,0C59.8,58.1,60,58.3,60.3,58.3z"/>
				<path class="st0" d="M53.8,57.9l4.1,0.2c0.2,0,0.4-0.2,0.4-0.4c0,0,0,0,0,0c0-0.2-0.2-0.4-0.4-0.4l-4.1,0c-0.1,0-0.3,0.1-0.3,0.3
					l0,0C53.5,57.8,53.7,57.9,53.8,57.9z"/>
				<path class="st0" d="M59.9,60.9l12.2,3.7c0.5,0.2,1-0.2,1.1-0.7l0,0c0.1-0.5-0.2-0.9-0.7-1L60.1,60c-0.3-0.1-0.5,0.1-0.6,0.4
					c0,0,0,0,0,0C59.5,60.6,59.6,60.9,59.9,60.9z"/>
				<path class="st0" d="M53.5,59l4.1,1.2c0.2,0.1,0.5-0.1,0.5-0.3c0,0,0,0,0,0c0-0.2-0.1-0.4-0.3-0.5l-4.1-1c-0.1,0-0.3,0-0.3,0.2
					l0,0C53.3,58.8,53.4,59,53.5,59z"/>
				<path class="st0" d="M50.7,57.9C50.7,57.9,50.7,58,50.7,57.9c-0.1,0.1,0,0.3,0.1,0.3c0,0,0,0,0,0l0.8,0.2c0.1,0,0.2,0,0.3-0.1
					c0,0,0,0,0,0c0-0.1,0-0.3-0.2-0.3l-0.8-0.2l0,0C50.8,57.8,50.8,57.8,50.7,57.9z"/>
				<path class="st0" d="M53,60.1l3.8,2.2c0.2,0.1,0.5,0,0.6-0.2c0,0,0,0,0,0c0.1-0.2,0-0.4-0.2-0.5l-4-2c-0.1-0.1-0.3,0-0.4,0.1l0,0
					C52.8,59.8,52.9,60,53,60.1z"/>
				<path class="st0" d="M50.5,58.3L50.5,58.3c-0.1,0.1,0,0.2,0.1,0.3c0,0,0,0,0,0l0.7,0.4c0.1,0.1,0.2,0,0.3-0.1c0,0,0,0,0,0
					c0.1-0.1,0-0.3-0.1-0.3l-0.8-0.4c0,0,0,0,0,0C50.6,58.2,50.5,58.3,50.5,58.3z"/>
				<path class="st0" d="M58.9,63.5l11.4,6.6c0.5,0.3,1.1,0.1,1.3-0.5v0c0.2-0.4,0-0.9-0.4-1.2l-11.8-5.9c-0.3-0.1-0.6,0-0.7,0.2
					c0,0,0,0,0,0C58.6,63.1,58.7,63.4,58.9,63.5z"/>
				<path class="st0" d="M52.3,61l3.4,3.2c0.2,0.2,0.5,0.1,0.7-0.1c0,0,0,0,0,0c0.1-0.2,0.1-0.4-0.1-0.6l-3.6-3
					c-0.1-0.1-0.3-0.1-0.4,0c0,0,0,0,0,0C52.2,60.7,52.2,60.9,52.3,61z"/>
				<path class="st0" d="M57.5,65.8l10,9.4c0.4,0.4,1.1,0.3,1.4-0.2l0,0c0.3-0.4,0.2-0.9-0.2-1.2l-10.6-8.8c-0.2-0.2-0.6-0.1-0.7,0.1
					c0,0,0,0,0,0C57.2,65.4,57.3,65.7,57.5,65.8z"/>
				<path class="st0" d="M50.2,58.7L50.2,58.7c-0.1,0.1-0.1,0.2,0,0.3l0,0l0.7,0.6c0.1,0.1,0.2,0.1,0.3,0c0,0,0,0,0,0
					c0.1-0.1,0.1-0.2,0-0.3l-0.7-0.6l0,0C50.4,58.6,50.2,58.6,50.2,58.7z"/>
				<path class="st0" d="M51.4,61.7l2.7,4.1c0.2,0.2,0.5,0.3,0.7,0.1c0,0,0,0,0,0c0.2-0.2,0.2-0.4,0-0.6l-2.9-3.9
					c-0.1-0.1-0.3-0.2-0.4-0.1c0,0,0,0,0,0C51.4,61.5,51.3,61.6,51.4,61.7z"/>
				<path class="st0" d="M55.5,67.9l7.8,11.9c0.3,0.5,1.1,0.6,1.5,0.2h0c0.4-0.3,0.4-0.9,0.1-1.3l-8.6-11.4c-0.2-0.2-0.5-0.3-0.8-0.1
					c0,0,0,0,0,0C55.4,67.4,55.3,67.7,55.5,67.9z"/>
				<path class="st0" d="M49.8,59L49.8,59c-0.1,0.1-0.1,0.2-0.1,0.3l0.5,0.8c0.1,0.1,0.2,0.1,0.3,0h0c0.1-0.1,0.1-0.2,0-0.3L50.1,59
					C50,58.9,49.9,58.9,49.8,59z"/>
				<path class="st0" d="M50.4,62.4l1.7,4.8c0.1,0.3,0.4,0.4,0.7,0.2c0,0,0,0,0,0c0.2-0.1,0.3-0.4,0.2-0.6l-2-4.7
					c-0.1-0.1-0.2-0.2-0.4-0.1c0,0,0,0,0,0C50.4,62.1,50.3,62.2,50.4,62.4z"/>
				<path class="st0" d="M53,69.5l5.1,14c0.2,0.6,0.9,0.8,1.5,0.5l0,0c0.4-0.3,0.6-0.8,0.4-1.3l-6-13.6c-0.1-0.3-0.5-0.4-0.7-0.3
					c0,0,0,0,0,0C53,69,52.9,69.3,53,69.5z"/>
				<path class="st0" d="M49.4,59.2L49.4,59.2c-0.1,0-0.1,0.1-0.1,0.2c0.1,0.3,0.2,0.7,0.3,1c0,0.1,0.2,0.2,0.3,0.1l0,0
					c0.1-0.1,0.2-0.2,0.1-0.3c-0.1-0.3-0.3-0.7-0.4-1C49.6,59.2,49.5,59.1,49.4,59.2z"/>
				<path class="st0" d="M48.8,59.6l0.1,1.1c0,0.2,0.2,0.3,0.3,0.2l0,0c0.1,0,0.2-0.2,0.2-0.3l-0.2-1.1c0-0.1-0.1-0.2-0.2-0.2
					c0,0,0,0,0,0C48.9,59.4,48.8,59.5,48.8,59.6z"/>
				<path class="st0" d="M50.1,70.6l1.8,15.4c0.1,0.6,0.7,1.1,1.3,0.9l0,0c0.5-0.2,0.8-0.7,0.7-1.2l-2.8-15.2
					c-0.1-0.3-0.4-0.5-0.7-0.4c0,0,0,0,0,0C50.2,70.1,50.1,70.3,50.1,70.6z"/>
				<path class="st0" d="M49.4,62.4C49.4,62.4,49.4,62.4,49.4,62.4c-0.2,0-0.3,0.2-0.3,0.3l0.6,5.3c0,0.3,0.3,0.5,0.6,0.4
					c0,0,0,0,0,0c0.2-0.1,0.4-0.3,0.3-0.5l-1-5.2C49.7,62.5,49.6,62.4,49.4,62.4z"/>
				<path class="st0" d="M52,56.2c0-0.1-0.2-0.2-0.3-0.1l-0.8,0.4c-0.1,0.1-0.2,0.1-0.1,0.2c0,0,0,0,0,0c0,0.1,0.2,0.1,0.3,0.1l0,0
					l0.8-0.4C52,56.4,52,56.3,52,56.2C52,56.2,52,56.2,52,56.2z"/>
				<path class="st0" d="M52.1,56.9c0-0.1-0.1-0.2-0.3-0.2L51,56.9l-0.1,0c-0.1,0-0.2,0.1-0.2,0.2c0,0.1,0.1,0.1,0.2,0.1
					c0,0,0.1,0,0.1,0l0.8-0.1C52,57.1,52.1,57,52.1,56.9C52.1,56.9,52.1,56.9,52.1,56.9z"/>
				<path class="st0" d="M51,57.4C51,57.4,51,57.4,51,57.4c-0.2,0-0.2,0.1-0.3,0.2v0c0,0.1,0,0.1,0.1,0.1c0,0,0.1,0.1,0.2,0.1l0.8,0
					c0.1,0,0.2-0.1,0.2-0.2c0,0,0,0,0,0c0-0.1-0.1-0.3-0.2-0.3L51,57.4z"/>
				<path class="st0" d="M50.6,58c0,0,0,0.1,0,0.1c0-0.1,0.1-0.2,0.1-0.3C50.7,57.8,50.6,57.9,50.6,58z"/>
				<path class="st0" d="M47,90.6c0-0.6-0.5-1.2-1.1-1.1c-0.1,0-0.2,0-0.2,0c-0.5,0-1,0.4-1,0.9l-0.2,2.1c-0.1,0.7,0.5,1.4,1.2,1.4
					l0,0c0.7,0,1.2-0.5,1.3-1.2L47,90.6z"/>
				<path class="st0" d="M44.3,70.2C44.3,70.2,44.3,70.2,44.3,70.2c-0.3-0.1-0.6,0.1-0.7,0.4l-7.9,21.6c-0.3,0.8,0.3,1.7,1.2,1.7h0.1
					c0.6,0,1-0.4,1.2-0.9L44.7,71C44.8,70.6,44.6,70.3,44.3,70.2z"/>
				<path class="st0" d="M41.1,69.3L41.1,69.3c-0.3-0.1-0.6,0-0.7,0.2L25.8,91.7c-0.6,1,0.1,2.2,1.2,2.2h0c0.5,0,1-0.3,1.3-0.7
					l13.2-23C41.6,69.8,41.4,69.4,41.1,69.3z"/>
				<path class="st0" d="M67.1,81.6c-0.4-0.5-1.1-0.6-1.6-0.1c0,0,0,0,0,0c-0.4,0.4-0.4,0.9-0.2,1.4l6.8,10.4
					c0.3,0.4,0.7,0.7,1.2,0.7l0,0c1.2,0,1.9-1.4,1.2-2.4L67.1,81.6z"/>
				<path class="st0" d="M61.4,86c-0.2-0.5-0.9-0.8-1.4-0.5c-0.1,0-0.1,0.1-0.2,0.1c-0.4,0.2-0.6,0.8-0.4,1.2l2.3,6.2
					c0.2,0.5,0.7,0.8,1.2,0.8h0.2c0.9,0,1.5-0.9,1.2-1.8L61.4,86z"/>
				<path class="st0" d="M54.6,89.2c-0.1-0.6-0.8-1-1.4-0.8c-0.6,0.1-0.9,0.6-0.9,1.1l0.4,3.3c0.1,0.6,0.6,1.1,1.2,1.1h0
					c0.8,0,1.4-0.7,1.2-1.5L54.6,89.2z"/>
				<path class="st0" d="M68.2,41.1c-0.4,0.3-0.4,0.8-0.1,1.2c0.1,0.1,0.1,0.1,0.2,0.2c0.3,0.3,0.7,0.3,1.1,0.1l12.4-9.3
					c0.4-0.3,0.6-0.7,0.6-1.1v0c0-1.2-1.4-1.9-2.3-1.1L68.2,41.1z"/>
				<path class="st0" d="M72.1,45.6c-0.5,0.2-0.7,0.9-0.4,1.3c0,0,0,0,0,0c0.2,0.4,0.7,0.6,1.2,0.4l8.7-3.7c0.5-0.2,0.8-0.6,0.8-1.1
					v0c0-0.9-1-1.5-1.8-1.1L72.1,45.6z"/>
				<path class="st0" d="M74.8,51.1c-0.5,0.1-0.9,0.7-0.7,1.2c0,0,0,0,0,0c0.1,0.5,0.6,0.8,1.1,0.7l6.2-1.1c0.6-0.1,1-0.6,1-1.1v0
					c0-0.7-0.7-1.3-1.4-1.1L74.8,51.1z"/>
				<path class="st0" d="M76.1,57.2c-0.6,0-1,0.5-1,1c0,0,0,0,0,0c0,0.5,0.4,0.9,0.9,0.9l5.1,0.3c0.7,0,1.2-0.5,1.2-1.2l0,0
					c0-0.6-0.5-1.2-1.2-1.2L76.1,57.2z"/>
				<path class="st0" d="M75.9,63.6c-0.6-0.1-1.1,0.2-1.2,0.8c0,0,0,0,0,0c-0.1,0.5,0.2,1,0.7,1.1l5.5,1.6c0.7,0.2,1.5-0.3,1.5-1.1
					V66c0-0.5-0.4-1-0.9-1.1L75.9,63.6z"/>
				<path class="st0" d="M74.4,70c-0.5-0.3-1.2,0-1.4,0.5c0,0,0,0,0,0c-0.2,0.5,0,1,0.4,1.3l7.3,4.2c0.8,0.4,1.7-0.1,1.7-1v-0.3
					c0-0.4-0.2-0.8-0.6-1L74.4,70z"/>
				<path class="st0" d="M71.4,76.1c-0.5-0.4-1.2-0.3-1.5,0.2c0,0,0,0,0,0c-0.3,0.4-0.2,1,0.1,1.4l9.8,9.3c0.9,0.9,2.5,0.2,2.5-1.1v0
					c0-0.4-0.2-0.9-0.5-1.1L71.4,76.1z"/>
				<path class="st0" d="M39.3,38.7L39.3,38.7c0.3-0.2,0.4-0.7,0.3-1l-8.5-16.8c-0.2-0.5-0.7-0.8-1.3-0.8h0c-1.1,0-1.8,1.2-1.2,2.1
					l9.5,16.3C38.4,38.9,38.9,39,39.3,38.7z"/>
				<path class="st0" d="M43.7,36.4C43.7,36.4,43.7,36.4,43.7,36.4c0.4-0.2,0.6-0.6,0.5-1l-3.4-14.3c-0.1-0.6-0.6-1-1.2-1h-0.1
					c-0.9,0-1.5,0.8-1.2,1.6l4.3,14.1C42.7,36.3,43.2,36.5,43.7,36.4z"/>
				<path class="st0" d="M48.6,35.2C48.6,35.2,48.6,35.2,48.6,35.2c0.4,0,0.8-0.4,0.8-0.8l0-13c0-0.7-0.6-1.3-1.3-1.3h0
					c-0.7,0-1.3,0.6-1.3,1.3l0.8,12.9C47.7,34.8,48.1,35.2,48.6,35.2z"/>
				<path class="st0" d="M53.8,35.2L53.8,35.2c0.5,0.1,0.9-0.2,1-0.7l3.1-12.9c0.2-0.8-0.4-1.6-1.3-1.6h0c-0.6,0-1.2,0.5-1.3,1.1
					L53,34.2C52.9,34.7,53.3,35.2,53.8,35.2z"/>
				<path class="st0" d="M59,36.4L59,36.4c0.4,0.2,0.9,0,1.1-0.4l7-13.9c0.5-0.9-0.2-2-1.2-2l0,0c-0.6,0-1.1,0.3-1.3,0.8l-6.1,14.3
					C58.3,35.7,58.5,36.3,59,36.4z"/>
				<path class="st0" d="M63.9,38.8L63.9,38.8c0.4,0.3,0.9,0.2,1.2-0.2l13.4-16c0.9-1,0.1-2.6-1.2-2.6h0c-0.5,0-1,0.2-1.3,0.6
					L63.6,37.5C63.3,38,63.4,38.6,63.9,38.8z"/>
				<g>
					<path class="st0" d="M47.2,56.7c0-0.1-0.1-0.2-0.2-0.2l-0.2,0c-0.1,0-0.3,0.1-0.2,0.3c0,0,0,0,0,0c0,0.1,0.1,0.1,0.2,0.1l0.2,0
						C47,56.9,47.2,56.8,47.2,56.7z"/>
					<path class="st0" d="M46.9,56.9c-0.1,0-0.2,0.1-0.2,0.2c0,0,0,0,0,0c0,0.1,0.1,0.1,0.1,0.1c0,0,0.1,0,0.1,0
						c0.1,0,0.2-0.1,0.2-0.2c0-0.1-0.1-0.2-0.1-0.2C47,56.9,46.9,56.9,46.9,56.9z"/>
					<circle class="st0" cx="47.1" cy="57.5" r="0.2"/>
				</g>
				<g>
					<path class="st0" d="M38,67.6C38,67.6,38,67.6,38,67.6c-0.3-0.2-0.6-0.1-0.8,0.1L19.1,84.8c-0.3,0.3-0.4,0.6-0.4,1v0
						c0,1.3,1.6,1.9,2.5,1l17-18.2C38.4,68.3,38.3,67.9,38,67.6z"/>
					<path class="st0" d="M35.2,66.2c0.3-0.2,0.4-0.7,0.1-1c0,0,0,0,0,0c-0.2-0.2-0.5-0.3-0.8-0.1l-15.2,8.8c-0.4,0.2-0.6,0.6-0.6,1
						v0c0,1,1.1,1.5,1.9,1L35.2,66.2z"/>
					<path class="st0" d="M32.7,63.1c0.4-0.1,0.6-0.6,0.4-1l0,0c-0.1-0.3-0.5-0.4-0.8-0.3l-12.9,3.9c-0.4,0.1-0.8,0.5-0.8,1v0.1
						c0,0.7,0.7,1.2,1.4,1L32.7,63.1z"/>
					<path class="st0" d="M31.1,59.3c0.4-0.1,0.7-0.5,0.6-0.9c0,0,0,0,0,0c-0.1-0.3-0.4-0.5-0.7-0.5l-11.3,0.7c-0.6,0-1,0.5-1,1.1v0
						c0,0.6,0.6,1.1,1.2,1.1L31.1,59.3z"/>
					<path class="st0" d="M30.4,55c0.4,0,0.8-0.3,0.8-0.7c0,0,0,0,0,0c0-0.3-0.2-0.7-0.6-0.7l-10.7-1.9c-0.6-0.1-1.2,0.4-1.2,1v0
						c0,0.5,0.4,1,0.9,1.1L30.4,55z"/>
					<path class="st0" d="M30.8,50.6c0.4,0.1,0.9-0.1,1-0.5c0,0,0,0,0,0c0.1-0.3-0.1-0.7-0.4-0.8l-11.2-4.8c-0.7-0.3-1.5,0.2-1.5,1
						v0.2c0,0.4,0.3,0.8,0.7,1L30.8,50.6z"/>
					<path class="st0" d="M32.2,46.1c0.4,0.2,0.9,0.1,1.1-0.3c0,0,0,0,0,0c0.2-0.3,0.1-0.7-0.2-0.9l-12.4-9.2c-0.8-0.6-2,0-2,1l0,0
						c0,0.4,0.2,0.8,0.6,1.1L32.2,46.1z"/>
					<path class="st0" d="M34.7,42c0.3,0.3,0.9,0.3,1.2,0c0,0,0,0,0,0c0.2-0.3,0.2-0.7,0-1L21.3,23.6c-0.9-1.1-2.7-0.4-2.7,1v0
						c0,0.4,0.1,0.8,0.4,1L34.7,42z"/>
				</g>
			</g>
		</g>
	</g>
	<g>
		<g>
			<path class="st1" d="M96.7,65.5v11.1h4.4v3.1h-8.1V65.5H96.7z"/>
			<path class="st1" d="M111.1,68.6h-4.4V71h4.1v3.1h-4.1v2.5h4.4v3.1h-8V65.5h8V68.6z"/>
			<path class="st1" d="M120.6,71.8h7.3c0,0.8,0,1.4-0.1,2.1c-0.1,0.6-0.2,1.2-0.4,1.7c-0.3,0.7-0.6,1.4-1.1,2
				c-0.5,0.6-1,1.1-1.6,1.4c-0.6,0.4-1.3,0.7-2,0.9c-0.7,0.2-1.5,0.3-2.3,0.3c-1.1,0-2.1-0.2-3-0.5c-0.9-0.4-1.7-0.9-2.3-1.5
				s-1.2-1.5-1.5-2.4c-0.4-0.9-0.5-1.9-0.5-3.1c0-1.1,0.2-2.1,0.5-3.1c0.4-0.9,0.9-1.7,1.5-2.4c0.7-0.7,1.4-1.2,2.4-1.5
				c0.9-0.4,2-0.5,3.1-0.5c1.5,0,2.8,0.3,3.9,1c1.1,0.6,2,1.6,2.6,3l-3.5,1.5c-0.3-0.8-0.7-1.3-1.3-1.7c-0.5-0.3-1.1-0.5-1.8-0.5
				c-0.6,0-1.1,0.1-1.5,0.3c-0.5,0.2-0.8,0.5-1.2,0.9c-0.3,0.4-0.6,0.8-0.8,1.4c-0.2,0.5-0.3,1.1-0.3,1.8c0,0.6,0.1,1.2,0.2,1.7
				c0.2,0.5,0.4,1,0.7,1.3c0.3,0.4,0.7,0.7,1.2,0.9c0.5,0.2,1,0.3,1.6,0.3c0.4,0,0.7,0,1.1-0.1c0.3-0.1,0.6-0.2,0.9-0.4
				c0.3-0.2,0.5-0.4,0.7-0.7c0.2-0.3,0.3-0.6,0.4-1.1h-3V71.8z"/>
			<path class="st1" d="M138.4,77.3h-5.3l-0.8,2.5h-3.9l5.4-14.2h4l5.4,14.2h-3.9L138.4,77.3z M137.4,74.5l-1.7-4.7l-1.7,4.7H137.4z"
				/>
			<path class="st1" d="M144.8,65.5h5.4c1,0,1.9,0.2,2.7,0.6c0.8,0.4,1.6,0.9,2.2,1.6c0.6,0.6,1.1,1.4,1.5,2.3
				c0.4,0.9,0.5,1.8,0.5,2.7c0,0.9-0.2,1.8-0.5,2.7c-0.4,0.9-0.9,1.6-1.5,2.3c-0.6,0.7-1.4,1.2-2.2,1.6c-0.8,0.4-1.8,0.6-2.7,0.6
				h-5.4V65.5z M148.5,76.6h0.8c0.6,0,1.2-0.1,1.7-0.3c0.5-0.2,0.9-0.5,1.3-0.8c0.3-0.4,0.6-0.8,0.8-1.3c0.2-0.5,0.3-1,0.3-1.6
				c0-0.6-0.1-1.1-0.3-1.6c-0.2-0.5-0.5-0.9-0.8-1.3c-0.3-0.4-0.8-0.6-1.3-0.8c-0.5-0.2-1.1-0.3-1.7-0.3h-0.8V76.6z"/>
			<path class="st1" d="M158.9,72.6c0-1.1,0.2-2,0.6-3c0.4-0.9,0.9-1.7,1.6-2.4c0.7-0.7,1.5-1.2,2.5-1.6c1-0.4,2-0.6,3.2-0.6
				c1.1,0,2.2,0.2,3.2,0.6c1,0.4,1.8,0.9,2.5,1.6c0.7,0.7,1.2,1.5,1.6,2.4c0.4,0.9,0.6,1.9,0.6,3c0,1.1-0.2,2-0.6,3
				c-0.4,0.9-0.9,1.7-1.6,2.4c-0.7,0.7-1.5,1.2-2.5,1.6c-1,0.4-2,0.6-3.2,0.6c-1.2,0-2.2-0.2-3.2-0.6c-1-0.4-1.8-0.9-2.5-1.6
				c-0.7-0.7-1.2-1.5-1.6-2.4C159.1,74.7,158.9,73.7,158.9,72.6z M162.7,72.6c0,0.6,0.1,1.1,0.3,1.6c0.2,0.5,0.5,0.9,0.9,1.2
				c0.4,0.4,0.8,0.6,1.3,0.8c0.5,0.2,1,0.3,1.5,0.3c0.5,0,1-0.1,1.5-0.3s0.9-0.5,1.3-0.8s0.7-0.8,0.9-1.2c0.2-0.5,0.3-1,0.3-1.6
				c0-0.6-0.1-1.1-0.3-1.6c-0.2-0.5-0.5-0.9-0.9-1.2s-0.8-0.6-1.3-0.8c-0.5-0.2-1-0.3-1.5-0.3c-0.5,0-1,0.1-1.5,0.3
				c-0.5,0.2-0.9,0.5-1.3,0.8c-0.4,0.4-0.7,0.8-0.9,1.2C162.8,71.5,162.7,72.1,162.7,72.6z"/>
			<path class="st1" d="M206.2,70.3c-0.9-1-1.9-1.6-3.2-1.6c-0.6,0-1.1,0.1-1.5,0.3c-0.5,0.2-0.9,0.5-1.2,0.8
				c-0.3,0.3-0.6,0.8-0.8,1.2c-0.2,0.5-0.3,1-0.3,1.5c0,0.6,0.1,1.1,0.3,1.6c0.2,0.5,0.5,0.9,0.8,1.2c0.3,0.4,0.7,0.6,1.2,0.8
				c0.5,0.2,1,0.3,1.5,0.3c1.2,0,2.2-0.5,3.2-1.5v4.4l-0.4,0.1c-0.6,0.2-1.1,0.3-1.6,0.4c-0.5,0.1-1,0.1-1.4,0.1
				c-1,0-1.9-0.2-2.8-0.6c-0.9-0.4-1.7-0.9-2.4-1.6c-0.7-0.7-1.2-1.5-1.6-2.4c-0.4-0.9-0.6-1.9-0.6-3c0-1.1,0.2-2.1,0.6-3
				c0.4-0.9,1-1.7,1.6-2.4c0.7-0.7,1.5-1.2,2.4-1.5c0.9-0.4,1.8-0.6,2.8-0.6c0.6,0,1.1,0.1,1.7,0.2c0.5,0.1,1.1,0.3,1.7,0.6V70.3z"/>
			<path class="st1" d="M208.1,72.6c0-1.1,0.2-2,0.6-3c0.4-0.9,0.9-1.7,1.6-2.4c0.7-0.7,1.5-1.2,2.5-1.6c1-0.4,2-0.6,3.2-0.6
				c1.1,0,2.2,0.2,3.2,0.6c1,0.4,1.8,0.9,2.5,1.6c0.7,0.7,1.2,1.5,1.6,2.4c0.4,0.9,0.6,1.9,0.6,3c0,1.1-0.2,2-0.6,3
				c-0.4,0.9-0.9,1.7-1.6,2.4c-0.7,0.7-1.5,1.2-2.5,1.6c-1,0.4-2,0.6-3.2,0.6c-1.2,0-2.2-0.2-3.2-0.6c-1-0.4-1.8-0.9-2.5-1.6
				c-0.7-0.7-1.2-1.5-1.6-2.4C208.3,74.7,208.1,73.7,208.1,72.6z M212,72.6c0,0.6,0.1,1.1,0.3,1.6c0.2,0.5,0.5,0.9,0.9,1.2
				c0.4,0.4,0.8,0.6,1.3,0.8c0.5,0.2,1,0.3,1.5,0.3c0.5,0,1-0.1,1.5-0.3s0.9-0.5,1.3-0.8s0.7-0.8,0.9-1.2c0.2-0.5,0.3-1,0.3-1.6
				c0-0.6-0.1-1.1-0.3-1.6c-0.2-0.5-0.5-0.9-0.9-1.2s-0.8-0.6-1.3-0.8c-0.5-0.2-1-0.3-1.5-0.3c-0.5,0-1,0.1-1.5,0.3
				c-0.5,0.2-0.9,0.5-1.3,0.8c-0.4,0.4-0.7,0.8-0.9,1.2C212.1,71.5,212,72.1,212,72.6z"/>
			<path class="st1" d="M225.5,79.7l2.4-14.2h3.6l2.8,7.6l2.8-7.6h3.6l2.4,14.2h-3.7l-1.2-8.2l-3.3,8.2h-1.5l-3.2-8.2l-1.2,8.2H225.5
				z"/>
			<path class="st1" d="M249.2,65.5v14.2h-3.7V65.5H249.2z"/>
			<path class="st1" d="M259.9,69.1c-0.4-0.3-0.8-0.6-1.2-0.7c-0.4-0.2-0.8-0.2-1.2-0.2c-0.5,0-0.9,0.1-1.2,0.3
				c-0.3,0.2-0.5,0.5-0.5,0.9c0,0.3,0.1,0.5,0.2,0.6c0.1,0.2,0.3,0.3,0.6,0.4c0.2,0.1,0.5,0.2,0.8,0.3c0.3,0.1,0.6,0.2,0.9,0.3
				c1.2,0.4,2.1,0.9,2.6,1.6c0.6,0.7,0.8,1.6,0.8,2.6c0,0.7-0.1,1.4-0.4,2c-0.2,0.6-0.6,1.1-1.1,1.5c-0.5,0.4-1,0.7-1.7,1
				c-0.7,0.2-1.5,0.3-2.3,0.3c-1.8,0-3.4-0.5-5-1.6l1.6-3c0.6,0.5,1.1,0.9,1.6,1.1c0.5,0.2,1.1,0.4,1.6,0.4c0.6,0,1-0.1,1.3-0.4
				c0.3-0.3,0.4-0.6,0.4-0.9c0-0.2,0-0.4-0.1-0.6c-0.1-0.2-0.2-0.3-0.4-0.4c-0.2-0.1-0.4-0.3-0.7-0.4c-0.3-0.1-0.6-0.2-1-0.4
				c-0.5-0.2-0.9-0.3-1.4-0.5c-0.5-0.2-0.9-0.4-1.2-0.7c-0.4-0.3-0.6-0.7-0.9-1.1c-0.2-0.5-0.3-1-0.3-1.7c0-0.7,0.1-1.3,0.3-1.9
				c0.2-0.6,0.6-1.1,1-1.5c0.4-0.4,0.9-0.7,1.5-1c0.6-0.2,1.3-0.3,2-0.3c0.7,0,1.4,0.1,2.2,0.3c0.8,0.2,1.5,0.5,2.2,0.9L259.9,69.1z"
				/>
			<path class="st1" d="M268,65.5v14.2h-3.7V65.5H268z"/>
			<path class="st1" d="M270.3,72.6c0-1.1,0.2-2,0.6-3c0.4-0.9,0.9-1.7,1.6-2.4c0.7-0.7,1.5-1.2,2.5-1.6c1-0.4,2-0.6,3.2-0.6
				c1.1,0,2.2,0.2,3.2,0.6c1,0.4,1.8,0.9,2.5,1.6c0.7,0.7,1.2,1.5,1.6,2.4c0.4,0.9,0.6,1.9,0.6,3c0,1.1-0.2,2-0.6,3
				c-0.4,0.9-0.9,1.7-1.6,2.4c-0.7,0.7-1.5,1.2-2.5,1.6c-1,0.4-2,0.6-3.2,0.6c-1.2,0-2.2-0.2-3.2-0.6c-1-0.4-1.8-0.9-2.5-1.6
				c-0.7-0.7-1.2-1.5-1.6-2.4C270.5,74.7,270.3,73.7,270.3,72.6z M274.1,72.6c0,0.6,0.1,1.1,0.3,1.6c0.2,0.5,0.5,0.9,0.9,1.2
				s0.8,0.6,1.3,0.8c0.5,0.2,1,0.3,1.5,0.3c0.5,0,1-0.1,1.5-0.3s0.9-0.5,1.3-0.8s0.7-0.8,0.9-1.2c0.2-0.5,0.3-1,0.3-1.6
				c0-0.6-0.1-1.1-0.3-1.6c-0.2-0.5-0.5-0.9-0.9-1.2s-0.8-0.6-1.3-0.8c-0.5-0.2-1-0.3-1.5-0.3c-0.5,0-1,0.1-1.5,0.3
				c-0.5,0.2-0.9,0.5-1.3,0.8s-0.7,0.8-0.9,1.2C274.2,71.5,274.1,72.1,274.1,72.6z M281.5,61.9l-3.6,2.5l-1.4-1.3l3.1-2.9L281.5,61.9
				z"/>
			<path class="st1" d="M288.3,79.7V65.5h3.7l6.8,8.7v-8.7h3.7v14.2h-3.7L292,71v8.7H288.3z"/>
			<path class="st1" d="M311.8,65.5h5.4c1,0,1.9,0.2,2.7,0.6c0.8,0.4,1.6,0.9,2.2,1.6c0.6,0.6,1.1,1.4,1.5,2.3
				c0.4,0.9,0.5,1.8,0.5,2.7c0,0.9-0.2,1.8-0.5,2.7c-0.4,0.9-0.9,1.6-1.5,2.3c-0.6,0.7-1.4,1.2-2.2,1.6c-0.8,0.4-1.8,0.6-2.7,0.6
				h-5.4V65.5z M315.4,76.6h0.8c0.6,0,1.2-0.1,1.7-0.3c0.5-0.2,0.9-0.5,1.3-0.8c0.3-0.4,0.6-0.8,0.8-1.3c0.2-0.5,0.3-1,0.3-1.6
				c0-0.6-0.1-1.1-0.3-1.6c-0.2-0.5-0.5-0.9-0.8-1.3c-0.3-0.4-0.8-0.6-1.3-0.8c-0.5-0.2-1.1-0.3-1.7-0.3h-0.8V76.6z"/>
			<path class="st1" d="M334.6,68.6h-4.4V71h4.1v3.1h-4.1v2.5h4.4v3.1h-8V65.5h8V68.6z"/>
			<path class="st1" d="M347.3,65.5v11.1h4.4v3.1h-8.1V65.5H347.3z"/>
			<path class="st1" d="M362.8,77.3h-5.3l-0.8,2.5h-3.9l5.4-14.2h4l5.4,14.2h-3.9L362.8,77.3z M361.8,74.5l-1.7-4.7l-1.7,4.7H361.8z"
				/>
			<path class="st1" d="M377.1,65.5l3.4,8.7l3.4-8.7h4l-6,14.2h-2.9l-5.9-14.2H377.1z"/>
			<path class="st1" d="M397.5,68.6h-4.4V71h4.1v3.1h-4.1v2.5h4.4v3.1h-8V65.5h8V68.6z"/>
			<path class="st1" d="M411.9,79.7h-4.6l-3.5-5.5v5.5h-3.7V65.5h5.7c0.8,0,1.5,0.1,2.1,0.3c0.6,0.2,1.1,0.6,1.5,1
				c0.4,0.4,0.7,0.9,0.9,1.4c0.2,0.5,0.3,1.1,0.3,1.7c0,1.1-0.3,2-0.8,2.6c-0.5,0.7-1.3,1.1-2.3,1.4L411.9,79.7z M403.8,71.9h0.7
				c0.7,0,1.3-0.2,1.7-0.5c0.4-0.3,0.6-0.7,0.6-1.3c0-0.6-0.2-1-0.6-1.3c-0.4-0.3-0.9-0.5-1.7-0.5h-0.7V71.9z"/>
			<path class="st1" d="M413.5,65.5h5.4c1,0,1.9,0.2,2.7,0.6c0.8,0.4,1.6,0.9,2.2,1.6c0.6,0.6,1.1,1.4,1.5,2.3
				c0.4,0.9,0.5,1.8,0.5,2.7c0,0.9-0.2,1.8-0.5,2.7c-0.4,0.9-0.9,1.6-1.5,2.3c-0.6,0.7-1.4,1.2-2.2,1.6c-0.8,0.4-1.8,0.6-2.7,0.6
				h-5.4V65.5z M417.1,76.6h0.8c0.6,0,1.2-0.1,1.7-0.3c0.5-0.2,0.9-0.5,1.3-0.8c0.3-0.4,0.6-0.8,0.8-1.3c0.2-0.5,0.3-1,0.3-1.6
				c0-0.6-0.1-1.1-0.3-1.6c-0.2-0.5-0.5-0.9-0.8-1.3c-0.3-0.4-0.8-0.6-1.3-0.8c-0.5-0.2-1.1-0.3-1.7-0.3h-0.8V76.6z"/>
			<path class="st1" d="M436.3,77.3H431l-0.8,2.5h-3.9l5.4-14.2h4l5.4,14.2h-3.9L436.3,77.3z M435.3,74.5l-1.7-4.7l-1.7,4.7H435.3z"
				/>
			<path class="st1" d="M442.7,65.5h5.4c1,0,1.9,0.2,2.7,0.6c0.8,0.4,1.6,0.9,2.2,1.6c0.6,0.6,1.1,1.4,1.5,2.3
				c0.4,0.9,0.5,1.8,0.5,2.7c0,0.9-0.2,1.8-0.5,2.7c-0.4,0.9-0.9,1.6-1.5,2.3c-0.6,0.7-1.4,1.2-2.2,1.6c-0.8,0.4-1.8,0.6-2.7,0.6
				h-5.4V65.5z M446.3,76.6h0.8c0.6,0,1.2-0.1,1.7-0.3c0.5-0.2,0.9-0.5,1.3-0.8c0.3-0.4,0.6-0.8,0.8-1.3c0.2-0.5,0.3-1,0.3-1.6
				c0-0.6-0.1-1.1-0.3-1.6c-0.2-0.5-0.5-0.9-0.8-1.3c-0.3-0.4-0.8-0.6-1.3-0.8c-0.5-0.2-1.1-0.3-1.7-0.3h-0.8V76.6z"/>
		</g>
		<path class="st1" d="M185.9,58.4v25.1c0,0.1-0.1,0.2-0.3,0.2h-1.9c-0.2,0-0.3-0.1-0.3-0.2V58.4c0-0.1,0.1-0.2,0.3-0.2h1.9
			C185.8,58.2,185.9,58.3,185.9,58.4"/>
		<g>
			<path class="st0" d="M97.7,40h6.7v-6.8h4.6v17.7h-4.6v-7.3h-6.7v7.3h-4.6V33.1h4.6V40z"/>
			<path class="st0" d="M123.1,47.8h-6.6l-1.1,3.1h-4.9l6.7-17.7h5l6.7,17.7h-4.9L123.1,47.8z M121.9,44.3l-2.1-5.9l-2.1,5.9H121.9z"
				/>
			<path class="st0" d="M133.2,42.4l-6.5-9.2h5.5l3.3,4.8l3.3-4.8h5.5l-6.5,9.2v8.5h-4.6V42.4z"/>
			<path class="st0" d="M163.1,37h-5.5v3h5.1v3.9h-5.1v7H153V33.1h10.2V37z"/>
			<path class="st0" d="M170,33.1v9.6c0,0.5,0,1,0.1,1.6c0,0.5,0.2,1,0.4,1.5c0.2,0.4,0.5,0.8,0.9,1.1c0.4,0.3,1,0.4,1.8,0.4
				c0.8,0,1.4-0.1,1.8-0.4c0.4-0.3,0.7-0.6,0.9-1.1c0.2-0.4,0.3-0.9,0.4-1.5c0-0.5,0.1-1.1,0.1-1.6v-9.6h4.6v10.3
				c0,2.8-0.6,4.8-1.9,6s-3.2,1.9-5.8,1.9c-2.6,0-4.6-0.6-5.8-1.9s-1.9-3.3-1.9-6V33.1H170z"/>
			<path class="st0" d="M190.8,37v13.8h-4.6V37h-3.8v-3.9h12.2V37H190.8z"/>
			<path class="st0" d="M200.8,33.1v9.6c0,0.5,0,1,0.1,1.6c0,0.5,0.2,1,0.4,1.5c0.2,0.4,0.5,0.8,0.9,1.1c0.4,0.3,1,0.4,1.8,0.4
				c0.8,0,1.4-0.1,1.8-0.4c0.4-0.3,0.7-0.6,0.9-1.1c0.2-0.4,0.3-0.9,0.4-1.5c0-0.5,0.1-1.1,0.1-1.6v-9.6h4.6v10.3
				c0,2.8-0.6,4.8-1.9,6s-3.2,1.9-5.8,1.9c-2.6,0-4.6-0.6-5.8-1.9s-1.9-3.3-1.9-6V33.1H200.8z"/>
			<path class="st0" d="M229.6,50.9h-5.7l-4.4-6.8v6.8h-4.6V33.1h7.2c1,0,1.8,0.1,2.6,0.4c0.7,0.3,1.3,0.7,1.8,1.2
				c0.5,0.5,0.8,1.1,1.1,1.7c0.2,0.7,0.4,1.4,0.4,2.1c0,1.3-0.3,2.4-1,3.3c-0.7,0.8-1.6,1.4-2.9,1.7L229.6,50.9z M219.5,41.1h0.9
				c0.9,0,1.6-0.2,2.1-0.6c0.5-0.4,0.7-0.9,0.7-1.6s-0.2-1.2-0.7-1.6c-0.5-0.4-1.2-0.6-2.1-0.6h-0.9V41.1z"/>
			<path class="st0" d="M229.9,42c0-1.3,0.2-2.5,0.7-3.7c0.5-1.1,1.2-2.1,2-3c0.9-0.8,1.9-1.5,3.1-2c1.2-0.5,2.5-0.7,4-0.7
				c1.4,0,2.7,0.2,3.9,0.7c1.2,0.5,2.2,1.1,3.1,2c0.9,0.8,1.5,1.8,2,3c0.5,1.1,0.7,2.4,0.7,3.7c0,1.3-0.2,2.5-0.7,3.7
				c-0.5,1.1-1.2,2.1-2,3c-0.9,0.8-1.9,1.5-3.1,2c-1.2,0.5-2.5,0.7-3.9,0.7c-1.4,0-2.8-0.2-4-0.7c-1.2-0.5-2.2-1.1-3.1-2
				c-0.9-0.8-1.5-1.8-2-3C230.2,44.5,229.9,43.3,229.9,42z M234.8,42c0,0.7,0.1,1.4,0.4,2c0.3,0.6,0.6,1.1,1.1,1.6
				c0.5,0.4,1,0.8,1.6,1c0.6,0.2,1.2,0.4,1.9,0.4c0.7,0,1.3-0.1,1.9-0.4c0.6-0.2,1.1-0.6,1.6-1c0.5-0.4,0.8-1,1.1-1.6
				c0.3-0.6,0.4-1.2,0.4-2s-0.1-1.4-0.4-2c-0.3-0.6-0.6-1.1-1.1-1.6c-0.5-0.4-1-0.8-1.6-1c-0.6-0.2-1.2-0.4-1.9-0.4
				c-0.7,0-1.3,0.1-1.9,0.4c-0.6,0.2-1.1,0.6-1.6,1c-0.5,0.4-0.8,1-1.1,1.6C234.9,40.6,234.8,41.3,234.8,42z"/>
			<path class="st0" d="M252.9,46.4h4l-4.3,7.8h-2.7L252.9,46.4z"/>
			<path class="st0" d="M276.8,37.7c-0.5-0.4-1-0.7-1.5-0.9c-0.5-0.2-1-0.3-1.5-0.3c-0.6,0-1.1,0.1-1.5,0.4s-0.6,0.7-0.6,1.1
				c0,0.3,0.1,0.6,0.3,0.8c0.2,0.2,0.4,0.4,0.7,0.5c0.3,0.1,0.6,0.3,1,0.4c0.4,0.1,0.8,0.2,1.1,0.4c1.5,0.5,2.6,1.2,3.3,2
				c0.7,0.8,1,1.9,1,3.3c0,0.9-0.2,1.7-0.5,2.5c-0.3,0.7-0.8,1.4-1.3,1.9c-0.6,0.5-1.3,0.9-2.2,1.2s-1.8,0.4-2.9,0.4
				c-2.2,0-4.3-0.7-6.2-2l2-3.7c0.7,0.6,1.4,1.1,2,1.4c0.7,0.3,1.3,0.4,2,0.4c0.8,0,1.3-0.2,1.7-0.5s0.6-0.7,0.6-1.2
				c0-0.3,0-0.5-0.1-0.7c-0.1-0.2-0.3-0.4-0.5-0.5c-0.2-0.2-0.5-0.3-0.9-0.5s-0.8-0.3-1.3-0.5c-0.6-0.2-1.2-0.4-1.8-0.6
				c-0.6-0.2-1.1-0.5-1.5-0.9c-0.4-0.4-0.8-0.8-1.1-1.4c-0.3-0.6-0.4-1.3-0.4-2.2c0-0.9,0.1-1.7,0.4-2.4s0.7-1.3,1.2-1.8
				c0.5-0.5,1.2-0.9,1.9-1.2c0.8-0.3,1.6-0.4,2.5-0.4c0.9,0,1.8,0.1,2.8,0.4c1,0.2,1.9,0.6,2.7,1.1L276.8,37.7z"/>
			<path class="st0" d="M286.4,33.1v17.7h-4.6V33.1H286.4z"/>
			<path class="st0" d="M301.7,40h6.7v-6.8h4.6v17.7h-4.6v-7.3h-6.7v7.3h-4.6V33.1h4.6V40z"/>
			<path class="st0" d="M327.1,47.8h-6.6l-1.1,3.1h-4.9l6.7-17.7h5l6.7,17.7h-4.9L327.1,47.8z M325.9,44.3l-2.1-5.9l-2.1,5.9H325.9z"
				/>
			<path class="st0" d="M337.2,42.4l-6.5-9.2h5.5l3.3,4.8l3.3-4.8h5.5l-6.5,9.2v8.5h-4.6V42.4z"/>
			<path class="st0" d="M360.1,33.1l4.3,10.8l4.3-10.8h5l-7.5,17.7h-3.7l-7.4-17.7H360.1z"/>
			<path class="st0" d="M385.2,37h-5.5v3h5.2v3.9h-5.2V47h5.5v3.9h-10.1V33.1h10.1V37z"/>
			<path class="st0" d="M402.8,50.9H397l-4.4-6.8v6.8H388V33.1h7.2c1,0,1.8,0.1,2.6,0.4c0.7,0.3,1.3,0.7,1.8,1.2
				c0.5,0.5,0.8,1.1,1.1,1.7c0.2,0.7,0.4,1.4,0.4,2.1c0,1.3-0.3,2.4-1,3.3s-1.6,1.4-2.9,1.7L402.8,50.9z M392.6,41.1h0.9
				c0.9,0,1.6-0.2,2.1-0.6c0.5-0.4,0.7-0.9,0.7-1.6s-0.2-1.2-0.7-1.6c-0.5-0.4-1.2-0.6-2.1-0.6h-0.9V41.1z"/>
			<path class="st0" d="M404.2,33.1h6.8c1.2,0,2.3,0.2,3.4,0.7c1.1,0.5,2,1.1,2.8,1.9c0.8,0.8,1.4,1.7,1.9,2.8
				c0.5,1.1,0.7,2.2,0.7,3.4c0,1.2-0.2,2.3-0.7,3.3s-1.1,2-1.9,2.8c-0.8,0.8-1.7,1.5-2.8,2s-2.2,0.7-3.4,0.7h-6.8V33.1z M408.8,47
				h1.1c0.8,0,1.5-0.1,2.1-0.4c0.6-0.2,1.2-0.6,1.6-1c0.4-0.4,0.8-1,1-1.6s0.3-1.3,0.3-2c0-0.7-0.1-1.4-0.4-2c-0.2-0.6-0.6-1.1-1-1.6
				c-0.4-0.4-1-0.8-1.6-1c-0.6-0.2-1.3-0.4-2.1-0.4h-1.1V47z"/>
			<path class="st0" d="M432.3,47.8h-6.6l-1.1,3.1h-4.9l6.7-17.7h5l6.7,17.7h-4.9L432.3,47.8z M431.1,44.3l-2.1-5.9l-2.1,5.9H431.1z"
				/>
			<path class="st0" d="M439.8,33.1h6.8c1.2,0,2.3,0.2,3.4,0.7c1.1,0.5,2,1.1,2.8,1.9c0.8,0.8,1.4,1.7,1.9,2.8
				c0.5,1.1,0.7,2.2,0.7,3.4c0,1.2-0.2,2.3-0.7,3.3s-1.1,2-1.9,2.8c-0.8,0.8-1.7,1.5-2.8,2s-2.2,0.7-3.4,0.7h-6.8V33.1z M444.5,47
				h1.1c0.8,0,1.5-0.1,2.1-0.4c0.6-0.2,1.2-0.6,1.6-1c0.4-0.4,0.8-1,1-1.6s0.3-1.3,0.3-2c0-0.7-0.1-1.4-0.4-2c-0.2-0.6-0.6-1.1-1-1.6
				c-0.4-0.4-1-0.8-1.6-1c-0.6-0.2-1.3-0.4-2.1-0.4h-1.1V47z"/>
		</g>
	</g>
</svg>
