<?xml version="1.0" encoding="utf-8"?>
<!-- Generator: Adobe Illustrator 26.2.1, SVG Export Plug-In . SVG Version: 6.00 Build 0)  -->
<svg version="1.1" id="Capa_1" xmlns="http://www.w3.org/2000/svg" xmlns:xlink="http://www.w3.org/1999/xlink" x="0px" y="0px"
	 viewBox="0 0 1200 500" style="enable-background:new 0 0 1200 500;" xml:space="preserve">
<style type="text/css">
	.st0{fill-rule:evenodd;clip-rule:evenodd;stroke:#1D1D1B;stroke-width:5;stroke-miterlimit:10;}
	.st1{fill:#A3BE33;}
	.st2{fill:#EC645D;}
	.st3{fill:#F7A942;}
	.st4{fill:#293172;}
	.st5{fill-rule:evenodd;clip-rule:evenodd;}
</style>
<line class="st0" x1="0" y1="283.4" x2="1200" y2="286.4"/>
<g>
	<g>
		<path class="st1" d="M508.8,268.4l1.7-3.7l-8.9-4.2l-1.5,3.3l-2.9-1.4c0.5-2.1,0.6-3.6,0.4-5.3l1.6-3.4l13.5,6.3l1.5-3.1l3.7,1.8
			l-5.4,11.5L508.8,268.4z"/>
		<path class="st1" d="M517.4,255.1l-1.6-3.7c0.9-0.3,2-1.1,2.4-2c0.9-1.8,0.2-3.8-4-5.8c-4.3-2-5.8-1.1-6.3,0c-0.5,1-0.3,2.1,1.5,3
			c1.7,0.8,2.5,0,3-0.9c0.4-0.8,0.3-1.9-0.6-3l3,1.2c0.9,1.4,0.8,3.3,0.3,4.3c-1.4,2.9-4.1,4.4-7.8,2.7c-3.7-1.7-4.6-5.5-3-8.7
			c1.6-3.3,5.6-5.6,11.8-2.7c6.2,2.9,7.6,7.8,5.9,11.5C521,253.2,519.1,254.5,517.4,255.1z"/>
		<path class="st1" d="M516.5,227.3l-3.5,7.4l-3.9-1.8l5.8-12.3l2.9,1.4c2.8,6.1,5.6,8,12.1,11.5l-2.2,4.7
			C522.5,235.1,519.4,232.6,516.5,227.3z"/>
		<path class="st1" d="M529,224c-2-0.9-2.6-2.7-2.7-4.7l-0.1-0.1c-1.7,0.9-3.4,1.2-5.1,0.4c-3-1.4-3.8-4.7-2.2-8.1
			c1.5-3.2,4.4-4.5,7.3-3.1c1.6,0.7,2.4,2.3,2.6,3.9l0.1,0.1c1.7-1.3,3.6-1.9,5.9-0.8c2.8,1.3,3.6,4.8,1.9,8.6
			C534.9,223.6,531.8,225.3,529,224z M524.7,212.3c-1.2-0.6-2.2-0.2-2.7,0.8c-0.4,0.8-0.3,1.8,0.9,2.4c1.1,0.5,2.2-0.1,3.6-1.4
			C526,213.2,525.4,212.6,524.7,212.3z M532.5,215.7c-1.2-0.6-2.3,0.4-4.1,2c0.4,0.8,1,1.6,1.9,2c1.4,0.6,2.6-0.1,3.1-1.3
			C533.9,217.4,533.8,216.4,532.5,215.7z"/>
		<path class="st1" d="M534.6,201.4l3.2-6.8l3.3,1.5l-3.2,6.8L534.6,201.4z"/>
		<path class="st1" d="M544.1,193.5l1.7-3.7l-8.9-4.2l-1.5,3.3l-2.9-1.4c0.5-2.1,0.6-3.6,0.4-5.3l1.6-3.4l13.5,6.3l1.5-3.1l3.7,1.8
			l-5.4,11.5L544.1,193.5z"/>
		<path class="st1" d="M552.7,180.2l-1.6-3.7c0.9-0.3,2-1.1,2.4-2c0.9-1.8,0.2-3.8-4-5.8c-4.3-2-5.8-1.1-6.3,0c-0.5,1-0.3,2.1,1.5,3
			c1.7,0.8,2.5,0,3-0.9c0.4-0.8,0.3-1.9-0.6-3l3,1.2c0.9,1.4,0.8,3.3,0.3,4.3c-1.4,2.9-4.1,4.4-7.8,2.7s-4.6-5.5-3-8.7
			c1.6-3.3,5.6-5.6,11.8-2.7c6.2,2.9,7.6,7.8,5.9,11.5C556.3,178.3,554.4,179.6,552.7,180.2z"/>
		<path class="st1" d="M559.8,165.3l-1.6-3.7c0.9-0.3,2-1.1,2.4-2c0.9-1.8,0.2-3.8-4-5.8c-4.3-2-5.8-1.1-6.3,0c-0.5,1-0.3,2.1,1.5,3
			c1.7,0.8,2.5,0,3-0.9c0.4-0.8,0.3-1.9-0.6-3l3,1.2c0.9,1.4,0.8,3.3,0.3,4.3c-1.4,2.9-4.1,4.4-7.8,2.7s-4.6-5.5-3-8.7
			c1.6-3.3,5.6-5.6,11.8-2.7c6.2,2.9,7.6,7.8,5.9,11.5C563.3,163.4,561.4,164.7,559.8,165.3z"/>
		<path class="st1" d="M559.9,147.3c-5.9-2.8-7.6-6.8-5.8-10.6s6-5,11.9-2.2c5.9,2.8,7.8,6.9,6,10.7S565.8,150.1,559.9,147.3z
			 M563.8,138.9c-4.6-2.1-5.7-1.6-6.2-0.5c-0.5,1.1-0.2,2.3,4.3,4.5c4.6,2.1,5.9,1.6,6.4,0.6C568.8,142.3,568.4,141,563.8,138.9z"/>
	</g>
</g>
<g>
	<g>
		<path class="st2" d="M300.2,271.3l1.7-3.7l-8.9-4.2l-1.5,3.3l-2.9-1.4c0.5-2.1,0.6-3.6,0.4-5.3l1.6-3.4l13.5,6.3l1.5-3.1l3.7,1.8
			l-5.4,11.5L300.2,271.3z"/>
		<path class="st2" d="M308.8,257.9l-1.6-3.7c0.9-0.3,2-1.1,2.4-2c0.9-1.8,0.2-3.8-4-5.8c-4.3-2-5.8-1.1-6.3,0c-0.5,1-0.3,2.1,1.5,3
			c1.7,0.8,2.5,0,3-0.9c0.4-0.8,0.3-1.9-0.6-3l3,1.2c0.9,1.4,0.8,3.3,0.3,4.3c-1.4,2.9-4.1,4.4-7.8,2.7s-4.6-5.5-3-8.7
			c1.6-3.3,5.6-5.6,11.8-2.7c6.2,2.9,7.6,7.8,5.9,11.5C312.3,256,310.5,257.3,308.8,257.9z"/>
		<path class="st2" d="M315.3,243.4l-2-3.4c1.4-0.6,2.7-1.5,3.3-2.7c0.8-1.6,0.5-2.9-1-3.6c-1.5-0.7-2.7-0.1-3.3,1.3
			c-0.4,0.9-0.5,1.4-0.3,2.8l-2.2,1.4l-8.6-4.6l4.8-10.2l3.9,1.8l-2.9,6.2l2.4,1.4c0.1-0.7,0.2-1.2,0.5-1.8c1.4-3,4.3-4.7,7.9-3
			c3.9,1.8,4.7,5.9,3,9.4C319.4,241.1,317.4,242.6,315.3,243.4z"/>
		<path class="st2" d="M320.3,226.8c-2-0.9-2.6-2.7-2.7-4.7l-0.1-0.1c-1.7,0.9-3.4,1.2-5.1,0.4c-3-1.4-3.8-4.7-2.2-8.1
			c1.5-3.2,4.4-4.5,7.3-3.1c1.6,0.7,2.4,2.3,2.6,3.9l0.1,0.1c1.7-1.3,3.6-1.9,5.9-0.8c2.8,1.3,3.6,4.8,1.9,8.6
			C326.3,226.4,323.2,228.2,320.3,226.8z M316,215.1c-1.2-0.6-2.2-0.2-2.7,0.8c-0.4,0.8-0.3,1.8,0.9,2.4c1.1,0.5,2.2-0.1,3.6-1.4
			C317.4,216.1,316.8,215.5,316,215.1z M323.9,218.6c-1.2-0.6-2.3,0.4-4.1,2c0.4,0.8,1,1.6,1.9,2c1.4,0.6,2.6-0.1,3.1-1.3
			C325.3,220.3,325.2,219.2,323.9,218.6z"/>
		<path class="st2" d="M326,204.2l3.2-6.8l3.3,1.5l-3.2,6.8L326,204.2z"/>
		<path class="st2" d="M338.2,190.7l1.7-3.7l-8.9-4.2l-1.5,3.3l-2.9-1.4c0.5-2.1,0.6-3.6,0.4-5.3l1.6-3.4l13.5,6.3l1.5-3.1l3.7,1.8
			l-5.4,11.5L338.2,190.7z"/>
		<path class="st2" d="M346.8,177.3l-1.6-3.7c0.9-0.3,2-1.1,2.4-2c0.9-1.8,0.2-3.8-4-5.8c-4.3-2-5.8-1.1-6.3,0c-0.5,1-0.3,2.1,1.5,3
			c1.7,0.8,2.5,0,3-0.9c0.4-0.8,0.3-1.9-0.6-3l3,1.2c0.9,1.4,0.8,3.3,0.3,4.3c-1.4,2.9-4.1,4.4-7.8,2.7s-4.6-5.5-3-8.7
			c1.6-3.3,5.6-5.6,11.8-2.7c6.2,2.9,7.6,7.8,5.9,11.5C350.3,175.4,348.5,176.7,346.8,177.3z"/>
		<path class="st2" d="M345.9,149.5l-3.5,7.4l-3.9-1.8l5.8-12.3l2.9,1.4c2.8,6.1,5.6,8,12.1,11.5l-2.2,4.7
			C351.8,157.4,348.8,154.8,345.9,149.5z"/>
		<path class="st2" d="M352.9,134.6l-3.5,7.4l-3.9-1.8l5.8-12.3l2.9,1.4c2.8,6.1,5.6,8,12.1,11.5l-2.2,4.7
			C358.9,142.4,355.8,139.9,352.9,134.6z"/>
	</g>
</g>
<g>
	<g>
		<path class="st3" d="M705.4,271.3l1.7-3.7l-8.9-4.2l-1.5,3.3l-2.9-1.4c0.5-2.1,0.6-3.6,0.4-5.3l1.6-3.4l13.5,6.3l1.5-3.1l3.7,1.8
			l-5.4,11.5L705.4,271.3z"/>
		<path class="st3" d="M714,257.9l-1.6-3.7c0.9-0.3,2-1.1,2.4-2c0.9-1.8,0.2-3.8-4-5.8c-4.3-2-5.8-1.1-6.3,0c-0.5,1-0.3,2.1,1.5,3
			c1.7,0.8,2.5,0,3-0.9c0.4-0.8,0.3-1.9-0.6-3l3,1.2c0.9,1.4,0.8,3.3,0.3,4.3c-1.4,2.9-4.1,4.4-7.8,2.7s-4.6-5.5-3-8.7
			c1.6-3.3,5.6-5.6,11.8-2.7c6.2,2.9,7.6,7.8,5.9,11.5C717.5,256,715.7,257.3,714,257.9z"/>
		<path class="st3" d="M721,243l-1.6-3.7c0.9-0.3,2-1.1,2.4-2c0.9-1.8,0.2-3.8-4-5.8c-4.3-2-5.8-1.1-6.3,0c-0.5,1-0.3,2.1,1.5,3
			c1.7,0.8,2.5,0,3-0.9c0.4-0.8,0.3-1.9-0.6-3l3,1.2c0.9,1.4,0.8,3.3,0.3,4.3c-1.4,2.9-4.1,4.4-7.8,2.7s-4.6-5.5-3-8.7
			c1.6-3.3,5.6-5.6,11.8-2.7c6.2,2.9,7.6,7.8,5.9,11.5C724.6,241.1,722.7,242.4,721,243z"/>
		<path class="st3" d="M726.5,226.5l1.7-3.7l-8.9-4.2l-1.5,3.3l-2.9-1.4c0.5-2.1,0.6-3.6,0.4-5.3l1.6-3.4l13.5,6.3l1.5-3.1l3.7,1.8
			l-5.4,11.5L726.5,226.5z"/>
		<path class="st3" d="M731.1,204.2l3.2-6.8l3.3,1.5l-3.2,6.8L731.1,204.2z"/>
		<path class="st3" d="M744.1,192c-1.8-5.8-3.2-10.3-5.6-11.4c-1.5-0.7-2.7-0.2-3.3,1c-0.5,1.1-0.1,2.4,0.3,3.6l-3.7,1.3
			c-1.1-2.7-1.2-4.7,0-7.3c1.6-3.5,5-4.9,8.4-3.3c2.8,1.3,4.6,5.3,5.9,8.8c0.3-0.9,0.8-2.2,1.1-3l1.4-2.9l3.9,1.8l-5.9,12.5
			L744.1,192z"/>
		<path class="st3" d="M745,174.3c-5.9-2.8-7.6-6.8-5.8-10.6c1.8-3.8,6-5,11.9-2.2c5.9,2.8,7.8,6.9,6,10.7
			C755.3,175.9,750.9,177.1,745,174.3z M749,165.9c-4.6-2.1-5.7-1.6-6.2-0.5c-0.5,1.1-0.2,2.3,4.3,4.5c4.6,2.1,5.9,1.6,6.4,0.6
			C754,169.4,753.6,168,749,165.9z"/>
		<path class="st3" d="M752.1,159.4c-5.9-2.8-7.6-6.8-5.8-10.6c1.8-3.8,6-5,11.9-2.2c5.9,2.8,7.8,6.9,6,10.7
			C762.3,161,758,162.1,752.1,159.4z M756,150.9c-4.6-2.1-5.7-1.6-6.2-0.5s-0.2,2.3,4.3,4.5c4.6,2.1,5.9,1.6,6.4,0.6
			S760.6,153.1,756,150.9z"/>
		<path class="st3" d="M765.2,147.2c-1.8-5.8-3.2-10.3-5.6-11.4c-1.5-0.7-2.7-0.2-3.3,1c-0.5,1.1-0.1,2.4,0.3,3.6l-3.7,1.3
			c-1.1-2.7-1.2-4.7,0-7.3c1.6-3.5,5-4.9,8.4-3.3c2.8,1.3,4.6,5.3,5.9,8.8c0.3-0.9,0.8-2.2,1.1-3l1.4-2.9l3.9,1.8l-5.9,12.5
			L765.2,147.2z"/>
	</g>
</g>
<g>
	<g>
		<path class="st4" d="M905.5,272.6c-1.8-5.8-3.2-10.3-5.6-11.4c-1.5-0.7-2.7-0.2-3.3,1c-0.5,1.1-0.1,2.4,0.3,3.6l-3.7,1.3
			c-1.1-2.7-1.2-4.7,0-7.3c1.6-3.5,5-4.9,8.4-3.3c2.8,1.3,4.6,5.3,5.9,8.8c0.3-0.9,0.8-2.2,1.1-3l1.4-2.9l3.9,1.8l-5.9,12.5
			L905.5,272.6z"/>
		<path class="st4" d="M906.5,254.9c-5.9-2.8-7.6-6.8-5.8-10.6c1.8-3.8,6-5,11.9-2.2c5.9,2.8,7.8,6.9,6,10.7
			C916.7,256.5,912.3,257.7,906.5,254.9z M910.4,246.5c-4.6-2.1-5.7-1.6-6.2-0.5c-0.5,1.1-0.2,2.3,4.3,4.5c4.6,2.1,5.9,1.6,6.4,0.5
			C915.4,249.9,915,248.6,910.4,246.5z"/>
		<path class="st4" d="M913.5,240c-5.9-2.8-7.6-6.8-5.8-10.6c1.8-3.8,6-5,11.9-2.2c5.9,2.8,7.8,6.9,6,10.7
			C923.7,241.6,919.4,242.7,913.5,240z M917.4,231.5c-4.6-2.1-5.7-1.6-6.2-0.5c-0.5,1.1-0.2,2.3,4.3,4.5c4.6,2.1,5.9,1.6,6.4,0.6
			C922.4,235,922,233.7,917.4,231.5z"/>
		<path class="st4" d="M926.9,228.5L925,225c1.5-0.6,2.7-1.5,3.3-2.8c0.7-1.5,0.6-2.8-0.5-3.3c-1.3-0.6-2.4-0.3-4.1,3.3l-3.3-1.5
			c1.4-2.9,1-4.1-0.2-4.7c-1-0.5-1.9-0.1-2.4,1c-0.5,1.1-0.4,2.2,0,3.7l-3.9,1c-0.6-2.3-0.6-4.5,0.4-6.6c1.8-3.8,4.7-5.4,7.8-4
			c1.7,0.8,2.5,2.3,2.4,4.5l0.1,0.1c1.5-1.7,3.5-2.4,5.7-1.4c3.3,1.5,3.6,5.5,1.9,9.1C930.9,226.3,929,227.9,926.9,228.5z"/>
		<path class="st4" d="M930.5,204.2l3.2-6.8l3.3,1.5l-3.2,6.8L930.5,204.2z"/>
		<path class="st4" d="M943.5,192c-1.8-5.8-3.2-10.3-5.6-11.4c-1.5-0.7-2.7-0.2-3.3,1c-0.5,1.1-0.1,2.4,0.3,3.6l-3.7,1.3
			c-1.1-2.7-1.2-4.7,0-7.3c1.6-3.5,5-4.9,8.4-3.3c2.8,1.3,4.6,5.3,5.9,8.8c0.3-0.9,0.8-2.2,1.1-3l1.4-2.9l3.9,1.8l-5.9,12.5
			L943.5,192z"/>
		<path class="st4" d="M944.4,174.3c-5.9-2.8-7.6-6.8-5.8-10.6c1.8-3.8,6-5,11.9-2.2c5.9,2.8,7.8,6.9,6,10.7
			C954.7,175.9,950.3,177.1,944.4,174.3z M948.4,165.9c-4.6-2.1-5.7-1.6-6.2-0.5c-0.5,1.1-0.2,2.3,4.3,4.5c4.6,2.1,5.9,1.6,6.4,0.6
			C953.4,169.4,953,168,948.4,165.9z"/>
		<path class="st4" d="M956.8,160.8l1.7-3.7l-8.9-4.2l-1.5,3.3l-2.9-1.4c0.5-2.1,0.6-3.6,0.4-5.3l1.6-3.4l13.5,6.3l1.5-3.1l3.7,1.8
			l-5.4,11.5L956.8,160.8z"/>
		<path class="st4" d="M958.9,144.5c-6.2-2.9-7.6-7.8-5.9-11.5c1.2-2.4,3-3.7,4.7-4.4l1.6,3.7c-0.9,0.3-2,1.1-2.4,2
			c-0.9,1.8-0.2,3.8,4,5.8c4.3,2,5.8,1.1,6.3,0c0.5-1,0.3-2.1-1.5-3c-1.7-0.8-2.5,0-3,0.9c-0.4,0.8-0.3,1.9,0.6,3l-3-1.2
			c-0.9-1.4-0.8-3.3-0.3-4.3c1.4-2.9,4.1-4.4,7.8-2.7c3.7,1.7,4.6,5.5,3,8.7C969.2,145.2,965.2,147.4,958.9,144.5z"/>
	</g>
</g>
<g>
	<g>
		<path class="st4" d="M63.9,41.3h6.7c4,0,7.4,1.5,7.4,6c0,4.5-3.5,6.4-7.3,6.4h-2v5.8h-4.8V41.3z M70.4,50c1.9,0,2.8-1,2.8-2.6
			s-1.1-2.2-2.9-2.2h-1.6V50H70.4z"/>
		<path class="st4" d="M84.4,41.3h5.8l5.5,18.2h-5.1l-2.1-8.8c-0.4-1.7-0.9-3.9-1.3-5.8h-0.1c-0.4,1.8-0.8,4-1.3,5.8l-2.1,8.8h-4.9
			L84.4,41.3z M82.9,52h8.9v3.7h-8.9V52z"/>
		<path class="st4" d="M97.8,41.3h6.9c3.9,0,7.3,1.3,7.3,5.9c0,4.4-3.4,6.2-7.3,6.2h-2.1v6.1h-4.8V41.3z M104.4,49.6
			c1.9,0,2.9-0.8,2.9-2.4c0-1.6-1-2.1-2.9-2.1h-1.7v4.5H104.4z M103.8,52.2l3.2-3.2l5.9,10.6h-5.4L103.8,52.2z"/>
		<path class="st4" d="M119.2,45.4h-4.8v-4h14.4v4H124v14.2h-4.8V45.4z"/>
		<path class="st4" d="M131.8,41.3h4.8v18.2h-4.8V41.3z"/>
		<path class="st4" d="M140.1,50.6c0-6.1,4.2-9.6,8.8-9.6c2.4,0,4.4,1.1,5.7,2.4l-2.5,3.1c-0.9-0.8-1.8-1.3-3-1.3c-2.1,0-4,2-4,5.3
			c0,3.4,1.6,5.3,3.9,5.3c1.4,0,2.5-0.7,3.3-1.6l2.5,3c-1.5,1.8-3.6,2.7-6,2.7C144.2,59.9,140.1,56.8,140.1,50.6z"/>
		<path class="st4" d="M157.5,50.8v-9.4h4.8v10c0,3.2,0.8,4.4,2.7,4.4c1.9,0,2.8-1.2,2.8-4.4v-10h4.6v9.4c0,6.2-2.4,9.1-7.4,9.1
			C160,59.9,157.5,57,157.5,50.8z"/>
		<path class="st4" d="M176.7,41.3h4.8v14.2h6.9v4h-11.7V41.3z"/>
		<path class="st4" d="M195.1,41.3h5.8l5.5,18.2h-5.1l-2.1-8.8c-0.4-1.7-0.9-3.9-1.3-5.8h-0.1c-0.4,1.8-0.8,4-1.3,5.8l-2.1,8.8h-4.9
			L195.1,41.3z M193.5,52h8.9v3.7h-8.9V52z"/>
		<path class="st4" d="M208.5,41.3h6.9c3.9,0,7.3,1.3,7.3,5.9c0,4.4-3.4,6.2-7.3,6.2h-2.1v6.1h-4.8V41.3z M215,49.6
			c1.9,0,2.9-0.8,2.9-2.4c0-1.6-1-2.1-2.9-2.1h-1.7v4.5H215z M214.5,52.2l3.2-3.2l5.9,10.6h-5.4L214.5,52.2z"/>
		<path class="st4" d="M226.4,41.3h4.8v18.2h-4.8V41.3z"/>
		<path class="st4" d="M235.5,41.3h5.4c5.5,0,9.4,2.6,9.4,9c0,6.4-3.8,9.2-9.1,9.2h-5.7V41.3z M240.6,55.7c2.6,0,4.7-1.1,4.7-5.3
			c0-4.3-2.1-5.2-4.7-5.2h-0.3v10.5H240.6z"/>
		<path class="st4" d="M257,41.3h5.8l5.5,18.2h-5.1l-2.1-8.8c-0.4-1.7-0.9-3.9-1.3-5.8h-0.1c-0.4,1.8-0.8,4-1.3,5.8l-2.1,8.8h-4.9
			L257,41.3z M255.4,52h8.9v3.7h-8.9V52z"/>
		<path class="st4" d="M270.4,41.3h5.4c5.5,0,9.4,2.6,9.4,9c0,6.4-3.8,9.2-9.1,9.2h-5.7V41.3z M275.5,55.7c2.6,0,4.7-1.1,4.7-5.3
			c0-4.3-2.1-5.2-4.7-5.2h-0.3v10.5H275.5z"/>
		<path class="st4" d="M288.7,41.3h11.8v4h-6.9v2.9h5.9v4h-5.9v3.2h7.2v4h-12V41.3z"/>
		<path class="st4" d="M303.4,57.3l2.7-3.3c1.3,1,2.9,1.8,4.3,1.8c1.5,0,2.1-0.5,2.1-1.3c0-0.9-0.9-1.1-2.5-1.8l-2.3-1
			c-2-0.8-3.7-2.4-3.7-5.1c0-3.1,2.8-5.7,6.8-5.7c2.1,0,4.4,0.8,6,2.4l-2.4,3c-1.2-0.9-2.3-1.3-3.6-1.3c-1.2,0-1.9,0.4-1.9,1.2
			c0,0.9,1,1.2,2.7,1.8l2.2,0.9c2.3,0.9,3.6,2.5,3.6,5c0,3.1-2.6,5.8-7.1,5.8C308,59.9,305.3,59,303.4,57.3z"/>
		<path class="st4" d="M326.5,41.3h11.8v4h-6.9v2.9h5.9v4h-5.9v3.2h7.2v4h-12V41.3z"/>
		<path class="st4" d="M342.3,41.3h4.9l4,8.1l1.7,4.1h0.1c-0.2-2-0.6-4.7-0.6-6.9v-5.3h4.6v18.2h-4.9l-4-8.1l-1.7-4.1h-0.1
			c0.2,2.1,0.6,4.7,0.6,6.9v5.3h-4.6V41.3z"/>
		<path class="st4" d="M367.3,41.3H379v4h-6.9v2.9h5.9v4h-5.9v3.2h7.2v4h-12V41.3z"/>
		<path class="st4" d="M383.1,41.3h4.8v14.2h6.9v4h-11.7V41.3z"/>
		<path class="st4" d="M407.6,45.4h-4.8v-4h14.4v4h-4.8v14.2h-4.8V45.4z"/>
		<path class="st4" d="M420.2,41.3h4.8v18.2h-4.8V41.3z"/>
		<path class="st4" d="M429.3,41.3h11.8v4h-6.9v2.9h5.9v4h-5.9v3.2h7.2v4h-12V41.3z"/>
		<path class="st4" d="M445.2,41.3h5.2l2.7,7.4c0.3,1,0.6,2.1,1,3.2h0.1c0.3-1.1,0.6-2.2,1-3.2l2.6-7.4h5.2v18.2h-4.4v-5.4
			c0-1.8,0.4-4.7,0.6-6.5H459l-1.5,4.4l-2.2,6h-2.6l-2.2-6l-1.5-4.4h-0.1c0.2,1.8,0.6,4.6,0.6,6.5v5.4h-4.3V41.3z"/>
		<path class="st4" d="M467.2,41.3h6.7c4,0,7.4,1.5,7.4,6c0,4.5-3.5,6.4-7.3,6.4h-2v5.8h-4.8V41.3z M473.7,50c1.9,0,2.8-1,2.8-2.6
			s-1.1-2.2-2.9-2.2H472V50H473.7z"/>
		<path class="st4" d="M483.7,50.4c0-6,3.4-9.4,8.5-9.4s8.5,3.4,8.5,9.4c0,6-3.4,9.5-8.5,9.5S483.7,56.4,483.7,50.4z M495.7,50.4
			c0-3.3-1.3-5.2-3.5-5.2s-3.5,1.9-3.5,5.2c0,3.3,1.3,5.4,3.5,5.4S495.7,53.7,495.7,50.4z"/>
		<path class="st4" d="M503.8,48.3c0-1.6,1.2-2.9,2.8-2.9s2.8,1.3,2.8,2.9s-1.2,2.9-2.8,2.9S503.8,49.9,503.8,48.3z M503.8,57
			c0-1.6,1.2-2.9,2.8-2.9s2.8,1.3,2.8,2.9s-1.2,2.9-2.8,2.9S503.8,58.6,503.8,57z"/>
	</g>
</g>
<path class="st5" d="M241,208c0.1,0.4-0.2,0.4-0.4,0.4c-4.3,7.6-58.8,137.9-63.4,145.3c-1.4,2.3-3,5.4-5.7,6.2
	c-0.7-0.3-0.7-1.4-1.8-1.3c-0.5-4.4,2.7-8,4.9-11.5c2.1-3.4,54.9-129.2,57.6-132C232.6,210.1,236.4,204.8,241,208z"/>
<path class="st5" d="M468.4,208.7c0.1,0.4-0.2,0.4-0.4,0.4c-4.3,7.6-58.8,137.9-63.4,145.3c-1.4,2.3-3,5.4-5.7,6.2
	c-0.7-0.3-0.7-1.4-1.8-1.3c-0.5-4.4,2.7-8,4.9-11.5c2.1-3.4,54.9-129.2,57.6-132C460,210.8,463.8,205.5,468.4,208.7z"/>
<path class="st5" d="M623,208c0.1,0.4-0.2,0.4-0.4,0.4c-4.3,7.6-58.8,137.9-63.4,145.3c-1.4,2.3-3,5.4-5.7,6.2
	c-0.7-0.3-0.7-1.4-1.8-1.3c-0.5-4.4,2.7-8,4.9-11.5c2.1-3.4,54.9-129.2,57.6-132C614.7,210.1,618.5,204.8,623,208z"/>
<path class="st5" d="M850.5,208.7c0.1,0.4-0.2,0.4-0.4,0.4c-4.3,7.6-58.8,137.9-63.4,145.3c-1.4,2.3-3,5.4-5.7,6.2
	c-0.7-0.3-0.7-1.4-1.8-1.3c-0.5-4.4,2.7-8,4.9-11.5c2.1-3.4,54.9-129.2,57.6-132C842.1,210.8,845.9,205.5,850.5,208.7z"/>
<path class="st5" d="M1014.1,208.7c0.1,0.4-0.2,0.4-0.4,0.4c-4.3,7.6-58.8,137.9-63.4,145.3c-1.4,2.3-3,5.4-5.7,6.2
	c-0.7-0.3-0.7-1.4-1.8-1.3c-0.5-4.4,2.7-8,4.9-11.5c2.1-3.4,54.9-129.2,57.6-132C1005.7,210.8,1009.5,205.5,1014.1,208.7z"/>
<g>
	<g>
		<path d="M213.7,326.9h2.3l3.6,11.1h-2.1l-1.7-5.9c-0.4-1.2-0.7-2.4-1-3.7h-0.1c-0.3,1.2-0.6,2.5-1,3.7l-1.7,5.9h-2L213.7,326.9z
			 M212.2,333.4h5.2v1.5h-5.2V333.4z"/>
		<path d="M220.4,339.5c0-0.7,0.4-1.3,1.2-1.8v-0.1c-0.4-0.3-0.8-0.7-0.8-1.4c0-0.6,0.4-1.2,0.9-1.6v-0.1c-0.6-0.4-1.1-1.2-1.1-2.2
			c0-1.9,1.5-3,3.3-3c0.5,0,0.9,0.1,1.2,0.2h3v1.5h-1.5c0.3,0.3,0.5,0.8,0.5,1.4c0,1.9-1.4,2.8-3.2,2.8c-0.4,0-0.8-0.1-1.1-0.2
			c-0.3,0.2-0.4,0.4-0.4,0.8c0,0.5,0.3,0.8,1.4,0.8h1.5c2,0,3.1,0.6,3.1,2.1c0,1.6-1.7,2.9-4.5,2.9
			C221.9,341.7,220.4,341,220.4,339.5z M226.5,339.1c0-0.6-0.5-0.8-1.5-0.8h-1.1c-0.4,0-0.8,0-1.1-0.1c-0.4,0.3-0.6,0.7-0.6,1.1
			c0,0.8,0.8,1.2,2.1,1.2C225.5,340.4,226.5,339.8,226.5,339.1z M225.4,332.4c0-1-0.6-1.6-1.4-1.6s-1.4,0.6-1.4,1.6
			c0,1.1,0.6,1.7,1.4,1.7S225.4,333.5,225.4,332.4z"/>
		<path d="M229.5,333.8c0-2.7,1.9-4.4,3.8-4.4c2.3,0,3.4,1.6,3.4,4c0,0.4,0,0.7-0.1,1h-5.3c0.2,1.5,1.1,2.3,2.5,2.3
			c0.7,0,1.3-0.2,1.9-0.6l0.7,1.2c-0.8,0.5-1.8,0.9-2.9,0.9C231.3,338.2,229.5,336.6,229.5,333.8z M235.1,333c0-1.3-0.6-2.1-1.7-2.1
			c-1,0-1.8,0.7-2,2.1H235.1z"/>
		<path d="M238.8,329.6h1.6l0.1,1.1h0.1c0.7-0.7,1.6-1.3,2.7-1.3c1.8,0,2.6,1.2,2.6,3.3v5.2h-2v-5c0-1.4-0.4-1.9-1.3-1.9
			c-0.7,0-1.2,0.4-1.9,1v5.8h-2V329.6z"/>
		<path d="M248.8,335.2v-4h-1.2v-1.5l1.3-0.1l0.2-2.3h1.6v2.3h2.1v1.6h-2.1v4c0,1,0.4,1.5,1.2,1.5c0.3,0,0.6-0.1,0.9-0.2l0.3,1.4
			c-0.5,0.1-1,0.3-1.7,0.3C249.5,338.2,248.8,337,248.8,335.2z"/>
		<path d="M254.2,333.8c0-2.7,1.9-4.4,3.8-4.4c2.3,0,3.4,1.6,3.4,4c0,0.4,0,0.7-0.1,1h-5.3c0.2,1.5,1.1,2.3,2.5,2.3
			c0.7,0,1.3-0.2,1.9-0.6l0.7,1.2c-0.8,0.5-1.8,0.9-2.9,0.9C256.1,338.2,254.2,336.6,254.2,333.8z M259.8,333c0-1.3-0.6-2.1-1.7-2.1
			c-1,0-1.8,0.7-2,2.1H259.8z"/>
		<path d="M262.8,337l0.9-1.2c0.7,0.6,1.5,0.9,2.3,0.9c0.9,0,1.3-0.4,1.3-1c0-0.7-0.9-1-1.8-1.4c-1.1-0.4-2.3-1-2.3-2.4
			c0-1.4,1.2-2.5,3-2.5c1.2,0,2.1,0.5,2.8,1l-0.9,1.2c-0.6-0.4-1.2-0.7-1.8-0.7c-0.8,0-1.2,0.4-1.2,0.9c0,0.7,0.8,0.9,1.7,1.2
			c1.1,0.4,2.4,1,2.4,2.5c0,1.4-1.1,2.6-3.2,2.6C264.8,338.2,263.6,337.7,262.8,337z"/>
		<path d="M274.1,333.8c0-2.7,1.7-4.4,3.5-4.4c0.9,0,1.5,0.4,2.2,0.9l-0.1-1.3v-3h2v12h-1.6l-0.1-0.9h-0.1c-0.6,0.6-1.5,1.1-2.4,1.1
			C275.5,338.2,274.1,336.6,274.1,333.8z M279.8,335.6v-3.9c-0.6-0.5-1.1-0.7-1.7-0.7c-1.1,0-1.9,1-1.9,2.7c0,1.8,0.7,2.8,1.9,2.8
			C278.7,336.6,279.2,336.3,279.8,335.6z"/>
		<path d="M283.9,333.8c0-2.7,1.9-4.4,3.8-4.4c2.3,0,3.4,1.6,3.4,4c0,0.4,0,0.7-0.1,1h-5.3c0.2,1.5,1.1,2.3,2.5,2.3
			c0.7,0,1.3-0.2,1.9-0.6l0.7,1.2c-0.8,0.5-1.8,0.9-2.9,0.9C285.7,338.2,283.9,336.6,283.9,333.8z M289.5,333c0-1.3-0.6-2.1-1.7-2.1
			c-1,0-1.8,0.7-2,2.1H289.5z"/>
		<path d="M293.2,335.8V326h2v10c0,0.5,0.2,0.7,0.4,0.7c0.1,0,0.2,0,0.3,0l0.2,1.5c-0.2,0.1-0.6,0.2-1,0.2
			C293.7,338.2,293.2,337.3,293.2,335.8z"/>
		<path d="M301.7,326.9h6.7v1.7h-4.7v2.8h4v1.7h-4v3.3h4.9v1.7h-6.9V326.9z"/>
		<path d="M310,337l0.9-1.2c0.7,0.6,1.5,0.9,2.3,0.9c0.9,0,1.3-0.4,1.3-1c0-0.7-0.9-1-1.8-1.4c-1.1-0.4-2.3-1-2.3-2.4
			c0-1.4,1.2-2.5,3-2.5c1.2,0,2.1,0.5,2.8,1l-0.9,1.2c-0.6-0.4-1.2-0.7-1.8-0.7c-0.8,0-1.2,0.4-1.2,0.9c0,0.7,0.8,0.9,1.7,1.2
			c1.1,0.4,2.4,1,2.4,2.5c0,1.4-1.1,2.6-3.2,2.6C312,338.2,310.8,337.7,310,337z"/>
		<path d="M318.6,335.2v-4h-1.2v-1.5l1.3-0.1l0.2-2.3h1.6v2.3h2.1v1.6h-2.1v4c0,1,0.4,1.5,1.2,1.5c0.3,0,0.6-0.1,0.9-0.2l0.3,1.4
			c-0.5,0.1-1,0.3-1.7,0.3C319.4,338.2,318.6,337,318.6,335.2z"/>
		<path d="M324.2,335.7c0-1.8,1.5-2.7,4.9-3.1c0-0.9-0.4-1.6-1.5-1.6c-0.8,0-1.6,0.4-2.3,0.8l-0.7-1.3c0.9-0.6,2.1-1.1,3.4-1.1
			c2.1,0,3.1,1.3,3.1,3.6v4.9h-1.6l-0.1-0.9h-0.1c-0.7,0.6-1.6,1.1-2.6,1.1C325.2,338.2,324.2,337.2,324.2,335.7z M329.1,335.8v-1.9
			c-2.3,0.3-3,0.9-3,1.7c0,0.7,0.5,1.1,1.2,1.1C328,336.7,328.5,336.3,329.1,335.8z"/>
		<path d="M333.1,333.8c0-2.7,1.7-4.4,3.5-4.4c0.9,0,1.5,0.4,2.2,0.9l-0.1-1.3v-3h2v12h-1.6l-0.1-0.9h-0.1c-0.6,0.6-1.5,1.1-2.4,1.1
			C334.4,338.2,333.1,336.6,333.1,333.8z M338.7,335.6v-3.9c-0.6-0.5-1.1-0.7-1.7-0.7c-1.1,0-1.9,1-1.9,2.7c0,1.8,0.7,2.8,1.9,2.8
			C337.7,336.6,338.2,336.3,338.7,335.6z"/>
		<path d="M342.8,333.8c0-2.8,1.9-4.4,4-4.4c2.1,0,4,1.6,4,4.4c0,2.8-1.9,4.4-4,4.4C344.7,338.2,342.8,336.6,342.8,333.8z
			 M348.7,333.8c0-1.7-0.7-2.8-2-2.8c-1.2,0-2,1.1-2,2.8s0.7,2.8,2,2.8C348,336.6,348.7,335.5,348.7,333.8z"/>
		<path d="M229.9,354.2c0-2.8,2-4.4,4.2-4.4c1.1,0,1.8,0.4,2.4,0.9l-1,1.3c-0.4-0.4-0.9-0.6-1.4-0.6c-1.3,0-2.3,1.1-2.3,2.8
			s0.9,2.8,2.2,2.8c0.7,0,1.3-0.3,1.7-0.7l0.8,1.3c-0.8,0.7-1.8,1-2.7,1C231.6,358.6,229.9,357,229.9,354.2z"/>
		<path d="M237.9,354.2c0-2.8,1.9-4.4,4-4.4c2.1,0,4,1.6,4,4.4c0,2.8-1.9,4.4-4,4.4C239.8,358.6,237.9,357,237.9,354.2z
			 M243.8,354.2c0-1.7-0.7-2.8-2-2.8c-1.2,0-2,1.1-2,2.8s0.7,2.8,2,2.8C243.1,357,243.8,355.9,243.8,354.2z"/>
		<path d="M247.9,350h1.6l0.1,1.1h0.1c0.7-0.7,1.5-1.3,2.6-1.3c1.2,0,1.9,0.6,2.3,1.5c0.8-0.8,1.6-1.5,2.7-1.5
			c1.8,0,2.6,1.2,2.6,3.3v5.2h-2v-5c0-1.4-0.4-1.9-1.3-1.9c-0.5,0-1.1,0.3-1.7,1v5.8h-2v-5c0-1.4-0.4-1.9-1.3-1.9
			c-0.5,0-1.1,0.3-1.7,1v5.8h-2V350z"/>
		<path d="M261.9,354.2c0-2.7,1.9-4.4,3.8-4.4c2.3,0,3.4,1.6,3.4,4c0,0.4,0,0.7-0.1,1h-5.3c0.2,1.5,1.1,2.3,2.5,2.3
			c0.7,0,1.3-0.2,1.9-0.6l0.7,1.2c-0.8,0.5-1.8,0.9-2.9,0.9C263.7,358.6,261.9,357,261.9,354.2z M267.5,353.4c0-1.3-0.6-2.1-1.7-2.1
			c-1,0-1.8,0.7-2,2.1H267.5z"/>
		<path d="M271.5,355.6v-4h-1.2v-1.5l1.3-0.1l0.2-2.3h1.6v2.3h2.1v1.6h-2.1v4c0,1,0.4,1.5,1.2,1.5c0.3,0,0.6-0.1,0.9-0.2l0.3,1.4
			c-0.5,0.1-1,0.3-1.7,0.3C272.2,358.6,271.5,357.4,271.5,355.6z"/>
		<path d="M277.3,347.5c0-0.7,0.5-1.1,1.2-1.1c0.7,0,1.2,0.4,1.2,1.1c0,0.6-0.5,1.1-1.2,1.1C277.8,348.6,277.3,348.1,277.3,347.5z
			 M277.5,350h2v8.3h-2V350z"/>
		<path d="M281.6,354.2c0-2.7,1.9-4.4,3.8-4.4c2.3,0,3.4,1.6,3.4,4c0,0.4,0,0.7-0.1,1h-5.3c0.2,1.5,1.1,2.3,2.5,2.3
			c0.7,0,1.3-0.2,1.9-0.6l0.7,1.2c-0.8,0.5-1.8,0.9-2.9,0.9C283.4,358.6,281.6,357,281.6,354.2z M287.2,353.4c0-1.3-0.6-2.1-1.7-2.1
			c-1,0-1.8,0.7-2,2.1H287.2z"/>
		<path d="M291,350h1.6l0.1,1.5h0.1c0.6-1.1,1.5-1.7,2.4-1.7c0.4,0,0.7,0.1,0.9,0.2l-0.3,1.7c-0.3-0.1-0.5-0.1-0.9-0.1
			c-0.7,0-1.5,0.5-2,1.7v5.1h-2V350z"/>
		<path d="M296.9,354.2c0-2.8,1.9-4.4,4-4.4c2.1,0,4,1.6,4,4.4c0,2.8-1.9,4.4-4,4.4C298.8,358.6,296.9,357,296.9,354.2z
			 M302.8,354.2c0-1.7-0.7-2.8-2-2.8c-1.2,0-2,1.1-2,2.8s0.7,2.8,2,2.8C302.1,357,302.8,355.9,302.8,354.2z"/>
		<path d="M307,350h1.6l0.1,1.1h0.1c0.7-0.7,1.6-1.3,2.7-1.3c1.8,0,2.6,1.2,2.6,3.3v5.2h-2v-5c0-1.4-0.4-1.9-1.3-1.9
			c-0.7,0-1.2,0.4-1.9,1v5.8h-2V350z"/>
		<path d="M319.7,354.2c0-2.7,1.9-4.4,3.8-4.4c2.3,0,3.4,1.6,3.4,4c0,0.4,0,0.7-0.1,1h-5.3c0.2,1.5,1.1,2.3,2.5,2.3
			c0.7,0,1.3-0.2,1.9-0.6l0.7,1.2c-0.8,0.5-1.8,0.9-2.9,0.9C321.5,358.6,319.7,357,319.7,354.2z M325.3,353.4c0-1.3-0.6-2.1-1.7-2.1
			c-1,0-1.8,0.7-2,2.1H325.3z"/>
		<path d="M329,356.2v-9.9h2v10c0,0.5,0.2,0.7,0.4,0.7c0.1,0,0.2,0,0.3,0l0.2,1.5c-0.2,0.1-0.6,0.2-1,0.2
			C329.5,358.6,329,357.7,329,356.2z"/>
		<path d="M217.5,369.6h-5.1V368h7.3v1.2c-2.5,3.1-3,5.4-3.2,9.6h-2C214.7,375,215.4,372.5,217.5,369.6z"/>
		<path d="M221.3,377.8l1.1-1.2c0.4,0.5,1.1,0.8,1.7,0.8c1.4,0,2.5-1.1,2.5-4.3c0-2.7-0.9-3.8-2.1-3.8c-0.9,0-1.6,0.7-1.6,2.1
			c0,1.3,0.6,1.9,1.7,1.9c0.6,0,1.4-0.4,2-1.3l0.1,1.4c-0.6,0.9-1.6,1.4-2.4,1.4c-1.9,0-3.2-1.1-3.2-3.3c0-2.2,1.6-3.5,3.4-3.5
			c2.1,0,3.9,1.6,3.9,5.3c0,4.2-2,5.9-4.2,5.9C222.9,379,222,378.4,221.3,377.8z"/>
		<path d="M230.2,380.8c1.1-0.4,1.7-1.2,1.7-2.1l-0.1-1.5l0.8,1.2c-0.2,0.2-0.5,0.3-0.8,0.3c-0.7,0-1.3-0.4-1.3-1.2
			c0-0.7,0.6-1.2,1.3-1.2c0.9,0,1.5,0.8,1.5,2c0,1.7-1,3-2.6,3.5L230.2,380.8z"/>
		<path d="M234.9,377.7c3-2.9,4.9-4.8,4.9-6.5c0-1.1-0.6-1.9-1.8-1.9c-0.8,0-1.5,0.6-2.1,1.2l-1.1-1.1c1-1.1,2-1.7,3.5-1.7
			c2.1,0,3.4,1.3,3.4,3.3c0,1.9-1.8,3.9-3.9,6.2c0.6-0.1,1.3-0.1,1.8-0.1h2.6v1.7h-7.3V377.7z"/>
		<path d="M243.6,371c0-2.2,1.1-3.5,2.7-3.5s2.7,1.3,2.7,3.5c0,2.2-1.1,3.5-2.7,3.5S243.6,373.2,243.6,371z M247.5,371
			c0-1.7-0.5-2.4-1.2-2.4s-1.2,0.7-1.2,2.4s0.5,2.4,1.2,2.4S247.5,372.6,247.5,371z M252.7,367.5h1.2l-6.1,11.5h-1.2L252.7,367.5z
			 M251.6,375.5c0-2.2,1.1-3.5,2.7-3.5s2.7,1.3,2.7,3.5c0,2.2-1.1,3.5-2.7,3.5S251.6,377.7,251.6,375.5z M255.5,375.5
			c0-1.7-0.5-2.4-1.2-2.4s-1.2,0.7-1.2,2.4c0,1.7,0.5,2.4,1.2,2.4S255.5,377.1,255.5,375.5z"/>
		<path d="M261.9,374.6c0-2.7,1.7-4.4,3.5-4.4c0.9,0,1.5,0.4,2.2,0.9l-0.1-1.3v-3h2v12h-1.6l-0.1-0.9h-0.1c-0.6,0.6-1.5,1.1-2.4,1.1
			C263.3,379,261.9,377.4,261.9,374.6z M267.6,376.4v-3.9c-0.6-0.5-1.1-0.7-1.7-0.7c-1.1,0-1.9,1-1.9,2.7c0,1.8,0.7,2.8,1.9,2.8
			C266.5,377.4,267,377.1,267.6,376.4z"/>
		<path d="M271.6,374.6c0-2.7,1.9-4.4,3.8-4.4c2.3,0,3.4,1.6,3.4,4c0,0.4,0,0.7-0.1,1h-5.3c0.2,1.5,1.1,2.3,2.5,2.3
			c0.7,0,1.3-0.2,1.9-0.6l0.7,1.2c-0.8,0.5-1.8,0.9-2.9,0.9C273.4,379,271.6,377.4,271.6,374.6z M277.2,373.8c0-1.3-0.6-2.1-1.7-2.1
			c-1,0-1.8,0.7-2,2.1H277.2z"/>
		<path d="M284.5,376.6v-9.9h2v10c0,0.5,0.2,0.7,0.4,0.7c0.1,0,0.2,0,0.3,0l0.2,1.5c-0.2,0.1-0.6,0.2-1,0.2
			C285,379,284.5,378.1,284.5,376.6z"/>
		<path d="M288.8,374.6c0-2.8,1.9-4.4,4-4.4c2.1,0,4,1.6,4,4.4c0,2.8-1.9,4.4-4,4.4C290.7,379,288.8,377.4,288.8,374.6z
			 M294.7,374.6c0-1.7-0.7-2.8-2-2.8c-1.2,0-2,1.1-2,2.8s0.7,2.8,2,2.8C294,377.4,294.7,376.3,294.7,374.6z"/>
		<path d="M298,377.8l0.9-1.2c0.7,0.6,1.5,0.9,2.3,0.9c0.9,0,1.3-0.4,1.3-1c0-0.7-0.9-1-1.8-1.4c-1.1-0.4-2.3-1-2.3-2.4
			c0-1.4,1.2-2.5,3-2.5c1.2,0,2.1,0.5,2.8,1l-0.9,1.2c-0.6-0.4-1.2-0.7-1.8-0.7c-0.8,0-1.2,0.4-1.2,0.9c0,0.7,0.8,0.9,1.7,1.2
			c1.1,0.4,2.4,1,2.4,2.5c0,1.4-1.1,2.6-3.2,2.6C300,379,298.8,378.5,298,377.8z"/>
		<path d="M309.3,374.6c0-2.8,2-4.4,4.2-4.4c1.1,0,1.8,0.4,2.4,0.9l-1,1.3c-0.4-0.4-0.9-0.6-1.4-0.6c-1.3,0-2.3,1.1-2.3,2.8
			s0.9,2.8,2.2,2.8c0.7,0,1.3-0.3,1.7-0.7l0.8,1.3c-0.8,0.7-1.8,1-2.7,1C311.1,379,309.3,377.4,309.3,374.6z"/>
		<path d="M317.5,376.5c0-1.8,1.5-2.7,4.9-3.1c0-0.9-0.4-1.6-1.5-1.6c-0.8,0-1.6,0.4-2.3,0.8l-0.7-1.3c0.9-0.6,2.1-1.1,3.4-1.1
			c2.1,0,3.1,1.3,3.1,3.6v4.9h-1.6l-0.1-0.9h-0.1c-0.7,0.6-1.6,1.1-2.6,1.1C318.5,379,317.5,378,317.5,376.5z M322.4,376.6v-1.9
			c-2.3,0.3-3,0.9-3,1.7c0,0.7,0.5,1.1,1.2,1.1C321.2,377.5,321.7,377.1,322.4,376.6z"/>
		<path d="M326,377.8l0.9-1.2c0.7,0.6,1.5,0.9,2.3,0.9c0.9,0,1.3-0.4,1.3-1c0-0.7-0.9-1-1.8-1.4c-1.1-0.4-2.3-1-2.3-2.4
			c0-1.4,1.2-2.5,3-2.5c1.2,0,2.1,0.5,2.8,1l-0.9,1.2c-0.6-0.4-1.2-0.7-1.8-0.7c-0.8,0-1.2,0.4-1.2,0.9c0,0.7,0.8,0.9,1.7,1.2
			c1.1,0.4,2.4,1,2.4,2.5c0,1.4-1.1,2.6-3.2,2.6C328,379,326.8,378.5,326,377.8z"/>
		<path d="M333.8,374.6c0-2.8,1.9-4.4,4-4.4c2.1,0,4,1.6,4,4.4c0,2.8-1.9,4.4-4,4.4C335.7,379,333.8,377.4,333.8,374.6z
			 M339.7,374.6c0-1.7-0.7-2.8-2-2.8c-1.2,0-2,1.1-2,2.8s0.7,2.8,2,2.8C339,377.4,339.7,376.3,339.7,374.6z"/>
		<path d="M343,377.8l0.9-1.2c0.7,0.6,1.5,0.9,2.3,0.9c0.9,0,1.3-0.4,1.3-1c0-0.7-0.9-1-1.8-1.4c-1.1-0.4-2.3-1-2.3-2.4
			c0-1.4,1.2-2.5,3-2.5c1.2,0,2.1,0.5,2.8,1l-0.9,1.2c-0.6-0.4-1.2-0.7-1.8-0.7c-0.8,0-1.2,0.4-1.2,0.9c0,0.7,0.8,0.9,1.7,1.2
			c1.1,0.4,2.4,1,2.4,2.5c0,1.4-1.1,2.6-3.2,2.6C345,379,343.8,378.5,343,377.8z"/>
		<path d="M222.2,395c0-2.7,1.7-4.4,3.5-4.4c0.9,0,1.5,0.4,2.2,0.9l-0.1-1.3v-3h2v12h-1.6l-0.1-0.9H228c-0.6,0.6-1.5,1.1-2.4,1.1
			C223.6,399.4,222.2,397.8,222.2,395z M227.9,396.8v-3.9c-0.6-0.5-1.1-0.7-1.7-0.7c-1.1,0-1.9,1-1.9,2.7c0,1.8,0.7,2.8,1.9,2.8
			C226.8,397.8,227.3,397.5,227.9,396.8z"/>
		<path d="M231.9,395c0-2.7,1.9-4.4,3.8-4.4c2.3,0,3.4,1.6,3.4,4c0,0.4,0,0.7-0.1,1h-5.3c0.2,1.5,1.1,2.3,2.5,2.3
			c0.7,0,1.3-0.2,1.9-0.6l0.7,1.2c-0.8,0.5-1.8,0.9-2.9,0.9C233.7,399.4,231.9,397.8,231.9,395z M237.5,394.2c0-1.3-0.6-2.1-1.7-2.1
			c-1,0-1.8,0.7-2,2.1H237.5z"/>
		<path d="M244.3,395c0-2.7,1.7-4.4,3.5-4.4c0.9,0,1.5,0.4,2.2,0.9l-0.1-1.3v-3h2v12h-1.6l-0.1-0.9h-0.1c-0.6,0.6-1.5,1.1-2.4,1.1
			C245.7,399.4,244.3,397.8,244.3,395z M250,396.8v-3.9c-0.6-0.5-1.1-0.7-1.7-0.7c-1.1,0-1.9,1-1.9,2.7c0,1.8,0.7,2.8,1.9,2.8
			C248.9,397.8,249.4,397.5,250,396.8z"/>
		<path d="M254,395c0-2.7,1.9-4.4,3.8-4.4c2.3,0,3.4,1.6,3.4,4c0,0.4,0,0.7-0.1,1H256c0.2,1.5,1.1,2.3,2.5,2.3
			c0.7,0,1.3-0.2,1.9-0.6l0.7,1.2c-0.8,0.5-1.8,0.9-2.9,0.9C255.8,399.4,254,397.8,254,395z M259.6,394.2c0-1.3-0.6-2.1-1.7-2.1
			c-1,0-1.8,0.7-2,2.1H259.6z"/>
		<path d="M262.5,398.2l0.9-1.2c0.7,0.6,1.5,0.9,2.3,0.9c0.9,0,1.3-0.4,1.3-1c0-0.7-0.9-1-1.8-1.4c-1.1-0.4-2.3-1-2.3-2.4
			c0-1.4,1.2-2.5,3-2.5c1.2,0,2.1,0.5,2.8,1l-0.9,1.2c-0.6-0.4-1.2-0.7-1.8-0.7c-0.8,0-1.2,0.4-1.2,0.9c0,0.7,0.8,0.9,1.7,1.2
			c1.1,0.4,2.4,1,2.4,2.5c0,1.4-1.1,2.6-3.2,2.6C264.6,399.4,263.4,398.9,262.5,398.2z"/>
		<path d="M270.4,396.9c0-1.8,1.5-2.7,4.9-3.1c0-0.9-0.4-1.6-1.5-1.6c-0.8,0-1.6,0.4-2.3,0.8l-0.7-1.3c0.9-0.6,2.1-1.1,3.4-1.1
			c2.1,0,3.1,1.3,3.1,3.6v4.9h-1.6l-0.1-0.9h-0.1c-0.7,0.6-1.6,1.1-2.6,1.1C271.4,399.4,270.4,398.4,270.4,396.9z M275.3,397v-1.9
			c-2.3,0.3-3,0.9-3,1.7c0,0.7,0.5,1.1,1.2,1.1C274.2,397.9,274.7,397.5,275.3,397z"/>
		<path d="M279.8,390.8h1.6l0.1,0.9h0.1c0.7-0.6,1.6-1.1,2.5-1.1c2.1,0,3.3,1.7,3.3,4.2c0,2.9-1.7,4.5-3.6,4.5
			c-0.7,0-1.5-0.3-2.1-0.9l0.1,1.4v2.6h-2V390.8z M285.4,394.9c0-1.7-0.5-2.7-1.8-2.7c-0.6,0-1.2,0.3-1.8,0.9v3.9
			c0.6,0.5,1.2,0.7,1.7,0.7C284.6,397.8,285.4,396.8,285.4,394.9z"/>
		<path d="M289.1,396.9c0-1.8,1.5-2.7,4.9-3.1c0-0.9-0.4-1.6-1.5-1.6c-0.8,0-1.6,0.4-2.3,0.8l-0.7-1.3c0.9-0.6,2.1-1.1,3.4-1.1
			c2.1,0,3.1,1.3,3.1,3.6v4.9h-1.6l-0.1-0.9h-0.1c-0.7,0.6-1.6,1.1-2.6,1.1C290.1,399.4,289.1,398.4,289.1,396.9z M294,397v-1.9
			c-2.3,0.3-3,0.9-3,1.7c0,0.7,0.5,1.1,1.2,1.1C292.9,397.9,293.4,397.5,294,397z"/>
		<path d="M298.5,390.8h1.6l0.1,1.5h0.1c0.6-1.1,1.5-1.7,2.4-1.7c0.4,0,0.7,0.1,0.9,0.2l-0.3,1.7c-0.3-0.1-0.5-0.1-0.9-0.1
			c-0.7,0-1.5,0.5-2,1.7v5.1h-2V390.8z"/>
		<path d="M304.8,388.3c0-0.7,0.5-1.1,1.2-1.1c0.7,0,1.2,0.4,1.2,1.1c0,0.6-0.5,1.1-1.2,1.1C305.3,389.4,304.8,388.9,304.8,388.3z
			 M305,390.8h2v8.3h-2V390.8z"/>
		<path d="M309.1,395c0-2.8,2-4.4,4.2-4.4c1.1,0,1.8,0.4,2.4,0.9l-1,1.3c-0.4-0.4-0.9-0.6-1.4-0.6c-1.3,0-2.3,1.1-2.3,2.8
			s0.9,2.8,2.2,2.8c0.7,0,1.3-0.3,1.7-0.7l0.8,1.3c-0.8,0.7-1.8,1-2.7,1C310.8,399.4,309.1,397.8,309.1,395z"/>
		<path d="M317.5,388.3c0-0.7,0.5-1.1,1.2-1.1c0.7,0,1.2,0.4,1.2,1.1c0,0.6-0.5,1.1-1.2,1.1C318,389.4,317.5,388.9,317.5,388.3z
			 M317.7,390.8h2v8.3h-2V390.8z"/>
		<path d="M321.8,395c0-2.8,1.9-4.4,4-4.4s4,1.6,4,4.4c0,2.8-1.9,4.4-4,4.4S321.8,397.8,321.8,395z M327.7,395c0-1.7-0.7-2.8-2-2.8
			c-1.2,0-2,1.1-2,2.8s0.7,2.8,2,2.8C326.9,397.8,327.7,396.7,327.7,395z M324.7,388.5l2.5-3l1.3,1.3l-2.9,2.6L324.7,388.5z"/>
		<path d="M331.8,390.8h1.6l0.1,1.1h0.1c0.7-0.7,1.6-1.3,2.7-1.3c1.8,0,2.6,1.2,2.6,3.3v5.2h-2v-5c0-1.4-0.4-1.9-1.3-1.9
			c-0.7,0-1.2,0.4-1.9,1v5.8h-2V390.8z"/>
		<path d="M208.6,411.3l1.2-0.1h3.5v1.6h-4.7V411.3z M209.7,410.4c0-1.7,0.8-3,2.8-3c0.6,0,1.2,0.1,1.5,0.3l-0.4,1.5
			c-0.3-0.1-0.6-0.2-0.9-0.2c-0.7,0-1.1,0.4-1.1,1.4v9.2h-2V410.4z"/>
		<path d="M214.4,415.4c0-2.8,1.9-4.4,4-4.4c2.1,0,4,1.6,4,4.4c0,2.8-1.9,4.4-4,4.4C216.3,419.8,214.4,418.2,214.4,415.4z
			 M220.3,415.4c0-1.7-0.7-2.8-2-2.8c-1.2,0-2,1.1-2,2.8s0.7,2.8,2,2.8C219.6,418.2,220.3,417.1,220.3,415.4z"/>
		<path d="M224.4,411.2h1.6l0.1,1.5h0.1c0.6-1.1,1.5-1.7,2.4-1.7c0.4,0,0.7,0.1,0.9,0.2l-0.3,1.7c-0.3-0.1-0.5-0.1-0.9-0.1
			c-0.7,0-1.5,0.5-2,1.7v5.1h-2V411.2z"/>
		<path d="M230.3,418.5l3.9-5.7h-3.5v-1.6h5.9v1l-3.9,5.7h4.1v1.6h-6.5V418.5z"/>
		<path d="M238.2,417.3c0-1.8,1.5-2.7,4.9-3.1c0-0.9-0.4-1.6-1.5-1.6c-0.8,0-1.6,0.4-2.3,0.8l-0.7-1.3c0.9-0.6,2.1-1.1,3.4-1.1
			c2.1,0,3.1,1.3,3.1,3.6v4.9h-1.6l-0.1-0.9h-0.1c-0.7,0.6-1.6,1.1-2.6,1.1C239.2,419.8,238.2,418.8,238.2,417.3z M243.1,417.4v-1.9
			c-2.3,0.3-3,0.9-3,1.7c0,0.7,0.5,1.1,1.2,1.1C242,418.3,242.5,417.9,243.1,417.4z"/>
		<path d="M247.1,415.4c0-2.7,1.7-4.4,3.5-4.4c0.9,0,1.5,0.4,2.2,0.9l-0.1-1.3v-3h2v12h-1.6l-0.1-0.9h-0.1c-0.6,0.6-1.5,1.1-2.4,1.1
			C248.4,419.8,247.1,418.2,247.1,415.4z M252.7,417.2v-3.9c-0.6-0.5-1.1-0.7-1.7-0.7c-1.1,0-1.9,1-1.9,2.7c0,1.8,0.7,2.8,1.9,2.8
			C251.6,418.2,252.2,417.9,252.7,417.2z"/>
		<path d="M256.9,417.3c0-1.8,1.5-2.7,4.9-3.1c0-0.9-0.4-1.6-1.5-1.6c-0.8,0-1.6,0.4-2.3,0.8l-0.7-1.3c0.9-0.6,2.1-1.1,3.4-1.1
			c2.1,0,3.1,1.3,3.1,3.6v4.9h-1.6l-0.1-0.9H262c-0.7,0.6-1.6,1.1-2.6,1.1C257.9,419.8,256.9,418.8,256.9,417.3z M261.8,417.4v-1.9
			c-2.3,0.3-3,0.9-3,1.7c0,0.7,0.5,1.1,1.2,1.1C260.7,418.3,261.2,417.9,261.8,417.4z"/>
		<path d="M269.9,411.2h1.6l0.1,1.5h0.1c0.6-1.1,1.5-1.7,2.4-1.7c0.4,0,0.7,0.1,0.9,0.2l-0.3,1.7c-0.3-0.1-0.5-0.1-0.9-0.1
			c-0.7,0-1.5,0.5-2,1.7v5.1h-2V411.2z"/>
		<path d="M275.8,415.4c0-2.7,1.9-4.4,3.8-4.4c2.3,0,3.4,1.6,3.4,4c0,0.4,0,0.7-0.1,1h-5.3c0.2,1.5,1.1,2.3,2.5,2.3
			c0.7,0,1.3-0.2,1.9-0.6l0.7,1.2c-0.8,0.5-1.8,0.9-2.9,0.9C277.6,419.8,275.8,418.2,275.8,415.4z M281.4,414.6
			c0-1.3-0.6-2.1-1.7-2.1c-1,0-1.8,0.7-2,2.1H281.4z"/>
		<path d="M284.6,421.1c0-0.7,0.4-1.3,1.2-1.8v-0.1c-0.4-0.3-0.8-0.7-0.8-1.4c0-0.6,0.4-1.2,0.9-1.6v-0.1c-0.6-0.4-1.1-1.2-1.1-2.2
			c0-1.9,1.5-3,3.3-3c0.5,0,0.9,0.1,1.2,0.2h3v1.5h-1.5c0.3,0.3,0.5,0.8,0.5,1.4c0,1.9-1.4,2.8-3.2,2.8c-0.4,0-0.8-0.1-1.1-0.2
			c-0.3,0.2-0.4,0.4-0.4,0.8c0,0.5,0.3,0.8,1.4,0.8h1.5c2,0,3.1,0.6,3.1,2.1c0,1.6-1.7,2.9-4.5,2.9
			C286.1,423.3,284.6,422.6,284.6,421.1z M290.6,420.7c0-0.6-0.5-0.8-1.5-0.8H288c-0.4,0-0.8,0-1.1-0.1c-0.4,0.3-0.6,0.7-0.6,1.1
			c0,0.8,0.8,1.2,2.1,1.2C289.7,422,290.6,421.4,290.6,420.7z M289.6,414c0-1-0.6-1.6-1.4-1.6s-1.4,0.6-1.4,1.6
			c0,1.1,0.6,1.7,1.4,1.7S289.6,415.1,289.6,414z"/>
		<path d="M294,408.7c0-0.7,0.5-1.1,1.2-1.1c0.7,0,1.2,0.4,1.2,1.1c0,0.6-0.5,1.1-1.2,1.1C294.5,409.8,294,409.3,294,408.7z
			 M294.2,411.2h2v8.3h-2V411.2z"/>
		<path d="M298,418.6l0.9-1.2c0.7,0.6,1.5,0.9,2.3,0.9c0.9,0,1.3-0.4,1.3-1c0-0.7-0.9-1-1.8-1.4c-1.1-0.4-2.3-1-2.3-2.4
			c0-1.4,1.2-2.5,3-2.5c1.2,0,2.1,0.5,2.8,1l-0.9,1.2c-0.6-0.4-1.2-0.7-1.8-0.7c-0.8,0-1.2,0.4-1.2,0.9c0,0.7,0.8,0.9,1.7,1.2
			c1.1,0.4,2.4,1,2.4,2.5c0,1.4-1.1,2.6-3.2,2.6C300,419.8,298.8,419.3,298,418.6z"/>
		<path d="M306.6,416.8v-4h-1.2v-1.5l1.3-0.1l0.2-2.3h1.6v2.3h2.1v1.6h-2.1v4c0,1,0.4,1.5,1.2,1.5c0.3,0,0.6-0.1,0.9-0.2l0.3,1.4
			c-0.5,0.1-1,0.3-1.7,0.3C307.3,419.8,306.6,418.6,306.6,416.8z"/>
		<path d="M312.6,411.2h1.6l0.1,1.5h0.1c0.6-1.1,1.5-1.7,2.4-1.7c0.4,0,0.7,0.1,0.9,0.2l-0.3,1.7c-0.3-0.1-0.5-0.1-0.9-0.1
			c-0.7,0-1.5,0.5-2,1.7v5.1h-2V411.2z"/>
		<path d="M318.7,417.3c0-1.8,1.5-2.7,4.9-3.1c0-0.9-0.4-1.6-1.5-1.6c-0.8,0-1.6,0.4-2.3,0.8l-0.7-1.3c0.9-0.6,2.1-1.1,3.4-1.1
			c2.1,0,3.1,1.3,3.1,3.6v4.9h-1.6l-0.1-0.9h-0.1c-0.7,0.6-1.6,1.1-2.6,1.1C319.7,419.8,318.7,418.8,318.7,417.3z M323.6,417.4v-1.9
			c-2.3,0.3-3,0.9-3,1.7c0,0.7,0.5,1.1,1.2,1.1C322.4,418.3,323,417.9,323.6,417.4z"/>
		<path d="M327.6,415.4c0-2.7,1.7-4.4,3.5-4.4c0.9,0,1.5,0.4,2.2,0.9l-0.1-1.3v-3h2v12h-1.6l-0.1-0.9h-0.1c-0.6,0.6-1.5,1.1-2.4,1.1
			C328.9,419.8,327.6,418.2,327.6,415.4z M333.2,417.2v-3.9c-0.6-0.5-1.1-0.7-1.7-0.7c-1.1,0-1.9,1-1.9,2.7c0,1.8,0.7,2.8,1.9,2.8
			C332.1,418.2,332.7,417.9,333.2,417.2z"/>
		<path d="M337.3,415.4c0-2.8,1.9-4.4,4-4.4s4,1.6,4,4.4c0,2.8-1.9,4.4-4,4.4S337.3,418.2,337.3,415.4z M343.2,415.4
			c0-1.7-0.7-2.8-2-2.8c-1.2,0-2,1.1-2,2.8s0.7,2.8,2,2.8C342.5,418.2,343.2,417.1,343.2,415.4z"/>
		<path d="M346.5,418.6l0.9-1.2c0.7,0.6,1.5,0.9,2.3,0.9c0.9,0,1.3-0.4,1.3-1c0-0.7-0.9-1-1.8-1.4c-1.1-0.4-2.3-1-2.3-2.4
			c0-1.4,1.2-2.5,3-2.5c1.2,0,2.1,0.5,2.8,1l-0.9,1.2c-0.6-0.4-1.2-0.7-1.8-0.7c-0.8,0-1.2,0.4-1.2,0.9c0,0.7,0.8,0.9,1.7,1.2
			c1.1,0.4,2.4,1,2.4,2.5c0,1.4-1.1,2.6-3.2,2.6C348.5,419.8,347.3,419.3,346.5,418.6z"/>
		<path d="M221.4,435.8c0-2.7,1.9-4.4,3.8-4.4c2.3,0,3.4,1.6,3.4,4c0,0.4,0,0.7-0.1,1h-5.3c0.2,1.5,1.1,2.3,2.5,2.3
			c0.7,0,1.3-0.2,1.9-0.6l0.7,1.2c-0.8,0.5-1.8,0.9-2.9,0.9C223.2,440.2,221.4,438.6,221.4,435.8z M227,435c0-1.3-0.6-2.1-1.7-2.1
			c-1,0-1.8,0.7-2,2.1H227z"/>
		<path d="M230.7,431.6h1.6l0.1,1.1h0.1c0.7-0.7,1.6-1.3,2.7-1.3c1.8,0,2.6,1.2,2.6,3.3v5.2h-2v-5c0-1.4-0.4-1.9-1.3-1.9
			c-0.7,0-1.2,0.4-1.9,1v5.8h-2V431.6z"/>
		<path d="M243.5,435.8c0-2.7,1.9-4.4,3.8-4.4c2.3,0,3.4,1.6,3.4,4c0,0.4,0,0.7-0.1,1h-5.3c0.2,1.5,1.1,2.3,2.5,2.3
			c0.7,0,1.3-0.2,1.9-0.6l0.7,1.2c-0.8,0.5-1.8,0.9-2.9,0.9C245.3,440.2,243.5,438.6,243.5,435.8z M249.1,435c0-1.3-0.6-2.1-1.7-2.1
			c-1,0-1.8,0.7-2,2.1H249.1z"/>
		<path d="M252,439l0.9-1.2c0.7,0.6,1.5,0.9,2.3,0.9c0.9,0,1.3-0.4,1.3-1c0-0.7-0.9-1-1.8-1.4c-1.1-0.4-2.3-1-2.3-2.4
			c0-1.4,1.2-2.5,3-2.5c1.2,0,2.1,0.5,2.8,1l-0.9,1.2c-0.6-0.4-1.2-0.7-1.8-0.7c-0.8,0-1.2,0.4-1.2,0.9c0,0.7,0.8,0.9,1.7,1.2
			c1.1,0.4,2.4,1,2.4,2.5c0,1.4-1.1,2.6-3.2,2.6C254,440.2,252.8,439.7,252,439z"/>
		<path d="M260.6,437.2v-4h-1.2v-1.5l1.3-0.1l0.2-2.3h1.6v2.3h2.1v1.6h-2.1v4c0,1,0.4,1.5,1.2,1.5c0.3,0,0.6-0.1,0.9-0.2l0.3,1.4
			c-0.5,0.1-1,0.3-1.7,0.3C261.3,440.2,260.6,439,260.6,437.2z"/>
		<path d="M266,435.8c0-2.7,1.9-4.4,3.8-4.4c2.3,0,3.4,1.6,3.4,4c0,0.4,0,0.7-0.1,1H268c0.2,1.5,1.1,2.3,2.5,2.3
			c0.7,0,1.3-0.2,1.9-0.6l0.7,1.2c-0.8,0.5-1.8,0.9-2.9,0.9C267.9,440.2,266,438.6,266,435.8z M271.7,435c0-1.3-0.6-2.1-1.7-2.1
			c-1,0-1.8,0.7-2,2.1H271.7z"/>
		<path d="M279,431.6h1.6l0.1,0.9h0.1c0.7-0.6,1.6-1.1,2.5-1.1c2.1,0,3.3,1.7,3.3,4.2c0,2.9-1.7,4.5-3.6,4.5c-0.7,0-1.5-0.3-2.1-0.9
			l0.1,1.4v2.6h-2V431.6z M284.6,435.7c0-1.7-0.5-2.7-1.8-2.7c-0.6,0-1.2,0.3-1.8,0.9v3.9c0.6,0.5,1.2,0.7,1.7,0.7
			C283.7,438.6,284.6,437.6,284.6,435.7z"/>
		<path d="M288.2,435.8c0-2.7,1.9-4.4,3.8-4.4c2.3,0,3.4,1.6,3.4,4c0,0.4,0,0.7-0.1,1h-5.3c0.2,1.5,1.1,2.3,2.5,2.3
			c0.7,0,1.3-0.2,1.9-0.6l0.7,1.2c-0.8,0.5-1.8,0.9-2.9,0.9C290,440.2,288.2,438.6,288.2,435.8z M293.8,435c0-1.3-0.6-2.1-1.7-2.1
			c-1,0-1.8,0.7-2,2.1H293.8z"/>
		<path d="M297.5,431.6h1.6l0.1,1.5h0.1c0.6-1.1,1.5-1.7,2.4-1.7c0.4,0,0.7,0.1,0.9,0.2l-0.3,1.7c-0.3-0.1-0.5-0.1-0.9-0.1
			c-0.7,0-1.5,0.5-2,1.7v5.1h-2V431.6z"/>
		<path d="M303.8,429.1c0-0.7,0.5-1.1,1.2-1.1c0.7,0,1.2,0.4,1.2,1.1c0,0.6-0.5,1.1-1.2,1.1C304.3,430.2,303.8,429.7,303.8,429.1z
			 M304,431.6h2v8.3h-2V431.6z"/>
		<path d="M308.1,435.8c0-2.8,1.9-4.4,4-4.4s4,1.6,4,4.4c0,2.8-1.9,4.4-4,4.4S308.1,438.6,308.1,435.8z M314,435.8
			c0-1.7-0.7-2.8-2-2.8c-1.2,0-2,1.1-2,2.8s0.7,2.8,2,2.8C313.3,438.6,314,437.5,314,435.8z"/>
		<path d="M317.6,435.8c0-2.7,1.7-4.4,3.5-4.4c0.9,0,1.5,0.4,2.2,0.9l-0.1-1.3v-3h2v12h-1.6l-0.1-0.9h-0.1c-0.6,0.6-1.5,1.1-2.4,1.1
			C319,440.2,317.6,438.6,317.6,435.8z M323.3,437.6v-3.9c-0.6-0.5-1.1-0.7-1.7-0.7c-1.1,0-1.9,1-1.9,2.7c0,1.8,0.7,2.8,1.9,2.8
			C322.2,438.6,322.7,438.3,323.3,437.6z"/>
		<path d="M327.4,435.8c0-2.8,1.9-4.4,4-4.4s4,1.6,4,4.4c0,2.8-1.9,4.4-4,4.4S327.4,438.6,327.4,435.8z M333.3,435.8
			c0-1.7-0.7-2.8-2-2.8c-1.2,0-2,1.1-2,2.8s0.7,2.8,2,2.8C332.5,438.6,333.3,437.5,333.3,435.8z"/>
		<path d="M337.2,438.9c0-0.8,0.6-1.3,1.3-1.3s1.3,0.6,1.3,1.3c0,0.8-0.6,1.3-1.3,1.3S337.2,439.6,337.2,438.9z"/>
	</g>
</g>
<g>
	<g>
		<path d="M619.5,326.9h2v9.5h4.6v1.7h-6.6V326.9z"/>
		<path d="M627.6,335.7c0-1.8,1.5-2.7,4.9-3.1c0-0.9-0.4-1.6-1.5-1.6c-0.8,0-1.6,0.4-2.3,0.8l-0.7-1.3c0.9-0.6,2.1-1.1,3.4-1.1
			c2.1,0,3.1,1.3,3.1,3.6v4.9h-1.6l-0.1-0.9h-0.1c-0.7,0.6-1.6,1.1-2.6,1.1C628.6,338.2,627.6,337.2,627.6,335.7z M632.5,335.8v-1.9
			c-2.3,0.3-3,0.9-3,1.7c0,0.7,0.5,1.1,1.2,1.1C631.3,336.7,631.9,336.3,632.5,335.8z"/>
		<path d="M640.5,329.6h1.6l0.1,1.1h0.1c0.7-0.7,1.5-1.3,2.6-1.3c1.2,0,1.9,0.6,2.3,1.5c0.8-0.8,1.6-1.5,2.7-1.5
			c1.8,0,2.6,1.2,2.6,3.3v5.2h-2v-5c0-1.4-0.4-1.9-1.3-1.9c-0.5,0-1.1,0.3-1.7,1v5.8h-2v-5c0-1.4-0.4-1.9-1.3-1.9
			c-0.5,0-1.1,0.3-1.7,1v5.8h-2V329.6z"/>
		<path d="M654.6,335.7c0-1.8,1.5-2.7,4.9-3.1c0-0.9-0.4-1.6-1.5-1.6c-0.8,0-1.6,0.4-2.3,0.8l-0.7-1.3c0.9-0.6,2.1-1.1,3.4-1.1
			c2.1,0,3.1,1.3,3.1,3.6v4.9h-1.6l-0.1-0.9h-0.1c-0.7,0.6-1.6,1.1-2.6,1.1C655.6,338.2,654.6,337.2,654.6,335.7z M659.5,335.8v-1.9
			c-2.3,0.3-3,0.9-3,1.7c0,0.7,0.5,1.1,1.2,1.1C658.3,336.7,658.9,336.3,659.5,335.8z"/>
		<path d="M663.4,341.2l0.4-1.5c0.2,0,0.4,0.1,0.6,0.1c0.9,0,1.4-0.6,1.7-1.4l0.2-0.5l-3.3-8.2h2l1.4,4.1c0.3,0.7,0.5,1.6,0.7,2.4
			h0.1c0.2-0.8,0.4-1.6,0.6-2.4l1.2-4.1h1.9l-3,8.7c-0.7,1.9-1.6,3-3.4,3C664.1,341.4,663.7,341.3,663.4,341.2z"/>
		<path d="M672,333.8c0-2.8,1.9-4.4,4-4.4s4,1.6,4,4.4c0,2.8-1.9,4.4-4,4.4S672,336.6,672,333.8z M677.9,333.8c0-1.7-0.7-2.8-2-2.8
			s-2,1.1-2,2.8s0.7,2.8,2,2.8S677.9,335.5,677.9,333.8z"/>
		<path d="M682.1,329.6h1.6l0.1,1.5h0.1c0.6-1.1,1.5-1.7,2.4-1.7c0.4,0,0.7,0.1,0.9,0.2l-0.3,1.7c-0.3-0.1-0.5-0.1-0.9-0.1
			c-0.7,0-1.5,0.5-2,1.7v5.1h-2V329.6z"/>
		<path d="M688.5,327.3l2.5-3l1.3,1.3l-2.9,2.6L688.5,327.3z M688.6,329.6h2v8.3h-2V329.6z"/>
		<path d="M692.7,335.7c0-1.8,1.5-2.7,4.9-3.1c0-0.9-0.4-1.6-1.5-1.6c-0.8,0-1.6,0.4-2.3,0.8l-0.7-1.3c0.9-0.6,2.1-1.1,3.4-1.1
			c2.1,0,3.1,1.3,3.1,3.6v4.9H698l-0.1-0.9h-0.1c-0.7,0.6-1.6,1.1-2.6,1.1C693.7,338.2,692.7,337.2,692.7,335.7z M697.6,335.8v-1.9
			c-2.3,0.3-3,0.9-3,1.7c0,0.7,0.5,1.1,1.2,1.1C696.5,336.7,697,336.3,697.6,335.8z"/>
		<path d="M705.2,333.8c0-2.7,1.7-4.4,3.5-4.4c0.9,0,1.5,0.4,2.2,0.9l-0.1-1.3v-3h2v12h-1.6l-0.1-0.9H711c-0.6,0.6-1.5,1.1-2.4,1.1
			C706.5,338.2,705.2,336.6,705.2,333.8z M710.8,335.6v-3.9c-0.6-0.5-1.1-0.7-1.7-0.7c-1.1,0-1.9,1-1.9,2.7c0,1.8,0.7,2.8,1.9,2.8
			C709.7,336.6,710.3,336.3,710.8,335.6z"/>
		<path d="M714.9,333.8c0-2.7,1.9-4.4,3.8-4.4c2.3,0,3.4,1.6,3.4,4c0,0.4,0,0.7-0.1,1h-5.3c0.2,1.5,1.1,2.3,2.5,2.3
			c0.7,0,1.3-0.2,1.9-0.6l0.7,1.2c-0.8,0.5-1.8,0.9-2.9,0.9C716.7,338.2,714.9,336.6,714.9,333.8z M720.5,333c0-1.3-0.6-2.1-1.7-2.1
			c-1,0-1.8,0.7-2,2.1H720.5z"/>
		<path d="M727.8,335.8V326h2v10c0,0.5,0.2,0.7,0.4,0.7c0.1,0,0.2,0,0.3,0l0.2,1.5c-0.2,0.1-0.6,0.2-1,0.2
			C728.3,338.2,727.8,337.3,727.8,335.8z"/>
		<path d="M732.1,335.7c0-1.8,1.5-2.7,4.9-3.1c0-0.9-0.4-1.6-1.5-1.6c-0.8,0-1.6,0.4-2.3,0.8l-0.7-1.3c0.9-0.6,2.1-1.1,3.4-1.1
			c2.1,0,3.1,1.3,3.1,3.6v4.9h-1.6l-0.1-0.9h-0.1c-0.7,0.6-1.6,1.1-2.6,1.1C733.2,338.2,732.1,337.2,732.1,335.7z M737.1,335.8v-1.9
			c-2.3,0.3-3,0.9-3,1.7c0,0.7,0.5,1.1,1.2,1.1C735.9,336.7,736.4,336.3,737.1,335.8z"/>
		<path d="M740.7,337l0.9-1.2c0.7,0.6,1.5,0.9,2.3,0.9c0.9,0,1.3-0.4,1.3-1c0-0.7-0.9-1-1.8-1.4c-1.1-0.4-2.3-1-2.3-2.4
			c0-1.4,1.2-2.5,3-2.5c1.2,0,2.1,0.5,2.8,1l-0.9,1.2c-0.6-0.4-1.2-0.7-1.8-0.7c-0.8,0-1.2,0.4-1.2,0.9c0,0.7,0.8,0.9,1.7,1.2
			c1.1,0.4,2.4,1,2.4,2.5c0,1.4-1.1,2.6-3.2,2.6C742.7,338.2,741.5,337.7,740.7,337z"/>
		<path d="M640.5,350h2l1.3,4.3c0.2,0.8,0.5,1.7,0.7,2.5h0.1c0.2-0.8,0.5-1.7,0.7-2.5l1.3-4.3h1.9l-2.8,8.3h-2.3L640.5,350z"/>
		<path d="M650.1,347.7l2.5-3l1.3,1.3l-2.9,2.6L650.1,347.7z M650.1,350h2v8.3h-2V350z"/>
		<path d="M654.2,354.2c0-2.8,2-4.4,4.2-4.4c1.1,0,1.8,0.4,2.4,0.9l-1,1.3c-0.4-0.4-0.9-0.6-1.4-0.6c-1.3,0-2.3,1.1-2.3,2.8
			s0.9,2.8,2.2,2.8c0.7,0,1.3-0.3,1.7-0.7l0.8,1.3c-0.8,0.7-1.8,1-2.7,1C656,358.6,654.2,357,654.2,354.2z"/>
		<path d="M663.1,355.6v-4h-1.2v-1.5l1.3-0.1l0.2-2.3h1.6v2.3h2.1v1.6H665v4c0,1,0.4,1.5,1.2,1.5c0.3,0,0.6-0.1,0.9-0.2l0.3,1.4
			c-0.5,0.1-1,0.3-1.7,0.3C663.8,358.6,663.1,357.4,663.1,355.6z"/>
		<path d="M668.9,347.5c0-0.7,0.5-1.1,1.2-1.1c0.7,0,1.2,0.4,1.2,1.1c0,0.6-0.5,1.1-1.2,1.1C669.4,348.6,668.9,348.1,668.9,347.5z
			 M669.1,350h2v8.3h-2V350z"/>
		<path d="M673.7,350h1.6l0.1,1.1h0.1c0.7-0.7,1.5-1.3,2.6-1.3c1.2,0,1.9,0.6,2.3,1.5c0.8-0.8,1.6-1.5,2.7-1.5
			c1.8,0,2.6,1.2,2.6,3.3v5.2h-2v-5c0-1.4-0.4-1.9-1.3-1.9c-0.5,0-1.1,0.3-1.7,1v5.8h-2v-5c0-1.4-0.4-1.9-1.3-1.9
			c-0.5,0-1.1,0.3-1.7,1v5.8h-2V350z"/>
		<path d="M687.8,356.1c0-1.8,1.5-2.7,4.9-3.1c0-0.9-0.4-1.6-1.5-1.6c-0.8,0-1.6,0.4-2.3,0.8l-0.7-1.3c0.9-0.6,2.1-1.1,3.4-1.1
			c2.1,0,3.1,1.3,3.1,3.6v4.9H693l-0.1-0.9h-0.1c-0.7,0.6-1.6,1.1-2.6,1.1C688.8,358.6,687.8,357.6,687.8,356.1z M692.7,356.2v-1.9
			c-2.3,0.3-3,0.9-3,1.7c0,0.7,0.5,1.1,1.2,1.1C691.5,357.1,692.1,356.7,692.7,356.2z"/>
		<path d="M696.3,357.4l0.9-1.2c0.7,0.6,1.5,0.9,2.3,0.9c0.9,0,1.3-0.4,1.3-1c0-0.7-0.9-1-1.8-1.4c-1.1-0.4-2.3-1-2.3-2.4
			c0-1.4,1.2-2.5,3-2.5c1.2,0,2.1,0.5,2.8,1l-0.9,1.2c-0.6-0.4-1.2-0.7-1.8-0.7c-0.8,0-1.2,0.4-1.2,0.9c0,0.7,0.8,0.9,1.7,1.2
			c1.1,0.4,2.4,1,2.4,2.5c0,1.4-1.1,2.6-3.2,2.6C698.4,358.6,697.2,358.1,696.3,357.4z"/>
		<path d="M707.7,354.2c0-2.7,1.7-4.4,3.5-4.4c0.9,0,1.5,0.4,2.2,0.9l-0.1-1.3v-3h2v12h-1.6l-0.1-0.9h-0.1c-0.6,0.6-1.5,1.1-2.4,1.1
			C709.1,358.6,707.7,357,707.7,354.2z M713.4,356v-3.9c-0.6-0.5-1.1-0.7-1.7-0.7c-1.1,0-1.9,1-1.9,2.7c0,1.8,0.7,2.8,1.9,2.8
			C712.3,357,712.8,356.7,713.4,356z"/>
		<path d="M717.4,354.2c0-2.7,1.9-4.4,3.8-4.4c2.3,0,3.4,1.6,3.4,4c0,0.4,0,0.7-0.1,1h-5.3c0.2,1.5,1.1,2.3,2.5,2.3
			c0.7,0,1.3-0.2,1.9-0.6l0.7,1.2c-0.8,0.5-1.8,0.9-2.9,0.9C719.2,358.6,717.4,357,717.4,354.2z M723,353.4c0-1.3-0.6-2.1-1.7-2.1
			c-1,0-1.8,0.7-2,2.1H723z"/>
		<path d="M635.3,374.6c0-2.7,1.7-4.4,3.5-4.4c0.9,0,1.5,0.4,2.2,0.9l-0.1-1.3v-3h2v12h-1.6l-0.1-0.9h-0.1c-0.6,0.6-1.5,1.1-2.4,1.1
			C636.7,379,635.3,377.4,635.3,374.6z M641,376.4v-3.9c-0.6-0.5-1.1-0.7-1.7-0.7c-1.1,0-1.9,1-1.9,2.7c0,1.8,0.7,2.8,1.9,2.8
			C639.9,377.4,640.4,377.1,641,376.4z"/>
		<path d="M645,374.6c0-2.7,1.9-4.4,3.8-4.4c2.3,0,3.4,1.6,3.4,4c0,0.4,0,0.7-0.1,1H647c0.2,1.5,1.1,2.3,2.5,2.3
			c0.7,0,1.3-0.2,1.9-0.6l0.7,1.2c-0.8,0.5-1.8,0.9-2.9,0.9C646.9,379,645,377.4,645,374.6z M650.7,373.8c0-1.3-0.6-2.1-1.7-2.1
			c-1,0-1.8,0.7-2,2.1H650.7z"/>
		<path d="M653.6,377.8l0.9-1.2c0.7,0.6,1.5,0.9,2.3,0.9c0.9,0,1.3-0.4,1.3-1c0-0.7-0.9-1-1.8-1.4c-1.1-0.4-2.3-1-2.3-2.4
			c0-1.4,1.2-2.5,3-2.5c1.2,0,2.1,0.5,2.8,1l-0.9,1.2c-0.6-0.4-1.2-0.7-1.8-0.7c-0.8,0-1.2,0.4-1.2,0.9c0,0.7,0.8,0.9,1.7,1.2
			c1.1,0.4,2.4,1,2.4,2.5c0,1.4-1.1,2.6-3.2,2.6C655.6,379,654.4,378.5,653.6,377.8z"/>
		<path d="M661.4,376.5c0-1.8,1.5-2.7,4.9-3.1c0-0.9-0.4-1.6-1.5-1.6c-0.8,0-1.6,0.4-2.3,0.8l-0.7-1.3c0.9-0.6,2.1-1.1,3.4-1.1
			c2.1,0,3.1,1.3,3.1,3.6v4.9h-1.6l-0.1-0.9h-0.1c-0.7,0.6-1.6,1.1-2.6,1.1C662.4,379,661.4,378,661.4,376.5z M666.3,376.6v-1.9
			c-2.3,0.3-3,0.9-3,1.7c0,0.7,0.5,1.1,1.2,1.1C665.2,377.5,665.7,377.1,666.3,376.6z"/>
		<path d="M670.8,370.4h1.6l0.1,0.9h0.1c0.7-0.6,1.6-1.1,2.5-1.1c2.1,0,3.3,1.7,3.3,4.2c0,2.9-1.7,4.5-3.6,4.5
			c-0.7,0-1.5-0.3-2.1-0.9l0.1,1.4v2.6h-2V370.4z M676.4,374.5c0-1.7-0.5-2.7-1.8-2.7c-0.6,0-1.2,0.3-1.8,0.9v3.9
			c0.6,0.5,1.2,0.7,1.7,0.7C675.6,377.4,676.4,376.4,676.4,374.5z"/>
		<path d="M680.1,376.5c0-1.8,1.5-2.7,4.9-3.1c0-0.9-0.4-1.6-1.5-1.6c-0.8,0-1.6,0.4-2.3,0.8l-0.7-1.3c0.9-0.6,2.1-1.1,3.4-1.1
			c2.1,0,3.1,1.3,3.1,3.6v4.9h-1.6l-0.1-0.9h-0.1c-0.7,0.6-1.6,1.1-2.6,1.1C681.1,379,680.1,378,680.1,376.5z M685,376.6v-1.9
			c-2.3,0.3-3,0.9-3,1.7c0,0.7,0.5,1.1,1.2,1.1C683.9,377.5,684.4,377.1,685,376.6z"/>
		<path d="M689.5,370.4h1.6l0.1,1.5h0.1c0.6-1.1,1.5-1.7,2.4-1.7c0.4,0,0.7,0.1,0.9,0.2l-0.3,1.7c-0.3-0.1-0.5-0.1-0.9-0.1
			c-0.7,0-1.5,0.5-2,1.7v5.1h-2V370.4z"/>
		<path d="M695.8,367.9c0-0.7,0.5-1.1,1.2-1.1s1.2,0.4,1.2,1.1c0,0.6-0.5,1.1-1.2,1.1S695.8,368.5,695.8,367.9z M696,370.4h2v8.3h-2
			V370.4z"/>
		<path d="M700.1,374.6c0-2.8,2-4.4,4.2-4.4c1.1,0,1.8,0.4,2.4,0.9l-1,1.3c-0.4-0.4-0.9-0.6-1.4-0.6c-1.3,0-2.3,1.1-2.3,2.8
			s0.9,2.8,2.2,2.8c0.7,0,1.3-0.3,1.7-0.7l0.8,1.3c-0.8,0.7-1.8,1-2.7,1C701.9,379,700.1,377.4,700.1,374.6z"/>
		<path d="M708.5,367.9c0-0.7,0.5-1.1,1.2-1.1c0.7,0,1.2,0.4,1.2,1.1c0,0.6-0.5,1.1-1.2,1.1C709,369,708.5,368.5,708.5,367.9z
			 M708.7,370.4h2v8.3h-2V370.4z"/>
		<path d="M712.8,374.6c0-2.8,1.9-4.4,4-4.4c2.1,0,4,1.6,4,4.4c0,2.8-1.9,4.4-4,4.4C714.6,379,712.8,377.4,712.8,374.6z
			 M718.7,374.6c0-1.7-0.7-2.8-2-2.8c-1.2,0-2,1.1-2,2.8s0.7,2.8,2,2.8C718,377.4,718.7,376.3,718.7,374.6z M715.7,368.1l2.5-3
			l1.3,1.3l-2.9,2.6L715.7,368.1z"/>
		<path d="M722.8,370.4h1.6l0.1,1.1h0.1c0.7-0.7,1.6-1.3,2.7-1.3c1.8,0,2.6,1.2,2.6,3.3v5.2h-2v-5c0-1.4-0.4-1.9-1.3-1.9
			c-0.7,0-1.2,0.4-1.9,1v5.8h-2V370.4z"/>
		<path d="M623.3,390.9l1.2-0.1h3.5v1.6h-4.7V390.9z M624.5,390c0-1.7,0.8-3,2.8-3c0.6,0,1.2,0.1,1.5,0.3l-0.4,1.5
			c-0.3-0.1-0.6-0.2-0.9-0.2c-0.7,0-1.1,0.4-1.1,1.4v9.2h-2V390z"/>
		<path d="M629.1,395c0-2.8,1.9-4.4,4-4.4s4,1.6,4,4.4c0,2.8-1.9,4.4-4,4.4S629.1,397.8,629.1,395z M635.1,395c0-1.7-0.7-2.8-2-2.8
			s-2,1.1-2,2.8s0.7,2.8,2,2.8S635.1,396.7,635.1,395z"/>
		<path d="M639.2,390.8h1.6l0.1,1.5h0.1c0.6-1.1,1.5-1.7,2.4-1.7c0.4,0,0.7,0.1,0.9,0.2l-0.3,1.7c-0.3-0.1-0.5-0.1-0.9-0.1
			c-0.7,0-1.5,0.5-2,1.7v5.1h-2V390.8z"/>
		<path d="M645,398.1l3.9-5.7h-3.5v-1.6h5.9v1l-3.9,5.7h4.1v1.6H645V398.1z"/>
		<path d="M652.9,396.9c0-1.8,1.5-2.7,4.9-3.1c0-0.9-0.4-1.6-1.5-1.6c-0.8,0-1.6,0.4-2.3,0.8l-0.7-1.3c0.9-0.6,2.1-1.1,3.4-1.1
			c2.1,0,3.1,1.3,3.1,3.6v4.9h-1.6l-0.1-0.9H658c-0.7,0.6-1.6,1.1-2.6,1.1C654,399.4,652.9,398.4,652.9,396.9z M657.9,397v-1.9
			c-2.3,0.3-3,0.9-3,1.7c0,0.7,0.5,1.1,1.2,1.1C656.7,397.9,657.2,397.5,657.9,397z"/>
		<path d="M661.8,395c0-2.7,1.7-4.4,3.5-4.4c0.9,0,1.5,0.4,2.2,0.9l-0.1-1.3v-3h2v12h-1.6l-0.1-0.9h-0.1c-0.6,0.6-1.5,1.1-2.4,1.1
			C663.2,399.4,661.8,397.8,661.8,395z M667.5,396.8v-3.9c-0.6-0.5-1.1-0.7-1.7-0.7c-1.1,0-1.9,1-1.9,2.7c0,1.8,0.7,2.8,1.9,2.8
			C666.4,397.8,666.9,397.5,667.5,396.8z"/>
		<path d="M671.6,396.9c0-1.8,1.5-2.7,4.9-3.1c0-0.9-0.4-1.6-1.5-1.6c-0.8,0-1.6,0.4-2.3,0.8l-0.7-1.3c0.9-0.6,2.1-1.1,3.4-1.1
			c2.1,0,3.1,1.3,3.1,3.6v4.9h-1.6l-0.1-0.9h-0.1c-0.7,0.6-1.6,1.1-2.6,1.1C672.6,399.4,671.6,398.4,671.6,396.9z M676.6,397v-1.9
			c-2.3,0.3-3,0.9-3,1.7c0,0.7,0.5,1.1,1.2,1.1C675.4,397.9,675.9,397.5,676.6,397z"/>
		<path d="M684.1,395c0-2.7,1.7-4.4,3.5-4.4c0.9,0,1.5,0.4,2.2,0.9l-0.1-1.3v-3h2v12h-1.6l-0.1-0.9h-0.1c-0.6,0.6-1.5,1.1-2.4,1.1
			C685.4,399.4,684.1,397.8,684.1,395z M689.7,396.8v-3.9c-0.6-0.5-1.1-0.7-1.7-0.7c-1.1,0-1.9,1-1.9,2.7c0,1.8,0.7,2.8,1.9,2.8
			C688.6,397.8,689.2,397.5,689.7,396.8z"/>
		<path d="M694.3,396.1v-5.2h2v5c0,1.4,0.4,1.9,1.3,1.9c0.7,0,1.2-0.3,1.8-1.2v-5.7h2v8.3h-1.6l-0.1-1.2h-0.1
			c-0.7,0.9-1.5,1.4-2.7,1.4C695,399.4,694.3,398.2,694.3,396.1z"/>
		<path d="M704,390.8h1.6l0.1,1.5h0.1c0.6-1.1,1.5-1.7,2.4-1.7c0.4,0,0.7,0.1,0.9,0.2l-0.3,1.7c-0.3-0.1-0.5-0.1-0.9-0.1
			c-0.7,0-1.5,0.5-2,1.7v5.1h-2V390.8z"/>
		<path d="M710,396.9c0-1.8,1.5-2.7,4.9-3.1c0-0.9-0.4-1.6-1.5-1.6c-0.8,0-1.6,0.4-2.3,0.8l-0.7-1.3c0.9-0.6,2.1-1.1,3.4-1.1
			c2.1,0,3.1,1.3,3.1,3.6v4.9h-1.6l-0.1-0.9h-0.1c-0.7,0.6-1.6,1.1-2.6,1.1C711.1,399.4,710,398.4,710,396.9z M715,397v-1.9
			c-2.3,0.3-3,0.9-3,1.7c0,0.7,0.5,1.1,1.2,1.1C713.8,397.9,714.3,397.5,715,397z"/>
		<path d="M719.4,390.8h1.6l0.1,1.1h0.1c0.7-0.7,1.6-1.3,2.7-1.3c1.8,0,2.6,1.2,2.6,3.3v5.2h-2v-5c0-1.4-0.4-1.9-1.3-1.9
			c-0.7,0-1.2,0.4-1.9,1v5.8h-2V390.8z"/>
		<path d="M729.4,396.4v-4h-1.2v-1.5l1.3-0.1l0.2-2.3h1.6v2.3h2.1v1.6h-2.1v4c0,1,0.4,1.5,1.2,1.5c0.3,0,0.6-0.1,0.9-0.2l0.3,1.4
			c-0.5,0.1-1,0.3-1.7,0.3C730.1,399.4,729.4,398.2,729.4,396.4z"/>
		<path d="M734.9,395c0-2.7,1.9-4.4,3.8-4.4c2.3,0,3.4,1.6,3.4,4c0,0.4,0,0.7-0.1,1h-5.3c0.2,1.5,1.1,2.3,2.5,2.3
			c0.7,0,1.3-0.2,1.9-0.6l0.7,1.2c-0.8,0.5-1.8,0.9-2.9,0.9C736.7,399.4,734.9,397.8,734.9,395z M740.5,394.2c0-1.3-0.6-2.1-1.7-2.1
			c-1,0-1.8,0.7-2,2.1H740.5z"/>
		<path d="M608.7,415.4c0-2.7,1.9-4.4,3.8-4.4c2.3,0,3.4,1.6,3.4,4c0,0.4,0,0.7-0.1,1h-5.3c0.2,1.5,1.1,2.3,2.5,2.3
			c0.7,0,1.3-0.2,1.9-0.6l0.7,1.2c-0.8,0.5-1.8,0.9-2.9,0.9C610.5,419.8,608.7,418.2,608.7,415.4z M614.3,414.6
			c0-1.3-0.6-2.1-1.7-2.1c-1,0-1.8,0.7-2,2.1H614.3z"/>
		<path d="M617.2,418.6l0.9-1.2c0.7,0.6,1.5,0.9,2.3,0.9c0.9,0,1.3-0.4,1.3-1c0-0.7-0.9-1-1.8-1.4c-1.1-0.4-2.3-1-2.3-2.4
			c0-1.4,1.2-2.5,3-2.5c1.2,0,2.1,0.5,2.8,1l-0.9,1.2c-0.6-0.4-1.2-0.7-1.8-0.7c-0.8,0-1.2,0.4-1.2,0.9c0,0.7,0.8,0.9,1.7,1.2
			c1.1,0.4,2.4,1,2.4,2.5c0,1.4-1.1,2.6-3.2,2.6C619.2,419.8,618,419.3,617.2,418.6z"/>
		<path d="M625.8,416.8v-4h-1.2v-1.5l1.3-0.1l0.2-2.3h1.6v2.3h2.1v1.6h-2.1v4c0,1,0.4,1.5,1.2,1.5c0.3,0,0.6-0.1,0.9-0.2l0.3,1.4
			c-0.5,0.1-1,0.3-1.7,0.3C626.5,419.8,625.8,418.6,625.8,416.8z"/>
		<path d="M631.3,415.4c0-2.8,1.9-4.4,4-4.4s4,1.6,4,4.4c0,2.8-1.9,4.4-4,4.4S631.3,418.2,631.3,415.4z M637.2,415.4
			c0-1.7-0.7-2.8-2-2.8s-2,1.1-2,2.8s0.7,2.8,2,2.8S637.2,417.1,637.2,415.4z"/>
		<path d="M640.5,418.6l0.9-1.2c0.7,0.6,1.5,0.9,2.3,0.9c0.9,0,1.3-0.4,1.3-1c0-0.7-0.9-1-1.8-1.4c-1.1-0.4-2.3-1-2.3-2.4
			c0-1.4,1.2-2.5,3-2.5c1.2,0,2.1,0.5,2.8,1l-0.9,1.2c-0.6-0.4-1.2-0.7-1.8-0.7c-0.8,0-1.2,0.4-1.2,0.9c0,0.7,0.8,0.9,1.7,1.2
			c1.1,0.4,2.4,1,2.4,2.5c0,1.4-1.1,2.6-3.2,2.6C642.5,419.8,641.3,419.3,640.5,418.6z"/>
		<path d="M651.9,417.3c0-1.8,1.5-2.7,4.9-3.1c0-0.9-0.4-1.6-1.5-1.6c-0.8,0-1.6,0.4-2.3,0.8l-0.7-1.3c0.9-0.6,2.1-1.1,3.4-1.1
			c2.1,0,3.1,1.3,3.1,3.6v4.9h-1.6l-0.1-0.9H657c-0.7,0.6-1.6,1.1-2.6,1.1C652.9,419.8,651.9,418.8,651.9,417.3z M656.8,417.4v-1.9
			c-2.3,0.3-3,0.9-3,1.7c0,0.7,0.5,1.1,1.2,1.1C655.7,418.3,656.2,417.9,656.8,417.4z"/>
		<path d="M661.3,411.2h1.6l0.1,1.1h0.1c0.7-0.7,1.6-1.3,2.7-1.3c1.8,0,2.6,1.2,2.6,3.3v5.2h-2v-5c0-1.4-0.4-1.9-1.3-1.9
			c-0.7,0-1.2,0.4-1.9,1v5.8h-2V411.2z M664,408.6c-0.4,0-0.6,0.4-0.7,1.1l-1.3-0.1c0-1.5,0.7-2.4,1.9-2.4c1.1,0,1.7,1.3,2.3,1.3
			c0.4,0,0.6-0.4,0.7-1.1l1.3,0.1c0,1.5-0.7,2.4-1.9,2.4C665.2,409.8,664.7,408.6,664,408.6z"/>
		<path d="M670.5,415.4c0-2.8,1.9-4.4,4-4.4s4,1.6,4,4.4c0,2.8-1.9,4.4-4,4.4S670.5,418.2,670.5,415.4z M676.4,415.4
			c0-1.7-0.7-2.8-2-2.8s-2,1.1-2,2.8s0.7,2.8,2,2.8S676.4,417.1,676.4,415.4z"/>
		<path d="M679.7,418.6l0.9-1.2c0.7,0.6,1.5,0.9,2.3,0.9c0.9,0,1.3-0.4,1.3-1c0-0.7-0.9-1-1.8-1.4c-1.1-0.4-2.3-1-2.3-2.4
			c0-1.4,1.2-2.5,3-2.5c1.2,0,2.1,0.5,2.8,1l-0.9,1.2c-0.6-0.4-1.2-0.7-1.8-0.7c-0.8,0-1.2,0.4-1.2,0.9c0,0.7,0.8,0.9,1.7,1.2
			c1.1,0.4,2.4,1,2.4,2.5c0,1.4-1.1,2.6-3.2,2.6C681.7,419.8,680.5,419.3,679.7,418.6z"/>
		<path d="M691.6,417.4v-9.9h2v10c0,0.5,0.2,0.7,0.4,0.7c0.1,0,0.2,0,0.3,0l0.2,1.5c-0.2,0.1-0.6,0.2-1,0.2
			C692.1,419.8,691.6,418.9,691.6,417.4z"/>
		<path d="M695.8,415.4c0-2.8,1.9-4.4,4-4.4c2.1,0,4,1.6,4,4.4c0,2.8-1.9,4.4-4,4.4C697.7,419.8,695.8,418.2,695.8,415.4z
			 M701.7,415.4c0-1.7-0.7-2.8-2-2.8c-1.2,0-2,1.1-2,2.8s0.7,2.8,2,2.8C701,418.2,701.7,417.1,701.7,415.4z"/>
		<path d="M708.7,411.3l1.2-0.1h3.5v1.6h-4.7V411.3z M709.8,410.4c0-1.7,0.8-3,2.8-3c0.6,0,1.2,0.1,1.5,0.3l-0.4,1.5
			c-0.3-0.1-0.6-0.2-0.9-0.2c-0.7,0-1.1,0.4-1.1,1.4v9.2h-2V410.4z"/>
		<path d="M714.9,416.5v-5.2h2v5c0,1.4,0.4,1.9,1.3,1.9c0.7,0,1.2-0.3,1.8-1.2v-5.7h2v8.3h-1.6l-0.1-1.2h-0.1
			c-0.7,0.9-1.5,1.4-2.7,1.4C715.7,419.8,714.9,418.6,714.9,416.5z"/>
		<path d="M724.1,415.4c0-2.7,1.9-4.4,3.8-4.4c2.3,0,3.4,1.6,3.4,4c0,0.4,0,0.7-0.1,1H726c0.2,1.5,1.1,2.3,2.5,2.3
			c0.7,0,1.3-0.2,1.9-0.6l0.7,1.2c-0.8,0.5-1.8,0.9-2.9,0.9C725.9,419.8,724.1,418.2,724.1,415.4z M729.7,414.6
			c0-1.3-0.6-2.1-1.7-2.1c-1,0-1.8,0.7-2,2.1H729.7z"/>
		<path d="M733.4,411.2h1.6l0.1,1.5h0.1c0.6-1.1,1.5-1.7,2.4-1.7c0.4,0,0.7,0.1,0.9,0.2l-0.3,1.7c-0.3-0.1-0.5-0.1-0.9-0.1
			c-0.7,0-1.5,0.5-2,1.7v5.1h-2V411.2z"/>
		<path d="M739.4,415.4c0-2.8,1.9-4.4,4-4.4s4,1.6,4,4.4c0,2.8-1.9,4.4-4,4.4S739.4,418.2,739.4,415.4z M745.3,415.4
			c0-1.7-0.7-2.8-2-2.8s-2,1.1-2,2.8s0.7,2.8,2,2.8S745.3,417.1,745.3,415.4z"/>
		<path d="M749.4,411.2h1.6l0.1,1.1h0.1c0.7-0.7,1.6-1.3,2.7-1.3c1.8,0,2.6,1.2,2.6,3.3v5.2h-2v-5c0-1.4-0.4-1.9-1.3-1.9
			c-0.7,0-1.2,0.4-1.9,1v5.8h-2V411.2z"/>
		<path d="M613.6,437.7c0-1.8,1.5-2.7,4.9-3.1c0-0.9-0.4-1.6-1.5-1.6c-0.8,0-1.6,0.4-2.3,0.8l-0.7-1.3c0.9-0.6,2.1-1.1,3.4-1.1
			c2.1,0,3.1,1.3,3.1,3.6v4.9h-1.6l-0.1-0.9h-0.1c-0.7,0.6-1.6,1.1-2.6,1.1C614.6,440.2,613.6,439.2,613.6,437.7z M618.5,437.8v-1.9
			c-2.3,0.3-3,0.9-3,1.7c0,0.7,0.5,1.1,1.2,1.1C617.4,438.7,617.9,438.3,618.5,437.8z"/>
		<path d="M626.6,431.6h1.6l0.1,1.1h0.1c0.7-0.7,1.5-1.3,2.6-1.3c1.2,0,1.9,0.6,2.3,1.5c0.8-0.8,1.6-1.5,2.7-1.5
			c1.8,0,2.6,1.2,2.6,3.3v5.2h-2v-5c0-1.4-0.4-1.9-1.3-1.9c-0.5,0-1.1,0.3-1.7,1v5.8h-2v-5c0-1.4-0.4-1.9-1.3-1.9
			c-0.5,0-1.1,0.3-1.7,1v5.8h-2V431.6z"/>
		<path d="M640.6,437.7c0-1.8,1.5-2.7,4.9-3.1c0-0.9-0.4-1.6-1.5-1.6c-0.8,0-1.6,0.4-2.3,0.8l-0.7-1.3c0.9-0.6,2.1-1.1,3.4-1.1
			c2.1,0,3.1,1.3,3.1,3.6v4.9h-1.6l-0.1-0.9h-0.1c-0.7,0.6-1.6,1.1-2.6,1.1C641.6,440.2,640.6,439.2,640.6,437.7z M645.5,437.8v-1.9
			c-2.3,0.3-3,0.9-3,1.7c0,0.7,0.5,1.1,1.2,1.1C644.4,438.7,644.9,438.3,645.5,437.8z"/>
		<path d="M650,431.6h1.6l0.1,1.1h0.1c0.7-0.7,1.6-1.3,2.7-1.3c1.8,0,2.6,1.2,2.6,3.3v5.2h-2v-5c0-1.4-0.4-1.9-1.3-1.9
			c-0.7,0-1.2,0.4-1.9,1v5.8h-2V431.6z"/>
		<path d="M659.1,435.8c0-2.8,1.9-4.4,4-4.4s4,1.6,4,4.4c0,2.8-1.9,4.4-4,4.4S659.1,438.6,659.1,435.8z M665.1,435.8
			c0-1.7-0.7-2.8-2-2.8s-2,1.1-2,2.8s0.7,2.8,2,2.8S665.1,437.5,665.1,435.8z"/>
		<path d="M668.4,439l0.9-1.2c0.7,0.6,1.5,0.9,2.3,0.9c0.9,0,1.3-0.4,1.3-1c0-0.7-0.9-1-1.8-1.4c-1.1-0.4-2.3-1-2.3-2.4
			c0-1.4,1.2-2.5,3-2.5c1.2,0,2.1,0.5,2.8,1l-0.9,1.2c-0.6-0.4-1.2-0.7-1.8-0.7c-0.8,0-1.2,0.4-1.2,0.9c0,0.7,0.8,0.9,1.7,1.2
			c1.1,0.4,2.4,1,2.4,2.5c0,1.4-1.1,2.6-3.2,2.6C670.4,440.2,669.2,439.7,668.4,439z"/>
		<path d="M679.8,435.8c0-2.7,1.7-4.4,3.5-4.4c0.9,0,1.5,0.4,2.2,0.9l-0.1-1.3v-3h2v12h-1.6l-0.1-0.9h-0.1c-0.6,0.6-1.5,1.1-2.4,1.1
			C681.1,440.2,679.8,438.6,679.8,435.8z M685.4,437.6v-3.9c-0.6-0.5-1.1-0.7-1.7-0.7c-1.1,0-1.9,1-1.9,2.7c0,1.8,0.7,2.8,1.9,2.8
			C684.3,438.6,684.9,438.3,685.4,437.6z"/>
		<path d="M689.5,435.8c0-2.7,1.9-4.4,3.8-4.4c2.3,0,3.4,1.6,3.4,4c0,0.4,0,0.7-0.1,1h-5.3c0.2,1.5,1.1,2.3,2.5,2.3
			c0.7,0,1.3-0.2,1.9-0.6l0.7,1.2c-0.8,0.5-1.8,0.9-2.9,0.9C691.3,440.2,689.5,438.6,689.5,435.8z M695.1,435c0-1.3-0.6-2.1-1.7-2.1
			c-1,0-1.8,0.7-2,2.1H695.1z"/>
		<path d="M701.8,441.5c0-0.7,0.4-1.3,1.2-1.8v-0.1c-0.4-0.3-0.8-0.7-0.8-1.4c0-0.6,0.4-1.2,0.9-1.6v-0.1c-0.6-0.4-1.1-1.2-1.1-2.2
			c0-1.9,1.5-3,3.3-3c0.5,0,0.9,0.1,1.2,0.2h3v1.5h-1.5c0.3,0.3,0.5,0.8,0.5,1.4c0,1.9-1.4,2.8-3.2,2.8c-0.4,0-0.8-0.1-1.1-0.2
			c-0.3,0.2-0.4,0.4-0.4,0.8c0,0.5,0.3,0.8,1.4,0.8h1.5c2,0,3.1,0.6,3.1,2.1c0,1.6-1.7,2.9-4.5,2.9
			C703.3,443.7,701.8,443,701.8,441.5z M707.9,441.1c0-0.6-0.5-0.8-1.5-0.8h-1.1c-0.4,0-0.8,0-1.1-0.1c-0.4,0.3-0.6,0.7-0.6,1.1
			c0,0.8,0.8,1.2,2.1,1.2C706.9,442.4,707.9,441.8,707.9,441.1z M706.8,434.4c0-1-0.6-1.6-1.4-1.6c-0.8,0-1.4,0.6-1.4,1.6
			c0,1.1,0.6,1.7,1.4,1.7C706.2,436.1,706.8,435.5,706.8,434.4z"/>
		<path d="M711.4,431.6h1.6l0.1,1.5h0.1c0.6-1.1,1.5-1.7,2.4-1.7c0.4,0,0.7,0.1,0.9,0.2l-0.3,1.7c-0.3-0.1-0.5-0.1-0.9-0.1
			c-0.7,0-1.5,0.5-2,1.7v5.1h-2V431.6z"/>
		<path d="M717.8,436.9v-5.2h2v5c0,1.4,0.4,1.9,1.3,1.9c0.7,0,1.2-0.3,1.8-1.2v-5.7h2v8.3h-1.6l-0.1-1.2h-0.1
			c-0.7,0.9-1.5,1.4-2.7,1.4C718.6,440.2,717.8,439,717.8,436.9z"/>
		<path d="M727.5,431.6h1.6l0.1,0.9h0.1c0.7-0.6,1.6-1.1,2.5-1.1c2.1,0,3.3,1.7,3.3,4.2c0,2.9-1.7,4.5-3.6,4.5
			c-0.7,0-1.5-0.3-2.1-0.9l0.1,1.4v2.6h-2V431.6z M733.1,435.7c0-1.7-0.5-2.7-1.8-2.7c-0.6,0-1.2,0.3-1.8,0.9v3.9
			c0.6,0.5,1.2,0.7,1.7,0.7C732.3,438.6,733.1,437.6,733.1,435.7z"/>
		<path d="M736.7,435.8c0-2.8,1.9-4.4,4-4.4s4,1.6,4,4.4c0,2.8-1.9,4.4-4,4.4S736.7,438.6,736.7,435.8z M742.7,435.8
			c0-1.7-0.7-2.8-2-2.8s-2,1.1-2,2.8s0.7,2.8,2,2.8S742.7,437.5,742.7,435.8z"/>
		<path d="M746,439l0.9-1.2c0.7,0.6,1.5,0.9,2.3,0.9c0.9,0,1.3-0.4,1.3-1c0-0.7-0.9-1-1.8-1.4c-1.1-0.4-2.3-1-2.3-2.4
			c0-1.4,1.2-2.5,3-2.5c1.2,0,2.1,0.5,2.8,1l-0.9,1.2c-0.6-0.4-1.2-0.7-1.8-0.7c-0.8,0-1.2,0.4-1.2,0.9c0,0.7,0.8,0.9,1.7,1.2
			c1.1,0.4,2.4,1,2.4,2.5c0,1.4-1.1,2.6-3.2,2.6C748,440.2,746.8,439.7,746,439z"/>
		<path d="M631.4,452h1.6l0.1,0.9h0.1c0.7-0.6,1.6-1.1,2.5-1.1c2.1,0,3.3,1.7,3.3,4.2c0,2.9-1.7,4.5-3.6,4.5c-0.7,0-1.5-0.3-2.1-0.9
			l0.1,1.4v2.6h-2V452z M637,456.1c0-1.7-0.5-2.7-1.8-2.7c-0.6,0-1.2,0.3-1.8,0.9v3.9c0.6,0.5,1.2,0.7,1.7,0.7
			C636.1,459,637,458,637,456.1z"/>
		<path d="M640.7,458.1c0-1.8,1.5-2.7,4.9-3.1c0-0.9-0.4-1.6-1.5-1.6c-0.8,0-1.6,0.4-2.3,0.8l-0.7-1.3c0.9-0.6,2.1-1.1,3.4-1.1
			c2.1,0,3.1,1.3,3.1,3.6v4.9H646l-0.1-0.9h-0.1c-0.7,0.6-1.6,1.1-2.6,1.1C641.7,460.6,640.7,459.6,640.7,458.1z M645.6,458.2v-1.9
			c-2.3,0.3-3,0.9-3,1.7c0,0.7,0.5,1.1,1.2,1.1C644.5,459.1,645,458.7,645.6,458.2z"/>
		<path d="M650.1,452h1.6l0.1,1.5h0.1c0.6-1.1,1.5-1.7,2.4-1.7c0.4,0,0.7,0.1,0.9,0.2l-0.3,1.7c-0.3-0.1-0.5-0.1-0.9-0.1
			c-0.7,0-1.5,0.5-2,1.7v5.1h-2V452z"/>
		<path d="M656.1,458.1c0-1.8,1.5-2.7,4.9-3.1c0-0.9-0.4-1.6-1.5-1.6c-0.8,0-1.6,0.4-2.3,0.8l-0.7-1.3c0.9-0.6,2.1-1.1,3.4-1.1
			c2.1,0,3.1,1.3,3.1,3.6v4.9h-1.6l-0.1-0.9h-0.1c-0.7,0.6-1.6,1.1-2.6,1.1C657.2,460.6,656.1,459.6,656.1,458.1z M661.1,458.2v-1.9
			c-2.3,0.3-3,0.9-3,1.7c0,0.7,0.5,1.1,1.2,1.1C659.9,459.1,660.4,458.7,661.1,458.2z"/>
		<path d="M665.5,452h1.6l0.1,1.1h0.1c0.7-0.7,1.5-1.3,2.6-1.3c1.2,0,1.9,0.6,2.3,1.5c0.8-0.8,1.6-1.5,2.7-1.5
			c1.8,0,2.6,1.2,2.6,3.3v5.2h-2v-5c0-1.4-0.4-1.9-1.3-1.9c-0.5,0-1.1,0.3-1.7,1v5.8h-2v-5c0-1.4-0.4-1.9-1.3-1.9
			c-0.5,0-1.1,0.3-1.7,1v5.8h-2V452z"/>
		<path d="M679.8,449.5c0-0.7,0.5-1.1,1.2-1.1s1.2,0.4,1.2,1.1c0,0.6-0.5,1.1-1.2,1.1S679.8,450.1,679.8,449.5z M680,452h2v8.3h-2
			V452z"/>
		<path d="M684.7,458.2v-9.9h2v10c0,0.5,0.2,0.7,0.4,0.7c0.1,0,0.2,0,0.3,0l0.2,1.5c-0.2,0.1-0.6,0.2-1,0.2
			C685.2,460.6,684.7,459.7,684.7,458.2z"/>
		<path d="M689.2,449.5c0-0.7,0.5-1.1,1.2-1.1c0.7,0,1.2,0.4,1.2,1.1c0,0.6-0.5,1.1-1.2,1.1C689.7,450.6,689.2,450.1,689.2,449.5z
			 M689.4,452h2v8.3h-2V452z"/>
		<path d="M694.4,457.6v-4h-1.2v-1.5l1.3-0.1l0.2-2.3h1.6v2.3h2.1v1.6h-2.1v4c0,1,0.4,1.5,1.2,1.5c0.3,0,0.6-0.1,0.9-0.2l0.3,1.4
			c-0.5,0.1-1,0.3-1.7,0.3C695.1,460.6,694.4,459.4,694.4,457.6z"/>
		<path d="M699.9,458.1c0-1.8,1.5-2.7,4.9-3.1c0-0.9-0.4-1.6-1.5-1.6c-0.8,0-1.6,0.4-2.3,0.8l-0.7-1.3c0.9-0.6,2.1-1.1,3.4-1.1
			c2.1,0,3.1,1.3,3.1,3.6v4.9h-1.6l-0.1-0.9H705c-0.7,0.6-1.6,1.1-2.6,1.1C700.9,460.6,699.9,459.6,699.9,458.1z M704.8,458.2v-1.9
			c-2.3,0.3-3,0.9-3,1.7c0,0.7,0.5,1.1,1.2,1.1C703.7,459.1,704.2,458.7,704.8,458.2z"/>
		<path d="M709.3,452h1.6l0.1,1.5h0.1c0.6-1.1,1.5-1.7,2.4-1.7c0.4,0,0.7,0.1,0.9,0.2l-0.3,1.7c-0.3-0.1-0.5-0.1-0.9-0.1
			c-0.7,0-1.5,0.5-2,1.7v5.1h-2V452z"/>
		<path d="M715.3,456.2c0-2.7,1.9-4.4,3.8-4.4c2.3,0,3.4,1.6,3.4,4c0,0.4,0,0.7-0.1,1h-5.3c0.2,1.5,1.1,2.3,2.5,2.3
			c0.7,0,1.3-0.2,1.9-0.6l0.7,1.2c-0.8,0.5-1.8,0.9-2.9,0.9C717.1,460.6,715.3,459,715.3,456.2z M720.9,455.4c0-1.3-0.6-2.1-1.7-2.1
			c-1,0-1.8,0.7-2,2.1H720.9z"/>
		<path d="M723.8,459.4l0.9-1.2c0.7,0.6,1.5,0.9,2.3,0.9c0.9,0,1.3-0.4,1.3-1c0-0.7-0.9-1-1.8-1.4c-1.1-0.4-2.3-1-2.3-2.4
			c0-1.4,1.2-2.5,3-2.5c1.2,0,2.1,0.5,2.8,1l-0.9,1.2c-0.6-0.4-1.2-0.7-1.8-0.7c-0.8,0-1.2,0.4-1.2,0.9c0,0.7,0.8,0.9,1.7,1.2
			c1.1,0.4,2.4,1,2.4,2.5c0,1.4-1.1,2.6-3.2,2.6C725.8,460.6,724.6,460.1,723.8,459.4z"/>
		<path d="M731.9,459.3c0-0.8,0.6-1.3,1.3-1.3s1.3,0.6,1.3,1.3c0,0.8-0.6,1.3-1.3,1.3S731.9,460,731.9,459.3z"/>
	</g>
</g>
<g>
	<g>
		<path d="M437,326.9h6.7v1.7H439v2.8h4v1.7h-4v3.3h4.9v1.7H437V326.9z"/>
		<path d="M446.2,335.8V326h2v10c0,0.5,0.2,0.7,0.4,0.7c0.1,0,0.2,0,0.3,0l0.2,1.5c-0.2,0.1-0.6,0.2-1,0.2
			C446.7,338.2,446.2,337.3,446.2,335.8z"/>
		<path d="M454,333.8c0-2.7,1.7-4.4,3.5-4.4c0.9,0,1.5,0.4,2.2,0.9l-0.1-1.3v-3h2v12H460l-0.1-0.9h-0.1c-0.6,0.6-1.5,1.1-2.4,1.1
			C455.3,338.2,454,336.6,454,333.8z M459.7,335.6v-3.9c-0.6-0.5-1.1-0.7-1.7-0.7c-1.1,0-1.9,1-1.9,2.7c0,1.8,0.7,2.8,1.9,2.8
			C458.6,336.6,459.1,336.3,459.7,335.6z"/>
		<path d="M463.8,335.7c0-1.8,1.5-2.7,4.9-3.1c0-0.9-0.4-1.6-1.5-1.6c-0.8,0-1.6,0.4-2.3,0.8l-0.7-1.3c0.9-0.6,2.1-1.1,3.4-1.1
			c2.1,0,3.1,1.3,3.1,3.6v4.9h-1.6l-0.1-0.9h-0.1c-0.7,0.6-1.6,1.1-2.6,1.1C464.8,338.2,463.8,337.2,463.8,335.7z M468.7,335.8v-1.9
			c-2.3,0.3-3,0.9-3,1.7c0,0.7,0.5,1.1,1.2,1.1C467.6,336.7,468.1,336.3,468.7,335.8z"/>
		<path d="M473.5,335.2v-4h-1.2v-1.5l1.3-0.1l0.2-2.3h1.6v2.3h2.1v1.6h-2.1v4c0,1,0.4,1.5,1.2,1.5c0.3,0,0.6-0.1,0.9-0.2l0.3,1.4
			c-0.5,0.1-1,0.3-1.7,0.3C474.2,338.2,473.5,337,473.5,335.2z"/>
		<path d="M479,333.8c0-2.8,1.9-4.4,4-4.4c2.1,0,4,1.6,4,4.4c0,2.8-1.9,4.4-4,4.4C480.9,338.2,479,336.6,479,333.8z M484.9,333.8
			c0-1.7-0.7-2.8-2-2.8c-1.2,0-2,1.1-2,2.8s0.7,2.8,2,2.8C484.2,336.6,484.9,335.5,484.9,333.8z"/>
		<path d="M492.6,329.6h1.6l0.1,1.1h0.1c0.7-0.7,1.6-1.3,2.7-1.3c1.8,0,2.6,1.2,2.6,3.3v5.2h-2v-5c0-1.4-0.4-1.9-1.3-1.9
			c-0.7,0-1.2,0.4-1.9,1v5.8h-2V329.6z"/>
		<path d="M501.7,333.8c0-2.8,1.9-4.4,4-4.4c2.1,0,4,1.6,4,4.4c0,2.8-1.9,4.4-4,4.4C503.6,338.2,501.7,336.6,501.7,333.8z
			 M507.7,333.8c0-1.7-0.7-2.8-2-2.8c-1.2,0-2,1.1-2,2.8s0.7,2.8,2,2.8C506.9,336.6,507.7,335.5,507.7,333.8z"/>
		<path d="M514.8,333.8c0-2.7,1.9-4.4,3.8-4.4c2.3,0,3.4,1.6,3.4,4c0,0.4,0,0.7-0.1,1h-5.3c0.2,1.5,1.1,2.3,2.5,2.3
			c0.7,0,1.3-0.2,1.9-0.6l0.7,1.2c-0.8,0.5-1.8,0.9-2.9,0.9C516.6,338.2,514.8,336.6,514.8,333.8z M520.4,333c0-1.3-0.6-2.1-1.7-2.1
			c-1,0-1.8,0.7-2,2.1H520.4z"/>
		<path d="M523.3,337l0.9-1.2c0.7,0.6,1.5,0.9,2.3,0.9c0.9,0,1.3-0.4,1.3-1c0-0.7-0.9-1-1.8-1.4c-1.1-0.4-2.3-1-2.3-2.4
			c0-1.4,1.2-2.5,3-2.5c1.2,0,2.1,0.5,2.8,1l-0.9,1.2c-0.6-0.4-1.2-0.7-1.8-0.7c-0.8,0-1.2,0.4-1.2,0.9c0,0.7,0.8,0.9,1.7,1.2
			c1.1,0.4,2.4,1,2.4,2.5c0,1.4-1.1,2.6-3.2,2.6C525.3,338.2,524.1,337.7,523.3,337z"/>
		<path d="M445.2,354.2c0-2.8,2-4.4,4.2-4.4c1.1,0,1.8,0.4,2.4,0.9l-1,1.3c-0.4-0.4-0.9-0.6-1.4-0.6c-1.3,0-2.3,1.1-2.3,2.8
			s0.9,2.8,2.2,2.8c0.7,0,1.3-0.3,1.7-0.7l0.8,1.3c-0.8,0.7-1.8,1-2.7,1C447,358.6,445.2,357,445.2,354.2z"/>
		<path d="M453.8,356.2v-9.9h2v10c0,0.5,0.2,0.7,0.4,0.7c0.1,0,0.2,0,0.3,0l0.2,1.5c-0.2,0.1-0.6,0.2-1,0.2
			C454.3,358.6,453.8,357.7,453.8,356.2z"/>
		<path d="M458.1,356.1c0-1.8,1.5-2.7,4.9-3.1c0-0.9-0.4-1.6-1.5-1.6c-0.8,0-1.6,0.4-2.3,0.8l-0.7-1.3c0.9-0.6,2.1-1.1,3.4-1.1
			c2.1,0,3.1,1.3,3.1,3.6v4.9h-1.6l-0.1-0.9h-0.1c-0.7,0.6-1.6,1.1-2.6,1.1C459.1,358.6,458.1,357.6,458.1,356.1z M463,356.1v-1.9
			c-2.3,0.3-3,0.9-3,1.7c0,0.7,0.5,1.1,1.2,1.1C461.9,357.1,462.4,356.7,463,356.1z"/>
		<path d="M467.5,350h1.6l0.1,1.5h0.1c0.6-1.1,1.5-1.7,2.4-1.7c0.4,0,0.7,0.1,0.9,0.2l-0.3,1.7c-0.3-0.1-0.5-0.1-0.9-0.1
			c-0.7,0-1.5,0.5-2,1.7v5.1h-2V350z"/>
		<path d="M473.5,354.2c0-2.8,1.9-4.4,4-4.4c2.1,0,4,1.6,4,4.4c0,2.8-1.9,4.4-4,4.4C475.4,358.6,473.5,357,473.5,354.2z
			 M479.4,354.2c0-1.7-0.7-2.8-2-2.8c-1.2,0-2,1.1-2,2.8s0.7,2.8,2,2.8C478.7,357,479.4,355.9,479.4,354.2z"/>
		<path d="M486.6,354.2c0-2.7,1.9-4.4,3.8-4.4c2.3,0,3.4,1.6,3.4,4c0,0.4,0,0.7-0.1,1h-5.3c0.2,1.5,1.1,2.3,2.5,2.3
			c0.7,0,1.3-0.2,1.9-0.6l0.7,1.2c-0.8,0.5-1.8,0.9-2.9,0.9C488.4,358.6,486.6,357,486.6,354.2z M492.2,353.4c0-1.3-0.6-2.1-1.7-2.1
			c-1,0-1.8,0.7-2,2.1H492.2z"/>
		<path d="M495.9,350h1.6l0.1,1.1h0.1c0.7-0.7,1.6-1.3,2.7-1.3c1.8,0,2.6,1.2,2.6,3.3v5.2h-2v-5c0-1.4-0.4-1.9-1.3-1.9
			c-0.7,0-1.2,0.4-1.9,1v5.8h-2V350z"/>
		<path d="M508.6,354.2c0-2.7,1.9-4.4,3.8-4.4c2.3,0,3.4,1.6,3.4,4c0,0.4,0,0.7-0.1,1h-5.3c0.2,1.5,1.1,2.3,2.5,2.3
			c0.7,0,1.3-0.2,1.9-0.6l0.7,1.2c-0.8,0.5-1.8,0.9-2.9,0.9C510.4,358.6,508.6,357,508.6,354.2z M514.2,353.4c0-1.3-0.6-2.1-1.7-2.1
			c-1,0-1.8,0.7-2,2.1H514.2z"/>
		<path d="M517.9,356.2v-9.9h2v10c0,0.5,0.2,0.7,0.4,0.7c0.1,0,0.2,0,0.3,0l0.2,1.5c-0.2,0.1-0.6,0.2-1,0.2
			C518.4,358.6,517.9,357.7,517.9,356.2z"/>
		<path d="M440.9,374.6c0-2.7,1.7-4.4,3.5-4.4c0.9,0,1.5,0.4,2.2,0.9l-0.1-1.3v-3h2v12h-1.6l-0.1-0.9h-0.1c-0.6,0.6-1.5,1.1-2.4,1.1
			C442.2,379,440.9,377.4,440.9,374.6z M446.5,376.4v-3.9c-0.6-0.5-1.1-0.7-1.7-0.7c-1.1,0-1.9,1-1.9,2.7c0,1.8,0.7,2.8,1.9,2.8
			C445.4,377.4,446,377.1,446.5,376.4z"/>
		<path d="M450.6,374.6c0-2.8,1.9-4.4,4-4.4c2.1,0,4,1.6,4,4.4c0,2.8-1.9,4.4-4,4.4C452.5,379,450.6,377.4,450.6,374.6z
			 M456.5,374.6c0-1.7-0.7-2.8-2-2.8c-1.2,0-2,1.1-2,2.8s0.7,2.8,2,2.8C455.8,377.4,456.5,376.3,456.5,374.6z"/>
		<path d="M460.1,374.6c0-2.8,2-4.4,4.2-4.4c1.1,0,1.8,0.4,2.4,0.9l-1,1.3c-0.4-0.4-0.9-0.6-1.4-0.6c-1.3,0-2.3,1.1-2.3,2.8
			s0.9,2.8,2.2,2.8c0.7,0,1.3-0.3,1.7-0.7l0.8,1.3c-0.8,0.7-1.8,1-2.7,1C461.9,379,460.1,377.4,460.1,374.6z"/>
		<path d="M468.6,375.7v-5.2h2v5c0,1.4,0.4,1.9,1.3,1.9c0.7,0,1.2-0.3,1.8-1.2v-5.7h2v8.3H474l-0.1-1.2h-0.1
			c-0.7,0.9-1.5,1.4-2.7,1.4C469.4,379,468.6,377.8,468.6,375.7z"/>
		<path d="M478.3,370.4h1.6l0.1,1.1h0.1c0.7-0.7,1.5-1.3,2.6-1.3c1.2,0,1.9,0.6,2.3,1.5c0.8-0.8,1.6-1.5,2.7-1.5
			c1.8,0,2.6,1.2,2.6,3.3v5.2h-2v-5c0-1.4-0.4-1.9-1.3-1.9c-0.5,0-1.1,0.3-1.7,1v5.8h-2v-5c0-1.4-0.4-1.9-1.3-1.9
			c-0.5,0-1.1,0.3-1.7,1v5.8h-2V370.4z"/>
		<path d="M492.3,374.6c0-2.7,1.9-4.4,3.8-4.4c2.3,0,3.4,1.6,3.4,4c0,0.4,0,0.7-0.1,1h-5.3c0.2,1.5,1.1,2.3,2.5,2.3
			c0.7,0,1.3-0.2,1.9-0.6l0.7,1.2c-0.8,0.5-1.8,0.9-2.9,0.9C494.1,379,492.3,377.4,492.3,374.6z M497.9,373.8c0-1.3-0.6-2.1-1.7-2.1
			c-1,0-1.8,0.7-2,2.1H497.9z"/>
		<path d="M501.6,370.4h1.6l0.1,1.1h0.1c0.7-0.7,1.6-1.3,2.7-1.3c1.8,0,2.6,1.2,2.6,3.3v5.2h-2v-5c0-1.4-0.4-1.9-1.3-1.9
			c-0.7,0-1.2,0.4-1.9,1v5.8h-2V370.4z"/>
		<path d="M511.6,376v-4h-1.2v-1.5l1.3-0.1l0.2-2.3h1.6v2.3h2.1v1.6h-2.1v4c0,1,0.4,1.5,1.2,1.5c0.3,0,0.6-0.1,0.9-0.2l0.3,1.4
			c-0.5,0.1-1,0.3-1.7,0.3C512.3,379,511.6,377.8,511.6,376z"/>
		<path d="M517,374.6c0-2.8,1.9-4.4,4-4.4s4,1.6,4,4.4c0,2.8-1.9,4.4-4,4.4S517,377.4,517,374.6z M523,374.6c0-1.7-0.7-2.8-2-2.8
			c-1.2,0-2,1.1-2,2.8s0.7,2.8,2,2.8C522.2,377.4,523,376.3,523,374.6z"/>
		<path d="M449.4,395c0-2.7,1.7-4.4,3.5-4.4c0.9,0,1.5,0.4,2.2,0.9l-0.1-1.3v-3h2v12h-1.6l-0.1-0.9h-0.1c-0.6,0.6-1.5,1.1-2.4,1.1
			C450.8,399.4,449.4,397.8,449.4,395z M455.1,396.8v-3.9c-0.6-0.5-1.1-0.7-1.7-0.7c-1.1,0-1.9,1-1.9,2.7c0,1.8,0.7,2.8,1.9,2.8
			C454,397.8,454.5,397.5,455.1,396.8z"/>
		<path d="M459.2,395c0-2.7,1.9-4.4,3.8-4.4c2.3,0,3.4,1.6,3.4,4c0,0.4,0,0.7-0.1,1h-5.3c0.2,1.5,1.1,2.3,2.5,2.3
			c0.7,0,1.3-0.2,1.9-0.6l0.7,1.2c-0.8,0.5-1.8,0.9-2.9,0.9C461,399.4,459.2,397.8,459.2,395z M464.8,394.2c0-1.3-0.6-2.1-1.7-2.1
			c-1,0-1.8,0.7-2,2.1H464.8z"/>
		<path d="M470.3,398.3L470.3,398.3l-0.2,0.9h-1.5v-12h2v3.1l-0.1,1.4c0.7-0.6,1.6-1,2.4-1c2.1,0,3.3,1.7,3.3,4.2
			c0,2.9-1.7,4.5-3.6,4.5C471.8,399.4,471,399,470.3,398.3z M474.1,394.9c0-1.7-0.5-2.7-1.8-2.7c-0.6,0-1.2,0.3-1.8,0.9v3.9
			c0.6,0.5,1.2,0.7,1.7,0.7C473.2,397.8,474.1,396.8,474.1,394.9z"/>
		<path d="M477.7,395c0-2.7,1.9-4.4,3.8-4.4c2.3,0,3.4,1.6,3.4,4c0,0.4,0,0.7-0.1,1h-5.3c0.2,1.5,1.1,2.3,2.5,2.3
			c0.7,0,1.3-0.2,1.9-0.6l0.7,1.2c-0.8,0.5-1.8,0.9-2.9,0.9C479.5,399.4,477.7,397.8,477.7,395z M483.3,394.2c0-1.3-0.6-2.1-1.7-2.1
			c-1,0-1.8,0.7-2,2.1H483.3z"/>
		<path d="M487,390.8h1.6l0.1,1.1h0.1c0.7-0.7,1.5-1.3,2.6-1.3c1.2,0,1.9,0.6,2.3,1.5c0.8-0.8,1.6-1.5,2.7-1.5
			c1.8,0,2.6,1.2,2.6,3.3v5.2h-2v-5c0-1.4-0.4-1.9-1.3-1.9c-0.5,0-1.1,0.3-1.7,1v5.8h-2v-5c0-1.4-0.4-1.9-1.3-1.9
			c-0.5,0-1.1,0.3-1.7,1v5.8h-2V390.8z"/>
		<path d="M501,395c0-2.8,1.9-4.4,4-4.4s4,1.6,4,4.4c0,2.8-1.9,4.4-4,4.4S501,397.8,501,395z M506.9,395c0-1.7-0.7-2.8-2-2.8
			c-1.2,0-2,1.1-2,2.8s0.7,2.8,2,2.8C506.2,397.8,506.9,396.7,506.9,395z"/>
		<path d="M510.2,398.2l0.9-1.2c0.7,0.6,1.5,0.9,2.3,0.9c0.9,0,1.3-0.4,1.3-1c0-0.7-0.9-1-1.8-1.4c-1.1-0.4-2.3-1-2.3-2.4
			c0-1.4,1.2-2.5,3-2.5c1.2,0,2.1,0.5,2.8,1l-0.9,1.2c-0.6-0.4-1.2-0.7-1.8-0.7c-0.8,0-1.2,0.4-1.2,0.9c0,0.7,0.8,0.9,1.7,1.2
			c1.1,0.4,2.4,1,2.4,2.5c0,1.4-1.1,2.6-3.2,2.6C512.2,399.4,511,398.9,510.2,398.2z"/>
		<path d="M443.1,415.4c0-2.8,2-4.4,4.2-4.4c1.1,0,1.8,0.4,2.4,0.9l-1,1.3c-0.4-0.4-0.9-0.6-1.4-0.6c-1.3,0-2.3,1.1-2.3,2.8
			s0.9,2.8,2.2,2.8c0.7,0,1.3-0.3,1.7-0.7l0.8,1.3c-0.8,0.7-1.8,1-2.7,1C444.8,419.8,443.1,418.2,443.1,415.4z"/>
		<path d="M451.1,415.4c0-2.8,1.9-4.4,4-4.4c2.1,0,4,1.6,4,4.4c0,2.8-1.9,4.4-4,4.4C453,419.8,451.1,418.2,451.1,415.4z M457,415.4
			c0-1.7-0.7-2.8-2-2.8c-1.2,0-2,1.1-2,2.8s0.7,2.8,2,2.8C456.3,418.2,457,417.1,457,415.4z"/>
		<path d="M461.1,411.2h1.6l0.1,1.5h0.1c0.6-1.1,1.5-1.7,2.4-1.7c0.4,0,0.7,0.1,0.9,0.2l-0.3,1.7c-0.3-0.1-0.5-0.1-0.9-0.1
			c-0.7,0-1.5,0.5-2,1.7v5.1h-2V411.2z"/>
		<path d="M467.7,411.2h1.6l0.1,1.5h0.1c0.6-1.1,1.5-1.7,2.4-1.7c0.4,0,0.7,0.1,0.9,0.2l-0.3,1.7c-0.3-0.1-0.5-0.1-0.9-0.1
			c-0.7,0-1.5,0.5-2,1.7v5.1h-2V411.2z"/>
		<path d="M473.6,415.4c0-2.8,1.9-4.4,4-4.4s4,1.6,4,4.4c0,2.8-1.9,4.4-4,4.4S473.6,418.2,473.6,415.4z M479.5,415.4
			c0-1.7-0.7-2.8-2-2.8c-1.2,0-2,1.1-2,2.8s0.7,2.8,2,2.8C478.8,418.2,479.5,417.1,479.5,415.4z"/>
		<path d="M485.4,418.7L485.4,418.7l-0.2,0.9h-1.5v-12h2v3.1l-0.1,1.4c0.7-0.6,1.6-1,2.4-1c2.1,0,3.3,1.7,3.3,4.2
			c0,2.9-1.7,4.5-3.6,4.5C487,419.8,486.1,419.4,485.4,418.7z M489.3,415.3c0-1.7-0.5-2.7-1.8-2.7c-0.6,0-1.2,0.3-1.8,0.9v3.9
			c0.6,0.5,1.2,0.7,1.7,0.7C488.4,418.2,489.3,417.2,489.3,415.3z"/>
		<path d="M492.9,415.4c0-2.8,1.9-4.4,4-4.4c2.1,0,4,1.6,4,4.4c0,2.8-1.9,4.4-4,4.4C494.7,419.8,492.9,418.2,492.9,415.4z
			 M498.8,415.4c0-1.7-0.7-2.8-2-2.8c-1.2,0-2,1.1-2,2.8s0.7,2.8,2,2.8C498.1,418.2,498.8,417.1,498.8,415.4z"/>
		<path d="M502.9,411.2h1.6l0.1,1.5h0.1c0.6-1.1,1.5-1.7,2.4-1.7c0.4,0,0.7,0.1,0.9,0.2l-0.3,1.7c-0.3-0.1-0.5-0.1-0.9-0.1
			c-0.7,0-1.5,0.5-2,1.7v5.1h-2V411.2z"/>
		<path d="M509,417.3c0-1.8,1.5-2.7,4.9-3.1c0-0.9-0.4-1.6-1.5-1.6c-0.8,0-1.6,0.4-2.3,0.8l-0.7-1.3c0.9-0.6,2.1-1.1,3.4-1.1
			c2.1,0,3.1,1.3,3.1,3.6v4.9h-1.6l-0.1-0.9H514c-0.7,0.6-1.6,1.1-2.6,1.1C510,419.8,509,418.8,509,417.3z M513.9,417.3v-1.9
			c-2.3,0.3-3,0.9-3,1.7c0,0.7,0.5,1.1,1.2,1.1C512.7,418.3,513.3,417.9,513.9,417.3z"/>
		<path d="M518.4,411.2h1.6l0.1,1.5h0.1c0.6-1.1,1.5-1.7,2.4-1.7c0.4,0,0.7,0.1,0.9,0.2l-0.3,1.7c-0.3-0.1-0.5-0.1-0.9-0.1
			c-0.7,0-1.5,0.5-2,1.7v5.1h-2V411.2z"/>
	</g>
</g>
<g>
	<g>
		<path d="M819.1,326.9h6.4v1.2h-5v3.8h4.3v1.2h-4.3v5h-1.4V326.9z"/>
		<path d="M827.4,335.1v-5.2h1.4v5.1c0,1.5,0.5,2.2,1.6,2.2c0.8,0,1.4-0.4,2.2-1.4v-5.9h1.4v8.3h-1.2l-0.1-1.3h0
			c-0.8,0.9-1.6,1.5-2.7,1.5C828.2,338.3,827.4,337.2,827.4,335.1z"/>
		<path d="M836.4,334c0-2.7,1.8-4.3,3.7-4.3c2.1,0,3.3,1.5,3.3,3.9c0,0.3,0,0.6-0.1,0.8h-5.6c0.1,1.8,1.2,2.9,2.7,2.9
			c0.8,0,1.4-0.3,2.1-0.7l0.5,0.9c-0.7,0.5-1.6,0.9-2.7,0.9C838.1,338.3,836.4,336.7,836.4,334z M842.1,333.3c0-1.7-0.7-2.6-2-2.6
			c-1.2,0-2.2,0.9-2.4,2.6H842.1z"/>
		<path d="M848.5,334c0-2.7,1.8-4.3,3.7-4.3c2.1,0,3.3,1.5,3.3,3.9c0,0.3,0,0.6-0.1,0.8h-5.6c0.1,1.8,1.2,2.9,2.7,2.9
			c0.8,0,1.4-0.3,2.1-0.7l0.5,0.9c-0.7,0.5-1.6,0.9-2.7,0.9C850.3,338.3,848.5,336.7,848.5,334z M854.3,333.3c0-1.7-0.7-2.6-2-2.6
			c-1.2,0-2.2,0.9-2.4,2.6H854.3z"/>
		<path d="M857.7,336.4V326h1.4v10.6c0,0.4,0.2,0.6,0.4,0.6c0.1,0,0.1,0,0.3,0l0.2,1.1c-0.2,0.1-0.4,0.1-0.8,0.1
			C858.2,338.3,857.7,337.6,857.7,336.4z"/>
		<path d="M865.9,326.9h6.4v1.2h-5v3.5h4.2v1.2h-4.2v4.1h5.2v1.2h-6.6V326.9z"/>
		<path d="M874,337.1l0.7-0.9c0.7,0.6,1.4,1,2.4,1c1.1,0,1.6-0.6,1.6-1.3c0-0.9-1-1.2-1.9-1.6c-1.2-0.4-2.5-1-2.5-2.4
			c0-1.3,1.1-2.3,2.8-2.3c1,0,1.9,0.4,2.6,0.9l-0.7,0.9c-0.6-0.4-1.2-0.7-1.9-0.7c-1,0-1.5,0.6-1.5,1.2c0,0.8,0.9,1.1,1.8,1.4
			c1.2,0.4,2.5,0.9,2.5,2.5c0,1.3-1.1,2.5-3,2.5C875.9,338.3,874.8,337.8,874,337.1z"/>
		<path d="M882.5,335.5V331h-1.2v-1.1l1.3-0.1l0.2-2.3h1.2v2.3h2.2v1.1h-2.2v4.6c0,1,0.3,1.6,1.3,1.6c0.3,0,0.7-0.1,0.9-0.2l0.3,1.1
			c-0.5,0.2-1,0.3-1.5,0.3C883.1,338.3,882.5,337.2,882.5,335.5z"/>
		<path d="M887.6,335.9c0-1.8,1.6-2.7,5.1-3.1c0-1.1-0.4-2.1-1.7-2.1c-1,0-1.8,0.5-2.5,0.9l-0.5-1c0.8-0.5,1.9-1.1,3.2-1.1
			c2,0,2.9,1.3,2.9,3.4v5.1H893l-0.1-1h0c-0.8,0.7-1.7,1.2-2.7,1.2C888.7,338.3,887.6,337.4,887.6,335.9z M892.7,336.1v-2.3
			c-2.8,0.3-3.7,1-3.7,2.1c0,0.9,0.6,1.3,1.4,1.3C891.3,337.2,891.9,336.8,892.7,336.1z"/>
		<path d="M896.3,334c0-2.7,1.7-4.3,3.6-4.3c1,0,1.6,0.4,2.3,1l-0.1-1.4V326h1.4v12.1h-1.2l-0.1-1h0c-0.6,0.6-1.5,1.2-2.5,1.2
			C897.6,338.3,896.3,336.7,896.3,334z M902.1,336v-4.3c-0.7-0.6-1.3-0.9-2-0.9c-1.3,0-2.4,1.3-2.4,3.2c0,2,0.8,3.2,2.3,3.2
			C900.8,337.1,901.4,336.7,902.1,336z"/>
		<path d="M905.9,334c0-2.8,1.8-4.3,3.8-4.3s3.8,1.6,3.8,4.3c0,2.7-1.8,4.3-3.8,4.3S905.9,336.7,905.9,334z M912.1,334
			c0-1.9-1-3.2-2.4-3.2s-2.4,1.3-2.4,3.2c0,1.9,1,3.2,2.4,3.2S912.1,335.9,912.1,334z"/>
		<path d="M813.5,350.2h1.2l0.1,1.2h0c0.8-0.8,1.6-1.4,2.8-1.4c1.7,0,2.5,1.1,2.5,3.2v5.2h-1.4v-5.1c0-1.5-0.5-2.2-1.6-2.2
			c-0.8,0-1.4,0.4-2.3,1.3v6h-1.4V350.2z"/>
		<path d="M822.9,355.5v-5.2h1.4v5.1c0,1.5,0.5,2.2,1.6,2.2c0.8,0,1.4-0.4,2.2-1.4v-5.9h1.4v8.3h-1.2l-0.1-1.3h0
			c-0.8,0.9-1.6,1.5-2.7,1.5C823.6,358.7,822.9,357.6,822.9,355.5z"/>
		<path d="M831.8,354.4c0-2.7,1.8-4.3,3.7-4.3c2.1,0,3.3,1.5,3.3,3.9c0,0.3,0,0.6-0.1,0.8h-5.6c0.1,1.8,1.2,2.9,2.7,2.9
			c0.8,0,1.4-0.3,2.1-0.7l0.5,0.9c-0.7,0.5-1.6,0.9-2.7,0.9C833.5,358.7,831.8,357.1,831.8,354.4z M837.5,353.7c0-1.7-0.7-2.6-2-2.6
			c-1.2,0-2.2,0.9-2.4,2.6H837.5z"/>
		<path d="M839.8,350.2h1.4l1.6,4.7c0.2,0.8,0.5,1.6,0.8,2.4h0.1c0.2-0.8,0.5-1.6,0.8-2.4l1.6-4.7h1.4l-2.9,8.3h-1.6L839.8,350.2z"
			/>
		<path d="M848.6,356.3c0-1.8,1.6-2.7,5.1-3.1c0-1.1-0.4-2.1-1.7-2.1c-1,0-1.8,0.5-2.5,0.9l-0.5-1c0.8-0.5,1.9-1.1,3.2-1.1
			c2,0,2.9,1.3,2.9,3.4v5.1h-1.2l-0.1-1h0c-0.8,0.7-1.7,1.2-2.7,1.2C849.6,358.7,848.6,357.8,848.6,356.3z M853.7,356.5v-2.3
			c-2.8,0.3-3.7,1-3.7,2.1c0,0.9,0.6,1.3,1.4,1.3C852.2,357.6,852.9,357.2,853.7,356.5z"/>
		<path d="M857.8,350.2h1.2l0.1,1.2h0c0.7-0.8,1.6-1.4,2.6-1.4c1.3,0,1.9,0.6,2.3,1.6c0.9-0.9,1.7-1.6,2.7-1.6
			c1.7,0,2.5,1.1,2.5,3.2v5.2h-1.4v-5.1c0-1.5-0.5-2.2-1.5-2.2c-0.6,0-1.3,0.4-2.1,1.3v6h-1.4v-5.1c0-1.5-0.5-2.2-1.5-2.2
			c-0.6,0-1.3,0.4-2.1,1.3v6h-1.4V350.2z"/>
		<path d="M871.5,354.4c0-2.7,1.8-4.3,3.7-4.3c2.1,0,3.3,1.5,3.3,3.9c0,0.3,0,0.6-0.1,0.8h-5.6c0.1,1.8,1.2,2.9,2.7,2.9
			c0.8,0,1.4-0.3,2.1-0.7l0.5,0.9c-0.7,0.5-1.6,0.9-2.7,0.9C873.2,358.7,871.5,357.1,871.5,354.4z M877.3,353.7c0-1.7-0.7-2.6-2-2.6
			c-1.2,0-2.2,0.9-2.4,2.6H877.3z"/>
		<path d="M880.7,350.2h1.2l0.1,1.2h0c0.8-0.8,1.6-1.4,2.8-1.4c1.7,0,2.5,1.1,2.5,3.2v5.2h-1.4v-5.1c0-1.5-0.5-2.2-1.6-2.2
			c-0.8,0-1.4,0.4-2.3,1.3v6h-1.4V350.2z"/>
		<path d="M890.4,355.9v-4.6h-1.2v-1.1l1.3-0.1l0.2-2.3h1.2v2.3h2.2v1.1h-2.2v4.6c0,1,0.3,1.6,1.3,1.6c0.3,0,0.7-0.1,0.9-0.2
			l0.3,1.1c-0.5,0.2-1,0.3-1.5,0.3C891,358.7,890.4,357.6,890.4,355.9z"/>
		<path d="M895.5,354.4c0-2.7,1.8-4.3,3.7-4.3c2.1,0,3.3,1.5,3.3,3.9c0,0.3,0,0.6-0.1,0.8h-5.6c0.1,1.8,1.2,2.9,2.7,2.9
			c0.8,0,1.4-0.3,2.1-0.7l0.5,0.9c-0.7,0.5-1.6,0.9-2.7,0.9C897.2,358.7,895.5,357.1,895.5,354.4z M901.2,353.7c0-1.7-0.7-2.6-2-2.6
			c-1.2,0-2.2,0.9-2.4,2.6H901.2z"/>
		<path d="M907.6,354.4c0-2.7,1.8-4.3,3.7-4.3c2.1,0,3.3,1.5,3.3,3.9c0,0.3,0,0.6-0.1,0.8H909c0.1,1.8,1.2,2.9,2.7,2.9
			c0.8,0,1.4-0.3,2.1-0.7l0.5,0.9c-0.7,0.5-1.6,0.9-2.7,0.9C909.4,358.7,907.6,357.1,907.6,354.4z M913.4,353.7c0-1.7-0.7-2.6-2-2.6
			c-1.2,0-2.2,0.9-2.4,2.6H913.4z"/>
		<path d="M916.9,356.8v-10.5h1.4v10.6c0,0.4,0.2,0.6,0.4,0.6c0.1,0,0.1,0,0.3,0l0.2,1.1c-0.2,0.1-0.4,0.1-0.8,0.1
			C917.3,358.7,916.9,358,916.9,356.8z"/>
		<path d="M812,370.6h1.2l0.1,1.5h0c0.6-1,1.4-1.7,2.3-1.7c0.4,0,0.6,0,0.9,0.2l-0.3,1.2c-0.3-0.1-0.5-0.1-0.8-0.1
			c-0.7,0-1.5,0.5-2.1,1.9v5.3H812V370.6z"/>
		<path d="M817.4,374.8c0-2.7,1.8-4.3,3.7-4.3c2.1,0,3.3,1.5,3.3,3.9c0,0.3,0,0.6-0.1,0.8h-5.6c0.1,1.8,1.2,2.9,2.7,2.9
			c0.8,0,1.4-0.3,2.1-0.7l0.5,0.9c-0.7,0.5-1.6,0.9-2.7,0.9C819.2,379.1,817.4,377.5,817.4,374.8z M823.2,374.1c0-1.7-0.7-2.6-2-2.6
			c-1.2,0-2.2,0.9-2.4,2.6H823.2z"/>
		<path d="M825.7,377.9l0.7-0.9c0.7,0.6,1.4,1,2.4,1c1.1,0,1.6-0.6,1.6-1.3c0-0.9-1-1.2-1.9-1.6c-1.2-0.4-2.5-1-2.5-2.4
			c0-1.3,1.1-2.3,2.9-2.3c1,0,1.9,0.4,2.6,0.9l-0.7,0.9c-0.6-0.4-1.2-0.7-1.9-0.7c-1,0-1.5,0.6-1.5,1.2c0,0.8,0.9,1.1,1.8,1.4
			c1.2,0.4,2.5,0.9,2.5,2.5c0,1.3-1.1,2.5-3,2.5C827.6,379.1,826.5,378.6,825.7,377.9z"/>
		<path d="M833.9,370.6h1.2l0.1,1h0c0.7-0.6,1.7-1.2,2.6-1.2c2.1,0,3.3,1.7,3.3,4.2c0,2.8-1.7,4.5-3.6,4.5c-0.8,0-1.5-0.3-2.3-1
			l0,1.4v2.8h-1.4V370.6z M839.7,374.6c0-1.8-0.6-3-2.2-3c-0.7,0-1.4,0.4-2.2,1.1v4.3c0.7,0.6,1.5,0.9,2,0.9
			C838.7,377.9,839.7,376.7,839.7,374.6z"/>
		<path d="M842.9,374.8c0-2.8,1.8-4.3,3.8-4.3s3.8,1.6,3.8,4.3c0,2.7-1.8,4.3-3.8,4.3S842.9,377.5,842.9,374.8z M849.1,374.8
			c0-1.9-1-3.2-2.4-3.2s-2.4,1.3-2.4,3.2c0,1.9,1,3.2,2.4,3.2S849.1,376.7,849.1,374.8z"/>
		<path d="M852.9,370.6h1.2l0.1,1.2h0c0.8-0.8,1.6-1.4,2.8-1.4c1.7,0,2.5,1.1,2.5,3.2v5.2h-1.4v-5.1c0-1.5-0.5-2.2-1.6-2.2
			c-0.8,0-1.4,0.4-2.3,1.3v6h-1.4V370.6z"/>
		<path d="M861.5,377.9l0.7-0.9c0.7,0.6,1.4,1,2.4,1c1.1,0,1.6-0.6,1.6-1.3c0-0.9-1-1.2-1.9-1.6c-1.2-0.4-2.5-1-2.5-2.4
			c0-1.3,1.1-2.3,2.9-2.3c1,0,1.9,0.4,2.6,0.9l-0.7,0.9c-0.6-0.4-1.2-0.7-1.9-0.7c-1,0-1.5,0.6-1.5,1.2c0,0.8,0.9,1.1,1.8,1.4
			c1.2,0.4,2.5,0.9,2.5,2.5c0,1.3-1.1,2.5-3,2.5C863.4,379.1,862.3,378.6,861.5,377.9z"/>
		<path d="M869.2,376.7c0-1.8,1.6-2.7,5.1-3.1c0-1.1-0.4-2.1-1.7-2.1c-1,0-1.8,0.5-2.5,0.9l-0.5-1c0.8-0.5,1.9-1.1,3.2-1.1
			c2,0,2.9,1.3,2.9,3.4v5.1h-1.2l-0.1-1h0c-0.8,0.7-1.7,1.2-2.7,1.2C870.2,379.1,869.2,378.2,869.2,376.7z M874.3,376.9v-2.3
			c-2.8,0.3-3.7,1-3.7,2.1c0,0.9,0.6,1.3,1.4,1.3C872.8,378,873.5,377.6,874.3,376.9z"/>
		<path d="M879.7,378L879.7,378l-0.2,0.9h-1.1v-12.1h1.4v3.3l0,1.5c0.8-0.7,1.7-1.2,2.6-1.2c2.1,0,3.3,1.7,3.3,4.2
			c0,2.8-1.7,4.5-3.6,4.5C881.3,379.1,880.5,378.7,879.7,378z M884.2,374.6c0-1.8-0.6-3-2.2-3c-0.7,0-1.4,0.4-2.2,1.1v4.3
			c0.7,0.6,1.5,0.9,2,0.9C883.2,377.9,884.2,376.7,884.2,374.6z"/>
		<path d="M888,377.2v-10.5h1.4v10.6c0,0.4,0.2,0.6,0.4,0.6c0.1,0,0.1,0,0.3,0l0.2,1.1c-0.2,0.1-0.4,0.1-0.8,0.1
			C888.4,379.1,888,378.4,888,377.2z"/>
		<path d="M891.9,374.8c0-2.7,1.8-4.3,3.7-4.3c2.1,0,3.3,1.5,3.3,3.9c0,0.3,0,0.6-0.1,0.8h-5.6c0.1,1.8,1.2,2.9,2.7,2.9
			c0.8,0,1.4-0.3,2.1-0.7l0.5,0.9c-0.7,0.5-1.6,0.9-2.7,0.9C893.6,379.1,891.9,377.5,891.9,374.8z M897.7,374.1c0-1.7-0.7-2.6-2-2.6
			c-1.2,0-2.2,0.9-2.4,2.6H897.7z"/>
		<path d="M904.1,374.8c0-2.7,1.7-4.3,3.6-4.3c1,0,1.6,0.4,2.3,1l-0.1-1.4v-3.2h1.4v12.1h-1.2l-0.1-1h0c-0.6,0.6-1.5,1.2-2.5,1.2
			C905.4,379.1,904.1,377.5,904.1,374.8z M909.9,376.8v-4.3c-0.7-0.6-1.3-0.9-2-0.9c-1.3,0-2.4,1.3-2.4,3.2c0,2,0.8,3.2,2.3,3.2
			C908.6,377.9,909.2,377.5,909.9,376.8z"/>
		<path d="M913.7,374.8c0-2.7,1.8-4.3,3.7-4.3c2.1,0,3.3,1.5,3.3,3.9c0,0.3,0,0.6-0.1,0.8H915c0.1,1.8,1.2,2.9,2.7,2.9
			c0.8,0,1.4-0.3,2.1-0.7l0.5,0.9c-0.7,0.5-1.6,0.9-2.7,0.9C915.4,379.1,913.7,377.5,913.7,374.8z M919.4,374.1c0-1.7-0.7-2.6-2-2.6
			c-1.2,0-2.2,0.9-2.4,2.6H919.4z"/>
		<path d="M806.3,397.6v-10.5h1.4v10.6c0,0.4,0.2,0.6,0.4,0.6c0.1,0,0.1,0,0.3,0l0.2,1.1c-0.2,0.1-0.4,0.1-0.8,0.1
			C806.7,399.5,806.3,398.8,806.3,397.6z"/>
		<path d="M810.2,397.1c0-1.8,1.6-2.7,5.1-3.1c0-1.1-0.4-2.1-1.7-2.1c-1,0-1.8,0.5-2.5,0.9l-0.5-1c0.8-0.5,1.9-1.1,3.2-1.1
			c2,0,2.9,1.3,2.9,3.4v5.1h-1.2l-0.1-1h0c-0.8,0.7-1.7,1.2-2.7,1.2C811.3,399.5,810.2,398.6,810.2,397.1z M815.3,397.3V395
			c-2.8,0.3-3.7,1-3.7,2.1c0,0.9,0.6,1.3,1.4,1.3C813.9,398.4,814.5,398,815.3,397.3z"/>
		<path d="M823.1,391h1.2l0.1,1.2h0c0.7-0.8,1.6-1.4,2.6-1.4c1.3,0,1.9,0.6,2.3,1.6c0.9-0.9,1.7-1.6,2.7-1.6c1.7,0,2.5,1.1,2.5,3.2
			v5.2h-1.4v-5.1c0-1.5-0.5-2.2-1.5-2.2c-0.6,0-1.3,0.4-2.1,1.3v6h-1.4v-5.1c0-1.5-0.5-2.2-1.5-2.2c-0.6,0-1.3,0.4-2.1,1.3v6h-1.4
			V391z"/>
		<path d="M836.8,397.1c0-1.8,1.6-2.7,5.1-3.1c0-1.1-0.4-2.1-1.7-2.1c-1,0-1.8,0.5-2.5,0.9l-0.5-1c0.8-0.5,1.9-1.1,3.2-1.1
			c2,0,2.9,1.3,2.9,3.4v5.1h-1.2l-0.1-1h0c-0.8,0.7-1.7,1.2-2.7,1.2C837.9,399.5,836.8,398.6,836.8,397.1z M841.9,397.3V395
			c-2.8,0.3-3.7,1-3.7,2.1c0,0.9,0.6,1.3,1.4,1.3C840.4,398.4,841.1,398,841.9,397.3z"/>
		<path d="M845.2,402.7l0.3-1.1c0.2,0.1,0.4,0.1,0.6,0.1c0.9,0,1.5-0.7,1.9-1.8l0.2-0.6l-3.3-8.3h1.4l1.7,4.6
			c0.3,0.7,0.5,1.6,0.8,2.3h0.1c0.2-0.8,0.5-1.6,0.7-2.3l1.5-4.6h1.4l-3.1,8.9c-0.6,1.6-1.4,2.9-3.1,2.9
			C845.8,402.9,845.5,402.8,845.2,402.7z"/>
		<path d="M853.6,395.2c0-2.8,1.8-4.3,3.8-4.3c2,0,3.8,1.6,3.8,4.3c0,2.7-1.8,4.3-3.8,4.3C855.4,399.5,853.6,397.9,853.6,395.2z
			 M859.8,395.2c0-1.9-1-3.2-2.4-3.2c-1.4,0-2.4,1.3-2.4,3.2c0,1.9,1,3.2,2.4,3.2C858.8,398.3,859.8,397.1,859.8,395.2z"/>
		<path d="M863.6,391h1.2l0.1,1.5h0c0.6-1,1.4-1.7,2.3-1.7c0.4,0,0.6,0,0.9,0.2l-0.3,1.2c-0.3-0.1-0.5-0.1-0.8-0.1
			c-0.7,0-1.5,0.5-2.1,1.9v5.3h-1.4V391z"/>
		<path d="M869.4,388.8l2.4-2.8l1,0.9l-2.7,2.6L869.4,388.8z M869.6,391h1.4v8.3h-1.4V391z"/>
		<path d="M873.5,397.1c0-1.8,1.6-2.7,5.1-3.1c0-1.1-0.4-2.1-1.7-2.1c-1,0-1.8,0.5-2.5,0.9l-0.5-1c0.8-0.5,1.9-1.1,3.2-1.1
			c2,0,2.9,1.3,2.9,3.4v5.1h-1.2l-0.1-1h0c-0.8,0.7-1.7,1.2-2.7,1.2C874.5,399.5,873.5,398.6,873.5,397.1z M878.5,397.3V395
			c-2.8,0.3-3.7,1-3.7,2.1c0,0.9,0.6,1.3,1.4,1.3C877.1,398.4,877.7,398,878.5,397.3z"/>
		<path d="M885.7,395.2c0-2.7,1.7-4.3,3.6-4.3c1,0,1.6,0.4,2.3,1l-0.1-1.4v-3.2h1.4v12.1h-1.2l-0.1-1h0c-0.6,0.6-1.5,1.2-2.5,1.2
			C887,399.5,885.7,397.9,885.7,395.2z M891.5,397.2v-4.3c-0.7-0.6-1.3-0.9-2-0.9c-1.3,0-2.4,1.3-2.4,3.2c0,2,0.8,3.2,2.3,3.2
			C890.2,398.3,890.8,397.9,891.5,397.2z"/>
		<path d="M895.3,395.2c0-2.7,1.8-4.3,3.7-4.3c2.1,0,3.3,1.5,3.3,3.9c0,0.3,0,0.6-0.1,0.8h-5.6c0.1,1.8,1.2,2.9,2.7,2.9
			c0.8,0,1.4-0.3,2.1-0.7l0.5,0.9c-0.7,0.5-1.6,0.9-2.7,0.9C897,399.5,895.3,397.9,895.3,395.2z M901.1,394.5c0-1.7-0.7-2.6-2-2.6
			c-1.2,0-2.2,0.9-2.4,2.6H901.1z"/>
		<path d="M908.1,397.6v-10.5h1.4v10.6c0,0.4,0.2,0.6,0.4,0.6c0.1,0,0.1,0,0.3,0l0.2,1.1c-0.2,0.1-0.4,0.1-0.8,0.1
			C908.5,399.5,908.1,398.8,908.1,397.6z"/>
		<path d="M912.1,397.1c0-1.8,1.6-2.7,5.1-3.1c0-1.1-0.4-2.1-1.7-2.1c-1,0-1.8,0.5-2.5,0.9l-0.5-1c0.8-0.5,1.9-1.1,3.2-1.1
			c2,0,2.9,1.3,2.9,3.4v5.1h-1.2l-0.1-1h0c-0.8,0.7-1.7,1.2-2.7,1.2C913.1,399.5,912.1,398.6,912.1,397.1z M917.1,397.3V395
			c-2.8,0.3-3.7,1-3.7,2.1c0,0.9,0.6,1.3,1.4,1.3C915.7,398.4,916.3,398,917.1,397.3z"/>
		<path d="M920.4,398.3l0.7-0.9c0.7,0.6,1.4,1,2.4,1c1.1,0,1.6-0.6,1.6-1.3c0-0.9-1-1.2-1.9-1.6c-1.2-0.4-2.5-1-2.5-2.4
			c0-1.3,1.1-2.3,2.8-2.3c1,0,1.9,0.4,2.6,0.9l-0.7,0.9c-0.6-0.4-1.2-0.7-1.9-0.7c-1,0-1.5,0.6-1.5,1.2c0,0.8,0.9,1.1,1.8,1.4
			c1.2,0.4,2.5,0.9,2.5,2.5c0,1.3-1.1,2.5-3,2.5C922.3,399.5,921.2,399,920.4,398.3z"/>
		<path d="M811.8,415.6c0-2.7,1.7-4.3,3.6-4.3c1,0,1.6,0.4,2.3,1l-0.1-1.4v-3.2h1.4v12.1h-1.2l-0.1-1h0c-0.6,0.6-1.5,1.2-2.5,1.2
			C813.2,419.9,811.8,418.3,811.8,415.6z M817.7,417.6v-4.3c-0.7-0.6-1.3-0.9-2-0.9c-1.3,0-2.4,1.3-2.4,3.2c0,2,0.8,3.2,2.3,3.2
			C816.3,418.7,817,418.3,817.7,417.6z"/>
		<path d="M821.4,415.6c0-2.7,1.8-4.3,3.7-4.3c2.1,0,3.3,1.5,3.3,3.9c0,0.3,0,0.6-0.1,0.8h-5.6c0.1,1.8,1.2,2.9,2.7,2.9
			c0.8,0,1.4-0.3,2.1-0.7l0.5,0.9c-0.7,0.5-1.6,0.9-2.7,0.9C823.2,419.9,821.4,418.3,821.4,415.6z M827.2,414.9c0-1.7-0.7-2.6-2-2.6
			c-1.2,0-2.2,0.9-2.4,2.6H827.2z"/>
		<path d="M829.7,418.7l0.7-0.9c0.7,0.6,1.4,1,2.4,1c1.1,0,1.6-0.6,1.6-1.3c0-0.9-1-1.2-1.9-1.6c-1.2-0.4-2.5-1-2.5-2.4
			c0-1.3,1.1-2.3,2.9-2.3c1,0,1.9,0.4,2.6,0.9l-0.7,0.9c-0.6-0.4-1.2-0.7-1.9-0.7c-1,0-1.5,0.6-1.5,1.2c0,0.8,0.9,1.1,1.8,1.4
			c1.2,0.4,2.5,0.9,2.5,2.5c0,1.3-1.1,2.5-3,2.5C831.6,419.9,830.5,419.4,829.7,418.7z"/>
		<path d="M837.4,417.5c0-1.8,1.6-2.7,5.1-3.1c0-1.1-0.4-2.1-1.7-2.1c-1,0-1.8,0.5-2.5,0.9l-0.5-1c0.8-0.5,1.9-1.1,3.2-1.1
			c2,0,2.9,1.3,2.9,3.4v5.1h-1.2l-0.1-1h0c-0.8,0.7-1.7,1.2-2.7,1.2C838.4,419.9,837.4,419,837.4,417.5z M842.5,417.7v-2.3
			c-2.8,0.3-3.7,1-3.7,2.1c0,0.9,0.6,1.3,1.4,1.3C841,418.8,841.7,418.4,842.5,417.7z"/>
		<path d="M846.7,411.4h1.2l0.1,1h0c0.7-0.6,1.7-1.2,2.6-1.2c2.1,0,3.3,1.7,3.3,4.2c0,2.8-1.7,4.5-3.6,4.5c-0.8,0-1.5-0.3-2.3-1
			l0,1.4v2.8h-1.4V411.4z M852.4,415.4c0-1.8-0.6-3-2.2-3c-0.7,0-1.4,0.4-2.2,1.1v4.3c0.7,0.6,1.5,0.9,2,0.9
			C851.4,418.7,852.4,417.5,852.4,415.4z"/>
		<path d="M855.7,417.5c0-1.8,1.6-2.7,5.1-3.1c0-1.1-0.4-2.1-1.7-2.1c-1,0-1.8,0.5-2.5,0.9l-0.5-1c0.8-0.5,1.9-1.1,3.2-1.1
			c2,0,2.9,1.3,2.9,3.4v5.1h-1.2l-0.1-1h0c-0.8,0.7-1.7,1.2-2.7,1.2C856.8,419.9,855.7,419,855.7,417.5z M860.8,417.7v-2.3
			c-2.8,0.3-3.7,1-3.7,2.1c0,0.9,0.6,1.3,1.4,1.3C859.4,418.8,860,418.4,860.8,417.7z"/>
		<path d="M865,411.4h1.2l0.1,1.5h0c0.6-1,1.4-1.7,2.3-1.7c0.4,0,0.6,0,0.9,0.2l-0.3,1.2c-0.3-0.1-0.5-0.1-0.8-0.1
			c-0.7,0-1.5,0.5-2.1,1.9v5.3H865V411.4z"/>
		<path d="M870.8,408.8c0-0.5,0.4-0.9,1-0.9c0.5,0,1,0.4,1,0.9c0,0.5-0.4,0.9-1,0.9C871.2,409.7,870.8,409.4,870.8,408.8z
			 M871.1,411.4h1.4v8.3h-1.4V411.4z"/>
		<path d="M874.8,415.6c0-2.8,1.9-4.3,4-4.3c1.1,0,1.8,0.4,2.4,1l-0.7,0.9c-0.5-0.4-1-0.7-1.6-0.7c-1.5,0-2.6,1.3-2.6,3.2
			c0,1.9,1,3.2,2.6,3.2c0.8,0,1.4-0.4,1.9-0.8l0.6,0.9c-0.7,0.7-1.7,1.1-2.7,1.1C876.5,419.9,874.8,418.3,874.8,415.6z"/>
		<path d="M883.1,408.8c0-0.5,0.4-0.9,1-0.9c0.5,0,1,0.4,1,0.9c0,0.5-0.4,0.9-1,0.9C883.5,409.7,883.1,409.4,883.1,408.8z
			 M883.3,411.4h1.4v8.3h-1.4V411.4z"/>
		<path d="M887.1,415.6c0-2.8,1.8-4.3,3.8-4.3s3.8,1.6,3.8,4.3c0,2.7-1.8,4.3-3.8,4.3S887.1,418.3,887.1,415.6z M893.3,415.6
			c0-1.9-1-3.2-2.4-3.2s-2.4,1.3-2.4,3.2c0,1.9,1,3.2,2.4,3.2S893.3,417.5,893.3,415.6z"/>
		<path d="M897.1,411.4h1.2l0.1,1.2h0c0.8-0.8,1.6-1.4,2.8-1.4c1.7,0,2.5,1.1,2.5,3.2v5.2h-1.4v-5.1c0-1.5-0.5-2.2-1.6-2.2
			c-0.8,0-1.4,0.4-2.3,1.3v6h-1.4V411.4z"/>
		<path d="M905.9,415.6c0-2.7,1.8-4.3,3.7-4.3c2.1,0,3.3,1.5,3.3,3.9c0,0.3,0,0.6-0.1,0.8h-5.6c0.1,1.8,1.2,2.9,2.7,2.9
			c0.8,0,1.4-0.3,2.1-0.7l0.5,0.9c-0.7,0.5-1.6,0.9-2.7,0.9C907.7,419.9,905.9,418.3,905.9,415.6z M911.7,414.9c0-1.7-0.7-2.6-2-2.6
			c-1.2,0-2.2,0.9-2.4,2.6H911.7z"/>
		<path d="M914.2,418.7l0.7-0.9c0.7,0.6,1.4,1,2.4,1c1.1,0,1.6-0.6,1.6-1.3c0-0.9-1-1.2-1.9-1.6c-1.2-0.4-2.5-1-2.5-2.4
			c0-1.3,1.1-2.3,2.9-2.3c1,0,1.9,0.4,2.6,0.9l-0.7,0.9c-0.6-0.4-1.2-0.7-1.9-0.7c-1,0-1.5,0.6-1.5,1.2c0,0.8,0.9,1.1,1.8,1.4
			c1.2,0.4,2.5,0.9,2.5,2.5c0,1.3-1.1,2.5-3,2.5C916.1,419.9,915,419.4,914.2,418.7z"/>
		<path d="M816.1,431.9l1.2-0.1h3.1v1.1h-4.3V431.9z M817.2,430.5c0-1.7,0.8-2.7,2.4-2.7c0.5,0,1,0.1,1.4,0.3l-0.3,1.1
			c-0.3-0.1-0.6-0.2-0.9-0.2c-0.8,0-1.2,0.5-1.2,1.6v9.6h-1.4V430.5z"/>
		<path d="M821.5,436c0-2.8,1.8-4.3,3.8-4.3s3.8,1.6,3.8,4.3c0,2.7-1.8,4.3-3.8,4.3S821.5,438.7,821.5,436z M827.7,436
			c0-1.9-1-3.2-2.4-3.2s-2.4,1.3-2.4,3.2c0,1.9,1,3.2,2.4,3.2S827.7,437.9,827.7,436z"/>
		<path d="M831.5,431.8h1.2l0.1,1.5h0c0.6-1,1.4-1.7,2.3-1.7c0.4,0,0.6,0,0.9,0.2l-0.3,1.2c-0.3-0.1-0.5-0.1-0.8-0.1
			c-0.7,0-1.5,0.5-2.1,1.9v5.3h-1.4V431.8z"/>
		<path d="M836.7,439.3l4.3-6.4h-3.9v-1.1h5.6v0.7l-4.3,6.4h4.5v1.1h-6.3V439.3z"/>
		<path d="M844.4,437.9c0-1.8,1.6-2.7,5.1-3.1c0-1.1-0.4-2.1-1.7-2.1c-1,0-1.8,0.5-2.5,0.9l-0.5-1c0.8-0.5,1.9-1.1,3.2-1.1
			c2,0,2.9,1.3,2.9,3.4v5.1h-1.2l-0.1-1h0c-0.8,0.7-1.7,1.2-2.7,1.2C845.5,440.3,844.4,439.4,844.4,437.9z M849.5,438.1v-2.3
			c-2.8,0.3-3.7,1-3.7,2.1c0,0.9,0.6,1.3,1.4,1.3C848,439.2,848.7,438.8,849.5,438.1z"/>
		<path d="M853.1,436c0-2.7,1.7-4.3,3.6-4.3c1,0,1.6,0.4,2.3,1l-0.1-1.4V428h1.4v12.1h-1.2l-0.1-1h0c-0.6,0.6-1.5,1.2-2.5,1.2
			C854.4,440.3,853.1,438.7,853.1,436z M858.9,438v-4.3c-0.7-0.6-1.3-0.9-2-0.9c-1.3,0-2.4,1.3-2.4,3.2c0,2,0.8,3.2,2.3,3.2
			C857.6,439.1,858.2,438.7,858.9,438z"/>
		<path d="M862.8,437.9c0-1.8,1.6-2.7,5.1-3.1c0-1.1-0.4-2.1-1.7-2.1c-1,0-1.8,0.5-2.5,0.9l-0.5-1c0.8-0.5,1.9-1.1,3.2-1.1
			c2,0,2.9,1.3,2.9,3.4v5.1h-1.2l-0.1-1h0c-0.8,0.7-1.7,1.2-2.7,1.2C863.8,440.3,862.8,439.4,862.8,437.9z M867.8,438.1v-2.3
			c-2.8,0.3-3.7,1-3.7,2.1c0,0.9,0.6,1.3,1.4,1.3C866.4,439.2,867,438.8,867.8,438.1z"/>
		<path d="M871.1,439.1l0.7-0.9c0.7,0.6,1.4,1,2.4,1c1.1,0,1.6-0.6,1.6-1.3c0-0.9-1-1.2-1.9-1.6c-1.2-0.4-2.5-1-2.5-2.4
			c0-1.3,1.1-2.3,2.8-2.3c1,0,1.9,0.4,2.6,0.9l-0.7,0.9c-0.6-0.4-1.2-0.7-1.9-0.7c-1,0-1.5,0.6-1.5,1.2c0,0.8,0.9,1.1,1.8,1.4
			c1.2,0.4,2.5,0.9,2.5,2.5c0,1.3-1.1,2.5-3,2.5C873,440.3,871.9,439.8,871.1,439.1z"/>
		<path d="M882.3,436c0-2.7,1.7-4.3,3.6-4.3c1,0,1.6,0.4,2.3,1l-0.1-1.4V428h1.4v12.1h-1.2l-0.1-1h0c-0.6,0.6-1.5,1.2-2.5,1.2
			C883.6,440.3,882.3,438.7,882.3,436z M888.1,438v-4.3c-0.7-0.6-1.3-0.9-2-0.9c-1.3,0-2.4,1.3-2.4,3.2c0,2,0.8,3.2,2.3,3.2
			C886.8,439.1,887.4,438.7,888.1,438z"/>
		<path d="M891.9,436c0-2.7,1.8-4.3,3.7-4.3c2.1,0,3.3,1.5,3.3,3.9c0,0.3,0,0.6-0.1,0.8h-5.6c0.1,1.8,1.2,2.9,2.7,2.9
			c0.8,0,1.4-0.3,2.1-0.7l0.5,0.9c-0.7,0.5-1.6,0.9-2.7,0.9C893.6,440.3,891.9,438.7,891.9,436z M897.6,435.3c0-1.7-0.7-2.6-2-2.6
			c-1.2,0-2.2,0.9-2.4,2.6H897.6z"/>
		<path d="M904.7,438.4V428h1.4v10.6c0,0.4,0.2,0.6,0.4,0.6c0.1,0,0.1,0,0.3,0l0.2,1.1c-0.2,0.1-0.4,0.1-0.8,0.1
			C905.1,440.3,904.7,439.6,904.7,438.4z"/>
		<path d="M908.7,437.9c0-1.8,1.6-2.7,5.1-3.1c0-1.1-0.4-2.1-1.7-2.1c-1,0-1.8,0.5-2.5,0.9l-0.5-1c0.8-0.5,1.9-1.1,3.2-1.1
			c2,0,2.9,1.3,2.9,3.4v5.1H914l-0.1-1h0c-0.8,0.7-1.7,1.2-2.7,1.2C909.7,440.3,908.7,439.4,908.7,437.9z M913.7,438.1v-2.3
			c-2.8,0.3-3.7,1-3.7,2.1c0,0.9,0.6,1.3,1.4,1.3C912.3,439.2,912.9,438.8,913.7,438.1z"/>
		<path d="M842.5,456.4c0-2.7,1.8-4.3,3.7-4.3c2.1,0,3.3,1.5,3.3,3.9c0,0.3,0,0.6-0.1,0.8h-5.6c0.1,1.8,1.2,2.9,2.7,2.9
			c0.8,0,1.4-0.3,2.1-0.7l0.5,0.9c-0.7,0.5-1.6,0.9-2.7,0.9C844.2,460.7,842.5,459.1,842.5,456.4z M848.3,455.7c0-1.7-0.7-2.6-2-2.6
			c-1.2,0-2.2,0.9-2.4,2.6H848.3z M845.2,450l2.4-2.8l1,0.9l-2.7,2.6L845.2,450z"/>
		<path d="M851.7,452.2h1.2l0.1,1h0c0.7-0.6,1.7-1.2,2.6-1.2c2.1,0,3.3,1.7,3.3,4.2c0,2.8-1.7,4.5-3.6,4.5c-0.8,0-1.5-0.3-2.3-1
			l0,1.4v2.8h-1.4V452.2z M857.5,456.2c0-1.8-0.6-3-2.2-3c-0.7,0-1.4,0.4-2.2,1.1v4.3c0.7,0.6,1.5,0.9,2,0.9
			C856.5,459.5,857.5,458.3,857.5,456.2z"/>
		<path d="M860.7,456.4c0-2.8,1.8-4.3,3.8-4.3c2,0,3.8,1.6,3.8,4.3c0,2.7-1.8,4.3-3.8,4.3C862.5,460.7,860.7,459.1,860.7,456.4z
			 M866.9,456.4c0-1.9-1-3.2-2.4-3.2c-1.4,0-2.4,1.3-2.4,3.2c0,1.9,1,3.2,2.4,3.2C865.9,459.5,866.9,458.3,866.9,456.4z"/>
		<path d="M870.1,456.4c0-2.8,1.9-4.3,4-4.3c1.1,0,1.8,0.4,2.4,1l-0.7,0.9c-0.5-0.4-1-0.7-1.6-0.7c-1.5,0-2.6,1.3-2.6,3.2
			c0,1.9,1,3.2,2.6,3.2c0.8,0,1.4-0.4,1.9-0.8l0.6,0.9c-0.7,0.7-1.7,1.1-2.7,1.1C871.8,460.7,870.1,459.1,870.1,456.4z"/>
		<path d="M878.1,458.3c0-1.8,1.6-2.7,5.1-3.1c0-1.1-0.4-2.1-1.7-2.1c-1,0-1.8,0.5-2.5,0.9l-0.5-1c0.8-0.5,1.9-1.1,3.2-1.1
			c2,0,2.9,1.3,2.9,3.4v5.1h-1.2l-0.1-1h0c-0.8,0.7-1.7,1.2-2.7,1.2C879.1,460.7,878.1,459.8,878.1,458.3z M883.2,458.5v-2.3
			c-2.8,0.3-3.7,1-3.7,2.1c0,0.9,0.6,1.3,1.4,1.3C881.7,459.6,882.4,459.2,883.2,458.5z"/>
		<path d="M887.1,459.6c0-0.6,0.5-1.1,1-1.1c0.6,0,1,0.4,1,1.1c0,0.6-0.5,1.1-1,1.1C887.5,460.7,887.1,460.3,887.1,459.6z"/>
	</g>
</g>
</svg>
