<?xml version="1.0" encoding="utf-8"?>
<!-- Generator: Adobe Illustrator 26.2.1, SVG Export Plug-In . SVG Version: 6.00 Build 0)  -->
<svg version="1.1" id="Capa_1" xmlns="http://www.w3.org/2000/svg" xmlns:xlink="http://www.w3.org/1999/xlink" x="0px" y="0px"
	 viewBox="0 0 1200 416.3" style="enable-background:new 0 0 1200 416.3;" xml:space="preserve">
<style type="text/css">
	.st0{fill-rule:evenodd;clip-rule:evenodd;}
	.st1{fill:none;stroke:#1D1D1B;stroke-width:5;stroke-miterlimit:10;}
	.st2{fill:#293172;}
	.st3{fill:#EC645D;}
	.st4{fill:#A3BE33;}
	.st5{fill:#F7A942;}
</style>
<path class="st0" d="M256,339.1c-0.1-0.6-0.1-1.3-0.1-2c-0.1,0.2-0.2,0.5-0.2,0.8C255.8,338.2,255.9,338.6,256,339.1L256,339.1z
	 M251.3,309.5c0.3,0.1,0.4,0.4,0.9,0.4v0.1c0.2-0.1,0.4-0.2,0.4-0.5c0.3,0.1,0.4,0.4,0.9,0.4c0,0.3,0,0.6,0,0.9
	c-0.6,0.1-0.9-0.1-1.3-0.3v0.3c-0.9,0.2-1.1-0.3-1.7-0.4C250.5,309.9,251.3,310.1,251.3,309.5L251.3,309.5z M211.2,319.7
	c0.3-0.1,0.6-0.1,0.9,0c0.6,0.3,1.1,0.6,1.4,0.7l0.4,0.1c0.7,0.4,1.4,0.8,1.9,0.9c3.6,1,7.2,1.3,10.8,1.3c8.9,0.1,17.6-2.4,24.6-4.7
	c10.9-3.5,20.2-7.5,29.4-12.4c5.6-2.9,11.2-7.2,16.2-11.5c10.3-9,19.2-16.1,23.9-29.8c4.5-13.3,4.2-36.6-0.4-48.1
	c-2.1-5.2-3.6-9.1-6.4-13.2c-1.3-2-3.2-3.7-4.7-5.5c-5.6-7-9.2-10.4-15.8-14.9c-10.2-7.1-22.9-12.7-36.1-16.3c-1.7-0.5-3.3-1-5-1.4
	c-4.5-1.1-8.8-1.7-13.6-2.6c-3.7-0.7-8.8-1.9-13.6-1.3c-12.9,1.6-26.3,0.7-36.2,3.4c-15.9,4.3-28.1,13.7-37.5,24.3
	c-4.3,6.9-6.9,15-9.8,23c-3.4,9.4-7.8,19.1-7.7,31.1c0.1,10.6,3.8,21.5,8.5,29.8c9.3,16.4,23.9,31.2,42.1,38.7
	c5.4,2.5,11.2,4.3,17.3,5.4c2,0.3,4.6,0.5,6.6,0.5c0.1,0.6,0.1,1.2,0.4,1.5c0.5-0.2,1.3,0.1,2,0.4
	C211,319.4,211.1,319.6,211.2,319.7L211.2,319.7z M139.7,262.5c-1.7-4.6-2.9-10-3.7-14.5c-2-12.1,3.4-23.5,7.2-34.5
	c2.5-7.4,5.2-15.9,8.5-21.3c0.5-0.7,1.1-1.4,1.8-2.1c-4.2,6.8-6.7,14.8-9.6,22.7c-3.4,9.4-7.8,19.1-7.7,31.1
	C136.3,250.2,137.7,256.6,139.7,262.5L139.7,262.5z M291.4,294.7c0.6-0.5,1.2-1.1,1.9-1.6l2.4-2.1v0.1
	C294.2,292.4,292.8,293.6,291.4,294.7L291.4,294.7z M298.6,288.5c0.6-0.5,1.1-1,1.7-1.5C299.8,287.6,299.2,288.1,298.6,288.5
	L298.6,288.5z M304.2,283.3c5.5-5.5,10-11.4,12.9-19.9c0.8-2.5,1.5-5.3,2-8.4c-0.1,1.5-0.2,2.9-0.5,4.3
	C316.5,268.9,311.2,277.1,304.2,283.3L304.2,283.3z M320.2,242.2c0-0.5,0-1,0-1.6c0,0.1,0,0.2,0,0.3
	C320.3,241.3,320.3,241.8,320.2,242.2L320.2,242.2z M320.1,234.3c0-0.8-0.1-1.6-0.2-2.4c0.1,0.6,0.3,1.1,0.3,1.7
	C320.3,233.9,320.2,234.1,320.1,234.3L320.1,234.3z M268.8,173.1c-4.4-1.8-8.9-3.5-13.7-4.6c-8.3-2-17.9-3.5-26.3-4.3
	c-1.6,0.1-3.4,0.8-4.8,0.8c-13.4,0.8-25.4,0.8-34.5,4.3c-4.7,1.8-8.1,3-11.9,5.1c-3.9,2.1-7.4,4.6-10.2,6.8c-3.4,2.7-5,4.1-7.7,7.2
	c-1.4,1.6-3.3,3.1-4.3,4.7c-3.3,5.4-6,13.9-8.5,21.3c-3.8,11-9.2,22.4-7.2,34.5c1.1,6.7,3.4,15.5,6.4,20.4c0.7,1.1,1.7,2.4,3,3
	c-1.7-0.1-0.2,0.9-0.4,1.7c3.1,5.5,7.2,10.4,11.1,14.9c6.4,7.4,13.7,13.8,22.2,18.3c4.2,2.2,7.4,3.3,11.5,4.5h0.2h0.1l0,0h0.1l0,0
	c1.1,0.3,2.2,0.6,3.4,0.9c1,0.3,2,0.6,3,0.9c0.4,0.1,0.7,0.1,1.1,0.2c12.1,1.3,20.4-2,29-3.4c2.5-0.4,5.2-0.9,7.7-1.3
	c1.9-0.3,5.1-1.1,6.8,0.4l-0.4,0.1c0.2,0,0.3,0,0.4,0c1.3-0.1,2.7,0,3.6,0.9c-5.1,1.5-10.7,2.2-16.2,3.4c-5.5,1.2-11.2,1.9-15.1,4.2
	c10.1,1.9,23.6,0.7,29-4.7l0,0c1.4,0.9,2.5,0.6,3.8,0.4c3.9-0.6,8.2-2.9,11.9-4.7c11.7-5.4,23.3-11.6,31.5-19.2
	c0.2-2,4.3-2.4,5.1-5.1c8.7-6.4,15.5-15.6,17.9-26.8c0.6-2.9,0.5-6.3,0.9-9.8c0.3-2.9,0.9-6,0.9-8.5c0-1.5-0.8-3.2-0.9-4.7
	c0-0.8,0.9-1.7,0.9-2.6c0-0.9-0.4-1.7-0.4-2.6c-0.2-4.2-0.9-7.5-1.7-10.2c-1.8-6.6-3.9-10.7-7.7-16.2c-3.2-4.7-6.8-9.1-10.2-12.4
	c-3-2.9-6-5.6-9.8-8.1c-4.2-2.7-9.2-5.3-13.2-7.2C272.9,175,270.8,174.1,268.8,173.1L268.8,173.1z M248.9,308.5
	c0.3,0.1,0.4,0.4,0.9,0.4c0,0.3,0,0.6,0,0.9c-0.9,0.2-1.1-0.3-1.7-0.4C248.2,308.9,248.9,309.1,248.9,308.5z"/>
<path class="st0" d="M497.2,339.1c-0.1-0.6-0.1-1.2-0.1-1.9c-0.1,0.2-0.2,0.5-0.2,0.8S497,338.6,497.2,339.1L497.2,339.1z
	 M492.6,311c0.3,0.1,0.4,0.4,0.8,0.4v0.1c0.2-0.1,0.4-0.2,0.4-0.5c0.3,0.1,0.4,0.4,0.8,0.4c0,0.3,0,0.5,0,0.8
	c-0.6,0.1-0.9-0.1-1.2-0.2v0.2c-0.8,0.2-1.1-0.3-1.6-0.4C491.9,311.4,492.6,311.5,492.6,311L492.6,311z M454.6,320.7
	c0.2-0.1,0.5,0,0.8,0c0.5,0.3,1,0.5,1.4,0.6l0.4,0.1c0.7,0.4,1.4,0.7,1.8,0.9c3.4,0.9,6.8,1.2,10.2,1.2c8.5,0.1,16.8-2.3,23.3-4.4
	c10.4-3.4,19.2-7.1,27.9-11.7c5.3-2.8,10.6-6.8,15.4-10.9c9.8-8.5,18.3-15.3,22.7-28.3c4.3-12.6,4-34.7-0.4-45.7
	c-2-4.9-3.4-8.6-6.1-12.5c-1.3-1.9-3.1-3.5-4.5-5.3c-5.3-6.7-8.7-9.8-15-14.2c-9.7-6.7-21.7-12.1-34.3-15.4
	c-1.6-0.5-3.2-0.9-4.8-1.3c-4.3-1.1-8.4-1.6-12.9-2.4c-3.5-0.7-8.4-1.8-12.9-1.2c-12.3,1.5-25,0.7-34.4,3.2
	c-15.1,4.1-26.7,13-35.6,23.1c-4.1,6.5-6.5,14.2-9.3,21.8c-3.2,8.9-7.4,18.1-7.3,29.5c0.1,10,3.6,20.4,8.1,28.3
	c8.8,15.6,22.7,29.6,40,36.7c5.2,2.4,10.7,4.1,16.4,5.1c1.9,0.3,4.4,0.5,6.2,0.5c0.1,0.5,0.1,1.1,0.4,1.4c0.5-0.1,1.2,0.1,1.9,0.4
	C454.4,320.4,454.4,320.6,454.6,320.7L454.6,320.7z M386.7,266.3c-1.6-4.3-2.8-9.5-3.5-13.8c-1.9-11.5,3.3-22.3,6.9-32.8
	c2.4-7,4.9-15.1,8.1-20.2c0.4-0.7,1-1.4,1.7-2c-4,6.5-6.4,14.1-9.2,21.6c-3.2,8.9-7.4,18.1-7.3,29.5
	C383.5,254.7,384.7,260.7,386.7,266.3L386.7,266.3z M530.7,297c0.6-0.5,1.2-1,1.8-1.5l2.2-2v0.1C533.4,294.8,532.1,295.9,530.7,297
	L530.7,297z M537.5,291c0.5-0.5,1.1-0.9,1.6-1.4C538.7,290.2,538.1,290.6,537.5,291L537.5,291z M542.9,286.1
	c5.2-5.2,9.5-10.8,12.2-18.9c0.8-2.4,1.4-5,1.9-7.9c-0.1,1.4-0.2,2.8-0.5,4C554.5,272.5,549.5,280.2,542.9,286.1L542.9,286.1z
	 M558.1,247.1c0-0.5,0-1,0-1.5c0,0.1,0,0.2,0,0.3C558.2,246.3,558.1,246.7,558.1,247.1L558.1,247.1z M558,239.6
	c0-0.8-0.1-1.5-0.1-2.3c0.1,0.5,0.3,1.1,0.3,1.6C558.1,239.2,558.1,239.4,558,239.6L558,239.6z M509.2,181.5
	c-4.1-1.7-8.4-3.3-13-4.4c-7.9-1.9-17-3.3-25-4c-1.5,0.1-3.2,0.7-4.6,0.8c-12.8,0.8-24.1,0.8-32.8,4c-4.5,1.7-7.7,2.9-11.3,4.9
	c-3.7,2-7,4.3-9.7,6.5c-3.3,2.6-4.7,3.9-7.3,6.9c-1.3,1.5-3.1,2.9-4,4.5c-3.2,5.1-5.7,13.2-8.1,20.2c-3.6,10.5-8.8,21.2-6.9,32.8
	c1.1,6.4,3.3,14.7,6.1,19.4c0.7,1.1,1.6,2.2,2.8,2.8c-1.7-0.1-0.2,0.8-0.4,1.6c3,5.2,6.8,9.9,10.5,14.2c6.1,7,13,13.1,21,17.4
	c4,2.1,7,3.1,11,4.2h0.2h0.1l0,0h0.1l0,0c1,0.3,2.1,0.6,3.2,0.9c0.9,0.3,1.9,0.6,2.8,0.9c0.3,0.1,0.7,0.1,1,0.2
	c11.4,1.2,19.4-1.9,27.5-3.2c2.4-0.4,4.9-0.9,7.3-1.2c1.8-0.3,4.8-1.1,6.5,0.4l-0.4,0.1c0.1,0,0.3,0,0.4,0c1.3-0.1,2.5,0,3.4,0.8
	c-4.9,1.4-10.2,2.1-15.4,3.2c-5.2,1.2-10.6,1.8-14.4,3.9c9.6,1.8,22.4,0.6,27.5-4.5l0,0c1.3,0.9,2.3,0.6,3.6,0.4
	c3.7-0.6,7.7-2.8,11.3-4.5c11.1-5.1,22.1-11,29.9-18.2c0.2-1.9,4.1-2.3,4.9-4.9c8.3-6.1,14.7-14.8,17-25.5c0.6-2.7,0.5-5.9,0.8-9.3
	c0.3-2.8,0.8-5.7,0.8-8.1c0-1.4-0.7-3-0.8-4.5c0-0.8,0.8-1.6,0.8-2.4c0-0.9-0.4-1.6-0.4-2.4c-0.2-4-0.9-7.1-1.6-9.7
	c-1.8-6.3-3.7-10.2-7.3-15.4c-3.1-4.5-6.5-8.6-9.7-11.7c-2.9-2.8-5.7-5.3-9.3-7.7c-4-2.6-8.7-5-12.5-6.9
	C513.1,183.3,511.2,182.4,509.2,181.5L509.2,181.5z M490.4,310c0.3,0.1,0.4,0.4,0.8,0.4c0,0.3,0,0.5,0,0.8c-0.8,0.2-1.1-0.3-1.6-0.4
	C489.7,310.4,490.4,310.6,490.4,310z"/>
<path class="st0" d="M738.4,339.1c-0.1-0.6-0.1-1.2-0.1-1.8c-0.1,0.2-0.2,0.4-0.2,0.8C738.1,338.3,738.2,338.7,738.4,339.1
	L738.4,339.1z M734,312.4c0.3,0.1,0.4,0.4,0.8,0.4l0,0c0.2-0.1,0.4-0.2,0.4-0.4c0.3,0.1,0.4,0.4,0.8,0.4c0,0.3,0,0.5,0,0.8
	c-0.6,0.1-0.9-0.1-1.2-0.2v0.2c-0.8,0.2-1-0.3-1.5-0.4C733.4,312.7,734,312.9,734,312.4L734,312.4z M697.9,321.6
	c0.2-0.1,0.5,0,0.8,0c0.5,0.3,1,0.5,1.3,0.6l0.4,0.1c0.7,0.3,1.3,0.7,1.7,0.8c3.2,0.9,6.5,1.2,9.7,1.1c8.1,0.1,15.9-2.2,22.2-4.2
	c9.9-3.2,18.2-6.8,26.5-11.1c5-2.7,10.1-6.5,14.6-10.4c9.3-8.1,17.4-14.6,21.5-26.9c4-12,3.8-33-0.4-43.4c-1.9-4.7-3.3-8.2-5.8-11.9
	c-1.2-1.8-2.9-3.4-4.2-5c-5.1-6.4-8.3-9.3-14.2-13.5c-9.2-6.4-20.6-11.5-32.6-14.7c-1.5-0.4-3-0.9-4.5-1.2c-4.1-1-8-1.5-12.3-2.3
	c-3.3-0.6-7.9-1.7-12.3-1.2c-11.7,1.4-23.8,0.6-32.7,3.1c-14.4,3.9-25.4,12.3-33.8,21.9c-3.9,6.2-6.2,13.5-8.8,20.8
	c-3.1,8.5-7.1,17.2-6.9,28.1c0.1,9.5,3.4,19.4,7.7,26.9c8.4,14.8,21.6,28.1,38,34.9c4.9,2.2,10.1,3.9,15.6,4.8
	c1.8,0.3,4.2,0.5,5.9,0.4c0.1,0.5,0.1,1.1,0.4,1.3c0.5-0.1,1.2,0.1,1.8,0.4C697.7,321.3,697.8,321.5,697.9,321.6L697.9,321.6z
	 M633.4,269.9c-1.5-4.1-2.7-9-3.3-13.1c-1.8-11,3.1-21.2,6.5-31.1c2.3-6.7,4.7-14.4,7.7-19.2c0.4-0.7,1-1.3,1.6-1.9
	c-3.8,6.2-6.1,13.4-8.7,20.5c-3.1,8.5-7.1,17.2-6.9,28.1C630.3,258.9,631.5,264.6,633.4,269.9L633.4,269.9z M770.2,299.1
	c0.6-0.5,1.1-0.9,1.7-1.4l2.1-1.9v0.1C772.8,297,771.6,298,770.2,299.1L770.2,299.1z M776.7,293.4c0.5-0.5,1-0.9,1.5-1.3
	C777.9,292.6,777.3,293,776.7,293.4L776.7,293.4z M781.8,288.7c4.9-4.9,9-10.3,11.6-18c0.8-2.2,1.4-4.8,1.8-7.5
	c-0.1,1.4-0.2,2.7-0.5,3.8C792.9,275.8,788.2,283.1,781.8,288.7L781.8,288.7z M796.3,251.6c0-0.5,0-0.9,0-1.4c0,0.1,0,0.2,0,0.3
	C796.3,250.9,796.3,251.2,796.3,251.6L796.3,251.6z M796.2,244.5c0-0.7-0.1-1.4-0.1-2.1c0.1,0.5,0.3,1,0.3,1.6
	C796.3,244.1,796.3,244.3,796.2,244.5L796.2,244.5z M749.8,189.3c-3.9-1.7-8-3.1-12.3-4.2c-7.5-1.8-16.1-3.1-23.7-3.8
	c-1.5,0.1-3,0.7-4.3,0.8c-12.1,0.7-22.9,0.7-31.1,3.8c-4.3,1.6-7.3,2.7-10.8,4.6c-3.5,1.9-6.7,4.1-9.2,6.2c-3.1,2.4-4.5,3.7-6.9,6.5
	c-1.3,1.5-2.9,2.8-3.8,4.2c-3,4.9-5.4,12.6-7.7,19.2c-3.4,10-8.3,20.2-6.5,31.1c1,6.1,3.1,14,5.8,18.5c0.6,1,1.5,2.1,2.7,2.7
	c-1.6-0.1-0.2,0.8-0.4,1.5c2.8,4.9,6.5,9.4,10,13.5c5.8,6.7,12.3,12.5,20,16.5c3.8,2,6.6,3,10.4,4h0.1h0.1l0,0h0.1l0,0
	c1,0.3,2,0.5,3.1,0.9c0.9,0.3,1.8,0.6,2.7,0.9c0.3,0.1,0.6,0.1,1,0.1c10.9,1.2,18.5-1.8,26.1-3.1c2.3-0.4,4.6-0.8,6.9-1.2
	c1.7-0.2,4.6-1,6.2,0.4l-0.4,0.1c0.1,0,0.3,0,0.4,0c1.2-0.1,2.4,0,3.3,0.8c-4.6,1.3-9.7,2-14.6,3.1c-4.9,1.1-10.1,1.8-13.7,3.7
	c9.1,1.7,21.3,0.6,26.2-4.3l0,0c1.2,0.8,2.2,0.6,3.5,0.4c3.5-0.6,7.4-2.6,10.8-4.2c10.5-4.9,21-10.5,28.5-17.3
	c0.2-1.8,3.9-2.2,4.6-4.6c7.9-5.8,14-14.1,16.1-24.2c0.6-2.6,0.5-5.6,0.8-8.8c0.2-2.6,0.8-5.4,0.8-7.7c0-1.4-0.7-2.9-0.8-4.2
	c0-0.7,0.8-1.6,0.8-2.3c0-0.8-0.3-1.5-0.4-2.3c-0.2-3.8-0.9-6.8-1.5-9.2c-1.7-6-3.6-9.7-6.9-14.6c-2.9-4.3-6.2-8.2-9.2-11.1
	c-2.7-2.7-5.4-5.1-8.8-7.3c-3.8-2.4-8.3-4.8-11.9-6.5C753.5,191,751.7,190.1,749.8,189.3L749.8,189.3z M731.9,311.5
	c0.3,0.1,0.4,0.4,0.8,0.4c0,0.3,0,0.5,0,0.8c-0.8,0.2-1-0.3-1.5-0.4C731.2,311.8,731.9,312,731.9,311.5z"/>
<path class="st0" d="M977.4,338.1c-0.1-0.5-0.1-1-0.1-1.5c-0.1,0.2-0.2,0.4-0.2,0.6C977.2,337.4,977.3,337.7,977.4,338.1
	L977.4,338.1z M973.7,315.1c0.3,0.1,0.3,0.3,0.7,0.3l0,0c0.2-0.1,0.3-0.1,0.3-0.4c0.3,0.1,0.3,0.3,0.7,0.3c0,0.2,0,0.4,0,0.7
	c-0.5,0.1-0.7-0.1-1-0.2v0.2c-0.7,0.1-0.9-0.2-1.3-0.3C973.1,315.4,973.7,315.6,973.7,315.1L973.7,315.1z M942.6,323.1
	c0.2-0.1,0.4,0,0.7,0c0.4,0.2,0.8,0.4,1.1,0.5l0.3,0.1c0.6,0.3,1.1,0.6,1.5,0.7c2.8,0.7,5.6,1,8.4,1c6.9,0.1,13.7-1.9,19.1-3.6
	c8.5-2.7,15.7-5.8,22.8-9.6c4.3-2.3,8.7-5.6,12.6-8.9c8-7,14.9-12.5,18.5-23.1c3.5-10.3,3.2-28.4-0.3-37.3c-1.6-4-2.8-7.1-5-10.2
	c-1-1.5-2.5-2.9-3.6-4.3c-4.4-5.5-7.1-8-12.2-11.6c-7.9-5.5-17.7-9.9-28-12.6c-1.3-0.4-2.6-0.7-3.9-1.1c-3.5-0.9-6.9-1.3-10.6-2
	c-2.9-0.5-6.8-1.4-10.6-1c-10,1.2-20.4,0.6-28.1,2.6c-12.4,3.4-21.8,10.6-29.1,18.8c-3.3,5.3-5.3,11.6-7.6,17.8
	c-2.7,7.3-6.1,14.8-5.9,24.1c0.1,8.2,2.9,16.7,6.6,23.1c7.2,12.7,18.6,24.2,32.7,30c4.2,1.9,8.7,3.4,13.4,4.2
	c1.6,0.3,3.6,0.4,5.1,0.4c0.1,0.4,0.1,0.9,0.3,1.2c0.4-0.1,1,0.1,1.6,0.3C942.4,322.8,942.5,323,942.6,323.1L942.6,323.1z
	 M887.1,278.7c-1.3-3.5-2.3-7.8-2.9-11.2c-1.6-9.4,2.7-18.2,5.6-26.8c2-5.7,4-12.3,6.6-16.5c0.4-0.6,0.8-1.1,1.4-1.6
	c-3.2,5.3-5.2,11.5-7.5,17.6c-2.6,7.3-6.1,14.8-5.9,24.1C884.5,269.1,885.6,274.1,887.1,278.7L887.1,278.7z M1004.8,303.7
	c0.5-0.4,1-0.8,1.4-1.2l1.8-1.6v0.1C1007,301.9,1006,302.8,1004.8,303.7L1004.8,303.7z M1010.4,298.8c0.4-0.4,0.9-0.8,1.3-1.2
	C1011.4,298.1,1010.9,298.5,1010.4,298.8L1010.4,298.8z M1014.8,294.8c4.3-4.2,7.8-8.9,10-15.5c0.6-1.9,1.2-4.1,1.6-6.5
	c-0.1,1.2-0.2,2.3-0.4,3.3C1024.3,283.7,1020.2,290,1014.8,294.8L1014.8,294.8z M1027.2,262.9c0-0.4,0-0.8,0-1.2c0,0.1,0,0.2,0,0.2
	C1027.2,262.2,1027.2,262.6,1027.2,262.9L1027.2,262.9z M1027.1,256.8c0-0.6-0.1-1.2-0.1-1.8c0.1,0.4,0.2,0.9,0.2,1.3
	C1027.2,256.5,1027.2,256.6,1027.1,256.8L1027.1,256.8z M987.3,209.3c-3.4-1.4-6.9-2.7-10.6-3.6c-6.4-1.6-13.9-2.7-20.4-3.3
	c-1.3,0.1-2.6,0.6-3.7,0.7c-10.4,0.6-19.7,0.6-26.8,3.3c-3.7,1.4-6.3,2.4-9.3,4s-5.7,3.5-7.9,5.3c-2.7,2.1-3.9,3.2-5.9,5.6
	c-1.1,1.3-2.5,2.4-3.3,3.6c-2.6,4.2-4.6,10.8-6.6,16.5c-3,8.6-7.2,17.3-5.6,26.8c0.9,5.2,2.7,12,5,15.9c0.5,0.9,1.3,1.8,2.3,2.3
	c-1.3-0.1-0.2,0.7-0.3,1.3c2.4,4.2,5.6,8.1,8.6,11.6c5,5.7,10.6,10.7,17.2,14.2c3.2,1.7,5.7,2.5,9,3.5h0.1h0.1l0,0h0.1l0,0
	c0.8,0.2,1.7,0.5,2.6,0.7c0.8,0.2,1.5,0.5,2.3,0.7c0.3,0.1,0.6,0.1,0.8,0.1c9.4,1,15.9-1.6,22.5-2.6c2-0.3,4-0.7,5.9-1
	c1.5-0.2,3.9-0.9,5.3,0.3l-0.3,0.1c0.1,0,0.2,0,0.3,0c1-0.1,2.1,0,2.8,0.7c-4,1.1-8.3,1.7-12.6,2.6c-4.2,1-8.7,1.5-11.8,3.2
	c7.8,1.5,18.3,0.5,22.5-3.7l0,0c1.1,0.7,1.9,0.5,3,0.3c3-0.5,6.3-2.3,9.3-3.6c9-4.2,18.1-9,24.5-14.9c0.1-1.5,3.4-1.9,4-4
	c6.8-5,12-12.1,13.9-20.8c0.5-2.2,0.4-4.9,0.7-7.6c0.2-2.3,0.7-4.6,0.7-6.6c0-1.2-0.6-2.5-0.7-3.6c0-0.6,0.7-1.3,0.7-2
	c0-0.7-0.3-1.3-0.3-2c-0.2-3.3-0.7-5.8-1.3-7.9c-1.4-5.1-3.1-8.3-5.9-12.6c-2.5-3.7-5.3-7.1-7.9-9.6c-2.4-2.3-4.6-4.4-7.6-6.3
	c-3.2-2.1-7.1-4.1-10.2-5.6C990.5,210.8,988.9,210.1,987.3,209.3L987.3,209.3z M971.9,314.3c0.3,0.1,0.3,0.3,0.7,0.3
	c0,0.2,0,0.4,0,0.7c-0.7,0.1-0.9-0.2-1.3-0.3C971.3,314.6,971.9,314.8,971.9,314.3z"/>
<line class="st1" x1="0" y1="321.1" x2="1200" y2="324.1"/>
<g>
	<g>
		<path d="M184.1,354.1c0-6.1,4.2-9.6,9.1-9.6c2.7,0,4.6,1.1,5.9,2.4l-2.5,3.1c-0.9-0.8-1.8-1.3-3.2-1.3c-2.5,0-4.3,2-4.3,5.3
			c0,3.4,1.5,5.3,4.8,5.3c0.5,0,1.1-0.1,1.4-0.3v-2.5h-2.7v-3.9h6.9v8.7c-1.3,1.2-3.6,2.2-6.2,2.2
			C188.2,363.4,184.1,360.3,184.1,354.1z"/>
		<path d="M202.9,349.1h3.9l0.3,2.4h0.1c1-1.9,2.6-2.7,4-2.7c0.9,0,1.3,0.1,1.7,0.3l-0.8,4.1c-0.5-0.1-1-0.2-1.6-0.2
			c-1,0-2.2,0.6-2.9,2.4v7.8h-4.8v-14.1H202.9z"/>
		<path d="M214.8,357.7v-8.6h4.8v8c0,1.8,0.4,2.2,1.4,2.2c0.9,0,1.4-0.3,2-1.2v-9h4.8v14h-3.9l-0.3-1.8h-0.1
			c-1.1,1.3-2.4,2.2-4.3,2.2C216.1,363.4,214.8,361.2,214.8,357.7z"/>
		<path d="M231.4,349.1h3.9l0.3,1.3h0.1c1-1,2.4-1.6,3.8-1.6c3.3,0,5.4,2.8,5.4,7.1c0,4.8-2.9,7.6-5.8,7.6c-1.2,0-2.2-0.5-3.1-1.4
			l0.2,2.1v3.9h-4.8L231.4,349.1L231.4,349.1z M240,355.9c0-2.3-0.7-3.2-2-3.2c-0.7,0-1.3,0.3-1.9,1v5.2c0.6,0.5,1.2,0.7,1.8,0.7
			C239.1,359.5,240,358.6,240,355.9z"/>
		<path d="M247.1,356.1c0-4.6,3.4-7.3,6.9-7.3s6.9,2.7,6.9,7.3c0,4.6-3.4,7.3-6.9,7.3S247.1,360.7,247.1,356.1z M256.1,356.1
			c0-2.1-0.6-3.5-2-3.5s-2,1.3-2,3.5s0.6,3.5,2,3.5S256.1,358.2,256.1,356.1z"/>
		<path d="M262.7,361.5l2.1-3c1.3,1,2.4,1.4,3.4,1.4s1.4-0.3,1.4-0.8c0-0.7-1.3-1.1-2.7-1.6c-1.6-0.6-3.5-1.8-3.5-4.1
			c0-2.7,2.2-4.5,5.5-4.5c2.3,0,3.9,0.9,5.2,1.8l-2.1,2.9c-1-0.7-2-1.2-2.9-1.2c-0.8,0-1.2,0.2-1.2,0.8c0,0.7,1.2,1,2.6,1.5
			c1.7,0.6,3.6,1.7,3.6,4.2c0,2.6-2.1,4.6-6,4.6C266.4,363.4,264.2,362.6,262.7,361.5z"/>
		<path d="M142.8,374.1h3.9l0.3,1.3h0.1c1-1,2.4-1.6,3.8-1.6c3.3,0,5.4,2.8,5.4,7.1c0,4.8-2.9,7.6-5.8,7.6c-1.2,0-2.2-0.5-3.1-1.4
			l0.2,2.1v3.9h-4.8L142.8,374.1L142.8,374.1z M151.5,380.9c0-2.3-0.7-3.2-2-3.2c-0.7,0-1.3,0.3-1.9,1v5.2c0.6,0.5,1.2,0.7,1.8,0.7
			C150.6,384.5,151.5,383.6,151.5,380.9z"/>
		<path d="M158.8,384.1c0-2.9,2.2-4.5,7.6-5.1c-0.1-1-0.7-1.5-2-1.5c-1,0-2.1,0.4-3.5,1.2l-1.7-3.1c2-1.2,4-1.8,6.2-1.8
			c3.6,0,5.8,2,5.8,6.6v7.8h-3.9l-0.3-1.3h-0.1c-1.1,1-2.4,1.7-3.9,1.7C160.4,388.4,158.8,386.4,158.8,384.1z M166.4,383.8v-1.9
			c-2.3,0.3-3,1.1-3,1.8c0,0.6,0.4,1,1.3,1C165.4,384.7,165.9,384.3,166.4,383.8z"/>
		<path d="M174.6,374.1h3.9l0.3,2.4h0.1c1-1.9,2.6-2.7,4-2.7c0.9,0,1.3,0.1,1.7,0.3l-0.8,4.1c-0.5-0.1-1-0.2-1.6-0.2
			c-1,0-2.2,0.6-2.9,2.4v7.8h-4.8v-14.1H174.6z"/>
		<path d="M186.1,384.1c0-2.9,2.2-4.5,7.6-5.1c-0.1-1-0.7-1.5-2-1.5c-1,0-2.1,0.4-3.5,1.2l-1.7-3.1c2-1.2,4-1.8,6.2-1.8
			c3.6,0,5.8,2,5.8,6.6v7.8h-3.9l-0.3-1.3h-0.1c-1.1,1-2.4,1.7-3.9,1.7C187.6,388.4,186.1,386.4,186.1,384.1z M193.7,383.8v-1.9
			c-2.3,0.3-3,1.1-3,1.8c0,0.6,0.4,1,1.3,1C192.7,384.7,193.2,384.3,193.7,383.8z"/>
		<path d="M201.9,374.1h3.9l0.3,1.7h0.1c1.1-1.1,2.3-2,4.2-2s3.1,0.8,3.9,2.2c1.1-1.2,2.4-2.2,4.3-2.2c3.1,0,4.4,2.2,4.4,5.7v8.6
			h-4.8v-8c0-1.8-0.4-2.2-1.4-2.2c-0.6,0-1.2,0.3-2,1.1v9.2H210v-8c0-1.8-0.4-2.2-1.4-2.2c-0.6,0-1.2,0.3-2,1.1v9.2h-4.8v-14.2
			H201.9z"/>
		<path d="M226.2,369.9c0-1.4,1.1-2.4,2.7-2.4c1.6,0,2.7,1,2.7,2.4s-1.1,2.4-2.7,2.4S226.2,371.3,226.2,369.9z M226.5,374.1h4.8v14
			h-4.8V374.1z"/>
		<path d="M234.8,383.1v-14.6h4.8v14.7c0,1,0.4,1.2,0.8,1.2c0.2,0,0.3,0,0.5-0.1l0.6,3.5c-0.5,0.2-1.3,0.4-2.4,0.4
			C235.9,388.4,234.8,386.3,234.8,383.1z"/>
		<path d="M243.2,369.9c0-1.4,1.1-2.4,2.7-2.4c1.6,0,2.7,1,2.7,2.4s-1.1,2.4-2.7,2.4S243.2,371.3,243.2,369.9z M243.5,374.1h4.8v14
			h-4.8V374.1z"/>
		<path d="M252.4,382.7v-4.9h-1.8v-3.6l2.1-0.2l0.6-3.6h4v3.6h3.2v3.8h-3.2v4.8c0,1.5,0.8,2,1.7,2c0.4,0,0.9-0.1,1.2-0.2l0.7,3.5
			c-0.7,0.2-1.8,0.5-3.3,0.5C253.9,388.4,252.4,386.1,252.4,382.7z"/>
		<path d="M262.7,384.1c0-2.9,2.2-4.5,7.6-5.1c-0.1-1-0.7-1.5-2-1.5c-1,0-2.1,0.4-3.5,1.2l-1.7-3.1c2-1.2,4-1.8,6.2-1.8
			c3.6,0,5.8,2,5.8,6.6v7.8h-3.9l-0.3-1.3h-0.1c-1.1,1-2.4,1.7-3.9,1.7C264.3,388.4,262.7,386.4,262.7,384.1z M270.3,383.8v-1.9
			c-2.3,0.3-3,1.1-3,1.8c0,0.6,0.4,1,1.3,1C269.4,384.7,269.8,384.3,270.3,383.8z"/>
		<path d="M278.6,374.1h3.9l0.3,2.4h0.1c1-1.9,2.6-2.7,4-2.7c0.9,0,1.3,0.1,1.7,0.3l-0.8,4.1c-0.5-0.1-1-0.2-1.6-0.2
			c-1,0-2.2,0.6-2.9,2.4v7.8h-4.8L278.6,374.1L278.6,374.1z"/>
		<path d="M289.8,381.1c0-4.5,3.3-7.3,6.7-7.3c4.1,0,6.1,3,6.1,6.8c0,0.8-0.1,1.7-0.2,2h-8c0.4,1.7,1.7,2.2,3.2,2.2
			c1,0,1.8-0.3,2.9-0.8l1.6,2.9c-1.5,1.1-3.5,1.6-5.1,1.6C293,388.4,289.8,385.7,289.8,381.1z M298.6,379.4c0-1.1-0.4-2-1.9-2
			c-1.1,0-2,0.6-2.2,2H298.6z"/>
		<path d="M304.4,386.5l2.1-3c1.3,1,2.4,1.4,3.4,1.4s1.4-0.3,1.4-0.8c0-0.7-1.3-1.1-2.7-1.6c-1.6-0.6-3.5-1.8-3.5-4.1
			c0-2.7,2.2-4.5,5.5-4.5c2.3,0,3.9,0.9,5.2,1.8l-2.1,2.9c-1-0.7-2-1.2-2.9-1.2c-0.8,0-1.2,0.2-1.2,0.8c0,0.7,1.2,1,2.6,1.5
			c1.7,0.6,3.6,1.7,3.6,4.2c0,2.6-2.1,4.6-6,4.6C308.1,388.4,305.9,387.6,304.4,386.5z"/>
	</g>
</g>
<g>
	<g>
		<path class="st2" d="M27.5,59.7c0-3.4,4.1-4.3,3.8-7.3h4.2c0.6,3.6-3.4,5.2-3.4,7c0,1,0.7,1.4,1.6,1.4c1,0,1.6-0.5,2.3-1.2
			l2.6,2.4c-1.4,1.6-3.3,2.6-5.5,2.6C29.9,64.6,27.5,63.2,27.5,59.7z M30.6,48.1c0-1.6,1.2-2.9,2.8-2.9c1.6,0,2.8,1.3,2.8,2.9
			S35,51,33.4,51S30.6,49.7,30.6,48.1z"/>
		<path class="st2" d="M41.3,50.4c0-6,3.4-9.4,8.5-9.4s8.5,3.4,8.5,9.4s-3.4,9.5-8.5,9.5S41.3,56.4,41.3,50.4z M53.2,50.4
			c0-3.3-1.3-5.2-3.5-5.2s-3.5,1.9-3.5,5.2c0,3.6,1.3,5.6,3.5,5.6S53.2,53.9,53.2,50.4z M47.4,59.4l4.9-0.5c0.7,1.6,2.6,2.1,4.1,2.1
			c0.8,0,1.5-0.1,2.1-0.3l0.8,3.5c-0.7,0.4-1.9,0.7-3.5,0.7C51.7,64.8,48.8,62.5,47.4,59.4z"/>
		<path class="st2" d="M61.6,50.8v-9.4h4.8v10c0,3.2,0.8,4.4,2.7,4.4c1.9,0,2.8-1.2,2.8-4.4v-10h4.6v9.4c0,6.2-2.4,9.1-7.4,9.1
			C64,59.9,61.6,57,61.6,50.8z"/>
		<path class="st2" d="M80.8,41.3h4.8v18.2h-4.8V41.3z"/>
		<path class="st2" d="M89.9,41.3h11.8v4h-6.9v2.9h5.9v4h-5.9v3.2h7.2v4H90L89.9,41.3L89.9,41.3z M93.7,38.3l5.1-4l2.5,3.1l-5.5,3.4
			L93.7,38.3z"/>
		<path class="st2" d="M105.8,41.3h4.9l4,8.1l1.7,4.1h0.1c-0.2-2-0.6-4.7-0.6-6.9v-5.3h4.6v18.2h-4.9l-4-8.1l-1.7-4.1h-0.1
			c0.2,2.1,0.6,4.7,0.6,6.9v5.3h-4.6V41.3z"/>
		<path class="st2" d="M124.9,41.3h11.8v4h-6.9v2.9h5.9v4h-5.9v3.2h7.2v4h-12L124.9,41.3L124.9,41.3z"/>
		<path class="st2" d="M139.6,57.3l2.7-3.3c1.3,1,2.9,1.8,4.3,1.8c1.5,0,2.1-0.5,2.1-1.3c0-0.9-0.9-1.1-2.5-1.8l-2.3-1
			c-2-0.8-3.7-2.4-3.7-5.1c0-3.1,2.8-5.7,6.8-5.7c2.1,0,4.4,0.8,6,2.4l-2.4,3c-1.2-0.9-2.3-1.3-3.6-1.3c-1.2,0-1.9,0.4-1.9,1.2
			c0,0.9,1,1.2,2.7,1.8l2.2,0.9c2.3,0.9,3.6,2.5,3.6,5c0,3.1-2.6,5.8-7.1,5.8C144.2,59.9,141.5,59,139.6,57.3z"/>
		<path class="st2" d="M162.7,41.3h11.9v4h-7.1v3.5h6v4h-6v6.7h-4.8L162.7,41.3L162.7,41.3z"/>
		<path class="st2" d="M177.8,50.8v-9.4h4.8v10c0,3.2,0.8,4.4,2.7,4.4s2.8-1.2,2.8-4.4v-10h4.6v9.4c0,6.2-2.4,9.1-7.4,9.1
			C180.3,59.9,177.8,57,177.8,50.8z"/>
		<path class="st2" d="M197,41.3h11.8v4h-6.9v2.9h5.9v4h-5.9v3.2h7.2v4h-12V41.3H197z"/>
		<path class="st2" d="M212.9,41.3h6.9c3.9,0,7.3,1.3,7.3,5.9c0,4.4-3.4,6.2-7.3,6.2h-2.1v6.1h-4.8L212.9,41.3L212.9,41.3z
			 M219.4,49.6c1.9,0,2.9-0.8,2.9-2.4c0-1.6-1-2.1-2.9-2.1h-1.7v4.5H219.4z M218.9,52.2l3.2-3.2l5.9,10.6h-5.4L218.9,52.2z"/>
		<path class="st2" d="M230,50.4c0-6,3.4-9.4,8.5-9.4s8.5,3.4,8.5,9.4s-3.4,9.5-8.5,9.5S230,56.4,230,50.4z M242,50.4
			c0-3.3-1.3-5.2-3.5-5.2s-3.5,1.9-3.5,5.2s1.3,5.4,3.5,5.4S242,53.7,242,50.4z"/>
		<path class="st2" d="M250.5,41.3h4.9l4,8.1l1.7,4.1h0.1c-0.2-2-0.6-4.7-0.6-6.9v-5.3h4.6v18.2h-4.9l-4-8.1l-1.7-4.1h-0.1
			c0.2,2.1,0.6,4.7,0.6,6.9v5.3h-4.6L250.5,41.3L250.5,41.3z"/>
		<path class="st2" d="M275.4,41.3h4.8v14.2h6.9v4h-11.7L275.4,41.3L275.4,41.3z"/>
		<path class="st2" d="M289.8,50.4c0-6,3.4-9.4,8.5-9.4s8.5,3.4,8.5,9.4s-3.4,9.5-8.5,9.5S289.8,56.4,289.8,50.4z M301.8,50.4
			c0-3.3-1.3-5.2-3.5-5.2s-3.5,1.9-3.5,5.2s1.3,5.4,3.5,5.4S301.8,53.7,301.8,50.4z"/>
		<path class="st2" d="M309.1,57.3l2.7-3.3c1.3,1,2.9,1.8,4.3,1.8c1.5,0,2.1-0.5,2.1-1.3c0-0.9-0.9-1.1-2.5-1.8l-2.3-1
			c-2-0.8-3.7-2.4-3.7-5.1c0-3.1,2.8-5.7,6.8-5.7c2.1,0,4.4,0.8,6,2.4l-2.4,3c-1.2-0.9-2.3-1.3-3.6-1.3c-1.2,0-1.9,0.4-1.9,1.2
			c0,0.9,1,1.2,2.7,1.8l2.2,0.9c2.3,0.9,3.6,2.5,3.6,5c0,3.1-2.6,5.8-7.1,5.8C313.7,59.9,311.1,59,309.1,57.3z"/>
		<path class="st2" d="M332.2,41.3h6.9c3.9,0,7.3,1.3,7.3,5.9c0,4.4-3.4,6.2-7.3,6.2H337v6.1h-4.8V41.3z M338.7,49.6
			c1.9,0,2.9-0.8,2.9-2.4c0-1.6-1-2.1-2.9-2.1H337v4.5H338.7z M338.2,52.2l3.2-3.2l5.9,10.6H342L338.2,52.2z"/>
		<path class="st2" d="M350.1,41.3h11.8v4H355v2.9h5.9v4H355v3.2h7.2v4h-12V41.3H350.1z"/>
		<path class="st2" d="M364.8,57.3l2.7-3.3c1.3,1,2.9,1.8,4.3,1.8c1.5,0,2.1-0.5,2.1-1.3c0-0.9-0.9-1.1-2.5-1.8l-2.3-1
			c-2-0.8-3.7-2.4-3.7-5.1c0-3.1,2.8-5.7,6.8-5.7c2.1,0,4.4,0.8,6,2.4l-2.4,3c-1.2-0.9-2.3-1.3-3.6-1.3c-1.2,0-1.9,0.4-1.9,1.2
			c0,0.9,1,1.2,2.7,1.8l2.2,0.9c2.3,0.9,3.6,2.5,3.6,5c0,3.1-2.6,5.8-7.1,5.8C369.4,59.9,366.8,59,364.8,57.3z"/>
		<path class="st2" d="M382,41.3h6.7c4,0,7.4,1.5,7.4,6s-3.5,6.4-7.3,6.4h-2v5.8H382V41.3z M388.6,50c1.9,0,2.8-1,2.8-2.6
			s-1.1-2.2-2.9-2.2h-1.6V50H388.6z"/>
		<path class="st2" d="M398.5,50.4c0-6,3.4-9.4,8.5-9.4s8.5,3.4,8.5,9.4s-3.4,9.5-8.5,9.5S398.5,56.4,398.5,50.4z M410.5,50.4
			c0-3.3-1.3-5.2-3.5-5.2s-3.5,1.9-3.5,5.2s1.3,5.4,3.5,5.4S410.5,53.7,410.5,50.4z"/>
		<path class="st2" d="M419,41.3h4.9l4,8.1l1.7,4.1h0.1c-0.2-2-0.6-4.7-0.6-6.9v-5.3h4.6v18.2h-4.9l-4-8.1l-1.7-4.1H423
			c0.2,2.1,0.6,4.7,0.6,6.9v5.3H419V41.3z"/>
		<path class="st2" d="M436.9,57.3l2.7-3.3c1.3,1,2.9,1.8,4.3,1.8c1.5,0,2.1-0.5,2.1-1.3c0-0.9-0.9-1.1-2.5-1.8l-2.3-1
			c-2-0.8-3.7-2.4-3.7-5.1c0-3.1,2.8-5.7,6.8-5.7c2.1,0,4.4,0.8,6,2.4l-2.4,3c-1.2-0.9-2.3-1.3-3.6-1.3c-1.2,0-1.9,0.4-1.9,1.2
			c0,0.9,1,1.2,2.7,1.8l2.2,0.9c2.3,0.9,3.6,2.5,3.6,5c0,3.1-2.6,5.8-7.1,5.8C441.5,59.9,438.9,59,436.9,57.3z"/>
		<path class="st2" d="M457.4,41.3h5.8l5.5,18.2h-5.1l-2.1-8.8c-0.4-1.7-0.9-3.9-1.3-5.8h-0.1c-0.4,1.8-0.8,4-1.3,5.8l-2.1,8.8h-4.9
			L457.4,41.3z M455.8,52h8.9v3.7h-8.9V52z"/>
		<path class="st2" d="M470.8,41.3h6.6c3.8,0,6.9,1,6.9,4.5c0,1.6-0.9,3.4-2.3,3.9v0.1c1.7,0.5,3.1,1.8,3.1,4.3
			c0,3.8-3.2,5.4-7.2,5.4h-7.1V41.3z M477.2,48.5c1.6,0,2.3-0.7,2.3-1.8s-0.7-1.6-2.3-1.6h-1.6v3.4
			C475.6,48.5,477.2,48.5,477.2,48.5z M477.5,55.9c1.9,0,2.8-0.7,2.8-2s-0.9-1.8-2.8-1.8h-2V56h2V55.9z"/>
		<path class="st2" d="M488.2,41.3h4.8v14.2h6.9v4h-11.7L488.2,41.3L488.2,41.3z"/>
		<path class="st2" d="M503.3,41.3h11.8v4h-6.9v2.9h5.9v4h-5.9v3.2h7.2v4h-12L503.3,41.3L503.3,41.3z"/>
		<path class="st2" d="M518,57.3l2.7-3.3c1.3,1,2.9,1.8,4.3,1.8c1.5,0,2.1-0.5,2.1-1.3c0-0.9-0.9-1.1-2.5-1.8l-2.3-1
			c-2-0.8-3.7-2.4-3.7-5.1c0-3.1,2.8-5.7,6.8-5.7c2.1,0,4.4,0.8,6,2.4l-2.4,3c-1.2-0.9-2.3-1.3-3.6-1.3c-1.2,0-1.9,0.4-1.9,1.2
			c0,0.9,1,1.2,2.7,1.8l2.2,0.9c2.3,0.9,3.6,2.5,3.6,5c0,3.1-2.6,5.8-7.1,5.8C522.6,59.9,520,59,518,57.3z"/>
		<path class="st2" d="M540.9,45.7c0-1-0.7-1.4-1.6-1.4c-1,0-1.6,0.5-2.3,1.2l-2.6-2.4c1.4-1.6,3.3-2.6,5.5-2.6
			c3.1,0,5.5,1.4,5.5,4.9c0,3.4-4.1,4.3-3.8,7.3h-4.2C536.9,49.1,540.9,47.5,540.9,45.7z M536.7,57c0-1.6,1.2-2.9,2.8-2.9
			s2.8,1.3,2.8,2.9s-1.2,2.9-2.8,2.9S536.7,58.6,536.7,57z"/>
	</g>
</g>
<g>
	<g>
		<path class="st3" d="M183.6,250.6c8.8-8.6,14.4-14.2,14.4-19c0-3.4-1.8-5.5-5.3-5.5c-2.5,0-4.5,1.6-6.2,3.5l-3.2-3.2
			c2.9-3.1,5.8-4.9,10.2-4.9c6.1,0,10.1,3.9,10.1,9.8c0,5.7-5.2,11.5-11.6,18.1c1.7-0.2,3.8-0.3,5.3-0.3h7.8v4.9h-21.5V250.6z"/>
		<path class="st3" d="M225.1,227h-15v-4.9h21.3v3.5c-7.5,9.2-8.7,15.9-9.3,28.3h-5.8C216.8,242.7,219,235.6,225.1,227z"/>
		<path class="st3" d="M235.5,231c0-6.5,3.2-10.3,7.8-10.3s7.8,3.8,7.8,10.3c0,6.6-3.2,10.4-7.8,10.4S235.5,237.5,235.5,231z
			 M247,231c0-4.9-1.6-7-3.7-7s-3.7,2-3.7,7c0,4.9,1.6,7.1,3.7,7.1S247,235.9,247,231z M262.2,220.7h3.5l-17.8,33.9h-3.5
			L262.2,220.7z M259,244.2c0-6.5,3.2-10.3,7.8-10.3c4.6,0,7.8,3.8,7.8,10.3c0,6.6-3.2,10.4-7.8,10.4
			C262.2,254.6,259,250.7,259,244.2z M270.4,244.2c0-4.9-1.6-7-3.7-7s-3.7,2-3.7,7c0,4.9,1.6,7.1,3.7,7.1S270.4,249.1,270.4,244.2z"
			/>
	</g>
</g>
<g>
	<g>
		<path class="st4" d="M410.2,257.8c8.5-8.2,13.8-13.6,13.8-18.3c0-3.2-1.8-5.3-5.1-5.3c-2.4,0-4.3,1.6-6,3.4l-3.1-3
			c2.8-3,5.6-4.7,9.8-4.7c5.8,0,9.7,3.7,9.7,9.4c0,5.4-5,11-11.1,17.4c1.6-0.2,3.6-0.3,5.1-0.3h7.5v4.7h-20.6L410.2,257.8
			L410.2,257.8z"/>
		<path class="st4" d="M447.8,241.9c0-1.8,0.2-4.6,0.2-6.4h-0.2c-0.8,1.6-1.6,3.1-2.5,4.7l-5.5,8.5h17v4.3h-22.5v-3.8l12.1-18.9h6.5
			V261h-5.2v-19.1H447.8z"/>
		<path class="st4" d="M461.6,257.8c0-2.2,1.6-3.8,3.6-3.8s3.6,1.6,3.6,3.8c0,2.1-1.6,3.7-3.6,3.7S461.6,260,461.6,257.8z"/>
		<path class="st4" d="M474.5,258.1l3-3.4c1.1,1.3,3,2.3,4.9,2.3c4,0,7.2-3.1,7.2-12.3c0-7.5-2.4-10.7-5.9-10.7
			c-2.5,0-4.6,2.1-4.6,5.8c0,3.6,1.8,5.5,4.8,5.5c1.8,0,3.9-1,5.6-3.8l0.2,3.9c-1.7,2.4-4.6,3.9-6.9,3.9c-5.3,0-8.9-3.1-8.9-9.4
			c0-6.1,4.4-10,9.6-10c6,0,11.1,4.6,11.1,14.9c0,11.8-5.7,16.8-12,16.8C479,261.5,476.3,260,474.5,258.1z"/>
		<path class="st4" d="M498.8,238.9c0-6.3,3.1-9.9,7.5-9.9s7.5,3.6,7.5,9.9c0,6.3-3.1,10-7.5,10S498.8,245.2,498.8,238.9z
			 M509.8,238.9c0-4.7-1.5-6.7-3.5-6.7s-3.5,2-3.5,6.7s1.5,6.8,3.5,6.8S509.8,243.6,509.8,238.9z M524.4,229h3.4l-17.1,32.5h-3.4
			L524.4,229z M521.3,251.6c0-6.3,3.1-9.9,7.5-9.9s7.5,3.6,7.5,9.9s-3.1,10-7.5,10C524.4,261.5,521.3,257.9,521.3,251.6z
			 M532.3,251.6c0-4.7-1.5-6.7-3.5-6.7s-3.5,2-3.5,6.7c0,4.7,1.5,6.8,3.5,6.8S532.3,256.3,532.3,251.6z"/>
	</g>
</g>
<g>
	<g>
		<path class="st5" d="M656.9,259c7.9-7.7,12.9-12.7,12.9-17.1c0-3-1.7-4.9-4.7-4.9c-2.2,0-4,1.5-5.6,3.2l-2.9-2.8
			c2.6-2.8,5.2-4.4,9.1-4.4c5.5,0,9.1,3.5,9.1,8.8c0,5.1-4.7,10.3-10.4,16.3c1.5-0.1,3.4-0.3,4.8-0.3h7v4.4h-19.3L656.9,259
			L656.9,259z"/>
		<path class="st5" d="M680.5,259c7.9-7.7,12.9-12.7,12.9-17.1c0-3-1.7-4.9-4.7-4.9c-2.2,0-4,1.5-5.6,3.2l-2.9-2.8
			c2.6-2.8,5.2-4.4,9.1-4.4c5.5,0,9.1,3.5,9.1,8.8c0,5.1-4.7,10.3-10.4,16.3c1.5-0.1,3.4-0.3,4.8-0.3h7v4.4h-19.3L680.5,259
			L680.5,259z"/>
		<path class="st5" d="M705.1,259c0-2,1.5-3.5,3.3-3.5c1.9,0,3.3,1.5,3.3,3.5s-1.5,3.5-3.3,3.5S705.1,261,705.1,259z"/>
		<path class="st5" d="M728.6,244.1c0-1.7,0.1-4.3,0.2-6h-0.2c-0.7,1.5-1.5,2.9-2.3,4.4l-5.2,8H737v4h-21.1V251l11.3-17.7h6.1V262
			h-4.9v-17.9H728.6z"/>
		<path class="st5" d="M740,241.3c0-5.9,2.9-9.3,7-9.3s7,3.4,7,9.3c0,5.9-2.9,9.4-7,9.4C742.9,250.6,740,247.2,740,241.3z
			 M750.3,241.3c0-4.4-1.4-6.3-3.3-6.3c-1.9,0-3.3,1.8-3.3,6.3s1.4,6.4,3.3,6.4C748.9,247.6,750.3,245.7,750.3,241.3z M764,232h3.2
			l-16.1,30.5H748L764,232z M761.1,253.1c0-5.9,2.9-9.3,7-9.3s7,3.4,7,9.3c0,5.9-2.9,9.4-7,9.4S761.1,259.1,761.1,253.1z
			 M771.4,253.1c0-4.4-1.4-6.3-3.3-6.3c-1.9,0-3.3,1.8-3.3,6.3s1.4,6.4,3.3,6.4S771.4,257.6,771.4,253.1z"/>
	</g>
</g>
<g>
	<g>
		<path class="st2" d="M909.6,269.9h5.7v-16.7h-4.7v-2.9c2.5-0.5,4.3-1.1,5.9-2.1h3.4v21.7h5v3.8h-15.3L909.6,269.9L909.6,269.9z"/>
		<path class="st2" d="M928.6,270.5l2.2-2.9c1.5,1.5,3.5,2.8,6,2.8c2.8,0,4.7-1.4,4.7-3.8c0-2.6-1.7-4.3-7.5-4.3v-3.4
			c5,0,6.6-1.7,6.6-4.1c0-2.1-1.4-3.4-3.8-3.4c-2,0-3.6,0.9-5.1,2.4l-2.4-2.8c2.2-1.9,4.6-3.2,7.7-3.2c4.9,0,8.2,2.4,8.2,6.7
			c0,2.8-1.7,4.8-4.4,5.8v0.2c3,0.8,5.3,2.9,5.3,6.3c0,4.6-4,7.3-8.9,7.3C933.1,274.1,930.4,272.6,928.6,270.5z"/>
		<path class="st2" d="M950.4,278.4c2.6-1,4.1-2.8,4.1-5l-0.2-3.5l1.8,2.9c-0.5,0.5-1.2,0.7-1.9,0.7c-1.6,0-3-1-3-2.8
			c0-1.7,1.4-2.8,3.1-2.8c2.2,0,3.4,1.8,3.4,4.7c0,3.9-2.3,6.9-6.2,8.3L950.4,278.4z"/>
		<path class="st2" d="M961.7,261.7c0-9.9,4.8-14,10-14c3.1,0,5.3,1.3,6.8,2.9l-2.5,2.8c-0.9-1.1-2.5-1.9-4.1-1.9
			c-3.3,0-6,2.6-6,10.2c0,6.3,2,8.9,4.9,8.9c2.1,0,3.8-1.7,3.8-4.8c0-3-1.5-4.5-4-4.5c-1.5,0-3.3,0.9-4.7,3.2l-0.2-3.2
			c1.5-2,3.8-3.3,5.7-3.3c4.4,0,7.4,2.6,7.4,7.9c0,5.1-3.6,8.4-8,8.4C965.9,274.1,961.7,270.3,961.7,261.7z"/>
		<path class="st2" d="M982,255.3c0-5.2,2.6-8.2,6.2-8.2c3.7,0,6.2,3,6.2,8.2c0,5.3-2.6,8.3-6.2,8.3S982,260.5,982,255.3z
			 M991.2,255.3c0-3.9-1.2-5.6-2.9-5.6s-2.9,1.6-2.9,5.6c0,3.9,1.2,5.6,2.9,5.6S991.2,259.2,991.2,255.3z M1003.4,247h2.8
			l-14.3,27.1h-2.8L1003.4,247z M1000.8,265.8c0-5.2,2.6-8.2,6.2-8.2c3.7,0,6.2,3,6.2,8.2c0,5.3-2.6,8.3-6.2,8.3
			C1003.4,274.1,1000.8,271.1,1000.8,265.8z M1010,265.8c0-3.9-1.2-5.6-2.9-5.6s-2.9,1.6-2.9,5.6s1.2,5.6,2.9,5.6
			S1010,269.8,1010,265.8z"/>
	</g>
</g>
<g>
	<g>
		<path d="M432,354.1c0-6.1,4.2-9.6,9.1-9.6c2.7,0,4.6,1.1,5.9,2.4l-2.5,3.1c-0.9-0.8-1.8-1.3-3.2-1.3c-2.5,0-4.3,2-4.3,5.3
			c0,3.4,1.5,5.3,4.8,5.3c0.5,0,1.1-0.1,1.4-0.3v-2.5h-2.7v-3.9h6.9v8.7c-1.3,1.2-3.6,2.2-6.2,2.2C436.1,363.4,432,360.3,432,354.1z
			"/>
		<path d="M450.8,349.1h3.9l0.3,2.4h0.1c1-1.9,2.6-2.7,4-2.7c0.9,0,1.3,0.1,1.7,0.3l-0.8,4.1c-0.5-0.1-1-0.2-1.6-0.2
			c-1,0-2.2,0.6-2.9,2.4v7.8h-4.8L450.8,349.1L450.8,349.1z"/>
		<path d="M462.7,357.7v-8.6h4.8v8c0,1.8,0.4,2.2,1.4,2.2c0.9,0,1.4-0.3,2-1.2v-9h4.8v14h-3.9l-0.3-1.8h-0.1
			c-1.1,1.3-2.4,2.2-4.3,2.2C464,363.4,462.7,361.2,462.7,357.7z"/>
		<path d="M479.3,349.1h3.9l0.3,1.3h0.1c1-1,2.4-1.6,3.8-1.6c3.3,0,5.4,2.8,5.4,7.1c0,4.8-2.9,7.6-5.8,7.6c-1.2,0-2.2-0.5-3.1-1.4
			l0.2,2.1v3.9h-4.8V349.1z M487.9,355.9c0-2.3-0.7-3.2-2-3.2c-0.7,0-1.3,0.3-1.9,1v5.2c0.6,0.5,1.2,0.7,1.8,0.7
			C487,359.5,487.9,358.6,487.9,355.9z"/>
		<path d="M495,356.1c0-4.6,3.4-7.3,6.9-7.3s6.9,2.7,6.9,7.3c0,4.6-3.4,7.3-6.9,7.3S495,360.7,495,356.1z M504,356.1
			c0-2.1-0.6-3.5-2-3.5s-2,1.3-2,3.5s0.6,3.5,2,3.5S504,358.2,504,356.1z"/>
		<path d="M510.6,361.5l2.1-3c1.3,1,2.4,1.4,3.4,1.4s1.4-0.3,1.4-0.8c0-0.7-1.3-1.1-2.7-1.6c-1.6-0.6-3.5-1.8-3.5-4.1
			c0-2.7,2.2-4.5,5.5-4.5c2.3,0,3.9,0.9,5.2,1.8l-2.1,2.9c-1-0.7-2-1.2-2.9-1.2c-0.8,0-1.2,0.2-1.2,0.8c0,0.7,1.2,1,2.6,1.5
			c1.7,0.6,3.6,1.7,3.6,4.2c0,2.6-2.1,4.6-6,4.6C514.3,363.4,512.1,362.6,510.6,361.5z"/>
		<path d="M405.8,390.4c0-1.1,0.7-2,2-2.7v-0.1c-0.7-0.5-1.3-1.2-1.3-2.4c0-1,0.6-2,1.6-2.6v-0.1c-1-0.7-1.9-2-1.9-3.6
			c0-3.5,2.9-5.1,6-5.1c0.8,0,1.6,0.1,2.2,0.3h5.2v3.5h-2c0.1,0.3,0.2,0.9,0.2,1.5c0,3.3-2.5,4.6-5.7,4.6c-0.4,0-1-0.1-1.6-0.2
			c-0.3,0.3-0.3,0.4-0.3,0.8c0,0.6,0.6,0.8,2,0.8h2.1c3.5,0,5.5,1.1,5.5,3.6c0,3-3.1,5.1-8.1,5.1
			C408.5,393.8,405.8,392.9,405.8,390.4z M415.2,389.6c0-0.7-0.7-0.8-1.9-0.8h-1.1c-1.1,0-1.6-0.1-2-0.2c-0.3,0.3-0.5,0.6-0.5,1
			c0,0.9,1.1,1.3,2.7,1.3C414.1,390.9,415.2,390.4,415.2,389.6z M413.7,378.8c0-1.3-0.6-1.9-1.5-1.9s-1.5,0.6-1.5,1.9s0.6,2,1.5,2
			S413.7,380.2,413.7,378.8z"/>
		<path d="M422.1,382.7v-8.6h4.8v8c0,1.8,0.4,2.2,1.4,2.2c0.9,0,1.4-0.3,2-1.2v-9h4.8v14h-3.9l-0.3-1.8h-0.1
			c-1.1,1.3-2.4,2.2-4.3,2.2C423.4,388.4,422.1,386.2,422.1,382.7z"/>
		<path d="M437.9,381.1c0-4.5,3.3-7.3,6.7-7.3c4.1,0,6.1,3,6.1,6.8c0,0.8-0.1,1.7-0.2,2h-8c0.4,1.7,1.7,2.2,3.2,2.2
			c1,0,1.8-0.3,2.9-0.8l1.6,2.9c-1.5,1.1-3.5,1.6-5.1,1.6C441.1,388.4,437.9,385.7,437.9,381.1z M446.7,379.4c0-1.1-0.4-2-1.9-2
			c-1.1,0-2,0.6-2.2,2H446.7z"/>
		<path d="M453.7,374.1h3.9l0.3,2.4h0.1c1-1.9,2.6-2.7,4-2.7c0.9,0,1.3,0.1,1.7,0.3l-0.8,4.1c-0.5-0.1-1-0.2-1.6-0.2
			c-1,0-2.2,0.6-2.9,2.4v7.8h-4.8L453.7,374.1L453.7,374.1z"/>
		<path d="M465.6,374.1h3.9l0.3,2.4h0.1c1-1.9,2.6-2.7,4-2.7c0.9,0,1.3,0.1,1.7,0.3l-0.8,4.1c-0.5-0.1-1-0.2-1.6-0.2
			c-1,0-2.2,0.6-2.9,2.4v7.8h-4.8L465.6,374.1L465.6,374.1z"/>
		<path d="M477.3,369.9c0-1.4,1.1-2.4,2.7-2.4s2.7,1,2.7,2.4s-1.1,2.4-2.7,2.4C478.5,372.3,477.3,371.3,477.3,369.9z M477.6,374.1
			h4.8v14h-4.8V374.1z"/>
		<path d="M486,383.1v-14.6h4.8v14.7c0,1,0.4,1.2,0.8,1.2c0.2,0,0.3,0,0.5-0.1l0.6,3.5c-0.5,0.2-1.3,0.4-2.4,0.4
			C487,388.4,486,386.3,486,383.1z"/>
		<path d="M493.9,381.1c0-4.5,3.3-7.3,6.7-7.3c4.1,0,6.1,3,6.1,6.8c0,0.8-0.1,1.7-0.2,2h-8c0.4,1.7,1.7,2.2,3.2,2.2
			c1,0,1.8-0.3,2.9-0.8l1.6,2.9c-1.5,1.1-3.5,1.6-5.1,1.6C497,388.4,493.9,385.7,493.9,381.1z M502.6,379.4c0-1.1-0.4-2-1.9-2
			c-1.1,0-2,0.6-2.2,2H502.6z"/>
		<path d="M509.6,374.1h3.9l0.3,2.4h0.1c1-1.9,2.6-2.7,4-2.7c0.9,0,1.3,0.1,1.7,0.3l-0.8,4.1c-0.5-0.1-1-0.2-1.6-0.2
			c-1,0-2.2,0.6-2.9,2.4v7.8h-4.8v-14.1H509.6z"/>
		<path d="M520.9,381.1c0-4.6,3.4-7.3,6.9-7.3s6.9,2.7,6.9,7.3c0,4.6-3.4,7.3-6.9,7.3S520.9,385.7,520.9,381.1z M529.8,381.1
			c0-2.1-0.6-3.5-2-3.5s-2,1.3-2,3.5s0.6,3.5,2,3.5S529.8,383.2,529.8,381.1z"/>
		<path d="M536.4,386.5l2.1-3c1.3,1,2.4,1.4,3.4,1.4s1.4-0.3,1.4-0.8c0-0.7-1.3-1.1-2.7-1.6c-1.6-0.6-3.5-1.8-3.5-4.1
			c0-2.7,2.2-4.5,5.5-4.5c2.3,0,3.9,0.9,5.2,1.8l-2.1,2.9c-1-0.7-2-1.2-2.9-1.2c-0.8,0-1.2,0.2-1.2,0.8c0,0.7,1.2,1,2.6,1.5
			c1.7,0.6,3.6,1.7,3.6,4.2c0,2.6-2.1,4.6-6,4.6C540.1,388.4,537.9,387.6,536.4,386.5z"/>
	</g>
</g>
<g>
	<g>
		<path d="M679.5,344.9h11.9v4h-7.1v3.5h6v4h-6v6.7h-4.8L679.5,344.9L679.5,344.9z"/>
		<path d="M694.3,357.7v-8.6h4.8v8c0,1.8,0.4,2.2,1.4,2.2c0.9,0,1.4-0.3,2-1.2v-9h4.8v14h-3.9l-0.3-1.8H703
			c-1.1,1.3-2.4,2.2-4.3,2.2C695.6,363.4,694.3,361.2,694.3,357.7z"/>
		<path d="M710.1,356.1c0-4.5,3.3-7.3,6.7-7.3c4.1,0,6.1,3,6.1,6.8c0,0.8-0.1,1.7-0.2,2h-8c0.4,1.7,1.7,2.2,3.2,2.2
			c1,0,1.8-0.3,2.9-0.8l1.6,2.9c-1.5,1.1-3.5,1.6-5.1,1.6C713.3,363.4,710.1,360.7,710.1,356.1z M718.9,354.4c0-1.1-0.4-2-1.9-2
			c-1.1,0-2,0.6-2.2,2H718.9z"/>
		<path d="M725.9,349.1h3.9l0.3,2.4h0.1c1-1.9,2.6-2.7,4-2.7c0.9,0,1.3,0.1,1.7,0.3l-0.8,4.1c-0.5-0.1-1-0.2-1.6-0.2
			c-1,0-2.2,0.6-2.9,2.4v7.8h-4.8L725.9,349.1L725.9,349.1z"/>
		<path d="M737.4,360.5l5.3-7.7H738V349h10.7v2.6l-5.3,7.7h5.5v3.8h-11.5V360.5z"/>
		<path d="M750.9,359.1c0-2.9,2.2-4.5,7.6-5.1c-0.1-1-0.7-1.5-2-1.5c-1,0-2.1,0.4-3.5,1.2l-1.7-3.1c2-1.2,4-1.8,6.2-1.8
			c3.6,0,5.8,2,5.8,6.6v7.8h-3.9l-0.3-1.3H759c-1.1,1-2.4,1.7-3.9,1.7C752.4,363.4,750.9,361.4,750.9,359.1z M758.5,358.8v-1.9
			c-2.3,0.3-3,1.1-3,1.8c0,0.6,0.4,1,1.3,1C757.5,359.7,758,359.3,758.5,358.8z"/>
		<path d="M675.3,369.9h6.7c4,0,7.4,1.5,7.4,6s-3.5,6.4-7.3,6.4h-2v5.8h-4.8L675.3,369.9L675.3,369.9z M681.8,378.5
			c1.9,0,2.8-1,2.8-2.6s-1.1-2.2-2.9-2.2h-1.6v4.8L681.8,378.5L681.8,378.5z"/>
		<path d="M692.1,382.7v-8.6h4.8v8c0,1.8,0.4,2.2,1.4,2.2c0.9,0,1.4-0.3,2-1.2v-9h4.8v14h-3.9l-0.3-1.8h-0.1
			c-1.1,1.3-2.4,2.2-4.3,2.2C693.4,388.4,692.1,386.2,692.1,382.7z M696.9,369.7l4.4-5.3l3.2,3.2l-5.3,4.4L696.9,369.7z"/>
		<path d="M712.9,386.6L712.9,386.6l-0.5,1.5h-3.8v-19.5h4.8v4.5l-0.1,2c1-0.9,2.2-1.4,3.4-1.4c3.3,0,5.5,2.8,5.5,7.1
			c0,4.8-2.9,7.6-5.8,7.6C715.2,388.4,714,387.8,712.9,386.6z M717.3,380.9c0-2.3-0.7-3.2-2-3.2c-0.7,0-1.3,0.3-1.9,1v5.2
			c0.6,0.5,1.2,0.7,1.8,0.7C716.4,384.5,717.3,383.6,717.3,380.9z"/>
		<path d="M725.2,383.1v-14.6h4.8v14.7c0,1,0.4,1.2,0.8,1.2c0.2,0,0.3,0,0.5-0.1l0.6,3.5c-0.5,0.2-1.3,0.4-2.4,0.4
			C726.2,388.4,725.2,386.3,725.2,383.1z"/>
		<path d="M733.5,369.9c0-1.4,1.1-2.4,2.7-2.4c1.6,0,2.7,1,2.7,2.4s-1.1,2.4-2.7,2.4S733.5,371.3,733.5,369.9z M733.8,374.1h4.8v14
			h-4.8V374.1z"/>
		<path d="M741.4,381.1c0-4.6,3.5-7.3,7.5-7.3c1.7,0,3,0.6,4.1,1.5l-2.2,3.1c-0.6-0.5-1.1-0.7-1.6-0.7c-1.8,0-2.9,1.3-2.9,3.5
			s1.2,3.5,2.7,3.5c0.8,0,1.6-0.4,2.2-0.9l1.8,3.1c-1.4,1.2-3.2,1.6-4.6,1.6C744.5,388.4,741.4,385.7,741.4,381.1z"/>
		<path d="M755.1,384.1c0-2.9,2.2-4.5,7.6-5.1c-0.1-1-0.7-1.5-2-1.5c-1,0-2.1,0.4-3.5,1.2l-1.7-3.1c2-1.2,4-1.8,6.2-1.8
			c3.6,0,5.8,2,5.8,6.6v7.8h-3.9l-0.3-1.3h-0.1c-1.1,1-2.4,1.7-3.9,1.7C756.7,388.4,755.1,386.4,755.1,384.1z M762.7,383.8v-1.9
			c-2.3,0.3-3,1.1-3,1.8c0,0.6,0.4,1,1.3,1C761.8,384.7,762.2,384.3,762.7,383.8z"/>
	</g>
</g>
<g>
	<g>
		<path d="M874,353.9c0-6,3.4-9.4,8.5-9.4s8.5,3.4,8.5,9.4s-3.4,9.5-8.5,9.5S874,359.9,874,353.9z M886,353.9c0-3.3-1.3-5.2-3.5-5.2
			s-3.5,1.9-3.5,5.2c0,3.3,1.3,5.4,3.5,5.4S886,357.2,886,353.9z"/>
		<path d="M894.7,357.7v-4.9h-1.8v-3.6l2.1-0.2l0.6-3.6h4v3.6h3.2v3.8h-3.2v4.8c0,1.5,0.8,2,1.7,2c0.4,0,0.9-0.1,1.2-0.2l0.7,3.5
			c-0.7,0.2-1.8,0.5-3.3,0.5C896.2,363.4,894.7,361.1,894.7,357.7z"/>
		<path d="M905.6,349.1h3.9l0.3,2.4h0.1c1-1.9,2.6-2.7,4-2.7c0.9,0,1.3,0.1,1.7,0.3l-0.8,4.1c-0.5-0.1-1-0.2-1.6-0.2
			c-1,0-2.2,0.6-2.9,2.4v7.8h-4.8L905.6,349.1L905.6,349.1z"/>
		<path d="M916.8,356.1c0-4.6,3.4-7.3,6.9-7.3s6.9,2.7,6.9,7.3c0,4.6-3.4,7.3-6.9,7.3S916.8,360.7,916.8,356.1z M925.8,356.1
			c0-2.1-0.6-3.5-2-3.5s-2,1.3-2,3.5s0.6,3.5,2,3.5S925.8,358.2,925.8,356.1z"/>
		<path d="M932.4,361.5l2.1-3c1.3,1,2.4,1.4,3.4,1.4s1.4-0.3,1.4-0.8c0-0.7-1.3-1.1-2.7-1.6c-1.6-0.6-3.5-1.8-3.5-4.1
			c0-2.7,2.2-4.5,5.5-4.5c2.3,0,3.9,0.9,5.2,1.8l-2.1,2.9c-1-0.7-2-1.2-2.9-1.2c-0.8,0-1.2,0.2-1.2,0.8c0,0.7,1.2,1,2.6,1.5
			c1.7,0.6,3.6,1.7,3.6,4.2c0,2.6-2.1,4.6-6,4.6C936,363.4,933.9,362.6,932.4,361.5z"/>
		<path d="M951.6,365.4c0-1.1,0.7-2,2-2.7v-0.1c-0.7-0.5-1.3-1.2-1.3-2.4c0-1,0.6-2,1.6-2.6v-0.1c-1-0.7-1.9-2-1.9-3.6
			c0-3.5,2.9-5.1,6-5.1c0.8,0,1.6,0.1,2.2,0.3h5.2v3.5h-2c0.1,0.3,0.2,0.9,0.2,1.5c0,3.3-2.5,4.6-5.7,4.6c-0.4,0-1-0.1-1.6-0.2
			c-0.3,0.3-0.3,0.4-0.3,0.8c0,0.6,0.6,0.8,2,0.8h2.1c3.5,0,5.5,1.1,5.5,3.6c0,3-3.1,5.1-8.1,5.1
			C954.2,368.8,951.6,367.9,951.6,365.4z M961,364.6c0-0.7-0.7-0.8-1.9-0.8H958c-1.1,0-1.6-0.1-2-0.2c-0.3,0.3-0.5,0.6-0.5,1
			c0,0.9,1.1,1.3,2.7,1.3C959.8,365.9,961,365.4,961,364.6z M959.4,353.8c0-1.3-0.6-1.9-1.5-1.9s-1.5,0.6-1.5,1.9s0.6,2,1.5,2
			C958.8,355.8,959.4,355.2,959.4,353.8z"/>
		<path d="M967.9,349.1h3.9l0.3,2.4h0.1c1-1.9,2.6-2.7,4-2.7c0.9,0,1.3,0.1,1.7,0.3l-0.8,4.1c-0.5-0.1-1-0.2-1.6-0.2
			c-1,0-2.2,0.6-2.9,2.4v7.8h-4.8L967.9,349.1L967.9,349.1z"/>
		<path d="M979.8,357.7v-8.6h4.8v8c0,1.8,0.4,2.2,1.4,2.2c0.9,0,1.4-0.3,2-1.2v-9h4.8v14h-3.9l-0.3-1.8h-0.1
			c-1.1,1.3-2.4,2.2-4.3,2.2C981.1,363.4,979.8,361.2,979.8,357.7z"/>
		<path d="M996.4,349.1h3.9l0.3,1.3h0.1c1-1,2.4-1.6,3.8-1.6c3.3,0,5.4,2.8,5.4,7.1c0,4.8-2.9,7.6-5.8,7.6c-1.2,0-2.2-0.5-3.1-1.4
			l0.2,2.1v3.9h-4.8L996.4,349.1L996.4,349.1z M1005,355.9c0-2.3-0.7-3.2-2-3.2c-0.7,0-1.3,0.3-1.9,1v5.2c0.6,0.5,1.2,0.7,1.8,0.7
			C1004.1,359.5,1005,358.6,1005,355.9z"/>
		<path d="M1012.1,356.1c0-4.6,3.4-7.3,6.9-7.3s6.9,2.7,6.9,7.3c0,4.6-3.4,7.3-6.9,7.3S1012.1,360.7,1012.1,356.1z M1021.1,356.1
			c0-2.1-0.6-3.5-2-3.5s-2,1.3-2,3.5s0.6,3.5,2,3.5S1021.1,358.2,1021.1,356.1z"/>
		<path d="M1027.7,361.5l2.1-3c1.3,1,2.4,1.4,3.4,1.4s1.4-0.3,1.4-0.8c0-0.7-1.3-1.1-2.7-1.6c-1.6-0.6-3.5-1.8-3.5-4.1
			c0-2.7,2.2-4.5,5.5-4.5c2.3,0,3.9,0.9,5.2,1.8l-2.1,2.9c-1-0.7-2-1.2-2.9-1.2c-0.8,0-1.2,0.2-1.2,0.8c0,0.7,1.2,1,2.6,1.5
			c1.7,0.6,3.6,1.7,3.6,4.2c0,2.6-2.1,4.6-6,4.6C1031.4,363.4,1029.2,362.6,1027.7,361.5z"/>
		<path d="M901.3,384.1c0-2.9,2.2-4.5,7.6-5.1c-0.1-1-0.7-1.5-2-1.5c-1,0-2.1,0.4-3.5,1.2l-1.7-3.1c2-1.2,4-1.8,6.2-1.8
			c3.6,0,5.8,2,5.8,6.6v7.8h-3.9l-0.3-1.3h-0.1c-1.1,1-2.4,1.7-3.9,1.7C902.8,388.4,901.3,386.4,901.3,384.1z M908.9,383.8v-1.9
			c-2.3,0.3-3,1.1-3,1.8c0,0.6,0.4,1,1.3,1C907.9,384.7,908.4,384.3,908.9,383.8z"/>
		<path d="M917.1,374.1h3.9l0.3,2.4h0.1c1-1.9,2.6-2.7,4-2.7c0.9,0,1.3,0.1,1.7,0.3l-0.8,4.1c-0.5-0.1-1-0.2-1.6-0.2
			c-1,0-2.2,0.6-2.9,2.4v7.8H917L917.1,374.1L917.1,374.1z"/>
		<path d="M929.1,374.1h3.9l0.3,1.7h0.1c1.1-1.1,2.3-2,4.2-2s3.1,0.8,3.9,2.2c1.1-1.2,2.4-2.2,4.3-2.2c3.1,0,4.4,2.2,4.4,5.7v8.6
			h-4.8v-8c0-1.8-0.4-2.2-1.4-2.2c-0.6,0-1.2,0.3-2,1.1v9.2h-4.8v-8c0-1.8-0.4-2.2-1.4-2.2c-0.6,0-1.2,0.3-2,1.1v9.2H929
			L929.1,374.1L929.1,374.1z"/>
		<path d="M953.1,384.1c0-2.9,2.2-4.5,7.6-5.1c-0.1-1-0.7-1.5-2-1.5c-1,0-2.1,0.4-3.5,1.2l-1.7-3.1c2-1.2,4-1.8,6.2-1.8
			c3.6,0,5.8,2,5.8,6.6v7.8h-3.9l-0.3-1.3h-0.1c-1.1,1-2.4,1.7-3.9,1.7C954.7,388.4,953.1,386.4,953.1,384.1z M960.7,383.8v-1.9
			c-2.3,0.3-3,1.1-3,1.8c0,0.6,0.4,1,1.3,1C959.8,384.7,960.2,384.3,960.7,383.8z"/>
		<path d="M968.4,381.1c0-4.6,2.9-7.3,5.7-7.3c1.5,0,2.4,0.6,3.2,1.4l-0.2-2v-4.5h4.8v19.5H978l-0.3-1.3h-0.1c-1,1-2.3,1.6-3.5,1.6
			C970.6,388.4,968.4,385.6,968.4,381.1z M977.1,383.5v-5.2c-0.6-0.5-1.3-0.7-1.9-0.7c-1,0-2,0.9-2,3.4s0.8,3.5,2.1,3.5
			C976.1,384.5,976.6,384.3,977.1,383.5z"/>
		<path d="M984.8,381.1c0-4.6,3.4-7.3,6.9-7.3s6.9,2.7,6.9,7.3c0,4.6-3.4,7.3-6.9,7.3S984.8,385.7,984.8,381.1z M993.7,381.1
			c0-2.1-0.6-3.5-2-3.5s-2,1.3-2,3.5s0.6,3.5,2,3.5S993.7,383.2,993.7,381.1z"/>
		<path d="M1000.3,386.5l2.1-3c1.3,1,2.4,1.4,3.4,1.4s1.4-0.3,1.4-0.8c0-0.7-1.3-1.1-2.7-1.6c-1.6-0.6-3.5-1.8-3.5-4.1
			c0-2.7,2.2-4.5,5.5-4.5c2.3,0,3.9,0.9,5.2,1.8l-2.1,2.9c-1-0.7-2-1.2-2.9-1.2c-0.8,0-1.2,0.2-1.2,0.8c0,0.7,1.2,1,2.6,1.5
			c1.7,0.6,3.6,1.7,3.6,4.2c0,2.6-2.1,4.6-6,4.6C1004,388.4,1001.8,387.6,1000.3,386.5z"/>
	</g>
</g>
</svg>
