<?xml version="1.0" encoding="utf-8"?>
<!-- Generator: Adobe Illustrator 24.2.0, SVG Export Plug-In . SVG Version: 6.00 Build 0)  -->
<!DOCTYPE svg PUBLIC "-//W3C//DTD SVG 1.1//EN" "http://www.w3.org/Graphics/SVG/1.1/DTD/svg11.dtd" [
	<!ENTITY ns_extend "http://ns.adobe.com/Extensibility/1.0/">
	<!ENTITY ns_ai "http://ns.adobe.com/AdobeIllustrator/10.0/">
	<!ENTITY ns_graphs "http://ns.adobe.com/Graphs/1.0/">
	<!ENTITY ns_vars "http://ns.adobe.com/Variables/1.0/">
	<!ENTITY ns_imrep "http://ns.adobe.com/ImageReplacement/1.0/">
	<!ENTITY ns_sfw "http://ns.adobe.com/SaveForWeb/1.0/">
	<!ENTITY ns_custom "http://ns.adobe.com/GenericCustomNamespace/1.0/">
	<!ENTITY ns_adobe_xpath "http://ns.adobe.com/XPath/1.0/">
]>
<svg version="1.1" id="Layer_1" xmlns:x="&ns_extend;" xmlns:i="&ns_ai;" xmlns:graph="&ns_graphs;"
	 xmlns="http://www.w3.org/2000/svg" xmlns:xlink="http://www.w3.org/1999/xlink" x="0px" y="0px" viewBox="0 0 1418.1 104"
	 style="enable-background:new 0 0 1418.1 104;" xml:space="preserve">
<style type="text/css">
	.st0{fill:#85782F;}
	.st1{fill:#213B73;}
</style>
<metadata>
	<sfw  xmlns="&ns_sfw;">
		<slices></slices>
		<sliceSourceBounds  bottomLeftOrigin="true" height="70.5" width="1348.1" x="223.9" y="-487.3"></sliceSourceBounds>
		<optimizationSettings>
			<targetSettings  fileFormat="PNG24Format" targetSettingsID="0">
				<PNG24Format  filtered="false" interlaced="false" matteColor="#FFFFFF" noMatteColor="false" transparency="true">
					</PNG24Format>
			</targetSettings>
		</optimizationSettings>
	</sfw>
</metadata>
<g>
	<g>
		<g>
			<g>
				<path class="st0" d="M596.4,64.8C596.3,64.8,596.3,64.8,596.4,64.8c-0.3,0-0.5,0.2-0.5,0.5L594,80.5c-0.1,0.6,0.4,1.2,1.1,1.1
					l0,0c0.5,0,0.9-0.4,1-1l0.8-15.2C596.9,65.1,596.7,64.8,596.4,64.8z"/>
				<path class="st0" d="M596.7,57.6l-0.6,5.2c0,0.3,0.2,0.5,0.5,0.5c0,0,0,0,0,0c0.2,0,0.4-0.2,0.4-0.4l0.3-5.3
					c0-0.2-0.1-0.3-0.3-0.3l0,0C596.9,57.4,596.7,57.5,596.7,57.6z"/>
				<path class="st0" d="M597.1,54.5l-0.1,1.2c0,0.2,0.1,0.3,0.3,0.3c0,0,0,0,0,0c0.1,0,0.2-0.1,0.2-0.2l0.1-1.2
					c0-0.1-0.1-0.2-0.2-0.2l0,0C597.2,54.3,597.1,54.4,597.1,54.5z"/>
				<path class="st0" d="M596.5,54.4l-0.4,1.2c-0.1,0.2,0,0.3,0.2,0.3c0,0,0,0,0,0c0.1,0,0.2-0.1,0.3-0.2l0.3-1.2
					c0-0.1,0-0.2-0.2-0.3c0,0,0,0,0,0C596.6,54.3,596.6,54.4,596.5,54.4z"/>
				<path class="st0" d="M595.4,57.5l-1.9,5.1c-0.1,0.3,0.1,0.6,0.4,0.6c0,0,0,0,0,0c0.2,0,0.5-0.1,0.5-0.3l1.5-5.2
					c0.1-0.2-0.1-0.4-0.2-0.4l0,0C595.6,57.3,595.5,57.4,595.4,57.5z"/>
				<path class="st0" d="M594.1,57.1l-3.1,4.7c-0.2,0.3-0.1,0.6,0.2,0.7c0,0,0,0,0,0c0.2,0.1,0.5,0,0.6-0.2l2.8-4.9
					c0.1-0.2,0-0.4-0.2-0.4c0,0,0,0,0,0C594.3,56.9,594.2,57,594.1,57.1z"/>
				<path class="st0" d="M595.9,54.3l-0.7,1.1c-0.1,0.1,0,0.3,0.1,0.4c0,0,0,0,0,0c0.1,0,0.2,0,0.3-0.1l0.7-1.1
					c0.1-0.1,0-0.3-0.1-0.3c0,0,0,0,0,0C596.1,54.2,596,54.2,595.9,54.3z"/>
				<path class="st0" d="M595.3,54l-1,1c-0.1,0.1-0.1,0.3,0.1,0.4c0,0,0,0,0,0c0.1,0.1,0.2,0,0.3-0.1l1-1c0.1-0.1,0.1-0.2,0-0.3
					c0,0,0,0,0,0C595.5,53.9,595.4,53.9,595.3,54z"/>
				<path class="st0" d="M592.8,56.4l-4.3,4.1c-0.2,0.2-0.2,0.6,0.1,0.8c0,0,0,0,0,0c0.2,0.1,0.5,0.1,0.7-0.1l4.1-4.3
					c0.1-0.1,0.1-0.4-0.1-0.5c0,0,0,0,0,0C593,56.2,592.9,56.3,592.8,56.4z"/>
				<path class="st0" d="M591.6,55.3l-5.4,3.1c-0.3,0.2-0.4,0.6-0.1,0.8c0,0,0,0,0,0c0.2,0.2,0.5,0.2,0.7,0.1l5.2-3.4
					c0.2-0.1,0.2-0.4,0.1-0.5l0,0C591.9,55.3,591.7,55.2,591.6,55.3z"/>
				<path class="st0" d="M594.7,53.5l-1.3,0.8c-0.2,0.1-0.2,0.3,0,0.4l0,0c0.1,0.1,0.2,0.1,0.3,0l1.3-0.8c0.1-0.1,0.1-0.3,0-0.4
					c0,0,0,0,0,0C594.9,53.5,594.8,53.5,594.7,53.5z"/>
				<path class="st0" d="M594.2,52.9l-1.5,0.5c-0.2,0.1-0.3,0.3-0.2,0.4l0,0c0.1,0.1,0.2,0.1,0.3,0.1l1.5-0.6
					c0.1-0.1,0.2-0.2,0.1-0.4c0,0,0,0,0,0C594.4,52.9,594.3,52.8,594.2,52.9z"/>
				<path class="st0" d="M590.6,53.9l-6.2,1.9c-0.3,0.1-0.5,0.5-0.3,0.8c0,0,0,0,0,0c0.1,0.2,0.4,0.3,0.7,0.2l6.1-2.2
					c0.2-0.1,0.3-0.3,0.2-0.5c0,0,0,0,0,0C591,54,590.8,53.9,590.6,53.9z"/>
				<path class="st0" d="M590,52.3l-6.8,0.4c-0.4,0-0.6,0.4-0.5,0.7c0,0,0,0,0,0c0.1,0.3,0.3,0.5,0.6,0.4l6.7-0.8
					c0.2,0,0.3-0.2,0.3-0.4c0,0,0,0,0-0.1C590.3,52.4,590.2,52.3,590,52.3z"/>
				<path class="st0" d="M593.9,52l-1.7,0.1c-0.2,0-0.3,0.2-0.3,0.4c0,0,0,0,0,0c0,0.1,0.2,0.2,0.3,0.2l1.7-0.2
					c0.2,0,0.3-0.2,0.2-0.3l0,0C594.1,52.1,594,52,593.9,52z"/>
				<path class="st0" d="M590.1,50.8L590.1,50.8c0-0.2-0.1-0.3-0.3-0.3l-7-1.2c-0.3-0.1-0.6,0.2-0.6,0.5c0,0,0,0,0,0
					c0,0,0,0.1,0,0.1c0,0.3,0.2,0.5,0.5,0.5l7,0.8C590,51.2,590.1,51,590.1,50.8C590.1,50.8,590.1,50.8,590.1,50.8z"/>
				<path class="st0" d="M593.8,51.1l-1.8-0.3c-0.2,0-0.4,0.1-0.4,0.3l0,0c0,0.2,0.1,0.3,0.3,0.3l1.8,0.2c0.2,0,0.3-0.1,0.3-0.3l0,0
					C594,51.2,593.9,51.1,593.8,51.1z"/>
				<path class="st0" d="M590.2,48.5l-6.7-2.9c-0.4-0.2-0.8,0.1-0.8,0.4c0,0,0,0,0,0c-0.1,0.3,0.1,0.6,0.4,0.7l6.9,2.5
					c0.2,0.1,0.4,0,0.4-0.2c0,0,0-0.1,0-0.1C590.4,48.7,590.3,48.6,590.2,48.5z"/>
				<path class="st0" d="M593.9,50.1l-1.8-0.8c-0.2-0.1-0.4,0-0.4,0.2c0,0,0,0,0,0c0,0.2,0.1,0.3,0.2,0.4l1.8,0.7
					c0.1,0.1,0.3,0,0.3-0.2c0,0,0,0,0,0C594.1,50.3,594,50.2,593.9,50.1z"/>
				<path class="st0" d="M596.2,51.3c0-0.1,0-0.2-0.2-0.3l-0.4-0.2c-0.1-0.1-0.3,0-0.3,0.2c0,0,0,0,0,0c0,0.1,0,0.2,0.1,0.2l0.4,0.1
					C596.1,51.5,596.2,51.4,596.2,51.3z"/>
				<path class="st0" d="M594.3,49.1l-1.6-1.2c-0.2-0.1-0.4-0.1-0.5,0.1c0,0,0,0,0,0c-0.1,0.1,0,0.3,0.1,0.4l1.7,1.1
					c0.1,0.1,0.3,0,0.4-0.1l0,0C594.4,49.4,594.4,49.2,594.3,49.1z"/>
				<path class="st0" d="M596.5,51c0.1-0.1,0-0.2-0.1-0.3l-0.5-0.4c-0.1-0.1-0.3,0-0.3,0.1c0,0,0,0,0,0c0,0.1,0,0.2,0.1,0.2l0.6,0.4
					C596.3,51.1,596.4,51.1,596.5,51z"/>
				<path class="st0" d="M590.9,46.6l-6.1-4.5c-0.3-0.2-0.8-0.1-1,0.2c0,0,0,0,0,0c-0.1,0.3,0,0.6,0.2,0.8l6.4,4.1
					c0.2,0.1,0.4,0,0.5-0.1c0,0,0-0.1,0.1-0.1C591.1,46.9,591.1,46.7,590.9,46.6z"/>
				<path class="st0" d="M592.2,45l-5.1-6.1c-0.3-0.3-0.8-0.3-1,0c0,0,0,0,0,0c-0.2,0.3-0.2,0.6,0,0.9l5.5,5.8
					c0.1,0.1,0.4,0.1,0.5,0c0,0,0.1-0.1,0.1-0.1C592.3,45.3,592.3,45.1,592.2,45z"/>
				<path class="st0" d="M596.8,50.7c0.1-0.1,0.1-0.2,0-0.3l-0.6-0.7c-0.1-0.1-0.2-0.1-0.3,0c0,0,0,0,0,0c-0.1,0.1-0.1,0.2,0,0.3
					l0.6,0.6C596.6,50.8,596.7,50.8,596.8,50.7z"/>
				<path class="st0" d="M595,48.3l-1.4-1.7c-0.1-0.2-0.4-0.2-0.5,0l0,0c-0.1,0.1-0.1,0.3,0,0.5l1.5,1.6c0.1,0.1,0.3,0.1,0.4,0l0,0
					C595.1,48.5,595.1,48.4,595,48.3z"/>
				<path class="st0" d="M597.2,50.6c0.1-0.1,0.1-0.2,0-0.3l-0.5-0.9c-0.1-0.1-0.2-0.2-0.3-0.1c0,0,0,0,0,0
					c-0.1,0.1-0.1,0.2-0.1,0.3l0.5,0.9C596.9,50.6,597.1,50.6,597.2,50.6z"/>
				<path class="st0" d="M595.9,47.6l-1-2.1c-0.1-0.2-0.3-0.3-0.5-0.1c0,0,0,0,0,0c-0.1,0.1-0.2,0.3-0.1,0.5l1.2,2
					c0.1,0.1,0.2,0.2,0.4,0.1l0,0C595.9,47.9,596,47.7,595.9,47.6z"/>
				<path class="st0" d="M593.8,43.5l-3.7-7.3c-0.2-0.4-0.7-0.5-1-0.2l0,0c-0.3,0.2-0.4,0.6-0.2,0.9l4.1,7.1
					c0.1,0.2,0.4,0.3,0.6,0.1l0,0C593.9,44,593.9,43.7,593.8,43.5z"/>
				<path class="st0" d="M597.6,50.5L597.6,50.5c0.1,0,0.2-0.2,0.1-0.3l-0.3-1.1c0-0.1-0.1-0.2-0.3-0.2c0,0,0,0,0,0
					c-0.1,0-0.2,0.2-0.2,0.3l0.3,1.1C597.4,50.4,597.5,50.5,597.6,50.5z"/>
				<path class="st0" d="M595.9,42.6l-2-8.4c-0.1-0.4-0.5-0.6-0.9-0.5c0,0,0,0-0.1,0c-0.3,0.1-0.5,0.5-0.4,0.8l2.5,8.2
					c0.1,0.2,0.3,0.4,0.6,0.3c0,0,0,0,0,0C595.8,43,595.9,42.8,595.9,42.6z"/>
				<path class="st0" d="M597,47.2l-0.6-2.4c-0.1-0.2-0.3-0.3-0.5-0.3c0,0,0,0,0,0c-0.2,0.1-0.3,0.3-0.2,0.4l0.7,2.4
					c0,0.1,0.2,0.2,0.3,0.2l0,0C596.9,47.5,597,47.4,597,47.2z"/>
				<path class="st0" d="M598,50.5c0.1,0,0.2-0.1,0.2-0.2l0-1.1c0-0.1-0.1-0.2-0.2-0.2c0,0,0,0,0,0c-0.1,0-0.2,0.1-0.2,0.2l0.1,1.1
					C597.8,50.4,597.9,50.5,598,50.5z"/>
				<path class="st0" d="M598.1,47.2l0-2.7c0-0.2-0.2-0.4-0.4-0.4l0,0c-0.2,0-0.4,0.2-0.3,0.4l0.2,2.7c0,0.1,0.1,0.3,0.3,0.3l0,0
					C598,47.5,598.1,47.3,598.1,47.2z"/>
				<path class="st0" d="M598.1,42.3l0-9c0-0.4-0.4-0.7-0.8-0.7c0,0-0.1,0-0.1,0c-0.4,0-0.6,0.4-0.6,0.7l0.6,9
					c0,0.2,0.2,0.4,0.5,0.4c0,0,0,0,0,0C598,42.7,598.1,42.5,598.1,42.3z"/>
				<path class="st0" d="M599.3,47.4l0.6-2.7c0-0.2-0.1-0.4-0.3-0.5c0,0,0,0,0,0c-0.2,0-0.4,0.1-0.4,0.3l-0.5,2.8
					c0,0.1,0.1,0.3,0.2,0.3l0,0C599.1,47.7,599.3,47.6,599.3,47.4z"/>
				<path class="st0" d="M598.4,50.6c0.1,0,0.2-0.1,0.2-0.2l0.2-1c0-0.1,0-0.2-0.1-0.3c0,0,0,0,0,0c-0.1,0-0.3,0-0.3,0.2l-0.2,1.1
					C598.2,50.4,598.3,50.6,598.4,50.6z"/>
				<path class="st0" d="M600.5,42.5l2.2-9.1c0.1-0.4-0.2-0.8-0.6-0.8c0,0-0.1,0-0.1,0c-0.4,0-0.7,0.2-0.7,0.6l-1.6,9.2
					c0,0.2,0.1,0.5,0.4,0.5c0,0,0,0,0,0C600.2,42.9,600.4,42.7,600.5,42.5z"/>
				<path class="st0" d="M600.3,47.9l1.3-2.7c0.1-0.2,0-0.4-0.2-0.5c0,0,0,0,0,0c-0.2-0.1-0.4,0-0.5,0.2l-1.2,2.7
					c-0.1,0.1,0,0.3,0.1,0.4l0,0C600.1,48.1,600.3,48.1,600.3,47.9z"/>
				<path class="st0" d="M598.7,50.8c0.1,0,0.2,0,0.3-0.1l0.5-0.9c0-0.1,0-0.2-0.1-0.3c0,0,0,0,0,0c-0.1-0.1-0.3,0-0.3,0.1l-0.4,1
					C598.6,50.6,598.6,50.7,598.7,50.8z"/>
				<path class="st0" d="M602.7,43.3l4.4-8.7c0.2-0.4,0-0.8-0.4-0.9c0,0-0.1,0-0.1,0c-0.3-0.1-0.7,0-0.8,0.4l-3.8,8.9
					c-0.1,0.2,0,0.5,0.2,0.6c0,0,0,0,0,0C602.3,43.6,602.6,43.5,602.7,43.3z"/>
				<path class="st0" d="M599,51c0.1,0.1,0.2,0,0.3-0.1l0.6-0.8c0.1-0.1,0.1-0.2,0-0.3c0,0,0,0,0,0c-0.1-0.1-0.3-0.1-0.3,0l-0.6,0.8
					C599,50.8,599,51,599,51z"/>
				<path class="st0" d="M604.7,44.5l6.5-7.8c0.3-0.3,0.2-0.8-0.2-1c-0.1,0-0.1-0.1-0.2-0.1c-0.3-0.2-0.7-0.1-0.9,0.2l-6,8.1
					c-0.1,0.2-0.1,0.5,0.1,0.6c0,0,0,0,0,0C604.3,44.7,604.6,44.7,604.7,44.5z"/>
				<path class="st0" d="M601.2,48.7l2-2.4c0.1-0.2,0.1-0.4-0.1-0.6c0,0,0,0,0,0c-0.2-0.1-0.4-0.1-0.5,0.1l-1.9,2.5
					c-0.1,0.1-0.1,0.3,0,0.4l0,0C600.9,48.8,601.1,48.8,601.2,48.7z"/>
				<path class="st0" d="M606.4,46.3l8.4-6.3c0.4-0.3,0.4-0.8,0.1-1.2l0,0c-0.3-0.3-0.7-0.3-1.1,0l-8,6.8c-0.2,0.2-0.2,0.4-0.1,0.6
					c0,0,0,0,0,0C606,46.4,606.2,46.4,606.4,46.3z"/>
				<path class="st0" d="M601.9,49.6l2.7-2c0.2-0.1,0.2-0.4,0.1-0.6c0,0,0,0,0,0c-0.1-0.2-0.4-0.2-0.5,0l-2.6,2.2
					c-0.1,0.1-0.1,0.2-0.1,0.4l0,0C601.6,49.7,601.8,49.7,601.9,49.6z"/>
				<path class="st0" d="M599.3,51.3c0.1,0.1,0.2,0.1,0.3,0l0.7-0.6c0.1-0.1,0.1-0.2,0.1-0.3c0,0,0,0,0,0c-0.1-0.1-0.2-0.2-0.3-0.1
					l-0.7,0.6C599.2,51.1,599.2,51.3,599.3,51.3z"/>
				<path class="st0" d="M602.3,50.7l3.3-1.4c0.2-0.1,0.3-0.3,0.2-0.5c0,0,0,0,0,0c-0.1-0.2-0.3-0.3-0.5-0.2l-3.2,1.6
					c-0.1,0.1-0.2,0.2-0.1,0.3l0,0C602,50.7,602.2,50.7,602.3,50.7z"/>
				<path class="st0" d="M607.7,48.4l10.4-4.5c0.3-0.1,0.4-0.4,0.2-0.7c-0.1-0.2-0.3-0.4-0.4-0.6c-0.1-0.2-0.4-0.3-0.6-0.2l-10,5.1
					c-0.2,0.1-0.3,0.4-0.2,0.6c0,0,0,0,0,0C607.2,48.4,607.5,48.5,607.7,48.4z"/>
				<path class="st0" d="M602.5,51.8l3.7-0.6c0.2,0,0.4-0.3,0.3-0.5c0,0,0,0,0,0c0-0.2-0.3-0.3-0.5-0.3l-3.6,0.9
					c-0.1,0-0.2,0.2-0.2,0.3l0,0C602.2,51.7,602.3,51.8,602.5,51.8z"/>
				<path class="st0" d="M608.4,50.7l11.2-2c0.5-0.1,0.8-0.6,0.6-1l0,0c-0.1-0.4-0.6-0.7-1-0.6l-11.1,2.7c-0.2,0.1-0.4,0.3-0.3,0.5
					c0,0,0,0,0,0C608,50.6,608.2,50.8,608.4,50.7z"/>
				<path class="st0" d="M608.6,53.2l11.8,0.7c0.5,0,0.9-0.4,0.9-0.9v0c0-0.5-0.4-0.8-0.8-0.8l-11.8,0.1c-0.3,0-0.5,0.2-0.5,0.5
					c0,0,0,0,0,0C608.2,53,608.4,53.2,608.6,53.2z"/>
				<path class="st0" d="M602.4,52.9l3.9,0.2c0.2,0,0.4-0.2,0.4-0.4c0,0,0,0,0,0c0-0.2-0.2-0.4-0.4-0.4l-3.9,0
					c-0.1,0-0.3,0.1-0.3,0.2l0,0C602.1,52.7,602.3,52.9,602.4,52.9z"/>
				<path class="st0" d="M608.2,55.8l11.7,3.5c0.5,0.1,1-0.2,1.1-0.7l0,0c0.1-0.4-0.2-0.9-0.7-1l-11.9-2.7c-0.3-0.1-0.5,0.1-0.6,0.4
					c0,0,0,0,0,0C607.8,55.4,608,55.7,608.2,55.8z"/>
				<path class="st0" d="M602.1,53.9l3.9,1.2c0.2,0.1,0.5-0.1,0.5-0.3c0,0,0,0,0,0c0-0.2-0.1-0.4-0.3-0.5l-3.9-0.9
					c-0.1,0-0.3,0-0.3,0.2l0,0C601.9,53.7,602,53.9,602.1,53.9z"/>
				<path class="st0" d="M599.5,52.9C599.5,52.9,599.4,52.9,599.5,52.9c-0.1,0.1,0,0.3,0.1,0.3c0,0,0,0,0,0l0.7,0.2
					c0.1,0,0.2,0,0.3-0.1c0,0,0,0,0,0c0-0.1,0-0.2-0.2-0.3l-0.8-0.2l0,0C599.6,52.8,599.5,52.8,599.5,52.9z"/>
				<path class="st0" d="M601.6,54.9l3.7,2.1c0.2,0.1,0.5,0,0.6-0.2c0,0,0,0,0,0c0.1-0.2,0-0.4-0.2-0.5l-3.8-1.9
					c-0.1-0.1-0.3,0-0.4,0.1l0,0C601.5,54.7,601.5,54.8,601.6,54.9z"/>
				<path class="st0" d="M599.2,53.3L599.2,53.3c-0.1,0.1,0,0.2,0,0.3c0,0,0,0,0,0l0.7,0.4c0.1,0.1,0.2,0,0.3-0.1c0,0,0,0,0,0
					c0.1-0.1,0-0.2-0.1-0.3l-0.7-0.4c0,0,0,0,0,0C599.4,53.2,599.3,53.2,599.2,53.3z"/>
				<path class="st0" d="M607.3,58.2l10.9,6.3c0.5,0.3,1.1,0.1,1.3-0.4l0,0c0.2-0.4,0-0.9-0.4-1.1l-11.3-5.6c-0.2-0.1-0.5,0-0.6,0.2
					c0,0,0,0,0,0C607,57.8,607.1,58.1,607.3,58.2z"/>
				<path class="st0" d="M601,55.8l3.2,3c0.2,0.2,0.5,0.1,0.6-0.1c0,0,0,0,0,0c0.1-0.2,0.1-0.4-0.1-0.6l-3.4-2.8
					c-0.1-0.1-0.3-0.1-0.4,0c0,0,0,0,0,0C600.9,55.5,600.9,55.7,601,55.8z"/>
				<path class="st0" d="M605.9,60.4l9.5,9c0.4,0.4,1.1,0.3,1.4-0.2l0,0c0.3-0.4,0.2-0.9-0.2-1.2l-10.1-8.4
					c-0.2-0.2-0.5-0.1-0.7,0.1c0,0,0,0,0,0C605.7,60,605.7,60.3,605.9,60.4z"/>
				<path class="st0" d="M598.9,53.6L598.9,53.6c-0.1,0.1-0.1,0.2,0,0.3l0,0l0.6,0.6c0.1,0.1,0.2,0.1,0.3,0c0,0,0,0,0,0
					c0.1-0.1,0.1-0.2,0-0.3l-0.7-0.6l0,0C599.1,53.5,599,53.5,598.9,53.6z"/>
				<path class="st0" d="M600.1,56.5l2.5,3.9c0.1,0.2,0.5,0.3,0.6,0.1c0,0,0,0,0,0c0.2-0.1,0.2-0.4,0-0.6l-2.8-3.7
					c-0.1-0.1-0.3-0.1-0.4,0c0,0,0,0,0,0C600.1,56.3,600,56.4,600.1,56.5z"/>
				<path class="st0" d="M604,62.4l7.5,11.4c0.3,0.5,1,0.6,1.4,0.2l0,0c0.3-0.3,0.4-0.9,0.1-1.2l-8.2-10.9c-0.2-0.2-0.5-0.3-0.7-0.1
					c0,0,0,0,0,0C603.9,61.9,603.8,62.2,604,62.4z"/>
				<path class="st0" d="M598.6,53.9L598.6,53.9c-0.1,0.1-0.1,0.2-0.1,0.3l0.5,0.8c0.1,0.1,0.2,0.1,0.3,0l0,0c0.1-0.1,0.1-0.2,0-0.3
					l-0.6-0.7C598.8,53.8,598.7,53.8,598.6,53.9z"/>
				<path class="st0" d="M599.1,57.1l1.7,4.6c0.1,0.3,0.4,0.4,0.6,0.2c0,0,0,0,0,0c0.2-0.1,0.3-0.3,0.2-0.5l-1.9-4.5
					c-0.1-0.1-0.2-0.2-0.4-0.1c0,0,0,0,0,0C599.1,56.8,599.1,57,599.1,57.1z"/>
				<path class="st0" d="M601.6,64l4.9,13.4c0.2,0.6,0.9,0.8,1.4,0.5l0,0c0.4-0.2,0.6-0.8,0.4-1.2l-5.7-13c-0.1-0.3-0.5-0.4-0.7-0.2
					c0,0,0,0,0,0C601.6,63.5,601.5,63.7,601.6,64z"/>
				<path class="st0" d="M598.2,54.1L598.2,54.1c-0.1,0-0.1,0.1-0.1,0.2c0.1,0.2,0.2,0.7,0.3,1c0,0.1,0.2,0.2,0.3,0.1l0,0
					c0.1-0.1,0.2-0.2,0.1-0.3c-0.1-0.3-0.3-0.7-0.4-1C598.4,54.1,598.3,54,598.2,54.1z"/>
				<path class="st0" d="M597.6,54.5l0.1,1.1c0,0.1,0.2,0.2,0.3,0.2l0,0c0.1,0,0.2-0.1,0.2-0.3l-0.2-1.1c0-0.1-0.1-0.2-0.2-0.2
					c0,0,0,0,0,0C597.7,54.3,597.6,54.4,597.6,54.5z"/>
				<path class="st0" d="M598.8,65l1.7,14.7c0.1,0.6,0.7,1,1.3,0.8l0,0c0.5-0.1,0.8-0.6,0.7-1.1l-2.6-14.5c-0.1-0.3-0.4-0.5-0.7-0.4
					c0,0,0,0,0,0C599,64.5,598.8,64.7,598.8,65z"/>
				<path class="st0" d="M598.2,57.2C598.2,57.2,598.2,57.2,598.2,57.2c-0.2,0-0.3,0.2-0.2,0.3l0.6,5.1c0,0.3,0.3,0.5,0.6,0.4
					c0,0,0,0,0,0c0.2-0.1,0.3-0.3,0.3-0.5l-0.9-5C598.5,57.2,598.4,57.1,598.2,57.2z"/>
				<path class="st0" d="M600.7,51.2c0-0.1-0.2-0.2-0.3-0.1l-0.8,0.4c-0.1,0.1-0.2,0.1-0.1,0.2c0,0,0,0,0,0c0,0.1,0.2,0.1,0.3,0.1
					l0,0l0.8-0.3C600.6,51.4,600.7,51.3,600.7,51.2C600.7,51.2,600.7,51.2,600.7,51.2z"/>
				<path class="st0" d="M600.7,51.9c0-0.1-0.1-0.2-0.3-0.2l-0.7,0.2l0,0c-0.1,0-0.2,0.1-0.2,0.2c0,0.1,0.1,0.1,0.2,0.1
					c0,0,0.1,0,0.1,0l0.8-0.1C600.7,52.1,600.8,52,600.7,51.9C600.7,51.9,600.7,51.9,600.7,51.9z"/>
				<path class="st0" d="M599.7,52.3C599.7,52.3,599.7,52.3,599.7,52.3c-0.2,0-0.2,0.1-0.2,0.2v0c0,0.1,0,0.1,0.1,0.1
					c0,0,0.1,0.1,0.2,0.1l0.8,0c0.1,0,0.2-0.1,0.2-0.2c0,0,0,0,0,0c0-0.1-0.1-0.2-0.2-0.2L599.7,52.3z"/>
				<path class="st0" d="M599.4,52.9c0,0,0,0.1,0,0.1c0-0.1,0.1-0.2,0.1-0.2C599.4,52.8,599.4,52.9,599.4,52.9z"/>
				<path class="st0" d="M595.9,84.1c0-0.6-0.5-1.1-1.1-1.1c-0.1,0-0.2,0-0.2,0c-0.5,0-0.9,0.4-1,0.9l-0.2,2
					c-0.1,0.7,0.5,1.3,1.2,1.3l0,0c0.6,0,1.2-0.5,1.2-1.1L595.9,84.1z"/>
				<path class="st0" d="M593.3,64.6C593.3,64.6,593.3,64.6,593.3,64.6c-0.3,0-0.5,0.1-0.6,0.4l-7.5,20.7c-0.3,0.8,0.3,1.6,1.1,1.6
					h0.1c0.5,0,1-0.4,1.2-0.9l6.2-21.1C593.8,65,593.6,64.7,593.3,64.6z"/>
				<path class="st0" d="M590.3,63.8L590.3,63.8c-0.3-0.1-0.6,0-0.7,0.2l-13.9,21.2c-0.6,0.9,0.1,2.1,1.2,2.1l0,0
					c0.5,0,1-0.3,1.2-0.7l12.6-22C590.7,64.3,590.6,63.9,590.3,63.8z"/>
				<path class="st0" d="M615.1,75.5c-0.4-0.5-1.1-0.6-1.5-0.1c0,0,0,0,0,0c-0.4,0.3-0.4,0.9-0.2,1.3l6.5,9.9
					c0.3,0.4,0.7,0.6,1.2,0.6l0,0c1.2,0,1.8-1.3,1.1-2.3L615.1,75.5z"/>
				<path class="st0" d="M609.6,79.7c-0.2-0.5-0.9-0.7-1.4-0.4c-0.1,0-0.1,0.1-0.2,0.1c-0.4,0.2-0.6,0.7-0.4,1.2l2.2,6
					c0.2,0.5,0.6,0.8,1.1,0.8h0.2c0.9,0,1.4-0.9,1.1-1.7L609.6,79.7z"/>
				<path class="st0" d="M603.1,82.7c-0.1-0.6-0.8-1-1.3-0.7c-0.5,0.1-0.9,0.6-0.8,1.1l0.4,3.1c0.1,0.6,0.6,1.1,1.2,1.1h0
					c0.7,0,1.3-0.7,1.2-1.4L603.1,82.7z"/>
				<path class="st0" d="M616.1,36.8c-0.3,0.3-0.4,0.8-0.1,1.1c0,0.1,0.1,0.1,0.1,0.2c0.3,0.3,0.7,0.3,1,0.1l11.9-8.8
					c0.3-0.3,0.5-0.7,0.5-1.1v0c0-1.2-1.3-1.8-2.2-1L616.1,36.8z"/>
				<path class="st0" d="M619.9,41.1c-0.5,0.2-0.6,0.8-0.4,1.3c0,0,0,0,0,0c0.2,0.4,0.7,0.5,1.1,0.4l8.3-3.6
					c0.4-0.2,0.7-0.6,0.7-1.1l0,0c0-0.9-0.9-1.5-1.7-1.1L619.9,41.1z"/>
				<path class="st0" d="M622.4,46.4c-0.5,0.1-0.8,0.7-0.7,1.2c0,0,0,0,0,0c0.1,0.4,0.6,0.7,1,0.6l6-1c0.5-0.1,0.9-0.5,0.9-1.1v0
					c0-0.7-0.7-1.2-1.4-1.1L622.4,46.4z"/>
				<path class="st0" d="M623.7,52.2c-0.5,0-1,0.4-0.9,1c0,0,0,0,0,0c0,0.5,0.4,0.9,0.9,0.9l4.9,0.3c0.6,0,1.2-0.5,1.2-1.1v0
					c0-0.6-0.5-1.1-1.1-1.1L623.7,52.2z"/>
				<path class="st0" d="M623.5,58.3c-0.5-0.1-1.1,0.2-1.2,0.8c0,0,0,0,0,0c-0.1,0.5,0.2,0.9,0.7,1.1l5.3,1.6
					c0.7,0.2,1.4-0.3,1.4-1.1v-0.1c0-0.5-0.4-1-0.9-1.1L623.5,58.3z"/>
				<path class="st0" d="M622,64.4c-0.5-0.3-1.1,0-1.3,0.5c0,0,0,0,0,0c-0.2,0.4,0,1,0.4,1.2l6.9,4c0.7,0.4,1.6-0.1,1.6-1v-0.3
					c0-0.4-0.2-0.8-0.6-1L622,64.4z"/>
				<path class="st0" d="M619.2,70.2c-0.5-0.4-1.1-0.3-1.5,0.2c0,0,0,0,0,0c-0.3,0.4-0.2,1,0.1,1.3l9.4,8.9c0.9,0.9,2.4,0.2,2.4-1v0
					c0-0.4-0.2-0.8-0.5-1.1L619.2,70.2z"/>
				<path class="st0" d="M588.6,34.5L588.6,34.5c0.3-0.2,0.4-0.6,0.2-1l-8.1-16.1c-0.2-0.5-0.7-0.7-1.2-0.7l0,0c-1,0-1.7,1.1-1.2,2
					l9.1,15.5C587.7,34.7,588.2,34.8,588.6,34.5z"/>
				<path class="st0" d="M592.7,32.3C592.7,32.3,592.7,32.3,592.7,32.3c0.4-0.1,0.6-0.5,0.5-0.9L590,17.7c-0.1-0.5-0.6-0.9-1.2-0.9
					h-0.1c-0.8,0-1.4,0.8-1.2,1.6l4.1,13.5C591.8,32.2,592.3,32.4,592.7,32.3z"/>
				<path class="st0" d="M597.4,31.1C597.4,31.1,597.4,31.1,597.4,31.1c0.4,0,0.7-0.4,0.7-0.8l0-12.4c0-0.7-0.5-1.2-1.2-1.2h0
					c-0.7,0-1.3,0.6-1.2,1.3l0.8,12.4C596.5,30.8,597,31.2,597.4,31.1z"/>
				<path class="st0" d="M602.4,31.2L602.4,31.2c0.4,0.1,0.8-0.2,0.9-0.6l2.9-12.3c0.2-0.8-0.4-1.5-1.2-1.5l0,0
					c-0.6,0-1.1,0.4-1.2,1l-2.1,12.5C601.6,30.7,601.9,31.1,602.4,31.2z"/>
				<path class="st0" d="M607.3,32.3L607.3,32.3c0.4,0.1,0.9,0,1-0.4l6.7-13.3c0.4-0.9-0.2-1.9-1.2-1.9l0,0c-0.5,0-1,0.3-1.2,0.8
					l-5.8,13.7C606.6,31.7,606.9,32.2,607.3,32.3z"/>
				<path class="st0" d="M612,34.6L612,34.6c0.4,0.2,0.9,0.2,1.1-0.2L626,19.2c0.8-1,0.1-2.5-1.1-2.5l0,0c-0.5,0-0.9,0.2-1.2,0.6
					l-11.8,16.1C611.5,33.8,611.6,34.4,612,34.6z"/>
				<g>
					<path class="st0" d="M596.1,51.7c0-0.1-0.1-0.2-0.2-0.2l-0.2,0c-0.1,0-0.3,0.1-0.2,0.2c0,0,0,0,0,0c0,0.1,0.1,0.1,0.2,0.1
						l0.2,0C595.9,51.9,596.1,51.8,596.1,51.7z"/>
					<path class="st0" d="M595.8,51.9c-0.1,0-0.2,0.1-0.2,0.2c0,0,0,0,0,0c0,0.1,0.1,0.1,0.1,0.1c0,0,0.1,0,0.1,0
						c0.1,0,0.2-0.1,0.2-0.2c0-0.1-0.1-0.2-0.1-0.2C595.9,51.9,595.8,51.9,595.8,51.9z"/>
					<circle class="st0" cx="596" cy="52.5" r="0.1"/>
				</g>
				<g>
					<path class="st0" d="M587.3,62.2C587.3,62.2,587.3,62.2,587.3,62.2c-0.2-0.2-0.5-0.1-0.8,0.1l-17.3,16.4
						c-0.3,0.3-0.4,0.6-0.4,1v0c0,1.2,1.5,1.8,2.3,0.9l16.3-17.4C587.7,62.8,587.6,62.4,587.3,62.2z"/>
					<path class="st0" d="M584.6,60.8c0.3-0.2,0.4-0.6,0.1-0.9c0,0,0,0,0,0c-0.2-0.2-0.5-0.3-0.8-0.1l-14.5,8.4
						c-0.4,0.2-0.6,0.6-0.6,1l0,0c0,0.9,1,1.5,1.8,1L584.6,60.8z"/>
					<path class="st0" d="M582.3,57.8c0.4-0.1,0.5-0.6,0.3-0.9l0,0c-0.1-0.3-0.5-0.4-0.7-0.3l-12.3,3.7c-0.4,0.1-0.7,0.5-0.7,1v0.1
						c0,0.7,0.7,1.2,1.4,0.9L582.3,57.8z"/>
					<path class="st0" d="M580.7,54.2c0.4,0,0.7-0.4,0.6-0.8c0,0,0,0,0,0c-0.1-0.3-0.4-0.5-0.7-0.5l-10.8,0.6c-0.5,0-1,0.5-1,1v0
						c0,0.6,0.5,1.1,1.1,1L580.7,54.2z"/>
					<path class="st0" d="M580.1,50.1c0.4,0,0.8-0.3,0.8-0.7c0,0,0,0,0,0c0-0.3-0.2-0.6-0.6-0.7L570,46.9c-0.6-0.1-1.2,0.4-1.2,1v0
						c0,0.5,0.4,0.9,0.9,1L580.1,50.1z"/>
					<path class="st0" d="M580.4,45.8c0.4,0.1,0.8-0.1,0.9-0.5c0,0,0,0,0,0c0.1-0.3-0.1-0.7-0.4-0.8l-10.7-4.6
						c-0.7-0.3-1.4,0.2-1.4,0.9V41c0,0.4,0.3,0.8,0.7,1L580.4,45.8z"/>
					<path class="st0" d="M581.7,41.6c0.4,0.2,0.9,0.1,1-0.3c0,0,0,0,0,0c0.2-0.3,0.1-0.7-0.2-0.9l-11.8-8.8c-0.8-0.6-1.9,0-1.9,1v0
						c0,0.4,0.2,0.8,0.5,1L581.7,41.6z"/>
					<path class="st0" d="M584.1,37.7c0.3,0.3,0.8,0.3,1.1,0c0,0,0,0,0,0c0.2-0.3,0.2-0.7,0-1l-13.9-16.5c-0.9-1-2.5-0.4-2.5,0.9v0
						c0,0.4,0.1,0.7,0.4,1L584.1,37.7z"/>
				</g>
			</g>
		</g>
	</g>
</g>
<g>
	<g>
		<path class="st1" d="M672.1,42.8v22.1h8.8v6.2h-16V42.8H672.1z"/>
		<path class="st1" d="M700.6,49.1h-8.7v4.7h8.2V60h-8.2v4.9h8.7v6.2h-16V42.8h16V49.1z"/>
		<path class="st1" d="M719.5,55.3H734c0,1.5-0.1,2.9-0.2,4.1c-0.1,1.2-0.4,2.4-0.7,3.4c-0.5,1.5-1.2,2.8-2.1,3.9
			c-0.9,1.1-1.9,2.1-3.1,2.9c-1.2,0.8-2.5,1.3-4,1.7c-1.4,0.4-3,0.6-4.5,0.6c-2.2,0-4.2-0.4-6-1.1c-1.8-0.7-3.3-1.7-4.6-3.1
			c-1.3-1.3-2.3-2.9-3-4.7c-0.7-1.8-1.1-3.9-1.1-6.1c0-2.2,0.4-4.2,1.1-6.1c0.7-1.8,1.7-3.4,3-4.7c1.3-1.3,2.9-2.3,4.7-3
			c1.8-0.7,3.9-1.1,6.1-1.1c2.9,0,5.5,0.6,7.7,1.9c2.2,1.3,4,3.3,5.3,5.9l-6.9,2.9c-0.6-1.5-1.5-2.7-2.5-3.3c-1-0.7-2.2-1-3.5-1
			c-1.1,0-2.1,0.2-3,0.6c-0.9,0.4-1.7,1-2.3,1.8c-0.6,0.8-1.1,1.7-1.5,2.8c-0.4,1.1-0.5,2.3-0.5,3.6c0,1.2,0.2,2.3,0.5,3.3
			c0.3,1,0.8,1.9,1.4,2.7c0.6,0.7,1.4,1.3,2.3,1.7c0.9,0.4,2,0.6,3.2,0.6c0.7,0,1.4-0.1,2.1-0.2c0.7-0.2,1.3-0.4,1.8-0.8
			c0.5-0.4,1-0.8,1.3-1.4c0.3-0.6,0.6-1.3,0.7-2.1h-6V55.3z"/>
		<path class="st1" d="M754.8,66.2h-10.4l-1.7,4.9h-7.8l10.7-28.3h8l10.7,28.3h-7.8L754.8,66.2z M752.8,60.6l-3.3-9.4l-3.3,9.4
			H752.8z"/>
		<path class="st1" d="M767.4,42.8h10.8c1.9,0,3.7,0.4,5.4,1.2c1.7,0.8,3.1,1.8,4.4,3.1c1.3,1.3,2.2,2.8,3,4.5
			c0.7,1.7,1.1,3.5,1.1,5.4c0,1.9-0.4,3.6-1.1,5.3c-0.7,1.7-1.7,3.2-2.9,4.5c-1.3,1.3-2.7,2.3-4.4,3.1c-1.7,0.8-3.5,1.2-5.4,1.2
			h-10.8V42.8z M774.7,64.9h1.7c1.3,0,2.4-0.2,3.4-0.6c1-0.4,1.8-0.9,2.5-1.7c0.7-0.7,1.2-1.5,1.6-2.5c0.4-1,0.5-2,0.5-3.2
			c0-1.1-0.2-2.2-0.6-3.1c-0.4-1-0.9-1.8-1.6-2.5c-0.7-0.7-1.5-1.2-2.5-1.6c-1-0.4-2.1-0.6-3.4-0.6h-1.7V64.9z"/>
		<path class="st1" d="M795.4,57c0-2.1,0.4-4.1,1.2-5.9s1.8-3.4,3.2-4.7c1.4-1.4,3-2.4,4.9-3.2c1.9-0.8,4-1.1,6.3-1.1
			c2.3,0,4.3,0.4,6.3,1.1c1.9,0.8,3.6,1.8,4.9,3.2c1.4,1.3,2.5,2.9,3.2,4.7c0.8,1.8,1.2,3.8,1.2,5.9c0,2.1-0.4,4.1-1.2,5.9
			c-0.8,1.8-1.8,3.4-3.2,4.7c-1.4,1.4-3,2.4-4.9,3.2c-1.9,0.8-4,1.1-6.3,1.1c-2.3,0-4.4-0.4-6.3-1.1c-1.9-0.8-3.5-1.8-4.9-3.2
			c-1.4-1.4-2.4-2.9-3.2-4.7S795.4,59.1,795.4,57z M803,57c0,1.1,0.2,2.2,0.6,3.1c0.4,1,1,1.8,1.7,2.5c0.7,0.7,1.6,1.2,2.5,1.6
			c1,0.4,2,0.6,3,0.6c1.1,0,2.1-0.2,3-0.6s1.8-0.9,2.5-1.6c0.7-0.7,1.3-1.5,1.7-2.5c0.4-0.9,0.6-2,0.6-3.1c0-1.1-0.2-2.2-0.6-3.1
			c-0.4-0.9-1-1.8-1.7-2.5c-0.7-0.7-1.6-1.2-2.5-1.6c-1-0.4-2-0.6-3-0.6c-1.1,0-2.1,0.2-3,0.6c-1,0.4-1.8,0.9-2.5,1.6
			c-0.7,0.7-1.3,1.5-1.7,2.5C803.3,54.8,803,55.9,803,57z"/>
		<path class="st1" d="M889.3,52.3c-1.7-2.1-3.8-3.1-6.3-3.1c-1.1,0-2.1,0.2-3,0.6c-0.9,0.4-1.7,0.9-2.4,1.6
			c-0.7,0.7-1.2,1.5-1.6,2.5c-0.4,1-0.6,2-0.6,3.1c0,1.1,0.2,2.2,0.6,3.1c0.4,1,0.9,1.8,1.6,2.5c0.7,0.7,1.5,1.3,2.4,1.7
			c0.9,0.4,1.9,0.6,3,0.6c2.3,0,4.4-1,6.3-3v8.7l-0.7,0.3c-1.1,0.4-2.2,0.7-3.1,0.9c-1,0.2-1.9,0.3-2.9,0.3c-1.9,0-3.8-0.4-5.6-1.1
			c-1.8-0.7-3.3-1.8-4.7-3.1c-1.4-1.3-2.4-2.9-3.3-4.8c-0.8-1.8-1.2-3.8-1.2-6c0-2.2,0.4-4.2,1.2-6c0.8-1.8,1.9-3.4,3.2-4.7
			c1.4-1.3,2.9-2.3,4.7-3.1c1.8-0.7,3.7-1.1,5.6-1.1c1.1,0,2.2,0.1,3.3,0.4s2.2,0.6,3.4,1.1V52.3z"/>
		<path class="st1" d="M893.1,57c0-2.1,0.4-4.1,1.2-5.9s1.8-3.4,3.2-4.7c1.4-1.4,3-2.4,4.9-3.2c1.9-0.8,4-1.1,6.3-1.1
			c2.3,0,4.3,0.4,6.3,1.1c1.9,0.8,3.6,1.8,4.9,3.2c1.4,1.3,2.5,2.9,3.2,4.7c0.8,1.8,1.2,3.8,1.2,5.9c0,2.1-0.4,4.1-1.2,5.9
			c-0.8,1.8-1.8,3.4-3.2,4.7c-1.4,1.4-3,2.4-4.9,3.2c-1.9,0.8-4,1.1-6.3,1.1c-2.3,0-4.4-0.4-6.3-1.1c-1.9-0.8-3.5-1.8-4.9-3.2
			c-1.4-1.4-2.4-2.9-3.2-4.7S893.1,59.1,893.1,57z M900.7,57c0,1.1,0.2,2.2,0.6,3.1c0.4,1,1,1.8,1.7,2.5c0.7,0.7,1.6,1.2,2.5,1.6
			c1,0.4,2,0.6,3,0.6c1.1,0,2.1-0.2,3-0.6s1.8-0.9,2.5-1.6c0.7-0.7,1.3-1.5,1.7-2.5c0.4-0.9,0.6-2,0.6-3.1c0-1.1-0.2-2.2-0.6-3.1
			c-0.4-0.9-1-1.8-1.7-2.5c-0.7-0.7-1.6-1.2-2.5-1.6c-1-0.4-2-0.6-3-0.6c-1.1,0-2.1,0.2-3,0.6c-1,0.4-1.8,0.9-2.5,1.6
			c-0.7,0.7-1.3,1.5-1.7,2.5C900.9,54.8,900.7,55.9,900.7,57z"/>
		<path class="st1" d="M927.5,71.1l4.8-28.3h7.2l5.6,15.1l5.6-15.1h7.2l4.8,28.3h-7.3L953,54.9l-6.6,16.3h-2.9l-6.3-16.3l-2.4,16.3
			H927.5z"/>
		<path class="st1" d="M974.6,42.8v28.3h-7.3V42.8H974.6z"/>
		<path class="st1" d="M995.9,50.1c-0.8-0.6-1.6-1.1-2.4-1.4c-0.8-0.3-1.6-0.5-2.3-0.5c-0.9,0-1.7,0.2-2.3,0.7s-0.9,1-0.9,1.8
			c0,0.5,0.1,0.9,0.4,1.2c0.3,0.3,0.7,0.6,1.2,0.8c0.5,0.2,1,0.4,1.6,0.6c0.6,0.2,1.2,0.4,1.8,0.6c2.4,0.8,4.1,1.9,5.2,3.2
			c1.1,1.3,1.7,3.1,1.7,5.2c0,1.5-0.2,2.8-0.7,3.9c-0.5,1.2-1.2,2.2-2.1,3c-0.9,0.8-2.1,1.5-3.4,1.9c-1.4,0.5-2.9,0.7-4.6,0.7
			c-3.6,0-6.8-1.1-9.9-3.2l3.1-5.9c1.1,1,2.2,1.7,3.2,2.2c1.1,0.5,2.1,0.7,3.2,0.7c1.2,0,2.1-0.3,2.7-0.8c0.6-0.5,0.9-1.2,0.9-1.9
			c0-0.4-0.1-0.8-0.2-1.1c-0.1-0.3-0.4-0.6-0.7-0.9c-0.3-0.3-0.8-0.5-1.4-0.7c-0.6-0.2-1.2-0.5-2-0.7c-0.9-0.3-1.9-0.6-2.8-1
			c-0.9-0.4-1.7-0.8-2.4-1.4c-0.7-0.6-1.3-1.4-1.7-2.3c-0.4-0.9-0.7-2.1-0.7-3.5c0-1.4,0.2-2.7,0.7-3.8c0.5-1.1,1.1-2.1,1.9-2.9
			c0.8-0.8,1.8-1.4,3.1-1.9c1.2-0.4,2.6-0.7,4-0.7c1.4,0,2.8,0.2,4.4,0.6c1.5,0.4,3,1,4.4,1.7L995.9,50.1z"/>
		<path class="st1" d="M1011.9,42.8v28.3h-7.3V42.8H1011.9z"/>
		<path class="st1" d="M1016.5,57c0-2.1,0.4-4.1,1.2-5.9c0.8-1.8,1.8-3.4,3.2-4.7c1.4-1.4,3-2.4,4.9-3.2c1.9-0.8,4-1.1,6.3-1.1
			c2.3,0,4.3,0.4,6.3,1.1c1.9,0.8,3.6,1.8,4.9,3.2c1.4,1.3,2.5,2.9,3.2,4.7c0.8,1.8,1.2,3.8,1.2,5.9c0,2.1-0.4,4.1-1.2,5.9
			c-0.8,1.8-1.8,3.4-3.2,4.7c-1.4,1.4-3,2.4-4.9,3.2c-1.9,0.8-4,1.1-6.3,1.1c-2.3,0-4.4-0.4-6.3-1.1c-1.9-0.8-3.5-1.8-4.9-3.2
			c-1.4-1.4-2.4-2.9-3.2-4.7C1016.9,61,1016.5,59.1,1016.5,57z M1024.1,57c0,1.1,0.2,2.2,0.6,3.1c0.4,1,1,1.8,1.7,2.5
			c0.7,0.7,1.6,1.2,2.5,1.6c1,0.4,2,0.6,3,0.6c1.1,0,2.1-0.2,3-0.6s1.8-0.9,2.5-1.6c0.7-0.7,1.3-1.5,1.7-2.5c0.4-0.9,0.6-2,0.6-3.1
			c0-1.1-0.2-2.2-0.6-3.1c-0.4-0.9-1-1.8-1.7-2.5c-0.7-0.7-1.6-1.2-2.5-1.6c-1-0.4-2-0.6-3-0.6c-1.1,0-2.1,0.2-3,0.6
			c-1,0.4-1.8,0.9-2.5,1.6c-0.7,0.7-1.3,1.5-1.7,2.5C1024.3,54.8,1024.1,55.9,1024.1,57z M1038.7,35.7l-7.1,4.9l-2.8-2.7l6.1-5.9
			L1038.7,35.7z"/>
		<path class="st1" d="M1052.2,71.1V42.8h7.3l13.5,17.3V42.8h7.3v28.3h-7.3l-13.5-17.3v17.3H1052.2z"/>
		<path class="st1" d="M1098.8,42.8h10.8c1.9,0,3.7,0.4,5.4,1.2c1.7,0.8,3.1,1.8,4.4,3.1c1.3,1.3,2.2,2.8,3,4.5
			c0.7,1.7,1.1,3.5,1.1,5.4c0,1.9-0.4,3.6-1.1,5.3c-0.7,1.7-1.7,3.2-2.9,4.5c-1.3,1.3-2.7,2.3-4.4,3.1c-1.7,0.8-3.5,1.2-5.4,1.2
			h-10.8V42.8z M1106.1,64.9h1.7c1.3,0,2.4-0.2,3.4-0.6c1-0.4,1.8-0.9,2.5-1.7c0.7-0.7,1.2-1.5,1.6-2.5c0.4-1,0.5-2,0.5-3.2
			c0-1.1-0.2-2.2-0.6-3.1c-0.4-1-0.9-1.8-1.6-2.5c-0.7-0.7-1.5-1.2-2.5-1.6c-1-0.4-2.1-0.6-3.4-0.6h-1.7V64.9z"/>
		<path class="st1" d="M1144,49.1h-8.7v4.7h8.2V60h-8.2v4.9h8.7v6.2h-16V42.8h16V49.1z"/>
		<path class="st1" d="M1169.2,42.8v22.1h8.8v6.2h-16V42.8H1169.2z"/>
		<path class="st1" d="M1200.1,66.2h-10.4l-1.7,4.9h-7.8l10.7-28.3h8l10.7,28.3h-7.8L1200.1,66.2z M1198.2,60.6l-3.3-9.4l-3.3,9.4
			H1198.2z"/>
		<path class="st1" d="M1228.5,42.8l6.8,17.2l6.8-17.2h7.9l-11.8,28.3h-5.8l-11.8-28.3H1228.5z"/>
		<path class="st1" d="M1269,49.1h-8.7v4.7h8.2V60h-8.2v4.9h8.7v6.2h-16V42.8h16V49.1z"/>
		<path class="st1" d="M1297.6,71.1h-9.1l-7-10.9v10.9h-7.3V42.8h11.4c1.6,0,2.9,0.2,4.1,0.7c1.2,0.5,2.1,1.1,2.9,1.9
			c0.8,0.8,1.3,1.7,1.7,2.8c0.4,1.1,0.6,2.2,0.6,3.4c0,2.2-0.5,3.9-1.5,5.2c-1,1.3-2.6,2.2-4.6,2.7L1297.6,71.1z M1281.5,55.5h1.4
			c1.4,0,2.5-0.3,3.3-0.9c0.8-0.6,1.2-1.5,1.2-2.6c0-1.1-0.4-2-1.2-2.6c-0.8-0.6-1.9-0.9-3.3-0.9h-1.4V55.5z"/>
		<path class="st1" d="M1300.6,42.8h10.8c1.9,0,3.7,0.4,5.4,1.2c1.7,0.8,3.1,1.8,4.4,3.1c1.3,1.3,2.2,2.8,3,4.5
			c0.7,1.7,1.1,3.5,1.1,5.4c0,1.9-0.4,3.6-1.1,5.3c-0.7,1.7-1.7,3.2-2.9,4.5c-1.3,1.3-2.7,2.3-4.4,3.1c-1.7,0.8-3.5,1.2-5.4,1.2
			h-10.8V42.8z M1307.9,64.9h1.7c1.3,0,2.4-0.2,3.4-0.6c1-0.4,1.8-0.9,2.5-1.7c0.7-0.7,1.2-1.5,1.6-2.5c0.4-1,0.5-2,0.5-3.2
			c0-1.1-0.2-2.2-0.6-3.1c-0.4-1-0.9-1.8-1.6-2.5c-0.7-0.7-1.5-1.2-2.5-1.6c-1-0.4-2.1-0.6-3.4-0.6h-1.7V64.9z"/>
		<path class="st1" d="M1345.9,66.2h-10.4l-1.7,4.9h-7.8l10.7-28.3h8l10.7,28.3h-7.8L1345.9,66.2z M1344,60.6l-3.3-9.4l-3.3,9.4
			H1344z"/>
		<path class="st1" d="M1358.6,42.8h10.8c1.9,0,3.7,0.4,5.4,1.2c1.7,0.8,3.1,1.8,4.4,3.1c1.3,1.3,2.2,2.8,3,4.5
			c0.7,1.7,1.1,3.5,1.1,5.4c0,1.9-0.4,3.6-1.1,5.3c-0.7,1.7-1.7,3.2-2.9,4.5c-1.3,1.3-2.7,2.3-4.4,3.1c-1.7,0.8-3.5,1.2-5.4,1.2
			h-10.8V42.8z M1365.9,64.9h1.7c1.3,0,2.4-0.2,3.4-0.6c1-0.4,1.8-0.9,2.5-1.7c0.7-0.7,1.2-1.5,1.6-2.5c0.4-1,0.5-2,0.5-3.2
			c0-1.1-0.2-2.2-0.6-3.1c-0.4-1-0.9-1.8-1.6-2.5c-0.7-0.7-1.5-1.2-2.5-1.6c-1-0.4-2.1-0.6-3.4-0.6h-1.7V64.9z"/>
	</g>
	<path class="st1" d="M849,17.5v69.1c0,0.3-0.3,0.6-0.6,0.6h-3.7c-0.3,0-0.6-0.3-0.6-0.6V17.5c0-0.3,0.3-0.6,0.6-0.6h3.7
		C848.7,16.9,849,17.2,849,17.5"/>
</g>
<g>
	<g>
		<path class="st0" d="M35,30.3h12v43.3H35V30.3z"/>
		<path class="st0" d="M57.4,30.3h15L84.6,57V30.3h11.7v43.3H81.6L69.1,47v26.7H57.4V30.3z"/>
		<path class="st0" d="M133.1,58.4h-14.5v15.3h-12V30.3h29.6v9.9h-17.6v8.2h14.5V58.4z"/>
		<path class="st0" d="M161.5,29.5c14.8,0,22.3,10,22.3,22.4c0,12.5-7.7,22.5-22.3,22.5c-15.3,0-22.3-10-22.3-22.5
			C139.2,39.6,147.1,29.5,161.5,29.5z M161.5,63.2c6,0,9.5-4.8,9.5-11.2c0-6.3-3.8-11.1-9.5-11.1S152,45.7,152,52
			C152,58.3,155.6,63.2,161.5,63.2z"/>
		<path class="st0" d="M191.3,73.7V30.3h16.8c11.6,0,17.7,5.3,17.7,15.3c0,4.7-3.5,9.3-7.9,11l9,16.9h-13.4l-6.7-14.3h-3.4v14.3
			H191.3z M203.4,40.4v10.3h3.8c4.1,0,5.9-2.8,5.9-5.2s-1.4-5-5.5-5H203.4z"/>
		<path class="st0" d="M267.6,30.3h15.8v43.3h-12V46.4l-8.3,21.4h-8.9L246,46.4v27.3h-12V30.3h15.8l8.9,23.2L267.6,30.3z"/>
		<path class="st0" d="M321,56.8h-15.3v7h19v9.9h-31V30.3h30.3v9.9h-18.3v6.7H321V56.8z"/>
		<path class="st0" d="M379.7,58.4h-14.5v15.3h-12V30.3h29.6v9.9h-17.6v8.2h14.5V58.4z"/>
		<path class="st0" d="M388.6,30.3h12v43.3h-12V30.3z"/>
		<path class="st0" d="M410.9,30.3h15L438.1,57V30.3h11.7v43.3h-14.6L422.6,47v26.7h-11.7V30.3z"/>
		<path class="st0" d="M484.7,66.4h-14.1l-2.1,7.2h-13l14.1-43.3h16.1l14.1,43.3h-13L484.7,66.4z M477.6,40.3l-4.4,16.5h8.8
			L477.6,40.3z"/>
		<path class="st0" d="M517.5,63.8h16.3v9.9h-28.4V30.3h12.1V63.8z"/>
	</g>
</g>
</svg>
