<svg xmlns="http://www.w3.org/2000/svg" xmlns:xlink="http://www.w3.org/1999/xlink" width="600" height="528.4" viewBox="0 0 600 528.4"><defs><style>.a{fill:none;}.b{fill:#ffb358;}.c{fill:#444;}.d{clip-path:url(#a);}.e{fill:#8d69a6;}.f{fill:#90839e;}.g{fill:#7f569b;}.h{fill:#478c9d;}.i{fill:#9abe47;}.j{fill:#13b1b9;}.k{fill:#ff902c;}</style><clipPath id="a"><rect class="a" x="14.1" y="-841.9" width="583.4" height="746.24"/></clipPath></defs><path class="b" d="M21,329.2l5.3-6.2h0a6.3,6.3,0,0,1-2.7.6c-3.6,0-5.9-3.2-5.9-6.6s3.7-7.1,8-7.1a9,9,0,0,1,5.3,1.6,7,7,0,0,1,2.5,5.2c0,2.7-1.4,5.3-3,7.4l-4,5.2Zm1.7-12.5a3,3,0,0,0,3,3.1,3.1,3.1,0,1,0,0-6.1A2.9,2.9,0,0,0,22.7,316.7Z"/><path class="b" d="M49.9,325.1v4.1h-15l7.6-8.2a7.3,7.3,0,0,0,2.1-4.6,2.3,2.3,0,0,0-2.1-2.5,2.1,2.1,0,0,0-2,2.3v.8H35.2c.1-4.3,2.9-7.2,7.3-7.2s7.2,2.6,7.2,6.7-1.1,4.2-3,5.9l-2.9,2.7Z"/><path class="b" d="M66.8,325.1v4.1h-15l7.7-8.2a7.8,7.8,0,0,0,2.1-4.6,2.4,2.4,0,0,0-2.1-2.5,2.1,2.1,0,0,0-2.1,2.3,2.2,2.2,0,0,0,.1.8H52.1c.2-4.3,2.9-7.2,7.3-7.2s7.2,2.6,7.2,6.7-1.1,4.2-3,5.9l-2.9,2.7Z"/><path class="b" d="M141.2,410.3a4.5,4.5,0,0,1-2.9,4.2h0a5,5,0,0,1,3.7,4.9c0,3.8-3.9,5.6-7.1,5.6s-7.2-1.8-7.2-5.6a5,5,0,0,1,3.7-4.9h0a4.5,4.5,0,0,1-2.9-4.2c0-3.6,3.2-5.4,6.4-5.4S141.2,406.7,141.2,410.3Zm-8.6,8.5a2.3,2.3,0,1,0,2.3-2.3A2.3,2.3,0,0,0,132.6,418.8Zm.2-8.4a2.1,2.1,0,0,0,2.1,2.1,2,2,0,0,0,2-2.1,2.1,2.1,0,1,0-4.1,0Z"/><path class="b" d="M147.3,409.8v-4.1h7.5v18.7H150V409.8Z"/><path class="b" d="M215.9,273.8v-4.1h7.6v18.7h-4.9V273.8Z"/><path class="b" d="M230.7,275.1a6.5,6.5,0,0,1,2.2-4.5,6.8,6.8,0,0,1,4.7-1.7c3.4,0,6,2,6,5.5a4.4,4.4,0,0,1-1.9,3.8c1.9.5,3,2.8,3,4.7,0,4.1-3.5,6.2-7.2,6.2a7.5,7.5,0,0,1-5.6-2.1,7.7,7.7,0,0,1-2.2-4.7h5a2.5,2.5,0,0,0,2.6,2.6,2.4,2.4,0,0,0,2.6-2.5,2.6,2.6,0,0,0-2.6-2.5l-.8.2v-3.3h.5a1.9,1.9,0,0,0,2.1-2,1.8,1.8,0,0,0-1.9-1.9,2,2,0,0,0-2,2.2Z"/><path class="b" d="M262.1,280.8v3.7h-2.3v3.9h-4.5v-3.9h-9v-3.1l7.2-11.7h6.3v11.1Zm-6.8-7.2h0l-4.4,7.2h4.4Z"/><path class="b" d="M266.7,288.4l5.4-6.3H272a5.5,5.5,0,0,1-2.6.6c-3.7,0-6-3.2-6-6.6s3.8-7.1,8-7.1a8.9,8.9,0,0,1,5.4,1.7,6.6,6.6,0,0,1,2.5,5.1c0,2.7-1.4,5.3-3,7.4l-4,5.3Zm1.8-12.5a2.9,2.9,0,0,0,3,3,3.1,3.1,0,0,0,0-6.1A2.9,2.9,0,0,0,268.5,275.9Z"/><path class="b" d="M317.8,212.5v-4.2h7.6V227h-4.9V212.5Z"/><path class="b" d="M334.7,227l5.4-6.3H340a5.5,5.5,0,0,1-2.6.5c-3.7,0-6-3.1-6-6.5s3.8-7.1,8-7.1a9,9,0,0,1,5.3,1.6,6.9,6.9,0,0,1,2.5,5.2,12.1,12.1,0,0,1-3,7.4l-3.9,5.2Zm1.7-12.5a3,3,0,0,0,3,3.1,3.1,3.1,0,1,0,0-6.2A3,3,0,0,0,336.4,214.5Z"/><path class="b" d="M363.6,222.9V227h-15l7.6-8.3a7.2,7.2,0,0,0,2.2-4.6,2.4,2.4,0,0,0-2.2-2.4,2,2,0,0,0-2,2.3,2.5,2.5,0,0,0,.1.8h-5.4c.2-4.3,2.9-7.2,7.3-7.2s7.2,2.6,7.2,6.6-1.1,4.3-3,6l-2.9,2.7Z"/><path class="b" d="M377.8,208.3l-5.3,6.4h.1a5.5,5.5,0,0,1,2.6-.6c3.6,0,6,3.2,6,6.6s-3.8,7.1-8.1,7.1a9,9,0,0,1-5.3-1.6,7,7,0,0,1-2.5-5.2c0-2.7,1.4-5.3,3-7.4l4-5.3Zm-1.7,12.6a3,3,0,0,0-3-3.1,3.1,3.1,0,0,0-3.1,3.1,3,3,0,0,0,3.1,3A2.9,2.9,0,0,0,376.1,220.9Z"/><path class="b" d="M425.9,380.7a6.9,6.9,0,0,1,2.2-4.5,7.3,7.3,0,0,1,4.8-1.6c3.3,0,5.9,2,5.9,5.5a4.5,4.5,0,0,1-1.9,3.8c2,.5,3,2.8,3,4.7,0,4.1-3.5,6.2-7.2,6.2a7.5,7.5,0,0,1-5.6-2.1A7.3,7.3,0,0,1,425,388h4.9a2.5,2.5,0,0,0,2.6,2.6,2.4,2.4,0,0,0,2.6-2.5,2.6,2.6,0,0,0-2.6-2.5l-.8.2v-3.3h.5a1.9,1.9,0,0,0,2.1-2,1.8,1.8,0,0,0-1.9-1.9,2,2,0,0,0-2,2.1Z"/><path class="b" d="M454.2,375.4l-5.3,6.3h0a7.1,7.1,0,0,1,2.6-.5c3.7,0,6,3.1,6,6.5s-3.8,7.1-8,7.1a9.5,9.5,0,0,1-5.4-1.6,7.4,7.4,0,0,1-2.5-5.1,13.1,13.1,0,0,1,3-7.5l4.1-5.2Zm-1.8,12.5a3,3,0,0,0-3-3.1,3.1,3.1,0,0,0,0,6.2A3,3,0,0,0,452.4,387.9Z"/><path class="b" d="M459.8,379.5v-4.1h15.3L464.4,394h-5.3l8.5-14.5Z"/><path class="b" d="M519.4,31.8a7.3,7.3,0,0,1,2.1-4.5,7,7,0,0,1,4.8-1.6c3.3,0,6,1.9,6,5.4a4.4,4.4,0,0,1-2,3.9c2,.5,3.1,2.8,3.1,4.7,0,4.1-3.6,6.2-7.3,6.2a7.7,7.7,0,0,1-5.6-2.1,7.8,7.8,0,0,1-2.1-4.7h5a2.6,2.6,0,0,0,5.2.1,2.6,2.6,0,0,0-2.6-2.5h-.9V33.6h.5a2,2,0,0,0,2.2-2.1,1.8,1.8,0,0,0-1.9-1.8,1.9,1.9,0,0,0-2,2.1Z"/><path class="b" d="M542,30.6l-.3,2.1h1.5c3.8-.3,6.6,2.8,6.6,6.6a6.4,6.4,0,0,1-2.4,5.1,8.8,8.8,0,0,1-5.4,1.6,11.7,11.7,0,0,1-6.1-1.7l.7-4.6a7.9,7.9,0,0,0,5.2,2.2,3,3,0,0,0,3-2.8c0-2.3-2.2-3.2-4.1-3.2a9,9,0,0,0-3.6.8l1.7-10.2h9.7v4.2Z"/><path class="b" d="M555.4,45.1l5.3-6.3h0a8.1,8.1,0,0,1-2.7.5c-3.6,0-5.9-3.1-5.9-6.5s3.7-7.1,8-7.1a8.3,8.3,0,0,1,5.3,1.6,6.9,6.9,0,0,1,2.5,5.2c0,2.7-1.4,5.3-3,7.4l-4,5.2Zm1.7-12.5a3,3,0,0,0,3,3.1,3.1,3.1,0,1,0,0-6.2A3,3,0,0,0,557.1,32.6Z"/><path class="b" d="M584.3,41v4.1h-15l7.6-8.3a7.3,7.3,0,0,0,2.1-4.6,2.3,2.3,0,0,0-2.1-2.4,2,2,0,0,0-2,2.3v.8h-5.3c.1-4.3,2.9-7.2,7.3-7.2s7.2,2.6,7.2,6.6-1.1,4.3-3,6L578.2,41Z"/><path class="c" d="M37.4,31v3h5.3v4H37.4v3.1H43v4H32.7V27H43v4Z"/><path class="c" d="M50.1,34.4h.1a4.2,4.2,0,0,1,3.9-2c3.3,0,4.7,2.1,4.7,5.1v7.6H54.4v-6c0-1.2.2-3.2-2-3.2s-2.3,1.3-2.3,2.8v6.4H45.8V32.8h4.3Z"/><path class="c" d="M66.4,45.1H62.1V36.4H60.5V32.8h1.6V31.2c0-1.7,0-2.9,1.2-4.3A5.9,5.9,0,0,1,67.6,25a4.1,4.1,0,0,1,1.9.4v3.8a3,3,0,0,0-1.6-.5c-1.1,0-1.5.7-1.5,2.1v2h3.1v3.6H66.4Z"/><path class="c" d="M84.9,39c0,4.1-3.5,6.5-7.4,6.5S70,43.2,70,39s3.5-6.6,7.5-6.6S84.9,34.8,84.9,39ZM74.6,39a2.7,2.7,0,0,0,2.9,2.7A2.7,2.7,0,0,0,80.3,39a2.9,2.9,0,0,0-5.7,0Z"/><path class="c" d="M100.5,51.3H96.1V43.9a4.9,4.9,0,0,1-3.8,1.6A6.2,6.2,0,0,1,86.1,39a6.4,6.4,0,0,1,6.2-6.6,4.5,4.5,0,0,1,3.8,1.8h0V32.8h4.4ZM90.6,39a2.7,2.7,0,0,0,2.8,2.7A2.6,2.6,0,0,0,96.2,39a2.7,2.7,0,0,0-2.8-2.8A2.7,2.7,0,0,0,90.6,39Z"/><path class="c" d="M107.5,32.8v6.6c0,1.5.4,2.6,2.2,2.6s2.2-1.1,2.2-2.6V32.8h4.3v7.4c0,4.1-2.8,5.3-6.5,5.3s-6.6-1.2-6.6-5.3V32.8Z"/><path class="c" d="M131.7,39.7h-9.2a2.4,2.4,0,0,0,2.7,2.7,2.3,2.3,0,0,0,2.1-1.1h4.2a5.1,5.1,0,0,1-2.3,3.2,7.7,7.7,0,0,1-4,1c-4,0-7.1-2.3-7.1-6.5s2.8-6.6,6.8-6.6,6.8,2.6,6.8,6.8Zm-4.1-2.5a2.5,2.5,0,0,0-2.5-2,2.6,2.6,0,0,0-2.6,2Z"/><path class="c" d="M141.8,36a5,5,0,0,0-2.4-.6c-.5,0-1.3.2-1.3.8s1.3,1,1.9,1.1c2.1.4,3.6,1.4,3.6,3.6s-2.9,4.6-5.8,4.6a9.9,9.9,0,0,1-5-1.4l1.6-3a7.3,7.3,0,0,0,3.5,1.2c.5,0,1.3-.3,1.3-.9s-1.3-1-2.7-1.4-2.7-1-2.7-3.2,2.7-4.4,5.4-4.4a9.7,9.7,0,0,1,4.1.8Z"/><path class="b" d="M32.6,63.3H37l8.1,10.4h.1V63.3h4.4v17H45.2L37,69.9h0V80.3H32.6Z"/><path class="b" d="M56.4,68.7v6.2c0,1.5.4,2.5,2.1,2.5s2-1,2-2.5V68.7h4.1v7c0,3.8-2.6,5-6.1,5s-6.2-1.2-6.2-5v-7ZM58.1,67l-1.8-1.3,3.2-3.9L62,63.6Z"/><path class="b" d="M71.4,70.2h0a4.4,4.4,0,0,1,3.7-1.9A4.1,4.1,0,0,1,79,70.6a4.5,4.5,0,0,1,4-2.3c2.9,0,3.9,2,3.9,4.6v7.4H82.8V74.8c0-1.2.1-3.2-1.7-3.2s-2,1.8-2,3.2v5.5H75V74.8c0-1.3,0-3.3-1.8-3.3s-1.8,2-1.8,3.3v5.5H67.3V68.7h4.1Z"/><path class="b" d="M101.5,75.2H92.9c0,1.7.8,2.6,2.5,2.6a2.1,2.1,0,0,0,2-1.1h3.9a4.5,4.5,0,0,1-2.1,3,6.9,6.9,0,0,1-3.7,1c-3.9,0-6.8-2.2-6.8-6.2s2.7-6.2,6.5-6.2,6.3,2.5,6.3,6.5Zm-3.8-2.4A2.3,2.3,0,0,0,95.4,71a2.4,2.4,0,0,0-2.5,1.8Z"/><path class="b" d="M107.5,70.6h0a4.1,4.1,0,0,1,3.8-2h.8v3.9a3.7,3.7,0,0,0-1.8-.4c-2.2,0-2.8,1.5-2.8,3.5v4.7h-4.1V68.7h4.1Z"/><path class="b" d="M126.3,74.5c0,4-3.2,6.2-7,6.2s-6.9-2.2-6.9-6.2,3.2-6.2,6.9-6.2S126.3,70.6,126.3,74.5Zm-9.6,0a2.5,2.5,0,0,0,2.6,2.6,2.5,2.5,0,0,0,2.7-2.6,2.5,2.5,0,0,0-2.7-2.6A2.5,2.5,0,0,0,116.7,74.5Z"/><path class="b" d="M144.6,79h0a3.9,3.9,0,0,1-3.5,1.7,6,6,0,0,1-5.9-6.2,6,6,0,0,1,5.9-6.2,4.3,4.3,0,0,1,3.5,1.6V61.6h4.2V80.3h-4.2Zm-5.1-4.5a2.5,2.5,0,0,0,2.6,2.6,2.5,2.5,0,0,0,2.7-2.6,2.5,2.5,0,0,0-2.7-2.6A2.5,2.5,0,0,0,139.5,74.5Z"/><path class="b" d="M163.2,75.2h-8.6a2.3,2.3,0,0,0,2.6,2.6,2,2,0,0,0,1.9-1.1h4a4.6,4.6,0,0,1-2.2,3,6.9,6.9,0,0,1-3.7,1c-3.9,0-6.7-2.2-6.7-6.2s2.6-6.2,6.4-6.2,6.3,2.5,6.3,6.5Zm-3.8-2.4a2.3,2.3,0,0,0-2.3-1.8,2.4,2.4,0,0,0-2.5,1.8Z"/><path class="b" d="M36.6,98.9h0a4,4,0,0,1,3.8-2.1h.8v4a2.8,2.8,0,0,0-1.8-.4c-2.2,0-2.8,1.5-2.8,3.5v4.6H32.5V97h4.1Z"/><path class="b" d="M54.6,103.4H46c0,1.7.8,2.6,2.5,2.6a2.1,2.1,0,0,0,2-1h4a5.7,5.7,0,0,1-2.2,3,7.8,7.8,0,0,1-3.7.9c-3.9,0-6.7-2.1-6.7-6.1s2.6-6.2,6.4-6.2,6.3,2.5,6.3,6.4Zm-3.8-2.3a2.4,2.4,0,0,0-2.3-1.9,2.5,2.5,0,0,0-2.5,1.9Z"/><path class="b" d="M64.8,100.7a3.9,3.9,0,0,0-2.1-.8,2.7,2.7,0,0,0-2.8,2.8,2.8,2.8,0,0,0,2.9,2.9,3,3,0,0,0,2-.8v3.5a6.7,6.7,0,0,1-2.8.6,6,6,0,0,1-6.3-6,6.1,6.1,0,0,1,6.4-6.3,5,5,0,0,1,2.7.7Z"/><path class="b" d="M80.5,102.8c0,3.9-3.3,6.1-7,6.1s-7-2.2-7-6.1,3.3-6.2,7-6.2S80.5,98.8,80.5,102.8Zm-9.6,0a2.5,2.5,0,0,0,2.6,2.6,2.7,2.7,0,1,0-2.6-2.6Z"/><path class="b" d="M86.5,98.4h0a4.3,4.3,0,0,1,3.7-1.8,4.3,4.3,0,0,1,3.9,2.2A4.4,4.4,0,0,1,98,96.6c3,0,4,1.9,4,4.6v7.3H97.9V103c0-1.2,0-3.2-1.7-3.2s-2,1.8-2,3.2v5.5H90.1V103c0-1.3,0-3.2-1.8-3.2s-1.8,1.9-1.8,3.2v5.5H82.4V97h4.1Z"/><path class="b" d="M116.6,103.4h-8.7a2.3,2.3,0,0,0,2.6,2.6,2.2,2.2,0,0,0,2-1h3.9a4.8,4.8,0,0,1-2.2,3,7.2,7.2,0,0,1-3.7.9c-3.8,0-6.7-2.1-6.7-6.1s2.7-6.2,6.4-6.2,6.4,2.5,6.4,6.4Zm-3.8-2.3a2.4,2.4,0,0,0-2.4-1.9,2.4,2.4,0,0,0-2.4,1.9Z"/><path class="b" d="M122.6,98.4h0a4,4,0,0,1,3.7-1.8c3.1,0,4.4,1.9,4.4,4.8v7.1h-4.1v-5.6c0-1.1.2-3.1-1.9-3.1s-2.1,1.3-2.1,2.7v6h-4.1V97h4.1Z"/><path class="b" d="M142.1,107.3h0a4.3,4.3,0,0,1-3.5,1.6,6.2,6.2,0,0,1-.1-12.3,4.6,4.6,0,0,1,3.6,1.5V89.8h4.1v18.7h-4.1Zm-5.1-4.5a2.6,2.6,0,0,0,5.2,0,2.6,2.6,0,1,0-5.2,0Z"/><path class="b" d="M161.5,108.5h-4.1v-1.2h-.1a4.1,4.1,0,0,1-3.5,1.6,5.9,5.9,0,0,1-5.8-6.2,5.8,5.8,0,0,1,5.8-6.1,4.9,4.9,0,0,1,3.6,1.5V97h4.1Zm-9.3-5.7a2.5,2.5,0,0,0,2.7,2.6,2.5,2.5,0,0,0,2.6-2.6,2.7,2.7,0,1,0-5.3,0Z"/><path class="b" d="M172.6,100.7a4.5,4.5,0,0,0-2.2-.8,2.9,2.9,0,0,0,.1,5.7,3.4,3.4,0,0,0,2.1-.8v3.5a7.2,7.2,0,0,1-2.9.6,6,6,0,0,1-6.3-6,6.1,6.1,0,0,1,6.4-6.3,5.5,5.5,0,0,1,2.8.7Z"/><path class="b" d="M179.5,92.5a2.3,2.3,0,0,1-2.3,2.3,2.3,2.3,0,1,1,0-4.6A2.3,2.3,0,0,1,179.5,92.5Zm-.3,16h-4.1V97h4.1Z"/><path class="b" d="M195,102.8c0,3.9-3.2,6.1-7,6.1s-6.9-2.2-6.9-6.1,3.2-6.2,6.9-6.2S195,98.8,195,102.8Zm-9.6,0a2.5,2.5,0,0,0,2.6,2.6,2.7,2.7,0,1,0-2.6-2.6Z"/><path class="b" d="M201,98.4h0a4,4,0,0,1,3.7-1.8c3.2,0,4.4,1.9,4.4,4.8v7.1H205v-5.6c0-1.1.2-3.1-1.9-3.1s-2.1,1.3-2.1,2.7v6h-4.1V97H201Z"/><path class="b" d="M223.7,103.4h-8.6c0,1.7.8,2.6,2.5,2.6a2.2,2.2,0,0,0,2-1h4a5.7,5.7,0,0,1-2.2,3,7.8,7.8,0,0,1-3.7.9c-3.9,0-6.7-2.1-6.7-6.1s2.6-6.2,6.4-6.2,6.3,2.5,6.3,6.4Zm-3.8-2.3a2.4,2.4,0,0,0-2.3-1.9,2.5,2.5,0,0,0-2.5,1.9Z"/><path class="b" d="M233.2,99.9a5.4,5.4,0,0,0-2.2-.5c-.4,0-1.3.2-1.3.8s1.3.9,1.9,1,3.4,1.3,3.4,3.4-2.8,4.3-5.5,4.3a8.5,8.5,0,0,1-4.7-1.3l1.5-2.9a6.3,6.3,0,0,0,3.3,1.2c.5,0,1.2-.2,1.2-.9s-1.2-.9-2.5-1.3-2.6-.9-2.6-3,2.6-4.1,5.1-4.1a9.9,9.9,0,0,1,3.8.7Z"/><path class="c" d="M28.9,450.5v2.2a4.8,4.8,0,0,0-2.2-1.5,5.4,5.4,0,0,0-2.5-.6,5.9,5.9,0,0,0-4.5,2,6.5,6.5,0,0,0,0,9,6,6,0,0,0,4.5,1.9,8,8,0,0,0,2.6-.5,8,8,0,0,0,2.1-1.5v2.1a6.5,6.5,0,0,1-2.2,1.1,6.7,6.7,0,0,1-2.4.4,7.9,7.9,0,0,1-5.8-2.3,7.6,7.6,0,0,1-2.4-5.7,7.8,7.8,0,0,1,2.4-5.7,7.8,7.8,0,0,1,5.8-2.4,6.7,6.7,0,0,1,2.4.4,6.5,6.5,0,0,1,2.2,1.1Z"/><path class="c" d="M32.9,460.6a6.6,6.6,0,0,0,.3,2.1c.2.6.8.9,1.9.9s1.6-.3,1.8-.9a6.6,6.6,0,0,0,.3-2.1v-5.5h1.7v5.6a5.8,5.8,0,0,1-.8,3.2,3.5,3.5,0,0,1-3,1.2q-2.2,0-3-1.2a5,5,0,0,1-.9-3.1v-5.7h1.7Z"/><path class="c" d="M43,456.2h.1c.1-.1.1-.1.1-.2l.8-.7a2.1,2.1,0,0,1,1.2-.3h.6l.6.2a.1.1,0,0,1,.1.1h.2l-.8,1.5h-.3l-.3-.2h-.4a1.4,1.4,0,0,0-1.3.7,3,3,0,0,0-.5,1.5,2.2,2.2,0,0,0-.1.8v5.5H41.3v-9.8H43Z"/><path class="c" d="M53.1,456.7l-1.4.7a1.2,1.2,0,0,0-.5-.7,1.1,1.1,0,0,0-.8-.3h-.1l-.7.4a.8.8,0,0,0-.4.7.9.9,0,0,0,.5.8,3.9,3.9,0,0,0,1.1.6l.3.2h.4a4.9,4.9,0,0,1,1.5,1,2.1,2.1,0,0,1,.7,1.8,3.2,3.2,0,0,1-.9,2.3,4.1,4.1,0,0,1-2.4.8,3.7,3.7,0,0,1-2.1-.6,4.6,4.6,0,0,1-1.3-1.8l1.5-.7a3.5,3.5,0,0,0,.7,1.2,1.7,1.7,0,0,0,1.3.4,1.5,1.5,0,0,0,1.1-.4,1.4,1.4,0,0,0,.4-1.1,1,1,0,0,0-.5-1,4.7,4.7,0,0,0-1.2-.7h-.5a6,6,0,0,1-1.5-.9,2.1,2.1,0,0,1-.6-1.7,2.2,2.2,0,0,1,.8-1.9,2.7,2.7,0,0,1,2-.8,2.8,2.8,0,0,1,2.6,1.8Z"/><path class="c" d="M56.2,463.7a5,5,0,0,1-1.5-3.7,5.1,5.1,0,0,1,10.2,0,5,5,0,0,1-1.5,3.7,5.3,5.3,0,0,1-7.2,0Zm1.1-6.2a3.7,3.7,0,0,0-1,2.5,4,4,0,0,0,1,2.6,3.2,3.2,0,0,0,2.5,1,3.3,3.3,0,0,0,2.5-1,3.9,3.9,0,0,0,.9-2.6,3.7,3.7,0,0,0-.9-2.5,3.4,3.4,0,0,0-2.5-1.1A3.3,3.3,0,0,0,57.3,457.5Z"/><path class="c" d="M16.9,488.3h0a2.9,2.9,0,0,1-1.5,1.2,4.1,4.1,0,0,1-1.9.5,4.4,4.4,0,0,1-3.4-1.6,5.5,5.5,0,0,1-1.2-3.5,6.1,6.1,0,0,1,1.2-3.7,4.2,4.2,0,0,1,3.4-1.5,5.8,5.8,0,0,1,1.9.4,3.7,3.7,0,0,1,1.5,1.3h0v-8.7h1.7v17.1H16.9Zm-5.5-6a4.1,4.1,0,0,0-.8,2.4,4,4,0,0,0,.8,2.6,2.6,2.6,0,0,0,2.4,1.1,2.8,2.8,0,0,0,2.4-1.1,4.4,4.4,0,0,0,.8-2.5,3.5,3.5,0,0,0-.9-2.5,2.8,2.8,0,0,0-2.4-1.1A3,3,0,0,0,11.4,482.3Z"/><path class="c" d="M21.9,485.2a4.3,4.3,0,0,0,.9,2.3,3.2,3.2,0,0,0,2.3.9,2.7,2.7,0,0,0,1.8-.5,4.4,4.4,0,0,0,1.2-1.5l1.4.8a4.6,4.6,0,0,1-1.9,2,4.5,4.5,0,0,1-2.6.8,4.5,4.5,0,0,1-3.5-1.5,5.4,5.4,0,0,1-1.3-3.5,5.7,5.7,0,0,1,1.3-3.7,3.9,3.9,0,0,1,3.5-1.6,4.1,4.1,0,0,1,3.4,1.5,5.6,5.6,0,0,1,1.2,3.6H21.9Zm5.9-1.4a3.1,3.1,0,0,0-.9-1.8,2.9,2.9,0,0,0-1.9-.8,3.2,3.2,0,0,0-2,.8,3.2,3.2,0,0,0-1,1.8Z"/><path class="c" d="M40.4,486.5l2.9-6.5h1.9l-4.8,10.3L35.6,480h1.9Z"/><path class="c" d="M48.2,475.5a1.2,1.2,0,0,1,.4.8,1.5,1.5,0,0,1-.4.9,1.2,1.2,0,0,1-1.6,0,1.2,1.2,0,0,1-.4-.9,1.4,1.4,0,0,1,1.2-1.2A1.2,1.2,0,0,1,48.2,475.5Zm0,14.2H46.6V480h1.6Z"/><path class="c" d="M58.4,488.3h-.1a2.9,2.9,0,0,1-1.5,1.2,3.7,3.7,0,0,1-1.8.5,4.3,4.3,0,0,1-3.4-1.6,5.1,5.1,0,0,1-1.3-3.5,5.6,5.6,0,0,1,1.3-3.7,4.1,4.1,0,0,1,3.4-1.5,6.5,6.5,0,0,1,1.9.4,3.5,3.5,0,0,1,1.4,1.3h.1v-8.7H60v17.1H58.4Zm-5.5-6a3.6,3.6,0,0,0-.9,2.4,4.7,4.7,0,0,0,.8,2.6,2.8,2.8,0,0,0,2.4,1.1,2.6,2.6,0,0,0,2.4-1.1,3.8,3.8,0,0,0,.9-2.5,3.5,3.5,0,0,0-.9-2.5,3,3,0,0,0-2.4-1.1A2.7,2.7,0,0,0,52.9,482.3Z"/><path class="c" d="M71.4,489.7H69.8v-1.4h-.1a4.3,4.3,0,0,1-1.4,1.3,5.8,5.8,0,0,1-1.9.4,4.3,4.3,0,0,1-3.4-1.6,5.6,5.6,0,0,1-1.3-3.5,6.2,6.2,0,0,1,1.3-3.7,4.2,4.2,0,0,1,3.4-1.5,5.8,5.8,0,0,1,1.9.4,3.5,3.5,0,0,1,1.4,1.3h.1V480h1.6Zm-7.1-7.4a3.6,3.6,0,0,0-.9,2.4,4.1,4.1,0,0,0,.9,2.6,2.5,2.5,0,0,0,2.3,1.1,2.6,2.6,0,0,0,2.4-1.1,3.8,3.8,0,0,0,.9-2.5,3.5,3.5,0,0,0-.9-2.5,3,3,0,0,0-2.4-1.1A2.8,2.8,0,0,0,64.3,482.3Z"/><path class="c" d="M87.8,449.3h2.9a15.1,15.1,0,0,1,3.2.3,7.6,7.6,0,0,1,2.9,1.6,7.3,7.3,0,0,1,2,2.6,9.2,9.2,0,0,1,.6,3.3,7.1,7.1,0,0,1-.7,3.2,6.7,6.7,0,0,1-1.9,2.6,6.2,6.2,0,0,1-2.8,1.6,16.6,16.6,0,0,1-3.3.4H87.8Zm3,13.9a7.4,7.4,0,0,0,2.6-.2,5.6,5.6,0,0,0,3.7-3.4,5.3,5.3,0,0,0,.5-2.5,5.8,5.8,0,0,0-.5-2.6,5.1,5.1,0,0,0-1.5-2.1,5.7,5.7,0,0,0-2.3-1.2,10.1,10.1,0,0,0-2.5-.3H89.5v12.3Z"/><path class="c" d="M103.2,450.7a1.1,1.1,0,1,1-1.6,1.6,1,1,0,0,1,0-1.6,1,1,0,0,1,1.6,0Zm0,14.2h-1.6v-9.8h1.6Z"/><path class="c" d="M111.5,456.7l-1.4.7a1.8,1.8,0,0,0-.5-.7,1.1,1.1,0,0,0-.8-.3h-.1l-.8.4a.9.9,0,0,0-.3.7.8.8,0,0,0,.4.8,3.4,3.4,0,0,0,1.2.6l.3.2h.3a5.4,5.4,0,0,1,1.6,1,2.1,2.1,0,0,1,.7,1.8,2.9,2.9,0,0,1-1,2.3,3.6,3.6,0,0,1-2.3.8,3.7,3.7,0,0,1-2.1-.6,3.8,3.8,0,0,1-1.3-1.8l1.4-.7a3.6,3.6,0,0,0,.8,1.2,1.6,1.6,0,0,0,1.2.4,1.4,1.4,0,0,0,1.1-.4,1.4,1.4,0,0,0,.5-1.1,1.2,1.2,0,0,0-.5-1l-1.3-.7h-.4a4.6,4.6,0,0,1-1.5-.9,1.8,1.8,0,0,1-.7-1.7,2.3,2.3,0,0,1,.9-1.9,2.4,2.4,0,0,1,2-.8,3,3,0,0,1,1.6.5,4.1,4.1,0,0,1,1,1.3Z"/><path class="c" d="M121.1,455.8V458h0a6.9,6.9,0,0,0-1.3-1.1,3.4,3.4,0,0,0-1.7-.5,3.3,3.3,0,0,0-2.5,1.1,3.7,3.7,0,0,0-1,2.5,3.3,3.3,0,0,0,1,2.5,2.8,2.8,0,0,0,2.4,1.1,3.4,3.4,0,0,0,1.8-.4,4.3,4.3,0,0,0,1.4-1.3h0v2.2a5.5,5.5,0,0,1-1.5.8l-1.6.2a5.3,5.3,0,0,1-3.7-1.4,5.1,5.1,0,0,1,.1-7.3,4.9,4.9,0,0,1,3.6-1.5h.3a3.2,3.2,0,0,1,1.4.3l1.3.7Z"/><path class="c" d="M132.1,464.9h-1.6v-1.4h-.1a2.9,2.9,0,0,1-1.5,1.2,3.4,3.4,0,0,1-1.8.4,4.1,4.1,0,0,1-3.4-1.5,5.2,5.2,0,0,1-1.3-3.6,5.3,5.3,0,0,1,1.3-3.6,4.1,4.1,0,0,1,3.4-1.5,3.7,3.7,0,0,1,1.8.4,4.4,4.4,0,0,1,1.5,1.2h.1v-1.4h1.6Zm-7.1-7.4a3.6,3.6,0,0,0-.9,2.4,4.7,4.7,0,0,0,.8,2.6,3,3,0,0,0,2.4,1.1,2.6,2.6,0,0,0,2.4-1.1,3.8,3.8,0,0,0,.8-2.6,3.6,3.6,0,0,0-.8-2.5,3,3,0,0,0-2.4-1A2.7,2.7,0,0,0,125,457.5Z"/><path class="c" d="M136.2,456.5h.1a5.3,5.3,0,0,1,1.4-1.2,4.1,4.1,0,0,1,1.9-.4,3.9,3.9,0,0,1,3.4,1.6,5.1,5.1,0,0,1,1.3,3.5,5.2,5.2,0,0,1-1.3,3.6,4.6,4.6,0,0,1-5.3,1.1,5.3,5.3,0,0,1-1.4-1.2h-.1v6.8h-1.6V455.1h1.6Zm.8,1a3.6,3.6,0,0,0-.9,2.4,4.1,4.1,0,0,0,.9,2.6,2.7,2.7,0,0,0,2.3,1.1,2.8,2.8,0,0,0,2.5-1.1,4.5,4.5,0,0,0,.8-2.6,3.7,3.7,0,0,0-.9-2.5,3,3,0,0,0-2.4-1A2.8,2.8,0,0,0,137,457.5Z"/><path class="c" d="M154.9,464.9h-1.6v-1.4h0a4,4,0,0,1-1.5,1.2,4.1,4.1,0,0,1-1.9.4,4.3,4.3,0,0,1-3.4-1.5,5.7,5.7,0,0,1-1.3-3.6,5.9,5.9,0,0,1,1.3-3.6,4.2,4.2,0,0,1,3.4-1.5,4.1,4.1,0,0,1,1.9.4,4.4,4.4,0,0,1,1.5,1.2h0v-1.4h1.6Zm-7.1-7.4a3.6,3.6,0,0,0-.9,2.4,4.1,4.1,0,0,0,.9,2.6,2.7,2.7,0,0,0,2.3,1.1,2.8,2.8,0,0,0,2.5-1.1,4.5,4.5,0,0,0,.8-2.6,3.7,3.7,0,0,0-.9-2.5,3,3,0,0,0-2.4-1A2.8,2.8,0,0,0,147.8,457.5Z"/><path class="c" d="M164.7,455.8V458h0l-1.3-1.1a3.4,3.4,0,0,0-1.7-.5,3.1,3.1,0,0,0-2.5,1.1,3.3,3.3,0,0,0-1,2.5,3.7,3.7,0,0,0,.9,2.5,3.1,3.1,0,0,0,2.5,1.1,3.4,3.4,0,0,0,1.8-.4,4,4,0,0,0,1.3-1.3h.1v2.2a5.5,5.5,0,0,1-1.5.8l-1.6.2a5.3,5.3,0,0,1-3.7-1.4,5,5,0,0,1-1.5-3.7,4.6,4.6,0,0,1,1.6-3.6,4.9,4.9,0,0,1,3.6-1.5h.3a3.2,3.2,0,0,1,1.4.3l1.3.7Z"/><path class="c" d="M168.8,450.7a1.2,1.2,0,0,1,0,1.6.9.9,0,0,1-.8.4,1.1,1.1,0,0,1-.9-.4,1.2,1.2,0,0,1,0-1.6,1.1,1.1,0,0,1,.9-.4A.9.9,0,0,1,168.8,450.7Zm0,14.2h-1.7v-9.8h1.7Z"/><path class="c" d="M178.9,463.5h0a2.9,2.9,0,0,1-1.5,1.2,3.9,3.9,0,0,1-1.8.4,4.1,4.1,0,0,1-3.4-1.5,5.2,5.2,0,0,1-1.3-3.6,5.8,5.8,0,0,1,1.2-3.6,4.4,4.4,0,0,1,3.5-1.5,3.9,3.9,0,0,1,1.8.4,4.4,4.4,0,0,1,1.5,1.2h0v-8.7h1.7v17.1h-1.7Zm-5.4-6a3.6,3.6,0,0,0-.9,2.4,4.7,4.7,0,0,0,.8,2.6,2.9,2.9,0,0,0,2.4,1.1,2.8,2.8,0,0,0,2.4-1.1,4.5,4.5,0,0,0,.8-2.6,4.1,4.1,0,0,0-.8-2.5,3,3,0,0,0-2.4-1A2.7,2.7,0,0,0,173.5,457.5Z"/><path class="c" d="M192,464.9h-1.6v-1.4h-.1a2.9,2.9,0,0,1-1.5,1.2,3.4,3.4,0,0,1-1.8.4,4.1,4.1,0,0,1-3.4-1.5,5.2,5.2,0,0,1-1.3-3.6,5.3,5.3,0,0,1,1.3-3.6,4.6,4.6,0,0,1,5.3-1.1,5.3,5.3,0,0,1,1.4,1.2h.1v-1.4H192Zm-7.1-7.4a3.6,3.6,0,0,0-.9,2.4,4.7,4.7,0,0,0,.8,2.6,3,3,0,0,0,2.4,1.1,2.6,2.6,0,0,0,2.4-1.1,3.8,3.8,0,0,0,.8-2.6,3.6,3.6,0,0,0-.8-2.5,3,3,0,0,0-2.4-1A2.7,2.7,0,0,0,184.9,457.5Z"/><path class="c" d="M201.8,463.5h-.1a3.1,3.1,0,0,1-1.4,1.2,4.3,4.3,0,0,1-1.9.4,4.2,4.2,0,0,1-3.4-1.5,5.7,5.7,0,0,1-1.3-3.6,5.3,5.3,0,0,1,1.3-3.6,4.6,4.6,0,0,1,5.3-1.1,3.3,3.3,0,0,1,1.4,1.2h.1v-8.7h1.6v17.1h-1.6Zm-5.5-6a3.6,3.6,0,0,0-.9,2.4,4.7,4.7,0,0,0,.8,2.6,3,3,0,0,0,2.4,1.1,2.6,2.6,0,0,0,2.4-1.1,3.9,3.9,0,0,0,.9-2.6,3.7,3.7,0,0,0-.9-2.5,3,3,0,0,0-2.4-1A2.8,2.8,0,0,0,196.3,457.5Z"/><path class="c" d="M222.1,449.3h8.1v1.6h-6.3v4.6H230v1.6h-6.1v6.1h6.3v1.7h-8.1Zm6.1-4.9-3.2,3.2-1-.6,2.4-3.4Z"/><path class="c" d="M234.4,464.9h-1.7v-8.2h-1v-1.6h1v-3.5h1.7v3.5h1.7v1.6h-1.7Z"/><path class="c" d="M238.7,456.3h.1a2.9,2.9,0,0,1,1.2-1,2.7,2.7,0,0,1,1.6-.4,2.7,2.7,0,0,1,2.6,1.2,6,6,0,0,1,.7,3v5.8h-1.7v-5.5a6.6,6.6,0,0,0-.3-2.1c-.2-.6-.8-.9-1.7-.9s-1.6.3-1.9,1a4.6,4.6,0,0,0-.5,2.1c0,.1-.1.2-.1.4v5h-1.6v-9.8h1.6Z"/><path class="c" d="M249.5,450.7a1.2,1.2,0,0,1,0,1.6,1.2,1.2,0,0,1-.9.4.9.9,0,0,1-.8-.4,1.2,1.2,0,0,1,0-1.6.9.9,0,0,1,.8-.4A1.2,1.2,0,0,1,249.5,450.7Zm0,14.2h-1.7v-9.8h1.7Z"/><path class="c" d="M259.6,455.8V458h0l-1.3-1.1a3.4,3.4,0,0,0-1.7-.5,3.1,3.1,0,0,0-2.5,1.1,3.3,3.3,0,0,0-1,2.5,3.7,3.7,0,0,0,.9,2.5,3.1,3.1,0,0,0,2.5,1.1,3.4,3.4,0,0,0,1.8-.4,4,4,0,0,0,1.3-1.3h.1v2.2a5.5,5.5,0,0,1-1.5.8l-1.6.2a5.3,5.3,0,0,1-3.7-1.4,5,5,0,0,1-1.5-3.7,4.6,4.6,0,0,1,1.6-3.6,4.9,4.9,0,0,1,3.6-1.5h.3a3.2,3.2,0,0,1,1.4.3l1.3.7Z"/><path class="c" d="M262.3,463.7a5.3,5.3,0,0,1-1.4-3.7,5.2,5.2,0,0,1,1.4-3.6,5,5,0,0,1,3.7-1.5,5.1,5.1,0,0,1,5.1,5.1,5,5,0,0,1-1.5,3.7,5.2,5.2,0,0,1-3.6,1.4A5.3,5.3,0,0,1,262.3,463.7Zm1.2-6.2a3.3,3.3,0,0,0-1,2.5,3.5,3.5,0,0,0,1,2.6,3,3,0,0,0,2.5,1,3.3,3.3,0,0,0,2.5-1,3.9,3.9,0,0,0,.9-2.6,3.7,3.7,0,0,0-.9-2.5,3.4,3.4,0,0,0-2.5-1.1A3.1,3.1,0,0,0,263.5,457.5Z"/><path class="c" d="M329.2,457v.5a11.8,11.8,0,0,1-.3,2.7,5.9,5.9,0,0,1-1.3,2.3,8.2,8.2,0,0,1-2.6,2,9.1,9.1,0,0,1-3.2.6,8.1,8.1,0,0,1-5.7-13.7,7.8,7.8,0,0,1,5.8-2.4,7.5,7.5,0,0,1,3.7.9,8.6,8.6,0,0,1,2.9,2.5l-1.3,1.1a6.6,6.6,0,0,0-2.3-2.1,6.1,6.1,0,0,0-3-.8,5.9,5.9,0,0,0-4.5,2,6.1,6.1,0,0,0-1.9,4.5,6,6,0,0,0,.5,2.4,5.7,5.7,0,0,0,1.3,2.1,6.9,6.9,0,0,0,2,1.3,4.6,4.6,0,0,0,2.3.6h.5a7,7,0,0,0,3.6-1.4,4.3,4.3,0,0,0,1.6-3.4h-4.6V457Z"/><path class="c" d="M331.9,460.4a4.6,4.6,0,0,0,.9,2.3,3.2,3.2,0,0,0,2.3.9,3.5,3.5,0,0,0,1.8-.5,4.4,4.4,0,0,0,1.2-1.5l1.4.8a4.6,4.6,0,0,1-1.9,2,4.4,4.4,0,0,1-2.6.7,4.8,4.8,0,0,1-3.5-1.4,5.6,5.6,0,0,1-1.2-3.6,6.1,6.1,0,0,1,1.2-3.7,4.3,4.3,0,0,1,3.5-1.5,4.1,4.1,0,0,1,3.4,1.5,5.6,5.6,0,0,1,1.2,3.6h0v.2h-7.7Zm5.9-1.5a3.2,3.2,0,0,0-.9-1.7,2.7,2.7,0,0,0-3.8,0,2.7,2.7,0,0,0-1.1,1.7Zm-.8-8.6-3.1,3.1-1.1-.5,2.5-3.4Z"/><path class="c" d="M343,456.3h0a5.3,5.3,0,0,1,1.2-1,2.9,2.9,0,0,1,1.6-.4,2.8,2.8,0,0,1,2.7,1.2,7.3,7.3,0,0,1,.6,3v5.8h-1.6v-5.5a6.6,6.6,0,0,0-.3-2.1q-.3-.9-1.8-.9c-1,0-1.6.3-1.9,1a6.5,6.5,0,0,0-.5,2.1v5.4h-1.7v-9.8H343Z"/><path class="c" d="M352.6,460.4a3.3,3.3,0,0,0,.9,2.3,3,3,0,0,0,2.3.9,3.1,3.1,0,0,0,1.7-.5,4.4,4.4,0,0,0,1.2-1.5l1.4.8a4.4,4.4,0,0,1-1.8,2,5,5,0,0,1-2.7.7,4.4,4.4,0,0,1-3.4-1.4,5.2,5.2,0,0,1-1.3-3.6,6.1,6.1,0,0,1,1.2-3.7,4.3,4.3,0,0,1,3.5-1.5,4.1,4.1,0,0,1,3.4,1.5,5.6,5.6,0,0,1,1.2,3.6h0v.2h-7.6Zm5.9-1.5a3.3,3.3,0,0,0-1-1.7,2.7,2.7,0,0,0-3.8,0,2.5,2.5,0,0,0-1,1.7Z"/><path class="c" d="M363.5,456.2h.2c0-.1.1-.1.1-.2a2.7,2.7,0,0,1,.8-.7,2,2,0,0,1,1.1-.3h.7l.6.2a.1.1,0,0,0,.1.1h.1l-.8,1.5a.1.1,0,0,1-.1-.1h-.2l-.3-.2h-.4a1.6,1.6,0,0,0-1.3.7,8.8,8.8,0,0,0-.5,1.5,2.2,2.2,0,0,1-.1.8v5.5h-1.6v-9.8h1.6Z"/><path class="c" d="M369,463.7a5,5,0,0,1-1.5-3.7,5.1,5.1,0,0,1,5.1-5.1,4.8,4.8,0,0,1,3.6,1.5,4.9,4.9,0,0,1,1.5,3.6,5,5,0,0,1-1.5,3.7,5.3,5.3,0,0,1-7.2,0Zm1.1-6.2a3.7,3.7,0,0,0-.9,2.5,3.9,3.9,0,0,0,.9,2.6,3.3,3.3,0,0,0,2.5,1,3.2,3.2,0,0,0,2.5-1,4,4,0,0,0,1-2.6,3.7,3.7,0,0,0-1-2.5,3.3,3.3,0,0,0-2.5-1.1A3.4,3.4,0,0,0,370.1,457.5Z"/><path class="c" d="M404.7,464.9H403V449.3h3.2l1.7.2a3.9,3.9,0,0,1,1.5.6,3.6,3.6,0,0,1,1.4,1.6,4.5,4.5,0,0,1,.4,2h0a5.8,5.8,0,0,1-.4,1.8,4.9,4.9,0,0,1-1.1,1.4,3.1,3.1,0,0,1-1.5.8l-1.7.2h-1.8Zm0-8.5h1.2a4.9,4.9,0,0,0,2.5-.5,2.5,2.5,0,0,0,1.1-2.3,2.2,2.2,0,0,0-1.3-2.3,7.7,7.7,0,0,0-2.7-.4h-.8Z"/><path class="c" d="M418.2,456.7l-1.4.7a1.8,1.8,0,0,0-.5-.7,1.1,1.1,0,0,0-.8-.3h-.1l-.8.4a.9.9,0,0,0-.3.7.9.9,0,0,0,.5.8,2.9,2.9,0,0,0,1.1.6l.3.2h.4a6.5,6.5,0,0,1,1.5,1,2.1,2.1,0,0,1,.7,1.8,2.9,2.9,0,0,1-1,2.3,3.6,3.6,0,0,1-2.3.8,3.7,3.7,0,0,1-2.1-.6,4.6,4.6,0,0,1-1.3-1.8l1.5-.7a3.5,3.5,0,0,0,.7,1.2,2,2,0,0,0,2.4,0,1.4,1.4,0,0,0,.4-1.1,1.2,1.2,0,0,0-.5-1l-1.2-.7h-.5a6,6,0,0,1-1.5-.9,2.1,2.1,0,0,1-.7-1.7,2.3,2.3,0,0,1,.9-1.9,2.6,2.6,0,0,1,2-.8,3,3,0,0,1,1.6.5,4.1,4.1,0,0,1,1,1.3Z"/><path class="c" d="M422.6,450.7a1.2,1.2,0,0,1,0,1.6.9.9,0,0,1-.8.4,1.2,1.2,0,0,1-.9-.4,1.2,1.2,0,0,1,0-1.6,1.2,1.2,0,0,1,.9-.4A.9.9,0,0,1,422.6,450.7Zm0,14.2h-1.7v-9.8h1.7Z"/><path class="c" d="M432.8,455.8V458h-.1a6.9,6.9,0,0,0-1.3-1.1,3.4,3.4,0,0,0-1.7-.5,3.4,3.4,0,0,0-2.5,1.1,3.9,3.9,0,0,0,0,5,2.8,2.8,0,0,0,2.4,1.1,3.4,3.4,0,0,0,1.8-.4,4.3,4.3,0,0,0,1.4-1.3h0v2.2a5,5,0,0,1-1.4.8l-1.7.2a5.1,5.1,0,0,1-3.6-1.4,5,5,0,0,1-1.5-3.7,4.9,4.9,0,0,1,1.5-3.6,5,5,0,0,1,3.7-1.5h.2a4,4,0,0,1,1.5.3l1.3.7Z"/><path class="c" d="M435.5,463.7A5,5,0,0,1,434,460a5.1,5.1,0,0,1,10.2,0,5,5,0,0,1-1.5,3.7,5.3,5.3,0,0,1-7.2,0Zm1.1-6.2a3.7,3.7,0,0,0-1,2.5,4,4,0,0,0,1,2.6,3.3,3.3,0,0,0,2.5,1,3.2,3.2,0,0,0,2.5-1,4,4,0,0,0,1-2.6,3.7,3.7,0,0,0-1-2.5,3.3,3.3,0,0,0-2.5-1.1A3.4,3.4,0,0,0,436.6,457.5Z"/><path class="c" d="M451.3,456.7l-1.4.7a1.8,1.8,0,0,0-.5-.7,1.3,1.3,0,0,0-.8-.3h-.1l-.8.4a.9.9,0,0,0-.3.7.8.8,0,0,0,.4.8,3.9,3.9,0,0,0,1.1.6l.4.2h.3a5.4,5.4,0,0,1,1.6,1,2.1,2.1,0,0,1,.7,1.8,2.9,2.9,0,0,1-1,2.3,3.6,3.6,0,0,1-2.3.8,3.7,3.7,0,0,1-2.1-.6,3.8,3.8,0,0,1-1.3-1.8l1.4-.7a3.6,3.6,0,0,0,.8,1.2,1.5,1.5,0,0,0,1.2.4,1.4,1.4,0,0,0,1.1-.4,1.4,1.4,0,0,0,.5-1.1,1.2,1.2,0,0,0-.5-1l-1.3-.7H448a3.8,3.8,0,0,1-1.5-.9,1.8,1.8,0,0,1-.7-1.7,2.3,2.3,0,0,1,.9-1.9,2.4,2.4,0,0,1,2-.8,3,3,0,0,1,1.6.5,4.1,4.1,0,0,1,1,1.3Z"/><path class="c" d="M454.3,463.7a5,5,0,0,1-1.5-3.7,5.1,5.1,0,0,1,5.1-5.1,5,5,0,0,1,3.7,1.5,4.9,4.9,0,0,1,1.5,3.6,5,5,0,0,1-1.5,3.7,5.3,5.3,0,0,1-3.7,1.4A5.2,5.2,0,0,1,454.3,463.7Zm1.2-6.2a3.3,3.3,0,0,0-1,2.5,3.5,3.5,0,0,0,1,2.6,3,3,0,0,0,2.4,1,3,3,0,0,0,2.5-1,3.5,3.5,0,0,0,1-2.6,3.3,3.3,0,0,0-1-2.5,3.1,3.1,0,0,0-2.5-1.1A3,3,0,0,0,455.5,457.5Z"/><path class="c" d="M472,455.8V458h0a6.9,6.9,0,0,0-1.3-1.1,3.4,3.4,0,0,0-1.7-.5,3.3,3.3,0,0,0-2.5,1.1,3.7,3.7,0,0,0-1,2.5,3.3,3.3,0,0,0,1,2.5,2.8,2.8,0,0,0,2.4,1.1,3.4,3.4,0,0,0,1.8-.4,4.3,4.3,0,0,0,1.4-1.3h0v2.2a5.5,5.5,0,0,1-1.5.8l-1.6.2a5.5,5.5,0,0,1-3.7-1.4,5.1,5.1,0,0,1,.1-7.3,4.9,4.9,0,0,1,3.6-1.5h.3a3.2,3.2,0,0,1,1.4.3l1.3.7Z"/><path class="c" d="M476.1,450.7a1,1,0,0,1,0,1.6,1.2,1.2,0,1,1,0-1.6Zm0,14.2h-1.6v-9.8h1.6Z"/><path class="c" d="M487.9,464.9h-1.6v-1.4h-.1a2.9,2.9,0,0,1-1.5,1.2,3.4,3.4,0,0,1-1.8.4,4.2,4.2,0,0,1-3.4-1.5,5.2,5.2,0,0,1-1.3-3.6,5.3,5.3,0,0,1,1.3-3.6,4.6,4.6,0,0,1,5.3-1.1,5.3,5.3,0,0,1,1.4,1.2h.1v-1.4h1.6Zm-7.1-7.4a3.6,3.6,0,0,0-.9,2.4,4.7,4.7,0,0,0,.8,2.6,3,3,0,0,0,2.4,1.1,2.6,2.6,0,0,0,2.4-1.1,3.8,3.8,0,0,0,.8-2.6,3.6,3.6,0,0,0-.8-2.5,3,3,0,0,0-2.4-1A2.7,2.7,0,0,0,480.8,457.5Z"/><path class="c" d="M492.1,464.9h-1.7V447.8h1.7Z"/><path class="c" d="M518.9,464.9h-1.8v-14h-3.7v-1.6h9.3v1.6h-3.8Z"/><path class="c" d="M524.8,460.4a3.3,3.3,0,0,0,.9,2.3,3,3,0,0,0,2.3.9,2.9,2.9,0,0,0,1.7-.5,4.4,4.4,0,0,0,1.2-1.5l1.4.8a4.4,4.4,0,0,1-1.8,2,5,5,0,0,1-2.7.7,4.4,4.4,0,0,1-3.4-1.4,5.2,5.2,0,0,1-1.3-3.6,6.1,6.1,0,0,1,1.2-3.7,4.3,4.3,0,0,1,3.5-1.5,4.1,4.1,0,0,1,3.4,1.5,5.6,5.6,0,0,1,1.2,3.6h0v.2h-7.6Zm5.9-1.5a3.3,3.3,0,0,0-1-1.7,2.6,2.6,0,0,0-1.9-.8,2.9,2.9,0,0,0-1.9.8,2.5,2.5,0,0,0-1,1.7Z"/><path class="c" d="M535.7,456.2h.2c0-.1.1-.1.1-.2a2.7,2.7,0,0,1,.8-.7,2,2,0,0,1,1.1-.3h.7l.6.2h.2l-.8,1.5a.1.1,0,0,1-.1-.1h-.2l-.3-.2h-.4a1.6,1.6,0,0,0-1.3.7,8.8,8.8,0,0,0-.5,1.5v.8a1.3,1.3,0,0,0-.1.6v4.9h-1.6v-9.8h1.6Z"/><path class="c" d="M542.2,456.2h.1c0-.1.1-.1.1-.2l.8-.7a2,2,0,0,1,1.1-.3h.7l.6.2h.2l-.7,1.5c-.1,0-.2,0-.2-.1h-.2l-.3-.2h-.3a1.6,1.6,0,0,0-1.4.7,8.8,8.8,0,0,0-.5,1.5v6.3h-1.7v-9.8h1.7Z"/><path class="c" d="M549,450.7a1.2,1.2,0,0,1,0,1.6,1.2,1.2,0,0,1-.9.4.9.9,0,0,1-.8-.4,1.2,1.2,0,0,1,0-1.6.9.9,0,0,1,.8-.4A1.2,1.2,0,0,1,549,450.7Zm0,14.2h-1.7v-9.8H549Z"/><path class="c" d="M553.6,464.9H552v-8.2h-1v-1.6h1v-3.5h1.6v3.5h1.8v1.6h-1.8Z"/><path class="c" d="M557,463.7a5,5,0,0,1-1.5-3.7,5.1,5.1,0,0,1,10.2,0,5,5,0,0,1-1.5,3.7,5.3,5.3,0,0,1-7.2,0Zm1.1-6.2a3.3,3.3,0,0,0-1,2.5,3.5,3.5,0,0,0,1,2.6,3.2,3.2,0,0,0,2.5,1,3.3,3.3,0,0,0,2.5-1,3.9,3.9,0,0,0,.9-2.6,3.7,3.7,0,0,0-.9-2.5,3.4,3.4,0,0,0-2.5-1.1A3.3,3.3,0,0,0,558.1,457.5Z"/><path class="c" d="M569,456.2h.2c0-.1,0-.1.1-.2a2.7,2.7,0,0,1,.8-.7,1.8,1.8,0,0,1,1.1-.3h.7l.6.2a.1.1,0,0,0,.1.1h.1l-.8,1.5a.1.1,0,0,1-.1-.1h-.2l-.3-.2h-.4a1.6,1.6,0,0,0-1.3.7,4.4,4.4,0,0,0-.5,1.5c0,.3-.1.5-.1.8v5.5h-1.6v-9.8H569Z"/><path class="c" d="M575.8,450.7a1,1,0,1,1-.8-.4A.9.9,0,0,1,575.8,450.7Zm0,14.2h-1.6v-9.8h1.6Z"/><path class="c" d="M587.6,464.9H586v-1.4h-.1a3.1,3.1,0,0,1-1.4,1.2,4.1,4.1,0,0,1-1.9.4,4.2,4.2,0,0,1-3.4-1.5,5.7,5.7,0,0,1-1.3-3.6,5.9,5.9,0,0,1,1.3-3.6,4.2,4.2,0,0,1,6.7.1h.1v-1.4h1.6Zm-7.1-7.4a3.6,3.6,0,0,0-.9,2.4,4.1,4.1,0,0,0,.9,2.6,2.7,2.7,0,0,0,2.3,1.1,2.6,2.6,0,0,0,2.4-1.1,3.9,3.9,0,0,0,.9-2.6,3.7,3.7,0,0,0-.9-2.5,3,3,0,0,0-2.4-1A2.8,2.8,0,0,0,580.5,457.5Z"/><path class="c" d="M591.8,464.9h-1.7V447.8h1.7Z"/><g class="d"><path class="e" d="M440.2,445.9c0-2.9-.4-1.4-.7-2-.1-3.4.3-1.6.6-2.7s-.5-3.8-.5-5.4.1-.4.2-.1c-.4-2.2-.1-6.7-.5-9.4a.4.4,0,0,0,.1-.3c-.2.4-.4.5-.6.4s-.2-2.4.1-2.9a4.2,4.2,0,0,0,.1,1.3v-1.4c.4-1.2.2,1.9.5,1.9a76.8,76.8,0,0,1-.4-7.8c.4-.4.1,4.7.5,2.1l-.2,3.1c.6-2.4,0,1.9.6-.3.2-4.1-.2-4.6,0-8.7-.3-.9-.4.3-.6-.6-.4-5.9,1-4.6.5-8.9a8.3,8.3,0,0,1-.5-4.6l.4,1c.1-3.9-.6-2.2-.3-6.4.2.7.1,3.1.2,2.5.3-2.7-.3-1.9-.3-4l.4-.4c0-4.2-.3-8.9-.4-13.6.1.3.3,1.1.4,0-.2-5.9,0-12.7.3-18.4l-.4-2.2c0-.5.2-.9.2-.3.2-2.3-.2-.2-.3-1.2s.2-1.7.3-.9a129.4,129.4,0,0,1-.3-15.3v.8c.2-3.2-.7-3.7-.3-6.6v.5c.2-7-.1-14.7.4-20-.5-1,.2-6.9-.5-7.4.3-4,.5-2.8.7-8.5,0-1.5-.4-2.2-.5-4.1h.3l-.3-2.5.4-1.4v-1.7c0,.7-.2,1.5-.3,1.4-.1-2.8.3-6.7.5-6.7l-.3-6.5a14.3,14.3,0,0,1,.3,2.1c-.4-3.4.3-.6,0-3.8-.1.4-.2-.2-.3-.3a63.5,63.5,0,0,0,.1-7.8l.3.5c0-4.7-.1-10-.1-15.4-.1,1.9-.6,1.5-.6-.1l.4-.6c-.3-1-.2,1.6-.5-.4s.5-1.4.6-.2v-2.5c.1-.1.1.5.3.6s.3-4.2-.1-5.6l.2-.2c0-5.3-.2-7.8-.2-12.1-.3-.1-.2-1.8-.5-3.1.1-3.2.4-6.8.3-10.6s-.2-.8-.4-2,.2-4.1.4-2.1c0-4.6,0-5.9-.3-11.8-.1.6-.1,1.4-.2,1a5.1,5.1,0,0,1,.2-2.3v.3a96.8,96.8,0,0,1,.2-10.7c0-1.8.1-3.6.2-5.2V183a1.3,1.3,0,0,1-.1-.6V182h0c0-.1-.1-.2-.1-.3h0v-.3h.9l2.2-.2c2.5.1-1.5.3.4.4,5.8-.4,9.2.1,14.1-.2s13.2-.1,18.3.5l-.3-.2a9.8,9.8,0,0,1,2.5.1c-.1-.1-1.4-.1-.6-.3h4.5v5.7c-.1,2.4-.1,4.7-.2,7.1l-.3,14.2c-.1,4.1,1,2.3.6,7.5l-.4-1.4c.4,8.3,0,17.1.3,25.2,0-.5-.2-.5-.2-1.3-.2,1.8,0,6.4.3,6.5s-.2.3-.4,1,.4,4.4.1,5.3-.1-.5-.1-.8,0,5.3.3,4.2c-.2,3.1.1,5.9-.1,8.3s-.1,5.3.4,5.8-.4,5.4-.2,7.3c-.2-.7-.2,1.7-.4.9,0,2.2.1,4.3.4,3.9-.6,4.1.5,8.2-.3,10.5.3,6.6.5,12.7.6,18.6-.5-.2-.1-6.6-.6-6.3.2,5.6.6,8.8.5,14.4-.1,1.5-.2-.8-.3-1.3.2,5.6,0,10.9.2,15.9a10.4,10.4,0,0,1-.1-1.1c0,1-.1,2.3.2,2.2v-1c.3-1.6.7,3.9.9,4.1-.7-1.7-.2,4.9-1,2.3,0,.6.1,1.4.3,1.3s-.2,1.2-.3.3c.1,3.5.3,2.2.3,5.4-.1,0-.1-.6-.3-.9a24.3,24.3,0,0,1,.4,5.9c-.1-.2-.2.1-.2-.7.1,4.7.6,7.9.4,13-.5-1.5-.2,1.8-.6,2v2.8l.3-1.1c-.1,2.4.3,4.5.1,6.5l-.2-1.8v4.5l.2-2.5c.2,2.4.5-.3.4,2.9a26.9,26.9,0,0,1-.3,3.7h0a16.9,16.9,0,0,1,.2,4.1c-.1.5-.5-.3-.5,0s.1,5.6.4,7.1c-.1-.5-.3-.6-.3-.4l.3,1c-.1,1.1-.2,1.2-.3,1.1-.1,3.3.5-1.1.3,2.9a2.9,2.9,0,0,1-.2-.8c-.1,3.9.2,7.6.1,11.3-.4,1.1-.1-3.2-.5-2,.1,5.3.5,11,.4,16.1v-1c.6.7-.3,3.8,0,6.4-.1-.7-.4-.8-.3-.7-.1,3.5.1,7.2.3,12.5v-.7c-.2,2.1-.1,5.4-.2,7.6s.2,2,.4,1.2c-.9,6.9.5,13.1-.3,19.2,0-.8-.1-1.8-.1-1.2v5.2c.3-.4.2-.7.4-1.8a15.2,15.2,0,0,1,.3,3.4c-.2-2.3-.4,0-.6,1.1s.2.1.3,0c-.5,2.7.5.5.2,4.2l-.2-.2a28.2,28.2,0,0,1,.2,4.1c-.3.7-.1-1.4-.3-1.5,0,2.1.5,4.1.2,6-.1-.9-.1-2.2-.1-3.1a21.3,21.3,0,0,0-.4,3.9V488c.8,2.6.1,5.3.6,8.8-.5-3.4-.2-.5-.6-.8s-.2,2.3-.3,1.9c.3,1.7-.2,2.8.2,5.1-.1.1,0,1.8-.3,1.4.1,2.2.2-.5.3-.3a14.8,14.8,0,0,1,.1,2.1v1.6h-3.2a31.7,31.7,0,0,0-4.3.2c-4.1.2-4.9.5-8.7.7-1.3-.1,1-.4,1-.4h-5.6c.4-.1,0-.2-.6-.3s-1.1.4-3.2.3a4.3,4.3,0,0,1,1.6-.5l-5.7.4c-.5-.2,1.2-.3,1.9-.4-2.2.1-5.6.2-6.3.5h1.4c-.8,0-.4-.3.2-.3s2.6.1,2.7.2h-1.3c1.4.6,5.5-.1,8.3-.1l-1.2.5,2.9-.4c.6.1,1,.4-.4.4,2,.3,1.8-.1,3.5.1s.1.1-.1.1h1.9c-.3.1.4.3-.8.2,3.5.3,5.6-.3,6.9,0h-.3c4.9-.2.5-.4,4.1-.8l2.5.9.4-.4c.5,0,1.5.1,1.3.2s1-.2.8-.2-.5-.1,0-.2h1.2v-3.9c0-1.2,0-2.1.3-2.4s-.2,2.3-.4-.2c.6-.8-.1-3,.2-5.2.3.7.1,2.8.4.6s.1-4.3,0-6.1c-.4-.1-.2-4.1-.3-7.2.1.2.2-5.8.4-8.7h0c-.4-.6-.3-3.6-.4-5.7.3.1.4.4.5,1.6v-2a9.6,9.6,0,0,1-.3-2.5l.3.6c0-2.8-.3-5.5-.1-9-.3-.2-.9,2.8-1-.9.1-.2.4-.3.4.7a10.7,10.7,0,0,1,0-1.8l.2,1.5c.2-1.6-.2-.8-.1-2.1s.1-1,.3-.8a8.5,8.5,0,0,0,0,1.6,25.8,25.8,0,0,1,.3-3.7c-.1.1-.3,0-.3-1.1,0-2.7.3-.9.4-2.5s0-2.4-.3-2.4a3.1,3.1,0,0,1,.2-1.3c-.1-1.4,0-6.5-.4-4.9v.1h0c-.4-4.6.2-9.6,0-14.2h.1c-.1-2.8-.1-6.1-.3-8.1s.2-1.9.3-1.5a47.7,47.7,0,0,1,0-5.4c.2,2.1.2-.7.2,2.2a32.4,32.4,0,0,0-.1-6.2c.3,1,.4-2.1.3-3.4l-.2,1.9v-4l.4.7c.4-5.5-.8-10,0-14.2-.3-1.5-.2,3-.5,1.7s.6-5.2.6-6c.2-3.5-.6-3.3-.4-6.9-.2.5-.5.9-.7-1.8s.6-3.2.7-1.6,0,1-.1.9.1,1.9.3.9v-.3c.1-1.3.1-4.8.3-4-.1-1.9-.2-.8-.3.6.2-3.2,0-5.1.2-8.4-.1.5-.3,1-.3.5.2-5-.2-2.2-.3-5.6.2-1.9.5.7.3-2.7s.4-.4.5.4c-.3-3,.2-5.7.2-7.5v-.9l-.3.9a5.4,5.4,0,0,1,.1-1.7c-.1-1-.4.7-.6-1.2s-.2-3.9.2-4.3c-.2,4,.3-.5.4,2.9a9.5,9.5,0,0,1,0-2.4c0-.1.1.2.1.4.3-3.8-.4-1.7-.4-5.7.2.5.4-.9.3-1.5,0,1.5-.3.7-.5-.7a22.9,22.9,0,0,0-.1-4.1v1.5a19.5,19.5,0,0,1-.3-3.6c.2-.1.1,1.6.2,1s.4-4.4.1-7.1.4-.2.5-1.3c-.3-3,.3-3.3.1-6.5-.3.9-.2,1.1-.5-1.2l.2,5.3-.4-3.4c0,1.6.2,3.4.1,4.3-.2-1.6-.1-1.4-.4-.7.4-2.1-.2-4.3.1-6.8h.6c.3-3.8-.3-6.8-.1-11.7v1.6c-.3-.7-.1-3.1-.2-4.7.2.2.3-.8.5-1.5s0-3.6-.5-4.1l.3-2.2c.1-3.9-.6-4.5-.5-8.3.2,1.1.4-.6.5,1.9,0-1.2.1-2.4-.1-2.4s-.3-3.5-.1-4.7a6.8,6.8,0,0,1-.3-2.2h.1c-.1,0-.1-2.2-.4-1,.7-3.9,0-11,.6-14.4s-.2-6.1-.2-8.7c.1.2.1,0,.1.5.2-3.5-.6-2.1-.4-6.1.4-2,.2,2.1.3.8s-.1-4.8.4-7.4v.6c.2-2-.3-5-.2-8.3,0,0,0,.1.1,0a90.3,90.3,0,0,1-.6-9.8c.3,1,.1,1.4.4.8s-.5.4-.5-2.4a11.5,11.5,0,0,1,.6-3.3v2.7c.4-1.4,0-3.5.1-4.9h.1c0-4.1-.5-4.2-.4-8.6l-.2.4c-.4-2.4.3-2-.1-4.5l.5-.7c-.1-1.6-.4-5.6-.5-8.5.3,1.6.5,5,.7,7.1a56.6,56.6,0,0,0-.3-6.3,7.6,7.6,0,0,1,.1,2.1,40.5,40.5,0,0,1-.5-7.7c.3.2.4-.6.4-1.9a15.5,15.5,0,0,0,.1-2.2v-3.3h-3.3l-1.7-.3c-5.6.4-11.1-.1-17.7-.1,2.3.7-1.9.1-1.5.8h-2.2l-4.7-.4c-1.1-.2,1.5-.1,1.3-.3-3.3,0-1.4-.3-3.6-.5.5.3-1.1.4-3,.3l2.6.3c-4.6.4-4-.6-8.7-.2l1.5-.2h-6.1v3.5c0,.7.1,1.3.1,1.9s.2,2.3.3,3-.2,1-.3-.1c-.1,5.8.6,12.8.3,17.3l-.2-.4a16.6,16.6,0,0,1,.1,3.2s-.1-.4-.1.1.3,2.9.2,4.3l-.2-1.2c-.3,5.6.4,8.6.5,13.3-.5,0-.6,4.5-.7,6.7h-.1c0,6.6.4,11.1.6,17.2-.5,3.8-.2,12.8-.5,18.9.1-1,.4.1.4,1.2s.4,3.9-.1,3.7v-.5c-.4,1.1-.3,4-.3,6.3l.6.3c-.9,6,.3,15.7-.5,18.9.2,1.5.2,3.3.3,4.7h-.3c-.1,4-.1,6,0,10.9l-.3-1c0,2.8,1,3.6,1,6.1l-.5.8c0,4.9-.4,9.8,0,14.6a2.4,2.4,0,0,1-.2-1c0,2.2-.3,8.8.3,8s0,5,.2,7.6l-.3-.4a24.5,24.5,0,0,1,.6,5.4c0,.7-.3.6-.2-.4-.1,2.5.3,1.9.2,4.9l-.3-1.1a10.7,10.7,0,0,0,.4,3.7c.1,1.6-.1,4.8-.4,5.1a8.1,8.1,0,0,1,.3,3.2c-.1.2-.1-.3-.2-.6-.2,4.2.4,6.3.1,9.1a.8.8,0,0,0-.2.5v-5.7c-.3,0-.3,2.7-.7.5a73.9,73.9,0,0,1,.6,8.5.6.6,0,0,0-.1.4v-.3a8.1,8.1,0,0,0,.1,1.6,17,17,0,0,0-.1,2.2c-.3.3-.2,3.1-.2,4.4s.3,1.7.6,0c-.1.3-.1-.2-.1-1.1V386h0v-3.3a10.5,10.5,0,0,1,.1,3.6l.5,1.9c-.4,1.9-.7,5.4-.9,5.9.1,4.1.1,9.7.7,12.2a3.1,3.1,0,0,1-.3,1.8,8.7,8.7,0,0,0-.1-1.8c.1,2.3,0,6.9.5,7.4-.2,3-.4-1.6-.4,2.4v-.5c-.7,7.9,1.1,12.9.2,21.7.1-.6.1-.9.2-1-.4,10,.3,20.7-.3,30.6a19.3,19.3,0,0,0,.4,4.8l-.4.6.4,3c.3,4.2-.8,7.2-.3,12.5l.3-.7c-.1,1.9.1,6-.2,5.7a2.2,2.2,0,0,1,.2,1.4h-.2l.3,4.7c-.1,3.6-.7-.6-.8,4.7.1,1.9.6,5.5.7,4.8a4.8,4.8,0,0,1,.3-2.1v1.8c.5.3,1,1.7,1.4-2.7l-.3-3,.2-1v2.6a9.7,9.7,0,0,0-.2-3.5,1.9,1.9,0,0,0,.3-1.3l-.5-3c.2-.3.4,1.4.5-.6s-.4,1.3-.6-1,.5-1.1.3-2.8c.1-.2.2.2.2.8-.1-1.5,0-4-.3-4.8s-.1-5.2.4-5a29.5,29.5,0,0,1-.4-4.1c.6,2.5,0-5.3.7-4.6-.6-1.9-.3-6.9-.6-10.3a1.3,1.3,0,0,1,.1.9c.1-1.9.2-2.4.3-3.7s-.5-3.2-.8-4.7.5,1.4,1,.6-.4-4-.7-3.2a8.1,8.1,0,0,1,.5-2.5c-.6-.3-.1-1.6-.4-3.1s.5-.7.3-3.5c.2-1.3.4,1.2.4,1.2m-1-67.2h0v0m0-5.6v2.4c-.1.2-.2,0-.2-.6s.1-1,.2-1.8M437,385c0-.9,0-1.2.1-1.3v1.5c0,.1,0,.1.1.1s-.2-.1-.2-.3"/></g><path class="f" d="M18.9,346.7c.1-1.5-1.6-4.3,1.3-5.3s12.6,0,17,0c6.1,0,12.1-.5,18.2-.2,2.6.1,5.4-.6,6.8.2a1.6,1.6,0,0,1,.8,2c-.4,1.7.8,64.4.2,91.7-.1,2-.5,2.2-6,3a31.4,31.4,0,0,1-5.4.3l-23.1.3c-3.5,0-7.7-.1-9.4-1.2a1.6,1.6,0,0,1-1-1.5c.4-29.2-.7-56.1.6-89.3"/><path class="g" d="M121.4,432.1c.1-.1-1.6-.3,1.4-.4h41.9c1,.1,1,.1.8.2s.9,4.6.2,6.5c-.1.2-.5.2-5.9.2H120.9c.3-2.1-.8-4,.5-6.4"/><path class="h" d="M224,302.8c0-2.2-1.7-6.3,1.3-7.8s12.6.1,17,0c6.1,0,12.1-.7,18.2-.3,2.6.1,5.4-.8,6.8.3a3,3,0,0,1,.8,2.9c-.4,2.6.8,95.2.1,135.5,0,3-.5,3.3-5.9,4.5a31.2,31.2,0,0,1-5.4.4l-23.1.4c-3.5,0-7.7-.1-9.5-1.7a3,3,0,0,1-.9-2.2c.3-43.2-.7-83,.6-132"/><path class="i" d="M326.5,243.6c.1-3.1-1.6-9,1.3-11.2s12.6.1,17,0c6.1,0,12.1-1.1,18.2-.5,2.6.2,5.4-1.1,6.8.5a5,5,0,0,1,.8,4.1c-.4,3.8.8,136.7.2,194.5-.1,4.4-.5,4.9-6,6.5a18.4,18.4,0,0,1-5.3.6l-23.1.6c-3.5,0-7.8-.2-9.5-2.5a5,5,0,0,1-1-3.1c.4-62-.7-119.2.6-189.5"/><path class="j" d="M429.1,403.5c0-.6-1.7-1.7,1.3-2s12.6,0,17,0c6.1,0,12.1-.2,18.2-.1a48.1,48.1,0,0,1,6.8.1c1,.2.9.4.8.7s.8,24.7.1,35.1c0,.8-.5.9-5.9,1.2H438.9a60.7,60.7,0,0,1-9.5-.5c-.7-.1-.9-.3-.9-.5.3-11.2-.8-21.5.6-34.2"/><path class="k" d="M531.6,72.8C531.7,67,530,56,532.9,52s12.6,0,17,0c6.1-.1,12.1-2.1,18.2-1.1,2.6.4,5.4-2.1,6.8,1.1s.9,5,.8,7.6c-.4,7,.8,256.4.2,364.8-.1,8.2-.5,9-6,12.1a11.1,11.1,0,0,1-5.3,1.2l-23.1.9c-3.6.2-7.8-.2-9.5-4.5a14.7,14.7,0,0,1-1-5.9c.4-116.3-.7-223.4.6-355.4"/></svg>