<?xml version="1.0" encoding="utf-8"?>
<!-- Generator: Adobe Illustrator 26.3.1, SVG Export Plug-In . SVG Version: 6.00 Build 0)  -->
<svg version="1.1" id="Capa_1" xmlns="http://www.w3.org/2000/svg" xmlns:xlink="http://www.w3.org/1999/xlink" x="0px" y="0px"
	 viewBox="0 0 500 632.8" style="enable-background:new 0 0 500 632.8;" xml:space="preserve">
<style type="text/css">
	.st0{fill-rule:evenodd;clip-rule:evenodd;fill:#FFFFFF;}
	.st1{fill-rule:evenodd;clip-rule:evenodd;}
</style>
<g>
	<g id="body_x2F_mono_x2F_Button-Shirt-1">
		<path id="_xD83C__xDFA8_-Background" class="st0" d="M467.5,728.5c3.1,0.3,6.1-1.7,7-4.7c0.7-3.5,3.6-8.1,1.5-11.4
			c4.7-73.8-22.5-205-62.2-267.3c-17.7-29.2-44.7-49.2-74.9-62.9c-6.7-3-18.9-2.4-25.8-4.9c-3.7-1.7-1.6-7.1-4.7-9.2
			c-7.7-5.2-14.7-10.6-27.3-10.6c-6.8-32.9-33.5-38.1-60.5-27.7c-15.4,4.6-26.5,10.7-24.7,34.9c-9.7-1.6-17.6-3.4-22.9,1.6
			c-5.2,4.9-7.9,16.4-11.6,23.2c-3.7,6.2-6.4,4.9-12.8,8.6c-7.4,4.3-20.3,17.3-26.3,23.6c-19,22.8-27.4,45.7-37.2,73.3
			c-23.7,77.6-31.4,159.1-35.3,239.8c6.1,15.2,80.3,9.5,97.2,8.2c28.6-2.7,57.4-2.4,86.1-0.2c72.4,4,145.6,3.4,217.4-7.5
			C456.4,734.2,463.1,733.2,467.5,728.5z"/>
		<path id="_xD83D__xDD8D_-Ink" class="st1" d="M88.8,508l-0.6,2.5c-5.5,23.8-10.7,47.7-14.9,71.8c-4.2,24.7-7.9,49.5-10.7,74.4
			c-1.6,14-2.9,28-4.2,42.1c-0.6,7.1-1.2,14.2-1.7,21.3c-0.2,3.4-0.4,6.8-0.7,10.1c-0.1,1.8-0.1,3.7-0.4,5.6
			c-0.3,1.9-1.1,3.3-2.1,4.8l-0.4,0.7c-1.5,2.2-5.2,2.7-6.6,0c-0.7-1.4-1.5-2.7-1.8-4.2c-0.4-1.7-0.2-3.5-0.1-5.2l0.1-1.9
			c0.1-2.6,0.3-5.1,0.5-7.7c0.4-6.4,0.9-12.8,1.5-19.2c1.1-12.8,2.5-25.6,4-38.4c3.1-25.8,7-51.5,11.8-77.1
			c4.8-25.2,10.1-50.4,16.3-75.3l0.2-0.8c5.9-23.3,12.6-47.1,24.6-68.1c11.5-20.3,27.8-37.8,49.2-47.8c0.4-0.2,0.8,0.4,0.4,0.7
			C113.2,418.4,98.4,466.4,88.8,508z M384.8,579.8c5.9-3,11.2-6.8,15.9-11.6c0.4-0.4,1,0.2,0.6,0.6c-4.5,5.9-9.9,11-15.9,15.3
			c0.4,3.4,0.8,6.7,1.2,10.1l0.2,2.1c1.3,11.2,2.3,22.6,3,33.9c1.5,24,2.4,48,2.8,72c0.1,6.5,0.2,13.1,0.3,19.6
			c0,3.3,0.2,6.6-0.1,9.8c-0.2,2.1-0.3,4.3-1.3,6.2c-0.7,1.4-1.7,2.1-2.8,3l-0.3,0.3c-1.2,1-2.4,0.9-3.6,0l-0.2-0.1
			c-0.9-0.7-1.9-1.2-2.6-2.3c-1-1.5-1.4-3.1-1.6-4.8c-0.3-2.6-0.4-5.2-0.4-7.8l-0.1-5.9c-0.1-4.5-0.1-9-0.2-13.5
			c-0.2-12-0.5-24-0.8-36c-0.6-24-1.2-48-1.6-72c-0.1-6.5-0.1-13.1,0.1-19.6c0.2-6.6,0.4-13.3,1.8-19.7c0.1-0.5,0.8-0.4,0.9,0
			C382.5,565.7,383.9,572.7,384.8,579.8z M281.7,353.1l0.2,1c0.2,1,0.4,1.9,0.6,2.9c7.3-2.3,14.2-0.2,20.6,4c0.8,0,1.6,0.4,2.2,0.9
			c2.6,2.5,4.7,5.5,6.1,8.9s2.9,8.5-0.2,11.3c-0.3,0.3-0.6,0.4-0.9,0.5c1,3.3,1.3,6.6,1.8,10l0.3,2.2c0.4,2.9,0.7,5.7,1.1,8.6
			c0.8,6.4,1.4,12.9,1.9,19.3l0.4,5.4c1.2,14.5,2.6,29.3,0.3,43.8c-0.5,3.4-5.1,3.9-7.3,1.9c-11.2-10.6-23.6-20.6-37.1-28.2
			c-3.7-2.1-6.4-0.3-10,1.5l-7.8,4l0,0l-3.9,2c-3.9,2-7.8,4-11.7,6c-3.4,1.7-6.8,4.3-10.6,2.9c0.1,1.1,0.2,2.3,0.2,3.4l0.1,1.8
			c0.3,4.2,0.5,8.3,0.6,12.5c0.4,9.3,0.8,18.6,1.1,27.9c0.6,18.6,0.9,37.3,1.3,55.9c0.8,37.1,1.8,74.1,1.9,111.2
			c0,10.4-0.1,20.8-0.5,31.2l-0.1,1.9c-0.3,9.7-0.4,19.5-1.9,29.1c-0.2,1.2-2.2,1.2-2.4,0c-1.7-8.9-2-18.1-2.5-27.2l-0.3-4.3
			c-0.5-7.9-0.9-15.8-1.1-23.6c-0.5-18.6-0.9-37.3-0.9-55.9c-0.1-37.1-0.5-74.2-0.4-111.2c0-10.4,0.1-20.8,0.3-31.2v-1.8
			c0.1-4.7,0.1-9.4,0.3-14.1c0.2-3.5,0.1-7,0.7-10.5c-1.2,0.7-2.7,0.9-4-0.1c-3-0.8-5.8-2.9-8.5-4.4c-3.2-1.7-6.3-3.5-9.5-5.3
			c-6.5-3.5-13.1-7-19.7-10.4l-0.2-0.1c-2.7-1.4-6.1-3.8-9.3-3.3c-3.4,0.6-6.8,2.9-9.9,4.4l0,0l-10.6,5.2c-1.1,0.6-2.2,1.1-3.3,1.6
			l0,0v0.2l0,0v0.1c0.4,0.6,0.7,1.3,0.8,2c0.3,4.8-5.9,5.7-8.3,2.1c-0.6-0.9-0.9-2-0.9-3.1c-1-0.7-1.5-2-0.8-3.1
			c0.5-0.7,1-1.2,1.5-1.8c0.5-1.6,1-3.2,1.4-4.5c1.2-4.5,2.5-9,3.8-13.5c2.7-9.3,5.8-18.5,9.1-27.6c1.7-4.6,3.4-9.1,5.2-13.6
			l0.2-0.6c1.6-4,3-8.1,5.1-11.9c1.9-3.3,5-6.6,8.9-7.6c3.5-0.9,7.9,0,11.6,1l2,0.5c0.4,0.1,0.4,0.6,0.1,0.8
			c-3.2,2-7.3,0.6-10.8,1.5s-4.8,4.3-6,7.4l-0.9,2.2c-3,7.5-5.9,15-8.5,22.7c-2.8,8.2-5.4,16.4-7.8,24.7c-1.2,4.3-2.4,8.5-3.5,12.8
			l10.1-4.8l0.3-0.2c3.3-1.6,6.6-3.5,10.2-4c3.9-0.6,7.1,1,10.4,2.9l1.3,0.8c6.6,3.8,13,7.9,19.3,12.1c3.4,2.3,6.9,4.7,10.2,7.2
			c1.3,1,2.9,2,4.3,3.1l0,0l-0.1-0.3c-6.8-14.9-13.6-29.7-19.9-44.8c-3.3-7.9-6.5-15.8-9.4-23.8l-0.1-0.1c-0.9-2.5-3.3-6.6-2-9.2
			c0.5-0.9,1.6-1.9,2.4-0.8c0.2,0.2,0,0.6-0.3,0.4h-0.1c-0.6-0.2,0.2,2.2,0.2,2.2l0.2,0.3c0.3,0.7,0.7,1.3,1.1,2
			c0.8,1.6,1.6,3.2,2.4,4.7c0.5,1.1,1,2.1,1.6,3.2l3.1,6.4c3.2,6.5,6.3,13.2,9.5,19.7c6.3,12.9,12.7,25.9,19.6,38.6
			c0.5,0.9,0.6,1.9,0.4,2.7c0.2,0.6,0.3,1.2,0.5,1.7c2.1-2.6,6.1-3.9,8.9-5.3c4.2-2.2,8.4-4.3,12.7-6.5c4.1-2.1,8.2-4.4,12.5-6.4
			c4.2-2,8.4-2.6,12.8-0.7c3.4,1.5,6.5,3.6,9.6,5.6l2.6,1.7c3.2,2.1,6.2,4.3,9.3,6.6c4.6,3.5,9.1,7.1,13.4,10.9
			c0.9-9.7,0.7-19.4,0.3-29.1l-0.3-7.3c-0.3-7.4-0.5-14.7-0.5-22.1v-0.6c0-6.6-0.6-13.7,0.7-20.2c-0.3-0.1-0.7-0.3-1-0.5
			c-2.8-2.4-2-7.1-3.4-10.4c-0.6-1.5-1.5-2.9-2.5-4.1c-0.9-1.1-1.8-1.9-2-3.1c-4.3-4.5-11.1-7-17.3-6.7l0,0l1.1,5.4
			c0.3,1.2,0.8,3.1,1.2,5.2c0.7-1,1.4-1.9,2.2-2.9c0.2-0.3,0.6,0,0.6,0.3c-0.5,2.2-1.3,4.4-2.2,6.5c0.2,3-0.4,5.6-2.9,6.4
			c-1.3,2.8-2.6,5.5-4.1,8.2c-3.8,7.1-8.3,13.9-13.1,20.4c-4.7,6.4-9.7,12.5-14.9,18.5c-2.6,3-5.3,5.9-8.1,8.7c-1.3,1.4-2.7,2.7-4,4
			l-0.2,0.1c-0.6,0.6-1.3,1.3-2,1.7l-0.2,0.1c-0.5,0.3-1.1,0.4-1.7,0.4c-1-0.3-1.2-0.3-0.8,0l0.1,0.1c-2.3,0.9-3.7-2-2.9-3.7
			c0.1-0.2,0.1-1.4,0.4-1.9c0.4-0.8,1.2-1.5,1.9-2.1l1.1-1.1c1.1-1.1,2.2-2.1,3.3-3.2c2.7-2.7,5.3-5.5,7.9-8.3
			c5.3-5.7,10.3-11.7,15-17.9c4.6-6.1,9.1-12.3,13.5-18.5l2.1-3l0,0l2.1-3c-1-0.7-1.7-1.8-1.7-3.1c-0.2-1,0.1-2,0.8-2.7l0,0v-0.5
			c0.1-1.2,0-2.5,0-3.8l0,0v-9c0-2.8,0-5.6,0.1-8.4v-0.2c0-1.9-0.2-4.2,1.1-5.8c0.1-0.1,0.2-0.1,0.3,0
			C280.9,346.7,281.1,350.6,281.7,353.1z M216.2,726.7c0.7,0.7,1.2,1.6,1.5,2.5l0,0l0.1,0.3c0.3,1,0.3,2,0,3
			c-0.3,0.9-0.7,1.8-1.4,2.5s-1.5,1.2-2.5,1.4c-1,0.3-2,0.3-3,0l-0.3-0.1l-0.2-0.1c-0.9-0.3-1.7-0.8-2.3-1.4
			c-0.7-0.7-1.2-1.6-1.5-2.5c-0.5-2,0-4.1,1.5-5.6c1.4-1.4,3.6-2,5.6-1.5C214.7,725.5,215.5,726,216.2,726.7z M106.9,541.2
			c0.6-3,1.5-6,2.8-8.7c0.1-0.2,0.4-0.1,0.5,0.1c1.2,5.6,0.7,11.7,0.5,17.4c-0.2,6.1,0.1,12.3,0,18.4c-0.2,9.3-0.7,18.5-1.2,27.8
			l-0.5,8.5c-1.5,24.4-2.6,48.9-4.4,73.3c-1,13.8-1.9,27.5-2.6,41.3c-0.1,2.1-1.5,4.7-3.8,5c-1,0.1-1.8,0.2-2.8,0
			c-2.2-0.4-3.8-2.9-3.8-5c0.3-24.7,0.5-49.3,2.1-73.9c1.7-24.5,3.6-49.1,7.4-73.4c1-6.8,2.7-13.3,4-20c0.3-1.6,0.6-3.2,0.8-4.8
			c-3.4-5.9-6.8-11.8-9.9-17.9c-0.2-0.4,0.3-0.9,0.6-0.5C100.2,532.8,103.6,537,106.9,541.2z M333.3,380.6c5.9,1.1,11.7,3,17.2,5.3
			c10.9,4.6,21.1,10.7,30.4,18.1c20,15.8,35.2,36.8,46.8,59.3c12.5,24.3,21.2,50.5,28.6,76.7c7.8,27.8,13.8,56.2,17.8,84.8
			c2.2,16.1,3.8,32.3,4.8,48.5c0.5,8,0.8,16,0.9,24c0.1,4.2,0.1,8.4,0.1,12.5c0,2.1,0.1,4.2-0.1,6.3c-0.2,1.9-1.2,3.3-2.4,4.8
			l-0.4,0.5c-1,1.4-2.9,1.5-3.9,0c-0.9-1.3-2-2.6-2.5-4.1c-0.4-1.6-0.1-3.7-0.1-5.4c0-3.7,0-7.3-0.1-11c-0.1-7.1-0.3-14.3-0.6-21.4
			c-0.6-13.9-1.8-27.8-3.3-41.7c-3.2-28-8.1-55.8-15-83.1C439.2,505.6,422.2,453.3,385,417c-9.3-9.1-19.9-17-31.4-23.2
			c-5.9-3.1-12-5.8-18.2-8.1l-0.5-0.2c-6.2-2.3-12.5-4.9-19.1-5.7c-0.5-0.1-0.5-0.8,0-0.7C321.6,379.6,327.4,379.5,333.3,380.6z
			 M217.1,680.6c0.7,0.6,1.1,1.3,1.5,2.1s0.4,1.2,0.5,2l0.1,0.5c0.1,1.2-0.7,2.9-1.5,3.6c-1,0.9-2.3,1.6-3.6,1.5c-0.1,0-0.2,0-0.3,0
			s-0.2,0-0.4,0s-0.3,0-0.5,0.1l0,0h-0.2h0.1h-0.2c-0.5,0-1.1,0-1.6-0.2c-1.1-0.3-1.8-0.9-2.7-1.6l0,0l-0.9-1.2
			c-0.4-0.7-0.7-1.4-0.7-2.2c-0.2-1.2-0.1-2.7,0.7-3.7c0.3-0.4,0.6-0.8,1-1.3l0,0l1.2-0.9c0.9-0.6,2.1-0.8,3.1-0.8
			C214.3,678.8,215.8,679.5,217.1,680.6z M217.7,624.7l-0.1,0.1c0,0.1-0.1,0.1-0.1,0.2l-0.1,0.2c-0.7,1-1.6,1.8-2.7,2.2
			c-1.3,0.5-2.5,0.6-3.9,0.3c-0.9-0.2-1.7-0.7-2.4-1.3l0,0l-0.3-0.2c-1-1-1.8-2.7-1.7-4.2s0.5-3.2,1.7-4.2c0.5-0.4,1-0.8,1.5-1.1
			c2.2-1.2,5.3-1,7.1,0.9C218.6,619.6,218.9,622.3,217.7,624.7z M219.5,559c0.2,0.3,0.6,1.1,0.7,1.7c0.3,1.3,0.3,1.9,0.1,2.9
			l-0.1,0.8c-0.3,0.9-0.7,1.8-1.4,2.5s-1.5,1.2-2.5,1.4c-1.6,0.4-3.4,0.1-4.7-0.8c-0.4-0.2-0.7-0.4-1-0.7c-0.5-0.3-0.8-0.6-1.1-1.1
			c-0.2-0.2-0.3-0.4-0.5-0.7l0,0l-0.6-1.4l-0.2-1.6l0.2-1.6c0.2-0.8,0.5-1.5,1.1-2.1c0.3-0.5,0.6-0.8,1.1-1.1
			c0.4-0.4,0.8-0.6,1.3-0.8c0.5-0.3,1-0.4,1.5-0.4c0.8-0.2,1.6-0.1,2.4,0.1C217.4,556.6,218.7,557.6,219.5,559z M163.8,512.4
			c5.8,0.3,11.6,0.8,17.3,1.6c5.6,0.7,11.6,1.3,16.9,3.1c0.8,0.3,0.6,1.3-0.2,1.4c-5.7,0.6-11.6,0.1-17.3,0
			c-5.6-0.1-11.2-0.1-16.8-0.1s-11.2,0.2-16.8,0.4c-2.9,0.1-5.8,0.3-8.7,0.5c-2.7,0.2-5.7,1-8.1-0.6c-1.6-1.1-2.3-3.6-0.6-5
			c2.3-2,4.8-1.7,7.7-1.8h1.7c2.3,0,4.6,0,6.9,0C151.9,511.9,157.9,512.1,163.8,512.4z M215.8,493.7c0.8,0,1.5,0.2,2.1,0.5
			c0.7,0.2,1.4,0.7,1.9,1.2c0.6,0.5,1,1.2,1.2,1.9c0.4,0.7,0.6,1.5,0.5,2.3l0,0l-0.2,1.6c-0.3,1-0.8,1.9-1.6,2.7l0,0l-1.2,0.9
			c-0.9,0.5-2,0.8-3,0.8h-0.2c-0.8,0-1.5-0.2-2.1-0.5c-0.7-0.2-1.4-0.7-1.9-1.2c-0.6-0.5-1-1.2-1.2-1.9c-0.4-0.7-0.6-1.5-0.5-2.3
			l0,0l0.2-1.6c0.3-1,0.8-1.9,1.6-2.7l1.2-0.9l0.2-0.1c0.9-0.5,1.8-0.7,2.9-0.7L215.8,493.7L215.8,493.7z M201.7,367
			c-0.4,5-1.3,13.9-7.7,14.1c-1.4,0.1-2.8-0.8-3.5-2c-1.6-2.5-0.7-4.7,0.5-7l0.4-0.7c0.9-1.7,1.5-3.7,1.9-5.6
			c1-4.2,1.2-8.3,1.3-12.5c-0.3-1.5,2-3.2,3.3-1.3C200.9,356.3,202.1,361.9,201.7,367z"/>
	</g>
	<g id="head_x2F_mono_x2F_Flat-Top">
		<path id="_xD83C__xDFA8_-Background_00000160886053491019773900000006490519304698144693_" class="st0" d="M316.3,152.7
			c8.9,12.6,11.5,43.2,8,91.7c9.9,4.5,14.8,12.9,14.7,25.1c-0.1,12.3-7.6,19.4-22.7,21.4c-8.9,18.8-15.8,30.9-20.7,36.1
			c-7.2,7.9-38.8,30.9-81,30.9s-68.6-20.9-73.5-50s16.8-119.8,20.8-143.5c3.4-20.1,43.7-39.7,75-39.7S303,133.8,316.3,152.7z"/>
		<path id="_xD83D__xDD8D_-Ink_00000124844111597937584610000017477623967791510915_" class="st1" d="M157.5,213.9l-1.1,7.3
			c-2.5,17-5.2,34.1-7.8,51.1l-0.1,0.5c-2.6,16.7-6.5,35,3.3,50.1c8.4,12.8,23,21.4,37.3,25.9c8.4,2.6,17.1,3.7,25.9,3.5
			c4.4-0.1,8.9-0.5,13.3-1.3c2.3-0.4,4.5-1.1,6.9-1.4s4.1,0.1,6.3,1.1c1.2,0.5,1.4,2.2,0.8,3.2c-2.2,3.9-6,5-10.1,5.9l-0.5,0.1
			c-4.2,0.9-8.4,1.5-12.7,1.8c-8.5,0.6-17.2-0.1-25.5-1.8c-16.6-3.4-33-11.1-44.8-23.4c-6.1-6.4-10.8-14.4-12.6-23.1
			c-1.8-9.3-1-18.7,0.5-28l0.2-1.1c2.9-18,6.4-35.9,9.9-53.8l1.3-6.7c4.4-22.8,8.5-40.2,15.3-62.4c0.1-0.4,0.7-0.3,0.7,0.1
			C163,180.8,160.3,194.6,157.5,213.9z M322.9,131.5c2.8,7.1,4.1,14.6,5.1,22.1l0.2,1.3l0,0l4.3,31.8c1.5,11.2,3.5,22.6,3.8,33.9
			c0.3,9.2-0.4,18.6-4.3,27c5.1,3.5,7.8,9.7,8.6,16c0.6,4.4,0.3,8.8-0.3,13.2c-0.6,4.4-1.5,8.9-4.1,12.6c-2.5,3.6-6.1,6.2-10.5,6.9
			c-2.1,0.4-4.5,0.4-6.4-0.7c-1.3-0.7-2-1.7-2.5-2.9c-2.2,11.3-6.9,21.6-14.4,30.5c-3.8,4.5-8.2,8.3-12.9,11.8l-0.2,0.1
			c-2.3,1.7-5.1,3.1-8.1,2.3c-2.7-0.8-4.3-3.2-3.4-5.9c0.3-1.1,1.2-1.7,2.2-1.8c0,0,0,0,0.1,0l0.4-0.1c0.3-0.1,0.7-0.2,1.1-0.3
			c0.8-0.2,1.4-0.5,2-0.9c2-1.2,3.9-2.7,5.7-4.2c3.7-3,7.2-6.2,10.4-9.8c6.3-7.1,12.1-14.7,16.2-23.2c0-0.1,0.1-0.1,0.1-0.2
			s0-0.1-0.1-0.2v-0.1c-0.4-1.4,0.9-3,2.3-2.9c1.1,0.1,2.5-0.5,3.6-0.6s2.1,0,3.1-0.4c2.3-0.8,3.7-2.8,4.7-5
			c2.3-5.1,2.8-11.7,2.6-17.2c-0.2-5-1.9-10.6-6.3-13.6c-4.3-2.9-9.9-3.7-13.7,0.4c-0.2,0.2-0.6-0.1-0.4-0.3
			c0.1-0.3,0.3-0.5,0.4-0.7l0,0l-0.2,0.3c-0.2,0.3-0.3,0.5-0.5,0.8c-1.6,2.2-4.7,1.9-5.7-0.7c-1.3-3.6-0.3-7.4,0-11.2
			c0.3-4.2,0.3-8.3,0.1-12.5v-0.4c-0.2-6.1-0.3-13.5-3.1-18.9c-2.7-5.2-9.4-2.8-13.4-6.6c-0.9-0.8-1.8-2.1-2.1-3.3
			c-0.5-2.1,0.8-3.9,1.7-5.8c1.5-3.3,2.6-6.7,3.5-10.1l0.1-0.2c0.9-3.2,1.5-1.4,1.9-4.9c0.3-3.3,0.4-6.8-2.8-8.7
			c-2.8-1.7-6.8-2.2-9.9-3c-3.9-1-7.8-1.9-11.7-2.7c-15.5-3.3-31.2-5.4-47-6.4c-16.9-1-40-1.1-57-0.3c0,0.2,0,0.3,0,0.5
			c-0.1,5.4-6.9,5.4-9.2,1.6c-1.1-1.8-1.1-3.8-1.4-5.8c-0.3-2.6-0.7-5.1-1.3-7.6c-1.1-4.8-2.7-17.6-4.8-22l-0.1-0.1
			c-1.2-2.7,0.4-5.3,3.3-5.6l4.3-0.4v-0.1c-0.1-1.1,0.3-2.3,1.1-3.1c1.7-1.5,3.5-1.9,5.7-2h0.4c2.9-0.1,5.8-0.1,8.7-0.2h0.3
			c5.9-0.1,17.5-0.2,23.2-0.3l4.3-0.1c18.2-0.4,72.4-1.7,83.2-1.9h1.1c8.4-0.1,17.3,1.1,24.5,5.8
			C315.9,118.3,320.1,124.6,322.9,131.5z M327.3,265.6c-4.6,0.6-9,4.5-10,9v0.2c-1.6,5.9-11.4,2.1-8.1-3.6
			c3.8-6.6,11.4-9.8,18.5-6.4C328,265,327.7,265.5,327.3,265.6z"/>
	</g>
	<g id="face_x2F_Explaining">
		<path id="_xD83D__xDD8D_-Ink_00000098200343867830984490000014493051443799069868_" class="st1" d="M249,308.4
			c-6.4,7.9-17.3,10.6-27.1,10.1c-6.1-0.3-12.1-1.6-18-3l-1.4-0.3c-4.6-1.2-12.8-3.1-12.7-9.1c0-1.3,1.1-2.2,2.3-2.3
			c1.7-0.2,3,0.3,4.4,1l0.4,0.2l0.6,0.3l0.2,0.1c-0.1-0.6,0-1.2,0.2-1.9l0.1-0.5c0.8-3.3,0.9-6.7,1.4-10c0.2-1.7,0.5-3.4,0.7-5.1
			c0.1-0.8,0.2-1.5,0.3-2.2c0-0.3,0.1-0.6,0.1-0.9c-4.6-0.5-9.8-1.2-13.7-3.6c-0.4-0.2-0.2-0.8,0.2-0.8c2.8-0.1,5.7,0.5,8.5,0.5
			c2.9,0.1,5.8-0.1,8.6-0.4c6.1-0.8,12-2.9,18-4.1c9.4-2,20.7-1.4,27.5,6.4C256,290,254.9,301,249,308.4z M217.6,310.4
			c8.1,1.1,17.6,0.6,23.8-5.5c1.6-1.6-19.4-8.9-20.8-0.9c-3.2-5.8-14.4-5.3-15.4,3.8C209.3,308.9,213.5,309.9,217.6,310.4z
			 M216.9,284.2c-4,0.5-8.1,0.8-12.2,0.7c0.2,0.9,0.4,3,0.5,4c1.1-0.2,6.8,0.1,7.7,0.2l2.4,0.3l2.4,0.2c3.4,0.3,6.8,0.7,10.2,1
			l1.5,0.1c5.4,0.5,10.9,1.1,16.3,1.9c-0.4-2.3-1.6-4.4-3.7-6c-5.7-4.5-13.5-4-20.5-3l-1.1,0.2l-2.8,0.4L216.9,284.2z M202.6,240.6
			c-21.1,3.6-10.2,40,16.8,20c3.2-2.6-0.7-8.3-4.1-6.1c-3.7,2.9-11.3,9.2-16.6,3.7c-4.5-6.3,1.9-12.1,6-14.7
			C205.8,242.8,205,240.2,202.6,240.6z M197.5,254.3v-0.1l-0.2-0.1c-0.3-0.1-0.3-0.1-0.2,0h0.1l0.2,0.1
			C197.4,254.2,197.4,254.2,197.5,254.3z M250.5,231.8c0,3.6-2.4,10.8-7.1,10.8c-4.6,0-5.6-7.6-5.4-11.1v-0.2
			c0.3-5.6,2.2-11.1,5.4-11.1c5,0,7.1,8,7.1,11.5V231.8L250.5,231.8z M176.2,230.7c0,3.6,2.4,10.8,7.1,10.8c4.7,0,5.6-8,5.4-11.4
			v-0.4c-0.4-5.5-2.3-10.6-5.4-10.6C178.3,219.1,176.2,227.1,176.2,230.7L176.2,230.7L176.2,230.7z M258.9,202.5
			c2.8,3.2,4.8,7.1,5.6,11.3c0.4,2.3,0.1,6-2.9,6.1c-0.5,0-1-0.5-0.9-0.9c0.1-1.7-0.8-3.2-1.7-4.6l-0.4-0.6l-0.5-0.8
			c-1.4-2-3-4-5-5.5c-4.6-3.4-9.3-2.2-14.5-2.5c-2.2-0.1-3.2-2.2-2.3-4c1.9-4.2,7.4-5.4,11.5-4.8C252,196.9,255.9,199.1,258.9,202.5
			z M192.9,207.1c-0.3,0.3-0.9,0-0.8-0.5c0.9-2.2-5.1-2.3-6.3-2.2h-0.3c-2,0.2-4,0.8-5.7,1.7c-1.8,0.9-3.4,2.1-4.7,3.6
			c-1.6,1.9-2.2,4.2-4.3,5.7c-2,1.4-5.5,0.1-5.9-2.4c-1.4-8,9.6-13.6,16.1-14.1c3.3-0.3,7,0.4,9.8,2.3
			C192.7,202.5,194.8,205.1,192.9,207.1z"/>
	</g>
</g>
</svg>
