<?xml version="1.0" encoding="utf-8"?>
<!-- Generator: Adobe Illustrator 26.3.1, SVG Export Plug-In . SVG Version: 6.00 Build 0)  -->
<svg version="1.1" id="Capa_1" xmlns="http://www.w3.org/2000/svg" xmlns:xlink="http://www.w3.org/1999/xlink" x="0px" y="0px"
	 viewBox="0 0 500 632.8" style="enable-background:new 0 0 500 632.8;" xml:space="preserve">
<style type="text/css">
	.st0{fill-rule:evenodd;clip-rule:evenodd;fill:#FFFFFF;}
	.st1{fill-rule:evenodd;clip-rule:evenodd;}
</style>
<g>
	<g id="body_x2F_mono_x2F_Tee-2">
		<path id="_xD83C__xDFA8_-Background" class="st0" d="M453.4,589.9l-4.4,88l-369.6-0.6l0.5-1.8c8.2-29.2,12.3-50.5,12.3-63.9v-0.4
			c0.1-13.5,3-39.2,8.8-77.1l0.4-2.4L448.5,504L453.4,589.9z M280.1,325.9c3.3,10.9,4.8,25,12.7,33.3c7.8,8.1,21.5,8.2,44.4,13.2
			l1.4,0.3c15.8,3.5,24.8,39.8,27,108.8c-169,2.6-253.6-0.4-253.6-8.9c0-12.8,25.9-68,33.8-81.5c7.9-13.5,35.5-8.4,48.5-14
			c12.9-5.7,16.9-42.5,19.3-51.1c1.1-3.9,15.3-9.9,29.4-10.6C260.4,314.4,278.2,319.9,280.1,325.9z"/>
		<path id="_xD83D__xDD8D_-Ink" class="st1" d="M213.2,340l0.1,1.3c0.1,1.6,0.1,3.2,0,4.8c-0.3,4-0.9,8.2-1.9,12.1
			s-2.3,7.6-3.9,11.4l-0.1,0.2c-1.6,3.8-3.2,8.4-7.4,9.9c-0.9,0.3-1.8,0.3-2.7,0c3.7,15.8,16.9,28.9,32.4,33.7
			c21.1,6.6,45.8,0.4,62.7-13.5c4.6-3.8,8.4-8.3,11.2-13.5c2.7-4.9,5.3-9.7,9.3-13.5c-0.7-1.3-0.7-3,0.6-4.3
			c0.4-0.4,0.8-0.8,1.3-1.2l0,0c-0.2,0-0.2-0.3,0-0.3l0,0l0.7-0.1l0,0l0.2-0.1c2.8-1.9,6.2-2.6,9.1-0.9c3.5,0.1,7,0.6,10.5,1.2
			c7,1.2,13.7,3.5,20.2,6.5c13.1,6,25,14.4,35.9,23.8c20.5,17.8,37.2,40.1,48.8,64.6c3.3,7,6.2,14.1,8.7,21.4s5.3,15.1,5.9,22.8
			c0.2,2.3-1.3,3.6-3.1,3.9c-0.5,0.8-1.2,1.5-1.9,2.1l-0.4,0.3c1.2,4,1.7,8.3,2.5,12.3l0.3,1.7c0.8,4.6,1.5,9.3,2.2,14l0.2,1.2
			c1.6,10.4,2.9,20.9,3.4,31.4c1.2,22,0.6,43.9-1.6,65.8c-0.6,6.3-1.4,12.7-2.3,19l-0.1,0.7c-0.8,5.9-1.2,12.2-2.8,17.9
			c-1.3,4.8-9.4,4-9-1.2c0.4-5.5,1.8-10.8,2.6-16.3c0.7-5.3,1.4-10.6,1.9-15.9c1.2-10.8,2-21.6,2.5-32.4c1.1-21.6,1-43.3,0.5-64.9
			c-0.1-5-0.4-9.9-0.8-14.8l-0.2-3c-0.2-3.1-0.5-6.2-0.7-9.3c-0.1-1.6-0.3-3.2-0.4-4.7c-2,1.5-4.2,2.7-6.4,3.7
			c-5.7,2.6-11.8,4.5-17.9,6.2l-1.4,0.4c-6.5,1.9-13.1,3.6-19.8,5c-3.3,0.7-6.7,1.4-10,2c-2.1,0.4-4.6,1.2-7,1.4v2.8v1.5
			c0,2.5-0.1,5-0.2,7.5l-0.1,3c0,0.3,0,0.7,0,1v1.1c0.4,3.1,0.7,6.2,1.1,9.4c1.1,10,2,20,2.3,30.1c0.6,19.8,0.1,39.5-1.2,59.2
			c-0.4,5.6-0.9,11.1-1.4,16.7l-0.2,1.8c-0.5,5-1.2,10.6-4,14.7c-1.2,1.8-3.5,1.4-4.4-0.3c-3.2-0.7-6.7-0.4-10-0.3h-0.7
			c-4.1,0.2-8.3,0.3-12.4,0.4c-8.5,0.2-17.1,0.2-25.6,0.2c-17.1,0-34.2-0.3-51.3-0.5l-11.4-0.1c-30.4-0.4-60.8-0.9-91.2-1.3
			c-9.7-0.1-19.4-0.2-29-0.3l0,0l-21.3-0.2c-1.6,0-2.8-0.2-4-0.7c-0.1,0.2-0.2,0.4-0.3,0.5c-1.1,2-3.9,2.7-5.9,1.5
			c-1.1-0.6-1.7-1.6-1.9-2.6l0,0c-0.7-3.5,0.5-7.3,1.1-10.8c0.6-3.4,1.1-6.9,1.6-10.3c0.9-6.8,1.8-13.7,2.6-20.5
			c1.6-13.9,3.2-27.7,4.3-41.6c1.2-13.8,2.1-27.7,3-41.5c-2.8,0-5.6-0.3-8.3-0.7c-1.7,0.1-3.3-0.5-4.9-0.9l-0.5-0.1l-0.5-0.1
			l-0.7-0.2c-1.1-0.3-2.2-0.6-3.3-0.9c-0.1,0-0.1,0-0.2-0.1c-1.7-0.5-3.4-1-5.1-1.5l-0.2-0.1l0,0l-0.2-0.1
			c1.3,15.5,0.7,31.1-0.4,46.6l-0.1,0.9c-1.2,17.4-2.1,34.9-6.3,51.9c-1.2,4.7-2.5,9.4-4.1,14l-0.3,1c-0.6,1.9-1.2,3.9-1.7,5.8
			c-0.3,1.2-0.7,2.4-1,3.6l-0.2,0.5c-0.1,0.2-0.1,0.3-0.2,0.5c-0.2,0.4-0.3,0.8-0.5,1.2c-0.1,0.5-0.2,1-0.5,1.4
			c-1.3,2.2-4.2,2.6-6.3,1.5c-2.6-1.4-3.6-4.5-2.9-7.2c0.6-2.4,1.6-4.7,2.4-7c0.9-2.7,1.6-5.4,2.4-8.1l0.3-1.1
			c1.3-4.6,2.5-9.3,3.5-14c4.2-20.6,4.5-41.8,7.2-62.5c1.3-10.1,3.1-20.1,5.6-30c-5.3-1.7-10.5-3.5-15.7-5.4c-2.8-1-5-3.9-4-7
			c4.6-14.3,9.4-28.4,14-42.7c4.4-13.5,8.6-27,13.2-40.4c8.3-24.3,20.9-47.2,39.7-65.6c10.3-10.2,48.1-19.3,49.8-17.4
			c0.6,0.3,1.2,0.8,1.6,1.5c0.1,0.2-0.1,0.4-0.3,0.3c-0.1-0.1-0.2-0.1-0.3-0.2c0.1,0.3,0.2,0.6,0.2,0.9c0.8-1,1.3-2.4,1.9-3.4
			c0.8-1.5,1.7-3,2.4-4.5c1.6-3.1,3-6.3,4.3-9.5c1.3-3.1,2.4-6.3,3.6-9.5c0.6-1.6,1.2-3.2,1.8-4.8c0.4-1.1,0.6-2.2,1.7-2.7
			c0.1,0,0.1,0,0.2,0C213.1,337.6,213.1,338.8,213.2,340z M283.8,337.2c1.4,3.7,3.1,7.2,5.1,10.6c3.7,6.2,9,12.2,15.6,15.5
			c6.3,2,1.4,12.4-4,8.5c-0.9-0.7-1.9-1.3-2.8-2c-6.5-5-12.1-10.8-15.7-18.4c-3.5-7.3-5.9-17.8-2.2-25.4c0.1-0.2,0.3-0.1,0.4,0
			C281.7,329.7,282.5,333.5,283.8,337.2z"/>
	</g>
</g>
<g id="head_x2F_mono_x2F_Short-2">
	<path id="_xD83C__xDFA8_-Background_00000070817874319747386810000012944393442467040399_" class="st0" d="M162,201.4
		c-17.2,44.9-7.4,123.1,42.5,142.6c23.2,6.8,48.3-3.2,66.9-17.1c12-9.2,20.8-20.7,27.7-34c1.5-2.9,3.1-5.9,5.4-8.2
		c3-3.1,7.2-3.7,11.2-4.7c10,0.5,17.5-0.4,18.3-12.2c5.5-7.3,1-18.6-8.3-19.1c-6.7-15.3-14.2-30.4-21.7-45.3
		c-3.5-52.4-71-59.5-110-42.5c-1.8-4-7.7-5.2-11.2-2.6c-4.1-1.3-8.2,2.5-7.9,6.7c-2.5,5.1-4.9,10.2-7.4,15.4
		C164.7,184.2,156.4,197.4,162,201.4L162,201.4z"/>
	<path id="_xD83D__xDD8D_-Ink_00000050651772157347581470000005874731344168479389_" class="st1" d="M332,192.6
		c2.2,9,3.3,18.4,2.7,27.7c-0.3,4.5-1,9-2.1,13.4c-0.8,3-1.9,6.2-3.5,9c1.2,0.6,2.3,1.4,3.2,2.2c9.2,8.1,8.2,23.2,0.2,31.7
		c-5.9,6.1-15.2,7.4-23.3,6.9c-0.3,0-0.5-0.1-0.8-0.1c-0.2,0.6-0.4,1.2-0.7,1.8c-0.8,2-1.8,4-2.7,5.9c-1.6,3.5-3.5,6.8-5.4,10.1
		l-1,1.7c-3.7,6.4-7.7,13.7-13.7,18.1c-2.8,2.1-7.1,4-10.5,2.4c-2-0.9-3.4-3.1-2.8-5.4s2.6-3.3,4.6-3.8c6.1-1.5,9.7-8.4,13.2-13.2
		l0.3-0.4c3-4,6.2-7.9,9.5-11.6c1.1-1.3,2.3-2.5,3.5-3.7l1.8-1.8c0.5-0.5,1.1-1,1.6-1.5c-0.1-0.2-0.3-0.4-0.4-0.6
		c-0.7-1.5-0.7-2.5,0-4c0.6-1.3,2.1-1.9,3.4-1.9c6.7-0.3,14.2,0.3,18.8-5.6c3.1-4,4.1-9.5,2.7-14.3c-1.5-5.2-6.2-8.5-11.3-9.6
		c-5.7-1.2-11.1,0.1-16.1,3c-0.3,0.2-0.5-0.1-0.4-0.4c0.5-1.2,1.1-2.2,1.9-3.2l-0.4-0.3v0.1c-0.1,0.1-0.3,0.2-0.4,0.2
		c-3.6,0.6-6.9,1.4-9.9,3.5c-0.3,0.2-0.7,0.5-1,0.7c-1.6,1.3-4.6,0.6-4.5-1.9c0.3-7.5,1.7-14.9,2.4-22.4c0.7-7.7,0.8-15.4,0.6-23.1
		V202c-0.1-2.7,0.1-5.9-1.9-8c-1.7-1.7-16.5,0-22.6-3.2c-3.1-1.6-2.4-5.5,0-7.3c3.7-2.7,6.7-11.3,2.1-15.8c-4.3-4.2-11.5-6-17.3-6.9
		l-0.6-0.1c-14.1-2-28.6,1.1-42.6,2.4c-4,0.4-8,0.6-11.9,0.6h-0.5c-3.8,0-7.8-0.1-11.1-2c-1.9-0.2-3.6-0.7-5.4-1.4
		c-7.9,11.8-13.5,25.4-16.8,39.3c-3.4,14.4-3.9,29.3-3.6,44c0.7,30.1,4.1,67.4,31.5,86c7.2,4.8,15.1,7.5,23.8,7.8
		c4.9,0.1,9.8-0.4,14.6-1.5c4.9-1.1,9.6-3.1,14.5-3.9c4.1-0.6,6.6,4.4,2.9,6.9c-3.6,2.4-8,3.7-12.3,4.7l-1.1,0.3
		c-4.7,1.2-9.4,1.9-14.2,2.2c-9.1,0.6-18.1-0.9-26.4-4.5c-14.5-6.2-26.1-19.3-32.6-33.5c-8.1-17.7-10-37.3-10.6-56.6v-0.9
		c-0.4-16,0-32.1,3.2-47.8c1.8-8.8,4.5-17.3,8.8-25.2c3.9-7.3,9.7-13.4,16.6-18c-0.5-0.2-0.9-0.4-1.4-0.5c-0.4,0.5-0.8,1-1.2,1.5
		l-0.8,1c-0.5,0.7-1.7,0.6-2.3,0s-0.7-1.7,0-2.3c0.6-0.5,1.3-1.1,1.9-1.6c-1.4-1.5-1.6-3.8,0-5.5c22.6-25,59.2-35.1,91.7-27.6
		C299.1,132.9,323.9,160,332,192.6z M324.1,260.6c-0.7-4.8-7.6-0.3-9.6,0.6l-0.6,0.3c-2.6,1.2-5.3,2.2-7.8,3.6l-0.1,0.1
		c-4.6,2.4-7.2-5.7-2.5-6.4h0.1c4.1-0.6,22.7-7.5,21.1,1.8C324.6,260.9,324.2,260.9,324.1,260.6z"/>
</g>
<g id="face_x2F_Tired">
	<path id="_xD83D__xDD8D_-Ink_00000037660746787129808360000002064240619123965375_" class="st1" d="M249.5,208.4
		c3.6,0.9,7.2,1.7,10.8,2.4c3.5,0.6,6.9,1.2,10.4,1.6c1.7,0.2,3.4,0.4,5.2,0.6c1.7,0.2,3,0.9,4.5,1.2c0.2,0,0.2,0.3,0,0.4
		c-1.4,0.5-2.3,1.3-3.8,1.7c-1.9,0.5-3.8,0.8-5.7,1c-3.6,0.5-7.3,0.8-10.9,0.8c-3.7,0-7.4-0.1-11.1-0.5h-0.3
		c-3.6-0.3-8.3-0.3-11.4-2c-2-1.1-3.4-3.2-3-5.6c0.4-2.1,2.4-4.3,4.6-4.3C242.5,205.8,246,207.5,249.5,208.4z M204.6,218.8
		c-3.8,1.6-8,1.2-11.9,0.4c-8.4-1.6-15.5-5.6-22.1-10.8c-0.3-0.3-0.1-1,0.3-0.8c5.6,1.4,11.3,1.6,17,1.7h3.2c2.2,0,4.3,0,6.5-0.2
		c2.7-0.3,2.4-1.2,4.6-2.8c2.2-1.7,5.1-1.1,6.9,0.9C212.9,211.6,208.9,217,204.6,218.8z"/>
</g>
<g id="face_x2F_Old">
	<path id="_xD83D__xDD8D_-Ink_00000085214542895963890350000012934477448966411422_" class="st1" d="M207.9,295.5
		c-0.6-0.7-0.9-1.6-0.9-2.4c0-0.7,0.3-1.4,0.9-2c2.3-2.1,5.4-1.9,8.5-1.7c1.2,0.1,2.3,0.1,3.4,0.1c1.5-0.1,3-0.3,4.5-0.5
		c0.5-0.1,1-0.1,1.6-0.2c0.1,0,0.2,0,0.3,0c0.7-0.1,1.3-0.2,2-0.2c0.2,0,0.4,0,0.7,0.1c0.5,0.1,1.1,0.2,1.7,0.2
		c0.2,0.4,0.1,0.8-0.1,1.1c-0.3,0.6-0.8,1.2-1.3,1.8c-1.6,1.6-3.8,2.6-5.9,3.4l-0.6,0.3c-2.4,1-6.1,2.2-9.3,2.1
		C211.1,297.6,209.1,297.1,207.9,295.5z M195.5,270.4c-1.7-2.5-2-5.9-1.2-9.1c1.5-5.6,5-11,8.9-15.3c2-2.2,4.2-4.2,6.6-6
		c1.7-1.3,3.7-2.8,6.1-2.9c-0.1,2.8-2.1,5.6-3.9,8.2c-0.4,0.5-0.7,1.1-1.1,1.5l-0.3,0.4c-2.3,3.5-4.6,7.1-6.1,11
		c-0.4,1-0.7,2.1-1,3.2c-0.1,0.3-0.1,0.5-0.2,0.8c-0.1,0.3-0.1,0.5-0.2,0.8c-0.1,0.2-0.1,0.5-0.2,0.7c0.3,0,0.5-0.1,0.8-0.1
		c0.3,0,0.5-0.1,0.8-0.2c3.6-0.8,7-2.2,10.3-3.7l1.8-0.8c1.8-0.8,3.9-0.9,5.4,0.2l1,0.6l1.1,3.8c-0.2,1.6-1.1,3-2.5,3.9
		c-5.4,3.5-13,5.9-19.4,6.2C199.3,273.9,196.9,272.5,195.5,270.4L195.5,270.4z M258,238.5c0,3.3-2.3,9.9-6.5,9.9
		c-4.2,0-5.1-7-5-10.3v-0.2c0.3-5.2,2.1-10.2,5-10.2c4.7,0,6.5,7.4,6.5,10.6V238.5L258,238.5z M189.5,237.5c0,3.3,2.3,9.9,6.5,9.9
		c4.3,0,5.2-7.4,5-10.5v-0.4c-0.4-5-2.1-9.8-5-9.8c-4.7,0-6.5,7.4-6.5,10.6V237.5L189.5,237.5z"/>
</g>
</svg>
