<?xml version="1.0" encoding="utf-8"?>
<!-- Generator: Adobe Illustrator 26.3.1, SVG Export Plug-In . SVG Version: 6.00 Build 0)  -->
<svg version="1.1" id="Capa_1" xmlns="http://www.w3.org/2000/svg" xmlns:xlink="http://www.w3.org/1999/xlink" x="0px" y="0px"
	 viewBox="0 0 500 632.8" style="enable-background:new 0 0 500 632.8;" xml:space="preserve">
<style type="text/css">
	.st0{fill-rule:evenodd;clip-rule:evenodd;fill:#FFFFFF;}
	.st1{fill-rule:evenodd;clip-rule:evenodd;}
</style>
<g>
	<g id="body_x2F_mono_x2F_Polo-and-Sweater">
		<path id="_xD83C__xDFA8_-Background_00000045594914684020601540000018389246808499331222_" class="st0" d="M467.7,664.9
			c8.6-29.6,2.6-60.7-3.7-90c-5.6-23.3-12-46.4-14.4-70.3c-0.8-8.2-1.5-16.4-3.4-24.4c-9.5-29.3-30.7-54.4-52.1-76.1
			c-25.1-21.7-58.9-30.4-87.6-46.6l-9.3-9.4c-4.7-2.7-12.5-4.3-12.2-11c-4.2-8.9-2.4-15.6-5.7-21.2c-9.1-14.9-29.1-19.2-48.1-14.7
			c-13.7,2.1-26.2,11-29.5,24.8c-1.6,5.5,2.2,14.3-1.9,18.3c-4,2.9-9.4,3.7-11.6,5.8c-5.2,4.8-4.8,10.1-10.1,19.2
			c-6.2,8.3-17.3,11.1-24.6,18.4c-26.3,26.7-46.9,84.1-51.1,96s-3.3,185.3-1.9,202.5c0.2,2.5,8.5-0.2,10.9,0
			c32,2.5,177.5-3.1,227.1,0c31,1.8,60.3,0.9,91.4,0C435.2,686.1,465.2,671.2,467.7,664.9z"/>
		<path id="_xD83D__xDD8D_-Ink_00000111159087801695250940000004475745485299309756_" class="st1" d="M287,342.4
			c0.1,0.5,0.3,0.9,0.5,1.4c1.2,3.3,2.9,6.7,3.1,10.1c0.3,4.3-3,6.7-5.7,9.4L276,372l-8.9,8.7c-3.1,3-6.2,6-9.3,9
			c-1.9,1.8-3.7,3.8-5.6,5.6c1.8-0.5,3.6-0.7,5.3-0.8c5.9-0.1,11.4,2.5,16.3,5.5c8.1,5,16.1,10.3,24,15.6l5.1,3.4
			c-1.2-13-1.6-26-1.2-39c0.1-3.6,0.3-7.2,0.6-10.9c0.3-3.6,1-7.4,0.9-11.1c-0.1-3.1-3.2-5.2-5.5-7l-0.6-0.5c-2.7-2.2-5.7-4.3-8-6.9
			c-0.1-0.1,0-0.2,0.1-0.2c3.5,0.7,6.7,2.5,9.7,4.4l0.6,0.4c2.5,1.6,5.7,3.2,7.4,5.8c0.7,1.1,1.1,2.4,1.3,3.6l0.5-0.1v-0.1
			c0-0.3,0.2-0.7,0.6-0.6c12.9,1,25.4,3.4,37.6,7.9c11.9,4.4,23.3,10.4,33.6,17.7c20.6,14.7,36.8,34.6,48.7,56.8
			c6,11.1,23.6,60.8,26.3,72.2c3,12.3,5.5,24.7,8.1,37l0.4,1.7c2.6,12.6,5.1,25.2,7,37.9c2,13.3,3.4,26.7,3.4,40.1
			c0,6.4-0.3,12.8-1.1,19.1c-0.7,5.4-1.4,10.9-3.4,15.9c-1.3,3.2-13.1,17-16.5,18.8c-7.5,3.9-16,5.5-24.4,6.2
			c-7.6,0.6-15.1,0.4-22.7,0.2l-3.8-0.1c-7.4-0.3-14.9-0.3-22.3-0.3c2.9-17.5,4.9-35.1,5-52.9c0-2.6-4.1-2.6-4.1,0
			c0,17.8-2.1,35.4-5,52.9l-7.5,0.1c-31.4,0.2-62.8,0.3-94.1,0.3h-11.6c-27.2,0-54.3,0.1-81.5,0c-20-0.1-40.1-0.1-60.2-0.3
			c1.2-9.7,1.7-19.5,3.5-29.1c0.5-2.6-3.5-3.6-3.9-1.1c-1.8,10-2.3,20.1-3.6,30.1c-9.4-0.1-18.8-0.3-28.1-0.5
			c-2.8-0.1-5.5-0.3-8-1.5s-3.8-2.9-5.2-5.1l-0.3-0.4c-1.9-3,2.8-5.7,4.7-2.7c0.1,0.2,0.4,0.4,0.7,0.6c-0.6-1-0.9-2.1-0.9-3.2
			c-0.3-46.6,4.4-93.3,11.7-139.3c2.4-15,8.5-44.7,8.5-44.7l0.9-4c0,0,2.9-12.8,4.4-19.2c5-20.7,11.1-41.5,22.2-59.8
			c10.2-16.7,24.1-30.9,42.2-38.5c0.6-0.3,5.4-1.8,6.1-1.6l0.5-1.5c1.9-5.7,4-11.4,7.9-15.9c1.7-2,4-3,6.4-4.1l1-0.5
			c2.5-1.2,5.1-1.8,7.8-1.5c0.6,0.1,0.8,0.9,0.2,1.1c-2.7,0.8-5.5,2-7.4,4.1c-1,1-1.3,2.3-2.1,3.5c-0.8,1.1-1.5,2.3-2.2,3.4
			c-2.8,5-4.3,10.6-6,16.1l-0.3,1c-1.7,5.4-3.4,10.7-5.1,16.1l-3.4,10.7c1.5-0.7,3-1.2,4.5-1.8l8.2-3.3c4.6-1.9,10-5.1,15.2-4.3
			c4.2,0.6,8.3,3.5,11.7,6.1l1.5,1.1c3.8,2.9,7.4,6.2,10.1,10.1c0.3,0.4-0.1,0.9-0.5,0.9c-0.1,0-0.2,0-0.3-0.1
			c-3.7-2.6-7.3-5.3-11.2-7.7c-3.5-2.2-8.2-5.3-12.5-5.3c-1.9,0-3.6,0.7-5.3,1.4c-0.3,0.2-0.6,0.4-0.7,0.7c-0.2,0.4-0.2,0.6-0.1,1
			c0.1,0.5,5.6,3.6,5.9,3.8l0.1,0.1c1.3,0.7,2.7,1.3,4.1,1.8c2.8,1.1,5.7,2,8.6,2.8c3.7,0.9,7.5,1.5,11.3,1.8
			c2.3,0.2,4.5,0.2,6.8,0.1c11.2-0.4,22.2-3.1,32.3-7.7c-0.9-0.3-1.9-0.6-2.9-0.7c-2.2-0.4-4.4-0.2-6.5,0.4
			c-2.1,0.7-3.7,2.1-5.8,2.8c-1.8,0.7-3.5-1.3-3-3c0.2-0.8,0.6-1.6,1.1-2.2c-1.2-0.1-2.4-0.8-3-1.6c-1.3-1.8-1-3.8,0.3-5.5
			c2.5-3.1,5.7-5.7,8.5-8.4l8.2-8c5.6-5.4,11.2-10.9,16.8-16.3l2.9-2.8l1.4-1.4c0.3-0.3,1-0.8,1.3-1.2c-0.1-0.4-0.2-0.8-0.3-1.2
			c-0.7-3.6-1-7.4-1.4-11.1c-1-7.6-2-15.6-1.2-23.2c0.1-0.8,1.2-1,1.4-0.2C283.2,326.2,284.6,334.4,287,342.4z M200.3,361.6l0.5,0.9
			c2.7,4.3,5.6,8.5,8.7,12.5c3.2,4.2,6.7,8.2,10.4,11.9c1.8,1.8,3.6,3.6,5.6,5.3c1.9,1.7,4.3,3.3,6,5.2c2.4,2.7,0.6,6.3-2.8,6.7
			c-3.1,0.4-5.7-3.1-7.7-5l-0.7-0.7c-2-2-3.9-4-5.7-6.1c-4.2-4.8-8.2-9.9-11.7-15.3c-3.4-5.1-6.5-10.7-8.7-16.4l-0.3-0.7
			c-1.4-3.6-3.8-9.5,0.7-11.2c0.2-0.1,0.4,0.1,0.3,0.3C193.5,353.3,198.2,358.3,200.3,361.6z"/>
	</g>
	<g id="head_x2F_mono_x2F_Flat-Top">
		<path id="_xD83C__xDFA8_-Background_00000160886053491019773900000006490519304698144693_" class="st0" d="M316.3,152.7
			c8.9,12.6,11.5,43.2,8,91.7c9.9,4.5,14.8,12.9,14.7,25.1c-0.1,12.3-7.6,19.4-22.7,21.4c-8.9,18.8-15.8,30.9-20.7,36.1
			c-7.2,7.9-38.8,30.9-81,30.9s-68.6-20.9-73.5-50s16.8-119.8,20.8-143.5c3.4-20.1,43.7-39.7,75-39.7S303,133.8,316.3,152.7z"/>
		<path id="_xD83D__xDD8D_-Ink_00000124844111597937584610000017477623967791510915_" class="st1" d="M157.5,213.9l-1.1,7.3
			c-2.5,17-5.2,34.1-7.8,51.1l-0.1,0.5c-2.6,16.7-6.5,35,3.3,50.1c8.4,12.8,23,21.4,37.3,25.9c8.4,2.6,17.1,3.7,25.9,3.5
			c4.4-0.1,8.9-0.5,13.3-1.3c2.3-0.4,4.5-1.1,6.9-1.4s4.1,0.1,6.3,1.1c1.2,0.5,1.4,2.2,0.8,3.2c-2.2,3.9-6,5-10.1,5.9l-0.5,0.1
			c-4.2,0.9-8.4,1.5-12.7,1.8c-8.5,0.6-17.2-0.1-25.5-1.8c-16.6-3.4-33-11.1-44.8-23.4c-6.1-6.4-10.8-14.4-12.6-23.1
			c-1.8-9.3-1-18.7,0.5-28l0.2-1.1c2.9-18,6.4-35.9,9.9-53.8l1.3-6.7c4.4-22.8,8.5-40.2,15.3-62.4c0.1-0.4,0.7-0.3,0.7,0.1
			C163,180.8,160.3,194.6,157.5,213.9z M322.9,131.5c2.8,7.1,4.1,14.6,5.1,22.1l0.2,1.3l0,0l4.3,31.8c1.5,11.2,3.5,22.6,3.8,33.9
			c0.3,9.2-0.4,18.6-4.3,27c5.1,3.5,7.8,9.7,8.6,16c0.6,4.4,0.3,8.8-0.3,13.2c-0.6,4.4-1.5,8.9-4.1,12.6c-2.5,3.6-6.1,6.2-10.5,6.9
			c-2.1,0.4-4.5,0.4-6.4-0.7c-1.3-0.7-2-1.7-2.5-2.9c-2.2,11.3-6.9,21.6-14.4,30.5c-3.8,4.5-8.2,8.3-12.9,11.8l-0.2,0.1
			c-2.3,1.7-5.1,3.1-8.1,2.3c-2.7-0.8-4.3-3.2-3.4-5.9c0.3-1.1,1.2-1.7,2.2-1.8c0,0,0,0,0.1,0l0.4-0.1c0.3-0.1,0.7-0.2,1.1-0.3
			c0.8-0.2,1.4-0.5,2-0.9c2-1.2,3.9-2.7,5.7-4.2c3.7-3,7.2-6.2,10.4-9.8c6.3-7.1,12.1-14.7,16.2-23.2c0-0.1,0.1-0.1,0.1-0.2
			s0-0.1-0.1-0.2v-0.1c-0.4-1.4,0.9-3,2.3-2.9c1.1,0.1,2.5-0.5,3.6-0.6s2.1,0,3.1-0.4c2.3-0.8,3.7-2.8,4.7-5
			c2.3-5.1,2.8-11.7,2.6-17.2c-0.2-5-1.9-10.6-6.3-13.6c-4.3-2.9-9.9-3.7-13.7,0.4c-0.2,0.2-0.6-0.1-0.4-0.3
			c0.1-0.3,0.3-0.5,0.4-0.7l0,0l-0.2,0.3c-0.2,0.3-0.3,0.5-0.5,0.8c-1.6,2.2-4.7,1.9-5.7-0.7c-1.3-3.6-0.3-7.4,0-11.2
			c0.3-4.2,0.3-8.3,0.1-12.5v-0.4c-0.2-6.1-0.3-13.5-3.1-18.9c-2.7-5.2-9.4-2.8-13.4-6.6c-0.9-0.8-1.8-2.1-2.1-3.3
			c-0.5-2.1,0.8-3.9,1.7-5.8c1.5-3.3,2.6-6.7,3.5-10.1l0.1-0.2c0.9-3.2,1.5-1.4,1.9-4.9c0.3-3.3,0.4-6.8-2.8-8.7
			c-2.8-1.7-6.8-2.2-9.9-3c-3.9-1-7.8-1.9-11.7-2.7c-15.5-3.3-31.2-5.4-47-6.4c-16.9-1-40-1.1-57-0.3c0,0.2,0,0.3,0,0.5
			c-0.1,5.4-6.9,5.4-9.2,1.6c-1.1-1.8-1.1-3.8-1.4-5.8c-0.3-2.6-0.7-5.1-1.3-7.6c-1.1-4.8-2.7-17.6-4.8-22l-0.1-0.1
			c-1.2-2.7,0.4-5.3,3.3-5.6l4.3-0.4v-0.1c-0.1-1.1,0.3-2.3,1.1-3.1c1.7-1.5,3.5-1.9,5.7-2h0.4c2.9-0.1,5.8-0.1,8.7-0.2h0.3
			c5.9-0.1,17.5-0.2,23.2-0.3l4.3-0.1c18.2-0.4,72.4-1.7,83.2-1.9h1.1c8.4-0.1,17.3,1.1,24.5,5.8
			C315.9,118.3,320.1,124.6,322.9,131.5z M327.3,265.6c-4.6,0.6-9,4.5-10,9v0.2c-1.6,5.9-11.4,2.1-8.1-3.6
			c3.8-6.6,11.4-9.8,18.5-6.4C328,265,327.7,265.5,327.3,265.6z"/>
	</g>
	<g id="face_x2F_Old">
		<path id="_xD83D__xDD8D_-Ink_00000085214542895963890350000012934477448966411422_" class="st1" d="M197.3,299.9
			c-0.6-0.7-0.9-1.6-0.9-2.4c0-0.7,0.3-1.4,0.9-2c2.3-2.1,5.4-1.9,8.5-1.7c1.2,0.1,2.3,0.1,3.4,0.1c1.5-0.1,3-0.3,4.5-0.5
			c0.5-0.1,1-0.1,1.6-0.2c0.1,0,0.2,0,0.3,0c0.7-0.1,1.3-0.2,2-0.2c0.2,0,0.4,0,0.7,0.1c0.5,0.1,1.1,0.2,1.7,0.2
			c0.2,0.4,0.1,0.8-0.1,1.1c-0.3,0.6-0.8,1.2-1.3,1.8c-1.6,1.6-3.8,2.6-5.9,3.4l-0.6,0.3c-2.4,1-6.1,2.2-9.3,2.1
			C200.5,302,198.5,301.5,197.3,299.9z M184.9,274.8c-1.7-2.5-2-5.9-1.2-9.1c1.5-5.6,5-11,8.9-15.3c2-2.2,4.2-4.2,6.6-6
			c1.7-1.3,3.7-2.8,6.1-2.9c-0.1,2.8-2.1,5.6-3.9,8.2c-0.4,0.5-0.7,1.1-1.1,1.5l-0.3,0.4c-2.3,3.5-4.6,7.1-6.1,11
			c-0.4,1-0.7,2.1-1,3.2c-0.1,0.3-0.1,0.5-0.2,0.8c-0.1,0.3-0.1,0.5-0.2,0.8c-0.1,0.2-0.1,0.5-0.2,0.7c0.3,0,0.5-0.1,0.8-0.1
			s0.5-0.1,0.8-0.2c3.6-0.8,7-2.2,10.3-3.7l1.8-0.8c1.8-0.8,3.9-0.9,5.4,0.2l1,0.6l1.1,3.8c-0.2,1.6-1.1,3-2.5,3.9
			c-5.4,3.5-13,5.9-19.4,6.2C188.7,278.3,186.3,276.9,184.9,274.8L184.9,274.8z M247.4,242.9c0,3.3-2.3,9.9-6.5,9.9s-5.1-7-5-10.3
			v-0.2c0.3-5.2,2.1-10.2,5-10.2c4.7,0,6.5,7.4,6.5,10.6V242.9L247.4,242.9z M178.9,241.9c0,3.3,2.3,9.9,6.5,9.9
			c4.3,0,5.2-7.4,5-10.5v-0.4c-0.4-5-2.1-9.8-5-9.8c-4.7,0-6.5,7.4-6.5,10.6V241.9L178.9,241.9z M231.4,221c-0.2,0-0.5-0.1-1.3,0
			c-1.1,0.6-2.2,0.8-3.3,0.6c-1-0.2-1.9-0.7-2.7-1.7c-0.9-1.1-1.1-2.4-0.9-3.7c0.2-1.3,1-2.4,2.2-3.2c3-1.9,6.6-1,9.8-0.1l2.2,0.7
			c3.9,1.2,7.9,2.7,11.6,4.5c6.5,3.2,13.2,7.7,17.6,13.7c-1.7-0.5-3.3-1.2-4.9-1.9c-1.1-0.5-2.1-0.9-3.2-1.3
			c-0.2-0.1-0.3-0.1-0.5-0.2c-3-1.1-6-2.3-9.1-3.3c-3.3-1.1-6.6-2-10-2.8c-1.8-0.4-3.5-0.7-5.3-1c-0.6-0.1-1.2-0.2-1.8-0.3H231.4z
			 M170.2,227c0.7-2.4,1.4-4.7,2.9-6.7c1.8-2.4,4-4.3,6.6-5.8s5.6-2.4,8.6-2.8c3-0.4,7.4-0.9,9.9,1.1c0.8,0.6,1.5,1.4,2,2.2
			c0.4,0.7,0.5,1.6,0.3,2.5c-0.1,0.9-0.6,1.9-1.2,2.6c-0.6,0.6-1.3,1.1-2.1,1.3c-1.6,0.3-3.1,0-4.6-0.2c-1-0.2-1.9-0.3-2.9-0.3
			c-2.2-0.1-4.4,0.1-6.5,0.6C178.8,222.5,173.6,224.2,170.2,227z"/>
	</g>
</g>
</svg>
