<?xml version="1.0" encoding="utf-8"?>
<!-- Generator: Adobe Illustrator 26.3.1, SVG Export Plug-In . SVG Version: 6.00 Build 0)  -->
<svg version="1.1" id="Capa_1" xmlns="http://www.w3.org/2000/svg" xmlns:xlink="http://www.w3.org/1999/xlink" x="0px" y="0px"
	 viewBox="0 0 500 632.8" style="enable-background:new 0 0 500 632.8;" xml:space="preserve">
<style type="text/css">
	.st0{fill-rule:evenodd;clip-rule:evenodd;fill:#FFFFFF;}
	.st1{fill-rule:evenodd;clip-rule:evenodd;}
</style>
<g>
	<g id="body_x2F_mono_x2F_Tee-2">
		<path id="_xD83C__xDFA8_-Background" class="st0" d="M473.4,589.9l-4.4,88l-369.6-0.6l0.5-1.8c8.2-29.2,12.3-50.5,12.3-63.9v-0.4
			c0.1-13.5,3-39.2,8.8-77.1l0.4-2.4L468.5,504L473.4,589.9z M300.1,325.9c3.3,10.9,4.8,25,12.7,33.3c7.8,8.1,21.5,8.2,44.4,13.2
			l1.4,0.3c15.8,3.5,24.8,39.8,27,108.8c-169,2.6-253.6-0.4-253.6-8.9c0-12.8,25.9-68,33.8-81.5c7.9-13.5,35.5-8.4,48.5-14
			c12.9-5.7,16.9-42.5,19.3-51.1c1.1-3.9,15.3-9.9,29.4-10.6C280.4,314.4,298.2,319.9,300.1,325.9z"/>
		<path id="_xD83D__xDD8D_-Ink" class="st1" d="M233.2,340l0.1,1.3c0.1,1.6,0.1,3.2,0,4.8c-0.3,4-0.9,8.2-1.9,12.1
			s-2.3,7.6-3.9,11.4l-0.1,0.2c-1.6,3.8-3.2,8.4-7.4,9.9c-0.9,0.3-1.8,0.3-2.7,0c3.7,15.8,16.9,28.9,32.4,33.7
			c21.1,6.6,45.8,0.4,62.7-13.5c4.6-3.8,8.4-8.3,11.2-13.5c2.7-4.9,5.3-9.7,9.3-13.5c-0.7-1.3-0.7-3,0.6-4.3
			c0.4-0.4,0.8-0.8,1.3-1.2l0,0c-0.2,0-0.2-0.3,0-0.3l0,0l0.7-0.1l0,0l0.2-0.1c2.8-1.9,6.2-2.6,9.1-0.9c3.5,0.1,7,0.6,10.5,1.2
			c7,1.2,13.7,3.5,20.2,6.5c13.1,6,25,14.4,35.9,23.8c20.5,17.8,37.2,40.1,48.8,64.6c3.3,7,6.2,14.1,8.7,21.4s5.3,15.1,5.9,22.8
			c0.2,2.3-1.3,3.6-3.1,3.9c-0.5,0.8-1.2,1.5-1.9,2.1l-0.4,0.3c1.2,4,1.7,8.3,2.5,12.3l0.3,1.7c0.8,4.6,1.5,9.3,2.2,14l0.2,1.2
			c1.6,10.4,2.9,20.9,3.4,31.4c1.2,22,0.6,43.9-1.6,65.8c-0.6,6.3-1.4,12.7-2.3,19l-0.1,0.7c-0.8,5.9-1.2,12.2-2.8,17.9
			c-1.3,4.8-9.4,4-9-1.2c0.4-5.5,1.8-10.8,2.6-16.3c0.7-5.3,1.4-10.6,1.9-15.9c1.2-10.8,2-21.6,2.5-32.4c1.1-21.6,1-43.3,0.5-64.9
			c-0.1-5-0.4-9.9-0.8-14.8l-0.2-3c-0.2-3.1-0.5-6.2-0.7-9.3c-0.1-1.6-0.3-3.2-0.4-4.7c-2,1.5-4.2,2.7-6.4,3.7
			c-5.7,2.6-11.8,4.5-17.9,6.2l-1.4,0.4c-6.5,1.9-13.1,3.6-19.8,5c-3.3,0.7-6.7,1.4-10,2c-2.1,0.4-4.6,1.2-7,1.4v2.8v1.5
			c0,2.5-0.1,5-0.2,7.5l-0.1,3c0,0.3,0,0.7,0,1v1.1c0.4,3.1,0.7,6.2,1.1,9.4c1.1,10,2,20,2.3,30.1c0.6,19.8,0.1,39.5-1.2,59.2
			c-0.4,5.6-0.9,11.1-1.4,16.7l-0.2,1.8c-0.5,5-1.2,10.6-4,14.7c-1.2,1.8-3.5,1.4-4.4-0.3c-3.2-0.7-6.7-0.4-10-0.3h-0.7
			c-4.1,0.2-8.3,0.3-12.4,0.4c-8.5,0.2-17.1,0.2-25.6,0.2c-17.1,0-34.2-0.3-51.3-0.5l-11.4-0.1c-30.4-0.4-60.8-0.9-91.2-1.3
			c-9.7-0.1-19.4-0.2-29-0.3l0,0l-21.3-0.2c-1.6,0-2.8-0.2-4-0.7c-0.1,0.2-0.2,0.4-0.3,0.5c-1.1,2-3.9,2.7-5.9,1.5
			c-1.1-0.6-1.7-1.6-1.9-2.6l0,0c-0.7-3.5,0.5-7.3,1.1-10.8c0.6-3.4,1.1-6.9,1.6-10.3c0.9-6.8,1.8-13.7,2.6-20.5
			c1.6-13.9,3.2-27.7,4.3-41.6c1.2-13.8,2.1-27.7,3-41.5c-2.8,0-5.6-0.3-8.3-0.7c-1.7,0.1-3.3-0.5-4.9-0.9l-0.5-0.1l-0.5-0.1
			l-0.7-0.2c-1.1-0.3-2.2-0.6-3.3-0.9c-0.1,0-0.1,0-0.2-0.1c-1.7-0.5-3.4-1-5.1-1.5l-0.2-0.1l0,0l-0.2-0.1
			c1.3,15.5,0.7,31.1-0.4,46.6l-0.1,0.9c-1.2,17.4-2.1,34.9-6.3,51.9c-1.2,4.7-2.5,9.4-4.1,14l-0.3,1c-0.6,1.9-1.2,3.9-1.7,5.8
			c-0.3,1.2-0.7,2.4-1,3.6l-0.2,0.5c-0.1,0.2-0.1,0.3-0.2,0.5c-0.2,0.4-0.3,0.8-0.5,1.2c-0.1,0.5-0.2,1-0.5,1.4
			c-1.3,2.2-4.2,2.6-6.3,1.5c-2.6-1.4-3.6-4.5-2.9-7.2c0.6-2.4,1.6-4.7,2.4-7c0.9-2.7,1.6-5.4,2.4-8.1l0.3-1.1
			c1.3-4.6,2.5-9.3,3.5-14c4.2-20.6,4.5-41.8,7.2-62.5c1.3-10.1,3.1-20.1,5.6-30c-5.3-1.7-10.5-3.5-15.7-5.4c-2.8-1-5-3.9-4-7
			c4.6-14.3,9.4-28.4,14-42.7c4.4-13.5,8.6-27,13.2-40.4c8.3-24.3,20.9-47.2,39.7-65.6c10.3-10.2,48.1-19.3,49.8-17.4
			c0.6,0.3,1.2,0.8,1.6,1.5c0.1,0.2-0.1,0.4-0.3,0.3c-0.1-0.1-0.2-0.1-0.3-0.2c0.1,0.3,0.2,0.6,0.2,0.9c0.8-1,1.3-2.4,1.9-3.4
			c0.8-1.5,1.7-3,2.4-4.5c1.6-3.1,3-6.3,4.3-9.5c1.3-3.1,2.4-6.3,3.6-9.5c0.6-1.6,1.2-3.2,1.8-4.8c0.4-1.1,0.6-2.2,1.7-2.7
			c0.1,0,0.1,0,0.2,0C233.1,337.6,233.1,338.8,233.2,340z M303.8,337.2c1.4,3.7,3.1,7.2,5.1,10.6c3.7,6.2,9,12.2,15.6,15.5
			c6.3,2,1.4,12.4-4,8.5c-0.9-0.7-1.9-1.3-2.8-2c-6.5-5-12.1-10.8-15.7-18.4c-3.5-7.3-5.9-17.8-2.2-25.4c0.1-0.2,0.3-0.1,0.4,0
			C301.7,329.7,302.5,333.5,303.8,337.2z"/>
	</g>
	<g id="head_x2F_mono_x2F_No-Hair-1">
		<path id="_xD83C__xDFA8_-Background_00000084497072465454751230000013163114627714132386_" class="st0" d="M176.5,280.2
			c-0.9,8.2-2.4,16.6-2.2,24.9c0.7,37.7,43.2,49.9,77,49.9c11.5,0,46.5-16.2,49.9-18.8c13.2-10.5,19.4-23.2,27.8-38.6
			c1.4-3.6,5-5.9,8.7-7c6.3-2.6,10.9-7.4,12.2-14.3c1.6-7.8-1.1-12.2-5.7-18.1c-2-3.1-0.5-8-0.3-11.5c0.5-8.2-0.1-16.5-1.8-24.5
			c0.4-68.8-84.4-93.6-130.6-47.9c-15.3,13.9-24.9,31.1-29.3,49.6C178,242.1,178.8,261.5,176.5,280.2z"/>
		<path id="_xD83D__xDD8D_-Ink_00000110448412253583247670000003362945921789502362_" class="st1" d="M182.6,235.6l-0.1,3.5
			c-0.3,6.9-0.9,13.7-1.6,20.5c-0.7,7.5-1.5,15-2.3,22.4l-0.1,0.7c-0.7,6.5-1.3,13.1-1,19.7c0.5,11.7,4.9,22.4,13.9,30.1
			c8.1,7,18.4,11.1,28.6,13.8l0.4,0.1c11.6,3.1,24.8,5.4,35.1-2.4c4.4-3.3,9.9,3.9,5.9,7.6c-10.1,9.1-24.8,8.3-37.3,5.5
			c-11.6-2.6-23.2-7.1-32.9-14.1c-10.2-7.4-18-17.6-20.4-30.2c-2.8-14.7,0.4-30,2.3-44.7l0.3-2.1c1.1-8.3,2.3-16.6,3.7-24.9
			c0.7-4.4,1.6-8.8,2.6-13.1c1-4.5,1.7-9.1,2.9-13.5c0.1-0.2,0.4-0.2,0.4,0.1C183.3,221.6,182.9,228.7,182.6,235.6z M341.1,196.9
			c4.2,9.6,6.8,19.9,7.4,30.3c0.3,5.2,0.1,10.6-0.9,15.7c-0.7,4.1-1.8,8.2-4.5,11.3c5.8,3.2,10.2,9.4,11.6,15.8
			c1.6,7.5-0.6,15-5.6,20.8c-2.3,2.7-5.2,4.9-8.4,6.3c-3.4,1.6-8.3,3.4-11.6,1c-0.2-0.1-0.3-0.3-0.5-0.4c-2.3,6.8-6,13.2-9.6,19.4
			l-0.7,1.1c-2,3.4-4.2,6.6-6.8,9.7l-0.2,0.2c-2.4,3-4.9,6.8-8.4,8.3c-2.3,1-4.6-1.8-3.9-3.9c1-3.4,4.6-6.3,6.9-9l0.8-1
			c2.3-2.7,4.6-5.3,6.9-7.9c5.1-5.6,9.6-11.7,14.7-17.2c-1-1.3-1.4-3.3,0.1-4.4c2.4-1.9,5.1-1.8,7.8-3c2.2-0.9,4.2-2.4,5.9-4.2
			c3.3-3.4,5.2-8.2,4.4-12.9c-0.8-4.9-3.9-9.1-7.9-11.9c-2.2-1.5-4.5-2.6-7-3.2s-6.2-1.2-8.5-0.1c-0.2,0.1-0.4-0.1-0.3-0.3
			c1.8-3.6,4.2-5.2,8.2-5.8c2.7-0.4,5.4-0.1,7.9,0.7c-0.4-2.4-0.2-4.8-0.1-7.2l0.1-2c0.3-4.2,0.5-8.5,0.3-12.7
			c-0.4-8.4-1.9-16.6-4.7-24.5c-5.6-15.7-16.3-29.3-30.4-38s-31-12.7-47.5-11.4c-16,1.2-31.3,8.1-43.2,18.7
			c-6.8,6.1-12.6,13.2-17.1,21.1c-2.2,3.9-4.5,7.9-6.4,12l-0.7,1.4c-0.8,1.6-1.5,3.3-2.2,5c-0.9,2.3-2.3,4.1-2.9,6.5
			c-0.1,0.3-0.6,0.3-0.6-0.1c0.1-2.1-0.5-4.1-0.5-6.2c0.1-2.3,0.4-4.6,0.8-6.8c0.7-4.4,2-8.6,3.7-12.7c3.4-8.2,8.7-15.7,14.8-22.2
			c12.3-13.3,28.8-22.5,46.7-25.4c18.7-2.9,38,0.2,54.7,8.9C320.5,165.4,333.7,179.7,341.1,196.9z M339.3,271.6
			c-2.6,0.5-5.6,1.9-8,3.9l0,0l0.1,0.1c0.5,0.7,0.7,1.8,0.5,2.7c-0.1,0.8-1.1,1-1.7,0.7c-0.5-0.2-0.9-0.7-1.3-1.2
			c-1.1,1.2-1.9,2.6-2.4,4l-0.1,0.1c-1.8,4.7-8.8,0.8-6.1-2.7c2.4-3.1,5-5.8,8.7-7.4c3.4-1.5,6.7-1.3,10.2-0.7
			C339.5,271.1,339.5,271.5,339.3,271.6z"/>
	</g>
	<g id="accessories_x2F_Glasses-2">
		<path id="_xD83D__xDD8D_-Ink_00000103230758760048968970000006553269334950166424_" class="st1" d="M190.2,255.5
			c-10.8-10.6-6.9-37.1,10.2-39c0.6,0.3,1,0,1.2,0.1c2.4,0.3,4.9,1.4,6.9,1.9c15.5,7,25.3,33.2,5.2,41.6
			C205.9,263.4,196.1,261.6,190.2,255.5 M255,257.1c-12.3-16.1-0.5-43.5,28.1-32.7c13.5,9.1,20.6,32.3,0.8,40.1
			C273.9,268.5,261.6,265.8,255,257.1 M297.9,237.7c-0.1,0-0.1,0.1-0.2,0.1c0-0.1-0.1-0.2-0.1-0.3
			C297.8,237.6,297.9,237.6,297.9,237.7C298,237.7,298,237.7,297.9,237.7 M176.6,228.3c-3.7,0.7-2.2,6.3,4.9,2.8
			c-10.6,44.1,57,46,45.6,4.1c6.8-1.6,14-1.8,20.3,1.3c-5.4,19.2,12.6,37.7,33.2,33c13.3-3.1,22.3-13.4,18.1-28.7
			c2.6,0.8,7.5,0.1,9.1-1.9c17-1.5,33.7-4.9,50.9-3.9c3.2,0.4-0.3,4.5,2.9,5c3.7-0.3,2.2-6.5-0.4-7.6c-3.7-2.6-35.5,0-53.6,4.7
			c-2.8-1.8-7.2-0.9-10.2-0.6c-3.6-9-15-20.1-26.6-18.3c-10.5,0.6-19.4,4.8-23,16.7c-5.5-5-15.5-6.6-21.8-2.8
			c-3.5-7.9-9.7-13.8-18-16.5c-10.6-7.5-22.8,2.8-26,13.9C180.6,228.5,178.2,228.3,176.6,228.3"/>
	</g>
	<g id="face_x2F_Smile">
		<path id="_xD83D__xDD8D_-Ink_00000013908376678114052320000017266040288959633564_" class="st1" d="M220,257.4
			c-18.6,3.2-9,35.2,14.8,17.7c2.8-2.3-0.6-7.3-3.6-5.4c-3.3,2.5-10,8.1-14.6,3.2c-3.9-5.5,1.6-10.7,5.3-12.9
			C222.8,259.3,222,257,220,257.4z M264.8,249.5c-0.4,3.5-5.2,5.3-7.1,1.4c-2-4-2.8-8.1-2.1-12.5c0.8-5,8.4-3.8,8.8,1.2
			C264.6,242.7,265.3,244.8,264.8,249.5z M206.5,237.8c3.3,3.1,2.1,9.3-0.5,12.4c-1.6,1.9-5.2,1.4-6.3-0.8c-2-4-3.7-12.2,2-13.8
			c1.8-0.5,3.4,0.4,4.4,1.8C206.3,237.5,206.4,237.7,206.5,237.8z M266.3,220.6c5,2.5,10,6.6,12.5,11.7c0.3,0.5-0.3,1.3-0.9,0.9
			c-4.4-3-8.7-5.7-13.9-7.2c-2.4-0.7-4.7-1.1-7.2-1.2c-3-0.2-5.7,0.6-8.2-1.4c-1.4-1.1-1.1-3.4,0-4.6c2-2.3,5.5-1.8,8.3-1.3l0.9,0.2
			C260.7,218.1,263.6,219.2,266.3,220.6z M213.8,215.5c0.7,0.3,1.3,0.8,1.8,1.5c0.6,1,0.7,1.8,0.4,2.8c-0.2,0.8-0.7,1.4-1.2,1.9
			c-0.6,0.5-1.4,0.7-2.2,0.8c-3.8,0.4-7.5,1.3-11.1,2.5c-1.7,0.6-3.3,1.3-4.9,2.1l-1.4,0.7c-1.3,0.6-2.6,1.2-4.2,1.6
			c-0.1,0-0.3,0.1-0.4,0.1c-0.5-0.1-0.5-0.3-0.6-0.4l0,0c-0.1-0.1-0.3-0.4-0.1-1.4c3.6-7.4,13.4-10.6,21-12.2l0.7-0.1
			C212.3,215.2,213.1,215.3,213.8,215.5z"/>
	</g>
	<path class="st1" d="M206,319.8c0.9,0.2,2.1,0,3.1,0c2.1,0,4.3,0.1,6.4,0.4c2.1,0.2,4.2,0.6,6.2,1.2c2,0.5,4.2,1,5.9,2.2
		c0.6,0.4,0.7,1.6-0.2,1.7c-2.2,0.4-4.6,0-6.8-0.1c-2.5-0.1-4.9,0-7.4,0.1c-2.4,0.1-4.8,0.6-7.1,0.7c-2.1,0.1-4.6-0.7-5.1-3
		c-0.4-2.2,1.3-4.1,3.6-3.6C205,319.4,205.5,319.7,206,319.8z"/>
</g>
</svg>
