<?xml version="1.0" encoding="utf-8"?>
<!-- Generator: Adobe Illustrator 26.3.1, SVG Export Plug-In . SVG Version: 6.00 Build 0)  -->
<svg version="1.1" id="Capa_1" xmlns="http://www.w3.org/2000/svg" xmlns:xlink="http://www.w3.org/1999/xlink" x="0px" y="0px"
	 viewBox="0 0 500 632.8" style="enable-background:new 0 0 500 632.8;" xml:space="preserve">
<style type="text/css">
	.st0{fill-rule:evenodd;clip-rule:evenodd;fill:#FFFFFF;}
	.st1{fill-rule:evenodd;clip-rule:evenodd;}
</style>
<g id="Introduction">
	<g id="variations" transform="translate(-2046.000000, -1406.000000)">
		<g id="images" transform="translate(126.000000, 110.000000)">
			<g id="a-person_x2F_bust" transform="translate(1920.000000, 1296.000000)">
				<g id="body_x2F_Thunder-T-Shirt" transform="translate(31.056338, 135.052838)">
					<path id="_xD83C__xDFA8_-Background" class="st0" d="M297.6,155.9c1.6,5,1.2,10.5,1.2,15.7c0,2.9,2.4,12,3.6,13.4
						c3.6,4.3,8.4,7,13.6,9.5l0.2,0.1c6.8,3.2,31.9,12.9,33.6,14.4c3.3,2.7,7,1.9,10.8,4.2c9.2,5.4,18.7,10.2,27.7,16
						c9.4,6,48.5,37.9,51.9,42c3.8,4.5,6.5,9.6,7.7,15.5c1.2,5.9,1.5,12.1,2,18.1l0.4,4.7c0.9,10.9,1.8,21.8,2.6,32.7
						c1.8,25.1,3.3,50.1,4.4,75.2c1.2,28.2,2,56.4,2.4,84.5c0,2.6-1.8,4.9-4.3,5.6c-19.6,5.5-39,10.1-59.4,11.1
						c-6.2,0.3,2.4-4.6-7.6-5.6c-10.5-1-44.2,2.6-54.7,2c-41.4-2.3-82.9-1.4-124.4-1.2c-20.9,0.1-41.8,0-62.7-0.8
						c-5.1-0.2-10.3-0.4-15.4-0.7l-0.3,0c-4.8-0.2-10.2,0-14.5-2.4c-4.6-2.6-6.1-7.6-6.4-12.6c-0.2-5.2-0.2-10.4-0.2-15.6l0-2.3
						c-0.3-40.9,1.2-81.9,4.4-122.7c0.8-10.4,1.8-20.9,2.8-31.3c0.5-5.1,1.1-10.3,1.7-15.4c0.5-4.8,0.1-11.3,4-14.8l0.1-0.1
						c5-4.7,55.7-60.2,57.1-66.9c1.4-6.9,6.4-11.1,12.7-13.5c9.8-3.7,20.7-6.6,27.3-15.3c2.7-3.6,4-7.7,4.8-12.7
						c0.3-1.8,0.5-3,0.7-4.6l0.5-4.2c0.2-2,0.5-4,0.7-6c0.7-4.9,1.8-9.7,4.2-14.1c2.9-5.3,7.6-9.1,13.1-11.3
						c6.4-2.6,13.7-3.4,20.6-3.8c6.7-0.5,14.3-0.7,20.8,1.1C291.2,145.5,295.7,149.9,297.6,155.9z M196.8,280l21.7,34.8h-21.7
						l31.3,41.1h-31.3l83.4,104.4l-14.6-60.9h41.1l-18.7-43.5h26.1L274,277.7L196.8,280z"/>
					<path id="_xD83D__xDD8D_-Ink" class="st1" d="M139.1,321.5c0.1,0.2,0.2,0.3,0.3,0.5c-0.1-0.1-0.2-0.2-0.3-0.3V321.5z
						 M363,209.2c-0.6,0.4-1.2,0.7-1.8,1c0.3-0.3,0.6-0.6,0.9-0.9c0.1-0.1,0.2-0.2,0.3-0.4C362.6,209.1,362.8,209.2,363,209.2
						L363,209.2z M101.9,483.7c-0.2,3.6-0.3,7.1-0.5,10.7c-0.2,3.6-0.9,7.7,0,11.2c1.4,5.6,8.9,4.9,10.7,0c0.8-2.1,0.6-4.6,0.7-6.8
						c0.1-2.1,0.2-4.2,0.3-6.3c0.2-3.9,0.4-7.8,0.6-11.6c0.4-7.8,0.8-15.5,1.1-23.3c1.4-27.8,2.8-55.6,4.2-83.4
						c0.7-14,1.5-28.1,1.8-42.1c0.3-9.5,0.2-18.9,0.3-28.4c0.3,0.2,0.5,0.5,0.8,0.7c3.2,3,6.3,6.1,9.4,9.2c1.6,1.6,3.1,3.3,4.6,5
						c1.4,1.6,2.7,3.4,4.5,4.6c1.5,1,3.6,0.5,4.8-0.6c0.1-0.1,0.2-0.2,0.3-0.3c0.1-0.1,0.3-0.2,0.4-0.4c0,2.7,0,5.3,0,8
						c0.1,29.7-0.6,59.6-3,89.2c-1.2,15-2.8,30-4.5,44.9c-0.8,7.3-1.7,14.6-2.7,21.9c-0.5,3.7-1,7.4-1.5,11.1c-0.3,2-0.8,4.1-0.9,6
						c0,2.1,0.9,3.5,2.2,5.1c0.7,0.8,2,1.1,3,0.8c0.3,0.7,0.8,1.4,1.4,2c3.5,3.5,9.1,2.2,13.6,2.3c9.9,0.3,19.8,0.6,29.7,0.9
						c35.8,1.1,71.5,2.1,107.3,3.2c17.9,0.5,35.7,1,53.6,1.4c8.9,0.2,17.9,0.2,26.8,0.1c6.6,0,13.5-0.4,20.2-1.3
						c0.9,1.8,2.9,2.9,5.1,2.6c2.4-0.3,4.8-2.9,4.3-5.5c0.6-13.3,0.3-26.7,0-40c-0.4-23.5-1.8-46.9-3.6-70.4
						c-0.9-11.9-2-23.8-3.6-35.6c-0.8-5.8-1.3-11.7-2.7-17.5c-0.6-2.8-1.1-5.7-1.8-8.6c0.7-1,1.3-2.1,2-3.1c2.1-3.1,4.3-6.1,6.6-9
						c13.7-17.5,30.9-32.5,49.3-45.1c-0.8,1.6-0.3,3.9,1.3,4.7c0.3,12.1,1.3,24.2,2.1,36.3c2,29,3.7,58,3.5,87.1
						c-0.1,14.5-0.4,29.1-1,43.6c-0.3,7.3-0.6,14.7-1,22c-0.2,3.8-0.4,7.7-0.7,11.5c-0.2,3.6-0.7,7.3,2.3,9.5c0,0,0,0.1,0,0.1
						c0.4,2.7,4.2,3.7,5.1,0.7c0-0.2,0.1-0.3,0.1-0.5c3.6-2.2,3.3-6.7,3.6-10.7c0.3-4.2,0.5-8.3,0.7-12.4c0.4-8.3,0.7-16.6,0.9-24.9
						c0.6-29.4-0.2-58.9-2.1-88.2c-0.9-14.7-2.2-29.4-3.9-44c-1.2-10.2-2.7-20.2-5-30.1c2.3-0.7,4-2.3,5-4.8
						c0.8-2.1,0.9-4.3,0.3-6.3c0.3,0.7,0.5,1.3,0.7,2c0.1,0.4,0.6,0.2,0.6-0.2c-0.7-4.5-3.9-8.4-6.4-12c-2.6-3.7-5.4-7.3-8.4-10.7
						c-20.7-23.7-48.1-39.3-76.2-52.5c-2-0.9-3.9-1.8-5.9-2.7c-0.6-0.3-1.2-0.3-1.8-0.2c0,0,0,0,0,0c-1.4-0.4-2.9,0.1-4.1,1
						c-1.1,0.8-2,1.6-2.8,2.7c-0.5,0.7-0.6,1.6-0.5,2.4c-3.4-0.9-6.8-2.1-10.2-3.3c-7.6-2.8-14.9-6.2-22.2-9.7
						c-5.7-2.8-12.6-5.7-16-11.3c-2-3.2-2.6-7.1-3.3-10.8c-0.8-4.3-1.4-8.6-2.4-12.8c-0.4-1.7-2.1-2.9-3.8-2.9c-0.8,0-1.3,0.2-2,0.5
						c-1.7,0.8-2.1,2.9-1.8,4.5c0.7,4.5,1.8,9.1,2.7,13.6c0.8,4,1.9,8.2,4.1,11.7c4.2,6.6,11.3,10.2,18.1,13.3
						c8.1,3.7,16.3,7.5,24.9,9.9c4.2,1.2,8.5,2,12.8,2.4c0.2,0,0.3,0,0.5,0c-1.9,1.1-3.9,2.1-5.8,3.1c-6.2,3.3-12.5,6.4-18.9,9.3
						c-22.8,10.1-48.1,15.3-73.1,14.9c-12.5-0.2-24.9-1.8-37-4.9c-6.5-1.7-13-3.7-19.1-6.5c-3.4-1.5-6.7-3.2-9.8-5
						c-0.8-0.5-1.6-1-2.3-1.5c5.8-2,11.6-4.2,17.3-6.4c7.1-2.7,13.3-6.2,18-12.3c4-5.3,5.8-11.7,6.5-18.2c0.7-6.2,0.7-13.1-0.5-19.2
						c-0.1-0.5-0.9-0.5-1,0c-1.7,5.9-2.4,11.9-4.2,17.8c-1.6,5.3-3.8,10.7-7.2,15.2c-4,5.2-9.8,7.7-15.8,9.9
						c-6.1,2.2-12.2,4.2-18.3,6.3c-3.1,0.3-6.3,1-9.3,2.1c1.1-0.8,2.2-1.5,3.3-2.4c0.2-0.2,0-0.5-0.2-0.4c-4,1-8,3-11.6,4.8
						c-3.7,1.8-7.4,3.8-10.9,5.9c-7.4,4.5-14.5,9.4-20.7,15.4c-6,5.8-11.1,12.4-15.8,19.3c-2.3,3.3-4.4,6.7-6.5,10.2
						c-1,1.7-2.1,3.5-3.1,5.2c-1.2,2-2.7,4-3.2,6.2c-0.3,1.3,4,16,5.8,19c0.2,0.2,0.3,0.5,0.5,0.7c2.1,3.2,6.5,1.2,6.2-2
						c0.2,0.2,0.5,0.4,0.8,0.7c-1.9,11.7-3.9,23.3-5.3,35.1c-3.3,28-5.4,56.2-7.6,84.3c-1.1,13.9-1.9,27.8-2.7,41.7
						C102.6,469.4,102.3,476.5,101.9,483.7L101.9,483.7z"/>
				</g>
				<g id="head_x2F_Long-Bangs" transform="translate(78.591549, 38.043053)">
					<path id="_xD83C__xDFA8_-Background_00000093153401263104635910000011722111010053173691_" class="st0" d="M129.5,141.3
						c-6.1,30.3-1.7,62.4,6.1,92.1c7.5,29.8,19.7,53,53.9,53.7c23.2,1.2,47-4.3,66.5-17.1c2-1.4,3.9-3,5.7-4.7
						c2.1-1,4.1-2.2,6.1-3.3c35.7-18.4,35.2-52.2,18.6-84.4c-20.8-42.4-68.5-68.5-115.3-63.6C153.8,115.2,134.6,123.1,129.5,141.3
						L129.5,141.3z"/>
					<path id="_xD83D__xDD8D_-Ink_00000042723226610703212020000003118810779016684196_" class="st1" d="M107.1,312.4
						c-2.7,8.1-4.5,16.4-5.6,24.9c-2.1,16.1-1,32.4,2.9,48.1c0.1,0.5,0.3,1,0.4,1.6c0.8,2.9,5.5,3.1,6.1,0c0.1-0.5,0.2-1.1,0.3-1.6
						c0.8-3.7,1.9-7.4,3.1-10.9c0.9,9.4,2.5,18.8,4.8,28c2.5,9.8,6.6,20.4,16,25.4c2.1,1.1,4.1-0.7,3.8-2.9
						c-0.1-0.6-0.2-1.1-0.2-1.7c-1.4-10.3-2.3-20.7-1.4-31c0.7-8.8,2.8-17.3,5.9-25.5c3.6-9.7,8.8-18.6,14-27.5
						c9.2-16,18.5-33.8,18-52.6c15.9,3.9,33.8,0.9,47.8-7.8c3.8-2.3,0.4-8-3.5-5.9c-13,7-27.6,10.9-42.2,7.4
						c-0.9-0.2-1.8-0.5-2.7-0.7c-10.1-3-19.5-9.2-25.2-18.2c-7.4-11.6-8.2-25.6-9.3-38.9c-1.3-15.1-2.2-30.2-2.6-45.3
						c-0.2-8.2,0-16.4,0.2-24.6c1.1,1.4,2.2,2.8,3.5,4c2.2,2.2,5.1,5.8,8.3,6.6c0.1,0,0.2,0,0.2-0.1c-0.1-1.4-0.8-2.7-1.4-3.9
						c-0.8-1.8-1.5-3.6-2.1-5.4c-1.1-3.4-2.1-6.9-3.2-10.3c-0.6-1.9-1.1-3.8-1.6-5.7c0.7,1.2,1.4,2.4,2.1,3.6
						c4.9,8.1,10.8,15,18.7,20.3c0.4,0.2,0.8-0.2,0.6-0.6c-3.7-6.4-7.5-13-10.8-19.6c2.4,2.7,4.9,5.3,7.6,7.8c2.8,2.5,5.7,4.8,8.7,7
						c3.8,3.9,8.5,6.6,14.5,6.9c0.3,0,0.3-0.4,0.1-0.4c-7.1-2.5-10.4-10.6-12.6-17.8c0.1,0.1,0.2,0.2,0.4,0.2c2.3,1.5,4.8,3,7.4,4.2
						c4.6,4.6,9.5,9.2,15.1,12.6c5.5,3.3,11.4,5.4,17.6,6.7c0.6,0.1,0.9-0.6,0.4-1c-4.9-3.5-9.4-7.8-13.6-12.1
						c-1.9-1.9-3.8-3.8-5.7-5.8c4.4,2.8,9,5.1,13.9,6.9c4.9,6,10.1,11.8,15.5,17.4c1.6,1.7,3.1,3.4,4.7,5.1
						c5.9,6.2,12.1,12.3,18.5,18c3.6,3.2,7.3,6.4,11.2,9.3c1.8,1.8,3.7,3.5,5.5,5.3c4.3,4.2,7.6,8.6,7.7,14.8
						c0.1,6.1-1.3,12.3-2.8,18.2c-1.1,4.3-2.4,8.6-4.1,12.8c-2,2.3-4.2,4.6-6.4,6.7c-1.8,1.7-3.7,3.4-5.6,5.1
						c-2,1.7-4.3,3.2-6.1,5.1c-1.4,1.4,0.4,3.6,2.1,2.7c2.3-1.2,4.3-3.2,6.3-4.9c1.7-1.5,3.4-3.1,5.1-4.7
						c-4.8,9.2-10.5,17.9-14.8,27.4c-4.7,10.3-7.4,21.5-4.4,32.8c2.7,10.2,9.3,18.7,15.5,27c6.2,8.5,12.5,17.3,14.1,28
						c1.5,10.1-1.1,20.2-6.6,28.7c-0.5,0.7-0.9,1.4-1.4,2.1c-1.9,2.6,1.3,7,4.4,5.7c1.1-0.5,2.2-0.9,3.4-1.4
						c11.7-5,24.6-11.3,28.4-24.2c0.6-2.1,0.9-4.2,1-6.3c2.5-3.1,4.5-6.8,5.9-9.9c0.4-0.8,0.7-1.6,1-2.4c1.5,2.8,2.7,5.8,3.5,8.9
						c3.2,12,0.7,24.7-5.8,35c-2.2,2.6-4.3,5.3-6.3,8c-0.2,0.3-0.4,0.5-0.6,0.8c-2.8,3.7,3.2,8,6.3,4.9c2.8-2.9,5.3-6,7.4-9.3
						c2.3-2.7,4.7-5.2,7.4-7.6c5.8-5.1,12.7-7.9,19.7-10.9c6.9-2.9,13.2-6.7,18.1-12.4c9.5-10.9,12.7-25.5,9.2-39.5
						c-1.9-7.5-5.5-14.4-10.2-20.5c-4.5-5.8-10.5-10.6-14.2-17.1c-7.9-13.6,2.5-28.9,10.2-39.9c8.5-12.2,17.5-25.5,15.1-41.2
						c-2-12.7-10.9-22.9-19.2-32.2c-3.1-5.2-6.4-10.3-9.2-15.7c-9.5-18.2-9-39.1-14.5-58.5c-5.3-18.6-16.6-33.9-32.5-44.8
						C272,72,253.2,66.5,234.2,65.3c-11.5-0.7-23,0.1-34.3,1.8c-1,0.2-2,0.3-3,0.5c-8.2,0.5-16.3,1.7-24.1,3.9
						c-26.6,7.5-47.2,27.4-59.4,51.9c-14,28.2-16.1,60.3-12.6,91.2c1.9,17.3,5.8,34,9.5,51c1.8,8.3,3.4,17,3.1,25.5
						c-0.1,2.4-0.3,4.8-0.7,7.1C110.7,302.9,108.7,307.6,107.1,312.4"/>
				</g>
				<g id="face_x2F_Smiling" transform="translate(112.183099, 77.354207)">
					<path id="_xD83D__xDD8D_-Ink_00000132047653343128486360000015784006965757847968_" class="st1" d="M131.2,161.4
						c-18.7,3.2-9,35.5,14.9,17.8c2.8-2.3-0.6-7.4-3.7-5.4c-3.3,2.5-10,8.2-14.7,3.3c-4-5.6,1.7-10.8,5.3-13
						C134,163.4,133.3,161.1,131.2,161.4z M176.4,153.4c-0.4,3.5-5.2,5.3-7.1,1.5c-2-4-2.8-8.2-2.1-12.6c0.8-5,8.5-3.9,8.9,1.2
						C176.2,146.6,176.8,148.7,176.4,153.4z M117.7,141.7c3.4,3.1,2.1,9.3-0.5,12.5c-1.6,1.9-5.2,1.4-6.3-0.8
						c-2-4-3.7-12.2,2.1-13.9c1.9-0.5,3.4,0.4,4.5,1.8C117.5,141.4,117.6,141.5,117.7,141.7z M177.9,124.3c5,2.5,10,6.7,12.6,11.8
						c0.3,0.6-0.3,1.3-0.9,0.9c-4.5-3-8.8-5.7-14-7.2c-2.4-0.7-4.8-1.1-7.3-1.2c-3-0.2-5.8,0.6-8.3-1.4c-1.4-1.2-1.1-3.4,0-4.6
						c2-2.3,5.5-1.8,8.4-1.3l0.9,0.2C172.3,121.8,175.2,122.9,177.9,124.3z M125,119.2c0.7,0.3,1.3,0.8,1.8,1.5
						c0.6,1,0.7,1.8,0.4,2.9c-0.2,0.8-0.7,1.5-1.3,1.9c-0.6,0.5-1.4,0.8-2.2,0.9c-3.8,0.4-7.6,1.3-11.2,2.5
						c-1.7,0.6-3.3,1.3-4.9,2.1l-1.4,0.7c-1.3,0.6-2.6,1.2-4.2,1.7c-0.1,0-0.3,0.1-0.4,0.1c-0.5-0.1-0.5-0.3-0.6-0.4l0,0
						c-0.1-0.1-0.3-0.4-0.1-1.4c3.6-7.5,13.5-10.7,21.2-12.3l0.7-0.1C123.5,118.9,124.3,118.9,125,119.2z M133.8,213.9
						c0-0.9,0.3-1.8,0.8-2.4c0.4-0.5,1.1-0.9,2-1c3.1-0.2,5.4,1.9,7.7,4c0.9,0.8,1.7,1.5,2.6,2.2c1.2,0.9,2.5,1.7,3.8,2.4
						c0.5,0.2,0.8,0.6,1.4,0.9c0.1,0.1,0.2,0.1,0.2,0.2c0.6,0.4,1.1,0.7,1.7,1.1c0.2,0.1,0.3,0.3,0.5,0.5c0.3,0.4,0.7,0.8,1.2,1.2
						c-0.1,0.4-0.4,0.7-0.8,0.8c-0.6,0.3-1.4,0.4-2.1,0.6c-2.3,0.2-4.6-0.4-6.7-1.1l-0.7-0.1c-2.5-0.7-6.1-2.1-8.5-4.2
						C134.9,217.5,133.7,215.9,133.8,213.9z"/>
				</g>
				<g id="facial-hair_x2F__x2A_-None" transform="translate(104.577451, 109.479380)">
				</g>
				<g id="accessories_x2F__x2A_-None" transform="translate(88.521127, 88.978474)">
				</g>
			</g>
		</g>
	</g>
</g>
</svg>
