<?xml version="1.0" encoding="utf-8"?>
<!-- Generator: Adobe Illustrator 16.0.0, SVG Export Plug-In . SVG Version: 6.00 Build 0)  -->
<!DOCTYPE svg PUBLIC "-//W3C//DTD SVG 1.1//EN" "http://www.w3.org/Graphics/SVG/1.1/DTD/svg11.dtd">
<svg version="1.1" id="Capa_1" xmlns="http://www.w3.org/2000/svg" xmlns:xlink="http://www.w3.org/1999/xlink" x="0px" y="0px"
	 width="500px" height="753px" viewBox="0 0 500 753" enable-background="new 0 0 500 753" xml:space="preserve">
<path fill="#626161" d="M733.573,584.637c1.09-75.32-24.019-88.416-36.571-132.629c-12.637-44.506,0.221-74.896-14.736-124.165
	c-13.918-45.847-39.201-53.593-46.939-118.712C622.23,98.878,503.243,42.116,444.296,42.116c-16.667,0-28.049,4.23-35.7,9.291
	c-8.853,5.857-20.168,5.857-29.023,0c-7.649-5.061-19.031-9.291-35.698-9.291c-58.948,0-177.931,56.762-191.031,167.015
	c-7.737,65.119-33.021,72.865-46.937,118.712c-14.958,49.269-2.098,79.657-14.738,124.165
	C78.617,496.221,53.511,509.322,54.6,584.637c1.266,87.346-49.121,106.975-29.473,164.832
	c14.666,43.176,93.879,78.596,93.879,78.596h550.162c0,0,79.214-35.416,93.876-78.596
	C782.693,691.611,732.307,671.982,733.573,584.637z"/>
<path fill="#626161" d="M394.085,55.8c-5.042,0-10.087-1.465-14.513-4.394c-7.649-5.061-19.031-9.291-35.698-9.291
	c-58.948,0-177.931,56.762-191.031,167.015c-7.737,65.119-33.021,72.865-46.937,118.712c-14.958,49.269-2.098,79.657-14.738,124.165
	C78.617,496.221,53.511,509.322,54.6,584.637c1.266,87.346-49.121,106.975-29.473,164.832
	c14.666,43.176,93.879,78.596,93.879,78.596h275.079V55.8z"/>
<path fill="#A8A8A8" d="M642.93,678.562l-135.291-47.746c-20.95-7.396-34.957-27.195-34.957-49.412v-67.721H315.489v67.721
	c0,22.217-14.008,42.016-34.958,49.412l-135.291,47.746c-31.421,11.094-52.436,40.793-52.436,74.117v101.584h602.56V752.68
	C695.364,719.355,674.354,689.656,642.93,678.562z"/>
<path fill="#9A9999" d="M642.93,678.562l-90.271-31.857c-35.533,49.105-83.887,103.264-140.172,133.271
	c-11.477,6.113-25.326,6.113-36.797,0c-56.288-30.008-104.646-84.166-140.173-133.271l-90.273,31.857
	c-31.424,11.094-52.436,40.797-52.436,74.117v101.584h602.56V752.68C695.364,719.359,674.354,689.656,642.93,678.562z"/>
<path fill="#7A7B7B" d="M315.489,562.422c24.185,10.693,50.761,16.756,78.596,16.756c27.837,0,54.412-6.062,78.597-16.756v-48.738
	H315.489V562.422L315.489,562.422z"/>
<path fill="#A5A5A4" d="M394.085,539.883L394.085,539.883c-94.048,0-170.288-76.238-170.288-170.289V146.909h340.577v222.685
	C564.374,463.645,488.132,539.883,394.085,539.883z"/>
<path fill="#7A7B7B" d="M223.797,146.909v222.685c0,94.044,76.24,170.289,170.288,170.289c8.931,0,17.636-0.896,26.199-2.219
	c-81.576-12.631-144.091-82.955-144.091-168.07v-24.77c0-23.682,7.496-46.491,20.055-66.566c0.064-0.104,0.131-0.208,0.195-0.312
	c18.717-30.033,33.961-33.873,57.037-39.688c11.855-2.986,26.23-6.61,40.604-14.563c14.373,7.954,28.751,11.578,40.608,14.563
	c23.072,5.815,38.318,9.655,57.029,39.688c23.866,38.289,51.687,57.909,71.999,72.235c0.231,0.163,0.421,0.3,0.652,0.465V146.909
	H223.797z"/>
<path fill="#9A9999" d="M697.002,452.008c-12.64-44.506,0.221-74.896-14.736-124.165c-13.918-45.847-39.201-53.593-46.939-118.712
	C622.23,98.878,503.243,42.116,444.296,42.116c-16.667,0-28.049,4.23-35.7,9.291c-4.428,2.929-9.47,4.394-14.511,4.394v117.308
	c33.838,42.57,84.055,8.731,130.989,84.051c39.896,64.02,89.999,62.402,107.621,112.876c5.05,14.468,2.312,29.925,3.519,45.199
	c6.753,85.354,72.251,124.648,101.693,213.719c-2.811-12.715-4.583-27.184-4.334-44.314
	C734.663,509.316,709.555,496.221,697.002,452.008z"/>
<path fill="#9A9999" d="M91.168,452.008c12.638-44.506-0.221-74.896,14.735-124.165c13.918-45.847,39.202-53.593,46.938-118.712
	C165.943,98.878,284.926,42.116,343.874,42.116c16.667,0,28.049,4.23,35.698,9.291c4.429,2.929,9.471,4.394,14.513,4.394v117.308
	c-33.838,42.57-84.054,8.731-130.991,84.051c-39.896,64.02-89.994,62.402-107.617,112.876c-5.052,14.468-2.312,29.925-3.52,45.199
	c-6.755,85.354-72.251,124.648-101.692,213.719c2.807-12.715,4.582-27.184,4.333-44.314
	C53.509,509.316,78.615,496.221,91.168,452.008z"/>
<path fill="#010202" d="M315.489,331.141c-6.767,0-12.256,5.485-12.256,12.255v13.099c0,6.771,5.489,12.257,12.256,12.257
	c6.77,0,12.256-5.486,12.256-12.257v-13.099C327.745,336.628,322.259,331.141,315.489,331.141z"/>
<path fill="#010202" d="M472.677,331.141c-6.769,0-12.255,5.485-12.255,12.255v13.099c0,6.771,5.486,12.257,12.255,12.257
	c6.773,0,12.257-5.486,12.257-12.257v-13.099C484.934,336.628,479.45,331.141,472.677,331.141z"/>
<path fill="#010202" d="M302.393,316.354h26.195c6.77,0,12.256-5.486,12.256-12.257c0-6.77-5.486-12.255-12.256-12.255h-26.195
	c-6.77,0-12.256,5.485-12.256,12.255C290.137,310.868,295.623,316.354,302.393,316.354z"/>
<path fill="#010202" d="M459.579,316.354h26.199c6.77,0,12.256-5.486,12.256-12.257c0-6.77-5.486-12.255-12.256-12.255h-26.199
	c-6.769,0-12.255,5.485-12.255,12.255C447.324,310.868,452.815,316.354,459.579,316.354z"/>
<path fill="#010202" d="M765.438,670.916c-9.462-21.805-20.186-46.518-19.612-86.1c0.775-53.475-11.178-77.811-22.731-101.346
	c-5.388-10.967-10.475-21.328-14.302-34.807c-5.601-19.732-5.798-36.678-6.006-54.619c-0.241-20.848-0.485-42.403-8.795-69.765
	c-5.964-19.649-13.791-32.697-21.361-45.313c-10.685-17.806-20.777-34.626-25.133-71.279
	c-7.865-66.177-49.648-109.042-83.318-133.344C526.745,47.321,479.687,29.86,444.301,29.86c-16.814,0-31.101,3.812-42.462,11.325
	c-4.779,3.167-10.722,3.167-15.503,0c-11.365-7.513-25.65-11.325-42.462-11.325c-35.391,0-82.448,17.46-119.882,44.483
	c-33.669,24.303-75.457,67.167-83.319,133.344c-4.355,36.652-14.447,53.473-25.132,71.279c-7.57,12.616-15.399,25.665-21.366,45.313
	c-8.305,27.362-8.554,48.919-8.793,69.765c-0.207,17.941-0.402,34.887-6.004,54.619c-3.83,13.479-8.916,23.84-14.298,34.807
	C53.521,507,41.57,531.342,42.346,584.816c0.574,39.582-10.152,64.297-19.613,86.1c-10.74,24.748-20.883,48.125-9.21,82.494
	c12.897,37.98,50.765,60.924,67.026,69.273v31.58c0,6.77,5.489,12.254,12.256,12.254c6.77,0,12.256-5.484,12.256-12.254V752.68
	c0-11.93,3.223-23.328,8.951-33.213l57.898,49.627c8.91,7.639,14.019,18.746,14.019,30.48v54.689c0,6.77,5.486,12.254,12.255,12.254
	c6.768,0,12.256-5.484,12.256-12.254v-54.689c0-18.898-8.229-36.795-22.577-49.09l-57.873-49.607
	c5.697-4.561,12.196-8.234,19.332-10.754l77.969-27.52c52.746,69.109,107.303,115.381,162.211,137.529
	c1.471,0.594,3.029,0.891,4.585,0.891c1.557,0,3.113-0.297,4.584-0.891c33.413-13.477,67.222-36.346,100.492-67.979
	c4.907-4.666,5.1-12.424,0.438-17.33c-4.666-4.904-12.424-5.098-17.331-0.436c-29.466,28.02-59.113,48.553-88.181,61.094
	c-57.962-25.018-108.184-77.701-142.459-121.471l32.984-11.643c25.8-9.104,43.135-33.607,43.135-60.965v-41.748
	c20.57,8.053,42.947,12.48,66.34,12.48c23.389,0,45.765-4.428,66.337-12.48v41.748c0,27.357,17.334,51.859,43.138,60.965
	l32.972,11.639c-6.848,8.752-13.772,17.188-20.701,25.158c-4.443,5.104-3.904,12.846,1.201,17.289c2.325,2.016,5.188,3.01,8.04,3.01
	c3.423,0,6.831-1.43,9.254-4.215c8.913-10.25,17.812-21.229,26.537-32.648l77.987,27.521c7.39,2.609,14.098,6.449,19.939,11.242
	l-57.312,49.119c-14.347,12.295-22.574,30.191-22.574,49.09v54.689c0,6.77,5.486,12.254,12.255,12.254s12.257-5.484,12.257-12.254
	v-54.689c0-11.738,5.11-22.844,14.015-30.48l57.117-48.953c5.486,9.725,8.562,20.879,8.562,32.543v101.58
	c0,6.77,5.486,12.254,12.255,12.254c6.771,0,12.257-5.484,12.257-12.254v-31.58c16.264-8.35,54.128-31.293,67.031-69.273
	C786.321,719.041,776.179,695.664,765.438,670.916z M751.441,745.529c-7.766,22.865-28.675,39.457-43.817,48.928V752.68
	c0-38.447-24.361-72.873-60.613-85.674L511.716,619.26c-16.019-5.654-26.779-20.867-26.779-37.855v-53.52
	c54.754-31.551,91.694-90.689,91.694-158.291v-43.402c0.897,0.638,1.798,1.268,2.68,1.889c26.342,18.578,43.743,30.85,47.078,73.042
	c0.506,6.42,5.87,11.289,12.202,11.289c0.322,0,0.649-0.012,0.981-0.037c6.744-0.531,11.785-6.436,11.25-13.184
	c-4.235-53.66-30.055-71.863-57.385-91.14c-19.475-13.733-39.611-27.937-57.959-57.373c-29.711-47.675-62.132-55.845-88.188-62.411
	c-12.603-3.174-23.326-5.889-32.674-12.425c-5.212-3.646-8.276-9.65-8.276-16.01v-25.508c0-6.71-5.167-12.564-11.876-12.765
	c-6.94-0.208-12.633,5.354-12.633,12.25v26.021c0,6.361-3.062,12.364-8.275,16.01c-9.347,6.537-20.072,9.251-32.674,12.426
	c-26.053,6.567-58.478,14.737-88.188,62.41c-18.347,29.438-38.482,43.641-57.958,57.373c-27.33,19.276-53.149,37.482-57.384,91.142
	c-0.533,6.748,4.504,12.65,11.253,13.184c6.757,0.541,12.648-4.508,13.181-11.256c3.332-42.188,20.734-54.462,47.077-73.04
	c19.454-13.72,43.665-30.794,64.633-64.44c24.482-39.286,48.234-45.271,73.376-51.607c16.034-4.042,32.513-8.193,47.215-21.157
	c14.699,12.967,31.179,17.117,47.214,21.157c25.146,6.336,48.892,12.321,73.375,51.607c11.925,19.133,24.896,32.902,37.445,43.748
	v60.189c0,87.004-69.473,159.198-156.474,160.04c-87.853,0.85-159.593-70.367-159.593-158.026v-4.4
	c0-6.707-5.171-12.562-11.879-12.762c-6.938-0.208-12.633,5.354-12.633,12.251v4.911c0,67.602,36.939,126.743,91.696,158.292v53.521
	c0,16.984-10.764,32.197-26.781,37.854l-135.292,47.748c-36.256,12.793-60.612,47.227-60.612,85.67v41.83
	c-15.124-9.432-36.01-25.988-43.818-48.98c-8.63-25.412-1.822-41.098,8.485-64.855c9.932-22.883,22.288-51.359,21.638-96.213
	c-0.69-47.602,9.47-68.287,20.227-90.188c5.626-11.461,11.445-23.307,15.876-38.914c6.496-22.875,6.719-42.271,6.936-61.029
	c0.23-20.01,0.447-38.912,7.739-62.928c5.086-16.757,11.811-27.961,18.927-39.825c11.544-19.237,23.481-39.13,28.456-81
	c6.812-57.344,43.634-94.929,73.324-116.36c38.123-27.52,80.473-39.839,105.53-39.839c11.92,0,21.657,2.441,28.938,7.256
	c12.922,8.547,29.624,8.55,42.55,0.001c7.28-4.816,17.015-7.257,28.939-7.257c34.771,0,78.057,20.011,105.529,39.844
	c29.691,21.431,66.518,59.015,73.33,116.362c4.973,41.867,16.91,61.763,28.451,80.999c7.116,11.863,13.84,23.066,18.927,39.825
	c7.292,24.017,7.513,42.916,7.741,62.925c0.216,18.76,0.441,38.158,6.933,61.035c4.433,15.605,10.25,27.455,15.88,38.91
	c10.752,21.904,20.915,42.592,20.225,90.189c-0.649,44.85,11.709,73.334,21.636,96.213
	C753.26,704.428,760.07,720.121,751.441,745.529z"/>
</svg>
