<?xml version="1.0" encoding="utf-8"?>
<!-- Generator: Adobe Illustrator 16.0.0, SVG Export Plug-In . SVG Version: 6.00 Build 0)  -->
<!DOCTYPE svg PUBLIC "-//W3C//DTD SVG 1.1//EN" "http://www.w3.org/Graphics/SVG/1.1/DTD/svg11.dtd">
<svg version="1.1" id="Capa_1" xmlns="http://www.w3.org/2000/svg" xmlns:xlink="http://www.w3.org/1999/xlink" x="0px" y="0px"
	 width="500px" height="753px" viewBox="0 0 500 753" enable-background="new 0 0 500 753" xml:space="preserve">
<g>
	<path fill="#626161" d="M569.385,394.938c8.751-11.334,13.982-25.535,13.982-40.96c0-28.722-18.074-53.233-43.476-62.774v-39.151
		c0-119.428-96.541-216.725-215.685-217.948l120.318,544.897h28.301c64.82,0,117.365-52.547,117.365-117.365
		C590.191,436.855,582.512,413.884,569.385,394.938z"/>
	<path fill="#9A9999" d="M522.99,394.938c10.646,18.947,16.901,41.917,16.901,66.698c0,64.819-42.688,117.365-95.368,117.365
		H171.026c-64.82,0-117.365-52.547-117.365-117.365c0-24.781,7.679-47.751,20.807-66.698c-8.751-11.334-13.983-25.535-13.983-40.96
		c0-28.722,18.074-53.233,43.476-62.774v-39.151c0-120.182,97.783-217.965,217.965-217.965c0.771,0,1.525,0,2.281,0.017
		c96.609,1.508,174.809,98.705,174.809,217.948v39.151c20.64,9.539,35.328,34.053,35.328,62.774
		C534.342,369.403,530.1,383.604,522.99,394.938z"/>
	<path fill="#474747" d="M439.375,537.186l-51.256,12.272l168.538,247.51h50.3C606.957,681.412,538.215,581.936,439.375,537.186z"/>
	<path fill="#626161" d="M438.421,549.458l-233.894-12.289C105.671,581.901,36.894,681.395,36.894,796.968h519.763
		C556.657,691.019,509.057,598.584,438.421,549.458z"/>
	<path fill="#7C7C7C" d="M324.96,511.952l113.459,37.506c0.62-4.091,0.939-8.182,0.956-12.272
		C404.417,521.357,365.721,512.372,324.96,511.952z"/>
	<path fill="#A8A8A8" d="M324.96,511.952c41.263,0.637,79.943,14.201,113.459,37.506c-2.497,16.936-9.809,33.869-19.617,49.948
		l-0.468-0.285l-96.408,50.3l-97.061-50.3c-12.105-19.902-20.338-41.111-20.338-61.952c35.796-16.213,75.551-25.234,117.398-25.234
		C322.932,511.935,323.955,511.935,324.96,511.952z"/>
	<path fill="#A8A8A8" d="M418.334,599.121l0.469,0.285c-33.684,55.195-96.877,100.313-96.877,100.313s-63.461-45.319-97.061-100.6
		L418.334,599.121L418.334,599.121z"/>
	<path fill="#7A7B7B" d="M481.913,201.753H450.19c-5.466,0-10.864-0.268-16.196-0.771l-0.067,0.771L321.926,461.635
		c92.602,0,167.666-75.064,167.666-167.665v-41.917C489.592,234.532,486.909,217.632,481.913,201.753z"/>
	<path fill="#A5A5A4" d="M439.292,252.053v41.917c0,92.601-52.547,167.665-117.366,167.665
		c-92.601,0-167.665-75.064-167.665-167.665v-41.917c0-17.521,2.683-34.422,7.679-50.3h31.723
		c51.457,0,97.513-23.188,128.263-59.672c27.481,32.611,67.201,54.593,112.068,58.901l-0.067,0.771
		C437.414,217.632,439.292,234.532,439.292,252.053z"/>
	<path fill="#7A7B7B" d="M799.773,436.252v112.102h-0.219l-47.566,33.532l16.768-176.652
		C785.891,405.232,799.773,419.115,799.773,436.252z"/>
	<path fill="#9A9999" d="M768.756,405.232v176.652h-47.182l16.768-151.703C741.158,415.946,753.698,405.232,768.756,405.232z"/>
	<path fill="#7A7B7B" d="M706.719,337.714l-16.768,244.172h47.768c0.018,0,0.018-213.153,0.018-213.153
		C737.736,351.614,723.854,337.714,706.719,337.714z"/>
	<path fill="#9A9999" d="M706.719,337.714v244.172h-47.785l16.768-213.153C675.701,351.614,689.584,337.714,706.719,337.714z"/>
	<path fill="#7A7B7B" d="M675.701,368.732v213.153h-47.785l16.767-288.268c17.136,0,31.019,13.883,31.019,31.019V368.732
		L675.701,368.732z"/>
	<path fill="#9A9999" d="M644.683,293.617v288.268h-47.785l16.768-213.656v-43.592C613.665,307.5,627.548,293.617,644.683,293.617z"
		/>
	<path fill="#7A7B7B" d="M613.665,368.229v213.656H565.88l16.767-244.675C599.782,337.211,613.665,351.11,613.665,368.229z"/>
	<path fill="#9A9999" d="M551.627,368.229v119.109l-33.532,94.547h64.551V337.211C565.51,337.211,551.627,351.11,551.627,368.229z"
		/>
	<path fill="#7A7B7B" d="M737.719,548.352l-92.266,248.616c85.628,0,154.32-68.693,154.32-154.32v-94.296H737.719z"/>
	<path fill="#9A9999" d="M737.719,642.647c0.117-46.527,0-94.296,0-94.296H518.095l127.358,248.616
		c51.256,0,92.385-68.693,92.385-154.32H737.719z"/>
	<path fill="#A8A8A8" d="M645.453,693.97v102.996c-85.627,0-155.744-69.414-155.744-155.04l-0.117-154.588
		c0-17.118,13.883-31.018,31.018-31.018s31.018,13.899,31.018,31.018v61.014v50.3h0.101
		C604.158,598.87,645.655,641.541,645.453,693.97z"/>
	<path fill="#010202" d="M290.07,260.437v-8.384c0-6.944-5.631-12.574-12.575-12.574h-33.533c-6.945,0-12.575,5.63-12.575,12.574
		s5.63,12.575,12.575,12.575h21.674c1.725,4.884,6.384,8.383,11.858,8.383C284.439,273.011,290.07,267.381,290.07,260.437z"/>
	<path fill="#010202" d="M399.891,239.479h-33.533c-6.944,0-12.574,5.63-12.574,12.574v8.384c0,6.944,5.63,12.574,12.574,12.574
		c5.477,0,10.134-3.498,11.859-8.383h21.674c6.944,0,12.574-5.631,12.574-12.575S406.835,239.479,399.891,239.479z"/>
	<path fill="#010202" d="M502.166,252.053c0-18.439-2.776-36.631-8.254-54.069c-1.646-5.24-6.504-8.805-11.996-8.805H450.19
		c-45.833,0-89.079-20.121-118.649-55.207c-2.389-2.835-5.906-4.471-9.615-4.471s-7.226,1.636-9.614,4.471
		c-29.569,35.086-72.815,55.207-118.649,55.207h-31.726c-5.493,0-10.352,3.566-11.996,8.805c-5.478,17.438-8.254,35.63-8.254,54.069
		v41.917c0,99.385,80.854,180.24,180.239,180.24c99.387,0,180.24-80.855,180.24-180.24V252.053L502.166,252.053z M477.018,293.97
		c0,85.518-69.573,155.091-155.092,155.091c-85.518,0-155.09-69.573-155.09-155.091v-41.917c0-12.798,1.551-25.447,4.618-37.725
		h22.209c48.49,0,94.486-19.378,128.263-53.609c33.778,34.231,79.774,53.609,128.265,53.609h22.21
		c3.065,12.277,4.617,24.929,4.617,37.725V293.97z"/>
	<path fill="#010202" d="M768.756,392.661c-6.589,0-12.838,1.478-18.443,4.106v-28.032c0-24.036-19.557-43.593-43.593-43.593
		c-6.589,0-12.837,1.478-18.442,4.106v-4.614c0-24.036-19.557-43.593-43.594-43.593c-24.035,0-43.592,19.557-43.592,43.593v4.112
		c-3.287-1.542-6.799-2.681-10.471-3.362c-7.047-18.317-20.647-33.438-38.151-42.363v-30.969
		c-0.003-127.12-103.423-230.54-230.544-230.54c-127.12,0-230.541,103.419-230.541,230.54v30.979
		c-26.323,13.469-43.474,40.96-43.474,70.953c0,14.717,3.938,28.784,11.462,41.17c-11.99,20.065-18.288,42.872-18.288,66.48
		c0,52.089,30.759,98.142,77.036,118.673c-57.706,54.314-93.802,131.347-93.802,216.66c0,6.944,5.63,12.574,12.575,12.574
		c6.944,0,12.575-5.63,12.575-12.574c0-103.997,58.576-194.556,144.46-240.459c3.272,16.444,10.394,32.673,19.621,48.072
		c0.333,0.688,0.723,1.337,1.168,1.948c34.468,56.199,96.298,100.853,99.899,103.424c2.188,1.561,4.746,2.341,7.307,2.341
		c2.559,0,5.121-0.78,7.306-2.341c4.628-3.305,105.396-76.094,120.715-153.582c9.307,4.973,18.361,10.512,27.128,16.603l0.05,68.957
		c0,92.421,75.511,167.609,168.325,167.609c44.771,0,86.736-17.306,118.163-48.729c31.431-31.425,48.737-73.389,48.737-118.158
		V436.255C812.348,412.219,792.792,392.661,768.756,392.661z M706.719,350.294c10.168,0,18.443,8.273,18.443,18.443v167.041h-36.887
		V368.737C688.275,358.566,696.549,350.294,706.719,350.294z M626.239,324.637c0-10.169,8.274-18.443,18.443-18.443
		s18.443,8.274,18.443,18.443v211.142h-36.887V324.637z M601.089,368.235v167.543h-36.887V368.235
		c0-9.783,7.663-17.791,17.302-18.387c0.244-0.005,0.488-0.019,0.734-0.037c0.137-0.003,0.269-0.02,0.407-0.02
		C592.814,349.792,601.089,358.066,601.089,368.235z M321.92,683.965c-14.613-11.356-48.16-39.065-73.394-72.269h146.758
		C370.047,644.884,336.519,672.606,321.92,683.965z M411.898,586.547H231.925c-7.508-13.534-12.807-27.487-14.352-41.245
		c32.158-13.383,67.406-20.791,104.353-20.791c36.314,0,71.592,7.043,104.365,20.655
		C424.762,558.961,419.443,572.962,411.898,586.547z M321.926,499.36c-43.1,0-84.082,9.221-121.097,25.775
		c-1,0.308-1.944,0.748-2.82,1.28c-20.747,9.54-40.212,21.4-58.071,35.241c-43.676-13.496-73.701-53.809-73.701-100.022
		c0-21.41,6.419-41.998,18.563-59.538c3.118-4.505,2.962-10.51-0.388-14.845c-7.426-9.611-11.351-21.114-11.351-33.268
		c0-22.571,14.197-43.072,35.324-51.016c4.902-1.843,8.15-6.532,8.15-11.77v-39.145c0-113.253,92.138-205.391,205.39-205.391
		c113.254,0,205.392,92.138,205.392,205.391v39.145c0,5.237,3.247,9.927,8.149,11.771c12.627,4.747,22.897,13.96,29.048,25.641
		c-15.01,6.893-25.462,22.057-25.462,39.626v79.623c-5.605-2.628-11.854-4.106-18.443-4.106c-24.036,0-43.592,19.557-43.592,43.603
		l0.038,55.575C430.448,514.357,377.29,499.36,321.926,499.36z M787.199,642.652c0,78.155-63.588,141.739-141.748,141.739
		c-78.948,0-143.177-63.908-143.177-142.471l-0.053-74.643c0.034-0.548,0.037-1.096-0.001-1.644l-0.055-78.292
		c0-10.169,8.275-18.443,18.443-18.443c10.17,0,18.443,8.274,18.443,18.443V598.65c0,6.925,5.699,12.547,12.625,12.574
		c44.957,0.182,81.381,37.273,81.2,82.684c-0.029,6.944,5.579,12.598,12.524,12.625c6.975,0,12.599-5.596,12.626-12.525
		c0.116-28.738-10.792-55.759-30.716-76.086c-17.072-17.419-39.099-28.211-63.105-31.076v-25.919h185.048
		c6.944,0,12.575-5.631,12.575-12.575c0-6.378-4.754-11.634-10.908-12.452V431.646c2.053-7.943,9.261-13.838,17.838-13.838
		c10.17,0,18.443,8.274,18.443,18.443v206.4H787.199L787.199,642.652z"/>
</g>
</svg>
