<?xml version="1.0" encoding="utf-8"?>
<!-- Generator: Adobe Illustrator 16.0.0, SVG Export Plug-In . SVG Version: 6.00 Build 0)  -->
<!DOCTYPE svg PUBLIC "-//W3C//DTD SVG 1.1//EN" "http://www.w3.org/Graphics/SVG/1.1/DTD/svg11.dtd">
<svg version="1.1" id="Capa_1" xmlns="http://www.w3.org/2000/svg" xmlns:xlink="http://www.w3.org/1999/xlink" x="0px" y="0px"
	 width="500px" height="753px" viewBox="0 0 500 753" enable-background="new 0 0 500 753" xml:space="preserve">
<path fill="#A5A5A4" d="M381.762,627.837l78.188-73.437l-31.042-5.767c-14.983-3.012-25.761-20.392-25.761-35.673v-68.103h-72.599
	l0,0h-72.597v68.103c0,15.283-10.779,32.663-25.76,35.673l-31.042,5.767l78.187,73.437
	C308.123,654.878,352.974,654.878,381.762,627.837z"/>
<path fill="#7A7B7B" d="M336.518,444.858v96.737c0,15.282,10.78,32.663,25.762,35.674l61.23,11.356l36.439-34.226l-31.042-5.767
	c-14.983-3.012-25.761-20.392-25.761-35.673v-68.103H336.518z"/>
<path fill="#EEEDED" d="M320.734,784.193L320.734,784.193L320.734,784.193z"/>
<path fill="#9A9999" d="M545.627,560.806l-110.366-20.5c-4.05-0.753-8.231,0.223-11.53,2.688l-93.183,69.646l-93.182-69.647
	c-3.299-2.467-7.48-3.441-11.53-2.689l-110.367,20.501c-55.518,16.347-93.637,67.308-93.637,125.182v132.287
	c0,15.143,12.274,27.417,27.417,27.417h562.597c15.143,0,27.418-12.274,27.418-27.417V685.987
	C639.265,628.113,601.146,577.152,545.627,560.806z"/>
<g>
	<path fill="#626161" d="M545.627,560.806l-110.366-20.5c-4.05-0.753-8.231,0.223-11.53,2.688l-48.936,36.577l105.03,19.51
		c55.519,16.347,93.636,31.681,93.636,89.557v157.055h38.387c15.143,0,27.417-12.274,27.417-27.417V685.987
		C639.265,628.113,601.146,577.152,545.627,560.806z"/>
	<path fill="#626161" d="M194.168,546.187l60.402,84.521c4.551,6.368,12.913,8.721,20.117,5.662l55.86-23.729l-93.182-69.647
		c-3.299-2.467-7.48-3.441-11.53-2.689L194.168,546.187z"/>
	<path fill="#626161" d="M466.928,546.187l-60.402,84.521c-4.551,6.368-12.912,8.721-20.116,5.662l-55.861-23.729l93.183-69.647
		c3.299-2.467,7.48-3.441,11.53-2.689L466.928,546.187z"/>
</g>
<path fill="#6E6E6D" d="M330.548,36.661c-117.104,0-212.035,81.014-212.035,126.792s94.931,78.492,212.035,78.492
	c117.104,0,212.036-32.713,212.036-78.492S447.652,36.661,330.548,36.661z"/>
<path fill="#626161" d="M330.548,36.661c-11.378,0-22.545,0.774-33.438,2.196c101.214,13.223,178.597,83.266,178.597,124.596
	s-77.383,72.007-178.597,77.579c10.894,0.599,22.061,0.912,33.438,0.912c117.104,0,212.036-32.714,212.036-78.492
	C542.584,117.673,447.652,36.661,330.548,36.661z"/>
<path fill="#A5A5A4" d="M482.161,291.255h-9.677V279.89v-27.163c0-38.353-15.746-75.518-44.81-100.542
	c-22.786-19.621-171.468-19.621-194.255,0c-29.063,25.025-44.81,62.189-44.81,100.542v27.163v11.365h-9.677
	c-14.188,0-25.688,11.501-25.688,25.688v28.468c0,14.188,11.501,25.688,25.688,25.688h9.716
	c0.801,37.282,16.467,73.167,44.77,97.538c22.787,19.62,54.816,36.746,97.127,37.217c42.311-0.473,74.34-17.599,97.126-37.217
	c28.304-24.371,43.971-60.256,44.771-97.538h9.716c14.188,0,25.688-11.502,25.688-25.688v-28.468
	C507.851,302.756,496.35,291.255,482.161,291.255z"/>
<path fill="#7A7B7B" d="M482.161,291.255h-9.677V279.89v-27.164c0-38.353-15.746-75.518-44.81-100.542
	c-14.345-12.352-78.584-16.925-129.899-13.724c30.193,1.884,55.916,6.457,64.356,13.724c29.063,25.024,44.81,62.189,44.81,100.542
	v27.164l-0.038,91.208c-0.801,37.281-16.466,73.167-44.77,97.537c-16.482,14.192-37.807,27.075-64.356,33.298
	c10.152,2.38,21.066,3.79,32.771,3.921c42.312-0.473,74.341-17.599,97.127-37.219c28.304-24.37,43.97-60.256,44.77-97.537h9.717
	c14.188,0,25.688-11.502,25.688-25.688v-28.468C507.851,302.756,496.35,291.255,482.161,291.255z"/>
<path fill="#010202" d="M167.089,205.703v88.445c0,0,21.711-0.492,35.662,13.316c2.906,2.876,7.844,0.774,7.844-3.313v-65.499
	h239.906v65.499c0,4.088,4.938,6.189,7.845,3.313c13.95-13.808,35.662-13.316,35.662-13.316v-88.445
	C494.008,150.922,167.089,150.922,167.089,205.703z"/>
<path fill="#6E6E6D" d="M330.548,277.757c-90.276,0-163.459-28.021-163.459-62.586h326.919
	C494.008,249.736,420.824,277.757,330.548,277.757z"/>
<path fill="#626161" d="M167.089,171.724v43.449h326.919v-42.994c0-11.662-7.901-21.83-19.201-24.717
	c-30.25-7.73-91.771-21.257-151.91-21.283c-55.423-0.022-109.675,13.251-137.195,20.984
	C174.691,150.259,167.089,160.288,167.089,171.724z"/>
<g>
	<polygon fill="#282D3A" points="330.548,612.641 286.619,631.301 312.301,661.154 348.795,661.154 374.478,631.301 	"/>
	<polygon fill="#282D3A" points="348.795,661.154 330.548,661.154 312.301,661.154 286.619,845.692 374.478,845.692 	"/>
</g>
<g>
	<path fill="#626161" d="M497.251,784.193h-64.314c-4.272,0-7.738-3.464-7.738-7.738v-34.264c0-4.272,3.464-7.737,7.738-7.737
		h64.314c4.272,0,7.738,3.463,7.738,7.737v34.264C504.989,780.728,501.525,784.193,497.251,784.193z"/>
	<path fill="#626161" d="M228.16,784.193h-64.315c-4.272,0-7.738-3.464-7.738-7.738v-34.264c0-4.272,3.464-7.737,7.738-7.737h64.315
		c4.273,0,7.738,3.463,7.738,7.737v34.264C235.898,780.728,232.433,784.193,228.16,784.193z"/>
</g>
<path fill="#A8A8A8" d="M46.651,641.67c12.06,9.724,29.719,7.829,39.443-4.23l13.291-16.484c9.724-12.061,7.83-29.719-4.23-39.443
	l-9.528-7.683c-22.809,13.562-40.799,33.719-51.784,57.513L46.651,641.67z"/>
<path fill="#A8A8A8" d="M627.254,631.342c-10.983-23.794-28.973-43.95-51.784-57.513l-9.53,7.683
	c-12.059,9.725-13.953,27.384-4.229,39.443L575,637.439c9.725,12.06,27.385,13.954,39.443,4.23L627.254,631.342z"/>
<g>
	<path fill="#193D4C" d="M550.786,722.239c-6.745,0-12.213,5.467-12.213,12.213v111.24h24.426v-111.24
		C562.998,727.706,557.53,722.239,550.786,722.239z"/>
	<path fill="#193D4C" d="M110.31,722.239c-6.746,0-12.213,5.467-12.213,12.213v111.24h24.426v-111.24
		C122.523,727.706,117.056,722.239,110.31,722.239z"/>
</g>
</svg>
