<?xml version="1.0" encoding="utf-8"?>
<!-- Generator: Adobe Illustrator 26.3.1, SVG Export Plug-In . SVG Version: 6.00 Build 0)  -->
<svg version="1.1" id="Capa_1" xmlns="http://www.w3.org/2000/svg" xmlns:xlink="http://www.w3.org/1999/xlink" x="0px" y="0px"
	 viewBox="0 0 500 632.8" style="enable-background:new 0 0 500 632.8;" xml:space="preserve">
<style type="text/css">
	.st0{fill-rule:evenodd;clip-rule:evenodd;fill:#FFFFFF;}
	.st1{fill-rule:evenodd;clip-rule:evenodd;}
</style>
<g>
	<g id="head_x2F_mono_x2F_Short-2">
		<path id="_xD83C__xDFA8_-Background_00000096761104486319474730000005322466660964363930_" class="st0" d="M185.5,219
			c-16.3,42.6-7,116.9,40.3,135.5c22,6.4,45.9-3.1,63.6-16.3c11.4-8.7,19.7-19.7,26.3-32.3c1.4-2.7,2.9-5.6,5.1-7.8
			c2.9-3,6.8-3.5,10.6-4.5c9.5,0.5,16.6-0.4,17.3-11.6c5.2-6.9,1-17.6-7.8-18.1c-6.4-14.5-13.5-28.8-20.6-43
			c-3.3-49.8-67.4-56.5-104.4-40.3c-1.7-3.8-7.3-4.9-10.7-2.5c-3.8-1.2-7.7,2.3-7.5,6.3c-2.3,4.9-4.7,9.7-7,14.6
			C188.1,202.7,180.2,215.2,185.5,219L185.5,219z"/>
		<path id="_xD83D__xDD8D_-Ink_00000136388362828768762510000011261960658105621166_" class="st1" d="M346.9,210.6
			c2.1,8.6,3.1,17.5,2.5,26.3c-0.3,4.3-0.9,8.6-2,12.8c-0.8,2.9-1.8,5.9-3.3,8.6c1.1,0.6,2.2,1.3,3.1,2.1c8.7,7.7,7.8,22.1,0.1,30.1
			c-5.6,5.8-14.4,7.1-22.1,6.6c-0.2,0-0.5-0.1-0.8-0.1c-0.2,0.6-0.4,1.1-0.6,1.7c-0.8,1.9-1.7,3.8-2.6,5.6c-1.5,3.3-3.3,6.5-5.1,9.6
			l-1,1.7c-3.5,6.1-7.3,13-13,17.2c-2.7,2-6.8,3.8-10,2.3c-1.9-0.9-3.2-3-2.7-5.1c0.6-2.1,2.4-3.1,4.4-3.6c5.8-1.4,9.2-8,12.5-12.5
			l0.3-0.4c2.8-3.8,5.9-7.5,9.1-11c1.1-1.2,2.2-2.3,3.4-3.5l1.7-1.7c0.5-0.5,1-1,1.5-1.4c-0.1-0.2-0.3-0.3-0.3-0.5
			c-0.6-1.4-0.7-2.4,0-3.8c0.6-1.2,2-1.8,3.2-1.8c6.4-0.3,13.5,0.2,17.9-5.3c3-3.8,3.9-9,2.6-13.6c-1.4-5-5.9-8.1-10.8-9.1
			c-5.4-1.1-10.6,0.1-15.3,2.9c-0.2,0.1-0.5-0.1-0.4-0.4c0.5-1.1,1.1-2.1,1.8-3l-0.4-0.3l0,0.1c-0.1,0.1-0.2,0.2-0.4,0.2
			c-3.4,0.5-6.6,1.4-9.4,3.4c-0.3,0.2-0.6,0.5-0.9,0.7c-1.5,1.3-4.4,0.6-4.3-1.8c0.3-7.1,1.7-14.2,2.3-21.2
			c0.6-7.3,0.8-14.6,0.6-21.9l0-0.2c-0.1-2.6,0.1-5.6-1.8-7.6c-1.6-1.7-15.6,0-21.4-3c-2.9-1.5-2.2-5.3,0-6.9c3.5-2.6,6.4-10.7,2-15
			c-4.1-4-10.9-5.7-16.4-6.5l-0.5-0.1c-13.4-1.9-27.1,1.1-40.5,2.3c-3.8,0.3-7.6,0.6-11.3,0.6l-0.5,0c-3.6,0-7.4-0.1-10.5-1.9
			c-1.8-0.2-3.4-0.7-5.1-1.3c-7.5,11.2-12.8,24.1-15.9,37.3c-3.2,13.7-3.7,27.8-3.4,41.8c0.7,28.6,3.8,64,29.9,81.6
			c6.8,4.6,14.3,7.1,22.6,7.4c4.7,0.1,9.3-0.4,13.8-1.4c4.7-1,9.1-3,13.8-3.7c3.9-0.6,6.3,4.1,2.7,6.5c-3.4,2.3-7.6,3.5-11.7,4.5
			l-1.1,0.3c-4.4,1.1-9,1.8-13.5,2.1c-8.6,0.6-17.2-0.8-25.1-4.2c-13.8-5.9-24.8-18.3-31-31.8c-7.7-16.8-9.5-35.4-10-53.7l0-0.8
			c-0.4-15.2,0-30.5,3-45.4c1.7-8.4,4.3-16.4,8.3-23.9c3.7-7,9.2-12.8,15.8-17.1c-0.4-0.2-0.9-0.3-1.3-0.5c-0.4,0.5-0.7,1-1.1,1.5
			l-0.8,1c-0.5,0.7-1.6,0.5-2.2,0c-0.5-0.6-0.6-1.6,0-2.2c0.6-0.5,1.2-1,1.8-1.5c-1.3-1.4-1.5-3.6,0-5.2
			c21.5-23.7,56.2-33.4,87.1-26.2C315.7,154,339.2,179.6,346.9,210.6z M339.4,275.3c-0.7-4.6-7.2-0.3-9.1,0.6l-0.5,0.2
			c-2.5,1.1-5.1,2.1-7.4,3.5l-0.1,0.1c-4.3,2.3-6.8-5.4-2.4-6.1l0.1,0c3.9-0.6,21.5-7.1,20,1.7C339.9,275.5,339.5,275.5,339.4,275.3
			z"/>
	</g>
	<g id="body_x2F_mono_x2F_Tee-2">
		<path id="_xD83C__xDFA8_-Background" class="st0" d="M473.4,589.9l-4.4,88l-369.6-0.6l0.5-1.8c8.2-29.2,12.3-50.5,12.3-63.9v-0.4
			c0.1-13.5,3-39.2,8.8-77.1l0.4-2.4L468.5,504L473.4,589.9z M300.1,325.9c3.3,10.9,4.8,25,12.7,33.3c7.8,8.1,21.5,8.2,44.4,13.2
			l1.4,0.3c15.8,3.5,24.8,39.8,27,108.8c-169,2.6-253.6-0.4-253.6-8.9c0-12.8,25.9-68,33.8-81.5c7.9-13.5,35.5-8.4,48.5-14
			c12.9-5.7,16.9-42.5,19.3-51.1c1.1-3.9,15.3-9.9,29.4-10.6C280.4,314.4,298.2,319.9,300.1,325.9z"/>
		<path id="_xD83D__xDD8D_-Ink" class="st1" d="M233.2,340l0.1,1.3c0.1,1.6,0.1,3.2,0,4.8c-0.3,4-0.9,8.2-1.9,12.1
			s-2.3,7.6-3.9,11.4l-0.1,0.2c-1.6,3.8-3.2,8.4-7.4,9.9c-0.9,0.3-1.8,0.3-2.7,0c3.7,15.8,16.9,28.9,32.4,33.7
			c21.1,6.6,45.8,0.4,62.7-13.5c4.6-3.8,8.4-8.3,11.2-13.5c2.7-4.9,5.3-9.7,9.3-13.5c-0.7-1.3-0.7-3,0.6-4.3
			c0.4-0.4,0.8-0.8,1.3-1.2l0,0c-0.2,0-0.2-0.3,0-0.3l0,0l0.7-0.1l0,0l0.2-0.1c2.8-1.9,6.2-2.6,9.1-0.9c3.5,0.1,7,0.6,10.5,1.2
			c7,1.2,13.7,3.5,20.2,6.5c13.1,6,25,14.4,35.9,23.8c20.5,17.8,37.2,40.1,48.8,64.6c3.3,7,6.2,14.1,8.7,21.4s5.3,15.1,5.9,22.8
			c0.2,2.3-1.3,3.6-3.1,3.9c-0.5,0.8-1.2,1.5-1.9,2.1l-0.4,0.3c1.2,4,1.7,8.3,2.5,12.3l0.3,1.7c0.8,4.6,1.5,9.3,2.2,14l0.2,1.2
			c1.6,10.4,2.9,20.9,3.4,31.4c1.2,22,0.6,43.9-1.6,65.8c-0.6,6.3-1.4,12.7-2.3,19l-0.1,0.7c-0.8,5.9-1.2,12.2-2.8,17.9
			c-1.3,4.8-9.4,4-9-1.2c0.4-5.5,1.8-10.8,2.6-16.3c0.7-5.3,1.4-10.6,1.9-15.9c1.2-10.8,2-21.6,2.5-32.4c1.1-21.6,1-43.3,0.5-64.9
			c-0.1-5-0.4-9.9-0.8-14.8l-0.2-3c-0.2-3.1-0.5-6.2-0.7-9.3c-0.1-1.6-0.3-3.2-0.4-4.7c-2,1.5-4.2,2.7-6.4,3.7
			c-5.7,2.6-11.8,4.5-17.9,6.2l-1.4,0.4c-6.5,1.9-13.1,3.6-19.8,5c-3.3,0.7-6.7,1.4-10,2c-2.1,0.4-4.6,1.2-7,1.4v2.8v1.5
			c0,2.5-0.1,5-0.2,7.5l-0.1,3c0,0.3,0,0.7,0,1v1.1c0.4,3.1,0.7,6.2,1.1,9.4c1.1,10,2,20,2.3,30.1c0.6,19.8,0.1,39.5-1.2,59.2
			c-0.4,5.6-0.9,11.1-1.4,16.7l-0.2,1.8c-0.5,5-1.2,10.6-4,14.7c-1.2,1.8-3.5,1.4-4.4-0.3c-3.2-0.7-6.7-0.4-10-0.3h-0.7
			c-4.1,0.2-8.3,0.3-12.4,0.4c-8.5,0.2-17.1,0.2-25.6,0.2c-17.1,0-34.2-0.3-51.3-0.5l-11.4-0.1c-30.4-0.4-60.8-0.9-91.2-1.3
			c-9.7-0.1-19.4-0.2-29-0.3l0,0l-21.3-0.2c-1.6,0-2.8-0.2-4-0.7c-0.1,0.2-0.2,0.4-0.3,0.5c-1.1,2-3.9,2.7-5.9,1.5
			c-1.1-0.6-1.7-1.6-1.9-2.6l0,0c-0.7-3.5,0.5-7.3,1.1-10.8c0.6-3.4,1.1-6.9,1.6-10.3c0.9-6.8,1.8-13.7,2.6-20.5
			c1.6-13.9,3.2-27.7,4.3-41.6c1.2-13.8,2.1-27.7,3-41.5c-2.8,0-5.6-0.3-8.3-0.7c-1.7,0.1-3.3-0.5-4.9-0.9l-0.5-0.1l-0.5-0.1
			l-0.7-0.2c-1.1-0.3-2.2-0.6-3.3-0.9c-0.1,0-0.1,0-0.2-0.1c-1.7-0.5-3.4-1-5.1-1.5l-0.2-0.1l0,0l-0.2-0.1
			c1.3,15.5,0.7,31.1-0.4,46.6l-0.1,0.9c-1.2,17.4-2.1,34.9-6.3,51.9c-1.2,4.7-2.5,9.4-4.1,14l-0.3,1c-0.6,1.9-1.2,3.9-1.7,5.8
			c-0.3,1.2-0.7,2.4-1,3.6l-0.2,0.5c-0.1,0.2-0.1,0.3-0.2,0.5c-0.2,0.4-0.3,0.8-0.5,1.2c-0.1,0.5-0.2,1-0.5,1.4
			c-1.3,2.2-4.2,2.6-6.3,1.5c-2.6-1.4-3.6-4.5-2.9-7.2c0.6-2.4,1.6-4.7,2.4-7c0.9-2.7,1.6-5.4,2.4-8.1l0.3-1.1
			c1.3-4.6,2.5-9.3,3.5-14c4.2-20.6,4.5-41.8,7.2-62.5c1.3-10.1,3.1-20.1,5.6-30c-5.3-1.7-10.5-3.5-15.7-5.4c-2.8-1-5-3.9-4-7
			c4.6-14.3,9.4-28.4,14-42.7c4.4-13.5,8.6-27,13.2-40.4c8.3-24.3,20.9-47.2,39.7-65.6c10.3-10.2,48.1-19.3,49.8-17.4
			c0.6,0.3,1.2,0.8,1.6,1.5c0.1,0.2-0.1,0.4-0.3,0.3c-0.1-0.1-0.2-0.1-0.3-0.2c0.1,0.3,0.2,0.6,0.2,0.9c0.8-1,1.3-2.4,1.9-3.4
			c0.8-1.5,1.7-3,2.4-4.5c1.6-3.1,3-6.3,4.3-9.5c1.3-3.1,2.4-6.3,3.6-9.5c0.6-1.6,1.2-3.2,1.8-4.8c0.4-1.1,0.6-2.2,1.7-2.7
			c0.1,0,0.1,0,0.2,0C233.1,337.6,233.1,338.8,233.2,340z M303.8,337.2c1.4,3.7,3.1,7.2,5.1,10.6c3.7,6.2,9,12.2,15.6,15.5
			c6.3,2,1.4,12.4-4,8.5c-0.9-0.7-1.9-1.3-2.8-2c-6.5-5-12.1-10.8-15.7-18.4c-3.5-7.3-5.9-17.8-2.2-25.4c0.1-0.2,0.3-0.1,0.4,0
			C301.7,329.7,302.5,333.5,303.8,337.2z"/>
	</g>
	<g id="face_x2F_Smile">
		<path id="_xD83D__xDD8D_-Ink_00000013908376678114052320000017266040288959633564_" class="st1" d="M220,257.4
			c-18.6,3.2-9,35.2,14.8,17.7c2.8-2.3-0.6-7.3-3.6-5.4c-3.3,2.5-10,8.1-14.6,3.2c-3.9-5.5,1.6-10.7,5.3-12.9
			C222.8,259.3,222,257,220,257.4z M264.8,249.5c-0.4,3.5-5.2,5.3-7.1,1.4c-2-4-2.8-8.1-2.1-12.5c0.8-5,8.4-3.8,8.8,1.2
			C264.6,242.7,265.3,244.8,264.8,249.5z M206.5,237.8c3.3,3.1,2.1,9.3-0.5,12.4c-1.6,1.9-5.2,1.4-6.3-0.8c-2-4-3.7-12.2,2-13.8
			c1.8-0.5,3.4,0.4,4.4,1.8C206.3,237.5,206.4,237.7,206.5,237.8z M266.3,220.6c5,2.5,10,6.6,12.5,11.7c0.3,0.5-0.3,1.3-0.9,0.9
			c-4.4-3-8.7-5.7-13.9-7.2c-2.4-0.7-4.7-1.1-7.2-1.2c-3-0.2-5.7,0.6-8.2-1.4c-1.4-1.1-1.1-3.4,0-4.6c2-2.3,5.5-1.8,8.3-1.3l0.9,0.2
			C260.7,218.1,263.6,219.2,266.3,220.6z M213.8,215.5c0.7,0.3,1.3,0.8,1.8,1.5c0.6,1,0.7,1.8,0.4,2.8c-0.2,0.8-0.7,1.4-1.2,1.9
			c-0.6,0.5-1.4,0.7-2.2,0.8c-3.8,0.4-7.5,1.3-11.1,2.5c-1.7,0.6-3.3,1.3-4.9,2.1l-1.4,0.7c-1.3,0.6-2.6,1.2-4.2,1.6
			c-0.1,0-0.3,0.1-0.4,0.1c-0.5-0.1-0.5-0.3-0.6-0.4l0,0c-0.1-0.1-0.3-0.4-0.1-1.4c3.6-7.4,13.4-10.6,21-12.2l0.7-0.1
			C212.3,215.2,213.1,215.3,213.8,215.5z"/>
	</g>
	<path class="st1" d="M206,319.8c0.9,0.2,2.1,0,3.1,0c2.1,0,4.3,0.1,6.4,0.4c2.1,0.2,4.2,0.6,6.2,1.2c2,0.5,4.2,1,5.9,2.2
		c0.6,0.4,0.7,1.6-0.2,1.7c-2.2,0.4-4.6,0-6.8-0.1c-2.5-0.1-4.9,0-7.4,0.1c-2.4,0.1-4.8,0.6-7.1,0.7c-2.1,0.1-4.6-0.7-5.1-3
		c-0.4-2.2,1.3-4.1,3.6-3.6C205,319.4,205.5,319.7,206,319.8z"/>
	<g id="accessories_x2F_Glasses">
		<path id="_xD83D__xDD8D_-Ink_00000181804452154965426620000003411141343640235698_" class="st1" d="M185.4,242.2
			c-1.3-8-1.6-17.6,10-17.3c6.1-0.1,12.2,0.2,17.4,3.5c5.1,3.1,6.8,9.1,6.8,14.7c-0.1,1.3,0.4,1.9,1.2,2.3
			C216,271,189.2,268.1,185.4,242.2 M224.9,230.9c-1.2,0.1-2.9,0-4.1,0.6c-1.3-2.5-3.2-4.6-5.3-6.1c8.8,0.7,17.8,1.5,26.5,1.3
			c-2.3,1.4-4.7,3.9-5.6,6.3C233.1,230.9,228.6,230.7,224.9,230.9 M240.9,244.9c-5.5-14,4-18,17.3-18.2c7.3,0.1,16-1,22.1,3.3
			c4.3,4.8,3.4,22.6-1.6,30C276.1,264.4,251,279.5,240.9,244.9 M173.5,229c-5.5,2.6,6.3,5.5,7.7,2.8c-1.4,10.2,2.6,27.1,13.9,32.4
			c13.1,6.4,27.3-3.3,26.8-19c2.8-0.7,0.9-8.6-0.3-11.8c4.9-0.8,9.7-1.2,14.4,0.3c-2.6,7.4,6.7,29.7,15.7,34.1
			c7,4.8,22.7,2.7,28.9-4.8c4.5-5.7,6.7-19,4.2-28.2c0,0,0,0,0.1,0c0.1,1.4,10.1,1.3,9.6-1.2c14.4,0.3,28.3,2.5,42.5,4
			c3.2,0.3,0.7,4.2,3.1,4.9c4.2,0.1,2.3-7.3-1.4-7.9c-14.7-1.5-29.9-5-44.6-2.5c-2-2.5-6.1-0.7-8.4-0.3c-1.9-11.2-32.3-10.5-42.4-6
			c-10.8-1.2-22-1.9-32.7-2.8c-6.8-2.2-14.6-3.3-21.7-1.2c-1.1-0.1-1.1,0.2-1.4,0.6c-2.8,1.2-5.2,4-6,7.3
			C179.1,228.6,176.2,228.6,173.5,229"/>
	</g>
</g>
<g id="facial-hair_x2F_Full-3">
	<path id="_xD83D__xDD8D_-Ink_00000148625250528987777700000004375198640804501950_" class="st1" d="M211.5,314
		c-3.2,2-5.6-1.8-5.4-4.4c0.2-3.8,3.8-11.1,8.6-13c9.9-2,27.2,1.4,23,13.9c-1,2.2-4,5.2-7,4.3c-2.3-0.7-2.9-4.1-4.3-5.6
		C220.3,303.7,215.7,310.6,211.5,314 M180.1,294.8c-4.8,20.7-6,44.6,3.9,64.2c28.6,23.7,90.5,14.6,115.3-11.2
		c19-11.5,17.1-37.9,15.1-56.8c-1.2-9.4-1-19.8-5.7-28.4c0.4-2.1-3-3.7-4-1.5c-5.1,10.5-10.3,21.3-18.4,30.2
		c-7.6,9.7-30.7,22.8-35.3,4.1c-5.8-11.7-27.9-13.8-40.1-12c-15.8,3.7-8.2,18.7-23.8,17.2c-0.2,0-0.4,0.1-0.6,0.1
		c-0.9-1.2-1.6-2.8-2.3-4.2c0.1-0.3,0.2-0.6,0.2-0.9c-0.9-1.2-2.4-1.9-4.2-1.2C180.2,294.5,180.1,294.6,180.1,294.8"/>
</g>
</svg>
