<svg xmlns="http://www.w3.org/2000/svg" width="660" height="500" viewBox="0 0 660 500"><defs><style>.a{fill:#223749;}.b{fill:#c0272d;}.c{fill:#faaf3b;}.d{fill:#8bc53f;}.e{fill:none;stroke:#000;stroke-miterlimit:10;stroke-width:0.53px;opacity:0.63;}</style></defs><path class="a" d="M11.1,66.4v-26H21.3q9.6,0,9.6,8.4c0,5-3.2,8.9-10.3,8.9H17.2v8.7Zm6.1-21v7.3h3c3.7,0,4.6-2.3,4.6-3.9s-1.7-3.4-4.3-3.4Z"/><path class="a" d="M41.6,45.9c7.5,0,10.1,4.6,10.1,10.4s-3.8,10.4-9.9,10.4-10-4.5-10-10.4S35.4,45.9,41.6,45.9Zm.1,16c2.4,0,3.8-2.2,3.8-5.3s-1-5.9-3.8-5.9S38,52.5,38,55.9,38.9,61.9,41.7,61.9Z"/><path class="a" d="M54.1,46.3h4.3L59.9,49a5.3,5.3,0,0,1,4.9-3.1,5.2,5.2,0,0,1,2.1.4l-1,5.1-1.5-.2a6.6,6.6,0,0,0-4.1,1.5V66.4H54.1Z"/><path class="a" d="M77.1,46.3h4.6L82.8,48a8.5,8.5,0,0,1,5.7-2.1c4.4,0,8,3.1,8,10.1s-4.8,10.7-9.9,10.7a13.8,13.8,0,0,1-3.4-.5v8H77.1Zm6.2,15.1A5.6,5.6,0,0,0,86,62c2.4,0,4.1-2,4.1-5.7S88.5,51,86.2,51a4.9,4.9,0,0,0-2.9.8Z"/><path class="a" d="M105,60.4c0,1,.5,1.5,1.4,1.5h.6l.9,3.7a6.1,6.1,0,0,1-3.8,1.2c-3.3,0-5.2-2.1-5.2-5.5V36.4H105Z"/><path class="a" d="M109.7,47.7a15.7,15.7,0,0,1,7.4-1.8c7.1,0,8.7,3.4,8.7,8.9v5.8a1.2,1.2,0,0,0,1.3,1.3h.7l.9,3.7a6.7,6.7,0,0,1-3.9,1.2c-2.5,0-4-.9-4.7-2.5-.7,1.3-2.8,2.5-5.6,2.5s-6-1.4-6-5.5,5.2-6.6,11.1-6.6c0-2.2-.8-3.5-3.4-3.5a13,13,0,0,0-5.1,1.1Zm9.9,10.2c-2.7.1-4.9.6-4.9,2.4a1.8,1.8,0,0,0,2,1.8,4,4,0,0,0,2.9-1.3Z"/><path class="a" d="M137.9,51.2h-8.7V46.3h16.1l.2,4.2-8.8,11h8.9v4.9H129v-4Z"/><path class="a" d="M156.6,45.9c7.5,0,10.1,4.6,10.1,10.4s-3.8,10.4-10,10.4-9.9-4.5-9.9-10.4S150.4,45.9,156.6,45.9Zm.1,16c2.3,0,3.7-2.2,3.7-5.3s-1-5.9-3.7-5.9-3.8,1.8-3.8,5.2S153.9,61.9,156.7,61.9Z"/><path class="a" d="M63.9,151.6a12.7,12.7,0,0,1,5.4,1.2l-1.5,3.4a8.2,8.2,0,0,0-4-.9c-2.4,0-5.4,1.4-5.4,5.7s2.3,5.6,5.5,5.6a8.9,8.9,0,0,0,4.1-1l1.3,3.2a11.9,11.9,0,0,1-6.1,1.5c-3.9,0-9.5-1.8-9.5-9.5C53.7,155.4,57.5,151.6,63.9,151.6Z"/><path class="a" d="M78.7,155.8c5.7,0,7.7,3.1,7.7,7.2s-2.9,7.3-7.6,7.3-7.7-3.1-7.7-7.3S73.9,155.8,78.7,155.8Zm0,11.1c1.9,0,2.9-1.5,2.9-3.7s-.8-4.1-2.9-4.1-2.8,1.3-2.8,3.7S76.6,166.9,78.7,166.9Z"/><path class="a" d="M89,156h3.2l1.2,1.9a4.1,4.1,0,0,1,3.7-2.1,3,3,0,0,1,1.6.3l-.7,3.5H96.8a5,5,0,0,0-3.1,1v9.6H89Z"/><path class="a" d="M102.2,156v-2.5l4.6-1.1V156h3.9v3.3h-3.9v5.6c0,1,.7,1.5,1.8,1.5l1.4-.2.8,3.2a8.1,8.1,0,0,1-4,.9c-2.8,0-4.7-1.6-4.7-4.5v-6.5H99.7V156Z"/><path class="a" d="M119.8,155.8c5.7,0,7.7,3.1,7.7,7.2s-2.9,7.3-7.6,7.3-7.6-3.1-7.6-7.3S115,155.8,119.8,155.8Zm0,11.1c1.9,0,2.9-1.5,2.9-3.7s-.7-4.1-2.9-4.1-2.8,1.3-2.8,3.7S117.7,166.9,119.8,166.9Z"/><path class="a" d="M217.1,39.1l.2-1.7h4.2V24.2h-.2l-4.2,1.9-.7-1.5,5.4-2.4h1.8V37.4h3.5l-.2,1.7Z"/><path class="a" d="M240.2,38.2a8.2,8.2,0,0,1-4.2,1.1c-3.6,0-6-2.5-6-6.5s2.3-6.8,5.7-6.8,4.8,2.3,4.8,5.2a15,15,0,0,1-.2,2h-8.1c.1,2.1,1.2,4.3,4.2,4.3a6.8,6.8,0,0,0,3.2-.8Zm-1.8-6.4a2.2,2.2,0,0,0,.1-.8c0-1.9-.9-3.2-2.9-3.2s-3.3,2-3.4,4Z"/><path class="a" d="M243.8,39.1V26.2h1.3l.6,1.8a4.6,4.6,0,0,1,3.9-2,2,2,0,0,1,1.1.2l-.4,1.8h-1a4.2,4.2,0,0,0-3.4,1.7v9.5Z"/><path class="a" d="M227.5,69.5a3,3,0,0,1-1.5.4,2.2,2.2,0,0,1-2.2-1.5,5.6,5.6,0,0,1-3.9,1.5c-2.1,0-3.7-1.2-3.7-3.3s3.3-4,7.6-4c0-2.3,0-4.3-2.9-4.3a7.6,7.6,0,0,0-3.3.8l-.6-1.6a9.3,9.3,0,0,1,4.2-1c4,0,4.7,2.2,4.7,5.7v4.6c0,.9.1,1.4.9,1.4h.4Zm-3.7-5.6c-3.3,0-5.5.5-5.5,2.5a2,2,0,0,0,2.1,1.8,4.8,4.8,0,0,0,3.4-1.3Z"/><path class="a" d="M238.3,69.6V60.9c0-2.1-1.1-2.6-2.5-2.6a6.1,6.1,0,0,0-3.5,1.3v10h-2.1V56.8h1.3l.8,1.2a6.1,6.1,0,0,1,3.9-1.5c3.2,0,4.1,1.9,4.1,4.4v8.7Zm1.3-18.3v.3a2.3,2.3,0,0,1-2.6,2.6c-1.7,0-2.2-1.4-3.3-1.4s-1.1,1.4-1.1,1.4h-1.3v-.4a2.3,2.3,0,0,1,2.6-2.4c1.7,0,2.2,1.3,3.1,1.3s1.2-.4,1.2-1.4Z"/><path class="a" d="M249.7,56.5c4,0,5.9,3,5.9,6.7s-2.4,6.7-6.1,6.7-5.9-3-5.9-6.7S246,56.5,249.7,56.5Zm-.1,11.6c2.6,0,3.8-2.2,3.8-4.9s-1.2-4.9-3.8-4.9-3.9,2.2-3.9,4.9S246.9,68.1,249.6,68.1Z"/><path class="a" d="M252,150.1a20.6,20.6,0,0,1,8.9-2.3c7.3,0,10.2,2.9,10.2,6.5,0,2-1,4.4-4.3,5.9,3.6.5,5.8,2.8,5.8,5.8,0,5.1-5,8.6-12.6,8.6a16.7,16.7,0,0,1-8.5-1.9l2.1-4.6a18.9,18.9,0,0,0,6.4,1.4c3.2,0,5.4-1,5.4-3.2s-3.2-2.9-5.8-2.9l-3.2.2v-5.1h2.3c3.5,0,5.6-.8,5.6-3.2s-1.9-2.5-4.3-2.5a14,14,0,0,0-6.3,1.5Z"/><path class="a" d="M298.1,152.6l-8.9,21.6h-7l8.5-21h-7.4v6.2H277V148.2h21.1Z"/><path class="a" d="M304.9,174.2V163.6h1l.5,1.5a3.8,3.8,0,0,1,3.2-1.7l.9.2-.3,1.5h-.9a3.6,3.6,0,0,0-2.7,1.4v7.8Z"/><path class="a" d="M319,173.4a5.7,5.7,0,0,1-3.4,1c-3,0-4.9-2.1-4.9-5.4s1.8-5.6,4.6-5.6,3.9,2,3.9,4.3a9.7,9.7,0,0,1-.1,1.7h-6.6a3.2,3.2,0,0,0,3.4,3.5,4.7,4.7,0,0,0,2.6-.7Zm-1.4-5.1v-.8c0-1.5-.7-2.6-2.4-2.6s-2.7,1.7-2.7,3.4Z"/><path class="a" d="M328.6,173.6a6.1,6.1,0,0,1-3.1.8c-2.6,0-4.8-1.9-4.8-5.4s2.2-5.6,5.3-5.6a5.9,5.9,0,0,1,2.6.6l-.5,1.4a4.1,4.1,0,0,0-2.1-.5c-2.1,0-3.6,1.3-3.6,4.1s1.6,3.9,3.4,3.9a4.6,4.6,0,0,0,2.4-.6Z"/><path class="a" d="M334.3,163.4c3.4,0,4.9,2.5,4.9,5.5s-2,5.5-5,5.5-4.8-2.5-4.8-5.5S331.3,163.4,334.3,163.4Zm0,9.5c2.1,0,3.1-1.8,3.1-4s-1-4-3.1-4-3.2,1.8-3.2,4S332.1,172.9,334.3,172.9Z"/><path class="a" d="M353.6,174.2V167a1.8,1.8,0,0,0-2-2.1,3.6,3.6,0,0,0-2.4,1.1v8.2h-1.7V167c0-1.6-.8-2.1-2.1-2.1A3.9,3.9,0,0,0,343,166v8.2h-1.7V163.6h1.1l.6,1a4.1,4.1,0,0,1,2.8-1.2,3,3,0,0,1,2.9,1.4,5.5,5.5,0,0,1,3.3-1.4c2.3,0,3.3,1.4,3.3,3.6v7.2Z"/><path class="a" d="M365.7,173.4a5.7,5.7,0,0,1-3.4,1c-3,0-4.9-2.1-4.9-5.4s1.8-5.6,4.6-5.6,3.9,2,3.9,4.3a9.7,9.7,0,0,1-.1,1.7h-6.6a3.2,3.2,0,0,0,3.4,3.5,4.7,4.7,0,0,0,2.6-.7Zm-1.4-5.1v-.8c0-1.5-.7-2.6-2.4-2.6s-2.7,1.7-2.7,3.4Z"/><path class="a" d="M374.7,174.2V167c0-1.7-.9-2.1-2-2.1a4.2,4.2,0,0,0-2.8,1.1v8.2h-1.7V163.6h1l.6,1a5.8,5.8,0,0,1,3.2-1.2c2.7,0,3.4,1.6,3.4,3.6v7.2Z"/><path class="a" d="M386.3,174.2l-.4-1a4.5,4.5,0,0,1-2.9,1.2c-2.7,0-4.5-2.2-4.5-5.2s2-5.8,4.9-5.8a5.1,5.1,0,0,1,2.4.6v-5.5h1.7v15.7Zm-.5-8.8a4.9,4.9,0,0,0-2.2-.5c-2.1,0-3.4,1.5-3.4,4.1s1.3,3.9,3.1,3.9a3.8,3.8,0,0,0,2.5-1Z"/><path class="a" d="M398.9,174a2.5,2.5,0,0,1-1.3.4,1.9,1.9,0,0,1-1.8-1.2,4.5,4.5,0,0,1-3.2,1.2,2.7,2.7,0,0,1-3-2.7c0-2.7,2.7-3.3,6.2-3.3,0-1.9,0-3.5-2.3-3.5a7.3,7.3,0,0,0-2.8.6l-.4-1.3a8.5,8.5,0,0,1,3.4-.8c3.3,0,3.8,1.8,3.8,4.7v3.8c0,.7.1,1.1.7,1.1h.4Zm-3.1-4.5c-2.7,0-4.5.4-4.5,2A1.6,1.6,0,0,0,393,173a3.9,3.9,0,0,0,2.8-1.1Z"/><path class="a" d="M407.7,173.6a6.1,6.1,0,0,1-3.1.8c-2.6,0-4.8-1.9-4.8-5.4s2.2-5.6,5.3-5.6a5.9,5.9,0,0,1,2.6.6l-.5,1.4a4.1,4.1,0,0,0-2.1-.5c-2.2,0-3.6,1.3-3.6,4.1s1.6,3.9,3.4,3.9a4.6,4.6,0,0,0,2.4-.6Z"/><path class="a" d="M410.2,161.5a1.1,1.1,0,0,1,0-2.2,1,1,0,0,1,1.1,1.1A1,1,0,0,1,410.2,161.5Zm2.2,12.5a2.2,2.2,0,0,1-1.3.4c-1.4,0-1.8-1-1.8-2.2v-8.6H411v8.5c0,.4.1.8.7.8h.4Z"/><path class="a" d="M418.4,163.4c3.3,0,4.8,2.5,4.8,5.5s-1.9,5.5-5,5.5-4.8-2.5-4.8-5.5S415.3,163.4,418.4,163.4Zm-.1,9.5c2.1,0,3.1-1.8,3.1-4s-1-4-3.1-4-3.2,1.8-3.2,4S416.1,172.9,418.3,172.9Z"/><path class="a" d="M431.9,174.2V167c0-1.7-.9-2.1-2-2.1A4.7,4.7,0,0,0,427,166v8.2h-1.7V163.6h1.1l.6,1a5.5,5.5,0,0,1,3.2-1.2c2.7,0,3.4,1.6,3.4,3.6v7.2Z"/><path class="a" d="M444,173.4a6.1,6.1,0,0,1-3.5,1c-2.9,0-4.9-2.1-4.9-5.4s1.9-5.6,4.7-5.6,3.9,2,3.9,4.3a9.9,9.9,0,0,1-.2,1.7h-6.6c.1,1.7,1,3.5,3.4,3.5a5.1,5.1,0,0,0,2.7-.7Zm-1.5-5.1a2.2,2.2,0,0,0,.1-.8c0-1.5-.7-2.6-2.4-2.6s-2.7,1.7-2.8,3.4Z"/><path class="a" d="M446.3,172.3a6.7,6.7,0,0,0,2.7.7c1.6,0,2.2-.8,2.2-1.7,0-2.5-5.2-1.2-5.2-4.8,0-1.9,1.5-3.1,3.7-3.1a6.3,6.3,0,0,1,2.9.6l-.5,1.3a7.3,7.3,0,0,0-2.3-.4c-1.5,0-2.2.6-2.2,1.5s5.3,1.1,5.3,4.7c0,1.7-1.3,3.3-4,3.3a6.4,6.4,0,0,1-3.1-.8Z"/><rect class="b" x="137.5" y="146.6" width="98" height="30.13"/><rect class="c" x="137.5" y="262.9" width="231.5" height="30.13"/><rect class="d" x="137.5" y="379.2" width="322" height="30.13"/><path class="a" d="M27.7,270.5h5.9v18.2H29.4V276.2L25,286.1H20.9l-4.4-9.9v12.5H12.2V270.5h5.9l4.8,10.8Z"/><path class="a" d="M41.5,282.7c.2,1.4,1.7,2.5,3.8,2.5a8.8,8.8,0,0,0,4-.9l.9,3.4a11.3,11.3,0,0,1-5.4,1.2c-4.7,0-8.1-2.2-8.1-7s2.9-7.5,7.4-7.5,6.5,3,6.5,5.9a18.7,18.7,0,0,1-.2,2.4Zm4.5-2.3v-.5a1.8,1.8,0,0,0-2.1-2,2.4,2.4,0,0,0-2.5,2.5Z"/><path class="a" d="M67.4,288.7H63.8l-.9-1.2s-1,1.4-3.8,1.4-6.6-2.3-6.6-7.2,3.2-7.3,7.6-7.3a13.3,13.3,0,0,1,2.6.3v-7h4.7Zm-4.8-10.6a5.1,5.1,0,0,0-2.1-.4c-1.8,0-3.1,1.4-3.1,3.9s1.2,3.7,2.9,3.7a4.6,4.6,0,0,0,2.3-.5Z"/><path class="a" d="M75.6,270.8c0,1.4-.8,2.3-2.6,2.3a2.1,2.1,0,0,1-2.4-2.3c0-1.4.6-2.2,2.4-2.2S75.6,269.4,75.6,270.8Zm-.2,13.7a.9.9,0,0,0,1,1h.5l.7,2.7a4.8,4.8,0,0,1-2.9.8c-2.5,0-4-1.4-4-3.9V274.6h4.7Z"/><path class="a" d="M79.7,275.6a13.5,13.5,0,0,1,5.7-1.2c5.4,0,6.6,2.3,6.6,6.2v4c0,.6.4.9,1,.9h.6l.6,2.7a5.9,5.9,0,0,1-2.9.8c-1.9,0-3.1-.6-3.6-1.7a5.6,5.6,0,0,1-4.3,1.7c-2.1,0-4.6-1-4.6-3.9s4-4.5,8.5-4.5c0-1.6-.7-2.5-2.6-2.5a12.8,12.8,0,0,0-3.9.7Zm7.6,7.2c-2.1.1-3.8.4-3.8,1.6s.5,1.3,1.6,1.3a3.2,3.2,0,0,0,2.2-.9Z"/><path class="a" d="M96,274.6h3.6l.8,1.2a6.6,6.6,0,0,1,4.3-1.4c3.6,0,5.2,1.9,5.2,4.9v9.4h-4.7v-8.8a1.9,1.9,0,0,0-2.1-2.1,4.3,4.3,0,0,0-2.4.8v10.1H96Z"/><path class="a" d="M119.8,274.4c5.7,0,7.7,3.2,7.7,7.2s-2.9,7.3-7.6,7.3-7.6-3.1-7.6-7.3S115,274.4,119.8,274.4Zm0,11.1c1.9,0,2.9-1.5,2.9-3.7s-.7-4.1-2.9-4.1-2.8,1.3-2.8,3.7S117.7,285.5,119.8,285.5Z"/><path class="a" d="M317,39.1H305.9V37.3s8-6.4,8-10.5c0-2-1.5-2.9-3.4-2.9a8.3,8.3,0,0,0-3.8,1l-.6-1.4a8.6,8.6,0,0,1,4.7-1.3c3.5,0,5.1,1.7,5.1,4.5s-1.2,3.9-2.6,5.8a44.7,44.7,0,0,1-4.8,4.9h8.6Z"/><path class="a" d="M337.3,38.9a3.4,3.4,0,0,1-1.6.4,2.1,2.1,0,0,1-2.1-1.5,5.7,5.7,0,0,1-4,1.5c-2.1,0-3.6-1.2-3.6-3.3s3.3-4,7.5-4c0-2.3,0-4.2-2.8-4.2a8.2,8.2,0,0,0-3.4.7l-.5-1.6A10.1,10.1,0,0,1,331,26c3.9,0,4.6,2.1,4.6,5.6v4.6c0,.9.1,1.4.9,1.4h.5Zm-3.8-5.6c-3.2,0-5.4.6-5.4,2.5a1.8,1.8,0,0,0,2,1.8,4.8,4.8,0,0,0,3.4-1.3Z"/><path class="a" d="M346.4,36.7a6.7,6.7,0,0,0,3.5.8c2.8,0,4.3-1.4,4.3-3.2s-1.4-3-3.9-3h-1.9V29.6h1.9c1.4,0,3.3-1.1,3.3-2.9s-1.3-2.7-3.6-2.7a7.7,7.7,0,0,0-3.4.7l-.6-1.3a8.2,8.2,0,0,1,4.4-1.1c4.6,0,5.4,2.6,5.4,4.2a4.2,4.2,0,0,1-2.7,3.7h.1a3.9,3.9,0,0,1,3.2,4c0,3.2-2.9,5.2-6.6,5.2a8.8,8.8,0,0,1-4.1-1Z"/><path class="a" d="M317.4,69.5a3,3,0,0,1-1.5.4,2.1,2.1,0,0,1-2.2-1.5,5.9,5.9,0,0,1-4,1.5,3.3,3.3,0,0,1-3.6-3.3c0-3.3,3.3-4,7.6-4,0-2.3-.1-4.3-2.9-4.3a8.5,8.5,0,0,0-3.4.8l-.5-1.6a8.6,8.6,0,0,1,4.2-1c4,0,4.6,2.2,4.6,5.7v4.6c0,.9.1,1.4.9,1.4h.5Zm-3.7-5.6c-3.3,0-5.5.5-5.5,2.5a1.9,1.9,0,0,0,2.1,1.8,5.1,5.1,0,0,0,3.4-1.3Z"/><path class="a" d="M328.1,69.6V60.9c0-2.1-1.1-2.6-2.5-2.6a6.1,6.1,0,0,0-3.4,1.3v10h-2.1V56.8h1.3l.7,1.2a6.6,6.6,0,0,1,4-1.5c3.2,0,4.1,1.9,4.1,4.4v8.7Zm1.4-18.3v.3c0,1.6-.8,2.6-2.7,2.6s-2.2-1.4-3.2-1.4-1.1,1.4-1.1,1.4h-1.3v-.4a2.3,2.3,0,0,1,2.6-2.4c1.7,0,2.2,1.3,3.1,1.3s1.2-.4,1.2-1.4Z"/><path class="a" d="M339.5,56.5c4.1,0,5.9,3,5.9,6.7s-2.3,6.7-6,6.7-5.9-3-5.9-6.7S335.8,56.5,339.5,56.5Zm-.1,11.6c2.7,0,3.9-2.2,3.9-4.9s-1.2-4.9-3.9-4.9-3.8,2.2-3.8,4.9S336.8,68.1,339.4,68.1Z"/><path class="a" d="M348.5,67.4a7.6,7.6,0,0,0,3.3.8c2,0,2.7-1,2.7-2,0-3.1-6.3-1.5-6.3-5.9,0-2.3,1.8-3.8,4.5-3.8a8.4,8.4,0,0,1,3.5.7l-.6,1.7a5.8,5.8,0,0,0-2.8-.6c-1.8,0-2.6.8-2.6,1.8,0,2.9,6.4,1.4,6.4,5.8,0,2.1-1.6,4-4.9,4a6.6,6.6,0,0,1-3.8-1Z"/><path class="a" d="M378.4,264.9a22.6,22.6,0,0,1,10-2.7c7.2,0,9.9,3.3,9.9,7.8,0,6.6-7.8,11.8-10.4,13.5H400l-.2,5h-21v-4c4.7-3.1,12.4-9.7,12.4-13.9,0-1.9-1.4-3-4.2-3a15,15,0,0,0-6.8,1.9Z"/><path class="a" d="M419.8,275.1c2.7,1.1,5,2.9,5,6s-4,7.8-10.8,7.8-10.6-2.8-10.6-7.4c0-2.5,2.3-5.1,5.2-6.2-2.5-1.2-4.4-3.4-4.4-6.2s3.1-6.9,10-6.9,10,2.2,10.1,6.8C424.3,271.7,421.8,274.1,419.8,275.1Zm-5.8,9c1.8,0,3.8-1,3.8-2.8s-2.2-3-4.2-3.7c-2.4,1.3-3.2,2.3-3.2,3.8S411.7,284.1,414,284.1Zm.7-11c1-.6,2.7-2,2.7-3.6s-1.4-2.6-3.3-2.6-3.1.9-3.1,2.5S412.5,272.3,414.7,273.1Z"/><path class="a" d="M438.7,288.5V278h1.1l.5,1.4a3.8,3.8,0,0,1,3.1-1.6,1.6,1.6,0,0,1,1,.2l-.3,1.5h-.9a3.6,3.6,0,0,0-2.8,1.4v7.7Z"/><path class="a" d="M452.9,287.8a6.1,6.1,0,0,1-3.5.9c-3,0-4.9-2-4.9-5.3s1.9-5.6,4.7-5.6,3.9,2,3.9,4.2a8.8,8.8,0,0,1-.2,1.7h-6.6c.1,1.7,1,3.5,3.4,3.5a6.3,6.3,0,0,0,2.7-.6Zm-1.5-5.2a1.7,1.7,0,0,0,.1-.7,2.3,2.3,0,0,0-2.4-2.6c-1.9,0-2.7,1.7-2.8,3.3Z"/><path class="a" d="M462.4,288a5.5,5.5,0,0,1-3,.7c-2.6,0-4.9-1.8-4.9-5.3s2.3-5.6,5.3-5.6a5.5,5.5,0,0,1,2.6.6l-.4,1.3a4.6,4.6,0,0,0-2.2-.4c-2.1,0-3.5,1.2-3.5,4.1s1.6,3.8,3.4,3.8a4.4,4.4,0,0,0,2.3-.5Z"/><path class="a" d="M468.2,277.8c3.3,0,4.8,2.4,4.8,5.5s-1.9,5.4-4.9,5.4-4.8-2.4-4.8-5.4S465.2,277.8,468.2,277.8Zm-.1,9.4c2.2,0,3.2-1.8,3.2-3.9s-1-4-3.2-4-3.1,1.8-3.1,4S466,287.2,468.1,287.2Z"/><path class="a" d="M487.5,288.5v-7.2c0-1.4-.7-2-2.1-2a3.9,3.9,0,0,0-2.4,1.1v8.1h-1.7v-7.2c0-1.5-.7-2-2-2a3.6,3.6,0,0,0-2.4,1.1v8.1h-1.7V278h1l.6,1a4.5,4.5,0,0,1,2.9-1.2,3,3,0,0,1,2.9,1.4,5.5,5.5,0,0,1,3.2-1.4c2.3,0,3.4,1.3,3.4,3.5v7.2Z"/><path class="a" d="M499.6,287.8a6.1,6.1,0,0,1-3.5.9c-3,0-4.9-2-4.9-5.3s1.9-5.6,4.7-5.6,3.9,2,3.9,4.2a8.8,8.8,0,0,1-.2,1.7H493a3.3,3.3,0,0,0,3.4,3.5,6.3,6.3,0,0,0,2.7-.6Zm-1.5-5.2c0-.2.1-.5.1-.7a2.3,2.3,0,0,0-2.4-2.6c-1.9,0-2.7,1.7-2.8,3.3Z"/><path class="a" d="M508.6,288.5v-7.2c0-1.6-.9-2-2.1-2a5,5,0,0,0-2.8,1v8.2H502V278h1l.7,1a4.9,4.9,0,0,1,3.2-1.2c2.7,0,3.4,1.5,3.4,3.5v7.2Z"/><path class="a" d="M520.2,288.5l-.5-1a4.5,4.5,0,0,1-2.9,1.2c-2.6,0-4.5-2.2-4.5-5.2s2-5.7,5-5.7a5.7,5.7,0,0,1,2.3.5v-5.5h1.7v15.7Zm-.6-8.7a4.2,4.2,0,0,0-2.1-.5c-2.1,0-3.4,1.5-3.4,4s1.2,3.9,3,3.9a3.8,3.8,0,0,0,2.5-1Z"/><path class="a" d="M532.7,288.4a2.1,2.1,0,0,1-1.2.3,1.8,1.8,0,0,1-1.8-1.2,4.8,4.8,0,0,1-3.3,1.2c-1.7,0-3-1-3-2.6s2.8-3.4,6.3-3.4c0-1.8-.1-3.4-2.4-3.4a5.4,5.4,0,0,0-2.7.6l-.5-1.3a7.5,7.5,0,0,1,3.5-.8c3.2,0,3.8,1.8,3.8,4.6v3.8c0,.7,0,1.1.7,1.1h.4Zm-3-4.6c-2.7,0-4.5.5-4.5,2a1.5,1.5,0,0,0,1.7,1.5,3.9,3.9,0,0,0,2.8-1.1Z"/><path class="a" d="M541.5,288a5.9,5.9,0,0,1-3.1.7c-2.5,0-4.8-1.8-4.8-5.3s2.3-5.6,5.3-5.6a5.5,5.5,0,0,1,2.6.6l-.4,1.3a4.6,4.6,0,0,0-2.2-.4c-2.1,0-3.5,1.2-3.5,4.1s1.5,3.8,3.4,3.8a4.4,4.4,0,0,0,2.3-.5Z"/><path class="a" d="M544.1,275.8a1,1,0,0,1-1.1-1.1,1.1,1.1,0,0,1,1.1-1.1,1.1,1.1,0,0,1,1.1,1.2A1.1,1.1,0,0,1,544.1,275.8Zm2.1,12.6a2.5,2.5,0,0,1-1.2.3c-1.4,0-1.8-.9-1.8-2.1V278h1.6v8.4c0,.5.1.9.8.9h.4Z"/><path class="a" d="M552.2,277.8c3.3,0,4.8,2.4,4.8,5.5s-1.9,5.4-4.9,5.4-4.8-2.4-4.8-5.4S549.2,277.8,552.2,277.8Zm-.1,9.4c2.2,0,3.2-1.8,3.2-3.9s-1-4-3.2-4-3.1,1.8-3.1,4S550,287.2,552.1,287.2Z"/><path class="a" d="M565.8,288.5v-7.2c0-1.6-.9-2-2.1-2a5,5,0,0,0-2.8,1v8.2h-1.7V278h1l.7,1a4.9,4.9,0,0,1,3.2-1.2c2.6,0,3.4,1.5,3.4,3.5v7.2Z"/><path class="a" d="M577.8,287.8a5.5,5.5,0,0,1-3.4.9c-3,0-4.9-2-4.9-5.3s1.8-5.6,4.6-5.6,4,2,4,4.2a8.8,8.8,0,0,1-.2,1.7h-6.6a3.3,3.3,0,0,0,3.4,3.5,6.7,6.7,0,0,0,2.7-.6Zm-1.4-5.2v-.7c0-1.5-.7-2.6-2.3-2.6s-2.8,1.7-2.8,3.3Z"/><path class="a" d="M580.1,286.7a7.2,7.2,0,0,0,2.7.6c1.6,0,2.3-.7,2.3-1.6,0-2.5-5.2-1.2-5.2-4.8,0-1.9,1.4-3.1,3.7-3.1a5.8,5.8,0,0,1,2.8.6l-.5,1.3a4.9,4.9,0,0,0-2.3-.5c-1.4,0-2.1.7-2.1,1.5,0,2.4,5.2,1.1,5.2,4.7,0,1.8-1.2,3.3-3.9,3.3a6.6,6.6,0,0,1-3.2-.7Z"/><path class="a" d="M55.6,386.8h4.7v14.7h7.5l-.2,3.5h-12Z"/><path class="a" d="M70.3,391.9a13.5,13.5,0,0,1,5.7-1.2c5.4,0,6.6,2.3,6.6,6.2v4c0,.6.4.9,1,.9h.6l.6,2.7a5.9,5.9,0,0,1-2.9.8q-2.9,0-3.6-1.8a5.3,5.3,0,0,1-4.3,1.8c-2.1,0-4.6-1-4.6-3.9s4-4.5,8.5-4.5c0-1.6-.7-2.5-2.6-2.5a10.4,10.4,0,0,0-3.9.7Zm7.6,7.2c-2.1,0-3.8.4-3.8,1.6s.5,1.3,1.6,1.3a3.4,3.4,0,0,0,2.2-.9Z"/><path class="a" d="M86.6,390.9h3.3l1.1,1.9a4.1,4.1,0,0,1,3.7-2.1l1.7.2-.8,3.6H94.5a5.1,5.1,0,0,0-3.2,1V405H86.6Z"/><path class="a" d="M111.3,390.9v3.6h-2.8a2.9,2.9,0,0,1,.4,1.4c0,1.6-.8,5-6.2,5h-.9c0,.1-.2.2-.2.5s.4.4,1.5.4c3.8,0,7.1,1,7.1,4s-2.8,5.2-7.3,5.2-6.6-1.4-6.6-4.2,3-3.7,3-3.7-1.2-.9-1.2-2l1.1-1.1a4.1,4.1,0,0,1-2.5-4.1c0-2.5,1.8-5.1,6-5.1a15.1,15.1,0,0,1,3.2.4Zm-9.6,13.9c-.4.3-1,.8-1,1.4s1,1.5,2.3,1.5,2.6-.6,2.6-1.6-.9-1.2-2.5-1.2Zm-.8-9.1a1.8,1.8,0,0,0,1.9,1.9,1.9,1.9,0,0,0,2-1.9,1.8,1.8,0,0,0-2-1.9A1.8,1.8,0,0,0,100.9,395.7Z"/><path class="a" d="M119.8,390.7c5.7,0,7.7,3.1,7.7,7.2s-2.9,7.3-7.6,7.3-7.6-3.1-7.6-7.3S115,390.7,119.8,390.7Zm0,11.1c1.9,0,2.9-1.5,2.9-3.7s-.7-4.1-2.9-4.1-2.8,1.2-2.8,3.7S117.7,401.8,119.8,401.8Z"/><path class="a" d="M399.4,39.1V30.3a2.2,2.2,0,0,0-2.5-2.5,4.4,4.4,0,0,0-2.9,1.3v10h-2.1V30.3c0-1.9-.9-2.5-2.5-2.5a4.4,4.4,0,0,0-2.9,1.3v10h-2.1V26.2h1.2l.8,1.2a5.3,5.3,0,0,1,3.4-1.4c2.4,0,3.2,1,3.6,1.6a6.8,6.8,0,0,1,4-1.6c2.8,0,4.1,1.6,4.1,4.3v8.8Z"/><path class="a" d="M415.9,38.9a3.8,3.8,0,0,1-1.6.4,2.3,2.3,0,0,1-2.2-1.5,5.2,5.2,0,0,1-3.9,1.5c-2.1,0-3.7-1.2-3.7-3.3s3.3-4,7.6-4c0-2.3,0-4.2-2.9-4.2a7.7,7.7,0,0,0-3.3.7l-.5-1.6a10,10,0,0,1,4.1-.9c4,0,4.7,2.1,4.7,5.6v4.6c0,.9.1,1.4.9,1.4h.4Zm-3.8-5.6c-3.3,0-5.5.6-5.5,2.5a1.9,1.9,0,0,0,2.1,1.8,4.8,4.8,0,0,0,3.4-1.3ZM408,23.9l2.3-3.8h2.3l-2.9,3.8Z"/><path class="a" d="M418.3,36.8a8.4,8.4,0,0,0,3.3.8c2,0,2.8-.9,2.8-2,0-3.1-6.4-1.5-6.4-5.9,0-2.3,1.8-3.7,4.6-3.7a6.6,6.6,0,0,1,3.4.7l-.5,1.6a7.8,7.8,0,0,0-2.9-.6c-1.8,0-2.6.8-2.6,1.8,0,2.9,6.4,1.4,6.4,5.8,0,2.1-1.5,4-4.8,4a8.3,8.3,0,0,1-3.9-.9Z"/><path class="a" d="M444.6,39.1l-.5-1.2a5.8,5.8,0,0,1-3.6,1.4c-3.2,0-5.5-2.7-5.5-6.3s2.5-7,6.1-7a7.1,7.1,0,0,1,2.9.6V19.9h2.1V39.1ZM444,28.4a6.1,6.1,0,0,0-2.7-.6c-2.6,0-4.1,1.8-4.1,4.9s1.5,4.8,3.7,4.8a4.8,4.8,0,0,0,3.1-1.3Z"/><path class="a" d="M459.5,38.2a7.9,7.9,0,0,1-4.2,1.1c-3.6,0-6-2.5-6-6.5S451.6,26,455,26s4.8,2.3,4.8,5.2a15,15,0,0,1-.2,2h-8.1c.1,2.1,1.2,4.3,4.2,4.3a7.6,7.6,0,0,0,3.3-.8Zm-1.7-6.4V31c0-1.9-.9-3.2-2.9-3.2s-3.3,2-3.3,4Z"/><path class="a" d="M469.6,36.7a6.7,6.7,0,0,0,3.5.8c2.8,0,4.3-1.4,4.3-3.2s-1.4-3-3.9-3h-1.9V29.6h1.9c1.4,0,3.3-1.1,3.3-2.9s-1.3-2.7-3.6-2.7a7.7,7.7,0,0,0-3.4.7l-.6-1.3a8.2,8.2,0,0,1,4.4-1.1c4.5,0,5.4,2.6,5.4,4.2a4.2,4.2,0,0,1-2.7,3.7h.1a3.9,3.9,0,0,1,3.2,4c0,3.2-2.9,5.2-6.6,5.2a8.8,8.8,0,0,1-4.1-1Z"/><path class="a" d="M421.1,69.5a3.4,3.4,0,0,1-1.6.4,2.1,2.1,0,0,1-2.1-1.5,6.1,6.1,0,0,1-4,1.5c-2.1,0-3.6-1.2-3.6-3.3s3.3-4,7.5-4c0-2.3,0-4.3-2.8-4.3a8.1,8.1,0,0,0-3.4.8l-.5-1.6a8.6,8.6,0,0,1,4.2-1c4,0,4.6,2.2,4.6,5.7v4.6c0,.9.1,1.4.9,1.4h.5Zm-3.8-5.6c-3.2,0-5.4.5-5.4,2.5a1.9,1.9,0,0,0,2,1.8,4.8,4.8,0,0,0,3.4-1.3Z"/><path class="a" d="M431.8,69.6V60.9c0-2.1-1.1-2.6-2.5-2.6a6.1,6.1,0,0,0-3.4,1.3v10h-2.1V56.8H425l.8,1.2a6.6,6.6,0,0,1,4-1.5c3.2,0,4.1,1.9,4.1,4.4v8.7Zm1.4-18.3v.3c0,1.6-.8,2.6-2.7,2.6s-2.2-1.4-3.2-1.4-1.1,1.4-1.1,1.4h-1.3a.6.6,0,0,1-.1-.4,2.4,2.4,0,0,1,2.7-2.4c1.7,0,2.2,1.3,3.1,1.3s1.2-.4,1.2-1.4Z"/><path class="a" d="M443.2,56.5c4.1,0,5.9,3,5.9,6.7s-2.3,6.7-6,6.7-5.9-3-5.9-6.7S439.5,56.5,443.2,56.5Zm-.1,11.6c2.6,0,3.9-2.2,3.9-4.9s-1.3-4.9-3.9-4.9-3.8,2.2-3.8,4.9S440.5,68.1,443.1,68.1Z"/><path class="a" d="M452.2,67.4a7.6,7.6,0,0,0,3.3.8c2,0,2.7-1,2.7-2,0-3.1-6.3-1.5-6.3-5.9,0-2.3,1.7-3.8,4.5-3.8a8.4,8.4,0,0,1,3.5.7l-.6,1.7a6.2,6.2,0,0,0-2.9-.6c-1.7,0-2.6.8-2.6,1.8,0,2.9,6.5,1.4,6.5,5.8,0,2.1-1.6,4-4.9,4a6.6,6.6,0,0,1-3.8-1Z"/><path class="a" d="M465.7,382.4a21.3,21.3,0,0,1,10-2.8c7.2,0,9.9,3.3,9.9,7.8,0,6.6-7.8,11.9-10.4,13.6h12.1l-.2,5h-21v-4.1c4.7-3.1,12.4-9.6,12.4-13.8,0-1.9-1.4-3.1-4.2-3.1a13.9,13.9,0,0,0-6.8,2Z"/><path class="a" d="M494.4,406V395.4h1.1l.5,1.5a3.7,3.7,0,0,1,3.1-1.7l1,.2-.3,1.6-.9-.2a3.6,3.6,0,0,0-2.8,1.4V406Z"/><path class="a" d="M508.6,405.2a6.1,6.1,0,0,1-3.5,1c-3,0-4.9-2.1-4.9-5.3s1.9-5.7,4.7-5.7,3.9,2,3.9,4.3a9.9,9.9,0,0,1-.2,1.7H502c.1,1.7,1,3.5,3.4,3.5a5.1,5.1,0,0,0,2.7-.7Zm-1.5-5.1c0-.2.1-.5.1-.8a2.3,2.3,0,0,0-2.4-2.6c-1.9,0-2.7,1.7-2.8,3.4Z"/><path class="a" d="M518.1,405.4a5.4,5.4,0,0,1-3,.8c-2.6,0-4.9-1.9-4.9-5.3s2.3-5.7,5.3-5.7a5.5,5.5,0,0,1,2.6.6l-.4,1.4a4.5,4.5,0,0,0-2.2-.5c-2.1,0-3.5,1.3-3.5,4.2s1.6,3.8,3.4,3.8a4.2,4.2,0,0,0,2.3-.6Z"/><path class="a" d="M523.9,395.2c3.3,0,4.8,2.5,4.8,5.5s-1.9,5.5-4.9,5.5-4.8-2.5-4.8-5.5S520.9,395.2,523.9,395.2Zm-.1,9.5c2.2,0,3.2-1.8,3.2-4s-1-4-3.2-4-3.1,1.8-3.1,4S521.7,404.7,523.8,404.7Z"/><path class="a" d="M543.2,406v-7.2a1.9,1.9,0,0,0-2.1-2.1,3.9,3.9,0,0,0-2.4,1.1V406H537v-7.2c0-1.6-.7-2.1-2-2.1a3.6,3.6,0,0,0-2.4,1.1V406h-1.7V395.4h1l.6,1.1a4.4,4.4,0,0,1,2.9-1.3,3.2,3.2,0,0,1,2.9,1.4,5.5,5.5,0,0,1,3.2-1.4c2.3,0,3.4,1.4,3.4,3.6V406Z"/><path class="a" d="M555.3,405.2a6.1,6.1,0,0,1-3.5,1c-3,0-4.9-2.1-4.9-5.3s1.9-5.7,4.7-5.7,3.9,2,3.9,4.3a9.9,9.9,0,0,1-.2,1.7h-6.6a3.3,3.3,0,0,0,3.4,3.5,5.1,5.1,0,0,0,2.7-.7Zm-1.5-5.1c0-.2.1-.5.1-.8a2.3,2.3,0,0,0-2.4-2.6c-1.9,0-2.7,1.7-2.8,3.4Z"/><path class="a" d="M564.3,406v-7.2c0-1.7-.9-2.1-2.1-2.1a4.4,4.4,0,0,0-2.8,1.1V406h-1.7V395.4h1l.7,1.1a5,5,0,0,1,3.2-1.3c2.6,0,3.4,1.6,3.4,3.6V406Z"/><path class="a" d="M575.9,406l-.5-1a4.5,4.5,0,0,1-2.9,1.2c-2.6,0-4.5-2.2-4.5-5.2s2-5.8,5-5.8a4.9,4.9,0,0,1,2.3.6v-5.5H577V406Zm-.6-8.8a4.2,4.2,0,0,0-2.1-.5c-2.2,0-3.4,1.5-3.4,4.1s1.2,3.9,3,3.9a3.8,3.8,0,0,0,2.5-1Z"/><path class="a" d="M588.4,405.8a2.1,2.1,0,0,1-1.2.4,1.8,1.8,0,0,1-1.8-1.2,4.8,4.8,0,0,1-3.3,1.2,2.7,2.7,0,0,1-3-2.7c0-2.7,2.8-3.3,6.3-3.3,0-1.9-.1-3.5-2.4-3.5a6.7,6.7,0,0,0-2.7.6l-.5-1.3a9,9,0,0,1,3.5-.8c3.2,0,3.7,1.8,3.7,4.7v3.8c0,.7.1,1.1.8,1.1h.4Zm-3-4.5c-2.7,0-4.5.4-4.5,2a1.5,1.5,0,0,0,1.7,1.5,3.9,3.9,0,0,0,2.8-1.1Z"/><path class="a" d="M597.2,405.4a5.8,5.8,0,0,1-3.1.8c-2.5,0-4.8-1.9-4.8-5.3s2.3-5.7,5.3-5.7a5.5,5.5,0,0,1,2.6.6l-.4,1.4a4.5,4.5,0,0,0-2.2-.5c-2.1,0-3.5,1.3-3.5,4.2s1.5,3.8,3.4,3.8a4.2,4.2,0,0,0,2.3-.6Z"/><path class="a" d="M599.8,393.3a1.1,1.1,0,0,1-1.1-1.1,1.1,1.1,0,0,1,2.2,0A1.1,1.1,0,0,1,599.8,393.3Zm2.1,12.5a2.1,2.1,0,0,1-1.2.4c-1.4,0-1.8-1-1.8-2.2v-8.6h1.6v8.5c0,.4.1.8.8.8h.4Z"/><path class="a" d="M607.9,395.2c3.3,0,4.8,2.5,4.8,5.5s-1.9,5.5-4.9,5.5-4.8-2.5-4.8-5.5S604.9,395.2,607.9,395.2Zm-.1,9.5c2.2,0,3.2-1.8,3.2-4s-1-4-3.2-4-3.1,1.8-3.1,4S605.7,404.7,607.8,404.7Z"/><path class="a" d="M621.5,406v-7.2c0-1.7-.9-2.1-2.1-2.1a4.4,4.4,0,0,0-2.8,1.1V406h-1.7V395.4h1l.6,1.1a5.5,5.5,0,0,1,3.3-1.3c2.6,0,3.4,1.6,3.4,3.6V406Z"/><path class="a" d="M633.5,405.2a5.5,5.5,0,0,1-3.4,1c-3,0-4.9-2.1-4.9-5.3s1.8-5.7,4.6-5.7,4,2,4,4.3a9.9,9.9,0,0,1-.2,1.7H627a3.3,3.3,0,0,0,3.4,3.5,5.4,5.4,0,0,0,2.7-.7Zm-1.4-5.1v-.8c0-1.5-.7-2.6-2.3-2.6s-2.8,1.7-2.8,3.4Z"/><path class="a" d="M635.8,404.1a7.1,7.1,0,0,0,2.7.7c1.6,0,2.3-.8,2.3-1.7,0-2.5-5.2-1.2-5.2-4.8,0-1.8,1.4-3.1,3.7-3.1a5.8,5.8,0,0,1,2.8.6l-.5,1.3a6.8,6.8,0,0,0-2.3-.4c-1.5,0-2.1.6-2.1,1.5s5.2,1.1,5.2,4.7c0,1.7-1.2,3.3-3.9,3.3a6.5,6.5,0,0,1-3.2-.8Z"/><line class="e" x1="137.2" y1="80.2" x2="137.2" y2="479.6"/><line class="e" x1="236" y1="80.2" x2="236" y2="479.6"/><line class="e" x1="334.7" y1="80.2" x2="334.7" y2="479.6"/><line class="e" x1="433.5" y1="80.2" x2="433.5" y2="479.6"/></svg>