<svg xmlns="http://www.w3.org/2000/svg" width="660" height="500" viewBox="0 0 660 500"><defs><style>.a{fill:#d58116;}.b{fill:#fff;}.c{fill:#223749;}.d{fill:#409195;}.e{fill:#9ab63a;}.f{fill:#d2a206;}.g{fill:#6698ac;}.h{fill:#5e788f;}.i{fill:#384f64;}.j{fill:#07a0b9;}.k{fill:#478335;}</style></defs><path class="a" d="M188.9,171.2V154.7H196c4.5,0,6.7,1.8,6.7,5.3s-2.3,5.6-7.2,5.6h-2.3v5.6Zm4.3-13.4v4.7h2.1c2.5,0,3.1-1.5,3.1-2.5s-1.1-2.2-2.9-2.2Z"/><path class="a" d="M204.6,159.3a13.5,13.5,0,0,1,5.2-1.1c4.9,0,6,2.1,6,5.6v3.7a.8.8,0,0,0,.9.8h.5l.6,2.5a6.2,6.2,0,0,1-2.7.7c-1.7,0-2.7-.6-3.2-1.6a4.8,4.8,0,0,1-3.9,1.6c-1.9,0-4.2-.9-4.2-3.5s3.6-4.2,7.7-4.2c0-1.4-.6-2.2-2.3-2.2a8.9,8.9,0,0,0-3.6.7Zm6.9,6.5c-1.9.1-3.4.4-3.4,1.5s.5,1.2,1.4,1.2a3.4,3.4,0,0,0,2-.8Z"/><path class="a" d="M224.9,161.5h-6.1v-3.1h11.3v2.7l-6.1,7h6.2v3.1H218.7v-2.6Z"/><path class="a" d="M240,158.4v-2.3l4.2-.9v3.2h3.5v3h-3.5v5.1c0,.9.6,1.4,1.6,1.4a2.5,2.5,0,0,0,1.3-.3l.7,3a8,8,0,0,1-3.6.8c-2.6,0-4.3-1.5-4.3-4.1v-5.9h-2.2v-3Z"/><path class="a" d="M253.5,165.8c.1,1.2,1.5,2.2,3.4,2.2a7.1,7.1,0,0,0,3.6-.8l.9,3.1a10.9,10.9,0,0,1-5,1.1c-4.2,0-7.3-2-7.3-6.4s2.7-6.8,6.7-6.8,5.9,2.7,5.9,5.4a15.9,15.9,0,0,1-.2,2.2Zm4-2.1v-.5a1.7,1.7,0,0,0-1.9-1.9,2.2,2.2,0,0,0-2.2,2.4Z"/><path class="a" d="M264.1,158.4h3l1,1.8a3.8,3.8,0,0,1,3.4-2l1.5.2-.7,3.3h-1a4.8,4.8,0,0,0-2.9.9v8.7h-4.3Z"/><path class="a" d="M274.6,158.4h3l1,1.8a3.7,3.7,0,0,1,3.4-2l1.5.2-.7,3.3h-1a4.8,4.8,0,0,0-2.9.9v8.7h-4.3Z"/><path class="a" d="M289.5,155c0,1.2-.7,2-2.3,2s-2.2-.8-2.2-2,.6-2,2.2-2S289.5,153.7,289.5,155Zm-.2,12.4c0,.6.4.9,1,.9h.5l.6,2.5a5.1,5.1,0,0,1-2.7.7,3.2,3.2,0,0,1-3.6-3.5v-9.5h4.2Z"/><path class="a" d="M293.7,158.4v-2.3l4.2-.9v3.2h3.5v3h-3.5v5.1c0,.9.6,1.4,1.7,1.4a2.1,2.1,0,0,0,1.2-.3l.8,3a8.5,8.5,0,0,1-3.7.8,3.9,3.9,0,0,1-4.2-4.1v-5.9h-2.2v-3Z"/><path class="a" d="M309.7,158.2c5.2,0,7,2.9,7,6.6s-2.6,6.6-6.9,6.6-6.9-2.9-6.9-6.6S305.4,158.2,309.7,158.2Zm0,10.1c1.7,0,2.7-1.4,2.7-3.3s-.7-3.8-2.7-3.8-2.5,1.2-2.5,3.3S307.8,168.3,309.7,168.3Z"/><path class="a" d="M319,158.4h3l1,1.8a3.8,3.8,0,0,1,3.4-2l1.5.2-.6,3.3h-1.1a4.8,4.8,0,0,0-2.9.9v8.7H319Z"/><path class="a" d="M333.9,155c0,1.2-.7,2-2.2,2s-2.3-.8-2.3-2,.6-2,2.3-2S333.9,153.7,333.9,155Zm-.1,12.4a.8.8,0,0,0,.9.9h.5l.6,2.5a5,5,0,0,1-2.6.7c-2.3,0-3.7-1.3-3.7-3.5v-9.5h4.3Z"/><path class="a" d="M337.7,159.3a13.5,13.5,0,0,1,5.2-1.1c4.9,0,6,2.1,6,5.6v3.7a.8.8,0,0,0,.9.8h.5l.6,2.5a6.2,6.2,0,0,1-2.7.7c-1.7,0-2.7-.6-3.2-1.6a4.9,4.9,0,0,1-3.9,1.6c-1.9,0-4.2-.9-4.2-3.5s3.6-4.2,7.7-4.2c0-1.4-.6-2.2-2.4-2.2a8.7,8.7,0,0,0-3.5.7Zm6.9,6.5c-1.9.1-3.4.4-3.4,1.5s.5,1.2,1.4,1.2a3.4,3.4,0,0,0,2-.8Z"/><path class="a" d="M356.8,167.4a.8.8,0,0,0,.9.9h.5l.6,2.5a5,5,0,0,1-2.6.7c-2.3,0-3.7-1.3-3.7-3.5V152.1h4.3Z"/><path d="M188.8,195.6V182.3h7.9v1.4h-6.3v4.4h5.2v1.4h-5.2v4.6h6.5v1.5Z"/><path d="M199.1,193.8a7.2,7.2,0,0,0,2.7.6c1.6,0,2.2-.7,2.2-1.6,0-2.5-5.1-1.2-5.1-4.7,0-1.8,1.4-3,3.6-3a5.8,5.8,0,0,1,2.8.6l-.5,1.3a4.9,4.9,0,0,0-2.3-.5c-1.4,0-2,.6-2,1.5s5.1,1,5.1,4.6c0,1.7-1.2,3.2-3.9,3.2a6,6,0,0,1-3-.8Z"/><path d="M213.4,195.3a4.4,4.4,0,0,1-2,.5c-1.8,0-2.8-1.1-2.8-3.3v-6h-1.8v-1.2h1.8v-2.2l1.6-.4v2.6h3.2v1.2h-3.2v6.1a1.5,1.5,0,0,0,1.6,1.7,2.5,2.5,0,0,0,1.3-.3Z"/><path d="M223.9,195.4a2.1,2.1,0,0,1-1.2.4,1.9,1.9,0,0,1-1.8-1.2,4.4,4.4,0,0,1-3.1,1.2,2.6,2.6,0,0,1-2.9-2.6c0-2.7,2.6-3.3,6-3.3,0-1.8,0-3.3-2.3-3.3a5.7,5.7,0,0,0-2.7.6l-.4-1.3a7.4,7.4,0,0,1,3.4-.8c3.1,0,3.7,1.7,3.7,4.5v3.7c0,.7,0,1.1.7,1.1h.3Zm-3-4.4c-2.6,0-4.4.4-4.4,2a1.6,1.6,0,0,0,1.7,1.4,3.7,3.7,0,0,0,2.7-1.1Z"/><path d="M225.9,193.8a6.6,6.6,0,0,0,2.6.6c1.6,0,2.2-.7,2.2-1.6,0-2.5-5-1.2-5-4.7,0-1.8,1.4-3,3.6-3a5.4,5.4,0,0,1,2.7.6l-.4,1.3a5.2,5.2,0,0,0-2.3-.5c-1.4,0-2.1.6-2.1,1.5s5.2,1,5.2,4.6c0,1.7-1.3,3.2-3.9,3.2a6.4,6.4,0,0,1-3.1-.8Z"/><path d="M240,195.6V185.3h1l.5,1.4a3.8,3.8,0,0,1,3.1-1.6l.9.2-.3,1.5h-.8a3.3,3.3,0,0,0-2.7,1.3v7.6Z"/><path d="M254.3,194.9a6.2,6.2,0,0,1-3.3.9c-2.9,0-4.8-2-4.8-5.2s1.8-5.5,4.5-5.5,3.9,1.9,3.9,4.2a10,10,0,0,1-.2,1.6H248a3.1,3.1,0,0,0,3.3,3.4,6.2,6.2,0,0,0,2.6-.6Zm-1.4-5.1a1.7,1.7,0,0,0,.1-.7c0-1.5-.7-2.5-2.3-2.5s-2.7,1.6-2.7,3.2Z"/><path d="M264.2,195a6,6,0,0,1-3,.8c-2.5,0-4.7-1.8-4.7-5.2s2.2-5.5,5.1-5.5a5.5,5.5,0,0,1,2.6.6l-.5,1.3a3.9,3.9,0,0,0-2.1-.4c-2,0-3.4,1.2-3.4,4s1.5,3.7,3.3,3.7a4.4,4.4,0,0,0,2.3-.5Z"/><path d="M270.3,185.1c3.3,0,4.7,2.4,4.7,5.3s-1.8,5.4-4.8,5.4-4.7-2.4-4.7-5.4S267.4,185.1,270.3,185.1Zm0,9.2c2,0,3-1.7,3-3.9s-1-3.8-3-3.8-3.1,1.7-3.1,3.8S268.2,194.3,270.3,194.3Z"/><path d="M289.7,195.6v-7c0-1.4-.7-2-2.1-2a3.7,3.7,0,0,0-2.3,1v8h-1.6v-7a1.8,1.8,0,0,0-2-2,3.7,3.7,0,0,0-2.4,1v8h-1.6V185.3h1l.6,1a4,4,0,0,1,2.7-1.2,3,3,0,0,1,2.9,1.4,5,5,0,0,1,3.1-1.4c2.3,0,3.3,1.3,3.3,3.5v7Z"/><path d="M301.9,194.9a6.2,6.2,0,0,1-3.3.9c-2.9,0-4.8-2-4.8-5.2s1.8-5.5,4.5-5.5,3.9,1.9,3.9,4.2a10,10,0,0,1-.2,1.6h-6.4a3.1,3.1,0,0,0,3.3,3.4,6.2,6.2,0,0,0,2.6-.6Zm-1.4-5.1a1.7,1.7,0,0,0,.1-.7c0-1.5-.7-2.5-2.3-2.5s-2.7,1.6-2.7,3.2Z"/><path d="M311.3,195.6v-7c0-1.7-.9-2-2-2a5,5,0,0,0-2.8,1v8h-1.6V185.3h1l.6,1a4.9,4.9,0,0,1,3.1-1.2c2.6,0,3.3,1.5,3.3,3.5v7Z"/><path d="M323.1,195.6l-.5-1a4.1,4.1,0,0,1-2.8,1.2c-2.6,0-4.4-2.2-4.4-5.1s2-5.6,4.9-5.6a5.7,5.7,0,0,1,2.3.5v-5.3h1.6v15.3Zm-.5-8.6a5.9,5.9,0,0,0-2.2-.4c-2,0-3.3,1.4-3.3,3.9s1.3,3.8,3,3.8a3.8,3.8,0,0,0,2.5-1Z"/><path d="M335.8,195.4a1.9,1.9,0,0,1-1.2.4,1.7,1.7,0,0,1-1.7-1.2,4.5,4.5,0,0,1-3.2,1.2,2.7,2.7,0,0,1-2.9-2.6c0-2.7,2.6-3.3,6.1-3.3,0-1.8-.1-3.3-2.3-3.3a5.4,5.4,0,0,0-2.7.6l-.4-1.3a6.6,6.6,0,0,1,3.3-.8c3.2,0,3.7,1.7,3.7,4.5v3.7c0,.7.1,1.1.7,1.1h.4Zm-2.9-4.4c-2.7,0-4.4.4-4.4,2a1.5,1.5,0,0,0,1.6,1.4,3.9,3.9,0,0,0,2.8-1.1Z"/><path d="M345,195a6.1,6.1,0,0,1-3.1.8c-2.5,0-4.7-1.8-4.7-5.2s2.2-5.5,5.2-5.5a5.4,5.4,0,0,1,2.5.6l-.4,1.3a4.1,4.1,0,0,0-2.1-.4c-2.1,0-3.5,1.2-3.5,4s1.6,3.7,3.3,3.7a4.1,4.1,0,0,0,2.3-.5Z"/><path d="M348,183.2a1.1,1.1,0,0,1-1.1-1.1,1,1,0,0,1,1.1-1,1,1,0,0,1,1,1.1A1,1,0,0,1,348,183.2Zm2.1,12.2a2.6,2.6,0,0,1-1.3.4c-1.3,0-1.7-.9-1.7-2.1v-8.4h1.6v8.2c0,.5.1.9.7.9h.4Z"/><path d="M356.4,185.1c3.2,0,4.7,2.4,4.7,5.3s-1.9,5.4-4.8,5.4-4.7-2.4-4.7-5.4S353.5,185.1,356.4,185.1Zm-.1,9.2c2.1,0,3.1-1.7,3.1-3.9s-1-3.8-3.1-3.8-3,1.7-3,3.8S354.2,194.3,356.3,194.3Z"/><path d="M370.2,195.6v-7c0-1.7-.9-2-2.1-2a4.9,4.9,0,0,0-2.7,1v8h-1.6V185.3h1l.6,1a4.9,4.9,0,0,1,3.1-1.2c2.6,0,3.3,1.5,3.3,3.5v7Z"/><path d="M382.4,194.9a6.2,6.2,0,0,1-3.3.9c-2.9,0-4.8-2-4.8-5.2s1.8-5.5,4.5-5.5,3.9,1.9,3.9,4.2a10,10,0,0,1-.2,1.6h-6.4a3.1,3.1,0,0,0,3.3,3.4,6.2,6.2,0,0,0,2.6-.6Zm-1.4-5.1a1.7,1.7,0,0,0,.1-.7c0-1.5-.7-2.5-2.3-2.5s-2.7,1.6-2.7,3.2Z"/><path d="M385.2,193.8a6.6,6.6,0,0,0,2.6.6c1.6,0,2.2-.7,2.2-1.6,0-2.5-5.1-1.2-5.1-4.7,0-1.8,1.5-3,3.7-3a5.4,5.4,0,0,1,2.7.6l-.4,1.3a5.2,5.2,0,0,0-2.3-.5c-1.4,0-2.1.6-2.1,1.5s5.1,1,5.1,4.6c0,1.7-1.2,3.2-3.8,3.2a6.4,6.4,0,0,1-3.1-.8Z"/><path d="M399.3,180.3H401v5.5a4.6,4.6,0,0,1,2.4-.7c2.7,0,4.4,1.8,4.4,5.1s-2.3,5.6-5.2,5.6a6.7,6.7,0,0,1-3.3-.9ZM401,194a3.7,3.7,0,0,0,1.7.4c2.6,0,3.4-2.2,3.4-4.2s-.7-3.7-3-3.7a3.8,3.8,0,0,0-2.1.7Z"/><path d="M417.3,195.6l-.6-1a4.1,4.1,0,0,1-2.9,1.2c-2.5,0-3.3-1.7-3.3-3.7v-6.8h1.6v6.8c0,1.7.9,2.2,2,2.2a4.1,4.1,0,0,0,2.6-1v-8h1.6v10.3Z"/><path d="M421.6,193.8a6.6,6.6,0,0,0,2.6.6c1.6,0,2.2-.7,2.2-1.6,0-2.5-5.1-1.2-5.1-4.7,0-1.8,1.5-3,3.7-3a5.4,5.4,0,0,1,2.7.6l-.4,1.3a5.2,5.2,0,0,0-2.3-.5c-1.4,0-2.1.6-2.1,1.5s5.1,1,5.1,4.6c0,1.7-1.2,3.2-3.8,3.2a6.4,6.4,0,0,1-3.1-.8Z"/><path d="M437.6,195a5.4,5.4,0,0,1-3,.8c-2.5,0-4.7-1.8-4.7-5.2s2.2-5.5,5.2-5.5a5.4,5.4,0,0,1,2.5.6l-.4,1.3a4.4,4.4,0,0,0-2.1-.4c-2.1,0-3.5,1.2-3.5,4s1.5,3.7,3.3,3.7a4.1,4.1,0,0,0,2.3-.5Z"/><path d="M447.9,195.4a2.1,2.1,0,0,1-1.2.4,1.7,1.7,0,0,1-1.7-1.2,4.7,4.7,0,0,1-3.2,1.2,2.6,2.6,0,0,1-2.9-2.6c0-2.7,2.6-3.3,6-3.3,0-1.8,0-3.3-2.3-3.3a5,5,0,0,0-2.6.6l-.4-1.3a6.6,6.6,0,0,1,3.3-.8c3.2,0,3.7,1.7,3.7,4.5v3.7c0,.7.1,1.1.7,1.1h.4Zm-3-4.4c-2.6,0-4.3.4-4.3,2a1.5,1.5,0,0,0,1.6,1.4,3.5,3.5,0,0,0,2.7-1.1Z"/><path d="M456.5,195.6v-7c0-1.7-.9-2-2-2a5,5,0,0,0-2.8,1v8h-1.6V185.3h1l.6,1a4.9,4.9,0,0,1,3.2-1.2c2.5,0,3.2,1.5,3.2,3.5v7Z"/><path d="M472.8,186.6a3,3,0,0,1,.7,1.9,3.6,3.6,0,0,1-3.7,3.6h-.7a1.9,1.9,0,0,0-.4.9c0,.4.2.7,1.2.7,3.4,0,4.5,1.1,4.5,2.9s-1.7,3.4-4.6,3.4-4-.9-4-2.9a2.7,2.7,0,0,1,2-2.5,1.3,1.3,0,0,1-.6-1.3v-.4l.8-1.1a3.1,3.1,0,0,1-1.8-3,3.5,3.5,0,0,1,3.6-3.6,4.6,4.6,0,0,1,1.9.4l3.5-.2v1.3Zm-5.5,10.2c0,.9.9,1.8,2.6,1.8s2.8-.7,2.8-2-.6-1.6-2.8-1.6h-1A1.8,1.8,0,0,0,467.3,196.8Zm4.7-8.3a2,2,0,0,0-2.2-2.1,2.2,2.2,0,0,0,0,4.4A2.1,2.1,0,0,0,472,188.5Z"/><path d="M485.1,195.4a1.9,1.9,0,0,1-1.2.4,1.7,1.7,0,0,1-1.7-1.2,4.5,4.5,0,0,1-3.2,1.2,2.7,2.7,0,0,1-2.9-2.6c0-2.7,2.6-3.3,6.1-3.3,0-1.8-.1-3.3-2.3-3.3a5.4,5.4,0,0,0-2.7.6l-.4-1.3a6.6,6.6,0,0,1,3.3-.8c3.2,0,3.7,1.7,3.7,4.5v3.7c0,.7.1,1.1.7,1.1h.4Zm-2.9-4.4c-2.7,0-4.4.4-4.4,2a1.5,1.5,0,0,0,1.6,1.4,3.9,3.9,0,0,0,2.8-1.1Z"/><path d="M487.3,195.6V185.3h1l.5,1.4a3.8,3.8,0,0,1,3.1-1.6l.9.2-.3,1.5h-.9A3.3,3.3,0,0,0,489,188v7.6Z"/><path d="M502.3,195.4a2.5,2.5,0,0,1-1.3.4,1.7,1.7,0,0,1-1.7-1.2,4.5,4.5,0,0,1-3.2,1.2,2.7,2.7,0,0,1-2.9-2.6c0-2.7,2.7-3.3,6.1-3.3,0-1.8,0-3.3-2.3-3.3a5.4,5.4,0,0,0-2.7.6l-.4-1.3a6.6,6.6,0,0,1,3.3-.8c3.2,0,3.7,1.7,3.7,4.5v3.7c0,.7.1,1.1.7,1.1h.4Zm-3-4.4c-2.7,0-4.4.4-4.4,2a1.5,1.5,0,0,0,1.6,1.4,3.9,3.9,0,0,0,2.8-1.1Z"/><path d="M510.8,195.6v-7c0-1.7-.8-2-2-2a4.4,4.4,0,0,0-2.7,1v8h-1.7V185.3h1l.6,1a4.9,4.9,0,0,1,3.2-1.2c2.6,0,3.3,1.5,3.3,3.5v7Z"/><path d="M521,195.3a5.3,5.3,0,0,1-2,.5c-1.8,0-2.9-1.1-2.9-3.3v-6h-1.8v-1.2h1.8v-2.2l1.7-.4v2.6h3.1v1.2h-3.1v6.1c0,1.2.6,1.7,1.5,1.7a2.6,2.6,0,0,0,1.4-.3Z"/><path d="M524.2,183.2a1,1,0,0,1-1.1-1.1,1,1,0,0,1,1.1-1,1,1,0,0,1,1,1.1A1,1,0,0,1,524.2,183.2Zm2,12.2a2.1,2.1,0,0,1-1.2.4c-1.4,0-1.7-.9-1.7-2.1v-8.4h1.6v8.2c0,.5.1.9.7.9h.4Z"/><path d="M527.5,195.6v-1.3l5.9-7.6h-5.8v-1.4h7.6v1.5l-5.8,7.4h5.9v1.4Z"/><path d="M546.1,195.4a2.5,2.5,0,0,1-1.3.4,1.7,1.7,0,0,1-1.7-1.2,4.5,4.5,0,0,1-3.2,1.2,2.7,2.7,0,0,1-2.9-2.6c0-2.7,2.7-3.3,6.1-3.3,0-1.8,0-3.3-2.3-3.3a5.4,5.4,0,0,0-2.7.6l-.4-1.3a6.9,6.9,0,0,1,3.3-.8c3.2,0,3.7,1.7,3.7,4.5v3.7c0,.7.1,1.1.8,1.1h.3Zm-3-4.4c-2.6,0-4.4.4-4.4,2a1.6,1.6,0,0,0,1.7,1.4,3.7,3.7,0,0,0,2.7-1.1Z"/><path d="M548.3,195.6V185.3h1l.4,1.4a3.8,3.8,0,0,1,3.1-1.6l.9.2-.3,1.5h-.8a3.3,3.3,0,0,0-2.7,1.3v7.6Z"/><path d="M195.6,219.4a6,6,0,0,1-3,.8c-2.6,0-4.8-1.8-4.8-5.2s2.2-5.5,5.2-5.5a5.1,5.1,0,0,1,2.5.6l-.4,1.3a3.9,3.9,0,0,0-2.1-.4c-2,0-3.4,1.2-3.4,4s1.5,3.7,3.3,3.7a4.6,4.6,0,0,0,2.3-.5Z"/><path d="M201.7,209.5c3.2,0,4.7,2.4,4.7,5.3s-1.9,5.4-4.8,5.4-4.7-2.4-4.7-5.4S198.8,209.5,201.7,209.5Zm-.1,9.2c2.1,0,3.1-1.7,3.1-3.9s-1-3.8-3.1-3.8-3,1.7-3,3.8S199.5,218.7,201.6,218.7Z"/><path d="M215.4,220v-7c0-1.7-.8-2-2-2a4.9,4.9,0,0,0-2.7,1v8H209V209.7h1l.7,1a4.6,4.6,0,0,1,3.1-1.2c2.6,0,3.3,1.5,3.3,3.5v7Z"/><path d="M227.3,220l-.5-1a4.1,4.1,0,0,1-2.8,1.2c-2.6,0-4.4-2.2-4.4-5.1s1.9-5.6,4.9-5.6a5.7,5.7,0,0,1,2.3.5v-5.3h1.6V220Zm-.5-8.6a5.9,5.9,0,0,0-2.2-.4c-2,0-3.3,1.4-3.3,3.9s1.2,3.8,3,3.8a3.8,3.8,0,0,0,2.5-1Z"/><path d="M232.7,207.6a1,1,0,0,1-1-1.1,1,1,0,0,1,1-1,1,1,0,0,1,1.1,1.1A1,1,0,0,1,232.7,207.6Zm2.1,12.2a2.1,2.1,0,0,1-1.2.4c-1.4,0-1.8-1-1.8-2.1v-8.4h1.7v8.2c0,.4.1.9.7.9h.4Z"/><path d="M244.1,219.4a6,6,0,0,1-3,.8c-2.5,0-4.7-1.8-4.7-5.2s2.2-5.5,5.1-5.5a5.5,5.5,0,0,1,2.6.6l-.5,1.3a3.9,3.9,0,0,0-2.1-.4c-2,0-3.4,1.2-3.4,4s1.5,3.7,3.3,3.7a4.4,4.4,0,0,0,2.3-.5Z"/><path d="M247.1,207.6a1,1,0,0,1-1-1.1.9.9,0,0,1,1-1,1,1,0,0,1,1.1,1.1A1.1,1.1,0,0,1,247.1,207.6Zm2.1,12.2a2.1,2.1,0,0,1-1.2.4c-1.4,0-1.8-1-1.8-2.1v-8.4h1.6v8.2c0,.4.1.9.8.9h.3Z"/><path d="M255.6,209.5c3.2,0,4.6,2.4,4.6,5.3s-1.8,5.4-4.8,5.4-4.7-2.4-4.7-5.4S252.6,209.5,255.6,209.5Zm-.1,9.2c2.1,0,3-1.7,3-3.9s-.9-3.8-3-3.8-3.1,1.7-3.1,3.8S253.4,218.7,255.5,218.7Z"/><path d="M269.3,220v-7c0-1.7-.9-2-2-2a5,5,0,0,0-2.8,1v8h-1.6V209.7h1l.6,1a4.9,4.9,0,0,1,3.1-1.2c2.6,0,3.3,1.5,3.3,3.5v7Z"/><path d="M281.6,219.2a5.7,5.7,0,0,1-3.4,1c-2.9,0-4.8-2.1-4.8-5.2s1.9-5.5,4.6-5.5,3.8,1.9,3.8,4.2a10,10,0,0,1-.2,1.6h-6.4a3.2,3.2,0,0,0,3.3,3.4,5.9,5.9,0,0,0,2.6-.6Zm-1.4-5v-.7c0-1.5-.7-2.5-2.3-2.5s-2.6,1.6-2.7,3.2Z"/><path d="M284.3,218.1a5.7,5.7,0,0,0,2.7.7c1.5,0,2.2-.8,2.2-1.6,0-2.5-5.1-1.2-5.1-4.7,0-1.8,1.4-3,3.6-3a6.1,6.1,0,0,1,2.8.6l-.5,1.3a5.2,5.2,0,0,0-2.3-.5c-1.4,0-2,.6-2,1.5s5.1,1,5.1,4.6c0,1.7-1.3,3.2-3.9,3.2a6.4,6.4,0,0,1-3.1-.8Z"/><path d="M305.3,220l-.4-1a4.4,4.4,0,0,1-2.8,1.2c-2.6,0-4.4-2.2-4.4-5.1s1.9-5.6,4.8-5.6a5.1,5.1,0,0,1,2.3.5v-5.3h1.7V220Zm-.5-8.6a5.1,5.1,0,0,0-2.1-.4c-2.1,0-3.3,1.4-3.3,3.9s1.2,3.8,3,3.8a3.7,3.7,0,0,0,2.4-1Z"/><path d="M317.2,219.2a5.4,5.4,0,0,1-3.3,1c-2.9,0-4.8-2.1-4.8-5.2s1.8-5.5,4.5-5.5,3.9,1.9,3.9,4.2a10,10,0,0,1-.2,1.6h-6.4a3.2,3.2,0,0,0,3.3,3.4,6.2,6.2,0,0,0,2.6-.6Zm-1.4-5a1.7,1.7,0,0,0,.1-.7c0-1.5-.7-2.5-2.3-2.5s-2.7,1.6-2.7,3.2Z"/><path d="M325.2,204.7h1.7v5.5a4.6,4.6,0,0,1,2.4-.7c2.7,0,4.4,1.8,4.4,5.1s-2.3,5.6-5.3,5.6a6.1,6.1,0,0,1-3.2-1Zm1.7,13.7a3.7,3.7,0,0,0,1.7.4c2.6,0,3.4-2.2,3.4-4.2s-.7-3.7-3-3.7a3.8,3.8,0,0,0-2.1.7Z"/><path d="M337.3,207.6a1,1,0,0,1-1-1.1.9.9,0,0,1,1-1c.6,0,1,.3,1,1.1A1,1,0,0,1,337.3,207.6Zm2.1,12.2a2.2,2.2,0,0,1-1.3.4c-1.3,0-1.7-1-1.7-2.1v-8.4H338v8.2c0,.4.1.9.7.9h.4Z"/><path d="M349,219.2a5.4,5.4,0,0,1-3.3,1c-2.9,0-4.8-2.1-4.8-5.2s1.8-5.5,4.5-5.5,3.9,1.9,3.9,4.2a10,10,0,0,1-.2,1.6h-6.4a3.2,3.2,0,0,0,3.3,3.4,6.2,6.2,0,0,0,2.6-.6Zm-1.4-5a1.7,1.7,0,0,0,.1-.7c0-1.5-.7-2.5-2.3-2.5s-2.7,1.6-2.7,3.2Z"/><path d="M358.4,220v-7c0-1.7-.9-2-2-2a5,5,0,0,0-2.8,1v8H352V209.7h1l.6,1a4.9,4.9,0,0,1,3.1-1.2c2.6,0,3.3,1.5,3.3,3.5v7Z"/><path d="M370.6,219.2a5.4,5.4,0,0,1-3.3,1c-2.9,0-4.8-2.1-4.8-5.2s1.8-5.5,4.5-5.5,3.9,1.9,3.9,4.2a10,10,0,0,1-.2,1.6h-6.4a3.2,3.2,0,0,0,3.3,3.4,6.2,6.2,0,0,0,2.6-.6Zm-1.4-5a1.7,1.7,0,0,0,.1-.7c0-1.5-.7-2.5-2.3-2.5s-2.7,1.6-2.7,3.2Z"/><path d="M373.4,218.1a5.3,5.3,0,0,0,2.6.7c1.6,0,2.2-.8,2.2-1.6,0-2.5-5.1-1.2-5.1-4.7,0-1.8,1.5-3,3.7-3a5.4,5.4,0,0,1,2.7.6l-.4,1.3a5.2,5.2,0,0,0-2.3-.5c-1.4,0-2.1.6-2.1,1.5s5.2,1,5.2,4.6c0,1.7-1.3,3.2-3.9,3.2a6.4,6.4,0,0,1-3.1-.8Z"/><path d="M387.7,219.7a4.8,4.8,0,0,1-2,.5c-1.8,0-2.9-1.1-2.9-3.3v-6H381v-1.2h1.8v-2.2l1.7-.4v2.6h3.2v1.2h-3.2v6c0,1.3.6,1.8,1.6,1.8a2.5,2.5,0,0,0,1.3-.3Z"/><path d="M398.2,219.8a2.5,2.5,0,0,1-1.3.4,1.7,1.7,0,0,1-1.7-1.2,4.5,4.5,0,0,1-3.2,1.2,2.7,2.7,0,0,1-2.9-2.6c0-2.7,2.7-3.3,6.1-3.3,0-1.8,0-3.3-2.3-3.3a5.4,5.4,0,0,0-2.7.6l-.4-1.3a6.6,6.6,0,0,1,3.3-.8c3.2,0,3.7,1.7,3.7,4.5v3.7c0,.7.1,1.1.7,1.1h.4Zm-3-4.4c-2.6,0-4.4.4-4.4,2a1.5,1.5,0,0,0,1.7,1.4,3.7,3.7,0,0,0,2.7-1.1Z"/><path d="M400.3,220V209.7h1l.5,1.4a3.8,3.8,0,0,1,3.1-1.6,1.5,1.5,0,0,1,.9.2l-.3,1.5h-.8a3.3,3.3,0,0,0-2.7,1.3V220Z"/><path d="M411.1,209.7H413l3.2,8.5,2.8-8.5h1.7l-4.2,11.5a3.8,3.8,0,0,1-3.7,2.9,3.9,3.9,0,0,1-1.8-.5l.5-1.3a2.6,2.6,0,0,0,1.4.3c1.4,0,2-1,2.5-2.5Z"/><path d="M429.6,220l-3.7-10.3h1.8l2.9,8.8h.1l3-8.8h1.6L431.7,220Z"/><path d="M438,207.6a1,1,0,0,1-1-1.1,1,1,0,0,1,1-1,1,1,0,0,1,1.1,1.1A1,1,0,0,1,438,207.6Zm2.1,12.2a2.1,2.1,0,0,1-1.2.4c-1.4,0-1.7-1-1.7-2.1v-8.4h1.6v8.2c0,.4.1.9.7.9h.4Z"/><path d="M449.3,220l-.4-1a4.1,4.1,0,0,1-2.8,1.2c-2.6,0-4.4-2.2-4.4-5.1s1.9-5.6,4.8-5.6a5.1,5.1,0,0,1,2.3.5v-5.3h1.7V220Zm-.5-8.6a5.1,5.1,0,0,0-2.1-.4c-2,0-3.3,1.4-3.3,3.9s1.2,3.8,3,3.8a3.7,3.7,0,0,0,2.4-1Z"/><path d="M462.1,219.8a2.1,2.1,0,0,1-1.2.4,1.9,1.9,0,0,1-1.8-1.2,4.4,4.4,0,0,1-3.1,1.2,2.6,2.6,0,0,1-2.9-2.6c0-2.7,2.6-3.3,6-3.3,0-1.8,0-3.3-2.3-3.3a5.7,5.7,0,0,0-2.7.6l-.4-1.3a7.4,7.4,0,0,1,3.4-.8c3.1,0,3.7,1.7,3.7,4.5v3.7c0,.7.1,1.1.7,1.1h.3Zm-3-4.4c-2.6,0-4.3.4-4.3,2a1.5,1.5,0,0,0,1.6,1.4,3.5,3.5,0,0,0,2.7-1.1Z"/><path d="M476.2,220l-.4-1a4.5,4.5,0,0,1-2.9,1.2c-2.6,0-4.4-2.2-4.4-5.1s2-5.6,4.9-5.6a5.7,5.7,0,0,1,2.3.5v-5.3h1.6V220Zm-.5-8.6a5.1,5.1,0,0,0-2.1-.4c-2.1,0-3.3,1.4-3.3,3.9s1.2,3.8,3,3.8a3.7,3.7,0,0,0,2.4-1Z"/><path d="M481.7,207.6a1,1,0,0,1-1-1.1.9.9,0,0,1,1-1c.6,0,1,.3,1,1.1A1,1,0,0,1,481.7,207.6Zm2.1,12.2a2.2,2.2,0,0,1-1.3.4c-1.3,0-1.7-1-1.7-2.1v-8.4h1.6v8.2c0,.4.1.9.7.9h.4Z"/><path d="M492.4,211a2.8,2.8,0,0,1,.7,1.9,3.5,3.5,0,0,1-3.7,3.6h-.7a1.9,1.9,0,0,0-.4.9c0,.4.2.7,1.2.7,3.4,0,4.5,1.1,4.5,2.8s-1.7,3.5-4.6,3.5-4-.9-4-2.9a2.7,2.7,0,0,1,2-2.5,1.5,1.5,0,0,1-.6-1.3v-.4l.8-1.1a3.3,3.3,0,0,1-1.8-3,3.5,3.5,0,0,1,3.6-3.6,4.6,4.6,0,0,1,1.9.4l3.5-.2V211ZM487,221.2c0,.9.8,1.8,2.5,1.8s2.8-.7,2.8-2-.6-1.6-2.8-1.6h-1A1.9,1.9,0,0,0,487,221.2Zm4.6-8.3a2,2,0,0,0-2.2-2.1,2,2,0,0,0-2.1,2.3,2.1,2.1,0,0,0,2.1,2.1A2.1,2.1,0,0,0,491.6,212.9Z"/><path d="M503,220v-7c0-1.7-.9-2-2-2a5,5,0,0,0-2.8,1v8h-1.6V209.7h1l.6,1a4.9,4.9,0,0,1,3.1-1.2c2.6,0,3.3,1.5,3.3,3.5v7Z"/><path d="M516.1,219.8a2.1,2.1,0,0,1-1.2.4,1.8,1.8,0,0,1-1.8-1.2,4.4,4.4,0,0,1-3.1,1.2,2.6,2.6,0,0,1-2.9-2.6c0-2.7,2.6-3.3,6-3.3,0-1.8,0-3.3-2.3-3.3a5.7,5.7,0,0,0-2.7.6l-.4-1.3a7.4,7.4,0,0,1,3.4-.8c3.1,0,3.7,1.7,3.7,4.5v3.7c0,.7,0,1.1.7,1.1h.3Zm-3-4.4c-2.6,0-4.4.4-4.4,2a1.6,1.6,0,0,0,1.7,1.4,3.7,3.7,0,0,0,2.7-1.1Z"/><path d="M530.2,220l-.5-1a4.1,4.1,0,0,1-2.8,1.2c-2.6,0-4.4-2.2-4.4-5.1s2-5.6,4.9-5.6a5.7,5.7,0,0,1,2.3.5v-5.3h1.6V220Zm-.5-8.6a5.9,5.9,0,0,0-2.2-.4c-2,0-3.2,1.4-3.2,3.9s1.2,3.8,2.9,3.8a3.8,3.8,0,0,0,2.5-1Z"/><path d="M542.1,219.2a5.5,5.5,0,0,1-3.4,1c-2.9,0-4.7-2.1-4.7-5.2s1.8-5.5,4.5-5.5,3.8,1.9,3.8,4.2a9.2,9.2,0,0,1-.1,1.6h-6.5c.1,1.6,1,3.4,3.3,3.4a5.5,5.5,0,0,0,2.6-.6Zm-1.4-5v-.7c0-1.5-.7-2.5-2.3-2.5s-2.6,1.6-2.7,3.2Z"/><path d="M191.6,244.2a2.5,2.5,0,0,1-1.2.3c-1.4,0-1.8-.9-1.8-2V229.1h1.7v13.2c0,.4.1.8.7.8h.4Z"/><path d="M202.2,244.2a2.5,2.5,0,0,1-1.3.3,1.7,1.7,0,0,1-1.7-1.1,4.5,4.5,0,0,1-3.2,1.1,2.6,2.6,0,0,1-2.9-2.6c0-2.6,2.7-3.2,6.1-3.2,0-1.8-.1-3.4-2.3-3.4a5.4,5.4,0,0,0-2.7.7l-.4-1.3a6.6,6.6,0,0,1,3.3-.8c3.2,0,3.7,1.7,3.7,4.5v3.7c0,.7.1,1.1.7,1.1h.4Zm-3-4.4c-2.7,0-4.4.4-4.4,1.9a1.5,1.5,0,0,0,1.6,1.5,3.9,3.9,0,0,0,2.8-1.1Z"/><path d="M204.1,242.5a5.7,5.7,0,0,0,2.7.7c1.6,0,2.2-.8,2.2-1.6,0-2.5-5.1-1.2-5.1-4.7,0-1.8,1.4-3,3.6-3a5.5,5.5,0,0,1,2.8.6l-.5,1.2a6.7,6.7,0,0,0-2.2-.4c-1.5,0-2.1.6-2.1,1.4,0,2.3,5.1,1.1,5.1,4.7,0,1.6-1.2,3.1-3.9,3.1a6,6,0,0,1-3-.7Z"/><path d="M225.2,243.8a5.5,5.5,0,0,1-3,.7c-2.5,0-4.7-1.7-4.7-5.1s2.2-5.5,5.2-5.5a5.4,5.4,0,0,1,2.5.6l-.4,1.3a4.3,4.3,0,0,0-2.1-.5c-2.1,0-3.5,1.3-3.5,4.1a3.4,3.4,0,0,0,3.3,3.7,4.1,4.1,0,0,0,2.3-.5Z"/><path d="M231.4,233.9c3.2,0,4.7,2.4,4.7,5.3s-1.9,5.3-4.9,5.3-4.7-2.3-4.7-5.3S228.4,233.9,231.4,233.9Zm-.1,9.2c2.1,0,3.1-1.7,3.1-3.9s-1-3.9-3.1-3.9-3.1,1.8-3.1,3.9S229.2,243.1,231.3,243.1Z"/><path d="M250.7,244.3v-6.9a1.8,1.8,0,0,0-2-2.1,3.6,3.6,0,0,0-2.4,1.1v7.9h-1.6v-6.9c0-1.5-.7-2.1-2-2.1a3.9,3.9,0,0,0-2.4,1.1v7.9h-1.6V234.1h1l.6,1a4.1,4.1,0,0,1,2.8-1.2,2.9,2.9,0,0,1,2.8,1.3,5.2,5.2,0,0,1,3.1-1.3c2.3,0,3.3,1.3,3.3,3.5v6.9Z"/><path d="M262.5,244.3l-.6-.9a4.6,4.6,0,0,1-3,1.1c-2.4,0-3.3-1.6-3.3-3.6v-6.8h1.7v6.8c0,1.7.9,2.2,2,2.2a3.4,3.4,0,0,0,2.5-1.1v-7.9h1.7v10.2Z"/><path d="M273.3,244.3v-6.9c0-1.7-.9-2.1-2-2.1a4.4,4.4,0,0,0-2.7,1.1v7.9h-1.7V234.1h1l.6,1a4.9,4.9,0,0,1,3.2-1.2c2.6,0,3.3,1.5,3.3,3.5v6.9Z"/><path d="M279.2,232a1,1,0,0,1-1.1-1.1,1,1,0,0,1,1.1-1c.6,0,1,.3,1,1.1A1,1,0,0,1,279.2,232Zm2,12.2a2.5,2.5,0,0,1-1.2.3c-1.4,0-1.7-.9-1.7-2v-8.4h1.6v8.2c0,.4.1.8.7.8h.4Z"/><path d="M290.5,244.3l-.5-.9a4.3,4.3,0,0,1-2.8,1.1c-2.6,0-4.4-2.1-4.4-5s1.9-5.6,4.8-5.6a5.1,5.1,0,0,1,2.3.5v-5.3h1.7v15.2Zm-.6-8.5a4.2,4.2,0,0,0-2.1-.5c-2,0-3.3,1.5-3.3,4s1.2,3.8,3,3.8a3.7,3.7,0,0,0,2.4-1Z"/><path d="M303.2,244.2a2.1,2.1,0,0,1-1.2.3,1.6,1.6,0,0,1-1.7-1.1,4.9,4.9,0,0,1-3.2,1.1c-1.7,0-2.9-.9-2.9-2.6s2.6-3.2,6-3.2c0-1.8,0-3.4-2.3-3.4a5,5,0,0,0-2.6.7l-.5-1.3a7.4,7.4,0,0,1,3.4-.8c3.1,0,3.7,1.7,3.7,4.5v3.7c0,.7.1,1.1.7,1.1h.4Zm-3-4.4c-2.6,0-4.3.4-4.3,1.9a1.5,1.5,0,0,0,1.6,1.5,3.5,3.5,0,0,0,2.7-1.1Z"/><path d="M312.3,244.3l-.5-.9a4.3,4.3,0,0,1-2.8,1.1c-2.6,0-4.4-2.1-4.4-5s2-5.6,4.9-5.6a5.7,5.7,0,0,1,2.3.5v-5.3h1.6v15.2Zm-.5-8.5a4.9,4.9,0,0,0-2.2-.5c-2,0-3.3,1.5-3.3,4s1.2,3.8,3,3.8a3.8,3.8,0,0,0,2.5-1Z"/><path d="M324.2,243.6a5.8,5.8,0,0,1-3.4.9c-2.9,0-4.8-2-4.8-5.1s1.9-5.5,4.6-5.5,3.8,1.9,3.8,4.1a9.9,9.9,0,0,1-.2,1.7h-6.4a3.2,3.2,0,0,0,3.3,3.4,5.9,5.9,0,0,0,2.6-.6Zm-1.4-5v-.7c0-1.5-.7-2.5-2.3-2.5s-2.6,1.6-2.7,3.2Z"/><path d="M326.9,242.5a5.7,5.7,0,0,0,2.7.7c1.5,0,2.2-.8,2.2-1.6,0-2.5-5.1-1.2-5.1-4.7,0-1.8,1.4-3,3.6-3a6.1,6.1,0,0,1,2.8.6l-.5,1.2a7.3,7.3,0,0,0-2.3-.4c-1.4,0-2,.6-2,1.4,0,2.3,5.1,1.1,5.1,4.7,0,1.6-1.3,3.1-3.9,3.1a5.8,5.8,0,0,1-3-.7Z"/><path d="M348.4,243.6a5.4,5.4,0,0,1-3.3.9c-3,0-4.8-2-4.8-5.1s1.8-5.5,4.5-5.5,3.8,1.9,3.8,4.1a9.7,9.7,0,0,1-.1,1.7H342c.1,1.6,1,3.4,3.3,3.4a5.5,5.5,0,0,0,2.6-.6Zm-1.4-5v-.7c0-1.5-.7-2.5-2.3-2.5s-2.6,1.6-2.7,3.2Z"/><path d="M357.7,244.3v-6.9c0-1.7-.8-2.1-2-2.1a4.4,4.4,0,0,0-2.7,1.1v7.9h-1.7V234.1h1l.6,1a4.9,4.9,0,0,1,3.2-1.2c2.6,0,3.3,1.5,3.3,3.5v6.9Z"/><path d="M370.7,244.2a2.5,2.5,0,0,1-1.2.3c-1.4,0-1.8-.9-1.8-2V229.1h1.7v13.2c0,.4,0,.8.7.8h.3Z"/><path d="M377.1,233.9c3.2,0,4.7,2.4,4.7,5.3s-1.9,5.3-4.9,5.3-4.7-2.3-4.7-5.3S374.1,233.9,377.1,233.9Zm-.1,9.2c2.1,0,3.1-1.7,3.1-3.9s-1-3.9-3.1-3.9-3.1,1.8-3.1,3.9S374.9,243.1,377,243.1Z"/><path d="M384.2,242.5a5.7,5.7,0,0,0,2.7.7c1.5,0,2.2-.8,2.2-1.6,0-2.5-5.1-1.2-5.1-4.7,0-1.8,1.4-3,3.6-3a5.8,5.8,0,0,1,2.8.6l-.5,1.2a7.3,7.3,0,0,0-2.3-.4c-1.4,0-2,.6-2,1.4,0,2.3,5.1,1.1,5.1,4.7,0,1.6-1.3,3.1-3.9,3.1a5.8,5.8,0,0,1-3-.7Z"/><path d="M403.6,244.1a5.4,5.4,0,0,1-2,.4c-1.8,0-2.9-1-2.9-3.2v-6h-1.8v-1.2h1.8v-2.2l1.7-.4v2.6h3.1v1.2h-3.1v6c0,1.3.6,1.8,1.5,1.8a2.6,2.6,0,0,0,1.4-.3Z"/><path d="M413.2,243.6a5.5,5.5,0,0,1-3.4.9c-2.9,0-4.7-2-4.7-5.1s1.8-5.5,4.5-5.5,3.8,1.9,3.8,4.1a9.9,9.9,0,0,1-.2,1.7h-6.4a3.2,3.2,0,0,0,3.3,3.4,5.5,5.5,0,0,0,2.6-.6Zm-1.4-5v-.7c0-1.5-.7-2.5-2.3-2.5s-2.6,1.6-2.7,3.2Z"/><path d="M416.1,244.3V234.1h1l.5,1.4a3.8,3.8,0,0,1,3.1-1.6,1.5,1.5,0,0,1,.9.2l-.3,1.5-.9-.2a3.2,3.2,0,0,0-2.6,1.4v7.5Z"/><path d="M423.5,244.3V234.1h1l.5,1.4a3.6,3.6,0,0,1,3-1.6,1.6,1.6,0,0,1,1,.2l-.3,1.5-.9-.2a3.6,3.6,0,0,0-2.7,1.4v7.5Z"/><path d="M431.7,232a1,1,0,0,1-1-1.1,1,1,0,0,1,1-1,1,1,0,0,1,1.1,1.1A1,1,0,0,1,431.7,232Zm2.1,12.2a2.5,2.5,0,0,1-1.2.3c-1.4,0-1.8-.9-1.8-2v-8.4h1.7v8.2c0,.4.1.8.7.8h.4Z"/><path d="M441.4,244.1a5.6,5.6,0,0,1-2.1.4c-1.8,0-2.8-1-2.8-3.2v-6h-1.8v-1.2h1.8v-2.2l1.6-.4v2.6h3.2v1.2h-3.2v6c0,1.3.7,1.8,1.6,1.8a2.9,2.9,0,0,0,1.4-.3Z"/><path d="M447.7,233.9c3.2,0,4.7,2.4,4.7,5.3s-1.9,5.3-4.9,5.3-4.7-2.3-4.7-5.3S444.7,233.9,447.7,233.9Zm-.1,9.2c2.1,0,3-1.7,3-3.9s-.9-3.9-3-3.9-3.1,1.8-3.1,3.9S445.5,243.1,447.6,243.1Z"/><path d="M455,244.3V234.1h1l.5,1.4a3.8,3.8,0,0,1,3.1-1.6,1.5,1.5,0,0,1,.9.2l-.3,1.5-.9-.2a3.6,3.6,0,0,0-2.7,1.4v7.5Z"/><path d="M463.3,232a1,1,0,0,1-1.1-1.1,1,1,0,0,1,1.1-1c.6,0,1,.3,1,1.1A1,1,0,0,1,463.3,232Zm2,12.2a2.5,2.5,0,0,1-1.2.3c-1.4,0-1.7-.9-1.7-2v-8.4H464v8.2c0,.4.1.8.7.8h.4Z"/><path d="M471.7,233.9c3.2,0,4.7,2.4,4.7,5.3s-1.9,5.3-4.8,5.3-4.7-2.3-4.7-5.3S468.8,233.9,471.7,233.9Zm-.1,9.2c2.1,0,3.1-1.7,3.1-3.9s-1-3.9-3.1-3.9-3,1.8-3,3.9S469.5,243.1,471.6,243.1Z"/><path d="M478.9,242.5a5.3,5.3,0,0,0,2.6.7c1.6,0,2.2-.8,2.2-1.6,0-2.5-5.1-1.2-5.1-4.7,0-1.8,1.4-3,3.6-3a5.5,5.5,0,0,1,2.8.6l-.4,1.2a7.3,7.3,0,0,0-2.3-.4c-1.4,0-2.1.6-2.1,1.4,0,2.3,5.1,1.1,5.1,4.7,0,1.6-1.2,3.1-3.9,3.1a6.3,6.3,0,0,1-3-.7Z"/><path d="M487.6,247.2a3.6,3.6,0,0,0,1.1-2.4,1.6,1.6,0,0,0-1.1-1.6s.2-1.1,1.2-1.1,1.4.7,1.4,1.8a5.6,5.6,0,0,1-1.7,3.8Z"/><path d="M496.7,234.1h1.9l3.2,8.5,2.8-8.5h1.7l-4.1,11.5a4,4,0,0,1-3.8,2.9,3.2,3.2,0,0,1-1.8-.6l.6-1.2a2.5,2.5,0,0,0,1.3.3c1.4,0,2.1-1,2.5-2.6Z"/><path d="M195.6,268.2a6,6,0,0,1-3,.7c-2.6,0-4.8-1.7-4.8-5.1s2.2-5.5,5.2-5.5a5.1,5.1,0,0,1,2.5.6l-.4,1.3a3.8,3.8,0,0,0-2.1-.5c-2,0-3.4,1.3-3.4,4.1s1.5,3.7,3.3,3.7a4.6,4.6,0,0,0,2.3-.5Z"/><path d="M201.7,258.3c3.2,0,4.7,2.4,4.7,5.3s-1.9,5.3-4.8,5.3-4.7-2.3-4.7-5.3S198.8,258.3,201.7,258.3Zm-.1,9.2c2.1,0,3.1-1.7,3.1-3.9s-1-3.9-3.1-3.9-3,1.8-3,3.9S199.5,267.5,201.6,267.5Z"/><path d="M215.4,268.7v-7c0-1.6-.8-2-2-2a4.4,4.4,0,0,0-2.7,1.1v7.9H209V258.5h1l.7,1a4.6,4.6,0,0,1,3.1-1.2c2.6,0,3.3,1.5,3.3,3.4v7Z"/><path d="M220.2,266.9a5.6,5.6,0,0,0,2.6.7c1.6,0,2.2-.8,2.2-1.6,0-2.5-5-1.2-5-4.7,0-1.8,1.4-3,3.6-3a5.4,5.4,0,0,1,2.7.6l-.4,1.2a7.3,7.3,0,0,0-2.3-.4c-1.4,0-2.1.6-2.1,1.4s5.2,1.1,5.2,4.7c0,1.6-1.3,3.1-3.9,3.1a6.5,6.5,0,0,1-3.1-.7Z"/><path d="M234.5,268.5a5,5,0,0,1-2,.4c-1.8,0-2.8-1-2.8-3.2v-6h-1.9v-1.2h1.9v-2.2l1.6-.4v2.6h3.2v1.2h-3.2v6c0,1.3.6,1.8,1.6,1.8a2.5,2.5,0,0,0,1.3-.3Z"/><path d="M236.8,268.7V258.5h1l.5,1.4a3.8,3.8,0,0,1,3.1-1.6,1.5,1.5,0,0,1,.9.2L242,260l-.9-.2a3.6,3.6,0,0,0-2.7,1.4v7.5Z"/><path d="M251,268.7l-.6-1a4.2,4.2,0,0,1-3,1.2c-2.4,0-3.2-1.6-3.2-3.6v-6.8h1.6v6.8c0,1.7.9,2.2,2,2.2a3.9,3.9,0,0,0,2.6-1.1v-7.9H252v10.2Z"/><path d="M256.3,256.4a1,1,0,0,1-1-1.1,1.1,1.1,0,0,1,1-1.1c.7,0,1.1.4,1.1,1.2A1,1,0,0,1,256.3,256.4Zm2.1,12.2a2.5,2.5,0,0,1-1.2.3c-1.4,0-1.8-.9-1.8-2v-8.4h1.7v8.2c0,.4.1.8.7.8h.4Z"/><path d="M260.8,268.7V258.5h1l.4,1.4a4,4,0,0,1,3.1-1.6c.4,0,.7,0,.9.2l-.3,1.5-.8-.2a3.4,3.4,0,0,0-2.7,1.4v7.5Z"/><path d="M280,268.7l-.6-1a4,4,0,0,1-3,1.2c-2.4,0-3.2-1.6-3.2-3.6v-6.8h1.6v6.8c0,1.7.9,2.2,2,2.2a3.7,3.7,0,0,0,2.6-1.1v-7.9H281v10.2Z"/><path d="M290.8,268.7v-7c0-1.6-.8-2-2-2a4.4,4.4,0,0,0-2.7,1.1v7.9h-1.7V258.5h1l.6,1a5.2,5.2,0,0,1,3.2-1.2c2.6,0,3.3,1.5,3.3,3.4v7Z"/><path d="M304,268.6a2.5,2.5,0,0,1-1.3.3,1.7,1.7,0,0,1-1.7-1.1,4.5,4.5,0,0,1-3.2,1.1,2.6,2.6,0,0,1-2.9-2.6c0-2.6,2.7-3.2,6.1-3.2,0-1.8,0-3.4-2.3-3.4a6.7,6.7,0,0,0-2.7.6l-.4-1.2a6.6,6.6,0,0,1,3.3-.8c3.2,0,3.7,1.7,3.7,4.5v3.7c0,.7.1,1.1.7,1.1h.4Zm-3-4.4c-2.6,0-4.4.4-4.4,1.9a1.5,1.5,0,0,0,1.7,1.5,3.7,3.7,0,0,0,2.7-1.1Z"/><path d="M313.3,268.7l-3.7-10.2h1.7l3,8.8h0l3-8.8H319l-3.7,10.2Z"/><path d="M321.7,256.4a1.1,1.1,0,0,1,0-2.2,1.1,1.1,0,0,1,1.1,1.2A1.1,1.1,0,0,1,321.7,256.4Zm2.1,12.2a2.7,2.7,0,0,1-1.3.3c-1.3,0-1.7-.9-1.7-2v-8.4h1.6v8.2c0,.4.1.8.7.8h.4Z"/><path d="M325.9,266.9a5.7,5.7,0,0,0,2.7.7c1.6,0,2.2-.8,2.2-1.6,0-2.5-5.1-1.2-5.1-4.7,0-1.8,1.4-3,3.6-3a5.8,5.8,0,0,1,2.8.6l-.5,1.2a7.3,7.3,0,0,0-2.3-.4c-1.4,0-2,.6-2,1.4s5.1,1.1,5.1,4.7c0,1.6-1.3,3.1-3.9,3.1a5.8,5.8,0,0,1-3-.7Z"/><path d="M335.9,256.4a1,1,0,0,1-1-1.1,1.1,1.1,0,0,1,1-1.1c.7,0,1.1.4,1.1,1.2A1,1,0,0,1,335.9,256.4Zm2.1,12.2a2.5,2.5,0,0,1-1.2.3c-1.4,0-1.8-.9-1.8-2v-8.4h1.7v8.2c0,.4.1.8.7.8h.4Z"/><path d="M344.4,258.3c3.2,0,4.7,2.4,4.7,5.3s-1.9,5.3-4.8,5.3-4.7-2.3-4.7-5.3S341.4,258.3,344.4,258.3Zm-.1,9.2c2.1,0,3.1-1.7,3.1-3.9s-1-3.9-3.1-3.9-3,1.8-3,3.9S342.2,267.5,344.3,267.5Zm-1.7-10.9,1.9-2.9h1.8l-2.3,2.9Z"/><path d="M358.1,268.7v-7a1.7,1.7,0,0,0-2-2,3.9,3.9,0,0,0-2.7,1.1v7.9h-1.7V258.5h1l.6,1a4.9,4.9,0,0,1,3.2-1.2c2.6,0,3.3,1.5,3.3,3.4v7Z"/><path d="M375,268.2a5.5,5.5,0,0,1-3,.7c-2.5,0-4.7-1.7-4.7-5.1s2.2-5.5,5.2-5.5a5.4,5.4,0,0,1,2.5.6l-.4,1.3a4.3,4.3,0,0,0-2.1-.5c-2.1,0-3.5,1.3-3.5,4.1a3.4,3.4,0,0,0,3.3,3.7,4.1,4.1,0,0,0,2.3-.5Z"/><path d="M381.2,258.3c3.2,0,4.7,2.4,4.7,5.3s-1.9,5.3-4.9,5.3-4.6-2.3-4.6-5.3S378.2,258.3,381.2,258.3Zm-.1,9.2c2.1,0,3.1-1.7,3.1-3.9s-1-3.9-3.1-3.9-3.1,1.8-3.1,3.9S379,267.5,381.1,267.5Z"/><path d="M400.5,268.7v-7a1.8,1.8,0,0,0-2-2,3.2,3.2,0,0,0-2.3,1.1v7.9h-1.7v-7c0-1.5-.7-2-2-2a3.5,3.5,0,0,0-2.3,1.1v7.9h-1.7V258.5h1l.6,1a4.1,4.1,0,0,1,2.8-1.2,2.9,2.9,0,0,1,2.8,1.3,5.3,5.3,0,0,1,3.2-1.3c2.2,0,3.2,1.3,3.2,3.4v7Z"/><path d="M405.4,272.9V258.5h1.2l.4,1a4.5,4.5,0,0,1,2.9-1.2c2.7,0,4.3,2.2,4.3,5.1s-1.9,5.5-4.8,5.5a5.7,5.7,0,0,1-2.3-.5v4.5Zm1.7-5.9a4.2,4.2,0,0,0,2.1.5c2.1,0,3.3-1.5,3.3-3.9s-1.2-3.9-3-3.9a3.7,3.7,0,0,0-2.4,1Z"/><path d="M425.1,268.6a2.5,2.5,0,0,1-1.3.3,1.7,1.7,0,0,1-1.7-1.1,4.5,4.5,0,0,1-3.2,1.1,2.6,2.6,0,0,1-2.9-2.6c0-2.6,2.7-3.2,6.1-3.2,0-1.8,0-3.4-2.3-3.4a6.7,6.7,0,0,0-2.7.6l-.4-1.2a6.9,6.9,0,0,1,3.3-.8c3.2,0,3.7,1.7,3.7,4.5v3.7c0,.7.1,1.1.7,1.1h.4Zm-3-4.4c-2.6,0-4.4.4-4.4,1.9a1.6,1.6,0,0,0,1.7,1.5,3.7,3.7,0,0,0,2.7-1.1Z"/><path d="M427.3,268.7V258.5h.9l.5,1.4a3.8,3.8,0,0,1,3.1-1.6c.4,0,.7,0,.9.2l-.3,1.5-.8-.2a3.4,3.4,0,0,0-2.7,1.4v7.5Z"/><path d="M440.1,268.5a5,5,0,0,1-2,.4c-1.8,0-2.8-1-2.8-3.2v-6h-1.8v-1.2h1.8v-2.2l1.6-.4v2.6h3.2v1.2h-3.2v6c0,1.3.6,1.8,1.6,1.8a2.5,2.5,0,0,0,1.3-.3Z"/><path d="M443.3,256.4a1.1,1.1,0,0,1,0-2.2,1.1,1.1,0,0,1,1.1,1.2A1.1,1.1,0,0,1,443.3,256.4Zm2.1,12.2a2.7,2.7,0,0,1-1.3.3c-1.3,0-1.7-.9-1.7-2v-8.4H444v8.2c0,.4.1.8.8.8h.3Z"/><path d="M454.6,268.7l-.5-.9a4.3,4.3,0,0,1-2.8,1.1c-2.6,0-4.4-2.1-4.4-5s2-5.6,4.9-5.6a5.7,5.7,0,0,1,2.3.5v-5.3h1.6v15.2Zm-.5-8.5a4.9,4.9,0,0,0-2.2-.5c-2,0-3.2,1.5-3.2,4s1.2,3.8,2.9,3.8a3.8,3.8,0,0,0,2.5-1Z"/><path d="M467.4,268.6a2.5,2.5,0,0,1-1.3.3,1.7,1.7,0,0,1-1.7-1.1,4.5,4.5,0,0,1-3.2,1.1,2.6,2.6,0,0,1-2.9-2.6c0-2.6,2.7-3.2,6.1-3.2,0-1.8-.1-3.4-2.3-3.4a6.7,6.7,0,0,0-2.7.6l-.4-1.2a6.6,6.6,0,0,1,3.3-.8c3.2,0,3.7,1.7,3.7,4.5v3.7c0,.7.1,1.1.7,1.1h.4Zm-3-4.4c-2.7,0-4.4.4-4.4,1.9a1.5,1.5,0,0,0,1.6,1.5,3.9,3.9,0,0,0,2.8-1.1Z"/><path d="M481.4,268.7l-.4-.9a4.3,4.3,0,0,1-2.8,1.1c-2.6,0-4.4-2.1-4.4-5s1.9-5.6,4.8-5.6a5.1,5.1,0,0,1,2.3.5v-5.3h1.7v15.2Zm-.5-8.5a4.2,4.2,0,0,0-2.1-.5c-2.1,0-3.3,1.5-3.3,4s1.2,3.8,3,3.8a3.7,3.7,0,0,0,2.4-1Z"/><path d="M493.4,268a6,6,0,0,1-3.4.9c-2.9,0-4.8-2-4.8-5.1s1.8-5.5,4.6-5.5,3.8,1.9,3.8,4.1a9.9,9.9,0,0,1-.2,1.7H487a3.2,3.2,0,0,0,3.3,3.4,6.2,6.2,0,0,0,2.6-.6Zm-1.4-5v-.7c0-1.5-.7-2.5-2.3-2.5s-2.7,1.6-2.7,3.2Z"/><path d="M193.8,292.8a3.4,3.4,0,0,1-2,.5c-1.8,0-2.8-1-2.8-3.2v-6h-1.8v-1.2H189v-2.2l1.6-.4v2.6h3.2v1.2h-3.2v6c0,1.3.7,1.8,1.6,1.8a2.5,2.5,0,0,0,1.3-.3Z"/><path d="M203.5,292.4a6,6,0,0,1-3.4.9c-2.9,0-4.8-2-4.8-5.1s1.8-5.5,4.6-5.5,3.8,1.9,3.8,4.1a9.9,9.9,0,0,1-.2,1.7h-6.4a3.2,3.2,0,0,0,3.3,3.4,6.2,6.2,0,0,0,2.6-.6Zm-1.4-5v-.7c0-1.5-.7-2.6-2.3-2.6s-2.7,1.7-2.7,3.3Z"/><path d="M206.4,293.1V282.9h1l.5,1.4a3.8,3.8,0,0,1,3.1-1.6h.9l-.3,1.6-.9-.2a3.6,3.6,0,0,0-2.7,1.4v7.5Z"/><path d="M213.7,293.1V282.9h1l.5,1.4a3.8,3.8,0,0,1,3.1-1.6h.9l-.3,1.6-.8-.2a3.4,3.4,0,0,0-2.7,1.4v7.5Z"/><path d="M222,280.8a1.1,1.1,0,0,1,0-2.2,1.1,1.1,0,0,1,1.1,1.2A1.1,1.1,0,0,1,222,280.8Zm2.1,12.2a2.7,2.7,0,0,1-1.3.3c-1.3,0-1.7-.9-1.7-2v-8.4h1.6v8.2c0,.4.1.8.8.8h.3Z"/><path d="M231.6,292.8a3.4,3.4,0,0,1-2,.5c-1.8,0-2.8-1-2.8-3.2v-6H225v-1.2h1.8v-2.2l1.6-.4v2.6h3.2v1.2h-3.2v6c0,1.3.6,1.8,1.6,1.8a2.5,2.5,0,0,0,1.3-.3Z"/><path d="M237.9,282.7c3.3,0,4.7,2.4,4.7,5.3s-1.8,5.3-4.8,5.3-4.7-2.3-4.7-5.3S235,282.7,237.9,282.7Zm-.1,9.2c2.1,0,3.1-1.8,3.1-3.9s-1-3.9-3.1-3.9-3,1.8-3,3.9S235.8,291.9,237.8,291.9Z"/><path d="M245.3,293.1V282.9h1l.5,1.4a3.6,3.6,0,0,1,3-1.6h1l-.3,1.6-.9-.2a3.6,3.6,0,0,0-2.7,1.4v7.5Z"/><path d="M253.5,280.8a1,1,0,0,1-1-1.1,1.1,1.1,0,0,1,1-1.1c.7,0,1.1.4,1.1,1.2A1,1,0,0,1,253.5,280.8Zm2.1,12.2a2.5,2.5,0,0,1-1.2.3c-1.4,0-1.8-.9-1.8-2v-8.4h1.7v8.2c0,.4.1.8.7.8h.4Z"/><path d="M262,282.7c3.2,0,4.7,2.4,4.7,5.3s-1.9,5.3-4.8,5.3-4.7-2.3-4.7-5.3S259,282.7,262,282.7Zm-.1,9.2c2.1,0,3.1-1.8,3.1-3.9s-1-3.9-3.1-3.9-3.1,1.8-3.1,3.9S259.8,291.9,261.9,291.9Z"/><path d="M272.7,282.9h1.9l3.2,8.4,2.8-8.4h1.7l-4.2,11.5a3.8,3.8,0,0,1-3.7,2.9,3,3,0,0,1-1.8-.6l.5-1.2a2.9,2.9,0,0,0,1.4.3c1.4,0,2-1.1,2.5-2.6Z"/><path d="M296,293.1l-.4-.9a4.3,4.3,0,0,1-2.8,1.1c-2.6,0-4.4-2.1-4.4-5s1.9-5.6,4.8-5.6a5.1,5.1,0,0,1,2.3.5v-5.4h1.7v15.3Zm-.5-8.5a4.2,4.2,0,0,0-2.1-.5c-2.1,0-3.3,1.5-3.3,4s1.2,3.8,3,3.8a3.7,3.7,0,0,0,2.4-1Z"/><path d="M308,292.4a6,6,0,0,1-3.4.9c-2.9,0-4.8-2-4.8-5.1s1.8-5.5,4.6-5.5,3.8,1.9,3.8,4.1a9.9,9.9,0,0,1-.2,1.7h-6.4a3.2,3.2,0,0,0,3.3,3.4,6.2,6.2,0,0,0,2.6-.6Zm-1.4-5v-.7c0-1.5-.7-2.6-2.3-2.6s-2.7,1.7-2.7,3.3Z"/><path d="M316.4,297.3V284.1h-1.9v-1.2h1.9v-.4c0-2.9,1.5-4.8,4.2-4.8a4.4,4.4,0,0,1,1.6.2l-.3,1.3-1.2-.2c-1.9,0-2.7,1.2-2.7,3.2v.7h2.9v1.2H318v13.2Z"/><path d="M329.3,293.1l-.6-1a4.2,4.2,0,0,1-3,1.2c-2.4,0-3.3-1.6-3.3-3.6v-6.8h1.7v6.8c0,1.6.9,2.2,2,2.2a3.4,3.4,0,0,0,2.5-1.1v-7.9h1.7v10.2Z"/><path d="M338.9,292.8a3.7,3.7,0,0,1-2,.5c-1.8,0-2.8-1-2.8-3.2v-6h-1.9v-1.2h1.9v-2.2l1.6-.4v2.6h3.2v1.2h-3.2v6c0,1.3.6,1.8,1.6,1.8a2.5,2.5,0,0,0,1.3-.3Z"/><path d="M348,293.1l-.5-1a4.2,4.2,0,0,1-3,1.2c-2.5,0-3.3-1.6-3.3-3.6v-6.8h1.6v6.8c0,1.6.9,2.2,2,2.2a3.7,3.7,0,0,0,2.6-1.1v-7.9H349v10.2Z"/><path d="M352.5,293.1V282.9h1l.5,1.4a3.6,3.6,0,0,1,3-1.6h1l-.3,1.6-.9-.2a3.6,3.6,0,0,0-2.7,1.4v7.5Z"/><path d="M363.4,282.7c3.3,0,4.7,2.4,4.7,5.3s-1.8,5.3-4.8,5.3-4.7-2.3-4.7-5.3S360.5,282.7,363.4,282.7Zm0,9.2c2.1,0,3-1.8,3-3.9s-.9-3.9-3-3.9-3.1,1.8-3.1,3.9S361.3,291.9,363.4,291.9Z"/><path d="M382.7,293.1l-.4-.9a4.7,4.7,0,0,1-2.9,1.1c-2.6,0-4.4-2.1-4.4-5s2-5.6,4.9-5.6a5.7,5.7,0,0,1,2.3.5v-5.4h1.6v15.3Zm-.5-8.5a4.2,4.2,0,0,0-2.1-.5c-2.1,0-3.3,1.5-3.3,4s1.2,3.8,3,3.8a3.7,3.7,0,0,0,2.4-1Z"/><path d="M394.6,292.4a5.4,5.4,0,0,1-3.3.9c-3,0-4.8-2-4.8-5.1s1.8-5.5,4.5-5.5,3.8,1.9,3.8,4.1a9.7,9.7,0,0,1-.1,1.7h-6.5c.1,1.6,1,3.4,3.3,3.4a5.5,5.5,0,0,0,2.6-.6Zm-1.4-5v-.7c0-1.5-.7-2.6-2.3-2.6s-2.6,1.7-2.7,3.3Z"/><path d="M397.4,291.3a6.2,6.2,0,0,0,2.6.7c1.6,0,2.2-.8,2.2-1.6,0-2.5-5.1-1.2-5.1-4.7,0-1.8,1.4-3,3.6-3a5.5,5.5,0,0,1,2.8.6l-.5,1.2a6.7,6.7,0,0,0-2.2-.4c-1.5,0-2.1.6-2.1,1.4,0,2.3,5.1,1.1,5.1,4.6,0,1.7-1.2,3.2-3.9,3.2a6.3,6.3,0,0,1-3-.7Z"/><path d="M413.3,293.1l-.4-.9a4.6,4.6,0,0,1-2.8,1.1c-2.6,0-4.4-2.1-4.4-5s1.9-5.6,4.8-5.6a5.7,5.7,0,0,1,2.3.5v-5.4h1.7v15.3Zm-.5-8.5a4.2,4.2,0,0,0-2.1-.5c-2.1,0-3.3,1.5-3.3,4s1.2,3.8,3,3.8a3.7,3.7,0,0,0,2.4-1Z"/><path d="M425.2,292.4a5.4,5.4,0,0,1-3.3.9c-2.9,0-4.8-2-4.8-5.1s1.8-5.5,4.5-5.5,3.9,1.9,3.9,4.1a9.9,9.9,0,0,1-.2,1.7h-6.4a3.2,3.2,0,0,0,3.3,3.4,6.2,6.2,0,0,0,2.6-.6Zm-1.4-5a1.7,1.7,0,0,0,.1-.7c0-1.5-.7-2.6-2.3-2.6s-2.7,1.7-2.7,3.3Z"/><path d="M440.5,292.4a5.4,5.4,0,0,1-3.3.9c-2.9,0-4.8-2-4.8-5.1s1.8-5.5,4.6-5.5,3.8,1.9,3.8,4.1a9.9,9.9,0,0,1-.2,1.7h-6.4a3.2,3.2,0,0,0,3.3,3.4,6.2,6.2,0,0,0,2.6-.6Zm-1.4-5a1.7,1.7,0,0,0,.1-.7c0-1.5-.7-2.6-2.3-2.6s-2.7,1.7-2.7,3.3Z"/><path d="M446.5,293a2.7,2.7,0,0,1-1.3.3c-1.3,0-1.7-.9-1.7-2V277.8h1.6v13.3c0,.4.1.8.7.8h.4Z"/><path d="M453.8,293.1V282.9h1l.5,1.4a3.8,3.8,0,0,1,3.1-1.6h.9l-.3,1.6-.8-.2a3.4,3.4,0,0,0-2.7,1.4v7.5Z"/><path d="M468.1,292.4a5.4,5.4,0,0,1-3.3.9c-2.9,0-4.8-2-4.8-5.1s1.8-5.5,4.5-5.5,3.9,1.9,3.9,4.1a9.9,9.9,0,0,1-.2,1.7h-6.4a3.2,3.2,0,0,0,3.3,3.4,6.2,6.2,0,0,0,2.6-.6Zm-1.4-5a1.7,1.7,0,0,0,.1-.7c0-1.5-.7-2.6-2.3-2.6s-2.7,1.7-2.7,3.3Z"/><path d="M470.9,291.3a6.6,6.6,0,0,0,2.6.7c1.6,0,2.2-.8,2.2-1.6,0-2.5-5.1-1.2-5.1-4.7,0-1.8,1.5-3,3.7-3a5.4,5.4,0,0,1,2.7.6l-.4,1.2a7.3,7.3,0,0,0-2.3-.4c-1.4,0-2.1.6-2.1,1.4,0,2.3,5.1,1.1,5.1,4.6,0,1.7-1.2,3.2-3.8,3.2a6.5,6.5,0,0,1-3.1-.7Z"/><path d="M480,297.3V282.9h1.1l.5.9a4.3,4.3,0,0,1,2.8-1.1c2.7,0,4.4,2.2,4.4,5s-2,5.6-4.9,5.6a5.7,5.7,0,0,1-2.3-.5v4.5Zm1.6-5.9a4.9,4.9,0,0,0,2.2.5c2,0,3.3-1.5,3.3-4s-1.3-3.8-3-3.8a4.2,4.2,0,0,0-2.5,1Z"/><path d="M498.8,292.4a5.8,5.8,0,0,1-3.4.9c-2.9,0-4.8-2-4.8-5.1s1.8-5.5,4.6-5.5,3.8,1.9,3.8,4.1a9.9,9.9,0,0,1-.2,1.7h-6.4a3.2,3.2,0,0,0,3.3,3.4,6.2,6.2,0,0,0,2.6-.6Zm-1.4-5v-.7c0-1.5-.7-2.6-2.3-2.6s-2.7,1.7-2.7,3.3Z"/><path d="M506.9,292.8a3.9,3.9,0,0,1-2,.5c-1.8,0-2.9-1-2.9-3.2v-6h-1.8v-1.2H502v-2.2l1.7-.4v2.6h3.2v1.2h-3.2v6c0,1.3.6,1.8,1.6,1.8a2.5,2.5,0,0,0,1.3-.3Z"/><path d="M513.2,282.7c3.2,0,4.7,2.4,4.7,5.3s-1.9,5.3-4.8,5.3-4.7-2.3-4.7-5.3S510.3,282.7,513.2,282.7Zm-.1,9.2c2.1,0,3.1-1.8,3.1-3.9s-1-3.9-3.1-3.9-3,1.8-3,3.9S511,291.9,513.1,291.9Z"/><path d="M533.8,293a2.5,2.5,0,0,1-1.3.3,1.7,1.7,0,0,1-1.7-1.1,5,5,0,0,1-3.2,1.1,2.6,2.6,0,0,1-2.9-2.6c0-2.6,2.7-3.2,6.1-3.2,0-1.8,0-3.4-2.3-3.4a6.7,6.7,0,0,0-2.7.6l-.4-1.2a6.6,6.6,0,0,1,3.3-.8c3.2,0,3.7,1.7,3.7,4.5v3.7c0,.7.1,1.1.7,1.1h.4Zm-3-4.4c-2.6,0-4.4.4-4.4,1.9a1.5,1.5,0,0,0,1.7,1.5,3.7,3.7,0,0,0,2.7-1.1Z"/><path d="M544,293a2.7,2.7,0,0,1-1.3.3c-1.3,0-1.7-.9-1.7-2V277.8h1.6v13.3c0,.4.1.8.7.8h.4Z"/><path d="M554.5,293a2.1,2.1,0,0,1-1.2.3,1.7,1.7,0,0,1-1.8-1.1,4.9,4.9,0,0,1-3.1,1.1c-1.7,0-2.9-.9-2.9-2.6s2.6-3.2,6-3.2c0-1.8,0-3.4-2.3-3.4a7.2,7.2,0,0,0-2.7.6l-.4-1.2a7.4,7.4,0,0,1,3.4-.8c3.1,0,3.7,1.7,3.7,4.5v3.7c0,.7,0,1.1.7,1.1h.3Zm-3-4.4c-2.6,0-4.4.4-4.4,1.9a1.6,1.6,0,0,0,1.7,1.5,3.7,3.7,0,0,0,2.7-1.1Z"/><path d="M190.7,317.5,187,307.3h1.8l2.9,8.7h.1l3-8.7h1.6l-3.7,10.2Z"/><path d="M199.1,305.2a1,1,0,0,1-1-1.1,1.1,1.1,0,0,1,1-1.1,1,1,0,0,1,1.1,1.1A1,1,0,0,1,199.1,305.2Zm2.1,12.2a2.5,2.5,0,0,1-1.2.3c-1.4,0-1.8-.9-1.8-2v-8.4h1.7v8.2c0,.4.1.8.7.8h.4Z"/><path d="M210.4,317.5l-.4-.9a4.6,4.6,0,0,1-2.8,1.1c-2.6,0-4.4-2.1-4.4-5s1.9-5.6,4.8-5.6a5.7,5.7,0,0,1,2.3.5v-5.4h1.7v15.3Zm-.5-8.5a4.2,4.2,0,0,0-2.1-.5c-2.1,0-3.3,1.5-3.3,4s1.2,3.8,3,3.8a3.7,3.7,0,0,0,2.4-1Z"/><path d="M223.2,317.4a2.1,2.1,0,0,1-1.2.3,1.7,1.7,0,0,1-1.8-1.2,4.4,4.4,0,0,1-3.1,1.2c-1.7,0-3-.9-3-2.6s2.7-3.2,6.1-3.2c0-1.8,0-3.4-2.3-3.4a7.2,7.2,0,0,0-2.7.6l-.4-1.3a9.1,9.1,0,0,1,3.4-.7c3.1,0,3.7,1.7,3.7,4.5v3.7c0,.7,0,1,.7,1h.3Zm-3-4.4c-2.6,0-4.4.4-4.4,1.9a1.6,1.6,0,0,0,1.7,1.5,3.7,3.7,0,0,0,2.7-1.1Z"/><path d="M225.7,320.4a3.7,3.7,0,0,0,1-2.4,1.8,1.8,0,0,0-1.1-1.7,1.3,1.3,0,0,1,1.2-1c1,0,1.4.7,1.4,1.8a5.6,5.6,0,0,1-1.7,3.8Z"/><path d="M239.4,317.4a2.7,2.7,0,0,1-1.3.3c-1.3,0-1.7-.9-1.7-2V302.2H238v13.3c0,.4.1.8.7.8h.4Z"/><path d="M249.9,317.4a2.1,2.1,0,0,1-1.2.3,1.7,1.7,0,0,1-1.8-1.2,4.4,4.4,0,0,1-3.1,1.2c-1.7,0-2.9-.9-2.9-2.6s2.6-3.2,6-3.2c0-1.8,0-3.4-2.3-3.4a7.2,7.2,0,0,0-2.7.6l-.4-1.3a9.1,9.1,0,0,1,3.4-.7c3.1,0,3.7,1.7,3.7,4.5v3.7c0,.7,0,1,.7,1h.3Zm-3-4.4c-2.6,0-4.4.4-4.4,1.9a1.6,1.6,0,0,0,1.7,1.5,3.7,3.7,0,0,0,2.7-1.1Z"/><path d="M251.9,315.7a6.6,6.6,0,0,0,2.6.6c1.6,0,2.2-.7,2.2-1.5,0-2.5-5.1-1.2-5.1-4.7,0-1.8,1.5-3,3.7-3a7.1,7.1,0,0,1,2.7.5l-.4,1.3a7.3,7.3,0,0,0-2.3-.4c-1.4,0-2.1.6-2.1,1.4,0,2.3,5.2,1.1,5.2,4.6,0,1.7-1.3,3.2-3.9,3.2a6.5,6.5,0,0,1-3.1-.7Z"/><path d="M272.9,317.5l-.4-.9a4.7,4.7,0,0,1-2.9,1.1c-2.5,0-4.4-2.1-4.4-5s2-5.6,4.9-5.6a5.7,5.7,0,0,1,2.3.5v-5.4H274v15.3Zm-.5-8.5a4.2,4.2,0,0,0-2.1-.5c-2.1,0-3.3,1.5-3.3,4s1.2,3.8,3,3.8a3.7,3.7,0,0,0,2.4-1Z"/><path d="M278.4,305.2a1.1,1.1,0,0,1,0-2.2,1,1,0,0,1,1.1,1.1A1.1,1.1,0,0,1,278.4,305.2Zm2.1,12.2a2.7,2.7,0,0,1-1.3.3c-1.3,0-1.7-.9-1.7-2v-8.4h1.6v8.2c0,.4.1.8.7.8h.4Z"/><path d="M283.3,321.6V308.5h-2v-1.2h2v-.4c0-2.9,1.5-4.8,4.1-4.8a4.7,4.7,0,0,1,1.7.2l-.3,1.3-1.3-.2c-1.8,0-2.7,1.2-2.7,3.2v.7h2.9v1.2h-2.9v13.1Z"/><path d="M296.4,316.8a5.4,5.4,0,0,1-3.3.9c-2.9,0-4.8-2-4.8-5.2s1.8-5.4,4.6-5.4,3.8,1.9,3.8,4.1a7.8,7.8,0,0,1-.2,1.6h-6.4a3.2,3.2,0,0,0,3.3,3.5,6.2,6.2,0,0,0,2.6-.6Zm-1.4-5a1.7,1.7,0,0,0,.1-.7c0-1.5-.7-2.6-2.3-2.6s-2.7,1.7-2.7,3.3Z"/><path d="M299.4,317.5V307.3h1l.5,1.4a3.6,3.6,0,0,1,3-1.6h1l-.3,1.5h-.9A3.6,3.6,0,0,0,301,310v7.5Z"/><path d="M313.7,316.8a5.8,5.8,0,0,1-3.4.9c-2.9,0-4.8-2-4.8-5.2s1.8-5.4,4.6-5.4,3.8,1.9,3.8,4.1a7.8,7.8,0,0,1-.2,1.6h-6.4a3.2,3.2,0,0,0,3.3,3.5,6.2,6.2,0,0,0,2.6-.6Zm-1.4-5v-.7c0-1.5-.7-2.6-2.3-2.6s-2.7,1.7-2.7,3.3Z"/><path d="M323,317.5v-7a1.7,1.7,0,0,0-2-2,4.4,4.4,0,0,0-2.8,1.1v7.9h-1.6V307.3h1l.6,1a4.9,4.9,0,0,1,3.1-1.2c2.6,0,3.3,1.5,3.3,3.4v7Z"/><path d="M333.1,317.2a3.4,3.4,0,0,1-2,.5c-1.8,0-2.8-1.1-2.8-3.2v-6h-1.8v-1.2h1.8v-2.2l1.6-.4v2.6h3.2v1.2h-3.2v6c0,1.3.7,1.8,1.6,1.8a4.2,4.2,0,0,0,1.3-.3Z"/><path d="M342.8,316.8a6,6,0,0,1-3.4.9c-2.9,0-4.8-2-4.8-5.2s1.8-5.4,4.6-5.4,3.8,1.9,3.8,4.1a7.8,7.8,0,0,1-.2,1.6h-6.4a3.2,3.2,0,0,0,3.3,3.5,6.2,6.2,0,0,0,2.6-.6Zm-1.4-5v-.7c0-1.5-.7-2.6-2.3-2.6s-2.7,1.7-2.7,3.3Z"/><path d="M345.5,315.7a6.6,6.6,0,0,0,2.6.6c1.6,0,2.2-.7,2.2-1.5,0-2.5-5-1.2-5-4.7,0-1.8,1.4-3,3.6-3a7.1,7.1,0,0,1,2.7.5l-.4,1.3a7.3,7.3,0,0,0-2.3-.4c-1.4,0-2.1.6-2.1,1.4,0,2.3,5.2,1.1,5.2,4.6,0,1.7-1.3,3.2-3.9,3.2a6.5,6.5,0,0,1-3.1-.7Z"/><path d="M366,317.5v-7c0-1.6-.8-2-2-2a4.4,4.4,0,0,0-2.7,1.1v7.9h-1.7V307.3h1l.7,1a4.6,4.6,0,0,1,3.1-1.2c2.6,0,3.3,1.5,3.3,3.4v7Z"/><path d="M378.3,316.8a5.4,5.4,0,0,1-3.3.9c-2.9,0-4.8-2-4.8-5.2s1.8-5.4,4.5-5.4,3.9,1.9,3.9,4.1a7.8,7.8,0,0,1-.2,1.6h-6.5c.1,1.7,1,3.5,3.4,3.5a6.2,6.2,0,0,0,2.6-.6Zm-1.4-5c0-.2.1-.5.1-.7s-.7-2.6-2.4-2.6-2.6,1.7-2.6,3.3Z"/><path d="M388.2,317a6,6,0,0,1-3,.7c-2.5,0-4.7-1.8-4.7-5.2s2.2-5.4,5.1-5.4a4.5,4.5,0,0,1,2.6.6l-.5,1.3a3.8,3.8,0,0,0-2.1-.5c-2,0-3.4,1.2-3.4,4s1.5,3.8,3.3,3.8a4.2,4.2,0,0,0,2.3-.6Z"/><path d="M397.6,316.8a5.4,5.4,0,0,1-3.3.9c-2.9,0-4.8-2-4.8-5.2s1.8-5.4,4.5-5.4,3.9,1.9,3.9,4.1a7.8,7.8,0,0,1-.2,1.6h-6.4a3.2,3.2,0,0,0,3.3,3.5,6.2,6.2,0,0,0,2.6-.6Zm-1.4-5a1.7,1.7,0,0,0,.1-.7c0-1.5-.7-2.6-2.3-2.6s-2.7,1.7-2.7,3.3Z"/><path d="M400.4,315.7a6.6,6.6,0,0,0,2.6.6c1.6,0,2.2-.7,2.2-1.5,0-2.5-5.1-1.2-5.1-4.7,0-1.8,1.5-3,3.7-3a7.1,7.1,0,0,1,2.7.5l-.4,1.3a7.3,7.3,0,0,0-2.3-.4c-1.4,0-2.1.6-2.1,1.4,0,2.3,5.1,1.1,5.1,4.6,0,1.7-1.2,3.2-3.8,3.2a6.5,6.5,0,0,1-3.1-.7Z"/><path d="M410.4,305.2a1.1,1.1,0,0,1,0-2.2,1,1,0,0,1,1.1,1.1A1.1,1.1,0,0,1,410.4,305.2Zm2.1,12.2a2.7,2.7,0,0,1-1.3.3c-1.3,0-1.7-.9-1.7-2v-8.4h1.6v8.2c0,.4.1.8.7.8h.4Z"/><path d="M421.7,317.5l-.5-.9a4.3,4.3,0,0,1-2.8,1.1c-2.6,0-4.4-2.1-4.4-5s2-5.6,4.9-5.6a5.7,5.7,0,0,1,2.3.5v-5.4h1.6v15.3Zm-.5-8.5a4.9,4.9,0,0,0-2.2-.5c-2,0-3.3,1.5-3.3,4s1.3,3.8,3,3.8a3.8,3.8,0,0,0,2.5-1Z"/><path d="M434.4,317.4a1.9,1.9,0,0,1-1.2.3,1.6,1.6,0,0,1-1.7-1.2,4.5,4.5,0,0,1-3.2,1.2,2.6,2.6,0,0,1-2.9-2.6c0-2.6,2.6-3.2,6.1-3.2,0-1.8-.1-3.4-2.3-3.4a6.7,6.7,0,0,0-2.7.6l-.4-1.3a8.1,8.1,0,0,1,3.3-.7c3.2,0,3.7,1.7,3.7,4.5v3.7c0,.7.1,1,.7,1h.4Zm-2.9-4.4c-2.7,0-4.4.4-4.4,1.9a1.5,1.5,0,0,0,1.6,1.5,3.9,3.9,0,0,0,2.8-1.1Z"/><path d="M443.5,317.5l-.5-.9a4.3,4.3,0,0,1-2.8,1.1c-2.6,0-4.4-2.1-4.4-5s2-5.6,4.9-5.6a5.7,5.7,0,0,1,2.3.5v-5.4h1.6v15.3ZM443,309a4.2,4.2,0,0,0-2.1-.5c-2.1,0-3.3,1.5-3.3,4s1.2,3.8,2.9,3.8a3.8,3.8,0,0,0,2.5-1Z"/><path d="M455.4,316.8a5.4,5.4,0,0,1-3.3.9c-3,0-4.8-2-4.8-5.2s1.8-5.4,4.5-5.4,3.8,1.9,3.8,4.1a8.1,8.1,0,0,1-.1,1.6H449c.1,1.7,1,3.5,3.3,3.5a5.5,5.5,0,0,0,2.6-.6Zm-1.4-5v-.7c0-1.5-.7-2.6-2.3-2.6s-2.6,1.7-2.7,3.3Z"/><path d="M458.2,315.7a6.2,6.2,0,0,0,2.6.6c1.6,0,2.2-.7,2.2-1.5,0-2.5-5.1-1.2-5.1-4.7,0-1.8,1.4-3,3.6-3a7.3,7.3,0,0,1,2.8.5l-.5,1.3a6.7,6.7,0,0,0-2.2-.4c-1.5,0-2.1.6-2.1,1.4,0,2.3,5.1,1.1,5.1,4.6,0,1.7-1.2,3.2-3.9,3.2a6.3,6.3,0,0,1-3-.7Z"/><path d="M470.6,307.3h1.9l3.2,8.4,2.9-8.4h1.7l-4.2,11.5a3.8,3.8,0,0,1-3.7,2.8,2.8,2.8,0,0,1-1.8-.5l.5-1.2a4.2,4.2,0,0,0,1.3.3c1.5,0,2.1-1.1,2.6-2.6Z"/><path d="M188.6,346V331.7h1.2l.4.9a4.6,4.6,0,0,1,2.8-1.1c2.8,0,4.4,2.2,4.4,5s-1.9,5.6-4.8,5.6a5.7,5.7,0,0,1-2.3-.5V346Zm1.7-5.8a4.2,4.2,0,0,0,2.1.5c2.1,0,3.3-1.5,3.3-4s-1.2-3.8-3-3.8a3.7,3.7,0,0,0-2.4,1Z"/><path d="M207.4,341.2a5.4,5.4,0,0,1-3.3.9c-2.9,0-4.8-2-4.8-5.2s1.8-5.4,4.5-5.4,3.8,1.9,3.8,4.1a8.1,8.1,0,0,1-.1,1.6H201c.1,1.7,1,3.5,3.4,3.5a5,5,0,0,0,2.6-.7Zm-1.4-5c0-.2.1-.5.1-.7a2.3,2.3,0,0,0-2.4-2.6c-1.8,0-2.6,1.7-2.6,3.3Z"/><path d="M210.3,341.9V331.7h1l.5,1.4a3.8,3.8,0,0,1,3.1-1.6h.9l-.3,1.5h-.8a3.4,3.4,0,0,0-2.7,1.4v7.5Z"/><path d="M217.5,340.1a7.2,7.2,0,0,0,2.7.6c1.6,0,2.2-.7,2.2-1.5,0-2.5-5.1-1.2-5.1-4.7,0-1.9,1.4-3,3.6-3a7.7,7.7,0,0,1,2.8.5l-.5,1.3a7.3,7.3,0,0,0-2.3-.4c-1.4,0-2,.6-2,1.4,0,2.3,5.1,1.1,5.1,4.6,0,1.7-1.3,3.2-3.9,3.2a5.8,5.8,0,0,1-3-.7Z"/><path d="M226.6,346V331.7h1.2l.4.9a4.6,4.6,0,0,1,2.8-1.1c2.8,0,4.4,2.2,4.4,5s-1.9,5.6-4.8,5.6a5.7,5.7,0,0,1-2.3-.5V346Zm1.7-5.8a4.2,4.2,0,0,0,2.1.5c2.1,0,3.3-1.5,3.3-4s-1.2-3.8-3-3.8a3.7,3.7,0,0,0-2.4,1Z"/><path d="M245.4,341.2a5.4,5.4,0,0,1-3.3.9c-2.9,0-4.8-2-4.8-5.2s1.8-5.4,4.5-5.4,3.8,1.9,3.8,4.1a8.1,8.1,0,0,1-.1,1.6H239c.1,1.7,1,3.5,3.3,3.5a4.5,4.5,0,0,0,2.6-.7Zm-1.4-5v-.7c0-1.5-.7-2.6-2.3-2.6s-2.6,1.7-2.7,3.3Z"/><path d="M255.3,341.4a6,6,0,0,1-3,.7c-2.6,0-4.8-1.8-4.8-5.2s2.2-5.4,5.2-5.4a4.8,4.8,0,0,1,2.6.6l-.5,1.3a3.8,3.8,0,0,0-2.1-.5c-2,0-3.4,1.2-3.4,4s1.5,3.8,3.3,3.8a4.5,4.5,0,0,0,2.3-.6Z"/><path d="M262.9,341.6a3.9,3.9,0,0,1-2,.5c-1.8,0-2.9-1.1-2.9-3.3v-5.9h-1.8v-1.2H258v-2.2l1.7-.4v2.6h3.2v1.2h-3.2v6c0,1.3.6,1.8,1.5,1.8a4.2,4.2,0,0,0,1.4-.3Z"/><path d="M266.1,329.6a1.1,1.1,0,0,1,0-2.2,1,1,0,0,1,1,1.1A1,1,0,0,1,266.1,329.6Zm2.1,12.2a3.3,3.3,0,0,1-1.3.3c-1.3,0-1.7-.9-1.7-2.1v-8.3h1.6v8.2c0,.4.1.8.7.8h.4Z"/><path d="M272.6,341.9l-3.7-10.2h1.7l3,8.7h0l3.1-8.7h1.6l-3.7,10.2Z"/><path d="M288.3,341.8a2.5,2.5,0,0,1-1.3.3,1.6,1.6,0,0,1-1.7-1.2,4.5,4.5,0,0,1-3.2,1.2,2.7,2.7,0,0,1-2.9-2.6c0-2.6,2.7-3.2,6.1-3.2,0-1.8,0-3.4-2.3-3.4a6.7,6.7,0,0,0-2.7.6l-.4-1.3a8.6,8.6,0,0,1,3.3-.7c3.2,0,3.7,1.7,3.7,4.5v3.7c0,.7.1,1,.8,1h.3Zm-3-4.4c-2.6,0-4.4.4-4.4,1.9a1.6,1.6,0,0,0,1.7,1.5,3.7,3.7,0,0,0,2.7-1.1Z"/><path d="M290.3,340.1a6.6,6.6,0,0,0,2.6.6c1.6,0,2.2-.7,2.2-1.5,0-2.5-5.1-1.2-5.1-4.7,0-1.9,1.5-3,3.6-3a7.3,7.3,0,0,1,2.8.5l-.4,1.3a7.3,7.3,0,0,0-2.3-.4c-1.4,0-2.1.6-2.1,1.4,0,2.3,5.1,1.1,5.1,4.6,0,1.7-1.2,3.2-3.8,3.2a6.5,6.5,0,0,1-3.1-.7Z"/><path d="M304.4,346V331.7h1.2l.4.9a4.3,4.3,0,0,1,2.8-1.1c2.8,0,4.4,2.2,4.4,5s-1.9,5.6-4.8,5.6a5.1,5.1,0,0,1-2.3-.5V346Zm1.7-5.8a4.2,4.2,0,0,0,2.1.5c2.1,0,3.3-1.5,3.3-4s-1.2-3.8-3-3.8a3.7,3.7,0,0,0-2.4,1Z"/><path d="M324.1,341.8a2.5,2.5,0,0,1-1.3.3,1.6,1.6,0,0,1-1.7-1.2,4.5,4.5,0,0,1-3.2,1.2,2.7,2.7,0,0,1-2.9-2.6c0-2.6,2.7-3.2,6.1-3.2,0-1.8-.1-3.4-2.3-3.4a6.7,6.7,0,0,0-2.7.6l-.4-1.3a8.1,8.1,0,0,1,3.3-.7c3.2,0,3.7,1.7,3.7,4.5v3.7c0,.7.1,1,.7,1h.4Zm-3-4.4c-2.7,0-4.4.4-4.4,1.9a1.6,1.6,0,0,0,1.6,1.5,3.9,3.9,0,0,0,2.8-1.1Z"/><path d="M326.2,341.9V331.7h1l.5,1.4a3.8,3.8,0,0,1,3.1-1.6h.9l-.3,1.5h-.8a3.4,3.4,0,0,0-2.7,1.4v7.5Z"/><path d="M341.2,341.8a2.5,2.5,0,0,1-1.3.3,1.6,1.6,0,0,1-1.7-1.2,4.5,4.5,0,0,1-3.2,1.2,2.7,2.7,0,0,1-2.9-2.6c0-2.6,2.7-3.2,6.1-3.2,0-1.8,0-3.4-2.3-3.4a6.7,6.7,0,0,0-2.7.6l-.4-1.3a8.1,8.1,0,0,1,3.3-.7c3.2,0,3.7,1.7,3.7,4.5v3.7c0,.7.1,1,.7,1h.4Zm-3-4.4c-2.6,0-4.4.4-4.4,1.9a1.6,1.6,0,0,0,1.7,1.5,3.7,3.7,0,0,0,2.7-1.1Z"/><path d="M348.2,340.1a6.6,6.6,0,0,0,2.6.6c1.6,0,2.2-.7,2.2-1.5,0-2.5-5-1.2-5-4.7,0-1.9,1.4-3,3.6-3a7.1,7.1,0,0,1,2.7.5l-.4,1.3a7.3,7.3,0,0,0-2.3-.4c-1.4,0-2.1.6-2.1,1.4,0,2.3,5.2,1.1,5.2,4.6,0,1.7-1.3,3.2-3.9,3.2a6.5,6.5,0,0,1-3.1-.7Z"/><path d="M364.2,341.9l-.6-1a4.2,4.2,0,0,1-3,1.2c-2.4,0-3.3-1.6-3.3-3.6v-6.8H359v6.8c0,1.6.8,2.2,2,2.2a3.4,3.4,0,0,0,2.5-1.1v-7.9h1.7v10.2Z"/><path d="M368.6,346V331.7h1.1l.5.9a4.3,4.3,0,0,1,2.8-1.1c2.7,0,4.4,2.2,4.4,5s-2,5.6-4.9,5.6a5.7,5.7,0,0,1-2.3-.5V346Zm1.6-5.8a4.9,4.9,0,0,0,2.2.5c2,0,3.3-1.5,3.3-4s-1.3-3.8-3-3.8a4.2,4.2,0,0,0-2.5,1Z"/><path d="M387.4,341.2a5.8,5.8,0,0,1-3.4.9c-2.9,0-4.8-2-4.8-5.2s1.9-5.4,4.6-5.4,3.8,1.9,3.8,4.1a7.8,7.8,0,0,1-.2,1.6H381a3.2,3.2,0,0,0,3.3,3.5,4.7,4.7,0,0,0,2.6-.7Zm-1.4-5v-.7c0-1.5-.7-2.6-2.3-2.6s-2.6,1.7-2.7,3.3Z"/><path d="M390.3,341.9V331.7h1l.5,1.4a3.8,3.8,0,0,1,3.1-1.6h.9l-.3,1.5h-.9a3.6,3.6,0,0,0-2.7,1.4v7.5Z"/><path d="M405.2,341.8a1.9,1.9,0,0,1-1.2.3,1.6,1.6,0,0,1-1.7-1.2,4.5,4.5,0,0,1-3.2,1.2,2.7,2.7,0,0,1-2.9-2.6c0-2.6,2.6-3.2,6.1-3.2,0-1.8-.1-3.4-2.3-3.4a6.7,6.7,0,0,0-2.7.6l-.4-1.3a8.1,8.1,0,0,1,3.3-.7c3.2,0,3.7,1.7,3.7,4.5v3.7c0,.7.1,1,.7,1h.4Zm-2.9-4.4c-2.7,0-4.4.4-4.4,1.9a1.6,1.6,0,0,0,1.6,1.5,3.9,3.9,0,0,0,2.8-1.1Z"/><path d="M407.4,341.9V331.7h1l.5,1.4a3.8,3.8,0,0,1,3.1-1.6h.9l-.3,1.5h-.9a3.2,3.2,0,0,0-2.6,1.4v7.5Z"/><path d="M422.8,341.8a2.5,2.5,0,0,1-1.2.3c-1.4,0-1.8-.9-1.8-2.1V326.6h1.7v13.3c0,.4,0,.8.7.8h.3Z"/><path d="M433.3,341.8a2.1,2.1,0,0,1-1.2.3,1.6,1.6,0,0,1-1.7-1.2,4.5,4.5,0,0,1-3.2,1.2,2.6,2.6,0,0,1-2.9-2.6c0-2.6,2.6-3.2,6-3.2,0-1.8,0-3.4-2.3-3.4a6.6,6.6,0,0,0-2.6.6l-.4-1.3a8.1,8.1,0,0,1,3.3-.7c3.2,0,3.7,1.7,3.7,4.5v3.7c0,.7.1,1,.7,1h.4Zm-3-4.4c-2.6,0-4.3.4-4.3,1.9a1.6,1.6,0,0,0,1.6,1.5,3.5,3.5,0,0,0,2.7-1.1Z"/><path d="M435.3,340.1a7.2,7.2,0,0,0,2.7.6c1.5,0,2.2-.7,2.2-1.5,0-2.5-5.1-1.2-5.1-4.7,0-1.9,1.4-3,3.6-3a7.7,7.7,0,0,1,2.8.5l-.5,1.3a7.3,7.3,0,0,0-2.3-.4c-1.4,0-2,.6-2,1.4,0,2.3,5.1,1.1,5.1,4.6,0,1.7-1.3,3.2-3.9,3.2a5.8,5.8,0,0,1-3-.7Z"/><path d="M195.5,366.3l-.4-.9a4.7,4.7,0,0,1-2.9,1.1c-2.5,0-4.4-2.1-4.4-5s2-5.6,4.9-5.6a5.7,5.7,0,0,1,2.3.5V351h1.6v15.3Zm-.5-8.5a4.2,4.2,0,0,0-2.1-.5c-2.1,0-3.3,1.5-3.3,3.9s1.2,3.9,3,3.9a3.7,3.7,0,0,0,2.4-1Z"/><path d="M207.4,365.6a5.4,5.4,0,0,1-3.3.9c-2.9,0-4.8-2-4.8-5.2s1.8-5.4,4.5-5.4,3.8,1.9,3.8,4.1a8.1,8.1,0,0,1-.1,1.6H201c.1,1.7,1,3.5,3.4,3.5a5,5,0,0,0,2.6-.7Zm-1.4-5c0-.2.1-.5.1-.7a2.3,2.3,0,0,0-2.4-2.6c-1.8,0-2.6,1.7-2.6,3.3Z"/><path d="M210.2,364.5a6.6,6.6,0,0,0,2.6.6c1.6,0,2.2-.7,2.2-1.5,0-2.5-5.1-1.2-5.1-4.8,0-1.8,1.4-2.9,3.6-2.9a5.8,5.8,0,0,1,2.8.5l-.4,1.3a7.1,7.1,0,0,0-2.3-.5c-1.4,0-2.1.7-2.1,1.5,0,2.3,5.1,1.1,5.1,4.6,0,1.7-1.2,3.2-3.9,3.2a6.3,6.3,0,0,1-3-.7Z"/><path d="M220.2,354a1.1,1.1,0,0,1-1.1-1.1,1,1,0,0,1,1.1-1.1,1,1,0,0,1,1,1.1A1,1,0,0,1,220.2,354Zm2.1,12.2a2.7,2.7,0,0,1-1.3.3c-1.3,0-1.7-.9-1.7-2.1v-8.3h1.6v8.2c0,.4.1.8.7.8h.4Z"/><path d="M230.9,357.3a3,3,0,0,1,.7,1.9,3.6,3.6,0,0,1-3.7,3.7h-.7a2,2,0,0,0-.4.8c0,.5.2.7,1.2.7,3.4,0,4.5,1.1,4.5,2.9s-1.7,3.5-4.6,3.5-4-1-4-2.9a2.7,2.7,0,0,1,2-2.5,1.6,1.6,0,0,1-.6-1.3v-.4l.8-1.1a3.5,3.5,0,0,1,1.8-6.6,5.9,5.9,0,0,1,1.9.3h3.5v1.2Zm-5.4,10.2c0,1,.8,1.8,2.5,1.8s2.8-.7,2.8-1.9-.6-1.7-2.8-1.7h-1A1.7,1.7,0,0,0,225.5,367.5Zm4.6-8.3a2,2,0,0,0-2.2-2.1,2.1,2.1,0,0,0-2.1,2.3,2,2,0,0,0,2.1,2.1A2.1,2.1,0,0,0,230.1,359.2Z"/><path d="M241.9,366.3l-.6-1a3.9,3.9,0,0,1-2.9,1.2c-2.5,0-3.3-1.7-3.3-3.6v-6.8h1.6v6.8c0,1.6.9,2.2,2,2.2a3.7,3.7,0,0,0,2.6-1.1v-7.9h1.6v10.2Z"/><path d="M254.5,366.2a3,3,0,0,1-1.2.3,1.7,1.7,0,0,1-1.7-1.2,4.5,4.5,0,0,1-3.2,1.2,2.7,2.7,0,0,1-2.9-2.6c0-2.7,2.6-3.2,6-3.2,0-1.9,0-3.4-2.2-3.4a5.4,5.4,0,0,0-2.7.6l-.4-1.3a8.1,8.1,0,0,1,3.3-.7c3.2,0,3.7,1.7,3.7,4.5v3.7c0,.6.1,1,.7,1h.4Zm-3-4.4c-2.6,0-4.3.4-4.3,1.9a1.6,1.6,0,0,0,1.6,1.5,3.9,3.9,0,0,0,2.7-1.1Z"/><path d="M259.7,366.2a2.5,2.5,0,0,1-1.2.3c-1.4,0-1.8-.9-1.8-2.1V351h1.7v13.3c0,.4,0,.8.7.8s.3,0,.3-.1Z"/><path d="M268.9,366.3l-.4-.9a4.7,4.7,0,0,1-2.9,1.1c-2.5,0-4.4-2.1-4.4-5s2-5.6,4.9-5.6a5.7,5.7,0,0,1,2.3.5V351H270v15.3Zm-.5-8.5a4.2,4.2,0,0,0-2.1-.5c-2.1,0-3.3,1.5-3.3,3.9s1.2,3.9,3,3.9a3.7,3.7,0,0,0,2.4-1Z"/><path d="M281.7,366.2a4.2,4.2,0,0,1-1.3.3,1.7,1.7,0,0,1-1.7-1.2,4.5,4.5,0,0,1-3.2,1.2,2.7,2.7,0,0,1-2.9-2.6c0-2.7,2.7-3.2,6.1-3.2,0-1.9,0-3.4-2.3-3.4a5.4,5.4,0,0,0-2.7.6l-.4-1.3a8.1,8.1,0,0,1,3.3-.7c3.2,0,3.7,1.7,3.7,4.5v3.7c0,.6.1,1,.7,1h.4Zm-3-4.4c-2.6,0-4.4.4-4.4,1.9a1.6,1.6,0,0,0,1.7,1.5,4.1,4.1,0,0,0,2.7-1.1Z"/><path d="M290.7,366.3l-.4-.9a4.7,4.7,0,0,1-2.9,1.1c-2.5,0-4.3-2.1-4.3-5s1.9-5.6,4.8-5.6a5.7,5.7,0,0,1,2.3.5V351h1.7v15.3Zm-.5-8.5a4.2,4.2,0,0,0-2.1-.5c-2.1,0-3.3,1.5-3.3,3.9s1.2,3.9,3,3.9a3.7,3.7,0,0,0,2.4-1Z"/><path d="M302.6,365.6a5.4,5.4,0,0,1-3.3.9c-2.9,0-4.8-2-4.8-5.2s1.8-5.4,4.5-5.4,3.9,1.9,3.9,4.1a7.8,7.8,0,0,1-.2,1.6h-6.5c.1,1.7,1,3.5,3.4,3.5a5,5,0,0,0,2.6-.7Zm-1.4-5c0-.2.1-.5.1-.7s-.7-2.6-2.3-2.6-2.7,1.7-2.7,3.3Z"/><path d="M305.4,364.5a6.6,6.6,0,0,0,2.6.6c1.6,0,2.2-.7,2.2-1.5,0-2.5-5.1-1.2-5.1-4.8,0-1.8,1.5-2.9,3.6-2.9a5.8,5.8,0,0,1,2.8.5l-.4,1.3a7.1,7.1,0,0,0-2.3-.5c-1.4,0-2.1.7-2.1,1.5,0,2.3,5.1,1.1,5.1,4.6,0,1.7-1.2,3.2-3.8,3.2a6.5,6.5,0,0,1-3.1-.7Z"/><path d="M326.9,365.6a6,6,0,0,1-3.4.9c-2.9,0-4.8-2-4.8-5.2s1.8-5.4,4.6-5.4,3.8,1.9,3.8,4.1a7.8,7.8,0,0,1-.2,1.6h-6.4a3.2,3.2,0,0,0,3.3,3.5,5,5,0,0,0,2.6-.7Zm-1.4-5v-.7c0-1.5-.7-2.6-2.3-2.6s-2.7,1.7-2.7,3.3Z"/><path d="M329.6,364.5a7.1,7.1,0,0,0,2.6.6c1.6,0,2.2-.7,2.2-1.5,0-2.5-5-1.2-5-4.8,0-1.8,1.4-2.9,3.6-2.9a5.6,5.6,0,0,1,2.7.5l-.4,1.3a7.1,7.1,0,0,0-2.3-.5c-1.4,0-2.1.7-2.1,1.5,0,2.3,5.2,1.1,5.2,4.6,0,1.7-1.3,3.2-3.9,3.2a6.5,6.5,0,0,1-3.1-.7Z"/><path d="M343.9,366a3.7,3.7,0,0,1-2,.5c-1.8,0-2.8-1.1-2.8-3.3v-5.9h-1.9v-1.2h1.9v-2.2l1.6-.4v2.6h3.2v1.2h-3.2v6c0,1.3.6,1.8,1.6,1.8a4.2,4.2,0,0,0,1.3-.3Z"/><path d="M346.2,366.3V356.1h1l.5,1.4a3.8,3.8,0,0,1,3.1-1.6h.9l-.3,1.5h-.9a3.8,3.8,0,0,0-2.7,1.3v7.6Z"/><path d="M360.4,366.3l-.6-1a4.2,4.2,0,0,1-3,1.2c-2.4,0-3.3-1.7-3.3-3.6v-6.8h1.7v6.8c0,1.6.9,2.2,2,2.2a3.4,3.4,0,0,0,2.5-1.1v-7.9h1.7v10.2Z"/><path d="M371.8,365.8a6,6,0,0,1-3,.7c-2.6,0-4.8-1.8-4.8-5.2s2.2-5.4,5.2-5.4a4.2,4.2,0,0,1,2.5.6l-.4,1.3a3.8,3.8,0,0,0-2.1-.5c-2.1,0-3.5,1.2-3.5,4s1.6,3.8,3.4,3.8a4.5,4.5,0,0,0,2.3-.6Z"/><path d="M379.4,366a3.9,3.9,0,0,1-2,.5c-1.8,0-2.9-1.1-2.9-3.3v-5.9h-1.8v-1.2h1.8v-2.2l1.7-.4v2.6h3.1v1.2h-3.1v6c0,1.3.6,1.8,1.5,1.8a4.2,4.2,0,0,0,1.4-.3Z"/><path d="M388.5,366.3l-.6-1a3.9,3.9,0,0,1-2.9,1.2c-2.5,0-3.3-1.7-3.3-3.6v-6.8h1.6v6.8c0,1.6.9,2.2,2,2.2a3.7,3.7,0,0,0,2.6-1.1v-7.9h1.6v10.2Z"/><path d="M392.9,366.3V356.1h1l.5,1.4a3.8,3.8,0,0,1,3.1-1.6h.9l-.3,1.5h-.8a3.6,3.6,0,0,0-2.7,1.3v7.6Z"/><path d="M407.9,366.2a4.2,4.2,0,0,1-1.3.3,1.7,1.7,0,0,1-1.7-1.2,4.5,4.5,0,0,1-3.2,1.2,2.7,2.7,0,0,1-2.9-2.6c0-2.7,2.7-3.2,6.1-3.2,0-1.9,0-3.4-2.3-3.4a5.4,5.4,0,0,0-2.7.6l-.4-1.3a8.6,8.6,0,0,1,3.3-.7c3.2,0,3.7,1.7,3.7,4.5v3.7c0,.6.1,1,.8,1h.3Zm-3-4.4c-2.6,0-4.4.4-4.4,1.9a1.6,1.6,0,0,0,1.7,1.5,4.1,4.1,0,0,0,2.7-1.1Z"/><path d="M413,366.2a2.5,2.5,0,0,1-1.2.3c-1.4,0-1.7-.9-1.7-2.1V351h1.6v13.3c0,.4.1.8.7.8h.4Z"/><path d="M422.7,365.6a5.4,5.4,0,0,1-3.3.9c-2.9,0-4.8-2-4.8-5.2s1.8-5.4,4.5-5.4,3.8,1.9,3.8,4.1a8.1,8.1,0,0,1-.1,1.6h-6.5c.1,1.7,1,3.5,3.3,3.5a5.1,5.1,0,0,0,2.7-.7Zm-1.4-5c0-.2.1-.5.1-.7a2.3,2.3,0,0,0-2.4-2.6c-1.8,0-2.6,1.7-2.6,3.3Z"/><path d="M425.5,364.5a6.6,6.6,0,0,0,2.6.6c1.6,0,2.2-.7,2.2-1.5,0-2.5-5.1-1.2-5.1-4.8,0-1.8,1.4-2.9,3.6-2.9a5.8,5.8,0,0,1,2.8.5l-.4,1.3a7.1,7.1,0,0,0-2.3-.5c-1.4,0-2.1.7-2.1,1.5,0,2.3,5.1,1.1,5.1,4.6,0,1.7-1.2,3.2-3.9,3.2a6.3,6.3,0,0,1-3-.7Z"/><path d="M446.5,366.3l-.5-.9a4.3,4.3,0,0,1-2.8,1.1c-2.6,0-4.4-2.1-4.4-5s2-5.6,4.9-5.6a5.7,5.7,0,0,1,2.3.5V351h1.6v15.3Zm-.5-8.5a4.9,4.9,0,0,0-2.2-.5c-2,0-3.3,1.5-3.3,3.9s1.3,3.9,3,3.9a3.8,3.8,0,0,0,2.5-1Z"/><path d="M458.4,365.6a5.5,5.5,0,0,1-3.4.9c-2.9,0-4.7-2-4.7-5.2s1.8-5.4,4.5-5.4,3.8,1.9,3.8,4.1a8.1,8.1,0,0,1-.1,1.6H452c.1,1.7,1,3.5,3.3,3.5a4.5,4.5,0,0,0,2.6-.7Zm-1.4-5v-.7c0-1.5-.7-2.6-2.3-2.6s-2.6,1.7-2.7,3.3Z"/><path d="M464.3,366.2a2.5,2.5,0,0,1-1.2.3c-1.4,0-1.8-.9-1.8-2.1V351H463v13.3c0,.4,0,.8.7.8s.3,0,.3-.1Z"/><path d="M471.7,370.4V356.1h1.1l.5.9a4.3,4.3,0,0,1,2.8-1.1c2.7,0,4.4,2.2,4.4,5s-2,5.6-4.9,5.6a5.7,5.7,0,0,1-2.3-.5v4.4Zm1.6-5.8a4.9,4.9,0,0,0,2.2.5c2,0,3.3-1.5,3.3-4s-1.3-3.8-3-3.8a4.2,4.2,0,0,0-2.5,1Z"/><path d="M491.3,366.2a3.5,3.5,0,0,1-1.2.3,1.7,1.7,0,0,1-1.7-1.2,4.9,4.9,0,0,1-3.2,1.2,2.6,2.6,0,0,1-2.9-2.6c0-2.7,2.6-3.2,6-3.2,0-1.9,0-3.4-2.3-3.4a5,5,0,0,0-2.6.6l-.5-1.3a9.1,9.1,0,0,1,3.4-.7c3.2,0,3.7,1.7,3.7,4.5v3.7c0,.6.1,1,.7,1h.4Zm-3-4.4c-2.6,0-4.3.4-4.3,1.9a1.6,1.6,0,0,0,1.6,1.5,3.9,3.9,0,0,0,2.7-1.1Z"/><path d="M493.3,354.2l1.9-3H497l-2.3,3Zm3.2,12a2.7,2.7,0,0,1-1.3.3c-1.3,0-1.7-.9-1.7-2.1v-8.3h1.6v8.2c0,.4.1.8.8.8h.3Z"/><path d="M498.6,364.5a7.2,7.2,0,0,0,2.7.6c1.6,0,2.2-.7,2.2-1.5,0-2.5-5.1-1.2-5.1-4.8,0-1.8,1.4-2.9,3.6-2.9a5.8,5.8,0,0,1,2.8.5l-.5,1.3a6.5,6.5,0,0,0-2.2-.5c-1.5,0-2.1.7-2.1,1.5,0,2.3,5.1,1.1,5.1,4.6,0,1.7-1.2,3.2-3.9,3.2a6,6,0,0,1-3-.7Z"/><path d="M519.1,370.4v-4.6a5.8,5.8,0,0,1-2.6.7c-2.7,0-4.5-1.9-4.5-5s2.2-5.6,5.1-5.6a11.6,11.6,0,0,1,3.7.7v13.8Zm0-12.7a5.3,5.3,0,0,0-1.9-.4c-2.6,0-3.5,2-3.5,4.1s.8,3.6,3.1,3.6a6.1,6.1,0,0,0,2.3-.6Z"/><path d="M531.1,366.3l-.6-1a4.2,4.2,0,0,1-3,1.2c-2.4,0-3.3-1.7-3.3-3.6v-6.8h1.7v6.8c0,1.6.8,2.2,2,2.2a3.4,3.4,0,0,0,2.5-1.1v-7.9h1.7v10.2Z"/><path d="M542.8,365.6a5.4,5.4,0,0,1-3.3.9c-2.9,0-4.8-2-4.8-5.2s1.8-5.4,4.5-5.4,3.9,1.9,3.9,4.1a7.8,7.8,0,0,1-.2,1.6h-6.5c.1,1.7,1,3.5,3.4,3.5a5,5,0,0,0,2.6-.7Zm-1.4-5c0-.2.1-.5.1-.7s-.7-2.6-2.3-2.6-2.7,1.7-2.7,3.3Z"/><path d="M190.3,381.4a5.2,5.2,0,0,1,3.1-1.1c2.6,0,3.3,1.4,3.3,3.4v7H195v-7c0-1.6-.8-2-2-2a4.9,4.9,0,0,0-2.7,1v8h-1.7V375.4h1.7Z"/><path d="M208.2,390.6a4.2,4.2,0,0,1-1.3.3,1.7,1.7,0,0,1-1.7-1.2,4.5,4.5,0,0,1-3.2,1.2,2.7,2.7,0,0,1-2.9-2.6c0-2.7,2.7-3.2,6.1-3.2,0-1.9,0-3.4-2.3-3.4a5.4,5.4,0,0,0-2.7.6l-.4-1.3a8.1,8.1,0,0,1,3.3-.7c3.2,0,3.7,1.7,3.7,4.5v3.7c0,.6.1,1,.7,1h.4Zm-3-4.5c-2.6,0-4.4.5-4.4,2a1.6,1.6,0,0,0,1.7,1.5,4.1,4.1,0,0,0,2.7-1.1Z"/><path d="M216.8,390.7v-7c0-1.6-.9-2-2.1-2a4.9,4.9,0,0,0-2.7,1v8h-1.7V380.5h1l.7.9a5.2,5.2,0,0,1,3.1-1.1c2.6,0,3.3,1.4,3.3,3.4v7Z"/><path d="M226.5,388.9a7.2,7.2,0,0,0,2.7.6c1.6,0,2.2-.7,2.2-1.5,0-2.5-5.1-1.2-5.1-4.8,0-1.8,1.4-2.9,3.6-2.9a5.8,5.8,0,0,1,2.8.5l-.5,1.3a6.5,6.5,0,0,0-2.2-.5c-1.5,0-2.1.7-2.1,1.5s5.1,1.1,5.1,4.6c0,1.7-1.2,3.2-3.9,3.2a6.3,6.3,0,0,1-3-.7Z"/><path d="M236.5,378.3a.9.9,0,0,1-1-1,1,1,0,0,1,1-1.1,1,1,0,0,1,1.1,1.1A1,1,0,0,1,236.5,378.3Zm2.1,12.3a2.5,2.5,0,0,1-1.2.3c-1.4,0-1.7-.9-1.7-2.1v-8.3h1.6v8.2c0,.4.1.8.7.8h.4Z"/><path d="M247.8,390.7l-.4-1a4.1,4.1,0,0,1-2.8,1.2c-2.6,0-4.4-2.1-4.4-5.1s1.9-5.5,4.8-5.5a5.1,5.1,0,0,1,2.3.5v-5.4H249v15.3Zm-.5-8.5a4.2,4.2,0,0,0-2.1-.5c-2,0-3.3,1.5-3.3,3.9s1.2,3.9,3,3.9a3.7,3.7,0,0,0,2.4-1Z"/><path d="M256.4,380.3c3.3,0,4.7,2.3,4.7,5.3s-1.8,5.3-4.8,5.3-4.7-2.4-4.7-5.3S253.5,380.3,256.4,380.3Zm0,9.2c2.1,0,3-1.8,3-3.9s-.9-3.9-3-3.9-3.1,1.7-3.1,3.9S254.3,389.5,256.4,389.5Z"/><path d="M268.8,394.8V380.5H270l.4.9a4.6,4.6,0,0,1,2.8-1.1c2.8,0,4.4,2.2,4.4,5s-1.9,5.6-4.8,5.6a5.1,5.1,0,0,1-2.3-.5v4.4Zm1.7-5.8a4.2,4.2,0,0,0,2.1.5c2.1,0,3.3-1.5,3.3-4s-1.2-3.8-3-3.8a3.7,3.7,0,0,0-2.4,1Z"/><path d="M280.3,390.7V380.5h1l.5,1.4a3.4,3.4,0,0,1,3-1.6h1l-.3,1.5h-.9a3.8,3.8,0,0,0-2.7,1.3v7.6Z"/><path d="M291.2,380.3c3.3,0,4.7,2.3,4.7,5.3s-1.8,5.3-4.8,5.3-4.7-2.4-4.7-5.3S288.3,380.3,291.2,380.3Zm0,9.2c2.1,0,3-1.8,3-3.9s-.9-3.9-3-3.9-3.1,1.7-3.1,3.9S289.1,389.5,291.2,389.5Z"/><path d="M299,394.8V381.7h-1.9v-1.2H299V380c0-2.8,1.6-4.8,4.2-4.8a4.7,4.7,0,0,1,1.7.3l-.3,1.3a2.7,2.7,0,0,0-1.3-.2c-1.8,0-2.7,1.2-2.7,3.2v.7h2.9v1.2h-2.9v13.1Z"/><path d="M311.9,390.7l-.5-1a4.2,4.2,0,0,1-3,1.2c-2.5,0-3.3-1.7-3.3-3.6v-6.8h1.6v6.8a1.9,1.9,0,0,0,2.1,2.2,3.6,3.6,0,0,0,2.5-1.1v-7.9h1.6v10.2Z"/><path d="M322.8,390.7v-7a1.7,1.7,0,0,0-2-2,5,5,0,0,0-2.8,1v8h-1.6V380.5h1l.6.9a5.5,5.5,0,0,1,3.1-1.1c2.6,0,3.3,1.4,3.3,3.4v7Z"/><path d="M334.6,390.7l-.5-1a4.1,4.1,0,0,1-2.8,1.2c-2.6,0-4.4-2.1-4.4-5.1s2-5.5,4.9-5.5a5.7,5.7,0,0,1,2.3.5v-5.4h1.6v15.3Zm-.5-8.5a4.9,4.9,0,0,0-2.2-.5c-2,0-3.2,1.5-3.2,3.9s1.2,3.9,2.9,3.9a3.8,3.8,0,0,0,2.5-1Z"/><path d="M340.1,378.3a1,1,0,0,1-1.1-1,1,1,0,0,1,1.1-1.1,1,1,0,0,1,1,1.1A.9.9,0,0,1,340.1,378.3Zm2,12.3a2.5,2.5,0,0,1-1.2.3c-1.4,0-1.7-.9-1.7-2.1v-8.3h1.6v8.2c0,.4.1.8.7.8h.4Z"/><path d="M343.4,390.7v-1.3l5.9-7.6h-5.8v-1.3h7.6v1.4l-5.8,7.4h5.9v1.4Z"/><path d="M362,390.6a3.5,3.5,0,0,1-1.3.3,1.7,1.7,0,0,1-1.7-1.2,4.5,4.5,0,0,1-3.2,1.2,2.7,2.7,0,0,1-2.9-2.6c0-2.7,2.7-3.2,6.1-3.2,0-1.9,0-3.4-2.3-3.4a5.4,5.4,0,0,0-2.7.6l-.4-1.3a8.6,8.6,0,0,1,3.3-.7c3.2,0,3.7,1.7,3.7,4.5v3.7c0,.6.1,1,.8,1h.3Zm-3-4.5c-2.6,0-4.4.5-4.4,2a1.6,1.6,0,0,0,1.7,1.5,4.1,4.1,0,0,0,2.7-1.1Z"/><path d="M371,390.7l-.4-1a4.4,4.4,0,0,1-2.8,1.2c-2.6,0-4.4-2.1-4.4-5.1s1.9-5.5,4.8-5.5a5.7,5.7,0,0,1,2.3.5v-5.4h1.7v15.3Zm-.5-8.5a4.2,4.2,0,0,0-2.1-.5c-2.1,0-3.3,1.5-3.3,3.9s1.2,3.9,3,3.9a3.7,3.7,0,0,0,2.4-1Z"/><path d="M383.8,390.6a3.5,3.5,0,0,1-1.2.3,1.8,1.8,0,0,1-1.8-1.2,4.4,4.4,0,0,1-3.1,1.2,2.6,2.6,0,0,1-2.9-2.6c0-2.7,2.6-3.2,6-3.2,0-1.9,0-3.4-2.3-3.4a5.7,5.7,0,0,0-2.7.6l-.4-1.3a9.1,9.1,0,0,1,3.4-.7c3.1,0,3.7,1.7,3.7,4.5v3.7c0,.6,0,1,.7,1h.3Zm-3-4.5c-2.6,0-4.4.5-4.4,2a1.6,1.6,0,0,0,1.7,1.5,4.1,4.1,0,0,0,2.7-1.1Z"/><path d="M385.8,388.9a6.6,6.6,0,0,0,2.6.6c1.6,0,2.2-.7,2.2-1.5,0-2.5-5.1-1.2-5.1-4.8,0-1.8,1.5-2.9,3.7-2.9a5.6,5.6,0,0,1,2.7.5l-.4,1.3a7.1,7.1,0,0,0-2.3-.5c-1.4,0-2.1.7-2.1,1.5s5.2,1.1,5.2,4.6c0,1.7-1.3,3.2-3.9,3.2a6.5,6.5,0,0,1-3.1-.7Z"/><path d="M399.9,394.8V380.5h1.2l.4.9a4.6,4.6,0,0,1,2.8-1.1c2.8,0,4.4,2.2,4.4,5s-1.9,5.6-4.8,5.6a5.7,5.7,0,0,1-2.3-.5v4.4Zm1.7-5.8a4.2,4.2,0,0,0,2.1.5c2.1,0,3.3-1.5,3.3-4s-1.2-3.8-3-3.8a3.7,3.7,0,0,0-2.4,1Z"/><path d="M415.4,380.3c3.2,0,4.7,2.3,4.7,5.3s-1.9,5.3-4.8,5.3-4.7-2.4-4.7-5.3S412.5,380.3,415.4,380.3Zm-.1,9.2c2.1,0,3.1-1.8,3.1-3.9s-1-3.9-3.1-3.9-3,1.7-3,3.9S413.2,389.5,415.3,389.5Z"/><path d="M422.7,390.7V380.5h1l.5,1.4a3.6,3.6,0,0,1,3.1-1.6h.9l-.3,1.5h-.8a3.6,3.6,0,0,0-2.7,1.3v7.6Z"/><path d="M442.5,390a5.5,5.5,0,0,1-3.4.9c-2.9,0-4.8-2-4.8-5.2s1.9-5.4,4.6-5.4,3.8,1.9,3.8,4.1a8.8,8.8,0,0,1-.2,1.6h-6.4a3.2,3.2,0,0,0,3.3,3.5,4.7,4.7,0,0,0,2.6-.7Zm-1.4-5.1v-.6c0-1.5-.7-2.6-2.3-2.6s-2.6,1.6-2.7,3.2Z"/><path d="M448.4,390.6a2.5,2.5,0,0,1-1.2.3c-1.4,0-1.8-.9-1.8-2.1V375.4h1.7v13.3c0,.4,0,.8.7.8h.3Z"/><path d="M462.7,390.2a5.5,5.5,0,0,1-3,.7c-2.5,0-4.7-1.8-4.7-5.2s2.2-5.4,5.1-5.4a5.7,5.7,0,0,1,2.6.5l-.5,1.3a5.2,5.2,0,0,0-2.1-.4c-2,0-3.4,1.2-3.4,4s1.5,3.8,3.3,3.8a4.2,4.2,0,0,0,2.3-.6Z"/><path d="M468.8,380.3c3.3,0,4.7,2.3,4.7,5.3s-1.8,5.3-4.8,5.3-4.7-2.4-4.7-5.3S465.9,380.3,468.8,380.3Zm0,9.2c2.1,0,3-1.8,3-3.9s-.9-3.9-3-3.9-3.1,1.7-3.1,3.9S466.7,389.5,468.8,389.5Z"/><path d="M482.6,390.7v-7a1.7,1.7,0,0,0-2-2,5,5,0,0,0-2.8,1v8h-1.6V380.5h1l.6.9a5.5,5.5,0,0,1,3.1-1.1c2.6,0,3.3,1.4,3.3,3.4v7Z"/><path d="M497,390.6a2.5,2.5,0,0,1-1.2.3c-1.4,0-1.8-.9-1.8-2.1v-12a6.1,6.1,0,0,0-1.5-.2c-2.3,0-2.9,1.4-2.9,3.1v.8h2.9v1.2h-2.9v13.1H488V381.7h-1.9v-1.2h1.8v-.3c0-2.5.8-5,4.5-5l1.6.2h1.7v13.1c0,.6,0,1,.7,1h.5Z"/><path d="M500.2,378.3a.9.9,0,0,1-1-1,1,1,0,0,1,1-1.1,1,1,0,0,1,1.1,1.1A1,1,0,0,1,500.2,378.3Zm2.1,12.3a2.5,2.5,0,0,1-1.2.3c-1.4,0-1.8-.9-1.8-2.1v-8.3H501v8.2c0,.4.1.8.7.8h.4Z"/><path d="M511.6,390.2a6,6,0,0,1-3,.7c-2.5,0-4.7-1.8-4.7-5.2s2.2-5.4,5.1-5.4a5.7,5.7,0,0,1,2.6.5l-.5,1.3a5.2,5.2,0,0,0-2.1-.4c-2,0-3.4,1.2-3.4,4s1.5,3.8,3.3,3.8a4.2,4.2,0,0,0,2.3-.6Z"/><path d="M519.2,390.4a3.7,3.7,0,0,1-2,.5c-1.8,0-2.8-1.1-2.8-3.3v-5.9h-1.9v-1.2h1.9v-2.2l1.6-.4v2.6h3.2v1.2H516v6c0,1.3.6,1.8,1.6,1.8a4.2,4.2,0,0,0,1.3-.3Z"/><path d="M525.5,380.3c3.2,0,4.7,2.3,4.7,5.3s-1.9,5.3-4.8,5.3-4.7-2.4-4.7-5.3S522.6,380.3,525.5,380.3Zm-.1,9.2c2.1,0,3.1-1.8,3.1-3.9s-1-3.9-3.1-3.9-3,1.7-3,3.9S523.3,389.5,525.4,389.5Z"/><rect class="a" x="97.2" y="237" width="63.9" height="64.71"/><path class="b" d="M104,256.7a22.7,22.7,0,0,1,10.8-3.1c7.7,0,10.6,3.7,10.6,8.7,0,7.4-8.4,13.3-11.1,15.2h13l-.3,5.6H104.4v-4.5c5.1-3.5,13.4-10.8,13.4-15.5,0-2.1-1.5-3.4-4.5-3.4a14.9,14.9,0,0,0-7.4,2.1Z"/><path class="b" d="M139,283.5a20.2,20.2,0,0,1-7.2-1.3l1.5-5.2a23.9,23.9,0,0,0,6.1.9c3.5,0,6.1-1.5,6.1-4.4s-4.2-4-7.7-4l-5.5.2,1-15.7h18.6l-.3,5.7H140.2l-.4,4.5c8.9.1,13.4,2.6,13.4,8.8S148,283.5,139,283.5Z"/><path class="c" d="M238.3,54.8v-26h11.2c7,0,10.6,2.9,10.6,8.5s-3.6,8.8-11.4,8.8h-3.6v8.7Zm6.8-21v7.4h3.2c4.1,0,5-2.3,5-4s-1.9-3.4-4.6-3.4Z"/><path class="c" d="M272.8,34.4c8.2,0,11.1,4.5,11.1,10.3S279.7,55.2,273,55.2s-10.9-4.5-10.9-10.5S266,34.4,272.8,34.4Zm.1,15.9c2.6,0,4.1-2.2,4.1-5.3s-1.1-5.8-4.1-5.8-4,1.7-4,5.2S269.9,50.3,272.9,50.3Z"/><path class="c" d="M287.5,34.8h4.7l1.6,2.7a6,6,0,0,1,5.4-3.1,4.5,4.5,0,0,1,2.3.4l-1,5.1-1.7-.2a6.9,6.9,0,0,0-4.5,1.5V54.8h-6.8Z"/><path class="c" d="M335.1,28.8v5h-7.5v21h-6.7v-21h-7.7v-5Z"/><path class="c" d="M340.9,46.3c.2,1.9,2.4,3.5,5.4,3.5a13,13,0,0,0,5.7-1.2l1.3,4.8a15.8,15.8,0,0,1-7.8,1.8c-6.6,0-11.5-3.2-11.5-10.1s4.2-10.7,10.5-10.7,9.4,4.3,9.4,8.5a18.4,18.4,0,0,1-.4,3.4Zm6.3-3.3a1.7,1.7,0,0,0,.1-.7,2.7,2.7,0,0,0-3-2.9,3.3,3.3,0,0,0-3.5,3.6Z"/><path class="c" d="M382.4,42c0-1.6-.5-2.7-2.5-2.7a5.1,5.1,0,0,0-3.1,1.1V54.8h-6.7V42c0-1.6-.5-2.7-2.6-2.7a5.3,5.3,0,0,0-3.1,1.1V54.8h-6.8v-20h5.1l1.2,1.6a11.3,11.3,0,0,1,6.4-2c2.8,0,4.8.9,5.8,2a9.9,9.9,0,0,1,6.2-2c4.4,0,6.9,2.3,6.9,6.4v14h-6.8Z"/><path class="c" d="M394.1,36.1a21,21,0,0,1,8.2-1.7c7.7,0,9.5,3.4,9.5,8.9V49a1.2,1.2,0,0,0,1.4,1.3h.8l.9,3.8a8.4,8.4,0,0,1-4.2,1.2c-2.7,0-4.3-.9-5.1-2.6-.8,1.3-3.1,2.6-6.1,2.6s-6.6-1.4-6.6-5.6,5.7-6.5,12.1-6.5c0-2.3-.9-3.5-3.7-3.5a14.2,14.2,0,0,0-5.5,1ZM405,46.4c-3,.1-5.4.6-5.4,2.3a2,2,0,0,0,2.2,1.9,4.7,4.7,0,0,0,3.2-1.3Z"/><path class="c" d="M431.6,40.5a14,14,0,0,0-5.8-1.1c-1.9,0-2.7.5-2.7,1.2,0,2.5,10.2.8,10.2,7.5,0,4.3-3.4,7.1-9.9,7.1a16.2,16.2,0,0,1-7.4-1.9l1.4-4.7a16.8,16.8,0,0,0,6.4,1.4c2,0,3.1-.5,3.1-1.4s-10.5-.7-10.5-7.6c0-4.1,3.5-6.6,9.1-6.6a19.3,19.3,0,0,1,7.6,1.4Z"/><path class="a" d="M129.5,199.8H118.6v24.7c0,2.1-.7,2.7-2.7,2.7h-7.2c-1.6,0-2.4-.7-2.4-2.4V173.5a2,2,0,0,0-.6-1.6,8.9,8.9,0,0,1,8-14.6,9,9,0,0,1,7.5,7.2,8.4,8.4,0,0,1-2.1,7.4,1.9,1.9,0,0,0-.4,1.9h22c4.8,0,8,3.1,8,8v1.5h9.8a2.2,2.2,0,0,1,2.5,2.5v21a2.2,2.2,0,0,1-2.5,2.5H137.3c-4.6,0-7.7-3.2-7.8-7.8Zm-10.9-4.1h13.5c4.1.1,8.3-.4,12.5.4V181.8a3.5,3.5,0,0,0-3.9-3.9H118.6Zm-4.2,27.4V174.9h-3.9v48.2Zm42.4-17.9a.4.4,0,0,1,.1-.3V188c0-.5-.3-.6-.7-.6h-7.5v.9c-.2,5.6.3,11.2-.3,16.8Zm-44.4-34.3a4.7,4.7,0,0,0,4.8-4.7,4.8,4.8,0,1,0-9.5-.1A4.7,4.7,0,0,0,112.4,170.9Zm21.3,28.8a14.6,14.6,0,0,0,0,2.1,3.3,3.3,0,0,0,3.3,3.4h4.8a2.7,2.7,0,0,0,2.8-2.7,3,3,0,0,0-2.9-2.8h-8Z"/><path class="d" d="M165.4,86a26.9,26.9,0,0,0-2-2.7,2.6,2.6,0,0,0-2.7-1,3,3,0,0,0-2.5,2.2,16.7,16.7,0,0,0-.5,3.1c-.1.2.1.4.1.7l.3.9a.9.9,0,0,1-.7,1c-.5.1-.8-.2-1-.7a8.5,8.5,0,0,0-.6-1.7,9.3,9.3,0,0,0-5.7-4.2,14.6,14.6,0,0,0-2.2-.3,21,21,0,0,1-9.2-2.1h-.2v.3a6.4,6.4,0,0,0,6.1,5.2h1.9a.9.9,0,0,1,1,.9c0,.5-.4.8-1,.8s-2.3,0-3.4-.2a7.2,7.2,0,0,1-4.1-2.2c-.1-.1-.3-.2-.4-.4h-.2a14.3,14.3,0,0,0,.8,2.2,7.2,7.2,0,0,0,6.4,4h3.6c.6,0,1,.4.9.9s-.2.8-.7.8c-2.1,0-4.3.3-6.5-.5l-1.6-.6a14.6,14.6,0,0,0,2.7,2.4,13.2,13.2,0,0,0,7,2h2.2c.6,0,.9.3.9.8s-.3.9-1,.8a8.1,8.1,0,0,0-4,.9,16.3,16.3,0,0,1-7.2,1.5h-1.7l3.6,7.1.5-.3,2.9-2.3a9.6,9.6,0,0,1,5.5-1.9,11.7,11.7,0,0,0,6-1.6.8.8,0,0,1,1.2.2c.3.5.2.9-.4,1.2A11.5,11.5,0,0,1,153,105a7.5,7.5,0,0,0-4.8,1.6l-3.7,2.9c-1,.8-1.4.7-2-.5l-4.3-8.5c-.5-.9-.1-1.5.9-1.5l5.5-.3a15.7,15.7,0,0,0,2.8-.6h-.3a14.2,14.2,0,0,1-10-10,14.7,14.7,0,0,1-.4-3.6c-.1-1.5,0-3,0-4.6s.6-1.3,1.4-.8a18.4,18.4,0,0,0,9.6,2.7,11.4,11.4,0,0,1,8.3,3.7l.3.2a3,3,0,0,1,.2-1,4.7,4.7,0,0,1,7-3.4,10.6,10.6,0,0,1,1.5,1.5l1.9,2.4.4.3,1.3-4.2a5.1,5.1,0,0,1-3.4-1.9,4.8,4.8,0,0,1-.9-4,1,1,0,0,1,.9-.9,4.9,4.9,0,0,1,5.6,2.9l.2.4,1.6-1.5c.1-.1.1-.4.2-.5a4.6,4.6,0,0,1,6.5-3.1c.8.3.9.6.8,1.5a4.7,4.7,0,0,1-6.2,3.7c-.1,0-.4-.1-.5,0a13,13,0,0,0-3.5,4.9,7.9,7.9,0,0,1,2-.4,5.6,5.6,0,0,1,1.3,0,1.2,1.2,0,0,1,1,1,5,5,0,0,1-4.3,5.9H169a11,11,0,0,1,.3,1.6.8.8,0,0,1-.1.8,1,1,0,0,1-.8.4.8.8,0,0,1-.7-.7c-.2-1.1-.3-2.3-.5-3.4v-.5a1.2,1.2,0,0,0-1.4,1.3V92a15.1,15.1,0,0,1-.9,4.7.9.9,0,0,1-1.2.7,1,1,0,0,1-.4-1.3,13.2,13.2,0,0,0,.8-4.4,22.5,22.5,0,0,1,0-2.6A3.3,3.3,0,0,1,165.4,86Zm4-6.6a3.2,3.2,0,0,0-3.5-3.5A3.3,3.3,0,0,0,169.4,79.4ZM169,87c-.1.3.1.4.5.4a3.4,3.4,0,0,0,3.1-3.1c0-.4-.1-.5-.5-.5A3.3,3.3,0,0,0,169,87Zm9.3-13.1a2.9,2.9,0,0,0-3.9,2.1A2.8,2.8,0,0,0,178.3,73.9Z"/><path class="d" d="M162.1,99a.8.8,0,0,1,.8.9.9.9,0,0,1-.8.8.8.8,0,0,1-.8-.9A.9.9,0,0,1,162.1,99Z"/><path class="d" d="M162.3,85.6a.9.9,0,0,1-.9.9.9.9,0,0,1-.8-.9.8.8,0,0,1,.9-.8A.9.9,0,0,1,162.3,85.6Z"/><path class="e" d="M193.1,106.3v-2.6a3.2,3.2,0,0,1,2.3-3.1l2.8-.8c.2,0,.3-.1.3-.4h0a2.2,2.2,0,0,0-.6-2,3.3,3.3,0,0,1-.8-2.7,1.3,1.3,0,0,0-.4-1,4.1,4.1,0,0,1-.7-5.1,4.4,4.4,0,0,1,3.3-1.8,8.2,8.2,0,0,1,4.1.5,1.3,1.3,0,0,0,1.7-.2c.3-.4.7-.3,1,.1a4.7,4.7,0,0,1,.8,4,4.6,4.6,0,0,1-1.5,2.6.9.9,0,0,0-.3.7,3.7,3.7,0,0,1-.7,2.9,2.2,2.2,0,0,0-.6,2,.5.5,0,0,0,.4.6l2.7.7a3.2,3.2,0,0,1,2.3,3v5.7c0,.4-.2.7-.6.7s-.5-.3-.5-.7-.1-3.7-.1-5.6a1.9,1.9,0,0,0-1.5-2L204,101c-.3-.1-.4,0-.5.2a2.7,2.7,0,0,1-4.5.1.7.7,0,0,0-.8-.3l-2.5.7a2,2,0,0,0-1.4,2v5.4c0,.1.1.2,0,.3a.5.5,0,0,1-.6.6c-.3,0-.5-.2-.5-.6v-3.1Zm12.3-18.1c-.8.7-1.6.4-2.5.1l-.7-.2a6.5,6.5,0,0,0-3.4-.2,2.8,2.8,0,0,0-2.2,2.1,3.2,3.2,0,0,0,1.1,3l.6-1c.4-.7.5-.7,1.2-.4s2.5.9,3.8-.1a.8.8,0,0,1,1.2.2,3,3,0,0,1,.4.8A3.6,3.6,0,0,0,205.4,88.2Zm-1.7,4.5-1.5.5a5,5,0,0,1-2.7-.3h-.4c-.4.7-1.1,1.3-.8,2.2v.2a3.4,3.4,0,0,0,2.7,2.8h.3a3.3,3.3,0,0,0,2.6-2.6,13.3,13.3,0,0,0,0-2A2.4,2.4,0,0,0,203.7,92.7Zm-4,6.2c-.2,1.1,0,1.8.7,2.2a1.7,1.7,0,0,0,1.7,0c.7-.6.5-1.4.5-2.3A2.8,2.8,0,0,1,199.7,98.9Z"/><path class="e" d="M216.1,93.3l1.4.4a2.8,2.8,0,0,1,2.3,3c0,2.1-.1,4.2-.1,6.3,0,.1.1.3,0,.4s-.2.5-.6.5a.5.5,0,0,1-.5-.5V96.6a1.5,1.5,0,0,0-1.2-1.7l-2.3-.6a2.2,2.2,0,0,1-4-.1l-2.9.9a1.4,1.4,0,0,0-.7,1.3v2.7a.5.5,0,0,1-.6.6.5.5,0,0,1-.5-.5,2.4,2.4,0,0,1,0-1.2,9.7,9.7,0,0,1,0-1.7,2.6,2.6,0,0,1,1.9-2.5l1.7-.5h-1.1c-.5-.1-.7-.2-.7-.7s-.1-3.5,0-5.3a4.9,4.9,0,0,1,9.7.3c.1,1.7,0,3.3,0,4.9s-.2.7-.7.8h-1.1Zm.7-1.2V87.6a3.7,3.7,0,0,0-3.6-3.5,3.5,3.5,0,0,0-3.8,3.3c-.1,1.5,0,3-.1,4.6h1.3a9.4,9.4,0,0,1-.6-1.5,12.1,12.1,0,0,1-.1-1.9,2.1,2.1,0,0,1,.7-1.5,10.5,10.5,0,0,1,.8-1.1.7.7,0,0,1,.5-.3c.2,0,.5.2.5.4a2.6,2.6,0,0,0,1.5,1.4l1.7.6c.4,0,.6.2.6.5s.1,2.3-.8,3.3h1.4Zm-4.9-4.6c-.4.4-.8.7-.8,1.2v1.4a2.1,2.1,0,0,0,1.7,1.8,2,2,0,0,0,2.2-2.1c0-.4,0-.6-.4-.7A5,5,0,0,1,211.9,87.5Zm.3,5.5c-.1.7,0,1,.3,1.2a1.3,1.3,0,0,0,1.2,0,1,1,0,0,0,.2-1.2Z"/><path class="e" d="M191.4,94.3a2.4,2.4,0,0,1-4.2,0l-2.5.7a1.4,1.4,0,0,0-.9,1.5v6.4a.9.9,0,0,1-.1.5c0,.3-.2.5-.5.4s-.4-.2-.6-.4V96.5a2.6,2.6,0,0,1,2-2.7l2.1-.6c.3-.1.3-.2.3-.4a2,2,0,0,0-.4-1.5,2.6,2.6,0,0,1-.7-2.2,1.2,1.2,0,0,0-.3-.9,3.5,3.5,0,0,1-.9-3.6,3.3,3.3,0,0,1,2.9-2.2,6,6,0,0,1,3.5.4,1.2,1.2,0,0,0,1.5-.2c.2-.3.6-.2.9.2a4.1,4.1,0,0,1,.7,3.4,3.7,3.7,0,0,1-1.2,2,.9.9,0,0,0-.3.7,3.6,3.6,0,0,1-1,2.8c-.2.3-.1.9-.1,1.4h.3l2.1.6a2.7,2.7,0,0,1,2,2.7v2.4c0,.5-.3.8-.6.8s-.6-.3-.6-.8V96.6a1.5,1.5,0,0,0-1.2-1.7l-2-.6Zm1.1-7.3a2.9,2.9,0,0,0,.3-3.1,2.1,2.1,0,0,1-1.9,0,5.9,5.9,0,0,0-3.2-.3,2.1,2.1,0,0,0-1.9,1.3,2.4,2.4,0,0,0,.7,2.6,4.3,4.3,0,0,1,.4-.7c.3-.7.5-.7,1.1-.4a2.7,2.7,0,0,0,3.1-.1c.3-.3.8-.1,1.1.2S192.3,86.9,192.5,87Zm-1.2.5a3.5,3.5,0,0,1-3.3.2h-.2a3.4,3.4,0,0,0-.7,1.1,2.5,2.5,0,0,0,1.4,2.8,1.5,1.5,0,0,0,1.6,0C191.6,90.6,191.8,89.5,191.3,87.5Zm-.9,5.2a2.8,2.8,0,0,1-2.2,0,1.4,1.4,0,0,0,.5,1.5,1.1,1.1,0,0,0,1.2,0C190.5,93.9,190.4,93.3,190.4,92.7Z"/><path class="e" d="M206.3,81v3.1a.5.5,0,0,0,.4.6,2.6,2.6,0,0,1,1,1.3c.2.5.1.8-.2.9a.5.5,0,0,1-.8-.4,1.8,1.8,0,0,0-1.1-1l-2.1-.6-.4.2c-.7,1.4-3.2,1.4-3.8,0l-.4-.2-2.1.6a1.4,1.4,0,0,0-1.2,1.5v.3a.6.6,0,0,1-.6.5c-.3-.1-.5-.2-.5-.6a2.5,2.5,0,0,1,1.2-2.5c.3-.2.4-.3.4-.6-.1-2-.1-4.1,0-6.1a5.2,5.2,0,0,1,5.2-5.2,5.2,5.2,0,0,1,5,5V81Zm-9.1,3.2,1.6-.5h.2a1.7,1.7,0,0,0-.2-1.2,4,4,0,0,1-.8-1.6,7.1,7.1,0,0,1-.1-1.5c0-.7.1-.8.8-1s2.6-.7,3.2-2.1a.7.7,0,0,1,.5-.3.9.9,0,0,1,.5.3,4.4,4.4,0,0,1,.8,1.1,3.7,3.7,0,0,1,.7,1.2,10.5,10.5,0,0,1-.1,2.5,1.7,1.7,0,0,1-.7,1.3c-.3.4-.2.8-.3,1.2a.2.2,0,0,0,.2.2l1.6.5h0c0-2.2.1-4.3,0-6.4a3.8,3.8,0,0,0-3.9-3.7,4,4,0,0,0-4,4.1v6.1Zm5.2-6.5a5.3,5.3,0,0,1-2.6,1.5c-.7.3-.7.3-.7,1.1a2,2,0,0,0,2,2,2,2,0,0,0,2.2-1.9v-.9A1.8,1.8,0,0,0,202.4,77.7Zm-2.2,5.7c0,.5-.2,1.1.4,1.4a1.5,1.5,0,0,0,1.3,0c.4-.4.3-.9.3-1.4Z"/><path class="f" d="M239.5,77.6h.7a2,2,0,0,1,1.7,2.2c0,1.3-.1,2.7-.1,4v2.4a2.1,2.1,0,0,1,2,.3,2.2,2.2,0,0,1,.9,2l.7-.4a1.5,1.5,0,0,1,.1-1.9,2.6,2.6,0,0,1,2.2-.7,2.9,2.9,0,0,1,1.8,1.1V85.5l-.6-6.9a2.1,2.1,0,0,1,1-2,2,2,0,0,1,2.2,0h.2a11.5,11.5,0,0,1,.6-1.7,1.9,1.9,0,0,1,1.7-.8c1.1,0,1.8.8,2,2.4a2,2,0,0,1,2.7.2c.8.8.6,1.8.6,2.8h.4a1.9,1.9,0,0,1,2.1,2c0,.9-.1,1.9-.1,2.8s-.2,3.9-.4,5.9a11.1,11.1,0,0,1-.7,2.2,10.9,10.9,0,0,1-.5,1.7.4.4,0,0,0,.2.5,1.7,1.7,0,0,1,.5,1.2v13.2c0,.7-.3.9-1,.9H230c-.9,0-1.1-.2-1.1-1.1V94.2a1.7,1.7,0,0,1,.6-1.5.6.6,0,0,0,.1-.4,3.1,3.1,0,0,0-.7-.9l-1.3-1a5.7,5.7,0,0,1-1.5-2.2,16.2,16.2,0,0,0-1-1.8c-.3-.5-.7-1-.4-1.7a2.3,2.3,0,0,1,1.8-1.2,3,3,0,0,1,2.2.8l.4.3c-.1-.9-.1-1.7-.2-2.5s-.3-3.7-.5-5.5a2,2,0,0,1,1.1-2,2,2,0,0,1,2.2.1h.2a2.4,2.4,0,0,1,.9-2.1l1.2-.5a1.8,1.8,0,0,1,1.6.8c.3.4.4,1,.7,1.5l1-.3a2,2,0,0,1,2.1,2A6.6,6.6,0,0,1,239.5,77.6Zm-4.7,21.5c.3.7.8,1.3,1.1,2a5.1,5.1,0,0,0,2.1,2.7,5.7,5.7,0,0,1,1.1,1.1c.3.4.5.6,1,.6a.7.7,0,0,1,.8.7.7.7,0,0,1-.8.7h-.9c-.1.1-.2.2-.2.3a5.6,5.6,0,0,0,0,1.3h10.4v-1.6h-2.6a.7.7,0,0,1-.7-.7.6.6,0,0,1,.7-.7.7.7,0,0,0,.8-.6,1.4,1.4,0,0,1,.2-.6,12.7,12.7,0,0,0,.9-4.3l.3-6.4v-.2a.6.6,0,0,0-.5-.5.7.7,0,0,0-.6.4,2,2,0,0,0-.1.7c0,.9-.1,1.8-.1,2.7s-.4.9-.8.8-.7-.3-.7-.9.1-2.8.2-4.1.1-1.5.1-2.3-.1-.6-.5-.6-.5.1-.6.5a.6.6,0,0,0-.1.4c0,.6-.1,1.2-.1,1.7l-.3,4.6c0,.3-.1.6-.4.6h-.7a1.5,1.5,0,0,1-.4-.8c-.1-2.7-.1-5.4-.2-8.1a.6.6,0,0,0-.1-.4c-.1-.2-.3-.5-.5-.5s-.5.1-.6.4v.4c-.1,2.2-.1,4.4-.2,6.5a11.5,11.5,0,0,1-.1,1.9.7.7,0,0,1-.7.7c-.4.1-.7-.2-.7-.7a.3.3,0,0,1-.1-.2c-.1-2-.3-4-.5-6,0-.2-.1-.4-.1-.6a.7.7,0,0,0-.6-.4c-.4.1-.5.3-.5.6v.4c.2,3,.5,6,.7,8.9,0,.5.1,1,.1,1.4a.7.7,0,0,1-.6.7.6.6,0,0,1-.8-.5v-.2l-1.5-1.6A1,1,0,0,0,234.8,99.1Zm11.9-11.9a11.4,11.4,0,0,1,1,1.9,5.7,5.7,0,0,0,2.4,2.9,3.7,3.7,0,0,1,1.5,2,.3.3,0,0,0,.3.3h7a.3.3,0,0,0,.3-.3l.6-1.8a13.6,13.6,0,0,0,.9-4.8c.1-1.8.1-3.7.2-5.6v-.3c-.1-.2-.3-.4-.4-.4l-.6.2a1.3,1.3,0,0,0-.1.6c-.1,1-.1,1.9-.2,2.9s-.3.9-.8.8-.7-.3-.7-.9l.3-5.1V78.2c0-.3-.1-.5-.4-.5a.6.6,0,0,0-.7.4.6.6,0,0,1-.1.4c0,.9-.1,1.8-.1,2.7l-.3,3.7c0,.4-.2.7-.6.7a.7.7,0,0,1-.8-.4v-.5l-.3-7.7v-.6c0-.5-.2-.7-.6-.7s-.6.2-.6.7v.4c-.1,2.6-.1,5.3-.2,7.9,0,.6-.3.9-.7.9s-.8-.2-.8-.8-.3-3.1-.5-4.7a9.7,9.7,0,0,0-.1-1.7,1.5,1.5,0,0,0-.5-.6c-.1-.1-.4,0-.5.2s-.2.4-.2.6c.2,2,.3,4,.5,6l.3,4.3a.8.8,0,0,1-.5.9.9.9,0,0,1-.9-.6V89l-1.4-1.6A1.1,1.1,0,0,0,246.7,87.2Zm-15.6,5.1h6c0-.6-.1-1.3-.1-2a1.9,1.9,0,0,1,1.5-2.1,6.5,6.5,0,0,1,1.4,0,11.3,11.3,0,0,0,.3-1.8c.1-2.2.2-4.4.2-6.6v-.3c-.1-.1-.3-.4-.5-.4a.7.7,0,0,0-.5.3.7.7,0,0,0-.1.5c-.1,1-.1,1.9-.2,2.9s-.3.9-.7.9a.7.7,0,0,1-.7-.9c0-1,.1-1.9.1-2.8s.1-2.4.2-3.6a.6.6,0,0,0-.5-.7c-.3-.1-.6.2-.7.6a1.1,1.1,0,0,1-.1.5l-.3,6.1c-.1.5-.4.8-.8.8s-.7-.3-.7-.9l-.3-8.1c0-.7-.2-1-.5-1s-.6.3-.7.9c-.1,2.8-.1,5.5-.2,8.2,0,.6-.3.9-.8.9s-.7-.3-.7-.9-.3-3.3-.4-5-.1-.9-.2-1.4a1.5,1.5,0,0,0-.5-.6l-.6.3c-.1.1-.1.4-.1.5.2,2.7.5,5.4.7,8.1,0,.7.1,1.5.1,2.3s-.2.7-.6.8-.6-.1-.8-.5a.4.4,0,0,0-.1-.3l-1.5-1.6a1.1,1.1,0,0,0-1.5-.2l1.1,1.9a5.4,5.4,0,0,0,2.1,2.8A3.4,3.4,0,0,1,231.1,92.3Zm28.8,16.2V99.6h-9v8.9Zm-21.8-2.7-1-.9a6.3,6.3,0,0,1-2.4-2.7,10.1,10.1,0,0,0-1.2-2.3,1.2,1.2,0,0,1,0-1.7l.4-.6h-3.4v10.9h6.9C237.6,107.6,237.2,106.6,238.1,105.8Zm21.8-10h-9V98h9Zm-29.5.3h7l-.2-2.3h-6.4c-.2,0-.4,0-.4.3Zm7.2,2.3c.1-.9-.1-1-.9-.7Zm11.8,7v-1h-.1l-.3,1Z"/><path class="f" d="M243.5,106.9a.7.7,0,0,1-.8-.7.8.8,0,0,1,.8-.7.7.7,0,0,1,0,1.4Z"/><path class="g" d="M328.7,93a2.3,2.3,0,0,1-3.6-.7l-.8.8v.4a2.9,2.9,0,0,1-1.6,3.1,2.8,2.8,0,0,1-3.4-.6q-3.2-3-6.3-6.3a2.7,2.7,0,0,1-.5-3.3,2.8,2.8,0,0,1,3-1.6.9.9,0,0,0,.7-.3l8.3-8.3c.2-.2.3-.3.2-.6a3,3,0,0,1,1.6-3,2.7,2.7,0,0,1,3.4.5l6.3,6.3a2.9,2.9,0,0,1,.5,3.4,3.2,3.2,0,0,1-3.1,1.6c-.1-.1-.3,0-.5.1l-.7.6a2.7,2.7,0,0,1,1.3,1.7,2.3,2.3,0,0,1-.6,1.9l3,2.6,8.4,7.4,3.9,3.4a4.4,4.4,0,0,1,1.4,5.1,4.4,4.4,0,0,1-7.1,1.6c-1.3-1.3-2.4-2.7-3.6-4-3.3-3.9-6.7-7.8-10.1-11.6A.3.3,0,0,0,328.7,93Zm3-9.5-6.1-6.1-8.3,8.2,6.2,6.2ZM341,97.7l-9.1-7.9-2.2,2.1,8,9.2,2.6-2.7Zm-.4,6.7,2.7,3.1a2.9,2.9,0,0,0,4.3.1,2.8,2.8,0,0,0-.2-4.2l-2.3-2.1-.7-.6Zm-5.2-23a2,2,0,0,0-.6-1.2l-3-2.9c-1-1.1-2-2.1-3.1-3.1a1.5,1.5,0,0,0-2.3.2,1.4,1.4,0,0,0,.3,1.9l4.4,4.4,1.8,1.8a1.4,1.4,0,0,0,1.6.3A1.6,1.6,0,0,0,335.4,81.4ZM321.3,95.5l.7-.2a1.5,1.5,0,0,0,.4-2.4l-2.3-2.3-3.9-3.9a1.4,1.4,0,0,0-2.1,0,1.3,1.3,0,0,0,0,2q3,3.1,6.3,6.3Zm10.8-8.4c-.2-.2-.3-.5-.5-.6a.7.7,0,0,0-.9.2l-4,4.1a.7.7,0,0,0-.1,1.1.8.8,0,0,0,1.1-.1l4-4A1.6,1.6,0,0,0,332.1,87.1Zm11.1,12.5-1-.9-3.5,3.5.9,1Z"/><path class="g" d="M314,105.3a11,11,0,0,1-.3-1.6,2.4,2.4,0,0,1,2.4-2.5c4.3-.1,8.5-.1,12.8,0a2.5,2.5,0,0,1,2.1,3.7c0,.1-.1.2-.1.3l.5.4a4.2,4.2,0,0,1,1.4,3.8c0,.3-.3.5-.7.6H313.2c-.8,0-1-.2-1-1A3.7,3.7,0,0,1,314,105.3Zm17.3,3.2v-.2a2.2,2.2,0,0,0-2.3-2H315.3a2,2,0,0,0-1.6,2.1Zm-8.8-5.9h-6.2a1.1,1.1,0,1,0,0,2.2h11.3a4,4,0,0,0,1.1,0,1.1,1.1,0,0,0,1.1-.7,1.1,1.1,0,0,0-1.2-1.5Z"/><path class="g" d="M322.4,84.4c-.2-.2-.5-.3-.6-.6a.9.9,0,0,1,.1-.7c.1-.3.3-.4.5-.6l2.5-2.5c.4-.4.8-.5,1.2-.1s.3.7-.2,1.1L323,84Z"/><path class="g" d="M321.1,85.6a.7.7,0,0,1-.7.7.7.7,0,0,1-.8-.7.7.7,0,0,1,.7-.7A.8.8,0,0,1,321.1,85.6Z"/><path class="h" d="M387,84.4c-.1,2-.1,4-.3,6a21.6,21.6,0,0,1-4,10.9,24.3,24.3,0,0,1-9.2,7.9l-2.2.7a3.1,3.1,0,0,1-2.3-.3,24.9,24.9,0,0,1-6.5-4.2,22.9,22.9,0,0,1-7.1-11.9,24.6,24.6,0,0,1-.7-6V79.8c0-.7.1-.9.8-1.1a55.9,55.9,0,0,0,8.9-3.3c1.8-.8,3.6-1.8,5.4-2.8a1.8,1.8,0,0,1,2,0,57,57,0,0,0,12.6,5.6l1.7.5c.6.2.8.4.8,1v4.7Zm-1.7.9V80.6c0-.4-.1-.5-.5-.6a61.6,61.6,0,0,1-13.7-5.9h-.6L366.9,76a55.3,55.3,0,0,1-10.2,4c-.3.1-.4.2-.4.6v6.9a23.4,23.4,0,0,0,1.3,7.9,21.9,21.9,0,0,0,11.2,12.3,3.5,3.5,0,0,0,3.4.3,22.3,22.3,0,0,0,6.9-4.9A20.9,20.9,0,0,0,385,91.6,44.3,44.3,0,0,0,385.3,85.3Z"/><path class="h" d="M368.4,92.4l.3-.5,7.3-7.3a2.7,2.7,0,0,1,3.3-.6,2.4,2.4,0,0,1,.7,3.8c-1,1.2-2.1,2.2-3.2,3.3l-6.5,6.6a2.6,2.6,0,0,1-2.9.7,3,3,0,0,1-1.1-.6l-4.5-4.6a2.5,2.5,0,0,1,2-4.4,2.6,2.6,0,0,1,1.8.9l2.4,2.4Zm-4.8-2.1c-.3.1-.5.1-.7.3s-.5,1,.1,1.5,2.9,3,4.4,4.4,1.1.7,1.7,0l8.3-8.3a8,8,0,0,0,1.3-1.3,1,1,0,0,0-1.4-1.4l-.3.4-8,8c-.6.5-.9.5-1.5-.1s-2.1-2-3.1-3.1Z"/><path class="h" d="M357.8,83.4V82c0-.5.2-.7.7-.9l4.1-1.5a.8.8,0,0,1,1.1.5c.2.4,0,.8-.6,1l-3.3,1.2a.5.5,0,0,0-.4.5v2c0,.6-.3.9-.7.9a.8.8,0,0,1-.9-.9Z"/><path class="h" d="M375,104.5c-.2-.2-.5-.3-.6-.5a1.1,1.1,0,0,1,.1-.8c0-.2.3-.4.5-.5a27.2,27.2,0,0,0,4-4.3c0-.1.1-.2.1-.3s.8-.5,1.2-.2a.8.8,0,0,1,.1,1.1,21.5,21.5,0,0,1-1.8,2.4,37.1,37.1,0,0,1-2.9,2.7Z"/><path class="h" d="M373.1,105.7a.8.8,0,0,1-.8-.8.9.9,0,0,1,.9-.8.8.8,0,0,1,.7.8A.8.8,0,0,1,373.1,105.7Z"/><path class="h" d="M365.2,80.2a.9.9,0,0,1-.7-.9.8.8,0,0,1,.8-.7.9.9,0,0,1,.8.8A.9.9,0,0,1,365.2,80.2Z"/><path class="i" d="M456.5,101.7l-.8.7-1.3-1.5c-.1-.1-.1-.4-.1-.6v-.7a9.6,9.6,0,0,1-5.3,0c0,.1-.1.2,0,.3a1.9,1.9,0,0,1-.7,1.7l-3.9,4.4-.3.3a.6.6,0,0,0,0,.8.5.5,0,0,0,.8-.1,37,37,0,0,0,2.8-2.8l1.8-1.7.5-.3h3.2a.5.5,0,0,1,.5.3l4.5,4.4c.1,0,.1.1.2.2a.5.5,0,0,0,.7,0,.5.5,0,0,0,.1-.8l-1-1-.3-.4.8-.7,1.4,1.5a1.7,1.7,0,0,1-.2,2.2,1.6,1.6,0,0,1-2.3-.1l-4.3-4.2-.6-.3h-2.1a.9.9,0,0,0-.7.3l-4.1,4.2a1.7,1.7,0,0,1-2.5-2.3l4.2-4.6c.5-.6.3-1.1.3-1.7s-.1-.1-.2-.2a8.2,8.2,0,0,1-3.8-3.8.5.5,0,0,0-.5-.3,1.8,1.8,0,0,0-1.7.6l-4.4,3.9a1.6,1.6,0,0,1-2.6-.4,1.6,1.6,0,0,1,.4-2l3.1-3.2a3.7,3.7,0,0,0,1.2-1.3c.3-.5.1-1.2.1-1.8a2.1,2.1,0,0,0-.7-1.8l-3.8-3.7a1.7,1.7,0,0,1,.7-2.8,1.7,1.7,0,0,1,1.7.4l4.7,4.3a2.2,2.2,0,0,0,1.6.2c.1,0,.1-.2.2-.2a7.8,7.8,0,0,1,3.8-3.8c.2-.1.2-.3.3-.5a1.9,1.9,0,0,0-.7-1.7L446,79.7l.8-.7,1,1.1.2.2a2.3,2.3,0,0,1,.9,2.4,8.3,8.3,0,0,1,5.4,0v-.4a1.9,1.9,0,0,1,.6-1.6l3.9-4.3.3-.4c.2-.3.3-.6,0-.9s-.5-.1-.8.1l-2.2,2.3-2.4,2.3-.5.2h-3.1l-.6-.2L445,75.3l-.3-.2h-.6a.5.5,0,0,0,0,.7l1.1,1.3.9,1-.8.7c-.8-.8-1.5-1.7-2.2-2.5l-.2-.4a1.6,1.6,0,0,1,2.5-1.8l.5.4,4.1,4.1.6.2h2.1a.7.7,0,0,0,.6-.3l4.2-4.1a1.6,1.6,0,0,1,2-.4,1.6,1.6,0,0,1,.4,2.6c-1.3,1.6-2.7,3.2-4.1,4.7s-.3,1.1-.4,1.6l.3.2a8.9,8.9,0,0,1,3.8,3.9l.4.2a1.8,1.8,0,0,0,1.7-.5l4.5-4a1.6,1.6,0,0,1,2-.2,1.6,1.6,0,0,1,.7,1.7,2.7,2.7,0,0,1-.6,1l-4.1,4.1a.9.9,0,0,0-.3.7,6.7,6.7,0,0,1,0,2,.9.9,0,0,0,.3.7l4.2,4.2a1.6,1.6,0,0,1,.5,1.7,1.7,1.7,0,0,1-2.8.7l-4.7-4.2a3,3,0,0,0-1.6-.3l-.2.3a9.3,9.3,0,0,1-3.8,3.8.5.5,0,0,0-.3.5,1.7,1.7,0,0,0,.6,1.6Zm-5.7-2.8a4.3,4.3,0,0,1,.5-3,2,2,0,0,1,2.5-1.1l3.2,1.3a.6.6,0,0,0,.7-.1,8.7,8.7,0,0,0,1.7-4.7,7.8,7.8,0,0,0-7-7.9.5.5,0,0,0-.5.3,3.9,3.9,0,0,0,.9,3.9L454,89a3.1,3.1,0,0,1,.5,1c.4,1-1,3.2-2.7,2.7l-1.1-.4-1.9-1a3.4,3.4,0,0,0-1.7-.5,10.7,10.7,0,0,0-3,.6c-.2.1-.2.2-.2.4a7.6,7.6,0,0,0,4.9,6.5A9.5,9.5,0,0,0,450.8,98.9Zm-.1-15.4a7.5,7.5,0,0,0-6.7,6.7l.9-.2a5.5,5.5,0,0,1,5,.6l1.9,1c.6.2.9.1,1.3-.5a1,1,0,0,0,0-1.4l-1-1.2a4.7,4.7,0,0,1-1.4-2.9A14.7,14.7,0,0,1,450.7,83.5Zm-7.6,4.9h-.6a1.4,1.4,0,0,1-1.1-.5l-4.7-4.2-.3-.3a.6.6,0,0,0-.7.1c-.3.3-.2.5,0,.8l.2.2,4.4,4.4a1.1,1.1,0,0,1,.2.6v3.1a1.4,1.4,0,0,1-.2.6,25,25,0,0,0-2.3,2.3l-2.3,2.2c-.2.3-.3.5,0,.8s.5.2.7,0,.3-.2.4-.3l4.7-4.2a1.4,1.4,0,0,1,.9-.3h.7c-.1-1-.3-1.8-.3-2.7S443,89.4,443.1,88.4Zm17,5.4h.6a1.4,1.4,0,0,1,1.2.4c1.5,1.5,3.1,2.9,4.7,4.3l.4.2h.6a.8.8,0,0,0,0-.7l-.2-.2c-1.5-1.5-2.9-3-4.4-4.4l-.3-.6V89.5c.1-.2.1-.4.3-.5l1.7-1.8a37,37,0,0,0,2.8-2.8.5.5,0,0,0,.1-.8.6.6,0,0,0-.8,0l-.3.2c-1.4,1.4-2.9,2.7-4.4,4a1.9,1.9,0,0,1-1.7.7h-.3A9.5,9.5,0,0,1,460.1,93.8Zm-3.6,3.3a12.5,12.5,0,0,0-3-1.2.9.9,0,0,0-1,.2,3.2,3.2,0,0,0-.6,2.5.3.3,0,0,0,.3.3A7.8,7.8,0,0,0,456.5,97.1Z"/><path class="i" d="M470.5,88.6v5h-3.6c-.4-.4-1.1-.7-1.2-1.2a4.5,4.5,0,0,1,0-2.3c.1-.5.8-.9,1.2-1.3h3.6Zm-1.1,1.1h-1.7l-.5.3a1.4,1.4,0,0,0-.6,1.4c.1.3.6,1.1.9,1.1h1.9Z"/><path class="i" d="M451.6,77.2h-.8a1.5,1.5,0,0,1-1.6-1.5,6.7,6.7,0,0,1,0-2,1.6,1.6,0,0,1,1.6-1.5h1.7a1.6,1.6,0,0,1,1.6,1.6,5.4,5.4,0,0,1,0,1.8,1.6,1.6,0,0,1-1.7,1.6Zm.1-3.9h-.8a.5.5,0,0,0-.6.6,4.3,4.3,0,0,0,0,1.6c0,.4.2.6.5.6h1.6a.5.5,0,0,0,.6-.6v-.8C453,73.3,453,73.3,451.7,73.3Z"/><path class="i" d="M437.7,91.3c.2.6-.2,1.1-.7,1.6a2.7,2.7,0,0,1-1.7.8,2.6,2.6,0,0,1-1.9-.8,2.2,2.2,0,0,1-.7-1.7,2.2,2.2,0,0,1,.8-1.9,2.2,2.2,0,0,1,1.7-.7,2.4,2.4,0,0,1,1.9.8C437.7,90.1,437.7,90.1,437.7,91.3Zm-1.1-.2a1.3,1.3,0,0,0-1.3-1.4,1.3,1.3,0,0,0-1.5,1.3c0,1,.5,1.5,1.4,1.5A1.3,1.3,0,0,0,436.6,91.1Z"/><path class="i" d="M451.7,110a2.5,2.5,0,1,1-.1-5,2.5,2.5,0,0,1,.1,5Zm1.3-2.5a1.4,1.4,0,0,0-1.4-1.4c-.7.1-1.4.7-1.3,1.4a1.3,1.3,0,0,0,1.3,1.4A1.4,1.4,0,0,0,453,107.5Z"/><path class="i" d="M457.2,104l-.8-.8.8-.7.8.8Z"/><path class="i" d="M456.7,88.9h1.1v1h-1.1Z"/><path class="i" d="M456.7,86.7v1h-1.1v-1Z"/><path class="a" d="M409.8,95.2h-5.9v13.3c0,1.2-.4,1.5-1.5,1.5h-3.9c-.8,0-1.2-.4-1.2-1.3V81a1.2,1.2,0,0,0-.4-.9,4.7,4.7,0,0,1-.5-5.4,4.8,4.8,0,0,1,4.8-2.4,4.7,4.7,0,0,1,4.1,3.9,4.9,4.9,0,0,1-1.1,4,.9.9,0,0,0-.3,1h11.9a4,4,0,0,1,4.3,4.3v.8h5.3a1.3,1.3,0,0,1,1.4,1.4V99c0,.9-.4,1.3-1.4,1.3H414a4,4,0,0,1-4.2-4.2ZM403.9,93h7.3a37.5,37.5,0,0,1,6.7.2V85.5a1.9,1.9,0,0,0-2.1-2.1H403.9Zm-2.3,14.8v-26h-2.1v26Zm22.9-9.7v-.2c0-3,0-6,.1-9.1,0-.2-.2-.3-.4-.3h-4.1v.5c-.1,3,.2,6-.1,9ZM400.6,79.6a2.6,2.6,0,0,0,2.6-2.6,2.8,2.8,0,0,0-2.6-2.6A2.6,2.6,0,0,0,398,77,2.6,2.6,0,0,0,400.6,79.6ZM412,95.2v1.1a1.8,1.8,0,0,0,1.8,1.8h2.6a1.4,1.4,0,0,0,1.5-1.5,1.5,1.5,0,0,0-1.5-1.4H412Z"/><path class="j" d="M479.6,83.3V81.6a1,1,0,0,1,.7-1.1,17.3,17.3,0,0,1,11-.5,20.1,20.1,0,0,1,6.1,2.9.4.4,0,0,0,.6,0,20.7,20.7,0,0,1,9.2-3.5,16,16,0,0,1,7.8,1.1c.7.2.8.5.8,1.2v1.6h2.4c.8.1,1.1.4,1.1,1.2v24.3c0,.9-.3,1.2-1.2,1.2H477.3c-.9,0-1.2-.3-1.2-1.2V84.6c0-1,.3-1.3,1.2-1.3Zm1.8,21.6c5.5-1.6,10.6-.5,15.4,2.4V85c0-.2,0-.4-.3-.5s-2.5-1.5-3.9-2.1a15.8,15.8,0,0,0-10.7-.6c-.4.2-.5.3-.5.7v22.4Zm32.6,0V82.4c0-.3,0-.4-.3-.5s-2.4-.6-3.6-.7A17.6,17.6,0,0,0,499,84.4a.8.8,0,0,0-.4.7v22.2C503.5,104.4,508.5,103.3,514,104.9ZM478,85.2v23h16.5l-.2-.2c-4.3-2.1-8.8-2.8-13.4-.9H480c-.4-.2-.4-.6-.4-1V85.2Zm37.8,0v21.1a.9.9,0,0,1-1.2.8l-1-.4a15.5,15.5,0,0,0-10.4.4l-2.2,1h16.5v-23Z"/><path class="k" d="M269.6,92.6A17.4,17.4,0,1,1,286.9,110,17.4,17.4,0,0,1,269.6,92.6ZM287,109a16.4,16.4,0,1,0-16.4-16.4A16.4,16.4,0,0,0,287,109Z"/><path class="k" d="M280.6,92.2a9.1,9.1,0,0,1-2-3.2,10.5,10.5,0,0,1-.6-2.4c-.2-.6.1-.9.7-.8l2.2.6h.4L278.8,82c-.7.7-1.4,1.3-2,2a13.3,13.3,0,0,0-3,6.6c-.1.2-.1.4-.4.5a.5.5,0,0,1-.6-.6,14.3,14.3,0,0,1,.4-2.2,14.9,14.9,0,0,1,5.3-7.3c.5-.4.8-.3,1.1.2,4.3,7.9,8.6,15.9,13,23.8.3.5.2.8-.4,1A14.3,14.3,0,0,1,273,95.8a15.4,15.4,0,0,1-.4-3c0-.4.2-.6.5-.6s.5.2.5.6a13,13,0,0,0,7,11.5,12.7,12.7,0,0,0,10.6.9h.3l-4-7.1h0v5.1a.6.6,0,0,1-.6.5c-.3,0-.4-.2-.5-.5V97.9l-.3.4a5.7,5.7,0,0,1-3.5,2c-.5.1-.8-.1-.7-.6a14.6,14.6,0,0,1,.5-2l.2-.3h-1.3a10.1,10.1,0,0,1-6.5-2.1c-.5-.4-.5-.7,0-1.1a9.1,9.1,0,0,1,5.2-2Zm5.3,2.7c-.1-.2-.3-.3-.4-.4a9.1,9.1,0,0,0-9.4.1l-.3.2A8.9,8.9,0,0,0,285.9,94.9Zm-1.1-2-2.6-4.6a.2.2,0,0,0-.2-.2l-2.3-1h-.6a9,9,0,0,0,3,5.1h.2Zm1.4,3.1a6.6,6.6,0,0,1-1.5.7,2.1,2.1,0,0,0-1.1,1,3.4,3.4,0,0,0-.6,1.5A5.1,5.1,0,0,0,286.2,96Z"/><path class="k" d="M286.6,78.3a14.4,14.4,0,0,1,14.5,11.9,13.9,13.9,0,0,1-5.7,14c-.5.4-.8.3-1.1-.2-4.3-7.9-8.6-15.8-13-23.7-.3-.6-.2-.8.4-1A13,13,0,0,1,286.6,78.3Zm-1.7,6.3a5.7,5.7,0,0,1,.4-1.4l1.2-2.4c.2-.4.6-.3.9,0l.3.5a14.2,14.2,0,0,1,1.7,5.4c.1.6.1,1.2.2,1.8l.2-.2a10.3,10.3,0,0,1,5.4-2.5c.6,0,.8.2.8.7a9.7,9.7,0,0,1-2.5,5.4l-.2.3h.3a10.2,10.2,0,0,1,5.6,2.2q.6.4,0,.9l-1.3.9a.5.5,0,0,1-.8-.2.6.6,0,0,1,.3-.7l.7-.4a8.9,8.9,0,0,0-8.2-1.1l1.2,2.1c.1.3.3.4.6.5a11.4,11.4,0,0,0,3.7-.3c.4-.1.7,0,.8.4a.7.7,0,0,1-.5.6,9.6,9.6,0,0,1-3.4.3h-.4l3.1,5.8a13.3,13.3,0,0,0-12.6-23.1Zm10,2.4h-.3a9.1,9.1,0,0,0-5.9,4.2v.4l.6,1c.1.2.2.2.4.2l1.8-.5.4-.2a8.2,8.2,0,0,0,2.3-3.2A10.7,10.7,0,0,0,294.9,87ZM287,82.1h-.1l-.2.4c-.3,1.1-.7,2.1-1,3.2a.7.7,0,0,0,.1.6l2,3.7.2.3a1.6,1.6,0,0,0,.5-1.1,17.1,17.1,0,0,0-.9-5.5A7.6,7.6,0,0,0,287,82.1Z"/></svg>