<svg xmlns="http://www.w3.org/2000/svg" width="660" height="500" viewBox="0 0 660 500"><defs><style>.a{fill:#6698ac;}.b{fill:#fff;}.c{fill:#223749;}.d{fill:#409195;}.e{fill:#9ab63a;}.f{fill:#d2a206;}.g{fill:#5e788f;}.h{fill:#384f64;}.i{fill:#d58116;}.j{fill:#07a0b9;}.k{fill:#478335;}</style></defs><path class="a" d="M187.9,153.9h4.3v16.5h-4.3Z"/><path class="a" d="M211.5,162.2c0-1-.3-1.7-1.6-1.7a3.7,3.7,0,0,0-2,.7v9.2h-4.3v-8.2c0-1-.3-1.7-1.6-1.7a3.7,3.7,0,0,0-2,.7v9.2h-4.3V157.6H199l.7,1.1a7.3,7.3,0,0,1,4.1-1.3c1.8,0,3,.5,3.6,1.3a6.3,6.3,0,0,1,4-1.3c2.8,0,4.4,1.5,4.4,4.1v8.9h-4.3Z"/><path class="a" d="M218.6,157.6h3.3l.7,1.1a6.5,6.5,0,0,1,4-1.3c3,0,5.5,1.9,5.5,6.4s-3.3,6.8-6.9,6.8a11.1,11.1,0,0,1-2.3-.3v5.1h-4.3Zm4.3,9.6a4.6,4.6,0,0,0,1.9.4c1.7,0,2.9-1.3,2.9-3.6s-1.1-3.4-2.7-3.4a4.2,4.2,0,0,0-2.1.5Z"/><path class="a" d="M246.9,170.4h-3.2l-.8-1.1a5.2,5.2,0,0,1-3.6,1.3c-3.7,0-4.8-2.1-4.8-4.4v-8.6h4.2v8c0,1.3.6,1.9,1.8,1.9a3.7,3.7,0,0,0,2.1-.7v-9.2h4.3Z"/><path class="a" d="M249.8,157.6H253l.8,1.1a6.2,6.2,0,0,1,3.9-1.3c3.3,0,4.7,1.7,4.7,4.5v8.5h-4.3v-8c0-1.3-.6-1.9-1.8-1.9a3.4,3.4,0,0,0-2.2.7v9.2h-4.3Z"/><path class="a" d="M269.7,154.2c0,1.2-.8,2-2.3,2s-2.2-.8-2.2-2,.6-2,2.2-2S269.7,152.9,269.7,154.2Zm-.2,12.4c0,.7.4.9,1,.9h.4l.7,2.5a5.1,5.1,0,0,1-2.7.7c-2.3,0-3.7-1.3-3.7-3.5v-9.5h4.3Z"/><path class="a" d="M286,170.4h-3.3l-.8-1.1s-.9,1.3-3.4,1.3-6.1-2.1-6.1-6.5,2.9-6.7,6.9-6.7a11.4,11.4,0,0,1,2.4.3v-6.4H286Zm-4.4-9.6a4.1,4.1,0,0,0-1.9-.4c-1.6,0-2.8,1.3-2.8,3.6s1.1,3.4,2.7,3.4a3.6,3.6,0,0,0,2-.5Z"/><path class="a" d="M289.3,158.5a12.5,12.5,0,0,1,5.1-1.1c5,0,6.1,2.1,6.1,5.7v3.6a.7.7,0,0,0,.8.8h.6l.6,2.5a5.4,5.4,0,0,1-2.7.7c-1.8,0-2.8-.6-3.3-1.6a4.8,4.8,0,0,1-3.9,1.6c-1.9,0-4.1-.9-4.1-3.5s3.6-4.2,7.7-4.2c0-1.4-.6-2.2-2.4-2.2a8.1,8.1,0,0,0-3.5.7Zm6.8,6.5c-1.8.1-3.3.4-3.3,1.5a1.1,1.1,0,0,0,1.3,1.2,2.7,2.7,0,0,0,2-.8Z"/><path class="a" d="M316.9,170.4h-3.3l-.8-1.1s-.8,1.3-3.4,1.3-6-2.1-6-6.5a6.4,6.4,0,0,1,6.8-6.7,11.4,11.4,0,0,1,2.4.3v-6.4h4.3Zm-4.3-9.6a4.6,4.6,0,0,0-1.9-.4c-1.7,0-2.9,1.3-2.9,3.6s1.1,3.4,2.7,3.4a4.2,4.2,0,0,0,2.1-.5Z"/><path d="M187.8,194.8V181.5h7.9v1.4h-6.3v4.4h5.2v1.4h-5.2v4.6h6.5v1.5Z"/><path d="M197.9,193a6.6,6.6,0,0,0,2.6.6c1.6,0,2.2-.7,2.2-1.6,0-2.5-5.1-1.2-5.1-4.7,0-1.8,1.5-3,3.7-3a5.4,5.4,0,0,1,2.7.6l-.4,1.3a5.2,5.2,0,0,0-2.3-.5c-1.4,0-2.1.7-2.1,1.5,0,2.3,5.1,1,5.1,4.6,0,1.7-1.2,3.2-3.8,3.2a6.4,6.4,0,0,1-3.1-.8Z"/><path d="M211.9,194.5a4.4,4.4,0,0,1-2,.5c-1.8,0-2.8-1.1-2.8-3.3v-6h-1.8v-1.2h1.8v-2.2l1.6-.4v2.6h3.2v1.2h-3.2v6.1a1.5,1.5,0,0,0,1.6,1.7,2.5,2.5,0,0,0,1.3-.3Z"/><path d="M222.2,194.6a2.5,2.5,0,0,1-1.3.4,1.7,1.7,0,0,1-1.7-1.2A4.5,4.5,0,0,1,216,195a2.7,2.7,0,0,1-2.9-2.6c0-2.7,2.7-3.3,6.1-3.3,0-1.8,0-3.3-2.3-3.3a5.4,5.4,0,0,0-2.7.6l-.4-1.3a6.9,6.9,0,0,1,3.3-.8c3.2,0,3.7,1.7,3.7,4.6v3.6c0,.7.1,1.1.7,1.1h.4Zm-3-4.4c-2.6,0-4.4.4-4.4,2a1.5,1.5,0,0,0,1.7,1.4,3.7,3.7,0,0,0,2.7-1.1Z"/><path d="M223.9,193a7.2,7.2,0,0,0,2.7.6c1.5,0,2.2-.7,2.2-1.6,0-2.5-5.1-1.2-5.1-4.7,0-1.8,1.4-3,3.6-3a5.8,5.8,0,0,1,2.8.6l-.5,1.3a5.2,5.2,0,0,0-2.3-.5c-1.4,0-2,.7-2,1.5,0,2.3,5.1,1,5.1,4.6,0,1.7-1.3,3.2-3.9,3.2a5.7,5.7,0,0,1-3-.8Z"/><path d="M237.6,194.8V184.5h1l.5,1.4a3.8,3.8,0,0,1,3.1-1.6l.9.2-.3,1.5h-.9a3.5,3.5,0,0,0-2.7,1.3v7.6Z"/><path d="M251.6,194.1a6.2,6.2,0,0,1-3.3.9c-2.9,0-4.8-2-4.8-5.2s1.8-5.5,4.5-5.5,3.8,1.9,3.8,4.2a9.2,9.2,0,0,1-.1,1.6h-6.5c.1,1.7,1,3.4,3.4,3.4a6.2,6.2,0,0,0,2.6-.6Zm-1.4-5.1c0-.2.1-.5.1-.7a2.2,2.2,0,0,0-2.4-2.5c-1.8,0-2.6,1.6-2.6,3.2Z"/><path d="M261.2,194.2a5.4,5.4,0,0,1-3,.8c-2.5,0-4.7-1.8-4.7-5.2s2.2-5.5,5.2-5.5a5.4,5.4,0,0,1,2.5.6l-.4,1.3a4.4,4.4,0,0,0-2.1-.4c-2.1,0-3.5,1.2-3.5,4s1.6,3.7,3.3,3.7a4.1,4.1,0,0,0,2.3-.5Z"/><path d="M267.1,184.3c3.3,0,4.7,2.4,4.7,5.3S270,195,267,195s-4.7-2.4-4.7-5.4S264.2,184.3,267.1,184.3Zm0,9.2c2,0,3-1.7,3-3.9s-1-3.8-3-3.8-3.1,1.7-3.1,3.8S265,193.5,267.1,193.5Z"/><path d="M286.2,194.8v-7a1.8,1.8,0,0,0-2-2,3.7,3.7,0,0,0-2.3,1v8h-1.7v-7c0-1.5-.7-2-2-2a3.7,3.7,0,0,0-2.3,1v8h-1.7V184.5h1l.6,1a4.4,4.4,0,0,1,2.8-1.2,2.8,2.8,0,0,1,2.8,1.4,5.5,5.5,0,0,1,3.2-1.4c2.3,0,3.3,1.3,3.3,3.5v7Z"/><path d="M298.3,194.1a6.9,6.9,0,0,1-3.4.9c-2.9,0-4.8-2-4.8-5.2s1.8-5.5,4.6-5.5,3.8,1.9,3.8,4.2a10,10,0,0,1-.2,1.6h-6.4a3.1,3.1,0,0,0,3.3,3.4,6.2,6.2,0,0,0,2.6-.6Zm-1.4-5.1v-.7c0-1.5-.7-2.5-2.3-2.5s-2.7,1.6-2.7,3.2Z"/><path d="M307.3,194.8v-7c0-1.7-.8-2-2-2a4.9,4.9,0,0,0-2.7,1v8h-1.7V184.5h1l.6,1a5.2,5.2,0,0,1,3.2-1.2c2.6,0,3.3,1.5,3.3,3.5v7Z"/><path d="M318.9,194.8l-.4-1a4.5,4.5,0,0,1-2.9,1.2c-2.5,0-4.4-2.2-4.4-5.1s2-5.6,4.9-5.6a5.7,5.7,0,0,1,2.3.5v-5.3H320v15.3Zm-.5-8.5a4.2,4.2,0,0,0-2.1-.5c-2.1,0-3.3,1.4-3.3,3.9s1.2,3.8,3,3.8a3.7,3.7,0,0,0,2.4-1Z"/><path d="M331.4,194.6a2.1,2.1,0,0,1-1.2.4,1.7,1.7,0,0,1-1.7-1.2,4.5,4.5,0,0,1-3.2,1.2,2.6,2.6,0,0,1-2.9-2.6c0-2.7,2.6-3.3,6-3.3,0-1.8,0-3.3-2.3-3.3a5.3,5.3,0,0,0-2.6.6l-.4-1.3a6.6,6.6,0,0,1,3.3-.8c3.2,0,3.7,1.7,3.7,4.6v3.6c0,.7.1,1.1.7,1.1h.4Zm-3-4.4c-2.6,0-4.3.4-4.3,2a1.5,1.5,0,0,0,1.6,1.4,3.5,3.5,0,0,0,2.7-1.1Z"/><path d="M340.3,194.2a6,6,0,0,1-3,.8c-2.5,0-4.7-1.8-4.7-5.2s2.2-5.5,5.1-5.5a5.5,5.5,0,0,1,2.6.6l-.5,1.3a3.9,3.9,0,0,0-2.1-.4c-2,0-3.4,1.2-3.4,4s1.5,3.7,3.3,3.7a4.4,4.4,0,0,0,2.3-.5Z"/><path d="M343.1,182.4a1,1,0,0,1-1.1-1.1,1,1,0,0,1,1.1-1,1,1,0,0,1,1,1.1A1,1,0,0,1,343.1,182.4Zm2.1,12.2a2.6,2.6,0,0,1-1.3.4c-1.4,0-1.7-.9-1.7-2.1v-8.4h1.6v8.2c0,.5.1.9.7.9h.4Z"/><path d="M351.3,184.3c3.2,0,4.7,2.4,4.7,5.3s-1.9,5.4-4.9,5.4-4.6-2.4-4.6-5.4S348.3,184.3,351.3,184.3Zm-.1,9.2c2.1,0,3.1-1.7,3.1-3.9s-1-3.8-3.1-3.8-3.1,1.7-3.1,3.8S349.1,193.5,351.2,193.5Z"/><path d="M364.8,194.8v-7c0-1.7-.9-2-2-2a5,5,0,0,0-2.8,1v8h-1.6V184.5h1l.6,1a4.9,4.9,0,0,1,3.1-1.2c2.6,0,3.3,1.5,3.3,3.5v7Z"/><path d="M376.8,194.1a6.3,6.3,0,0,1-3.4.9c-2.9,0-4.7-2-4.7-5.2s1.8-5.5,4.5-5.5,3.8,1.9,3.8,4.2a9.2,9.2,0,0,1-.1,1.6h-6.5c.1,1.7,1,3.4,3.3,3.4a5.5,5.5,0,0,0,2.6-.6Zm-1.4-5.1v-.7c0-1.5-.7-2.5-2.3-2.5s-2.6,1.6-2.7,3.2Z"/><path d="M379.3,193a6.6,6.6,0,0,0,2.6.6c1.6,0,2.2-.7,2.2-1.6,0-2.5-5-1.2-5-4.7,0-1.8,1.4-3,3.6-3a5.4,5.4,0,0,1,2.7.6l-.4,1.3a5.2,5.2,0,0,0-2.3-.5c-1.4,0-2.1.7-2.1,1.5,0,2.3,5.2,1,5.2,4.6,0,1.7-1.3,3.2-3.9,3.2a6.4,6.4,0,0,1-3.1-.8Z"/><path d="M392.8,193a6.6,6.6,0,0,0,2.6.6c1.6,0,2.2-.7,2.2-1.6,0-2.5-5.1-1.2-5.1-4.7,0-1.8,1.5-3,3.7-3a5.4,5.4,0,0,1,2.7.6l-.4,1.3a5.2,5.2,0,0,0-2.3-.5c-1.4,0-2.1.7-2.1,1.5,0,2.3,5.1,1,5.1,4.6,0,1.7-1.2,3.2-3.8,3.2a6.4,6.4,0,0,1-3.1-.8Z"/><path d="M409,194.1a6.3,6.3,0,0,1-3.4.9c-2.9,0-4.8-2-4.8-5.2s1.9-5.5,4.6-5.5,3.8,1.9,3.8,4.2a10,10,0,0,1-.2,1.6h-6.4a3.2,3.2,0,0,0,3.3,3.4,5.9,5.9,0,0,0,2.6-.6Zm-1.4-5.1v-.7c0-1.5-.7-2.5-2.3-2.5s-2.6,1.6-2.7,3.2Z"/><path d="M423.8,194.1a6.3,6.3,0,0,1-3.4.9c-2.9,0-4.7-2-4.7-5.2s1.8-5.5,4.5-5.5,3.8,1.9,3.8,4.2a9.2,9.2,0,0,1-.1,1.6h-6.5c.1,1.7,1,3.4,3.3,3.4a5.5,5.5,0,0,0,2.6-.6Zm-1.4-5.1v-.7c0-1.5-.7-2.5-2.3-2.5s-2.6,1.6-2.7,3.2Z"/><path d="M432.9,194.8v-7c0-1.7-.9-2-2-2a5,5,0,0,0-2.8,1v8h-1.6V184.5h1l.6,1a4.9,4.9,0,0,1,3.1-1.2c2.6,0,3.3,1.5,3.3,3.5v7Z"/><path d="M438,198.9V185.7h-1.9v-1.2H438v-.4c0-2.8,1.5-4.8,4.2-4.8l1.7.2-.3,1.3h-1.3c-1.8,0-2.7,1.2-2.7,3.2v.6h2.9v1.2h-2.9v13.2Z"/><path d="M447.7,184.3c3.2,0,4.7,2.4,4.7,5.3s-1.9,5.4-4.9,5.4-4.7-2.4-4.7-5.4S444.7,184.3,447.7,184.3Zm-.1,9.2c2.1,0,3-1.7,3-3.9s-.9-3.8-3-3.8-3.1,1.7-3.1,3.8S445.5,193.5,447.6,193.5Z"/><path d="M461.7,194.2a6,6,0,0,1-3,.8c-2.5,0-4.7-1.8-4.7-5.2s2.2-5.5,5.1-5.5a5.5,5.5,0,0,1,2.6.6l-.5,1.3a3.9,3.9,0,0,0-2.1-.4c-2,0-3.4,1.2-3.4,4s1.5,3.7,3.3,3.7a4.4,4.4,0,0,0,2.3-.5Z"/><path d="M471.7,194.6a1.9,1.9,0,0,1-1.2.4,1.7,1.7,0,0,1-1.7-1.2,4.5,4.5,0,0,1-3.2,1.2,2.7,2.7,0,0,1-2.9-2.6c0-2.7,2.6-3.3,6.1-3.3,0-1.8-.1-3.3-2.3-3.3a5.4,5.4,0,0,0-2.7.6l-.4-1.3a6.6,6.6,0,0,1,3.3-.8c3.2,0,3.7,1.7,3.7,4.6v3.6c0,.7.1,1.1.7,1.1h.4Zm-2.9-4.4c-2.7,0-4.4.4-4.4,2a1.5,1.5,0,0,0,1.6,1.4,3.9,3.9,0,0,0,2.8-1.1Z"/><path d="M480.1,194.8v-7c0-1.7-.9-2-2-2a5,5,0,0,0-2.8,1v8h-1.6V184.5h1l.6,1a4.9,4.9,0,0,1,3.1-1.2c2.6,0,3.3,1.5,3.3,3.5v7Z"/><path d="M496.9,194.1a6.2,6.2,0,0,1-3.3.9c-2.9,0-4.8-2-4.8-5.2s1.8-5.5,4.5-5.5,3.8,1.9,3.8,4.2a9.2,9.2,0,0,1-.1,1.6h-6.5c.1,1.7,1,3.4,3.3,3.4a5.5,5.5,0,0,0,2.6-.6Zm-1.4-5.1v-.7c0-1.5-.7-2.5-2.3-2.5s-2.6,1.6-2.7,3.2Z"/><path d="M506,194.8v-7c0-1.7-.9-2-2-2a5,5,0,0,0-2.8,1v8h-1.6V184.5h1l.6,1a4.9,4.9,0,0,1,3.2-1.2c2.5,0,3.2,1.5,3.2,3.5v7Z"/><path d="M522.4,194.8l-.5-1a4.1,4.1,0,0,1-2.8,1.2c-2.6,0-4.4-2.2-4.4-5.1s1.9-5.6,4.9-5.6a5.7,5.7,0,0,1,2.3.5v-5.3h1.6v15.3Zm-.5-8.5a4.9,4.9,0,0,0-2.2-.5c-2,0-3.3,1.4-3.3,3.9s1.2,3.8,3,3.8a3.8,3.8,0,0,0,2.5-1Z"/><path d="M530.7,184.3c3.2,0,4.7,2.4,4.7,5.3s-1.9,5.4-4.8,5.4-4.7-2.4-4.7-5.4S527.8,184.3,530.7,184.3Zm-.1,9.2c2.1,0,3.1-1.7,3.1-3.9s-1-3.8-3.1-3.8-3,1.7-3,3.8S528.5,193.5,530.6,193.5Z"/><path d="M537.6,193a7.2,7.2,0,0,0,2.7.6c1.6,0,2.2-.7,2.2-1.6,0-2.5-5.1-1.2-5.1-4.7,0-1.8,1.4-3,3.6-3a5.8,5.8,0,0,1,2.8.6l-.5,1.3a5.2,5.2,0,0,0-2.3-.5c-1.4,0-2,.7-2,1.5,0,2.3,5.1,1,5.1,4.6,0,1.7-1.2,3.2-3.9,3.2a5.7,5.7,0,0,1-3-.8Z"/><path d="M195.8,219a2.1,2.1,0,0,1-1.2.4,1.7,1.7,0,0,1-1.7-1.2,4.5,4.5,0,0,1-3.2,1.2,2.6,2.6,0,0,1-2.9-2.6c0-2.7,2.6-3.3,6-3.3,0-1.8,0-3.3-2.3-3.3a5.3,5.3,0,0,0-2.6.6l-.4-1.3a6.6,6.6,0,0,1,3.3-.8c3.2,0,3.7,1.7,3.7,4.5v3.7c0,.7.1,1.1.7,1.1h.4Zm-3-4.4c-2.6,0-4.3.4-4.3,2a1.5,1.5,0,0,0,1.6,1.4,3.5,3.5,0,0,0,2.7-1.1Z"/><path d="M197.6,217.3a5.3,5.3,0,0,0,2.6.7c1.6,0,2.2-.8,2.2-1.6,0-2.5-5.1-1.2-5.1-4.7,0-1.8,1.5-3,3.7-3a5.4,5.4,0,0,1,2.7.6l-.4,1.3a5.2,5.2,0,0,0-2.3-.5c-1.4,0-2.1.6-2.1,1.5s5.1,1,5.1,4.6c0,1.7-1.2,3.2-3.8,3.2a6.4,6.4,0,0,1-3.1-.8Z"/><path d="M206.4,223.3V208.9h1.2l.4,1a4.5,4.5,0,0,1,2.9-1.2c2.7,0,4.3,2.2,4.3,5.1s-1.9,5.6-4.8,5.6a5.7,5.7,0,0,1-2.3-.5v4.4Zm1.7-5.9a4.2,4.2,0,0,0,2.1.5c2.1,0,3.3-1.5,3.3-3.9s-1.2-3.8-3-3.8a3.9,3.9,0,0,0-2.4.9Z"/><path d="M225,218.4a5.5,5.5,0,0,1-3.4,1c-2.9,0-4.8-2.1-4.8-5.2s1.9-5.5,4.6-5.5,3.8,1.9,3.8,4.2a10,10,0,0,1-.2,1.6h-6.4a3.2,3.2,0,0,0,3.3,3.4,5.9,5.9,0,0,0,2.6-.6Zm-1.4-5v-.7c0-1.5-.7-2.5-2.3-2.5s-2.6,1.6-2.7,3.2Z"/><path d="M234.6,218.6a6,6,0,0,1-3,.8c-2.5,0-4.7-1.8-4.7-5.2s2.2-5.5,5.1-5.5a5.5,5.5,0,0,1,2.6.6l-.5,1.3a3.9,3.9,0,0,0-2.1-.4c-2,0-3.4,1.2-3.4,4s1.5,3.7,3.3,3.7a4.4,4.4,0,0,0,2.3-.5Z"/><path d="M242,218.9a5.3,5.3,0,0,1-2,.5c-1.8,0-2.9-1.1-2.9-3.3v-6h-1.8v-1.2h1.8v-2.2l1.7-.4v2.6h3.1v1.2h-3.1v6c0,1.3.6,1.8,1.5,1.8a2.6,2.6,0,0,0,1.4-.3Z"/><path d="M248,208.7c3.3,0,4.7,2.4,4.7,5.3s-1.8,5.4-4.8,5.4-4.7-2.4-4.7-5.4S245.1,208.7,248,208.7Zm-.1,9.2c2.1,0,3.1-1.7,3.1-3.9s-1-3.8-3.1-3.8-3,1.7-3,3.8S245.9,217.9,247.9,217.9Z"/><path d="M254.9,217.3a5.7,5.7,0,0,0,2.7.7c1.6,0,2.2-.8,2.2-1.6,0-2.5-5.1-1.2-5.1-4.7,0-1.8,1.4-3,3.6-3a5.5,5.5,0,0,1,2.8.6l-.5,1.3a4.8,4.8,0,0,0-2.2-.5c-1.5,0-2.1.6-2.1,1.5s5.1,1,5.1,4.6c0,1.7-1.2,3.2-3.9,3.2a6,6,0,0,1-3-.8Z"/><path d="M275.5,218.6a5.4,5.4,0,0,1-3,.8c-2.5,0-4.7-1.8-4.7-5.2s2.2-5.5,5.2-5.5a5.4,5.4,0,0,1,2.5.6l-.4,1.3a4.4,4.4,0,0,0-2.1-.4c-2.1,0-3.5,1.2-3.5,4s1.6,3.7,3.3,3.7a4.1,4.1,0,0,0,2.3-.5Z"/><path d="M277.4,219.2V208.9h1l.5,1.4a3.8,3.8,0,0,1,3.1-1.6l.9.2-.3,1.5h-.9a3.5,3.5,0,0,0-2.7,1.3v7.6Z"/><path d="M284.3,207.1l1.9-3H288l-2.3,3Zm3.2,11.9a2.1,2.1,0,0,1-1.2.4c-1.4,0-1.8-1-1.8-2.1v-8.4h1.7v8.2c0,.5,0,.9.7.9h.3Z"/><path d="M294.8,218.9a4.8,4.8,0,0,1-2,.5c-1.8,0-2.9-1.1-2.9-3.3v-6h-1.8v-1.2h1.8v-2.2l1.7-.4v2.6h3.2v1.2h-3.2v6c0,1.3.6,1.8,1.6,1.8a2.5,2.5,0,0,0,1.3-.3Z"/><path d="M297.7,206.8a1,1,0,0,1-1-1.1,1.1,1.1,0,0,1,2.1.1A1,1,0,0,1,297.7,206.8Zm2.1,12.2a2.1,2.1,0,0,1-1.2.4c-1.4,0-1.8-1-1.8-2.1v-8.4h1.7v8.2c0,.5.1.9.7.9h.4Z"/><path d="M308.8,218.6a5.4,5.4,0,0,1-3,.8c-2.5,0-4.7-1.8-4.7-5.2s2.2-5.5,5.2-5.5a5.4,5.4,0,0,1,2.5.6l-.4,1.3a4.4,4.4,0,0,0-2.1-.4c-2.1,0-3.5,1.2-3.5,4s1.6,3.7,3.3,3.7a4.1,4.1,0,0,0,2.3-.5Z"/><path d="M314.7,208.7c3.3,0,4.7,2.4,4.7,5.3s-1.8,5.4-4.8,5.4-4.7-2.4-4.7-5.4S311.8,208.7,314.7,208.7Zm0,9.2c2.1,0,3-1.7,3-3.9s-.9-3.8-3-3.8-3.1,1.7-3.1,3.8S312.6,217.9,314.7,217.9Z"/><path d="M321.7,217.3a5,5,0,0,0,2.6.7c1.6,0,2.2-.8,2.2-1.6,0-2.5-5.1-1.2-5.1-4.7,0-1.8,1.4-3,3.6-3a5.5,5.5,0,0,1,2.8.6l-.5,1.3a4.8,4.8,0,0,0-2.2-.5c-1.5,0-2.1.6-2.1,1.5s5.1,1,5.1,4.6c0,1.7-1.2,3.2-3.9,3.2a6.3,6.3,0,0,1-3-.8Z"/><path d="M342.2,219.2l-.5-1a4.1,4.1,0,0,1-2.8,1.2c-2.6,0-4.4-2.2-4.4-5.1s2-5.6,4.9-5.6a5.7,5.7,0,0,1,2.3.5v-5.3h1.6v15.3Zm-.5-8.6a5.9,5.9,0,0,0-2.2-.4c-2,0-3.3,1.4-3.3,3.9s1.3,3.8,3,3.8a3.8,3.8,0,0,0,2.5-1Z"/><path d="M353.8,218.4a5.4,5.4,0,0,1-3.3,1c-2.9,0-4.8-2.1-4.8-5.2s1.8-5.5,4.6-5.5,3.8,1.9,3.8,4.2a10,10,0,0,1-.2,1.6h-6.4a3.2,3.2,0,0,0,3.3,3.4,6.2,6.2,0,0,0,2.6-.6Zm-1.4-5a1.7,1.7,0,0,0,.1-.7c0-1.5-.7-2.5-2.3-2.5s-2.7,1.6-2.7,3.2Z"/><path d="M364.3,219a2.1,2.1,0,0,1-1.2.4c-1.4,0-1.8-1-1.8-2.1V203.9H363v13.2c0,.5.1.9.7.9h.4Z"/><path d="M374.6,219a2.1,2.1,0,0,1-1.2.4,1.8,1.8,0,0,1-1.8-1.2,4.4,4.4,0,0,1-3.1,1.2,2.6,2.6,0,0,1-2.9-2.6c0-2.7,2.6-3.3,6-3.3,0-1.8,0-3.3-2.3-3.3a5.7,5.7,0,0,0-2.7.6l-.4-1.3a7.4,7.4,0,0,1,3.4-.8c3.1,0,3.7,1.7,3.7,4.5v3.7c0,.7,0,1.1.7,1.1h.3Zm-3-4.4c-2.6,0-4.4.4-4.4,2a1.6,1.6,0,0,0,1.7,1.4,3.7,3.7,0,0,0,2.7-1.1Z"/><path d="M389.5,219a2.1,2.1,0,0,1-1.2.4,1.7,1.7,0,0,1-1.7-1.2,4.9,4.9,0,0,1-3.2,1.2,2.6,2.6,0,0,1-2.9-2.6c0-2.7,2.6-3.3,6-3.3,0-1.8,0-3.3-2.3-3.3a5,5,0,0,0-2.6.6l-.5-1.3a7.4,7.4,0,0,1,3.4-.8c3.2,0,3.7,1.7,3.7,4.5v3.7c0,.7.1,1.1.7,1.1h.4Zm-3-4.4c-2.6,0-4.3.4-4.3,2a1.5,1.5,0,0,0,1.6,1.4,3.5,3.5,0,0,0,2.7-1.1Z"/><path d="M398.3,219.2l-.4-1a4.5,4.5,0,0,1-2.9,1.2c-2.5,0-4.3-2.2-4.3-5.1s1.9-5.6,4.8-5.6a5.7,5.7,0,0,1,2.3.5v-5.3h1.7v15.3Zm-.5-8.6a5.1,5.1,0,0,0-2.1-.4c-2.1,0-3.3,1.4-3.3,3.9s1.2,3.8,3,3.8a3.7,3.7,0,0,0,2.4-1Z"/><path d="M414.6,219.2v-7c0-1.4-.6-2-2-2a3.7,3.7,0,0,0-2.3,1v8h-1.7v-7c0-1.5-.7-2-2-2a3.7,3.7,0,0,0-2.3,1v8h-1.6V208.9h.9l.7,1a4,4,0,0,1,2.7-1.2,3,3,0,0,1,2.9,1.4,5,5,0,0,1,3.1-1.4c2.3,0,3.3,1.3,3.3,3.5v7Z"/><path d="M420.2,206.8a1,1,0,0,1-1-1.1,1.1,1.1,0,0,1,2.1.1A1,1,0,0,1,420.2,206.8Zm2.1,12.2a2.1,2.1,0,0,1-1.2.4c-1.4,0-1.8-1-1.8-2.1v-8.4H421v8.2c0,.5.1.9.7.9h.4Z"/><path d="M430.8,219.2v-7c0-1.7-.9-2-2-2a4.4,4.4,0,0,0-2.7,1v8h-1.7V208.9h1l.6,1a4.9,4.9,0,0,1,3.2-1.2c2.6,0,3.3,1.5,3.3,3.5v7Z"/><path d="M436.4,206.8a1,1,0,0,1-1-1.1,1.1,1.1,0,0,1,2.1.1A1,1,0,0,1,436.4,206.8Zm2.1,12.2a2.1,2.1,0,0,1-1.2.4c-1.4,0-1.8-1-1.8-2.1v-8.4h1.7v8.2c0,.5,0,.9.7.9h.3Z"/><path d="M440.4,217.3a5.7,5.7,0,0,0,2.7.7c1.5,0,2.2-.8,2.2-1.6,0-2.5-5.1-1.2-5.1-4.7,0-1.8,1.4-3,3.6-3a6.1,6.1,0,0,1,2.8.6l-.5,1.3a5.2,5.2,0,0,0-2.3-.5c-1.4,0-2,.6-2,1.5s5.1,1,5.1,4.6c0,1.7-1.3,3.2-3.9,3.2a5.7,5.7,0,0,1-3-.8Z"/><path d="M454.5,218.9a5.3,5.3,0,0,1-2,.5c-1.8,0-2.9-1.1-2.9-3.3v-6h-1.8v-1.2h1.8v-2.2l1.7-.4v2.6h3.1v1.2h-3.1v6c0,1.3.6,1.8,1.5,1.8a2.6,2.6,0,0,0,1.4-.3Z"/><path d="M456.5,219.2V208.9h1l.5,1.4a3.8,3.8,0,0,1,3.1-1.6l.9.2-.3,1.5h-.9a3.1,3.1,0,0,0-2.6,1.3v7.6Z"/><path d="M471.2,219a2.1,2.1,0,0,1-1.2.4,1.9,1.9,0,0,1-1.8-1.2,4.4,4.4,0,0,1-3.1,1.2,2.6,2.6,0,0,1-2.9-2.6c0-2.7,2.6-3.3,6-3.3,0-1.8,0-3.3-2.3-3.3a5.7,5.7,0,0,0-2.7.6l-.4-1.3a7.4,7.4,0,0,1,3.4-.8c3.1,0,3.7,1.7,3.7,4.5v3.7c0,.7.1,1.1.7,1.1h.3Zm-3-4.4c-2.6,0-4.3.4-4.3,2a1.5,1.5,0,0,0,1.6,1.4,3.5,3.5,0,0,0,2.7-1.1Z"/><path d="M480.1,218.6a6,6,0,0,1-3,.8c-2.6,0-4.7-1.8-4.7-5.2s2.1-5.5,5.1-5.5a5.5,5.5,0,0,1,2.6.6l-.5,1.3a3.9,3.9,0,0,0-2.1-.4c-2,0-3.4,1.2-3.4,4s1.5,3.7,3.3,3.7a4.6,4.6,0,0,0,2.3-.5Z"/><path d="M482.8,206.8a1,1,0,0,1-1-1.1,1.1,1.1,0,1,1,2.1.1A1,1,0,0,1,482.8,206.8Zm2.1,12.2a2.1,2.1,0,0,1-1.2.4c-1.4,0-1.8-1-1.8-2.1v-8.4h1.7v8.2c0,.5.1.9.7.9h.4Z"/><path d="M491,208.7c3.3,0,4.7,2.4,4.7,5.3s-1.8,5.4-4.8,5.4-4.7-2.4-4.7-5.4S488.1,208.7,491,208.7Zm0,9.2c2.1,0,3-1.7,3-3.9s-.9-3.8-3-3.8-3.1,1.7-3.1,3.8S488.9,217.9,491,217.9Zm-1.7-10.8,1.8-3H493l-2.4,3Z"/><path d="M504.5,219.2v-7c0-1.7-.8-2-2-2a4.9,4.9,0,0,0-2.7,1v8h-1.7V208.9h1l.7,1a4.6,4.6,0,0,1,3.1-1.2c2.6,0,3.3,1.5,3.3,3.5v7Z"/><path d="M520.9,219.2l-.4-1a4.5,4.5,0,0,1-2.9,1.2c-2.5,0-4.4-2.2-4.4-5.1s2-5.6,4.9-5.6a5.7,5.7,0,0,1,2.3.5v-5.3H522v15.3Zm-.5-8.6a5.1,5.1,0,0,0-2.1-.4c-2.1,0-3.3,1.4-3.3,3.9s1.2,3.8,3,3.8a3.7,3.7,0,0,0,2.4-1Z"/><path d="M532.6,218.4a5.7,5.7,0,0,1-3.4,1c-2.9,0-4.8-2.1-4.8-5.2s1.9-5.5,4.6-5.5,3.8,1.9,3.8,4.2a10,10,0,0,1-.2,1.6h-6.4a3.2,3.2,0,0,0,3.3,3.4,5.9,5.9,0,0,0,2.6-.6Zm-1.4-5v-.7c0-1.5-.7-2.5-2.3-2.5s-2.6,1.6-2.7,3.2Z"/><path d="M184.9,246.3h.8c1.1,0,1.9-.5,1.9-2V233.3h1.7v10.9c0,2.4-1.4,3.7-3.3,3.7a3.7,3.7,0,0,1-1.4-.3Zm3.6-15.1a1,1,0,0,1-1.1-1.1,1,1,0,0,1,1.1-1c.6,0,1,.3,1,1.1A1,1,0,0,1,188.5,231.2Z"/><path d="M199.3,243.5l-.6-.9a4.4,4.4,0,0,1-2.9,1.2c-2.5,0-3.3-1.7-3.3-3.7v-6.8h1.6v6.8c0,1.7.9,2.2,2,2.2a4.1,4.1,0,0,0,2.6-1v-8h1.6v10.2Z"/><path d="M203.3,241.7a5.7,5.7,0,0,0,2.7.7c1.6,0,2.2-.8,2.2-1.6,0-2.5-5.1-1.2-5.1-4.7,0-1.8,1.4-3,3.6-3a5.8,5.8,0,0,1,2.8.6L209,235a4.9,4.9,0,0,0-2.3-.5c-1.4,0-2,.6-2,1.4s5.1,1.1,5.1,4.7c0,1.6-1.2,3.2-3.9,3.2a6,6,0,0,1-3-.8Z"/><path d="M217.4,243.3a5.3,5.3,0,0,1-2,.5c-1.8,0-2.9-1.1-2.9-3.3v-6h-1.8v-1.2h1.8v-2.2l1.7-.4v2.6h3.2v1.2h-3.2v6c0,1.3.6,1.8,1.6,1.8a2.5,2.5,0,0,0,1.3-.3Z"/><path d="M220.3,231.2a1,1,0,0,1-1-1.1,1,1,0,0,1,1-1,1,1,0,0,1,1.1,1.1A1,1,0,0,1,220.3,231.2Zm2.1,12.2a2.1,2.1,0,0,1-1.2.4c-1.4,0-1.8-1-1.8-2.1v-8.4h1.7v8.2c0,.4.1.9.7.9h.4Z"/><path d="M231.4,243a5.4,5.4,0,0,1-3,.8c-2.5,0-4.7-1.8-4.7-5.2s2.2-5.5,5.2-5.5a5.4,5.4,0,0,1,2.5.6L231,235a4.3,4.3,0,0,0-2.1-.5c-2.1,0-3.5,1.3-3.5,4.1a3.4,3.4,0,0,0,3.3,3.7,4.1,4.1,0,0,0,2.3-.5Z"/><path d="M234.2,231.2a1,1,0,0,1-1-1.1,1,1,0,0,1,1-1,1,1,0,0,1,1.1,1.1A1,1,0,0,1,234.2,231.2Zm2.1,12.2a2.1,2.1,0,0,1-1.2.4c-1.4,0-1.8-1-1.8-2.1v-8.4H235v8.2c0,.4,0,.9.7.9h.3Z"/><path d="M246.6,243.4a2.2,2.2,0,0,1-1.3.4,1.7,1.7,0,0,1-1.7-1.2,4.5,4.5,0,0,1-3.2,1.2,2.7,2.7,0,0,1-2.9-2.6c0-2.7,2.7-3.3,6.1-3.3,0-1.8,0-3.4-2.3-3.4a5.4,5.4,0,0,0-2.7.7l-.4-1.3a6.9,6.9,0,0,1,3.3-.8c3.2,0,3.7,1.7,3.7,4.5v3.7c0,.7.1,1.1.8,1.1h.3Zm-3-4.4c-2.6,0-4.4.4-4.4,1.9a1.6,1.6,0,0,0,1.7,1.5,3.7,3.7,0,0,0,2.7-1.1Z"/><path d="M249.5,235.2a1,1,0,0,1-1.1-1,1,1,0,0,1,1.1-1.1,1,1,0,0,1,1,1.1A1,1,0,0,1,249.5,235.2Zm0,8.6a1.1,1.1,0,1,1,0-2.2c.6,0,1,.4,1,1.2A1,1,0,0,1,249.5,243.8Z"/><path d="M258.3,241.7a5,5,0,0,0,2.6.7c1.6,0,2.2-.8,2.2-1.6,0-2.5-5.1-1.2-5.1-4.7,0-1.8,1.4-3,3.6-3a5.5,5.5,0,0,1,2.8.6l-.5,1.3a4.8,4.8,0,0,0-2.2-.5c-1.5,0-2.1.6-2.1,1.4s5.1,1.1,5.1,4.7c0,1.6-1.2,3.2-3.9,3.2a6.3,6.3,0,0,1-3-.8Z"/><path d="M274,243.5l-.6-.9a4.6,4.6,0,0,1-3,1.2c-2.4,0-3.3-1.7-3.3-3.7v-6.8h1.7v6.8c0,1.7.8,2.2,2,2.2a3.8,3.8,0,0,0,2.5-1v-8H275v10.2Z"/><path d="M278.2,247.7V233.3h1.1l.4,1a4.5,4.5,0,0,1,2.9-1.2c2.7,0,4.4,2.2,4.4,5.1s-2,5.6-4.9,5.6a4.9,4.9,0,0,1-2.3-.6v4.5Zm1.6-5.9a4.2,4.2,0,0,0,2.1.5c2.1,0,3.3-1.5,3.3-3.9s-1.2-3.9-3-3.9a3.7,3.7,0,0,0-2.4,1Z"/><path d="M296.7,242.8a5.5,5.5,0,0,1-3.4,1c-2.9,0-4.7-2.1-4.7-5.2s1.8-5.5,4.5-5.5,3.8,1.9,3.8,4.1a5,5,0,0,1-.2,1.7h-6.4a3.2,3.2,0,0,0,3.3,3.4,5.5,5.5,0,0,0,2.6-.6Zm-1.4-5v-.7c0-1.5-.7-2.5-2.3-2.5s-2.6,1.6-2.7,3.2Z"/><path d="M299.4,243.5V233.3h1l.5,1.4a3.6,3.6,0,0,1,3-1.6,1.6,1.6,0,0,1,1,.2l-.3,1.5-.9-.2A3.6,3.6,0,0,0,301,236v7.5Z"/><path d="M314.1,243.4a2.5,2.5,0,0,1-1.3.4,1.7,1.7,0,0,1-1.7-1.2,4.5,4.5,0,0,1-3.2,1.2,2.7,2.7,0,0,1-2.9-2.6c0-2.7,2.7-3.3,6.1-3.3,0-1.8,0-3.4-2.3-3.4a5.4,5.4,0,0,0-2.7.7l-.4-1.3a6.6,6.6,0,0,1,3.3-.8c3.2,0,3.7,1.7,3.7,4.5v3.7c0,.7.1,1.1.7,1.1h.4Zm-3-4.4c-2.6,0-4.4.4-4.4,1.9a1.5,1.5,0,0,0,1.7,1.5,3.7,3.7,0,0,0,2.7-1.1Z"/><path d="M316,243.5V233.3h1l.5,1.4a3.8,3.8,0,0,1,3.1-1.6,1.5,1.5,0,0,1,.9.2l-.3,1.5-.9-.2a3.6,3.6,0,0,0-2.7,1.4v7.5Z"/><path d="M330.9,243.4a2.1,2.1,0,0,1-1.2.4c-1.4,0-1.8-1-1.8-2.1V228.3h1.7v13.2c0,.4,0,.9.7.9h.3Z"/><path d="M341.2,243.4a2.2,2.2,0,0,1-1.3.4,1.7,1.7,0,0,1-1.7-1.2,4.5,4.5,0,0,1-3.2,1.2,2.7,2.7,0,0,1-2.9-2.6c0-2.7,2.7-3.3,6.1-3.3,0-1.8,0-3.4-2.3-3.4a5.4,5.4,0,0,0-2.7.7l-.4-1.3a6.9,6.9,0,0,1,3.3-.8c3.2,0,3.7,1.7,3.7,4.5v3.7c0,.7.1,1.1.8,1.1h.3Zm-3-4.4c-2.6,0-4.4.4-4.4,1.9a1.6,1.6,0,0,0,1.7,1.5,3.7,3.7,0,0,0,2.7-1.1Z"/><path d="M348.8,231.2a1,1,0,0,1-1-1.1,1,1,0,0,1,1-1,1,1,0,0,1,1.1,1.1A1,1,0,0,1,348.8,231.2Zm2.1,12.2a2.1,2.1,0,0,1-1.2.4c-1.4,0-1.8-1-1.8-2.1v-8.4h1.7v8.2c0,.4,0,.9.7.9h.3Z"/><path d="M365,243.5v-6.9a1.8,1.8,0,0,0-2-2.1,3.6,3.6,0,0,0-2.4,1.1v7.9H359v-6.9c0-1.5-.7-2.1-2-2.1a3.9,3.9,0,0,0-2.4,1.1v7.9H353V233.3h1l.6,1a4,4,0,0,1,2.7-1.2c1.9,0,2.6.8,2.9,1.3a5.2,5.2,0,0,1,3.1-1.3c2.3,0,3.3,1.3,3.3,3.5v6.9Z"/><path d="M369.7,247.7V233.3h1.1l.5,1a4.1,4.1,0,0,1,2.8-1.2c2.7,0,4.4,2.2,4.4,5.1s-2,5.6-4.9,5.6a4.9,4.9,0,0,1-2.3-.6v4.5Zm1.6-5.9a4.9,4.9,0,0,0,2.2.5c2,0,3.3-1.5,3.3-3.9s-1.3-3.9-3-3.9a4.2,4.2,0,0,0-2.5,1Z"/><path d="M387.7,243.5l-.6-.9a4.1,4.1,0,0,1-2.9,1.2c-2.5,0-3.3-1.7-3.3-3.7v-6.8h1.6v6.8c0,1.7.9,2.2,2,2.2a4.1,4.1,0,0,0,2.6-1v-8h1.6v10.2Z"/><path d="M398.3,243.5v-6.9c0-1.7-.9-2.1-2-2.1a4.4,4.4,0,0,0-2.7,1.1v7.9h-1.7V233.3h1l.6,1a4.9,4.9,0,0,1,3.2-1.2c2.6,0,3.3,1.5,3.3,3.5v6.9Z"/><path d="M403.9,231.2a1,1,0,0,1-1-1.1,1,1,0,0,1,1-1,1,1,0,0,1,1.1,1.1A1,1,0,0,1,403.9,231.2Zm2.1,12.2a2.1,2.1,0,0,1-1.2.4c-1.4,0-1.8-1-1.8-2.1v-8.4h1.7v8.2c0,.4,0,.9.7.9h.3Z"/><path d="M415,243.5l-.5-.9a4.1,4.1,0,0,1-2.8,1.2c-2.6,0-4.4-2.2-4.4-5.1s2-5.6,4.9-5.6a5.7,5.7,0,0,1,2.3.5v-5.3h1.6v15.2Zm-.5-8.5a4.9,4.9,0,0,0-2.2-.5c-2,0-3.3,1.5-3.3,4s1.3,3.8,3,3.8a3.8,3.8,0,0,0,2.5-1Z"/><path d="M427.5,243.4a2.2,2.2,0,0,1-1.3.4,1.7,1.7,0,0,1-1.7-1.2,4.4,4.4,0,0,1-3.1,1.2c-1.7,0-3-1-3-2.6s2.7-3.3,6.1-3.3c0-1.8,0-3.4-2.3-3.4a5.4,5.4,0,0,0-2.7.7l-.4-1.3a6.9,6.9,0,0,1,3.3-.8c3.2,0,3.7,1.7,3.7,4.5v3.7c0,.7.1,1.1.8,1.1h.3Zm-3-4.4c-2.6,0-4.4.4-4.4,1.9a1.6,1.6,0,0,0,1.7,1.5,3.7,3.7,0,0,0,2.7-1.1Z"/><path d="M436.3,243.5l-.5-.9a4.1,4.1,0,0,1-2.8,1.2c-2.6,0-4.4-2.2-4.4-5.1s2-5.6,4.9-5.6a5.7,5.7,0,0,1,2.3.5v-5.3h1.6v15.2Zm-.5-8.5a4.9,4.9,0,0,0-2.2-.5c-2,0-3.2,1.5-3.2,4s1.2,3.8,2.9,3.8a3.8,3.8,0,0,0,2.5-1Z"/><path d="M443.8,233.3h1.8l3.3,8.5,2.8-8.5h1.7l-4.2,11.5c-.6,1.5-1.6,2.9-3.7,2.9a3,3,0,0,1-1.8-.6l.5-1.2a2.5,2.5,0,0,0,1.3.3c1.5,0,2.1-1,2.6-2.5Z"/><path d="M471.7,243.5v-6.9a1.8,1.8,0,0,0-2-2.1,3.5,3.5,0,0,0-2.3,1.1v7.9h-1.7v-6.9c0-1.5-.7-2.1-2-2.1a3.5,3.5,0,0,0-2.3,1.1v7.9h-1.7V233.3h1l.7,1a4,4,0,0,1,2.7-1.2,3.1,3.1,0,0,1,2.9,1.3,5.2,5.2,0,0,1,3.1-1.3c2.3,0,3.3,1.3,3.3,3.5v6.9Z"/><path d="M483.8,242.8a5.7,5.7,0,0,1-3.4,1c-2.9,0-4.8-2.1-4.8-5.2s1.9-5.5,4.6-5.5,3.8,1.9,3.8,4.1a9.9,9.9,0,0,1-.2,1.7h-6.4a3.2,3.2,0,0,0,3.3,3.4,5.9,5.9,0,0,0,2.6-.6Zm-1.4-5v-.7c0-1.5-.7-2.5-2.3-2.5s-2.6,1.6-2.7,3.2Z"/><path d="M483.7,246.3h.9a1.8,1.8,0,0,0,1.9-2V233.3h1.6v10.9c0,2.4-1.3,3.7-3.3,3.7a3.7,3.7,0,0,1-1.4-.3Zm3.6-15.1a1,1,0,0,1-1-1.1.9.9,0,0,1,1-1c.6,0,1,.3,1,1.1A1,1,0,0,1,487.3,231.2Z"/><path d="M495.3,233.1c3.3,0,4.7,2.4,4.7,5.3s-1.9,5.4-4.8,5.4-4.7-2.4-4.7-5.4S492.4,233.1,495.3,233.1Zm-.1,9.2c2.1,0,3.1-1.7,3.1-3.9s-1-3.9-3.1-3.9-3,1.8-3,3.9S493.1,242.3,495.2,242.3Z"/><path d="M502.4,243.5V233.3h1l.5,1.4a3.8,3.8,0,0,1,3.1-1.6,1.5,1.5,0,0,1,.9.2l-.3,1.5-.9-.2a3.2,3.2,0,0,0-2.6,1.4v7.5Z"/><path d="M517.1,243.4a2.1,2.1,0,0,1-1.2.4,1.9,1.9,0,0,1-1.8-1.2,4.4,4.4,0,0,1-3.1,1.2,2.6,2.6,0,0,1-2.9-2.6c0-2.7,2.6-3.3,6-3.3,0-1.8,0-3.4-2.3-3.4a5.7,5.7,0,0,0-2.7.7l-.4-1.3a7.4,7.4,0,0,1,3.4-.8c3.1,0,3.7,1.7,3.7,4.5v3.7c0,.7,0,1.1.7,1.1h.3Zm-3-4.4c-2.6,0-4.3.4-4.3,1.9a1.5,1.5,0,0,0,1.6,1.5,3.5,3.5,0,0,0,2.7-1.1Z"/><path d="M519,243.5V233.3h1l.5,1.4a3.8,3.8,0,0,1,3.1-1.6,1.5,1.5,0,0,1,.9.2l-.3,1.5-.8-.2a3.4,3.4,0,0,0-2.7,1.4v7.5Z"/><path d="M538.3,242.8a5.5,5.5,0,0,1-3.4,1c-2.9,0-4.7-2.1-4.7-5.2s1.8-5.5,4.5-5.5,3.8,1.9,3.8,4.1a9.7,9.7,0,0,1-.1,1.7h-6.5a3.2,3.2,0,0,0,3.3,3.4,5.5,5.5,0,0,0,2.6-.6Zm-1.4-5v-.7c0-1.5-.7-2.5-2.3-2.5s-2.6,1.6-2.7,3.2Z"/><path d="M544,243.4a2.2,2.2,0,0,1-1.3.4c-1.3,0-1.7-1-1.7-2.1V228.3h1.6v13.2c0,.4.1.9.7.9h.4Z"/><path d="M195.8,267.8a2.1,2.1,0,0,1-1.2.3,1.6,1.6,0,0,1-1.7-1.1,4.5,4.5,0,0,1-3.2,1.1c-1.7,0-2.9-.9-2.9-2.6s2.6-3.2,6-3.2c0-1.8,0-3.4-2.3-3.4a6.6,6.6,0,0,0-2.6.6l-.4-1.2a6.6,6.6,0,0,1,3.3-.8c3.2,0,3.7,1.7,3.7,4.5v3.7c0,.7.1,1.1.7,1.1h.4Zm-3-4.4c-2.6,0-4.3.4-4.3,1.9a1.5,1.5,0,0,0,1.6,1.5,3.5,3.5,0,0,0,2.7-1.1Z"/><path d="M204.7,267.4a6,6,0,0,1-3,.7c-2.5,0-4.7-1.7-4.7-5.1s2.2-5.5,5.1-5.5a5.5,5.5,0,0,1,2.6.6l-.5,1.3a3.8,3.8,0,0,0-2.1-.5c-2,0-3.4,1.3-3.4,4.1s1.5,3.7,3.3,3.7a4.4,4.4,0,0,0,2.3-.5Z"/><path d="M213.5,267.4a6,6,0,0,1-3,.7c-2.5,0-4.7-1.7-4.7-5.1s2.2-5.5,5.1-5.5a5.5,5.5,0,0,1,2.6.6l-.5,1.3a3.8,3.8,0,0,0-2.1-.5c-2,0-3.4,1.3-3.4,4.1s1.5,3.7,3.3,3.7a4.4,4.4,0,0,0,2.3-.5Z"/><path d="M222.7,267.2a5.5,5.5,0,0,1-3.4.9c-2.9,0-4.7-2-4.7-5.1s1.8-5.5,4.5-5.5,3.8,1.9,3.8,4.1a9.7,9.7,0,0,1-.1,1.7h-6.5c.1,1.6,1,3.4,3.3,3.4a5.5,5.5,0,0,0,2.6-.6Zm-1.4-5v-.7c0-1.5-.7-2.5-2.3-2.5s-2.6,1.6-2.7,3.2Z"/><path d="M225.2,266.1a5.3,5.3,0,0,0,2.6.7c1.6,0,2.2-.8,2.2-1.6,0-2.5-5-1.2-5-4.7,0-1.8,1.4-3,3.6-3a5.4,5.4,0,0,1,2.7.6l-.4,1.2a7.3,7.3,0,0,0-2.3-.4c-1.4,0-2.1.6-2.1,1.4,0,2.3,5.2,1.1,5.2,4.7,0,1.6-1.3,3.1-3.9,3.1a6.5,6.5,0,0,1-3.1-.7Z"/><path d="M238.1,257.5c3.2,0,4.7,2.4,4.7,5.3s-1.9,5.3-4.8,5.3-4.7-2.3-4.7-5.3S235.1,257.5,238.1,257.5Zm-.1,9.2c2.1,0,3.1-1.7,3.1-3.9s-1-3.9-3.1-3.9-3,1.8-3,3.9S235.9,266.7,238,266.7Z"/><path d="M258.2,267.8a2.5,2.5,0,0,1-1.3.3,1.7,1.7,0,0,1-1.7-1.1,4.5,4.5,0,0,1-3.2,1.1,2.6,2.6,0,0,1-2.9-2.6c0-2.6,2.7-3.2,6.1-3.2,0-1.8,0-3.4-2.3-3.4a6.7,6.7,0,0,0-2.7.6l-.4-1.2a6.6,6.6,0,0,1,3.3-.8c3.2,0,3.7,1.7,3.7,4.5v3.7c0,.7.1,1.1.7,1.1h.4Zm-3-4.4c-2.6,0-4.4.4-4.4,1.9a1.5,1.5,0,0,0,1.7,1.5,3.7,3.7,0,0,0,2.7-1.1Z"/><path d="M267.9,267.8a2.7,2.7,0,0,1-1.3.3c-1.3,0-1.7-.9-1.7-2V252.7h1.6v13.2c0,.4.1.8.8.8h.3Z"/><path d="M278.2,267.8a2.5,2.5,0,0,1-1.3.3,1.7,1.7,0,0,1-1.7-1.1,4.5,4.5,0,0,1-3.2,1.1,2.6,2.6,0,0,1-2.9-2.6c0-2.6,2.7-3.2,6.1-3.2,0-1.8,0-3.4-2.3-3.4a6.7,6.7,0,0,0-2.7.6l-.4-1.2a6.6,6.6,0,0,1,3.3-.8c3.2,0,3.7,1.7,3.7,4.5v3.7c0,.7.1,1.1.7,1.1h.4Zm-3-4.4c-2.6,0-4.4.4-4.4,1.9a1.5,1.5,0,0,0,1.7,1.5,3.7,3.7,0,0,0,2.7-1.1Z"/><path d="M282.1,270.7h.9a1.8,1.8,0,0,0,1.9-2V257.7h1.6v10.9c0,2.4-1.3,3.7-3.3,3.7a3.7,3.7,0,0,1-1.4-.3Zm3.6-15.1a1,1,0,0,1-1-1.1,1,1,0,0,1,1-1,1,1,0,0,1,1.1,1.1A1,1,0,0,1,285.7,255.6Z"/><path d="M296.6,267.9l-.6-1a4.2,4.2,0,0,1-3,1.2c-2.4,0-3.3-1.6-3.3-3.6v-6.8h1.7v6.8c0,1.7.9,2.2,2,2.2a3.4,3.4,0,0,0,2.5-1.1v-7.9h1.7v10.2Z"/><path d="M300.6,266.1a5.3,5.3,0,0,0,2.6.7c1.6,0,2.2-.8,2.2-1.6,0-2.5-5.1-1.2-5.1-4.7,0-1.8,1.5-3,3.7-3a5.4,5.4,0,0,1,2.7.6l-.4,1.2a7.3,7.3,0,0,0-2.3-.4c-1.4,0-2.1.6-2.1,1.4,0,2.3,5.2,1.1,5.2,4.7,0,1.6-1.3,3.1-3.9,3.1a6.5,6.5,0,0,1-3.1-.7Z"/><path d="M314.7,267.7a5.6,5.6,0,0,1-2.1.4c-1.8,0-2.8-1-2.8-3.2v-6H308v-1.2h1.8v-2.2l1.6-.4v2.6h3.2v1.2h-3.2v6c0,1.3.7,1.8,1.6,1.8a3.2,3.2,0,0,0,1.4-.3Z"/><path d="M317.6,255.6a1,1,0,0,1-1-1.1.9.9,0,0,1,1-1,1,1,0,0,1,1.1,1.1A1.1,1.1,0,0,1,317.6,255.6Zm2.1,12.2a2.7,2.7,0,0,1-1.3.3c-1.3,0-1.7-.9-1.7-2v-8.4h1.6v8.2c0,.4.1.8.7.8h.4Z"/><path d="M328.7,267.4a5.5,5.5,0,0,1-3,.7c-2.5,0-4.7-1.7-4.7-5.1s2.2-5.5,5.1-5.5a5.5,5.5,0,0,1,2.6.6l-.5,1.3a3.8,3.8,0,0,0-2.1-.5c-2,0-3.4,1.3-3.4,4.1s1.5,3.7,3.3,3.7a4.4,4.4,0,0,0,2.3-.5Z"/><path d="M331.5,255.6a1,1,0,0,1-1-1.1.9.9,0,0,1,1-1c.6,0,1,.3,1,1.1A1,1,0,0,1,331.5,255.6Zm2.1,12.2a2.7,2.7,0,0,1-1.3.3c-1.3,0-1.7-.9-1.7-2v-8.4h1.6v8.2c0,.4.1.8.7.8h.4Z"/><path d="M343.8,267.8a1.9,1.9,0,0,1-1.2.3,1.7,1.7,0,0,1-1.7-1.1,4.5,4.5,0,0,1-3.2,1.1,2.6,2.6,0,0,1-2.9-2.6c0-2.6,2.6-3.2,6.1-3.2,0-1.8-.1-3.4-2.3-3.4a6.7,6.7,0,0,0-2.7.6l-.4-1.2a6.6,6.6,0,0,1,3.3-.8c3.2,0,3.7,1.7,3.7,4.5v3.7c0,.7.1,1.1.7,1.1h.4Zm-2.9-4.4c-2.7,0-4.4.4-4.4,1.9a1.5,1.5,0,0,0,1.6,1.5,3.9,3.9,0,0,0,2.8-1.1Z"/><path d="M347.3,268.1a.9.9,0,0,1-1-1,1,1,0,0,1,1-1.1,1,1,0,0,1,1.1,1.1A1,1,0,0,1,347.3,268.1Z"/><path d="M356.5,267.9V254.7h1.6v11.8h5.6v1.4Z"/><path d="M369.7,257.5c3.3,0,4.7,2.4,4.7,5.3s-1.9,5.3-4.8,5.3-4.7-2.3-4.7-5.3S366.8,257.5,369.7,257.5Zm-.1,9.2c2.1,0,3.1-1.7,3.1-3.9s-1-3.9-3.1-3.9-3,1.8-3,3.9S367.5,266.7,369.6,266.7Z"/><path d="M381.6,272.1V257.7h1.1l.5,1a4.1,4.1,0,0,1,2.8-1.2c2.7,0,4.4,2.2,4.4,5.1s-1.9,5.5-4.8,5.5a5.1,5.1,0,0,1-2.3-.5v4.5Zm1.7-5.9a4.2,4.2,0,0,0,2.1.5c2,0,3.3-1.5,3.3-3.9s-1.2-3.9-3-3.9a3.7,3.7,0,0,0-2.4,1Z"/><path d="M392.8,267.9V257.7h1l.5,1.4a3.8,3.8,0,0,1,3.1-1.6,1.5,1.5,0,0,1,.9.2l-.3,1.5-.9-.2a3.2,3.2,0,0,0-2.6,1.4v7.5Z"/><path d="M400.8,255.6a1,1,0,0,1-1-1.1,1,1,0,0,1,1-1,1,1,0,0,1,1.1,1.1A1,1,0,0,1,400.8,255.6Zm2.1,12.2a2.5,2.5,0,0,1-1.2.3c-1.4,0-1.8-.9-1.8-2v-8.4h1.7v8.2c0,.4.1.8.7.8h.3Z"/><path d="M417,267.9V261a1.8,1.8,0,0,0-2-2.1,3.6,3.6,0,0,0-2.4,1.1v7.9H411V261c0-1.6-.7-2.1-2-2.1a3.5,3.5,0,0,0-2.3,1.1v7.9H405V257.7h1l.6,1a4.1,4.1,0,0,1,2.8-1.2,2.9,2.9,0,0,1,2.8,1.3,5.3,5.3,0,0,1,3.2-1.3c2.2,0,3.2,1.3,3.2,3.5v6.9Z"/><path d="M429,267.2a5.4,5.4,0,0,1-3.3.9c-2.9,0-4.8-2-4.8-5.1s1.8-5.5,4.5-5.5,3.9,1.9,3.9,4.1a9.9,9.9,0,0,1-.2,1.7h-6.5a3.3,3.3,0,0,0,3.4,3.4,6.2,6.2,0,0,0,2.6-.6Zm-1.4-5c0-.2.1-.5.1-.7s-.7-2.5-2.3-2.5-2.7,1.6-2.7,3.2Z"/><path d="M431.7,267.9V257.7h1l.5,1.4a3.8,3.8,0,0,1,3.1-1.6,1.5,1.5,0,0,1,.9.2l-.3,1.5-.9-.2a3.2,3.2,0,0,0-2.6,1.4v7.5Z"/><path d="M442.4,257.5c3.3,0,4.7,2.4,4.7,5.3s-1.8,5.3-4.8,5.3-4.7-2.3-4.7-5.3S439.5,257.5,442.4,257.5Zm0,9.2c2.1,0,3-1.7,3-3.9s-.9-3.9-3-3.9-3.1,1.8-3.1,3.9S440.3,266.7,442.4,266.7Z"/><path d="M449.2,270.8a3.7,3.7,0,0,0,1-2.4,1.6,1.6,0,0,0-1-1.6s.2-1.1,1.2-1.1,1.4.7,1.4,1.8a5.7,5.7,0,0,1-1.8,3.8Z"/><path d="M466.4,267.4a6,6,0,0,1-3,.7c-2.5,0-4.7-1.7-4.7-5.1s2.2-5.5,5.1-5.5a5.5,5.5,0,0,1,2.6.6l-.5,1.3a3.8,3.8,0,0,0-2.1-.5c-2,0-3.4,1.3-3.4,4.1s1.5,3.7,3.3,3.7a4.4,4.4,0,0,0,2.3-.5Z"/><path d="M472.3,257.5c3.2,0,4.7,2.4,4.7,5.3s-1.9,5.3-4.8,5.3-4.7-2.3-4.7-5.3S469.3,257.5,472.3,257.5Zm-.1,9.2c2.1,0,3.1-1.7,3.1-3.9s-1-3.9-3.1-3.9-3,1.8-3,3.9S470.1,266.7,472.2,266.7Z"/><path d="M491.4,267.9V261a1.8,1.8,0,0,0-2-2.1A3.6,3.6,0,0,0,487,260v7.9h-1.6V261c0-1.6-.8-2.1-2-2.1A3.6,3.6,0,0,0,481,260v7.9h-1.6V257.7h1l.6,1a4,4,0,0,1,2.7-1.2c1.9,0,2.6.8,2.9,1.3a5.2,5.2,0,0,1,3.1-1.3c2.3,0,3.3,1.3,3.3,3.5v6.9Z"/><path d="M500.1,257.5c3.2,0,4.7,2.4,4.7,5.3s-1.9,5.3-4.8,5.3-4.7-2.3-4.7-5.3S497.1,257.5,500.1,257.5Zm-.1,9.2c2.1,0,3.1-1.7,3.1-3.9s-1-3.9-3.1-3.9-3,1.8-3,3.9S497.9,266.7,500,266.7Z"/><path d="M518.8,267.9l-.6-1a3.8,3.8,0,0,1-2.9,1.2c-2.5,0-3.3-1.6-3.3-3.6v-6.8h1.6v6.8c0,1.7.9,2.2,2,2.2a3.7,3.7,0,0,0,2.6-1.1v-7.9h1.6v10.2Z"/><path d="M529.4,267.9V261c0-1.7-.8-2.1-2-2.1a3.9,3.9,0,0,0-2.7,1.1v7.9H523V257.7h1l.6,1a4.9,4.9,0,0,1,3.2-1.2c2.6,0,3.3,1.5,3.3,3.5v6.9Z"/><path d="M199.6,292.3v-7a1.8,1.8,0,0,0-2-2,3.5,3.5,0,0,0-2.3,1.1v7.9h-1.7v-7c0-1.5-.7-2-2-2a3.5,3.5,0,0,0-2.3,1.1v7.9h-1.7V282.1h1l.6,1a4.4,4.4,0,0,1,2.8-1.2,3.1,3.1,0,0,1,2.9,1.3,5.2,5.2,0,0,1,3.1-1.3c2.3,0,3.3,1.3,3.3,3.4v7Z"/><path d="M211.7,291.6a5.8,5.8,0,0,1-3.4.9c-2.9,0-4.8-2-4.8-5.1s1.8-5.5,4.6-5.5,3.8,1.9,3.8,4.1a9.9,9.9,0,0,1-.2,1.7h-6.4a3.2,3.2,0,0,0,3.3,3.4,6.2,6.2,0,0,0,2.6-.6Zm-1.4-5v-.7c0-1.5-.7-2.5-2.3-2.5s-2.7,1.6-2.7,3.2Z"/><path d="M220.8,292.3v-7c0-1.6-.9-2-2.1-2a4.4,4.4,0,0,0-2.7,1.1v7.9h-1.7V282.1h1l.7,1a4.6,4.6,0,0,1,3.1-1.2c2.6,0,3.3,1.5,3.3,3.4v7Z"/><path d="M225.3,290.5a5.3,5.3,0,0,0,2.6.7c1.6,0,2.2-.8,2.2-1.6,0-2.5-5.1-1.2-5.1-4.7,0-1.8,1.4-3,3.6-3a5.5,5.5,0,0,1,2.8.6l-.4,1.2a7.3,7.3,0,0,0-2.3-.4c-1.4,0-2.1.6-2.1,1.4,0,2.3,5.1,1.1,5.1,4.6,0,1.7-1.2,3.2-3.9,3.2a6.3,6.3,0,0,1-3-.7Z"/><path d="M242.3,292.2a2.1,2.1,0,0,1-1.2.3,1.6,1.6,0,0,1-1.7-1.1,5.5,5.5,0,0,1-3.2,1.1c-1.7,0-2.9-.9-2.9-2.6s2.6-3.2,6-3.2c0-1.8,0-3.4-2.3-3.4a6.2,6.2,0,0,0-2.6.6l-.5-1.2a7.4,7.4,0,0,1,3.4-.8c3.1,0,3.7,1.7,3.7,4.5v3.7c0,.7.1,1.1.7,1.1h.4Zm-3-4.4c-2.6,0-4.3.4-4.3,1.9a1.5,1.5,0,0,0,1.6,1.5,3.5,3.5,0,0,0,2.7-1.1Z"/><path d="M241.5,295.1h.9c1,0,1.8-.5,1.8-2V282.1h1.7v10.8c0,2.5-1.3,3.8-3.3,3.8a3.7,3.7,0,0,1-1.4-.3Zm3.6-15.1a1.1,1.1,0,1,1,0-2.2c.6,0,1,.4,1,1.2A1,1,0,0,1,245.1,280Z"/><path d="M256.4,291.6a5.4,5.4,0,0,1-3.3.9c-2.9,0-4.8-2-4.8-5.1s1.8-5.5,4.5-5.5,3.8,1.9,3.8,4.1a9.7,9.7,0,0,1-.1,1.7H250a3.3,3.3,0,0,0,3.4,3.4,6.2,6.2,0,0,0,2.6-.6Zm-1.4-5c0-.2.1-.5.1-.7a2.2,2.2,0,0,0-2.4-2.5c-1.8,0-2.6,1.6-2.6,3.2Z"/><path d="M271.2,291.6a5.4,5.4,0,0,1-3.3.9c-2.9,0-4.8-2-4.8-5.1s1.8-5.5,4.5-5.5,3.9,1.9,3.9,4.1a9.9,9.9,0,0,1-.2,1.7h-6.4a3.2,3.2,0,0,0,3.3,3.4,6.2,6.2,0,0,0,2.6-.6Zm-1.4-5a1.7,1.7,0,0,0,.1-.7c0-1.5-.7-2.5-2.3-2.5s-2.7,1.6-2.7,3.2Z"/><path d="M280.3,292.3v-7c0-1.6-.8-2-2-2a3.9,3.9,0,0,0-2.7,1.1v7.9h-1.7V282.1h1l.6,1a4.9,4.9,0,0,1,3.2-1.2c2.6,0,3.3,1.5,3.3,3.4v7Z"/><path d="M296.8,291.8a6.2,6.2,0,0,1-3.1.7c-2.5,0-4.7-1.7-4.7-5.1s2.2-5.5,5.2-5.5a5.4,5.4,0,0,1,2.5.6l-.4,1.3a4.1,4.1,0,0,0-2.1-.5c-2.1,0-3.5,1.3-3.5,4.1a3.4,3.4,0,0,0,3.3,3.7,3.3,3.3,0,0,0,2.3-.6Z"/><path d="M302.6,281.9c3.3,0,4.7,2.4,4.7,5.3s-1.8,5.3-4.8,5.3-4.7-2.3-4.7-5.3S299.7,281.9,302.6,281.9Zm0,9.2c2.1,0,3-1.8,3-3.9s-.9-3.9-3-3.9-3.1,1.8-3.1,3.9S300.5,291.1,302.6,291.1Z"/><path d="M316.1,292.3v-7c0-1.6-.8-2-2-2a4.4,4.4,0,0,0-2.7,1.1v7.9h-1.7V282.1h1l.6,1a5.2,5.2,0,0,1,3.2-1.2c2.6,0,3.3,1.5,3.3,3.4v7Z"/><path d="M326,292.1a4.6,4.6,0,0,1-2,.4c-1.8,0-2.8-1-2.8-3.2v-6h-1.8v-1.2h1.8v-2.2l1.6-.4v2.6H326v1.2h-3.2v6c0,1.3.7,1.8,1.6,1.8a2.5,2.5,0,0,0,1.3-.3Z"/><path d="M328.1,292.3V282.1h1l.5,1.4a3.8,3.8,0,0,1,3.1-1.6,1.5,1.5,0,0,1,.9.2l-.3,1.5-.9-.2a3.6,3.6,0,0,0-2.7,1.4v7.5Z"/><path d="M342.8,292.2a2.5,2.5,0,0,1-1.3.3,1.7,1.7,0,0,1-1.7-1.1,5,5,0,0,1-3.2,1.1,2.6,2.6,0,0,1-2.9-2.6c0-2.6,2.7-3.2,6.1-3.2,0-1.8,0-3.4-2.3-3.4a6.7,6.7,0,0,0-2.7.6l-.4-1.2a6.9,6.9,0,0,1,3.3-.8c3.2,0,3.7,1.7,3.7,4.5v3.7c0,.7.1,1.1.7,1.1h.4Zm-3-4.4c-2.6,0-4.4.4-4.4,1.9a1.6,1.6,0,0,0,1.7,1.5,3.7,3.7,0,0,0,2.7-1.1Z"/><path d="M356.4,292.3l-.5-.9a4.3,4.3,0,0,1-2.8,1.1c-2.6,0-4.4-2.1-4.4-5s2-5.6,4.9-5.6a5.7,5.7,0,0,1,2.3.5v-5.3h1.6v15.2Zm-.5-8.5a4.9,4.9,0,0,0-2.2-.5c-2,0-3.3,1.5-3.3,4s1.3,3.8,3,3.8a3.8,3.8,0,0,0,2.5-1Z"/><path d="M368,291.6a5.4,5.4,0,0,1-3.3.9c-2.9,0-4.8-2-4.8-5.1s1.8-5.5,4.5-5.5,3.9,1.9,3.9,4.1a9.9,9.9,0,0,1-.2,1.7h-6.4a3.2,3.2,0,0,0,3.3,3.4,6.2,6.2,0,0,0,2.6-.6Zm-1.4-5a1.7,1.7,0,0,0,.1-.7c0-1.5-.7-2.5-2.3-2.5s-2.7,1.6-2.7,3.2Z"/><path d="M378.5,292.2a2.5,2.5,0,0,1-1.2.3c-1.4,0-1.8-.9-1.8-2V277.1h1.7v13.2c0,.4,0,.8.7.8h.3Z"/><path d="M388.8,292.2a2.1,2.1,0,0,1-1.2.3,1.7,1.7,0,0,1-1.8-1.1,4.9,4.9,0,0,1-3.1,1.1c-1.7,0-3-.9-3-2.6s2.7-3.2,6.1-3.2c0-1.8,0-3.4-2.3-3.4a7.2,7.2,0,0,0-2.7.6l-.4-1.2a7.1,7.1,0,0,1,3.4-.8c3.1,0,3.7,1.7,3.7,4.5v3.7c0,.7,0,1.1.7,1.1h.3Zm-3-4.4c-2.6,0-4.4.4-4.4,1.9a1.6,1.6,0,0,0,1.7,1.5,3.7,3.7,0,0,0,2.7-1.1Z"/><path d="M397.6,292.3l-3.7-10.2h1.7l3,8.8h.1l3-8.8h1.6l-3.7,10.2Z"/><path d="M405.8,280a1.1,1.1,0,1,1,0-2.2c.6,0,1,.4,1,1.2A1,1,0,0,1,405.8,280Zm2.1,12.2a2.7,2.7,0,0,1-1.3.3c-1.3,0-1.7-.9-1.7-2v-8.4h1.6v8.2c0,.4.1.8.7.8h.4Z"/><path d="M414,281.9c3.2,0,4.7,2.4,4.7,5.3s-1.9,5.3-4.8,5.3-4.7-2.3-4.7-5.3S411,281.9,414,281.9Zm-.1,9.2c2.1,0,3.1-1.8,3.1-3.9s-1-3.9-3.1-3.9-3.1,1.8-3.1,3.9S411.8,291.1,413.9,291.1Z"/><path d="M424.1,292.2a2.7,2.7,0,0,1-1.3.3c-1.3,0-1.7-.9-1.7-2V277.1h1.6v13.2c0,.4.1.8.7.8h.4Z"/><path d="M433.5,291.6a5.5,5.5,0,0,1-3.4.9c-2.9,0-4.7-2-4.7-5.1s1.8-5.5,4.5-5.5,3.8,1.9,3.8,4.1a9.7,9.7,0,0,1-.1,1.7h-6.5a3.2,3.2,0,0,0,3.3,3.4,5.5,5.5,0,0,0,2.6-.6Zm-1.4-5v-.7c0-1.5-.7-2.5-2.3-2.5s-2.6,1.6-2.7,3.2Z"/><path d="M442.6,292.3v-7a1.7,1.7,0,0,0-2-2,4.4,4.4,0,0,0-2.8,1.1v7.9h-1.6V282.1h1l.6,1a4.9,4.9,0,0,1,3.1-1.2c2.6,0,3.3,1.5,3.3,3.4v7Z"/><path d="M454.2,291.8a5.5,5.5,0,0,1-3,.7c-2.5,0-4.7-1.7-4.7-5.1s2.2-5.5,5.1-5.5a5.5,5.5,0,0,1,2.6.6l-.5,1.3a3.8,3.8,0,0,0-2.1-.5c-2,0-3.4,1.3-3.4,4.1s1.5,3.7,3.3,3.7a3.5,3.5,0,0,0,2.3-.6Z"/><path d="M457,280a1.1,1.1,0,0,1,0-2.2c.6,0,1,.4,1,1.2A1,1,0,0,1,457,280Zm2.1,12.2a2.7,2.7,0,0,1-1.3.3c-1.3,0-1.7-.9-1.7-2v-8.4h1.6v8.2c0,.4.1.8.7.8h.4Z"/><path d="M469.3,292.2a1.9,1.9,0,0,1-1.2.3,1.7,1.7,0,0,1-1.7-1.1,5,5,0,0,1-3.2,1.1,2.6,2.6,0,0,1-2.9-2.6c0-2.6,2.6-3.2,6.1-3.2,0-1.8-.1-3.4-2.3-3.4a6.7,6.7,0,0,0-2.7.6l-.4-1.2a6.6,6.6,0,0,1,3.3-.8c3.2,0,3.7,1.7,3.7,4.5v3.7c0,.7.1,1.1.7,1.1h.4Zm-2.9-4.4c-2.7,0-4.4.4-4.4,1.9a1.5,1.5,0,0,0,1.6,1.5,3.9,3.9,0,0,0,2.8-1.1Z"/><path d="M474.4,282.1h1.9l3.2,8.4,2.8-8.4H484l-4.1,11.5a4,4,0,0,1-3.8,2.9,3.2,3.2,0,0,1-1.8-.6l.6-1.2a2.5,2.5,0,0,0,1.3.3c1.4,0,2-1.1,2.5-2.6Z"/><path d="M498.6,292.2a2.1,2.1,0,0,1-1.2.3,1.7,1.7,0,0,1-1.8-1.1,4.9,4.9,0,0,1-3.1,1.1c-1.7,0-3-.9-3-2.6s2.7-3.2,6.1-3.2c0-1.8,0-3.4-2.3-3.4a7.2,7.2,0,0,0-2.7.6l-.4-1.2a7.4,7.4,0,0,1,3.4-.8c3.1,0,3.7,1.7,3.7,4.5v3.7c0,.7,0,1.1.7,1.1h.3Zm-3-4.4c-2.6,0-4.4.4-4.4,1.9a1.6,1.6,0,0,0,1.7,1.5,3.7,3.7,0,0,0,2.7-1.1Z"/><path d="M505.8,296.5V283.3h-1.9v-1.2h1.9v-.4c0-2.9,1.5-4.8,4.2-4.8a4.4,4.4,0,0,1,1.6.2l-.3,1.3-1.2-.2c-1.9,0-2.7,1.2-2.7,3.2v.7h2.9v1.2h-2.9v13.2Z"/><path d="M519.8,292.2a2.5,2.5,0,0,1-1.3.3,1.7,1.7,0,0,1-1.7-1.1,5,5,0,0,1-3.2,1.1,2.6,2.6,0,0,1-2.9-2.6c0-2.6,2.7-3.2,6.1-3.2,0-1.8,0-3.4-2.3-3.4a6.7,6.7,0,0,0-2.7.6l-.4-1.2a6.9,6.9,0,0,1,3.3-.8c3.2,0,3.7,1.7,3.7,4.5v3.7c0,.7.1,1.1.7,1.1h.4Zm-3-4.4c-2.6,0-4.4.4-4.4,1.9a1.6,1.6,0,0,0,1.7,1.5,3.7,3.7,0,0,0,2.7-1.1Z"/><path d="M523.8,292.3l-3.7-10.2h1.7l3,8.8h.1l3-8.8h1.6l-3.7,10.2Z"/><path d="M535.1,281.9c3.2,0,4.7,2.4,4.7,5.3s-1.9,5.3-4.8,5.3-4.7-2.3-4.7-5.3S532.1,281.9,535.1,281.9Zm-.1,9.2c2.1,0,3.1-1.8,3.1-3.9s-1-3.9-3.1-3.9-3,1.8-3,3.9S532.9,291.1,535,291.1Z"/><path d="M542.2,292.3V282.1h1l.5,1.4a3.6,3.6,0,0,1,3-1.6,1.6,1.6,0,0,1,1,.2l-.3,1.5-.9-.2a3.6,3.6,0,0,0-2.7,1.4v7.5Z"/><path d="M561,292.3l-.5-.9a4.3,4.3,0,0,1-2.8,1.1c-2.6,0-4.4-2.1-4.4-5s1.9-5.6,4.9-5.6a4.9,4.9,0,0,1,2.2.5v-5.3h1.7v15.2Zm-.6-8.5a4.2,4.2,0,0,0-2.1-.5c-2,0-3.3,1.5-3.3,4s1.2,3.8,3,3.8a3.4,3.4,0,0,0,2.4-1Z"/><path d="M572.6,291.6a5.4,5.4,0,0,1-3.3.9c-2.9,0-4.8-2-4.8-5.1s1.8-5.5,4.5-5.5,3.8,1.9,3.8,4.1a9.7,9.7,0,0,1-.1,1.7h-6.5a3.3,3.3,0,0,0,3.4,3.4,6.2,6.2,0,0,0,2.6-.6Zm-1.4-5c0-.2.1-.5.1-.7a2.2,2.2,0,0,0-2.4-2.5c-1.8,0-2.6,1.6-2.6,3.2Z"/><path d="M190.6,316.6a2.5,2.5,0,0,1-1.2.3c-1.4,0-1.8-.9-1.8-2V301.4h1.7v13.3c0,.4.1.8.7.8h.4Z"/><path d="M196.7,306.3c3.3,0,4.7,2.4,4.7,5.3s-1.8,5.3-4.8,5.3-4.7-2.3-4.7-5.3S193.8,306.3,196.7,306.3Zm0,9.2c2.1,0,3-1.8,3-3.9s-.9-3.9-3-3.9-3.1,1.8-3.1,3.9S194.6,315.5,196.7,315.5Z"/><path d="M203.7,314.9a6.2,6.2,0,0,0,2.6.6c1.6,0,2.2-.7,2.2-1.5,0-2.5-5.1-1.2-5.1-4.7,0-1.8,1.4-3,3.6-3a7.3,7.3,0,0,1,2.8.5l-.5,1.3a6.7,6.7,0,0,0-2.2-.4c-1.5,0-2.1.6-2.1,1.4s5.1,1.1,5.1,4.6c0,1.7-1.2,3.2-3.9,3.2a6.3,6.3,0,0,1-3-.7Z"/><path d="M224.2,316.7l-.5-.9a4.3,4.3,0,0,1-2.8,1.1c-2.6,0-4.4-2.1-4.4-5s2-5.6,4.9-5.6a5.7,5.7,0,0,1,2.3.5v-5.4h1.6v15.3Zm-.5-8.5a4.9,4.9,0,0,0-2.2-.5c-2,0-3.2,1.5-3.2,4s1.2,3.8,2.9,3.8a3.8,3.8,0,0,0,2.5-1Z"/><path d="M235.9,316a6,6,0,0,1-3.4.9c-2.9,0-4.8-2-4.8-5.2s1.8-5.4,4.6-5.4,3.8,1.9,3.8,4.1a9.9,9.9,0,0,1-.2,1.7h-6.4a3.2,3.2,0,0,0,3.3,3.4,6.2,6.2,0,0,0,2.6-.6Zm-1.4-5v-.7c0-1.5-.7-2.6-2.3-2.6s-2.7,1.7-2.7,3.3Z"/><path d="M238.5,316.7V306.5h1l.5,1.4a3.8,3.8,0,0,1,3.1-1.6h.9l-.3,1.5h-.8a3.4,3.4,0,0,0-2.7,1.4v7.5Z"/><path d="M252.6,316a5.5,5.5,0,0,1-3.4.9c-2.9,0-4.7-2-4.7-5.2s1.8-5.4,4.5-5.4,3.8,1.9,3.8,4.1a9.9,9.9,0,0,1-.2,1.7h-6.4a3.2,3.2,0,0,0,3.3,3.4,5.5,5.5,0,0,0,2.6-.6Zm-1.4-5v-.7c0-1.5-.7-2.6-2.3-2.6s-2.6,1.7-2.7,3.3Z"/><path d="M262.2,316.2a5.8,5.8,0,0,1-3,.7c-2.5,0-4.7-1.8-4.7-5.2s2.2-5.4,5.1-5.4a4.5,4.5,0,0,1,2.6.6l-.5,1.3a3.8,3.8,0,0,0-2.1-.5c-2,0-3.4,1.2-3.4,4s1.5,3.8,3.3,3.8a4.2,4.2,0,0,0,2.3-.6Z"/><path d="M265.7,307.4a5.5,5.5,0,0,1,3.1-1.1c2.6,0,3.3,1.5,3.3,3.4v7h-1.6v-7a1.7,1.7,0,0,0-2-2,4.4,4.4,0,0,0-2.8,1.1v7.9h-1.6V301.4h1.6Z"/><path d="M279.2,306.3c3.2,0,4.7,2.4,4.7,5.3s-1.9,5.3-4.8,5.3-4.7-2.3-4.7-5.3S276.2,306.3,279.2,306.3Zm-.1,9.2c2.1,0,3.1-1.8,3.1-3.9s-1-3.9-3.1-3.9-3,1.8-3,3.9S277,315.5,279.1,315.5Z"/><path d="M286.1,314.9a6.6,6.6,0,0,0,2.6.6c1.6,0,2.2-.7,2.2-1.5,0-2.5-5-1.2-5-4.7,0-1.8,1.4-3,3.6-3a7.1,7.1,0,0,1,2.7.5l-.4,1.3a7.3,7.3,0,0,0-2.3-.4c-1.4,0-2.1.6-2.1,1.4s5.2,1.1,5.2,4.6c0,1.7-1.3,3.2-3.9,3.2a6.5,6.5,0,0,1-3.1-.7Z"/><path d="M306.6,316.7l-.4-.9a4.6,4.6,0,0,1-2.8,1.1c-2.6,0-4.4-2.1-4.4-5s1.9-5.6,4.8-5.6a5.7,5.7,0,0,1,2.3.5v-5.4h1.7v15.3Zm-.5-8.5a4.2,4.2,0,0,0-2.1-.5c-2.1,0-3.3,1.5-3.3,4s1.2,3.8,3,3.8a3.7,3.7,0,0,0,2.4-1Z"/><path d="M318.3,316a5.5,5.5,0,0,1-3.4.9c-2.9,0-4.7-2-4.7-5.2s1.8-5.4,4.5-5.4,3.8,1.9,3.8,4.1a9.7,9.7,0,0,1-.1,1.7h-6.5c.1,1.6,1,3.4,3.3,3.4a5.5,5.5,0,0,0,2.6-.6Zm-1.4-5v-.7c0-1.5-.7-2.6-2.3-2.6s-2.6,1.7-2.7,3.3Z"/><path d="M328.8,316.6a2.7,2.7,0,0,1-1.3.3c-1.3,0-1.7-.9-1.7-2V301.4h1.6v13.3c0,.4.1.8.7.8h.4Z"/><path d="M339.1,316.6a2.5,2.5,0,0,1-1.3.3,1.7,1.7,0,0,1-1.7-1.1,5,5,0,0,1-3.2,1.1,2.6,2.6,0,0,1-2.9-2.6c0-2.6,2.7-3.2,6.1-3.2,0-1.8-.1-3.4-2.3-3.4a6.7,6.7,0,0,0-2.7.6l-.4-1.2a6.6,6.6,0,0,1,3.3-.8c3.2,0,3.7,1.7,3.7,4.5v3.7c0,.7.1,1,.7,1h.4Zm-3-4.4c-2.7,0-4.4.4-4.4,1.9a1.5,1.5,0,0,0,1.6,1.5,3.9,3.9,0,0,0,2.8-1.1Z"/><path d="M340.8,314.9a6.6,6.6,0,0,0,2.6.6c1.6,0,2.2-.7,2.2-1.5,0-2.5-5-1.2-5-4.7,0-1.8,1.4-3,3.6-3a7.1,7.1,0,0,1,2.7.5l-.4,1.3a7.3,7.3,0,0,0-2.3-.4c-1.4,0-2.1.6-2.1,1.4s5.2,1.1,5.2,4.6c0,1.7-1.3,3.2-3.9,3.2a6.5,6.5,0,0,1-3.1-.7Z"/><path d="M356.5,316.7l-3.7-10.2h1.8l3,8.7h0l3-8.7h1.6l-3.6,10.2Z"/><path d="M363.6,304.6l1.9-3h1.8l-2.3,3Zm3.2,12a2.5,2.5,0,0,1-1.2.3c-1.4,0-1.8-.9-1.8-2v-8.4h1.7v8.2c0,.4,0,.8.7.8h.3Z"/><path d="M375.8,316.2a5.5,5.5,0,0,1-3,.7c-2.5,0-4.7-1.8-4.7-5.2s2.2-5.4,5.2-5.4a4.4,4.4,0,0,1,2.5.6l-.4,1.3a4.3,4.3,0,0,0-2.1-.5c-2.1,0-3.5,1.2-3.5,4s1.6,3.8,3.3,3.8a4,4,0,0,0,2.3-.6Z"/><path d="M383.2,316.4a3.7,3.7,0,0,1-2,.5c-1.8,0-2.9-1-2.9-3.2v-6h-1.8v-1.2h1.8v-2.2l1.7-.4v2.6h3.2v1.2H380v6c0,1.3.6,1.8,1.6,1.8a4.2,4.2,0,0,0,1.3-.3Z"/><path d="M386.1,304.4a1,1,0,0,1-1-1.1,1.1,1.1,0,0,1,1-1.1c.7,0,1.1.4,1.1,1.2A1,1,0,0,1,386.1,304.4Zm2.1,12.2a2.5,2.5,0,0,1-1.2.3c-1.4,0-1.8-.9-1.8-2v-8.4h1.7v8.2c0,.4.1.8.7.8h.4Z"/><path d="M402.3,316.7v-7a1.8,1.8,0,0,0-2-2,3.5,3.5,0,0,0-2.3,1.1v7.9h-1.7v-7c0-1.5-.7-2-2-2a3.5,3.5,0,0,0-2.3,1.1v7.9h-1.7V306.5h1l.6,1a4.1,4.1,0,0,1,2.8-1.2,2.9,2.9,0,0,1,2.8,1.3,5.6,5.6,0,0,1,3.2-1.3c2.2,0,3.3,1.3,3.3,3.4v7Z"/><path d="M415.2,316.6a2.1,2.1,0,0,1-1.2.3,1.7,1.7,0,0,1-1.8-1.1,4.9,4.9,0,0,1-3.1,1.1c-1.7,0-2.9-.9-2.9-2.6s2.6-3.2,6-3.2c0-1.8,0-3.4-2.3-3.4a7.2,7.2,0,0,0-2.7.6l-.4-1.2a7.4,7.4,0,0,1,3.4-.8c3.1,0,3.7,1.7,3.7,4.5v3.7c0,.7,0,1,.7,1h.3Zm-3-4.4c-2.6,0-4.4.4-4.4,1.9a1.6,1.6,0,0,0,1.7,1.5,3.7,3.7,0,0,0,2.7-1.1Z"/><path d="M416.9,314.9a7.2,7.2,0,0,0,2.7.6c1.6,0,2.2-.7,2.2-1.5,0-2.5-5.1-1.2-5.1-4.7,0-1.8,1.4-3,3.6-3a7.3,7.3,0,0,1,2.8.5l-.5,1.3a6.7,6.7,0,0,0-2.2-.4c-1.5,0-2.1.6-2.1,1.4s5.1,1.1,5.1,4.6c0,1.7-1.2,3.2-3.9,3.2a6,6,0,0,1-3-.7Z"/><path d="M425.5,319.6a3.7,3.7,0,0,0,1-2.4,1.8,1.8,0,0,0-1.1-1.7,1.4,1.4,0,0,1,1.3-1c.9,0,1.4.7,1.4,1.8a5.9,5.9,0,0,1-1.8,3.8Zm1.3-11.2a1,1,0,0,1-1-1.1,1.1,1.1,0,0,1,2.1.1A1,1,0,0,1,426.8,308.4Z"/><path d="M434.1,306.5h1.8l3.3,8.4,2.8-8.4h1.7L439.5,318a3.8,3.8,0,0,1-3.7,2.9,3,3,0,0,1-1.8-.6l.5-1.2a4.2,4.2,0,0,0,1.3.3c1.5,0,2.1-1.1,2.6-2.6Z"/><path d="M453,316.6a2.5,2.5,0,0,1-1.2.3c-1.4,0-1.7-.9-1.7-2V301.4h1.6v13.3c0,.4.1.8.7.8h.4Z"/><path d="M459.2,306.3c3.2,0,4.7,2.4,4.7,5.3s-1.9,5.3-4.9,5.3-4.7-2.3-4.7-5.3S456.2,306.3,459.2,306.3Zm-.1,9.2c2.1,0,3-1.8,3-3.9s-.9-3.9-3-3.9-3.1,1.8-3.1,3.9S457,315.5,459.1,315.5Z"/><path d="M470.9,314.9a6.6,6.6,0,0,0,2.6.6c1.6,0,2.2-.7,2.2-1.5,0-2.5-5.1-1.2-5.1-4.7,0-1.8,1.4-3,3.6-3a7.3,7.3,0,0,1,2.8.5l-.4,1.3a7.3,7.3,0,0,0-2.3-.4c-1.4,0-2.1.6-2.1,1.4s5.1,1.1,5.1,4.6c0,1.7-1.2,3.2-3.8,3.2a6.5,6.5,0,0,1-3.1-.7Z"/><path d="M487.1,316a5.8,5.8,0,0,1-3.4.9c-2.9,0-4.8-2-4.8-5.2s1.8-5.4,4.6-5.4,3.8,1.9,3.8,4.1a9.9,9.9,0,0,1-.2,1.7h-6.4a3.2,3.2,0,0,0,3.3,3.4,5.9,5.9,0,0,0,2.6-.6Zm-1.4-5v-.7c0-1.5-.7-2.6-2.3-2.6s-2.7,1.7-2.7,3.3Z"/><path d="M496.1,307.8a2.6,2.6,0,0,1,.6,1.9,3.5,3.5,0,0,1-3.7,3.6h-.6a2,2,0,0,0-.4.8c0,.5.1.8,1.1.8,3.5,0,4.5,1,4.5,2.8s-1.7,3.5-4.6,3.5-3.9-1-3.9-2.9a2.7,2.7,0,0,1,2-2.5,1.4,1.4,0,0,1-.7-1.3V314l.9-1.1a3.3,3.3,0,0,1-1.8-3.1,3.4,3.4,0,0,1,3.5-3.5,5.2,5.2,0,0,1,1.9.3h3.6v1.3Zm-5.5,10.1c0,1,.8,1.8,2.5,1.8s2.9-.7,2.9-1.9-.6-1.6-2.9-1.6h-.9C491.2,316.4,490.6,316.9,490.6,317.9Zm4.6-8.2a1.9,1.9,0,0,0-2.1-2.1,2,2,0,0,0-2.1,2.2,2,2,0,0,0,2.1,2.1A2,2,0,0,0,495.2,309.7Z"/><path d="M506.8,316.7l-.6-1a3.9,3.9,0,0,1-2.9,1.2c-2.5,0-3.3-1.6-3.3-3.6v-6.8h1.6v6.8c0,1.6.9,2.2,2,2.2a3.7,3.7,0,0,0,2.6-1.1v-7.9h1.6v10.2Z"/><path d="M517.4,316.7v-7a1.7,1.7,0,0,0-2-2,3.9,3.9,0,0,0-2.7,1.1v7.9H511V306.5h1l.6,1a4.9,4.9,0,0,1,3.2-1.2c2.6,0,3.3,1.5,3.3,3.4v7Z"/><path d="M529,316.7l-.5-.9a4.3,4.3,0,0,1-2.8,1.1c-2.6,0-4.4-2.1-4.4-5s2-5.6,4.9-5.6a5.7,5.7,0,0,1,2.3.5v-5.4h1.6v15.3Zm-.5-8.5a4.9,4.9,0,0,0-2.2-.5c-2,0-3.3,1.5-3.3,4s1.3,3.8,3,3.8a3.8,3.8,0,0,0,2.5-1Z"/><path d="M537.3,306.3c3.3,0,4.7,2.4,4.7,5.3s-1.8,5.3-4.8,5.3-4.7-2.3-4.7-5.3S534.4,306.3,537.3,306.3Zm0,9.2c2.1,0,3-1.8,3-3.9s-.9-3.9-3-3.9-3.1,1.8-3.1,3.9S535.2,315.5,537.3,315.5Z"/><path d="M544.1,319.6a3.7,3.7,0,0,0,1-2.4,1.8,1.8,0,0,0-1-1.7,1.3,1.3,0,0,1,1.2-1c1,0,1.4.7,1.4,1.8a5.7,5.7,0,0,1-1.8,3.8Z"/><path d="M562.5,316.6a1.9,1.9,0,0,1-1.2.3,1.7,1.7,0,0,1-1.7-1.1,5,5,0,0,1-3.2,1.1,2.6,2.6,0,0,1-2.9-2.6c0-2.6,2.6-3.2,6.1-3.2,0-1.8-.1-3.4-2.3-3.4a6.7,6.7,0,0,0-2.7.6l-.4-1.2a6.6,6.6,0,0,1,3.3-.8c3.2,0,3.7,1.7,3.7,4.5v3.7c0,.7.1,1,.7,1h.4Zm-2.9-4.4c-2.7,0-4.4.4-4.4,1.9a1.5,1.5,0,0,0,1.6,1.5,3.9,3.9,0,0,0,2.8-1.1Z"/><path d="M187.6,345.2V330.9h1.2l.4.9a4.6,4.6,0,0,1,2.8-1.1c2.8,0,4.4,2.2,4.4,5s-1.9,5.6-4.8,5.6a5.7,5.7,0,0,1-2.3-.5v4.4Zm1.7-5.8a4.2,4.2,0,0,0,2.1.5c2.1,0,3.3-1.5,3.3-4s-1.2-3.8-3-3.8a3.7,3.7,0,0,0-2.4,1Z"/><path d="M207,341a2.1,2.1,0,0,1-1.2.3,1.6,1.6,0,0,1-1.7-1.2,4.5,4.5,0,0,1-3.2,1.2,2.6,2.6,0,0,1-2.9-2.6c0-2.6,2.6-3.2,6-3.2,0-1.8,0-3.4-2.3-3.4a6.6,6.6,0,0,0-2.6.6l-.4-1.3a8.1,8.1,0,0,1,3.3-.7c3.2,0,3.7,1.7,3.7,4.5v3.7c0,.7.1,1,.7,1h.4Zm-3-4.4c-2.6,0-4.3.4-4.3,1.9a1.5,1.5,0,0,0,1.6,1.5,3.5,3.5,0,0,0,2.7-1.1Z"/><path d="M209,341.1V330.9h1l.4,1.4a4,4,0,0,1,3.1-1.6h.9l-.3,1.5h-.8a3.6,3.6,0,0,0-2.7,1.4v7.5Z"/><path d="M221.6,340.8a3.9,3.9,0,0,1-2,.5c-1.8,0-2.9-1.1-2.9-3.3v-5.9h-1.8v-1.2h1.8v-2.2l1.7-.4v2.6h3.1v1.2h-3.1v6c0,1.3.6,1.8,1.5,1.8a4.2,4.2,0,0,0,1.4-.3Z"/><path d="M224.5,328.8a1,1,0,0,1-1-1.1,1.1,1.1,0,0,1,1-1.1,1,1,0,0,1,1.1,1.1A1,1,0,0,1,224.5,328.8Zm2.1,12.2a2.5,2.5,0,0,1-1.2.3c-1.4,0-1.8-.9-1.8-2.1v-8.3h1.7v8.2c0,.4,0,.8.7.8h.3Z"/><path d="M228.7,341.1V330.9h1l.5,1.4a3.8,3.8,0,0,1,3.1-1.6h.9l-.3,1.5H233a3.6,3.6,0,0,0-2.7,1.4v7.5Z"/><path d="M247.5,341.1l-.5-.9a4.3,4.3,0,0,1-2.8,1.1c-2.6,0-4.4-2.1-4.4-5s2-5.6,4.9-5.6a5.7,5.7,0,0,1,2.3.5v-5.4h1.6v15.3Zm-.5-8.5a4.9,4.9,0,0,0-2.2-.5c-2,0-3.3,1.5-3.3,4s1.3,3.8,3,3.8a3.8,3.8,0,0,0,2.5-1Z"/><path d="M259.1,340.4a5.4,5.4,0,0,1-3.3.9c-2.9,0-4.8-2-4.8-5.2s1.8-5.4,4.5-5.4,3.9,1.9,3.9,4.1a7.8,7.8,0,0,1-.2,1.6h-6.4a3.2,3.2,0,0,0,3.3,3.5,5,5,0,0,0,2.6-.7Zm-1.4-5a1.7,1.7,0,0,0,.1-.7c0-1.5-.7-2.6-2.3-2.6s-2.7,1.7-2.7,3.3Z"/><path d="M264.8,341a2.5,2.5,0,0,1-1.2.3c-1.4,0-1.8-.9-1.8-2.1V325.8h1.7v13.3c0,.4.1.8.7.8h.4Z"/><path d="M271.7,341.1V330.9h1l.5,1.4a3.8,3.8,0,0,1,3.1-1.6h.9l-.3,1.5H276a3.2,3.2,0,0,0-2.6,1.4v7.5Z"/><path d="M285.8,340.4a6,6,0,0,1-3.4.9c-2.9,0-4.8-2-4.8-5.2s1.8-5.4,4.6-5.4,3.8,1.9,3.8,4.1a7.8,7.8,0,0,1-.2,1.6h-6.4a3.2,3.2,0,0,0,3.3,3.5,5,5,0,0,0,2.6-.7Zm-1.4-5v-.7c0-1.5-.7-2.6-2.3-2.6s-2.7,1.7-2.7,3.3Z"/><path d="M295.4,340.6a6,6,0,0,1-3,.7c-2.6,0-4.8-1.8-4.8-5.2s2.2-5.4,5.2-5.4a4.2,4.2,0,0,1,2.5.6l-.4,1.3a3.8,3.8,0,0,0-2.1-.5c-2,0-3.4,1.2-3.4,4s1.5,3.8,3.3,3.8a4.5,4.5,0,0,0,2.3-.6Z"/><path d="M301.3,330.7c3.2,0,4.7,2.3,4.7,5.3s-1.9,5.3-4.9,5.3-4.7-2.4-4.7-5.3S298.3,330.7,301.3,330.7Zm-.1,9.2c2.1,0,3.1-1.8,3.1-3.9s-1-3.9-3.1-3.9-3.1,1.8-3.1,3.9S299.1,339.9,301.2,339.9Z"/><path d="M314.8,341.1v-7c0-1.6-.9-2-2.1-2a4.4,4.4,0,0,0-2.7,1.1v7.9h-1.6V330.9h1l.6,1a4.9,4.9,0,0,1,3.1-1.2c2.6,0,3.3,1.5,3.3,3.4v7Z"/><path d="M323.5,330.7c3.2,0,4.7,2.3,4.7,5.3s-1.9,5.3-4.8,5.3-4.7-2.4-4.7-5.3S320.5,330.7,323.5,330.7Zm-.1,9.2c2.1,0,3.1-1.8,3.1-3.9s-1-3.9-3.1-3.9-3,1.8-3,3.9S321.3,339.9,323.4,339.9Z"/><path d="M337.5,340.6a5.5,5.5,0,0,1-3,.7c-2.5,0-4.7-1.8-4.7-5.2s2.2-5.4,5.1-5.4a4.5,4.5,0,0,1,2.6.6l-.5,1.3a3.8,3.8,0,0,0-2.1-.5c-2,0-3.4,1.2-3.4,4s1.5,3.8,3.3,3.8a4.2,4.2,0,0,0,2.3-.6Z"/><path d="M340.3,328.8a1.1,1.1,0,0,1,0-2.2,1,1,0,0,1,1,1.1A1,1,0,0,1,340.3,328.8Zm2.1,12.2a2.7,2.7,0,0,1-1.3.3c-1.3,0-1.7-.9-1.7-2.1v-8.3H341v8.2c0,.4.1.8.7.8h.4Z"/><path d="M356.5,341.1v-7c0-1.4-.7-2-2.1-2a3.5,3.5,0,0,0-2.3,1.1v7.9h-1.6v-7c0-1.5-.8-2-2.1-2a3.5,3.5,0,0,0-2.3,1.1v7.9h-1.6V330.9h1l.6,1a4,4,0,0,1,2.7-1.2,3.1,3.1,0,0,1,2.9,1.3,5.2,5.2,0,0,1,3.1-1.3c2.3,0,3.3,1.3,3.3,3.4v7Z"/><path d="M362,328.8a1,1,0,0,1-1-1.1,1.1,1.1,0,0,1,1-1.1,1,1,0,0,1,1.1,1.1A1,1,0,0,1,362,328.8Zm2.1,12.2a2.5,2.5,0,0,1-1.2.3c-1.4,0-1.8-.9-1.8-2.1v-8.3h1.7v8.2c0,.4.1.8.7.8h.4Z"/><path d="M373.6,340.4a5.8,5.8,0,0,1-3.4.9c-2.9,0-4.8-2-4.8-5.2s1.8-5.4,4.6-5.4,3.8,1.9,3.8,4.1a7.8,7.8,0,0,1-.2,1.6h-6.4a3.2,3.2,0,0,0,3.3,3.5,5,5,0,0,0,2.6-.7Zm-1.4-5v-.7c0-1.5-.7-2.6-2.3-2.6s-2.7,1.7-2.7,3.3Z"/><path d="M382.7,341.1v-7c0-1.6-.9-2-2.1-2a4.4,4.4,0,0,0-2.7,1.1v7.9h-1.7V330.9h1l.7,1a4.6,4.6,0,0,1,3.1-1.2c2.6,0,3.3,1.5,3.3,3.4v7Z"/><path d="M392.6,340.8a4.1,4.1,0,0,1-2.1.5c-1.8,0-2.8-1.1-2.8-3.3v-5.9h-1.8v-1.2h1.8v-2.2l1.6-.4v2.6h3.2v1.2h-3.2v6c0,1.3.7,1.8,1.6,1.8a4.2,4.2,0,0,0,1.3-.3Z"/><path d="M398.6,330.7c3.2,0,4.7,2.3,4.7,5.3s-1.9,5.3-4.8,5.3-4.7-2.4-4.7-5.3S395.7,330.7,398.6,330.7Zm-.1,9.2c2.1,0,3.1-1.8,3.1-3.9s-1-3.9-3.1-3.9-3,1.8-3,3.9S396.4,339.9,398.5,339.9Z"/><path d="M417.4,341.1l-.5-.9a4.3,4.3,0,0,1-2.8,1.1c-2.6,0-4.4-2.1-4.4-5s2-5.6,4.9-5.6a5.7,5.7,0,0,1,2.3.5v-5.4h1.6v15.3Zm-.5-8.5a4.9,4.9,0,0,0-2.2-.5c-2,0-3.3,1.5-3.3,4s1.3,3.8,3,3.8a3.8,3.8,0,0,0,2.5-1Z"/><path d="M429,340.4a5.4,5.4,0,0,1-3.3.9c-2.9,0-4.8-2-4.8-5.2s1.8-5.4,4.5-5.4,3.9,1.9,3.9,4.1a7.8,7.8,0,0,1-.2,1.6h-6.4a3.2,3.2,0,0,0,3.3,3.5,5,5,0,0,0,2.6-.7Zm-1.4-5a1.7,1.7,0,0,0,.1-.7c0-1.5-.7-2.6-2.3-2.6s-2.7,1.7-2.7,3.3Z"/><path d="M439.5,341a2.5,2.5,0,0,1-1.2.3c-1.4,0-1.8-.9-1.8-2.1V325.8h1.7v13.3c0,.4,0,.8.7.8h.3Z"/><path d="M449.8,341a2.1,2.1,0,0,1-1.2.3,1.7,1.7,0,0,1-1.8-1.2,4.4,4.4,0,0,1-3.1,1.2c-1.7,0-3-1-3-2.6s2.7-3.2,6.1-3.2c0-1.8,0-3.4-2.3-3.4a6.7,6.7,0,0,0-2.7.6l-.4-1.3a8.7,8.7,0,0,1,3.4-.7c3.1,0,3.6,1.7,3.6,4.5v3.7c0,.7.1,1,.8,1h.3Zm-3-4.4c-2.6,0-4.4.4-4.4,1.9a1.6,1.6,0,0,0,1.7,1.5,3.7,3.7,0,0,0,2.7-1.1Z"/><path d="M453.8,343.9h.8c1.1,0,1.9-.5,1.9-2V330.9h1.7v10.8c0,2.4-1.4,3.7-3.3,3.7a3.7,3.7,0,0,1-1.4-.2Zm3.5-15.1a1,1,0,0,1-1-1.1,1.1,1.1,0,0,1,1-1.1,1,1,0,0,1,1.1,1.1A1,1,0,0,1,457.3,328.8Z"/><path d="M468.2,341.1l-.6-1a4,4,0,0,1-3,1.2c-2.4,0-3.2-1.6-3.2-3.6v-6.8H463v6.8c0,1.6.9,2.2,2,2.2a3.7,3.7,0,0,0,2.6-1.1v-7.9h1.6v10.2Z"/><path d="M472.2,339.3a7.2,7.2,0,0,0,2.7.6c1.5,0,2.1-.7,2.1-1.5,0-2.5-5-1.2-5-4.7,0-1.8,1.4-3,3.6-3a7.1,7.1,0,0,1,2.7.5l-.4,1.3a7.3,7.3,0,0,0-2.3-.4c-1.4,0-2,.6-2,1.4,0,2.3,5.1,1.1,5.1,4.6,0,1.7-1.3,3.2-3.9,3.2a6.5,6.5,0,0,1-3.1-.7Z"/><path d="M486.3,340.8a3.9,3.9,0,0,1-2,.5c-1.8,0-2.9-1.1-2.9-3.3v-5.9h-1.8v-1.2h1.8v-2.2l1.7-.4v2.6h3.1v1.2h-3.1v6c0,1.3.6,1.8,1.5,1.8a4.2,4.2,0,0,0,1.4-.3Z"/><path d="M489.2,328.8a1,1,0,0,1-1-1.1,1.1,1.1,0,0,1,1-1.1,1,1,0,0,1,1.1,1.1A1,1,0,0,1,489.2,328.8Zm2.1,12.2a2.5,2.5,0,0,1-1.2.3c-1.4,0-1.8-.9-1.8-2.1v-8.3H490v8.2c0,.4,0,.8.7.8h.3Z"/><path d="M500.3,340.6a5.5,5.5,0,0,1-3,.7c-2.5,0-4.7-1.8-4.7-5.2s2.2-5.4,5.2-5.4a4.4,4.4,0,0,1,2.5.6l-.4,1.3a4.3,4.3,0,0,0-2.1-.5c-2.1,0-3.5,1.2-3.5,4s1.6,3.8,3.3,3.8a4,4,0,0,0,2.3-.6Z"/><path d="M503.1,328.8a1.1,1.1,0,0,1,0-2.2,1,1,0,0,1,1.1,1.1A1.1,1.1,0,0,1,503.1,328.8Zm2.1,12.2a2.7,2.7,0,0,1-1.3.3c-1.3,0-1.7-.9-1.7-2.1v-8.3h1.6v8.2c0,.4.1.8.7.8h.4Z"/><path d="M515.5,341a2.5,2.5,0,0,1-1.3.3,1.6,1.6,0,0,1-1.7-1.2,4.5,4.5,0,0,1-3.2,1.2,2.7,2.7,0,0,1-2.9-2.6c0-2.6,2.7-3.2,6.1-3.2,0-1.8,0-3.4-2.3-3.4a6.7,6.7,0,0,0-2.7.6l-.4-1.3a8.1,8.1,0,0,1,3.3-.7c3.2,0,3.7,1.7,3.7,4.5v3.7c0,.7.1,1,.7,1h.4Zm-3-4.4c-2.6,0-4.4.4-4.4,1.9a1.5,1.5,0,0,0,1.7,1.5,3.9,3.9,0,0,0,2.7-1.1Z"/><path d="M529.1,340.6a5.5,5.5,0,0,1-3,.7c-2.5,0-4.7-1.8-4.7-5.2s2.2-5.4,5.2-5.4a4.4,4.4,0,0,1,2.5.6l-.4,1.3a4.3,4.3,0,0,0-2.1-.5c-2.1,0-3.5,1.2-3.5,4s1.6,3.8,3.3,3.8a4,4,0,0,0,2.3-.6Z"/><path d="M535,330.7c3.2,0,4.7,2.3,4.7,5.3s-1.9,5.3-4.8,5.3-4.7-2.4-4.7-5.3S532.1,330.7,535,330.7Zm-.1,9.2c2.1,0,3.1-1.8,3.1-3.9s-1-3.9-3.1-3.9-3,1.8-3,3.9S532.8,339.9,534.9,339.9Z"/><path d="M554.1,341.1v-7a1.8,1.8,0,0,0-2-2,3.5,3.5,0,0,0-2.3,1.1v7.9h-1.7v-7c0-1.5-.7-2-2-2a3.5,3.5,0,0,0-2.3,1.1v7.9h-1.7V330.9h1l.6,1a4.1,4.1,0,0,1,2.8-1.2,2.9,2.9,0,0,1,2.8,1.3,5.6,5.6,0,0,1,3.2-1.3c2.2,0,3.3,1.3,3.3,3.4v7Z"/><path d="M562.8,330.7c3.3,0,4.7,2.3,4.7,5.3s-1.8,5.3-4.8,5.3-4.7-2.4-4.7-5.3S559.9,330.7,562.8,330.7Zm-.1,9.2c2.1,0,3.1-1.8,3.1-3.9s-1-3.9-3.1-3.9-3,1.8-3,3.9S560.7,339.9,562.7,339.9Z"/><path d="M194.5,365.5l-.6-1a4.2,4.2,0,0,1-3,1.2c-2.4,0-3.3-1.7-3.3-3.6v-6.8h1.7v6.8c0,1.6.9,2.2,2,2.2a3.4,3.4,0,0,0,2.5-1.1v-7.9h1.7v10.2Z"/><path d="M205.1,365.5v-7a1.7,1.7,0,0,0-2-2,5,5,0,0,0-2.8,1v8h-1.6V355.3h1l.6.9a5.5,5.5,0,0,1,3.1-1.1c2.6,0,3.3,1.4,3.3,3.4v7Z"/><path d="M214.6,350.2h1.6v5.6a5,5,0,0,1,2.4-.7c2.8,0,4.5,1.8,4.5,5s-2.3,5.6-5.3,5.6a6.5,6.5,0,0,1-3.2-.9Zm1.6,13.7a3.3,3.3,0,0,0,1.8.5c2.5,0,3.4-2.2,3.4-4.2s-.8-3.7-3-3.7a4.3,4.3,0,0,0-2.2.7Z"/><path d="M226.4,353.2a1,1,0,0,1-1-1.1,1,1,0,0,1,1-1.1,1,1,0,0,1,1.1,1.1A1.1,1.1,0,0,1,226.4,353.2Zm2.1,12.2a2.7,2.7,0,0,1-1.3.3c-1.3,0-1.7-.9-1.7-2.1v-8.3h1.6v8.2c0,.4.1.8.7.8h.4Z"/><path d="M237.9,364.8a5.4,5.4,0,0,1-3.3.9c-3,0-4.8-2-4.8-5.2s1.8-5.4,4.5-5.4,3.8,1.9,3.8,4.1a8.1,8.1,0,0,1-.1,1.6h-6.5c.1,1.7,1,3.5,3.3,3.5a4.5,4.5,0,0,0,2.6-.7Zm-1.4-5v-.7c0-1.5-.7-2.6-2.3-2.6s-2.6,1.7-2.7,3.3Z"/><path d="M247,365.5v-7a1.7,1.7,0,0,0-2-2,5,5,0,0,0-2.8,1v8h-1.6V355.3h1l.6.9a5.5,5.5,0,0,1,3.1-1.1c2.6,0,3.3,1.4,3.3,3.4v7Z"/><path d="M256.5,369.6V355.3h1.1l.5.9a4.3,4.3,0,0,1,2.8-1.1c2.7,0,4.4,2.2,4.4,5s-2,5.6-4.9,5.6a5.7,5.7,0,0,1-2.3-.5v4.4Zm1.6-5.8a4.9,4.9,0,0,0,2.2.5c2,0,3.3-1.5,3.3-4s-1.3-3.8-3-3.8a4.2,4.2,0,0,0-2.5,1Z"/><path d="M274.5,365.5l-.6-1a3.8,3.8,0,0,1-2.9,1.2c-2.5,0-3.3-1.7-3.3-3.6v-6.8h1.6v6.8c0,1.6.9,2.2,2,2.2a3.7,3.7,0,0,0,2.6-1.1v-7.9h1.6v10.2ZM270,353.4l1.9-3h1.8l-2.3,3Z"/><path d="M278.7,350.2h1.7v5.6a4.6,4.6,0,0,1,2.4-.7c2.7,0,4.4,1.8,4.4,5s-2.3,5.6-5.2,5.6a6.7,6.7,0,0,1-3.3-.9Zm1.7,13.7a3.2,3.2,0,0,0,1.7.5c2.6,0,3.4-2.2,3.4-4.2s-.7-3.7-3-3.7a3.8,3.8,0,0,0-2.1.7Z"/><path d="M292.6,365.4a2.5,2.5,0,0,1-1.2.3c-1.4,0-1.8-.9-1.8-2.1V350.2h1.7v13.3c0,.4.1.8.7.8h.4Z"/><path d="M295.6,353.2a1.1,1.1,0,0,1,0-2.2,1,1,0,0,1,1.1,1.1A1,1,0,0,1,295.6,353.2Zm2.1,12.2a2.5,2.5,0,0,1-1.2.3c-1.4,0-1.8-.9-1.8-2.1v-8.3h1.7v8.2c0,.4,0,.8.7.8h.3Z"/><path d="M306.7,365a5.5,5.5,0,0,1-3,.7c-2.5,0-4.7-1.8-4.7-5.2s2.2-5.4,5.2-5.4a4.4,4.4,0,0,1,2.5.6l-.4,1.3a4.3,4.3,0,0,0-2.1-.5c-2.1,0-3.5,1.2-3.5,4s1.6,3.8,3.3,3.8a4,4,0,0,0,2.3-.6Z"/><path d="M312.6,355.1c3.3,0,4.7,2.3,4.7,5.3s-1.8,5.3-4.8,5.3-4.7-2.4-4.7-5.3S309.7,355.1,312.6,355.1Zm-.1,9.2c2.1,0,3.1-1.8,3.1-3.9s-1-3.9-3.1-3.9-3,1.8-3,3.9S310.5,364.3,312.5,364.3Z"/><path d="M331.4,365.5l-.5-.9a4.3,4.3,0,0,1-2.8,1.1c-2.6,0-4.4-2.1-4.4-5s2-5.6,4.9-5.6a5.7,5.7,0,0,1,2.3.5v-5.4h1.6v15.3Zm-.5-8.5a4.9,4.9,0,0,0-2.2-.5c-2,0-3.2,1.5-3.2,4s1.2,3.8,2.9,3.8a3.8,3.8,0,0,0,2.5-1Z"/><path d="M343.1,364.8a6,6,0,0,1-3.4.9c-2.9,0-4.8-2-4.8-5.2s1.8-5.4,4.6-5.4,3.8,1.9,3.8,4.1a7.8,7.8,0,0,1-.2,1.6h-6.4a3.2,3.2,0,0,0,3.3,3.5,5,5,0,0,0,2.6-.7Zm-1.4-5v-.7c0-1.5-.7-2.6-2.3-2.6s-2.7,1.7-2.7,3.3Z"/><path d="M353.5,365.4a2.5,2.5,0,0,1-1.2.3c-1.4,0-1.8-.9-1.8-2.1V350.2h1.7v13.3c0,.4.1.8.7.8h.4Z"/><path d="M363.8,365.4a2.1,2.1,0,0,1-1.2.3,1.9,1.9,0,0,1-1.8-1.2,4.4,4.4,0,0,1-3.1,1.2,2.6,2.6,0,0,1-2.9-2.6c0-2.6,2.6-3.2,6-3.2,0-1.8,0-3.4-2.3-3.4a7.2,7.2,0,0,0-2.7.6l-.4-1.3a9.1,9.1,0,0,1,3.4-.7c3.1,0,3.7,1.7,3.7,4.5v3.7c0,.6,0,1,.7,1h.3Zm-3-4.4c-2.6,0-4.3.4-4.3,1.9a1.6,1.6,0,0,0,1.6,1.5,4.1,4.1,0,0,0,2.7-1.1Z"/><path d="M377.5,365a6,6,0,0,1-3,.7c-2.6,0-4.8-1.8-4.8-5.2s2.2-5.4,5.2-5.4a4.2,4.2,0,0,1,2.5.6L377,357a3.8,3.8,0,0,0-2.1-.5c-2,0-3.4,1.2-3.4,4s1.5,3.8,3.3,3.8a4.5,4.5,0,0,0,2.3-.6Z"/><path d="M380.2,353.2a1.1,1.1,0,0,1,0-2.2,1,1,0,0,1,1.1,1.1A1,1,0,0,1,380.2,353.2Zm2.1,12.2a2.5,2.5,0,0,1-1.2.3c-1.4,0-1.8-.9-1.8-2.1v-8.3H381v8.2c0,.4.1.8.7.8h.4Z"/><path d="M391.3,365.5l-.6-1a4.2,4.2,0,0,1-3,1.2c-2.4,0-3.3-1.7-3.3-3.6v-6.8h1.7v6.8c0,1.6.8,2.2,2,2.2a3.4,3.4,0,0,0,2.5-1.1v-7.9h1.7v10.2Z"/><path d="M402.3,365.5l-.4-.9a4.6,4.6,0,0,1-2.8,1.1c-2.6,0-4.4-2.1-4.4-5s1.9-5.6,4.8-5.6a5.7,5.7,0,0,1,2.3.5v-5.4h1.7v15.3Zm-.5-8.5a4.2,4.2,0,0,0-2.1-.5c-2.1,0-3.3,1.5-3.3,4s1.2,3.8,3,3.8a3.7,3.7,0,0,0,2.4-1Z"/><path d="M414.8,365.4a1.9,1.9,0,0,1-1.2.3,1.7,1.7,0,0,1-1.7-1.2,4.5,4.5,0,0,1-3.2,1.2,2.7,2.7,0,0,1-2.9-2.6c0-2.6,2.6-3.2,6.1-3.2,0-1.8-.1-3.4-2.3-3.4a6.7,6.7,0,0,0-2.7.6l-.4-1.3a8.1,8.1,0,0,1,3.3-.7c3.2,0,3.7,1.7,3.7,4.5v3.7c0,.6.1,1,.7,1h.4Zm-2.9-4.4c-2.7,0-4.4.4-4.4,1.9a1.6,1.6,0,0,0,1.6,1.5,4.4,4.4,0,0,0,2.8-1.1Z"/><path d="M423.6,365.5l-.4-.9a4.3,4.3,0,0,1-2.8,1.1c-2.6,0-4.4-2.1-4.4-5s1.9-5.6,4.8-5.6a5.1,5.1,0,0,1,2.3.5v-5.4h1.7v15.3Zm-.5-8.5a4.2,4.2,0,0,0-2.1-.5c-2,0-3.3,1.5-3.3,4s1.2,3.8,3,3.8a3.7,3.7,0,0,0,2.4-1Z"/><path d="M436.2,365.4a2.5,2.5,0,0,1-1.3.3,1.7,1.7,0,0,1-1.7-1.2,4.5,4.5,0,0,1-3.2,1.2,2.7,2.7,0,0,1-2.9-2.6c0-2.6,2.7-3.2,6.1-3.2,0-1.8,0-3.4-2.3-3.4a6.7,6.7,0,0,0-2.7.6l-.4-1.3a8.1,8.1,0,0,1,3.3-.7c3.2,0,3.7,1.7,3.7,4.5v3.7c0,.6.1,1,.7,1h.4Zm-3-4.4c-2.6,0-4.4.4-4.4,1.9a1.6,1.6,0,0,0,1.7,1.5,4.1,4.1,0,0,0,2.7-1.1Z"/><path d="M444.5,365.5v-7a1.7,1.7,0,0,0-2-2,5,5,0,0,0-2.8,1v8h-1.6V355.3h1l.6.9a5.5,5.5,0,0,1,3.2-1.1c2.5,0,3.2,1.4,3.2,3.4v7Z"/><path d="M449,353.4l1.9-3h1.8l-2.3,3Zm3.2,12a2.7,2.7,0,0,1-1.3.3c-1.3,0-1.7-.9-1.7-2.1v-8.3h1.6v8.2c0,.4.1.8.8.8h.3Z"/><path d="M462.5,365.4a2.5,2.5,0,0,1-1.3.3,1.7,1.7,0,0,1-1.7-1.2,4.5,4.5,0,0,1-3.2,1.2,2.7,2.7,0,0,1-2.9-2.6c0-2.6,2.7-3.2,6.1-3.2,0-1.8,0-3.4-2.3-3.4a6.7,6.7,0,0,0-2.7.6l-.4-1.3a8.1,8.1,0,0,1,3.3-.7c3.2,0,3.7,1.7,3.7,4.5v3.7c0,.6.1,1,.7,1h.4Zm-3-4.4c-2.6,0-4.4.4-4.4,1.9a1.6,1.6,0,0,0,1.7,1.5,4.1,4.1,0,0,0,2.7-1.1Z"/><rect class="a" x="97.2" y="237" width="63.9" height="64.71"/><path class="b" d="M113.3,277.5V260.2l-8.6,2.7-1.6-5.1,11.9-4.2h5.8v23.9h6l-.4,5.6H105.5l.4-5.6Z"/><path class="b" d="M131.8,256.2a22.7,22.7,0,0,1,10-2.6c8.1,0,11.3,3.2,11.3,7.2,0,2.4-1,5-4.7,6.7,4,.5,6.4,3.1,6.4,6.5,0,5.7-5.5,9.6-14.1,9.6-4,0-7.3-.8-9.4-2.1l2.2-5.2a20.7,20.7,0,0,0,7.2,1.6c3.6,0,6.1-1.1,6.1-3.6s-3.6-3.3-6.6-3.3a23.8,23.8,0,0,0-3.5.3v-5.7h2.6c3.8,0,6.3-.9,6.3-3.6s-2.2-2.8-4.8-2.8a14.4,14.4,0,0,0-7.1,1.7Z"/><path class="c" d="M238.3,54.8v-26h11.2c7,0,10.6,2.9,10.6,8.5s-3.6,8.8-11.4,8.8h-3.6v8.7Zm6.8-21v7.4h3.2c4.1,0,5-2.3,5-4s-1.9-3.4-4.6-3.4Z"/><path class="c" d="M272.8,34.4c8.2,0,11.1,4.5,11.1,10.3S279.7,55.2,273,55.2s-10.9-4.5-10.9-10.5S266,34.4,272.8,34.4Zm.1,15.9c2.6,0,4.1-2.2,4.1-5.3s-1.1-5.8-4.1-5.8-4,1.7-4,5.2S269.9,50.3,272.9,50.3Z"/><path class="c" d="M287.5,34.8h4.7l1.6,2.7a6,6,0,0,1,5.4-3.1,4.5,4.5,0,0,1,2.3.4l-1,5.1-1.7-.2a6.9,6.9,0,0,0-4.5,1.5V54.8h-6.8Z"/><path class="c" d="M335.1,28.8v5h-7.5v21h-6.7v-21h-7.7v-5Z"/><path class="c" d="M340.9,46.3c.2,1.9,2.4,3.5,5.4,3.5a13,13,0,0,0,5.7-1.2l1.3,4.8a15.8,15.8,0,0,1-7.8,1.8c-6.6,0-11.5-3.2-11.5-10.1s4.2-10.7,10.5-10.7,9.4,4.3,9.4,8.5a18.4,18.4,0,0,1-.4,3.4Zm6.3-3.3a1.7,1.7,0,0,0,.1-.7,2.7,2.7,0,0,0-3-2.9,3.3,3.3,0,0,0-3.5,3.6Z"/><path class="c" d="M382.4,42c0-1.6-.5-2.7-2.5-2.7a5.1,5.1,0,0,0-3.1,1.1V54.8h-6.7V42c0-1.6-.5-2.7-2.6-2.7a5.3,5.3,0,0,0-3.1,1.1V54.8h-6.8v-20h5.1l1.2,1.6a11.3,11.3,0,0,1,6.4-2c2.8,0,4.8.9,5.8,2a9.9,9.9,0,0,1,6.2-2c4.4,0,6.9,2.3,6.9,6.4v14h-6.8Z"/><path class="c" d="M394.1,36.1a21,21,0,0,1,8.2-1.7c7.7,0,9.5,3.4,9.5,8.9V49a1.2,1.2,0,0,0,1.4,1.3h.8l.9,3.8a8.4,8.4,0,0,1-4.2,1.2c-2.7,0-4.3-.9-5.1-2.6-.8,1.3-3.1,2.6-6.1,2.6s-6.6-1.4-6.6-5.6,5.7-6.5,12.1-6.5c0-2.3-.9-3.5-3.7-3.5a14.2,14.2,0,0,0-5.5,1ZM405,46.4c-3,.1-5.4.6-5.4,2.3a2,2,0,0,0,2.2,1.9,4.7,4.7,0,0,0,3.2-1.3Z"/><path class="c" d="M431.6,40.5a14,14,0,0,0-5.8-1.1c-1.9,0-2.7.5-2.7,1.2,0,2.5,10.2.8,10.2,7.5,0,4.3-3.4,7.1-9.9,7.1a16.2,16.2,0,0,1-7.4-1.9l1.4-4.7a16.8,16.8,0,0,0,6.4,1.4c2,0,3.1-.5,3.1-1.4s-10.5-.7-10.5-7.6c0-4.1,3.5-6.6,9.1-6.6a19.3,19.3,0,0,1,7.6,1.4Z"/><path class="a" d="M126.7,194.4a4.3,4.3,0,0,1-6.6-1.1,18.5,18.5,0,0,0-1.4,1.4c-.1.1-.1.5-.1.7a5.4,5.4,0,0,1-9.2,4.7L97.7,188.5a5.5,5.5,0,0,1,4.6-9.2,1.5,1.5,0,0,0,1.4-.5L119,163.4a1.2,1.2,0,0,0,.5-1.1,5.3,5.3,0,0,1,2.8-5.7,5.5,5.5,0,0,1,6.4,1l11.6,11.7a5.2,5.2,0,0,1,1,6.3,5.5,5.5,0,0,1-5.7,2.9,1.9,1.9,0,0,0-1,.3l-1.3,1.1a4.2,4.2,0,0,1,2.3,3.1,3.8,3.8,0,0,1-1,3.5c1.8,1.7,3.7,3.3,5.5,4.8L155.8,205l7.2,6.3c2.9,2.6,3.9,6,2.6,9.5a8.2,8.2,0,0,1-13.2,3c-2.4-2.4-4.4-5-6.6-7.5-6.3-7.1-12.5-14.3-18.7-21.5Zm5.7-17.4L121,165.5l-15.3,15.3,11.5,11.4Zm17.2,26.3-16.9-14.7-4,4q7.4,8.3,14.7,16.8l4.9-4.9Zm-.8,12.4c1.7,1.9,3.3,3.8,5.1,5.7a5.4,5.4,0,1,0,7.6-7.7l-4.3-3.8-1.4-1.2Zm-9.6-42.6a3.4,3.4,0,0,0-1.1-2.3l-5.5-5.4c-1.9-2-3.8-3.9-5.8-5.8a2.6,2.6,0,0,0-4.2.4,2.7,2.7,0,0,0,.5,3.6l8.2,8.2,3.2,3.2a2.6,2.6,0,0,0,3.1.5A2.7,2.7,0,0,0,139.2,173.1Zm-26.2,26a3.9,3.9,0,0,0,1.4-.4,2.6,2.6,0,0,0,.7-4.4l-4.3-4.3-7.2-7.3a2.7,2.7,0,0,0-3.9.1,2.6,2.6,0,0,0,0,3.7l11.6,11.7A14,14,0,0,0,113,199.1Zm20.2-15.5c-.4-.4-.7-.9-1.1-1.1a1.3,1.3,0,0,0-1.6.4l-7.4,7.4a1.5,1.5,0,0,0-.2,2.1,1.4,1.4,0,0,0,2.1-.2c2.5-2.4,5-4.9,7.4-7.4C132.7,184.5,132.8,184.1,133.2,183.6Zm20.4,23.2-1.9-1.7-6.4,6.5,1.6,1.8Z"/><path class="a" d="M99.6,217.3a17.7,17.7,0,0,1-.6-3,4.5,4.5,0,0,1,4.5-4.7h23.6a4.8,4.8,0,0,1,4.1,7,2.1,2.1,0,0,1-.4.6l1.1.7a7.3,7.3,0,0,1,2.5,6.9,1.3,1.3,0,0,1-1.2,1.2H98.1c-1.5,0-1.9-.4-1.9-1.9A7.2,7.2,0,0,1,99.6,217.3Zm32,5.9a.8.8,0,0,0,.1-.4,4.2,4.2,0,0,0-4.3-3.7H103.3l-1.3.2a3.7,3.7,0,0,0-2.9,3.9Zm-16.2-10.9H103.8a2.1,2.1,0,0,0-2.1,2.1,2,2,0,0,0,2.1,2h23.1a1.8,1.8,0,0,0,1.9-1.3,2,2,0,0,0-2.1-2.8Z"/><path class="a" d="M115.1,178.5a3.6,3.6,0,0,1-1.1-1,2.3,2.3,0,0,1,.2-1.4,3.5,3.5,0,0,1,1-1.1l4.5-4.5c.8-.8,1.6-.9,2.2-.3a1.3,1.3,0,0,1-.2,2.1l-5.5,5.5C116,178.1,115.6,178.2,115.1,178.5Z"/><path class="a" d="M112.7,180.8a1.5,1.5,0,0,1-1.3,1.4,1.5,1.5,0,0,1-1.5-1.4,1.3,1.3,0,0,1,1.4-1.3A1.3,1.3,0,0,1,112.7,180.8Z"/><path class="d" d="M165.4,86a26.9,26.9,0,0,0-2-2.7,2.6,2.6,0,0,0-2.7-1,3,3,0,0,0-2.5,2.2,16.7,16.7,0,0,0-.5,3.1c-.1.2.1.4.1.7l.3.9a.9.9,0,0,1-.7,1c-.5.1-.8-.2-1-.7a8.5,8.5,0,0,0-.6-1.7,9.3,9.3,0,0,0-5.7-4.2,14.6,14.6,0,0,0-2.2-.3,21,21,0,0,1-9.2-2.1h-.2v.3a6.4,6.4,0,0,0,6.1,5.2h1.9a.9.9,0,0,1,1,.9c0,.5-.4.8-1,.8s-2.3,0-3.4-.2a7.2,7.2,0,0,1-4.1-2.2c-.1-.1-.3-.2-.4-.4h-.2a14.3,14.3,0,0,0,.8,2.2,7.2,7.2,0,0,0,6.4,4h3.6c.6,0,1,.4.9.9s-.2.8-.7.8c-2.1,0-4.3.3-6.5-.5l-1.6-.6a14.6,14.6,0,0,0,2.7,2.4,13.2,13.2,0,0,0,7,2h2.2c.6,0,.9.3.9.8s-.3.9-1,.8a8.1,8.1,0,0,0-4,.9,16.3,16.3,0,0,1-7.2,1.5h-1.7l3.6,7.1.5-.3,2.9-2.3a9.6,9.6,0,0,1,5.5-1.9,11.7,11.7,0,0,0,6-1.6.8.8,0,0,1,1.2.2c.3.5.2.9-.4,1.2A11.5,11.5,0,0,1,153,105a7.5,7.5,0,0,0-4.8,1.6l-3.7,2.9c-1,.8-1.4.7-2-.5l-4.3-8.5c-.5-.9-.1-1.5.9-1.5l5.5-.3a15.7,15.7,0,0,0,2.8-.6h-.3a14.2,14.2,0,0,1-10-10,14.7,14.7,0,0,1-.4-3.6c-.1-1.5,0-3,0-4.6s.6-1.3,1.4-.8a18.4,18.4,0,0,0,9.6,2.7,11.4,11.4,0,0,1,8.3,3.7l.3.2a3,3,0,0,1,.2-1,4.7,4.7,0,0,1,7-3.4,10.6,10.6,0,0,1,1.5,1.5l1.9,2.4.4.3,1.3-4.2a5.1,5.1,0,0,1-3.4-1.9,4.8,4.8,0,0,1-.9-4,1,1,0,0,1,.9-.9,4.9,4.9,0,0,1,5.6,2.9l.2.4,1.6-1.5c.1-.1.1-.4.2-.5a4.6,4.6,0,0,1,6.5-3.1c.8.3.9.6.8,1.5a4.7,4.7,0,0,1-6.2,3.7c-.1,0-.4-.1-.5,0a13,13,0,0,0-3.5,4.9,7.9,7.9,0,0,1,2-.4,5.6,5.6,0,0,1,1.3,0,1.2,1.2,0,0,1,1,1,5,5,0,0,1-4.3,5.9H169a11,11,0,0,1,.3,1.6.8.8,0,0,1-.1.8,1,1,0,0,1-.8.4.8.8,0,0,1-.7-.7c-.2-1.1-.3-2.3-.5-3.4v-.5a1.2,1.2,0,0,0-1.4,1.3V92a15.1,15.1,0,0,1-.9,4.7.9.9,0,0,1-1.2.7,1,1,0,0,1-.4-1.3,13.2,13.2,0,0,0,.8-4.4,22.5,22.5,0,0,1,0-2.6A3.3,3.3,0,0,1,165.4,86Zm4-6.6a3.2,3.2,0,0,0-3.5-3.5A3.3,3.3,0,0,0,169.4,79.4ZM169,87c-.1.3.1.4.5.4a3.4,3.4,0,0,0,3.1-3.1c0-.4-.1-.5-.5-.5A3.3,3.3,0,0,0,169,87Zm9.3-13.1a2.9,2.9,0,0,0-3.9,2.1A2.8,2.8,0,0,0,178.3,73.9Z"/><path class="d" d="M162.1,99a.8.8,0,0,1,.8.9.9.9,0,0,1-.8.8.8.8,0,0,1-.8-.9A.9.9,0,0,1,162.1,99Z"/><path class="d" d="M162.3,85.6a.9.9,0,0,1-.9.9.9.9,0,0,1-.8-.9.8.8,0,0,1,.9-.8A.9.9,0,0,1,162.3,85.6Z"/><path class="e" d="M193.1,106.3v-2.6a3.2,3.2,0,0,1,2.3-3.1l2.8-.8c.2,0,.3-.1.3-.4h0a2.2,2.2,0,0,0-.6-2,3.3,3.3,0,0,1-.8-2.7,1.3,1.3,0,0,0-.4-1,4.1,4.1,0,0,1-.7-5.1,4.4,4.4,0,0,1,3.3-1.8,8.2,8.2,0,0,1,4.1.5,1.3,1.3,0,0,0,1.7-.2c.3-.4.7-.3,1,.1a4.7,4.7,0,0,1,.8,4,4.6,4.6,0,0,1-1.5,2.6.9.9,0,0,0-.3.7,3.7,3.7,0,0,1-.7,2.9,2.2,2.2,0,0,0-.6,2,.5.5,0,0,0,.4.6l2.7.7a3.2,3.2,0,0,1,2.3,3v5.7c0,.4-.2.7-.6.7s-.5-.3-.5-.7-.1-3.7-.1-5.6a1.9,1.9,0,0,0-1.5-2L204,101c-.3-.1-.4,0-.5.2a2.7,2.7,0,0,1-4.5.1.7.7,0,0,0-.8-.3l-2.5.7a2,2,0,0,0-1.4,2v5.4c0,.1.1.2,0,.3a.5.5,0,0,1-.6.6c-.3,0-.5-.2-.5-.6v-3.1Zm12.3-18.1c-.8.7-1.6.4-2.5.1l-.7-.2a6.5,6.5,0,0,0-3.4-.2,2.8,2.8,0,0,0-2.2,2.1,3.2,3.2,0,0,0,1.1,3l.6-1c.4-.7.5-.7,1.2-.4s2.5.9,3.8-.1a.8.8,0,0,1,1.2.2,3,3,0,0,1,.4.8A3.6,3.6,0,0,0,205.4,88.2Zm-1.7,4.5-1.5.5a5,5,0,0,1-2.7-.3h-.4c-.4.7-1.1,1.3-.8,2.2v.2a3.4,3.4,0,0,0,2.7,2.8h.3a3.3,3.3,0,0,0,2.6-2.6,13.3,13.3,0,0,0,0-2A2.4,2.4,0,0,0,203.7,92.7Zm-4,6.2c-.2,1.1,0,1.8.7,2.2a1.7,1.7,0,0,0,1.7,0c.7-.6.5-1.4.5-2.3A2.8,2.8,0,0,1,199.7,98.9Z"/><path class="e" d="M216.1,93.3l1.4.4a2.8,2.8,0,0,1,2.3,3c0,2.1-.1,4.2-.1,6.3,0,.1.1.3,0,.4s-.2.5-.6.5a.5.5,0,0,1-.5-.5V96.6a1.5,1.5,0,0,0-1.2-1.7l-2.3-.6a2.2,2.2,0,0,1-4-.1l-2.9.9a1.4,1.4,0,0,0-.7,1.3v2.7a.5.5,0,0,1-.6.6.5.5,0,0,1-.5-.5,2.4,2.4,0,0,1,0-1.2,9.7,9.7,0,0,1,0-1.7,2.6,2.6,0,0,1,1.9-2.5l1.7-.5h-1.1c-.5-.1-.7-.2-.7-.7s-.1-3.5,0-5.3a4.9,4.9,0,0,1,9.7.3c.1,1.7,0,3.3,0,4.9s-.2.7-.7.8h-1.1Zm.7-1.2V87.6a3.7,3.7,0,0,0-3.6-3.5,3.5,3.5,0,0,0-3.8,3.3c-.1,1.5,0,3-.1,4.6h1.3a9.4,9.4,0,0,1-.6-1.5,12.1,12.1,0,0,1-.1-1.9,2.1,2.1,0,0,1,.7-1.5,10.5,10.5,0,0,1,.8-1.1.7.7,0,0,1,.5-.3c.2,0,.5.2.5.4a2.6,2.6,0,0,0,1.5,1.4l1.7.6c.4,0,.6.2.6.5s.1,2.3-.8,3.3h1.4Zm-4.9-4.6c-.4.4-.8.7-.8,1.2v1.4a2.1,2.1,0,0,0,1.7,1.8,2,2,0,0,0,2.2-2.1c0-.4,0-.6-.4-.7A5,5,0,0,1,211.9,87.5Zm.3,5.5c-.1.7,0,1,.3,1.2a1.3,1.3,0,0,0,1.2,0,1,1,0,0,0,.2-1.2Z"/><path class="e" d="M191.4,94.3a2.4,2.4,0,0,1-4.2,0l-2.5.7a1.4,1.4,0,0,0-.9,1.5v6.4a.9.9,0,0,1-.1.5c0,.3-.2.5-.5.4s-.4-.2-.6-.4V96.5a2.6,2.6,0,0,1,2-2.7l2.1-.6c.3-.1.3-.2.3-.4a2,2,0,0,0-.4-1.5,2.6,2.6,0,0,1-.7-2.2,1.2,1.2,0,0,0-.3-.9,3.5,3.5,0,0,1-.9-3.6,3.3,3.3,0,0,1,2.9-2.2,6,6,0,0,1,3.5.4,1.2,1.2,0,0,0,1.5-.2c.2-.3.6-.2.9.2a4.1,4.1,0,0,1,.7,3.4,3.7,3.7,0,0,1-1.2,2,.9.9,0,0,0-.3.7,3.6,3.6,0,0,1-1,2.8c-.2.3-.1.9-.1,1.4h.3l2.1.6a2.7,2.7,0,0,1,2,2.7v2.4c0,.5-.3.8-.6.8s-.6-.3-.6-.8V96.6a1.5,1.5,0,0,0-1.2-1.7l-2-.6Zm1.1-7.3a2.9,2.9,0,0,0,.3-3.1,2.1,2.1,0,0,1-1.9,0,5.9,5.9,0,0,0-3.2-.3,2.1,2.1,0,0,0-1.9,1.3,2.4,2.4,0,0,0,.7,2.6,4.3,4.3,0,0,1,.4-.7c.3-.7.5-.7,1.1-.4a2.7,2.7,0,0,0,3.1-.1c.3-.3.8-.1,1.1.2S192.3,86.9,192.5,87Zm-1.2.5a3.5,3.5,0,0,1-3.3.2h-.2a3.4,3.4,0,0,0-.7,1.1,2.5,2.5,0,0,0,1.4,2.8,1.5,1.5,0,0,0,1.6,0C191.6,90.6,191.8,89.5,191.3,87.5Zm-.9,5.2a2.8,2.8,0,0,1-2.2,0,1.4,1.4,0,0,0,.5,1.5,1.1,1.1,0,0,0,1.2,0C190.5,93.9,190.4,93.3,190.4,92.7Z"/><path class="e" d="M206.3,81v3.1a.5.5,0,0,0,.4.6,2.6,2.6,0,0,1,1,1.3c.2.5.1.8-.2.9a.5.5,0,0,1-.8-.4,1.8,1.8,0,0,0-1.1-1l-2.1-.6-.4.2c-.7,1.4-3.2,1.4-3.8,0l-.4-.2-2.1.6a1.4,1.4,0,0,0-1.2,1.5v.3a.6.6,0,0,1-.6.5c-.3-.1-.5-.2-.5-.6a2.5,2.5,0,0,1,1.2-2.5c.3-.2.4-.3.4-.6-.1-2-.1-4.1,0-6.1a5.2,5.2,0,0,1,5.2-5.2,5.2,5.2,0,0,1,5,5V81Zm-9.1,3.2,1.6-.5h.2a1.7,1.7,0,0,0-.2-1.2,4,4,0,0,1-.8-1.6,7.1,7.1,0,0,1-.1-1.5c0-.7.1-.8.8-1s2.6-.7,3.2-2.1a.7.7,0,0,1,.5-.3.9.9,0,0,1,.5.3,4.4,4.4,0,0,1,.8,1.1,3.7,3.7,0,0,1,.7,1.2,10.5,10.5,0,0,1-.1,2.5,1.7,1.7,0,0,1-.7,1.3c-.3.4-.2.8-.3,1.2a.2.2,0,0,0,.2.2l1.6.5h0c0-2.2.1-4.3,0-6.4a3.8,3.8,0,0,0-3.9-3.7,4,4,0,0,0-4,4.1v6.1Zm5.2-6.5a5.3,5.3,0,0,1-2.6,1.5c-.7.3-.7.3-.7,1.1a2,2,0,0,0,2,2,2,2,0,0,0,2.2-1.9v-.9A1.8,1.8,0,0,0,202.4,77.7Zm-2.2,5.7c0,.5-.2,1.1.4,1.4a1.5,1.5,0,0,0,1.3,0c.4-.4.3-.9.3-1.4Z"/><path class="f" d="M239.5,77.6h.7a2,2,0,0,1,1.7,2.2c0,1.3-.1,2.7-.1,4v2.4a2.1,2.1,0,0,1,2,.3,2.2,2.2,0,0,1,.9,2l.7-.4a1.5,1.5,0,0,1,.1-1.9,2.6,2.6,0,0,1,2.2-.7,2.9,2.9,0,0,1,1.8,1.1V85.5l-.6-6.9a2.1,2.1,0,0,1,1-2,2,2,0,0,1,2.2,0h.2a11.5,11.5,0,0,1,.6-1.7,1.9,1.9,0,0,1,1.7-.8c1.1,0,1.8.8,2,2.4a2,2,0,0,1,2.7.2c.8.8.6,1.8.6,2.8h.4a1.9,1.9,0,0,1,2.1,2c0,.9-.1,1.9-.1,2.8s-.2,3.9-.4,5.9a11.1,11.1,0,0,1-.7,2.2,10.9,10.9,0,0,1-.5,1.7.4.4,0,0,0,.2.5,1.7,1.7,0,0,1,.5,1.2v13.2c0,.7-.3.9-1,.9H230c-.9,0-1.1-.2-1.1-1.1V94.2a1.7,1.7,0,0,1,.6-1.5.6.6,0,0,0,.1-.4,3.1,3.1,0,0,0-.7-.9l-1.3-1a5.7,5.7,0,0,1-1.5-2.2,16.2,16.2,0,0,0-1-1.8c-.3-.5-.7-1-.4-1.7a2.3,2.3,0,0,1,1.8-1.2,3,3,0,0,1,2.2.8l.4.3c-.1-.9-.1-1.7-.2-2.5s-.3-3.7-.5-5.5a2,2,0,0,1,1.1-2,2,2,0,0,1,2.2.1h.2a2.4,2.4,0,0,1,.9-2.1l1.2-.5a1.8,1.8,0,0,1,1.6.8c.3.4.4,1,.7,1.5l1-.3a2,2,0,0,1,2.1,2A6.6,6.6,0,0,1,239.5,77.6Zm-4.7,21.5c.3.7.8,1.3,1.1,2a5.1,5.1,0,0,0,2.1,2.7,5.7,5.7,0,0,1,1.1,1.1c.3.4.5.6,1,.6a.7.7,0,0,1,.8.7.7.7,0,0,1-.8.7h-.9c-.1.1-.2.2-.2.3a5.6,5.6,0,0,0,0,1.3h10.4v-1.6h-2.6a.7.7,0,0,1-.7-.7.6.6,0,0,1,.7-.7.7.7,0,0,0,.8-.6,1.4,1.4,0,0,1,.2-.6,12.7,12.7,0,0,0,.9-4.3l.3-6.4v-.2a.6.6,0,0,0-.5-.5.7.7,0,0,0-.6.4,2,2,0,0,0-.1.7c0,.9-.1,1.8-.1,2.7s-.4.9-.8.8-.7-.3-.7-.9.1-2.8.2-4.1.1-1.5.1-2.3-.1-.6-.5-.6-.5.1-.6.5a.6.6,0,0,0-.1.4c0,.6-.1,1.2-.1,1.7l-.3,4.6c0,.3-.1.6-.4.6h-.7a1.5,1.5,0,0,1-.4-.8c-.1-2.7-.1-5.4-.2-8.1a.6.6,0,0,0-.1-.4c-.1-.2-.3-.5-.5-.5s-.5.1-.6.4v.4c-.1,2.2-.1,4.4-.2,6.5a11.5,11.5,0,0,1-.1,1.9.7.7,0,0,1-.7.7c-.4.1-.7-.2-.7-.7a.3.3,0,0,1-.1-.2c-.1-2-.3-4-.5-6,0-.2-.1-.4-.1-.6a.7.7,0,0,0-.6-.4c-.4.1-.5.3-.5.6v.4c.2,3,.5,6,.7,8.9,0,.5.1,1,.1,1.4a.7.7,0,0,1-.6.7.6.6,0,0,1-.8-.5v-.2l-1.5-1.6A1,1,0,0,0,234.8,99.1Zm11.9-11.9a11.4,11.4,0,0,1,1,1.9,5.7,5.7,0,0,0,2.4,2.9,3.7,3.7,0,0,1,1.5,2,.3.3,0,0,0,.3.3h7a.3.3,0,0,0,.3-.3l.6-1.8a13.6,13.6,0,0,0,.9-4.8c.1-1.8.1-3.7.2-5.6v-.3c-.1-.2-.3-.4-.4-.4l-.6.2a1.3,1.3,0,0,0-.1.6c-.1,1-.1,1.9-.2,2.9s-.3.9-.8.8-.7-.3-.7-.9l.3-5.1V78.2c0-.3-.1-.5-.4-.5a.6.6,0,0,0-.7.4.6.6,0,0,1-.1.4c0,.9-.1,1.8-.1,2.7l-.3,3.7c0,.4-.2.7-.6.7a.7.7,0,0,1-.8-.4v-.5l-.3-7.7v-.6c0-.5-.2-.7-.6-.7s-.6.2-.6.7v.4c-.1,2.6-.1,5.3-.2,7.9,0,.6-.3.9-.7.9s-.8-.2-.8-.8-.3-3.1-.5-4.7a9.7,9.7,0,0,0-.1-1.7,1.5,1.5,0,0,0-.5-.6c-.1-.1-.4,0-.5.2s-.2.4-.2.6c.2,2,.3,4,.5,6l.3,4.3a.8.8,0,0,1-.5.9.9.9,0,0,1-.9-.6V89l-1.4-1.6A1.1,1.1,0,0,0,246.7,87.2Zm-15.6,5.1h6c0-.6-.1-1.3-.1-2a1.9,1.9,0,0,1,1.5-2.1,6.5,6.5,0,0,1,1.4,0,11.3,11.3,0,0,0,.3-1.8c.1-2.2.2-4.4.2-6.6v-.3c-.1-.1-.3-.4-.5-.4a.7.7,0,0,0-.5.3.7.7,0,0,0-.1.5c-.1,1-.1,1.9-.2,2.9s-.3.9-.7.9a.7.7,0,0,1-.7-.9c0-1,.1-1.9.1-2.8s.1-2.4.2-3.6a.6.6,0,0,0-.5-.7c-.3-.1-.6.2-.7.6a1.1,1.1,0,0,1-.1.5l-.3,6.1c-.1.5-.4.8-.8.8s-.7-.3-.7-.9l-.3-8.1c0-.7-.2-1-.5-1s-.6.3-.7.9c-.1,2.8-.1,5.5-.2,8.2,0,.6-.3.9-.8.9s-.7-.3-.7-.9-.3-3.3-.4-5-.1-.9-.2-1.4a1.5,1.5,0,0,0-.5-.6l-.6.3c-.1.1-.1.4-.1.5.2,2.7.5,5.4.7,8.1,0,.7.1,1.5.1,2.3s-.2.7-.6.8-.6-.1-.8-.5a.4.4,0,0,0-.1-.3l-1.5-1.6a1.1,1.1,0,0,0-1.5-.2l1.1,1.9a5.4,5.4,0,0,0,2.1,2.8A3.4,3.4,0,0,1,231.1,92.3Zm28.8,16.2V99.6h-9v8.9Zm-21.8-2.7-1-.9a6.3,6.3,0,0,1-2.4-2.7,10.1,10.1,0,0,0-1.2-2.3,1.2,1.2,0,0,1,0-1.7l.4-.6h-3.4v10.9h6.9C237.6,107.6,237.2,106.6,238.1,105.8Zm21.8-10h-9V98h9Zm-29.5.3h7l-.2-2.3h-6.4c-.2,0-.4,0-.4.3Zm7.2,2.3c.1-.9-.1-1-.9-.7Zm11.8,7v-1h-.1l-.3,1Z"/><path class="f" d="M243.5,106.9a.7.7,0,0,1-.8-.7.8.8,0,0,1,.8-.7.7.7,0,0,1,0,1.4Z"/><path class="a" d="M328.7,93a2.3,2.3,0,0,1-3.6-.7l-.8.8v.4a2.9,2.9,0,0,1-1.6,3.1,2.8,2.8,0,0,1-3.4-.6q-3.2-3-6.3-6.3a2.7,2.7,0,0,1-.5-3.3,2.8,2.8,0,0,1,3-1.6.9.9,0,0,0,.7-.3l8.3-8.3c.2-.2.3-.3.2-.6a3,3,0,0,1,1.6-3,2.7,2.7,0,0,1,3.4.5l6.3,6.3a2.9,2.9,0,0,1,.5,3.4,3.2,3.2,0,0,1-3.1,1.6c-.1-.1-.3,0-.5.1l-.7.6a2.7,2.7,0,0,1,1.3,1.7,2.3,2.3,0,0,1-.6,1.9l3,2.6,8.4,7.4,3.9,3.4a4.4,4.4,0,0,1,1.4,5.1,4.4,4.4,0,0,1-7.1,1.6c-1.3-1.3-2.4-2.7-3.6-4-3.3-3.9-6.7-7.8-10.1-11.6A.3.3,0,0,0,328.7,93Zm3-9.5-6.1-6.1-8.3,8.2,6.2,6.2ZM341,97.7l-9.1-7.9-2.2,2.1,8,9.2,2.6-2.7Zm-.4,6.7,2.7,3.1a2.9,2.9,0,0,0,4.3.1,2.8,2.8,0,0,0-.2-4.2l-2.3-2.1-.7-.6Zm-5.2-23a2,2,0,0,0-.6-1.2l-3-2.9c-1-1.1-2-2.1-3.1-3.1a1.5,1.5,0,0,0-2.3.2,1.4,1.4,0,0,0,.3,1.9l4.4,4.4,1.8,1.8a1.4,1.4,0,0,0,1.6.3A1.6,1.6,0,0,0,335.4,81.4ZM321.3,95.5l.7-.2a1.5,1.5,0,0,0,.4-2.4l-2.3-2.3-3.9-3.9a1.4,1.4,0,0,0-2.1,0,1.3,1.3,0,0,0,0,2q3,3.1,6.3,6.3Zm10.8-8.4c-.2-.2-.3-.5-.5-.6a.7.7,0,0,0-.9.2l-4,4.1a.7.7,0,0,0-.1,1.1.8.8,0,0,0,1.1-.1l4-4A1.6,1.6,0,0,0,332.1,87.1Zm11.1,12.5-1-.9-3.5,3.5.9,1Z"/><path class="a" d="M314,105.3a11,11,0,0,1-.3-1.6,2.4,2.4,0,0,1,2.4-2.5c4.3-.1,8.5-.1,12.8,0a2.5,2.5,0,0,1,2.1,3.7c0,.1-.1.2-.1.3l.5.4a4.2,4.2,0,0,1,1.4,3.8c0,.3-.3.5-.7.6H313.2c-.8,0-1-.2-1-1A3.7,3.7,0,0,1,314,105.3Zm17.3,3.2v-.2a2.2,2.2,0,0,0-2.3-2H315.3a2,2,0,0,0-1.6,2.1Zm-8.8-5.9h-6.2a1.1,1.1,0,1,0,0,2.2h11.3a4,4,0,0,0,1.1,0,1.1,1.1,0,0,0,1.1-.7,1.1,1.1,0,0,0-1.2-1.5Z"/><path class="a" d="M322.4,84.4c-.2-.2-.5-.3-.6-.6a.9.9,0,0,1,.1-.7c.1-.3.3-.4.5-.6l2.5-2.5c.4-.4.8-.5,1.2-.1s.3.7-.2,1.1L323,84Z"/><path class="a" d="M321.1,85.6a.7.7,0,0,1-.7.7.7.7,0,0,1-.8-.7.7.7,0,0,1,.7-.7A.8.8,0,0,1,321.1,85.6Z"/><path class="g" d="M387,84.4c-.1,2-.1,4-.3,6a21.6,21.6,0,0,1-4,10.9,24.3,24.3,0,0,1-9.2,7.9l-2.2.7a3.1,3.1,0,0,1-2.3-.3,24.9,24.9,0,0,1-6.5-4.2,22.9,22.9,0,0,1-7.1-11.9,24.6,24.6,0,0,1-.7-6V79.8c0-.7.1-.9.8-1.1a55.9,55.9,0,0,0,8.9-3.3c1.8-.8,3.6-1.8,5.4-2.8a1.8,1.8,0,0,1,2,0,57,57,0,0,0,12.6,5.6l1.7.5c.6.2.8.4.8,1v4.7Zm-1.7.9V80.6c0-.4-.1-.5-.5-.6a61.6,61.6,0,0,1-13.7-5.9h-.6L366.9,76a55.3,55.3,0,0,1-10.2,4c-.3.1-.4.2-.4.6v6.9a23.4,23.4,0,0,0,1.3,7.9,21.9,21.9,0,0,0,11.2,12.3,3.5,3.5,0,0,0,3.4.3,22.3,22.3,0,0,0,6.9-4.9A20.9,20.9,0,0,0,385,91.6,44.3,44.3,0,0,0,385.3,85.3Z"/><path class="g" d="M368.4,92.4l.3-.5,7.3-7.3a2.7,2.7,0,0,1,3.3-.6,2.4,2.4,0,0,1,.7,3.8c-1,1.2-2.1,2.2-3.2,3.3l-6.5,6.6a2.6,2.6,0,0,1-2.9.7,3,3,0,0,1-1.1-.6l-4.5-4.6a2.5,2.5,0,0,1,2-4.4,2.6,2.6,0,0,1,1.8.9l2.4,2.4Zm-4.8-2.1c-.3.1-.5.1-.7.3s-.5,1,.1,1.5,2.9,3,4.4,4.4,1.1.7,1.7,0l8.3-8.3a8,8,0,0,0,1.3-1.3,1,1,0,0,0-1.4-1.4l-.3.4-8,8c-.6.5-.9.5-1.5-.1s-2.1-2-3.1-3.1Z"/><path class="g" d="M357.8,83.4V82c0-.5.2-.7.7-.9l4.1-1.5a.8.8,0,0,1,1.1.5c.2.4,0,.8-.6,1l-3.3,1.2a.5.5,0,0,0-.4.5v2c0,.6-.3.9-.7.9a.8.8,0,0,1-.9-.9Z"/><path class="g" d="M375,104.5c-.2-.2-.5-.3-.6-.5a1.1,1.1,0,0,1,.1-.8c0-.2.3-.4.5-.5a27.2,27.2,0,0,0,4-4.3c0-.1.1-.2.1-.3s.8-.5,1.2-.2a.8.8,0,0,1,.1,1.1,21.5,21.5,0,0,1-1.8,2.4,37.1,37.1,0,0,1-2.9,2.7Z"/><path class="g" d="M373.1,105.7a.8.8,0,0,1-.8-.8.9.9,0,0,1,.9-.8.8.8,0,0,1,.7.8A.8.8,0,0,1,373.1,105.7Z"/><path class="g" d="M365.2,80.2a.9.9,0,0,1-.7-.9.8.8,0,0,1,.8-.7.9.9,0,0,1,.8.8A.9.9,0,0,1,365.2,80.2Z"/><path class="h" d="M456.5,101.7l-.8.7-1.3-1.5c-.1-.1-.1-.4-.1-.6v-.7a9.6,9.6,0,0,1-5.3,0c0,.1-.1.2,0,.3a1.9,1.9,0,0,1-.7,1.7l-3.9,4.4-.3.3a.6.6,0,0,0,0,.8.5.5,0,0,0,.8-.1,37,37,0,0,0,2.8-2.8l1.8-1.7.5-.3h3.2a.5.5,0,0,1,.5.3l4.5,4.4c.1,0,.1.1.2.2a.5.5,0,0,0,.7,0,.5.5,0,0,0,.1-.8l-1-1-.3-.4.8-.7,1.4,1.5a1.7,1.7,0,0,1-.2,2.2,1.6,1.6,0,0,1-2.3-.1l-4.3-4.2-.6-.3h-2.1a.9.9,0,0,0-.7.3l-4.1,4.2a1.7,1.7,0,0,1-2.5-2.3l4.2-4.6c.5-.6.3-1.1.3-1.7s-.1-.1-.2-.2a8.2,8.2,0,0,1-3.8-3.8.5.5,0,0,0-.5-.3,1.8,1.8,0,0,0-1.7.6l-4.4,3.9a1.6,1.6,0,0,1-2.6-.4,1.6,1.6,0,0,1,.4-2l3.1-3.2a3.7,3.7,0,0,0,1.2-1.3c.3-.5.1-1.2.1-1.8a2.1,2.1,0,0,0-.7-1.8l-3.8-3.7a1.7,1.7,0,0,1,.7-2.8,1.7,1.7,0,0,1,1.7.4l4.7,4.3a2.2,2.2,0,0,0,1.6.2c.1,0,.1-.2.2-.2a7.8,7.8,0,0,1,3.8-3.8c.2-.1.2-.3.3-.5a1.9,1.9,0,0,0-.7-1.7L446,79.7l.8-.7,1,1.1.2.2a2.3,2.3,0,0,1,.9,2.4,8.3,8.3,0,0,1,5.4,0v-.4a1.9,1.9,0,0,1,.6-1.6l3.9-4.3.3-.4c.2-.3.3-.6,0-.9s-.5-.1-.8.1l-2.2,2.3-2.4,2.3-.5.2h-3.1l-.6-.2L445,75.3l-.3-.2h-.6a.5.5,0,0,0,0,.7l1.1,1.3.9,1-.8.7c-.8-.8-1.5-1.7-2.2-2.5l-.2-.4a1.6,1.6,0,0,1,2.5-1.8l.5.4,4.1,4.1.6.2h2.1a.7.7,0,0,0,.6-.3l4.2-4.1a1.6,1.6,0,0,1,2-.4,1.6,1.6,0,0,1,.4,2.6c-1.3,1.6-2.7,3.2-4.1,4.7s-.3,1.1-.4,1.6l.3.2a8.9,8.9,0,0,1,3.8,3.9l.4.2a1.8,1.8,0,0,0,1.7-.5l4.5-4a1.6,1.6,0,0,1,2-.2,1.6,1.6,0,0,1,.7,1.7,2.7,2.7,0,0,1-.6,1l-4.1,4.1a.9.9,0,0,0-.3.7,6.7,6.7,0,0,1,0,2,.9.9,0,0,0,.3.7l4.2,4.2a1.6,1.6,0,0,1,.5,1.7,1.7,1.7,0,0,1-2.8.7l-4.7-4.2a3,3,0,0,0-1.6-.3l-.2.3a9.3,9.3,0,0,1-3.8,3.8.5.5,0,0,0-.3.5,1.7,1.7,0,0,0,.6,1.6Zm-5.7-2.8a4.3,4.3,0,0,1,.5-3,2,2,0,0,1,2.5-1.1l3.2,1.3a.6.6,0,0,0,.7-.1,8.7,8.7,0,0,0,1.7-4.7,7.8,7.8,0,0,0-7-7.9.5.5,0,0,0-.5.3,3.9,3.9,0,0,0,.9,3.9L454,89a3.1,3.1,0,0,1,.5,1c.4,1-1,3.2-2.7,2.7l-1.1-.4-1.9-1a3.4,3.4,0,0,0-1.7-.5,10.7,10.7,0,0,0-3,.6c-.2.1-.2.2-.2.4a7.6,7.6,0,0,0,4.9,6.5A9.5,9.5,0,0,0,450.8,98.9Zm-.1-15.4a7.5,7.5,0,0,0-6.7,6.7l.9-.2a5.5,5.5,0,0,1,5,.6l1.9,1c.6.2.9.1,1.3-.5a1,1,0,0,0,0-1.4l-1-1.2a4.7,4.7,0,0,1-1.4-2.9A14.7,14.7,0,0,1,450.7,83.5Zm-7.6,4.9h-.6a1.4,1.4,0,0,1-1.1-.5l-4.7-4.2-.3-.3a.6.6,0,0,0-.7.1c-.3.3-.2.5,0,.8l.2.2,4.4,4.4a1.1,1.1,0,0,1,.2.6v3.1a1.4,1.4,0,0,1-.2.6,25,25,0,0,0-2.3,2.3l-2.3,2.2c-.2.3-.3.5,0,.8s.5.2.7,0,.3-.2.4-.3l4.7-4.2a1.4,1.4,0,0,1,.9-.3h.7c-.1-1-.3-1.8-.3-2.7S443,89.4,443.1,88.4Zm17,5.4h.6a1.4,1.4,0,0,1,1.2.4c1.5,1.5,3.1,2.9,4.7,4.3l.4.2h.6a.8.8,0,0,0,0-.7l-.2-.2c-1.5-1.5-2.9-3-4.4-4.4l-.3-.6V89.5c.1-.2.1-.4.3-.5l1.7-1.8a37,37,0,0,0,2.8-2.8.5.5,0,0,0,.1-.8.6.6,0,0,0-.8,0l-.3.2c-1.4,1.4-2.9,2.7-4.4,4a1.9,1.9,0,0,1-1.7.7h-.3A9.5,9.5,0,0,1,460.1,93.8Zm-3.6,3.3a12.5,12.5,0,0,0-3-1.2.9.9,0,0,0-1,.2,3.2,3.2,0,0,0-.6,2.5.3.3,0,0,0,.3.3A7.8,7.8,0,0,0,456.5,97.1Z"/><path class="h" d="M470.5,88.6v5h-3.6c-.4-.4-1.1-.7-1.2-1.2a4.5,4.5,0,0,1,0-2.3c.1-.5.8-.9,1.2-1.3h3.6Zm-1.1,1.1h-1.7l-.5.3a1.4,1.4,0,0,0-.6,1.4c.1.3.6,1.1.9,1.1h1.9Z"/><path class="h" d="M451.6,77.2h-.8a1.5,1.5,0,0,1-1.6-1.5,6.7,6.7,0,0,1,0-2,1.6,1.6,0,0,1,1.6-1.5h1.7a1.6,1.6,0,0,1,1.6,1.6,5.4,5.4,0,0,1,0,1.8,1.6,1.6,0,0,1-1.7,1.6Zm.1-3.9h-.8a.5.5,0,0,0-.6.6,4.3,4.3,0,0,0,0,1.6c0,.4.2.6.5.6h1.6a.5.5,0,0,0,.6-.6v-.8C453,73.3,453,73.3,451.7,73.3Z"/><path class="h" d="M437.7,91.3c.2.6-.2,1.1-.7,1.6a2.7,2.7,0,0,1-1.7.8,2.6,2.6,0,0,1-1.9-.8,2.2,2.2,0,0,1-.7-1.7,2.2,2.2,0,0,1,.8-1.9,2.2,2.2,0,0,1,1.7-.7,2.4,2.4,0,0,1,1.9.8C437.7,90.1,437.7,90.1,437.7,91.3Zm-1.1-.2a1.3,1.3,0,0,0-1.3-1.4,1.3,1.3,0,0,0-1.5,1.3c0,1,.5,1.5,1.4,1.5A1.3,1.3,0,0,0,436.6,91.1Z"/><path class="h" d="M451.7,110a2.5,2.5,0,1,1-.1-5,2.5,2.5,0,0,1,.1,5Zm1.3-2.5a1.4,1.4,0,0,0-1.4-1.4c-.7.1-1.4.7-1.3,1.4a1.3,1.3,0,0,0,1.3,1.4A1.4,1.4,0,0,0,453,107.5Z"/><path class="h" d="M457.2,104l-.8-.8.8-.7.8.8Z"/><path class="h" d="M456.7,88.9h1.1v1h-1.1Z"/><path class="h" d="M456.7,86.7v1h-1.1v-1Z"/><path class="i" d="M409.8,95.2h-5.9v13.3c0,1.2-.4,1.5-1.5,1.5h-3.9c-.8,0-1.2-.4-1.2-1.3V81a1.2,1.2,0,0,0-.4-.9,4.7,4.7,0,0,1-.5-5.4,4.8,4.8,0,0,1,4.8-2.4,4.7,4.7,0,0,1,4.1,3.9,4.9,4.9,0,0,1-1.1,4,.9.9,0,0,0-.3,1h11.9a4,4,0,0,1,4.3,4.3v.8h5.3a1.3,1.3,0,0,1,1.4,1.4V99c0,.9-.4,1.3-1.4,1.3H414a4,4,0,0,1-4.2-4.2ZM403.9,93h7.3a37.5,37.5,0,0,1,6.7.2V85.5a1.9,1.9,0,0,0-2.1-2.1H403.9Zm-2.3,14.8v-26h-2.1v26Zm22.9-9.7v-.2c0-3,0-6,.1-9.1,0-.2-.2-.3-.4-.3h-4.1v.5c-.1,3,.2,6-.1,9ZM400.6,79.6a2.6,2.6,0,0,0,2.6-2.6,2.8,2.8,0,0,0-2.6-2.6A2.6,2.6,0,0,0,398,77,2.6,2.6,0,0,0,400.6,79.6ZM412,95.2v1.1a1.8,1.8,0,0,0,1.8,1.8h2.6a1.4,1.4,0,0,0,1.5-1.5,1.5,1.5,0,0,0-1.5-1.4H412Z"/><path class="j" d="M479.6,83.3V81.6a1,1,0,0,1,.7-1.1,17.3,17.3,0,0,1,11-.5,20.1,20.1,0,0,1,6.1,2.9.4.4,0,0,0,.6,0,20.7,20.7,0,0,1,9.2-3.5,16,16,0,0,1,7.8,1.1c.7.2.8.5.8,1.2v1.6h2.4c.8.1,1.1.4,1.1,1.2v24.3c0,.9-.3,1.2-1.2,1.2H477.3c-.9,0-1.2-.3-1.2-1.2V84.6c0-1,.3-1.3,1.2-1.3Zm1.8,21.6c5.5-1.6,10.6-.5,15.4,2.4V85c0-.2,0-.4-.3-.5s-2.5-1.5-3.9-2.1a15.8,15.8,0,0,0-10.7-.6c-.4.2-.5.3-.5.7v22.4Zm32.6,0V82.4c0-.3,0-.4-.3-.5s-2.4-.6-3.6-.7A17.6,17.6,0,0,0,499,84.4a.8.8,0,0,0-.4.7v22.2C503.5,104.4,508.5,103.3,514,104.9ZM478,85.2v23h16.5l-.2-.2c-4.3-2.1-8.8-2.8-13.4-.9H480c-.4-.2-.4-.6-.4-1V85.2Zm37.8,0v21.1a.9.9,0,0,1-1.2.8l-1-.4a15.5,15.5,0,0,0-10.4.4l-2.2,1h16.5v-23Z"/><path class="k" d="M269.6,92.6A17.4,17.4,0,1,1,286.9,110,17.4,17.4,0,0,1,269.6,92.6ZM287,109a16.4,16.4,0,1,0-16.4-16.4A16.4,16.4,0,0,0,287,109Z"/><path class="k" d="M280.6,92.2a9.1,9.1,0,0,1-2-3.2,10.5,10.5,0,0,1-.6-2.4c-.2-.6.1-.9.7-.8l2.2.6h.4L278.8,82c-.7.7-1.4,1.3-2,2a13.3,13.3,0,0,0-3,6.6c-.1.2-.1.4-.4.5a.5.5,0,0,1-.6-.6,14.3,14.3,0,0,1,.4-2.2,14.9,14.9,0,0,1,5.3-7.3c.5-.4.8-.3,1.1.2,4.3,7.9,8.6,15.9,13,23.8.3.5.2.8-.4,1A14.3,14.3,0,0,1,273,95.8a15.4,15.4,0,0,1-.4-3c0-.4.2-.6.5-.6s.5.2.5.6a13,13,0,0,0,7,11.5,12.7,12.7,0,0,0,10.6.9h.3l-4-7.1h0v5.1a.6.6,0,0,1-.6.5c-.3,0-.4-.2-.5-.5V97.9l-.3.4a5.7,5.7,0,0,1-3.5,2c-.5.1-.8-.1-.7-.6a14.6,14.6,0,0,1,.5-2l.2-.3h-1.3a10.1,10.1,0,0,1-6.5-2.1c-.5-.4-.5-.7,0-1.1a9.1,9.1,0,0,1,5.2-2Zm5.3,2.7c-.1-.2-.3-.3-.4-.4a9.1,9.1,0,0,0-9.4.1l-.3.2A8.9,8.9,0,0,0,285.9,94.9Zm-1.1-2-2.6-4.6a.2.2,0,0,0-.2-.2l-2.3-1h-.6a9,9,0,0,0,3,5.1h.2Zm1.4,3.1a6.6,6.6,0,0,1-1.5.7,2.1,2.1,0,0,0-1.1,1,3.4,3.4,0,0,0-.6,1.5A5.1,5.1,0,0,0,286.2,96Z"/><path class="k" d="M286.6,78.3a14.4,14.4,0,0,1,14.5,11.9,13.9,13.9,0,0,1-5.7,14c-.5.4-.8.3-1.1-.2-4.3-7.9-8.6-15.8-13-23.7-.3-.6-.2-.8.4-1A13,13,0,0,1,286.6,78.3Zm-1.7,6.3a5.7,5.7,0,0,1,.4-1.4l1.2-2.4c.2-.4.6-.3.9,0l.3.5a14.2,14.2,0,0,1,1.7,5.4c.1.6.1,1.2.2,1.8l.2-.2a10.3,10.3,0,0,1,5.4-2.5c.6,0,.8.2.8.7a9.7,9.7,0,0,1-2.5,5.4l-.2.3h.3a10.2,10.2,0,0,1,5.6,2.2q.6.4,0,.9l-1.3.9a.5.5,0,0,1-.8-.2.6.6,0,0,1,.3-.7l.7-.4a8.9,8.9,0,0,0-8.2-1.1l1.2,2.1c.1.3.3.4.6.5a11.4,11.4,0,0,0,3.7-.3c.4-.1.7,0,.8.4a.7.7,0,0,1-.5.6,9.6,9.6,0,0,1-3.4.3h-.4l3.1,5.8a13.3,13.3,0,0,0-12.6-23.1Zm10,2.4h-.3a9.1,9.1,0,0,0-5.9,4.2v.4l.6,1c.1.2.2.2.4.2l1.8-.5.4-.2a8.2,8.2,0,0,0,2.3-3.2A10.7,10.7,0,0,0,294.9,87ZM287,82.1h-.1l-.2.4c-.3,1.1-.7,2.1-1,3.2a.7.7,0,0,0,.1.6l2,3.7.2.3a1.6,1.6,0,0,0,.5-1.1,17.1,17.1,0,0,0-.9-5.5A7.6,7.6,0,0,0,287,82.1Z"/></svg>