<svg xmlns="http://www.w3.org/2000/svg" width="660" height="500" viewBox="0 0 660 500"><defs><style>.a{fill:#5e788f;}.b{fill:#fff;}.c{fill:#223749;}.d{fill:#409195;}.e{fill:#9ab63a;}.f{fill:#d2a206;}.g{fill:#6698ac;}.h{fill:#384f64;}.i{fill:#d58116;}.j{fill:#07a0b9;}.k{fill:#478335;}</style></defs><path class="a" d="M199.1,158.5a10.3,10.3,0,0,0-4.1-.8c-1.6,0-2.4.5-2.4,1.4,0,2.6,7.7,1.4,7.7,6.7,0,3.3-2.8,5.5-7.1,5.5a9.4,9.4,0,0,1-5.4-1.5l1.2-3.1a9.3,9.3,0,0,0,4.5,1.2c1.4,0,2.5-.6,2.5-1.7s-7.8-1.3-7.8-6.8c0-3.1,2.7-5.1,6.8-5.1a9.2,9.2,0,0,1,5.3,1.3Z"/><path class="a" d="M206.2,165.6c.1,1.3,1.5,2.2,3.4,2.2a8.8,8.8,0,0,0,3.6-.7l.9,3a9.7,9.7,0,0,1-5,1.2c-4.2,0-7.3-2.1-7.3-6.5s2.6-6.8,6.7-6.8,5.9,2.8,5.9,5.5a15.6,15.6,0,0,1-.2,2.1Zm4-2.1v-.4a1.7,1.7,0,0,0-1.9-1.9,2.2,2.2,0,0,0-2.2,2.3Z"/><path class="a" d="M229,158.3v3.2h-2.5a5,5,0,0,1,.4,1.3c0,1.4-.8,4.6-5.7,4.6h-.8c0,.1-.2.3-.2.5s.4.4,1.4.4c3.5,0,6.4.8,6.4,3.6s-2.5,4.7-6.7,4.7-5.9-1.2-5.9-3.8,2.7-3.3,2.7-3.3a1.7,1.7,0,0,1-1.1-1.8l1-1.1a3.8,3.8,0,0,1-2.2-3.7c0-2.3,1.6-4.7,5.4-4.7a13.1,13.1,0,0,1,2.9.4Zm-8.7,12.6a1.8,1.8,0,0,0-.9,1.3c0,.8.9,1.3,2.1,1.3s2.3-.5,2.3-1.5-.8-1-2.2-1Zm-.7-8.3a1.6,1.6,0,0,0,1.7,1.7,1.7,1.7,0,0,0,1.8-1.7c0-1.2-.7-1.7-1.8-1.7A1.6,1.6,0,0,0,219.6,162.6Z"/><path class="a" d="M242.8,171h-3.3l-.7-1a6,6,0,0,1-3.7,1.3c-3.7,0-4.8-2.1-4.8-4.4v-8.6h4.3v8a1.6,1.6,0,0,0,1.8,1.8,3.4,3.4,0,0,0,2-.6v-9.2h4.4Z"/><path class="a" d="M245.3,158.3h3l1,1.7a4,4,0,0,1,3.4-2,2.8,2.8,0,0,1,1.5.3l-.7,3.2h-1a4.2,4.2,0,0,0-2.9,1V171h-4.3Z"/><path class="a" d="M259.9,154.8c0,1.3-.7,2.1-2.3,2.1a1.9,1.9,0,0,1-2.2-2.1c0-1.2.6-2,2.2-2S259.9,153.6,259.9,154.8Zm-.1,12.4c0,.7.3,1,.9,1h.5l.6,2.4a5.1,5.1,0,0,1-2.7.8,3.4,3.4,0,0,1-3.6-3.6v-9.4h4.3Z"/><path class="a" d="M275.9,171h-3.3l-.7-1s-.9,1.3-3.5,1.3-6-2.1-6-6.6,2.9-6.7,6.9-6.7a7.6,7.6,0,0,1,2.3.4V152h4.3Zm-4.3-9.6a5.2,5.2,0,0,0-1.9-.3c-1.7,0-2.8,1.2-2.8,3.5s1.1,3.4,2.6,3.4a4.2,4.2,0,0,0,2.1-.5Z"/><path class="a" d="M278.9,159.2a11.7,11.7,0,0,1,5.2-1.2c4.9,0,6,2.2,6,5.7v3.6a.8.8,0,0,0,.9.9h.5l.6,2.4a5,5,0,0,1-2.6.8c-1.8,0-2.8-.6-3.3-1.6a4.8,4.8,0,0,1-3.9,1.6c-1.9,0-4.2-.9-4.2-3.6s3.6-4.1,7.8-4.1c0-1.5-.7-2.3-2.4-2.3a11,11,0,0,0-3.6.7Zm6.9,6.5c-1.9,0-3.4.4-3.4,1.5s.5,1.1,1.4,1.1a2.7,2.7,0,0,0,2-.8Z"/><path class="a" d="M306.2,171H303l-.8-1s-.9,1.3-3.4,1.3-6.1-2.1-6.1-6.6,2.9-6.7,6.9-6.7a8.7,8.7,0,0,1,2.4.4V152h4.2Zm-4.3-9.6a5.2,5.2,0,0,0-1.9-.3c-1.6,0-2.8,1.2-2.8,3.5s1.1,3.4,2.7,3.4a3.6,3.6,0,0,0,2-.5Z"/><path d="M188.8,195.4V182.2h7.9v1.4h-6.3v4.3h5.2v1.5h-5.2V194h6.5v1.4Z"/><path d="M198.9,193.6a6.6,6.6,0,0,0,2.6.6c1.6,0,2.2-.7,2.2-1.5,0-2.5-5.1-1.2-5.1-4.7,0-1.8,1.5-3,3.7-3a7.1,7.1,0,0,1,2.7.5l-.4,1.3a7.3,7.3,0,0,0-2.3-.4c-1.4,0-2.1.6-2.1,1.4s5.1,1.1,5.1,4.6c0,1.7-1.2,3.2-3.8,3.2a6.5,6.5,0,0,1-3.1-.7Z"/><path d="M212.9,195.1a3.4,3.4,0,0,1-2,.5c-1.8,0-2.8-1.1-2.8-3.2v-6h-1.8v-1.2h1.8V183l1.6-.4v2.6h3.2v1.2h-3.2v6c0,1.3.7,1.8,1.6,1.8a4.2,4.2,0,0,0,1.3-.3Z"/><path d="M223.2,195.3a2.5,2.5,0,0,1-1.3.3,1.6,1.6,0,0,1-1.7-1.2,4.5,4.5,0,0,1-3.2,1.2,2.7,2.7,0,0,1-2.9-2.6c0-2.6,2.7-3.2,6.1-3.2,0-1.8,0-3.4-2.3-3.4a6.7,6.7,0,0,0-2.7.6l-.4-1.3a8.6,8.6,0,0,1,3.3-.7c3.2,0,3.7,1.7,3.7,4.5v3.7c0,.7.1,1,.7,1h.4Zm-3-4.4c-2.6,0-4.4.4-4.4,1.9a1.5,1.5,0,0,0,1.7,1.5,3.7,3.7,0,0,0,2.7-1.1Z"/><path d="M224.9,193.6a7.2,7.2,0,0,0,2.7.6c1.5,0,2.2-.7,2.2-1.5,0-2.5-5.1-1.2-5.1-4.7,0-1.8,1.4-3,3.6-3a7.7,7.7,0,0,1,2.8.5l-.5,1.3a7.3,7.3,0,0,0-2.3-.4c-1.4,0-2,.6-2,1.4s5.1,1.1,5.1,4.6c0,1.7-1.3,3.2-3.9,3.2a5.8,5.8,0,0,1-3-.7Z"/><path d="M238.6,195.4V185.2h1l.5,1.4a3.8,3.8,0,0,1,3.1-1.6h.9l-.3,1.5h-.9a3.6,3.6,0,0,0-2.7,1.4v7.5Z"/><path d="M252.6,194.7a5.4,5.4,0,0,1-3.3.9c-2.9,0-4.8-2-4.8-5.2s1.8-5.4,4.5-5.4,3.8,1.9,3.8,4.1a8.1,8.1,0,0,1-.1,1.6h-6.5c.1,1.7,1,3.5,3.4,3.5a6.2,6.2,0,0,0,2.6-.6Zm-1.4-5c0-.2.1-.5.1-.7s-.7-2.6-2.4-2.6-2.6,1.7-2.6,3.3Z"/><path d="M262.2,194.9a5.5,5.5,0,0,1-3,.7c-2.5,0-4.7-1.8-4.7-5.2s2.2-5.4,5.2-5.4a4.4,4.4,0,0,1,2.5.6l-.4,1.3a4.3,4.3,0,0,0-2.1-.5c-2.1,0-3.5,1.2-3.5,4s1.6,3.8,3.3,3.8a4,4,0,0,0,2.3-.6Z"/><path d="M268.1,185c3.3,0,4.7,2.4,4.7,5.3s-1.8,5.3-4.8,5.3-4.7-2.4-4.7-5.3S265.2,185,268.1,185Zm0,9.2c2,0,3-1.8,3-3.9s-1-3.9-3-3.9-3.1,1.8-3.1,3.9S266,194.2,268.1,194.2Z"/><path d="M287.2,195.4v-7a1.8,1.8,0,0,0-2-2,3.5,3.5,0,0,0-2.3,1.1v7.9h-1.7v-7c0-1.5-.7-2-2-2a3.5,3.5,0,0,0-2.3,1.1v7.9h-1.7V185.2h1l.6,1a4.4,4.4,0,0,1,2.8-1.2c1.9,0,2.5.8,2.8,1.3a5.6,5.6,0,0,1,3.2-1.3c2.3,0,3.3,1.3,3.3,3.4v7Z"/><path d="M299.3,194.7a6,6,0,0,1-3.4.9c-2.9,0-4.8-2-4.8-5.2s1.8-5.4,4.6-5.4,3.8,1.9,3.8,4.1a7.8,7.8,0,0,1-.2,1.6h-6.4a3.2,3.2,0,0,0,3.3,3.5,6.2,6.2,0,0,0,2.6-.6Zm-1.4-5V189c0-1.5-.7-2.6-2.3-2.6s-2.7,1.7-2.7,3.3Z"/><path d="M308.3,195.4v-7c0-1.6-.8-2-2-2a4.4,4.4,0,0,0-2.7,1.1v7.9h-1.7V185.2h1l.6,1a5.2,5.2,0,0,1,3.2-1.2c2.6,0,3.3,1.5,3.3,3.4v7Z"/><path d="M319.9,195.4l-.4-.9a4.7,4.7,0,0,1-2.9,1.1c-2.5,0-4.4-2.1-4.4-5s2-5.6,4.9-5.6a5.7,5.7,0,0,1,2.3.5v-5.4H321v15.3Zm-.5-8.5a4.2,4.2,0,0,0-2.1-.5c-2.1,0-3.3,1.5-3.3,4s1.2,3.8,3,3.8a3.7,3.7,0,0,0,2.4-1Z"/><path d="M332.4,195.3a2.1,2.1,0,0,1-1.2.3,1.6,1.6,0,0,1-1.7-1.2,4.5,4.5,0,0,1-3.2,1.2,2.6,2.6,0,0,1-2.9-2.6c0-2.6,2.6-3.2,6-3.2,0-1.8,0-3.4-2.3-3.4a6.6,6.6,0,0,0-2.6.6l-.4-1.3a8.1,8.1,0,0,1,3.3-.7c3.2,0,3.7,1.7,3.7,4.5v3.7c0,.7.1,1,.7,1h.4Zm-3-4.4c-2.6,0-4.3.4-4.3,1.9a1.5,1.5,0,0,0,1.6,1.5,3.5,3.5,0,0,0,2.7-1.1Z"/><path d="M341.3,194.9a6,6,0,0,1-3,.7c-2.5,0-4.7-1.8-4.7-5.2s2.2-5.4,5.1-5.4a4.5,4.5,0,0,1,2.6.6l-.5,1.3a3.8,3.8,0,0,0-2.1-.5c-2,0-3.4,1.2-3.4,4s1.5,3.8,3.3,3.8a4.2,4.2,0,0,0,2.3-.6Z"/><path d="M344.1,183.1A1,1,0,0,1,343,182a1.1,1.1,0,0,1,1.1-1.1,1,1,0,0,1,1,1.1A1,1,0,0,1,344.1,183.1Zm2.1,12.2a3.3,3.3,0,0,1-1.3.3c-1.4,0-1.7-.9-1.7-2v-8.4h1.6v8.2c0,.4.1.8.7.8h.4Z"/><path d="M352.3,185c3.2,0,4.7,2.4,4.7,5.3s-1.9,5.3-4.9,5.3-4.6-2.4-4.6-5.3S349.3,185,352.3,185Zm-.1,9.2c2.1,0,3.1-1.8,3.1-3.9s-1-3.9-3.1-3.9-3.1,1.8-3.1,3.9S350.1,194.2,352.2,194.2Z"/><path d="M365.8,195.4v-7a1.7,1.7,0,0,0-2-2,4.4,4.4,0,0,0-2.8,1.1v7.9h-1.6V185.2h1l.6,1a4.9,4.9,0,0,1,3.1-1.2c2.6,0,3.3,1.5,3.3,3.4v7Z"/><path d="M377.8,194.7a5.5,5.5,0,0,1-3.4.9c-2.9,0-4.7-2-4.7-5.2s1.8-5.4,4.5-5.4,3.8,1.9,3.8,4.1a8.1,8.1,0,0,1-.1,1.6h-6.5c.1,1.7,1,3.5,3.3,3.5a5.5,5.5,0,0,0,2.6-.6Zm-1.4-5V189c0-1.5-.7-2.6-2.3-2.6s-2.6,1.7-2.7,3.3Z"/><path d="M380.3,193.6a6.6,6.6,0,0,0,2.6.6c1.6,0,2.2-.7,2.2-1.5,0-2.5-5-1.2-5-4.7,0-1.8,1.4-3,3.6-3a7.1,7.1,0,0,1,2.7.5l-.4,1.3a7.3,7.3,0,0,0-2.3-.4c-1.4,0-2.1.6-2.1,1.4s5.2,1.1,5.2,4.6c0,1.7-1.3,3.2-3.9,3.2a6.5,6.5,0,0,1-3.1-.7Z"/><path d="M400.9,194.9a6,6,0,0,1-3,.7c-2.5,0-4.7-1.8-4.7-5.2s2.2-5.4,5.1-5.4a4.5,4.5,0,0,1,2.6.6l-.5,1.3a3.8,3.8,0,0,0-2.1-.5c-2,0-3.4,1.2-3.4,4s1.5,3.8,3.3,3.8a4.2,4.2,0,0,0,2.3-.6Z"/><path d="M406.8,185c3.2,0,4.7,2.4,4.7,5.3s-1.9,5.3-4.8,5.3-4.7-2.4-4.7-5.3S403.8,185,406.8,185Zm-.1,9.2c2.1,0,3.1-1.8,3.1-3.9s-1-3.9-3.1-3.9-3,1.8-3,3.9S404.6,194.2,406.7,194.2Z"/><path d="M420.3,195.4v-7a1.7,1.7,0,0,0-2-2,4.4,4.4,0,0,0-2.8,1.1v7.9h-1.6V185.2h1l.6,1a4.9,4.9,0,0,1,3.1-1.2c2.6,0,3.3,1.5,3.3,3.4v7Z"/><path d="M424.8,193.6a6.6,6.6,0,0,0,2.6.6c1.6,0,2.2-.7,2.2-1.5,0-2.5-5-1.2-5-4.7,0-1.8,1.4-3,3.6-3a7.1,7.1,0,0,1,2.7.5l-.4,1.3a7.3,7.3,0,0,0-2.3-.4c-1.4,0-2.1.6-2.1,1.4s5.2,1.1,5.2,4.6c0,1.7-1.3,3.2-3.9,3.2a6.5,6.5,0,0,1-3.1-.7Z"/><path d="M434.6,183.1a1,1,0,0,1-1.1-1.1,1.1,1.1,0,0,1,1.1-1.1,1,1,0,0,1,1,1.1A1,1,0,0,1,434.6,183.1Zm2,12.2a2.5,2.5,0,0,1-1.2.3c-1.4,0-1.7-.9-1.7-2v-8.4h1.6v8.2c0,.4.1.8.7.8h.4Z"/><path d="M445.6,195.4l-.4-.9a4.7,4.7,0,0,1-2.9,1.1c-2.5,0-4.4-2.1-4.4-5s2-5.6,4.9-5.6a5.7,5.7,0,0,1,2.3.5v-5.4h1.6v15.3Zm-.5-8.5a4.2,4.2,0,0,0-2.1-.5c-2.1,0-3.3,1.5-3.3,4s1.2,3.8,3,3.8a3.7,3.7,0,0,0,2.4-1Z"/><path d="M457.3,194.7a5.8,5.8,0,0,1-3.4.9c-2.9,0-4.8-2-4.8-5.2s1.9-5.4,4.6-5.4,3.8,1.9,3.8,4.1a7.8,7.8,0,0,1-.2,1.6h-6.4a3.2,3.2,0,0,0,3.3,3.5,5.9,5.9,0,0,0,2.6-.6Zm-1.4-5V189c0-1.5-.7-2.6-2.3-2.6s-2.6,1.7-2.7,3.3Z"/><path d="M460,195.4V185.2h1l.4,1.4a4,4,0,0,1,3.1-1.6h.9l-.3,1.5h-.8a3.6,3.6,0,0,0-2.7,1.4v7.5Z"/><path d="M474.7,195.3a2.5,2.5,0,0,1-1.3.3,1.6,1.6,0,0,1-1.7-1.2,4.5,4.5,0,0,1-3.2,1.2,2.7,2.7,0,0,1-2.9-2.6c0-2.6,2.7-3.2,6.1-3.2,0-1.8-.1-3.4-2.3-3.4a6.7,6.7,0,0,0-2.7.6l-.4-1.3a8.1,8.1,0,0,1,3.3-.7c3.2,0,3.7,1.7,3.7,4.5v3.7c0,.7.1,1,.7,1h.4Zm-3-4.4c-2.7,0-4.4.4-4.4,1.9a1.5,1.5,0,0,0,1.6,1.5,3.9,3.9,0,0,0,2.8-1.1Z"/><path d="M483,195.4v-7a1.7,1.7,0,0,0-2-2,4.4,4.4,0,0,0-2.8,1.1v7.9h-1.6V185.2h1l.6,1a4.9,4.9,0,0,1,3.1-1.2c2.6,0,3.3,1.5,3.3,3.4v7Z"/><path d="M189.1,223.9V210.8h-1.9v-1.2h1.9v-.5c0-2.8,1.5-4.8,4.2-4.8a4.5,4.5,0,0,1,1.6.3l-.3,1.3a2.5,2.5,0,0,0-1.2-.2c-1.9,0-2.7,1.2-2.7,3.2v.7h2.9v1.2h-2.9v13.1Z"/><path d="M201.7,219.8l-.5-1a4.2,4.2,0,0,1-3,1.2c-2.4,0-3.3-1.7-3.3-3.6v-6.8h1.6v6.8a1.9,1.9,0,0,0,2.1,2.2,3.6,3.6,0,0,0,2.5-1.1v-7.9h1.6v10.2Z"/><path d="M212.3,219.8v-7c0-1.6-.8-2-2-2a4.9,4.9,0,0,0-2.7,1v8h-1.7V209.6h1l.6.9a5.8,5.8,0,0,1,3.2-1.1c2.6,0,3.3,1.4,3.3,3.4v7Z"/><path d="M223.9,219.8l-.4-.9a4.7,4.7,0,0,1-2.9,1.1c-2.5,0-4.4-2.1-4.4-5s2-5.6,4.9-5.6a5.7,5.7,0,0,1,2.3.5v-5.4H225v15.3Zm-.5-8.5a4.2,4.2,0,0,0-2.1-.5c-2.1,0-3.3,1.5-3.3,4s1.2,3.8,3,3.8a3.7,3.7,0,0,0,2.4-1Z"/><path d="M236.4,219.7a2.1,2.1,0,0,1-1.2.3,1.7,1.7,0,0,1-1.7-1.2,4.7,4.7,0,0,1-3.2,1.2,2.6,2.6,0,0,1-2.9-2.6c0-2.6,2.6-3.2,6-3.2,0-1.8,0-3.4-2.3-3.4a6.6,6.6,0,0,0-2.6.6l-.4-1.3a8.1,8.1,0,0,1,3.3-.7c3.2,0,3.7,1.7,3.7,4.5v3.7c0,.6.1,1,.7,1h.4Zm-3-4.4c-2.6,0-4.3.4-4.3,1.9a1.6,1.6,0,0,0,1.6,1.5,3.9,3.9,0,0,0,2.7-1.1Z"/><path d="M250.3,219.8v-7c0-1.4-.6-2-2-2a3.5,3.5,0,0,0-2.3,1.1v7.9h-1.6v-7c0-1.5-.8-2-2.1-2a3.5,3.5,0,0,0-2.3,1.1v7.9h-1.6V209.6h1l.6.9a4.2,4.2,0,0,1,2.7-1.1,3.1,3.1,0,0,1,2.9,1.3,5.2,5.2,0,0,1,3.1-1.3c2.3,0,3.3,1.2,3.3,3.4v7Z"/><path d="M262.4,219.1a5.5,5.5,0,0,1-3.4.9c-2.9,0-4.7-2-4.7-5.2s1.8-5.4,4.5-5.4,3.8,1.9,3.8,4.1a7.8,7.8,0,0,1-.2,1.6H256a3.2,3.2,0,0,0,3.3,3.5,4.5,4.5,0,0,0,2.6-.7Zm-1.4-5v-.7c0-1.5-.7-2.6-2.3-2.6s-2.6,1.7-2.7,3.3Z"/><path d="M271.5,219.8v-7a1.7,1.7,0,0,0-2-2,5,5,0,0,0-2.8,1v8h-1.6V209.6h1l.6.9a5.5,5.5,0,0,1,3.1-1.1c2.6,0,3.3,1.4,3.3,3.4v7Z"/><path d="M281.4,219.5a3.9,3.9,0,0,1-2,.5c-1.9,0-2.9-1.1-2.9-3.3v-5.9h-1.8v-1.2h1.8v-2.2l1.7-.4v2.6h3.1v1.2h-3.1v6c0,1.3.6,1.8,1.5,1.8a4.2,4.2,0,0,0,1.4-.3Z"/><path d="M291.6,219.7a2.1,2.1,0,0,1-1.2.3,1.8,1.8,0,0,1-1.8-1.2,4.4,4.4,0,0,1-3.1,1.2c-1.7,0-3-1-3-2.6s2.7-3.2,6.1-3.2c0-1.8,0-3.4-2.3-3.4a7.2,7.2,0,0,0-2.7.6l-.4-1.3a9.1,9.1,0,0,1,3.4-.7c3.1,0,3.7,1.7,3.7,4.5v3.7c0,.6,0,1,.7,1h.3Zm-3-4.4c-2.6,0-4.4.4-4.4,1.9a1.6,1.6,0,0,0,1.7,1.5,4.1,4.1,0,0,0,2.7-1.1Z"/><path d="M296.5,219.7a2.5,2.5,0,0,1-1.2.3c-1.4,0-1.8-.9-1.8-2.1V204.5h1.7v13.3c0,.4.1.8.7.8h.3Z"/><path d="M309.7,223.9v-4.6a5.3,5.3,0,0,1-2.6.7c-2.7,0-4.5-1.9-4.5-5s2.2-5.6,5.2-5.6a11.4,11.4,0,0,1,3.6.7v13.8Zm0-12.7a5.3,5.3,0,0,0-1.9-.4c-2.6,0-3.5,2-3.5,4.1s.8,3.7,3.1,3.7a4.9,4.9,0,0,0,2.3-.7Z"/><path d="M321.4,219.8l-.6-1a3.8,3.8,0,0,1-2.9,1.2c-2.5,0-3.3-1.7-3.3-3.6v-6.8h1.6v6.8c0,1.6.9,2.2,2,2.2a3.7,3.7,0,0,0,2.6-1.1v-7.9h1.6v10.2Z"/><path d="M333,219.1a6,6,0,0,1-3.4.9c-2.9,0-4.8-2-4.8-5.2s1.8-5.4,4.6-5.4,3.8,1.9,3.8,4.1a7.8,7.8,0,0,1-.2,1.6h-6.4a3.2,3.2,0,0,0,3.3,3.5,5,5,0,0,0,2.6-.7Zm-1.4-5v-.7c0-1.5-.7-2.6-2.3-2.6s-2.7,1.7-2.7,3.3Z"/><path d="M340.3,218a6.2,6.2,0,0,0,2.6.6c1.6,0,2.2-.7,2.2-1.5,0-2.5-5.1-1.2-5.1-4.7,0-1.9,1.4-3,3.6-3a7.3,7.3,0,0,1,2.8.5l-.5,1.3a6.5,6.5,0,0,0-2.2-.5c-1.5,0-2.1.7-2.1,1.5,0,2.3,5.1,1.1,5.1,4.6,0,1.7-1.2,3.2-3.9,3.2a6.3,6.3,0,0,1-3-.7Z"/><path d="M356.5,219.1a6,6,0,0,1-3.4.9c-2.9,0-4.8-2-4.8-5.2s1.8-5.4,4.6-5.4,3.8,1.9,3.8,4.1a7.8,7.8,0,0,1-.2,1.6h-6.4a3.2,3.2,0,0,0,3.3,3.5,5,5,0,0,0,2.6-.7Zm-1.4-5v-.7c0-1.5-.7-2.6-2.3-2.6s-2.7,1.7-2.7,3.3Z"/><path d="M365.6,210.5a5.2,5.2,0,0,1,3.1-1.1c2.6,0,3.3,1.4,3.3,3.4v7h-1.7v-7c0-1.6-.8-2-2-2a4.9,4.9,0,0,0-2.7,1v8h-1.7V204.5h1.7Z"/><path d="M383.2,219.7a2.1,2.1,0,0,1-1.2.3,1.7,1.7,0,0,1-1.7-1.2,4.7,4.7,0,0,1-3.2,1.2,2.6,2.6,0,0,1-2.9-2.6c0-2.6,2.6-3.2,6-3.2,0-1.8,0-3.4-2.3-3.4a6.6,6.6,0,0,0-2.6.6l-.4-1.3a8.1,8.1,0,0,1,3.3-.7c3.2,0,3.7,1.7,3.7,4.5v3.7c0,.6.1,1,.7,1h.4Zm-3-4.4c-2.6,0-4.3.4-4.3,1.9a1.6,1.6,0,0,0,1.6,1.5,3.9,3.9,0,0,0,2.7-1.1Z"/><path d="M391.5,210.8a3.1,3.1,0,0,1,.6,1.9,3.6,3.6,0,0,1-3.6,3.7h-.7a2,2,0,0,0-.4.8c0,.5.1.7,1.2.7,3.4,0,4.4,1.1,4.4,2.9s-1.7,3.5-4.6,3.5-3.9-1-3.9-2.9a2.7,2.7,0,0,1,2-2.5,1.4,1.4,0,0,1-.7-1.3v-.4l.9-1.1a3.3,3.3,0,0,1-1.8-3.1,3.4,3.4,0,0,1,3.6-3.5,5,5,0,0,1,1.8.3h3.6v1.2ZM386,221c0,1,.8,1.8,2.6,1.8s2.8-.7,2.8-1.9-.6-1.7-2.8-1.7h-1A1.8,1.8,0,0,0,386,221Zm4.6-8.3a1.9,1.9,0,0,0-2.1-2.1,2.1,2.1,0,0,0-2.1,2.3,2,2,0,0,0,2.1,2.1A2.1,2.1,0,0,0,390.6,212.7Z"/><path d="M403.6,219.7a2.5,2.5,0,0,1-1.3.3,1.7,1.7,0,0,1-1.7-1.2,4.5,4.5,0,0,1-3.2,1.2,2.7,2.7,0,0,1-2.9-2.6c0-2.6,2.7-3.2,6.1-3.2,0-1.8,0-3.4-2.3-3.4a6.7,6.7,0,0,0-2.7.6l-.4-1.3a8.1,8.1,0,0,1,3.3-.7c3.2,0,3.7,1.7,3.7,4.5v3.7c0,.6.1,1,.7,1h.4Zm-3-4.4c-2.6,0-4.4.4-4.4,1.9a1.6,1.6,0,0,0,1.7,1.5,4.1,4.1,0,0,0,2.7-1.1Z"/><path d="M417.2,219.8l-.6-1a4.2,4.2,0,0,1-3,1.2c-2.4,0-3.3-1.7-3.3-3.6v-6.8h1.6v6.8a1.9,1.9,0,0,0,2.1,2.2,3.4,3.4,0,0,0,2.5-1.1v-7.9h1.6v10.2Z"/><path d="M427.7,219.8v-7c0-1.6-.8-2-2-2a4.9,4.9,0,0,0-2.7,1v8h-1.7V209.6h1l.6.9a5.8,5.8,0,0,1,3.2-1.1c2.6,0,3.3,1.4,3.3,3.4v7Z"/><path d="M440.6,219.7a2.1,2.1,0,0,1-1.2.3,1.7,1.7,0,0,1-1.7-1.2,4.5,4.5,0,0,1-3.2,1.2,2.6,2.6,0,0,1-2.9-2.6c0-2.6,2.6-3.2,6-3.2,0-1.8,0-3.4-2.3-3.4a6.6,6.6,0,0,0-2.6.6l-.4-1.3a8.1,8.1,0,0,1,3.3-.7c3.2,0,3.7,1.7,3.7,4.5v3.7c0,.6.1,1,.7,1h.4Zm-3-4.4c-2.6,0-4.3.4-4.3,1.9a1.6,1.6,0,0,0,1.6,1.5,3.9,3.9,0,0,0,2.7-1.1Z"/><path d="M447.4,219.8V209.6h1l.4,1.4a3.8,3.8,0,0,1,3.1-1.6h.9l-.3,1.5h-.8a3.4,3.4,0,0,0-2.7,1.4v7.5Z"/><path d="M461.4,219.1a5.5,5.5,0,0,1-3.4.9c-2.9,0-4.7-2-4.7-5.2s1.8-5.4,4.5-5.4,3.8,1.9,3.8,4.1a8.1,8.1,0,0,1-.1,1.6H455c.1,1.7,1,3.5,3.3,3.5a4.5,4.5,0,0,0,2.6-.7Zm-1.4-5v-.7c0-1.5-.7-2.6-2.3-2.6s-2.6,1.7-2.7,3.3Z"/><path d="M473.6,219.7a3.3,3.3,0,0,1-1.3.3c-1.4,0-1.7-.9-1.7-2.1v-12l-1.5-.2c-2.4,0-3,1.4-3,3.1a2.2,2.2,0,0,0,.1.8H469v1.2h-2.9v13.1h-1.6V210.8h-1.9v-1.2h1.9v-.3c0-2.5.8-5,4.5-5l1.6.2h1.6v13.1c0,.6,0,1,.7,1h.6Z"/><path d="M483,219.1a5.5,5.5,0,0,1-3.4.9c-2.9,0-4.7-2-4.7-5.2s1.8-5.4,4.5-5.4,3.8,1.9,3.8,4.1a4.1,4.1,0,0,1-.2,1.6h-6.4a3.2,3.2,0,0,0,3.3,3.5,4.5,4.5,0,0,0,2.6-.7Zm-1.4-5v-.7c0-1.5-.7-2.6-2.3-2.6s-2.6,1.7-2.7,3.3Z"/><path d="M491.3,219.8l-2.5-4.1h0l-2.6,4.1h-1.8l3.5-5.4-3.3-4.8h2l2.3,3.7h0l2.4-3.7h1.9l-3.4,4.9,3.6,5.3Z"/><path d="M496.2,207.5a1,1,0,0,1-1-1.1,1,1,0,0,1,1-1.1,1,1,0,0,1,1.1,1.1A1.1,1.1,0,0,1,496.2,207.5Zm2.1,12.2a2.7,2.7,0,0,1-1.3.3c-1.3,0-1.7-.9-1.7-2.1v-8.3h1.6v8.2c0,.4.1.8.7.8h.4Z"/><path d="M504.4,209.4c3.2,0,4.7,2.3,4.7,5.3s-1.9,5.3-4.8,5.3-4.7-2.4-4.7-5.3S501.4,209.4,504.4,209.4Zm-.1,9.2c2.1,0,3.1-1.8,3.1-3.9s-1-3.9-3.1-3.9-3,1.8-3,3.9S502.2,218.6,504.3,218.6Zm-1.7-10.9,1.9-3h1.8l-2.3,3Z"/><path d="M517.9,219.8v-7a1.7,1.7,0,0,0-2-2,5,5,0,0,0-2.8,1v8h-1.6V209.6h1l.6.9a5.5,5.5,0,0,1,3.1-1.1c2.6,0,3.3,1.4,3.3,3.4v7Z"/><path d="M527.2,218a6.6,6.6,0,0,0,2.6.6c1.6,0,2.2-.7,2.2-1.5,0-2.5-5-1.2-5-4.7,0-1.9,1.4-3,3.6-3a7.1,7.1,0,0,1,2.7.5l-.4,1.3a7.1,7.1,0,0,0-2.3-.5c-1.4,0-2.1.7-2.1,1.5,0,2.3,5.2,1.1,5.2,4.6,0,1.7-1.3,3.2-3.9,3.2a6.5,6.5,0,0,1-3.1-.7Z"/><path d="M540.1,209.4c3.2,0,4.7,2.3,4.7,5.3s-1.9,5.3-4.8,5.3-4.7-2.4-4.7-5.3S537.1,209.4,540.1,209.4Zm-.1,9.2c2.1,0,3.1-1.8,3.1-3.9s-1-3.9-3.1-3.9-3,1.8-3,3.9S537.9,218.6,540,218.6Z"/><path d="M547.2,204.5h1.6v5.6a5,5,0,0,1,2.4-.7c2.8,0,4.5,1.8,4.5,5s-2.3,5.6-5.3,5.6a6.5,6.5,0,0,1-3.2-.9Zm1.6,13.7a3.3,3.3,0,0,0,1.8.5c2.5,0,3.4-2.2,3.4-4.2s-.7-3.7-3-3.7a4.3,4.3,0,0,0-2.2.7Z"/><path d="M558.1,219.8V209.6h1l.5,1.4a3.8,3.8,0,0,1,3.1-1.6h.9l-.3,1.5h-.9a3.6,3.6,0,0,0-2.7,1.4v7.5Z"/><path d="M572.1,219.1a5.4,5.4,0,0,1-3.3.9c-2.9,0-4.8-2-4.8-5.2s1.8-5.4,4.5-5.4,3.9,1.9,3.9,4.1a7.8,7.8,0,0,1-.2,1.6h-6.4a3.2,3.2,0,0,0,3.3,3.5,5,5,0,0,0,2.6-.7Zm-1.4-5a1.7,1.7,0,0,0,.1-.7c0-1.5-.7-2.6-2.3-2.6s-2.7,1.7-2.7,3.3Z"/><path d="M191.6,244.1a2.5,2.5,0,0,1-1.2.3c-1.4,0-1.8-.9-1.8-2.1V228.9h1.7v13.3c0,.4.1.8.7.8h.4Z"/><path d="M201.9,244.1a3.5,3.5,0,0,1-1.2.3,1.9,1.9,0,0,1-1.8-1.2,4.4,4.4,0,0,1-3.1,1.2,2.6,2.6,0,0,1-2.9-2.6c0-2.7,2.6-3.2,6-3.2,0-1.9,0-3.4-2.3-3.4a5.7,5.7,0,0,0-2.7.6l-.4-1.3a9.1,9.1,0,0,1,3.4-.7c3.1,0,3.7,1.7,3.7,4.5V242c0,.6.1,1,.7,1h.3Zm-3-4.4c-2.6,0-4.3.4-4.3,1.9a1.6,1.6,0,0,0,1.6,1.5,3.9,3.9,0,0,0,2.7-1.1Z"/><path d="M210.7,244.2,207,234h1.8l2.9,8.7h.1l3-8.7h1.6l-3.7,10.2Z"/><path d="M218.9,231.8a.9.9,0,0,1-1-1,1,1,0,0,1,1-1.1,1,1,0,0,1,1.1,1.1A1,1,0,0,1,218.9,231.8Zm2.1,12.3a2.7,2.7,0,0,1-1.3.3c-1.3,0-1.7-.9-1.7-2.1V234h1.6v8.2c0,.4.1.8.7.8h.4Z"/><path d="M222.9,242.4a6.6,6.6,0,0,0,2.6.6c1.6,0,2.2-.7,2.2-1.5,0-2.5-5.1-1.2-5.1-4.8,0-1.8,1.5-2.9,3.7-2.9a5.6,5.6,0,0,1,2.7.5l-.4,1.3a7.1,7.1,0,0,0-2.3-.5c-1.4,0-2.1.7-2.1,1.5,0,2.3,5.2,1.1,5.2,4.6,0,1.7-1.3,3.2-3.9,3.2a6.5,6.5,0,0,1-3.1-.7Z"/><path d="M232.6,231.8a.9.9,0,0,1-1-1,1,1,0,0,1,1-1.1,1,1,0,0,1,1.1,1.1A1,1,0,0,1,232.6,231.8Zm2.1,12.3a2.5,2.5,0,0,1-1.2.3c-1.4,0-1.7-.9-1.7-2.1V234h1.6v8.2c0,.4.1.8.7.8h.4Z"/><path d="M240.9,233.8c3.2,0,4.7,2.3,4.7,5.3s-1.9,5.3-4.9,5.3-4.7-2.4-4.7-5.3S237.9,233.8,240.9,233.8Zm-.1,9.2c2.1,0,3-1.8,3-3.9s-.9-3.9-3-3.9-3.1,1.7-3.1,3.9S238.7,243,240.8,243Zm-1.7-10.9,1.8-3h1.9l-2.4,3Z"/><path d="M254.4,244.2v-7c0-1.6-.9-2-2.1-2a4.9,4.9,0,0,0-2.7,1v8H248V234h.9l.7.9a5.2,5.2,0,0,1,3.1-1.1c2.6,0,3.3,1.4,3.3,3.4v7Z"/><path d="M262.2,234h1.9l3.2,8.4,2.8-8.4h1.7l-4.2,11.5a3.7,3.7,0,0,1-3.7,2.8,3.9,3.9,0,0,1-1.8-.5l.5-1.2a4.2,4.2,0,0,0,1.4.3c1.4,0,2-1.1,2.5-2.6Z"/><path d="M285.5,243.5a5.4,5.4,0,0,1-3.3.9c-2.9,0-4.8-2-4.8-5.2s1.8-5.4,4.5-5.4,3.8,1.9,3.8,4.1a8.1,8.1,0,0,1-.1,1.6h-6.5c.1,1.7,1,3.5,3.3,3.5a4.5,4.5,0,0,0,2.6-.7Zm-1.4-5c0-.2.1-.5.1-.7a2.3,2.3,0,0,0-2.4-2.6c-1.8,0-2.6,1.6-2.6,3.3Z"/><path d="M291.2,244.1a2.7,2.7,0,0,1-1.3.3c-1.3,0-1.7-.9-1.7-2.1V228.9h1.6v13.3c0,.4.1.8.8.8h.3Z"/><path d="M297.9,242.4a6.6,6.6,0,0,0,2.6.6c1.6,0,2.2-.7,2.2-1.5,0-2.5-5.1-1.2-5.1-4.8,0-1.8,1.5-2.9,3.7-2.9a5.6,5.6,0,0,1,2.7.5l-.4,1.3a7.1,7.1,0,0,0-2.3-.5c-1.4,0-2.1.7-2.1,1.5,0,2.3,5.2,1.1,5.2,4.6,0,1.7-1.3,3.2-3.9,3.2a6.5,6.5,0,0,1-3.1-.7Z"/><path d="M314.1,243.5a5.5,5.5,0,0,1-3.4.9c-2.9,0-4.7-2-4.7-5.2s1.8-5.4,4.5-5.4,3.8,1.9,3.8,4.1a8.1,8.1,0,0,1-.1,1.6h-6.5c.1,1.7,1,3.5,3.3,3.5a4.5,4.5,0,0,0,2.6-.7Zm-1.4-5v-.7c0-1.5-.7-2.6-2.3-2.6s-2.6,1.6-2.7,3.3Z"/><path d="M323.7,243.7a5.5,5.5,0,0,1-3,.7c-2.5,0-4.7-1.8-4.7-5.2s2.2-5.4,5.1-5.4a5.7,5.7,0,0,1,2.6.5l-.5,1.3a5.2,5.2,0,0,0-2.1-.4c-2,0-3.4,1.2-3.4,4s1.5,3.8,3.3,3.8a4.2,4.2,0,0,0,2.3-.6Z"/><path d="M331.1,243.9a3.9,3.9,0,0,1-2,.5c-1.8,0-2.9-1.1-2.9-3.3v-5.9h-1.8V234h1.8v-2.2l1.7-.4V234H331v1.2h-3.1v6c0,1.3.6,1.8,1.5,1.8a4.2,4.2,0,0,0,1.4-.3Z"/><path d="M337.1,233.8c3.3,0,4.7,2.3,4.7,5.3s-1.8,5.3-4.8,5.3-4.7-2.4-4.7-5.3S334.2,233.8,337.1,233.8Zm0,9.2c2.1,0,3-1.8,3-3.9s-.9-3.9-3-3.9-3.1,1.7-3.1,3.9S335,243,337.1,243Z"/><path d="M344.2,244.2V234h1l.5,1.4a3.6,3.6,0,0,1,3.1-1.6h.9l-.3,1.5h-.8a3.6,3.6,0,0,0-2.7,1.3v7.6Z"/><path d="M363,244.2l-.4-.9a4.7,4.7,0,0,1-2.9,1.1c-2.5,0-4.3-2.1-4.3-5.1s1.9-5.5,4.8-5.5a5.7,5.7,0,0,1,2.3.5v-5.4h1.7v15.3Zm-.5-8.5a4.2,4.2,0,0,0-2.1-.5c-2.1,0-3.3,1.5-3.3,3.9s1.2,3.9,3,3.9a3.7,3.7,0,0,0,2.4-1Z"/><path d="M374.7,243.5a5.5,5.5,0,0,1-3.4.9c-2.9,0-4.7-2-4.7-5.2s1.8-5.4,4.5-5.4,3.8,1.9,3.8,4.1a7.8,7.8,0,0,1-.2,1.6h-6.4a3.2,3.2,0,0,0,3.3,3.5,4.5,4.5,0,0,0,2.6-.7Zm-1.4-5v-.7c0-1.5-.7-2.6-2.3-2.6s-2.6,1.6-2.7,3.3Z"/><path d="M382,242.4a6.6,6.6,0,0,0,2.6.6c1.6,0,2.2-.7,2.2-1.5,0-2.5-5.1-1.2-5.1-4.8,0-1.8,1.5-2.9,3.7-2.9a5.6,5.6,0,0,1,2.7.5l-.4,1.3a7.1,7.1,0,0,0-2.3-.5c-1.4,0-2.1.7-2.1,1.5,0,2.3,5.1,1.1,5.1,4.6,0,1.7-1.2,3.2-3.8,3.2a6.5,6.5,0,0,1-3.1-.7Z"/><path d="M398.2,243.5a5.5,5.5,0,0,1-3.4.9c-2.9,0-4.7-2-4.7-5.2s1.8-5.4,4.5-5.4,3.8,1.9,3.8,4.1a7.8,7.8,0,0,1-.2,1.6h-6.4a3.2,3.2,0,0,0,3.3,3.5,4.5,4.5,0,0,0,2.6-.7Zm-1.4-5v-.7c0-1.5-.7-2.6-2.3-2.6s-2.6,1.6-2.7,3.3Z"/><path d="M407.2,235.2a3,3,0,0,1,.7,1.9,3.7,3.7,0,0,1-3.7,3.7h-.7a2,2,0,0,0-.4.8c0,.5.1.7,1.2.7,3.4,0,4.4,1.1,4.4,2.9s-1.7,3.5-4.6,3.5-3.9-1-3.9-3a2.7,2.7,0,0,1,2-2.4,1.5,1.5,0,0,1-.7-1.4.4.4,0,0,1,.1-.3l.8-1.1a3.3,3.3,0,0,1-1.8-3.1,3.4,3.4,0,0,1,3.6-3.5,5.9,5.9,0,0,1,1.9.3h3.5v1.2Zm-5.5,10.2c0,1,.8,1.8,2.6,1.8s2.8-.7,2.8-1.9-.6-1.7-2.8-1.7h-1A1.8,1.8,0,0,0,401.7,245.4Zm4.6-8.3a1.9,1.9,0,0,0-2.1-2.1,2.1,2.1,0,0,0-2.1,2.3,2,2,0,0,0,2.1,2.1A2.1,2.1,0,0,0,406.3,237.1Z"/><path d="M417.9,244.2l-.5-1a4.2,4.2,0,0,1-3,1.2c-2.5,0-3.3-1.7-3.3-3.6V234h1.6v6.8a1.9,1.9,0,0,0,2.1,2.2,3.6,3.6,0,0,0,2.5-1.1V234h1.6v10.2Z"/><path d="M422.1,244.2V234h1l.5,1.4a3.6,3.6,0,0,1,3.1-1.6h.9l-.3,1.5h-.8a3.6,3.6,0,0,0-2.7,1.3v7.6Z"/><path d="M430.1,231.8a.9.9,0,0,1-1-1,1,1,0,0,1,1-1.1,1,1,0,0,1,1.1,1.1A1,1,0,0,1,430.1,231.8Zm2.1,12.3a2.5,2.5,0,0,1-1.2.3c-1.4,0-1.8-.9-1.8-2.1V234h1.7v8.2c0,.4.1.8.7.8h.4Z"/><path d="M441.2,244.2l-.5-.9a4.3,4.3,0,0,1-2.8,1.1c-2.6,0-4.4-2.1-4.4-5.1s2-5.5,4.9-5.5a5.7,5.7,0,0,1,2.3.5v-5.4h1.6v15.3Zm-.5-8.5a4.2,4.2,0,0,0-2.1-.5c-2.1,0-3.3,1.5-3.3,3.9s1.2,3.9,2.9,3.9a3.8,3.8,0,0,0,2.5-1Z"/><path d="M453.7,244.1a3.5,3.5,0,0,1-1.2.3,1.7,1.7,0,0,1-1.7-1.2,4.9,4.9,0,0,1-3.2,1.2,2.6,2.6,0,0,1-2.9-2.6c0-2.7,2.6-3.2,6-3.2,0-1.9,0-3.4-2.3-3.4a5,5,0,0,0-2.6.6l-.5-1.3a9.1,9.1,0,0,1,3.4-.7c3.1,0,3.7,1.7,3.7,4.5V242c0,.6.1,1,.7,1h.4Zm-3-4.4c-2.6,0-4.3.4-4.3,1.9a1.6,1.6,0,0,0,1.6,1.5,3.9,3.9,0,0,0,2.7-1.1Z"/><path d="M462.5,244.2l-.4-.9a4.7,4.7,0,0,1-2.9,1.1c-2.5,0-4.3-2.1-4.3-5.1s1.9-5.5,4.8-5.5a5.7,5.7,0,0,1,2.3.5v-5.4h1.7v15.3Zm-.5-8.5a4.2,4.2,0,0,0-2.1-.5c-2.1,0-3.3,1.5-3.3,3.9s1.2,3.9,3,3.9a3.7,3.7,0,0,0,2.4-1Z"/><path d="M470,234h1.9l3.2,8.4,2.8-8.4h1.7l-4.2,11.5a3.7,3.7,0,0,1-3.7,2.8,3.9,3.9,0,0,1-1.8-.5l.5-1.2a4.2,4.2,0,0,0,1.4.3c1.4,0,2-1.1,2.5-2.6Z"/><path d="M492.8,244.2l-.4-.9a4.3,4.3,0,0,1-2.8,1.1c-2.6,0-4.4-2.1-4.4-5.1s1.9-5.5,4.8-5.5a5.1,5.1,0,0,1,2.3.5v-5.4H494v15.3Zm-.5-8.5a4.2,4.2,0,0,0-2.1-.5c-2,0-3.3,1.5-3.3,3.9s1.2,3.9,3,3.9a3.7,3.7,0,0,0,2.4-1Z"/><path d="M504.5,243.5a5.4,5.4,0,0,1-3.3.9c-2.9,0-4.8-2-4.8-5.2s1.8-5.4,4.5-5.4,3.8,1.9,3.8,4.1a8.1,8.1,0,0,1-.1,1.6h-6.5c.1,1.7,1,3.5,3.3,3.5a4.5,4.5,0,0,0,2.6-.7Zm-1.4-5c0-.2.1-.5.1-.7a2.3,2.3,0,0,0-2.4-2.6c-1.8,0-2.6,1.6-2.6,3.3Z"/><path d="M507.6,248.3V235.2h-1.9V234h1.9v-.5c0-2.8,1.6-4.8,4.2-4.8a4.7,4.7,0,0,1,1.7.3l-.3,1.3a2.7,2.7,0,0,0-1.3-.2c-1.8,0-2.7,1.2-2.7,3.2v.7h2.9v1.2h-2.9v13.1Z"/><path d="M520.6,243.5a5.5,5.5,0,0,1-3.4.9c-2.9,0-4.7-2-4.7-5.2s1.8-5.4,4.5-5.4,3.8,1.9,3.8,4.1a8.1,8.1,0,0,1-.1,1.6h-6.5c.1,1.7,1,3.5,3.3,3.5a4.5,4.5,0,0,0,2.6-.7Zm-1.4-5v-.7c0-1.5-.7-2.6-2.3-2.6s-2.6,1.6-2.7,3.3Z"/><path d="M529.7,244.2v-7a1.7,1.7,0,0,0-2-2,5,5,0,0,0-2.8,1v8h-1.6V234h1l.6.9a5.5,5.5,0,0,1,3.1-1.1c2.6,0,3.3,1.4,3.3,3.4v7Z"/><path d="M534.2,242.4a6.6,6.6,0,0,0,2.6.6c1.6,0,2.2-.7,2.2-1.5,0-2.5-5.1-1.2-5.1-4.8,0-1.8,1.5-2.9,3.7-2.9a5.6,5.6,0,0,1,2.7.5l-.4,1.3a7.1,7.1,0,0,0-2.3-.5c-1.4,0-2.1.7-2.1,1.5,0,2.3,5.2,1.1,5.2,4.6,0,1.7-1.3,3.2-3.9,3.2a6.5,6.5,0,0,1-3.1-.7Z"/><path d="M551.2,244.1a3,3,0,0,1-1.2.3,1.7,1.7,0,0,1-1.7-1.2,4.5,4.5,0,0,1-3.2,1.2,2.7,2.7,0,0,1-2.9-2.6c0-2.7,2.6-3.2,6.1-3.2,0-1.9-.1-3.4-2.3-3.4a5.4,5.4,0,0,0-2.7.6l-.4-1.3a8.1,8.1,0,0,1,3.3-.7c3.2,0,3.7,1.7,3.7,4.5V242c0,.6.1,1,.7,1h.4Zm-2.9-4.4c-2.7,0-4.4.4-4.4,1.9a1.6,1.6,0,0,0,1.6,1.5,4.4,4.4,0,0,0,2.8-1.1Z"/><path d="M195,272.7v-4.6a5.8,5.8,0,0,1-2.6.7c-2.8,0-4.6-1.9-4.6-5.1s2.2-5.5,5.2-5.5a11.4,11.4,0,0,1,3.6.7v13.8Zm0-12.7a5.5,5.5,0,0,0-2-.4c-2.5,0-3.4,1.9-3.4,4.1s.7,3.6,3,3.6a6.2,6.2,0,0,0,2.4-.6Z"/><path d="M206.7,268.6l-.6-1a4.2,4.2,0,0,1-3,1.2c-2.4,0-3.3-1.7-3.3-3.6v-6.8h1.7v6.8c0,1.6.8,2.2,2,2.2a3.4,3.4,0,0,0,2.5-1.1v-7.9h1.7v10.2Z"/><path d="M218.2,267.9a5.5,5.5,0,0,1-3.4.9c-2.9,0-4.7-2-4.7-5.2s1.8-5.4,4.5-5.4,3.8,1.9,3.8,4.1a8.6,8.6,0,0,1-.1,1.6h-6.5c.1,1.7,1,3.5,3.3,3.5a4.5,4.5,0,0,0,2.6-.7Zm-1.4-5.1v-.6c0-1.5-.7-2.6-2.3-2.6s-2.6,1.6-2.7,3.2Z"/><path d="M225.7,272.7V258.4h1.1l.5.9a4.3,4.3,0,0,1,2.8-1.1c2.7,0,4.4,2.2,4.4,5s-2,5.6-4.9,5.6a5.7,5.7,0,0,1-2.3-.5v4.4Zm1.6-5.8a4.9,4.9,0,0,0,2.2.5c2,0,3.2-1.5,3.2-4s-1.2-3.8-2.9-3.8a4.2,4.2,0,0,0-2.5,1Z"/><path d="M244.2,267.9a5.4,5.4,0,0,1-3.3.9c-2.9,0-4.8-2-4.8-5.2s1.8-5.4,4.5-5.4,3.8,1.9,3.8,4.1a8.6,8.6,0,0,1-.1,1.6h-6.5c.1,1.7,1,3.5,3.3,3.5a4.5,4.5,0,0,0,2.6-.7Zm-1.4-5.1v-.6c0-1.5-.7-2.6-2.3-2.6s-2.6,1.6-2.7,3.2Z"/><path d="M246.9,268.6V258.4h1l.5,1.4a3.6,3.6,0,0,1,3.1-1.6h.9l-.3,1.5h-.9a3.5,3.5,0,0,0-2.7,1.3v7.6Z"/><path d="M266,268.6v-7a1.8,1.8,0,0,0-2-2,3.2,3.2,0,0,0-2.3,1.1v7.9H260v-7c0-1.5-.7-2-2-2a3.5,3.5,0,0,0-2.3,1.1v7.9H254V258.4h1l.6.9a4.3,4.3,0,0,1,2.8-1.1,2.9,2.9,0,0,1,2.8,1.3,5.3,5.3,0,0,1,3.2-1.3c2.2,0,3.2,1.2,3.2,3.4v7Z"/><path d="M271.6,256.2a.9.9,0,0,1-1-1,1,1,0,0,1,1-1.1,1,1,0,0,1,1.1,1.1A1,1,0,0,1,271.6,256.2Zm2.1,12.3a2.7,2.7,0,0,1-1.3.3c-1.3,0-1.7-.9-1.7-2.1v-8.3h1.6v8.2c0,.4.1.8.8.8h.3Z"/><path d="M281,268.3a3.9,3.9,0,0,1-2,.5c-1.8,0-2.9-1.1-2.9-3.3v-5.9h-1.8v-1.2h1.8v-2.2l1.7-.4v2.6h3.1v1.2h-3.1v6c0,1.3.6,1.8,1.5,1.8a4.2,4.2,0,0,0,1.4-.3Z"/><path d="M291.2,268.5a3.5,3.5,0,0,1-1.2.3,1.9,1.9,0,0,1-1.8-1.2,4.4,4.4,0,0,1-3.1,1.2,2.6,2.6,0,0,1-2.9-2.6c0-2.7,2.6-3.2,6-3.2,0-1.9,0-3.4-2.3-3.4a5.7,5.7,0,0,0-2.7.6l-.4-1.3a9.1,9.1,0,0,1,3.4-.7c3.1,0,3.7,1.7,3.7,4.5v3.7c0,.6,0,1,.7,1h.3Zm-3-4.5c-2.6,0-4.4.5-4.4,2a1.6,1.6,0,0,0,1.7,1.5,4.1,4.1,0,0,0,2.7-1.1Z"/><path d="M306.1,268.5a3.5,3.5,0,0,1-1.2.3,1.7,1.7,0,0,1-1.7-1.2,4.7,4.7,0,0,1-3.2,1.2,2.6,2.6,0,0,1-2.9-2.6c0-2.7,2.6-3.2,6-3.2,0-1.9,0-3.4-2.3-3.4a5,5,0,0,0-2.6.6l-.4-1.3a8.1,8.1,0,0,1,3.3-.7c3.2,0,3.7,1.7,3.7,4.5v3.7c0,.6.1,1,.7,1h.4Zm-3-4.5c-2.6,0-4.3.5-4.3,2a1.6,1.6,0,0,0,1.6,1.5,3.9,3.9,0,0,0,2.7-1.1Z"/><path d="M310.1,268.6l-3.7-10.2h1.8l2.9,8.7h.1l3-8.7h1.6l-3.6,10.2Z"/><path d="M325.6,268.5a3.5,3.5,0,0,1-1.2.3,1.8,1.8,0,0,1-1.8-1.2,4.4,4.4,0,0,1-3.1,1.2,2.6,2.6,0,0,1-2.9-2.6c0-2.7,2.6-3.2,6-3.2,0-1.9,0-3.4-2.3-3.4a5.7,5.7,0,0,0-2.7.6l-.4-1.3a9.1,9.1,0,0,1,3.4-.7c3.1,0,3.7,1.7,3.7,4.5v3.7c0,.6,0,1,.7,1h.3Zm-3-4.5c-2.6,0-4.4.5-4.4,2a1.6,1.6,0,0,0,1.7,1.5,4.1,4.1,0,0,0,2.7-1.1Z"/><path d="M333.9,268.6v-7c0-1.6-.8-2-2-2a4.4,4.4,0,0,0-2.7,1v8h-1.7V258.4h1l.6.9a5.5,5.5,0,0,1,3.2-1.1c2.6,0,3.3,1.4,3.3,3.4v7Z"/><path d="M337.6,268.6v-1.3l5.8-7.6h-5.7v-1.3h7.6v1.4l-5.9,7.4h5.9v1.4Z"/><path d="M355.9,268.5a3.5,3.5,0,0,1-1.3.3,1.7,1.7,0,0,1-1.7-1.2,4.5,4.5,0,0,1-3.2,1.2,2.7,2.7,0,0,1-2.9-2.6c0-2.7,2.7-3.2,6.1-3.2,0-1.9,0-3.4-2.3-3.4a5.4,5.4,0,0,0-2.7.6l-.4-1.3a8.6,8.6,0,0,1,3.3-.7c3.2,0,3.7,1.7,3.7,4.5v3.7c0,.6.1,1,.8,1h.3Zm-3-4.5c-2.6,0-4.4.5-4.4,2a1.6,1.6,0,0,0,1.7,1.5,4.1,4.1,0,0,0,2.7-1.1Z"/><path d="M357.8,268.6V258.4h1l.5,1.4a3.6,3.6,0,0,1,3.1-1.6h.9l-.3,1.5h-.9a3.1,3.1,0,0,0-2.6,1.3v7.6Z"/><path d="M377.1,267.9a5.8,5.8,0,0,1-3.4.9c-2.9,0-4.8-2-4.8-5.2s1.8-5.4,4.6-5.4,3.8,1.9,3.8,4.1a8.8,8.8,0,0,1-.2,1.6h-6.4a3.2,3.2,0,0,0,3.3,3.5,5,5,0,0,0,2.6-.7Zm-1.4-5.1v-.6c0-1.5-.7-2.6-2.3-2.6s-2.7,1.6-2.7,3.2Z"/><path d="M386.2,268.6v-7c0-1.6-.9-2-2.1-2a4.9,4.9,0,0,0-2.7,1v8h-1.7V258.4h1l.7.9a5.2,5.2,0,0,1,3.1-1.1c2.6,0,3.3,1.4,3.3,3.4v7Z"/><path d="M398.6,268.5a2.5,2.5,0,0,1-1.2.3c-1.4,0-1.8-.9-1.8-2.1V253.3h1.7v13.3c0,.4.1.8.7.8h.4Z"/><path d="M408.9,268.5a3.5,3.5,0,0,1-1.2.3,1.9,1.9,0,0,1-1.8-1.2,4.4,4.4,0,0,1-3.1,1.2,2.6,2.6,0,0,1-2.9-2.6c0-2.7,2.6-3.2,6-3.2,0-1.9,0-3.4-2.3-3.4a5.7,5.7,0,0,0-2.7.6l-.4-1.3a9.1,9.1,0,0,1,3.4-.7c3.1,0,3.7,1.7,3.7,4.5v3.7c0,.6.1,1,.7,1h.4Zm-3-4.5c-2.6,0-4.3.5-4.3,2a1.6,1.6,0,0,0,1.6,1.5,3.9,3.9,0,0,0,2.7-1.1Z"/><path d="M410.7,266.8a6.6,6.6,0,0,0,2.6.6c1.6,0,2.2-.7,2.2-1.5,0-2.5-5.1-1.2-5.1-4.8,0-1.8,1.4-2.9,3.6-2.9a5.8,5.8,0,0,1,2.8.5l-.4,1.3a7.1,7.1,0,0,0-2.3-.5c-1.4,0-2.1.7-2.1,1.5,0,2.3,5.1,1.1,5.1,4.6,0,1.7-1.2,3.2-3.9,3.2a5.3,5.3,0,0,1-3-.8Z"/><path d="M429.5,268.3a3.7,3.7,0,0,1-2,.5c-1.8,0-2.8-1.1-2.8-3.3v-5.9h-1.8v-1.2h1.8v-2.2l1.6-.4v2.6h3.2v1.2h-3.2v6c0,1.3.6,1.8,1.6,1.8a4.2,4.2,0,0,0,1.3-.3Z"/><path d="M431.6,268.6V258.4h1l.4,1.4a3.7,3.7,0,0,1,3.1-1.6h.9l-.3,1.5h-.8a3.5,3.5,0,0,0-2.7,1.3v7.6Z"/><path d="M446.3,268.5a4.2,4.2,0,0,1-1.3.3,1.7,1.7,0,0,1-1.7-1.2,4.5,4.5,0,0,1-3.2,1.2,2.7,2.7,0,0,1-2.9-2.6c0-2.7,2.7-3.2,6.1-3.2,0-1.9-.1-3.4-2.3-3.4a5.4,5.4,0,0,0-2.7.6l-.4-1.3a8.1,8.1,0,0,1,3.3-.7c3.2,0,3.7,1.7,3.7,4.5v3.7c0,.6.1,1,.7,1h.4Zm-3-4.5c-2.7,0-4.4.5-4.4,2a1.6,1.6,0,0,0,1.6,1.5,4.4,4.4,0,0,0,2.8-1.1Z"/><path d="M454.6,268.6v-7a1.7,1.7,0,0,0-2-2,5,5,0,0,0-2.8,1v8h-1.6V258.4h1l.6.9a5.5,5.5,0,0,1,3.1-1.1c2.6,0,3.3,1.4,3.3,3.4v7Z"/><path d="M459.1,266.8a7.1,7.1,0,0,0,2.6.6c1.6,0,2.2-.7,2.2-1.5,0-2.5-5-1.2-5-4.8,0-1.8,1.4-2.9,3.6-2.9a5.6,5.6,0,0,1,2.7.5l-.4,1.3a7.1,7.1,0,0,0-2.3-.5c-1.4,0-2.1.7-2.1,1.5,0,2.3,5.2,1.1,5.2,4.6,0,1.7-1.3,3.2-3.9,3.2a5.4,5.4,0,0,1-3.1-.8Z"/><path d="M468.4,272.7V259.6h-1.9v-1.2h1.9v-.5c0-2.8,1.5-4.8,4.2-4.8l1.7.3-.3,1.3a3,3,0,0,0-1.3-.2c-1.8,0-2.7,1.2-2.7,3.2v.7h2.9v1.2H470v13.1Z"/><path d="M478,258.2c3.3,0,4.7,2.3,4.7,5.3s-1.8,5.3-4.8,5.3-4.7-2.4-4.7-5.3S475.1,258.2,478,258.2Zm0,9.2c2.1,0,3-1.8,3-3.9s-.9-3.9-3-3.9-3.1,1.7-3.1,3.9S475.9,267.4,478,267.4Z"/><path d="M485.1,268.6V258.4h1l.5,1.4a3.6,3.6,0,0,1,3.1-1.6h.9l-.3,1.5h-.8a3.3,3.3,0,0,0-2.7,1.3v7.6Z"/><path d="M504.2,268.6v-7c0-1.4-.6-2-2-2a3.5,3.5,0,0,0-2.3,1.1v7.9h-1.6v-7c0-1.5-.8-2-2.1-2a3.5,3.5,0,0,0-2.3,1.1v7.9h-1.6V258.4h1l.6.9a4.2,4.2,0,0,1,2.7-1.1,3.1,3.1,0,0,1,2.9,1.3,5.2,5.2,0,0,1,3.1-1.3c2.3,0,3.3,1.2,3.3,3.4v7Z"/><path d="M517.1,268.5a3,3,0,0,1-1.2.3,1.7,1.7,0,0,1-1.7-1.2,4.5,4.5,0,0,1-3.2,1.2,2.7,2.7,0,0,1-2.9-2.6c0-2.7,2.6-3.2,6-3.2,0-1.9,0-3.4-2.2-3.4a5.4,5.4,0,0,0-2.7.6l-.4-1.3a8.1,8.1,0,0,1,3.3-.7c3.2,0,3.7,1.7,3.7,4.5v3.7c0,.6.1,1,.7,1h.4Zm-3-4.5c-2.6,0-4.3.5-4.3,2a1.6,1.6,0,0,0,1.6,1.5,3.9,3.9,0,0,0,2.7-1.1Z"/><path d="M526,268.1a5.8,5.8,0,0,1-3,.7c-2.5,0-4.7-1.8-4.7-5.2s2.2-5.4,5.1-5.4a5.7,5.7,0,0,1,2.6.5l-.5,1.3a5.2,5.2,0,0,0-2.1-.4c-2,0-3.4,1.2-3.4,4s1.5,3.8,3.3,3.8a4.2,4.2,0,0,0,2.3-.6Z"/><path d="M528.8,256.2a1,1,0,0,1-1.1-1,1,1,0,0,1,1.1-1.1,1,1,0,0,1,1,1.1A.9.9,0,0,1,528.8,256.2Zm2.1,12.3a3.3,3.3,0,0,1-1.3.3c-1.3,0-1.7-.9-1.7-2.1v-8.3h1.6v8.2c0,.4.1.8.7.8h.4Z"/><path d="M537,258.2c3.2,0,4.7,2.3,4.7,5.3s-1.9,5.3-4.8,5.3-4.7-2.4-4.7-5.3S534,258.2,537,258.2Zm-.1,9.2c2.1,0,3.1-1.8,3.1-3.9s-1-3.9-3.1-3.9-3.1,1.7-3.1,3.9S534.8,267.4,536.9,267.4Z"/><path d="M550.5,268.6v-7a1.7,1.7,0,0,0-2-2,5,5,0,0,0-2.8,1v8h-1.6V258.4h1l.6.9a5.5,5.5,0,0,1,3.1-1.1c2.6,0,3.3,1.4,3.3,3.4v7Z"/><path d="M562.5,267.9a5.4,5.4,0,0,1-3.3.9c-3,0-4.8-2-4.8-5.2s1.8-5.4,4.5-5.4,3.8,1.9,3.8,4.1a8.6,8.6,0,0,1-.1,1.6h-6.5c.1,1.7,1,3.5,3.3,3.5a4.5,4.5,0,0,0,2.6-.7Zm-1.4-5.1v-.6c0-1.5-.7-2.6-2.3-2.6s-2.6,1.6-2.7,3.2Z"/><path d="M565,266.8a7.1,7.1,0,0,0,2.6.6c1.6,0,2.2-.7,2.2-1.5,0-2.5-5-1.2-5-4.8,0-1.8,1.4-2.9,3.6-2.9a5.6,5.6,0,0,1,2.7.5l-.4,1.3a7.1,7.1,0,0,0-2.3-.5c-1.4,0-2.1.7-2.1,1.5,0,2.3,5.2,1.1,5.2,4.6,0,1.7-1.3,3.2-3.9,3.2a5.4,5.4,0,0,1-3.1-.8Z"/><path d="M195,297.1v-4.6a5.8,5.8,0,0,1-2.6.7c-2.8,0-4.6-1.9-4.6-5.1s2.2-5.6,5.2-5.6a10.2,10.2,0,0,1,3.6.8v13.8Zm0-12.7a5.5,5.5,0,0,0-2-.4c-2.5,0-3.4,1.9-3.4,4.1s.7,3.6,3,3.6a6.2,6.2,0,0,0,2.4-.6Z"/><path d="M206.7,293l-.6-1a4.6,4.6,0,0,1-3,1.2c-2.4,0-3.3-1.7-3.3-3.6v-6.9h1.7v6.9c0,1.6.8,2.2,2,2.2a3.4,3.4,0,0,0,2.5-1.1v-8h1.7V293Z"/><path d="M218.2,292.3a6.3,6.3,0,0,1-3.4.9c-2.9,0-4.7-2-4.7-5.2s1.8-5.5,4.5-5.5,3.8,2,3.8,4.2a8.6,8.6,0,0,1-.1,1.6h-6.5c.1,1.7,1,3.5,3.3,3.5a5.4,5.4,0,0,0,2.6-.7Zm-1.4-5.1v-.7c0-1.5-.7-2.5-2.3-2.5s-2.6,1.6-2.7,3.2Z"/><path d="M225.5,291.2a6.6,6.6,0,0,0,2.6.6c1.6,0,2.2-.7,2.2-1.6s-5.1-1.1-5.1-4.7c0-1.8,1.5-3,3.7-3a5.4,5.4,0,0,1,2.7.6l-.4,1.3a5.2,5.2,0,0,0-2.3-.5c-1.4,0-2.1.7-2.1,1.5,0,2.3,5.2,1.1,5.2,4.6,0,1.7-1.3,3.2-3.9,3.2a6.4,6.4,0,0,1-3.1-.8Z"/><path d="M241.7,292.3a6.3,6.3,0,0,1-3.4.9c-2.9,0-4.7-2-4.7-5.2s1.8-5.5,4.5-5.5,3.8,2,3.8,4.2a8.6,8.6,0,0,1-.1,1.6h-6.5a3.2,3.2,0,0,0,3.3,3.5,5.4,5.4,0,0,0,2.6-.7Zm-1.4-5.1v-.7c0-1.5-.7-2.5-2.3-2.5s-2.6,1.6-2.7,3.2Z"/><path d="M249.2,293V282.7h1l.5,1.4a3.6,3.6,0,0,1,3-1.6l1,.2-.3,1.5h-.9a3.5,3.5,0,0,0-2.7,1.3V293Z"/><path d="M263.2,292.3a6.2,6.2,0,0,1-3.3.9c-2.9,0-4.8-2-4.8-5.2s1.8-5.5,4.5-5.5,3.8,2,3.8,4.2a8.6,8.6,0,0,1-.1,1.6h-6.5c.1,1.7,1,3.5,3.3,3.5a6.2,6.2,0,0,0,2.7-.7Zm-1.4-5.1c0-.2.1-.4.1-.7a2.2,2.2,0,0,0-2.4-2.5c-1.8,0-2.6,1.6-2.6,3.2Z"/><path d="M272.2,297.1v-4.6a5.3,5.3,0,0,1-2.6.7c-2.7,0-4.5-1.9-4.5-5.1s2.2-5.6,5.2-5.6a10.2,10.2,0,0,1,3.6.8v13.8Zm0-12.7a5.3,5.3,0,0,0-1.9-.4c-2.6,0-3.5,1.9-3.5,4.1s.8,3.6,3.1,3.6a5.5,5.5,0,0,0,2.3-.6Z"/><path d="M283.9,293l-.6-1a4.1,4.1,0,0,1-2.9,1.2c-2.5,0-3.3-1.7-3.3-3.6v-6.9h1.6v6.9c0,1.6.9,2.2,2,2.2a3.7,3.7,0,0,0,2.6-1.1v-8h1.6V293Z"/><path d="M289,280.6a.9.9,0,0,1-1-1,1,1,0,0,1,1-1.1,1,1,0,0,1,1.1,1.1A1,1,0,0,1,289,280.6Zm2.1,12.3a2.5,2.5,0,0,1-1.2.3c-1.4,0-1.8-.9-1.8-2.1v-8.4h1.7V291c0,.4,0,.8.7.8s.3,0,.3-.1Z"/><path d="M300.5,292.3a6.2,6.2,0,0,1-3.3.9c-2.9,0-4.8-2-4.8-5.2s1.8-5.5,4.5-5.5,3.9,2,3.9,4.2a8.8,8.8,0,0,1-.2,1.6h-6.4a3.2,3.2,0,0,0,3.3,3.5,6.2,6.2,0,0,0,2.6-.7Zm-1.4-5.1a1.5,1.5,0,0,0,.1-.7c0-1.5-.7-2.5-2.3-2.5s-2.7,1.6-2.7,3.2Z"/><path d="M303.2,293V282.7h1l.5,1.4a3.8,3.8,0,0,1,3.1-1.6l.9.2-.3,1.5h-.9a3.3,3.3,0,0,0-2.6,1.3V293Z"/><path d="M317.3,292.3a6.6,6.6,0,0,1-3.4.9c-2.9,0-4.8-2-4.8-5.2s1.8-5.5,4.6-5.5,3.8,2,3.8,4.2a8.8,8.8,0,0,1-.2,1.6h-6.4a3.2,3.2,0,0,0,3.3,3.5,6.2,6.2,0,0,0,2.6-.7Zm-1.4-5.1v-.7c0-1.5-.7-2.5-2.3-2.5s-2.7,1.6-2.7,3.2Z"/><path d="M326.4,293v-7c0-1.6-.9-2-2.1-2a4.9,4.9,0,0,0-2.7,1v8H320V282.7h.9l.7,1a5.2,5.2,0,0,1,3.1-1.2c2.6,0,3.3,1.5,3.3,3.5v7Z"/><path d="M335.8,297.1V282.7H337l.4,1a4.5,4.5,0,0,1,2.9-1.2c2.7,0,4.3,2.3,4.3,5.1s-1.9,5.6-4.8,5.6a5.7,5.7,0,0,1-2.3-.5v4.4Zm1.7-5.8a4.2,4.2,0,0,0,2.1.5c2.1,0,3.3-1.5,3.3-4s-1.2-3.8-3-3.8a3.7,3.7,0,0,0-2.4,1Z"/><path d="M355.2,292.9a3,3,0,0,1-1.2.3,1.7,1.7,0,0,1-1.7-1.2,4.5,4.5,0,0,1-3.2,1.2,2.7,2.7,0,0,1-2.9-2.6c0-2.7,2.6-3.2,6.1-3.2,0-1.9-.1-3.4-2.3-3.4a5.4,5.4,0,0,0-2.7.6l-.4-1.3a7.9,7.9,0,0,1,3.3-.8c3.2,0,3.7,1.8,3.7,4.6v3.7c0,.6.1,1,.7,1h.4Zm-2.9-4.5c-2.7,0-4.4.4-4.4,2a1.6,1.6,0,0,0,1.6,1.5,4.4,4.4,0,0,0,2.8-1.1Z"/><path d="M357.2,293V282.7h1l.5,1.4a3.6,3.6,0,0,1,3-1.6l1,.2-.3,1.5h-.9a3.5,3.5,0,0,0-2.7,1.3V293Z"/><path d="M371.9,292.9a4.2,4.2,0,0,1-1.3.3,1.7,1.7,0,0,1-1.7-1.2,4.5,4.5,0,0,1-3.2,1.2,2.7,2.7,0,0,1-2.9-2.6c0-2.7,2.7-3.2,6.1-3.2,0-1.9,0-3.4-2.3-3.4a5.4,5.4,0,0,0-2.7.6l-.4-1.3a7.9,7.9,0,0,1,3.3-.8c3.2,0,3.7,1.8,3.7,4.6v3.7c0,.6.1,1,.7,1h.4Zm-3-4.5c-2.6,0-4.4.4-4.4,2a1.6,1.6,0,0,0,1.7,1.5,4.1,4.1,0,0,0,2.7-1.1Z"/><path d="M378.6,293V282.7h1l.5,1.4a3.8,3.8,0,0,1,3.1-1.6l.9.2-.3,1.5h-.9a3.5,3.5,0,0,0-2.7,1.3V293Z"/><path d="M392.6,292.3a6.2,6.2,0,0,1-3.3.9c-2.9,0-4.8-2-4.8-5.2s1.8-5.5,4.5-5.5,3.9,2,3.9,4.2a8.8,8.8,0,0,1-.2,1.6h-6.4a3.2,3.2,0,0,0,3.3,3.5,6.2,6.2,0,0,0,2.6-.7Zm-1.4-5.1a1.5,1.5,0,0,0,.1-.7c0-1.5-.7-2.5-2.3-2.5s-2.7,1.6-2.7,3.2Z"/><path d="M395.1,291.2a7.2,7.2,0,0,0,2.7.6c1.6,0,2.2-.7,2.2-1.6s-5.1-1.1-5.1-4.7c0-1.8,1.4-3,3.6-3a5.5,5.5,0,0,1,2.8.6l-.5,1.3a4.8,4.8,0,0,0-2.2-.5c-1.5,0-2.1.7-2.1,1.5,0,2.3,5.1,1.1,5.1,4.6,0,1.7-1.2,3.2-3.9,3.2a6,6,0,0,1-3-.8Z"/><path d="M404,297.1V282.7h1.1l.5,1a4.1,4.1,0,0,1,2.8-1.2c2.7,0,4.4,2.3,4.4,5.1s-1.9,5.6-4.9,5.6a5.7,5.7,0,0,1-2.3-.5v4.4Zm1.6-5.8a4.9,4.9,0,0,0,2.2.5c2,0,3.3-1.5,3.3-4s-1.2-3.8-3-3.8a4.2,4.2,0,0,0-2.5,1Z"/><path d="M419.2,282.5c3.3,0,4.7,2.4,4.7,5.4s-1.8,5.3-4.8,5.3-4.7-2.4-4.7-5.3S416.3,282.5,419.2,282.5Zm-.1,9.3c2.1,0,3.1-1.8,3.1-3.9s-1-3.9-3.1-3.9-3,1.7-3,3.9S417.1,291.8,419.1,291.8Z"/><path d="M432.7,293v-7a1.7,1.7,0,0,0-2-2,4.4,4.4,0,0,0-2.7,1v8h-1.7V282.7h1l.6,1a5.5,5.5,0,0,1,3.2-1.2c2.6,0,3.3,1.5,3.3,3.5v7Z"/><path d="M444.3,293l-.5-1a4.1,4.1,0,0,1-2.8,1.2c-2.6,0-4.4-2.2-4.4-5.1s2-5.6,4.9-5.6a4.9,4.9,0,0,1,2.3.6v-5.4h1.6V293Zm-.5-8.5a4.9,4.9,0,0,0-2.2-.5c-2,0-3.2,1.5-3.2,3.9s1.2,3.9,2.9,3.9a3.8,3.8,0,0,0,2.5-1Z"/><path d="M456,292.3a6.9,6.9,0,0,1-3.4.9c-2.9,0-4.8-2-4.8-5.2s1.8-5.5,4.6-5.5,3.8,2,3.8,4.2a8.8,8.8,0,0,1-.2,1.6h-6.4a3.2,3.2,0,0,0,3.3,3.5,6.2,6.2,0,0,0,2.6-.7Zm-1.4-5.1v-.7c0-1.5-.7-2.5-2.3-2.5s-2.7,1.6-2.7,3.2Z"/><path d="M458.6,293V282.7h1l.5,1.4a3.8,3.8,0,0,1,3.1-1.6l.9.2-.3,1.5H463a3.3,3.3,0,0,0-2.7,1.3V293Z"/><path d="M477.4,293l-.4-1a4.5,4.5,0,0,1-2.9,1.2c-2.5,0-4.3-2.2-4.3-5.1s1.9-5.6,4.8-5.6a4.9,4.9,0,0,1,2.3.6v-5.4h1.7V293Zm-.5-8.5a4.2,4.2,0,0,0-2.1-.5c-2.1,0-3.3,1.5-3.3,3.9s1.2,3.9,3,3.9a3.7,3.7,0,0,0,2.4-1Z"/><path d="M489.1,292.3a6.3,6.3,0,0,1-3.4.9c-2.9,0-4.7-2-4.7-5.2s1.8-5.5,4.5-5.5,3.8,2,3.8,4.2a8.6,8.6,0,0,1-.1,1.6h-6.5a3.2,3.2,0,0,0,3.3,3.5,5.4,5.4,0,0,0,2.6-.7Zm-1.4-5.1v-.7c0-1.5-.7-2.5-2.3-2.5s-2.6,1.6-2.7,3.2Z"/><path d="M508.6,293v-7c0-1.4-.7-2-2.1-2a3.7,3.7,0,0,0-2.3,1v8h-1.6v-7a1.8,1.8,0,0,0-2-2,3.7,3.7,0,0,0-2.4,1v8h-1.6V282.7h1l.6,1a4,4,0,0,1,2.7-1.2,3.2,3.2,0,0,1,2.9,1.4,5,5,0,0,1,3.1-1.4c2.3,0,3.3,1.3,3.3,3.5v7Z"/><path d="M520.6,292.3a6.3,6.3,0,0,1-3.4.9c-2.9,0-4.7-2-4.7-5.2s1.8-5.5,4.5-5.5,3.8,2,3.8,4.2a8.6,8.6,0,0,1-.1,1.6h-6.5c.1,1.7,1,3.5,3.3,3.5a5.4,5.4,0,0,0,2.6-.7Zm-1.4-5.1v-.7c0-1.5-.7-2.5-2.3-2.5s-2.6,1.6-2.7,3.2Z"/><path d="M520.5,295.7l.9.2a1.8,1.8,0,0,0,1.9-2V282.7h1.6v10.9c0,2.4-1.3,3.7-3.3,3.7a2.4,2.4,0,0,1-1.4-.3Zm3.6-15.1a.9.9,0,0,1-1-1,1,1,0,0,1,1-1.1,1,1,0,0,1,1.1,1.1A1.1,1.1,0,0,1,524.1,280.6Z"/><path d="M532.1,282.5c3.3,0,4.7,2.4,4.7,5.4s-1.8,5.3-4.8,5.3-4.7-2.4-4.7-5.3S529.2,282.5,532.1,282.5Zm0,9.3c2.1,0,3-1.8,3-3.9s-.9-3.9-3-3.9-3.1,1.7-3.1,3.9S530,291.8,532.1,291.8Z"/><path d="M539.2,293V282.7h1l.5,1.4a3.8,3.8,0,0,1,3.1-1.6l.9.2-.3,1.5h-.8a3.3,3.3,0,0,0-2.7,1.3V293Z"/><path d="M200.6,317.4v-7a1.8,1.8,0,0,0-2-2,3.7,3.7,0,0,0-2.3,1v8h-1.7v-7c0-1.5-.7-2-2-2a3.7,3.7,0,0,0-2.3,1v8h-1.7V307.1h1l.6,1a4.4,4.4,0,0,1,2.8-1.2,3.2,3.2,0,0,1,2.9,1.4,5,5,0,0,1,3.1-1.4c2.3,0,3.3,1.3,3.3,3.5v7Z"/><path d="M213.5,317.3a3.5,3.5,0,0,1-1.2.3,1.7,1.7,0,0,1-1.7-1.2,4.9,4.9,0,0,1-3.2,1.2,2.6,2.6,0,0,1-2.9-2.6c0-2.7,2.6-3.2,6-3.2,0-1.9,0-3.4-2.3-3.4a5,5,0,0,0-2.6.6l-.5-1.3a7.4,7.4,0,0,1,3.4-.8c3.1,0,3.7,1.8,3.7,4.6v3.6c0,.7.1,1.1.7,1.1h.4Zm-3-4.5c-2.6,0-4.3.4-4.3,2a1.5,1.5,0,0,0,1.6,1.4,3.9,3.9,0,0,0,2.7-1Z"/><path d="M221.9,317.4v-7c0-1.7-.9-2-2.1-2a4.9,4.9,0,0,0-2.7,1v8h-1.7V307.1h1l.7,1a5.2,5.2,0,0,1,3.1-1.2c2.6,0,3.3,1.5,3.3,3.5v7Z"/><path d="M233.9,316.7a6.3,6.3,0,0,1-3.4.9c-2.9,0-4.7-2-4.7-5.2s1.8-5.5,4.5-5.5,3.8,1.9,3.8,4.2a8.8,8.8,0,0,1-.2,1.6h-6.4a3.2,3.2,0,0,0,3.3,3.4,5.5,5.5,0,0,0,2.6-.6Zm-1.4-5.1v-.7c0-1.5-.7-2.5-2.3-2.5s-2.6,1.6-2.7,3.2Z"/><path d="M236.6,317.4V307.1h1l.5,1.4a3.6,3.6,0,0,1,3-1.6l1,.2-.3,1.5h-.9a3.5,3.5,0,0,0-2.7,1.3v7.6Z"/><path d="M251.3,317.3a4.2,4.2,0,0,1-1.3.3,1.7,1.7,0,0,1-1.7-1.2,4.5,4.5,0,0,1-3.2,1.2,2.7,2.7,0,0,1-2.9-2.6c0-2.7,2.7-3.2,6.1-3.2,0-1.9,0-3.4-2.3-3.4a5.4,5.4,0,0,0-2.7.6l-.4-1.3a6.6,6.6,0,0,1,3.3-.8c3.2,0,3.7,1.8,3.7,4.6v3.6c0,.7.1,1.1.7,1.1h.4Zm-3-4.5c-2.6,0-4.4.4-4.4,2a1.5,1.5,0,0,0,1.7,1.4,4.1,4.1,0,0,0,2.7-1Z"/><path d="M266.2,317.3a3.5,3.5,0,0,1-1.3.3,1.7,1.7,0,0,1-1.7-1.2,4.5,4.5,0,0,1-3.2,1.2,2.7,2.7,0,0,1-2.9-2.6c0-2.7,2.7-3.2,6.1-3.2,0-1.9,0-3.4-2.3-3.4a5.4,5.4,0,0,0-2.7.6l-.4-1.3a6.9,6.9,0,0,1,3.3-.8c3.2,0,3.7,1.8,3.7,4.6v3.6c0,.7.1,1.1.8,1.1h.3Zm-3-4.5c-2.6,0-4.4.4-4.4,2a1.6,1.6,0,0,0,1.7,1.4,4.1,4.1,0,0,0,2.7-1Z"/><path d="M271.1,317.3a2.5,2.5,0,0,1-1.2.3c-1.4,0-1.8-.9-1.8-2.1V302.1h1.7v13.2c0,.5,0,.9.7.9h.3Z"/><path d="M285.3,316.7a6.2,6.2,0,0,1-3.3.9c-2.9,0-4.8-2-4.8-5.2s1.8-5.5,4.5-5.5,3.9,1.9,3.9,4.2a8.8,8.8,0,0,1-.2,1.6h-6.5c.1,1.7,1,3.4,3.4,3.4a6.2,6.2,0,0,0,2.6-.6Zm-1.4-5.1c0-.2.1-.5.1-.7s-.7-2.5-2.3-2.5-2.7,1.6-2.7,3.2Z"/><path d="M287.8,315.6a7.2,7.2,0,0,0,2.7.6c1.6,0,2.2-.7,2.2-1.6,0-2.4-5.1-1.1-5.1-4.7,0-1.8,1.4-3,3.6-3a5.8,5.8,0,0,1,2.8.6l-.5,1.3a4.9,4.9,0,0,0-2.3-.5c-1.4,0-2,.7-2,1.5,0,2.3,5.1,1.1,5.1,4.6,0,1.7-1.2,3.2-3.9,3.2a6,6,0,0,1-3-.8Z"/><path d="M303.6,316.9a5.5,5.5,0,0,1-3,.7c-2.5,0-4.7-1.8-4.7-5.2s2.2-5.5,5.2-5.5a5.4,5.4,0,0,1,2.5.6l-.4,1.3a4.4,4.4,0,0,0-2.1-.4c-2.1,0-3.5,1.2-3.5,4s1.6,3.7,3.3,3.7a4.1,4.1,0,0,0,2.3-.5Z"/><path d="M312.8,316.7a6.2,6.2,0,0,1-3.3.9c-2.9,0-4.8-2-4.8-5.2s1.8-5.5,4.5-5.5,3.9,1.9,3.9,4.2a8.8,8.8,0,0,1-.2,1.6h-6.4a3.1,3.1,0,0,0,3.3,3.4,6.2,6.2,0,0,0,2.6-.6Zm-1.4-5.1a1.7,1.7,0,0,0,.1-.7c0-1.5-.7-2.5-2.3-2.5s-2.7,1.6-2.7,3.2Z"/><path d="M321.9,317.4v-7c0-1.7-.9-2-2-2a4.4,4.4,0,0,0-2.7,1v8h-1.7V307.1h1l.6,1a5.5,5.5,0,0,1,3.2-1.2c2.6,0,3.3,1.5,3.3,3.5v7Z"/><path d="M334.8,317.3a3.5,3.5,0,0,1-1.2.3,1.9,1.9,0,0,1-1.8-1.2,4.4,4.4,0,0,1-3.1,1.2,2.6,2.6,0,0,1-2.9-2.6c0-2.7,2.6-3.2,6-3.2,0-1.9,0-3.4-2.3-3.4a5.7,5.7,0,0,0-2.7.6l-.4-1.3a7.4,7.4,0,0,1,3.4-.8c3.1,0,3.7,1.8,3.7,4.6v3.6c0,.7,0,1.1.7,1.1h.3Zm-3-4.5c-2.6,0-4.3.4-4.3,2a1.5,1.5,0,0,0,1.6,1.4,4.1,4.1,0,0,0,2.7-1Z"/><path d="M336.7,317.4V307.1h1l.5,1.4a3.8,3.8,0,0,1,3.1-1.6l.9.2-.3,1.5h-.8a3.3,3.3,0,0,0-2.7,1.3v7.6Z"/><path d="M344.7,305a1,1,0,0,1-1-1.1,1.1,1.1,0,0,1,2.1.1A1,1,0,0,1,344.7,305Zm2.1,12.3a2.5,2.5,0,0,1-1.2.3c-1.4,0-1.7-.9-1.7-2.1v-8.4h1.6v8.2c0,.5.1.9.7.9h.4Z"/><path d="M353,306.9c3.2,0,4.7,2.4,4.7,5.4s-1.9,5.3-4.9,5.3-4.7-2.4-4.7-5.3S350,306.9,353,306.9Zm-.1,9.2c2.1,0,3-1.7,3-3.8s-.9-3.9-3-3.9-3.1,1.7-3.1,3.9S350.8,316.1,352.9,316.1Z"/><path d="M372.2,316.7a6.3,6.3,0,0,1-3.4.9c-2.9,0-4.7-2-4.7-5.2s1.8-5.5,4.5-5.5,3.8,1.9,3.8,4.2a8.8,8.8,0,0,1-.2,1.6h-6.4a3.2,3.2,0,0,0,3.3,3.4,5.5,5.5,0,0,0,2.6-.6Zm-1.4-5.1v-.7c0-1.5-.7-2.5-2.3-2.5s-2.6,1.6-2.7,3.2Z"/><path d="M381.3,317.4v-7c0-1.7-.9-2-2-2a5,5,0,0,0-2.8,1v8h-1.6V307.1h1l.6,1a5.5,5.5,0,0,1,3.1-1.2c2.6,0,3.3,1.5,3.3,3.5v7Z"/><path d="M398.1,316.7a6.2,6.2,0,0,1-3.3.9c-3,0-4.8-2-4.8-5.2s1.8-5.5,4.5-5.5,3.8,1.9,3.8,4.2a8.6,8.6,0,0,1-.1,1.6h-6.5c.1,1.7,1,3.4,3.3,3.4a5.5,5.5,0,0,0,2.6-.6Zm-1.4-5.1v-.7c0-1.5-.7-2.5-2.3-2.5s-2.6,1.6-2.7,3.2Z"/><path d="M403.8,317.3a2.7,2.7,0,0,1-1.3.3c-1.3,0-1.7-.9-1.7-2.1V302.1h1.6v13.2c0,.5.1.9.7.9h.4Z"/><path d="M417,321.5v-4.6a5.8,5.8,0,0,1-2.6.7c-2.8,0-4.5-1.9-4.5-5.1s2.1-5.6,5.1-5.6a11.1,11.1,0,0,1,3.7.8v13.8Zm0-12.8a7,7,0,0,0-2-.3c-2.5,0-3.4,1.9-3.4,4.1s.8,3.6,3.1,3.6a6.1,6.1,0,0,0,2.3-.6Z"/><path d="M428.7,317.4l-.6-1a4.6,4.6,0,0,1-3,1.2c-2.4,0-3.3-1.7-3.3-3.7v-6.8h1.7v6.8c0,1.7.9,2.2,2,2.2a3.4,3.4,0,0,0,2.5-1v-8h1.7v10.3Z"/><path d="M440.2,316.7a6.2,6.2,0,0,1-3.3.9c-2.9,0-4.8-2-4.8-5.2s1.8-5.5,4.5-5.5,3.8,1.9,3.8,4.2a8.6,8.6,0,0,1-.1,1.6h-6.5c.1,1.7,1,3.4,3.4,3.4a6.2,6.2,0,0,0,2.6-.6Zm-1.4-5.1c0-.2.1-.5.1-.7a2.2,2.2,0,0,0-2.4-2.5c-1.8,0-2.6,1.6-2.6,3.2Z"/><path d="M447.5,315.6a7.2,7.2,0,0,0,2.7.6c1.5,0,2.2-.7,2.2-1.6,0-2.4-5.1-1.1-5.1-4.7,0-1.8,1.4-3,3.6-3a6.1,6.1,0,0,1,2.8.6l-.5,1.3a5.2,5.2,0,0,0-2.3-.5c-1.4,0-2,.7-2,1.5,0,2.3,5.1,1.1,5.1,4.6,0,1.7-1.3,3.2-3.9,3.2a5.7,5.7,0,0,1-3-.8Z"/><path d="M463.7,316.7a6.2,6.2,0,0,1-3.3.9c-2.9,0-4.8-2-4.8-5.2s1.8-5.5,4.5-5.5,3.8,1.9,3.8,4.2a8.6,8.6,0,0,1-.1,1.6h-6.5c.1,1.7,1,3.4,3.3,3.4a6.3,6.3,0,0,0,2.7-.6Zm-1.4-5.1c0-.2.1-.5.1-.7a2.2,2.2,0,0,0-2.4-2.5c-1.8,0-2.6,1.6-2.6,3.2Z"/><path d="M478.5,316.7a6.2,6.2,0,0,1-3.3.9c-2.9,0-4.8-2-4.8-5.2s1.8-5.5,4.5-5.5,3.9,1.9,3.9,4.2a8.8,8.8,0,0,1-.2,1.6h-6.4a3.1,3.1,0,0,0,3.3,3.4,6.2,6.2,0,0,0,2.6-.6Zm-1.4-5.1a1.7,1.7,0,0,0,.1-.7c0-1.5-.7-2.5-2.3-2.5s-2.7,1.6-2.7,3.2Z"/><path d="M487.6,317.4v-7c0-1.7-.9-2-2-2a4.4,4.4,0,0,0-2.7,1v8h-1.7V307.1h1l.6,1a5.5,5.5,0,0,1,3.2-1.2c2.6,0,3.3,1.5,3.3,3.5v7Z"/><path d="M499.3,316.9a6.2,6.2,0,0,1-3.1.7c-2.5,0-4.7-1.8-4.7-5.2s2.2-5.5,5.2-5.5a5.4,5.4,0,0,1,2.5.6l-.4,1.3a4.1,4.1,0,0,0-2.1-.4c-2.1,0-3.5,1.2-3.5,4s1.6,3.7,3.3,3.7a4.1,4.1,0,0,0,2.3-.5Z"/><path d="M508,317.4l-.6-1a4.6,4.6,0,0,1-3,1.2c-2.4,0-3.3-1.7-3.3-3.7v-6.8h1.7v6.8c0,1.7.8,2.2,2,2.2a3.4,3.4,0,0,0,2.5-1v-8H509v10.3Z"/><path d="M519.5,316.7a6.3,6.3,0,0,1-3.4.9c-2.9,0-4.7-2-4.7-5.2s1.8-5.5,4.5-5.5,3.8,1.9,3.8,4.2a8.6,8.6,0,0,1-.1,1.6h-6.5c.1,1.7,1,3.4,3.3,3.4a5.5,5.5,0,0,0,2.6-.6Zm-1.4-5.1v-.7c0-1.5-.7-2.5-2.3-2.5s-2.6,1.6-2.7,3.2Z"/><path d="M528.6,317.4v-7c0-1.7-.9-2-2-2a5,5,0,0,0-2.8,1v8h-1.6V307.1h1l.6,1a5.5,5.5,0,0,1,3.1-1.2c2.6,0,3.3,1.5,3.3,3.5v7Z"/><path d="M538.5,317.1a3.9,3.9,0,0,1-2,.5c-1.8,0-2.9-1.1-2.9-3.3v-6h-1.8v-1.2h1.8v-2.2l1.7-.4v2.6h3.1v1.2h-3.1v6.1c0,1.3.6,1.7,1.5,1.7l1.4-.2Z"/><path d="M540.5,317.4V307.1h1l.5,1.4a3.8,3.8,0,0,1,3.1-1.6l.9.2-.3,1.5h-.9a3.1,3.1,0,0,0-2.6,1.3v7.6Z"/><path d="M555.2,317.3a3.5,3.5,0,0,1-1.2.3,1.9,1.9,0,0,1-1.8-1.2,4.4,4.4,0,0,1-3.1,1.2,2.6,2.6,0,0,1-2.9-2.6c0-2.7,2.6-3.2,6-3.2,0-1.9,0-3.4-2.3-3.4a5.7,5.7,0,0,0-2.7.6l-.4-1.3a7.4,7.4,0,0,1,3.4-.8c3.1,0,3.7,1.8,3.7,4.6v3.6c0,.7,0,1.1.7,1.1h.3Zm-3-4.5c-2.6,0-4.3.4-4.3,2a1.5,1.5,0,0,0,1.6,1.4,3.9,3.9,0,0,0,2.7-1Z"/><path d="M196.8,341.7a3.5,3.5,0,0,1-1.2.3,1.7,1.7,0,0,1-1.7-1.2,4.5,4.5,0,0,1-3.2,1.2,2.6,2.6,0,0,1-2.9-2.6c0-2.7,2.6-3.3,6-3.3,0-1.8,0-3.3-2.3-3.3a5.3,5.3,0,0,0-2.6.6l-.4-1.3a6.6,6.6,0,0,1,3.3-.8c3.2,0,3.7,1.8,3.7,4.6v3.6c0,.7.1,1.1.7,1.1h.4Zm-3-4.5c-2.6,0-4.3.4-4.3,2a1.5,1.5,0,0,0,1.6,1.4,3.9,3.9,0,0,0,2.7-1Z"/><path d="M205.7,341.2a5.1,5.1,0,0,1-3,.8c-2.5,0-4.7-1.8-4.7-5.2s2.2-5.5,5.1-5.5a5.5,5.5,0,0,1,2.6.6l-.5,1.3a3.9,3.9,0,0,0-2.1-.4c-2,0-3.4,1.2-3.4,4s1.5,3.7,3.3,3.7a4.4,4.4,0,0,0,2.3-.5Z"/><path d="M213.1,341.5a3.9,3.9,0,0,1-2,.5c-1.9,0-2.9-1.1-2.9-3.3v-6h-1.8v-1.2h1.8v-2.2l1.7-.4v2.6H213v1.2h-3.1v6.1c0,1.2.6,1.7,1.5,1.7l1.4-.2Z"/><path d="M222,341.8l-.6-1a4.6,4.6,0,0,1-3,1.2c-2.4,0-3.3-1.7-3.3-3.7v-6.8h1.6v6.8c0,1.7.9,2.2,2.1,2.2a3.8,3.8,0,0,0,2.5-1v-8h1.6v10.3Z"/><path d="M234.3,341.7a3.5,3.5,0,0,1-1.2.3,1.7,1.7,0,0,1-1.7-1.2,4.5,4.5,0,0,1-3.2,1.2,2.6,2.6,0,0,1-2.9-2.6c0-2.7,2.6-3.3,6-3.3,0-1.8,0-3.3-2.3-3.3a5.3,5.3,0,0,0-2.6.6l-.4-1.3a6.6,6.6,0,0,1,3.3-.8c3.2,0,3.7,1.8,3.7,4.6v3.6c0,.7.1,1.1.7,1.1h.4Zm-3-4.5c-2.6,0-4.3.4-4.3,2a1.5,1.5,0,0,0,1.6,1.4,3.9,3.9,0,0,0,2.7-1Z"/><path d="M239.3,341.7a3.3,3.3,0,0,1-1.3.3c-1.4,0-1.7-.9-1.7-2.1V326.5h1.6v13.2c0,.5.1.9.7.9h.4Z"/><path d="M253.3,341.8v-7a1.8,1.8,0,0,0-2-2,3.7,3.7,0,0,0-2.3,1v8h-1.7v-7c0-1.5-.7-2-2-2a3.7,3.7,0,0,0-2.3,1v8h-1.7V331.5h1l.6,1a4.4,4.4,0,0,1,2.8-1.2,3.2,3.2,0,0,1,2.9,1.4,5,5,0,0,1,3.1-1.4c2.3,0,3.3,1.3,3.3,3.5v7Z"/><path d="M265.4,341.1a6.6,6.6,0,0,1-3.4.9c-2.9,0-4.8-2-4.8-5.2s1.8-5.5,4.6-5.5,3.8,1.9,3.8,4.2a8.8,8.8,0,0,1-.2,1.6H259a3.1,3.1,0,0,0,3.3,3.4,5.9,5.9,0,0,0,2.6-.6ZM264,336v-.7c0-1.5-.7-2.5-2.3-2.5s-2.7,1.6-2.7,3.2Z"/><path d="M274.5,341.8v-7c0-1.7-.9-2-2.1-2a4.9,4.9,0,0,0-2.7,1v8h-1.6V331.5h.9l.7,1a5.2,5.2,0,0,1,3.1-1.2c2.6,0,3.3,1.5,3.3,3.5v7Z"/><path d="M284.4,341.5a4.1,4.1,0,0,1-2.1.5c-1.8,0-2.8-1.1-2.8-3.3v-6h-1.8v-1.2h1.8v-2.2l1.6-.4v2.6h3.2v1.2h-3.2v6.1a1.5,1.5,0,0,0,1.6,1.7l1.3-.2Z"/><path d="M293.7,341.1a6.2,6.2,0,0,1-3.3.9c-2.9,0-4.8-2-4.8-5.2s1.8-5.5,4.5-5.5,3.8,1.9,3.8,4.2a8.6,8.6,0,0,1-.1,1.6h-6.5c.1,1.7,1,3.4,3.4,3.4a6.2,6.2,0,0,0,2.6-.6Zm-1.4-5.1c0-.2.1-.5.1-.7a2.2,2.2,0,0,0-2.4-2.5c-1.8,0-2.6,1.6-2.6,3.2Z"/><path d="M308.5,341.1a6.2,6.2,0,0,1-3.3.9c-2.9,0-4.8-2-4.8-5.2s1.8-5.5,4.5-5.5,3.9,1.9,3.9,4.2a8.8,8.8,0,0,1-.2,1.6h-6.4a3.1,3.1,0,0,0,3.3,3.4,6.2,6.2,0,0,0,2.6-.6Zm-1.4-5.1a1.7,1.7,0,0,0,.1-.7c0-1.5-.7-2.5-2.3-2.5s-2.7,1.6-2.7,3.2Z"/><path d="M314.2,341.7a2.5,2.5,0,0,1-1.2.3c-1.4,0-1.8-.9-1.8-2.1V326.5h1.7v13.2c0,.5.1.9.7.9h.4Z"/><path d="M321.1,345.9V331.5h1.1l.5,1a4.1,4.1,0,0,1,2.8-1.2c2.7,0,4.4,2.2,4.4,5.1S328,342,325,342a4.9,4.9,0,0,1-2.2-.5v4.4Zm1.7-5.9a4.2,4.2,0,0,0,2.1.5c2,0,3.3-1.4,3.3-3.9s-1.2-3.8-3-3.8a3.7,3.7,0,0,0-2.4,1Z"/><path d="M340.5,341.7a3.5,3.5,0,0,1-1.2.3,1.8,1.8,0,0,1-1.8-1.2,4.4,4.4,0,0,1-3.1,1.2,2.6,2.6,0,0,1-2.9-2.6c0-2.7,2.6-3.3,6-3.3,0-1.8,0-3.3-2.3-3.3a5.7,5.7,0,0,0-2.7.6l-.4-1.3a7.4,7.4,0,0,1,3.4-.8c3.1,0,3.7,1.8,3.7,4.6v3.6c0,.7,0,1.1.7,1.1h.3Zm-3-4.5c-2.6,0-4.4.4-4.4,2a1.6,1.6,0,0,0,1.7,1.4,4.1,4.1,0,0,0,2.7-1Z"/><path d="M342.2,329.7l1.9-3h1.8l-2.3,3Zm3.2,12a2.5,2.5,0,0,1-1.2.3c-1.4,0-1.8-.9-1.8-2.1v-8.4h1.7v8.2c0,.5.1.9.7.9h.4Z"/><path d="M347.3,340a7.2,7.2,0,0,0,2.7.6c1.6,0,2.2-.7,2.2-1.6s-5.1-1.1-5.1-4.7c0-1.8,1.4-3,3.6-3a5.8,5.8,0,0,1,2.8.6l-.5,1.3a5.2,5.2,0,0,0-2.3-.5c-1.4,0-2,.7-2,1.5,0,2.3,5.1,1.1,5.1,4.6,0,1.7-1.2,3.2-3.9,3.2a5.7,5.7,0,0,1-3-.8Z"/><path d="M355.9,344.6a3.7,3.7,0,0,0,1-2.4,1.6,1.6,0,0,0-1.1-1.6s.2-1.1,1.2-1.1,1.4.8,1.4,1.8a5.4,5.4,0,0,1-1.7,3.8Z"/><path d="M371.3,341.5a3.7,3.7,0,0,1-2,.5c-1.8,0-2.8-1.1-2.8-3.3v-6h-1.9v-1.2h1.9v-2.2l1.6-.4v2.6h3.2v1.2h-3.2v6.1c0,1.2.6,1.7,1.6,1.7l1.3-.2Z"/><path d="M380.7,341.1a6.3,6.3,0,0,1-3.4.9c-2.9,0-4.7-2-4.7-5.2s1.8-5.5,4.5-5.5,3.8,1.9,3.8,4.2a8.8,8.8,0,0,1-.2,1.6h-6.4a3.2,3.2,0,0,0,3.3,3.4,5.5,5.5,0,0,0,2.6-.6Zm-1.4-5.1v-.7c0-1.5-.7-2.5-2.3-2.5s-2.6,1.6-2.7,3.2Z"/><path d="M389.8,341.8v-7c0-1.7-.9-2-2-2a5,5,0,0,0-2.8,1v8h-1.6V331.5h1l.6,1a5.5,5.5,0,0,1,3.1-1.2c2.6,0,3.3,1.5,3.3,3.5v7Z"/><path d="M395.4,329.4a1.1,1.1,0,0,1-1.1-1.1,1,1,0,0,1,1.1-1,1,1,0,0,1,1,1.1A1,1,0,0,1,395.4,329.4Zm2.1,12.3a3.3,3.3,0,0,1-1.3.3c-1.3,0-1.7-.9-1.7-2.1v-8.4h1.6v8.2c0,.5.1.9.7.9h.4Z"/><path d="M406.9,341.1a6.3,6.3,0,0,1-3.4.9c-2.9,0-4.7-2-4.7-5.2s1.8-5.5,4.5-5.5,3.8,1.9,3.8,4.2a8.8,8.8,0,0,1-.2,1.6h-6.4a3.2,3.2,0,0,0,3.3,3.4,5.5,5.5,0,0,0,2.6-.6Zm-1.4-5.1v-.7c0-1.5-.7-2.5-2.3-2.5s-2.6,1.6-2.7,3.2Z"/><path d="M416,341.8v-7c0-1.7-.9-2-2-2a5,5,0,0,0-2.8,1v8h-1.6V331.5h1l.6,1a5.5,5.5,0,0,1,3.1-1.2c2.6,0,3.3,1.5,3.3,3.5v7Z"/><path d="M427.5,341.8l-.4-1a4.1,4.1,0,0,1-2.8,1.2c-2.6,0-4.4-2.2-4.4-5.1s1.9-5.6,4.8-5.6a5.1,5.1,0,0,1,2.3.5v-5.3h1.7v15.3Zm-.5-8.5a4.2,4.2,0,0,0-2.1-.5c-2.1,0-3.3,1.5-3.3,3.9s1.2,3.8,3,3.8a3.7,3.7,0,0,0,2.4-1Z"/><path d="M435.9,331.3c3.2,0,4.7,2.4,4.7,5.4s-1.9,5.3-4.8,5.3-4.7-2.4-4.7-5.3S432.9,331.3,435.9,331.3Zm-.1,9.2c2.1,0,3.1-1.7,3.1-3.8s-1-3.9-3.1-3.9-3,1.7-3,3.9S433.7,340.5,435.8,340.5Z"/><path d="M455.1,341.1a6.2,6.2,0,0,1-3.3.9c-2.9,0-4.8-2-4.8-5.2s1.8-5.5,4.5-5.5,3.8,1.9,3.8,4.2a8.6,8.6,0,0,1-.1,1.6h-6.5c.1,1.7,1,3.4,3.4,3.4a6.2,6.2,0,0,0,2.6-.6Zm-1.4-5.1c0-.2.1-.5.1-.7a2.2,2.2,0,0,0-2.4-2.5c-1.8,0-2.6,1.6-2.6,3.2Z"/><path d="M464.2,341.8v-7c0-1.7-.9-2-2-2a4.4,4.4,0,0,0-2.7,1v8h-1.7V331.5h1l.6,1a5.5,5.5,0,0,1,3.2-1.2c2.5,0,3.3,1.5,3.3,3.5v7Z"/><path d="M480.6,341.2a4.7,4.7,0,0,1-3,.8c-2.5,0-4.7-1.8-4.7-5.2s2.2-5.5,5.2-5.5a5.4,5.4,0,0,1,2.5.6l-.4,1.3a4.4,4.4,0,0,0-2.1-.4c-2.1,0-3.5,1.2-3.5,4s1.6,3.7,3.3,3.7a4.1,4.1,0,0,0,2.3-.5Z"/><path d="M489.3,341.8l-.5-1a4.6,4.6,0,0,1-3,1.2c-2.4,0-3.3-1.7-3.3-3.7v-6.8h1.6v6.8c0,1.7.9,2.2,2.1,2.2a3.8,3.8,0,0,0,2.5-1v-8h1.6v10.3Z"/><path d="M500.9,341.1a6.6,6.6,0,0,1-3.4.9c-2.9,0-4.8-2-4.8-5.2s1.9-5.5,4.6-5.5,3.8,1.9,3.8,4.2a8.8,8.8,0,0,1-.2,1.6h-6.4a3.1,3.1,0,0,0,3.3,3.4,5.9,5.9,0,0,0,2.6-.6Zm-1.4-5.1v-.7c0-1.5-.7-2.5-2.3-2.5s-2.6,1.6-2.7,3.2Z"/><path d="M510,341.8v-7c0-1.7-.9-2-2.1-2a4.9,4.9,0,0,0-2.7,1v8h-1.6V331.5h1l.6,1a5.5,5.5,0,0,1,3.1-1.2c2.6,0,3.3,1.5,3.3,3.5v7Z"/><path d="M519.9,341.5a4.1,4.1,0,0,1-2.1.5c-1.8,0-2.8-1.1-2.8-3.3v-6h-1.8v-1.2H515v-2.2l1.6-.4v2.6h3.2v1.2h-3.2v6.1a1.5,1.5,0,0,0,1.6,1.7l1.4-.2Z"/><path d="M530.1,341.7a3.5,3.5,0,0,1-1.3.3,1.7,1.7,0,0,1-1.7-1.2,4.5,4.5,0,0,1-3.2,1.2,2.7,2.7,0,0,1-2.9-2.6c0-2.7,2.7-3.3,6.1-3.3,0-1.8,0-3.3-2.3-3.3a5.4,5.4,0,0,0-2.7.6l-.4-1.3a6.9,6.9,0,0,1,3.3-.8c3.2,0,3.7,1.8,3.7,4.6v3.6c0,.7.1,1.1.8,1.1h.3Zm-3-4.5c-2.6,0-4.4.4-4.4,2a1.6,1.6,0,0,0,1.7,1.4,4.1,4.1,0,0,0,2.7-1Z"/><path d="M539.8,341.7a2.5,2.5,0,0,1-1.2.3c-1.4,0-1.8-.9-1.8-2.1V326.5h1.7v13.2c0,.5,0,.9.7.9s.3,0,.3-.1Z"/><path d="M545.9,331.3c3.3,0,4.7,2.4,4.7,5.4s-1.9,5.3-4.8,5.3-4.7-2.4-4.7-5.3S543,331.3,545.9,331.3Zm-.1,9.2c2.1,0,3.1-1.7,3.1-3.8s-1-3.9-3.1-3.9-3,1.7-3,3.9S543.7,340.5,545.8,340.5Z"/><path d="M552.8,340a7.2,7.2,0,0,0,2.7.6c1.6,0,2.2-.7,2.2-1.6s-5.1-1.1-5.1-4.7c0-1.8,1.4-3,3.6-3a5.8,5.8,0,0,1,2.8.6l-.5,1.3a4.9,4.9,0,0,0-2.3-.5c-1.4,0-2,.7-2,1.5,0,2.3,5.1,1.1,5.1,4.6,0,1.7-1.2,3.2-3.9,3.2a6,6,0,0,1-3-.8Z"/><path d="M188.6,370.3V355.9h1.2l.4,1a4.4,4.4,0,0,1,2.8-1.2c2.8,0,4.4,2.2,4.4,5.1s-1.9,5.6-4.8,5.6a5.7,5.7,0,0,1-2.3-.5v4.4Zm1.7-5.9a4.2,4.2,0,0,0,2.1.5c2.1,0,3.3-1.5,3.3-3.9s-1.2-3.8-3-3.8a3.7,3.7,0,0,0-2.4,1Z"/><path d="M199.8,366.2V355.9h1l.5,1.4a3.8,3.8,0,0,1,3.1-1.6l.9.2-.3,1.5h-.8a3.3,3.3,0,0,0-2.7,1.3v7.6Z"/><path d="M210.6,355.7c3.2,0,4.7,2.4,4.7,5.3s-1.9,5.4-4.9,5.4-4.6-2.4-4.6-5.4S207.6,355.7,210.6,355.7Zm-.1,9.2c2.1,0,3.1-1.7,3.1-3.9s-1-3.8-3.1-3.8-3.1,1.7-3.1,3.8S208.4,364.9,210.5,364.9Z"/><path d="M224.6,365.6a5.7,5.7,0,0,1-3,.8c-2.5,0-4.7-1.8-4.7-5.2s2.2-5.5,5.1-5.5a5.5,5.5,0,0,1,2.6.6l-.5,1.3a3.9,3.9,0,0,0-2.1-.4c-2,0-3.4,1.2-3.4,4s1.5,3.7,3.3,3.7a4.4,4.4,0,0,0,2.3-.5Z"/><path d="M233.8,365.5a6.2,6.2,0,0,1-3.3.9c-3,0-4.8-2-4.8-5.2s1.8-5.5,4.5-5.5,3.8,1.9,3.8,4.2a9.2,9.2,0,0,1-.1,1.6h-6.5c.1,1.7,1,3.4,3.3,3.4a5.5,5.5,0,0,0,2.6-.6Zm-1.4-5.1v-.7c0-1.5-.7-2.5-2.3-2.5s-2.6,1.6-2.7,3.2Z"/><path d="M236.3,364.4a7.1,7.1,0,0,0,2.6.6c1.6,0,2.2-.7,2.2-1.6,0-2.5-5-1.2-5-4.7,0-1.8,1.4-3,3.6-3a5.4,5.4,0,0,1,2.7.6l-.4,1.3a5.2,5.2,0,0,0-2.3-.5c-1.4,0-2.1.7-2.1,1.5s5.2,1,5.2,4.6c0,1.7-1.3,3.2-3.9,3.2a6.4,6.4,0,0,1-3.1-.8Z"/><path d="M249.2,355.7c3.2,0,4.7,2.4,4.7,5.3s-1.9,5.4-4.8,5.4-4.7-2.4-4.7-5.4S246.2,355.7,249.2,355.7Zm-.1,9.2c2.1,0,3.1-1.7,3.1-3.9s-1-3.8-3.1-3.8-3,1.7-3,3.8S247,364.9,249.1,364.9Z"/><path d="M256.1,364.4a7.1,7.1,0,0,0,2.6.6c1.6,0,2.2-.7,2.2-1.6,0-2.5-5-1.2-5-4.7,0-1.8,1.4-3,3.6-3a5.4,5.4,0,0,1,2.7.6l-.4,1.3a5.2,5.2,0,0,0-2.3-.5c-1.4,0-2.1.7-2.1,1.5s5.2,1,5.2,4.6c0,1.7-1.3,3.2-3.9,3.2a6.4,6.4,0,0,1-3.1-.8Z"/><path d="M268.1,355.9H270l3.2,8.5,2.8-8.5h1.7l-4.2,11.5a3.7,3.7,0,0,1-3.7,2.9,3.9,3.9,0,0,1-1.8-.5l.5-1.3a2.9,2.9,0,0,0,1.4.3c1.4,0,2-1,2.5-2.5Z"/><path d="M287.5,366a2.2,2.2,0,0,1-1.3.4,1.7,1.7,0,0,1-1.7-1.2,4.5,4.5,0,0,1-3.2,1.2,2.7,2.7,0,0,1-2.9-2.6c0-2.7,2.7-3.3,6.1-3.3,0-1.8,0-3.3-2.3-3.3a5.4,5.4,0,0,0-2.7.6l-.4-1.3a6.9,6.9,0,0,1,3.3-.8c3.2,0,3.7,1.7,3.7,4.6v3.6c0,.7.1,1.1.8,1.1h.3Zm-3-4.4c-2.6,0-4.4.4-4.4,2a1.6,1.6,0,0,0,1.7,1.4,4.1,4.1,0,0,0,2.7-1Z"/><path d="M295.1,353.8a1,1,0,0,1-1-1.1,1.1,1.1,0,1,1,2.1.1A1,1,0,0,1,295.1,353.8Zm2.1,12.2a2.1,2.1,0,0,1-1.2.4c-1.4,0-1.8-.9-1.8-2.1v-8.4h1.7v8.2c0,.5,0,.9.7.9h.3Z"/><path d="M305.7,366.2v-7c0-1.7-.9-2-2-2a5,5,0,0,0-2.8,1v8h-1.6V355.9h1l.6,1a5.5,5.5,0,0,1,3.2-1.2c2.5,0,3.2,1.5,3.2,3.5v7Z"/><path d="M311.3,353.8a1,1,0,0,1-1-1.1.9.9,0,0,1,1-1,1,1,0,0,1,1.1,1.1A1.1,1.1,0,0,1,311.3,353.8Zm2.1,12.2a2.2,2.2,0,0,1-1.3.4c-1.3,0-1.7-.9-1.7-2.1v-8.4H312v8.2c0,.5.1.9.8.9h.3Z"/><path d="M322.4,365.6a5.4,5.4,0,0,1-3,.8c-2.5,0-4.7-1.8-4.7-5.2s2.2-5.5,5.1-5.5a5.5,5.5,0,0,1,2.6.6l-.5,1.3a3.9,3.9,0,0,0-2.1-.4c-2,0-3.4,1.2-3.4,4s1.5,3.7,3.3,3.7a4.4,4.4,0,0,0,2.3-.5Z"/><path d="M325.2,353.8a1,1,0,0,1-1-1.1.9.9,0,0,1,1-1,1,1,0,0,1,1.1,1.1A1.1,1.1,0,0,1,325.2,353.8Zm2.1,12.2a2.2,2.2,0,0,1-1.3.4c-1.3,0-1.7-.9-1.7-2.1v-8.4h1.6v8.2c0,.5.1.9.7.9h.4Z"/><path d="M337.6,366a2.5,2.5,0,0,1-1.3.4,1.7,1.7,0,0,1-1.7-1.2,4.5,4.5,0,0,1-3.2,1.2,2.7,2.7,0,0,1-2.9-2.6c0-2.7,2.6-3.3,6.1-3.3,0-1.8-.1-3.3-2.3-3.3a5.4,5.4,0,0,0-2.7.6l-.4-1.3a6.6,6.6,0,0,1,3.3-.8c3.2,0,3.7,1.7,3.7,4.6v3.6c0,.7.1,1.1.7,1.1h.4Zm-3-4.4c-2.7,0-4.4.4-4.4,2a1.5,1.5,0,0,0,1.6,1.4,4.3,4.3,0,0,0,2.8-1Z"/><path d="M346.4,366.2l-.5-1a4.1,4.1,0,0,1-2.8,1.2c-2.6,0-4.4-2.2-4.4-5.1s1.9-5.6,4.8-5.6a5.1,5.1,0,0,1,2.3.5v-5.3h1.7v15.3Zm-.6-8.5a4.2,4.2,0,0,0-2.1-.5c-2,0-3.3,1.4-3.3,3.9s1.2,3.8,3,3.8a3.7,3.7,0,0,0,2.4-1Z"/><path d="M354.7,355.7c3.2,0,4.7,2.4,4.7,5.3s-1.9,5.4-4.8,5.4-4.7-2.4-4.7-5.4S351.8,355.7,354.7,355.7Zm-.1,9.2c2.1,0,3.1-1.7,3.1-3.9s-1-3.8-3.1-3.8-3,1.7-3,3.8S352.5,364.9,354.6,364.9Z"/><path d="M361.6,364.4a7.2,7.2,0,0,0,2.7.6c1.5,0,2.2-.7,2.2-1.6,0-2.5-5.1-1.2-5.1-4.7,0-1.8,1.4-3,3.6-3a6.1,6.1,0,0,1,2.8.6l-.5,1.3a5.2,5.2,0,0,0-2.3-.5c-1.4,0-2,.7-2,1.5s5.1,1,5.1,4.6c0,1.7-1.3,3.2-3.9,3.2a5.7,5.7,0,0,1-3-.8Z"/><path d="M383.5,366a2.5,2.5,0,0,1-1.3.4,1.7,1.7,0,0,1-1.7-1.2,4.5,4.5,0,0,1-3.2,1.2,2.7,2.7,0,0,1-2.9-2.6c0-2.7,2.7-3.3,6.1-3.3,0-1.8,0-3.3-2.3-3.3a5.4,5.4,0,0,0-2.7.6l-.4-1.3a6.6,6.6,0,0,1,3.3-.8c3.2,0,3.7,1.7,3.7,4.6v3.6c0,.7.1,1.1.7,1.1h.4Zm-3-4.4c-2.6,0-4.4.4-4.4,2a1.5,1.5,0,0,0,1.7,1.4,4.1,4.1,0,0,0,2.7-1Z"/><path d="M388.4,366a2.2,2.2,0,0,1-1.3.4c-1.3,0-1.7-.9-1.7-2.1V350.9H387v13.2c0,.5.1.9.8.9h.3Z"/><path d="M396.2,353.8a1,1,0,0,1-1-1.1.9.9,0,0,1,1-1,1,1,0,0,1,1,1.1A1,1,0,0,1,396.2,353.8Zm2.1,12.2a2.2,2.2,0,0,1-1.3.4c-1.3,0-1.7-.9-1.7-2.1v-8.4h1.6v8.2c0,.5.1.9.7.9h.4Z"/><path d="M406.8,366.2v-7c0-1.7-.9-2-2.1-2a4.9,4.9,0,0,0-2.7,1v8h-1.6V355.9h1l.6,1a5.5,5.5,0,0,1,3.1-1.2c2.6,0,3.3,1.5,3.3,3.5v7Z"/><path d="M416.7,365.9a5.4,5.4,0,0,1-2.1.5c-1.8,0-2.8-1.1-2.8-3.3v-6H410v-1.2h1.8v-2.2l1.6-.4v2.6h3.2v1.2h-3.2v6.1a1.5,1.5,0,0,0,1.6,1.7,2.9,2.9,0,0,0,1.4-.3Z"/><path d="M426,365.5a6.2,6.2,0,0,1-3.3.9c-2.9,0-4.8-2-4.8-5.2s1.8-5.5,4.5-5.5,3.9,1.9,3.9,4.2a10,10,0,0,1-.2,1.6h-6.5c.1,1.7,1,3.4,3.4,3.4a6.2,6.2,0,0,0,2.6-.6Zm-1.4-5.1c0-.2.1-.5.1-.7s-.7-2.5-2.3-2.5-2.7,1.6-2.7,3.2Z"/><path d="M428.7,366.2V355.9h1l.5,1.4a3.8,3.8,0,0,1,3.1-1.6l.9.2-.3,1.5H433a3.1,3.1,0,0,0-2.6,1.3v7.6Z"/><path d="M436.7,353.8a1,1,0,0,1-1-1.1,1.1,1.1,0,0,1,2.1.1A1,1,0,0,1,436.7,353.8Zm2.1,12.2a2.1,2.1,0,0,1-1.2.4c-1.4,0-1.8-.9-1.8-2.1v-8.4h1.7v8.2c0,.5.1.9.7.9h.4Z"/><path d="M444.9,355.7c3.3,0,4.7,2.4,4.7,5.3s-1.8,5.4-4.8,5.4-4.7-2.4-4.7-5.4S442,355.7,444.9,355.7Zm0,9.2c2,0,3-1.7,3-3.9s-1-3.8-3-3.8-3.1,1.7-3.1,3.8S442.8,364.9,444.9,364.9Z"/><path d="M452,366.2V355.9h1l.5,1.4a3.8,3.8,0,0,1,3.1-1.6l.9.2-.3,1.5h-.8a3.3,3.3,0,0,0-2.7,1.3v7.6Z"/><path d="M470.8,366.2l-.4-1a4.5,4.5,0,0,1-2.9,1.2c-2.5,0-4.4-2.2-4.4-5.1s2-5.6,4.9-5.6a5.7,5.7,0,0,1,2.3.5v-5.3h1.6v15.3Zm-.5-8.5a4.2,4.2,0,0,0-2.1-.5c-2.1,0-3.3,1.4-3.3,3.9s1.2,3.8,3,3.8a3.7,3.7,0,0,0,2.4-1Z"/><path d="M482.5,365.5a6.3,6.3,0,0,1-3.4.9c-2.9,0-4.8-2-4.8-5.2s1.9-5.5,4.6-5.5,3.8,1.9,3.8,4.2a10,10,0,0,1-.2,1.6h-6.4a3.2,3.2,0,0,0,3.3,3.4,5.9,5.9,0,0,0,2.6-.6Zm-1.4-5.1v-.7c0-1.5-.7-2.5-2.3-2.5s-2.6,1.6-2.7,3.2Z"/><path d="M492.9,366a2.1,2.1,0,0,1-1.2.4c-1.4,0-1.7-.9-1.7-2.1V350.9h1.6v13.2c0,.5.1.9.7.9h.4Z"/><path d="M503.2,366a2.1,2.1,0,0,1-1.2.4,1.7,1.7,0,0,1-1.7-1.2,4.5,4.5,0,0,1-3.2,1.2,2.6,2.6,0,0,1-2.9-2.6c0-2.7,2.6-3.3,6-3.3,0-1.8,0-3.3-2.3-3.3a5.3,5.3,0,0,0-2.6.6l-.4-1.3a6.6,6.6,0,0,1,3.3-.8c3.2,0,3.7,1.7,3.7,4.6v3.6c0,.7.1,1.1.7,1.1h.4Zm-3-4.4c-2.6,0-4.3.4-4.3,2a1.5,1.5,0,0,0,1.6,1.4,3.9,3.9,0,0,0,2.7-1Z"/><path d="M505,364.4a6.6,6.6,0,0,0,2.6.6c1.6,0,2.2-.7,2.2-1.6,0-2.5-5.1-1.2-5.1-4.7,0-1.8,1.5-3,3.7-3a5.4,5.4,0,0,1,2.7.6l-.4,1.3a5.2,5.2,0,0,0-2.3-.5c-1.4,0-2.1.7-2.1,1.5s5.1,1,5.1,4.6c0,1.7-1.2,3.2-3.8,3.2a6.4,6.4,0,0,1-3.1-.8Z"/><path d="M188.8,390.6V377.3h7.5v1.4h-5.9v4.6h4.8v1.5h-4.8v5.8Z"/><path d="M205,390.6l-.6-1a4.4,4.4,0,0,1-2.9,1.2c-2.5,0-3.3-1.7-3.3-3.7v-6.8h1.6v6.8c0,1.7.9,2.2,2,2.2a4.1,4.1,0,0,0,2.6-1v-8H206v10.3Z"/><path d="M216.5,389.8a5.4,5.4,0,0,1-3.3,1c-2.9,0-4.8-2-4.8-5.2s1.8-5.5,4.5-5.5,3.9,1.9,3.9,4.2a10,10,0,0,1-.2,1.6h-6.4a3.1,3.1,0,0,0,3.3,3.4,6.2,6.2,0,0,0,2.6-.6Zm-1.4-5a1.7,1.7,0,0,0,.1-.7c0-1.5-.7-2.5-2.3-2.5s-2.7,1.6-2.7,3.2Z"/><path d="M219.2,390.6V380.3h1l.5,1.4a3.8,3.8,0,0,1,3.1-1.6l.9.2-.3,1.5h-.8a3.3,3.3,0,0,0-2.7,1.3v7.6Z"/><path d="M225.7,390.6v-1.3l5.9-7.6h-5.8v-1.4h7.6v1.5l-5.8,7.4h5.9v1.4Z"/><path d="M244,390.4a2.1,2.1,0,0,1-1.2.4,1.9,1.9,0,0,1-1.8-1.2,4.4,4.4,0,0,1-3.1,1.2,2.6,2.6,0,0,1-2.9-2.6c0-2.7,2.6-3.3,6-3.3,0-1.8,0-3.3-2.3-3.3a5.7,5.7,0,0,0-2.7.6l-.4-1.3a7.4,7.4,0,0,1,3.4-.8c3.1,0,3.7,1.7,3.7,4.5v3.7c0,.7,0,1.1.7,1.1h.3Zm-3-4.4c-2.6,0-4.3.4-4.3,2a1.5,1.5,0,0,0,1.6,1.4,3.7,3.7,0,0,0,2.7-1.1Z"/><path d="M245.8,388.8a6.2,6.2,0,0,0,2.6.6c1.6,0,2.2-.8,2.2-1.6,0-2.5-5.1-1.2-5.1-4.7,0-1.8,1.4-3,3.6-3a5.5,5.5,0,0,1,2.8.6l-.5,1.3a4.8,4.8,0,0,0-2.2-.5c-1.5,0-2.1.6-2.1,1.5s5.1,1,5.1,4.6c0,1.7-1.2,3.2-3.9,3.2a6.3,6.3,0,0,1-3-.8Z"/><path d="M271,390.6V378.5l-4.1,10h-1.6l-4.3-10v12.1h-1.4V377.3h2.5l4,9.6,3.9-9.6h2.6v13.3Z"/><path d="M276.9,378.2a1,1,0,0,1-1.1-1.1,1,1,0,0,1,1.1-1,1,1,0,0,1,1,1.1A1,1,0,0,1,276.9,378.2Zm2,12.2a2.1,2.1,0,0,1-1.2.4c-1.4,0-1.7-1-1.7-2.1v-8.4h1.6v8.2c0,.5.1.9.7.9h.4Z"/><path d="M284,390.4a2.1,2.1,0,0,1-1.2.4c-1.4,0-1.8-1-1.8-2.1V375.3h1.7v13.2c0,.5.1.9.7.9h.4Z"/><path d="M287,378.2a1,1,0,0,1-1-1.1,1.1,1.1,0,0,1,2.1.1A1,1,0,0,1,287,378.2Zm2.1,12.2a2.1,2.1,0,0,1-1.2.4c-1.4,0-1.8-1-1.8-2.1v-8.4h1.7v8.2c0,.5.1.9.7.9h.3Z"/><path d="M296.4,390.3a4.8,4.8,0,0,1-2,.5c-1.8,0-2.9-1.1-2.9-3.3v-6h-1.8v-1.2h1.8v-2.2l1.7-.4v2.6h3.2v1.2h-3.2v6.1c0,1.2.6,1.7,1.6,1.7a2.5,2.5,0,0,0,1.3-.3Z"/><path d="M306.6,390.4a2.1,2.1,0,0,1-1.2.4,1.7,1.7,0,0,1-1.7-1.2,4.5,4.5,0,0,1-3.2,1.2,2.6,2.6,0,0,1-2.9-2.6c0-2.7,2.6-3.3,6-3.3,0-1.8,0-3.3-2.3-3.3a5.3,5.3,0,0,0-2.6.6l-.4-1.3a6.6,6.6,0,0,1,3.3-.8c3.2,0,3.7,1.7,3.7,4.5v3.7c0,.7.1,1.1.7,1.1h.4Zm-3-4.4c-2.6,0-4.3.4-4.3,2a1.5,1.5,0,0,0,1.6,1.4,3.5,3.5,0,0,0,2.7-1.1Z"/><path d="M308.6,390.6V380.3h1l.4,1.4a4,4,0,0,1,3.1-1.6l1,.2-.4,1.5h-.8a3.5,3.5,0,0,0-2.7,1.3v7.6Z"/><path d="M322.6,389.8a5.4,5.4,0,0,1-3.3,1c-3,0-4.8-2-4.8-5.2s1.8-5.5,4.5-5.5,3.8,1.9,3.8,4.2a9.2,9.2,0,0,1-.1,1.6h-6.5c.1,1.7,1,3.4,3.3,3.4a5.5,5.5,0,0,0,2.6-.6Zm-1.4-5v-.7c0-1.5-.7-2.5-2.3-2.5s-2.6,1.6-2.7,3.2Z"/><path d="M325.1,388.8a7.2,7.2,0,0,0,2.7.6c1.5,0,2.1-.8,2.1-1.6,0-2.5-5-1.2-5-4.7,0-1.8,1.4-3,3.6-3a5.4,5.4,0,0,1,2.7.6l-.4,1.3a5.2,5.2,0,0,0-2.3-.5c-1.4,0-2,.6-2,1.5s5.1,1,5.1,4.6c0,1.7-1.3,3.2-3.9,3.2a6.4,6.4,0,0,1-3.1-.8Z"/><path d="M337.1,380.3H339l3.2,8.5,2.8-8.5h1.7l-4.2,11.5a3.8,3.8,0,0,1-3.7,2.9,3.9,3.9,0,0,1-1.8-.5l.6-1.3a2.5,2.5,0,0,0,1.3.3c1.4,0,2-1,2.5-2.5Z"/><path d="M356.1,390.4a2.2,2.2,0,0,1-1.3.4c-1.3,0-1.7-1-1.7-2.1V375.3h1.6v13.2c0,.5.1.9.8.9h.3Z"/><path d="M366.4,390.4a2.5,2.5,0,0,1-1.3.4,1.7,1.7,0,0,1-1.7-1.2,4.5,4.5,0,0,1-3.2,1.2,2.7,2.7,0,0,1-2.9-2.6c0-2.7,2.7-3.3,6.1-3.3,0-1.8,0-3.3-2.3-3.3a5.4,5.4,0,0,0-2.7.6l-.4-1.3a6.6,6.6,0,0,1,3.3-.8c3.2,0,3.7,1.7,3.7,4.5v3.7c0,.7.1,1.1.7,1.1h.4Zm-3-4.4c-2.6,0-4.4.4-4.4,2a1.5,1.5,0,0,0,1.7,1.4,3.7,3.7,0,0,0,2.7-1.1Z"/><path d="M373.3,390.6V377.3h3.8c3.1,0,4.8,1.4,4.8,4.2s-1.7,4.2-4.8,4.2h-2.2v4.9Zm3.9-6.3a2.7,2.7,0,0,0,3-2.8c0-1.5-.8-2.8-3-2.8h-2.3v5.6Z"/><path d="M388,380.1c3.3,0,4.7,2.4,4.7,5.3s-1.9,5.4-4.8,5.4-4.7-2.4-4.7-5.4S385.1,380.1,388,380.1Zm-.1,9.2c2.1,0,3.1-1.7,3.1-3.9s-1-3.8-3.1-3.8-3,1.7-3,3.8S385.8,389.3,387.9,389.3Z"/><path d="M398.1,390.4a2.1,2.1,0,0,1-1.2.4c-1.4,0-1.8-1-1.8-2.1V375.3h1.7v13.2c0,.5,0,.9.7.9h.3Z"/><path d="M401.1,378.2a1,1,0,0,1-1-1.1.9.9,0,0,1,1-1,1,1,0,0,1,1.1,1.1A1.1,1.1,0,0,1,401.1,378.2Zm2.1,12.2a2.2,2.2,0,0,1-1.3.4c-1.3,0-1.7-1-1.7-2.1v-8.4h1.6v8.2c0,.5.1.9.8.9h.3Z"/><path d="M412.2,390a5.4,5.4,0,0,1-3,.8c-2.5,0-4.7-1.8-4.7-5.2s2.2-5.5,5.1-5.5a5.5,5.5,0,0,1,2.6.6l-.5,1.3a3.9,3.9,0,0,0-2.1-.4c-2,0-3.4,1.2-3.4,4s1.5,3.7,3.3,3.7a4.4,4.4,0,0,0,2.3-.5Z"/><path d="M413.9,378.5l1.8-3h1.9l-2.3,3Zm3.2,11.9a2.2,2.2,0,0,1-1.3.4c-1.3,0-1.7-1-1.7-2.1v-8.4h1.6v8.2c0,.5.1.9.7.9h.4Z"/><path d="M427.3,390.4a1.9,1.9,0,0,1-1.2.4,1.7,1.7,0,0,1-1.7-1.2,4.5,4.5,0,0,1-3.2,1.2,2.7,2.7,0,0,1-2.9-2.6c0-2.7,2.6-3.3,6.1-3.3,0-1.8-.1-3.3-2.3-3.3a5.4,5.4,0,0,0-2.7.6l-.4-1.3a6.6,6.6,0,0,1,3.3-.8c3.2,0,3.7,1.7,3.7,4.5v3.7c0,.7.1,1.1.7,1.1h.4Zm-2.9-4.4c-2.7,0-4.4.4-4.4,2a1.5,1.5,0,0,0,1.6,1.4,3.9,3.9,0,0,0,2.8-1.1Z"/><rect class="a" x="97.2" y="237" width="63.9" height="64.71"/><path class="b" d="M113.3,277.5V260.2l-8.6,2.7-1.6-5.1,11.9-4.2h5.8v23.9h6l-.4,5.6H105.5l.4-5.6Z"/><path class="b" d="M149.4,268.1c2.9,1.2,5.5,3.3,5.5,6.7s-4.4,8.7-12.1,8.7-11.8-3.1-11.8-8.2c0-2.8,2.5-5.7,5.8-7-2.8-1.3-4.9-3.8-4.9-6.9s3.5-7.8,11.2-7.8,11.2,2.5,11.3,7.7C154.4,264.2,151.6,267,149.4,268.1Zm-6.5,10.1c2,0,4.3-1.1,4.3-3.1s-2.6-3.4-4.8-4.2c-2.7,1.4-3.6,2.6-3.6,4.2S140.3,278.2,142.9,278.2Zm.8-12.3c1.1-.7,3-2.3,3-4.1s-1.6-2.9-3.7-2.9-3.6,1-3.6,2.8S141.1,264.9,143.7,265.9Z"/><path class="c" d="M238.3,54.8v-26h11.2c7,0,10.6,2.9,10.6,8.5s-3.6,8.8-11.4,8.8h-3.6v8.7Zm6.8-21v7.4h3.2c4.1,0,5-2.3,5-4s-1.9-3.4-4.6-3.4Z"/><path class="c" d="M272.8,34.4c8.2,0,11.1,4.5,11.1,10.3S279.7,55.2,273,55.2s-10.9-4.5-10.9-10.5S266,34.4,272.8,34.4Zm.1,15.9c2.6,0,4.1-2.2,4.1-5.3s-1.1-5.8-4.1-5.8-4,1.7-4,5.2S269.9,50.3,272.9,50.3Z"/><path class="c" d="M287.5,34.8h4.7l1.6,2.7a6,6,0,0,1,5.4-3.1,4.5,4.5,0,0,1,2.3.4l-1,5.1-1.7-.2a6.9,6.9,0,0,0-4.5,1.5V54.8h-6.8Z"/><path class="c" d="M335.1,28.8v5h-7.5v21h-6.7v-21h-7.7v-5Z"/><path class="c" d="M340.9,46.3c.2,1.9,2.4,3.5,5.4,3.5a13,13,0,0,0,5.7-1.2l1.3,4.8a15.8,15.8,0,0,1-7.8,1.8c-6.6,0-11.5-3.2-11.5-10.1s4.2-10.7,10.5-10.7,9.4,4.3,9.4,8.5a18.4,18.4,0,0,1-.4,3.4Zm6.3-3.3a1.7,1.7,0,0,0,.1-.7,2.7,2.7,0,0,0-3-2.9,3.3,3.3,0,0,0-3.5,3.6Z"/><path class="c" d="M382.4,42c0-1.6-.5-2.7-2.5-2.7a5.1,5.1,0,0,0-3.1,1.1V54.8h-6.7V42c0-1.6-.5-2.7-2.6-2.7a5.3,5.3,0,0,0-3.1,1.1V54.8h-6.8v-20h5.1l1.2,1.6a11.3,11.3,0,0,1,6.4-2c2.8,0,4.8.9,5.8,2a9.9,9.9,0,0,1,6.2-2c4.4,0,6.9,2.3,6.9,6.4v14h-6.8Z"/><path class="c" d="M394.1,36.1a21,21,0,0,1,8.2-1.7c7.7,0,9.5,3.4,9.5,8.9V49a1.2,1.2,0,0,0,1.4,1.3h.8l.9,3.8a8.4,8.4,0,0,1-4.2,1.2c-2.7,0-4.3-.9-5.1-2.6-.8,1.3-3.1,2.6-6.1,2.6s-6.6-1.4-6.6-5.6,5.7-6.5,12.1-6.5c0-2.3-.9-3.5-3.7-3.5a14.2,14.2,0,0,0-5.5,1ZM405,46.4c-3,.1-5.4.6-5.4,2.3a2,2,0,0,0,2.2,1.9,4.7,4.7,0,0,0,3.2-1.3Z"/><path class="c" d="M431.6,40.5a14,14,0,0,0-5.8-1.1c-1.9,0-2.7.5-2.7,1.2,0,2.5,10.2.8,10.2,7.5,0,4.3-3.4,7.1-9.9,7.1a16.2,16.2,0,0,1-7.4-1.9l1.4-4.7a16.8,16.8,0,0,0,6.4,1.4c2,0,3.1-.5,3.1-1.4s-10.5-.7-10.5-7.6c0-4.1,3.5-6.6,9.1-6.6a19.3,19.3,0,0,1,7.6,1.4Z"/><path class="a" d="M158.8,178.4c-.1,3.8-.1,7.5-.4,11.3a42.2,42.2,0,0,1-7.5,20.1,44,44,0,0,1-17.1,14.6,28.6,28.6,0,0,1-4.1,1.5,6.7,6.7,0,0,1-4.2-.7,38.7,38.7,0,0,1-12.1-7.8,42.6,42.6,0,0,1-13.3-22.1,46.4,46.4,0,0,1-1.3-11.2V169.9c0-1.4.3-1.8,1.6-2.1a104.8,104.8,0,0,0,16.5-6c3.4-1.6,6.8-3.4,10.1-5.2a2.9,2.9,0,0,1,3.5,0,120.6,120.6,0,0,0,23.6,10.3l3.2.9c1.1.4,1.4.8,1.4,1.9v8.7Zm-3.1,1.7v-8.7c.1-.7-.2-1-.8-1.2a118.1,118.1,0,0,1-25.6-10.9.9.9,0,0,0-1.1,0l-6.7,3.6a106.5,106.5,0,0,1-19,7.3c-.6.2-.7.5-.7,1.1v12.9a40.8,40.8,0,0,0,23.3,37.6c2,1,4,1.6,6.4.5a44.1,44.1,0,0,0,12.7-9.1,39,39,0,0,0,10.9-21.4A65.6,65.6,0,0,0,155.7,180.1Z"/><path class="a" d="M124.2,193.4l.7-1.1c4.6-4.5,9.1-9,13.6-13.6a5,5,0,0,1,6.1-1.1,4.7,4.7,0,0,1,1.3,7.2c-1.9,2.1-3.9,4.1-5.9,6.1l-12.2,12.2a4.8,4.8,0,0,1-5.3,1.4,5.9,5.9,0,0,1-2-1.2l-8.5-8.5a5,5,0,0,1-1.1-5.5,4.8,4.8,0,0,1,4.9-2.8,5.2,5.2,0,0,1,3.3,1.8l4.5,4.5Zm-8.8-4.1a3.9,3.9,0,0,0-1.3.6,1.8,1.8,0,0,0,.1,2.9l8.2,8.2c1.2,1.2,2.1,1.1,3.3,0l15.4-15.5c.8-.8,1.7-1.6,2.4-2.4a1.8,1.8,0,0,0,0-2.6,1.9,1.9,0,0,0-2.6,0l-.6.7L125.4,196c-1.1,1.1-1.7,1-2.8-.1l-5.8-5.7A6.7,6.7,0,0,0,115.4,189.3Z"/><path class="a" d="M104.7,176.5V174a1.5,1.5,0,0,1,1.2-1.7l7.6-2.7a1.5,1.5,0,0,1,2.2.8c.3.8-.1,1.6-1.2,1.9l-6.2,2.3c-.6.2-.7.4-.7.9s0,2.4,0,3.6-.5,1.7-1.4,1.8-1.5-.6-1.5-1.7A24.3,24.3,0,0,1,104.7,176.5Z"/><path class="a" d="M136.6,215.7c-.4-.3-.9-.5-1.1-.9a1.9,1.9,0,0,1,.1-1.5c.1-.4.6-.7.9-1a32.7,32.7,0,0,0,7.4-7.9l.4-.5a1.5,1.5,0,0,1,2.1-.4,1.6,1.6,0,0,1,.3,2.1,37.5,37.5,0,0,1-3.5,4.4c-1.7,1.8-3.5,3.4-5.3,5.1Z"/><path class="a" d="M133,218a1.4,1.4,0,0,1-1.4-1.4,1.6,1.6,0,0,1,1.6-1.6,1.5,1.5,0,0,1,1.4,1.5A1.6,1.6,0,0,1,133,218Z"/><path class="a" d="M118.4,170.6A1.6,1.6,0,0,1,117,169a1.5,1.5,0,0,1,3,.2A1.6,1.6,0,0,1,118.4,170.6Z"/><path class="d" d="M165.4,86a26.9,26.9,0,0,0-2-2.7,2.6,2.6,0,0,0-2.7-1,3,3,0,0,0-2.5,2.2,16.7,16.7,0,0,0-.5,3.1c-.1.2.1.4.1.7l.3.9a.9.9,0,0,1-.7,1c-.5.1-.8-.2-1-.7a8.5,8.5,0,0,0-.6-1.7,9.3,9.3,0,0,0-5.7-4.2,14.6,14.6,0,0,0-2.2-.3,21,21,0,0,1-9.2-2.1h-.2v.3a6.4,6.4,0,0,0,6.1,5.2h1.9a.9.9,0,0,1,1,.9c0,.5-.4.8-1,.8s-2.3,0-3.4-.2a7.2,7.2,0,0,1-4.1-2.2c-.1-.1-.3-.2-.4-.4h-.2a14.3,14.3,0,0,0,.8,2.2,7.2,7.2,0,0,0,6.4,4h3.6c.6,0,1,.4.9.9s-.2.8-.7.8c-2.1,0-4.3.3-6.5-.5l-1.6-.6a14.6,14.6,0,0,0,2.7,2.4,13.2,13.2,0,0,0,7,2h2.2c.6,0,.9.3.9.8s-.3.9-1,.8a8.1,8.1,0,0,0-4,.9,16.3,16.3,0,0,1-7.2,1.5h-1.7l3.6,7.1.5-.3,2.9-2.3a9.6,9.6,0,0,1,5.5-1.9,11.7,11.7,0,0,0,6-1.6.8.8,0,0,1,1.2.2c.3.5.2.9-.4,1.2A11.5,11.5,0,0,1,153,105a7.5,7.5,0,0,0-4.8,1.6l-3.7,2.9c-1,.8-1.4.7-2-.5l-4.3-8.5c-.5-.9-.1-1.5.9-1.5l5.5-.3a15.7,15.7,0,0,0,2.8-.6h-.3a14.2,14.2,0,0,1-10-10,14.7,14.7,0,0,1-.4-3.6c-.1-1.5,0-3,0-4.6s.6-1.3,1.4-.8a18.4,18.4,0,0,0,9.6,2.7,11.4,11.4,0,0,1,8.3,3.7l.3.2a3,3,0,0,1,.2-1,4.7,4.7,0,0,1,7-3.4,10.6,10.6,0,0,1,1.5,1.5l1.9,2.4.4.3,1.3-4.2a5.1,5.1,0,0,1-3.4-1.9,4.8,4.8,0,0,1-.9-4,1,1,0,0,1,.9-.9,4.9,4.9,0,0,1,5.6,2.9l.2.4,1.6-1.5c.1-.1.1-.4.2-.5a4.6,4.6,0,0,1,6.5-3.1c.8.3.9.6.8,1.5a4.7,4.7,0,0,1-6.2,3.7c-.1,0-.4-.1-.5,0a13,13,0,0,0-3.5,4.9,7.9,7.9,0,0,1,2-.4,5.6,5.6,0,0,1,1.3,0,1.2,1.2,0,0,1,1,1,5,5,0,0,1-4.3,5.9H169a11,11,0,0,1,.3,1.6.8.8,0,0,1-.1.8,1,1,0,0,1-.8.4.8.8,0,0,1-.7-.7c-.2-1.1-.3-2.3-.5-3.4v-.5a1.2,1.2,0,0,0-1.4,1.3V92a15.1,15.1,0,0,1-.9,4.7.9.9,0,0,1-1.2.7,1,1,0,0,1-.4-1.3,13.2,13.2,0,0,0,.8-4.4,22.5,22.5,0,0,1,0-2.6A3.3,3.3,0,0,1,165.4,86Zm4-6.6a3.2,3.2,0,0,0-3.5-3.5A3.3,3.3,0,0,0,169.4,79.4ZM169,87c-.1.3.1.4.5.4a3.4,3.4,0,0,0,3.1-3.1c0-.4-.1-.5-.5-.5A3.3,3.3,0,0,0,169,87Zm9.3-13.1a2.9,2.9,0,0,0-3.9,2.1A2.8,2.8,0,0,0,178.3,73.9Z"/><path class="d" d="M162.1,99a.8.8,0,0,1,.8.9.9.9,0,0,1-.8.8.8.8,0,0,1-.8-.9A.9.9,0,0,1,162.1,99Z"/><path class="d" d="M162.3,85.6a.9.9,0,0,1-.9.9.9.9,0,0,1-.8-.9.8.8,0,0,1,.9-.8A.9.9,0,0,1,162.3,85.6Z"/><path class="e" d="M193.1,106.3v-2.6a3.2,3.2,0,0,1,2.3-3.1l2.8-.8c.2,0,.3-.1.3-.4h0a2.2,2.2,0,0,0-.6-2,3.3,3.3,0,0,1-.8-2.7,1.3,1.3,0,0,0-.4-1,4.1,4.1,0,0,1-.7-5.1,4.4,4.4,0,0,1,3.3-1.8,8.2,8.2,0,0,1,4.1.5,1.3,1.3,0,0,0,1.7-.2c.3-.4.7-.3,1,.1a4.7,4.7,0,0,1,.8,4,4.6,4.6,0,0,1-1.5,2.6.9.9,0,0,0-.3.7,3.7,3.7,0,0,1-.7,2.9,2.2,2.2,0,0,0-.6,2,.5.5,0,0,0,.4.6l2.7.7a3.2,3.2,0,0,1,2.3,3v5.7c0,.4-.2.7-.6.7s-.5-.3-.5-.7-.1-3.7-.1-5.6a1.9,1.9,0,0,0-1.5-2L204,101c-.3-.1-.4,0-.5.2a2.7,2.7,0,0,1-4.5.1.7.7,0,0,0-.8-.3l-2.5.7a2,2,0,0,0-1.4,2v5.4c0,.1.1.2,0,.3a.5.5,0,0,1-.6.6c-.3,0-.5-.2-.5-.6v-3.1Zm12.3-18.1c-.8.7-1.6.4-2.5.1l-.7-.2a6.5,6.5,0,0,0-3.4-.2,2.8,2.8,0,0,0-2.2,2.1,3.2,3.2,0,0,0,1.1,3l.6-1c.4-.7.5-.7,1.2-.4s2.5.9,3.8-.1a.8.8,0,0,1,1.2.2,3,3,0,0,1,.4.8A3.6,3.6,0,0,0,205.4,88.2Zm-1.7,4.5-1.5.5a5,5,0,0,1-2.7-.3h-.4c-.4.7-1.1,1.3-.8,2.2v.2a3.4,3.4,0,0,0,2.7,2.8h.3a3.3,3.3,0,0,0,2.6-2.6,13.3,13.3,0,0,0,0-2A2.4,2.4,0,0,0,203.7,92.7Zm-4,6.2c-.2,1.1,0,1.8.7,2.2a1.7,1.7,0,0,0,1.7,0c.7-.6.5-1.4.5-2.3A2.8,2.8,0,0,1,199.7,98.9Z"/><path class="e" d="M216.1,93.3l1.4.4a2.8,2.8,0,0,1,2.3,3c0,2.1-.1,4.2-.1,6.3,0,.1.1.3,0,.4s-.2.5-.6.5a.5.5,0,0,1-.5-.5V96.6a1.5,1.5,0,0,0-1.2-1.7l-2.3-.6a2.2,2.2,0,0,1-4-.1l-2.9.9a1.4,1.4,0,0,0-.7,1.3v2.7a.5.5,0,0,1-.6.6.5.5,0,0,1-.5-.5,2.4,2.4,0,0,1,0-1.2,9.7,9.7,0,0,1,0-1.7,2.6,2.6,0,0,1,1.9-2.5l1.7-.5h-1.1c-.5-.1-.7-.2-.7-.7s-.1-3.5,0-5.3a4.9,4.9,0,0,1,9.7.3c.1,1.7,0,3.3,0,4.9s-.2.7-.7.8h-1.1Zm.7-1.2V87.6a3.7,3.7,0,0,0-3.6-3.5,3.5,3.5,0,0,0-3.8,3.3c-.1,1.5,0,3-.1,4.6h1.3a9.4,9.4,0,0,1-.6-1.5,12.1,12.1,0,0,1-.1-1.9,2.1,2.1,0,0,1,.7-1.5,10.5,10.5,0,0,1,.8-1.1.7.7,0,0,1,.5-.3c.2,0,.5.2.5.4a2.6,2.6,0,0,0,1.5,1.4l1.7.6c.4,0,.6.2.6.5s.1,2.3-.8,3.3h1.4Zm-4.9-4.6c-.4.4-.8.7-.8,1.2v1.4a2.1,2.1,0,0,0,1.7,1.8,2,2,0,0,0,2.2-2.1c0-.4,0-.6-.4-.7A5,5,0,0,1,211.9,87.5Zm.3,5.5c-.1.7,0,1,.3,1.2a1.3,1.3,0,0,0,1.2,0,1,1,0,0,0,.2-1.2Z"/><path class="e" d="M191.4,94.3a2.4,2.4,0,0,1-4.2,0l-2.5.7a1.4,1.4,0,0,0-.9,1.5v6.4a.9.9,0,0,1-.1.5c0,.3-.2.5-.5.4s-.4-.2-.6-.4V96.5a2.6,2.6,0,0,1,2-2.7l2.1-.6c.3-.1.3-.2.3-.4a2,2,0,0,0-.4-1.5,2.6,2.6,0,0,1-.7-2.2,1.2,1.2,0,0,0-.3-.9,3.5,3.5,0,0,1-.9-3.6,3.3,3.3,0,0,1,2.9-2.2,6,6,0,0,1,3.5.4,1.2,1.2,0,0,0,1.5-.2c.2-.3.6-.2.9.2a4.1,4.1,0,0,1,.7,3.4,3.7,3.7,0,0,1-1.2,2,.9.9,0,0,0-.3.7,3.6,3.6,0,0,1-1,2.8c-.2.3-.1.9-.1,1.4h.3l2.1.6a2.7,2.7,0,0,1,2,2.7v2.4c0,.5-.3.8-.6.8s-.6-.3-.6-.8V96.6a1.5,1.5,0,0,0-1.2-1.7l-2-.6Zm1.1-7.3a2.9,2.9,0,0,0,.3-3.1,2.1,2.1,0,0,1-1.9,0,5.9,5.9,0,0,0-3.2-.3,2.1,2.1,0,0,0-1.9,1.3,2.4,2.4,0,0,0,.7,2.6,4.3,4.3,0,0,1,.4-.7c.3-.7.5-.7,1.1-.4a2.7,2.7,0,0,0,3.1-.1c.3-.3.8-.1,1.1.2S192.3,86.9,192.5,87Zm-1.2.5a3.5,3.5,0,0,1-3.3.2h-.2a3.4,3.4,0,0,0-.7,1.1,2.5,2.5,0,0,0,1.4,2.8,1.5,1.5,0,0,0,1.6,0C191.6,90.6,191.8,89.5,191.3,87.5Zm-.9,5.2a2.8,2.8,0,0,1-2.2,0,1.4,1.4,0,0,0,.5,1.5,1.1,1.1,0,0,0,1.2,0C190.5,93.9,190.4,93.3,190.4,92.7Z"/><path class="e" d="M206.3,81v3.1a.5.5,0,0,0,.4.6,2.6,2.6,0,0,1,1,1.3c.2.5.1.8-.2.9a.5.5,0,0,1-.8-.4,1.8,1.8,0,0,0-1.1-1l-2.1-.6-.4.2c-.7,1.4-3.2,1.4-3.8,0l-.4-.2-2.1.6a1.4,1.4,0,0,0-1.2,1.5v.3a.6.6,0,0,1-.6.5c-.3-.1-.5-.2-.5-.6a2.5,2.5,0,0,1,1.2-2.5c.3-.2.4-.3.4-.6-.1-2-.1-4.1,0-6.1a5.2,5.2,0,0,1,5.2-5.2,5.2,5.2,0,0,1,5,5V81Zm-9.1,3.2,1.6-.5h.2a1.7,1.7,0,0,0-.2-1.2,4,4,0,0,1-.8-1.6,7.1,7.1,0,0,1-.1-1.5c0-.7.1-.8.8-1s2.6-.7,3.2-2.1a.7.7,0,0,1,.5-.3.9.9,0,0,1,.5.3,4.4,4.4,0,0,1,.8,1.1,3.7,3.7,0,0,1,.7,1.2,10.5,10.5,0,0,1-.1,2.5,1.7,1.7,0,0,1-.7,1.3c-.3.4-.2.8-.3,1.2a.2.2,0,0,0,.2.2l1.6.5h0c0-2.2.1-4.3,0-6.4a3.8,3.8,0,0,0-3.9-3.7,4,4,0,0,0-4,4.1v6.1Zm5.2-6.5a5.3,5.3,0,0,1-2.6,1.5c-.7.3-.7.3-.7,1.1a2,2,0,0,0,2,2,2,2,0,0,0,2.2-1.9v-.9A1.8,1.8,0,0,0,202.4,77.7Zm-2.2,5.7c0,.5-.2,1.1.4,1.4a1.5,1.5,0,0,0,1.3,0c.4-.4.3-.9.3-1.4Z"/><path class="f" d="M239.5,77.6h.7a2,2,0,0,1,1.7,2.2c0,1.3-.1,2.7-.1,4v2.4a2.1,2.1,0,0,1,2,.3,2.2,2.2,0,0,1,.9,2l.7-.4a1.5,1.5,0,0,1,.1-1.9,2.6,2.6,0,0,1,2.2-.7,2.9,2.9,0,0,1,1.8,1.1V85.5l-.6-6.9a2.1,2.1,0,0,1,1-2,2,2,0,0,1,2.2,0h.2a11.5,11.5,0,0,1,.6-1.7,1.9,1.9,0,0,1,1.7-.8c1.1,0,1.8.8,2,2.4a2,2,0,0,1,2.7.2c.8.8.6,1.8.6,2.8h.4a1.9,1.9,0,0,1,2.1,2c0,.9-.1,1.9-.1,2.8s-.2,3.9-.4,5.9a11.1,11.1,0,0,1-.7,2.2,10.9,10.9,0,0,1-.5,1.7.4.4,0,0,0,.2.5,1.7,1.7,0,0,1,.5,1.2v13.2c0,.7-.3.9-1,.9H230c-.9,0-1.1-.2-1.1-1.1V94.2a1.7,1.7,0,0,1,.6-1.5.6.6,0,0,0,.1-.4,3.1,3.1,0,0,0-.7-.9l-1.3-1a5.7,5.7,0,0,1-1.5-2.2,16.2,16.2,0,0,0-1-1.8c-.3-.5-.7-1-.4-1.7a2.3,2.3,0,0,1,1.8-1.2,3,3,0,0,1,2.2.8l.4.3c-.1-.9-.1-1.7-.2-2.5s-.3-3.7-.5-5.5a2,2,0,0,1,1.1-2,2,2,0,0,1,2.2.1h.2a2.4,2.4,0,0,1,.9-2.1l1.2-.5a1.8,1.8,0,0,1,1.6.8c.3.4.4,1,.7,1.5l1-.3a2,2,0,0,1,2.1,2A6.6,6.6,0,0,1,239.5,77.6Zm-4.7,21.5c.3.7.8,1.3,1.1,2a5.1,5.1,0,0,0,2.1,2.7,5.7,5.7,0,0,1,1.1,1.1c.3.4.5.6,1,.6a.7.7,0,0,1,.8.7.7.7,0,0,1-.8.7h-.9c-.1.1-.2.2-.2.3a5.6,5.6,0,0,0,0,1.3h10.4v-1.6h-2.6a.7.7,0,0,1-.7-.7.6.6,0,0,1,.7-.7.7.7,0,0,0,.8-.6,1.4,1.4,0,0,1,.2-.6,12.7,12.7,0,0,0,.9-4.3l.3-6.4v-.2a.6.6,0,0,0-.5-.5.7.7,0,0,0-.6.4,2,2,0,0,0-.1.7c0,.9-.1,1.8-.1,2.7s-.4.9-.8.8-.7-.3-.7-.9.1-2.8.2-4.1.1-1.5.1-2.3-.1-.6-.5-.6-.5.1-.6.5a.6.6,0,0,0-.1.4c0,.6-.1,1.2-.1,1.7l-.3,4.6c0,.3-.1.6-.4.6h-.7a1.5,1.5,0,0,1-.4-.8c-.1-2.7-.1-5.4-.2-8.1a.6.6,0,0,0-.1-.4c-.1-.2-.3-.5-.5-.5s-.5.1-.6.4v.4c-.1,2.2-.1,4.4-.2,6.5a11.5,11.5,0,0,1-.1,1.9.7.7,0,0,1-.7.7c-.4.1-.7-.2-.7-.7a.3.3,0,0,1-.1-.2c-.1-2-.3-4-.5-6,0-.2-.1-.4-.1-.6a.7.7,0,0,0-.6-.4c-.4.1-.5.3-.5.6v.4c.2,3,.5,6,.7,8.9,0,.5.1,1,.1,1.4a.7.7,0,0,1-.6.7.6.6,0,0,1-.8-.5v-.2l-1.5-1.6A1,1,0,0,0,234.8,99.1Zm11.9-11.9a11.4,11.4,0,0,1,1,1.9,5.7,5.7,0,0,0,2.4,2.9,3.7,3.7,0,0,1,1.5,2,.3.3,0,0,0,.3.3h7a.3.3,0,0,0,.3-.3l.6-1.8a13.6,13.6,0,0,0,.9-4.8c.1-1.8.1-3.7.2-5.6v-.3c-.1-.2-.3-.4-.4-.4l-.6.2a1.3,1.3,0,0,0-.1.6c-.1,1-.1,1.9-.2,2.9s-.3.9-.8.8-.7-.3-.7-.9l.3-5.1V78.2c0-.3-.1-.5-.4-.5a.6.6,0,0,0-.7.4.6.6,0,0,1-.1.4c0,.9-.1,1.8-.1,2.7l-.3,3.7c0,.4-.2.7-.6.7a.7.7,0,0,1-.8-.4v-.5l-.3-7.7v-.6c0-.5-.2-.7-.6-.7s-.6.2-.6.7v.4c-.1,2.6-.1,5.3-.2,7.9,0,.6-.3.9-.7.9s-.8-.2-.8-.8-.3-3.1-.5-4.7a9.7,9.7,0,0,0-.1-1.7,1.5,1.5,0,0,0-.5-.6c-.1-.1-.4,0-.5.2s-.2.4-.2.6c.2,2,.3,4,.5,6l.3,4.3a.8.8,0,0,1-.5.9.9.9,0,0,1-.9-.6V89l-1.4-1.6A1.1,1.1,0,0,0,246.7,87.2Zm-15.6,5.1h6c0-.6-.1-1.3-.1-2a1.9,1.9,0,0,1,1.5-2.1,6.5,6.5,0,0,1,1.4,0,11.3,11.3,0,0,0,.3-1.8c.1-2.2.2-4.4.2-6.6v-.3c-.1-.1-.3-.4-.5-.4a.7.7,0,0,0-.5.3.7.7,0,0,0-.1.5c-.1,1-.1,1.9-.2,2.9s-.3.9-.7.9a.7.7,0,0,1-.7-.9c0-1,.1-1.9.1-2.8s.1-2.4.2-3.6a.6.6,0,0,0-.5-.7c-.3-.1-.6.2-.7.6a1.1,1.1,0,0,1-.1.5l-.3,6.1c-.1.5-.4.8-.8.8s-.7-.3-.7-.9l-.3-8.1c0-.7-.2-1-.5-1s-.6.3-.7.9c-.1,2.8-.1,5.5-.2,8.2,0,.6-.3.9-.8.9s-.7-.3-.7-.9-.3-3.3-.4-5-.1-.9-.2-1.4a1.5,1.5,0,0,0-.5-.6l-.6.3c-.1.1-.1.4-.1.5.2,2.7.5,5.4.7,8.1,0,.7.1,1.5.1,2.3s-.2.7-.6.8-.6-.1-.8-.5a.4.4,0,0,0-.1-.3l-1.5-1.6a1.1,1.1,0,0,0-1.5-.2l1.1,1.9a5.4,5.4,0,0,0,2.1,2.8A3.4,3.4,0,0,1,231.1,92.3Zm28.8,16.2V99.6h-9v8.9Zm-21.8-2.7-1-.9a6.3,6.3,0,0,1-2.4-2.7,10.1,10.1,0,0,0-1.2-2.3,1.2,1.2,0,0,1,0-1.7l.4-.6h-3.4v10.9h6.9C237.6,107.6,237.2,106.6,238.1,105.8Zm21.8-10h-9V98h9Zm-29.5.3h7l-.2-2.3h-6.4c-.2,0-.4,0-.4.3Zm7.2,2.3c.1-.9-.1-1-.9-.7Zm11.8,7v-1h-.1l-.3,1Z"/><path class="f" d="M243.5,106.9a.7.7,0,0,1-.8-.7.8.8,0,0,1,.8-.7.7.7,0,0,1,0,1.4Z"/><path class="g" d="M328.7,93a2.3,2.3,0,0,1-3.6-.7l-.8.8v.4a2.9,2.9,0,0,1-1.6,3.1,2.8,2.8,0,0,1-3.4-.6q-3.2-3-6.3-6.3a2.7,2.7,0,0,1-.5-3.3,2.8,2.8,0,0,1,3-1.6.9.9,0,0,0,.7-.3l8.3-8.3c.2-.2.3-.3.2-.6a3,3,0,0,1,1.6-3,2.7,2.7,0,0,1,3.4.5l6.3,6.3a2.9,2.9,0,0,1,.5,3.4,3.2,3.2,0,0,1-3.1,1.6c-.1-.1-.3,0-.5.1l-.7.6a2.7,2.7,0,0,1,1.3,1.7,2.3,2.3,0,0,1-.6,1.9l3,2.6,8.4,7.4,3.9,3.4a4.4,4.4,0,0,1,1.4,5.1,4.4,4.4,0,0,1-7.1,1.6c-1.3-1.3-2.4-2.7-3.6-4-3.3-3.9-6.7-7.8-10.1-11.6A.3.3,0,0,0,328.7,93Zm3-9.5-6.1-6.1-8.3,8.2,6.2,6.2ZM341,97.7l-9.1-7.9-2.2,2.1,8,9.2,2.6-2.7Zm-.4,6.7,2.7,3.1a2.9,2.9,0,0,0,4.3.1,2.8,2.8,0,0,0-.2-4.2l-2.3-2.1-.7-.6Zm-5.2-23a2,2,0,0,0-.6-1.2l-3-2.9c-1-1.1-2-2.1-3.1-3.1a1.5,1.5,0,0,0-2.3.2,1.4,1.4,0,0,0,.3,1.9l4.4,4.4,1.8,1.8a1.4,1.4,0,0,0,1.6.3A1.6,1.6,0,0,0,335.4,81.4ZM321.3,95.5l.7-.2a1.5,1.5,0,0,0,.4-2.4l-2.3-2.3-3.9-3.9a1.4,1.4,0,0,0-2.1,0,1.3,1.3,0,0,0,0,2q3,3.1,6.3,6.3Zm10.8-8.4c-.2-.2-.3-.5-.5-.6a.7.7,0,0,0-.9.2l-4,4.1a.7.7,0,0,0-.1,1.1.8.8,0,0,0,1.1-.1l4-4A1.6,1.6,0,0,0,332.1,87.1Zm11.1,12.5-1-.9-3.5,3.5.9,1Z"/><path class="g" d="M314,105.3a11,11,0,0,1-.3-1.6,2.4,2.4,0,0,1,2.4-2.5c4.3-.1,8.5-.1,12.8,0a2.5,2.5,0,0,1,2.1,3.7c0,.1-.1.2-.1.3l.5.4a4.2,4.2,0,0,1,1.4,3.8c0,.3-.3.5-.7.6H313.2c-.8,0-1-.2-1-1A3.7,3.7,0,0,1,314,105.3Zm17.3,3.2v-.2a2.2,2.2,0,0,0-2.3-2H315.3a2,2,0,0,0-1.6,2.1Zm-8.8-5.9h-6.2a1.1,1.1,0,1,0,0,2.2h11.3a4,4,0,0,0,1.1,0,1.1,1.1,0,0,0,1.1-.7,1.1,1.1,0,0,0-1.2-1.5Z"/><path class="g" d="M322.4,84.4c-.2-.2-.5-.3-.6-.6a.9.9,0,0,1,.1-.7c.1-.3.3-.4.5-.6l2.5-2.5c.4-.4.8-.5,1.2-.1s.3.7-.2,1.1L323,84Z"/><path class="g" d="M321.1,85.6a.7.7,0,0,1-.7.7.7.7,0,0,1-.8-.7.7.7,0,0,1,.7-.7A.8.8,0,0,1,321.1,85.6Z"/><path class="a" d="M387,84.4c-.1,2-.1,4-.3,6a21.6,21.6,0,0,1-4,10.9,24.3,24.3,0,0,1-9.2,7.9l-2.2.7a3.1,3.1,0,0,1-2.3-.3,24.9,24.9,0,0,1-6.5-4.2,22.9,22.9,0,0,1-7.1-11.9,24.6,24.6,0,0,1-.7-6V79.8c0-.7.1-.9.8-1.1a55.9,55.9,0,0,0,8.9-3.3c1.8-.8,3.6-1.8,5.4-2.8a1.8,1.8,0,0,1,2,0,57,57,0,0,0,12.6,5.6l1.7.5c.6.2.8.4.8,1v4.7Zm-1.7.9V80.6c0-.4-.1-.5-.5-.6a61.6,61.6,0,0,1-13.7-5.9h-.6L366.9,76a55.3,55.3,0,0,1-10.2,4c-.3.1-.4.2-.4.6v6.9a23.4,23.4,0,0,0,1.3,7.9,21.9,21.9,0,0,0,11.2,12.3,3.5,3.5,0,0,0,3.4.3,22.3,22.3,0,0,0,6.9-4.9A20.9,20.9,0,0,0,385,91.6,44.3,44.3,0,0,0,385.3,85.3Z"/><path class="a" d="M368.4,92.4l.3-.5,7.3-7.3a2.7,2.7,0,0,1,3.3-.6,2.4,2.4,0,0,1,.7,3.8c-1,1.2-2.1,2.2-3.2,3.3l-6.5,6.6a2.6,2.6,0,0,1-2.9.7,3,3,0,0,1-1.1-.6l-4.5-4.6a2.5,2.5,0,0,1,2-4.4,2.6,2.6,0,0,1,1.8.9l2.4,2.4Zm-4.8-2.1c-.3.1-.5.1-.7.3s-.5,1,.1,1.5,2.9,3,4.4,4.4,1.1.7,1.7,0l8.3-8.3a8,8,0,0,0,1.3-1.3,1,1,0,0,0-1.4-1.4l-.3.4-8,8c-.6.5-.9.5-1.5-.1s-2.1-2-3.1-3.1Z"/><path class="a" d="M357.8,83.4V82c0-.5.2-.7.7-.9l4.1-1.5a.8.8,0,0,1,1.1.5c.2.4,0,.8-.6,1l-3.3,1.2a.5.5,0,0,0-.4.5v2c0,.6-.3.9-.7.9a.8.8,0,0,1-.9-.9Z"/><path class="a" d="M375,104.5c-.2-.2-.5-.3-.6-.5a1.1,1.1,0,0,1,.1-.8c0-.2.3-.4.5-.5a27.2,27.2,0,0,0,4-4.3c0-.1.1-.2.1-.3s.8-.5,1.2-.2a.8.8,0,0,1,.1,1.1,21.5,21.5,0,0,1-1.8,2.4,37.1,37.1,0,0,1-2.9,2.7Z"/><path class="a" d="M373.1,105.7a.8.8,0,0,1-.8-.8.9.9,0,0,1,.9-.8.8.8,0,0,1,.7.8A.8.8,0,0,1,373.1,105.7Z"/><path class="a" d="M365.2,80.2a.9.9,0,0,1-.7-.9.8.8,0,0,1,.8-.7.9.9,0,0,1,.8.8A.9.9,0,0,1,365.2,80.2Z"/><path class="h" d="M456.5,101.7l-.8.7-1.3-1.5c-.1-.1-.1-.4-.1-.6v-.7a9.6,9.6,0,0,1-5.3,0c0,.1-.1.2,0,.3a1.9,1.9,0,0,1-.7,1.7l-3.9,4.4-.3.3a.6.6,0,0,0,0,.8.5.5,0,0,0,.8-.1,37,37,0,0,0,2.8-2.8l1.8-1.7.5-.3h3.2a.5.5,0,0,1,.5.3l4.5,4.4c.1,0,.1.1.2.2a.5.5,0,0,0,.7,0,.5.5,0,0,0,.1-.8l-1-1-.3-.4.8-.7,1.4,1.5a1.7,1.7,0,0,1-.2,2.2,1.6,1.6,0,0,1-2.3-.1l-4.3-4.2-.6-.3h-2.1a.9.9,0,0,0-.7.3l-4.1,4.2a1.7,1.7,0,0,1-2.5-2.3l4.2-4.6c.5-.6.3-1.1.3-1.7s-.1-.1-.2-.2a8.2,8.2,0,0,1-3.8-3.8.5.5,0,0,0-.5-.3,1.8,1.8,0,0,0-1.7.6l-4.4,3.9a1.6,1.6,0,0,1-2.6-.4,1.6,1.6,0,0,1,.4-2l3.1-3.2a3.7,3.7,0,0,0,1.2-1.3c.3-.5.1-1.2.1-1.8a2.1,2.1,0,0,0-.7-1.8l-3.8-3.7a1.7,1.7,0,0,1,.7-2.8,1.7,1.7,0,0,1,1.7.4l4.7,4.3a2.2,2.2,0,0,0,1.6.2c.1,0,.1-.2.2-.2a7.8,7.8,0,0,1,3.8-3.8c.2-.1.2-.3.3-.5a1.9,1.9,0,0,0-.7-1.7L446,79.7l.8-.7,1,1.1.2.2a2.3,2.3,0,0,1,.9,2.4,8.3,8.3,0,0,1,5.4,0v-.4a1.9,1.9,0,0,1,.6-1.6l3.9-4.3.3-.4c.2-.3.3-.6,0-.9s-.5-.1-.8.1l-2.2,2.3-2.4,2.3-.5.2h-3.1l-.6-.2L445,75.3l-.3-.2h-.6a.5.5,0,0,0,0,.7l1.1,1.3.9,1-.8.7c-.8-.8-1.5-1.7-2.2-2.5l-.2-.4a1.6,1.6,0,0,1,2.5-1.8l.5.4,4.1,4.1.6.2h2.1a.7.7,0,0,0,.6-.3l4.2-4.1a1.6,1.6,0,0,1,2-.4,1.6,1.6,0,0,1,.4,2.6c-1.3,1.6-2.7,3.2-4.1,4.7s-.3,1.1-.4,1.6l.3.2a8.9,8.9,0,0,1,3.8,3.9l.4.2a1.8,1.8,0,0,0,1.7-.5l4.5-4a1.6,1.6,0,0,1,2-.2,1.6,1.6,0,0,1,.7,1.7,2.7,2.7,0,0,1-.6,1l-4.1,4.1a.9.9,0,0,0-.3.7,6.7,6.7,0,0,1,0,2,.9.9,0,0,0,.3.7l4.2,4.2a1.6,1.6,0,0,1,.5,1.7,1.7,1.7,0,0,1-2.8.7l-4.7-4.2a3,3,0,0,0-1.6-.3l-.2.3a9.3,9.3,0,0,1-3.8,3.8.5.5,0,0,0-.3.5,1.7,1.7,0,0,0,.6,1.6Zm-5.7-2.8a4.3,4.3,0,0,1,.5-3,2,2,0,0,1,2.5-1.1l3.2,1.3a.6.6,0,0,0,.7-.1,8.7,8.7,0,0,0,1.7-4.7,7.8,7.8,0,0,0-7-7.9.5.5,0,0,0-.5.3,3.9,3.9,0,0,0,.9,3.9L454,89a3.1,3.1,0,0,1,.5,1c.4,1-1,3.2-2.7,2.7l-1.1-.4-1.9-1a3.4,3.4,0,0,0-1.7-.5,10.7,10.7,0,0,0-3,.6c-.2.1-.2.2-.2.4a7.6,7.6,0,0,0,4.9,6.5A9.5,9.5,0,0,0,450.8,98.9Zm-.1-15.4a7.5,7.5,0,0,0-6.7,6.7l.9-.2a5.5,5.5,0,0,1,5,.6l1.9,1c.6.2.9.1,1.3-.5a1,1,0,0,0,0-1.4l-1-1.2a4.7,4.7,0,0,1-1.4-2.9A14.7,14.7,0,0,1,450.7,83.5Zm-7.6,4.9h-.6a1.4,1.4,0,0,1-1.1-.5l-4.7-4.2-.3-.3a.6.6,0,0,0-.7.1c-.3.3-.2.5,0,.8l.2.2,4.4,4.4a1.1,1.1,0,0,1,.2.6v3.1a1.4,1.4,0,0,1-.2.6,25,25,0,0,0-2.3,2.3l-2.3,2.2c-.2.3-.3.5,0,.8s.5.2.7,0,.3-.2.4-.3l4.7-4.2a1.4,1.4,0,0,1,.9-.3h.7c-.1-1-.3-1.8-.3-2.7S443,89.4,443.1,88.4Zm17,5.4h.6a1.4,1.4,0,0,1,1.2.4c1.5,1.5,3.1,2.9,4.7,4.3l.4.2h.6a.8.8,0,0,0,0-.7l-.2-.2c-1.5-1.5-2.9-3-4.4-4.4l-.3-.6V89.5c.1-.2.1-.4.3-.5l1.7-1.8a37,37,0,0,0,2.8-2.8.5.5,0,0,0,.1-.8.6.6,0,0,0-.8,0l-.3.2c-1.4,1.4-2.9,2.7-4.4,4a1.9,1.9,0,0,1-1.7.7h-.3A9.5,9.5,0,0,1,460.1,93.8Zm-3.6,3.3a12.5,12.5,0,0,0-3-1.2.9.9,0,0,0-1,.2,3.2,3.2,0,0,0-.6,2.5.3.3,0,0,0,.3.3A7.8,7.8,0,0,0,456.5,97.1Z"/><path class="h" d="M470.5,88.6v5h-3.6c-.4-.4-1.1-.7-1.2-1.2a4.5,4.5,0,0,1,0-2.3c.1-.5.8-.9,1.2-1.3h3.6Zm-1.1,1.1h-1.7l-.5.3a1.4,1.4,0,0,0-.6,1.4c.1.3.6,1.1.9,1.1h1.9Z"/><path class="h" d="M451.6,77.2h-.8a1.5,1.5,0,0,1-1.6-1.5,6.7,6.7,0,0,1,0-2,1.6,1.6,0,0,1,1.6-1.5h1.7a1.6,1.6,0,0,1,1.6,1.6,5.4,5.4,0,0,1,0,1.8,1.6,1.6,0,0,1-1.7,1.6Zm.1-3.9h-.8a.5.5,0,0,0-.6.6,4.3,4.3,0,0,0,0,1.6c0,.4.2.6.5.6h1.6a.5.5,0,0,0,.6-.6v-.8C453,73.3,453,73.3,451.7,73.3Z"/><path class="h" d="M437.7,91.3c.2.6-.2,1.1-.7,1.6a2.7,2.7,0,0,1-1.7.8,2.6,2.6,0,0,1-1.9-.8,2.2,2.2,0,0,1-.7-1.7,2.2,2.2,0,0,1,.8-1.9,2.2,2.2,0,0,1,1.7-.7,2.4,2.4,0,0,1,1.9.8C437.7,90.1,437.7,90.1,437.7,91.3Zm-1.1-.2a1.3,1.3,0,0,0-1.3-1.4,1.3,1.3,0,0,0-1.5,1.3c0,1,.5,1.5,1.4,1.5A1.3,1.3,0,0,0,436.6,91.1Z"/><path class="h" d="M451.7,110a2.5,2.5,0,1,1-.1-5,2.5,2.5,0,0,1,.1,5Zm1.3-2.5a1.4,1.4,0,0,0-1.4-1.4c-.7.1-1.4.7-1.3,1.4a1.3,1.3,0,0,0,1.3,1.4A1.4,1.4,0,0,0,453,107.5Z"/><path class="h" d="M457.2,104l-.8-.8.8-.7.8.8Z"/><path class="h" d="M456.7,88.9h1.1v1h-1.1Z"/><path class="h" d="M456.7,86.7v1h-1.1v-1Z"/><path class="i" d="M409.8,95.2h-5.9v13.3c0,1.2-.4,1.5-1.5,1.5h-3.9c-.8,0-1.2-.4-1.2-1.3V81a1.2,1.2,0,0,0-.4-.9,4.7,4.7,0,0,1-.5-5.4,4.8,4.8,0,0,1,4.8-2.4,4.7,4.7,0,0,1,4.1,3.9,4.9,4.9,0,0,1-1.1,4,.9.9,0,0,0-.3,1h11.9a4,4,0,0,1,4.3,4.3v.8h5.3a1.3,1.3,0,0,1,1.4,1.4V99c0,.9-.4,1.3-1.4,1.3H414a4,4,0,0,1-4.2-4.2ZM403.9,93h7.3a37.5,37.5,0,0,1,6.7.2V85.5a1.9,1.9,0,0,0-2.1-2.1H403.9Zm-2.3,14.8v-26h-2.1v26Zm22.9-9.7v-.2c0-3,0-6,.1-9.1,0-.2-.2-.3-.4-.3h-4.1v.5c-.1,3,.2,6-.1,9ZM400.6,79.6a2.6,2.6,0,0,0,2.6-2.6,2.8,2.8,0,0,0-2.6-2.6A2.6,2.6,0,0,0,398,77,2.6,2.6,0,0,0,400.6,79.6ZM412,95.2v1.1a1.8,1.8,0,0,0,1.8,1.8h2.6a1.4,1.4,0,0,0,1.5-1.5,1.5,1.5,0,0,0-1.5-1.4H412Z"/><path class="j" d="M479.6,83.3V81.6a1,1,0,0,1,.7-1.1,17.3,17.3,0,0,1,11-.5,20.1,20.1,0,0,1,6.1,2.9.4.4,0,0,0,.6,0,20.7,20.7,0,0,1,9.2-3.5,16,16,0,0,1,7.8,1.1c.7.2.8.5.8,1.2v1.6h2.4c.8.1,1.1.4,1.1,1.2v24.3c0,.9-.3,1.2-1.2,1.2H477.3c-.9,0-1.2-.3-1.2-1.2V84.6c0-1,.3-1.3,1.2-1.3Zm1.8,21.6c5.5-1.6,10.6-.5,15.4,2.4V85c0-.2,0-.4-.3-.5s-2.5-1.5-3.9-2.1a15.8,15.8,0,0,0-10.7-.6c-.4.2-.5.3-.5.7v22.4Zm32.6,0V82.4c0-.3,0-.4-.3-.5s-2.4-.6-3.6-.7A17.6,17.6,0,0,0,499,84.4a.8.8,0,0,0-.4.7v22.2C503.5,104.4,508.5,103.3,514,104.9ZM478,85.2v23h16.5l-.2-.2c-4.3-2.1-8.8-2.8-13.4-.9H480c-.4-.2-.4-.6-.4-1V85.2Zm37.8,0v21.1a.9.9,0,0,1-1.2.8l-1-.4a15.5,15.5,0,0,0-10.4.4l-2.2,1h16.5v-23Z"/><path class="k" d="M269.6,92.6A17.4,17.4,0,1,1,286.9,110,17.4,17.4,0,0,1,269.6,92.6ZM287,109a16.4,16.4,0,1,0-16.4-16.4A16.4,16.4,0,0,0,287,109Z"/><path class="k" d="M280.6,92.2a9.1,9.1,0,0,1-2-3.2,10.5,10.5,0,0,1-.6-2.4c-.2-.6.1-.9.7-.8l2.2.6h.4L278.8,82c-.7.7-1.4,1.3-2,2a13.3,13.3,0,0,0-3,6.6c-.1.2-.1.4-.4.5a.5.5,0,0,1-.6-.6,14.3,14.3,0,0,1,.4-2.2,14.9,14.9,0,0,1,5.3-7.3c.5-.4.8-.3,1.1.2,4.3,7.9,8.6,15.9,13,23.8.3.5.2.8-.4,1A14.3,14.3,0,0,1,273,95.8a15.4,15.4,0,0,1-.4-3c0-.4.2-.6.5-.6s.5.2.5.6a13,13,0,0,0,7,11.5,12.7,12.7,0,0,0,10.6.9h.3l-4-7.1h0v5.1a.6.6,0,0,1-.6.5c-.3,0-.4-.2-.5-.5V97.9l-.3.4a5.7,5.7,0,0,1-3.5,2c-.5.1-.8-.1-.7-.6a14.6,14.6,0,0,1,.5-2l.2-.3h-1.3a10.1,10.1,0,0,1-6.5-2.1c-.5-.4-.5-.7,0-1.1a9.1,9.1,0,0,1,5.2-2Zm5.3,2.7c-.1-.2-.3-.3-.4-.4a9.1,9.1,0,0,0-9.4.1l-.3.2A8.9,8.9,0,0,0,285.9,94.9Zm-1.1-2-2.6-4.6a.2.2,0,0,0-.2-.2l-2.3-1h-.6a9,9,0,0,0,3,5.1h.2Zm1.4,3.1a6.6,6.6,0,0,1-1.5.7,2.1,2.1,0,0,0-1.1,1,3.4,3.4,0,0,0-.6,1.5A5.1,5.1,0,0,0,286.2,96Z"/><path class="k" d="M286.6,78.3a14.4,14.4,0,0,1,14.5,11.9,13.9,13.9,0,0,1-5.7,14c-.5.4-.8.3-1.1-.2-4.3-7.9-8.6-15.8-13-23.7-.3-.6-.2-.8.4-1A13,13,0,0,1,286.6,78.3Zm-1.7,6.3a5.7,5.7,0,0,1,.4-1.4l1.2-2.4c.2-.4.6-.3.9,0l.3.5a14.2,14.2,0,0,1,1.7,5.4c.1.6.1,1.2.2,1.8l.2-.2a10.3,10.3,0,0,1,5.4-2.5c.6,0,.8.2.8.7a9.7,9.7,0,0,1-2.5,5.4l-.2.3h.3a10.2,10.2,0,0,1,5.6,2.2q.6.4,0,.9l-1.3.9a.5.5,0,0,1-.8-.2.6.6,0,0,1,.3-.7l.7-.4a8.9,8.9,0,0,0-8.2-1.1l1.2,2.1c.1.3.3.4.6.5a11.4,11.4,0,0,0,3.7-.3c.4-.1.7,0,.8.4a.7.7,0,0,1-.5.6,9.6,9.6,0,0,1-3.4.3h-.4l3.1,5.8a13.3,13.3,0,0,0-12.6-23.1Zm10,2.4h-.3a9.1,9.1,0,0,0-5.9,4.2v.4l.6,1c.1.2.2.2.4.2l1.8-.5.4-.2a8.2,8.2,0,0,0,2.3-3.2A10.7,10.7,0,0,0,294.9,87ZM287,82.1h-.1l-.2.4c-.3,1.1-.7,2.1-1,3.2a.7.7,0,0,0,.1.6l2,3.7.2.3a1.6,1.6,0,0,0,.5-1.1,17.1,17.1,0,0,0-.9-5.5A7.6,7.6,0,0,0,287,82.1Z"/></svg>