<svg xmlns="http://www.w3.org/2000/svg" width="660" height="500" viewBox="0 0 660 500"><defs><style>.a{fill:#9ab63a;}.b{fill:#fff;}.c{fill:#223749;}.d{fill:#409195;}.e{fill:#d2a206;}.f{fill:#6698ac;}.g{fill:#5e788f;}.h{fill:#384f64;}.i{fill:#d58116;}.j{fill:#07a0b9;}.k{fill:#478335;}</style></defs><rect class="a" x="97.2" y="237" width="63.9" height="64.71"/><path class="b" d="M141.5,259l-10,24.1h-7.8l9.5-23.4h-8.3v6.8h-7.1V254h23.6Z"/><path class="a" d="M195.4,166.6l3.8-12.8h4.7l-6.3,16.9h-4.8l-6.7-16.9h5.2Z"/><path class="a" d="M208.4,152h4l-3.7,4.3h-3.2Zm1.7,14.8c0,.7.3,1,.7,1a4.4,4.4,0,0,0,1.2-.2l.2,2.6a5.5,5.5,0,0,1-2.8.8c-3.5,0-3.7-2.4-3.7-4.1v-9.2h4.4Z"/><path class="a" d="M220.9,157.4a7.7,7.7,0,0,1,3.4.8l-1.1,3.2a5.4,5.4,0,0,0-2.4-.5,3,3,0,0,0-3.3,3.3c0,2.5,1.9,3.2,3.4,3.2a5.7,5.7,0,0,0,2.4-.5l1.1,3.1a9.2,9.2,0,0,1-4.4,1c-4.2,0-6.9-2.6-6.9-6.7S216.5,157.4,220.9,157.4Z"/><path class="a" d="M227.3,157.7v-2.4l4.3-1v3.4h3.6v3h-3.6v5.2c0,.9.6,1.4,1.7,1.4l1.3-.2.7,3a7.2,7.2,0,0,1-3.7.9,4,4,0,0,1-4.3-4.2v-6.1H225v-3Z"/><path class="a" d="M241.9,154.2c0,1.2-.8,2-2.4,2s-2.3-.8-2.3-2,.7-2.1,2.3-2.1S241.9,152.9,241.9,154.2Zm-.2,12.6a.9.9,0,0,0,1,1h.5l.6,2.5a5.1,5.1,0,0,1-2.7.8,3.4,3.4,0,0,1-3.8-3.7v-9.6h4.4Z"/><path class="a" d="M261.5,162.4c0-1-.3-1.8-1.6-1.8a3.5,3.5,0,0,0-2,.7v9.4h-4.4v-8.3c0-1-.4-1.8-1.7-1.8a3.7,3.7,0,0,0-2,.7v9.4h-4.4v-13h3.3l.8,1.1a7,7,0,0,1,4.1-1.4,4.8,4.8,0,0,1,3.8,1.4,6.1,6.1,0,0,1,4-1.4c2.9,0,4.5,1.5,4.5,4.2v9.1h-4.4Z"/><path class="a" d="M269.1,158.6a12.2,12.2,0,0,1,5.3-1.2c5.1,0,6.2,2.2,6.2,5.8v3.7a.8.8,0,0,0,.9.9h.5l.6,2.5a5.1,5.1,0,0,1-2.7.8c-1.8,0-2.8-.6-3.3-1.7a5.2,5.2,0,0,1-4,1.7c-2,0-4.3-1-4.3-3.7s3.7-4.2,7.9-4.2c0-1.5-.6-2.3-2.4-2.3a8.6,8.6,0,0,0-3.6.7Zm7.1,6.6c-2,.1-3.5.4-3.5,1.6a1.3,1.3,0,0,0,1.4,1.2,3.2,3.2,0,0,0,2.1-.9Z"/><path class="a" d="M293.5,161.4a9.9,9.9,0,0,0-3.8-.7c-1.2,0-1.8.3-1.8.8s6.7.5,6.7,4.8c0,2.8-2.3,4.7-6.4,4.7a9.6,9.6,0,0,1-4.9-1.3l.9-3a11.9,11.9,0,0,0,4.2.9c1.3,0,2-.3,2-.9s-6.8-.5-6.8-5c0-2.6,2.3-4.3,5.9-4.3a11.3,11.3,0,0,1,4.9,1Z"/><path d="M187.8,195.6V182.1h8v1.4h-6.3V188h5.2v1.5h-5.2v4.7h6.6v1.4Z"/><path d="M198.2,193.8a7.2,7.2,0,0,0,2.7.6c1.7,0,2.3-.7,2.3-1.6,0-2.5-5.2-1.2-5.2-4.8,0-1.8,1.4-3,3.7-3a7.3,7.3,0,0,1,2.8.5l-.4,1.4a5.7,5.7,0,0,0-2.4-.5c-1.4,0-2.1.6-2.1,1.5s5.2,1.1,5.2,4.7c0,1.7-1.2,3.3-3.9,3.3a6.4,6.4,0,0,1-3.1-.8Z"/><path d="M212.8,195.4a5.9,5.9,0,0,1-2.1.5c-1.9,0-2.9-1.1-2.9-3.4v-6.1h-1.9v-1.2h1.9v-2.3l1.7-.4v2.7h3.2v1.2h-3.2v6.2c0,1.3.6,1.8,1.6,1.8a4.2,4.2,0,0,0,1.3-.3Z"/><path d="M223.4,195.5a2.5,2.5,0,0,1-1.3.4,1.7,1.7,0,0,1-1.8-1.3,4.5,4.5,0,0,1-3.2,1.3,2.7,2.7,0,0,1-3-2.7c0-2.7,2.7-3.3,6.2-3.3,0-1.9,0-3.5-2.4-3.5a5.7,5.7,0,0,0-2.7.7l-.4-1.3a7.4,7.4,0,0,1,3.4-.8c3.2,0,3.8,1.7,3.8,4.6v3.8c0,.6.1,1,.7,1h.4Zm-3.1-4.5c-2.7,0-4.5.4-4.5,2a1.6,1.6,0,0,0,1.7,1.5,4.4,4.4,0,0,0,2.8-1.1Z"/><path d="M225.3,193.8a7.2,7.2,0,0,0,2.7.6c1.6,0,2.2-.7,2.2-1.6,0-2.5-5.2-1.2-5.2-4.8,0-1.8,1.5-3,3.7-3a8.4,8.4,0,0,1,2.9.5l-.5,1.4a5.2,5.2,0,0,0-2.3-.5c-1.5,0-2.1.6-2.1,1.5s5.2,1.1,5.2,4.7c0,1.7-1.3,3.3-4,3.3a6.4,6.4,0,0,1-3.1-.8Z"/><path d="M239.5,195.6V185.2h1.1l.5,1.4a3.8,3.8,0,0,1,3.1-1.6h.9l-.3,1.6-.8-.2a3.6,3.6,0,0,0-2.8,1.4v7.7Z"/><path d="M254,194.9a5.5,5.5,0,0,1-3.4,1c-3,0-4.9-2.1-4.9-5.3s1.9-5.6,4.7-5.6,3.9,1.9,3.9,4.2a9.9,9.9,0,0,1-.2,1.7h-6.6c.1,1.7,1,3.5,3.4,3.5a5.1,5.1,0,0,0,2.7-.7Zm-1.4-5.1v-.7c0-1.6-.7-2.6-2.3-2.6s-2.7,1.6-2.8,3.3Z"/><path d="M264,195.1a6.1,6.1,0,0,1-3.1.8c-2.5,0-4.8-1.9-4.8-5.3s2.3-5.6,5.3-5.6a4.5,4.5,0,0,1,2.6.6l-.5,1.3a3.8,3.8,0,0,0-2.1-.5c-2.1,0-3.5,1.3-3.5,4.2s1.5,3.8,3.3,3.8a4.4,4.4,0,0,0,2.4-.6Z"/><path d="M270.2,185c3.3,0,4.8,2.4,4.8,5.4s-1.9,5.5-4.9,5.5-4.8-2.5-4.8-5.5S267.2,185,270.2,185Zm-.1,9.4c2.1,0,3.1-1.8,3.1-4s-1-4-3.1-4-3.1,1.8-3.1,4S268,194.4,270.1,194.4Z"/><path d="M289.8,195.6v-7.1a1.8,1.8,0,0,0-2-2.1,3.6,3.6,0,0,0-2.4,1.1v8.1h-1.7v-7.1c0-1.5-.7-2.1-2-2.1a3.6,3.6,0,0,0-2.4,1.1v8.1h-1.7V185.2h1l.6,1A4.4,4.4,0,0,1,282,185a3.4,3.4,0,0,1,3,1.3,5.3,5.3,0,0,1,3.2-1.3c2.3,0,3.3,1.3,3.3,3.5v7.1Z"/><path d="M302.3,194.9a5.7,5.7,0,0,1-3.4,1c-3,0-4.9-2.1-4.9-5.3s1.8-5.6,4.6-5.6,3.9,1.9,3.9,4.2a9.9,9.9,0,0,1-.2,1.7h-6.5a3.2,3.2,0,0,0,3.3,3.5,5.1,5.1,0,0,0,2.7-.7Zm-1.5-5.1a1.7,1.7,0,0,0,.1-.7c0-1.6-.7-2.6-2.4-2.6s-2.7,1.6-2.7,3.3Z"/><path d="M311.7,195.6v-7.1c0-1.7-.9-2.1-2-2.1a4.8,4.8,0,0,0-2.8,1.1v8.1h-1.7V185.2h1l.6,1A4.9,4.9,0,0,1,310,185c2.7,0,3.4,1.5,3.4,3.5v7.1Z"/><path d="M323.7,195.6l-.5-.9a4.2,4.2,0,0,1-2.9,1.2c-2.6,0-4.5-2.3-4.5-5.2s2-5.7,5-5.7a5.9,5.9,0,0,1,2.4.5V180h1.6v15.6Zm-.5-8.7a4.9,4.9,0,0,0-2.2-.5c-2.1,0-3.4,1.6-3.4,4.1s1.3,3.9,3.1,3.9a4.2,4.2,0,0,0,2.5-1Z"/><path d="M336.6,195.5a2.1,2.1,0,0,1-1.2.4,1.7,1.7,0,0,1-1.8-1.3,4.7,4.7,0,0,1-3.2,1.3,2.7,2.7,0,0,1-3-2.7c0-2.7,2.7-3.3,6.2-3.3,0-1.9,0-3.5-2.4-3.5a5.4,5.4,0,0,0-2.7.7l-.4-1.3a6.8,6.8,0,0,1,3.4-.8c3.2,0,3.8,1.7,3.8,4.6v3.8c0,.6,0,1,.7,1h.4Zm-3-4.5c-2.7,0-4.5.4-4.5,2a1.6,1.6,0,0,0,1.7,1.5,4.4,4.4,0,0,0,2.8-1.1Z"/><path d="M345.8,195.1a5.7,5.7,0,0,1-3,.8c-2.6,0-4.9-1.9-4.9-5.3s2.3-5.6,5.3-5.6a4.5,4.5,0,0,1,2.6.6l-.4,1.3a4.5,4.5,0,0,0-2.2-.5c-2.1,0-3.5,1.3-3.5,4.2s1.6,3.8,3.4,3.8a4.2,4.2,0,0,0,2.3-.6Z"/><path d="M348.8,183a1.1,1.1,0,0,1,0-2.2c.7,0,1.1.4,1.1,1.2A1,1,0,0,1,348.8,183Zm2.1,12.5a2.1,2.1,0,0,1-1.2.4c-1.4,0-1.8-1-1.8-2.2v-8.5h1.7v8.4c0,.4.1.8.7.8h.4Z"/><path d="M357.3,185c3.3,0,4.8,2.4,4.8,5.4s-1.9,5.5-4.9,5.5-4.8-2.5-4.8-5.5S354.3,185,357.3,185Zm0,9.4c2.1,0,3.1-1.8,3.1-4s-1-4-3.1-4-3.2,1.8-3.2,4S355.1,194.4,357.3,194.4Z"/><path d="M371.3,195.6v-7.1c0-1.7-.9-2.1-2.1-2.1a5,5,0,0,0-2.8,1.1v8.1h-1.7V185.2h1.1l.6,1a4.9,4.9,0,0,1,3.2-1.2c2.6,0,3.4,1.5,3.4,3.5v7.1Z"/><path d="M383.7,194.9a5.5,5.5,0,0,1-3.4,1c-3,0-4.9-2.1-4.9-5.3s1.9-5.6,4.6-5.6,4,1.9,4,4.2a9.9,9.9,0,0,1-.2,1.7h-6.6a3.3,3.3,0,0,0,3.4,3.5,5.1,5.1,0,0,0,2.7-.7Zm-1.4-5.1v-.7c0-1.6-.7-2.6-2.3-2.6s-2.7,1.6-2.8,3.3Z"/><path d="M386.4,193.8a7.2,7.2,0,0,0,2.7.6c1.7,0,2.3-.7,2.3-1.6,0-2.5-5.2-1.2-5.2-4.8,0-1.8,1.4-3,3.7-3a7.7,7.7,0,0,1,2.8.5l-.5,1.4a4.9,4.9,0,0,0-2.3-.5c-1.4,0-2.1.6-2.1,1.5s5.2,1.1,5.2,4.7c0,1.7-1.2,3.3-3.9,3.3a7.2,7.2,0,0,1-3.2-.8Z"/><path d="M400.7,180h1.7v5.7a4.6,4.6,0,0,1,2.4-.7c2.8,0,4.6,1.8,4.6,5.2s-2.4,5.7-5.4,5.7a6.2,6.2,0,0,1-3.3-1Zm1.7,14a3.3,3.3,0,0,0,1.8.5c2.6,0,3.4-2.3,3.4-4.3s-.7-3.8-3-3.8a4.3,4.3,0,0,0-2.2.7Z"/><path d="M419,195.6l-.6-1a4.3,4.3,0,0,1-3.1,1.3c-2.4,0-3.3-1.8-3.3-3.8v-6.9h1.7v6.9c0,1.7.9,2.3,2,2.3a3.5,3.5,0,0,0,2.6-1.1v-8.1H420v10.4Z"/><path d="M423.2,193.8a7.2,7.2,0,0,0,2.7.6c1.6,0,2.3-.7,2.3-1.6,0-2.5-5.2-1.2-5.2-4.8,0-1.8,1.4-3,3.7-3a7.7,7.7,0,0,1,2.8.5l-.5,1.4a4.9,4.9,0,0,0-2.3-.5c-1.4,0-2.1.6-2.1,1.5s5.2,1.1,5.2,4.7c0,1.7-1.2,3.3-3.9,3.3a6.8,6.8,0,0,1-3.2-.8Z"/><path d="M439.5,195.1a6.1,6.1,0,0,1-3.1.8c-2.5,0-4.8-1.9-4.8-5.3s2.3-5.6,5.3-5.6a4.5,4.5,0,0,1,2.6.6l-.5,1.3a3.8,3.8,0,0,0-2.1-.5c-2.1,0-3.5,1.3-3.5,4.2s1.5,3.8,3.3,3.8a4.4,4.4,0,0,0,2.4-.6Z"/><path d="M449.9,195.5a1.9,1.9,0,0,1-1.2.4,1.7,1.7,0,0,1-1.8-1.3,4.5,4.5,0,0,1-3.2,1.3,2.7,2.7,0,0,1-3-2.7c0-2.7,2.7-3.3,6.2-3.3,0-1.9,0-3.5-2.4-3.5a5.7,5.7,0,0,0-2.7.7l-.4-1.3a7.1,7.1,0,0,1,3.4-.8c3.2,0,3.8,1.7,3.8,4.6v3.8c0,.6.1,1,.7,1h.4Zm-3-4.5c-2.7,0-4.5.4-4.5,2a1.6,1.6,0,0,0,1.7,1.5,4.4,4.4,0,0,0,2.8-1.1Z"/><path d="M458.6,195.6v-7.1c0-1.7-.9-2.1-2.1-2.1a5,5,0,0,0-2.8,1.1v8.1h-1.6V185.2h1l.6,1a4.9,4.9,0,0,1,3.2-1.2c2.7,0,3.4,1.5,3.4,3.5v7.1Z"/><path d="M468.6,195.6V185.2h1l.5,1.4a4,4,0,0,1,3.2-1.6h.9l-.3,1.6-.9-.2a3.6,3.6,0,0,0-2.7,1.4v7.7Z"/><path d="M483.1,194.9a5.7,5.7,0,0,1-3.4,1c-3,0-4.9-2.1-4.9-5.3s1.8-5.6,4.6-5.6,3.9,1.9,3.9,4.2a9.7,9.7,0,0,1-.1,1.7h-6.6a3.3,3.3,0,0,0,3.4,3.5,4.7,4.7,0,0,0,2.6-.7Zm-1.4-5.1v-.7c0-1.6-.7-2.6-2.4-2.6s-2.7,1.6-2.7,3.3Z"/><path d="M493.1,195.1a6.1,6.1,0,0,1-3.1.8c-2.6,0-4.8-1.9-4.8-5.3s2.2-5.6,5.3-5.6a5,5,0,0,1,2.6.6l-.5,1.3a4.1,4.1,0,0,0-2.1-.5c-2.1,0-3.6,1.3-3.6,4.2s1.6,3.8,3.4,3.8a4.6,4.6,0,0,0,2.4-.6Z"/><path d="M499.2,185c3.3,0,4.8,2.4,4.8,5.4s-1.9,5.5-4.9,5.5-4.8-2.5-4.8-5.5S496.2,185,499.2,185Zm0,9.4c2.1,0,3.1-1.8,3.1-4s-1-4-3.1-4-3.2,1.8-3.2,4S497,194.4,499.2,194.4Z"/><path d="M513.2,195.6v-7.1c0-1.7-.9-2.1-2.1-2.1a5,5,0,0,0-2.8,1.1v8.1h-1.7V185.2h1.1l.6,1a4.9,4.9,0,0,1,3.2-1.2c2.6,0,3.4,1.5,3.4,3.5v7.1Z"/><path d="M522.2,185c3.3,0,4.8,2.4,4.8,5.4s-1.9,5.5-4.9,5.5-4.8-2.5-4.8-5.5S519.2,185,522.2,185Zm0,9.4c2.1,0,3.1-1.8,3.1-4s-1-4-3.1-4-3.2,1.8-3.2,4S520,194.4,522.2,194.4Z"/><path d="M536.7,195.1a5.8,5.8,0,0,1-3.1.8c-2.5,0-4.8-1.9-4.8-5.3s2.3-5.6,5.3-5.6a4.5,4.5,0,0,1,2.6.6l-.5,1.3a3.8,3.8,0,0,0-2.1-.5c-2.1,0-3.5,1.3-3.5,4.2s1.6,3.8,3.4,3.8a4.2,4.2,0,0,0,2.3-.6Z"/><path d="M546.3,194.9a5.7,5.7,0,0,1-3.4,1c-3,0-4.9-2.1-4.9-5.3s1.8-5.6,4.6-5.6,3.9,1.9,3.9,4.2a9.9,9.9,0,0,1-.2,1.7h-6.5a3.2,3.2,0,0,0,3.3,3.5,5.1,5.1,0,0,0,2.7-.7Zm-1.5-5.1a1.7,1.7,0,0,0,.1-.7c0-1.6-.7-2.6-2.4-2.6s-2.7,1.6-2.7,3.3Z"/><path d="M549.2,195.6V185.2h1l.5,1.4a3.8,3.8,0,0,1,3.1-1.6h1l-.3,1.6-.9-.2a3.2,3.2,0,0,0-2.7,1.4v7.7Z"/><path d="M570,195.5a2.2,2.2,0,0,1-1.3.4,1.7,1.7,0,0,1-1.7-1.3,4.8,4.8,0,0,1-3.3,1.3,2.6,2.6,0,0,1-2.9-2.7c0-2.7,2.7-3.3,6.2-3.3,0-1.9-.1-3.5-2.4-3.5a5.4,5.4,0,0,0-2.7.7l-.5-1.3a7.5,7.5,0,0,1,3.5-.8c3.2,0,3.7,1.7,3.7,4.6v3.8c0,.6.1,1,.8,1h.3Zm-3-4.5c-2.7,0-4.5.4-4.5,2a1.6,1.6,0,0,0,1.7,1.5,4.4,4.4,0,0,0,2.8-1.1Z"/><path d="M190.7,220.5a2.7,2.7,0,0,1-1.3.3c-1.4,0-1.8-1-1.8-2.1V204.9h1.7v13.6c0,.4.1.8.7.8h.4Z"/><path d="M201.3,220.5a3.5,3.5,0,0,1-1.2.3,1.8,1.8,0,0,1-1.8-1.2,4.7,4.7,0,0,1-3.2,1.2,2.7,2.7,0,0,1-3-2.7c0-2.7,2.7-3.3,6.2-3.3,0-1.9,0-3.4-2.4-3.4a5.4,5.4,0,0,0-2.7.6l-.4-1.3a6.8,6.8,0,0,1,3.4-.8c3.2,0,3.8,1.8,3.8,4.6v3.8c0,.7,0,1.1.7,1.1h.4Zm-3-4.6c-2.7,0-4.5.4-4.5,2a1.6,1.6,0,0,0,1.7,1.5,3.9,3.9,0,0,0,2.8-1.1Z"/><path d="M203.3,218.7a5.4,5.4,0,0,0,2.7.7c1.6,0,2.2-.8,2.2-1.6,0-2.6-5.2-1.2-5.2-4.9,0-1.8,1.5-3,3.7-3a5.5,5.5,0,0,1,2.8.6l-.4,1.3a5.6,5.6,0,0,0-2.3-.5c-1.5,0-2.2.7-2.2,1.5,0,2.4,5.3,1.1,5.3,4.7,0,1.7-1.3,3.3-4,3.3a6.4,6.4,0,0,1-3.1-.8Z"/><path d="M219.6,220.6l-3.8-10.5h1.8l3.1,9h0l3.1-9h1.7l-3.8,10.5Z"/><path d="M227,208.2l1.9-3h1.9l-2.4,3Zm3.3,12.3a2.7,2.7,0,0,1-1.3.3c-1.4,0-1.8-1-1.8-2.1v-8.6h1.7v8.4c0,.4.1.8.7.8h.4Z"/><path d="M239.6,220a4.7,4.7,0,0,1-3,.8c-2.6,0-4.9-1.8-4.9-5.3s2.3-5.6,5.3-5.6a5.5,5.5,0,0,1,2.6.6l-.4,1.3a4.6,4.6,0,0,0-2.2-.4c-2.1,0-3.5,1.2-3.5,4.1s1.6,3.8,3.4,3.8a3.5,3.5,0,0,0,2.3-.6Z"/><path d="M247.3,220.3a3.7,3.7,0,0,1-2,.5c-1.9,0-2.9-1.1-2.9-3.4v-6.1h-1.9v-1.2h1.9v-2.2l1.6-.5v2.7h3.3v1.2H244v6.2c0,1.3.7,1.8,1.6,1.8a2.6,2.6,0,0,0,1.4-.3Z"/><path d="M250.5,207.9a1,1,0,0,1-1.1-1.1,1,1,0,0,1,1.1-1,1,1,0,0,1,1.1,1.1A1.1,1.1,0,0,1,250.5,207.9Zm2.1,12.6a2.7,2.7,0,0,1-1.3.3c-1.4,0-1.8-1-1.8-2.1v-8.6h1.7v8.4c0,.4.1.8.8.8h.3Z"/><path d="M267.2,220.6v-7.2c0-1.4-.8-2-2.1-2a3.6,3.6,0,0,0-2.4,1.1v8.1H261v-7.2c0-1.5-.7-2-2-2a3.6,3.6,0,0,0-2.4,1.1v8.1h-1.7V210.1h1l.6,1a4.4,4.4,0,0,1,2.8-1.2,3.2,3.2,0,0,1,3,1.4,5.1,5.1,0,0,1,3.2-1.4c2.3,0,3.3,1.3,3.3,3.5v7.2Z"/><path d="M280.5,220.5a4.2,4.2,0,0,1-1.3.3,1.9,1.9,0,0,1-1.8-1.2,4.5,4.5,0,0,1-3.2,1.2,2.7,2.7,0,0,1-3-2.7c0-2.7,2.7-3.3,6.2-3.3,0-1.9,0-3.4-2.3-3.4a5.8,5.8,0,0,0-2.8.6l-.4-1.3a7.4,7.4,0,0,1,3.4-.8c3.3,0,3.8,1.8,3.8,4.6v3.8c0,.7.1,1.1.7,1.1h.4Zm-3.1-4.6c-2.7,0-4.5.4-4.5,2a1.6,1.6,0,0,0,1.7,1.5,3.8,3.8,0,0,0,2.8-1.1Z"/><path d="M282.4,218.7a5.7,5.7,0,0,0,2.7.7c1.6,0,2.2-.8,2.2-1.6,0-2.6-5.2-1.2-5.2-4.9,0-1.8,1.5-3,3.7-3a6,6,0,0,1,2.9.6l-.5,1.3a5.2,5.2,0,0,0-2.3-.5c-1.5,0-2.1.7-2.1,1.5,0,2.4,5.2,1.1,5.2,4.7,0,1.7-1.3,3.3-4,3.3a6.4,6.4,0,0,1-3.1-.8Z"/><path d="M303.7,220.6l-.5-1a4.2,4.2,0,0,1-2.9,1.2c-2.6,0-4.5-2.2-4.5-5.2s2-5.7,5-5.7a5.9,5.9,0,0,1,2.4.5v-5.5h1.6v15.7Zm-.5-8.7a4.9,4.9,0,0,0-2.2-.5c-2.1,0-3.4,1.5-3.4,4s1.3,3.9,3.1,3.9a4.2,4.2,0,0,0,2.5-1Z"/><path d="M315.7,219.8a5.5,5.5,0,0,1-3.4,1c-3,0-4.9-2.1-4.9-5.3s1.9-5.6,4.7-5.6,3.9,1.9,3.9,4.2a9.9,9.9,0,0,1-.2,1.7h-6.6c.1,1.7,1,3.5,3.4,3.5a6.3,6.3,0,0,0,2.7-.6Zm-1.4-5.1c0-.2.1-.5.1-.7a2.3,2.3,0,0,0-2.4-2.6c-1.9,0-2.7,1.7-2.8,3.3Z"/><path d="M321.7,220.5a2.7,2.7,0,0,1-1.3.3c-1.4,0-1.8-1-1.8-2.1V204.9h1.7v13.6c0,.4.1.8.7.8h.4Z"/><path d="M336.1,220a5.2,5.2,0,0,1-3.1.8c-2.5,0-4.8-1.8-4.8-5.3s2.3-5.6,5.3-5.6a5.5,5.5,0,0,1,2.6.6l-.5,1.3a3.9,3.9,0,0,0-2.1-.4c-2.1,0-3.5,1.2-3.5,4.1s1.5,3.8,3.3,3.8a3.7,3.7,0,0,0,2.4-.6Z"/><path d="M342.3,209.9c3.3,0,4.8,2.4,4.8,5.4s-1.9,5.5-4.9,5.5-4.8-2.4-4.8-5.5S339.3,209.9,342.3,209.9Zm-.1,9.4c2.1,0,3.1-1.8,3.1-4s-1-3.9-3.1-3.9-3.1,1.8-3.1,3.9S340.1,219.3,342.2,219.3Z"/><path d="M356.2,220.6v-7.2c0-1.7-.9-2-2-2a4.7,4.7,0,0,0-2.8,1v8.2h-1.7V210.1h1l.6,1a4.9,4.9,0,0,1,3.2-1.2c2.7,0,3.4,1.5,3.4,3.5v7.2Z"/><path d="M370.8,220.5a2.5,2.5,0,0,1-1.2.3c-1.4,0-1.8-1-1.8-2.1V206.3h-1.5c-2.4,0-3.1,1.4-3.1,3.2,0,.2.1.5.1.7h2.9v1.2h-3v13.5h-1.6V211.3h-1.9v-1.2h1.9v-.3c0-2.5.8-5.1,4.6-5.1l1.6.2h1.7v13.4c0,.7,0,1,.7,1h.6Z"/><path d="M374,207.9a1,1,0,0,1-1-1.1,1.1,1.1,0,0,1,2.1.1A1,1,0,0,1,374,207.9Zm2.2,12.6a2.7,2.7,0,0,1-1.3.3c-1.4,0-1.8-1-1.8-2.1v-8.6h1.7v8.4c0,.4.1.8.7.8h.4Z"/><path d="M385.6,220a5.2,5.2,0,0,1-3.1.8c-2.6,0-4.8-1.8-4.8-5.3s2.2-5.6,5.2-5.6a5.5,5.5,0,0,1,2.6.6l-.4,1.3a4.6,4.6,0,0,0-2.2-.4c-2.1,0-3.5,1.2-3.5,4.1s1.6,3.8,3.4,3.8a3.3,3.3,0,0,0,2.3-.6Z"/><path d="M393.2,220.3a3.7,3.7,0,0,1-2,.5c-1.9,0-2.9-1.1-2.9-3.4v-6.1h-1.9v-1.2h1.9v-2.2l1.7-.5v2.7h3.2v1.2H390v6.2c0,1.3.6,1.8,1.6,1.8a2.5,2.5,0,0,0,1.3-.3Z"/><path d="M399.6,209.9c3.3,0,4.8,2.4,4.8,5.4s-1.9,5.5-4.9,5.5-4.8-2.4-4.8-5.5S396.6,209.9,399.6,209.9Zm-.1,9.4c2.1,0,3.1-1.8,3.1-4s-1-3.9-3.1-3.9-3.1,1.8-3.1,3.9S397.4,219.3,399.5,219.3Z"/><path d="M420.4,220.5a3.5,3.5,0,0,1-1.3.3,1.7,1.7,0,0,1-1.7-1.2,5,5,0,0,1-3.3,1.2,2.6,2.6,0,0,1-2.9-2.7c0-2.7,2.7-3.3,6.1-3.3,0-1.9,0-3.4-2.3-3.4a5.4,5.4,0,0,0-2.7.6l-.5-1.3a7.4,7.4,0,0,1,3.4-.8c3.3,0,3.8,1.8,3.8,4.6v3.8c0,.7.1,1.1.8,1.1h.3Zm-3.1-4.6c-2.6,0-4.4.4-4.4,2a1.5,1.5,0,0,0,1.7,1.5,3.5,3.5,0,0,0,2.7-1.1Z"/><path d="M422.5,220.6V210.1h1l.5,1.4a4,4,0,0,1,3.2-1.6,1.5,1.5,0,0,1,.9.2l-.3,1.5h-.9a3.5,3.5,0,0,0-2.7,1.3v7.8Z"/><path d="M442.2,220.6v-7.2c0-1.4-.7-2-2.1-2a3.9,3.9,0,0,0-2.4,1.1v8.1h-1.6v-7.2c0-1.5-.8-2-2.1-2a3.9,3.9,0,0,0-2.4,1.1v8.1h-1.7V210.1H431l.6,1a4.1,4.1,0,0,1,2.8-1.2c1.9,0,2.6.8,2.9,1.4a5.5,5.5,0,0,1,3.2-1.4c2.3,0,3.4,1.3,3.4,3.5v7.2Z"/><path d="M455.5,220.5a3.5,3.5,0,0,1-1.3.3,1.7,1.7,0,0,1-1.7-1.2,4.8,4.8,0,0,1-3.3,1.2,2.7,2.7,0,0,1-2.9-2.7c0-2.7,2.7-3.3,6.2-3.3,0-1.9-.1-3.4-2.4-3.4a5.4,5.4,0,0,0-2.7.6l-.5-1.3a7.5,7.5,0,0,1,3.5-.8c3.2,0,3.7,1.8,3.7,4.6v3.8c0,.7.1,1.1.8,1.1h.3Zm-3-4.6c-2.7,0-4.5.4-4.5,2a1.5,1.5,0,0,0,1.7,1.5,3.9,3.9,0,0,0,2.8-1.1Z"/><path d="M464.7,220.6l-.5-1a4.5,4.5,0,0,1-2.9,1.2c-2.6,0-4.5-2.2-4.5-5.2s2-5.7,5-5.7a5.7,5.7,0,0,1,2.3.5v-5.5h1.7v15.7Zm-.6-8.7a4.2,4.2,0,0,0-2.1-.5c-2.1,0-3.4,1.5-3.4,4s1.2,3.9,3,3.9a3.8,3.8,0,0,0,2.5-1Z"/><path d="M473.3,209.9c3.3,0,4.8,2.4,4.8,5.4s-1.9,5.5-4.9,5.5-4.8-2.4-4.8-5.5S470.3,209.9,473.3,209.9Zm0,9.4c2.1,0,3.1-1.8,3.1-4s-1-3.9-3.1-3.9-3.2,1.8-3.2,3.9S471.1,219.3,473.3,219.3Z"/><path d="M493.3,219.8a5.7,5.7,0,0,1-3.4,1c-3,0-4.9-2.1-4.9-5.3s1.8-5.6,4.6-5.6,3.9,1.9,3.9,4.2a9.9,9.9,0,0,1-.2,1.7h-6.5a3.2,3.2,0,0,0,3.3,3.5,6.3,6.3,0,0,0,2.7-.6Zm-1.5-5.1a1.7,1.7,0,0,0,.1-.7c0-1.5-.7-2.6-2.4-2.6s-2.7,1.7-2.7,3.3Z"/><path d="M502.7,220.6v-7.2c0-1.7-.9-2-2-2a4.7,4.7,0,0,0-2.8,1v8.2h-1.7V210.1h1l.6,1a4.9,4.9,0,0,1,3.2-1.2c2.7,0,3.4,1.5,3.4,3.5v7.2Z"/><path d="M512.5,218.7a5.7,5.7,0,0,0,2.7.7c1.6,0,2.3-.8,2.3-1.6,0-2.6-5.2-1.2-5.2-4.9,0-1.8,1.4-3,3.7-3a5.8,5.8,0,0,1,2.8.6l-.5,1.3a4.9,4.9,0,0,0-2.3-.5c-1.4,0-2.1.7-2.1,1.5,0,2.4,5.2,1.1,5.2,4.7,0,1.7-1.2,3.3-3.9,3.3a6.8,6.8,0,0,1-3.2-.8Z"/><path d="M528.7,220.6l-.6-1a4.6,4.6,0,0,1-3,1.2c-2.5,0-3.4-1.7-3.4-3.7v-7h1.7v7a1.9,1.9,0,0,0,2.1,2.2,3.9,3.9,0,0,0,2.6-1.1v-8.1h1.6v10.5Z"/><path d="M194.6,245.5l-.4-1a4.5,4.5,0,0,1-2.9,1.2c-2.6,0-4.5-2.2-4.5-5.2s2-5.7,5-5.7a5.7,5.7,0,0,1,2.3.5v-5.4h1.7v15.6Zm-.5-8.7a4.4,4.4,0,0,0-2.2-.5c-2.1,0-3.3,1.5-3.3,4s1.2,3.9,3,3.9a3.8,3.8,0,0,0,2.5-1Z"/><path d="M203.3,234.8c3.3,0,4.8,2.5,4.8,5.5s-1.9,5.4-4.9,5.4-4.8-2.4-4.8-5.4S200.3,234.8,203.3,234.8Zm-.1,9.4c2.2,0,3.2-1.7,3.2-3.9s-1-4-3.2-4-3.1,1.8-3.1,4S201.1,244.2,203.2,244.2Z"/><path d="M213.8,245.4a2.7,2.7,0,0,1-1.3.3c-1.4,0-1.8-.9-1.8-2.1V229.9h1.7v13.5c0,.5.1.9.7.9h.4Z"/><path d="M220.2,234.8c3.3,0,4.8,2.5,4.8,5.5s-1.9,5.4-5,5.4-4.8-2.4-4.8-5.4S217.2,234.8,220.2,234.8Zm-.1,9.4c2.1,0,3.1-1.7,3.1-3.9s-1-4-3.1-4-3.1,1.8-3.1,4S218,244.2,220.1,244.2Z"/><path d="M227.6,245.5V235h1l.5,1.5a3.7,3.7,0,0,1,3.1-1.7l1,.2-.3,1.5H232a3.2,3.2,0,0,0-2.7,1.4v7.7Z"/><path d="M233,248.4a3.7,3.7,0,0,0,1-2.4,1.8,1.8,0,0,0-1-1.7s.2-1.1,1.2-1.1,1.4.8,1.4,1.9a5.7,5.7,0,0,1-1.8,3.9Z"/><path d="M250.8,245.5l-.5-1a4.2,4.2,0,0,1-2.9,1.2c-2.6,0-4.5-2.2-4.5-5.2s2-5.7,5-5.7a5.9,5.9,0,0,1,2.4.5v-5.4h1.6v15.6Zm-.5-8.7a4.9,4.9,0,0,0-2.2-.5c-2.1,0-3.4,1.5-3.4,4s1.3,3.9,3.1,3.9a4.2,4.2,0,0,0,2.5-1Z"/><path d="M256.3,232.9a1.1,1.1,0,1,1,1.1-1.1A1.1,1.1,0,0,1,256.3,232.9Zm2.1,12.5a2.7,2.7,0,0,1-1.3.3c-1.4,0-1.8-.9-1.8-2.1V235H257v8.4c0,.5.1.9.8.9h.3Z"/><path d="M267.2,236.3a3.9,3.9,0,0,1,.6,2,3.6,3.6,0,0,1-3.7,3.7h-.7a1.9,1.9,0,0,0-.4.9c0,.4.1.7,1.2.7,3.5,0,4.5,1.1,4.5,2.9S267,250,264,250s-4-1-4-3a2.6,2.6,0,0,1,2.1-2.5,1.6,1.6,0,0,1-.7-1.4v-.4l.8-1.1a3.5,3.5,0,0,1-1.8-3.1,3.6,3.6,0,0,1,3.7-3.7,4.6,4.6,0,0,1,1.9.4l3.6-.2v1.3Zm-5.6,10.4c0,1,.8,1.9,2.6,1.9s2.9-.7,2.9-2-.7-1.7-2.9-1.7h-1.1A1.7,1.7,0,0,0,261.6,246.7Zm4.7-8.4a2,2,0,0,0-2.2-2.2,2.2,2.2,0,0,0-2.2,2.4,2.2,2.2,0,0,0,4.4-.2Z"/><path d="M277.8,245.5v-7.1c0-1.7-.9-2.1-2-2.1a4.2,4.2,0,0,0-2.8,1.1v8.1h-1.7V235h1l.6,1a5.8,5.8,0,0,1,3.2-1.2c2.7,0,3.4,1.5,3.4,3.6v7.1Z"/><path d="M283.7,232.9a1.1,1.1,0,0,1-1.1-1.1,1,1,0,0,1,1.1-1.1,1,1,0,0,1,1.1,1.1A1,1,0,0,1,283.7,232.9Zm2.1,12.5a2.5,2.5,0,0,1-1.2.3c-1.4,0-1.8-.9-1.8-2.1V235h1.7v8.4c0,.5,0,.9.7.9h.4Z"/><path d="M295.1,245.5l-.4-1a4.5,4.5,0,0,1-2.9,1.2c-2.6,0-4.5-2.2-4.5-5.2s2-5.7,5-5.7a5.7,5.7,0,0,1,2.3.5v-5.4h1.7v15.6Zm-.5-8.7a4.4,4.4,0,0,0-2.2-.5c-2.1,0-3.3,1.5-3.3,4s1.2,3.9,3,3.9a3.8,3.8,0,0,0,2.5-1Z"/><path d="M308.1,245.4a2.5,2.5,0,0,1-1.3.3,1.9,1.9,0,0,1-1.8-1.2,4.5,4.5,0,0,1-3.2,1.2c-1.7,0-3-1-3-2.6s2.7-3.3,6.2-3.3c0-1.9,0-3.5-2.3-3.5a7.3,7.3,0,0,0-2.8.6l-.4-1.3a7.4,7.4,0,0,1,3.4-.8c3.3,0,3.8,1.8,3.8,4.7v3.7c0,.7.1,1.1.7,1.1h.4Zm-3.1-4.5c-2.7,0-4.4.4-4.4,1.9a1.5,1.5,0,0,0,1.6,1.5,3.8,3.8,0,0,0,2.8-1.1Z"/><path d="M317.2,245.5l-.4-1a4.5,4.5,0,0,1-2.9,1.2c-2.7,0-4.5-2.2-4.5-5.2s2-5.7,5-5.7a5.7,5.7,0,0,1,2.3.5v-5.4h1.7v15.6Zm-.5-8.7a4.4,4.4,0,0,0-2.2-.5c-2.1,0-3.3,1.5-3.3,4s1.2,3.9,3,3.9a3.8,3.8,0,0,0,2.5-1Z"/><path d="M325.1,235h2l3.3,8.7,2.8-8.7H335l-4.3,11.8a3.8,3.8,0,0,1-5.6,2.4l.5-1.3a2.6,2.6,0,0,0,1.4.4c1.4,0,2.1-1.1,2.6-2.7Z"/><path d="M341.8,245.5V235h1l.5,1.5a3.7,3.7,0,0,1,3.2-1.7l.9.2-.3,1.5h-.9a3.4,3.4,0,0,0-2.7,1.4v7.7Z"/><path d="M356.3,244.8a5.8,5.8,0,0,1-3.4.9c-3,0-4.9-2-4.9-5.3s1.8-5.6,4.6-5.6,3.9,2,3.9,4.3a8.8,8.8,0,0,1-.2,1.6h-6.5a3.2,3.2,0,0,0,3.3,3.5,6.3,6.3,0,0,0,2.7-.6Zm-1.5-5.2a1.7,1.7,0,0,0,.1-.7c0-1.5-.7-2.6-2.4-2.6s-2.7,1.7-2.7,3.3Z"/><path d="M359,243.7a7.2,7.2,0,0,0,2.7.6c1.6,0,2.2-.7,2.2-1.6,0-2.5-5.2-1.2-5.2-4.8,0-1.9,1.5-3.1,3.7-3.1a6.3,6.3,0,0,1,2.9.6l-.5,1.3a7.1,7.1,0,0,0-2.3-.5c-1.5,0-2.1.7-2.1,1.5,0,2.4,5.2,1.1,5.2,4.8,0,1.7-1.3,3.2-4,3.2a5.4,5.4,0,0,1-3.1-.8Z"/><path d="M369.1,232.9a1,1,0,0,1-1-1.1,1,1,0,0,1,1-1.1,1,1,0,0,1,1.1,1.1A1,1,0,0,1,369.1,232.9Zm2.1,12.5a2.5,2.5,0,0,1-1.2.3c-1.4,0-1.8-.9-1.8-2.1V235h1.7v8.4c0,.5.1.9.7.9h.4Z"/><path d="M373.3,243.7a7.2,7.2,0,0,0,2.7.6c1.7,0,2.3-.7,2.3-1.6,0-2.5-5.2-1.2-5.2-4.8,0-1.9,1.4-3.1,3.7-3.1a5.5,5.5,0,0,1,2.8.6l-.4,1.3a7.8,7.8,0,0,0-2.4-.5c-1.4,0-2.1.7-2.1,1.5,0,2.4,5.2,1.1,5.2,4.8,0,1.7-1.2,3.2-3.9,3.2a5.4,5.4,0,0,1-3.1-.8Z"/><path d="M387.9,245.2a4.1,4.1,0,0,1-2.1.5c-1.8,0-2.9-1.1-2.9-3.3v-6.1H381V235h1.9v-2.2l1.7-.4V235h3.2v1.3h-3.2v6.1c0,1.3.6,1.8,1.6,1.8l1.4-.2Z"/><path d="M397.6,244.8a5.8,5.8,0,0,1-3.4.9c-3,0-4.9-2-4.9-5.3s1.8-5.6,4.6-5.6,3.9,2,3.9,4.3a8.6,8.6,0,0,1-.1,1.6h-6.6a3.2,3.2,0,0,0,3.4,3.5,6.2,6.2,0,0,0,2.6-.6Zm-1.4-5.2v-.7c0-1.5-.7-2.6-2.4-2.6s-2.7,1.7-2.7,3.3Z"/><path d="M407,245.5v-7.1c0-1.7-.9-2.1-2-2.1a4.2,4.2,0,0,0-2.8,1.1v8.1h-1.7V235h1l.6,1a5.5,5.5,0,0,1,3.2-1.2c2.7,0,3.4,1.5,3.4,3.6v7.1Z"/><path d="M419.1,245a6.2,6.2,0,0,1-3.1.7c-2.6,0-4.8-1.8-4.8-5.3s2.2-5.6,5.2-5.6a5.5,5.5,0,0,1,2.6.6l-.4,1.4a4.5,4.5,0,0,0-2.2-.5c-2.1,0-3.5,1.2-3.5,4.1s1.6,3.8,3.4,3.8a4.1,4.1,0,0,0,2.3-.5Z"/><path d="M422,232.9a1.1,1.1,0,0,1,0-2.2,1,1,0,0,1,1.1,1.1A1,1,0,0,1,422,232.9Zm2.2,12.5a3.3,3.3,0,0,1-1.3.3c-1.4,0-1.8-.9-1.8-2.1V235h1.7v8.4c0,.5.1.9.7.9h.4Z"/><path d="M434.8,245.4a2.1,2.1,0,0,1-1.2.3,1.8,1.8,0,0,1-1.8-1.2,4.8,4.8,0,0,1-3.3,1.2,2.7,2.7,0,0,1-2.9-2.6c0-2.8,2.7-3.3,6.2-3.3,0-1.9-.1-3.5-2.4-3.5a6.7,6.7,0,0,0-2.7.6l-.4-1.3a6.8,6.8,0,0,1,3.4-.8c3.2,0,3.7,1.8,3.7,4.7v3.7c0,.7.1,1.1.8,1.1h.3Zm-3-4.5c-2.7,0-4.5.4-4.5,1.9a1.5,1.5,0,0,0,1.7,1.5,3.9,3.9,0,0,0,2.8-1.1Z"/><path d="M436.8,243.7a6.7,6.7,0,0,0,2.7.6c1.6,0,2.2-.7,2.2-1.6,0-2.5-5.2-1.2-5.2-4.8,0-1.9,1.5-3.1,3.7-3.1a5.5,5.5,0,0,1,2.8.6l-.4,1.3a7.8,7.8,0,0,0-2.4-.5c-1.4,0-2.1.7-2.1,1.5,0,2.4,5.3,1.1,5.3,4.8,0,1.7-1.3,3.2-4,3.2a5.4,5.4,0,0,1-3.1-.8Z"/><path d="M445.6,248.4a3.6,3.6,0,0,0,1.1-2.4,1.8,1.8,0,0,0-1.1-1.7s.2-1.1,1.2-1.1,1.5.8,1.5,1.9a6.1,6.1,0,0,1-1.8,3.9Z"/><path d="M456.4,245.5V235h1l.5,1.5a3.8,3.8,0,0,1,3.2-1.7l.9.2-.3,1.5h-.9a3.4,3.4,0,0,0-2.7,1.4v7.7Z"/><path d="M470.9,244.8a5.8,5.8,0,0,1-3.4.9c-3,0-4.9-2-4.9-5.3s1.8-5.6,4.6-5.6,3.9,2,3.9,4.3a8.6,8.6,0,0,1-.1,1.6h-6.6a3.2,3.2,0,0,0,3.4,3.5,6.2,6.2,0,0,0,2.6-.6Zm-1.4-5.2v-.7c0-1.5-.7-2.6-2.4-2.6s-2.7,1.7-2.7,3.3Z"/><path d="M480.9,245a6.2,6.2,0,0,1-3.1.7c-2.6,0-4.8-1.8-4.8-5.3s2.2-5.6,5.2-5.6a5.5,5.5,0,0,1,2.6.6l-.4,1.4a4.5,4.5,0,0,0-2.2-.5c-2.1,0-3.5,1.2-3.5,4.1s1.6,3.8,3.4,3.8a4.1,4.1,0,0,0,2.3-.5Z"/><path d="M487,234.8c3.3,0,4.8,2.5,4.8,5.5s-1.9,5.4-4.9,5.4-4.8-2.4-4.8-5.4S484,234.8,487,234.8Zm-.1,9.4c2.2,0,3.2-1.7,3.2-3.9s-1-4-3.2-4-3.1,1.8-3.1,4S484.8,244.2,486.9,244.2Z"/><path d="M501,245.5v-7.1c0-1.7-.9-2.1-2.1-2.1a4.4,4.4,0,0,0-2.8,1.1v8.1h-1.7V235h1l.7,1a5.5,5.5,0,0,1,3.2-1.2c2.6,0,3.4,1.5,3.4,3.6v7.1Z"/><path d="M510,234.8c3.3,0,4.8,2.5,4.8,5.5s-1.9,5.4-4.9,5.4-4.8-2.4-4.8-5.4S507,234.8,510,234.8Zm-.1,9.4c2.2,0,3.2-1.7,3.2-3.9s-1-4-3.2-4-3.1,1.8-3.1,4S507.8,244.2,509.9,244.2Z"/><path d="M524.5,245a6.2,6.2,0,0,1-3.1.7c-2.5,0-4.8-1.8-4.8-5.3s2.3-5.6,5.3-5.6a5.5,5.5,0,0,1,2.6.6l-.5,1.4a3.8,3.8,0,0,0-2.1-.5c-2.1,0-3.5,1.2-3.5,4.1s1.5,3.8,3.3,3.8a4.5,4.5,0,0,0,2.4-.5Z"/><path d="M534.1,244.8a6.1,6.1,0,0,1-3.5.9c-2.9,0-4.8-2-4.8-5.3s1.8-5.6,4.6-5.6,3.9,2,3.9,4.3a8.8,8.8,0,0,1-.2,1.6h-6.6c.1,1.7,1,3.5,3.4,3.5a6.3,6.3,0,0,0,2.7-.6Zm-1.5-5.2a1.7,1.7,0,0,0,.1-.7c0-1.5-.7-2.6-2.4-2.6s-2.7,1.7-2.7,3.3Z"/><path d="M537,245.5V235h1l.5,1.5a3.7,3.7,0,0,1,3.1-1.7l1,.2-.3,1.5h-.9a3.6,3.6,0,0,0-2.8,1.4v7.7Z"/><path d="M552.5,245.4a2.7,2.7,0,0,1-1.3.3c-1.4,0-1.8-.9-1.8-2.1V229.9h1.7v13.5c0,.5.1.9.7.9h.4Z"/><path d="M563.1,245.4a2.1,2.1,0,0,1-1.2.3,1.8,1.8,0,0,1-1.8-1.2,4.5,4.5,0,0,1-3.2,1.2c-1.7,0-3-1-3-2.6s2.7-3.3,6.2-3.3c0-1.9,0-3.5-2.4-3.5a7.2,7.2,0,0,0-2.7.6l-.4-1.3a6.8,6.8,0,0,1,3.4-.8c3.2,0,3.8,1.8,3.8,4.7v3.7c0,.7,0,1.1.7,1.1h.4Zm-3-4.5c-2.7,0-4.5.4-4.5,1.9a1.6,1.6,0,0,0,1.7,1.5,3.9,3.9,0,0,0,2.8-1.1Z"/><path d="M188.5,257.8a1,1,0,0,1-1-1.1,1.1,1.1,0,0,1,1-1.1c.7,0,1.1.4,1.1,1.2A1,1,0,0,1,188.5,257.8Zm2.2,12.5a2.7,2.7,0,0,1-1.3.3c-1.4,0-1.8-.9-1.8-2.1V260h1.7v8.4c0,.4.1.8.7.8h.4Z"/><path d="M199.5,270.4v-7.1c0-1.7-.9-2.1-2.1-2.1a5,5,0,0,0-2.8,1.1v8.1H193V260h1l.6,1a4.9,4.9,0,0,1,3.2-1.2c2.7,0,3.4,1.5,3.4,3.5v7.1Z"/><path d="M201.6,273.2l.9.2c1.1,0,1.9-.5,1.9-2.1V260h1.7v11.1c0,2.4-1.3,3.8-3.4,3.8a3.7,3.7,0,0,1-1.4-.3Zm3.7-15.4a1.1,1.1,0,1,1,0-2.2,1.1,1.1,0,0,1,1.1,1.2A1.1,1.1,0,0,1,205.3,257.8Z"/><path d="M216.5,270.4l-.6-1a4.2,4.2,0,0,1-3,1.2c-2.5,0-3.4-1.7-3.4-3.7V260h1.7v6.9c0,1.7.9,2.3,2.1,2.3a3.9,3.9,0,0,0,2.6-1.1V260h1.7v10.4Z"/><path d="M220.8,268.6a7.2,7.2,0,0,0,2.7.6c1.6,0,2.2-.7,2.2-1.6,0-2.5-5.2-1.2-5.2-4.8,0-1.8,1.5-3,3.7-3a5.8,5.8,0,0,1,2.8.5l-.4,1.4a5.2,5.2,0,0,0-2.3-.5c-1.5,0-2.2.6-2.2,1.5s5.3,1.1,5.3,4.7c0,1.7-1.3,3.2-4,3.2a6.5,6.5,0,0,1-3.1-.7Z"/><path d="M235.3,270.2a5.6,5.6,0,0,1-2.1.4c-1.8,0-2.9-1.1-2.9-3.3v-6.1h-1.8V260h1.8v-2.3l1.7-.4V260h3.3v1.2H232v6.2c0,1.3.7,1.8,1.6,1.8a4.2,4.2,0,0,0,1.4-.3Z"/><path d="M238.4,257.8a1,1,0,0,1-1-1.1,1.1,1.1,0,0,1,1-1.1c.7,0,1.1.4,1.1,1.2A1,1,0,0,1,238.4,257.8Zm2.2,12.5a2.7,2.7,0,0,1-1.3.3c-1.4,0-1.8-.9-1.8-2.1V260h1.7v8.4c0,.4.1.8.7.8h.4Z"/><path d="M249.9,269.9a5.5,5.5,0,0,1-3,.7c-2.6,0-4.9-1.8-4.9-5.3s2.3-5.5,5.3-5.5a4.5,4.5,0,0,1,2.6.6l-.4,1.3a4.5,4.5,0,0,0-2.2-.5c-2.1,0-3.5,1.3-3.5,4.1s1.6,3.9,3.4,3.9a4.2,4.2,0,0,0,2.3-.6Z"/><path d="M252.9,257.8a1,1,0,0,1-1-1.1,1.1,1.1,0,0,1,1-1.1c.7,0,1.1.4,1.1,1.2A1,1,0,0,1,252.9,257.8Zm2.2,12.5a3.3,3.3,0,0,1-1.3.3c-1.4,0-1.8-.9-1.8-2.1V260h1.7v8.4c0,.4.1.8.7.8h.4Z"/><path d="M265.7,270.3a2.3,2.3,0,0,1-1.3.3,1.6,1.6,0,0,1-1.7-1.2,4.8,4.8,0,0,1-3.3,1.2,2.6,2.6,0,0,1-2.9-2.6c0-2.7,2.7-3.3,6.2-3.3,0-1.9-.1-3.5-2.4-3.5a5.4,5.4,0,0,0-2.7.7l-.4-1.4a8.3,8.3,0,0,1,3.4-.7c3.2,0,3.7,1.7,3.7,4.6v3.8c0,.6.1,1,.8,1h.3Zm-3-4.5c-2.7,0-4.5.4-4.5,2a1.6,1.6,0,0,0,1.7,1.5,4.4,4.4,0,0,0,2.8-1.1Z"/><path d="M279.9,270.4l-.5-.9a4.3,4.3,0,0,1-2.8,1.1c-2.7,0-4.5-2.2-4.5-5.1s2-5.7,4.9-5.7a5.9,5.9,0,0,1,2.4.5v-5.5h1.7v15.6Zm-.5-8.7a4.9,4.9,0,0,0-2.2-.5c-2.1,0-3.4,1.6-3.4,4.1s1.3,3.9,3.1,3.9a3.8,3.8,0,0,0,2.5-1Z"/><path d="M292,269.7a6.1,6.1,0,0,1-3.5.9c-2.9,0-4.8-2-4.8-5.3s1.8-5.5,4.6-5.5,3.9,1.9,3.9,4.2a9.9,9.9,0,0,1-.2,1.7h-6.5a3.2,3.2,0,0,0,3.3,3.5,5.1,5.1,0,0,0,2.7-.7Zm-1.5-5.1a1.7,1.7,0,0,0,.1-.7c0-1.6-.7-2.6-2.4-2.6s-2.7,1.6-2.7,3.3Z"/><path d="M303,270.3a3.3,3.3,0,0,1-1.3.3c-1.4,0-1.8-.9-1.8-2.1V254.8h1.7v13.6c0,.4.1.8.7.8h.4Z"/><path d="M309.4,259.8c3.3,0,4.8,2.4,4.8,5.4s-1.9,5.4-5,5.4-4.8-2.4-4.8-5.4S306.4,259.8,309.4,259.8Zm-.1,9.4c2.1,0,3.1-1.8,3.1-4s-1-4-3.1-4-3.1,1.8-3.1,4S307.1,269.2,309.3,269.2Z"/><path d="M323.9,270.4,320.1,260h1.8l3.1,8.9h0l3.1-8.9h1.7L326,270.4Z"/><path d="M332.4,257.8a1,1,0,0,1-1-1.1,1.1,1.1,0,0,1,1-1.1c.7,0,1.1.4,1.1,1.2A1,1,0,0,1,332.4,257.8Zm2.2,12.5a3.3,3.3,0,0,1-1.3.3c-1.4,0-1.8-.9-1.8-2.1V260h1.7v8.4c0,.4.1.8.7.8h.4Z"/><path d="M339,270.4,335.2,260H337l3,8.9h.1l3.1-8.9h1.6l-3.7,10.4Z"/><path d="M347.5,257.8a1,1,0,0,1-1.1-1.1,1.1,1.1,0,0,1,1.1-1.1,1.1,1.1,0,0,1,1.1,1.2A1.1,1.1,0,0,1,347.5,257.8Zm2.1,12.5a2.7,2.7,0,0,1-1.3.3c-1.3,0-1.7-.9-1.7-2.1V260h1.6v8.4c0,.4.1.8.8.8h.3Z"/><path d="M358.9,270.4l-.4-.9a4.7,4.7,0,0,1-2.9,1.1c-2.7,0-4.5-2.2-4.5-5.1s2-5.7,5-5.7a5.7,5.7,0,0,1,2.3.5v-5.5h1.7v15.6Zm-.5-8.7a4.9,4.9,0,0,0-2.2-.5c-2.1,0-3.3,1.6-3.3,4.1s1.2,3.9,3,3.9a3.8,3.8,0,0,0,2.5-1Z"/><path d="M367.6,259.8c3.3,0,4.8,2.4,4.8,5.4s-1.9,5.4-4.9,5.4-4.8-2.4-4.8-5.4S364.6,259.8,367.6,259.8Zm-.1,9.4c2.2,0,3.2-1.8,3.2-4s-1-4-3.2-4-3.1,1.8-3.1,4S365.4,269.2,367.5,269.2Z"/><path d="M374.7,273.4a4.2,4.2,0,0,0,1-2.5,1.8,1.8,0,0,0-1.1-1.7,1.4,1.4,0,0,1,1.3-1c1,0,1.4.7,1.4,1.8a5.9,5.9,0,0,1-1.8,3.9Z"/><path d="M383.7,260h2l3.2,8.6,2.9-8.6h1.8l-4.3,11.7c-.6,1.6-1.7,3-3.8,3a3,3,0,0,1-1.8-.6l.5-1.2a4.2,4.2,0,0,0,1.4.3c1.4,0,2.1-1.1,2.6-2.7Z"/><path d="M407.9,269.7a6.1,6.1,0,0,1-3.5.9c-2.9,0-4.8-2-4.8-5.3s1.8-5.5,4.6-5.5,3.9,1.9,3.9,4.2a9.9,9.9,0,0,1-.2,1.7h-6.6c.1,1.7,1,3.5,3.4,3.5a5.1,5.1,0,0,0,2.7-.7Zm-1.5-5.1a1.7,1.7,0,0,0,.1-.7c0-1.6-.7-2.6-2.4-2.6s-2.7,1.6-2.7,3.3Z"/><path d="M413.8,270.3a2.7,2.7,0,0,1-1.3.3c-1.3,0-1.7-.9-1.7-2.1V254.8h1.6v13.6c0,.4.1.8.8.8h.3Z"/><path d="M426.5,270.2a5.6,5.6,0,0,1-2.1.4c-1.8,0-2.9-1.1-2.9-3.3v-6.1h-1.9V260h1.9v-2.3l1.7-.4V260h3.2v1.2h-3.2v6.2c0,1.3.6,1.8,1.6,1.8a5.8,5.8,0,0,0,1.4-.3Z"/><path d="M428.7,270.4V260h1l.5,1.4a4,4,0,0,1,3.2-1.6h.9l-.3,1.6-.9-.2a3.4,3.4,0,0,0-2.7,1.4v7.7Z"/><path d="M443.9,270.3a2.5,2.5,0,0,1-1.3.3,1.7,1.7,0,0,1-1.8-1.2,4.5,4.5,0,0,1-3.2,1.2c-1.7,0-3-.9-3-2.6s2.7-3.3,6.2-3.3c0-1.9,0-3.5-2.3-3.5a5.8,5.8,0,0,0-2.8.7l-.4-1.4a9.1,9.1,0,0,1,3.4-.7c3.2,0,3.8,1.7,3.8,4.6v3.8c0,.6.1,1,.7,1h.4Zm-3.1-4.5c-2.7,0-4.5.4-4.5,2a1.6,1.6,0,0,0,1.7,1.5,4.4,4.4,0,0,0,2.8-1.1Z"/><path d="M453,270.4l-.6-1a4.3,4.3,0,0,1-3.1,1.2c-2.5,0-3.3-1.7-3.3-3.7V260h1.7v6.9c0,1.7.9,2.3,2,2.3a3.5,3.5,0,0,0,2.6-1.1V260H454v10.4Z"/><path d="M469.7,270.4v-7.1a1.9,1.9,0,0,0-2.1-2.1,3.6,3.6,0,0,0-2.4,1.1v8.1h-1.7v-7.1c0-1.5-.7-2.1-2-2.1a3.6,3.6,0,0,0-2.4,1.1v8.1h-1.7V260h1l.6,1a4.4,4.4,0,0,1,2.8-1.2,3.2,3.2,0,0,1,3,1.3,5.3,5.3,0,0,1,3.2-1.3c2.3,0,3.3,1.3,3.3,3.5v7.1Z"/><path d="M483,270.3a2.5,2.5,0,0,1-1.3.3,1.7,1.7,0,0,1-1.8-1.2,4.5,4.5,0,0,1-3.2,1.2c-1.7,0-3-.9-3-2.6s2.7-3.3,6.2-3.3c0-1.9,0-3.5-2.3-3.5a5.8,5.8,0,0,0-2.8.7l-.4-1.4a9.1,9.1,0,0,1,3.4-.7c3.3,0,3.8,1.7,3.8,4.6v3.8c0,.6.1,1,.7,1h.4Zm-3.1-4.5c-2.7,0-4.4.4-4.4,2a1.6,1.6,0,0,0,1.6,1.5,4.2,4.2,0,0,0,2.8-1.1Z"/><path d="M497.2,269.9a5.8,5.8,0,0,1-3,.7c-2.6,0-4.9-1.8-4.9-5.3s2.3-5.5,5.3-5.5a4.5,4.5,0,0,1,2.6.6l-.4,1.3a4.5,4.5,0,0,0-2.2-.5c-2.1,0-3.5,1.3-3.5,4.1s1.6,3.9,3.4,3.9a4.2,4.2,0,0,0,2.3-.6Z"/><path d="M503.4,259.8c3.3,0,4.8,2.4,4.8,5.4s-1.9,5.4-4.9,5.4-4.8-2.4-4.8-5.4S500.4,259.8,503.4,259.8Zm-.1,9.4c2.2,0,3.2-1.8,3.2-4s-1-4-3.2-4-3.1,1.8-3.1,4S501.2,269.2,503.3,269.2Z"/><path d="M513.9,270.3a3.3,3.3,0,0,1-1.3.3c-1.4,0-1.8-.9-1.8-2.1V254.8h1.7v13.6c0,.4.1.8.7.8h.4Z"/><path d="M523.6,269.7a5.5,5.5,0,0,1-3.4.9c-3,0-4.9-2-4.9-5.3s1.9-5.5,4.7-5.5,3.9,1.9,3.9,4.2a9.9,9.9,0,0,1-.2,1.7h-6.6c.1,1.7,1,3.5,3.4,3.5a5.1,5.1,0,0,0,2.7-.7Zm-1.4-5.1v-.7c0-1.6-.7-2.6-2.3-2.6s-2.7,1.6-2.8,3.3Z"/><path d="M533.6,269.9a6.2,6.2,0,0,1-3.1.7c-2.5,0-4.8-1.8-4.8-5.3s2.3-5.5,5.3-5.5a4.5,4.5,0,0,1,2.6.6l-.5,1.3a3.8,3.8,0,0,0-2.1-.5c-2.1,0-3.5,1.3-3.5,4.1s1.5,3.9,3.3,3.9a4.4,4.4,0,0,0,2.4-.6Z"/><path d="M541.3,270.2a5.6,5.6,0,0,1-2.1.4c-1.8,0-2.9-1.1-2.9-3.3v-6.1h-1.8V260h1.8v-2.3l1.7-.4V260h3.3v1.2H538v6.2c0,1.3.7,1.8,1.6,1.8a4.2,4.2,0,0,0,1.4-.3Z"/><path d="M544.4,257.8a1,1,0,0,1-1-1.1,1.1,1.1,0,0,1,1-1.1c.7,0,1.1.4,1.1,1.2A1,1,0,0,1,544.4,257.8Zm2.2,12.5a2.7,2.7,0,0,1-1.3.3c-1.4,0-1.8-.9-1.8-2.1V260h1.7v8.4c0,.4.1.8.7.8h.4Z"/><path d="M551,270.4,547.2,260H549l3,8.9h.1l3.1-8.9h1.6l-3.7,10.4Z"/><path d="M562.7,259.8c3.3,0,4.8,2.4,4.8,5.4s-1.9,5.4-4.9,5.4-4.8-2.4-4.8-5.4S559.7,259.8,562.7,259.8Zm-.1,9.4c2.1,0,3.1-1.8,3.1-4s-1-4-3.1-4-3.1,1.8-3.1,4S560.5,269.2,562.6,269.2Z"/><path d="M194.1,299.6v-4.7a5.9,5.9,0,0,1-2.7.7c-2.8,0-4.6-2-4.6-5.2s2.2-5.7,5.3-5.7a11.1,11.1,0,0,1,3.7.8v14.1Zm0-13.1a7,7,0,0,0-2-.3c-2.6,0-3.5,2-3.5,4.1s.8,3.8,3.1,3.8a5.5,5.5,0,0,0,2.4-.7Z"/><path d="M206.2,295.4l-.6-1a4.6,4.6,0,0,1-3,1.2c-2.5,0-3.4-1.7-3.4-3.7v-7h1.7v7c0,1.6.9,2.2,2,2.2a3.5,3.5,0,0,0,2.6-1.1v-8.1h1.7v10.5Z"/><path d="M218.1,294.6a5.7,5.7,0,0,1-3.4,1c-3,0-4.9-2.1-4.9-5.3s1.9-5.6,4.6-5.6,3.9,1.9,3.9,4.2a9.7,9.7,0,0,1-.1,1.7h-6.6a3.3,3.3,0,0,0,3.4,3.5,5.9,5.9,0,0,0,2.6-.6Zm-1.4-5.1v-.7c0-1.6-.7-2.6-2.3-2.6s-2.7,1.6-2.8,3.3Z"/><path d="M233.1,294.8a5.4,5.4,0,0,1-3,.8c-2.6,0-4.9-1.8-4.9-5.3s2.3-5.6,5.3-5.6a5.5,5.5,0,0,1,2.6.6l-.4,1.3a4.6,4.6,0,0,0-2.2-.4c-2.1,0-3.5,1.2-3.5,4.1s1.6,3.8,3.4,3.8a3.5,3.5,0,0,0,2.3-.6Z"/><path d="M239.3,284.7c3.3,0,4.8,2.4,4.8,5.4s-1.9,5.5-4.9,5.5-4.8-2.5-4.8-5.5S236.3,284.7,239.3,284.7Zm-.1,9.4c2.2,0,3.2-1.8,3.2-4s-1-3.9-3.2-3.9-3.1,1.8-3.1,3.9S237.1,294.1,239.2,294.1Z"/><path d="M259,295.4v-7.2c0-1.4-.7-2-2.1-2a3.7,3.7,0,0,0-2.4,1v8.2h-1.7v-7.2c0-1.5-.7-2-2-2a3.7,3.7,0,0,0-2.4,1v8.2h-1.7V284.9h1l.6,1a4.5,4.5,0,0,1,2.9-1.2,3,3,0,0,1,2.9,1.4,5.1,5.1,0,0,1,3.2-1.4c2.3,0,3.3,1.3,3.3,3.5v7.2Z"/><path d="M263.9,299.6V284.9h1.2l.4,1a4.5,4.5,0,0,1,2.9-1.2c2.8,0,4.5,2.3,4.5,5.2s-2,5.7-5,5.7a5.7,5.7,0,0,1-2.3-.5v4.5Zm1.7-6a4.4,4.4,0,0,0,2.2.5c2.1,0,3.3-1.5,3.3-4s-1.2-3.9-3-3.9a3.8,3.8,0,0,0-2.5,1Z"/><path d="M283.9,295.2a2.5,2.5,0,0,1-1.3.4,1.9,1.9,0,0,1-1.8-1.2,4.5,4.5,0,0,1-3.2,1.2,2.7,2.7,0,0,1-3-2.7c0-2.7,2.7-3.3,6.2-3.3,0-1.9,0-3.4-2.3-3.4a5.8,5.8,0,0,0-2.8.6l-.4-1.3a7.4,7.4,0,0,1,3.4-.8c3.3,0,3.8,1.8,3.8,4.6v3.8c0,.7.1,1.1.7,1.1h.4Zm-3.1-4.5c-2.7,0-4.4.4-4.4,2a1.5,1.5,0,0,0,1.6,1.5,3.8,3.8,0,0,0,2.8-1.1Z"/><path d="M286,295.4V284.9h1l.5,1.4a4,4,0,0,1,3.2-1.6,1.5,1.5,0,0,1,.9.2l-.3,1.5h-.9a3.5,3.5,0,0,0-2.7,1.3v7.8Z"/><path d="M299,295.1a3.7,3.7,0,0,1-2,.5c-1.9,0-2.9-1.1-2.9-3.4v-6.1h-1.9v-1.2h1.9v-2.2l1.7-.5v2.7H299v1.2h-3.2v6.2c0,1.3.6,1.8,1.6,1.8a2.5,2.5,0,0,0,1.3-.3Z"/><path d="M302.2,282.7a1,1,0,0,1-1.1-1.1,1,1,0,0,1,1.1-1,1,1,0,0,1,1.1,1.1A1.1,1.1,0,0,1,302.2,282.7Zm2.1,12.5a2.2,2.2,0,0,1-1.3.4c-1.3,0-1.7-1-1.7-2.1v-8.6h1.6v8.4c0,.4.1.8.8.8h.3Z"/><path d="M318.9,295.4v-7.2c0-1.4-.7-2-2.1-2a3.7,3.7,0,0,0-2.4,1v8.2h-1.7v-7.2c0-1.5-.7-2-2-2a3.7,3.7,0,0,0-2.4,1v8.2h-1.7V284.9h1l.6,1a4.4,4.4,0,0,1,2.8-1.2c2,0,2.6.8,3,1.4a5.1,5.1,0,0,1,3.2-1.4c2.3,0,3.3,1.3,3.3,3.5v7.2Z"/><path d="M327.9,284.7c3.3,0,4.8,2.4,4.8,5.4s-1.9,5.5-4.9,5.5-4.8-2.5-4.8-5.5S324.9,284.7,327.9,284.7Zm-.1,9.4c2.2,0,3.2-1.8,3.2-4s-1-3.9-3.2-3.9-3.1,1.8-3.1,3.9S325.7,294.1,327.8,294.1Z"/><path d="M335.1,293.5a5.7,5.7,0,0,0,2.7.7c1.7,0,2.3-.8,2.3-1.6,0-2.6-5.2-1.2-5.2-4.9,0-1.8,1.4-3,3.7-3a5.5,5.5,0,0,1,2.8.6l-.5,1.3a4.9,4.9,0,0,0-2.3-.5c-1.4,0-2.1.7-2.1,1.5s5.2,1.1,5.2,4.7c0,1.7-1.2,3.3-3.9,3.3a6.4,6.4,0,0,1-3.1-.8Z"/><path d="M356.5,294.8a6.1,6.1,0,0,1-3.1.8c-2.6,0-4.8-1.8-4.8-5.3s2.2-5.6,5.2-5.6a5.5,5.5,0,0,1,2.6.6l-.4,1.3a4.6,4.6,0,0,0-2.2-.4c-2,0-3.5,1.2-3.5,4.1s1.6,3.8,3.4,3.8a3.8,3.8,0,0,0,2.4-.6Z"/><path d="M362.6,284.7c3.3,0,4.8,2.4,4.8,5.4s-1.9,5.5-4.9,5.5-4.8-2.5-4.8-5.5S359.6,284.7,362.6,284.7Zm0,9.4c2.1,0,3.1-1.8,3.1-4s-1-3.9-3.1-3.9-3.2,1.8-3.2,3.9S360.4,294.1,362.6,294.1Z"/><path d="M382.3,295.4v-7.2c0-1.4-.7-2-2.1-2a4.1,4.1,0,0,0-2.4,1v8.2h-1.6v-7.2c0-1.5-.8-2-2.1-2a4.1,4.1,0,0,0-2.4,1v8.2H370V284.9h1.1l.6,1a4.1,4.1,0,0,1,2.8-1.2c1.9,0,2.6.8,2.9,1.4a5.5,5.5,0,0,1,3.2-1.4c2.3,0,3.4,1.3,3.4,3.5v7.2Z"/><path d="M391.4,284.7c3.3,0,4.8,2.4,4.8,5.4s-2,5.5-5,5.5-4.8-2.5-4.8-5.5S388.3,284.7,391.4,284.7Zm-.1,9.4c2.1,0,3.1-1.8,3.1-4s-1-3.9-3.1-3.9-3.1,1.8-3.1,3.9S389.1,294.1,391.3,294.1Z"/><path d="M403.6,293.5a5.7,5.7,0,0,0,2.7.7c1.6,0,2.3-.8,2.3-1.6,0-2.6-5.2-1.2-5.2-4.9,0-1.8,1.4-3,3.7-3a5.8,5.8,0,0,1,2.8.6l-.5,1.3a5.2,5.2,0,0,0-2.3-.5c-1.5,0-2.1.7-2.1,1.5s5.2,1.1,5.2,4.7c0,1.7-1.3,3.3-4,3.3a6.4,6.4,0,0,1-3.1-.8Z"/><path d="M416.9,284.7c3.3,0,4.8,2.4,4.8,5.4s-1.9,5.5-4.9,5.5-4.8-2.5-4.8-5.5S413.9,284.7,416.9,284.7Zm-.1,9.4c2.2,0,3.2-1.8,3.2-4s-1-3.9-3.2-3.9-3.1,1.8-3.1,3.9S414.7,294.1,416.8,294.1Z"/><path d="M431.4,294.8a6.1,6.1,0,0,1-3.1.8c-2.5,0-4.8-1.8-4.8-5.3s2.3-5.6,5.3-5.6a5.5,5.5,0,0,1,2.6.6l-.5,1.3a3.9,3.9,0,0,0-2.1-.4c-2.1,0-3.5,1.2-3.5,4.1s1.5,3.8,3.3,3.8a3.7,3.7,0,0,0,2.4-.6Z"/><path d="M434.4,282.7a1,1,0,0,1-1.1-1.1,1,1,0,0,1,1.1-1,1,1,0,0,1,1.1,1.1A1.1,1.1,0,0,1,434.4,282.7Zm2.1,12.5a2.1,2.1,0,0,1-1.2.4c-1.4,0-1.8-1-1.8-2.1v-8.6h1.6v8.4c0,.4.1.8.8.8h.4Z"/><path d="M446.3,294.6a5.7,5.7,0,0,1-3.4,1c-3,0-4.9-2.1-4.9-5.3s1.8-5.6,4.6-5.6,3.9,1.9,3.9,4.2a9.7,9.7,0,0,1-.1,1.7h-6.6a3.3,3.3,0,0,0,3.4,3.5,5.9,5.9,0,0,0,2.6-.6Zm-1.4-5.1v-.7c0-1.6-.7-2.6-2.4-2.6s-2.7,1.6-2.7,3.3Z"/><path d="M456.2,295.4l-.4-1a4.5,4.5,0,0,1-2.9,1.2c-2.7,0-4.5-2.2-4.5-5.2s2-5.7,4.9-5.7a5.9,5.9,0,0,1,2.4.5v-5.5h1.7v15.7Zm-.5-8.7a4.9,4.9,0,0,0-2.2-.5c-2.1,0-3.4,1.5-3.4,4s1.3,3.9,3.1,3.9a3.8,3.8,0,0,0,2.5-1Z"/><path d="M469.2,295.2a2.5,2.5,0,0,1-1.3.4,1.9,1.9,0,0,1-1.8-1.2,4.5,4.5,0,0,1-3.2,1.2,2.7,2.7,0,0,1-3-2.7c0-2.7,2.7-3.3,6.2-3.3,0-1.9,0-3.4-2.3-3.4a5.8,5.8,0,0,0-2.8.6l-.4-1.3a7.4,7.4,0,0,1,3.4-.8c3.3,0,3.8,1.8,3.8,4.6v3.8c0,.7.1,1.1.7,1.1h.4Zm-3.1-4.5c-2.7,0-4.5.4-4.5,2a1.6,1.6,0,0,0,1.7,1.5,3.9,3.9,0,0,0,2.8-1.1Z"/><path d="M478.3,295.4l-.5-1a4.1,4.1,0,0,1-2.8,1.2c-2.7,0-4.5-2.2-4.5-5.2s2-5.7,4.9-5.7a5.9,5.9,0,0,1,2.4.5v-5.5h1.7v15.7Zm-.5-8.7a4.9,4.9,0,0,0-2.2-.5c-2.1,0-3.4,1.5-3.4,4s1.3,3.9,3.1,3.9a3.8,3.8,0,0,0,2.5-1Z"/><path d="M483.8,295.6a1.1,1.1,0,0,1,0-2.2c.7,0,1.1.4,1.1,1.2A1,1,0,0,1,483.8,295.6Z"/><path d="M187.8,320.3V306.8h3.9c3.2,0,4.9,1.4,4.9,4.2s-1.7,4.3-4.9,4.3h-2.2v5Zm4-6.4a2.8,2.8,0,0,0,3.1-2.9c0-1.5-.8-2.8-3.1-2.8h-2.3v5.7Z"/><path d="M199.3,320.3V309.8h1l.5,1.5a3.8,3.8,0,0,1,3.2-1.7l.9.2-.3,1.5h-.9a3.6,3.6,0,0,0-2.7,1.4v7.7Z"/><path d="M210.4,309.6c3.3,0,4.8,2.5,4.8,5.5s-1.9,5.4-4.9,5.4-4.8-2.4-4.8-5.4S207.4,309.6,210.4,309.6Zm-.1,9.4c2.2,0,3.2-1.7,3.2-3.9s-1-4-3.2-4-3.1,1.8-3.1,4S208.2,319,210.3,319Z"/><path d="M217.8,324.5V309.8H219l.4,1a4.5,4.5,0,0,1,2.9-1.2c2.8,0,4.5,2.3,4.5,5.2s-2,5.7-4.9,5.7a5.9,5.9,0,0,1-2.4-.5v4.5Zm1.7-6a4.9,4.9,0,0,0,2.2.5c2.1,0,3.4-1.5,3.4-4s-1.3-3.9-3.1-3.9a4.2,4.2,0,0,0-2.5,1Z"/><path d="M233.5,309.6c3.3,0,4.8,2.5,4.8,5.5s-1.9,5.4-4.9,5.4-4.8-2.4-4.8-5.4S230.5,309.6,233.5,309.6Zm0,9.4c2.1,0,3.1-1.7,3.1-3.9s-1-4-3.1-4-3.2,1.8-3.2,4S231.3,319,233.5,319Z"/><path d="M247.5,320.3v-7.1c0-1.7-.9-2.1-2.1-2.1a4.4,4.4,0,0,0-2.8,1.1v8.1h-1.7V309.8h1l.7,1a5.5,5.5,0,0,1,3.2-1.2c2.6,0,3.4,1.5,3.4,3.6v7.1Z"/><path d="M259.9,319.6a5.5,5.5,0,0,1-3.4.9c-3,0-4.9-2-4.9-5.3s1.9-5.6,4.6-5.6,3.9,2,3.9,4.3a8.6,8.6,0,0,1-.1,1.6h-6.6a3.3,3.3,0,0,0,3.4,3.5,5.9,5.9,0,0,0,2.6-.6Zm-1.4-5.2v-.7c0-1.5-.7-2.6-2.3-2.6s-2.7,1.7-2.8,3.3Z"/><path d="M269.4,320.3v-7.1c0-1.7-.9-2.1-2.1-2.1a4.4,4.4,0,0,0-2.8,1.1v8.1h-1.7V309.8h1l.6,1a6.2,6.2,0,0,1,3.3-1.2c2.6,0,3.3,1.5,3.3,3.6v7.1Z"/><path d="M287.7,320.2a3.5,3.5,0,0,1-1.2.3,1.8,1.8,0,0,1-1.8-1.2,4.8,4.8,0,0,1-3.3,1.2,2.7,2.7,0,0,1-2.9-2.6c0-2.8,2.7-3.4,6.2-3.4,0-1.8-.1-3.4-2.4-3.4a5.4,5.4,0,0,0-2.7.6l-.4-1.3a6.8,6.8,0,0,1,3.4-.8c3.2,0,3.7,1.8,3.7,4.7V318c0,.7.1,1.1.8,1.1h.3Zm-3-4.5c-2.7,0-4.5.4-4.5,1.9a1.5,1.5,0,0,0,1.7,1.5,3.9,3.9,0,0,0,2.8-1.1Z"/><path d="M297.9,320.2a2.5,2.5,0,0,1-1.2.3c-1.4,0-1.8-.9-1.8-2.1V304.7h1.7v13.5c0,.5.1.9.7.9h.4Z"/><path d="M308.6,320.2a3.5,3.5,0,0,1-1.3.3,1.7,1.7,0,0,1-1.7-1.2,5,5,0,0,1-3.3,1.2,2.6,2.6,0,0,1-2.9-2.6c0-2.8,2.7-3.4,6.1-3.4,0-1.8,0-3.4-2.3-3.4a5.4,5.4,0,0,0-2.7.6l-.5-1.3a7.4,7.4,0,0,1,3.4-.8c3.3,0,3.8,1.8,3.8,4.7V318c0,.7.1,1.1.8,1.1h.3Zm-3.1-4.5c-2.6,0-4.4.4-4.4,1.9a1.5,1.5,0,0,0,1.7,1.5,3.5,3.5,0,0,0,2.7-1.1Z"/><path d="M315.6,318.5a7.2,7.2,0,0,0,2.7.6c1.6,0,2.2-.7,2.2-1.6,0-2.5-5.2-1.2-5.2-4.8,0-1.9,1.5-3.1,3.7-3.1a6.3,6.3,0,0,1,2.9.6l-.5,1.3a7.1,7.1,0,0,0-2.3-.5c-1.5,0-2.1.7-2.1,1.5,0,2.4,5.2,1.1,5.2,4.8,0,1.7-1.3,3.2-4,3.2a5.4,5.4,0,0,1-3.1-.8Z"/><path d="M328.9,309.6c3.3,0,4.8,2.5,4.8,5.5s-1.9,5.4-4.9,5.4-4.8-2.4-4.8-5.4S325.9,309.6,328.9,309.6Zm-.1,9.4c2.2,0,3.2-1.7,3.2-3.9s-1-4-3.2-4-3.1,1.8-3.1,4S326.7,319,328.8,319Z"/><path d="M343.4,319.8a6.2,6.2,0,0,1-3.1.7c-2.6,0-4.8-1.8-4.8-5.3s2.2-5.6,5.3-5.6a5.9,5.9,0,0,1,2.6.6l-.5,1.4a4.1,4.1,0,0,0-2.1-.5c-2.1,0-3.6,1.2-3.6,4.1s1.6,3.8,3.4,3.8a4.8,4.8,0,0,0,2.4-.5Z"/><path d="M346.3,307.7a1.1,1.1,0,0,1,0-2.2,1.1,1.1,0,0,1,1.2,1.1A1.1,1.1,0,0,1,346.3,307.7Zm2.2,12.5a2.7,2.7,0,0,1-1.3.3c-1.4,0-1.8-.9-1.8-2.1v-8.6h1.7v8.4c0,.5.1.9.7.9h.4Z"/><path d="M358.3,319.6a6.1,6.1,0,0,1-3.5.9c-2.9,0-4.8-2-4.8-5.3s1.8-5.6,4.6-5.6,3.9,2,3.9,4.3a8.8,8.8,0,0,1-.2,1.6h-6.5a3.2,3.2,0,0,0,3.3,3.5,6.3,6.3,0,0,0,2.7-.6Zm-1.5-5.2a1.7,1.7,0,0,0,.1-.7c0-1.5-.7-2.6-2.4-2.6s-2.7,1.7-2.7,3.3Z"/><path d="M368.2,320.3l-.5-1a4.2,4.2,0,0,1-2.9,1.2c-2.6,0-4.4-2.2-4.4-5.2s1.9-5.7,4.9-5.7a5.9,5.9,0,0,1,2.4.5v-5.4h1.7v15.6Zm-.5-8.7a4.9,4.9,0,0,0-2.2-.5c-2.1,0-3.4,1.5-3.4,4s1.3,3.9,3.1,3.9a3.8,3.8,0,0,0,2.5-1Z"/><path d="M381.1,320.2a3.5,3.5,0,0,1-1.2.3,1.8,1.8,0,0,1-1.8-1.2,4.5,4.5,0,0,1-3.2,1.2c-1.7,0-3-1-3-2.6s2.7-3.4,6.2-3.4c0-1.8,0-3.4-2.4-3.4a5.4,5.4,0,0,0-2.7.6l-.4-1.3a6.8,6.8,0,0,1,3.4-.8c3.2,0,3.8,1.8,3.8,4.7V318c0,.7,0,1.1.7,1.1h.4Zm-3-4.5c-2.7,0-4.5.4-4.5,1.9a1.6,1.6,0,0,0,1.7,1.5,3.9,3.9,0,0,0,2.8-1.1Z"/><path d="M390.3,320.3l-.5-1a4.2,4.2,0,0,1-2.9,1.2c-2.6,0-4.5-2.2-4.5-5.2s2-5.7,5-5.7a5.9,5.9,0,0,1,2.4.5v-5.4h1.6v15.6Zm-.5-8.7a4.9,4.9,0,0,0-2.2-.5c-2.1,0-3.4,1.5-3.4,4s1.3,3.9,3.1,3.9a4.2,4.2,0,0,0,2.5-1Z"/><path d="M407,319.8a6.2,6.2,0,0,1-3.1.7c-2.6,0-4.8-1.8-4.8-5.3s2.2-5.6,5.3-5.6a5.9,5.9,0,0,1,2.6.6l-.5,1.4a4.1,4.1,0,0,0-2.1-.5c-2.1,0-3.6,1.2-3.6,4.1s1.6,3.8,3.4,3.8a4.8,4.8,0,0,0,2.4-.5Z"/><path d="M413.1,309.6c3.4,0,4.8,2.5,4.8,5.5s-1.9,5.4-4.9,5.4-4.8-2.4-4.8-5.4S410.1,309.6,413.1,309.6Zm0,9.4c2.1,0,3.1-1.7,3.1-3.9s-1-4-3.1-4-3.2,1.8-3.2,4S410.9,319,413.1,319Z"/><path d="M432.8,320.3v-7.1c0-1.5-.7-2.1-2.1-2.1a3.5,3.5,0,0,0-2.3,1.1v8.1h-1.7v-7.1c0-1.6-.8-2.1-2.1-2.1a3.9,3.9,0,0,0-2.4,1.1v8.1h-1.7V309.8h1.1l.6,1a4.1,4.1,0,0,1,2.8-1.2,3,3,0,0,1,2.9,1.4,5.5,5.5,0,0,1,3.2-1.4c2.3,0,3.4,1.3,3.4,3.6v7.1Z"/><path d="M437.7,324.5V309.8h1.2l.5,1a4.2,4.2,0,0,1,2.9-1.2c2.7,0,4.4,2.3,4.4,5.2s-1.9,5.7-4.9,5.7a5.9,5.9,0,0,1-2.4-.5v4.5Zm1.7-6a4.9,4.9,0,0,0,2.2.5c2.1,0,3.4-1.5,3.4-4s-1.3-3.9-3.1-3.9a4.2,4.2,0,0,0-2.5,1Z"/><path d="M449.3,320.3V309.8h1.1l.5,1.5a3.7,3.7,0,0,1,3.1-1.7l1,.2-.4,1.5h-.8a3.6,3.6,0,0,0-2.8,1.4v7.7Z"/><path d="M460.5,309.6c3.3,0,4.8,2.5,4.8,5.5s-2,5.4-5,5.4-4.8-2.4-4.8-5.4S457.4,309.6,460.5,309.6Zm-.1,9.4c2.1,0,3.1-1.7,3.1-3.9s-1-4-3.1-4-3.1,1.8-3.1,4S458.2,319,460.4,319Z"/><path d="M480.1,320.3v-7.1c0-1.5-.7-2.1-2-2.1a3.6,3.6,0,0,0-2.4,1.1v8.1H474v-7.1c0-1.6-.8-2.1-2.1-2.1a3.9,3.9,0,0,0-2.4,1.1v8.1h-1.6V309.8h1l.6,1a4.1,4.1,0,0,1,2.8-1.2,3,3,0,0,1,2.9,1.4,5.5,5.5,0,0,1,3.2-1.4c2.4,0,3.4,1.3,3.4,3.6v7.1Z"/><path d="M492.6,319.6a6.1,6.1,0,0,1-3.5.9c-2.9,0-4.9-2-4.9-5.3s1.9-5.6,4.7-5.6,3.9,2,3.9,4.3a8.8,8.8,0,0,1-.2,1.6H486c.1,1.7,1,3.5,3.4,3.5a6.3,6.3,0,0,0,2.7-.6Zm-1.5-5.2c0-.2.1-.5.1-.7a2.3,2.3,0,0,0-2.4-2.6c-1.9,0-2.7,1.7-2.7,3.3Z"/><path d="M500.8,320a4.1,4.1,0,0,1-2.1.5c-1.8,0-2.9-1.1-2.9-3.3v-6.1h-1.9v-1.3h1.9v-2.2l1.7-.4v2.6h3.2v1.3h-3.2v6.1c0,1.3.6,1.8,1.6,1.8a3.2,3.2,0,0,0,1.4-.3Z"/><path d="M510.5,319.6a5.8,5.8,0,0,1-3.4.9c-3,0-4.9-2-4.9-5.3s1.8-5.6,4.6-5.6,3.9,2,3.9,4.3a8.6,8.6,0,0,1-.1,1.6H504a3.2,3.2,0,0,0,3.4,3.5,6.2,6.2,0,0,0,2.6-.6Zm-1.4-5.2v-.7c0-1.5-.7-2.6-2.4-2.6s-2.7,1.7-2.7,3.3Z"/><path d="M513.4,320.3V309.8h1l.5,1.5a3.7,3.7,0,0,1,3.2-1.7l.9.2-.3,1.5h-.9a3.4,3.4,0,0,0-2.7,1.4v7.7Z"/><path d="M520.6,318.5a7.2,7.2,0,0,0,2.7.6c1.6,0,2.3-.7,2.3-1.6,0-2.5-5.2-1.2-5.2-4.8,0-1.9,1.4-3.1,3.7-3.1a5.8,5.8,0,0,1,2.8.6l-.5,1.3a7.1,7.1,0,0,0-2.3-.5c-1.5,0-2.1.7-2.1,1.5,0,2.4,5.2,1.1,5.2,4.8,0,1.7-1.3,3.2-4,3.2a5.4,5.4,0,0,1-3.1-.8Z"/><path d="M537.3,319.6a5.8,5.8,0,0,1-3.4.9c-3,0-4.9-2-4.9-5.3s1.8-5.6,4.6-5.6,3.9,2,3.9,4.3a8.6,8.6,0,0,1-.1,1.6h-6.6a3.3,3.3,0,0,0,3.4,3.5,5.9,5.9,0,0,0,2.6-.6Zm-1.4-5.2v-.7c0-1.5-.7-2.6-2.4-2.6s-2.7,1.7-2.7,3.3Z"/><path d="M194.7,344.7a6.2,6.2,0,0,1-3.1.7c-2.6,0-4.8-1.8-4.8-5.3s2.2-5.5,5.3-5.5a4.8,4.8,0,0,1,2.6.6l-.5,1.3a3.8,3.8,0,0,0-2.1-.5c-2.1,0-3.6,1.3-3.6,4.1s1.6,3.9,3.4,3.9a4.6,4.6,0,0,0,2.4-.6Z"/><path d="M200.9,334.6c3.3,0,4.8,2.4,4.8,5.4s-1.9,5.4-5,5.4-4.8-2.4-4.8-5.4S197.9,334.6,200.9,334.6Zm-.1,9.4c2.1,0,3.1-1.8,3.1-4s-1-4-3.1-4-3.1,1.8-3.1,4S198.6,344,200.8,344Z"/><path d="M214.8,345.2v-7.1c0-1.7-.9-2.1-2-2.1a4.8,4.8,0,0,0-2.8,1.1v8.1h-1.7V334.8h1l.6,1a4.9,4.9,0,0,1,3.2-1.2c2.7,0,3.4,1.5,3.4,3.5v7.1Z"/><path d="M227.9,345.1a3.3,3.3,0,0,1-1.3.3c-1.4,0-1.8-.9-1.8-2.1V329.6h1.7v13.6c0,.4.1.8.7.8h.4Z"/><path d="M238.5,345.1a2.1,2.1,0,0,1-1.2.3,1.7,1.7,0,0,1-1.8-1.2,4.8,4.8,0,0,1-3.3,1.2,2.7,2.7,0,0,1-2.9-2.6c0-2.7,2.7-3.3,6.2-3.3,0-1.9-.1-3.5-2.4-3.5a5.4,5.4,0,0,0-2.7.7l-.4-1.4a8.3,8.3,0,0,1,3.4-.7c3.2,0,3.7,1.7,3.7,4.6V343c0,.6.1,1,.8,1h.3Zm-3-4.5c-2.7,0-4.5.4-4.5,2a1.6,1.6,0,0,0,1.7,1.5,4.4,4.4,0,0,0,2.8-1.1Z"/><path d="M245.7,345.2V334.8h1l.5,1.4a4,4,0,0,1,3.2-1.6h.9l-.3,1.6-.9-.2a3.4,3.4,0,0,0-2.7,1.4v7.7Z"/><path d="M260.2,344.5a5.8,5.8,0,0,1-3.4.9c-3,0-4.9-2-4.9-5.3s1.8-5.5,4.6-5.5,3.9,1.9,3.9,4.2a9.7,9.7,0,0,1-.1,1.7h-6.6a3.2,3.2,0,0,0,3.4,3.5,5,5,0,0,0,2.6-.7Zm-1.4-5.1v-.7c0-1.6-.7-2.6-2.4-2.6s-2.7,1.6-2.7,3.3Z"/><path d="M263.1,349.5V334.8h1.1l.5.9a4.7,4.7,0,0,1,2.9-1.1c2.8,0,4.5,2.2,4.5,5.1s-2,5.7-5,5.7a5.7,5.7,0,0,1-2.3-.5v4.6Zm1.7-6a4.2,4.2,0,0,0,2.1.5c2.1,0,3.4-1.5,3.4-4.1s-1.2-3.9-3-3.9a3.8,3.8,0,0,0-2.5,1Z"/><path d="M283,345.1a1.9,1.9,0,0,1-1.2.3,1.7,1.7,0,0,1-1.8-1.2,4.5,4.5,0,0,1-3.2,1.2c-1.7,0-3-1-3-2.6s2.7-3.3,6.2-3.3c0-1.9,0-3.5-2.4-3.5a5.7,5.7,0,0,0-2.7.7l-.4-1.4a8.7,8.7,0,0,1,3.4-.7c3.2,0,3.8,1.7,3.8,4.6V343c0,.6.1,1,.7,1h.4Zm-3-4.5c-2.7,0-4.5.4-4.5,2a1.6,1.6,0,0,0,1.7,1.5A4.4,4.4,0,0,0,280,343Z"/><path d="M285.2,345.2V334.8h1l.5,1.4a3.8,3.8,0,0,1,3.1-1.6h1l-.3,1.6-.9-.2a3.6,3.6,0,0,0-2.8,1.4v7.7Z"/><path d="M300.3,345.1a2.1,2.1,0,0,1-1.2.3,1.7,1.7,0,0,1-1.8-1.2,4.5,4.5,0,0,1-3.2,1.2c-1.7,0-3-1-3-2.6s2.7-3.3,6.2-3.3c0-1.9,0-3.5-2.4-3.5a5.4,5.4,0,0,0-2.7.7l-.4-1.4a8.3,8.3,0,0,1,3.4-.7c3.2,0,3.8,1.7,3.8,4.6V343c0,.6,0,1,.7,1h.4Zm-3-4.5c-2.7,0-4.5.4-4.5,2a1.6,1.6,0,0,0,1.7,1.5,4.4,4.4,0,0,0,2.8-1.1Z"/><path d="M309.5,344.7a5.5,5.5,0,0,1-3,.7c-2.6,0-4.9-1.8-4.9-5.3s2.3-5.5,5.3-5.5a4.5,4.5,0,0,1,2.6.6l-.4,1.3a4.5,4.5,0,0,0-2.2-.5c-2.1,0-3.5,1.3-3.5,4.1s1.6,3.9,3.4,3.9a4.2,4.2,0,0,0,2.3-.6Z"/><path d="M312.5,332.6a1.1,1.1,0,0,1,0-2.2c.7,0,1.1.4,1.1,1.2A1,1,0,0,1,312.5,332.6Zm2.1,12.5a2.5,2.5,0,0,1-1.2.3c-1.4,0-1.8-.9-1.8-2.1v-8.5h1.7v8.4c0,.4.1.8.7.8h.4Z"/><path d="M321,334.6c3.3,0,4.8,2.4,4.8,5.4s-1.9,5.4-4.9,5.4-4.8-2.4-4.8-5.4S318,334.6,321,334.6Zm0,9.4c2.1,0,3.1-1.8,3.1-4s-1-4-3.1-4-3.2,1.8-3.2,4S318.8,344,321,344Zm-1.8-11.1,1.9-3.1H323l-2.4,3.1Z"/><path d="M335,345.2v-7.1c0-1.7-.9-2.1-2.1-2.1a5,5,0,0,0-2.8,1.1v8.1h-1.7V334.8h1.1l.6,1a4.9,4.9,0,0,1,3.2-1.2c2.6,0,3.4,1.5,3.4,3.5v7.1Z"/><path d="M345.9,332.6a1.1,1.1,0,0,1,0-2.2c.7,0,1.1.4,1.1,1.2A1,1,0,0,1,345.9,332.6Zm2.1,12.5a2.5,2.5,0,0,1-1.2.3c-1.4,0-1.8-.9-1.8-2.1v-8.5h1.7v8.4c0,.4,0,.8.7.8h.4Z"/><path d="M356.9,345.2v-7.1c0-1.7-.9-2.1-2.1-2.1a5,5,0,0,0-2.8,1.1v8.1h-1.7V334.8h1l.7,1a4.9,4.9,0,0,1,3.2-1.2c2.6,0,3.3,1.5,3.3,3.5v7.1Z"/><path d="M367.1,344.9a3.7,3.7,0,0,1-2,.5c-1.9,0-2.9-1.1-2.9-3.3V336h-1.9v-1.2h1.9v-2.3l1.6-.4v2.7h3.3V336h-3.3v6.2c0,1.3.7,1.8,1.6,1.8a4.2,4.2,0,0,0,1.4-.3Z"/><path d="M376.9,344.5a6.1,6.1,0,0,1-3.5.9c-2.9,0-4.9-2-4.9-5.3s1.9-5.5,4.7-5.5,3.9,1.9,3.9,4.2a9.9,9.9,0,0,1-.2,1.7h-6.6c.1,1.7,1,3.5,3.4,3.5a5.1,5.1,0,0,0,2.7-.7Zm-1.5-5.1c0-.3.1-.5.1-.7s-.8-2.6-2.4-2.6-2.7,1.6-2.8,3.3Z"/><path d="M386.2,336.1a2.6,2.6,0,0,1,.7,1.9,3.7,3.7,0,0,1-3.8,3.7h-.7a1.9,1.9,0,0,0-.4.9c0,.5.2.7,1.2.7,3.5,0,4.6,1.1,4.6,3s-1.7,3.5-4.7,3.5-4.1-1-4.1-3a2.8,2.8,0,0,1,2.1-2.5,1.5,1.5,0,0,1-.7-1.4v-.4l.9-1.1a3.3,3.3,0,0,1-1.8-3.1,3.5,3.5,0,0,1,3.6-3.6,5.2,5.2,0,0,1,1.9.3h3.7v1.3Zm-5.6,10.4c0,1,.8,1.8,2.6,1.8s2.9-.7,2.9-2-.6-1.6-2.9-1.6h-1A1.9,1.9,0,0,0,380.6,346.5Zm4.7-8.5a1.9,1.9,0,0,0-2.2-2.1,2.2,2.2,0,0,0,0,4.4A2.1,2.1,0,0,0,385.3,338Z"/><path d="M390.3,345.2V334.8h1.1l.4,1.4a4.2,4.2,0,0,1,3.2-1.6h.9l-.3,1.6-.8-.2a3.6,3.6,0,0,0-2.8,1.4v7.7Z"/><path d="M405.5,345.1a2.3,2.3,0,0,1-1.3.3,1.6,1.6,0,0,1-1.7-1.2,5,5,0,0,1-3.3,1.2,2.6,2.6,0,0,1-2.9-2.6c0-2.7,2.7-3.3,6.1-3.3,0-1.9,0-3.5-2.3-3.5a5.4,5.4,0,0,0-2.7.7l-.5-1.4a9.1,9.1,0,0,1,3.4-.7c3.3,0,3.8,1.7,3.8,4.6V343c0,.6.1,1,.8,1h.3Zm-3.1-4.5c-2.6,0-4.4.4-4.4,2a1.6,1.6,0,0,0,1.7,1.5,3.9,3.9,0,0,0,2.7-1.1Z"/><path d="M410.7,345.1a2.7,2.7,0,0,1-1.3.3c-1.4,0-1.8-.9-1.8-2.1V329.6h1.7v13.6c0,.4.1.8.7.8h.4Z"/><path d="M416.3,334.8h1.9l3.3,8.6,2.9-8.6h1.8l-4.3,11.7c-.6,1.6-1.7,3-3.8,3a3.3,3.3,0,0,1-1.9-.6l.6-1.3a2.5,2.5,0,0,0,1.3.4c1.5,0,2.1-1.1,2.6-2.7Z"/><path d="M438.3,344.9a4.1,4.1,0,0,1-2.1.5c-1.8,0-2.9-1.1-2.9-3.3V336h-1.9v-1.2h1.9v-2.3l1.7-.4v2.7h3.2V336H435v6.2c0,1.3.6,1.8,1.6,1.8a5.8,5.8,0,0,0,1.4-.3Z"/><path d="M440.5,345.2V334.8h1l.5,1.4a4,4,0,0,1,3.2-1.6h.9l-.3,1.6-.9-.2a3.4,3.4,0,0,0-2.7,1.4v7.7Z"/><path d="M455.7,345.1a2.5,2.5,0,0,1-1.3.3,1.7,1.7,0,0,1-1.8-1.2,4.5,4.5,0,0,1-3.2,1.2c-1.7,0-3-1-3-2.6s2.7-3.3,6.2-3.3c0-1.9,0-3.5-2.3-3.5a5.8,5.8,0,0,0-2.8.7l-.4-1.4a9.1,9.1,0,0,1,3.4-.7c3.2,0,3.8,1.7,3.8,4.6V343c0,.6.1,1,.7,1h.4Zm-3.1-4.5c-2.7,0-4.5.4-4.5,2a1.6,1.6,0,0,0,1.7,1.5,4.4,4.4,0,0,0,2.8-1.1Z"/><path d="M464.3,345.2v-7.1c0-1.7-.9-2.1-2-2.1a4.8,4.8,0,0,0-2.8,1.1v8.1h-1.7V334.8h1l.6,1a4.9,4.9,0,0,1,3.2-1.2c2.7,0,3.4,1.5,3.4,3.5v7.1Z"/><path d="M469.1,343.4a7.2,7.2,0,0,0,2.7.6c1.6,0,2.2-.7,2.2-1.6,0-2.5-5.2-1.2-5.2-4.8,0-1.8,1.5-3,3.7-3a6.5,6.5,0,0,1,2.9.5l-.5,1.3a7.3,7.3,0,0,0-2.3-.4c-1.5,0-2.2.6-2.2,1.5s5.3,1.1,5.3,4.7c0,1.7-1.3,3.2-4,3.2a6.5,6.5,0,0,1-3.1-.7Z"/><path d="M478.7,349.5V336h-1.9v-1.2h1.9v-.5c0-2.9,1.6-4.9,4.3-4.9a4.7,4.7,0,0,1,1.7.3l-.3,1.3-1.3-.2c-1.8,0-2.7,1.3-2.7,3.3v.7h2.9V336h-2.9v13.5Z"/><path d="M488.7,334.6c3.3,0,4.8,2.4,4.8,5.4s-1.9,5.4-4.9,5.4-4.8-2.4-4.8-5.4S485.7,334.6,488.7,334.6Zm-.1,9.4c2.2,0,3.2-1.8,3.2-4s-1-4-3.2-4-3.1,1.8-3.1,4S486.5,344,488.6,344Z"/><path d="M496.1,345.2V334.8h1l.5,1.4a4,4,0,0,1,3.2-1.6h.9l-.3,1.6-.8-.2a3.6,3.6,0,0,0-2.8,1.4v7.7Z"/><path d="M515.8,345.2v-7.1a1.9,1.9,0,0,0-2.1-2.1,3.5,3.5,0,0,0-2.3,1.1v8.1h-1.7v-7.1a1.9,1.9,0,0,0-2.1-2.1,3.9,3.9,0,0,0-2.4,1.1v8.1h-1.7V334.8h1.1l.6,1a4.1,4.1,0,0,1,2.8-1.2c1.9,0,2.6.8,2.9,1.3a5.6,5.6,0,0,1,3.2-1.3c2.3,0,3.4,1.3,3.4,3.5v7.1Z"/><path d="M529.1,345.1a2.1,2.1,0,0,1-1.2.3,1.7,1.7,0,0,1-1.8-1.2,4.8,4.8,0,0,1-3.3,1.2,2.7,2.7,0,0,1-2.9-2.6c0-2.7,2.7-3.3,6.2-3.3,0-1.9-.1-3.5-2.4-3.5a5.4,5.4,0,0,0-2.7.7l-.4-1.4a8.3,8.3,0,0,1,3.4-.7c3.2,0,3.8,1.7,3.8,4.6V343c0,.6,0,1,.7,1h.4Zm-3-4.5c-2.7,0-4.5.4-4.5,2a1.6,1.6,0,0,0,1.7,1.5,4.4,4.4,0,0,0,2.8-1.1Z"/><path d="M538.3,345.2l-.5-.9a4.7,4.7,0,0,1-2.9,1.1c-2.6,0-4.5-2.2-4.5-5.1s2-5.7,5-5.7a5.7,5.7,0,0,1,2.3.5v-5.5h1.7v15.6Zm-.6-8.7a4.2,4.2,0,0,0-2.1-.5c-2.1,0-3.4,1.5-3.4,4.1s1.2,3.9,3.1,3.9a3.7,3.7,0,0,0,2.4-1Z"/><path d="M546.9,334.6c3.4,0,4.8,2.4,4.8,5.4s-1.9,5.4-4.9,5.4S542,343,542,340,543.9,334.6,546.9,334.6Zm0,9.4c2.1,0,3.1-1.8,3.1-4s-1-4-3.1-4-3.2,1.8-3.2,4S544.7,344,546.9,344Z"/><path d="M554.3,345.2V334.8h1.1l.5,1.4a3.8,3.8,0,0,1,3.1-1.6h1l-.4,1.6-.8-.2a3.6,3.6,0,0,0-2.8,1.4v7.7Z"/><path d="M569.5,345.1a2.3,2.3,0,0,1-1.3.3,1.6,1.6,0,0,1-1.7-1.2,4.8,4.8,0,0,1-3.3,1.2,2.7,2.7,0,0,1-2.9-2.6c0-2.7,2.7-3.3,6.2-3.3,0-1.9-.1-3.5-2.4-3.5a5.4,5.4,0,0,0-2.7.7l-.4-1.4a8.3,8.3,0,0,1,3.4-.7c3.2,0,3.7,1.7,3.7,4.6V343c0,.6.1,1,.8,1h.3Zm-3-4.5c-2.7,0-4.5.4-4.5,2a1.6,1.6,0,0,0,1.7,1.5,4.4,4.4,0,0,0,2.8-1.1Z"/><path d="M194.6,370.2l-.4-1a4.5,4.5,0,0,1-2.9,1.2c-2.6,0-4.5-2.2-4.5-5.2s2-5.7,5-5.7a5.7,5.7,0,0,1,2.3.5v-5.5h1.7v15.7Zm-.5-8.7a4.4,4.4,0,0,0-2.2-.5c-2.1,0-3.3,1.5-3.3,4s1.2,3.9,3,3.9a3.8,3.8,0,0,0,2.5-1Z"/><path d="M206.7,369.4a5.7,5.7,0,0,1-3.4,1c-3,0-4.9-2.1-4.9-5.3s1.8-5.6,4.6-5.6,3.9,1.9,3.9,4.2a9.7,9.7,0,0,1-.1,1.7h-6.6a3.3,3.3,0,0,0,3.4,3.5,5.9,5.9,0,0,0,2.6-.6Zm-1.4-5.1v-.7c0-1.6-.7-2.6-2.4-2.6s-2.7,1.6-2.7,3.3Z"/><path d="M217.7,370a2.2,2.2,0,0,1-1.3.4c-1.4,0-1.8-1-1.8-2.1V354.5h1.7v13.6c0,.4.1.8.8.8h.3Z"/><path d="M228.4,370a2.5,2.5,0,0,1-1.3.4,1.9,1.9,0,0,1-1.8-1.2,4.5,4.5,0,0,1-3.2,1.2,2.7,2.7,0,0,1-3-2.7c0-2.7,2.7-3.3,6.2-3.3,0-1.9,0-3.4-2.3-3.4a5.8,5.8,0,0,0-2.8.6l-.4-1.3a7.4,7.4,0,0,1,3.4-.8c3.2,0,3.8,1.8,3.8,4.6v3.8c0,.7.1,1.1.7,1.1h.4Zm-3.1-4.5c-2.7,0-4.5.4-4.5,2a1.6,1.6,0,0,0,1.7,1.5,3.9,3.9,0,0,0,2.8-1.1Z"/><path d="M230.3,368.3a5.7,5.7,0,0,0,2.7.7c1.6,0,2.2-.8,2.2-1.6,0-2.6-5.2-1.2-5.2-4.9,0-1.8,1.5-3,3.7-3a6.3,6.3,0,0,1,2.9.6l-.5,1.3a5.2,5.2,0,0,0-2.3-.5c-1.5,0-2.1.7-2.1,1.5,0,2.3,5.2,1.1,5.2,4.7,0,1.7-1.3,3.3-4,3.3a6.4,6.4,0,0,1-3.1-.8Z"/><path d="M256.8,370.2V363c0-1.4-.7-2-2.1-2a3.7,3.7,0,0,0-2.3,1v8.2h-1.7V363c0-1.5-.8-2-2.1-2a4.1,4.1,0,0,0-2.4,1v8.2h-1.7V359.7h1.1l.6,1a4.1,4.1,0,0,1,2.8-1.2c1.9,0,2.6.8,2.9,1.4a5.5,5.5,0,0,1,3.2-1.4c2.3,0,3.4,1.3,3.4,3.5v7.2Z"/><path d="M270.1,370a2.1,2.1,0,0,1-1.2.4,1.8,1.8,0,0,1-1.8-1.2,4.8,4.8,0,0,1-3.3,1.2,2.7,2.7,0,0,1-2.9-2.7c0-2.7,2.7-3.3,6.2-3.3,0-1.9-.1-3.4-2.4-3.4a5.4,5.4,0,0,0-2.7.6l-.4-1.3a6.8,6.8,0,0,1,3.4-.8c3.2,0,3.8,1.8,3.8,4.6v3.8c0,.7,0,1.1.7,1.1h.4Zm-3-4.5c-2.7,0-4.5.4-4.5,2a1.6,1.6,0,0,0,1.7,1.5,3.9,3.9,0,0,0,2.8-1.1Zm-3.4-7.7,1.9-3h1.9l-2.4,3Z"/><path d="M272.1,368.3a5.4,5.4,0,0,0,2.7.7c1.6,0,2.2-.8,2.2-1.6,0-2.6-5.2-1.2-5.2-4.9,0-1.8,1.5-3,3.7-3a5.5,5.5,0,0,1,2.8.6l-.4,1.3a5.7,5.7,0,0,0-2.4-.5c-1.4,0-2.1.7-2.1,1.5,0,2.3,5.3,1.1,5.3,4.7,0,1.7-1.3,3.3-4,3.3a6.4,6.4,0,0,1-3.1-.8Z"/><path d="M293.3,370.2l-.4-1a4.5,4.5,0,0,1-2.9,1.2c-2.7,0-4.5-2.2-4.5-5.2s2-5.7,5-5.7a5.7,5.7,0,0,1,2.3.5v-5.5h1.7v15.7Zm-.5-8.7a4.4,4.4,0,0,0-2.2-.5c-2.1,0-3.3,1.5-3.3,4s1.2,3.9,3,3.9a3.8,3.8,0,0,0,2.5-1Z"/><path d="M305.4,369.4a5.7,5.7,0,0,1-3.4,1c-3,0-4.9-2.1-4.9-5.3s1.8-5.6,4.6-5.6,3.9,1.9,3.9,4.2a9.7,9.7,0,0,1-.1,1.7h-6.6a3.3,3.3,0,0,0,3.4,3.5,5.9,5.9,0,0,0,2.6-.6Zm-1.4-5.1v-.7c0-1.6-.7-2.6-2.4-2.6s-2.7,1.6-2.7,3.3Z"/><path d="M320,364.2a5.9,5.9,0,0,1-2.9.8c-2.2,0-4.2-1.2-4.2-4a4.4,4.4,0,0,1,4.4-4.6c3.2,0,4.8,2.3,4.8,6.1s-1.2,7.9-6.6,7.9a7.1,7.1,0,0,1-2.1-.4l.3-1.3,1.8.3a4.5,4.5,0,0,0,4.7-4.8Zm.3-1.2v-.8c0-2-.6-4.3-3-4.3a2.7,2.7,0,0,0-2.7,3,2.5,2.5,0,0,0,2.8,2.7A6.8,6.8,0,0,0,320.3,363Z"/><path d="M342.2,370.2V363c0-1.4-.7-2-2.1-2a3.7,3.7,0,0,0-2.4,1v8.2H336V363c0-1.5-.7-2-2-2a3.7,3.7,0,0,0-2.4,1v8.2h-1.7V359.7h1l.6,1a4.4,4.4,0,0,1,2.8-1.2c2,0,2.6.8,3,1.4a5.1,5.1,0,0,1,3.2-1.4c2.3,0,3.3,1.3,3.3,3.5v7.2Z"/><path d="M348,357.5a1,1,0,0,1-1-1.1,1,1,0,0,1,1-1,1,1,0,0,1,1.1,1.1A1,1,0,0,1,348,357.5Zm2.2,12.5a2.6,2.6,0,0,1-1.3.4c-1.4,0-1.8-1-1.8-2.1v-8.6h1.7v8.4c0,.4.1.8.7.8h.4Z"/><path d="M355.5,370a2.2,2.2,0,0,1-1.3.4c-1.4,0-1.8-1-1.8-2.1V354.5h1.7v13.6c0,.4.1.8.7.8h.4Z"/><path d="M360.8,370a2.1,2.1,0,0,1-1.2.4c-1.4,0-1.8-1-1.8-2.1V354.5h1.7v13.6c0,.4,0,.8.7.8h.4Z"/><path d="M367.2,359.5c3.3,0,4.8,2.4,4.8,5.4s-1.9,5.5-4.9,5.5-4.8-2.5-4.8-5.5S364.2,359.5,367.2,359.5Zm-.1,9.4c2.2,0,3.2-1.8,3.2-4s-1-3.9-3.2-3.9-3.1,1.8-3.1,3.9S365,368.9,367.1,368.9Z"/><path d="M381.2,370.2V363c0-1.7-.9-2-2.1-2a5,5,0,0,0-2.8,1v8.2h-1.7V359.7h1l.7,1a4.9,4.9,0,0,1,3.2-1.2c2.6,0,3.4,1.5,3.4,3.5v7.2Z"/><path d="M393.6,369.4a5.5,5.5,0,0,1-3.4,1c-3,0-4.9-2.1-4.9-5.3s1.9-5.6,4.6-5.6,3.9,1.9,3.9,4.2a9.7,9.7,0,0,1-.1,1.7h-6.6a3.3,3.3,0,0,0,3.4,3.5,5.9,5.9,0,0,0,2.6-.6Zm-1.4-5.1v-.7c0-1.6-.7-2.6-2.3-2.6s-2.7,1.6-2.8,3.3Z"/><path d="M396.3,368.3a5.7,5.7,0,0,0,2.7.7c1.6,0,2.3-.8,2.3-1.6,0-2.6-5.2-1.2-5.2-4.9,0-1.8,1.4-3,3.7-3a5.8,5.8,0,0,1,2.8.6l-.5,1.3a4.9,4.9,0,0,0-2.3-.5c-1.4,0-2.1.7-2.1,1.5,0,2.3,5.2,1.1,5.2,4.7,0,1.7-1.2,3.3-3.9,3.3a6.8,6.8,0,0,1-3.2-.8Z"/><path d="M417.6,370.2l-.5-1a4.2,4.2,0,0,1-2.9,1.2c-2.6,0-4.4-2.2-4.4-5.2s2-5.7,4.9-5.7a5.9,5.9,0,0,1,2.4.5v-5.5h1.7v15.7Zm-.5-8.7a4.9,4.9,0,0,0-2.2-.5c-2.1,0-3.4,1.5-3.4,4s1.3,3.9,3.1,3.9a3.8,3.8,0,0,0,2.5-1Z"/><path d="M429.7,369.4a6.1,6.1,0,0,1-3.5,1c-2.9,0-4.8-2.1-4.8-5.3s1.8-5.6,4.6-5.6,3.9,1.9,3.9,4.2a9.9,9.9,0,0,1-.2,1.7h-6.6c.1,1.7,1,3.5,3.4,3.5a6.3,6.3,0,0,0,2.7-.6Zm-1.5-5.1a1.7,1.7,0,0,0,.1-.7c0-1.6-.8-2.6-2.4-2.6s-2.7,1.6-2.7,3.3Z"/><path d="M439.7,370.2l-3.8-10.5h1.8l3.1,9h0l3.1-9h1.7l-3.8,10.5Z"/><path d="M447.1,357.8l1.9-3h1.9l-2.4,3Zm3.3,12.2a2.6,2.6,0,0,1-1.3.4c-1.4,0-1.8-1-1.8-2.1v-8.6H449v8.4c0,.4.1.8.7.8h.4Z"/><path d="M459.7,369.6a5.7,5.7,0,0,1-3,.8c-2.6,0-4.9-1.9-4.9-5.3s2.3-5.6,5.3-5.6a5.5,5.5,0,0,1,2.6.6l-.4,1.3a4.6,4.6,0,0,0-2.2-.4c-2.1,0-3.5,1.2-3.5,4.1s1.6,3.8,3.4,3.8a3.5,3.5,0,0,0,2.3-.6Z"/><path d="M467.4,369.9a3.7,3.7,0,0,1-2,.5c-1.9,0-2.9-1.1-2.9-3.4v-6.1h-1.9v-1.2h1.9v-2.2l1.6-.5v2.7h3.3v1.2h-3.3v6.2c0,1.3.7,1.8,1.6,1.8a2.6,2.6,0,0,0,1.4-.3Z"/><path d="M470.6,357.5a1,1,0,0,1-1.1-1.1,1,1,0,0,1,1.1-1,1,1,0,0,1,1.1,1.1A1.1,1.1,0,0,1,470.6,357.5Zm2.1,12.5a2.2,2.2,0,0,1-1.3.4c-1.4,0-1.8-1-1.8-2.1v-8.6h1.7v8.4c0,.4.1.8.8.8h.3Z"/><path d="M487.2,370.2V363a1.8,1.8,0,0,0-2-2,3.7,3.7,0,0,0-2.4,1v8.2h-1.7V363c0-1.5-.7-2-2-2a3.7,3.7,0,0,0-2.4,1v8.2H475V359.7h1l.6,1a4.4,4.4,0,0,1,2.8-1.2,3.2,3.2,0,0,1,3,1.4,5.1,5.1,0,0,1,3.2-1.4c2.3,0,3.3,1.3,3.3,3.5v7.2Z"/><path d="M500.6,370a2.5,2.5,0,0,1-1.3.4,1.9,1.9,0,0,1-1.8-1.2,4.5,4.5,0,0,1-3.2,1.2,2.7,2.7,0,0,1-3-2.7c0-2.7,2.7-3.3,6.2-3.3,0-1.9,0-3.4-2.3-3.4a5.8,5.8,0,0,0-2.8.6l-.4-1.3a7.4,7.4,0,0,1,3.4-.8c3.2,0,3.8,1.8,3.8,4.6v3.8c0,.7.1,1.1.7,1.1h.4Zm-3.1-4.5c-2.7,0-4.5.4-4.5,2a1.6,1.6,0,0,0,1.7,1.5,3.9,3.9,0,0,0,2.8-1.1Z"/><path d="M502.5,368.3a5.7,5.7,0,0,0,2.7.7c1.6,0,2.2-.8,2.2-1.6,0-2.6-5.2-1.2-5.2-4.9,0-1.8,1.5-3,3.7-3a6.3,6.3,0,0,1,2.9.6l-.5,1.3a5.2,5.2,0,0,0-2.3-.5c-1.5,0-2.1.7-2.1,1.5,0,2.3,5.2,1.1,5.2,4.7,0,1.7-1.3,3.3-4,3.3a6.4,6.4,0,0,1-3.1-.8Z"/><path d="M523.8,370.2l-.5-1a4.5,4.5,0,0,1-2.9,1.2c-2.6,0-4.5-2.2-4.5-5.2s2-5.7,5-5.7a5.7,5.7,0,0,1,2.3.5v-5.5h1.7v15.7Zm-.6-8.7a4.2,4.2,0,0,0-2.1-.5c-2.1,0-3.4,1.5-3.4,4s1.2,3.9,3.1,3.9a3.7,3.7,0,0,0,2.4-1Z"/><path d="M535.8,369.4a5.5,5.5,0,0,1-3.4,1c-3,0-4.9-2.1-4.9-5.3s1.9-5.6,4.7-5.6,3.9,1.9,3.9,4.2a9.9,9.9,0,0,1-.2,1.7h-6.6c.1,1.7,1,3.5,3.4,3.5a6.3,6.3,0,0,0,2.7-.6Zm-1.4-5.1v-.7c0-1.6-.7-2.6-2.3-2.6s-2.7,1.6-2.8,3.3Z"/><path d="M541.8,370a2.2,2.2,0,0,1-1.3.4c-1.4,0-1.8-1-1.8-2.1V354.5h1.7v13.6c0,.4.1.8.7.8h.4Z"/><path d="M194.7,394.6a6.2,6.2,0,0,1-3.1.7c-2.6,0-4.8-1.8-4.8-5.3s2.2-5.6,5.3-5.6a5.9,5.9,0,0,1,2.6.6l-.5,1.4a3.8,3.8,0,0,0-2.1-.5c-2.1,0-3.6,1.2-3.6,4.1s1.6,3.8,3.4,3.8a4.8,4.8,0,0,0,2.4-.5Z"/><path d="M200.9,384.4c3.3,0,4.8,2.5,4.8,5.5s-1.9,5.4-5,5.4-4.8-2.4-4.8-5.4S197.9,384.4,200.9,384.4Zm-.1,9.4c2.1,0,3.1-1.8,3.1-3.9s-1-4-3.1-4-3.1,1.8-3.1,4S198.6,393.8,200.8,393.8Z"/><path d="M214.8,395.1V388c0-1.7-.9-2.1-2-2.1A4.2,4.2,0,0,0,210,387v8.1h-1.7V384.6h1l.6,1a5.5,5.5,0,0,1,3.2-1.2c2.7,0,3.4,1.5,3.4,3.6v7.1Z"/><path d="M229.4,395a2.5,2.5,0,0,1-1.2.3c-1.4,0-1.8-.9-1.8-2.1V380.8h-1.6c-2.3,0-3,1.4-3,3.2,0,.2.1.5.1.7h2.9v1.3h-3v13.4h-1.6V385.9h-1.9v-1.3h1.9v-.3c0-2.5.8-5,4.6-5l1.6.2h1.7v13.3c0,.7,0,1.1.7,1.1h.6Z"/><path d="M232.6,382.5a1.1,1.1,0,0,1,0-2.2,1,1,0,0,1,1.1,1.1A1,1,0,0,1,232.6,382.5Zm2.2,12.5a2.7,2.7,0,0,1-1.3.3c-1.4,0-1.8-.9-1.8-2.1v-8.6h1.7V393c0,.5.1.9.7.9h.4Z"/><path d="M244.2,394.6a6.2,6.2,0,0,1-3.1.7c-2.6,0-4.8-1.8-4.8-5.3s2.2-5.6,5.2-5.6a5.5,5.5,0,0,1,2.6.6l-.4,1.4a4.5,4.5,0,0,0-2.2-.5c-2.1,0-3.5,1.2-3.5,4.1s1.6,3.8,3.4,3.8a4.4,4.4,0,0,0,2.3-.5Z"/><path d="M251.8,394.8a3.7,3.7,0,0,1-2,.5c-1.9,0-2.9-1.1-2.9-3.3v-6.1H245v-1.3h1.9v-2.2l1.7-.4v2.6h3.2v1.3h-3.2V392c0,1.3.6,1.8,1.6,1.8a2.5,2.5,0,0,0,1.3-.3Z"/><path d="M258.2,384.4c3.3,0,4.8,2.5,4.8,5.5s-1.9,5.4-5,5.4-4.8-2.4-4.8-5.4S255.2,384.4,258.2,384.4Zm-.1,9.4c2.1,0,3.1-1.8,3.1-3.9s-1-4-3.1-4-3.1,1.8-3.1,4S255.9,393.8,258.1,393.8Z"/><path d="M279,395a4.2,4.2,0,0,1-1.3.3,1.7,1.7,0,0,1-1.7-1.2,5,5,0,0,1-3.3,1.2c-1.7,0-3-1-3-2.6s2.7-3.4,6.2-3.4c0-1.8,0-3.4-2.3-3.4a6.1,6.1,0,0,0-2.8.6l-.4-1.3a7.4,7.4,0,0,1,3.4-.8c3.3,0,3.8,1.8,3.8,4.7v3.7c0,.7.1,1.1.7,1.1h.4Zm-3.1-4.6c-2.6,0-4.4.5-4.4,2a1.5,1.5,0,0,0,1.7,1.5,3.5,3.5,0,0,0,2.7-1.1Z"/><path d="M281.1,395.1V384.6h1l.5,1.5a3.8,3.8,0,0,1,3.2-1.7l.9.2-.3,1.5h-.9a3.6,3.6,0,0,0-2.7,1.4v7.7Z"/><path d="M300.8,395.1V388c0-1.5-.7-2.1-2.1-2.1a3.9,3.9,0,0,0-2.4,1.1v8.1h-1.6V388c0-1.6-.8-2.1-2.1-2.1a3.6,3.6,0,0,0-2.4,1.1v8.1h-1.7V384.6h1l.7,1a4.1,4.1,0,0,1,2.8-1.2,3,3,0,0,1,2.9,1.4,5.5,5.5,0,0,1,3.2-1.4c2.3,0,3.4,1.3,3.4,3.6v7.1Z"/><path d="M314.1,395a3.5,3.5,0,0,1-1.3.3,1.7,1.7,0,0,1-1.7-1.2,5,5,0,0,1-3.3,1.2,2.6,2.6,0,0,1-2.9-2.6c0-2.8,2.7-3.4,6.2-3.4,0-1.8-.1-3.4-2.4-3.4a5.4,5.4,0,0,0-2.7.6l-.5-1.3a7.5,7.5,0,0,1,3.5-.8c3.2,0,3.7,1.8,3.7,4.7v3.7c0,.7.1,1.1.8,1.1h.3Zm-3-4.6c-2.7,0-4.5.5-4.5,2a1.5,1.5,0,0,0,1.7,1.5,3.9,3.9,0,0,0,2.8-1.1Z"/><path d="M323.2,395.1l-.4-1a4.5,4.5,0,0,1-2.9,1.2c-2.6,0-4.5-2.2-4.5-5.2s2-5.7,5-5.7a5.7,5.7,0,0,1,2.3.5v-5.4h1.7v15.6Zm-.5-8.7a4.4,4.4,0,0,0-2.2-.5c-2.1,0-3.3,1.5-3.3,4s1.2,3.9,3,3.9a3.8,3.8,0,0,0,2.5-1Z"/><path d="M331.9,384.4c3.3,0,4.8,2.5,4.8,5.5s-1.9,5.4-4.9,5.4-4.8-2.4-4.8-5.4S328.9,384.4,331.9,384.4Zm-.1,9.4c2.2,0,3.2-1.8,3.2-3.9s-1-4-3.2-4-3.1,1.8-3.1,4S329.7,393.8,331.8,393.8Z"/><path d="M345.3,382.5a1,1,0,0,1-1-1.1,1,1,0,0,1,1-1.1,1,1,0,0,1,1.1,1.1A1,1,0,0,1,345.3,382.5Zm2.1,12.5a2.5,2.5,0,0,1-1.2.3c-1.4,0-1.8-.9-1.8-2.1v-8.6h1.7V393c0,.5,0,.9.7.9h.4Z"/><path d="M356.3,395.1V388c0-1.7-.9-2.1-2.1-2.1a4.4,4.4,0,0,0-2.8,1.1v8.1h-1.7V384.6h1l.7,1a5.5,5.5,0,0,1,3.2-1.2c2.6,0,3.3,1.5,3.3,3.6v7.1Z"/><path d="M366.5,394.8a3.7,3.7,0,0,1-2,.5c-1.9,0-2.9-1.1-2.9-3.3v-6.1h-1.9v-1.3h1.9v-2.2l1.6-.4v2.6h3.3v1.3h-3.3V392c0,1.3.7,1.8,1.6,1.8a2.6,2.6,0,0,0,1.4-.3Z"/><path d="M376.2,394.4a5.5,5.5,0,0,1-3.4.9c-3,0-4.9-2-4.9-5.3s1.9-5.6,4.7-5.6,3.9,2,3.9,4.3a8.8,8.8,0,0,1-.2,1.6h-6.6c.1,1.7,1,3.5,3.4,3.5a6.3,6.3,0,0,0,2.7-.6Zm-1.4-5.2c0-.2.1-.5.1-.7a2.3,2.3,0,0,0-2.4-2.6c-1.9,0-2.7,1.7-2.8,3.3Z"/><path d="M379.1,395.1V384.6h1.1l.5,1.5a3.7,3.7,0,0,1,3.1-1.7l.9.2-.3,1.5h-.8a3.6,3.6,0,0,0-2.8,1.4v7.7Z"/><path d="M393.1,395.1V388c0-1.7-.9-2.1-2.1-2.1a4.4,4.4,0,0,0-2.8,1.1v8.1h-1.6V384.6h1l.6,1a5.5,5.5,0,0,1,3.2-1.2c2.7,0,3.4,1.5,3.4,3.6v7.1Z"/><path d="M402.2,384.4c3.3,0,4.8,2.5,4.8,5.5s-2,5.4-5,5.4-4.8-2.4-4.8-5.4S399.1,384.4,402.2,384.4Zm-.1,9.4c2.1,0,3.1-1.8,3.1-3.9s-1-4-3.1-4-3.1,1.8-3.1,4S399.9,393.8,402.1,393.8Z"/><path class="c" d="M238.3,54.8v-26h11.2c7,0,10.6,2.9,10.6,8.5s-3.6,8.8-11.4,8.8h-3.6v8.7Zm6.8-21v7.4h3.2c4.1,0,5-2.3,5-4s-1.9-3.4-4.6-3.4Z"/><path class="c" d="M272.8,34.4c8.2,0,11.1,4.5,11.1,10.3S279.7,55.2,273,55.2s-10.9-4.5-10.9-10.5S266,34.4,272.8,34.4Zm.1,15.9c2.6,0,4.1-2.2,4.1-5.3s-1.1-5.8-4.1-5.8-4,1.7-4,5.2S269.9,50.3,272.9,50.3Z"/><path class="c" d="M287.5,34.8h4.7l1.6,2.7a6,6,0,0,1,5.4-3.1,4.5,4.5,0,0,1,2.3.4l-1,5.1-1.7-.2a6.9,6.9,0,0,0-4.5,1.5V54.8h-6.8Z"/><path class="c" d="M335.1,28.8v5h-7.5v21h-6.7v-21h-7.7v-5Z"/><path class="c" d="M340.9,46.3c.2,1.9,2.4,3.5,5.4,3.5a13,13,0,0,0,5.7-1.2l1.3,4.8a15.8,15.8,0,0,1-7.8,1.8c-6.6,0-11.5-3.2-11.5-10.1s4.2-10.7,10.5-10.7,9.4,4.3,9.4,8.5a18.4,18.4,0,0,1-.4,3.4Zm6.3-3.3a1.7,1.7,0,0,0,.1-.7,2.7,2.7,0,0,0-3-2.9,3.3,3.3,0,0,0-3.5,3.6Z"/><path class="c" d="M382.4,42c0-1.6-.5-2.7-2.5-2.7a5.1,5.1,0,0,0-3.1,1.1V54.8h-6.7V42c0-1.6-.5-2.7-2.6-2.7a5.3,5.3,0,0,0-3.1,1.1V54.8h-6.8v-20h5.1l1.2,1.6a11.3,11.3,0,0,1,6.4-2c2.8,0,4.8.9,5.8,2a9.9,9.9,0,0,1,6.2-2c4.4,0,6.9,2.3,6.9,6.4v14h-6.8Z"/><path class="c" d="M394.1,36.1a21,21,0,0,1,8.2-1.7c7.7,0,9.5,3.4,9.5,8.9V49a1.2,1.2,0,0,0,1.4,1.3h.8l.9,3.8a8.4,8.4,0,0,1-4.2,1.2c-2.7,0-4.3-.9-5.1-2.6-.8,1.3-3.1,2.6-6.1,2.6s-6.6-1.4-6.6-5.6,5.7-6.5,12.1-6.5c0-2.3-.9-3.5-3.7-3.5a14.2,14.2,0,0,0-5.5,1ZM405,46.4c-3,.1-5.4.6-5.4,2.3a2,2,0,0,0,2.2,1.9,4.7,4.7,0,0,0,3.2-1.3Z"/><path class="c" d="M431.6,40.5a14,14,0,0,0-5.8-1.1c-1.9,0-2.7.5-2.7,1.2,0,2.5,10.2.8,10.2,7.5,0,4.3-3.4,7.1-9.9,7.1a16.2,16.2,0,0,1-7.4-1.9l1.4-4.7a16.8,16.8,0,0,0,6.4,1.4c2,0,3.1-.5,3.1-1.4s-10.5-.7-10.5-7.6c0-4.1,3.5-6.6,9.1-6.6a19.3,19.3,0,0,1,7.6,1.4Z"/><path class="a" d="M113,219.9v-5a5.7,5.7,0,0,1,4.3-5.7l5.2-1.5c.5-.1.7-.3.7-.8s0-.1,0-.2A4.3,4.3,0,0,0,122,203c-1.4-1.4-1.6-3.3-1.5-5.2a1.9,1.9,0,0,0-.7-1.8,7.7,7.7,0,0,1-1.3-9.7c1.4-2.3,3.6-3,6.1-3.4a17.8,17.8,0,0,1,7.9,1c1.2.5,2.2.6,3.1-.5s1.3-.4,1.8.3a8.8,8.8,0,0,1,1.6,7.5,8.4,8.4,0,0,1-2.8,4.9,1.8,1.8,0,0,0-.6,1.4c.1,1.9.1,3.9-1.4,5.4a4.5,4.5,0,0,0-1.1,3.8c0,.6.1.9.8,1l5.1,1.5a5.6,5.6,0,0,1,4.2,5.6c.1,3.5.1,7.1.1,10.6,0,.9-.4,1.4-1,1.4s-1.1-.5-1.2-1.4c0-3.4,0-6.9-.1-10.4a3.6,3.6,0,0,0-2.9-3.8l-4.7-1.3a.6.6,0,0,0-.9.3,5,5,0,0,1-8.4.3,1.2,1.2,0,0,0-1.6-.6l-4.5,1.4a3.5,3.5,0,0,0-2.8,3.7c0,3.3.1,6.7.1,10.1v.7a1,1,0,0,1-1.1,1,1,1,0,0,1-1.1-1.1v-5.8Zm23.1-34.1c-1.5,1.2-3.1.6-4.6.1l-1.3-.4a12.6,12.6,0,0,0-6.4-.2c-2.2.5-3.7,1.6-4.2,3.9a6,6,0,0,0,2,5.6,10.6,10.6,0,0,0,1.2-2c.7-1.1,1-1.2,2.2-.7s4.8,1.7,7.2-.1a1.6,1.6,0,0,1,2.3.4c.3.5.5,1,.7,1.4A6.6,6.6,0,0,0,136.1,185.8Zm-3.1,8.5c-1,.3-2,.8-2.9,1a9.6,9.6,0,0,1-5-.7c-.2-.1-.7-.1-.8.1s-2,2.3-1.6,4.1v.3c.1,2.4,2.9,5.2,5.2,5.3h.6a6.6,6.6,0,0,0,4.9-4.8,23.8,23.8,0,0,0-.1-3.8A6.6,6.6,0,0,0,133,194.3Zm-7.5,11.6c-.4,2,0,3.4,1.2,4.1a3.1,3.1,0,0,0,3.2,0c1.4-1.1.9-2.6,1-4.2A5.2,5.2,0,0,1,125.5,205.9Z"/><path class="a" d="M156.3,195.4l2.6.8c3.1.9,4.3,2.5,4.3,5.6v11.8a2.2,2.2,0,0,1-.1.8,1,1,0,0,1-1.1.9c-.6,0-.9-.4-1-1s0-.5,0-.7V201.5a2.8,2.8,0,0,0-2.2-3.1l-4.4-1.2c-1.4,3.4-6.5,3-7.6-.1a46.8,46.8,0,0,0-5.3,1.7,2.4,2.4,0,0,0-1.4,2.4v5.2a1,1,0,0,1-1.1,1,.9.9,0,0,1-1-1,16.2,16.2,0,0,1-.1-2.2c0-1,0-2.1.1-3.1a4.6,4.6,0,0,1,3.6-4.7l3.1-1.1h-2c-.9,0-1.3-.4-1.3-1.2,0-3.4-.2-6.7.1-10a9.1,9.1,0,0,1,18.2.6c.1,3.1.1,6.2.1,9.2,0,1-.4,1.4-1.4,1.4h-2.1Zm1.2-2.3c0-.2.1-.3.1-.4,0-2.7,0-5.4-.1-8a6.9,6.9,0,0,0-13.8-.5c-.2,2.9-.1,5.8-.1,8.7H146a10.3,10.3,0,0,1-1.3-6.3,4.2,4.2,0,0,1,1.2-2.8c.6-.7,1-1.5,1.6-2.1a1.3,1.3,0,0,1,.9-.6,1.5,1.5,0,0,1,1,.7,4.4,4.4,0,0,0,2.8,2.7l3.2,1.1c.6.2,1,.5,1,1.1.1,2.2.2,4.3-1.4,6.1v.2Zm-9.1-8.6c-.7.7-1.5,1.2-1.5,2.3v2.5a3.5,3.5,0,0,0,3.1,3.3c2.4.4,4.2-1.3,4.3-3.8,0-.7-.1-1.2-.9-1.4A9.1,9.1,0,0,1,148.4,184.5Zm.5,10.3c-.2,1.3,0,2,.6,2.4a2.7,2.7,0,0,0,2.3-.1,2.3,2.3,0,0,0,.4-2.3Z"/><path class="a" d="M109.8,197.3a4.5,4.5,0,0,1-7.9-.1c-1.5.4-3.1.8-4.7,1.4a2.5,2.5,0,0,0-1.8,2.7v12.2a1.9,1.9,0,0,1-.1.8c-.1.6-.5,1-1,.9a2.3,2.3,0,0,1-1.1-.9c-.1-.1,0-.4,0-.6V201.5a5,5,0,0,1,3.8-5.2l4-1.1c.4-.1.5-.4.5-.8a3.3,3.3,0,0,0-.8-2.8,5.2,5.2,0,0,1-1.3-4.2,1.8,1.8,0,0,0-.6-1.7,6.4,6.4,0,0,1-1.7-6.8c.9-2.6,3-3.7,5.6-4.1a12.1,12.1,0,0,1,6.5.8,2.3,2.3,0,0,0,2.8-.4c.5-.5,1.2-.3,1.7.3A8,8,0,0,1,115,182a7.7,7.7,0,0,1-2.2,3.8,1.8,1.8,0,0,0-.6,1.3,7,7,0,0,1-1.8,5.3c-.4.6-.2,1.7-.2,2.5l.5.3,4.1,1.2a4.8,4.8,0,0,1,3.6,4.9c.1,1.6,0,3.1,0,4.7s-.4,1.4-1.1,1.4-1.1-.5-1.1-1.4.1-3,0-4.5a2.8,2.8,0,0,0-2.2-3.1l-3.9-1.1Zm2-13.7a5.3,5.3,0,0,0,.6-5.9,3.8,3.8,0,0,1-3.6,0,12,12,0,0,0-5.9-.7c-1.6.2-3,.8-3.6,2.5a4.4,4.4,0,0,0,1.2,4.9l.8-1.2c.6-1.3.9-1.4,2.1-.8s3.9,1.3,5.8-.2a1.3,1.3,0,0,1,2,.5Zm-2.1.9c-2.1,1.3-4.1,1-6.2.3H103c-.5.7-1.2,1.3-1.3,2a4.7,4.7,0,0,0,2.6,5.3,2.9,2.9,0,0,0,3,0C110.1,190.3,110.6,188.3,109.7,184.5Zm-1.8,9.7a5.3,5.3,0,0,1-4.1,0,2.5,2.5,0,0,0,.9,2.8,2,2,0,0,0,2.3.1C108.2,196.4,107.9,195.3,107.9,194.2Z"/><path class="a" d="M137.9,172.1v6a.9.9,0,0,0,.6,1.1,4.7,4.7,0,0,1,2.1,2.5,1.3,1.3,0,0,1-.6,1.7c-.6.2-1.2-.1-1.5-.9a2.5,2.5,0,0,0-1.9-1.7l-4.1-1.2c-.2,0-.6.1-.7.3-1.3,2.6-6,2.6-7.2,0-.1-.2-.5-.3-.8-.3l-3.9,1.1a2.7,2.7,0,0,0-2.2,2.9v.4a1.2,1.2,0,0,1-1.2,1,1.1,1.1,0,0,1-1-1,4.7,4.7,0,0,1,2.5-4.8,1.2,1.2,0,0,0,.5-1.1V166.6a9.7,9.7,0,0,1,19.4-.4v5.9Zm-17.2,6.1,3.1-.9a.5.5,0,0,0,.3-.3,3,3,0,0,0-.4-2.2,8,8,0,0,1-1.5-2.9,9.3,9.3,0,0,1-.1-2.9c-.1-1.4.1-1.5,1.5-1.8s4.9-1.3,6-4.1a1.1,1.1,0,0,1,.9-.5,1.3,1.3,0,0,1,.9.6,9.5,9.5,0,0,1,1.5,2,6.7,6.7,0,0,1,1.3,2.3,18.4,18.4,0,0,1-.1,4.7,4.7,4.7,0,0,1-1.3,2.5c-.7.8-.5,1.5-.5,2.3s.1.3.2.3l3.1.9V178c0-4,.1-8-.1-12a7.4,7.4,0,0,0-7.3-7,7.6,7.6,0,0,0-7.6,7.7v11.5Zm9.8-12.3a10.9,10.9,0,0,1-4.9,3c-1.4.5-1.4.5-1.4,2a4,4,0,0,0,3.9,3.8,3.8,3.8,0,0,0,4-3.6c.1-.6,0-1.2.1-1.8A3.5,3.5,0,0,0,130.5,165.9Zm-4.2,10.9c.1.9-.3,1.9.7,2.6a2.5,2.5,0,0,0,2.5-.1c.8-.7.5-1.7.5-2.5Z"/><path class="d" d="M165.4,86a26.9,26.9,0,0,0-2-2.7,2.6,2.6,0,0,0-2.7-1,3,3,0,0,0-2.5,2.2,16.7,16.7,0,0,0-.5,3.1c-.1.2.1.4.1.7l.3.9a.9.9,0,0,1-.7,1c-.5.1-.8-.2-1-.7a8.5,8.5,0,0,0-.6-1.7,9.3,9.3,0,0,0-5.7-4.2,14.6,14.6,0,0,0-2.2-.3,21,21,0,0,1-9.2-2.1h-.2v.3a6.4,6.4,0,0,0,6.1,5.2h1.9a.9.9,0,0,1,1,.9c0,.5-.4.8-1,.8s-2.3,0-3.4-.2a7.2,7.2,0,0,1-4.1-2.2c-.1-.1-.3-.2-.4-.4h-.2a14.3,14.3,0,0,0,.8,2.2,7.2,7.2,0,0,0,6.4,4h3.6c.6,0,1,.4.9.9s-.2.8-.7.8c-2.1,0-4.3.3-6.5-.5l-1.6-.6a14.6,14.6,0,0,0,2.7,2.4,13.2,13.2,0,0,0,7,2h2.2c.6,0,.9.3.9.8s-.3.9-1,.8a8.1,8.1,0,0,0-4,.9,16.3,16.3,0,0,1-7.2,1.5h-1.7l3.6,7.1.5-.3,2.9-2.3a9.6,9.6,0,0,1,5.5-1.9,11.7,11.7,0,0,0,6-1.6.8.8,0,0,1,1.2.2c.3.5.2.9-.4,1.2A11.5,11.5,0,0,1,153,105a7.5,7.5,0,0,0-4.8,1.6l-3.7,2.9c-1,.8-1.4.7-2-.5l-4.3-8.5c-.5-.9-.1-1.5.9-1.5l5.5-.3a15.7,15.7,0,0,0,2.8-.6h-.3a14.2,14.2,0,0,1-10-10,14.7,14.7,0,0,1-.4-3.6c-.1-1.5,0-3,0-4.6s.6-1.3,1.4-.8a18.4,18.4,0,0,0,9.6,2.7,11.4,11.4,0,0,1,8.3,3.7l.3.2a3,3,0,0,1,.2-1,4.7,4.7,0,0,1,7-3.4,10.6,10.6,0,0,1,1.5,1.5l1.9,2.4.4.3,1.3-4.2a5.1,5.1,0,0,1-3.4-1.9,4.8,4.8,0,0,1-.9-4,1,1,0,0,1,.9-.9,4.9,4.9,0,0,1,5.6,2.9l.2.4,1.6-1.5c.1-.1.1-.4.2-.5a4.6,4.6,0,0,1,6.5-3.1c.8.3.9.6.8,1.5a4.7,4.7,0,0,1-6.2,3.7c-.1,0-.4-.1-.5,0a13,13,0,0,0-3.5,4.9,7.9,7.9,0,0,1,2-.4,5.6,5.6,0,0,1,1.3,0,1.2,1.2,0,0,1,1,1,5,5,0,0,1-4.3,5.9H169a11,11,0,0,1,.3,1.6.8.8,0,0,1-.1.8,1,1,0,0,1-.8.4.8.8,0,0,1-.7-.7c-.2-1.1-.3-2.3-.5-3.4v-.5a1.2,1.2,0,0,0-1.4,1.3V92a15.1,15.1,0,0,1-.9,4.7.9.9,0,0,1-1.2.7,1,1,0,0,1-.4-1.3,13.2,13.2,0,0,0,.8-4.4,22.5,22.5,0,0,1,0-2.6A3.3,3.3,0,0,1,165.4,86Zm4-6.6a3.2,3.2,0,0,0-3.5-3.5A3.3,3.3,0,0,0,169.4,79.4ZM169,87c-.1.3.1.4.5.4a3.4,3.4,0,0,0,3.1-3.1c0-.4-.1-.5-.5-.5A3.3,3.3,0,0,0,169,87Zm9.3-13.1a2.9,2.9,0,0,0-3.9,2.1A2.8,2.8,0,0,0,178.3,73.9Z"/><path class="d" d="M162.1,99a.8.8,0,0,1,.8.9.9.9,0,0,1-.8.8.8.8,0,0,1-.8-.9A.9.9,0,0,1,162.1,99Z"/><path class="d" d="M162.3,85.6a.9.9,0,0,1-.9.9.9.9,0,0,1-.8-.9.8.8,0,0,1,.9-.8A.9.9,0,0,1,162.3,85.6Z"/><path class="a" d="M193.1,106.3v-2.6a3.2,3.2,0,0,1,2.3-3.1l2.8-.8c.2,0,.3-.1.3-.4h0a2.2,2.2,0,0,0-.6-2,3.3,3.3,0,0,1-.8-2.7,1.3,1.3,0,0,0-.4-1,4.1,4.1,0,0,1-.7-5.1,4.4,4.4,0,0,1,3.3-1.8,8.2,8.2,0,0,1,4.1.5,1.3,1.3,0,0,0,1.7-.2c.3-.4.7-.3,1,.1a4.7,4.7,0,0,1,.8,4,4.6,4.6,0,0,1-1.5,2.6.9.9,0,0,0-.3.7,3.7,3.7,0,0,1-.7,2.9,2.2,2.2,0,0,0-.6,2,.5.5,0,0,0,.4.6l2.7.7a3.2,3.2,0,0,1,2.3,3v5.7c0,.4-.2.7-.6.7s-.5-.3-.5-.7-.1-3.7-.1-5.6a1.9,1.9,0,0,0-1.5-2L204,101c-.3-.1-.4,0-.5.2a2.7,2.7,0,0,1-4.5.1.7.7,0,0,0-.8-.3l-2.5.7a2,2,0,0,0-1.4,2v5.4c0,.1.1.2,0,.3a.5.5,0,0,1-.6.6c-.3,0-.5-.2-.5-.6v-3.1Zm12.3-18.1c-.8.7-1.6.4-2.5.1l-.7-.2a6.5,6.5,0,0,0-3.4-.2,2.8,2.8,0,0,0-2.2,2.1,3.2,3.2,0,0,0,1.1,3l.6-1c.4-.7.5-.7,1.2-.4s2.5.9,3.8-.1a.8.8,0,0,1,1.2.2,3,3,0,0,1,.4.8A3.6,3.6,0,0,0,205.4,88.2Zm-1.7,4.5-1.5.5a5,5,0,0,1-2.7-.3h-.4c-.4.7-1.1,1.3-.8,2.2v.2a3.4,3.4,0,0,0,2.7,2.8h.3a3.3,3.3,0,0,0,2.6-2.6,13.3,13.3,0,0,0,0-2A2.4,2.4,0,0,0,203.7,92.7Zm-4,6.2c-.2,1.1,0,1.8.7,2.2a1.7,1.7,0,0,0,1.7,0c.7-.6.5-1.4.5-2.3A2.8,2.8,0,0,1,199.7,98.9Z"/><path class="a" d="M216.1,93.3l1.4.4a2.8,2.8,0,0,1,2.3,3c0,2.1-.1,4.2-.1,6.3,0,.1.1.3,0,.4s-.2.5-.6.5a.5.5,0,0,1-.5-.5V96.6a1.5,1.5,0,0,0-1.2-1.7l-2.3-.6a2.2,2.2,0,0,1-4-.1l-2.9.9a1.4,1.4,0,0,0-.7,1.3v2.7a.5.5,0,0,1-.6.6.5.5,0,0,1-.5-.5,2.4,2.4,0,0,1,0-1.2,9.7,9.7,0,0,1,0-1.7,2.6,2.6,0,0,1,1.9-2.5l1.7-.5h-1.1c-.5-.1-.7-.2-.7-.7s-.1-3.5,0-5.3a4.9,4.9,0,0,1,9.7.3c.1,1.7,0,3.3,0,4.9s-.2.7-.7.8h-1.1Zm.7-1.2V87.6a3.7,3.7,0,0,0-3.6-3.5,3.5,3.5,0,0,0-3.8,3.3c-.1,1.5,0,3-.1,4.6h1.3a9.4,9.4,0,0,1-.6-1.5,12.1,12.1,0,0,1-.1-1.9,2.1,2.1,0,0,1,.7-1.5,10.5,10.5,0,0,1,.8-1.1.7.7,0,0,1,.5-.3c.2,0,.5.2.5.4a2.6,2.6,0,0,0,1.5,1.4l1.7.6c.4,0,.6.2.6.5s.1,2.3-.8,3.3h1.4Zm-4.9-4.6c-.4.4-.8.7-.8,1.2v1.4a2.1,2.1,0,0,0,1.7,1.8,2,2,0,0,0,2.2-2.1c0-.4,0-.6-.4-.7A5,5,0,0,1,211.9,87.5Zm.3,5.5c-.1.7,0,1,.3,1.2a1.3,1.3,0,0,0,1.2,0,1,1,0,0,0,.2-1.2Z"/><path class="a" d="M191.4,94.3a2.4,2.4,0,0,1-4.2,0l-2.5.7a1.4,1.4,0,0,0-.9,1.5v6.4a.9.9,0,0,1-.1.5c0,.3-.2.5-.5.4s-.4-.2-.6-.4V96.5a2.6,2.6,0,0,1,2-2.7l2.1-.6c.3-.1.3-.2.3-.4a2,2,0,0,0-.4-1.5,2.6,2.6,0,0,1-.7-2.2,1.2,1.2,0,0,0-.3-.9,3.5,3.5,0,0,1-.9-3.6,3.3,3.3,0,0,1,2.9-2.2,6,6,0,0,1,3.5.4,1.2,1.2,0,0,0,1.5-.2c.2-.3.6-.2.9.2a4.1,4.1,0,0,1,.7,3.4,3.7,3.7,0,0,1-1.2,2,.9.9,0,0,0-.3.7,3.6,3.6,0,0,1-1,2.8c-.2.3-.1.9-.1,1.4h.3l2.1.6a2.7,2.7,0,0,1,2,2.7v2.4c0,.5-.3.8-.6.8s-.6-.3-.6-.8V96.6a1.5,1.5,0,0,0-1.2-1.7l-2-.6Zm1.1-7.3a2.9,2.9,0,0,0,.3-3.1,2.1,2.1,0,0,1-1.9,0,5.9,5.9,0,0,0-3.2-.3,2.1,2.1,0,0,0-1.9,1.3,2.4,2.4,0,0,0,.7,2.6,4.3,4.3,0,0,1,.4-.7c.3-.7.5-.7,1.1-.4a2.7,2.7,0,0,0,3.1-.1c.3-.3.8-.1,1.1.2S192.3,86.9,192.5,87Zm-1.2.5a3.5,3.5,0,0,1-3.3.2h-.2a3.4,3.4,0,0,0-.7,1.1,2.5,2.5,0,0,0,1.4,2.8,1.5,1.5,0,0,0,1.6,0C191.6,90.6,191.8,89.5,191.3,87.5Zm-.9,5.2a2.8,2.8,0,0,1-2.2,0,1.4,1.4,0,0,0,.5,1.5,1.1,1.1,0,0,0,1.2,0C190.5,93.9,190.4,93.3,190.4,92.7Z"/><path class="a" d="M206.3,81v3.1a.5.5,0,0,0,.4.6,2.6,2.6,0,0,1,1,1.3c.2.5.1.8-.2.9a.5.5,0,0,1-.8-.4,1.8,1.8,0,0,0-1.1-1l-2.1-.6-.4.2c-.7,1.4-3.2,1.4-3.8,0l-.4-.2-2.1.6a1.4,1.4,0,0,0-1.2,1.5v.3a.6.6,0,0,1-.6.5c-.3-.1-.5-.2-.5-.6a2.5,2.5,0,0,1,1.2-2.5c.3-.2.4-.3.4-.6-.1-2-.1-4.1,0-6.1a5.2,5.2,0,0,1,5.2-5.2,5.2,5.2,0,0,1,5,5V81Zm-9.1,3.2,1.6-.5h.2a1.7,1.7,0,0,0-.2-1.2,4,4,0,0,1-.8-1.6,7.1,7.1,0,0,1-.1-1.5c0-.7.1-.8.8-1s2.6-.7,3.2-2.1a.7.7,0,0,1,.5-.3.9.9,0,0,1,.5.3,4.4,4.4,0,0,1,.8,1.1,3.7,3.7,0,0,1,.7,1.2,10.5,10.5,0,0,1-.1,2.5,1.7,1.7,0,0,1-.7,1.3c-.3.4-.2.8-.3,1.2a.2.2,0,0,0,.2.2l1.6.5h0c0-2.2.1-4.3,0-6.4a3.8,3.8,0,0,0-3.9-3.7,4,4,0,0,0-4,4.1v6.1Zm5.2-6.5a5.3,5.3,0,0,1-2.6,1.5c-.7.3-.7.3-.7,1.1a2,2,0,0,0,2,2,2,2,0,0,0,2.2-1.9v-.9A1.8,1.8,0,0,0,202.4,77.7Zm-2.2,5.7c0,.5-.2,1.1.4,1.4a1.5,1.5,0,0,0,1.3,0c.4-.4.3-.9.3-1.4Z"/><path class="e" d="M239.5,77.6h.7a2,2,0,0,1,1.7,2.2c0,1.3-.1,2.7-.1,4v2.4a2.1,2.1,0,0,1,2,.3,2.2,2.2,0,0,1,.9,2l.7-.4a1.5,1.5,0,0,1,.1-1.9,2.6,2.6,0,0,1,2.2-.7,2.9,2.9,0,0,1,1.8,1.1V85.5l-.6-6.9a2.1,2.1,0,0,1,1-2,2,2,0,0,1,2.2,0h.2a11.5,11.5,0,0,1,.6-1.7,1.9,1.9,0,0,1,1.7-.8c1.1,0,1.8.8,2,2.4a2,2,0,0,1,2.7.2c.8.8.6,1.8.6,2.8h.4a1.9,1.9,0,0,1,2.1,2c0,.9-.1,1.9-.1,2.8s-.2,3.9-.4,5.9a11.1,11.1,0,0,1-.7,2.2,10.9,10.9,0,0,1-.5,1.7.4.4,0,0,0,.2.5,1.7,1.7,0,0,1,.5,1.2v13.2c0,.7-.3.9-1,.9H230c-.9,0-1.1-.2-1.1-1.1V94.2a1.7,1.7,0,0,1,.6-1.5.6.6,0,0,0,.1-.4,3.1,3.1,0,0,0-.7-.9l-1.3-1a5.7,5.7,0,0,1-1.5-2.2,16.2,16.2,0,0,0-1-1.8c-.3-.5-.7-1-.4-1.7a2.3,2.3,0,0,1,1.8-1.2,3,3,0,0,1,2.2.8l.4.3c-.1-.9-.1-1.7-.2-2.5s-.3-3.7-.5-5.5a2,2,0,0,1,1.1-2,2,2,0,0,1,2.2.1h.2a2.4,2.4,0,0,1,.9-2.1l1.2-.5a1.8,1.8,0,0,1,1.6.8c.3.4.4,1,.7,1.5l1-.3a2,2,0,0,1,2.1,2A6.6,6.6,0,0,1,239.5,77.6Zm-4.7,21.5c.3.7.8,1.3,1.1,2a5.1,5.1,0,0,0,2.1,2.7,5.7,5.7,0,0,1,1.1,1.1c.3.4.5.6,1,.6a.7.7,0,0,1,.8.7.7.7,0,0,1-.8.7h-.9c-.1.1-.2.2-.2.3a5.6,5.6,0,0,0,0,1.3h10.4v-1.6h-2.6a.7.7,0,0,1-.7-.7.6.6,0,0,1,.7-.7.7.7,0,0,0,.8-.6,1.4,1.4,0,0,1,.2-.6,12.7,12.7,0,0,0,.9-4.3l.3-6.4v-.2a.6.6,0,0,0-.5-.5.7.7,0,0,0-.6.4,2,2,0,0,0-.1.7c0,.9-.1,1.8-.1,2.7s-.4.9-.8.8-.7-.3-.7-.9.1-2.8.2-4.1.1-1.5.1-2.3-.1-.6-.5-.6-.5.1-.6.5a.6.6,0,0,0-.1.4c0,.6-.1,1.2-.1,1.7l-.3,4.6c0,.3-.1.6-.4.6h-.7a1.5,1.5,0,0,1-.4-.8c-.1-2.7-.1-5.4-.2-8.1a.6.6,0,0,0-.1-.4c-.1-.2-.3-.5-.5-.5s-.5.1-.6.4v.4c-.1,2.2-.1,4.4-.2,6.5a11.5,11.5,0,0,1-.1,1.9.7.7,0,0,1-.7.7c-.4.1-.7-.2-.7-.7a.3.3,0,0,1-.1-.2c-.1-2-.3-4-.5-6,0-.2-.1-.4-.1-.6a.7.7,0,0,0-.6-.4c-.4.1-.5.3-.5.6v.4c.2,3,.5,6,.7,8.9,0,.5.1,1,.1,1.4a.7.7,0,0,1-.6.7.6.6,0,0,1-.8-.5v-.2l-1.5-1.6A1,1,0,0,0,234.8,99.1Zm11.9-11.9a11.4,11.4,0,0,1,1,1.9,5.7,5.7,0,0,0,2.4,2.9,3.7,3.7,0,0,1,1.5,2,.3.3,0,0,0,.3.3h7a.3.3,0,0,0,.3-.3l.6-1.8a13.6,13.6,0,0,0,.9-4.8c.1-1.8.1-3.7.2-5.6v-.3c-.1-.2-.3-.4-.4-.4l-.6.2a1.3,1.3,0,0,0-.1.6c-.1,1-.1,1.9-.2,2.9s-.3.9-.8.8-.7-.3-.7-.9l.3-5.1V78.2c0-.3-.1-.5-.4-.5a.6.6,0,0,0-.7.4.6.6,0,0,1-.1.4c0,.9-.1,1.8-.1,2.7l-.3,3.7c0,.4-.2.7-.6.7a.7.7,0,0,1-.8-.4v-.5l-.3-7.7v-.6c0-.5-.2-.7-.6-.7s-.6.2-.6.7v.4c-.1,2.6-.1,5.3-.2,7.9,0,.6-.3.9-.7.9s-.8-.2-.8-.8-.3-3.1-.5-4.7a9.7,9.7,0,0,0-.1-1.7,1.5,1.5,0,0,0-.5-.6c-.1-.1-.4,0-.5.2s-.2.4-.2.6c.2,2,.3,4,.5,6l.3,4.3a.8.8,0,0,1-.5.9.9.9,0,0,1-.9-.6V89l-1.4-1.6A1.1,1.1,0,0,0,246.7,87.2Zm-15.6,5.1h6c0-.6-.1-1.3-.1-2a1.9,1.9,0,0,1,1.5-2.1,6.5,6.5,0,0,1,1.4,0,11.3,11.3,0,0,0,.3-1.8c.1-2.2.2-4.4.2-6.6v-.3c-.1-.1-.3-.4-.5-.4a.7.7,0,0,0-.5.3.7.7,0,0,0-.1.5c-.1,1-.1,1.9-.2,2.9s-.3.9-.7.9a.7.7,0,0,1-.7-.9c0-1,.1-1.9.1-2.8s.1-2.4.2-3.6a.6.6,0,0,0-.5-.7c-.3-.1-.6.2-.7.6a1.1,1.1,0,0,1-.1.5l-.3,6.1c-.1.5-.4.8-.8.8s-.7-.3-.7-.9l-.3-8.1c0-.7-.2-1-.5-1s-.6.3-.7.9c-.1,2.8-.1,5.5-.2,8.2,0,.6-.3.9-.8.9s-.7-.3-.7-.9-.3-3.3-.4-5-.1-.9-.2-1.4a1.5,1.5,0,0,0-.5-.6l-.6.3c-.1.1-.1.4-.1.5.2,2.7.5,5.4.7,8.1,0,.7.1,1.5.1,2.3s-.2.7-.6.8-.6-.1-.8-.5a.4.4,0,0,0-.1-.3l-1.5-1.6a1.1,1.1,0,0,0-1.5-.2l1.1,1.9a5.4,5.4,0,0,0,2.1,2.8A3.4,3.4,0,0,1,231.1,92.3Zm28.8,16.2V99.6h-9v8.9Zm-21.8-2.7-1-.9a6.3,6.3,0,0,1-2.4-2.7,10.1,10.1,0,0,0-1.2-2.3,1.2,1.2,0,0,1,0-1.7l.4-.6h-3.4v10.9h6.9C237.6,107.6,237.2,106.6,238.1,105.8Zm21.8-10h-9V98h9Zm-29.5.3h7l-.2-2.3h-6.4c-.2,0-.4,0-.4.3Zm7.2,2.3c.1-.9-.1-1-.9-.7Zm11.8,7v-1h-.1l-.3,1Z"/><path class="e" d="M243.5,106.9a.7.7,0,0,1-.8-.7.8.8,0,0,1,.8-.7.7.7,0,0,1,0,1.4Z"/><path class="f" d="M328.7,93a2.3,2.3,0,0,1-3.6-.7l-.8.8v.4a2.9,2.9,0,0,1-1.6,3.1,2.8,2.8,0,0,1-3.4-.6q-3.2-3-6.3-6.3a2.7,2.7,0,0,1-.5-3.3,2.8,2.8,0,0,1,3-1.6.9.9,0,0,0,.7-.3l8.3-8.3c.2-.2.3-.3.2-.6a3,3,0,0,1,1.6-3,2.7,2.7,0,0,1,3.4.5l6.3,6.3a2.9,2.9,0,0,1,.5,3.4,3.2,3.2,0,0,1-3.1,1.6c-.1-.1-.3,0-.5.1l-.7.6a2.7,2.7,0,0,1,1.3,1.7,2.3,2.3,0,0,1-.6,1.9l3,2.6,8.4,7.4,3.9,3.4a4.4,4.4,0,0,1,1.4,5.1,4.4,4.4,0,0,1-7.1,1.6c-1.3-1.3-2.4-2.7-3.6-4-3.3-3.9-6.7-7.8-10.1-11.6A.3.3,0,0,0,328.7,93Zm3-9.5-6.1-6.1-8.3,8.2,6.2,6.2ZM341,97.7l-9.1-7.9-2.2,2.1,8,9.2,2.6-2.7Zm-.4,6.7,2.7,3.1a2.9,2.9,0,0,0,4.3.1,2.8,2.8,0,0,0-.2-4.2l-2.3-2.1-.7-.6Zm-5.2-23a2,2,0,0,0-.6-1.2l-3-2.9c-1-1.1-2-2.1-3.1-3.1a1.5,1.5,0,0,0-2.3.2,1.4,1.4,0,0,0,.3,1.9l4.4,4.4,1.8,1.8a1.4,1.4,0,0,0,1.6.3A1.6,1.6,0,0,0,335.4,81.4ZM321.3,95.5l.7-.2a1.5,1.5,0,0,0,.4-2.4l-2.3-2.3-3.9-3.9a1.4,1.4,0,0,0-2.1,0,1.3,1.3,0,0,0,0,2q3,3.1,6.3,6.3Zm10.8-8.4c-.2-.2-.3-.5-.5-.6a.7.7,0,0,0-.9.2l-4,4.1a.7.7,0,0,0-.1,1.1.8.8,0,0,0,1.1-.1l4-4A1.6,1.6,0,0,0,332.1,87.1Zm11.1,12.5-1-.9-3.5,3.5.9,1Z"/><path class="f" d="M314,105.3a11,11,0,0,1-.3-1.6,2.4,2.4,0,0,1,2.4-2.5c4.3-.1,8.5-.1,12.8,0a2.5,2.5,0,0,1,2.1,3.7c0,.1-.1.2-.1.3l.5.4a4.2,4.2,0,0,1,1.4,3.8c0,.3-.3.5-.7.6H313.2c-.8,0-1-.2-1-1A3.7,3.7,0,0,1,314,105.3Zm17.3,3.2v-.2a2.2,2.2,0,0,0-2.3-2H315.3a2,2,0,0,0-1.6,2.1Zm-8.8-5.9h-6.2a1.1,1.1,0,1,0,0,2.2h11.3a4,4,0,0,0,1.1,0,1.1,1.1,0,0,0,1.1-.7,1.1,1.1,0,0,0-1.2-1.5Z"/><path class="f" d="M322.4,84.4c-.2-.2-.5-.3-.6-.6a.9.9,0,0,1,.1-.7c.1-.3.3-.4.5-.6l2.5-2.5c.4-.4.8-.5,1.2-.1s.3.7-.2,1.1L323,84Z"/><path class="f" d="M321.1,85.6a.7.7,0,0,1-.7.7.7.7,0,0,1-.8-.7.7.7,0,0,1,.7-.7A.8.8,0,0,1,321.1,85.6Z"/><path class="g" d="M387,84.4c-.1,2-.1,4-.3,6a21.6,21.6,0,0,1-4,10.9,24.3,24.3,0,0,1-9.2,7.9l-2.2.7a3.1,3.1,0,0,1-2.3-.3,24.9,24.9,0,0,1-6.5-4.2,22.9,22.9,0,0,1-7.1-11.9,24.6,24.6,0,0,1-.7-6V79.8c0-.7.1-.9.8-1.1a55.9,55.9,0,0,0,8.9-3.3c1.8-.8,3.6-1.8,5.4-2.8a1.8,1.8,0,0,1,2,0,57,57,0,0,0,12.6,5.6l1.7.5c.6.2.8.4.8,1v4.7Zm-1.7.9V80.6c0-.4-.1-.5-.5-.6a61.6,61.6,0,0,1-13.7-5.9h-.6L366.9,76a55.3,55.3,0,0,1-10.2,4c-.3.1-.4.2-.4.6v6.9a23.4,23.4,0,0,0,1.3,7.9,21.9,21.9,0,0,0,11.2,12.3,3.5,3.5,0,0,0,3.4.3,22.3,22.3,0,0,0,6.9-4.9A20.9,20.9,0,0,0,385,91.6,44.3,44.3,0,0,0,385.3,85.3Z"/><path class="g" d="M368.4,92.4l.3-.5,7.3-7.3a2.7,2.7,0,0,1,3.3-.6,2.4,2.4,0,0,1,.7,3.8c-1,1.2-2.1,2.2-3.2,3.3l-6.5,6.6a2.6,2.6,0,0,1-2.9.7,3,3,0,0,1-1.1-.6l-4.5-4.6a2.5,2.5,0,0,1,2-4.4,2.6,2.6,0,0,1,1.8.9l2.4,2.4Zm-4.8-2.1c-.3.1-.5.1-.7.3s-.5,1,.1,1.5,2.9,3,4.4,4.4,1.1.7,1.7,0l8.3-8.3a8,8,0,0,0,1.3-1.3,1,1,0,0,0-1.4-1.4l-.3.4-8,8c-.6.5-.9.5-1.5-.1s-2.1-2-3.1-3.1Z"/><path class="g" d="M357.8,83.4V82c0-.5.2-.7.7-.9l4.1-1.5a.8.8,0,0,1,1.1.5c.2.4,0,.8-.6,1l-3.3,1.2a.5.5,0,0,0-.4.5v2c0,.6-.3.9-.7.9a.8.8,0,0,1-.9-.9Z"/><path class="g" d="M375,104.5c-.2-.2-.5-.3-.6-.5a1.1,1.1,0,0,1,.1-.8c0-.2.3-.4.5-.5a27.2,27.2,0,0,0,4-4.3c0-.1.1-.2.1-.3s.8-.5,1.2-.2a.8.8,0,0,1,.1,1.1,21.5,21.5,0,0,1-1.8,2.4,37.1,37.1,0,0,1-2.9,2.7Z"/><path class="g" d="M373.1,105.7a.8.8,0,0,1-.8-.8.9.9,0,0,1,.9-.8.8.8,0,0,1,.7.8A.8.8,0,0,1,373.1,105.7Z"/><path class="g" d="M365.2,80.2a.9.9,0,0,1-.7-.9.8.8,0,0,1,.8-.7.9.9,0,0,1,.8.8A.9.9,0,0,1,365.2,80.2Z"/><path class="h" d="M456.5,101.7l-.8.7-1.3-1.5c-.1-.1-.1-.4-.1-.6v-.7a9.6,9.6,0,0,1-5.3,0c0,.1-.1.2,0,.3a1.9,1.9,0,0,1-.7,1.7l-3.9,4.4-.3.3a.6.6,0,0,0,0,.8.5.5,0,0,0,.8-.1,37,37,0,0,0,2.8-2.8l1.8-1.7.5-.3h3.2a.5.5,0,0,1,.5.3l4.5,4.4c.1,0,.1.1.2.2a.5.5,0,0,0,.7,0,.5.5,0,0,0,.1-.8l-1-1-.3-.4.8-.7,1.4,1.5a1.7,1.7,0,0,1-.2,2.2,1.6,1.6,0,0,1-2.3-.1l-4.3-4.2-.6-.3h-2.1a.9.9,0,0,0-.7.3l-4.1,4.2a1.7,1.7,0,0,1-2.5-2.3l4.2-4.6c.5-.6.3-1.1.3-1.7s-.1-.1-.2-.2a8.2,8.2,0,0,1-3.8-3.8.5.5,0,0,0-.5-.3,1.8,1.8,0,0,0-1.7.6l-4.4,3.9a1.6,1.6,0,0,1-2.6-.4,1.6,1.6,0,0,1,.4-2l3.1-3.2a3.7,3.7,0,0,0,1.2-1.3c.3-.5.1-1.2.1-1.8a2.1,2.1,0,0,0-.7-1.8l-3.8-3.7a1.7,1.7,0,0,1,.7-2.8,1.7,1.7,0,0,1,1.7.4l4.7,4.3a2.2,2.2,0,0,0,1.6.2c.1,0,.1-.2.2-.2a7.8,7.8,0,0,1,3.8-3.8c.2-.1.2-.3.3-.5a1.9,1.9,0,0,0-.7-1.7L446,79.7l.8-.7,1,1.1.2.2a2.3,2.3,0,0,1,.9,2.4,8.3,8.3,0,0,1,5.4,0v-.4a1.9,1.9,0,0,1,.6-1.6l3.9-4.3.3-.4c.2-.3.3-.6,0-.9s-.5-.1-.8.1l-2.2,2.3-2.4,2.3-.5.2h-3.1l-.6-.2L445,75.3l-.3-.2h-.6a.5.5,0,0,0,0,.7l1.1,1.3.9,1-.8.7c-.8-.8-1.5-1.7-2.2-2.5l-.2-.4a1.6,1.6,0,0,1,2.5-1.8l.5.4,4.1,4.1.6.2h2.1a.7.7,0,0,0,.6-.3l4.2-4.1a1.6,1.6,0,0,1,2-.4,1.6,1.6,0,0,1,.4,2.6c-1.3,1.6-2.7,3.2-4.1,4.7s-.3,1.1-.4,1.6l.3.2a8.9,8.9,0,0,1,3.8,3.9l.4.2a1.8,1.8,0,0,0,1.7-.5l4.5-4a1.6,1.6,0,0,1,2-.2,1.6,1.6,0,0,1,.7,1.7,2.7,2.7,0,0,1-.6,1l-4.1,4.1a.9.9,0,0,0-.3.7,6.7,6.7,0,0,1,0,2,.9.9,0,0,0,.3.7l4.2,4.2a1.6,1.6,0,0,1,.5,1.7,1.7,1.7,0,0,1-2.8.7l-4.7-4.2a3,3,0,0,0-1.6-.3l-.2.3a9.3,9.3,0,0,1-3.8,3.8.5.5,0,0,0-.3.5,1.7,1.7,0,0,0,.6,1.6Zm-5.7-2.8a4.3,4.3,0,0,1,.5-3,2,2,0,0,1,2.5-1.1l3.2,1.3a.6.6,0,0,0,.7-.1,8.7,8.7,0,0,0,1.7-4.7,7.8,7.8,0,0,0-7-7.9.5.5,0,0,0-.5.3,3.9,3.9,0,0,0,.9,3.9L454,89a3.1,3.1,0,0,1,.5,1c.4,1-1,3.2-2.7,2.7l-1.1-.4-1.9-1a3.4,3.4,0,0,0-1.7-.5,10.7,10.7,0,0,0-3,.6c-.2.1-.2.2-.2.4a7.6,7.6,0,0,0,4.9,6.5A9.5,9.5,0,0,0,450.8,98.9Zm-.1-15.4a7.5,7.5,0,0,0-6.7,6.7l.9-.2a5.5,5.5,0,0,1,5,.6l1.9,1c.6.2.9.1,1.3-.5a1,1,0,0,0,0-1.4l-1-1.2a4.7,4.7,0,0,1-1.4-2.9A14.7,14.7,0,0,1,450.7,83.5Zm-7.6,4.9h-.6a1.4,1.4,0,0,1-1.1-.5l-4.7-4.2-.3-.3a.6.6,0,0,0-.7.1c-.3.3-.2.5,0,.8l.2.2,4.4,4.4a1.1,1.1,0,0,1,.2.6v3.1a1.4,1.4,0,0,1-.2.6,25,25,0,0,0-2.3,2.3l-2.3,2.2c-.2.3-.3.5,0,.8s.5.2.7,0,.3-.2.4-.3l4.7-4.2a1.4,1.4,0,0,1,.9-.3h.7c-.1-1-.3-1.8-.3-2.7S443,89.4,443.1,88.4Zm17,5.4h.6a1.4,1.4,0,0,1,1.2.4c1.5,1.5,3.1,2.9,4.7,4.3l.4.2h.6a.8.8,0,0,0,0-.7l-.2-.2c-1.5-1.5-2.9-3-4.4-4.4l-.3-.6V89.5c.1-.2.1-.4.3-.5l1.7-1.8a37,37,0,0,0,2.8-2.8.5.5,0,0,0,.1-.8.6.6,0,0,0-.8,0l-.3.2c-1.4,1.4-2.9,2.7-4.4,4a1.9,1.9,0,0,1-1.7.7h-.3A9.5,9.5,0,0,1,460.1,93.8Zm-3.6,3.3a12.5,12.5,0,0,0-3-1.2.9.9,0,0,0-1,.2,3.2,3.2,0,0,0-.6,2.5.3.3,0,0,0,.3.3A7.8,7.8,0,0,0,456.5,97.1Z"/><path class="h" d="M470.5,88.6v5h-3.6c-.4-.4-1.1-.7-1.2-1.2a4.5,4.5,0,0,1,0-2.3c.1-.5.8-.9,1.2-1.3h3.6Zm-1.1,1.1h-1.7l-.5.3a1.4,1.4,0,0,0-.6,1.4c.1.3.6,1.1.9,1.1h1.9Z"/><path class="h" d="M451.6,77.2h-.8a1.5,1.5,0,0,1-1.6-1.5,6.7,6.7,0,0,1,0-2,1.6,1.6,0,0,1,1.6-1.5h1.7a1.6,1.6,0,0,1,1.6,1.6,5.4,5.4,0,0,1,0,1.8,1.6,1.6,0,0,1-1.7,1.6Zm.1-3.9h-.8a.5.5,0,0,0-.6.6,4.3,4.3,0,0,0,0,1.6c0,.4.2.6.5.6h1.6a.5.5,0,0,0,.6-.6v-.8C453,73.3,453,73.3,451.7,73.3Z"/><path class="h" d="M437.7,91.3c.2.6-.2,1.1-.7,1.6a2.7,2.7,0,0,1-1.7.8,2.6,2.6,0,0,1-1.9-.8,2.2,2.2,0,0,1-.7-1.7,2.2,2.2,0,0,1,.8-1.9,2.2,2.2,0,0,1,1.7-.7,2.4,2.4,0,0,1,1.9.8C437.7,90.1,437.7,90.1,437.7,91.3Zm-1.1-.2a1.3,1.3,0,0,0-1.3-1.4,1.3,1.3,0,0,0-1.5,1.3c0,1,.5,1.5,1.4,1.5A1.3,1.3,0,0,0,436.6,91.1Z"/><path class="h" d="M451.7,110a2.5,2.5,0,1,1-.1-5,2.5,2.5,0,0,1,.1,5Zm1.3-2.5a1.4,1.4,0,0,0-1.4-1.4c-.7.1-1.4.7-1.3,1.4a1.3,1.3,0,0,0,1.3,1.4A1.4,1.4,0,0,0,453,107.5Z"/><path class="h" d="M457.2,104l-.8-.8.8-.7.8.8Z"/><path class="h" d="M456.7,88.9h1.1v1h-1.1Z"/><path class="h" d="M456.7,86.7v1h-1.1v-1Z"/><path class="i" d="M409.8,95.2h-5.9v13.3c0,1.2-.4,1.5-1.5,1.5h-3.9c-.8,0-1.2-.4-1.2-1.3V81a1.2,1.2,0,0,0-.4-.9,4.7,4.7,0,0,1-.5-5.4,4.8,4.8,0,0,1,4.8-2.4,4.7,4.7,0,0,1,4.1,3.9,4.9,4.9,0,0,1-1.1,4,.9.9,0,0,0-.3,1h11.9a4,4,0,0,1,4.3,4.3v.8h5.3a1.3,1.3,0,0,1,1.4,1.4V99c0,.9-.4,1.3-1.4,1.3H414a4,4,0,0,1-4.2-4.2ZM403.9,93h7.3a37.5,37.5,0,0,1,6.7.2V85.5a1.9,1.9,0,0,0-2.1-2.1H403.9Zm-2.3,14.8v-26h-2.1v26Zm22.9-9.7v-.2c0-3,0-6,.1-9.1,0-.2-.2-.3-.4-.3h-4.1v.5c-.1,3,.2,6-.1,9ZM400.6,79.6a2.6,2.6,0,0,0,2.6-2.6,2.8,2.8,0,0,0-2.6-2.6A2.6,2.6,0,0,0,398,77,2.6,2.6,0,0,0,400.6,79.6ZM412,95.2v1.1a1.8,1.8,0,0,0,1.8,1.8h2.6a1.4,1.4,0,0,0,1.5-1.5,1.5,1.5,0,0,0-1.5-1.4H412Z"/><path class="j" d="M479.6,83.3V81.6a1,1,0,0,1,.7-1.1,17.3,17.3,0,0,1,11-.5,20.1,20.1,0,0,1,6.1,2.9.4.4,0,0,0,.6,0,20.7,20.7,0,0,1,9.2-3.5,16,16,0,0,1,7.8,1.1c.7.2.8.5.8,1.2v1.6h2.4c.8.1,1.1.4,1.1,1.2v24.3c0,.9-.3,1.2-1.2,1.2H477.3c-.9,0-1.2-.3-1.2-1.2V84.6c0-1,.3-1.3,1.2-1.3Zm1.8,21.6c5.5-1.6,10.6-.5,15.4,2.4V85c0-.2,0-.4-.3-.5s-2.5-1.5-3.9-2.1a15.8,15.8,0,0,0-10.7-.6c-.4.2-.5.3-.5.7v22.4Zm32.6,0V82.4c0-.3,0-.4-.3-.5s-2.4-.6-3.6-.7A17.6,17.6,0,0,0,499,84.4a.8.8,0,0,0-.4.7v22.2C503.5,104.4,508.5,103.3,514,104.9ZM478,85.2v23h16.5l-.2-.2c-4.3-2.1-8.8-2.8-13.4-.9H480c-.4-.2-.4-.6-.4-1V85.2Zm37.8,0v21.1a.9.9,0,0,1-1.2.8l-1-.4a15.5,15.5,0,0,0-10.4.4l-2.2,1h16.5v-23Z"/><path class="k" d="M269.6,92.6A17.4,17.4,0,1,1,286.9,110,17.4,17.4,0,0,1,269.6,92.6ZM287,109a16.4,16.4,0,1,0-16.4-16.4A16.4,16.4,0,0,0,287,109Z"/><path class="k" d="M280.6,92.2a9.1,9.1,0,0,1-2-3.2,10.5,10.5,0,0,1-.6-2.4c-.2-.6.1-.9.7-.8l2.2.6h.4L278.8,82c-.7.7-1.4,1.3-2,2a13.3,13.3,0,0,0-3,6.6c-.1.2-.1.4-.4.5a.5.5,0,0,1-.6-.6,14.3,14.3,0,0,1,.4-2.2,14.9,14.9,0,0,1,5.3-7.3c.5-.4.8-.3,1.1.2,4.3,7.9,8.6,15.9,13,23.8.3.5.2.8-.4,1A14.3,14.3,0,0,1,273,95.8a15.4,15.4,0,0,1-.4-3c0-.4.2-.6.5-.6s.5.2.5.6a13,13,0,0,0,7,11.5,12.7,12.7,0,0,0,10.6.9h.3l-4-7.1h0v5.1a.6.6,0,0,1-.6.5c-.3,0-.4-.2-.5-.5V97.9l-.3.4a5.7,5.7,0,0,1-3.5,2c-.5.1-.8-.1-.7-.6a14.6,14.6,0,0,1,.5-2l.2-.3h-1.3a10.1,10.1,0,0,1-6.5-2.1c-.5-.4-.5-.7,0-1.1a9.1,9.1,0,0,1,5.2-2Zm5.3,2.7c-.1-.2-.3-.3-.4-.4a9.1,9.1,0,0,0-9.4.1l-.3.2A8.9,8.9,0,0,0,285.9,94.9Zm-1.1-2-2.6-4.6a.2.2,0,0,0-.2-.2l-2.3-1h-.6a9,9,0,0,0,3,5.1h.2Zm1.4,3.1a6.6,6.6,0,0,1-1.5.7,2.1,2.1,0,0,0-1.1,1,3.4,3.4,0,0,0-.6,1.5A5.1,5.1,0,0,0,286.2,96Z"/><path class="k" d="M286.6,78.3a14.4,14.4,0,0,1,14.5,11.9,13.9,13.9,0,0,1-5.7,14c-.5.4-.8.3-1.1-.2-4.3-7.9-8.6-15.8-13-23.7-.3-.6-.2-.8.4-1A13,13,0,0,1,286.6,78.3Zm-1.7,6.3a5.7,5.7,0,0,1,.4-1.4l1.2-2.4c.2-.4.6-.3.9,0l.3.5a14.2,14.2,0,0,1,1.7,5.4c.1.6.1,1.2.2,1.8l.2-.2a10.3,10.3,0,0,1,5.4-2.5c.6,0,.8.2.8.7a9.7,9.7,0,0,1-2.5,5.4l-.2.3h.3a10.2,10.2,0,0,1,5.6,2.2q.6.4,0,.9l-1.3.9a.5.5,0,0,1-.8-.2.6.6,0,0,1,.3-.7l.7-.4a8.9,8.9,0,0,0-8.2-1.1l1.2,2.1c.1.3.3.4.6.5a11.4,11.4,0,0,0,3.7-.3c.4-.1.7,0,.8.4a.7.7,0,0,1-.5.6,9.6,9.6,0,0,1-3.4.3h-.4l3.1,5.8a13.3,13.3,0,0,0-12.6-23.1Zm10,2.4h-.3a9.1,9.1,0,0,0-5.9,4.2v.4l.6,1c.1.2.2.2.4.2l1.8-.5.4-.2a8.2,8.2,0,0,0,2.3-3.2A10.7,10.7,0,0,0,294.9,87ZM287,82.1h-.1l-.2.4c-.3,1.1-.7,2.1-1,3.2a.7.7,0,0,0,.1.6l2,3.7.2.3a1.6,1.6,0,0,0,.5-1.1,17.1,17.1,0,0,0-.9-5.5A7.6,7.6,0,0,0,287,82.1Z"/></svg>