<svg xmlns="http://www.w3.org/2000/svg" width="660" height="500" viewBox="0 0 660 500"><defs><style>.a{fill:#223749;}.b,.d{fill:#409195;}.b{opacity:0.79;}.c{fill:#fff;}.e{fill:#9ab63a;}.f{fill:#d2a206;}.g{fill:#6698ac;}.h{fill:#5e788f;}.i{fill:#384f64;}.j{fill:#d58116;}.k{fill:#07a0b9;}.l{fill:#478335;}</style></defs><path class="a" d="M238.3,54.8v-26h11.2c7,0,10.6,2.9,10.6,8.5s-3.6,8.8-11.4,8.8h-3.6v8.7Zm6.8-21v7.4h3.2c4.1,0,5-2.3,5-4s-1.9-3.4-4.6-3.4Z"/><path class="a" d="M272.8,34.4c8.2,0,11.1,4.5,11.1,10.3S279.7,55.2,273,55.2s-10.9-4.5-10.9-10.5S266,34.4,272.8,34.4Zm.1,15.9c2.6,0,4.1-2.2,4.1-5.3s-1.1-5.8-4.1-5.8-4,1.7-4,5.2S269.9,50.3,272.9,50.3Z"/><path class="a" d="M287.5,34.8h4.7l1.6,2.7a6,6,0,0,1,5.4-3.1,4.5,4.5,0,0,1,2.3.4l-1,5.1-1.7-.2a6.9,6.9,0,0,0-4.5,1.5V54.8h-6.8Z"/><path class="a" d="M335.1,28.8v5h-7.5v21h-6.7v-21h-7.7v-5Z"/><path class="a" d="M340.9,46.3c.2,1.9,2.4,3.5,5.4,3.5a13,13,0,0,0,5.7-1.2l1.3,4.8a15.8,15.8,0,0,1-7.8,1.8c-6.6,0-11.5-3.2-11.5-10.1s4.2-10.7,10.5-10.7,9.4,4.3,9.4,8.5a18.4,18.4,0,0,1-.4,3.4Zm6.3-3.3a1.7,1.7,0,0,0,.1-.7,2.7,2.7,0,0,0-3-2.9,3.3,3.3,0,0,0-3.5,3.6Z"/><path class="a" d="M382.4,42c0-1.6-.5-2.7-2.5-2.7a5.1,5.1,0,0,0-3.1,1.1V54.8h-6.7V42c0-1.6-.5-2.7-2.6-2.7a5.3,5.3,0,0,0-3.1,1.1V54.8h-6.8v-20h5.1l1.2,1.6a11.3,11.3,0,0,1,6.4-2c2.8,0,4.8.9,5.8,2a9.9,9.9,0,0,1,6.2-2c4.4,0,6.9,2.3,6.9,6.4v14h-6.8Z"/><path class="a" d="M394.1,36.1a21,21,0,0,1,8.2-1.7c7.7,0,9.5,3.4,9.5,8.9V49a1.2,1.2,0,0,0,1.4,1.3h.8l.9,3.8a8.4,8.4,0,0,1-4.2,1.2c-2.7,0-4.3-.9-5.1-2.6-.8,1.3-3.1,2.6-6.1,2.6s-6.6-1.4-6.6-5.6,5.7-6.5,12.1-6.5c0-2.3-.9-3.5-3.7-3.5a14.2,14.2,0,0,0-5.5,1ZM405,46.4c-3,.1-5.4.6-5.4,2.3a2,2,0,0,0,2.2,1.9,4.7,4.7,0,0,0,3.2-1.3Z"/><path class="a" d="M431.6,40.5a14,14,0,0,0-5.8-1.1c-1.9,0-2.7.5-2.7,1.2,0,2.5,10.2.8,10.2,7.5,0,4.3-3.4,7.1-9.9,7.1a16.2,16.2,0,0,1-7.4-1.9l1.4-4.7a16.8,16.8,0,0,0,6.4,1.4c2,0,3.1-.5,3.1-1.4s-10.5-.7-10.5-7.6c0-4.1,3.5-6.6,9.1-6.6a19.3,19.3,0,0,1,7.6,1.4Z"/><rect class="b" x="97.2" y="237.6" width="63.9" height="64.71"/><path class="c" d="M113.3,278.1V260.7l-8.6,2.7-1.6-5,11.9-4.3h5.8v24h6l-.4,5.5H105.5l.4-5.5Z"/><path class="c" d="M141.2,278.1V260.7l-8.5,2.7-1.6-5,11.8-4.3h5.8v24h6l-.3,5.5H133.5l.4-5.5Z"/><path class="d" d="M196.4,176.6a9.7,9.7,0,0,1,5,1.2l-1.4,3.1a7,7,0,0,0-3.7-.8c-2.2,0-5,1.2-5,5.2s2.1,5.3,5.1,5.3a7.7,7.7,0,0,0,3.8-1l1.2,3a11.3,11.3,0,0,1-5.6,1.4c-3.7,0-8.9-1.7-8.9-8.8C186.9,180.1,190.5,176.6,196.4,176.6Z"/><path class="d" d="M210.1,180.5c5.3,0,7.2,2.9,7.2,6.7s-2.7,6.8-7.1,6.8-7.1-2.9-7.1-6.8S205.7,180.5,210.1,180.5Zm.1,10.3c1.7,0,2.7-1.4,2.7-3.4s-.7-3.8-2.7-3.8-2.7,1.1-2.7,3.4S208.2,190.8,210.2,190.8Z"/><path class="d" d="M219.7,180.7H223l.8,1.1a6.3,6.3,0,0,1,4-1.3c3.3,0,4.8,1.7,4.8,4.6v8.6h-4.4v-8.1a1.7,1.7,0,0,0-1.9-1.9,3.4,3.4,0,0,0-2.2.7v9.3h-4.4Z"/><path class="d" d="M244.7,184.5a8.4,8.4,0,0,0-3.8-.8c-1.2,0-1.8.4-1.8.8s6.7.5,6.7,4.9c0,2.8-2.3,4.6-6.4,4.6a9.6,9.6,0,0,1-4.9-1.3l.9-3a10.4,10.4,0,0,0,4.2.9c1.3,0,2-.3,2-.9s-6.8-.4-6.8-4.9c0-2.7,2.3-4.3,5.9-4.3a11.5,11.5,0,0,1,4.9.9Z"/><path class="d" d="M248.9,180.7v-2.3l4.3-1v3.3h3.6v3.1h-3.6V189c0,.9.6,1.4,1.7,1.4a2.5,2.5,0,0,0,1.3-.3l.7,3a6.9,6.9,0,0,1-3.7.9c-2.6,0-4.3-1.5-4.3-4.2v-6h-2.3v-3.1Z"/><path class="d" d="M258.9,180.7H262l1,1.8a3.8,3.8,0,0,1,3.5-2l1.5.2-.7,3.4-1-.2a4.7,4.7,0,0,0-3,1v8.8h-4.4Z"/><path class="d" d="M282.4,193.7h-3.3l-.8-1a5.8,5.8,0,0,1-3.7,1.3c-3.7,0-4.9-2.2-4.9-4.5v-8.8H274v8.2a1.7,1.7,0,0,0,1.9,1.9,3.7,3.7,0,0,0,2.1-.7v-9.4h4.4Z"/><path class="d" d="M292.5,180.5a8.2,8.2,0,0,1,3.4.7l-1.2,3.2a5.4,5.4,0,0,0-2.4-.5,3.1,3.1,0,0,0-3.3,3.3c0,2.5,1.9,3.3,3.5,3.3a6.1,6.1,0,0,0,2.4-.6L296,193a9.7,9.7,0,0,1-4.5,1c-4.2,0-6.9-2.6-6.9-6.7S288,180.5,292.5,180.5Z"/><path class="d" d="M305.2,180.5a8.2,8.2,0,0,1,3.4.7l-1.1,3.2a6,6,0,0,0-2.4-.5,3,3,0,0,0-3.3,3.3,3.1,3.1,0,0,0,3.4,3.3,5.7,5.7,0,0,0,2.4-.6l1.1,3.1a9.2,9.2,0,0,1-4.4,1c-4.3,0-6.9-2.6-6.9-6.7S300.8,180.5,305.2,180.5Z"/><path class="d" d="M315.3,177.2c0,1.3-.7,2.1-2.3,2.1a2,2,0,0,1-2.3-2.1c0-1.3.6-2.1,2.3-2.1S315.3,175.9,315.3,177.2Zm-.1,12.7c0,.7.3.9,1,.9h.4l.7,2.4a5.5,5.5,0,0,1-2.8.8,3.4,3.4,0,0,1-3.7-3.6v-9.7h4.4Z"/><path class="d" d="M325.2,180.5c5.3,0,7.1,2.9,7.1,6.7s-2.6,6.8-7,6.8-7.1-2.9-7.1-6.8S320.8,180.5,325.2,180.5Zm0,10.3c1.7,0,2.7-1.4,2.7-3.4s-.7-3.8-2.7-3.8-2.6,1.1-2.6,3.4S323.3,190.8,325.2,190.8Zm.4-15.8h4l-3.7,4.3h-3.2Z"/><path class="d" d="M334.7,180.7h3.4l.7,1.1a6.7,6.7,0,0,1,4-1.3c3.4,0,4.8,1.7,4.8,4.6v8.6h-4.4v-8.1c0-1.3-.6-1.9-1.8-1.9a3.9,3.9,0,0,0-2.3.7v9.3h-4.4Z"/><path class="d" d="M370.6,193.7h-3.4l-.7-1s-.9,1.3-3.5,1.3-6.2-2.1-6.2-6.7,2.9-6.8,7-6.8a11.4,11.4,0,0,1,2.4.3v-6.5h4.4Zm-4.4-9.8a5.9,5.9,0,0,0-1.9-.3c-1.8,0-3,1.3-3,3.6s1.2,3.5,2.8,3.5a4.2,4.2,0,0,0,2.1-.5Z"/><path class="d" d="M377.4,188.2c.2,1.3,1.6,2.3,3.5,2.3a8.2,8.2,0,0,0,3.8-.8l.8,3.1a10,10,0,0,1-5,1.2c-4.4,0-7.5-2.1-7.5-6.6s2.7-6.9,6.8-6.9,6.1,2.8,6.1,5.5a10.8,10.8,0,0,1-.3,2.2Zm4.2-2.1v-.5a1.8,1.8,0,0,0-2-1.9,2.2,2.2,0,0,0-2.2,2.4Z"/><path class="d" d="M395.3,180.7h3.3l.8,1.1a6.1,6.1,0,0,1,4-1.3c3.1,0,5.7,2,5.7,6.5s-3.4,7-7.1,7a11.4,11.4,0,0,1-2.4-.3v5.1h-4.3Zm4.4,9.8a4.1,4.1,0,0,0,1.9.4c1.7,0,2.9-1.3,2.9-3.7s-1.1-3.4-2.7-3.4a3.8,3.8,0,0,0-2.1.5Z"/><path class="d" d="M411.8,181.6a13.2,13.2,0,0,1,5.3-1.1c5,0,6.1,2.2,6.1,5.8V190a.8.8,0,0,0,.9.8h.6l.6,2.4a5.8,5.8,0,0,1-2.8.8c-1.8,0-2.8-.6-3.3-1.7-.5.9-2,1.7-4,1.7s-4.3-.9-4.3-3.6,3.7-4.3,7.9-4.3c0-1.4-.6-2.2-2.4-2.2a10.9,10.9,0,0,0-3.6.6Zm7,6.7c-1.9,0-3.5.4-3.5,1.5s.5,1.2,1.5,1.2a2.8,2.8,0,0,0,2-.8Z"/><path class="d" d="M432.5,183.9h-6.2v-3.2h11.5v2.7l-6.2,7.2H438v3.1H426.2v-2.5Z"/><path d="M187.8,218.7V205.1h8v1.5h-6.3V211h5.2v1.5h-5.2v4.7h6.6v1.5Z"/><path d="M198.3,216.8a5.7,5.7,0,0,0,2.7.7c1.6,0,2.3-.8,2.3-1.6,0-2.6-5.2-1.2-5.2-4.9,0-1.8,1.4-3,3.7-3a5.8,5.8,0,0,1,2.8.6l-.5,1.3a4.9,4.9,0,0,0-2.3-.5c-1.4,0-2.1.7-2.1,1.5,0,2.4,5.2,1.1,5.2,4.7,0,1.7-1.2,3.3-3.9,3.3a6.5,6.5,0,0,1-3.2-.8Z"/><path d="M212.9,218.4a3.7,3.7,0,0,1-2,.5c-1.9,0-2.9-1.1-2.9-3.4v-6.1h-1.9v-1.2H208V206l1.6-.5v2.7h3.3v1.2h-3.3v6.2c0,1.3.7,1.8,1.6,1.8a2.6,2.6,0,0,0,1.4-.3Z"/><path d="M223.6,218.6a3.5,3.5,0,0,1-1.3.3,1.7,1.7,0,0,1-1.7-1.2,5,5,0,0,1-3.3,1.2,2.6,2.6,0,0,1-2.9-2.7c0-2.7,2.7-3.3,6.1-3.3,0-1.9,0-3.4-2.3-3.4a5.4,5.4,0,0,0-2.7.6l-.5-1.3a7.4,7.4,0,0,1,3.4-.8c3.3,0,3.8,1.8,3.8,4.6v3.8c0,.7.1,1.1.8,1.1h.3Zm-3.1-4.6c-2.6,0-4.4.4-4.4,2a1.5,1.5,0,0,0,1.7,1.5,3.5,3.5,0,0,0,2.7-1.1Z"/><path d="M225.6,216.8a5.7,5.7,0,0,0,2.7.7c1.6,0,2.3-.8,2.3-1.6,0-2.6-5.2-1.2-5.2-4.9,0-1.8,1.4-3,3.7-3a5.8,5.8,0,0,1,2.8.6l-.5,1.3a4.9,4.9,0,0,0-2.3-.5c-1.4,0-2.1.7-2.1,1.5,0,2.4,5.2,1.1,5.2,4.7,0,1.7-1.2,3.3-3.9,3.3a6.5,6.5,0,0,1-3.2-.8Z"/><path d="M240,218.7V208.2h1.1l.5,1.4a3.8,3.8,0,0,1,3.1-1.6,1.3,1.3,0,0,1,.9.2l-.3,1.5h-.8a3.6,3.6,0,0,0-2.8,1.3v7.8Z"/><path d="M254.6,217.9a5.5,5.5,0,0,1-3.4,1c-3,0-4.9-2.1-4.9-5.3s1.9-5.6,4.6-5.6,3.9,1.9,3.9,4.2a9.7,9.7,0,0,1-.1,1.7h-6.6a3.3,3.3,0,0,0,3.4,3.5,5.9,5.9,0,0,0,2.6-.6Zm-1.4-5.1v-.7c0-1.6-.7-2.6-2.3-2.6s-2.7,1.7-2.8,3.3Z"/><path d="M264.7,218.1a5.2,5.2,0,0,1-3.1.8c-2.6,0-4.8-1.8-4.8-5.3s2.2-5.6,5.3-5.6a5.9,5.9,0,0,1,2.6.6l-.5,1.3a4.1,4.1,0,0,0-2.1-.4c-2.1,0-3.6,1.2-3.6,4.1s1.6,3.8,3.4,3.8a3.8,3.8,0,0,0,2.4-.6Z"/><path d="M270.9,208c3.3,0,4.8,2.4,4.8,5.4s-1.9,5.5-4.9,5.5-4.8-2.4-4.8-5.5S267.9,208,270.9,208Zm-.1,9.4c2.2,0,3.2-1.8,3.2-4s-1-3.9-3.2-3.9-3.1,1.8-3.1,3.9S268.7,217.4,270.8,217.4Z"/><path d="M290.7,218.7v-7.2c0-1.4-.7-2-2.1-2a3.7,3.7,0,0,0-2.4,1v8.2h-1.7v-7.2c0-1.5-.7-2-2-2a3.7,3.7,0,0,0-2.4,1v8.2h-1.7V208.2h1l.7,1a4.1,4.1,0,0,1,2.8-1.2,3,3,0,0,1,2.9,1.4A5.1,5.1,0,0,1,289,208c2.3,0,3.4,1.3,3.4,3.5v7.2Z"/><path d="M303.2,217.9a5.7,5.7,0,0,1-3.4,1c-3,0-4.9-2.1-4.9-5.3s1.8-5.6,4.6-5.6,3.9,1.9,3.9,4.2a9.7,9.7,0,0,1-.1,1.7h-6.6a3.2,3.2,0,0,0,3.4,3.5,5.9,5.9,0,0,0,2.6-.6Zm-1.4-5.1v-.7c0-1.6-.7-2.6-2.4-2.6s-2.7,1.7-2.7,3.3Z"/><path d="M312.7,218.7v-7.2c0-1.7-.9-2-2-2a5.3,5.3,0,0,0-2.9,1v8.2h-1.6V208.2h1l.6,1A4.9,4.9,0,0,1,311,208c2.7,0,3.4,1.5,3.4,3.5v7.2Z"/><path d="M324.8,218.7l-.5-1a4.5,4.5,0,0,1-2.9,1.2c-2.6,0-4.5-2.2-4.5-5.2s2-5.7,5-5.7a5.7,5.7,0,0,1,2.3.5V203h1.7v15.7Zm-.6-8.7a4.2,4.2,0,0,0-2.1-.5c-2.1,0-3.4,1.5-3.4,4s1.2,3.9,3,3.9a3.8,3.8,0,0,0,2.5-1Z"/><path d="M337.8,218.6a4.2,4.2,0,0,1-1.3.3,1.7,1.7,0,0,1-1.7-1.2,5,5,0,0,1-3.3,1.2,2.7,2.7,0,0,1-3-2.7c0-2.7,2.7-3.3,6.2-3.3,0-1.9,0-3.4-2.3-3.4a6.1,6.1,0,0,0-2.8.6l-.4-1.3a7.4,7.4,0,0,1,3.4-.8c3.3,0,3.8,1.8,3.8,4.6v3.8c0,.7.1,1.1.7,1.1h.4Zm-3.1-4.6c-2.6,0-4.4.4-4.4,2a1.5,1.5,0,0,0,1.7,1.5,3.7,3.7,0,0,0,2.7-1.1Z"/><path d="M347.1,218.1a5.2,5.2,0,0,1-3.1.8c-2.6,0-4.8-1.8-4.8-5.3s2.2-5.6,5.3-5.6a5.9,5.9,0,0,1,2.6.6l-.5,1.3a4.1,4.1,0,0,0-2.1-.4c-2.1,0-3.6,1.2-3.6,4.1s1.6,3.8,3.4,3.8a3.8,3.8,0,0,0,2.4-.6Z"/><path d="M350.1,206a1,1,0,0,1-1-1.1,1.1,1.1,0,1,1,2.1.1A1,1,0,0,1,350.1,206Zm2.2,12.6a2.7,2.7,0,0,1-1.3.3c-1.4,0-1.8-1-1.8-2.1v-8.6h1.7v8.4c0,.4.1.8.7.8h.4Z"/><path d="M358.8,208c3.3,0,4.8,2.4,4.8,5.4s-2,5.5-5,5.5-4.8-2.4-4.8-5.5S355.7,208,358.8,208Zm-.1,9.4c2.1,0,3.1-1.8,3.1-4s-1-3.9-3.1-3.9-3.1,1.8-3.1,3.9S356.5,217.4,358.7,217.4Z"/><path d="M372.8,218.7v-7.2c0-1.7-.9-2-2.1-2a5,5,0,0,0-2.8,1v8.2h-1.7V208.2h1l.7,1a4.9,4.9,0,0,1,3.2-1.2c2.6,0,3.4,1.5,3.4,3.5v7.2Z"/><path d="M385.3,217.9a5.7,5.7,0,0,1-3.4,1c-3,0-4.9-2.1-4.9-5.3s1.8-5.6,4.6-5.6,3.9,1.9,3.9,4.2a9.7,9.7,0,0,1-.1,1.7h-6.6a3.3,3.3,0,0,0,3.4,3.5,5.9,5.9,0,0,0,2.6-.6Zm-1.4-5.1v-.7c0-1.6-.7-2.6-2.4-2.6s-2.7,1.7-2.7,3.3Z"/><path d="M388.1,216.8a5.7,5.7,0,0,0,2.7.7c1.6,0,2.2-.8,2.2-1.6,0-2.6-5.2-1.2-5.2-4.9,0-1.8,1.5-3,3.7-3a6.3,6.3,0,0,1,2.9.6l-.5,1.3a5.2,5.2,0,0,0-2.3-.5c-1.5,0-2.1.7-2.1,1.5,0,2.4,5.2,1.1,5.2,4.7,0,1.7-1.3,3.3-4,3.3a6.4,6.4,0,0,1-3.1-.8Z"/><path d="M402.3,216.8a5.7,5.7,0,0,0,2.7.7c1.6,0,2.3-.8,2.3-1.6,0-2.6-5.2-1.2-5.2-4.9,0-1.8,1.4-3,3.7-3a5.8,5.8,0,0,1,2.8.6l-.5,1.3a4.9,4.9,0,0,0-2.3-.5c-1.4,0-2.1.7-2.1,1.5,0,2.4,5.2,1.1,5.2,4.7,0,1.7-1.2,3.3-3.9,3.3a6.8,6.8,0,0,1-3.2-.8Z"/><path d="M415.7,208c3.3,0,4.8,2.4,4.8,5.4s-1.9,5.5-4.9,5.5-4.8-2.4-4.8-5.5S412.7,208,415.7,208Zm-.1,9.4c2.2,0,3.2-1.8,3.2-4s-1-3.9-3.2-3.9-3.1,1.8-3.1,3.9S413.5,217.4,415.6,217.4Z"/><path d="M429.7,218.7v-7.2c0-1.7-.8-2-2-2a5,5,0,0,0-2.8,1v8.2h-1.7V208.2h1l.6,1a5.5,5.5,0,0,1,3.3-1.2c2.6,0,3.3,1.5,3.3,3.5v7.2Z"/><path d="M446.9,218.7l-.6-1a4.6,4.6,0,0,1-3,1.2c-2.5,0-3.4-1.7-3.4-3.7v-7h1.7v7c0,1.6.9,2.2,2,2.2a3.5,3.5,0,0,0,2.6-1.1v-8.1h1.7v10.5Z"/><path d="M458,218.7v-7.2c0-1.7-.9-2-2.1-2a5,5,0,0,0-2.8,1v8.2h-1.7V208.2h1l.7,1a4.9,4.9,0,0,1,3.2-1.2c2.6,0,3.3,1.5,3.3,3.5v7.2Z"/><path d="M471.2,218.6a2.7,2.7,0,0,1-1.3.3c-1.4,0-1.8-1-1.8-2.1V203h1.7v13.6c0,.4.1.8.7.8h.4Z"/><path d="M476.6,218.6a2.7,2.7,0,0,1-1.3.3c-1.4,0-1.8-1-1.8-2.1V203h1.7v13.6c0,.4.1.8.8.8h.3Z"/><path d="M487.3,218.6a3.5,3.5,0,0,1-1.2.3,1.8,1.8,0,0,1-1.8-1.2,4.5,4.5,0,0,1-3.2,1.2,2.7,2.7,0,0,1-3-2.7c0-2.7,2.7-3.3,6.2-3.3,0-1.9,0-3.4-2.4-3.4a5.7,5.7,0,0,0-2.7.6l-.4-1.3a7.1,7.1,0,0,1,3.4-.8c3.2,0,3.8,1.8,3.8,4.6v3.8c0,.7.1,1.1.7,1.1h.4Zm-3-4.6c-2.7,0-4.5.4-4.5,2a1.6,1.6,0,0,0,1.7,1.5,3.9,3.9,0,0,0,2.8-1.1Z"/><path d="M501.8,218.7v-7.2c0-1.4-.7-2-2.1-2a3.7,3.7,0,0,0-2.3,1v8.2h-1.7v-7.2c0-1.5-.8-2-2.1-2a4.1,4.1,0,0,0-2.4,1v8.2h-1.7V208.2h1.1l.6,1A4.1,4.1,0,0,1,494,208c1.9,0,2.6.8,2.9,1.4a5.5,5.5,0,0,1,3.2-1.4c2.3,0,3.4,1.3,3.4,3.5v7.2Z"/><path d="M515.2,218.6a3.5,3.5,0,0,1-1.3.3,1.7,1.7,0,0,1-1.7-1.2,5,5,0,0,1-3.3,1.2,2.6,2.6,0,0,1-2.9-2.7c0-2.7,2.7-3.3,6.1-3.3,0-1.9,0-3.4-2.3-3.4a5.4,5.4,0,0,0-2.7.6l-.5-1.3a7.4,7.4,0,0,1,3.4-.8c3.3,0,3.8,1.8,3.8,4.6v3.8c0,.7.1,1.1.8,1.1h.3Zm-3.1-4.6c-2.6,0-4.4.4-4.4,2a1.5,1.5,0,0,0,1.7,1.5,3.5,3.5,0,0,0,2.7-1.1Z"/><path d="M524.4,218.7l-.4-1a4.5,4.5,0,0,1-2.9,1.2c-2.7,0-4.5-2.2-4.5-5.2s2-5.7,5-5.7a5.7,5.7,0,0,1,2.3.5V203h1.7v15.7Zm-.5-8.7a4.4,4.4,0,0,0-2.2-.5c-2.1,0-3.3,1.5-3.3,4s1.2,3.9,3,3.9a3.8,3.8,0,0,0,2.5-1Z"/><path d="M533.2,208c3.3,0,4.8,2.4,4.8,5.4s-1.9,5.5-4.9,5.5-4.8-2.4-4.8-5.5S530.2,208,533.2,208Zm-.1,9.4c2.2,0,3.1-1.8,3.1-4s-.9-3.9-3.1-3.9-3.1,1.8-3.1,3.9S531,217.4,533.1,217.4Z"/><path d="M554.2,218.6a4.2,4.2,0,0,1-1.3.3,1.9,1.9,0,0,1-1.8-1.2,4.5,4.5,0,0,1-3.2,1.2,2.7,2.7,0,0,1-3-2.7c0-2.7,2.7-3.3,6.2-3.3,0-1.9,0-3.4-2.3-3.4a5.8,5.8,0,0,0-2.8.6l-.4-1.3a7.4,7.4,0,0,1,3.4-.8c3.3,0,3.8,1.8,3.8,4.6v3.8c0,.7.1,1.1.7,1.1h.4Zm-3.1-4.6c-2.7,0-4.4.4-4.4,2a1.5,1.5,0,0,0,1.6,1.5,3.8,3.8,0,0,0,2.8-1.1Z"/><path d="M559.4,218.6a2.5,2.5,0,0,1-1.2.3c-1.4,0-1.8-1-1.8-2.1V203h1.7v13.6c0,.4,0,.8.7.8h.4Z"/><path d="M187.8,243.6V230.1h8v1.4h-6.3V236h5.2v1.4h-5.2v4.8h6.6v1.4Z"/><path d="M198.3,241.8a7.2,7.2,0,0,0,2.7.6c1.6,0,2.3-.7,2.3-1.6,0-2.5-5.2-1.2-5.2-4.8,0-1.9,1.4-3.1,3.7-3.1a5.8,5.8,0,0,1,2.8.6l-.5,1.3a6.6,6.6,0,0,0-2.3-.5c-1.4,0-2.1.7-2.1,1.5,0,2.4,5.2,1.1,5.2,4.8,0,1.7-1.2,3.2-3.9,3.2a5.6,5.6,0,0,1-3.2-.8Z"/><path d="M212.9,243.3a3.7,3.7,0,0,1-2,.5c-1.9,0-2.9-1.1-2.9-3.3v-6.1h-1.9v-1.3H208v-2.2l1.6-.4v2.6h3.3v1.3h-3.3v6.1c0,1.3.7,1.8,1.6,1.8a2.6,2.6,0,0,0,1.4-.3Z"/><path d="M223.6,243.5a2.3,2.3,0,0,1-1.3.3,1.7,1.7,0,0,1-1.7-1.2,5,5,0,0,1-3.3,1.2,2.6,2.6,0,0,1-2.9-2.6c0-2.8,2.7-3.3,6.1-3.3,0-1.9,0-3.5-2.3-3.5a6.7,6.7,0,0,0-2.7.6l-.5-1.3a7.4,7.4,0,0,1,3.4-.8c3.3,0,3.8,1.8,3.8,4.7v3.7c0,.7.1,1.1.8,1.1h.3Zm-3.1-4.5c-2.6,0-4.4.4-4.4,1.9a1.5,1.5,0,0,0,1.7,1.5,3.5,3.5,0,0,0,2.7-1.1Z"/><path d="M232.8,243.6l-.4-1a4.5,4.5,0,0,1-2.9,1.2c-2.7,0-4.5-2.2-4.5-5.2s2-5.7,5-5.7a5.7,5.7,0,0,1,2.3.5V228H234v15.6Zm-.5-8.7a4.4,4.4,0,0,0-2.2-.5c-2.1,0-3.3,1.5-3.3,4s1.2,3.9,3,3.9a3.8,3.8,0,0,0,2.5-1Z"/><path d="M241.6,232.9c3.3,0,4.8,2.5,4.8,5.5s-1.9,5.4-4.9,5.4-4.8-2.4-4.8-5.4S238.6,232.9,241.6,232.9Zm-.1,9.4c2.2,0,3.1-1.7,3.1-3.9s-.9-4-3.1-4-3.1,1.8-3.1,4S239.4,242.3,241.5,242.3Z"/><path d="M262.6,243.5a2.5,2.5,0,0,1-1.3.3,1.9,1.9,0,0,1-1.8-1.2,4.5,4.5,0,0,1-3.2,1.2c-1.7,0-3-1-3-2.6s2.7-3.3,6.2-3.3c0-1.9,0-3.5-2.3-3.5a7.3,7.3,0,0,0-2.8.6l-.4-1.3a7.4,7.4,0,0,1,3.4-.8c3.3,0,3.8,1.8,3.8,4.7v3.7c0,.7.1,1.1.7,1.1h.4Zm-3.1-4.5c-2.7,0-4.4.4-4.4,1.9a1.5,1.5,0,0,0,1.6,1.5,3.8,3.8,0,0,0,2.8-1.1Z"/><path d="M271.6,234.1a5.5,5.5,0,0,1,3.2-1.2c2.6,0,3.3,1.5,3.3,3.6v7.1h-1.6v-7.1c0-1.7-.9-2.1-2.1-2.1a4.4,4.4,0,0,0-2.8,1.1v8.1h-1.7V228h1.7Z"/><path d="M285.6,232.9c3.3,0,4.8,2.5,4.8,5.5s-1.9,5.4-4.9,5.4-4.8-2.4-4.8-5.4S282.6,232.9,285.6,232.9Zm-.1,9.4c2.2,0,3.2-1.7,3.2-3.9s-1-4-3.2-4-3.1,1.8-3.1,4S283.4,242.3,285.5,242.3Z"/><path d="M299.6,243.6v-7.1c0-1.7-.9-2.1-2-2.1a4.2,4.2,0,0,0-2.8,1.1v8.1h-1.7V233.1h1l.6,1a5.8,5.8,0,0,1,3.2-1.2c2.7,0,3.4,1.5,3.4,3.6v7.1Z"/><path d="M304.6,243.6V233.1h1.1l.5,1.5a3.7,3.7,0,0,1,3.1-1.7l1,.2-.4,1.5h-.8a3.6,3.6,0,0,0-2.8,1.4v7.7Z"/><path d="M319.9,243.5a2.3,2.3,0,0,1-1.3.3,1.7,1.7,0,0,1-1.7-1.2,5,5,0,0,1-3.3,1.2,2.6,2.6,0,0,1-2.9-2.6c0-2.8,2.7-3.3,6.1-3.3,0-1.9,0-3.5-2.3-3.5a6.7,6.7,0,0,0-2.7.6l-.5-1.3a7.4,7.4,0,0,1,3.4-.8c3.3,0,3.8,1.8,3.8,4.7v3.7c0,.7.1,1.1.8,1.1h.3Zm-3.1-4.5c-2.6,0-4.4.4-4.4,1.9a1.5,1.5,0,0,0,1.7,1.5,3.5,3.5,0,0,0,2.7-1.1Z"/><path d="M322.1,243.6V233.1h1l.5,1.5a3.8,3.8,0,0,1,3.2-1.7l.9.2-.3,1.5h-.9a3.6,3.6,0,0,0-2.7,1.4v7.7Z"/><path d="M337.8,243.5a2.7,2.7,0,0,1-1.3.3c-1.4,0-1.8-.9-1.8-2.1V228h1.7v13.5c0,.5.1.9.7.9h.4Z"/><path d="M344.3,232.9c3.3,0,4.8,2.5,4.8,5.5s-1.9,5.4-5,5.4-4.8-2.4-4.8-5.4S341.3,232.9,344.3,232.9Zm-.1,9.4c2.1,0,3.1-1.7,3.1-3.9s-1-4-3.1-4-3.1,1.8-3.1,4S342,242.3,344.2,242.3Z"/><path d="M351.6,241.8a6.7,6.7,0,0,0,2.7.6c1.6,0,2.2-.7,2.2-1.6,0-2.5-5.2-1.2-5.2-4.8,0-1.9,1.5-3.1,3.7-3.1a5.5,5.5,0,0,1,2.8.6l-.4,1.3a7.8,7.8,0,0,0-2.3-.5c-1.5,0-2.2.7-2.2,1.5,0,2.4,5.3,1.1,5.3,4.8,0,1.7-1.3,3.2-4,3.2a5.4,5.4,0,0,1-3.1-.8Z"/><path d="M373.1,243.1a6.2,6.2,0,0,1-3.1.7c-2.6,0-4.8-1.8-4.8-5.3s2.2-5.6,5.2-5.6a5.5,5.5,0,0,1,2.6.6l-.4,1.4a4.5,4.5,0,0,0-2.2-.5c-2,0-3.5,1.2-3.5,4.1s1.6,3.8,3.4,3.8a4.8,4.8,0,0,0,2.4-.5Z"/><path d="M379.3,232.9c3.3,0,4.8,2.5,4.8,5.5s-1.9,5.4-4.9,5.4-4.8-2.4-4.8-5.4S376.3,232.9,379.3,232.9Zm-.1,9.4c2.2,0,3.2-1.7,3.2-3.9s-1-4-3.2-4-3.1,1.8-3.1,4S377.1,242.3,379.2,242.3Z"/><path d="M399.1,243.6v-7.1c0-1.5-.7-2.1-2.1-2.1a3.6,3.6,0,0,0-2.4,1.1v8.1h-1.7v-7.1c0-1.6-.7-2.1-2-2.1a3.6,3.6,0,0,0-2.4,1.1v8.1h-1.7V233.1h1l.6,1a4.4,4.4,0,0,1,2.8-1.2,3.2,3.2,0,0,1,3,1.4,5.1,5.1,0,0,1,3.2-1.4c2.3,0,3.3,1.3,3.3,3.6v7.1Z"/><path d="M404.1,247.8V233.1h1.1l.5,1a4.5,4.5,0,0,1,2.9-1.2c2.8,0,4.5,2.3,4.5,5.2s-2,5.7-5,5.7a5.7,5.7,0,0,1-2.3-.5v4.5Zm1.7-6a4.4,4.4,0,0,0,2.2.5c2,0,3.3-1.5,3.3-4s-1.2-3.9-3-3.9a3.8,3.8,0,0,0-2.5,1Z"/><path d="M415.8,243.6V233.1h1l.5,1.5a3.7,3.7,0,0,1,3.1-1.7l1,.2-.3,1.5h-.9a3.6,3.6,0,0,0-2.8,1.4v7.7Z"/><path d="M427,232.9c3.3,0,4.8,2.5,4.8,5.5s-1.9,5.4-5,5.4-4.8-2.4-4.8-5.4S423.9,232.9,427,232.9Zm-.1,9.4c2.1,0,3.1-1.7,3.1-3.9s-1-4-3.1-4-3.1,1.8-3.1,4S424.7,242.3,426.9,242.3Z"/><path d="M446.7,243.6v-7.1c0-1.5-.7-2.1-2.1-2.1a3.5,3.5,0,0,0-2.3,1.1v8.1h-1.7v-7.1c0-1.6-.8-2.1-2.1-2.1a3.9,3.9,0,0,0-2.4,1.1v8.1h-1.7V233.1h1.1l.6,1a4.1,4.1,0,0,1,2.8-1.2,3,3,0,0,1,2.9,1.4,5.5,5.5,0,0,1,3.2-1.4c2.3,0,3.4,1.3,3.4,3.6v7.1Z"/><path d="M452.6,231a1.1,1.1,0,0,1,0-2.2,1,1,0,0,1,1.1,1.1A1,1,0,0,1,452.6,231Zm2.2,12.5a2.7,2.7,0,0,1-1.3.3c-1.4,0-1.8-.9-1.8-2.1v-8.6h1.7v8.4c0,.5.1.9.7.9h.4Z"/><path d="M457,241.8a6.7,6.7,0,0,0,2.7.6c1.6,0,2.2-.7,2.2-1.6,0-2.5-5.2-1.2-5.2-4.8,0-1.9,1.5-3.1,3.7-3.1a5.5,5.5,0,0,1,2.8.6l-.4,1.3a7.8,7.8,0,0,0-2.3-.5c-1.5,0-2.2.7-2.2,1.5,0,2.4,5.3,1.1,5.3,4.8,0,1.7-1.3,3.2-4,3.2a5.4,5.4,0,0,1-3.1-.8Z"/><path d="M470.4,232.9c3.3,0,4.8,2.5,4.8,5.5s-1.9,5.4-5,5.4-4.8-2.4-4.8-5.4S467.4,232.9,470.4,232.9Zm-.1,9.4c2.1,0,3.1-1.7,3.1-3.9s-1-4-3.1-4-3.1,1.8-3.1,4S468.1,242.3,470.3,242.3Z"/><path d="M477.7,241.8a6.7,6.7,0,0,0,2.7.6c1.6,0,2.2-.7,2.2-1.6,0-2.5-5.2-1.2-5.2-4.8,0-1.9,1.5-3.1,3.7-3.1a5.5,5.5,0,0,1,2.8.6l-.4,1.3a7.8,7.8,0,0,0-2.4-.5c-1.4,0-2.1.7-2.1,1.5,0,2.4,5.3,1.1,5.3,4.8,0,1.7-1.3,3.2-4,3.2a5.4,5.4,0,0,1-3.1-.8Z"/><path d="M196,268.4a2.5,2.5,0,0,1-1.3.3,1.6,1.6,0,0,1-1.7-1.2,5,5,0,0,1-3.3,1.2c-1.7,0-3-.9-3-2.6s2.7-3.3,6.2-3.3c0-1.9,0-3.5-2.3-3.5a5.8,5.8,0,0,0-2.8.7l-.4-1.4a9.1,9.1,0,0,1,3.4-.7c3.3,0,3.8,1.7,3.8,4.6v3.8c0,.6.1,1,.7,1h.4Zm-3.1-4.5c-2.6,0-4.4.4-4.4,2a1.6,1.6,0,0,0,1.7,1.5,4.1,4.1,0,0,0,2.7-1.1Z"/><path d="M198,266.7a7.2,7.2,0,0,0,2.7.6c1.6,0,2.2-.7,2.2-1.6,0-2.5-5.1-1.2-5.1-4.8,0-1.8,1.4-3,3.7-3a6,6,0,0,1,2.8.5l-.5,1.4a5.2,5.2,0,0,0-2.3-.5c-1.5,0-2.1.6-2.1,1.5s5.2,1.1,5.2,4.7c0,1.7-1.3,3.2-4,3.2a6.5,6.5,0,0,1-3.1-.7Z"/><path d="M214.3,268.5l-.6-1a4.2,4.2,0,0,1-3,1.2c-2.5,0-3.4-1.7-3.4-3.7v-6.9H209V265c0,1.7.9,2.3,2,2.3a3.5,3.5,0,0,0,2.6-1.1v-8.1h1.7v10.4Z"/><path d="M231.1,268.5v-7.1a1.9,1.9,0,0,0-2.1-2.1,3.6,3.6,0,0,0-2.4,1.1v8.1h-1.7v-7.1c0-1.5-.7-2.1-2-2.1a3.6,3.6,0,0,0-2.4,1.1v8.1h-1.7V258.1h1l.6,1a4.4,4.4,0,0,1,2.8-1.2,3.2,3.2,0,0,1,3,1.3,5.3,5.3,0,0,1,3.2-1.3c2.3,0,3.3,1.3,3.3,3.5v7.1Z"/><path d="M237,255.9a1.1,1.1,0,0,1,0-2.2c.7,0,1.1.4,1.1,1.2A1,1,0,0,1,237,255.9Zm2.1,12.5a2.5,2.5,0,0,1-1.2.3c-1.4,0-1.8-.9-1.8-2.1v-8.5h1.7v8.4c0,.4.1.8.7.8h.4Z"/><path d="M248.5,268.5l-.4-.9a4.7,4.7,0,0,1-2.9,1.1c-2.7,0-4.5-2.2-4.5-5.1s2-5.7,5-5.7a5.7,5.7,0,0,1,2.3.5v-5.5h1.7v15.6Zm-.5-8.7a4.4,4.4,0,0,0-2.2-.5c-2.1,0-3.3,1.6-3.3,4.1s1.2,3.9,3,3.9a3.8,3.8,0,0,0,2.5-1Z"/><path d="M257.3,257.9c3.3,0,4.8,2.4,4.8,5.4s-1.9,5.4-4.9,5.4-4.8-2.4-4.8-5.4S254.3,257.9,257.3,257.9Zm-.1,9.4c2.2,0,3.2-1.8,3.2-4s-1-4-3.2-4-3.1,1.8-3.1,4S255.1,267.3,257.2,267.3Z"/><path d="M264.6,266.7a7.2,7.2,0,0,0,2.7.6c1.6,0,2.2-.7,2.2-1.6,0-2.5-5.2-1.2-5.2-4.8,0-1.8,1.5-3,3.7-3a6.5,6.5,0,0,1,2.9.5l-.5,1.4a5.2,5.2,0,0,0-2.3-.5c-1.5,0-2.1.6-2.1,1.5s5.2,1.1,5.2,4.7c0,1.7-1.3,3.2-4,3.2a6.5,6.5,0,0,1-3.1-.7Z"/><path d="M286.5,267.8a5.8,5.8,0,0,1-3.4.9c-3,0-4.9-2-4.9-5.3s1.9-5.5,4.6-5.5,3.9,1.9,3.9,4.2a9.7,9.7,0,0,1-.1,1.7H280a3.3,3.3,0,0,0,3.4,3.5,4.7,4.7,0,0,0,2.6-.7Zm-1.4-5.1V262c0-1.6-.7-2.6-2.3-2.6s-2.7,1.6-2.8,3.3Z"/><path d="M296,268.5v-7.1c0-1.7-.9-2.1-2-2.1a4.8,4.8,0,0,0-2.8,1.1v8.1h-1.7V258.1h1l.6,1a5.2,5.2,0,0,1,3.2-1.2c2.7,0,3.4,1.5,3.4,3.5v7.1Z"/><path d="M313.7,267.8a5.8,5.8,0,0,1-3.4.9c-3,0-4.9-2-4.9-5.3s1.8-5.5,4.6-5.5,3.9,1.9,3.9,4.2a9.7,9.7,0,0,1-.1,1.7h-6.6a3.2,3.2,0,0,0,3.4,3.5,5,5,0,0,0,2.6-.7Zm-1.4-5.1V262c0-1.6-.7-2.6-2.4-2.6s-2.7,1.6-2.7,3.3Z"/><path d="M319.7,268.4a2.7,2.7,0,0,1-1.3.3c-1.3,0-1.7-.9-1.7-2.1V252.9h1.6v13.6c0,.4.1.8.8.8h.3Z"/><path d="M335.4,268.5l-1.3-3.8h-5.5l-1.3,3.8h-1.6l4.5-13.5h2.1l5,13.5Zm-4.2-12-2.2,6.8h4.6Z"/><path d="M346.3,268a6.2,6.2,0,0,1-3.1.7c-2.6,0-4.8-1.8-4.8-5.3s2.2-5.5,5.3-5.5a4.4,4.4,0,0,1,2.5.6l-.4,1.3a4.1,4.1,0,0,0-2.1-.5c-2.1,0-3.6,1.3-3.6,4.1s1.6,3.9,3.4,3.9a4.6,4.6,0,0,0,2.4-.6Z"/><path d="M355.4,268.5l-.6-1a4.2,4.2,0,0,1-3,1.2c-2.5,0-3.4-1.7-3.4-3.7v-6.9h1.7V265c0,1.7.9,2.3,2,2.3a3.5,3.5,0,0,0,2.6-1.1v-8.1h1.7v10.4Z"/><path d="M367.4,267.8a5.5,5.5,0,0,1-3.4.9c-3,0-4.9-2-4.9-5.3s1.9-5.5,4.6-5.5,3.9,1.9,3.9,4.2a9.7,9.7,0,0,1-.1,1.7h-6.6a3.3,3.3,0,0,0,3.4,3.5,4.7,4.7,0,0,0,2.6-.7Zm-1.4-5.1V262c0-1.6-.7-2.6-2.3-2.6s-2.7,1.6-2.8,3.3Z"/><path d="M370.4,268.5V258.1h1l.5,1.4a4,4,0,0,1,3.2-1.6h.9l-.3,1.6-.9-.2a3.4,3.4,0,0,0-2.7,1.4v7.7Z"/><path d="M384.5,268.5l-.5-.9a4.3,4.3,0,0,1-2.8,1.1c-2.7,0-4.5-2.2-4.5-5.1s2-5.7,4.9-5.7a5.9,5.9,0,0,1,2.4.5v-5.5h1.7v15.6Zm-.5-8.7a4.9,4.9,0,0,0-2.2-.5c-2.1,0-3.4,1.6-3.4,4.1s1.3,3.9,3.1,3.9a3.8,3.8,0,0,0,2.5-1Z"/><path d="M393.3,257.9c3.3,0,4.8,2.4,4.8,5.4s-1.9,5.4-5,5.4-4.8-2.4-4.8-5.4S390.3,257.9,393.3,257.9Zm-.1,9.4c2.1,0,3.1-1.8,3.1-4s-1-4-3.1-4-3.1,1.8-3.1,4S391,267.3,393.2,267.3Z"/><path d="M406,268.5V255h7.7v1.4h-6v4.8h4.9v1.4h-4.9v5.9Z"/><path d="M416.8,255.9a1,1,0,0,1-1.1-1.1,1.1,1.1,0,0,1,1.1-1.1,1.1,1.1,0,0,1,1.1,1.2A1.1,1.1,0,0,1,416.8,255.9Zm2.1,12.5a2.7,2.7,0,0,1-1.3.3c-1.4,0-1.8-.9-1.8-2.1v-8.5h1.7v8.4c0,.4.1.8.8.8h.3Z"/><path d="M427.8,268.5v-7.1c0-1.7-.9-2.1-2-2.1a4.8,4.8,0,0,0-2.8,1.1v8.1h-1.7V258.1h1l.6,1a4.9,4.9,0,0,1,3.2-1.2c2.7,0,3.4,1.5,3.4,3.5v7.1Z"/><path d="M441.2,268.4a2.1,2.1,0,0,1-1.2.3,1.7,1.7,0,0,1-1.8-1.2,4.8,4.8,0,0,1-3.3,1.2,2.6,2.6,0,0,1-2.9-2.6c0-2.7,2.7-3.3,6.2-3.3,0-1.9-.1-3.5-2.4-3.5a5.4,5.4,0,0,0-2.7.7l-.4-1.4a8.3,8.3,0,0,1,3.4-.7c3.2,0,3.7,1.7,3.7,4.6v3.8c0,.6.1,1,.8,1h.3Zm-3-4.5c-2.7,0-4.5.4-4.5,2a1.6,1.6,0,0,0,1.7,1.5,4.4,4.4,0,0,0,2.8-1.1Z"/><path d="M446.5,268.4a2.7,2.7,0,0,1-1.3.3c-1.4,0-1.8-.9-1.8-2.1V252.9h1.7v13.6c0,.4.1.8.7.8h.4Z"/><path d="M461,268.5l-.5-.9a4.3,4.3,0,0,1-2.8,1.1c-2.7,0-4.5-2.2-4.5-5.1s2-5.7,4.9-5.7a5.9,5.9,0,0,1,2.4.5v-5.5h1.7v15.6Zm-.5-8.7a4.9,4.9,0,0,0-2.2-.5c-2.1,0-3.4,1.6-3.4,4.1s1.3,3.9,3.1,3.9a3.8,3.8,0,0,0,2.5-1Z"/><path d="M473.2,267.8a6.1,6.1,0,0,1-3.5.9c-2.9,0-4.9-2-4.9-5.3s1.9-5.5,4.7-5.5,3.9,1.9,3.9,4.2a9.9,9.9,0,0,1-.2,1.7h-6.6c.1,1.7,1,3.5,3.4,3.5a5.1,5.1,0,0,0,2.7-.7Zm-1.5-5.1c0-.2.1-.5.1-.7s-.8-2.6-2.4-2.6-2.7,1.6-2.8,3.3Z"/><path d="M481.4,268.5V255h3.9c3.2,0,5,1.4,5,4.3s-1.8,4.3-5,4.3h-2.2v4.9Zm4-6.4c2.3,0,3.1-1.4,3.1-2.8s-.8-2.9-3.1-2.9h-2.3v5.7Z"/><path d="M500.8,268.4a2.5,2.5,0,0,1-1.3.3,1.6,1.6,0,0,1-1.7-1.2,5,5,0,0,1-3.3,1.2c-1.7,0-3-.9-3-2.6s2.7-3.3,6.2-3.3c0-1.9,0-3.5-2.3-3.5a5.8,5.8,0,0,0-2.8.7l-.4-1.4a9.1,9.1,0,0,1,3.4-.7c3.3,0,3.8,1.7,3.8,4.6v3.8c0,.6.1,1,.7,1h.4Zm-3.1-4.5c-2.7,0-4.4.4-4.4,2a1.6,1.6,0,0,0,1.6,1.5,4.2,4.2,0,0,0,2.8-1.1Z"/><path d="M502.1,268.5v-1.3l6-7.7h-5.9v-1.4H510v1.4l-6,7.6h6.1v1.4Z"/><path d="M512.4,271.5a4.2,4.2,0,0,0,1-2.5,1.8,1.8,0,0,0-1.1-1.7,1.3,1.3,0,0,1,1.3-1c1,0,1.4.7,1.4,1.8a5.9,5.9,0,0,1-1.8,3.9Z"/><path d="M531.7,268.4a2.5,2.5,0,0,1-1.3.3,1.7,1.7,0,0,1-1.8-1.2,4.5,4.5,0,0,1-3.2,1.2c-1.7,0-3-.9-3-2.6s2.7-3.3,6.2-3.3c0-1.9,0-3.5-2.3-3.5a5.8,5.8,0,0,0-2.8.7l-.4-1.4a9.1,9.1,0,0,1,3.4-.7c3.2,0,3.8,1.7,3.8,4.6v3.8c0,.6.1,1,.7,1h.4Zm-3.1-4.5c-2.7,0-4.5.4-4.5,2a1.6,1.6,0,0,0,1.7,1.5,4.4,4.4,0,0,0,2.8-1.1Z"/><path d="M187.6,297.7V283h1.2l.4,1a4.5,4.5,0,0,1,2.9-1.2c2.8,0,4.5,2.3,4.5,5.2s-2,5.7-5,5.7a5.7,5.7,0,0,1-2.3-.5v4.5Zm1.7-6a4.9,4.9,0,0,0,2.2.5c2.1,0,3.3-1.5,3.3-4s-1.2-3.9-3-3.9a4.2,4.2,0,0,0-2.5,1Z"/><path d="M203.4,282.8c3.3,0,4.8,2.4,4.8,5.4s-1.9,5.5-4.9,5.5-4.8-2.4-4.8-5.5S200.4,282.8,203.4,282.8Zm-.1,9.4c2.2,0,3.2-1.8,3.2-4s-1-3.9-3.2-3.9-3.1,1.8-3.1,3.9S201.2,292.2,203.3,292.2Z"/><path d="M217.4,293.5v-7.2c0-1.7-.9-2-2-2a5,5,0,0,0-2.8,1v8.2h-1.7V283h1l.6,1a5.4,5.4,0,0,1,3.2-1.2c2.7,0,3.4,1.5,3.4,3.5v7.2Z"/><path d="M230,292.7a6.1,6.1,0,0,1-3.5,1c-2.9,0-4.9-2.1-4.9-5.3s1.9-5.6,4.7-5.6,3.9,1.9,3.9,4.2a9.9,9.9,0,0,1-.2,1.7h-6.6c.1,1.7,1,3.5,3.4,3.5a6.3,6.3,0,0,0,2.7-.6Zm-1.5-5.1c0-.2.1-.5.1-.7s-.8-2.6-2.4-2.6-2.7,1.7-2.7,3.3Z"/><path d="M232.9,293.5V283h1l.5,1.4a4,4,0,0,1,3.2-1.6,1.5,1.5,0,0,1,.9.2l-.3,1.5h-.8a3.6,3.6,0,0,0-2.8,1.3v7.8Z"/><path d="M252.6,293.5l-.6-1a4.7,4.7,0,0,1-3.1,1.2c-2.5,0-3.3-1.7-3.3-3.7v-7h1.6v7a1.9,1.9,0,0,0,2.1,2.2,3.7,3.7,0,0,0,2.6-1.1V283h1.7v10.5Z"/><path d="M263.6,293.5v-7.2c0-1.7-.9-2-2-2a4.7,4.7,0,0,0-2.8,1v8.2h-1.7V283h1l.6,1a4.9,4.9,0,0,1,3.2-1.2c2.7,0,3.4,1.5,3.4,3.5v7.2Z"/><path d="M283.5,293.3a3.2,3.2,0,0,1-1.3.4c-1.7,0-1.8-1.3-1.8-2.4v-7.1h-4.5v13.5h-1.7V284.2h-1.9V283h1.9c0-3.2,1.2-5.4,4.9-5.4a8.7,8.7,0,0,1,3.2.6l-.2,1.3a9.2,9.2,0,0,0-3-.5c-2.5,0-3.2,1.3-3.2,3.6v.4h6.2v8.6c0,.5.3.6.7.6h.6Z"/><path d="M292.4,293.5v-7.2c0-1.7-.9-2-2.1-2a5,5,0,0,0-2.8,1v8.2h-1.7V283h1l.7,1a4.9,4.9,0,0,1,3.2-1.2c2.6,0,3.4,1.5,3.4,3.5v7.2Z"/><path d="M309.6,293.5l-.5-1a4.5,4.5,0,0,1-2.9,1.2c-2.6,0-4.5-2.2-4.5-5.2s2-5.7,5-5.7a5.7,5.7,0,0,1,2.3.5v-5.5h1.7v15.7Zm-.6-8.7a4.2,4.2,0,0,0-2.1-.5c-2.1,0-3.4,1.5-3.4,4s1.2,3.9,3,3.9a3.8,3.8,0,0,0,2.5-1Z"/><path d="M321.7,292.7a5.7,5.7,0,0,1-3.4,1c-3,0-4.9-2.1-4.9-5.3s1.8-5.6,4.6-5.6,3.9,1.9,3.9,4.2a9.7,9.7,0,0,1-.1,1.7h-6.6a3.3,3.3,0,0,0,3.4,3.5,5.9,5.9,0,0,0,2.6-.6Zm-1.4-5.1v-.7c0-1.6-.7-2.6-2.4-2.6s-2.7,1.7-2.7,3.3Z"/><path d="M334.4,293.3a3.2,3.2,0,0,1-1.3.4c-1.7,0-1.8-1.3-1.8-2.4v-7.1h-4.5v13.5h-1.7V284.2h-1.9V283h1.9c0-3.2,1.2-5.4,4.9-5.4a8.7,8.7,0,0,1,3.2.6l-.2,1.3a9.2,9.2,0,0,0-3-.5c-2.5,0-3.2,1.3-3.2,3.6v.4H333v8.6c0,.5.3.6.7.6h.6Z"/><path d="M343.3,293.5v-7.2c0-1.7-.9-2-2.1-2a5,5,0,0,0-2.8,1v8.2h-1.7V283h1l.7,1a4.9,4.9,0,0,1,3.2-1.2c2.6,0,3.4,1.5,3.4,3.5v7.2Z"/><path d="M349.2,280.8a1,1,0,0,1-1-1.1,1.1,1.1,0,0,1,2.1.1A1,1,0,0,1,349.2,280.8Zm2.2,12.5a2.6,2.6,0,0,1-1.3.4c-1.4,0-1.8-1-1.8-2.1V283H350v8.4c0,.4.1.8.7.8h.4Z"/><path d="M359,293.2a3.7,3.7,0,0,1-2,.5c-1.9,0-2.9-1.1-2.9-3.4v-6.1h-1.9V283h1.9v-2.2l1.7-.5V283H359v1.2h-3.2v6.2c0,1.3.6,1.8,1.6,1.8a2.5,2.5,0,0,0,1.3-.3Z"/><path d="M362.3,280.8a1,1,0,0,1-1.1-1.1,1,1,0,0,1,1.1-1,1,1,0,0,1,1.1,1.1A1.1,1.1,0,0,1,362.3,280.8Zm2.1,12.5a2.2,2.2,0,0,1-1.3.4c-1.4,0-1.8-1-1.8-2.1V283H363v8.4c0,.4.1.8.8.8h.3Z"/><path d="M368.9,293.5,365.1,283h1.8l3,9h.1l3.1-9h1.6L371,293.5Z"/><path d="M380.7,282.8c3.3,0,4.8,2.4,4.8,5.4s-1.9,5.5-5,5.5-4.8-2.4-4.8-5.5S377.7,282.8,380.7,282.8Zm-.1,9.4c2.1,0,3.1-1.8,3.1-4s-1-3.9-3.1-3.9-3.1,1.8-3.1,3.9S378.4,292.2,380.6,292.2Z"/><path d="M401.7,293.3a2.5,2.5,0,0,1-1.3.4,1.9,1.9,0,0,1-1.8-1.2,4.5,4.5,0,0,1-3.2,1.2,2.7,2.7,0,0,1-3-2.7c0-2.7,2.7-3.3,6.2-3.3,0-1.9,0-3.4-2.3-3.4a5.8,5.8,0,0,0-2.8.6l-.4-1.3a7.4,7.4,0,0,1,3.4-.8c3.2,0,3.8,1.8,3.8,4.6v3.8c0,.7.1,1.1.7,1.1h.4Zm-3.1-4.5c-2.7,0-4.5.4-4.5,2a1.6,1.6,0,0,0,1.7,1.5,3.9,3.9,0,0,0,2.8-1.1Z"/><path d="M412,293.3a2.1,2.1,0,0,1-1.2.4c-1.4,0-1.8-1-1.8-2.1V277.8h1.7v13.6c0,.4.1.8.7.8h.4Z"/><path d="M422.8,293.3a2.5,2.5,0,0,1-1.3.4,1.7,1.7,0,0,1-1.7-1.2,5,5,0,0,1-3.3,1.2,2.7,2.7,0,0,1-3-2.7c0-2.7,2.7-3.3,6.2-3.3,0-1.9,0-3.4-2.3-3.4a5.8,5.8,0,0,0-2.8.6l-.4-1.3a7.4,7.4,0,0,1,3.4-.8c3.3,0,3.8,1.8,3.8,4.6v3.8c0,.7.1,1.1.7,1.1h.4Zm-3.1-4.5c-2.6,0-4.4.4-4.4,2a1.5,1.5,0,0,0,1.6,1.5,3.8,3.8,0,0,0,2.8-1.1Z"/><path d="M437.2,292.9a6.1,6.1,0,0,1-3.1.8c-2.5,0-4.8-1.8-4.8-5.3s2.3-5.6,5.3-5.6a5.5,5.5,0,0,1,2.6.6l-.5,1.3a3.9,3.9,0,0,0-2.1-.4c-2.1,0-3.5,1.2-3.5,4.1s1.5,3.8,3.3,3.8a3.7,3.7,0,0,0,2.4-.6Z"/><path d="M443.5,282.8c3.3,0,4.8,2.4,4.8,5.4s-2,5.5-5,5.5-4.8-2.4-4.8-5.5S440.4,282.8,443.5,282.8Zm-.1,9.4c2.1,0,3.1-1.8,3.1-4s-1-3.9-3.1-3.9-3.1,1.8-3.1,3.9S441.2,292.2,443.4,292.2Z"/><path d="M457.5,293.5v-7.2c0-1.7-.9-2-2.1-2a5,5,0,0,0-2.8,1v8.2h-1.7V283H452l.6,1a4.9,4.9,0,0,1,3.2-1.2c2.6,0,3.4,1.5,3.4,3.5v7.2Z"/><path d="M463,297.7V284.2h-2V283h2v-.4c0-2.9,1.5-4.9,4.2-4.9a5.5,5.5,0,0,1,1.8.2l-.4,1.3h-1.2c-1.9,0-2.8,1.2-2.8,3.2v.7h3v1.2h-3v13.5Z"/><path d="M469.1,293.5V283h1.1l.5,1.4a3.8,3.8,0,0,1,3.1-1.6,1.8,1.8,0,0,1,1,.2l-.4,1.5h-.8a3.6,3.6,0,0,0-2.8,1.3v7.8Z"/><path d="M480.3,282.8c3.3,0,4.8,2.4,4.8,5.4s-1.9,5.5-4.9,5.5-4.8-2.4-4.8-5.5S477.3,282.8,480.3,282.8Zm0,9.4c2.1,0,3.1-1.8,3.1-4s-1-3.9-3.1-3.9-3.2,1.8-3.2,3.9S478.1,292.2,480.3,292.2Z"/><path d="M494.4,293.5v-7.2c0-1.7-.9-2-2.1-2a5,5,0,0,0-2.8,1v8.2h-1.7V283h1l.7,1a4.9,4.9,0,0,1,3.2-1.2c2.6,0,3.3,1.5,3.3,3.5v7.2Z"/><path d="M504.7,293.2a3.7,3.7,0,0,1-2,.5c-1.9,0-3-1.1-3-3.4v-6.1h-1.8V283h1.8v-2.2l1.7-.5V283h3.3v1.2h-3.3v6.2c0,1.3.7,1.8,1.6,1.8a2.6,2.6,0,0,0,1.4-.3Z"/><path d="M515.4,293.3a2.5,2.5,0,0,1-1.3.4,1.7,1.7,0,0,1-1.7-1.2,5,5,0,0,1-3.3,1.2,2.7,2.7,0,0,1-3-2.7c0-2.7,2.7-3.3,6.2-3.3,0-1.9,0-3.4-2.3-3.4a6.1,6.1,0,0,0-2.8.6l-.4-1.3a7.4,7.4,0,0,1,3.4-.8c3.3,0,3.8,1.8,3.8,4.6v3.8c0,.7.1,1.1.7,1.1h.4Zm-3.1-4.5c-2.6,0-4.4.4-4.4,2a1.5,1.5,0,0,0,1.7,1.5,3.7,3.7,0,0,0,2.7-1.1Z"/><path d="M524.7,292.9a6.1,6.1,0,0,1-3.1.8c-2.6,0-4.8-1.8-4.8-5.3s2.2-5.6,5.3-5.6a5.9,5.9,0,0,1,2.6.6l-.5,1.3a4.1,4.1,0,0,0-2.1-.4c-2.1,0-3.6,1.2-3.6,4.1s1.6,3.8,3.4,3.8a3.8,3.8,0,0,0,2.4-.6Z"/><path d="M527.7,280.8a1,1,0,0,1-1-1.1,1.1,1.1,0,0,1,2.1.1A1,1,0,0,1,527.7,280.8Zm2.2,12.5a2.2,2.2,0,0,1-1.3.4c-1.4,0-1.8-1-1.8-2.1V283h1.7v8.4c0,.4.1.8.7.8h.4Z"/><path d="M536.4,282.8c3.3,0,4.8,2.4,4.8,5.4s-2,5.5-5,5.5-4.8-2.4-4.8-5.5S533.3,282.8,536.4,282.8Zm-.1,9.4c2.1,0,3.1-1.8,3.1-4s-1-3.9-3.1-3.9-3.1,1.8-3.1,3.9S534.1,292.2,536.3,292.2Zm-1.8-11.1,1.9-3h1.9l-2.4,3Z"/><path d="M550.4,293.5v-7.2c0-1.7-.9-2-2.1-2a5,5,0,0,0-2.8,1v8.2h-1.7V283h1l.7,1a4.9,4.9,0,0,1,3.2-1.2c2.6,0,3.4,1.5,3.4,3.5v7.2Z"/><path d="M196,318.3a4.2,4.2,0,0,1-1.3.3,1.7,1.7,0,0,1-1.7-1.2,5,5,0,0,1-3.3,1.2c-1.7,0-3-1-3-2.6s2.7-3.4,6.2-3.4c0-1.8,0-3.4-2.3-3.4a5.8,5.8,0,0,0-2.8.6l-.4-1.3a7.4,7.4,0,0,1,3.4-.8c3.3,0,3.8,1.8,3.8,4.7v3.7c0,.7.1,1.1.7,1.1h.4Zm-3.1-4.5c-2.6,0-4.4.4-4.4,1.9a1.5,1.5,0,0,0,1.7,1.5,3.7,3.7,0,0,0,2.7-1.1Z"/><path d="M198.2,318.4V307.9h1l.5,1.5a3.8,3.8,0,0,1,3.2-1.7l.9.2-.3,1.5h-.9a3.4,3.4,0,0,0-2.7,1.4v7.7Z"/><path d="M218,318.4v-7.1a1.9,1.9,0,0,0-2.1-2.1,3.6,3.6,0,0,0-2.4,1.1v8.1h-1.7v-7.1c0-1.6-.7-2.1-2-2.1a3.6,3.6,0,0,0-2.4,1.1v8.1h-1.7V307.9h1l.6,1a4.4,4.4,0,0,1,2.8-1.2,3.4,3.4,0,0,1,3,1.4,5.1,5.1,0,0,1,3.2-1.4c2.3,0,3.3,1.3,3.3,3.6v7.1Z"/><path d="M231.4,318.3a4.2,4.2,0,0,1-1.3.3,1.8,1.8,0,0,1-1.8-1.2,4.5,4.5,0,0,1-3.2,1.2c-1.7,0-3-1-3-2.6s2.7-3.4,6.2-3.4c0-1.8,0-3.4-2.4-3.4a5.7,5.7,0,0,0-2.7.6l-.4-1.3a7.4,7.4,0,0,1,3.4-.8c3.2,0,3.8,1.8,3.8,4.7v3.7c0,.7.1,1.1.7,1.1h.4Zm-3.1-4.5c-2.7,0-4.5.4-4.5,1.9a1.6,1.6,0,0,0,1.7,1.5,3.9,3.9,0,0,0,2.8-1.1Z"/><path d="M240.6,318.4l-.5-1a4.2,4.2,0,0,1-2.9,1.2c-2.6,0-4.5-2.2-4.5-5.2s2-5.7,5-5.7a5.9,5.9,0,0,1,2.4.5v-5.4h1.6v15.6Zm-.5-8.7a4.9,4.9,0,0,0-2.2-.5c-2.1,0-3.4,1.5-3.4,4s1.3,3.9,3.1,3.9a4.2,4.2,0,0,0,2.5-1Z"/><path d="M253.6,318.3a3.5,3.5,0,0,1-1.3.3,1.7,1.7,0,0,1-1.7-1.2,5,5,0,0,1-3.3,1.2,2.6,2.6,0,0,1-2.9-2.6c0-2.8,2.7-3.4,6.1-3.4,0-1.8,0-3.4-2.3-3.4a5.4,5.4,0,0,0-2.7.6l-.5-1.3a7.4,7.4,0,0,1,3.4-.8c3.3,0,3.8,1.8,3.8,4.7v3.7c0,.7.1,1.1.8,1.1h.3Zm-3.1-4.5c-2.6,0-4.4.4-4.4,1.9a1.5,1.5,0,0,0,1.7,1.5,3.5,3.5,0,0,0,2.7-1.1Z"/><path d="M268,318.4l-.5-1a4.5,4.5,0,0,1-2.9,1.2c-2.6,0-4.5-2.2-4.5-5.2s2-5.7,5-5.7a5.7,5.7,0,0,1,2.3.5v-5.4h1.7v15.6Zm-.6-8.7a4.2,4.2,0,0,0-2.1-.5c-2.1,0-3.4,1.5-3.4,4s1.2,3.9,3,3.9a3.8,3.8,0,0,0,2.5-1Z"/><path d="M281,318.3a4.2,4.2,0,0,1-1.3.3,1.7,1.7,0,0,1-1.7-1.2,5,5,0,0,1-3.3,1.2c-1.7,0-3-1-3-2.6s2.7-3.4,6.2-3.4c0-1.8,0-3.4-2.3-3.4a5.8,5.8,0,0,0-2.8.6l-.4-1.3a7.4,7.4,0,0,1,3.4-.8c3.3,0,3.8,1.8,3.8,4.7v3.7c0,.7.1,1.1.7,1.1h.4Zm-3.1-4.5c-2.6,0-4.4.4-4.4,1.9a1.5,1.5,0,0,0,1.6,1.5,3.8,3.8,0,0,0,2.8-1.1Z"/><path d="M290.2,318.4l-.4-1a4.5,4.5,0,0,1-2.9,1.2c-2.7,0-4.5-2.2-4.5-5.2s2-5.7,4.9-5.7a5.9,5.9,0,0,1,2.4.5v-5.4h1.7v15.6Zm-.5-8.7a4.9,4.9,0,0,0-2.2-.5c-2.1,0-3.4,1.5-3.4,4s1.3,3.9,3.1,3.9a3.8,3.8,0,0,0,2.5-1Z"/><path d="M303.2,318.3a3.5,3.5,0,0,1-1.2.3,1.8,1.8,0,0,1-1.8-1.2,4.5,4.5,0,0,1-3.2,1.2c-1.7,0-3-1-3-2.6s2.7-3.4,6.2-3.4c0-1.8,0-3.4-2.4-3.4a5.7,5.7,0,0,0-2.7.6l-.4-1.3a7.1,7.1,0,0,1,3.4-.8c3.2,0,3.8,1.8,3.8,4.7v3.7c0,.7.1,1.1.7,1.1h.4Zm-3-4.5c-2.7,0-4.5.4-4.5,1.9a1.6,1.6,0,0,0,1.7,1.5,3.9,3.9,0,0,0,2.8-1.1Z"/><path d="M313.6,318.3a2.5,2.5,0,0,1-1.2.3c-1.4,0-1.8-.9-1.8-2.1V302.8h1.7v13.5c0,.5,0,.9.7.9h.4Z"/><path d="M324.4,318.3a4.2,4.2,0,0,1-1.3.3,1.9,1.9,0,0,1-1.8-1.2,4.5,4.5,0,0,1-3.2,1.2c-1.7,0-3-1-3-2.6s2.7-3.4,6.2-3.4c0-1.8,0-3.4-2.3-3.4a5.8,5.8,0,0,0-2.8.6l-.4-1.3a7.4,7.4,0,0,1,3.4-.8c3.3,0,3.8,1.8,3.8,4.7v3.7c0,.7.1,1.1.7,1.1h.4Zm-3.1-4.5c-2.7,0-4.5.4-4.5,1.9a1.6,1.6,0,0,0,1.7,1.5,3.8,3.8,0,0,0,2.8-1.1Z"/><path d="M331.7,322.6V307.9h1.2l.4,1a4.5,4.5,0,0,1,2.9-1.2c2.8,0,4.5,2.3,4.5,5.2s-2,5.7-5,5.7a5.7,5.7,0,0,1-2.3-.5v4.5Zm1.7-6a4.4,4.4,0,0,0,2.2.5c2.1,0,3.3-1.5,3.3-4s-1.2-3.9-3-3.9a3.8,3.8,0,0,0-2.5,1Z"/><path d="M350.9,317.7a5.8,5.8,0,0,1-3.4.9c-3,0-4.9-2-4.9-5.3s1.8-5.6,4.6-5.6,3.9,2,3.9,4.3a8.8,8.8,0,0,1-.2,1.6h-6.5a3.2,3.2,0,0,0,3.3,3.5,6.3,6.3,0,0,0,2.7-.6Zm-1.5-5.2a1.7,1.7,0,0,0,.1-.7c0-1.5-.7-2.6-2.4-2.6s-2.7,1.7-2.7,3.3Z"/><path d="M353.8,318.4V307.9h1.1l.5,1.5a3.7,3.7,0,0,1,3.1-1.7l1,.2-.4,1.5h-.8a3.6,3.6,0,0,0-2.8,1.4v7.7Z"/><path d="M361.2,316.6a6.7,6.7,0,0,0,2.7.6c1.6,0,2.2-.7,2.2-1.6,0-2.5-5.2-1.2-5.2-4.8,0-1.9,1.5-3.1,3.7-3.1a5.5,5.5,0,0,1,2.8.6l-.4,1.3a7.8,7.8,0,0,0-2.3-.5c-1.5,0-2.2.7-2.2,1.5,0,2.4,5.3,1.1,5.3,4.8,0,1.7-1.3,3.2-4,3.2a5.4,5.4,0,0,1-3.1-.8Z"/><path d="M371.4,305.8a1.1,1.1,0,1,1,1.1-1.1A1.1,1.1,0,0,1,371.4,305.8Zm2.1,12.5a2.7,2.7,0,0,1-1.3.3c-1.4,0-1.8-.9-1.8-2.1v-8.6h1.7v8.4c0,.5.1.9.8.9h.3Z"/><path d="M375.7,316.6a7.2,7.2,0,0,0,2.7.6c1.6,0,2.2-.7,2.2-1.6,0-2.5-5.2-1.2-5.2-4.8,0-1.9,1.5-3.1,3.7-3.1a6.3,6.3,0,0,1,2.9.6l-.5,1.3a7.1,7.1,0,0,0-2.3-.5c-1.5,0-2.1.7-2.1,1.5,0,2.4,5.2,1.1,5.2,4.8,0,1.7-1.3,3.2-4,3.2a5.4,5.4,0,0,1-3.1-.8Z"/><path d="M390.3,318.1a4.1,4.1,0,0,1-2.1.5c-1.8,0-2.9-1.1-2.9-3.3v-6.1h-1.8v-1.3h1.8v-2.2l1.7-.4v2.6h3.3v1.3H387v6.1c0,1.3.7,1.8,1.6,1.8a2.9,2.9,0,0,0,1.4-.3Z"/><path d="M400.1,317.7a5.8,5.8,0,0,1-3.4.9c-3,0-4.9-2-4.9-5.3s1.8-5.6,4.6-5.6,3.9,2,3.9,4.3a8.6,8.6,0,0,1-.1,1.6h-6.6a3.3,3.3,0,0,0,3.4,3.5,5.9,5.9,0,0,0,2.6-.6Zm-1.4-5.2v-.7c0-1.5-.7-2.6-2.4-2.6s-2.7,1.7-2.7,3.3Z"/><path d="M409.6,318.4v-7.1c0-1.7-.9-2.1-2-2.1a4.2,4.2,0,0,0-2.8,1.1v8.1h-1.7V307.9h1l.6,1a5.5,5.5,0,0,1,3.2-1.2c2.7,0,3.4,1.5,3.4,3.6v7.1Z"/><path d="M421.7,317.9a5.8,5.8,0,0,1-3,.7c-2.6,0-4.9-1.8-4.9-5.3s2.3-5.6,5.3-5.6a5.5,5.5,0,0,1,2.6.6l-.5,1.4a3.8,3.8,0,0,0-2.1-.5c-2.1,0-3.5,1.2-3.5,4.1s1.6,3.8,3.4,3.8a4.4,4.4,0,0,0,2.3-.5Z"/><path d="M424.8,305.8a1.1,1.1,0,0,1-1.1-1.1,1.1,1.1,0,0,1,2.2,0A1.1,1.1,0,0,1,424.8,305.8Zm2.1,12.5a2.5,2.5,0,0,1-1.2.3c-1.4,0-1.8-.9-1.8-2.1v-8.6h1.6v8.4c0,.5.1.9.8.9h.4Z"/><path d="M437.7,318.3a4.2,4.2,0,0,1-1.3.3,1.9,1.9,0,0,1-1.8-1.2,4.5,4.5,0,0,1-3.2,1.2c-1.7,0-3-1-3-2.6s2.7-3.4,6.2-3.4c0-1.8,0-3.4-2.3-3.4a5.8,5.8,0,0,0-2.8.6l-.4-1.3a7.4,7.4,0,0,1,3.4-.8c3.3,0,3.8,1.8,3.8,4.7v3.7c0,.7.1,1.1.7,1.1h.4Zm-3.1-4.5c-2.7,0-4.5.4-4.5,1.9a1.6,1.6,0,0,0,1.7,1.5,3.9,3.9,0,0,0,2.8-1.1Z"/><path d="M443.3,307.9h1.9l3.3,8.7,2.9-8.7h1.7l-4.2,11.8a3.9,3.9,0,0,1-3.8,2.9,4,4,0,0,1-1.9-.5l.5-1.3a3.2,3.2,0,0,0,1.4.3c1.5,0,2.1-1.1,2.6-2.6Z"/><path d="M467.6,317.7a5.8,5.8,0,0,1-3.4.9c-3,0-4.9-2-4.9-5.3s1.8-5.6,4.6-5.6,3.9,2,3.9,4.3a8.6,8.6,0,0,1-.1,1.6h-6.6a3.3,3.3,0,0,0,3.4,3.5,5.9,5.9,0,0,0,2.6-.6Zm-1.4-5.2v-.7c0-1.5-.7-2.6-2.4-2.6s-2.7,1.7-2.7,3.3Z"/><path d="M476.3,318.4l-2.5-4.2h0l-2.7,4.2h-1.9l3.7-5.5-3.4-5h2l2.4,3.9h0l2.4-3.9h2l-3.5,5.1,3.7,5.4Z"/><path d="M480.6,322.6V307.9h1.2l.4,1a4.5,4.5,0,0,1,2.9-1.2c2.8,0,4.5,2.3,4.5,5.2s-2,5.7-4.9,5.7a5.9,5.9,0,0,1-2.4-.5v4.5Zm1.7-6a4.9,4.9,0,0,0,2.2.5c2.1,0,3.4-1.5,3.4-4s-1.3-3.9-3.1-3.9a4.2,4.2,0,0,0-2.5,1Z"/><path d="M500.7,318.3a4.2,4.2,0,0,1-1.3.3,1.9,1.9,0,0,1-1.8-1.2,4.5,4.5,0,0,1-3.2,1.2c-1.7,0-3-1-3-2.6s2.7-3.4,6.2-3.4c0-1.8,0-3.4-2.3-3.4a5.8,5.8,0,0,0-2.8.6l-.4-1.3a7.4,7.4,0,0,1,3.4-.8c3.3,0,3.8,1.8,3.8,4.7v3.7c0,.7.1,1.1.7,1.1h.4Zm-3.1-4.5c-2.7,0-4.4.4-4.4,1.9a1.5,1.5,0,0,0,1.6,1.5,3.8,3.8,0,0,0,2.8-1.1Z"/><path d="M509.4,318.4v-7.1c0-1.7-.9-2.1-2-2.1a4.2,4.2,0,0,0-2.8,1.1v8.1h-1.7V307.9h1l.6,1a5.8,5.8,0,0,1,3.2-1.2c2.7,0,3.4,1.5,3.4,3.6v7.1Z"/><path d="M514.3,316.6a6.7,6.7,0,0,0,2.7.6c1.6,0,2.2-.7,2.2-1.6,0-2.5-5.2-1.2-5.2-4.8,0-1.9,1.5-3.1,3.7-3.1a5.5,5.5,0,0,1,2.8.6l-.4,1.3a7.8,7.8,0,0,0-2.3-.5c-1.5,0-2.2.7-2.2,1.5,0,2.4,5.3,1.1,5.3,4.8,0,1.7-1.3,3.2-4,3.2a5.4,5.4,0,0,1-3.1-.8Z"/><path d="M524.5,305.8a1.1,1.1,0,1,1,1.1-1.1A1.1,1.1,0,0,1,524.5,305.8Zm2.1,12.5a2.7,2.7,0,0,1-1.3.3c-1.4,0-1.7-.9-1.7-2.1v-8.6h1.6v8.4c0,.5.1.9.8.9h.3Z"/><path d="M533.1,307.7c3.3,0,4.8,2.5,4.8,5.5s-1.9,5.4-4.9,5.4-4.8-2.4-4.8-5.4S530.1,307.7,533.1,307.7Zm-.1,9.4c2.1,0,3.1-1.7,3.1-3.9s-1-4-3.1-4-3.1,1.8-3.1,4S530.9,317.1,533,317.1ZM531.3,306l1.9-3h1.9l-2.4,3Z"/><path d="M547.1,318.4v-7.1c0-1.7-.9-2.1-2-2.1a4.2,4.2,0,0,0-2.8,1.1v8.1h-1.7V307.9h1l.6,1a5.5,5.5,0,0,1,3.2-1.2c2.7,0,3.4,1.5,3.4,3.6v7.1Z"/><path d="M194.6,343.3l-.4-.9a4.7,4.7,0,0,1-2.9,1.1c-2.6,0-4.5-2.2-4.5-5.1s2-5.7,5-5.7a5.7,5.7,0,0,1,2.3.5v-5.5h1.7v15.6Zm-.5-8.7a4.4,4.4,0,0,0-2.2-.5c-2.1,0-3.3,1.5-3.3,4.1s1.2,3.9,3,3.9a3.8,3.8,0,0,0,2.5-1Z"/><path d="M206.8,342.6a5.8,5.8,0,0,1-3.4.9c-3,0-4.9-2-4.9-5.3s1.8-5.5,4.6-5.5,3.9,1.9,3.9,4.2a9.7,9.7,0,0,1-.1,1.7h-6.6a3.2,3.2,0,0,0,3.4,3.5,4.7,4.7,0,0,0,2.6-.7Zm-1.4-5.1v-.7c0-1.6-.7-2.6-2.4-2.6s-2.7,1.6-2.7,3.3Z"/><path d="M218,343.2a3.3,3.3,0,0,1-1.3.3c-1.4,0-1.8-.9-1.8-2.1V327.7h1.7v13.6c0,.4.1.8.7.8h.4Z"/><path d="M228.7,343.2a2.5,2.5,0,0,1-1.3.3,1.6,1.6,0,0,1-1.7-1.2,5,5,0,0,1-3.3,1.2c-1.7,0-3-1-3-2.6s2.7-3.3,6.2-3.3c0-1.9,0-3.5-2.3-3.5a6.1,6.1,0,0,0-2.8.7l-.4-1.4a9.1,9.1,0,0,1,3.4-.7c3.3,0,3.8,1.7,3.8,4.6v3.8c0,.6.1,1,.7,1h.4Zm-3.1-4.5c-2.6,0-4.4.4-4.4,2a1.6,1.6,0,0,0,1.7,1.5,3.9,3.9,0,0,0,2.7-1.1Z"/><path d="M238.1,343.3l-3.7-10.4h1.7l3.1,8.9h0l3.1-8.9H244l-3.8,10.4Z"/><path d="M246.7,330.7a1,1,0,0,1-1-1.1,1.1,1.1,0,0,1,1-1.1c.7,0,1.1.4,1.1,1.2A1,1,0,0,1,246.7,330.7Zm2.2,12.5a3.3,3.3,0,0,1-1.3.3c-1.4,0-1.8-.9-1.8-2.1v-8.5h1.7v8.4c0,.4.1.8.7.8h.4Z"/><path d="M255.3,332.7c3.4,0,4.8,2.4,4.8,5.4s-1.9,5.4-4.9,5.4-4.8-2.4-4.8-5.4S252.3,332.7,255.3,332.7Zm0,9.4c2.1,0,3.1-1.8,3.1-4s-1-4-3.1-4-3.2,1.8-3.2,4S253.1,342.1,255.3,342.1Z"/><path d="M265.9,343.2a2.7,2.7,0,0,1-1.3.3c-1.4,0-1.8-.9-1.8-2.1V327.7h1.7v13.6c0,.4.1.8.7.8h.4Z"/><path d="M275.8,342.6a6.1,6.1,0,0,1-3.5.9c-2.9,0-4.9-2-4.9-5.3s1.9-5.5,4.7-5.5,3.9,1.9,3.9,4.2a9.9,9.9,0,0,1-.2,1.7h-6.6c.1,1.7,1,3.5,3.4,3.5a5.1,5.1,0,0,0,2.7-.7Zm-1.5-5.1c0-.3.1-.5.1-.7s-.8-2.6-2.4-2.6-2.7,1.6-2.8,3.3Z"/><path d="M285.3,343.3v-7.1c0-1.7-.9-2.1-2.1-2.1a5,5,0,0,0-2.8,1.1v8.1h-1.7V332.9h1l.7,1a4.9,4.9,0,0,1,3.2-1.2c2.6,0,3.4,1.5,3.4,3.5v7.1Z"/><path d="M297.4,342.8a6.2,6.2,0,0,1-3.1.7c-2.6,0-4.8-1.8-4.8-5.3s2.2-5.5,5.3-5.5a4.8,4.8,0,0,1,2.6.6l-.5,1.3a4.1,4.1,0,0,0-2.1-.5c-2.1,0-3.6,1.3-3.6,4.1s1.6,3.9,3.4,3.9a4.6,4.6,0,0,0,2.4-.6Z"/><path d="M300.4,330.7a1,1,0,0,1-1-1.1,1.1,1.1,0,0,1,1-1.1c.7,0,1.1.4,1.1,1.2A1,1,0,0,1,300.4,330.7Zm2.2,12.5a2.7,2.7,0,0,1-1.3.3c-1.4,0-1.8-.9-1.8-2.1v-8.5h1.7v8.4c0,.4.1.8.7.8h.4Z"/><path d="M313.3,343.2a2.3,2.3,0,0,1-1.3.3,1.6,1.6,0,0,1-1.7-1.2,4.8,4.8,0,0,1-3.3,1.2,2.7,2.7,0,0,1-2.9-2.6c0-2.7,2.7-3.3,6.2-3.3,0-1.9-.1-3.5-2.4-3.5a5.4,5.4,0,0,0-2.7.7l-.4-1.4a8.3,8.3,0,0,1,3.4-.7c3.2,0,3.7,1.7,3.7,4.6v3.8c0,.6.1,1,.8,1h.3Zm-3-4.5c-2.7,0-4.5.4-4.5,2a1.6,1.6,0,0,0,1.7,1.5,4.4,4.4,0,0,0,2.8-1.1Z"/><path d="M328.2,342.6a6.1,6.1,0,0,1-3.5.9c-2.9,0-4.9-2-4.9-5.3s1.9-5.5,4.7-5.5,3.9,1.9,3.9,4.2a9.9,9.9,0,0,1-.2,1.7h-6.6c.1,1.7,1,3.5,3.4,3.5a5.1,5.1,0,0,0,2.7-.7Zm-1.5-5.1c0-.3.1-.5.1-.7s-.8-2.6-2.4-2.6-2.7,1.6-2.8,3.3Z"/><path d="M337.7,343.3v-7.1c0-1.7-.9-2.1-2.1-2.1a5,5,0,0,0-2.8,1.1v8.1h-1.7V332.9h1l.7,1a4.9,4.9,0,0,1,3.2-1.2c2.6,0,3.4,1.5,3.4,3.5v7.1Z"/><path d="M354.9,342.8a6.2,6.2,0,0,1-3.1.7c-2.5,0-4.8-1.8-4.8-5.3s2.3-5.5,5.3-5.5a4.5,4.5,0,0,1,2.6.6l-.5,1.3a3.8,3.8,0,0,0-2.1-.5c-2.1,0-3.5,1.3-3.5,4.1s1.5,3.9,3.3,3.9a4.4,4.4,0,0,0,2.4-.6Z"/><path d="M358,330.7a1,1,0,0,1-1.1-1.1,1.1,1.1,0,0,1,1.1-1.1,1.1,1.1,0,0,1,1.1,1.2A1.1,1.1,0,0,1,358,330.7Zm2.1,12.5a2.7,2.7,0,0,1-1.3.3c-1.4,0-1.8-.9-1.8-2.1v-8.5h1.7v8.4c0,.4.1.8.8.8s.3,0,.3-.1Z"/><path d="M370,342.6a6.1,6.1,0,0,1-3.5.9c-2.9,0-4.8-2-4.8-5.3s1.8-5.5,4.6-5.5,3.9,1.9,3.9,4.2a9.9,9.9,0,0,1-.2,1.7h-6.6c.1,1.7,1,3.5,3.4,3.5a5.1,5.1,0,0,0,2.7-.7Zm-1.5-5.1a2,2,0,0,0,.1-.7c0-1.6-.7-2.6-2.4-2.6s-2.7,1.6-2.7,3.3Z"/><path d="M372.9,343.3V332.9H374l.5,1.4a3.8,3.8,0,0,1,3.1-1.6h1l-.4,1.6-.8-.2a3.6,3.6,0,0,0-2.8,1.4v7.7Z"/><path d="M386.1,343a4.1,4.1,0,0,1-2.1.5c-1.8,0-2.9-1.1-2.9-3.3v-6.1h-1.8v-1.2h1.8v-2.3l1.7-.4v2.7H386v1.2h-3.2v6.2c0,1.3.6,1.8,1.6,1.8a4.9,4.9,0,0,0,1.4-.3Z"/><path d="M392.5,332.7c3.3,0,4.8,2.4,4.8,5.4s-1.9,5.4-4.9,5.4-4.8-2.4-4.8-5.4S389.5,332.7,392.5,332.7Zm-.1,9.4c2.2,0,3.2-1.8,3.2-4s-1-4-3.2-4-3.1,1.8-3.1,4S390.3,342.1,392.4,342.1Z"/><path d="M399.8,341.5a7.2,7.2,0,0,0,2.7.6c1.6,0,2.2-.7,2.2-1.6,0-2.5-5.2-1.2-5.2-4.8,0-1.8,1.5-3,3.7-3a6.5,6.5,0,0,1,2.9.5l-.5,1.3a7.3,7.3,0,0,0-2.3-.4c-1.5,0-2.1.6-2.1,1.5s5.2,1.1,5.2,4.7c0,1.7-1.3,3.2-4,3.2a6.5,6.5,0,0,1-3.1-.7Z"/><path d="M419.5,343a3.7,3.7,0,0,1-2,.5c-1.9,0-2.9-1.1-2.9-3.3v-6.1h-1.9v-1.2h1.9v-2.3l1.6-.4v2.7h3.3v1.2h-3.3v6.2c0,1.3.7,1.8,1.6,1.8a4.2,4.2,0,0,0,1.4-.3Z"/><path d="M429.3,342.6a5.5,5.5,0,0,1-3.4.9c-3,0-4.9-2-4.9-5.3s1.9-5.5,4.7-5.5,3.9,1.9,3.9,4.2a9.9,9.9,0,0,1-.2,1.7h-6.6a3.3,3.3,0,0,0,3.4,3.5,5.1,5.1,0,0,0,2.7-.7Zm-1.4-5.1v-.7c0-1.6-.7-2.6-2.3-2.6s-2.7,1.6-2.8,3.3Z"/><path d="M432.3,343.3V332.9h1l.5,1.4a4,4,0,0,1,3.2-1.6h.9l-.3,1.6-.9-.2a3.6,3.6,0,0,0-2.7,1.4v7.7Z"/><path d="M439.8,343.3V332.9h1l.5,1.4a4,4,0,0,1,3.2-1.6h.9l-.3,1.6-.9-.2a3.6,3.6,0,0,0-2.7,1.4v7.7Z"/><path d="M448.2,330.7a1,1,0,0,1-1-1.1,1.1,1.1,0,0,1,1-1.1c.7,0,1.1.4,1.1,1.2A1,1,0,0,1,448.2,330.7Zm2.2,12.5a3.3,3.3,0,0,1-1.3.3c-1.4,0-1.8-.9-1.8-2.1v-8.5H449v8.4c0,.4.1.8.7.8h.4Z"/><path d="M458,343a3.7,3.7,0,0,1-2,.5c-1.9,0-2.9-1.1-2.9-3.3v-6.1h-1.9v-1.2h1.9v-2.3l1.7-.4v2.7H458v1.2h-3.2v6.2c0,1.3.6,1.8,1.6,1.8a4.2,4.2,0,0,0,1.3-.3Z"/><path d="M464.5,332.7c3.3,0,4.8,2.4,4.8,5.4s-1.9,5.4-5,5.4-4.8-2.4-4.8-5.4S461.5,332.7,464.5,332.7Zm-.1,9.4c2.1,0,3.1-1.8,3.1-4s-1-4-3.1-4-3.1,1.8-3.1,4S462.2,342.1,464.4,342.1Z"/><path d="M471.9,343.3V332.9H473l.5,1.4a3.8,3.8,0,0,1,3.1-1.6h1l-.4,1.6-.8-.2a3.6,3.6,0,0,0-2.8,1.4v7.7Z"/><path d="M480.4,330.7a1,1,0,0,1-1.1-1.1,1.1,1.1,0,0,1,1.1-1.1,1.1,1.1,0,0,1,1.1,1.2A1.1,1.1,0,0,1,480.4,330.7Zm2.1,12.5a2.7,2.7,0,0,1-1.3.3c-1.4,0-1.8-.9-1.8-2.1v-8.5h1.7v8.4c0,.4.1.8.8.8h.3Z"/><path d="M489,332.7c3.3,0,4.8,2.4,4.8,5.4s-1.9,5.4-4.9,5.4-4.8-2.4-4.8-5.4S486,332.7,489,332.7Zm-.1,9.4c2.1,0,3.1-1.8,3.1-4s-1-4-3.1-4-3.1,1.8-3.1,4S486.8,342.1,488.9,342.1Z"/><path d="M496.3,341.5a7.2,7.2,0,0,0,2.7.6c1.6,0,2.2-.7,2.2-1.6,0-2.5-5.2-1.2-5.2-4.8,0-1.8,1.5-3,3.7-3a6.5,6.5,0,0,1,2.9.5l-.5,1.3a7.3,7.3,0,0,0-2.3-.4c-1.5,0-2.2.6-2.2,1.5s5.3,1.1,5.3,4.7c0,1.7-1.3,3.2-4,3.2a6.5,6.5,0,0,1-3.1-.7Z"/><path d="M517.7,343.3l-.4-.9a4.7,4.7,0,0,1-2.9,1.1c-2.7,0-4.5-2.2-4.5-5.1s2-5.7,4.9-5.7a5.9,5.9,0,0,1,2.4.5v-5.5h1.7v15.6Zm-.5-8.7a4.9,4.9,0,0,0-2.2-.5c-2.1,0-3.4,1.5-3.4,4.1s1.3,3.9,3.1,3.9a3.8,3.8,0,0,0,2.5-1Z"/><path d="M529.9,342.6a6.1,6.1,0,0,1-3.5.9c-2.9,0-4.8-2-4.8-5.3s1.8-5.5,4.6-5.5,3.9,1.9,3.9,4.2a9.9,9.9,0,0,1-.2,1.7h-6.6c.1,1.7,1,3.5,3.4,3.5a5.1,5.1,0,0,0,2.7-.7Zm-1.5-5.1a2,2,0,0,0,.1-.7c0-1.6-.7-2.6-2.4-2.6s-2.7,1.6-2.7,3.3Z"/><path d="M535.9,343.2a2.7,2.7,0,0,1-1.3.3c-1.4,0-1.8-.9-1.8-2.1V327.7h1.7v13.6c0,.4.1.8.8.8h.3Z"/><path d="M187.6,372.5V357.8h1.2l.4,1a4.5,4.5,0,0,1,2.9-1.2c2.8,0,4.5,2.3,4.5,5.2s-2,5.7-5,5.7a5.7,5.7,0,0,1-2.3-.5v4.5Zm1.7-6a4.9,4.9,0,0,0,2.2.5c2.1,0,3.3-1.5,3.3-4s-1.2-3.9-3-3.9a4.2,4.2,0,0,0-2.5,1Z"/><path d="M207.7,368.1a2.5,2.5,0,0,1-1.3.4,1.9,1.9,0,0,1-1.8-1.2,4.5,4.5,0,0,1-3.2,1.2,2.7,2.7,0,0,1-3-2.7c0-2.7,2.7-3.3,6.2-3.3,0-1.9,0-3.4-2.3-3.4a5.8,5.8,0,0,0-2.8.6l-.4-1.3a7.4,7.4,0,0,1,3.4-.8c3.3,0,3.8,1.8,3.8,4.6V366c0,.7.1,1.1.7,1.1h.4Zm-3.1-4.5c-2.7,0-4.5.4-4.5,2a1.6,1.6,0,0,0,1.7,1.5,3.9,3.9,0,0,0,2.8-1.1Z"/><path d="M209.7,355.9l1.9-3.1h1.9l-2.4,3.1Zm3.2,12.2a2.1,2.1,0,0,1-1.2.4c-1.4,0-1.8-1-1.8-2.1v-8.6h1.6v8.4c0,.4.1.8.8.8h.4Z"/><path d="M215.1,366.4a5.7,5.7,0,0,0,2.7.7c1.6,0,2.2-.8,2.2-1.6,0-2.6-5.1-1.2-5.1-4.9,0-1.8,1.4-3,3.7-3a5.8,5.8,0,0,1,2.8.6l-.5,1.3a5.2,5.2,0,0,0-2.3-.5c-1.5,0-2.1.7-2.1,1.5,0,2.3,5.2,1.1,5.2,4.7,0,1.7-1.3,3.3-4,3.3a6.4,6.4,0,0,1-3.1-.8Z"/><path d="M227.8,357.8h2l3.2,8.6,2.9-8.6h1.8l-4.3,11.8a4,4,0,0,1-3.8,2.9,3,3,0,0,1-1.8-.6l.5-1.2a4.2,4.2,0,0,0,1.3.3c1.5,0,2.1-1.1,2.6-2.6Z"/><path d="M237.9,371.2a4,4,0,0,0,1.1-2.5,1.6,1.6,0,0,0-1.1-1.6s.2-1.1,1.2-1.1,1.5.7,1.5,1.8a5.4,5.4,0,0,1-1.9,3.9Z"/><path d="M248.8,372.5V357.8H250l.5,1a4.2,4.2,0,0,1,2.9-1.2c2.7,0,4.4,2.3,4.4,5.2s-2,5.7-4.9,5.7a5.9,5.9,0,0,1-2.4-.5v4.5Zm1.7-6a4.9,4.9,0,0,0,2.2.5c2.1,0,3.4-1.5,3.4-4s-1.3-3.9-3.1-3.9a4.2,4.2,0,0,0-2.5,1Z"/><path d="M264.6,357.6c3.3,0,4.8,2.4,4.8,5.4s-1.9,5.5-4.9,5.5-4.8-2.5-4.8-5.5S261.6,357.6,264.6,357.6Zm0,9.4c2.1,0,3.1-1.8,3.1-4s-1-3.9-3.1-3.9-3.2,1.8-3.2,3.9S262.4,367,264.6,367Z"/><path d="M272.1,368.3V357.8h1l.5,1.4a4,4,0,0,1,3.2-1.6,1.5,1.5,0,0,1,.9.2l-.3,1.5h-.9a3.5,3.5,0,0,0-2.7,1.3v7.8Z"/><path d="M290.1,368a4.1,4.1,0,0,1-2.1.5c-1.8,0-2.9-1.1-2.9-3.4V359h-1.9v-1.2h1.9v-2.2l1.7-.5v2.7H290V359h-3.2v6.2c0,1.3.6,1.8,1.6,1.8a3.2,3.2,0,0,0,1.4-.3Z"/><path d="M300.7,368.1a1.9,1.9,0,0,1-1.2.4,1.8,1.8,0,0,1-1.8-1.2,4.5,4.5,0,0,1-3.2,1.2,2.7,2.7,0,0,1-3-2.7c0-2.7,2.7-3.3,6.2-3.3,0-1.9,0-3.4-2.4-3.4a5.7,5.7,0,0,0-2.7.6l-.4-1.3a7.1,7.1,0,0,1,3.4-.8c3.2,0,3.8,1.8,3.8,4.6V366c0,.7.1,1.1.7,1.1h.4Zm-3-4.5c-2.7,0-4.5.4-4.5,2a1.6,1.6,0,0,0,1.7,1.5,3.9,3.9,0,0,0,2.8-1.1Z"/><path d="M309.5,368.3v-7.2c0-1.7-.9-2-2.1-2a5,5,0,0,0-2.8,1v8.2h-1.7V357.8H304l.6,1a4.9,4.9,0,0,1,3.2-1.2c2.6,0,3.4,1.5,3.4,3.5v7.2Z"/><path d="M319.8,368a3.7,3.7,0,0,1-2,.5c-1.9,0-2.9-1.1-2.9-3.4V359H313v-1.2h1.9v-2.2l1.7-.5v2.7h3.2V359h-3.2v6.2c0,1.3.6,1.8,1.6,1.8a2.5,2.5,0,0,0,1.3-.3Z"/><path d="M326.3,357.6c3.3,0,4.8,2.4,4.8,5.4s-2,5.5-5,5.5-4.8-2.5-4.8-5.5S323.2,357.6,326.3,357.6Zm-.1,9.4c2.1,0,3.1-1.8,3.1-4s-1-3.9-3.1-3.9-3.1,1.8-3.1,3.9S324,367,326.2,367Z"/><path d="M333.4,371.2a4.2,4.2,0,0,0,1-2.5,1.6,1.6,0,0,0-1-1.6s.2-1.1,1.2-1.1,1.4.7,1.4,1.8a5.3,5.3,0,0,1-1.8,3.9Z"/><path d="M352.7,368.1a2.2,2.2,0,0,1-1.3.4,1.7,1.7,0,0,1-1.7-1.2,4.8,4.8,0,0,1-3.3,1.2,2.6,2.6,0,0,1-2.9-2.7c0-2.7,2.7-3.3,6.2-3.3,0-1.9-.1-3.4-2.4-3.4a5.4,5.4,0,0,0-2.7.6l-.5-1.3a7.5,7.5,0,0,1,3.5-.8c3.2,0,3.7,1.8,3.7,4.6V366c0,.7.1,1.1.8,1.1h.3Zm-3-4.5c-2.7,0-4.5.4-4.5,2a1.5,1.5,0,0,0,1.7,1.5,3.9,3.9,0,0,0,2.8-1.1Z"/><path d="M360,372.5V357.8h1.2l.5,1a4.2,4.2,0,0,1,2.9-1.2c2.7,0,4.4,2.3,4.4,5.2s-2,5.7-4.9,5.7a5.9,5.9,0,0,1-2.4-.5v4.5Zm1.7-6a4.9,4.9,0,0,0,2.2.5c2.1,0,3.4-1.5,3.4-4s-1.3-3.9-3.1-3.9a4.2,4.2,0,0,0-2.5,1Z"/><path d="M371.7,368.3V357.8h1l.5,1.4a4,4,0,0,1,3.2-1.6,1.5,1.5,0,0,1,.9.2l-.3,1.5h-.9a3.5,3.5,0,0,0-2.7,1.3v7.8Z"/><path d="M380.1,355.6a1,1,0,0,1-1-1.1,1,1,0,0,1,1-1,1,1,0,0,1,1.1,1.1A1,1,0,0,1,380.1,355.6Zm2.2,12.5a2.2,2.2,0,0,1-1.3.4c-1.4,0-1.8-1-1.8-2.1v-8.6h1.7v8.4c0,.4.1.8.7.8h.4Z"/><path d="M388.8,357.6c3.3,0,4.8,2.4,4.8,5.4s-2,5.5-5,5.5-4.8-2.5-4.8-5.5S385.7,357.6,388.8,357.6Zm-.1,9.4c2.1,0,3.1-1.8,3.1-4s-1-3.9-3.1-3.9-3.1,1.8-3.1,3.9S386.5,367,388.7,367Z"/><path d="M396.2,368.3V357.8h1.1l.5,1.4a3.8,3.8,0,0,1,3.1-1.6,1.3,1.3,0,0,1,.9.2l-.3,1.5h-.8a3.6,3.6,0,0,0-2.8,1.3v7.8Z"/><path d="M404.6,355.6a1,1,0,0,1-1-1.1,1,1,0,0,1,1-1,1,1,0,0,1,1.1,1.1A1,1,0,0,1,404.6,355.6Zm2.2,12.5a2.2,2.2,0,0,1-1.3.4c-1.4,0-1.8-1-1.8-2.1v-8.6h1.7v8.4c0,.4.1.8.7.8h.4Z"/><path d="M408.1,368.3v-1.4l6-7.7h-5.9v-1.4H416v1.5l-5.9,7.6h6v1.4Z"/><path d="M427,368.1a2.1,2.1,0,0,1-1.2.4,1.8,1.8,0,0,1-1.8-1.2,4.7,4.7,0,0,1-3.2,1.2,2.7,2.7,0,0,1-3-2.7c0-2.7,2.7-3.3,6.2-3.3,0-1.9,0-3.4-2.4-3.4a5.4,5.4,0,0,0-2.7.6l-.4-1.3a6.8,6.8,0,0,1,3.4-.8c3.2,0,3.8,1.8,3.8,4.6V366c0,.7,0,1.1.7,1.1h.4Zm-3-4.5c-2.7,0-4.5.4-4.5,2a1.6,1.6,0,0,0,1.7,1.5A3.9,3.9,0,0,0,424,366Z"/><path d="M429.2,368.3V357.8h1l.5,1.4a4,4,0,0,1,3.2-1.6,1.5,1.5,0,0,1,.9.2l-.3,1.5h-.8a3.6,3.6,0,0,0-2.8,1.3v7.8Z"/><path d="M444.9,368.1a2.2,2.2,0,0,1-1.3.4c-1.3,0-1.7-1-1.7-2.1V352.6h1.6v13.6c0,.4.1.8.8.8h.3Z"/><path d="M455.7,368.1a2.5,2.5,0,0,1-1.3.4,1.9,1.9,0,0,1-1.8-1.2,4.5,4.5,0,0,1-3.2,1.2,2.7,2.7,0,0,1-3-2.7c0-2.7,2.7-3.3,6.2-3.3,0-1.9,0-3.4-2.3-3.4a5.8,5.8,0,0,0-2.8.6l-.4-1.3a7.4,7.4,0,0,1,3.4-.8c3.2,0,3.8,1.8,3.8,4.6V366c0,.7.1,1.1.7,1.1h.4Zm-3.1-4.5c-2.7,0-4.5.4-4.5,2a1.6,1.6,0,0,0,1.7,1.5,3.9,3.9,0,0,0,2.8-1.1Z"/><path d="M465.1,368.3l-3.8-10.5h1.8l3,9h.1l3.1-9h1.6l-3.7,10.5Z"/><path d="M473.7,355.6a1,1,0,0,1-1-1.1.9.9,0,0,1,1-1,1,1,0,0,1,1.1,1.1A1,1,0,0,1,473.7,355.6Zm2.1,12.5a2.1,2.1,0,0,1-1.2.4c-1.4,0-1.8-1-1.8-2.1v-8.6h1.7v8.4c0,.4,0,.8.7.8h.4Z"/><path d="M485.2,368.3l-.4-1a4.5,4.5,0,0,1-2.9,1.2c-2.7,0-4.5-2.2-4.5-5.2s2-5.7,5-5.7a5.7,5.7,0,0,1,2.3.5v-5.5h1.7v15.7Zm-.5-8.7a4.4,4.4,0,0,0-2.2-.5c-2.1,0-3.3,1.5-3.3,4s1.2,3.9,3,3.9a3.8,3.8,0,0,0,2.5-1Z"/><path d="M498.2,368.1a1.9,1.9,0,0,1-1.2.4,1.8,1.8,0,0,1-1.8-1.2,4.5,4.5,0,0,1-3.2,1.2,2.7,2.7,0,0,1-3-2.7c0-2.7,2.7-3.3,6.2-3.3,0-1.9,0-3.4-2.4-3.4a5.7,5.7,0,0,0-2.7.6l-.4-1.3a7.4,7.4,0,0,1,3.4-.8c3.2,0,3.8,1.8,3.8,4.6V366c0,.7.1,1.1.7,1.1h.4Zm-3-4.5c-2.7,0-4.5.4-4.5,2a1.6,1.6,0,0,0,1.7,1.5,3.9,3.9,0,0,0,2.8-1.1Z"/><path d="M503.9,357.8h1.9l3.3,8.6,2.9-8.6h1.7l-4.3,11.8a3.8,3.8,0,0,1-3.8,2.9,3,3,0,0,1-1.8-.6l.5-1.2a4.9,4.9,0,0,0,1.4.3c1.5,0,2.1-1.1,2.6-2.6Z"/><path d="M523.7,368.1a2.1,2.1,0,0,1-1.2.4c-1.4,0-1.8-1-1.8-2.1V352.6h1.7v13.6c0,.4.1.8.7.8h.4Z"/><path d="M534.5,368.1a2.5,2.5,0,0,1-1.3.4,1.7,1.7,0,0,1-1.7-1.2,5,5,0,0,1-3.3,1.2,2.7,2.7,0,0,1-3-2.7c0-2.7,2.7-3.3,6.2-3.3,0-1.9,0-3.4-2.3-3.4a5.8,5.8,0,0,0-2.8.6l-.4-1.3a7.4,7.4,0,0,1,3.4-.8c3.3,0,3.8,1.8,3.8,4.6V366c0,.7.1,1.1.7,1.1h.4Zm-3.1-4.5c-2.7,0-4.4.4-4.4,2a1.5,1.5,0,0,0,1.6,1.5,3.8,3.8,0,0,0,2.8-1.1Z"/><path d="M194.7,392.7a6.2,6.2,0,0,1-3.1.7c-2.6,0-4.8-1.8-4.8-5.3s2.2-5.6,5.3-5.6a5.9,5.9,0,0,1,2.6.6l-.5,1.4a3.8,3.8,0,0,0-2.1-.5c-2.1,0-3.6,1.2-3.6,4.1s1.6,3.8,3.4,3.8a4.8,4.8,0,0,0,2.4-.5Z"/><path d="M201,382.5c3.3,0,4.8,2.5,4.8,5.5s-2,5.4-5,5.4S196,391,196,388,197.9,382.5,201,382.5Zm-.1,9.4c2.1,0,3.1-1.8,3.1-3.9s-1-4-3.1-4-3.1,1.8-3.1,4S198.7,391.9,200.9,391.9Z"/><path d="M215,393.2v-7.1c0-1.7-.9-2.1-2.1-2.1a4.4,4.4,0,0,0-2.8,1.1v8.1h-1.7V382.7h1.1l.6,1a5.5,5.5,0,0,1,3.2-1.2c2.6,0,3.4,1.5,3.4,3.6v7.1Z"/><path d="M219.8,391.4a7.2,7.2,0,0,0,2.7.6c1.6,0,2.3-.7,2.3-1.6,0-2.5-5.2-1.2-5.2-4.8,0-1.9,1.4-3.1,3.7-3.1a5.8,5.8,0,0,1,2.8.6l-.5,1.3a6.6,6.6,0,0,0-2.3-.5c-1.4,0-2.1.7-2.1,1.5,0,2.4,5.2,1.1,5.2,4.7,0,1.8-1.2,3.3-3.9,3.3a5.8,5.8,0,0,1-3.2-.8Z"/><path d="M234.4,392.9a3.7,3.7,0,0,1-2,.5c-1.9,0-2.9-1.1-2.9-3.3V384h-1.9v-1.3h1.9v-2.2l1.6-.4v2.6h3.3V384h-3.3v6.1c0,1.3.7,1.8,1.6,1.8a2.6,2.6,0,0,0,1.4-.3Z"/><path d="M236.7,393.2V382.7h1l.5,1.5a3.8,3.8,0,0,1,3.2-1.7l.9.2-.3,1.5h-.8a3.6,3.6,0,0,0-2.8,1.4v7.7Z"/><path d="M251.2,393.2l-.6-1a4.6,4.6,0,0,1-3,1.2c-2.5,0-3.4-1.7-3.4-3.7v-7h1.7v7c0,1.7.9,2.2,2.1,2.2a4.3,4.3,0,0,0,2.6-1v-8.2h1.7v10.5Z"/><path d="M262.8,392.7a5.8,5.8,0,0,1-3,.7c-2.6,0-4.9-1.8-4.9-5.3s2.3-5.6,5.3-5.6a5.5,5.5,0,0,1,2.6.6l-.5,1.4a3.8,3.8,0,0,0-2.1-.5c-2.1,0-3.5,1.2-3.5,4.1s1.6,3.8,3.4,3.8a4.4,4.4,0,0,0,2.3-.5Z"/><path d="M272.1,392.7a6.2,6.2,0,0,1-3.1.7c-2.6,0-4.8-1.8-4.8-5.3s2.2-5.6,5.2-5.6a5.5,5.5,0,0,1,2.6.6l-.4,1.4a4.5,4.5,0,0,0-2.2-.5c-2.1,0-3.5,1.2-3.5,4.1s1.6,3.8,3.4,3.8a4.1,4.1,0,0,0,2.3-.5Z"/><path d="M275.1,380.6a1,1,0,0,1-1-1.1,1,1,0,0,1,1-1.1,1,1,0,0,1,1.1,1.1A1,1,0,0,1,275.1,380.6Zm2.1,12.5a2.5,2.5,0,0,1-1.2.3c-1.4,0-1.8-.9-1.8-2.1v-8.6h1.7v8.4c0,.5.1.9.7.9h.4Z"/><path d="M283.7,382.5c3.3,0,4.8,2.5,4.8,5.5s-1.9,5.4-4.9,5.4-4.8-2.4-4.8-5.4S280.7,382.5,283.7,382.5Zm-.1,9.4c2.2,0,3.2-1.8,3.2-3.9s-1-4-3.2-4-3.1,1.8-3.1,4S281.5,391.9,283.6,391.9Zm-1.7-11.1,1.9-3h1.9l-2.4,3Z"/><path d="M297.8,393.2v-7.1c0-1.7-.9-2.1-2.1-2.1a4.4,4.4,0,0,0-2.8,1.1v8.1h-1.7V382.7h1l.6,1a6.2,6.2,0,0,1,3.3-1.2c2.6,0,3.3,1.5,3.3,3.6v7.1Z"/><path d="M314.9,393.2l-.4-1a4.5,4.5,0,0,1-2.9,1.2c-2.7,0-4.5-2.2-4.5-5.2s2-5.7,5-5.7a5.7,5.7,0,0,1,2.3.5v-5.4h1.7v15.6Zm-.5-8.7a4.4,4.4,0,0,0-2.2-.5c-2.1,0-3.3,1.5-3.3,4s1.2,3.9,3,3.9a3.8,3.8,0,0,0,2.5-1Z"/><path d="M327.1,392.5a5.8,5.8,0,0,1-3.4.9c-3,0-4.9-2-4.9-5.3s1.8-5.6,4.6-5.6,3.9,2,3.9,4.3a8.6,8.6,0,0,1-.1,1.6h-6.6a3.2,3.2,0,0,0,3.4,3.5,6.2,6.2,0,0,0,2.6-.6Zm-1.4-5.2v-.7c0-1.5-.7-2.6-2.4-2.6s-2.7,1.7-2.7,3.3Z"/><path d="M335.2,397.4V382.7h1.2l.4,1a4.5,4.5,0,0,1,2.9-1.2c2.8,0,4.5,2.3,4.5,5.2s-2,5.7-5,5.7a5.7,5.7,0,0,1-2.3-.5v4.5Zm1.7-6a4.4,4.4,0,0,0,2.2.5c2.1,0,3.3-1.5,3.3-4s-1.2-3.9-3-3.9a3.8,3.8,0,0,0-2.5,1Z"/><path d="M355.2,393.1a3,3,0,0,1-1.2.3,1.8,1.8,0,0,1-1.8-1.2,4.5,4.5,0,0,1-3.2,1.2c-1.7,0-3-1-3-2.6s2.7-3.4,6.2-3.4c0-1.8,0-3.4-2.4-3.4a5.7,5.7,0,0,0-2.7.6l-.4-1.3a7.1,7.1,0,0,1,3.4-.8c3.2,0,3.8,1.8,3.8,4.7v3.7c0,.7.1,1.1.7,1.1h.4Zm-3-4.6c-2.7,0-4.5.5-4.5,2a1.6,1.6,0,0,0,1.7,1.5,3.9,3.9,0,0,0,2.8-1.1Z"/><path d="M356.6,393.2v-1.3l6-7.8h-5.9v-1.4h7.7v1.5l-5.9,7.6h6v1.4Z"/><path d="M379.3,393.2l-.5-1a4.1,4.1,0,0,1-2.8,1.2c-2.7,0-4.5-2.2-4.5-5.2s2-5.7,4.9-5.7a5.9,5.9,0,0,1,2.4.5v-5.4h1.7v15.6Zm-.5-8.7a4.9,4.9,0,0,0-2.2-.5c-2.1,0-3.4,1.5-3.4,4s1.3,3.9,3.1,3.9a3.8,3.8,0,0,0,2.5-1Z"/><path d="M391.5,392.5a6.1,6.1,0,0,1-3.5.9c-2.9,0-4.9-2-4.9-5.3s1.9-5.6,4.7-5.6,3.9,2,3.9,4.3a8.8,8.8,0,0,1-.2,1.6h-6.6c.1,1.7,1,3.5,3.4,3.5a6.3,6.3,0,0,0,2.7-.6Zm-1.5-5.2c0-.2.1-.5.1-.7a2.3,2.3,0,0,0-2.4-2.6c-1.9,0-2.7,1.7-2.7,3.3Z"/><path d="M401,393.2v-7.1c0-1.7-.9-2.1-2.1-2.1a4.4,4.4,0,0,0-2.8,1.1v8.1h-1.7V382.7h1l.7,1a5.5,5.5,0,0,1,3.2-1.2c2.6,0,3.4,1.5,3.4,3.6v7.1Z"/><path d="M411.3,392.9a3.7,3.7,0,0,1-2,.5c-1.9,0-2.9-1.1-2.9-3.3V384h-1.9v-1.3h1.9v-2.2l1.6-.4v2.6h3.3V384H408v6.1c0,1.3.7,1.8,1.6,1.8a2.6,2.6,0,0,0,1.4-.3Z"/><path d="M413.6,393.2V382.7h1l.5,1.5a3.8,3.8,0,0,1,3.2-1.7l.9.2-.3,1.5H418a3.6,3.6,0,0,0-2.7,1.4v7.7Z"/><path d="M424.8,382.5c3.3,0,4.8,2.5,4.8,5.5s-1.9,5.4-4.9,5.4-4.8-2.4-4.8-5.4S421.8,382.5,424.8,382.5Zm-.1,9.4c2.2,0,3.2-1.8,3.2-3.9s-1-4-3.2-4-3.1,1.8-3.1,4S422.6,391.9,424.7,391.9Z"/><path d="M444.5,393.2l-.5-1a4.5,4.5,0,0,1-2.9,1.2c-2.6,0-4.5-2.2-4.5-5.2s2-5.7,5-5.7a5.7,5.7,0,0,1,2.3.5v-5.4h1.7v15.6Zm-.6-8.7a4.2,4.2,0,0,0-2.1-.5c-2.1,0-3.4,1.5-3.4,4s1.2,3.9,3,3.9a3.8,3.8,0,0,0,2.5-1Z"/><path d="M456.6,392.5a5.8,5.8,0,0,1-3.4.9c-3,0-4.9-2-4.9-5.3s1.8-5.6,4.6-5.6,3.9,2,3.9,4.3a8.6,8.6,0,0,1-.1,1.6h-6.6a3.3,3.3,0,0,0,3.4,3.5,5.9,5.9,0,0,0,2.6-.6Zm-1.4-5.2v-.7c0-1.5-.7-2.6-2.4-2.6s-2.7,1.7-2.7,3.3Z"/><path d="M467.8,393.1a3.3,3.3,0,0,1-1.3.3c-1.4,0-1.8-.9-1.8-2.1V377.6h1.7v13.5c0,.5.1.9.7.9h.4Z"/><path d="M478.5,393.1a3.5,3.5,0,0,1-1.3.3,1.7,1.7,0,0,1-1.7-1.2,4.8,4.8,0,0,1-3.3,1.2,2.7,2.7,0,0,1-2.9-2.6c0-2.8,2.7-3.4,6.2-3.4,0-1.8-.1-3.4-2.4-3.4a5.4,5.4,0,0,0-2.7.6l-.5-1.3a7.5,7.5,0,0,1,3.5-.8c3.2,0,3.7,1.8,3.7,4.7v3.7c0,.7.1,1.1.8,1.1h.3Zm-3-4.6c-2.7,0-4.5.5-4.5,2a1.5,1.5,0,0,0,1.7,1.5,3.9,3.9,0,0,0,2.8-1.1Z"/><path d="M494.2,393.1a3.5,3.5,0,0,1-1.2.3,1.8,1.8,0,0,1-1.8-1.2,4.8,4.8,0,0,1-3.3,1.2,2.7,2.7,0,0,1-2.9-2.6c0-2.8,2.7-3.4,6.2-3.4,0-1.8-.1-3.4-2.4-3.4a5.4,5.4,0,0,0-2.7.6l-.4-1.3a6.8,6.8,0,0,1,3.4-.8c3.2,0,3.7,1.8,3.7,4.7v3.7c0,.7.1,1.1.8,1.1h.3Zm-3-4.6c-2.7,0-4.5.5-4.5,2a1.5,1.5,0,0,0,1.7,1.5,3.9,3.9,0,0,0,2.8-1.1Z"/><path d="M502.9,384a3.1,3.1,0,0,1,.7,2,3.7,3.7,0,0,1-3.8,3.7h-.7a1.9,1.9,0,0,0-.4.9c0,.4.1.7,1.2.7,3.5,0,4.6,1.1,4.6,2.9s-1.8,3.6-4.7,3.6-4.1-1-4.1-3a2.7,2.7,0,0,1,2.1-2.5,1.6,1.6,0,0,1-.7-1.4v-.4l.9-1.1a3.4,3.4,0,0,1-1.9-3.1,3.6,3.6,0,0,1,3.7-3.7,4.1,4.1,0,0,1,1.9.4l3.7-.2V384Zm-5.6,10.4c0,1,.8,1.9,2.6,1.9s2.9-.7,2.9-2-.6-1.7-2.9-1.7h-1A1.8,1.8,0,0,0,497.3,394.4ZM502,386a2,2,0,0,0-2.2-2.2c-1.2,0-2.1.8-2.1,2.4a2,2,0,0,0,2.1,2.1A2.1,2.1,0,0,0,502,386Z"/><path d="M514.6,392.5a5.8,5.8,0,0,1-3.4.9c-3,0-4.9-2-4.9-5.3s1.8-5.6,4.6-5.6,3.9,2,3.9,4.3a8.6,8.6,0,0,1-.1,1.6h-6.6a3.3,3.3,0,0,0,3.4,3.5,5.9,5.9,0,0,0,2.6-.6Zm-1.4-5.2v-.7c0-1.5-.7-2.6-2.4-2.6s-2.7,1.7-2.7,3.3Z"/><path d="M524.1,393.2v-7.1c0-1.7-.9-2.1-2-2.1a4.2,4.2,0,0,0-2.8,1.1v8.1h-1.7V382.7h1l.6,1a5.5,5.5,0,0,1,3.2-1.2c2.7,0,3.4,1.5,3.4,3.6v7.1Z"/><path d="M536.2,393.2l-.5-1a4.5,4.5,0,0,1-2.9,1.2c-2.6,0-4.5-2.2-4.5-5.2s2-5.7,5-5.7a5.7,5.7,0,0,1,2.3.5v-5.4h1.7v15.6Zm-.6-8.7a4.2,4.2,0,0,0-2.1-.5c-2.1,0-3.4,1.5-3.4,4s1.2,3.9,3.1,3.9a3.7,3.7,0,0,0,2.4-1Z"/><path d="M549.2,393.1a4.2,4.2,0,0,1-1.3.3,1.7,1.7,0,0,1-1.7-1.2,5,5,0,0,1-3.3,1.2c-1.7,0-3-1-3-2.6s2.7-3.4,6.2-3.4c0-1.8,0-3.4-2.3-3.4a6.1,6.1,0,0,0-2.8.6l-.4-1.3a7.4,7.4,0,0,1,3.4-.8c3.3,0,3.8,1.8,3.8,4.7v3.7c0,.7.1,1.1.7,1.1h.4Zm-3.1-4.6c-2.6,0-4.4.5-4.4,2a1.5,1.5,0,0,0,1.7,1.5,3.5,3.5,0,0,0,2.7-1.1Z"/><path d="M187.6,422.4V407.7h1.2l.4.9a4.7,4.7,0,0,1,2.9-1.1c2.8,0,4.5,2.2,4.5,5.1s-2,5.7-5,5.7a5.7,5.7,0,0,1-2.3-.5v4.6Zm1.7-6a4.9,4.9,0,0,0,2.2.5c2.1,0,3.3-1.5,3.3-4.1s-1.2-3.9-3-3.9a4.2,4.2,0,0,0-2.5,1Z"/><path d="M203.4,407.5c3.3,0,4.8,2.4,4.8,5.4s-1.9,5.4-4.9,5.4-4.8-2.4-4.8-5.4S200.4,407.5,203.4,407.5Zm-.1,9.4c2.2,0,3.2-1.8,3.2-4s-1-4-3.2-4-3.1,1.8-3.1,4S201.2,416.9,203.3,416.9Z"/><path d="M213.9,418a2.5,2.5,0,0,1-1.2.3c-1.4,0-1.8-.9-1.8-2.1V402.5h1.7v13.6c0,.4.1.8.7.8h.4Z"/><path d="M216.1,405.8l1.9-3.1h1.9l-2.4,3.1Zm3.3,12.2a3.3,3.3,0,0,1-1.3.3c-1.4,0-1.8-.9-1.8-2.1v-8.5H218v8.4c0,.4.1.8.7.8h.4Z"/><path d="M227.1,417.8a4.3,4.3,0,0,1-2.1.5c-1.9,0-2.9-1.1-2.9-3.3v-6.1h-1.9v-1.2h1.9v-2.3l1.7-.4v2.7H227v1.2h-3.2v6.2c0,1.3.6,1.8,1.6,1.8a4.2,4.2,0,0,0,1.3-.3Z"/><path d="M230.3,405.5a1,1,0,0,1-1.1-1.1,1.1,1.1,0,0,1,1.1-1.1,1.1,1.1,0,0,1,1.1,1.2A1.1,1.1,0,0,1,230.3,405.5Zm2.1,12.5a2.7,2.7,0,0,1-1.3.3c-1.3,0-1.7-.9-1.7-2.1v-8.5H231v8.4c0,.4.1.8.8.8h.3Z"/><path d="M241.9,417.6a6.2,6.2,0,0,1-3.1.7c-2.6,0-4.8-1.8-4.8-5.3s2.2-5.5,5.2-5.5a4.5,4.5,0,0,1,2.6.6l-.4,1.3a4.5,4.5,0,0,0-2.2-.5c-2.1,0-3.5,1.3-3.5,4.1s1.6,3.9,3.4,3.9a4.6,4.6,0,0,0,2.4-.6Z"/><path d="M252.4,418a2.5,2.5,0,0,1-1.3.3,1.7,1.7,0,0,1-1.8-1.2,4.5,4.5,0,0,1-3.2,1.2c-1.7,0-3-1-3-2.6s2.7-3.3,6.2-3.3c0-1.9,0-3.5-2.3-3.5a5.8,5.8,0,0,0-2.8.7l-.4-1.4a9.1,9.1,0,0,1,3.4-.7c3.3,0,3.8,1.7,3.8,4.6v3.7c0,.7.1,1.1.7,1.1h.4Zm-3.1-4.5c-2.7,0-4.4.4-4.4,2a1.6,1.6,0,0,0,1.6,1.5,4.2,4.2,0,0,0,2.8-1.1Z"/><path d="M266.3,418.1V411c0-1.7-.9-2.1-2.1-2.1a4.4,4.4,0,0,0-2.8,1.1v8.1h-1.7V407.7h1l.7,1a4.9,4.9,0,0,1,3.2-1.2c2.6,0,3.3,1.5,3.3,3.5v7.1Z"/><path d="M279.7,418a2.5,2.5,0,0,1-1.3.3,1.7,1.7,0,0,1-1.8-1.2,4.5,4.5,0,0,1-3.2,1.2c-1.7,0-3-1-3-2.6s2.7-3.3,6.2-3.3c0-1.9,0-3.5-2.3-3.5a5.8,5.8,0,0,0-2.8.7l-.4-1.4a9.1,9.1,0,0,1,3.4-.7c3.2,0,3.8,1.7,3.8,4.6v3.7c0,.7.1,1.1.7,1.1h.4Zm-3.1-4.5c-2.7,0-4.5.4-4.5,2a1.6,1.6,0,0,0,1.7,1.5,4.4,4.4,0,0,0,2.8-1.1Z"/><path d="M288.9,417.6a5.5,5.5,0,0,1-3,.7c-2.6,0-4.9-1.8-4.9-5.3s2.3-5.5,5.3-5.5a4.5,4.5,0,0,1,2.6.6l-.4,1.3a4.5,4.5,0,0,0-2.2-.5c-2.1,0-3.5,1.3-3.5,4.1s1.6,3.9,3.4,3.9a4.2,4.2,0,0,0,2.3-.6Z"/><path d="M292,405.5a1.1,1.1,0,0,1,0-2.2c.7,0,1.1.4,1.1,1.2A1,1,0,0,1,292,405.5Zm2.1,12.5a2.5,2.5,0,0,1-1.2.3c-1.4,0-1.8-.9-1.8-2.1v-8.5h1.7v8.4c0,.4,0,.8.7.8h.4Z"/><path d="M300.6,407.5c3.3,0,4.8,2.4,4.8,5.4s-1.9,5.4-4.9,5.4-4.8-2.4-4.8-5.4S297.6,407.5,300.6,407.5Zm-.1,9.4c2.2,0,3.2-1.8,3.2-4s-1-4-3.2-4-3.1,1.8-3.1,4S298.4,416.9,300.5,416.9Z"/><path d="M314.6,418.1V411c0-1.7-.8-2.1-2-2.1a4.4,4.4,0,0,0-2.8,1.1v8.1h-1.7V407.7h1l.6,1a5.5,5.5,0,0,1,3.3-1.2c2.6,0,3.3,1.5,3.3,3.5v7.1Z"/><path d="M328,418a1.9,1.9,0,0,1-1.2.3,1.7,1.7,0,0,1-1.8-1.2,4.5,4.5,0,0,1-3.2,1.2c-1.7,0-3-1-3-2.6s2.7-3.3,6.2-3.3c0-1.9,0-3.5-2.4-3.5a5.7,5.7,0,0,0-2.7.7l-.4-1.4a8.7,8.7,0,0,1,3.4-.7c3.2,0,3.8,1.7,3.8,4.6v3.7c0,.7.1,1.1.7,1.1h.4Zm-3-4.5c-2.7,0-4.5.4-4.5,2a1.6,1.6,0,0,0,1.7,1.5,4.4,4.4,0,0,0,2.8-1.1Z"/><path d="M333.3,418a2.7,2.7,0,0,1-1.3.3c-1.4,0-1.8-.9-1.8-2.1V402.5h1.7v13.6c0,.4.1.8.8.8h.3Z"/><path class="d" d="M141,179.9l-3.7-5a5.1,5.1,0,0,0-5.1-1.9,5.6,5.6,0,0,0-4.5,4.1,54,54,0,0,0-1,5.8c-.1.4.2.8.3,1.2s.3,1.1.4,1.6a1.6,1.6,0,0,1-1.2,1.9,1.6,1.6,0,0,1-1.9-1.3,13.9,13.9,0,0,0-11.5-10.7,14,14,0,0,0-4.1-.6,39.5,39.5,0,0,1-16.9-3.9l-.5-.3v.7a11.7,11.7,0,0,0,11.2,9.5h3.6a1.6,1.6,0,1,1,0,3.1c-2.1-.1-4.2,0-6.3-.3a13.6,13.6,0,0,1-7.5-4.1,2.3,2.3,0,0,1-.7-.7h-.5a31.9,31.9,0,0,0,1.6,4.1,13.2,13.2,0,0,0,11.7,7.4H111c1.2,0,2,.7,1.8,1.7s-.5,1.4-1.3,1.4c-4-.1-8,.5-12-.8l-2.9-1.2a20.6,20.6,0,0,0,5,4.4,22.1,22.1,0,0,0,12.7,3.6h4.1c1.1.1,1.8.6,1.8,1.6a1.5,1.5,0,0,1-1.9,1.5,14.9,14.9,0,0,0-7.4,1.7,33.6,33.6,0,0,1-13.3,2.6H94.5l6.7,13.2.8-.6,5.4-4.2a17.3,17.3,0,0,1,10-3.5,20.6,20.6,0,0,0,11.1-3,1.7,1.7,0,0,1,2.4.4,1.7,1.7,0,0,1-.8,2.3,23.2,23.2,0,0,1-12,3.4,14.5,14.5,0,0,0-8.8,2.9l-6.8,5.3c-2,1.5-2.6,1.4-3.8-.8-2.6-5.3-5.2-10.5-7.9-15.7-.8-1.7-.2-2.8,1.7-2.8l10-.4a43.7,43.7,0,0,0,5.2-1.2V202l-.5-.2c-9.5-2.9-15.6-9-18.3-18.5a28.3,28.3,0,0,1-.9-6.5c-.1-2.8,0-5.6,0-8.4s1.2-2.4,2.7-1.5a35.2,35.2,0,0,0,17.7,4.9,21,21,0,0,1,15.2,6.7l.5.5a10.6,10.6,0,0,1,.4-1.9c1.2-6,7.7-9.2,12.8-6.2a14.8,14.8,0,0,1,2.9,2.7c1.3,1.4,2.4,2.9,3.6,4.4l.6.6,2.3-7.7a9.2,9.2,0,0,1-6.1-3.5,8.7,8.7,0,0,1-1.7-7.5,1.7,1.7,0,0,1,1.6-1.6,8.9,8.9,0,0,1,10.3,5.4l.4.8,3-2.8c.2-.2.2-.7.3-1a8.6,8.6,0,0,1,12.1-5.7c1.3.7,1.6,1.2,1.4,2.7a8.7,8.7,0,0,1-11.4,7c-.3-.1-.8-.2-1,0a23.6,23.6,0,0,0-6.4,8.9l3.8-.8a9,9,0,0,1,2.3.2,1.8,1.8,0,0,1,1.8,1.7,9.1,9.1,0,0,1-7.9,10.8l-1.6.2c.2,1,.4,1.9.5,2.8s.2,1.2-.1,1.5a2.8,2.8,0,0,1-1.5.8,1.4,1.4,0,0,1-1.3-1.3l-.9-6.3a3.4,3.4,0,0,1,0-1,2.4,2.4,0,0,0-2.7,2.5V191a22.7,22.7,0,0,1-1.6,8.6c-.4,1.1-1.2,1.6-2.1,1.2a1.5,1.5,0,0,1-.8-2.2,23.2,23.2,0,0,0,1.4-8.2c-.1-1.7,0-3.3-.1-4.9A5.9,5.9,0,0,1,141,179.9Zm7.3-12.2c.7-3.4-3.1-7.2-6.4-6.4C141.3,164.8,144.9,168.4,148.3,167.7Zm-.8,14c-.1.7.2.8.9.8a6,6,0,0,0,5.7-5.8c0-.6-.1-.8-.8-.8A6,6,0,0,0,147.5,181.7Zm17.2-24c-3-1.3-6.8.7-7.2,3.8C160.3,163,164.1,161,164.7,157.7Z"/><path class="d" d="M134.8,203.9a1.6,1.6,0,0,1,1.6,1.6,1.7,1.7,0,0,1-1.6,1.5,1.5,1.5,0,0,1-1.5-1.6A1.4,1.4,0,0,1,134.8,203.9Z"/><path class="d" d="M135.2,179.2a1.6,1.6,0,0,1-1.7,1.5,1.5,1.5,0,0,1-1.4-1.5,1.6,1.6,0,0,1,1.6-1.6A1.7,1.7,0,0,1,135.2,179.2Z"/><path class="d" d="M165.4,86a26.9,26.9,0,0,0-2-2.7,2.6,2.6,0,0,0-2.7-1,3,3,0,0,0-2.5,2.2,16.7,16.7,0,0,0-.5,3.1c-.1.2.1.4.1.7l.3.9a.9.9,0,0,1-.7,1c-.5.1-.8-.2-1-.7a8.5,8.5,0,0,0-.6-1.7,9.3,9.3,0,0,0-5.7-4.2,14.6,14.6,0,0,0-2.2-.3,21,21,0,0,1-9.2-2.1h-.2v.3a6.4,6.4,0,0,0,6.1,5.2h1.9a.9.9,0,0,1,1,.9c0,.5-.4.8-1,.8s-2.3,0-3.4-.2a7.2,7.2,0,0,1-4.1-2.2c-.1-.1-.3-.2-.4-.4h-.2a14.3,14.3,0,0,0,.8,2.2,7.2,7.2,0,0,0,6.4,4h3.6c.6,0,1,.4.9.9s-.2.8-.7.8c-2.1,0-4.3.3-6.5-.5l-1.6-.6a14.6,14.6,0,0,0,2.7,2.4,13.2,13.2,0,0,0,7,2h2.2c.6,0,.9.3.9.8s-.3.9-1,.8a8.1,8.1,0,0,0-4,.9,16.3,16.3,0,0,1-7.2,1.5h-1.7l3.6,7.1.5-.3,2.9-2.3a9.6,9.6,0,0,1,5.5-1.9,11.7,11.7,0,0,0,6-1.6.8.8,0,0,1,1.2.2c.3.5.2.9-.4,1.2A11.5,11.5,0,0,1,153,105a7.5,7.5,0,0,0-4.8,1.6l-3.7,2.9c-1,.8-1.4.7-2-.5l-4.3-8.5c-.5-.9-.1-1.5.9-1.5l5.5-.3a15.7,15.7,0,0,0,2.8-.6h-.3a14.2,14.2,0,0,1-10-10,14.7,14.7,0,0,1-.4-3.6c-.1-1.5,0-3,0-4.6s.6-1.3,1.4-.8a18.4,18.4,0,0,0,9.6,2.7,11.4,11.4,0,0,1,8.3,3.7l.3.2a3,3,0,0,1,.2-1,4.7,4.7,0,0,1,7-3.4,10.6,10.6,0,0,1,1.5,1.5l1.9,2.4.4.3,1.3-4.2a5.1,5.1,0,0,1-3.4-1.9,4.8,4.8,0,0,1-.9-4,1,1,0,0,1,.9-.9,4.9,4.9,0,0,1,5.6,2.9l.2.4,1.6-1.5c.1-.1.1-.4.2-.5a4.6,4.6,0,0,1,6.5-3.1c.8.3.9.6.8,1.5a4.7,4.7,0,0,1-6.2,3.7c-.1,0-.4-.1-.5,0a13,13,0,0,0-3.5,4.9,7.9,7.9,0,0,1,2-.4,5.6,5.6,0,0,1,1.3,0,1.2,1.2,0,0,1,1,1,5,5,0,0,1-4.3,5.9H169a11,11,0,0,1,.3,1.6.8.8,0,0,1-.1.8,1,1,0,0,1-.8.4.8.8,0,0,1-.7-.7c-.2-1.1-.3-2.3-.5-3.4v-.5a1.2,1.2,0,0,0-1.4,1.3V92a15.1,15.1,0,0,1-.9,4.7.9.9,0,0,1-1.2.7,1,1,0,0,1-.4-1.3,13.2,13.2,0,0,0,.8-4.4,22.5,22.5,0,0,1,0-2.6A3.3,3.3,0,0,1,165.4,86Zm4-6.6a3.2,3.2,0,0,0-3.5-3.5A3.3,3.3,0,0,0,169.4,79.4ZM169,87c-.1.3.1.4.5.4a3.4,3.4,0,0,0,3.1-3.1c0-.4-.1-.5-.5-.5A3.3,3.3,0,0,0,169,87Zm9.3-13.1a2.9,2.9,0,0,0-3.9,2.1A2.8,2.8,0,0,0,178.3,73.9Z"/><path class="d" d="M162.1,99a.8.8,0,0,1,.8.9.9.9,0,0,1-.8.8.8.8,0,0,1-.8-.9A.9.9,0,0,1,162.1,99Z"/><path class="d" d="M162.3,85.6a.9.9,0,0,1-.9.9.9.9,0,0,1-.8-.9.8.8,0,0,1,.9-.8A.9.9,0,0,1,162.3,85.6Z"/><path class="e" d="M193.1,106.3v-2.6a3.2,3.2,0,0,1,2.3-3.1l2.8-.8c.2,0,.3-.1.3-.4h0a2.2,2.2,0,0,0-.6-2,3.3,3.3,0,0,1-.8-2.7,1.3,1.3,0,0,0-.4-1,4.1,4.1,0,0,1-.7-5.1,4.4,4.4,0,0,1,3.3-1.8,8.2,8.2,0,0,1,4.1.5,1.3,1.3,0,0,0,1.7-.2c.3-.4.7-.3,1,.1a4.7,4.7,0,0,1,.8,4,4.6,4.6,0,0,1-1.5,2.6.9.9,0,0,0-.3.7,3.7,3.7,0,0,1-.7,2.9,2.2,2.2,0,0,0-.6,2,.5.5,0,0,0,.4.6l2.7.7a3.2,3.2,0,0,1,2.3,3v5.7c0,.4-.2.7-.6.7s-.5-.3-.5-.7-.1-3.7-.1-5.6a1.9,1.9,0,0,0-1.5-2L204,101c-.3-.1-.4,0-.5.2a2.7,2.7,0,0,1-4.5.1.7.7,0,0,0-.8-.3l-2.5.7a2,2,0,0,0-1.4,2v5.4c0,.1.1.2,0,.3a.5.5,0,0,1-.6.6c-.3,0-.5-.2-.5-.6v-3.1Zm12.3-18.1c-.8.7-1.6.4-2.5.1l-.7-.2a6.5,6.5,0,0,0-3.4-.2,2.8,2.8,0,0,0-2.2,2.1,3.2,3.2,0,0,0,1.1,3l.6-1c.4-.7.5-.7,1.2-.4s2.5.9,3.8-.1a.8.8,0,0,1,1.2.2,3,3,0,0,1,.4.8A3.6,3.6,0,0,0,205.4,88.2Zm-1.7,4.5-1.5.5a5,5,0,0,1-2.7-.3h-.4c-.4.7-1.1,1.3-.8,2.2v.2a3.4,3.4,0,0,0,2.7,2.8h.3a3.3,3.3,0,0,0,2.6-2.6,13.3,13.3,0,0,0,0-2A2.4,2.4,0,0,0,203.7,92.7Zm-4,6.2c-.2,1.1,0,1.8.7,2.2a1.7,1.7,0,0,0,1.7,0c.7-.6.5-1.4.5-2.3A2.8,2.8,0,0,1,199.7,98.9Z"/><path class="e" d="M216.1,93.3l1.4.4a2.8,2.8,0,0,1,2.3,3c0,2.1-.1,4.2-.1,6.3,0,.1.1.3,0,.4s-.2.5-.6.5a.5.5,0,0,1-.5-.5V96.6a1.5,1.5,0,0,0-1.2-1.7l-2.3-.6a2.2,2.2,0,0,1-4-.1l-2.9.9a1.4,1.4,0,0,0-.7,1.3v2.7a.5.5,0,0,1-.6.6.5.5,0,0,1-.5-.5,2.4,2.4,0,0,1,0-1.2,9.7,9.7,0,0,1,0-1.7,2.6,2.6,0,0,1,1.9-2.5l1.7-.5h-1.1c-.5-.1-.7-.2-.7-.7s-.1-3.5,0-5.3a4.9,4.9,0,0,1,9.7.3c.1,1.7,0,3.3,0,4.9s-.2.7-.7.8h-1.1Zm.7-1.2V87.6a3.7,3.7,0,0,0-3.6-3.5,3.5,3.5,0,0,0-3.8,3.3c-.1,1.5,0,3-.1,4.6h1.3a9.4,9.4,0,0,1-.6-1.5,12.1,12.1,0,0,1-.1-1.9,2.1,2.1,0,0,1,.7-1.5,10.5,10.5,0,0,1,.8-1.1.7.7,0,0,1,.5-.3c.2,0,.5.2.5.4a2.6,2.6,0,0,0,1.5,1.4l1.7.6c.4,0,.6.2.6.5s.1,2.3-.8,3.3h1.4Zm-4.9-4.6c-.4.4-.8.7-.8,1.2v1.4a2.1,2.1,0,0,0,1.7,1.8,2,2,0,0,0,2.2-2.1c0-.4,0-.6-.4-.7A5,5,0,0,1,211.9,87.5Zm.3,5.5c-.1.7,0,1,.3,1.2a1.3,1.3,0,0,0,1.2,0,1,1,0,0,0,.2-1.2Z"/><path class="e" d="M191.4,94.3a2.4,2.4,0,0,1-4.2,0l-2.5.7a1.4,1.4,0,0,0-.9,1.5v6.4a.9.9,0,0,1-.1.5c0,.3-.2.5-.5.4s-.4-.2-.6-.4V96.5a2.6,2.6,0,0,1,2-2.7l2.1-.6c.3-.1.3-.2.3-.4a2,2,0,0,0-.4-1.5,2.6,2.6,0,0,1-.7-2.2,1.2,1.2,0,0,0-.3-.9,3.5,3.5,0,0,1-.9-3.6,3.3,3.3,0,0,1,2.9-2.2,6,6,0,0,1,3.5.4,1.2,1.2,0,0,0,1.5-.2c.2-.3.6-.2.9.2a4.1,4.1,0,0,1,.7,3.4,3.7,3.7,0,0,1-1.2,2,.9.9,0,0,0-.3.7,3.6,3.6,0,0,1-1,2.8c-.2.3-.1.9-.1,1.4h.3l2.1.6a2.7,2.7,0,0,1,2,2.7v2.4c0,.5-.3.8-.6.8s-.6-.3-.6-.8V96.6a1.5,1.5,0,0,0-1.2-1.7l-2-.6Zm1.1-7.3a2.9,2.9,0,0,0,.3-3.1,2.1,2.1,0,0,1-1.9,0,5.9,5.9,0,0,0-3.2-.3,2.1,2.1,0,0,0-1.9,1.3,2.4,2.4,0,0,0,.7,2.6,4.3,4.3,0,0,1,.4-.7c.3-.7.5-.7,1.1-.4a2.7,2.7,0,0,0,3.1-.1c.3-.3.8-.1,1.1.2S192.3,86.9,192.5,87Zm-1.2.5a3.5,3.5,0,0,1-3.3.2h-.2a3.4,3.4,0,0,0-.7,1.1,2.5,2.5,0,0,0,1.4,2.8,1.5,1.5,0,0,0,1.6,0C191.6,90.6,191.8,89.5,191.3,87.5Zm-.9,5.2a2.8,2.8,0,0,1-2.2,0,1.4,1.4,0,0,0,.5,1.5,1.1,1.1,0,0,0,1.2,0C190.5,93.9,190.4,93.3,190.4,92.7Z"/><path class="e" d="M206.3,81v3.1a.5.5,0,0,0,.4.6,2.6,2.6,0,0,1,1,1.3c.2.5.1.8-.2.9a.5.5,0,0,1-.8-.4,1.8,1.8,0,0,0-1.1-1l-2.1-.6-.4.2c-.7,1.4-3.2,1.4-3.8,0l-.4-.2-2.1.6a1.4,1.4,0,0,0-1.2,1.5v.3a.6.6,0,0,1-.6.5c-.3-.1-.5-.2-.5-.6a2.5,2.5,0,0,1,1.2-2.5c.3-.2.4-.3.4-.6-.1-2-.1-4.1,0-6.1a5.2,5.2,0,0,1,5.2-5.2,5.2,5.2,0,0,1,5,5V81Zm-9.1,3.2,1.6-.5h.2a1.7,1.7,0,0,0-.2-1.2,4,4,0,0,1-.8-1.6,7.1,7.1,0,0,1-.1-1.5c0-.7.1-.8.8-1s2.6-.7,3.2-2.1a.7.7,0,0,1,.5-.3.9.9,0,0,1,.5.3,4.4,4.4,0,0,1,.8,1.1,3.7,3.7,0,0,1,.7,1.2,10.5,10.5,0,0,1-.1,2.5,1.7,1.7,0,0,1-.7,1.3c-.3.4-.2.8-.3,1.2a.2.2,0,0,0,.2.2l1.6.5h0c0-2.2.1-4.3,0-6.4a3.8,3.8,0,0,0-3.9-3.7,4,4,0,0,0-4,4.1v6.1Zm5.2-6.5a5.3,5.3,0,0,1-2.6,1.5c-.7.3-.7.3-.7,1.1a2,2,0,0,0,2,2,2,2,0,0,0,2.2-1.9v-.9A1.8,1.8,0,0,0,202.4,77.7Zm-2.2,5.7c0,.5-.2,1.1.4,1.4a1.5,1.5,0,0,0,1.3,0c.4-.4.3-.9.3-1.4Z"/><path class="f" d="M239.5,77.6h.7a2,2,0,0,1,1.7,2.2c0,1.3-.1,2.7-.1,4v2.4a2.1,2.1,0,0,1,2,.3,2.2,2.2,0,0,1,.9,2l.7-.4a1.5,1.5,0,0,1,.1-1.9,2.6,2.6,0,0,1,2.2-.7,2.9,2.9,0,0,1,1.8,1.1V85.5l-.6-6.9a2.1,2.1,0,0,1,1-2,2,2,0,0,1,2.2,0h.2a11.5,11.5,0,0,1,.6-1.7,1.9,1.9,0,0,1,1.7-.8c1.1,0,1.8.8,2,2.4a2,2,0,0,1,2.7.2c.8.8.6,1.8.6,2.8h.4a1.9,1.9,0,0,1,2.1,2c0,.9-.1,1.9-.1,2.8s-.2,3.9-.4,5.9a11.1,11.1,0,0,1-.7,2.2,10.9,10.9,0,0,1-.5,1.7.4.4,0,0,0,.2.5,1.7,1.7,0,0,1,.5,1.2v13.2c0,.7-.3.9-1,.9H230c-.9,0-1.1-.2-1.1-1.1V94.2a1.7,1.7,0,0,1,.6-1.5.6.6,0,0,0,.1-.4,3.1,3.1,0,0,0-.7-.9l-1.3-1a5.7,5.7,0,0,1-1.5-2.2,16.2,16.2,0,0,0-1-1.8c-.3-.5-.7-1-.4-1.7a2.3,2.3,0,0,1,1.8-1.2,3,3,0,0,1,2.2.8l.4.3c-.1-.9-.1-1.7-.2-2.5s-.3-3.7-.5-5.5a2,2,0,0,1,1.1-2,2,2,0,0,1,2.2.1h.2a2.4,2.4,0,0,1,.9-2.1l1.2-.5a1.8,1.8,0,0,1,1.6.8c.3.4.4,1,.7,1.5l1-.3a2,2,0,0,1,2.1,2A6.6,6.6,0,0,1,239.5,77.6Zm-4.7,21.5c.3.7.8,1.3,1.1,2a5.1,5.1,0,0,0,2.1,2.7,5.7,5.7,0,0,1,1.1,1.1c.3.4.5.6,1,.6a.7.7,0,0,1,.8.7.7.7,0,0,1-.8.7h-.9c-.1.1-.2.2-.2.3a5.6,5.6,0,0,0,0,1.3h10.4v-1.6h-2.6a.7.7,0,0,1-.7-.7.6.6,0,0,1,.7-.7.7.7,0,0,0,.8-.6,1.4,1.4,0,0,1,.2-.6,12.7,12.7,0,0,0,.9-4.3l.3-6.4v-.2a.6.6,0,0,0-.5-.5.7.7,0,0,0-.6.4,2,2,0,0,0-.1.7c0,.9-.1,1.8-.1,2.7s-.4.9-.8.8-.7-.3-.7-.9.1-2.8.2-4.1.1-1.5.1-2.3-.1-.6-.5-.6-.5.1-.6.5a.6.6,0,0,0-.1.4c0,.6-.1,1.2-.1,1.7l-.3,4.6c0,.3-.1.6-.4.6h-.7a1.5,1.5,0,0,1-.4-.8c-.1-2.7-.1-5.4-.2-8.1a.6.6,0,0,0-.1-.4c-.1-.2-.3-.5-.5-.5s-.5.1-.6.4v.4c-.1,2.2-.1,4.4-.2,6.5a11.5,11.5,0,0,1-.1,1.9.7.7,0,0,1-.7.7c-.4.1-.7-.2-.7-.7a.3.3,0,0,1-.1-.2c-.1-2-.3-4-.5-6,0-.2-.1-.4-.1-.6a.7.7,0,0,0-.6-.4c-.4.1-.5.3-.5.6v.4c.2,3,.5,6,.7,8.9,0,.5.1,1,.1,1.4a.7.7,0,0,1-.6.7.6.6,0,0,1-.8-.5v-.2l-1.5-1.6A1,1,0,0,0,234.8,99.1Zm11.9-11.9a11.4,11.4,0,0,1,1,1.9,5.7,5.7,0,0,0,2.4,2.9,3.7,3.7,0,0,1,1.5,2,.3.3,0,0,0,.3.3h7a.3.3,0,0,0,.3-.3l.6-1.8a13.6,13.6,0,0,0,.9-4.8c.1-1.8.1-3.7.2-5.6v-.3c-.1-.2-.3-.4-.4-.4l-.6.2a1.3,1.3,0,0,0-.1.6c-.1,1-.1,1.9-.2,2.9s-.3.9-.8.8-.7-.3-.7-.9l.3-5.1V78.2c0-.3-.1-.5-.4-.5a.6.6,0,0,0-.7.4.6.6,0,0,1-.1.4c0,.9-.1,1.8-.1,2.7l-.3,3.7c0,.4-.2.7-.6.7a.7.7,0,0,1-.8-.4v-.5l-.3-7.7v-.6c0-.5-.2-.7-.6-.7s-.6.2-.6.7v.4c-.1,2.6-.1,5.3-.2,7.9,0,.6-.3.9-.7.9s-.8-.2-.8-.8-.3-3.1-.5-4.7a9.7,9.7,0,0,0-.1-1.7,1.5,1.5,0,0,0-.5-.6c-.1-.1-.4,0-.5.2s-.2.4-.2.6c.2,2,.3,4,.5,6l.3,4.3a.8.8,0,0,1-.5.9.9.9,0,0,1-.9-.6V89l-1.4-1.6A1.1,1.1,0,0,0,246.7,87.2Zm-15.6,5.1h6c0-.6-.1-1.3-.1-2a1.9,1.9,0,0,1,1.5-2.1,6.5,6.5,0,0,1,1.4,0,11.3,11.3,0,0,0,.3-1.8c.1-2.2.2-4.4.2-6.6v-.3c-.1-.1-.3-.4-.5-.4a.7.7,0,0,0-.5.3.7.7,0,0,0-.1.5c-.1,1-.1,1.9-.2,2.9s-.3.9-.7.9a.7.7,0,0,1-.7-.9c0-1,.1-1.9.1-2.8s.1-2.4.2-3.6a.6.6,0,0,0-.5-.7c-.3-.1-.6.2-.7.6a1.1,1.1,0,0,1-.1.5l-.3,6.1c-.1.5-.4.8-.8.8s-.7-.3-.7-.9l-.3-8.1c0-.7-.2-1-.5-1s-.6.3-.7.9c-.1,2.8-.1,5.5-.2,8.2,0,.6-.3.9-.8.9s-.7-.3-.7-.9-.3-3.3-.4-5-.1-.9-.2-1.4a1.5,1.5,0,0,0-.5-.6l-.6.3c-.1.1-.1.4-.1.5.2,2.7.5,5.4.7,8.1,0,.7.1,1.5.1,2.3s-.2.7-.6.8-.6-.1-.8-.5a.4.4,0,0,0-.1-.3l-1.5-1.6a1.1,1.1,0,0,0-1.5-.2l1.1,1.9a5.4,5.4,0,0,0,2.1,2.8A3.4,3.4,0,0,1,231.1,92.3Zm28.8,16.2V99.6h-9v8.9Zm-21.8-2.7-1-.9a6.3,6.3,0,0,1-2.4-2.7,10.1,10.1,0,0,0-1.2-2.3,1.2,1.2,0,0,1,0-1.7l.4-.6h-3.4v10.9h6.9C237.6,107.6,237.2,106.6,238.1,105.8Zm21.8-10h-9V98h9Zm-29.5.3h7l-.2-2.3h-6.4c-.2,0-.4,0-.4.3Zm7.2,2.3c.1-.9-.1-1-.9-.7Zm11.8,7v-1h-.1l-.3,1Z"/><path class="f" d="M243.5,106.9a.7.7,0,0,1-.8-.7.8.8,0,0,1,.8-.7.7.7,0,0,1,0,1.4Z"/><path class="g" d="M328.7,93a2.3,2.3,0,0,1-3.6-.7l-.8.8v.4a2.9,2.9,0,0,1-1.6,3.1,2.8,2.8,0,0,1-3.4-.6q-3.2-3-6.3-6.3a2.7,2.7,0,0,1-.5-3.3,2.8,2.8,0,0,1,3-1.6.9.9,0,0,0,.7-.3l8.3-8.3c.2-.2.3-.3.2-.6a3,3,0,0,1,1.6-3,2.7,2.7,0,0,1,3.4.5l6.3,6.3a2.9,2.9,0,0,1,.5,3.4,3.2,3.2,0,0,1-3.1,1.6c-.1-.1-.3,0-.5.1l-.7.6a2.7,2.7,0,0,1,1.3,1.7,2.3,2.3,0,0,1-.6,1.9l3,2.6,8.4,7.4,3.9,3.4a4.4,4.4,0,0,1,1.4,5.1,4.4,4.4,0,0,1-7.1,1.6c-1.3-1.3-2.4-2.7-3.6-4-3.3-3.9-6.7-7.8-10.1-11.6A.3.3,0,0,0,328.7,93Zm3-9.5-6.1-6.1-8.3,8.2,6.2,6.2ZM341,97.7l-9.1-7.9-2.2,2.1,8,9.2,2.6-2.7Zm-.4,6.7,2.7,3.1a2.9,2.9,0,0,0,4.3.1,2.8,2.8,0,0,0-.2-4.2l-2.3-2.1-.7-.6Zm-5.2-23a2,2,0,0,0-.6-1.2l-3-2.9c-1-1.1-2-2.1-3.1-3.1a1.5,1.5,0,0,0-2.3.2,1.4,1.4,0,0,0,.3,1.9l4.4,4.4,1.8,1.8a1.4,1.4,0,0,0,1.6.3A1.6,1.6,0,0,0,335.4,81.4ZM321.3,95.5l.7-.2a1.5,1.5,0,0,0,.4-2.4l-2.3-2.3-3.9-3.9a1.4,1.4,0,0,0-2.1,0,1.3,1.3,0,0,0,0,2q3,3.1,6.3,6.3Zm10.8-8.4c-.2-.2-.3-.5-.5-.6a.7.7,0,0,0-.9.2l-4,4.1a.7.7,0,0,0-.1,1.1.8.8,0,0,0,1.1-.1l4-4A1.6,1.6,0,0,0,332.1,87.1Zm11.1,12.5-1-.9-3.5,3.5.9,1Z"/><path class="g" d="M314,105.3a11,11,0,0,1-.3-1.6,2.4,2.4,0,0,1,2.4-2.5c4.3-.1,8.5-.1,12.8,0a2.5,2.5,0,0,1,2.1,3.7c0,.1-.1.2-.1.3l.5.4a4.2,4.2,0,0,1,1.4,3.8c0,.3-.3.5-.7.6H313.2c-.8,0-1-.2-1-1A3.7,3.7,0,0,1,314,105.3Zm17.3,3.2v-.2a2.2,2.2,0,0,0-2.3-2H315.3a2,2,0,0,0-1.6,2.1Zm-8.8-5.9h-6.2a1.1,1.1,0,1,0,0,2.2h11.3a4,4,0,0,0,1.1,0,1.1,1.1,0,0,0,1.1-.7,1.1,1.1,0,0,0-1.2-1.5Z"/><path class="g" d="M322.4,84.4c-.2-.2-.5-.3-.6-.6a.9.9,0,0,1,.1-.7c.1-.3.3-.4.5-.6l2.5-2.5c.4-.4.8-.5,1.2-.1s.3.7-.2,1.1L323,84Z"/><path class="g" d="M321.1,85.6a.7.7,0,0,1-.7.7.7.7,0,0,1-.8-.7.7.7,0,0,1,.7-.7A.8.8,0,0,1,321.1,85.6Z"/><path class="h" d="M387,84.4c-.1,2-.1,4-.3,6a21.6,21.6,0,0,1-4,10.9,24.3,24.3,0,0,1-9.2,7.9l-2.2.7a3.1,3.1,0,0,1-2.3-.3,24.9,24.9,0,0,1-6.5-4.2,22.9,22.9,0,0,1-7.1-11.9,24.6,24.6,0,0,1-.7-6V79.8c0-.7.1-.9.8-1.1a55.9,55.9,0,0,0,8.9-3.3c1.8-.8,3.6-1.8,5.4-2.8a1.8,1.8,0,0,1,2,0,57,57,0,0,0,12.6,5.6l1.7.5c.6.2.8.4.8,1v4.7Zm-1.7.9V80.6c0-.4-.1-.5-.5-.6a61.6,61.6,0,0,1-13.7-5.9h-.6L366.9,76a55.3,55.3,0,0,1-10.2,4c-.3.1-.4.2-.4.6v6.9a23.4,23.4,0,0,0,1.3,7.9,21.9,21.9,0,0,0,11.2,12.3,3.5,3.5,0,0,0,3.4.3,22.3,22.3,0,0,0,6.9-4.9A20.9,20.9,0,0,0,385,91.6,44.3,44.3,0,0,0,385.3,85.3Z"/><path class="h" d="M368.4,92.4l.3-.5,7.3-7.3a2.7,2.7,0,0,1,3.3-.6,2.4,2.4,0,0,1,.7,3.8c-1,1.2-2.1,2.2-3.2,3.3l-6.5,6.6a2.6,2.6,0,0,1-2.9.7,3,3,0,0,1-1.1-.6l-4.5-4.6a2.5,2.5,0,0,1,2-4.4,2.6,2.6,0,0,1,1.8.9l2.4,2.4Zm-4.8-2.1c-.3.1-.5.1-.7.3s-.5,1,.1,1.5,2.9,3,4.4,4.4,1.1.7,1.7,0l8.3-8.3a8,8,0,0,0,1.3-1.3,1,1,0,0,0-1.4-1.4l-.3.4-8,8c-.6.5-.9.5-1.5-.1s-2.1-2-3.1-3.1Z"/><path class="h" d="M357.8,83.4V82c0-.5.2-.7.7-.9l4.1-1.5a.8.8,0,0,1,1.1.5c.2.4,0,.8-.6,1l-3.3,1.2a.5.5,0,0,0-.4.5v2c0,.6-.3.9-.7.9a.8.8,0,0,1-.9-.9Z"/><path class="h" d="M375,104.5c-.2-.2-.5-.3-.6-.5a1.1,1.1,0,0,1,.1-.8c0-.2.3-.4.5-.5a27.2,27.2,0,0,0,4-4.3c0-.1.1-.2.1-.3s.8-.5,1.2-.2a.8.8,0,0,1,.1,1.1,21.5,21.5,0,0,1-1.8,2.4,37.1,37.1,0,0,1-2.9,2.7Z"/><path class="h" d="M373.1,105.7a.8.8,0,0,1-.8-.8.9.9,0,0,1,.9-.8.8.8,0,0,1,.7.8A.8.8,0,0,1,373.1,105.7Z"/><path class="h" d="M365.2,80.2a.9.9,0,0,1-.7-.9.8.8,0,0,1,.8-.7.9.9,0,0,1,.8.8A.9.9,0,0,1,365.2,80.2Z"/><path class="i" d="M456.5,101.7l-.8.7-1.3-1.5c-.1-.1-.1-.4-.1-.6v-.7a9.6,9.6,0,0,1-5.3,0c0,.1-.1.2,0,.3a1.9,1.9,0,0,1-.7,1.7l-3.9,4.4-.3.3a.6.6,0,0,0,0,.8.5.5,0,0,0,.8-.1,37,37,0,0,0,2.8-2.8l1.8-1.7.5-.3h3.2a.5.5,0,0,1,.5.3l4.5,4.4c.1,0,.1.1.2.2a.5.5,0,0,0,.7,0,.5.5,0,0,0,.1-.8l-1-1-.3-.4.8-.7,1.4,1.5a1.7,1.7,0,0,1-.2,2.2,1.6,1.6,0,0,1-2.3-.1l-4.3-4.2-.6-.3h-2.1a.9.9,0,0,0-.7.3l-4.1,4.2a1.7,1.7,0,0,1-2.5-2.3l4.2-4.6c.5-.6.3-1.1.3-1.7s-.1-.1-.2-.2a8.2,8.2,0,0,1-3.8-3.8.5.5,0,0,0-.5-.3,1.8,1.8,0,0,0-1.7.6l-4.4,3.9a1.6,1.6,0,0,1-2.6-.4,1.6,1.6,0,0,1,.4-2l3.1-3.2a3.7,3.7,0,0,0,1.2-1.3c.3-.5.1-1.2.1-1.8a2.1,2.1,0,0,0-.7-1.8l-3.8-3.7a1.7,1.7,0,0,1,.7-2.8,1.7,1.7,0,0,1,1.7.4l4.7,4.3a2.2,2.2,0,0,0,1.6.2c.1,0,.1-.2.2-.2a7.8,7.8,0,0,1,3.8-3.8c.2-.1.2-.3.3-.5a1.9,1.9,0,0,0-.7-1.7L446,79.7l.8-.7,1,1.1.2.2a2.3,2.3,0,0,1,.9,2.4,8.3,8.3,0,0,1,5.4,0v-.4a1.9,1.9,0,0,1,.6-1.6l3.9-4.3.3-.4c.2-.3.3-.6,0-.9s-.5-.1-.8.1l-2.2,2.3-2.4,2.3-.5.2h-3.1l-.6-.2L445,75.3l-.3-.2h-.6a.5.5,0,0,0,0,.7l1.1,1.3.9,1-.8.7c-.8-.8-1.5-1.7-2.2-2.5l-.2-.4a1.6,1.6,0,0,1,2.5-1.8l.5.4,4.1,4.1.6.2h2.1a.7.7,0,0,0,.6-.3l4.2-4.1a1.6,1.6,0,0,1,2-.4,1.6,1.6,0,0,1,.4,2.6c-1.3,1.6-2.7,3.2-4.1,4.7s-.3,1.1-.4,1.6l.3.2a8.9,8.9,0,0,1,3.8,3.9l.4.2a1.8,1.8,0,0,0,1.7-.5l4.5-4a1.6,1.6,0,0,1,2-.2,1.6,1.6,0,0,1,.7,1.7,2.7,2.7,0,0,1-.6,1l-4.1,4.1a.9.9,0,0,0-.3.7,6.7,6.7,0,0,1,0,2,.9.9,0,0,0,.3.7l4.2,4.2a1.6,1.6,0,0,1,.5,1.7,1.7,1.7,0,0,1-2.8.7l-4.7-4.2a3,3,0,0,0-1.6-.3l-.2.3a9.3,9.3,0,0,1-3.8,3.8.5.5,0,0,0-.3.5,1.7,1.7,0,0,0,.6,1.6Zm-5.7-2.8a4.3,4.3,0,0,1,.5-3,2,2,0,0,1,2.5-1.1l3.2,1.3a.6.6,0,0,0,.7-.1,8.7,8.7,0,0,0,1.7-4.7,7.8,7.8,0,0,0-7-7.9.5.5,0,0,0-.5.3,3.9,3.9,0,0,0,.9,3.9L454,89a3.1,3.1,0,0,1,.5,1c.4,1-1,3.2-2.7,2.7l-1.1-.4-1.9-1a3.4,3.4,0,0,0-1.7-.5,10.7,10.7,0,0,0-3,.6c-.2.1-.2.2-.2.4a7.6,7.6,0,0,0,4.9,6.5A9.5,9.5,0,0,0,450.8,98.9Zm-.1-15.4a7.5,7.5,0,0,0-6.7,6.7l.9-.2a5.5,5.5,0,0,1,5,.6l1.9,1c.6.2.9.1,1.3-.5a1,1,0,0,0,0-1.4l-1-1.2a4.7,4.7,0,0,1-1.4-2.9A14.7,14.7,0,0,1,450.7,83.5Zm-7.6,4.9h-.6a1.4,1.4,0,0,1-1.1-.5l-4.7-4.2-.3-.3a.6.6,0,0,0-.7.1c-.3.3-.2.5,0,.8l.2.2,4.4,4.4a1.1,1.1,0,0,1,.2.6v3.1a1.4,1.4,0,0,1-.2.6,25,25,0,0,0-2.3,2.3l-2.3,2.2c-.2.3-.3.5,0,.8s.5.2.7,0,.3-.2.4-.3l4.7-4.2a1.4,1.4,0,0,1,.9-.3h.7c-.1-1-.3-1.8-.3-2.7S443,89.4,443.1,88.4Zm17,5.4h.6a1.4,1.4,0,0,1,1.2.4c1.5,1.5,3.1,2.9,4.7,4.3l.4.2h.6a.8.8,0,0,0,0-.7l-.2-.2c-1.5-1.5-2.9-3-4.4-4.4l-.3-.6V89.5c.1-.2.1-.4.3-.5l1.7-1.8a37,37,0,0,0,2.8-2.8.5.5,0,0,0,.1-.8.6.6,0,0,0-.8,0l-.3.2c-1.4,1.4-2.9,2.7-4.4,4a1.9,1.9,0,0,1-1.7.7h-.3A9.5,9.5,0,0,1,460.1,93.8Zm-3.6,3.3a12.5,12.5,0,0,0-3-1.2.9.9,0,0,0-1,.2,3.2,3.2,0,0,0-.6,2.5.3.3,0,0,0,.3.3A7.8,7.8,0,0,0,456.5,97.1Z"/><path class="i" d="M470.5,88.6v5h-3.6c-.4-.4-1.1-.7-1.2-1.2a4.5,4.5,0,0,1,0-2.3c.1-.5.8-.9,1.2-1.3h3.6Zm-1.1,1.1h-1.7l-.5.3a1.4,1.4,0,0,0-.6,1.4c.1.3.6,1.1.9,1.1h1.9Z"/><path class="i" d="M451.6,77.2h-.8a1.5,1.5,0,0,1-1.6-1.5,6.7,6.7,0,0,1,0-2,1.6,1.6,0,0,1,1.6-1.5h1.7a1.6,1.6,0,0,1,1.6,1.6,5.4,5.4,0,0,1,0,1.8,1.6,1.6,0,0,1-1.7,1.6Zm.1-3.9h-.8a.5.5,0,0,0-.6.6,4.3,4.3,0,0,0,0,1.6c0,.4.2.6.5.6h1.6a.5.5,0,0,0,.6-.6v-.8C453,73.3,453,73.3,451.7,73.3Z"/><path class="i" d="M437.7,91.3c.2.6-.2,1.1-.7,1.6a2.7,2.7,0,0,1-1.7.8,2.6,2.6,0,0,1-1.9-.8,2.2,2.2,0,0,1-.7-1.7,2.2,2.2,0,0,1,.8-1.9,2.2,2.2,0,0,1,1.7-.7,2.4,2.4,0,0,1,1.9.8C437.7,90.1,437.7,90.1,437.7,91.3Zm-1.1-.2a1.3,1.3,0,0,0-1.3-1.4,1.3,1.3,0,0,0-1.5,1.3c0,1,.5,1.5,1.4,1.5A1.3,1.3,0,0,0,436.6,91.1Z"/><path class="i" d="M451.7,110a2.5,2.5,0,1,1-.1-5,2.5,2.5,0,0,1,.1,5Zm1.3-2.5a1.4,1.4,0,0,0-1.4-1.4c-.7.1-1.4.7-1.3,1.4a1.3,1.3,0,0,0,1.3,1.4A1.4,1.4,0,0,0,453,107.5Z"/><path class="i" d="M457.2,104l-.8-.8.8-.7.8.8Z"/><path class="i" d="M456.7,88.9h1.1v1h-1.1Z"/><path class="i" d="M456.7,86.7v1h-1.1v-1Z"/><path class="j" d="M409.8,95.2h-5.9v13.3c0,1.2-.4,1.5-1.5,1.5h-3.9c-.8,0-1.2-.4-1.2-1.3V81a1.2,1.2,0,0,0-.4-.9,4.7,4.7,0,0,1-.5-5.4,4.8,4.8,0,0,1,4.8-2.4,4.7,4.7,0,0,1,4.1,3.9,4.9,4.9,0,0,1-1.1,4,.9.9,0,0,0-.3,1h11.9a4,4,0,0,1,4.3,4.3v.8h5.3a1.3,1.3,0,0,1,1.4,1.4V99c0,.9-.4,1.3-1.4,1.3H414a4,4,0,0,1-4.2-4.2ZM403.9,93h7.3a37.5,37.5,0,0,1,6.7.2V85.5a1.9,1.9,0,0,0-2.1-2.1H403.9Zm-2.3,14.8v-26h-2.1v26Zm22.9-9.7v-.2c0-3,0-6,.1-9.1,0-.2-.2-.3-.4-.3h-4.1v.5c-.1,3,.2,6-.1,9ZM400.6,79.6a2.6,2.6,0,0,0,2.6-2.6,2.8,2.8,0,0,0-2.6-2.6A2.6,2.6,0,0,0,398,77,2.6,2.6,0,0,0,400.6,79.6ZM412,95.2v1.1a1.8,1.8,0,0,0,1.8,1.8h2.6a1.4,1.4,0,0,0,1.5-1.5,1.5,1.5,0,0,0-1.5-1.4H412Z"/><path class="k" d="M479.6,83.3V81.6a1,1,0,0,1,.7-1.1,17.3,17.3,0,0,1,11-.5,20.1,20.1,0,0,1,6.1,2.9.4.4,0,0,0,.6,0,20.7,20.7,0,0,1,9.2-3.5,16,16,0,0,1,7.8,1.1c.7.2.8.5.8,1.2v1.6h2.4c.8.1,1.1.4,1.1,1.2v24.3c0,.9-.3,1.2-1.2,1.2H477.3c-.9,0-1.2-.3-1.2-1.2V84.6c0-1,.3-1.3,1.2-1.3Zm1.8,21.6c5.5-1.6,10.6-.5,15.4,2.4V85c0-.2,0-.4-.3-.5s-2.5-1.5-3.9-2.1a15.8,15.8,0,0,0-10.7-.6c-.4.2-.5.3-.5.7v22.4Zm32.6,0V82.4c0-.3,0-.4-.3-.5s-2.4-.6-3.6-.7A17.6,17.6,0,0,0,499,84.4a.8.8,0,0,0-.4.7v22.2C503.5,104.4,508.5,103.3,514,104.9ZM478,85.2v23h16.5l-.2-.2c-4.3-2.1-8.8-2.8-13.4-.9H480c-.4-.2-.4-.6-.4-1V85.2Zm37.8,0v21.1a.9.9,0,0,1-1.2.8l-1-.4a15.5,15.5,0,0,0-10.4.4l-2.2,1h16.5v-23Z"/><path class="l" d="M269.6,92.6A17.4,17.4,0,1,1,286.9,110,17.4,17.4,0,0,1,269.6,92.6ZM287,109a16.4,16.4,0,1,0-16.4-16.4A16.4,16.4,0,0,0,287,109Z"/><path class="l" d="M280.6,92.2a9.1,9.1,0,0,1-2-3.2,10.5,10.5,0,0,1-.6-2.4c-.2-.6.1-.9.7-.8l2.2.6h.4L278.8,82c-.7.7-1.4,1.3-2,2a13.3,13.3,0,0,0-3,6.6c-.1.2-.1.4-.4.5a.5.5,0,0,1-.6-.6,14.3,14.3,0,0,1,.4-2.2,14.9,14.9,0,0,1,5.3-7.3c.5-.4.8-.3,1.1.2,4.3,7.9,8.6,15.9,13,23.8.3.5.2.8-.4,1A14.3,14.3,0,0,1,273,95.8a15.4,15.4,0,0,1-.4-3c0-.4.2-.6.5-.6s.5.2.5.6a13,13,0,0,0,7,11.5,12.7,12.7,0,0,0,10.6.9h.3l-4-7.1h0v5.1a.6.6,0,0,1-.6.5c-.3,0-.4-.2-.5-.5V97.9l-.3.4a5.7,5.7,0,0,1-3.5,2c-.5.1-.8-.1-.7-.6a14.6,14.6,0,0,1,.5-2l.2-.3h-1.3a10.1,10.1,0,0,1-6.5-2.1c-.5-.4-.5-.7,0-1.1a9.1,9.1,0,0,1,5.2-2Zm5.3,2.7c-.1-.2-.3-.3-.4-.4a9.1,9.1,0,0,0-9.4.1l-.3.2A8.9,8.9,0,0,0,285.9,94.9Zm-1.1-2-2.6-4.6a.2.2,0,0,0-.2-.2l-2.3-1h-.6a9,9,0,0,0,3,5.1h.2Zm1.4,3.1a6.6,6.6,0,0,1-1.5.7,2.1,2.1,0,0,0-1.1,1,3.4,3.4,0,0,0-.6,1.5A5.1,5.1,0,0,0,286.2,96Z"/><path class="l" d="M286.6,78.3a14.4,14.4,0,0,1,14.5,11.9,13.9,13.9,0,0,1-5.7,14c-.5.4-.8.3-1.1-.2-4.3-7.9-8.6-15.8-13-23.7-.3-.6-.2-.8.4-1A13,13,0,0,1,286.6,78.3Zm-1.7,6.3a5.7,5.7,0,0,1,.4-1.4l1.2-2.4c.2-.4.6-.3.9,0l.3.5a14.2,14.2,0,0,1,1.7,5.4c.1.6.1,1.2.2,1.8l.2-.2a10.3,10.3,0,0,1,5.4-2.5c.6,0,.8.2.8.7a9.7,9.7,0,0,1-2.5,5.4l-.2.3h.3a10.2,10.2,0,0,1,5.6,2.2q.6.4,0,.9l-1.3.9a.5.5,0,0,1-.8-.2.6.6,0,0,1,.3-.7l.7-.4a8.9,8.9,0,0,0-8.2-1.1l1.2,2.1c.1.3.3.4.6.5a11.4,11.4,0,0,0,3.7-.3c.4-.1.7,0,.8.4a.7.7,0,0,1-.5.6,9.6,9.6,0,0,1-3.4.3h-.4l3.1,5.8a13.3,13.3,0,0,0-12.6-23.1Zm10,2.4h-.3a9.1,9.1,0,0,0-5.9,4.2v.4l.6,1c.1.2.2.2.4.2l1.8-.5.4-.2a8.2,8.2,0,0,0,2.3-3.2A10.7,10.7,0,0,0,294.9,87ZM287,82.1h-.1l-.2.4c-.3,1.1-.7,2.1-1,3.2a.7.7,0,0,0,.1.6l2,3.7.2.3a1.6,1.6,0,0,0,.5-1.1,17.1,17.1,0,0,0-.9-5.5A7.6,7.6,0,0,0,287,82.1Z"/></svg>