<?xml version="1.0" encoding="utf-8"?>
<!-- Generator: Adobe Illustrator 24.2.0, SVG Export Plug-In . SVG Version: 6.00 Build 0)  -->
<!DOCTYPE svg PUBLIC "-//W3C//DTD SVG 1.1//EN" "http://www.w3.org/Graphics/SVG/1.1/DTD/svg11.dtd" [
	<!ENTITY ns_extend "http://ns.adobe.com/Extensibility/1.0/">
	<!ENTITY ns_ai "http://ns.adobe.com/AdobeIllustrator/10.0/">
	<!ENTITY ns_graphs "http://ns.adobe.com/Graphs/1.0/">
	<!ENTITY ns_vars "http://ns.adobe.com/Variables/1.0/">
	<!ENTITY ns_imrep "http://ns.adobe.com/ImageReplacement/1.0/">
	<!ENTITY ns_sfw "http://ns.adobe.com/SaveForWeb/1.0/">
	<!ENTITY ns_custom "http://ns.adobe.com/GenericCustomNamespace/1.0/">
	<!ENTITY ns_adobe_xpath "http://ns.adobe.com/XPath/1.0/">
]>
<svg version="1.1" id="Layer_1" xmlns:x="&ns_extend;" xmlns:i="&ns_ai;" xmlns:graph="&ns_graphs;"
	 xmlns="http://www.w3.org/2000/svg" xmlns:xlink="http://www.w3.org/1999/xlink" x="0px" y="0px" viewBox="0 0 100 100"
	 style="enable-background:new 0 0 100 100;" xml:space="preserve">
<style type="text/css">
	.st0{fill:#FFFFFF;}
</style>
<metadata>
	<sfw  xmlns="&ns_sfw;">
		<slices></slices>
		<sliceSourceBounds  bottomLeftOrigin="true" height="66" width="85" x="7.5" y="17"></sliceSourceBounds>
	</sfw>
</metadata>
<g>
	<path class="st0" d="M91.2,28.8c-0.1,0-0.1,0-0.2,0c-8.5,0-16.9,1.7-24.9,4.5c-7.8,2.8-13.9,7.3-15.7,8.6c-0.1,0.1-0.3,0.2-0.5,0.3
		c-2.1-1.6-8.8-6.4-16.1-9c-8-2.8-16.4-4.5-24.9-4.5c-0.1,0-0.1,0-0.2,0c-0.8,0-1.4,0.8-1.2,1.6c3.3,12.2,5.6,24.7,6.9,37.4
		c0.1,0.5,0.4,1,1,1.1c11.4,2.7,23,7,32.6,13.9c0.2,0.2,0.5,0.2,0.7,0.2c0.4,0,0.8-0.2,1-0.6c0.4,0.4,1.1,0.6,1.5,0.6
		c0.2,0,0.5-0.1,0.7-0.2c9.6-6.9,21.2-11.1,32.6-13.9c0.5-0.1,0.9-0.6,1-1.1c1.2-12.6,3.5-25.1,6.9-37.4
		C92.7,29.6,92.1,28.8,91.2,28.8z M45.5,72c0,1.7-1.8,2.7-3.2,1.9c-6.4-3.4-13.8-6.3-22.2-8.5c-0.9-0.2-1.5-1-1.6-1.9
		c-1.2-10.2-3-20.3-5.5-30.2c6.3,0.4,12.8,1.8,19.4,4.1c5.2,1.8,9.6,4.6,12.2,6.4c0.6,0.4,0.9,1.1,0.9,1.8
		C45.5,51.1,45.5,62.3,45.5,72z M81.5,63.6c-0.1,0.9-0.8,1.7-1.6,1.9c-8.4,2.3-15.7,5.1-22.2,8.5c-1.5,0.8-3.3-0.3-3.3-1.9
		c0-9.7,0-20.9,0-26.3c0-0.7,0.4-1.4,0.9-1.8c2.6-1.8,7-4.5,12.2-6.4c6.6-2.3,13.1-3.7,19.4-4.1C84.5,43.3,82.7,53.4,81.5,63.6z"/>
	<path class="st0" d="M11.5,26.2c0.1,0.6,0.6,1,1.2,1c21.7,1.1,33.8,10.2,37.1,13c0.1,0,0.1,0,0.2,0c0.1,0,0.1,0,0.2,0
		c3.3-2.9,15.5-11.9,37.2-13c0.6,0,1.1-0.4,1.2-1l0.4-1.7c0.2-0.9-0.5-1.7-1.4-1.6c-6.5,0.7-29,3.9-37.5,16.8
		c-8.5-13-31-16.2-37.5-16.8c-0.9-0.1-1.6,0.7-1.4,1.6L11.5,26.2z"/>
	<path class="st0" d="M14.3,20c0.1,0.5,0.6,1,1.1,1c12.5,1.4,19,4.6,24.7,7.9l2.3,1.6c4.1,2.8,6.5,5.3,7.5,6.5c0,0,0.1,0.1,0.1,0
		c0,0,0.1,0,0.1,0c1-1.2,3.5-3.7,7.5-6.5l2.3-1.6c5.7-3.3,12.2-6.5,24.7-7.9c0.6-0.1,1-0.5,1.1-1l0.3-1.5c0.2-0.9-0.6-1.7-1.5-1.5
		c-3.1,0.5-9.8,1.9-17,5.5c-6.6,3-14.6,7.7-17.6,14.1c-3.1-6.5-11-11.2-17.6-14.1c-7.2-3.6-13.9-5-17-5.5c-0.9-0.1-1.6,0.6-1.5,1.5
		L14.3,20z"/>
</g>
</svg>
