<?xml version="1.0" encoding="utf-8"?>
<!-- Generator: Adobe Illustrator 24.2.0, SVG Export Plug-In . SVG Version: 6.00 Build 0)  -->
<svg version="1.1" id="Layer_1" xmlns="http://www.w3.org/2000/svg" xmlns:xlink="http://www.w3.org/1999/xlink" x="0px" y="0px"
	 viewBox="0 0 27 27" style="enable-background:new 0 0 27 27;" xml:space="preserve">
<g>
	<g>
		<path class="st0" d="M10.1,9.6c5.1,0,8.3,5.5,5.8,9.9c-0.4,0.7-1,1.3-1.7,1.8c-0.7,0.6-1.2,1.3-1.6,2.2c-1.1,2.7-4.6,3.6-6.9,1.8
			c-0.4-0.3-0.6-0.9-0.3-1.2c0.3-0.4,0.8-0.4,1.3-0.1c1.7,1.1,3.6,0.6,4.5-1.2c0.5-1.1,1.1-2,2-2.7c1.7-1.3,2.2-3,1.7-5
			c-0.5-2-1.8-3.2-3.8-3.7c-2.9-0.7-5.8,1.5-6,4.5c0,0.2,0,0.4-0.1,0.6c-0.1,0.4-0.5,0.7-0.9,0.7c-0.4,0-0.7-0.4-0.7-0.8
			c0-1.3,0.4-2.5,1-3.6C5.7,10.7,7.8,9.6,10.1,9.6z"/>
		<path class="st0" d="M13.4,16.2c0,0.9-0.3,1.7-1,2.4C12,19,11.6,19,11.2,18.7c-0.4-0.3-0.3-0.8,0.1-1.3c0.6-0.7,0.7-1.4,0.3-2.1
			c-0.4-0.6-1.1-0.9-1.8-0.8c-0.7,0.2-1.2,0.8-1.3,1.6c0,0.5-0.4,0.9-0.8,0.8c-0.5,0-0.8-0.4-0.8-0.9c0-1.8,1.5-3.3,3.3-3.3
			C11.9,12.9,13.4,14.4,13.4,16.2z"/>
	</g>
	<path class="st0" d="M23,0.8h-5.3c-0.3,0-0.5,0.2-0.5,0.5v8.6c0,0.2,0.2,0.3,0.3,0.2l2.5-2c0.2-0.2,0.5-0.2,0.7,0l2.5,2
		c0.1,0.1,0.3,0,0.3-0.2V1.3C23.6,1,23.3,0.8,23,0.8z"/>
</g>
</svg>
