<?xml version="1.0" encoding="utf-8"?>
<!-- Generator: Adobe Illustrator 24.2.0, SVG Export Plug-In . SVG Version: 6.00 Build 0)  -->
<svg version="1.1" id="Layer_1" xmlns="http://www.w3.org/2000/svg" xmlns:xlink="http://www.w3.org/1999/xlink" x="0px" y="0px"
	 viewBox="0 0 27 27" style="enable-background:new 0 0 27 27;" xml:space="preserve">
<g>
	<g>
		<circle class="st0" cx="4.6" cy="11.2" r="1.1"/>
		<path class="st0" d="M5.3,13.6c0-0.4-0.4-0.6-0.7-0.6c0,0,0,0,0,0C4.2,13,4,13.3,4,13.6L4,21.8c0,0.8,0.9,1.2,1.5,0.7l0,0
			c0.2-0.2,0.3-0.4,0.3-0.7L5.3,13.6z"/>
	</g>
	<g>
		<circle class="st0" cx="13.4" cy="11.2" r="1.1"/>
		<path class="st0" d="M14.2,13.6c0-0.4-0.4-0.6-0.7-0.6c0,0,0,0,0,0c-0.3,0-0.5,0.3-0.5,0.6l-0.1,8.2c0,0.8,0.9,1.2,1.5,0.7l0,0
			c0.2-0.2,0.3-0.4,0.3-0.7L14.2,13.6z"/>
	</g>
	<g>
		<circle class="st0" cx="17.9" cy="14.2" r="1.1"/>
		<path class="st0" d="M18.6,16.5c0-0.4-0.4-0.6-0.7-0.6c0,0,0,0,0,0c-0.3,0-0.5,0.3-0.5,0.6l-0.1,5.2c0,0.8,0.9,1.2,1.5,0.7l0,0
			c0.2-0.2,0.3-0.4,0.3-0.7L18.6,16.5z"/>
	</g>
	<g>
		<circle class="st0" cx="9" cy="5.3" r="1.1"/>
		<path class="st0" d="M9.7,7.7C9.7,7.3,9.4,7,9,7.1c0,0,0,0,0,0c-0.3,0-0.5,0.3-0.5,0.6L8.4,21.8c0,0.8,0.9,1.2,1.5,0.7l0,0
			c0.2-0.2,0.3-0.4,0.3-0.7L9.7,7.7z"/>
	</g>
	<g>
		<circle class="st0" cx="22.3" cy="5.3" r="1.1"/>
		<path class="st0" d="M23,7.7c0-0.4-0.4-0.6-0.7-0.6c0,0,0,0,0,0c-0.3,0-0.5,0.3-0.5,0.6l-0.1,14.1c0,0.8,0.9,1.2,1.5,0.7l0,0
			c0.2-0.2,0.3-0.4,0.3-0.7L23,7.7z"/>
	</g>
</g>
</svg>
