<?xml version="1.0" encoding="utf-8"?>
<!-- Generator: Adobe Illustrator 24.2.0, SVG Export Plug-In . SVG Version: 6.00 Build 0)  -->
<svg version="1.1" id="Layer_1" xmlns="http://www.w3.org/2000/svg" xmlns:xlink="http://www.w3.org/1999/xlink" x="0px" y="0px"
	 viewBox="0 0 27 27" style="enable-background:new 0 0 27 27;" xml:space="preserve">
<g>
	<g>
		<path class="st0" d="M16.6,13.7L16.6,13.7c-0.1-0.1-0.3-0.1-0.4,0l-1.9,1.6c-0.1,0.1-0.2,0-0.2-0.1l0.4-3.7c0.1-0.6-0.4-1.1-1-1.1
			c-0.6,0-1.1,0.5-1.1,1.1l0.4,3.8c0,0.1-0.1,0.2-0.2,0.1l-1.9-1.6c-0.1-0.1-0.3-0.1-0.4,0l0,0c-0.1,0.1-0.1,0.3,0,0.5l2.8,2.7
			c0.1,0.1,0.2,0.1,0.3,0.1c0.1,0,0.2,0,0.3-0.1l2.8-2.7C16.7,14,16.7,13.8,16.6,13.7z"/>
		<path class="st0" d="M10.6,19.3c-0.3,0-0.4-0.2-0.4-0.5c0,0,0,0,0,0c0-0.2,0.2-0.4,0.4-0.4l5.6,0c0.5,0,0.8,0.6,0.5,1v0
			c-0.1,0.1-0.3,0.2-0.5,0.2L10.6,19.3z"/>
	</g>
	<path class="st0" d="M17.7,4c-0.3-0.2-0.6-0.3-0.9-0.3L6.6,3.5v0c-0.3,0-0.6,0.4-0.6,0.8l-0.2,18c0,0.3,0.1,0.7,0.3,0.9
		c0.2,0.2,0.3,0.3,0.5,0.3v0h13.7c0,0,0,0,0,0c0,0,0,0,0,0c0,0,0.1,0,0.1,0h0v0c0.3-0.1,0.5-0.4,0.5-0.8l0.1-15.3
		c0-0.5-0.2-1-0.6-1.3L17.7,4z M7.6,21.8L7.3,4.6h8.8l0,2.6c0,0.3,0.1,0.7,0.3,0.9c0.2,0.2,0.3,0.3,0.5,0.3v0h2.8l0.2,13.4H7.6z
		 M19.6,6.9h-2.3c0,0,0-2.3,0-2.3L19.6,6.9z"/>
</g>
</svg>
