<?xml version="1.0" encoding="utf-8"?>
<!-- Generator: Adobe Illustrator 24.2.0, SVG Export Plug-In . SVG Version: 6.00 Build 0)  -->
<svg version="1.1" id="Layer_1" xmlns="http://www.w3.org/2000/svg" xmlns:xlink="http://www.w3.org/1999/xlink" x="0px" y="0px"
	 viewBox="0 0 27 27" style="enable-background:new 0 0 27 27;" xml:space="preserve">
<g>
	<path class="st0" d="M18.1,15.7L18.1,15.7c-0.2-0.1-0.4-0.2-0.6,0L14.7,18c-0.1,0.1-0.3,0-0.3-0.2l0.5-5.5c0.1-0.9-0.5-1.6-1.4-1.7
		c-0.9,0-1.6,0.7-1.6,1.6l0.5,5.5c0,0.2-0.2,0.3-0.3,0.2l-2.8-2.3c-0.2-0.1-0.4-0.1-0.6,0l0,0c-0.2,0.2-0.2,0.5,0,0.7l4.2,4
		c0.1,0.1,0.3,0.2,0.5,0.2c0.2,0,0.3-0.1,0.5-0.2l4.2-4C18.3,16.2,18.3,15.9,18.1,15.7z"/>
	<path class="st0" d="M9.1,23c-0.4,0-0.7-0.4-0.6-0.7c0,0,0,0,0,0c0-0.3,0.3-0.5,0.6-0.5l8.3-0.1c0.8,0,1.2,0.9,0.7,1.5l0,0
		c-0.2,0.2-0.4,0.3-0.7,0.3L9.1,23z"/>
	<path class="st0" d="M13.7,3.5c1.9,0,3.7,0.7,5.1,2.2C19,5.9,19.1,6.1,19,6.3c-0.1,0.2-0.2,0.4-0.4,0.4c-0.3,0.1-0.4-0.1-0.6-0.2
		c-0.7-0.7-1.5-1.2-2.5-1.5C13.1,4.3,10.9,4.7,9,6.4C8.9,6.6,8.7,6.8,8.5,6.7C8.2,6.7,8.1,6.6,8,6.3C7.9,6.1,8,5.9,8.1,5.7
		c0.6-0.6,1.4-1.2,2.2-1.5C11.4,3.7,12.4,3.5,13.7,3.5z"/>
	<path class="st0" d="M13.5,5.7c1.4,0,2.7,0.5,3.7,1.5c0.2,0.2,0.3,0.4,0.2,0.7c-0.1,0.2-0.2,0.3-0.4,0.4c-0.2,0-0.4,0-0.5-0.2
		c-0.8-0.8-1.8-1.2-2.9-1.3c-1.2,0-2.2,0.4-3.1,1.2c-0.2,0.1-0.3,0.3-0.5,0.2c-0.2,0-0.4-0.1-0.5-0.4c-0.1-0.2,0-0.4,0.1-0.6
		c0.3-0.3,0.7-0.6,1.1-0.8C11.6,5.9,12.5,5.7,13.5,5.7z"/>
	<path class="st0" d="M13.7,7.9c0.7,0,1.5,0.3,2.1,0.9C16,9,16,9.3,15.9,9.5c-0.1,0.2-0.4,0.3-0.7,0.3c-0.1,0-0.2-0.1-0.3-0.2
		c-0.9-0.8-2-0.8-2.9,0c-0.3,0.2-0.6,0.3-0.8,0C11,9.4,11,9,11.3,8.8C11.8,8.2,12.7,7.9,13.7,7.9z"/>
</g>
</svg>
