<?xml version="1.0" encoding="utf-8"?>
<!-- Generator: Adobe Illustrator 24.2.0, SVG Export Plug-In . SVG Version: 6.00 Build 0)  -->
<svg version="1.1" id="Layer_1" xmlns="http://www.w3.org/2000/svg" xmlns:xlink="http://www.w3.org/1999/xlink" x="0px" y="0px"
	 viewBox="0 0 27 27" style="enable-background:new 0 0 27 27;" xml:space="preserve">
<g>
	<path class="st0" d="M20.4,21.7c1.8,0,3.2-1.5,3.1-3.2L23,6.2c0-0.4-0.3-0.8-0.6-0.8c0,0,0,0,0,0c0,0-14,0-14,0v0
		c-0.3,0-0.6,0.4-0.6,0.9l0,1.8H4.1v0c-0.3,0-0.6,0.4-0.6,0.9l0,9.8c0,1.6,1.3,2.9,2.9,2.9H20.4z M8.6,19.6c0.4-0.1,1-0.5,1-1.3
		L9.2,6.6h12.5l0,11.5c0,0.9-0.7,1.6-1.6,1.6H8.6z M6.5,19.6L6.5,19.6c-0.7,0-1.2-0.5-1.3-1.2L4.9,9.3h2.9l0,9.1
		C7.8,19.1,7.2,19.6,6.5,19.6z"/>
	<path class="st0" d="M12,9.6c-0.3,0-0.6-0.3-0.5-0.6c0,0,0,0,0,0c0-0.3,0.3-0.5,0.5-0.5l7.1,0c0.7,0,1.1,0.8,0.6,1.3v0
		c-0.2,0.2-0.4,0.3-0.6,0.2L12,9.6z"/>
</g>
</svg>
