<?xml version="1.0" encoding="utf-8"?>
<!-- Generator: Adobe Illustrator 24.2.0, SVG Export Plug-In . SVG Version: 6.00 Build 0)  -->
<svg version="1.1" id="Layer_1" xmlns="http://www.w3.org/2000/svg" xmlns:xlink="http://www.w3.org/1999/xlink" x="0px" y="0px" viewBox="0 0 27 27" style="enable-background:new 0 0 27 27;" xml:space="preserve">
		<g>
			<path class="st0" d="M13.5,4c5.3,0,9.5,4.3,9.5,9.5S18.8,23,13.5,23S4,18.8,4,13.5S8.2,4,13.5,4z M5.3,13.4c0,4.7,3.7,8.5,8.2,8.5
				s8.2-3.8,8.2-8.5S18,4.9,13.5,4.9S5.3,8.7,5.3,13.4z"/>
			<g>
				<g>
					<path class="st0" d="M20.4,11.8c0.2-0.1,0.4-0.4,0.3-0.6c0,0,0,0,0,0c-0.1-0.2-0.3-0.3-0.5-0.2l-5.4,1.4
						c-0.5,0.1-0.6,0.8-0.2,1.1l0,0c0.2,0.1,0.3,0.1,0.5,0.1L20.4,11.8z"/>
					<circle class="st0" cx="22.3" cy="10.8" r="1.2"/>
				</g>
				<g>
					<path class="st0" d="M6.6,11.8c-0.2-0.1-0.4-0.4-0.3-0.6c0,0,0,0,0,0C6.4,11,6.6,10.9,6.8,11l5.4,1.4c0.5,0.1,0.6,0.8,0.2,1.1
						l0,0c-0.2,0.1-0.3,0.1-0.5,0.1L6.6,11.8z"/>
					<circle class="st0" cx="4.7" cy="10.8" r="1.2"/>
				</g>
			</g>
			<g>
				<g>
					<path class="st0" d="M10.2,19.6c-0.1,0.2-0.4,0.3-0.6,0.1c0,0,0,0,0,0c-0.2-0.1-0.2-0.4-0.1-0.6l2.6-5c0.3-0.5,1-0.4,1.1,0.1v0
						c0.1,0.2,0,0.4-0.1,0.5L10.2,19.6z"/>
					<circle class="st0" cx="8.8" cy="21.2" r="1.2"/>
				</g>
				<g>
					<path class="st0" d="M16.8,19.6c0.1,0.2,0.4,0.3,0.6,0.1c0,0,0,0,0,0c0.2-0.1,0.2-0.4,0.1-0.6l-2.6-5c-0.3-0.5-1-0.4-1.1,0.1v0
						c-0.1,0.2,0,0.4,0.1,0.5L16.8,19.6z"/>
					<circle class="st0" cx="18.2" cy="21.2" r="1.2"/>
				</g>
			</g>
			<circle class="st0" cx="13.5" cy="9.3" r="2"/>
		</g>
</svg>
