<?xml version="1.0" encoding="utf-8"?>
<!-- Generator: Adobe Illustrator 24.2.0, SVG Export Plug-In . SVG Version: 6.00 Build 0)  -->
<svg version="1.1" id="Layer_1" xmlns="http://www.w3.org/2000/svg" xmlns:xlink="http://www.w3.org/1999/xlink" x="0px" y="0px"
	 viewBox="0 0 4250 260" style="enable-background:new 0 0 4250 260;" xml:space="preserve">
<style type="text/css">
	.st0{fill:#917D26;}
	.st1{fill:#223A73;}
	.st2{fill:#85782F;}
</style>
<g>
	<g>
		<g>
			<path class="st0" d="M58.7,69.2v129.1H25.2V69.2H58.7z"/>
			<path class="st0" d="M97.8,198.3V69.2h33.6l62,78.9V69.2h33.4v129.1h-33.4l-62-78.9v78.9H97.8z"/>
			<path class="st0" d="M339.7,97.7h-40.4v21.6h36.8v28.4h-36.8v50.7h-33.6V69.2h74V97.7z"/>
			<path class="st0" d="M365.9,133.8c0-9.6,1.8-18.5,5.3-26.8s8.4-15.5,14.7-21.7c6.3-6.2,13.8-11,22.5-14.5s18.3-5.2,28.8-5.2
				c10.4,0,20,1.7,28.8,5.2s16.4,8.3,22.7,14.5c6.3,6.2,11.3,13.4,14.8,21.7s5.3,17.2,5.3,26.8s-1.8,18.5-5.3,26.8
				s-8.5,15.5-14.8,21.7s-13.9,11-22.7,14.5c-8.8,3.5-18.4,5.2-28.8,5.2c-10.5,0-20.1-1.7-28.8-5.2c-8.7-3.5-16.2-8.3-22.5-14.5
				s-11.2-13.4-14.7-21.7C367.6,152.3,365.9,143.4,365.9,133.8z M401,133.8c0,5.1,1,9.9,2.9,14.2s4.6,8.1,7.9,11.3s7.2,5.7,11.6,7.4
				c4.4,1.8,9,2.7,14,2.7c4.9,0,9.6-0.9,14-2.7s8.3-4.3,11.6-7.4c3.4-3.2,6-7,8-11.3c1.9-4.3,2.9-9.1,2.9-14.2c0-5.1-1-9.9-2.9-14.2
				c-1.9-4.3-4.6-8.1-8-11.3c-3.4-3.2-7.2-5.7-11.6-7.4c-4.4-1.8-9-2.7-14-2.7c-4.9,0-9.6,0.9-14,2.7c-4.4,1.8-8.2,4.3-11.6,7.4
				c-3.3,3.2-5.9,7-7.9,11.3C401.9,123.9,401,128.6,401,133.8z"/>
			<path class="st0" d="M649.4,198.3h-41.8l-32-49.7v49.7H542V69.2h52.2c7.2,0,13.5,1.1,18.8,3.2c5.4,2.1,9.8,5,13.3,8.6
				c3.5,3.7,6.1,7.9,7.9,12.7s2.7,9.9,2.7,15.4c0,9.8-2.4,17.8-7.1,23.9c-4.7,6.1-11.7,10.2-21,12.4L649.4,198.3z M575.6,126.9h6.3
				c6.6,0,11.7-1.4,15.2-4.1s5.3-6.7,5.3-11.8s-1.8-9.1-5.3-11.8c-3.5-2.7-8.6-4.1-15.2-4.1h-6.3V126.9z"/>
			<path class="st0" d="M669.6,198.3l21.9-129.1h33.2l25.9,68.8l25.7-68.8h33.2l21.9,129.1H798L786.9,124l-30.5,74.3H743L714.1,124
				L703,198.3H669.6z"/>
			<path class="st0" d="M938.1,97.7h-39.9v21.6h37.7v28.4h-37.7V170h39.9v28.4h-73.4V69.2h73.4V97.7z"/>
			<path class="st0" d="M1118.3,97.7h-40.4v21.6h36.8v28.4h-36.8v50.7h-33.6V69.2h74V97.7z"/>
			<path class="st0" d="M1183.9,69.2v129.1h-33.6V69.2H1183.9z"/>
			<path class="st0" d="M1222.9,198.3V69.2h33.6l62,78.9V69.2h33.4v129.1h-33.4l-62-78.9v78.9H1222.9z"/>
			<path class="st0" d="M1470,175.9h-47.9l-7.7,22.4h-35.8l49.1-129.1h36.6l49.1,129.1h-35.8L1470,175.9z M1461.1,150.4l-15.1-43
				l-15.1,43H1461.1z"/>
			<path class="st0" d="M1573.7,69.2v100.7h40.2v28.4h-73.8V69.2H1573.7z"/>
		</g>
	</g>
	<g>
		<g>
			<path class="st1" d="M1938.6,85h23.6v80.1h37.5l-1,19h-60.1V85z"/>
			<path class="st1" d="M2086.3,143.1h-35v22h44.3v19h-67.9V85h66.6v19h-42.9v20.1h35v19H2086.3z"/>
			<path class="st1" d="M2200.9,125.5v51.2c0,0-14.6,8.9-34.2,8.9c-22.9,0-47.5-12-47.5-51.2c0-34.8,24.3-50.9,47.4-50.9
				c23,0,34.1,8.6,34.1,8.6l-4.3,19.5c0,0-10.8-7.8-27-7.8c-19.3,0-26.4,16.1-26.4,30.8c0,24.9,16.5,30.8,26,30.8
				c4.6,0,10.3-1,10.3-1v-20.7h-19.8l1.2-18.1L2200.9,125.5L2200.9,125.5z"/>
			<path class="st1" d="M2288.6,166.9H2254l-5.2,17.3h-24.2L2259,85h25.7l35.9,99.2h-26.3L2288.6,166.9z M2270.6,107.5l-10.9,40.1
				h22.7L2270.6,107.5z"/>
			<path class="st1" d="M2377.2,184.1h-29.7V85h29.7c35.4,0,54.6,19.9,54.6,48.5C2431.8,161.4,2413.5,184.1,2377.2,184.1z
				 M2380.5,164.5c14.2,0,27.4-10.6,27.4-31.1c0-13.1-6.8-28.8-27.7-28.8h-9v59.9H2380.5z"/>
			<path class="st1" d="M2507.1,83.5c34.2,0,49.3,23,49.3,51.1c0,28.2-18,51.1-49.3,51.1c-34.5,0-49.3-22.9-49.3-51.1
				C2457.8,106.5,2475.5,83.5,2507.1,83.5z M2506.9,165.4c16.8,0,25.4-13.7,25.4-30.8c0-17-9.7-30.8-25.4-30.8
				c-16.5,0-25.4,13.9-25.4,30.8C2481.6,151.7,2491.7,165.4,2506.9,165.4z"/>
			<g>
				<path class="st1" d="M2724.1,105.9c13.1,0,20.4,4.6,20.4,4.6l-1.3,8.1c0,0-8.1-4.2-19.1-4.2c-14.1,0-27.7,9.9-27.7,30.9
					c0,17.2,10,31.4,27.8,31.4c11.3,0,19.7-5,19.7-5l1,7.8c0,0-8,6.2-20.7,6.2c-21.4,0-37.5-14.4-37.5-40.4
					C2686.6,123.5,2701.5,105.9,2724.1,105.9z"/>
				<path class="st1" d="M2791.3,105.9c23.2,0,36.5,18.3,36.5,39.7c0,20.2-12.7,40.2-36.5,40.2c-24.5,0-36.5-19.8-36.5-40.2
					C2754.8,125.6,2767.9,105.9,2791.3,105.9z M2791.5,176.8c15.8-0.2,26.4-12.7,26.4-31c0-22.3-13.7-31.1-26.4-31.1
					c-14.6,0-27,10.5-27,31.1C2764.6,165.1,2777.4,177.1,2791.5,176.8z"/>
				<path class="st1" d="M2852.6,114.3v70.2h-8.4V107h14.6l23.8,56.1l22.7-56.1h15.1v77.5h-9.3v-70.2l-24,58.3h-9.5L2852.6,114.3z"
					/>
				<path class="st1" d="M2942.1,107.1h9.6v77.5h-9.6V107.1z"/>
				<path class="st1" d="M3010.6,118.3c0,0-7.1-4.4-16.9-4.4c-8.7,0-15.9,4.3-15.9,11.5c0,14.4,36.2,17.2,36.2,39
					c0,12.2-11.2,21.4-26.3,21.4c-12.5,0-20.9-5.5-20.9-5.5l2-8c0,0,8.9,5.2,19.1,5.2c8.7,0,16.4-4.4,16.5-12.1
					c0.2-15.7-36.4-18.5-36.4-39.4c0-12.1,11.6-20.1,24.9-20.1c12.5,0,19.2,4.4,19.2,4.4L3010.6,118.3z"/>
				<path class="st1" d="M3031,107.1h9.6v77.5h-9.6V107.1z"/>
				<path class="st1" d="M3093.6,105.9c23.2,0,36.5,18.3,36.5,39.7c0,20.2-12.7,40.2-36.5,40.2c-24.5,0-36.5-19.8-36.5-40.2
					C3057.1,125.6,3070.2,105.9,3093.6,105.9z M3093.8,176.8c15.8-0.2,26.4-12.7,26.4-31c0-22.3-13.7-31.1-26.4-31.1
					c-14.6,0-27,10.5-27,31.1C3066.9,165.1,3079.7,177.1,3093.8,176.8z M3094.9,83.3h10.8l-13.7,17.5h-8L3094.9,83.3z"/>
				<path class="st1" d="M3146.3,107.1h15.3l37.1,70.6v-70.6h8.7v77.5H3192l-36.9-70.9v70.9h-8.7v-77.5H3146.3z"/>
				<path class="st1" d="M3278.7,184.6h-20.1v-77.5h20.7c27.9,0,39.2,18.9,39.2,39.2C3318.5,168.6,3303.9,184.6,3278.7,184.6z
					 M3278.8,176.2c17.8,0,29.7-11.3,29.7-30.1c0-20.2-12.5-30.8-29-30.8h-11.3v60.8h10.6V176.2z"/>
				<path class="st1" d="M3375,149.2h-30.2v27.1h37.8v8.3h-47.4v-77.5h46v8.3h-36.4v25.4h30.2L3375,149.2L3375,149.2z"/>
				<path class="st1" d="M3426.8,107.1h9.6v69.1h32.8l-0.5,8.3h-41.9L3426.8,107.1L3426.8,107.1z"/>
				<path class="st1" d="M3521.2,162.6h-31.5l-7.1,22h-9.5l26.1-77.5h12.1l28,77.5h-10.6L3521.2,162.6z M3504.8,115.7l-12.6,39h26.1
					L3504.8,115.7z"/>
				<path class="st1" d="M3629.1,107.1h10.5l-28.2,77.5H3599l-28.2-77.5h11.2l23.5,69L3629.1,107.1z"/>
				<path class="st1" d="M3691.3,149.2h-30.2v27.1h37.8v8.3h-47.4v-77.5h46v8.3h-36.4v25.4h30.2L3691.3,149.2L3691.3,149.2z"/>
				<path class="st1" d="M3713.8,184.6v-77.5h23.4c18.3,0,26,9.3,26,22.2c0,14.5-13.8,20.9-13.8,20.9l18.4,34.3h-11.3l-16.4-31.8
					h-16.8v31.8h-9.5V184.6z M3723.4,115.4v29.5h19.1c0,0,10.6-3.4,10.6-15.6c0-8.9-6.4-13.9-16.4-13.9L3723.4,115.4L3723.4,115.4z"
					/>
				<path class="st1" d="M3803.7,184.6h-20.1v-77.5h20.7c27.9,0,39.2,18.9,39.2,39.2C3843.5,168.6,3828.9,184.6,3803.7,184.6z
					 M3803.8,176.2c17.8,0,29.7-11.3,29.7-30.1c0-20.2-12.5-30.8-29-30.8h-11.3v60.8h10.6V176.2z"/>
				<path class="st1" d="M3898.5,162.6H3867l-7.1,22h-9.5l26.1-77.5h12.1l28,77.5H3906L3898.5,162.6z M3882.1,115.7l-12.6,39h26.1
					L3882.1,115.7z"/>
				<path class="st1" d="M3948.7,184.6h-20.1v-77.5h20.7c27.9,0,39.2,18.9,39.2,39.2C3988.5,168.6,3973.9,184.6,3948.7,184.6z
					 M3948.9,176.2c17.8,0,29.7-11.3,29.7-30.1c0-20.2-12.5-30.8-29-30.8h-11.3v60.8h10.6V176.2z"/>
			</g>
			<g>
				<rect x="2614" y="62.8" class="st1" width="19.3" height="143.5"/>
			</g>
		</g>
		<g>
			<g>
				<g>
					<path class="st2" d="M1780.9,178.8L1780.9,178.8c-0.9,0-1.6,0.7-1.7,1.5l-5.5,47.2c-0.2,1.9,1.3,3.6,3.3,3.5h0.1
						c1.6-0.1,2.9-1.4,3-3l2.5-47.5C1782.7,179.6,1781.9,178.8,1780.9,178.8z"/>
					<path class="st2" d="M1782.1,156.4l-1.9,16.3c-0.1,0.9,0.6,1.7,1.5,1.6l0,0c0.7,0,1.3-0.6,1.3-1.4l0.9-16.4c0-0.6-0.4-1-1-1
						l0,0C1782.5,155.6,1782.1,155.9,1782.1,156.4z"/>
					<path class="st2" d="M1783.2,146.6l-0.4,3.6c-0.1,0.5,0.3,0.9,0.8,0.8l0,0c0.4,0,0.6-0.3,0.6-0.7l0.2-3.6
						c0-0.4-0.3-0.7-0.7-0.6l0,0C1783.5,146,1783.3,146.3,1783.2,146.6z"/>
					<path class="st2" d="M1781.5,146.4l-1.3,3.6c-0.2,0.5,0.1,1,0.6,1l0,0c0.4,0,0.7-0.2,0.8-0.5l1.1-3.7c0.1-0.4-0.1-0.7-0.5-0.8
						l0,0C1781.8,145.9,1781.6,146.1,1781.5,146.4z"/>
					<path class="st2" d="M1778,155.9l-5.8,15.9c-0.3,0.9,0.3,1.8,1.2,2l0,0c0.7,0.1,1.4-0.3,1.6-1.1l4.8-16.3
						c0.2-0.6-0.2-1.1-0.8-1.2l0,0C1778.6,155.3,1778.1,155.5,1778,155.9z"/>
					<path class="st2" d="M1773.8,154.6l-9.7,14.8c-0.5,0.8-0.2,1.9,0.8,2.3l0,0c0.7,0.3,1.5,0,1.9-0.7l8.8-15.4
						c0.3-0.5,0.1-1.2-0.5-1.4h-0.1C1774.6,154.1,1774.1,154.3,1773.8,154.6z"/>
					<path class="st2" d="M1779.6,145.8l-2.3,3.4c-0.3,0.4-0.1,1,0.4,1.2l0,0c0.3,0.1,0.7-0.1,0.9-0.4l2-3.6c0.2-0.3,0-0.8-0.4-0.9
						h-0.1C1780.1,145.5,1779.8,145.6,1779.6,145.8z"/>
					<path class="st2" d="M1777.8,144.9l-3.2,3c-0.4,0.4-0.3,1.1,0.2,1.3l0,0c0.3,0.2,0.7,0.1,1-0.2l3-3.2c0.3-0.3,0.2-0.8-0.2-1
						c0,0-0.1,0-0.1-0.1C1778.2,144.7,1777.9,144.7,1777.8,144.9z"/>
					<path class="st2" d="M1769.8,152.4l-13.5,12.7c-0.8,0.7-0.6,1.9,0.2,2.5l0,0c0.6,0.4,1.5,0.3,2-0.3l12.7-13.5
						c0.4-0.4,0.3-1.1-0.2-1.5l-0.1-0.1C1770.6,152,1770.1,152.1,1769.8,152.4z"/>
					<path class="st2" d="M1766.1,149.1l-16.7,9.6c-0.9,0.5-1.1,1.8-0.4,2.6l0,0c0.6,0.6,1.5,0.7,2.1,0.2l16.1-10.7
						c0.6-0.4,0.6-1.1,0.2-1.6l0,0C1767.1,148.9,1766.5,148.9,1766.1,149.1z"/>
					<path class="st2" d="M1775.9,143.5l-4.1,2.3c-0.5,0.3-0.6,1-0.1,1.4l0,0c0.3,0.2,0.7,0.3,1,0.1l3.9-2.6
						c0.4-0.3,0.4-0.8,0.1-1.1l0,0C1776.5,143.3,1776.2,143.3,1775.9,143.5z"/>
					<path class="st2" d="M1774.3,141.4l-4.8,1.4c-0.6,0.2-0.8,0.9-0.5,1.4l0,0c0.2,0.3,0.7,0.5,1,0.3l4.7-1.7
						c0.5-0.2,0.6-0.7,0.4-1.1l0,0C1775,141.5,1774.6,141.4,1774.3,141.4z"/>
					<path class="st2" d="M1763.1,144.8l-19.3,5.8c-1.1,0.3-1.6,1.6-1,2.5l0,0c0.4,0.7,1.3,1,2.1,0.7l19-7c0.6-0.2,0.9-1,0.5-1.5
						c0,0,0-0.1-0.1-0.1C1764.1,144.9,1763.6,144.7,1763.1,144.8z"/>
					<path class="st2" d="M1761.2,139.6l-21,1.2c-1.1,0.1-1.9,1.2-1.6,2.3l0,0c0.2,0.9,1.1,1.4,2,1.3l21-2.6
						c0.6-0.1,1.1-0.7,0.9-1.3c0-0.1,0-0.1-0.1-0.2C1762.2,139.9,1761.7,139.6,1761.2,139.6z"/>
					<path class="st2" d="M1773.2,138.9l-5.4,0.3c-0.6,0-1,0.7-0.8,1.3l0,0c0.1,0.4,0.6,0.7,1,0.6l5.3-0.6c0.5-0.1,0.8-0.5,0.6-1
						l0,0C1773.9,139.1,1773.6,138.9,1773.2,138.9z"/>
					<path class="st2" d="M1761.6,134.9L1761.6,134.9c0-0.5-0.4-1-0.9-1.1L1739,130c-1-0.2-2,0.6-2,1.7l0,0c0,0.1,0,0.3,0,0.4
						c0,0.9,0.7,1.6,1.5,1.7l21.9,2.5c0.6,0.1,1.2-0.4,1.2-1.1C1761.6,135.1,1761.6,135,1761.6,134.9z"/>
					<path class="st2" d="M1772.9,136l-5.6-1c-0.6-0.1-1.2,0.4-1.1,1l0,0c0,0.5,0.4,0.9,0.9,0.9l5.6,0.6c0.5,0.1,0.9-0.3,0.9-0.8
						l0,0C1773.5,136.4,1773.2,136.1,1772.9,136z"/>
					<path class="st2" d="M1761.6,127.9l-20.8-9c-1.1-0.5-2.4,0.2-2.6,1.3l0,0c-0.2,0.9,0.3,1.9,1.2,2.2l21.4,7.7
						c0.6,0.2,1.2-0.2,1.4-0.8c0-0.1,0-0.2,0.1-0.3C1762.4,128.6,1762.1,128.1,1761.6,127.9z"/>
					<path class="st2" d="M1773.3,132.9l-5.5-2.4c-0.6-0.3-1.3,0.1-1.4,0.7l0,0c-0.1,0.5,0.2,1,0.7,1.1l5.7,2c0.4,0.2,0.9-0.1,1-0.6
						v-0.1C1773.8,133.4,1773.6,133.1,1773.3,132.9z"/>
					<path class="st2" d="M1780.6,136.7c0.1-0.3-0.1-0.7-0.5-0.8l-1.2-0.5c-0.4-0.2-0.8,0.1-0.9,0.5l0,0c0,0.3,0.2,0.5,0.4,0.6
						l1.3,0.5C1780.1,137.1,1780.5,137,1780.6,136.7z"/>
					<path class="st2" d="M1774.5,129.9l-5.1-3.8c-0.5-0.4-1.3-0.2-1.6,0.4l0,0c-0.2,0.5,0,1,0.4,1.3l5.3,3.5c0.4,0.3,1,0.1,1.2-0.3
						l0,0C1775,130.6,1774.8,130.1,1774.5,129.9z"/>
					<path class="st2" d="M1781.3,135.7c0.2-0.3,0.1-0.7-0.3-0.9l-1.7-1.2c-0.4-0.3-0.9-0.1-1,0.3l0,0c-0.1,0.3,0,0.6,0.3,0.8
						l1.8,1.1C1780.8,136,1781.2,135.9,1781.3,135.7z"/>
					<path class="st2" d="M1764,122.1l-18.9-14.1c-1-0.7-2.4-0.4-3,0.7l0,0c-0.4,0.9-0.1,2,0.7,2.5l19.8,12.9
						c0.5,0.3,1.3,0.1,1.5-0.4c0.1-0.1,0.1-0.2,0.2-0.3C1764.6,123,1764.5,122.4,1764,122.1z"/>
					<path class="st2" d="M1767.9,116.8L1752,97.9c-0.8-1-2.4-1-3.2,0l0,0c-0.7,0.8-0.6,2,0.1,2.7l17.1,17.9
						c0.4,0.5,1.2,0.4,1.6-0.1c0.1-0.1,0.2-0.2,0.3-0.3C1768.3,117.8,1768.3,117.2,1767.9,116.8z"/>
					<path class="st2" d="M1782.3,134.9c0.2-0.2,0.2-0.6-0.1-0.9l-1.7-2.1c-0.3-0.3-0.8-0.3-1,0l0,0c-0.2,0.3-0.2,0.6,0.1,0.9l1.9,2
						C1781.7,135,1782.1,135.1,1782.3,134.9z"/>
					<path class="st2" d="M1776.6,127.2l-4.3-5.2c-0.4-0.5-1.2-0.5-1.7,0l0,0c-0.3,0.4-0.3,1,0.1,1.4l4.7,4.9c0.3,0.4,0.9,0.4,1.3,0
						l0,0C1776.9,128,1776.9,127.5,1776.6,127.2z"/>
					<path class="st2" d="M1783.5,134.3c0.3-0.2,0.4-0.6,0.2-0.9l-1.4-2.8c-0.2-0.4-0.6-0.5-1-0.3l0,0c-0.3,0.2-0.4,0.6-0.2,0.9
						l1.6,2.7C1782.8,134.3,1783.2,134.5,1783.5,134.3z"/>
					<path class="st2" d="M1779.5,125.1l-3.3-6.5c-0.3-0.6-1.1-0.8-1.6-0.4l0,0c-0.5,0.3-0.6,1-0.3,1.4l3.7,6.3
						c0.2,0.4,0.8,0.6,1.2,0.3l0,0C1779.5,126,1779.7,125.5,1779.5,125.1z"/>
					<path class="st2" d="M1773.1,112.4l-11.5-22.9c-0.6-1.2-2.1-1.6-3.2-0.7l0,0c-0.9,0.7-1.1,1.9-0.6,2.8l12.9,22.1
						c0.4,0.7,1.2,0.8,1.9,0.4l0,0C1773.2,113.7,1773.4,113,1773.1,112.4z"/>
					<path class="st2" d="M1784.7,134L1784.7,134c0.3-0.1,0.5-0.5,0.4-0.9l-0.8-3.3c-0.1-0.4-0.5-0.6-0.8-0.5l0,0
						c-0.4,0.1-0.6,0.5-0.5,0.9l1,3.3C1784.1,133.9,1784.4,134.1,1784.7,134z"/>
					<path class="st2" d="M1779.5,109.5l-6.2-26.2c-0.3-1.3-1.7-2-2.9-1.5c-0.1,0-0.1,0-0.2,0.1c-1,0.4-1.5,1.5-1.2,2.6l7.8,25.7
						c0.2,0.7,1,1.1,1.7,0.9l0,0C1779.3,110.9,1779.6,110.2,1779.5,109.5z"/>
					<path class="st2" d="M1782.9,123.9l-1.8-7.6c-0.2-0.7-0.9-1-1.5-0.8l0,0c-0.6,0.2-0.8,0.8-0.7,1.4l2.3,7.5
						c0.1,0.5,0.6,0.7,1.1,0.6l0,0C1782.7,124.8,1783,124.4,1782.9,123.9z"/>
					<path class="st2" d="M1786,134c0.3,0,0.6-0.4,0.6-0.8v-3.4c0-0.4-0.3-0.7-0.6-0.7l0,0c-0.4,0-0.8,0.3-0.7,0.7l0.2,3.4
						C1785.4,133.7,1785.7,134,1786,134z"/>
					<path class="st2" d="M1786.5,123.7v-8.3c0-0.7-0.6-1.2-1.2-1.2l0,0c-0.6,0-1.1,0.6-1.1,1.2l0.5,8.3c0,0.5,0.4,0.8,0.8,0.8l0,0
						C1786.1,124.6,1786.5,124.2,1786.5,123.7z"/>
					<path class="st2" d="M1786.5,108.4v-28c0-1.3-1.1-2.3-2.4-2.1c-0.1,0-0.2,0-0.3,0c-1.1,0.1-1.9,1.1-1.9,2.2l1.8,28
						c0,0.7,0.7,1.3,1.4,1.3c0,0,0,0,0.1,0C1786,109.7,1786.5,109.1,1786.5,108.4z"/>
					<path class="st2" d="M1790.1,124.5l2-8.5c0.2-0.7-0.3-1.3-0.9-1.4l0,0c-0.6-0.1-1.2,0.3-1.3,0.9l-1.5,8.6
						c-0.1,0.4,0.2,0.9,0.6,1l0,0C1789.5,125.3,1790,125,1790.1,124.5z"/>
					<path class="st2" d="M1787.2,134.3c0.3,0.1,0.6-0.2,0.7-0.6l0.8-3.3c0.1-0.3-0.1-0.7-0.4-0.8l0,0c-0.4-0.1-0.8,0.1-0.9,0.5
						l-0.6,3.3C1786.7,133.9,1786.9,134.3,1787.2,134.3z"/>
					<path class="st2" d="M1793.7,109.2l6.7-28.3c0.3-1.2-0.6-2.5-1.8-2.6c-0.1,0-0.2,0-0.4,0c-1.1-0.1-2.1,0.6-2.3,1.7l-4.9,28.6
						c-0.1,0.7,0.4,1.4,1.1,1.5c0,0,0,0,0.1,0C1792.9,110.3,1793.6,109.9,1793.7,109.2z"/>
					<path class="st2" d="M1793.4,126.1l4.2-8.3c0.3-0.6,0-1.3-0.6-1.6l0,0c-0.6-0.2-1.3,0-1.5,0.6l-3.6,8.5c-0.2,0.4,0,0.9,0.4,1.1
						l0,0C1792.6,126.7,1793.1,126.6,1793.4,126.1z"/>
					<path class="st2" d="M1788.3,134.9c0.3,0.1,0.7-0.1,0.8-0.4l1.5-2.9c0.2-0.3,0.1-0.7-0.2-0.9l0,0c-0.4-0.2-0.8-0.1-1,0.3
						l-1.3,3C1787.9,134.4,1788,134.8,1788.3,134.9z"/>
					<path class="st2" d="M1800.7,111.6l13.6-27c0.6-1.1,0-2.5-1.2-3c-0.1-0.1-0.3-0.1-0.4-0.2c-1.1-0.4-2.2,0.1-2.6,1.2l-11.8,27.8
						c-0.3,0.7,0,1.5,0.7,1.8c0,0,0,0,0.1,0C1799.6,112.5,1800.4,112.2,1800.7,111.6z"/>
					<path class="st2" d="M1789.3,135.7c0.3,0.2,0.7,0.1,0.9-0.2l2-2.4c0.2-0.3,0.2-0.6,0-0.9l0,0c-0.3-0.3-0.8-0.3-1.1,0.1
						l-1.8,2.5C1789,135.1,1789,135.5,1789.3,135.7z"/>
					<path class="st2" d="M1807,115.5l20.3-24.2c0.8-1,0.6-2.5-0.5-3.2c-0.2-0.1-0.3-0.2-0.5-0.3c-0.9-0.6-2.2-0.3-2.8,0.6
						l-18.7,25.4c-0.5,0.6-0.3,1.5,0.3,2l0,0C1805.7,116.2,1806.5,116.1,1807,115.5z"/>
					<path class="st2" d="M1796.1,128.5l6.3-7.5c0.4-0.5,0.3-1.3-0.2-1.7l0,0c-0.5-0.4-1.2-0.3-1.6,0.3l-5.8,7.9
						c-0.3,0.4-0.2,0.9,0.1,1.2l0,0C1795.2,128.9,1795.8,128.8,1796.1,128.5z"/>
					<path class="st2" d="M1812.3,120.9l26.2-19.5c1.2-0.9,1.3-2.6,0.3-3.7l0,0c-0.9-0.9-2.3-1-3.3-0.1l-24.9,21.1
						c-0.6,0.5-0.7,1.4-0.2,2l0,0C1810.9,121.2,1811.7,121.3,1812.3,120.9z"/>
					<path class="st2" d="M1798.2,131.4l8.4-6.2c0.6-0.4,0.6-1.2,0.2-1.7l0,0c-0.4-0.5-1.2-0.5-1.7-0.1l-8,6.8
						c-0.3,0.3-0.4,0.8-0.2,1.1l0,0C1797.3,131.6,1797.8,131.7,1798.2,131.4z"/>
					<path class="st2" d="M1790.1,136.7c0.2,0.3,0.6,0.2,1,0l2.3-1.7c0.3-0.2,0.4-0.6,0.2-0.9l0,0c-0.2-0.4-0.7-0.5-1-0.2l-2.2,1.9
						C1789.9,136.1,1789.9,136.5,1790.1,136.7z"/>
					<path class="st2" d="M1799.6,134.6l10.2-4.4c0.6-0.3,0.9-1,0.6-1.7l0,0c-0.3-0.6-1-0.8-1.6-0.5l-9.9,5
						c-0.4,0.2-0.6,0.6-0.4,1.1l0,0C1798.6,134.6,1799.1,134.8,1799.6,134.6z"/>
					<path class="st2" d="M1816.3,127.4l32.4-14c0.8-0.3,1.1-1.3,0.7-2s-0.8-1.3-1.2-2c-0.4-0.6-1.2-0.8-1.9-0.5l-31.3,15.9
						c-0.7,0.4-1,1.2-0.6,1.9l0,0C1814.8,127.4,1815.6,127.7,1816.3,127.4z"/>
					<path class="st2" d="M1800.1,138.1l11.5-2c0.7-0.1,1.1-0.8,1-1.5c0,0,0,0,0-0.1c-0.2-0.7-0.8-1-1.5-0.9l-11.3,2.7
						c-0.4,0.1-0.7,0.5-0.7,0.9l0,0C1799.1,137.8,1799.6,138.2,1800.1,138.1z"/>
					<path class="st2" d="M1818.6,134.8l35-6.2c1.5-0.3,2.4-1.8,2-3.3v-0.1c-0.4-1.3-1.7-2-3-1.7L1818,132c-0.8,0.2-1.2,0.9-1,1.7
						c0,0,0,0,0,0.1C1817.2,134.5,1817.9,135,1818.6,134.8z"/>
					<path class="st2" d="M1819.1,142.7l36.7,2.1c1.6,0.1,2.9-1.2,2.8-2.8l0,0c-0.1-1.4-1.2-2.5-2.6-2.5l-36.8,0.2
						c-0.8,0-1.4,0.6-1.4,1.4l0,0C1817.7,142,1818.3,142.6,1819.1,142.7z"/>
					<path class="st2" d="M1799.8,141.5l12.1,0.7c0.7,0,1.3-0.5,1.3-1.2l0,0c0-0.7-0.5-1.2-1.2-1.2l-12.1,0.1
						c-0.4,0-0.8,0.3-0.8,0.8l0,0C1799,141.1,1799.3,141.5,1799.8,141.5z"/>
					<path class="st2" d="M1817.9,150.5l36.4,10.9c1.5,0.5,3.1-0.5,3.4-2.1v-0.1c0.2-1.4-0.7-2.7-2-3l-37-8.6
						c-0.8-0.2-1.6,0.3-1.8,1.1l0,0C1816.7,149.5,1817.2,150.3,1817.9,150.5z"/>
					<path class="st2" d="M1798.9,144.8l12.1,3.6c0.7,0.2,1.4-0.2,1.6-0.9l0,0c0.1-0.7-0.3-1.3-0.9-1.5l-12.3-2.8
						c-0.4-0.1-0.9,0.1-1,0.6l0,0C1798.2,144.2,1798.5,144.7,1798.9,144.8z"/>
					<path class="st2" d="M1790.6,141.5c0,0.1-0.1,0.1-0.1,0.2c-0.1,0.3,0,0.6,0.3,0.7l0,0l2.3,0.7c0.3,0.1,0.7-0.1,0.8-0.4l0,0
						c0.1-0.4-0.1-0.8-0.5-0.9l-2.3-0.5l0,0C1791,141.2,1790.7,141.3,1790.6,141.5z"/>
					<path class="st2" d="M1797.4,147.9l11.4,6.6c0.7,0.4,1.5,0.1,1.8-0.6l0,0c0.3-0.6,0-1.3-0.6-1.6l-11.8-5.8
						c-0.4-0.2-0.9,0-1.1,0.4l0,0C1796.9,147.1,1797,147.6,1797.4,147.9z"/>
					<path class="st2" d="M1789.9,142.7L1789.9,142.7c-0.2,0.3-0.1,0.7,0.2,0.8l0,0l2.1,1.2c0.3,0.2,0.7,0.1,0.9-0.2l0,0
						c0.2-0.3,0-0.7-0.3-0.9l-2.2-1.1l0,0C1790.3,142.4,1790,142.5,1789.9,142.7z"/>
					<path class="st2" d="M1815.1,158.1l34,19.6c1.5,0.8,3.3,0.2,3.9-1.4l0,0c0.5-1.3-0.1-2.8-1.3-3.5l-35.2-17.4
						c-0.8-0.4-1.7-0.1-2,0.7l0,0C1814.2,156.9,1814.4,157.7,1815.1,158.1z"/>
					<path class="st2" d="M1795.3,150.6l10,9.5c0.6,0.5,1.5,0.4,1.9-0.2l0,0c0.4-0.5,0.3-1.3-0.2-1.7l-10.6-8.8
						c-0.4-0.3-0.9-0.3-1.2,0.1l0,0C1795,149.8,1795,150.3,1795.3,150.6z"/>
					<path class="st2" d="M1810.7,165.1l29.8,28.1c1.3,1.2,3.3,1,4.2-0.5v-0.1c0.8-1.2,0.5-2.8-0.5-3.7l-31.5-26.1
						c-0.7-0.6-1.7-0.4-2.2,0.3l0,0C1810,163.7,1810.1,164.5,1810.7,165.1z"/>
					<path class="st2" d="M1789,143.7L1789,143.7c-0.3,0.3-0.3,0.7,0,0.9l0,0l2,1.9c0.3,0.3,0.7,0.2,1-0.1l0,0
						c0.2-0.3,0.2-0.7-0.1-0.9l-2.1-1.7l0,0C1789.5,143.5,1789.2,143.5,1789,143.7z"/>
					<path class="st2" d="M1792.7,152.9l7.9,12.1c0.5,0.7,1.4,0.8,2,0.2l0,0c0.5-0.5,0.5-1.2,0.1-1.8l-8.7-11.5
						c-0.3-0.4-0.8-0.5-1.2-0.2c0,0,0,0-0.1,0C1792.5,152.1,1792.4,152.5,1792.7,152.9z"/>
					<path class="st2" d="M1804.7,171.2l23.4,35.5c1,1.5,3.1,1.8,4.4,0.5l0,0c1.1-1,1.2-2.7,0.3-3.9l-25.6-34
						c-0.5-0.7-1.6-0.8-2.3-0.2l0,0C1804.4,169.7,1804.3,170.5,1804.7,171.2z"/>
					<path class="st2" d="M1787.9,144.6L1787.9,144.6c-0.3,0.2-0.3,0.6-0.2,0.8l1.6,2.4c0.2,0.3,0.7,0.4,1,0.1l0,0
						c0.3-0.2,0.3-0.6,0.1-0.9l-1.7-2.3C1788.5,144.5,1788.2,144.4,1787.9,144.6z"/>
					<path class="st2" d="M1789.6,154.7l5.2,14.2c0.3,0.8,1.2,1.1,2,0.7l0,0c0.6-0.3,0.8-1.1,0.5-1.7l-6.1-13.9
						c-0.2-0.4-0.7-0.6-1.2-0.4h-0.1C1789.6,153.9,1789.4,154.3,1789.6,154.7z"/>
					<path class="st2" d="M1797.3,176l15.2,41.7c0.6,1.8,2.7,2.5,4.3,1.5h0.1c1.3-0.8,1.8-2.4,1.2-3.8l-17.8-40.6
						c-0.4-0.9-1.4-1.2-2.2-0.8l0,0C1797.3,174.5,1797,175.3,1797.3,176z"/>
					<path class="st2" d="M1786.7,145.3L1786.7,145.3c-0.3,0.1-0.4,0.4-0.3,0.7c0.2,0.8,0.7,2.2,1,3.1c0.1,0.4,0.6,0.6,1,0.4l0,0
						c0.3-0.2,0.5-0.6,0.3-0.9c-0.3-0.8-0.9-2.2-1.2-3C1787.3,145.3,1787,145.2,1786.7,145.3z"/>
					<path class="st2" d="M1784.9,146.4l0.4,3.4c0.1,0.5,0.5,0.7,1,0.6l0,0c0.3-0.1,0.5-0.5,0.5-0.8l-0.6-3.3
						c-0.1-0.3-0.4-0.6-0.7-0.5l0,0C1785,145.9,1784.8,146.1,1784.9,146.4z"/>
					<path class="st2" d="M1788.7,179.2l5.3,45.7c0.2,1.9,2.1,3.1,4,2.6h0.1c1.5-0.5,2.4-2,2.1-3.5l-8.2-45.3
						c-0.2-0.9-1.1-1.5-2-1.3l0,0C1789.1,177.6,1788.6,178.4,1788.7,179.2z"/>
					<path class="st2" d="M1786.7,154.9L1786.7,154.9c-0.5,0.1-0.8,0.5-0.7,0.9l1.8,15.7c0.1,0.9,1,1.4,1.8,1.2l0,0
						c0.7-0.2,1.1-0.9,1-1.6l-2.8-15.6C1787.7,155.1,1787.2,154.8,1786.7,154.9z"/>
					<path class="st2" d="M1794.4,136.3c-0.1-0.4-0.6-0.6-1-0.4l-2.4,1.2c-0.3,0.2-0.5,0.4-0.4,0.7v0.1c0.1,0.3,0.6,0.4,0.9,0.2l0,0
						l2.5-1.1C1794.3,136.9,1794.4,136.6,1794.4,136.3L1794.4,136.3z"/>
					<path class="st2" d="M1794.6,138.5c0-0.4-0.4-0.7-0.8-0.6l-2.3,0.6h-0.2c-0.4,0.1-0.7,0.4-0.6,0.7c0.1,0.2,0.3,0.4,0.6,0.4
						c0.1,0,0.2,0,0.3,0l2.5-0.4C1794.4,139.1,1794.7,138.8,1794.6,138.5L1794.6,138.5z"/>
					<path class="st2" d="M1791.4,139.9c-0.1,0-0.1,0-0.2,0c-0.3,0.1-0.6,0.3-0.6,0.6l0,0c0,0.2,0.1,0.3,0.2,0.4
						c0.1,0.1,0.3,0.2,0.5,0.2l2.4,0.1c0.3,0,0.6-0.2,0.7-0.5l0,0c0.1-0.4-0.2-0.8-0.7-0.8H1791.4z"/>
					<path class="st2" d="M1790.3,141.6c0,0.1,0,0.2,0.1,0.4c0.1-0.2,0.3-0.5,0.4-0.8C1790.5,141.3,1790.4,141.4,1790.3,141.6z"/>
					<path class="st2" d="M1779.6,238.9c0.1-1.9-1.4-3.4-3.3-3.4c-0.2,0-0.5,0-0.7,0c-1.6,0-2.9,1.2-3,2.8l-0.7,6.1
						c-0.3,2.2,1.5,4.2,3.7,4.2l0,0c2,0,3.6-1.6,3.7-3.5L1779.6,238.9z"/>
					<path class="st2" d="M1771.5,178.1C1771.5,178.1,1771.4,178.1,1771.5,178.1c-0.9-0.2-1.7,0.3-2,1.1l-23.5,64.4
						c-0.9,2.4,0.9,5,3.5,5h0.4c1.7,0,3.1-1.1,3.6-2.7l19.3-65.7C1773.1,179.3,1772.5,178.3,1771.5,178.1z"/>
					<path class="st2" d="M1762,175.4L1762,175.4c-0.8-0.3-1.7-0.1-2.2,0.7l-43.4,66c-1.9,2.9,0.2,6.7,3.6,6.7l0,0
						c1.5,0,3-0.8,3.7-2.2l39.2-68.6C1763.4,177,1762.9,175.8,1762,175.4z"/>
					<path class="st2" d="M1839.3,212c-1.2-1.5-3.4-1.7-4.8-0.4c0,0,0,0-0.1,0.1c-1.1,1.1-1.3,2.8-0.5,4.1l20.4,31
						c0.8,1.2,2.2,2,3.7,2l0,0c3.6,0,5.7-4.2,3.5-7.1L1839.3,212z"/>
					<path class="st2" d="M1822.3,225.1c-0.7-1.6-2.7-2.3-4.2-1.4c-0.2,0.1-0.4,0.2-0.6,0.4c-1.3,0.7-1.8,2.2-1.3,3.6l6.7,18.5
						c0.5,1.5,1.9,2.5,3.5,2.5h0.5c2.7,0,4.5-2.8,3.4-5.2L1822.3,225.1z"/>
					<path class="st2" d="M1802.1,234.5c-0.3-1.9-2.4-3.1-4.2-2.3c-1.7,0.3-2.8,1.8-2.6,3.4l1.1,9.8c0.2,1.9,1.8,3.3,3.7,3.3l0,0
						c2.3,0,4.1-2.1,3.7-4.4L1802.1,234.5z"/>
					<path class="st2" d="M1842.6,91.5c-1.1,0.9-1.2,2.5-0.2,3.5c0.2,0.2,0.3,0.3,0.5,0.5c0.8,0.9,2.2,1,3.2,0.3l37-27.5
						c1.1-0.8,1.7-2.1,1.7-3.4l0,0c0-3.6-4.2-5.5-6.9-3.2L1842.6,91.5z"/>
					<path class="st2" d="M1854.3,104.9c-1.5,0.7-2,2.5-1.1,3.9l0,0c0.7,1.2,2.2,1.7,3.5,1.1l25.9-11.2c1.4-0.6,2.2-1.9,2.2-3.4l0,0
						c0-2.8-2.9-4.6-5.4-3.3L1854.3,104.9z"/>
					<path class="st2" d="M1862.2,121.3c-1.6,0.4-2.5,2-2.1,3.6l0,0c0.4,1.4,1.8,2.3,3.2,2l18.5-3.3c1.6-0.3,2.8-1.7,2.8-3.4v-0.1
						c0-2.2-2.1-3.9-4.2-3.3L1862.2,121.3z"/>
					<path class="st2" d="M1866,139.5c-1.7,0-3,1.4-2.9,3c0,0,0,0,0,0.1c0.1,1.5,1.2,2.7,2.7,2.8l15.3,0.9c2,0.1,3.6-1.5,3.6-3.4
						l0,0c0-1.9-1.5-3.4-3.4-3.4L1866,139.5z"/>
					<path class="st2" d="M1865.5,158.5c-1.7-0.4-3.3,0.7-3.6,2.4c0,0,0,0,0,0.1c-0.3,1.5,0.6,2.9,2.1,3.3l16.4,4.9
						c2.2,0.7,4.4-1,4.4-3.3v-0.2c0-1.6-1.1-3-2.7-3.3L1865.5,158.5z"/>
					<path class="st2" d="M1861,177.5c-1.6-0.8-3.5-0.1-4.2,1.6c0,0,0,0,0,0.1c-0.6,1.4,0,3,1.3,3.8l21.6,12.5
						c2.3,1.3,5.1-0.3,5.1-3v-1c0-1.3-0.7-2.5-1.9-3.1L1861,177.5z"/>
					<path class="st2" d="M1852.2,195.6c-1.4-1.2-3.5-0.9-4.6,0.7l0,0c-0.9,1.3-0.7,3,0.4,4l29.3,27.6c2.8,2.7,7.5,0.7,7.5-3.2l0,0
						c0-1.3-0.6-2.6-1.6-3.4L1852.2,195.6z"/>
					<path class="st2" d="M1756.7,84.4L1756.7,84.4c1-0.7,1.3-2,0.8-3.1l-25.2-50.1c-0.7-1.4-2.2-2.3-3.8-2.3l0,0
						c-3.2,0-5.3,3.5-3.6,6.3l28.3,48.4C1753.9,84.9,1755.6,85.2,1756.7,84.4z"/>
					<path class="st2" d="M1769.6,77.3L1769.6,77.3c1.2-0.5,1.8-1.7,1.5-2.9L1761,31.7c-0.4-1.7-1.9-2.9-3.7-2.9h-0.2
						c-2.5,0-4.3,2.4-3.6,4.9l12.8,42C1766.8,77.1,1768.3,77.8,1769.6,77.3z"/>
					<path class="st2" d="M1784.3,73.7L1784.3,73.7c1.3-0.1,2.3-1.2,2.3-2.5V32.6c0-2.1-1.7-3.8-3.8-3.8l0,0c-2.2,0-3.9,1.8-3.8,4
						l2.4,38.5C1781.5,72.8,1782.8,73.9,1784.3,73.7z"/>
					<path class="st2" d="M1799.7,73.9L1799.7,73.9c1.3,0.2,2.6-0.7,2.9-1.9l9.1-38.4c0.6-2.4-1.3-4.7-3.7-4.7l0,0
						c-1.9,0-3.5,1.3-3.8,3.2l-6.7,38.9C1797.2,72.4,1798.3,73.7,1799.7,73.9z"/>
					<path class="st2" d="M1815.2,77.5L1815.2,77.5c1.3,0.5,2.7-0.1,3.3-1.3l20.8-41.4c1.4-2.7-0.6-6-3.7-6l0,0
						c-1.6,0-3.1,1-3.8,2.5L1813.6,74C1813,75.4,1813.7,77,1815.2,77.5z"/>
					<path class="st2" d="M1829.8,84.7L1829.8,84.7c1.2,0.8,2.7,0.5,3.5-0.5l40-47.7c2.6-3,0.4-7.7-3.6-7.7l0,0
						c-1.5,0-2.9,0.7-3.8,1.9L1829,80.8C1828.1,82.1,1828.4,83.9,1829.8,84.7z"/>
					<g>
						<path class="st2" d="M1780.1,137.8c0-0.3-0.3-0.6-0.7-0.7l-0.5-0.1c-0.4-0.1-0.8,0.3-0.7,0.8l0,0c0.1,0.2,0.3,0.4,0.5,0.4
							l0.5,0.1C1779.7,138.4,1780,138.2,1780.1,137.8z"/>
						<path class="st2" d="M1779.3,138.4c-0.3,0-0.6,0.3-0.6,0.6l0,0c0,0.2,0.2,0.3,0.3,0.4l0.4,0.1c0.3,0,0.6-0.2,0.6-0.5
							c0-0.2-0.2-0.5-0.4-0.5C1779.6,138.5,1779.4,138.4,1779.3,138.4z"/>
						<circle class="st2" cx="1779.7" cy="140.2" r="0.5"/>
					</g>
					<g>
						<path class="st2" d="M1752.8,170.5C1752.8,170.4,1752.8,170.4,1752.8,170.5c-0.7-0.5-1.7-0.4-2.3,0.2l-54,51
							c-0.8,0.8-1.3,1.9-1.3,3.1l0,0c0,3.8,4.7,5.7,7.3,2.9l50.7-54.3C1753.9,172.4,1753.7,171.1,1752.8,170.5z"/>
						<path class="st2" d="M1744.3,166.2c1-0.7,1.1-2,0.4-2.9l0,0c-0.6-0.7-1.6-0.8-2.4-0.4l-45.3,26.2c-1.1,0.6-1.8,1.8-1.8,3.1
							l0,0c0,2.9,3.2,4.6,5.6,3L1744.3,166.2z"/>
						<path class="st2" d="M1737,156.8c1.1-0.4,1.7-1.8,1.1-2.8l0,0c-0.4-0.8-1.4-1.2-2.3-1l-38.4,11.5c-1.3,0.4-2.2,1.6-2.2,3v0.3
							c0,2.2,2.2,3.7,4.2,3L1737,156.8z"/>
						<path class="st2" d="M1732.1,145.5c1.2-0.2,2.1-1.4,1.8-2.6l0,0c-0.2-1-1.1-1.6-2.1-1.6l-33.6,2c-1.7,0.1-3,1.5-3,3.1l0,0
							c0,1.9,1.7,3.4,3.5,3.1L1732.1,145.5z"/>
						<path class="st2" d="M1730.2,132.8c1.3,0.1,2.3-0.8,2.4-2.1c0,0,0,0,0-0.1c0-1-0.7-1.9-1.8-2.1l-31.9-5.6
							c-1.9-0.3-3.7,1.1-3.7,3.1l0,0c0,1.6,1.2,3,2.8,3.1L1730.2,132.8z"/>
						<path class="st2" d="M1731.2,119.6c1.2,0.4,2.6-0.3,2.9-1.6l0,0c0.2-1-0.3-2.1-1.3-2.5l-33.3-14.4c-2.1-0.9-4.4,0.6-4.4,2.9
							v0.4c0,1.3,0.8,2.5,2.1,3L1731.2,119.6z"/>
						<path class="st2" d="M1735.4,106.4c1.1,0.7,2.7,0.3,3.3-0.9l0,0c0.5-1,0.2-2.2-0.7-2.8l-36.9-27.5c-2.5-1.8-6-0.1-6,3l0,0
							c0,1.3,0.6,2.4,1.7,3.1L1735.4,106.4z"/>
						<path class="st2" d="M1742.8,94.2c1,1,2.6,1,3.5-0.1l0,0c0.7-0.9,0.7-2.1,0-3L1703,39.5c-2.7-3.2-7.9-1.3-7.9,2.9l0,0
							c0,1.2,0.4,2.3,1.2,3.1L1742.8,94.2z"/>
					</g>
				</g>
			</g>
		</g>
	</g>
</g>
</svg>
