<svg xmlns="http://www.w3.org/2000/svg" viewBox="0 0 320.47 439.37">
    <defs>
        <style>
            .cls-1{fill:#276e7b;}.cls-1,.cls-2,.cls-3{stroke:#1c303a;stroke-linecap:round;stroke-linejoin:round;stroke-width:0.75px;fill-rule:evenodd;}.cls-2{fill:#d06c60;}.cls-3{fill:#85a6a5;}.cls-4{opacity:0.75;}
        </style>
    </defs>
    <g id="Layer_2" data-name="Layer 2">
        <g id="puntos_click2_colombia" data-name="puntos click2_colombia">
            <path id="path2" class="cls-3"
                  d="M122.14,90.84c1.07.32,1.55,1.08,2.64.84,1-.43-.82.95-1,.14-.64.15-1.65.44-2-.18s-2-.88.06-.86Zm16.21-1a6.1,6.1,0,0,1,1.84.66,33.19,33.19,0,0,0-.05,4.55c.39-.33.23.71.54.5a13.47,13.47,0,0,1-.61,2.37c-1.28-.2-1.69.72-2.79,1,0,.68-.27,1.45.63,1.21a9,9,0,0,1,1.54.26c.43-.17,2.37.47,1.86-.34.54,0,1-.84.89-1.74.33-1.19,1.46-1,2.13-1.36.3.58.43-.44,1.5-.24s1.42-1.55,1.63.24c.09.76-1.78.94-1.6,2.16-1,.14-1.15,1.75-2,2.61-.34.8,1,1.55.77,2-.55.05-1,.71-1.38.56-.13.46.13.2.4.57s2.43-.51,2.21,1c-.49.48-.94,1.37-1.4,1.7.69-.4,1.76.21,1.78.66.24.73.76.07.81-.28.77.08,1-.57.72-1.2-.58-.81-.1-1.77,1.15-1,.82.76-.06,2.12.15,3.16-1.27.29.13,1.9-1.25,2.26a19.87,19.87,0,0,1-.76,2.19c-.41,1.22,1.82,1.07,1.56,2.41-.33,1,.24,1.72,1.16,1.42.85,0,.53,1,1.23.77.43,1-.36,1.53-.66,2-.41.11-1.48.07-1.24,1.08,0,.78.5,2-.73,2.64-.67,1-.78,1.69-2.22,2.06-.68,1-1.28-.13-1.72-.4-.72-.09-1.14-1.17-2.13-1-.75-.16-.59-.14-.1.28s.54,1.2,1.28.91c.15.27.23.85.79,1,.7.4.24,1.38,1,1.62a3,3,0,0,0,2.57.58c.79-.39.78,1.39,2,.64.69-.17,1.47.55,1.79.15-.09-.88-.14-1.84.93-2.33a12.46,12.46,0,0,0,3.25.5c1.12.48,1.64-.56,2.69-.14.36.13-.14,1.56.34,2.26.91.79,2.69,1,2,2.58.51.92,1.42,1.67,1.61,2.22.39,1.14-.5,1.52-.92,2.29.32.61.41,1.42,1.09,1.55-.29.26-.19,1.05-.62,1.34.68,1,.53,1.89,1.64,2.35.46.42,1.33-.21,1.11.91.32,1.09.46.87,1.32.71,1-1,.68,2,1.18.25a6.43,6.43,0,0,0,2.35-.21,2.48,2.48,0,0,1,.44,2.43c.07,1.2,1.11.12,1.38.18-.08,1,1,2,0,3,.16.73-.06,1.27.18,1.82a2.72,2.72,0,0,1-.81,2.84c-.59.6-.49,1.2-.55,1.94-.32.74.58,1.42-.66,1.37-.7.42-2,2.11-2.64.63-.51-1.17-.9-2.35-2-2.73-.59-1.39-2.8.91-.9,1,.23,1,1.24.77,1.4,1.84-.79,1,.54,2.49-.68,3.21-.45,1.11,1,3.25-.86,3.2-1.2-.29-.7,2.46-2.31,1.89,0,.71-1.4.68-1.53,1.48-.87.81-1.17,2.33-2.22,3.17-.14-1.58-1.1-2-1.7-.32-.67.88-2.06.32-2.79-.54-1.24-.25-1,1.74-.82,2.18-.41.7,1.85,2.1-.18,2.39-1.19.19-1.6-1.2-2.85-.77-.91-1.16-.21.69-.68,1.19-.36,1.17-1.06,1.71-1.95.95-.54-.95-1.27-1.56-.53-2.9-.1-.79,1.62.35,1.42-1,.59-1.2,1.13-2.21-.14-3.37-.15-.88-.91-.36-1.63-1.09-1.74-1.34-1.3,1.36-2.6,1.79-1.14.45-.45,2.45-1.8,2.81a2.39,2.39,0,0,1,.15,3c.23,1-.57,3.25-1.18,1.44-.78-.31-1-1.29-1.69-.71-1-.46-1.32,1.45-2.23,1.45.23-1.79-2.09,1.26-1.4-.26-.34.07-.7-.45-1.31-.38a3.44,3.44,0,0,0-1.65.43,9.3,9.3,0,0,1-1.19-2.24c-.9-.26-1.32-.19-1.53-.85-.09-1.31-1.73-.83-2.47-1.79a7.43,7.43,0,0,0-.45,1.55c-.65-.27-.66.73-1.73.48.52,1-1.4,2.55-1,1.17.19-.31-.38-.33-.43-.76-.43-1.22-1.38,1.05-2.36,1.26-.26.39-1.11.08-1.81-.16-.16.55.36.64.18,1,.33.74-.57,1-.34,2-.25.71-.79.72-1.28,1.84.31,1.52-1.14,2.1-1.51,3.28.07.94-.3,2.51-1.27,2,1-.81-.23-.74-.2-1.28-1-.37-.46.44-.55.95-.69,0,0,1.49-1,.92.27,1.13-.89,2.69-1.5,2.07-.37-.14-.86-.26-.8-.63-.19,0-.74.08-.24-.12.23-.3.92-.73.79-1.09-.3.15-.73-.34-.39-.51-.4-.64.48-.74.66-1.29s1-.64.21-1.08c0-.31.47-.45.7-.65.08-.2.16-.46.32-.42.59-.28-.08-.72-.08-1.17-.57,0,.14-.52.48-.22-.14-.64-.78-.61-1.31-.38-.35-.3-.78.42-1-.27-.44.25-1-.32-.2-.61.47-.48.34-1,.79-1.28s.8-.66.56-.89c.66-.12.33-1.3.83-1.6-.09-1.06,1.38,0,1.58-.78a3.69,3.69,0,0,1,1.88-3.39c-.85-.77-.94-2,.47-2,.07-1.18,0-1.73-.55-1.47a1.46,1.46,0,0,1-1.24.19c-.33.27-.92-.69-1.11,0a1.37,1.37,0,0,0-1.08,1c.06.55-1.18.08-1.66,0-.76-.08-1.68-.91-2.33-.5-.72-.34-1.79-.6-.54-1a2,2,0,0,0,2-2.36,3,3,0,0,1,2.09-1.69c.83-.48.72-3.17,1.73-1.41.49,1.1,1,1,.88-.12.17-.83.34-1.65-.76-1.45-.66-.43-.41-1-1-1.39a1.56,1.56,0,0,1-.65-1.64c-.56-.35-.69.19-.76-.75-.42-.84.51.08.69-.31.64.07,1.34.27,1.33.69,1,.65.9-1.44,1.41-2.3-.58-1,.86-1.11.91-1.9.38-.21,1-.93,1.71-1.41.56-.89,2.45-2.4,1.81-3-.57.44-1.76-1.05-.32-.76.42,1.2,1.35.3,1.5-.66.4-.34.31-1,.53-1.47s1.11-.59,1.19-.71c.37-.23.71.38.73-.42s1-.43,1.51-1.08c.14-.33.7-1-.74-.77-.41.39-.71-.15-1.08-.23-1.21.59-.41-1.12-.73-1.93-.54.2-.41-.6-.43-1-.38-1-1-1.42-1-2.38.23-.74,1-2,.11-2.71,0-.81.92-1.4,1.35-2.1.77-.57,1.11-1.57-.12-1.75-.27-.93-2.15.61-1.48.85.15,1.39-1.31,2.05-2.19,2.3-.81-2-3.62-2.45-2.24-4.41.67-1.11-.14-4.71,2.44-4.24.9-.72-.22-.88-.55-1.36-.11-1.24-.35-1.52-.36-2.67a5.07,5.07,0,0,0-1.47-4.27,3.27,3.27,0,0,1-1-2.39c-.72-.55-.7-1.4-1.36-1.77-.23-.39-.66-1.42.12-1.6-.19-.55,1.15-.71,1.28-.85a2.34,2.34,0,0,1,2.27-.34c-.07-.76,1.24-.83.44-1.53-.73-.27,0-1.06-.14-1.48,0-.31,0-1.33.72-1,.22,0,1.1.12,1.15-.6.63-.4,1-1.44,1.67-.78,1-.9.41-.85-.37-1.53.21-.39.88-.22,1.33-.54.22-.5-.34-1.27.54-1.6-.23-.61-1.19-.46-1.19-1.29-.31-.76.46-.15.55-.11,1.55-.23,3.75.41,4.8-.33.68-1.09-1.46,0-1.08-.76.37-1,2.44.17,2.7-1.62.87-.51,1.31-2,.13-1.73-.24-.53-.46-.45-.86-.12-1.58-.56-3,1.53-4.43.17-.21-1-2.33-2-.73-1.35.56-.09,1.67.81,2.1-.65.22-1.4,1.51-2.8,2.9-2.55.37-.91,1,1.1,1-.59a1.69,1.69,0,0,1,1.24-.14c.52-.49.29-.49.94-.15.25-.33,1.41.67.42.43-.21.42.59.4.71.57.64-.46,1.38.42,2.16.23a2.53,2.53,0,0,1,.79.85c.83-.57.85-1.28,1.17-2.17.51,0,.16-.44.56-.59.1-.47-.63-.49.95-.09Z"/>
            <path id="path6" class="cls-3"
                  d="M68.63,94.57c1.14,1.37.62,2.29-.08,3.23,1.55.06,1.53,2.4,2.09,2.82a1.32,1.32,0,0,1,2.06.7c-.06.68-.19,1.3,1,1.25-.82.6,1.22,1.79.15,3.05,0,.84,1.78,1.7,0,1.82-1.52.58-2,2.09-2.78,3.13-.38,1-.94,2.56-.49,3-.89-.3-.79,1.31-1.72,1.49,0,.75-1,.78-.42,1.82a3.62,3.62,0,0,1-.65,3.67c-.89.9-.87,2.86-1.16,4,.74,1.85-1.45,3.82.17,5.13,1.12.89,1,2.4,2.27,3.44,4.48,1.06,10.08,1.23,14.56,1.45.42-.53.22-1.4.68-1.78-.53-.81,1.37-.79,1.09-2-.35-.56.55-.78.13-1.45a3.87,3.87,0,0,0,.36-1.39c.63-.67,1.37,1.43,2.13.39.57-.31,2,.76,2.28-.36,1.13-.63,1-.84,1.22-1.87.43-.61,0-1.7,1.36-1.29.28-1,1.33-1.84.77-2.75,1.14.49,1.31-.31,2-.91,1.59.33,1.23-2.22,1.56-2.14,1,0,1.24-1.49,2.23-1.72.07-.62-.07-1.27.69-1.43.5.52,1,.41,1.62.34s1.19.46,1.61-.51c.77,1.24,1.91.3,3-.24a2.23,2.23,0,0,0,2.53-1.44c.3-.91,1.31-2.43,1.94-1.19.18,1,.92,1.62,1.65,1.46.78.29.91,1,1.74,1.09.34.69.82.73,1.42.87.21.74.94.32,1.18,1.33,1,1.37,1.89,2.51,1.55,4.39.14,1.11.14,1.3.34,2.36-.11,1,1.65.82.62,1.73-2.12-.29-2.27,2.31-2.16,3.93-.79.59-1,2.39.23,2.62.92.86,2.07,3.29,3.09,1.27,1.73-.32-.34-2.48,1.77-2.34.12-.5,1.87.52,1.25,1a16.55,16.55,0,0,1-1.46,1.85c-1.15,1,.32,1.68-.16,2.55-.24.79-.74,1.38-.23,2.08.21.6,1,1.51.72,2.29.19.41.66.13.5.84.07.89-.21,1.9.87,1.25.37,1,1.12-.19,2,.41.12.38-.56.29-.4.92-1.2.07-1.32.41-1.72,1.36-.26-.61-.64.24-1.4.11-.34.54-.23.88-.51,1.43-.2.23-.51,2.06-1.35,1.74-1-1.55-1.37.74.06.2.1,1-1.62,2.57-2.42,3.41a5.71,5.71,0,0,0-1.08,1c-.44.25-.5,1-1.29,1.27.51,1.06-.45,2.1-.56,3.12-.44,0-.75-.08-.76-.57-.47-.07-1.13-.41-1.51-.18-.82-.62-.23.46-.25.9.3-.3,1,.09.57.63.09.57.24.58.72.93.07.56.61.65.58,1.12.17.6,1.78.3,1.21,1.09.09,2.15-.53,1.54-1.69.23-.26,1.23-.88,2.44-2.24,2.53a5.15,5.15,0,0,0-1.15,3c-.71.8-2.2.31-2.36,1.14a2.94,2.94,0,0,0,2,.44,6,6,0,0,0,3.13.77c.13-.33.23-1,.62-1a1.23,1.23,0,0,1,1.55-.11,3,3,0,0,0,1.28-.21c.59-.39.5.22.59,1.32-1.19.15-1.6,1.21-.54,2-.65.84-2.22,1.73-1.76,3.36-.17,1-1.73-.2-1.68.92-.48.42-.21,1.5-.94,1.73.75.23-.44.7-.64,1s-.34,1.1-1,1.27c-.17.71.63.1.8.64.37.09.59-.19,1,0a.71.71,0,0,1,1.13.41c-.35-.32-1.06.24-.45.23,0,.51.57.87.06,1.21-.32-.17-.17.49-.55.5-.23.21-.8.41-.19.76.27.37-.65.57-.64,1.2-.82,0-.43,1-.59,1.1-.14.53.89.14.36.72-.25.34-.77.72-.87.86.33-.08.5-.07.51.33-.36,0-1.08-.71-1.54-.39s-.91.71-1.52.22a1.5,1.5,0,0,0-1.38.12,2,2,0,0,1-1.38.29c-.5.06-.51.49-1.16.41a2.18,2.18,0,0,1-.53,1,5.09,5.09,0,0,0-1,1.88c.08.43-.87.19-1.1-.09-.52.06-1.23.2-1.42.71a1.06,1.06,0,0,1-1.53.14c-.85-.15-.92.95-1.68,1.25s-.26,1.32.41,1.66c-.3,1.39-1.78,2.52,0,3.75-.75,1.18-2,2.63-1.61,4,.19,1-1.62,1.64-.92,2.91-.54.77-1.68.52-2.17,1.49-1.17.55-.25,2.08-1.66,2.53-.85,1-.39,2.44-1,3.61,0,.71.16,1.47-.58,1.76-1.1.86-.69,1.71-1.82,2.69.1,1-1,1.13-1.37,1.69-.49,1.36-1.64-.24-2.56-.07.17-.61-.37-1.41.31-2.11a3.61,3.61,0,0,1,.81-2.29,8.26,8.26,0,0,0,.07-2.39c-.18-1-.65-1.27-1.58-1.27-.39-.07-1.48-.16-.91-.64-.09-.64,1-.36.2-1a1.89,1.89,0,0,0,0-1.75,3.42,3.42,0,0,0,.33-1c-.07-.34.18-.75.15-1.09.5-.5.81-1.53,1.54-1.13a7,7,0,0,0,1.86.14c1.2.46.65-2.19,0-1.44-.66-.17-1.25-.28-1.76-.36a1.27,1.27,0,0,0-1.29-.25c-.36.28.64-1.74-.56-1.12,0,.25-1.16.74-1.26.31-.51-.25,0-.51-.14-1.07-.67-.06.85-.6.59-1.3-.41-1.06-.89.13-1.64-.26-.91-.31-.58-1.73-1.71-2.08a6.07,6.07,0,0,0-1.36-2.7c.36-1.43.45-3,2.43-3.08.4-.74.08-2.43,1.31-1.67.78-.55-.5-1-.55-1.62.06-.85.44-1.88-.94-1.78-1.12-.4-2.14-.14-2.21-1.66-.35-1.05.12-2.38,0-3.3.8-.64,2-.42,2-1.5.17-1.48-3.38-1.9-1.57-3.4-.23-.59.22-.93-.44-1.07.22-.58-.24-1.27-.51-2,.23-1.15,1.44-1.07,1.12-2.22.23-1-.78-1.6-1.36-2.35-.42.19-1.44.94-1.66-.14a8.9,8.9,0,0,1-.91-3.71c-.26-.4-.16-.6-.71-1-.71-.42-1.64.31-2.54.07-1.14-.12-2,.58-2.8.79a6.47,6.47,0,0,1-2.43-.24c-1.34-.44-2.14-.49-3.15.2-.75-.25-.8.12-1.25.16-1.25-.46,0-2.08-1.67-2.46.76-.92-1.26-.72-.71-1.82a2.57,2.57,0,0,1,.29-1.14c-.76-.21,1.1-.58-.41-1-.4-.46,1.69-.74.15-.64-.71-.71.53-1,.43-1.22-.55-1.32-1.38.32-1.43-.68.15-.7-.89-.45-.92-1.63-.67.4-1.59-.49-.63-1.11,2-.56-1.92-.15-.43-1.22,0-1.11-1.24,1.24-1.09-.6-.12-.09-1.11.09-.1-.68.63-.53-1.2-.74-.53-1.8.2-.59-.65-1.41.7-1,.25-.86.82-.91,1-.5.36-1,1.42,0,1.64-.1,1,0-.5-.93,1-.69.5-.62.13-2.39-.53-2.64-.44.43.22-.66-.24-.43-1-1.26,2.91-.83,4-1.31a1.73,1.73,0,0,0,1.67.34c.3.62.56-.27.73.63.52.81,1.1-.71,1.28-1.23a3.09,3.09,0,0,1,.69-2.23c-.19-.86,1.18.18.36-.69a10.06,10.06,0,0,0-1-2.84c-.78-.14-1.11-1.48-1.66-1.29-1.54-.77-1-4.65-3.51-5.39-1.24-2.31-4.05-1.39-5.67-2.31-.3-2.42-5.35-3.69-4.52-6.13,1.18.27,2.89-1.47,2.72-2.89.54-.26-.09-2.57,1.52-2.55,1-1.05-.26-2.46.07-3.73-1.1-.87-.39-2.56.32-1.79-.29,0-.53.28-.64.28-.46.77,1.11,2.3.68.85.28-.23.67.44.64.33-.6.18.54.42-.37.53.22.45-.91.08-.4,1.43.15.69.87,1,1.53,0,0-.48,1.84-.57,1.92-.32-.84.12-1.13.58-1,.91.12.51,1.19-.22.35.4-2,.4.73.74,0,1-.22-.27-1.37-.27-.52.08.07.43,1,.78-.16.57-.19-.68-1.91-.67-1.63.45-.28,1.06-.25,3.22,1.76,2.66,1.75.33,3.2-.42,3.16-1.66.77-.81-.71-1.3.27-1.68.1.09.41-1.36,0-1.48-.14.13.09-.23-.11-.07-.12,0-.15,0-.06.13.08.31,0,.26,0,.38-.06.36-.28,0-.19-.38s.26-.89-.08-.6.39-1.42,0-2a7.68,7.68,0,0,0-.7-2.34,4.17,4.17,0,0,0-.06-3.83c-1,0-.45-2.38-2-2.39-1,.06-2.22-1.49-2.11-.64.37.26.85,0,0,.12-.55-1,1.38-1.57,1.34-2.43,1.84-.51,5.6-.07,6.45-2-.4-1.63,3.2-1,3.36-2.82,1-.86,2.06-1,2.44-1.77Z"/>
            <path id="path10" class="cls-3"
                  d="M75,81.05c-.18.76-.59-.76,0,0C75,81,74.94,81,75,81.05Zm8.47-11c.32.27-.06.19.16.3,0-.19.15-.14.47,0-.12.3-1,.06-.75.11.08.07.18-.31.1-.18,0,0-.23,0,0-.18Zm5.17-9.67c0,.25-.32,0-.39.19A1,1,0,0,1,88.59,60.42Zm-2.72-.18c0,.09,0,0,0,0Zm.55-.12c1,.11-.65.36-.22.09C86.25,60.13,86.44,60.31,86.42,60.12Zm4.25-5.2c.31.5,1.5.57.66.68,0,.33.28-.21.18.31s-.46-.21-.49.08c-.51-.37-.25,1-.78.34-.16-.72.24-1,.43-1.41ZM193.84.38c1.58,1.07,2.57-.08,4.15.85,1,.51,1.53,1.25,2.56,1.14,1.22.33,2,.74,3.07,1,1.52.8,1.58,2.46,2.63,3.87s2.86,4,.83,5.14a12.48,12.48,0,0,0-3.62,2.37c0-.26-.93-.74-.66-.34.49.09-1.12.11-.32.51.66-.44,1.13-.49.38.49-.46.86-.35,1.51-.74.88-.52.26.27.25-.59.38-.15-.11-.15.28-.71.19.76,1.41-4,1.15-5,1.92-3.4,1.5-7.69,1.83-10.69,3.46-2.52,4.09-4.53,9-7.26,12.76a6.39,6.39,0,0,0-4.16.34c-.66.18-1.12,0-1.87.85-.41.4.61,1.13-.45,1.5-.24.54-.51.73-.57,1.08a6.6,6.6,0,0,1-2.13,2.84c-1.07-.22-1.3.83-1.55,1.66-.68.55.12,1.94-1.16,1.89a9.9,9.9,0,0,1-.88,2.61c-.48,1-1.89,1.84-2.38,3-.06.47-.18,1.81-1.06,2.25-.93.09-.54,1.46-.29,1.87a1.9,1.9,0,0,0-.33,2.06c-.38,1.09.18,2.21-.23,3.24-.65.85.16,1.71-.49,2.34-1.19.72-.51,2.18-1.5,3.16.11.52-.7,1.54,0,1.49.31.56-.33.87.08,1.13.49.49,1.45.81.49,1.41-1.12,1.07-1.24,2.55-2.34,3.56-.6,1.24-.37,2.52-1.15,3.32-1.55-.3-1.78,1.69-2.44,2.15-.72.17.46.83-.45,1.29-1,.29-1.44,1.63-1.59,2.64-1,.4-.8,2-1.75,2.91-1.23-.44-.49,2.32-1.91,1.43-1,1.53.35,3.19-.87,4.56,0,1.17.71,2.65-.23,3.34,1.38,1.36-.74,1.88-1.73,1.84-.17.51-.41.27-.65.18-.65.32-1.72.16-2,1.28a2.18,2.18,0,0,1-.57,1.7c-.63-.21.29.94-1.22.53-.74-.29-1.33,0-1.94-.32-.39,0-1.57.11-1.25-.51-.34-1,1.1-.87,1.25-1.4s1.66-.28,1.7-.33c-.19-.67.72-1.93.38-2.4-.28-.1-.13-.77-.53-.53a28.21,28.21,0,0,0,0-4.7c-.88-.14-2.57-.94-2.84-.09.06.31-.64.3-.57,1.13-.13.55-.82,1.43-1,1.39-.12-.73-1-1-1.6-1a2,2,0,0,0-1.51-.19c-.23-.17-.93-.44-.24-.55.56.19-.64-.89-.79-.41-.34-.64-.73.45-1.58.08-.5.12-.63.81-.73.91-.41-.62-.84.09-1.38-.06-1.6,0-1.89,1.93-2.59,3-.45.87-1.24.23-1.51.1-.78-.09-1.52-.24-.13.37.61,2.18,2.91,1.52,4.26.68.87.64,1.25-.61,1.72.37,1.24-.39.37,1.54-.44,1.92-.2,1.4-1.81.66-2.39,1.12-.65.76.75.53,1.06.56.2.92-.83.59-1.28.86-1.62-.12-3.5.09-4.27-.34.15,1,.59,1.15,1.35,1.56-.65.37-.59,1-.55,1.45-.14.71-1.17.35-1.4.82.17.56,1.87.62.64,1-.21,1.13-.93-.32-1.32.75-.41.36-.69.84-1,1.06-.62.22-1.5-.35-1.37.69a9.31,9.31,0,0,0-.22,1.64c.74.21.59,1,0,1.27-.07,1-1.36-.17-1.63.51-.94.13-1.15.57-2,.84,0,.4-.91,1-.09,1.76.28.34.7,1.16,1.18,1.77.59.76.2,1.93-.42.84-.78.29-1.11-1.06-1.84-1.06a2.15,2.15,0,0,0-1.81-.81c-.89-.78-1.1-3-2.34-1.36a5.2,5.2,0,0,1-1.8,2.69c-1.4-1.11-2.64,1.71-3.86.44-.33-.6-1.12,1-1.61.19-.62-.11-1.23.35-1.62-.11-.41-.61-1,.22-1,.6.55.82-1.22,1-1.3,2-.6.54-1.43.06-1.07,1-.07,1.63-2,1.51-2.47,2.75-1.74-1.12-.08.82-1.33,1.3.11,1.7-2.08.72-1.62,2.38-.6.83,0,1.38-1.23,1.79-.33,1.2-1.66.39-2.4.44-.73,1.25-1.7-1.31-2.29-.14.33.72-.61,1.28-.06,1.9-.77.29-.09.89-.51,1.58-.24.72-1.53.51-.86,1.4-.82.48,0,2.42-1.69,1.64-4.49-.61-9.44-.27-13.61-1.57-1-.81-1-2.1-1.79-2.84a2.73,2.73,0,0,1-.68-3.47c.33-1.43,0-2.53.34-3.85.06-1.55,1.12-2.47,1.65-3.55.58-1.35-.68-2.89.05-3.74.37-.22.31-1,1.15-1.17-.2-1.55,1.86-.21.55-1.76a22.64,22.64,0,0,1,1.84-3.86c.56-1,2.1-1.3,2.63-1.83-1.66-.73,0-2.61-1.13-3.65-.55-.62.67-.87-.76-1-.4-.38.29-.94-.35-1.38-.06-.92-1.67-.48-2-.44a3.75,3.75,0,0,0-1.89-3c1.74-.7,0-2.44.08-3.42,1.08-.37,2.48-.8,2.63-1.89a2.1,2.1,0,0,0,1.45-2c1.19-1.31,2.57-2.73,2.25-4.47,0-.9,2.63-1.21,1.64-2.37.64-1.78,3.88-1,4-3.09-.16.33-.56,0,.57-.78,1.11.21,2.4.9,2.73.43.31-.12,1.47.13,1.06.41-1.15-.35-1.43.85-.35.36.2.27.94,0,.9,0,.75-.73,1.49-.38,2.26-.21s1.45-.53,1.84-1.12A9,9,0,0,0,90.76,76a3.48,3.48,0,0,0-1.32-3c-.36-.51-2.67,0-1.83-.42.14-.68,1.47-1,1.3-1.73,1.06-1.06.18-2.49,1.21-3.53.18-.8.69-1.73.46-2.45.54-1-.15-2.46.13-3.16.35.11,1.22-1.29,1-1.06-.45.2-.47-.66,0-.47-.07.69.75,0,.3-1-.22-.39-.81.36-.46-.24,1.12-.42-.55-.23-1.08.29a4.23,4.23,0,0,1-1.51,1c.08,1.07-1.38,1-1.08,1.2-.71.34-.42-.62-.22-.19.22-.61,1.13-.47,1.45-1.22.44-.37.9-1.61,1.25-.93.18-.45-1.6-.65-.4-.89.87.23-.32-1,.64-1-.18.43.27,1.19.86.49.46.27.18-.3.17-.12.35-.59.47-.23.7-.46.07.3.38-.28.07-.61.12-.5,0-.68,0-1.05.2-.39-.49-.6-.45-.62.23.44-.23,0-.23-.11.49,0,.18,0,.3-.22-.24,0-.57-.47-.7-.43.19.11-.08.62.08.73-.92-.1.19-.36-.16-.92.49-.46,1.32-.42,1.56-1.81-.39-.42.17-1.47-.5-1.86.61-.49,1.7-.71,1.8-1.73,1.17-.25,1-1.62,2.17-1.5,1.4.68,3-1.78,2.43-1.43-.18-1.15.14-1.67,1.19-1.4.33-.82,1.42-.67,2-1.18.31-.79,1.3-.45,1.73-1.1A1.63,1.63,0,0,0,105,40.54c.53-1-1.22.15.12-.78,1.06-.41,1.87-.58,2-1.24a2.09,2.09,0,0,0,.85-.94c.9.17,2.53-.18,1.67-1.37.56-.13,2,.52,3,.92,3.59,1.55,7.84,3.12,11.65,1.94a3.42,3.42,0,0,0,2.07-2.35c-.06-.59-.69-1-.27-1.64,0-.78-.71-.86,0-1.47-.1-.35-.21-.18-.17-.45-.5-.11.55-.36.41-.67.05,0,.15,0,.11-.28-.35.19,0-.21.13-.08.24-.07.72-.33.24-.38-.31-.19.59-.52.2-.87.36.14.64-.2.79.19.8.15-.21-.73.34-.86.36-.42.16.35.6.27-.07-.69.34,0,.62-.08-.19-.52-.22-.8.19-.44a.35.35,0,0,0,.54.44c-.23-.62.45-.72.49-.18.27-.13.16-.85.54-.31.32-.29,1.51,0,2,.28.58.66,1.93.73,2.81,1.45,1.71.63,3.33.12,5.06.56,1.69-.55,3.39.21,5-.25,2.94.35,6.16-.46,7.75-2.95A6.56,6.56,0,0,1,156,27.57c1.21-1.66,3.34-2.48,4.87-3.31,1.37-.49,1.8-2.32,3.24-2.91,1.6-1.25,3.75-1.06,5.32-2.12a13,13,0,0,1,3.64-.91c1.74-.87,3.58-1.9,5.15-2.83-.23.77,1.16-.62,0-.06A17.45,17.45,0,0,0,181,9.55C181,8.5,180.91,7,180,7c.68-1.1,2.58-.26,4.06-.77,1-.22,2.31-.78,1.47.48-.85.69-.93.93-.31,1.28-.06.3-.35,1.05.14.58-.06-.33.3.34.22.06a2,2,0,0,1,0-.31c.05-.1,0,0,.11-.19s0-.36.09-.11,0,.29-.09.61c.34,0,.5-.25.57-.05.29,0-.34-.32.16-.11.23.33.24-.24.38-.21s-.3-.67.18-.44c.61-.58.81,0,1.31-.42.3-.19-.2-.79-.3-1,.5-.42-.73-.15-.29-.87-.46-.27-1.54-.08-1.5.18-.67-.43,1.23-1.19,1.62-1.79a4,4,0,0,1,1.91-1c-.48.35-1.23,1.71.29,1.68-.21-.77,2.73-1.06,1.18-1.89-.29.19,1.26-1.4,1.06-.57,0,.21-.61.9.08.77-.16-.07.64-.07.3.3.67-.41-.46-1,.74-.8.54-.66,1.31-.19.88-.59-.46,0-1.21.53-.77,0,.33-.29.64-.38.24-.51s-.78.47-1.11.25c1.05-1.26-.61.63-.94.25.19-.81,1.78-1.13,2.21-1.32ZM121.07,90.77c-.32.27,1,.73,1.24,1.36,1-.41,1.63-.06,2.49-.2.93-.93-1.41.38-1.72-.73C122.59,90.71,121.72,90.78,121.07,90.77Z"/>
            <path id="path14" class="cls-3"
                  d="M77.43,195.25a8.49,8.49,0,0,1,1.27,2.39c0,.85,1.63.9,1.1,2,.56.77,1.6.32,2,.15.78.64-.17,1.62-.45,1.72.63.31-.19.82.21,1a.76.76,0,0,0,1.18,0c.58-1.07,1.08.7.74.83a2.63,2.63,0,0,1,1.64.41c.53-.16,1.29.5,2,.13,1.07,1.89-.59,1.59-1.38,1.57l-1.46-.23a3.2,3.2,0,0,0-1.12,1.54c0,.39-.18.76-.14,1.09a1.14,1.14,0,0,0,0,1.3,2.32,2.32,0,0,0,0,1.59c-.53.21-.9,1.09,0,1.08a5,5,0,0,1,1.88.43,7.39,7.39,0,0,1,.22,2.39c.42.92-1.19,1.89-.75,2.93a2.71,2.71,0,0,0-.38,2.29c.37.23,1.51.53,2.06.77,1.13.32-.28,1.94-.87,1.8a4.32,4.32,0,0,1-.93,2.73c-.46-.31-1.06,1.1-.78,1.44a8,8,0,0,0-1.74,2.89,1.23,1.23,0,0,0-.76,1.74,4.32,4.32,0,0,0-.87.82,1.49,1.49,0,0,0,0,1.41c.18,1-.78,1.9-1,2.77,0,.77-.8,1.55-.33,2.34.37.43-1.06.92-.46,1.6s0,1.56.3,2.26c-.59.18,0,1.29-.77,1.28-.93-.43-.21,1.08-.23,1.21.81,1.08-1.46,1.13,0,1.78.22.69.35,1.14.9,1.2.33.9.89,1.27.44,2.46,1.31.76,3,2.22,4.16,2.93,1.23-.65,2,.51,1.62,1.55.38.55,1.78.44,1.52,1.52a1.83,1.83,0,0,1-1,1.54,3.05,3.05,0,0,1-1,1.89,1.28,1.28,0,0,0,.16,1.79c-.13.65.23,1.1-.25,1.1-.57.24-.38,1,.33,1.39-.06.68-.41,1.59-.44,2-.19.84-1.37.79-1.84,1.19.63.34-.67,1,.34.95a5.55,5.55,0,0,1-1.3,2.2c-1.12.08-1.31,1.68-1.42,1.88,1.18-.09.16,1.59.7,2.17-.54.46-2.12,1.43-1,1.86,1.22-.13-.36,1.83.7,2.2.78.82,0,.6-.16,1.36a6.46,6.46,0,0,0-.92,1.86c-.53.59-1.21.43-1.36-.42a1.84,1.84,0,0,0-1.85.29c-.76.82-1.22,2.14-2.21,2.64.75.46.14,2.37,1.18,2.12.56-.72.77.4.71.66.45.24-.37.89-.41,1.09-.65.67-.21,1.26-.3,1.72a1.85,1.85,0,0,0-.52,1.52c.32.78-.82,1.14-.38,1.62-.09,0-.43.46-.82.62.08.7-1.21,1.19-1.54,1.88.48.27.33.84.24,1.15-.34.38.46.19.3.77.09,1.15,1.27.79,1.71,1.14.19-.12.64.15,1.13.17.45-.34.59,0,.83.09a1.92,1.92,0,0,1,1.12.81c.66.06.37.36.39.65,1,.84-.82.71-1.2,1-.54-.58-1.28-.6-1.6,0-.67-.22-.2.33.15.34-.39.81-1.47.18-1.38.85-.25-.68-.74.1-1-.38-.37.56-1.49.77-1.49,0-.64,0-1.73-.07-2.07.46-.86.11-1-1-1.84-1.23-.43-.79-1.85-.5-2-1.64,0-.3-.27-.6,0-.91a7.18,7.18,0,0,0,.54-2.88c-.9-.58-1-1.59-1.07-2.49.21-.71-.06-1.17.09-2-.64-.23-.85-.93-1.54-1.22a.92.92,0,0,0-1.72-.24c-1.53.72-3.14,1.15-4.56,1.91-.33-.09-1.25.86-1.09,1,.4.53.26,1,1,1.1.47.09.59.64.68,1.12.92.06,1,1,2,.79.39.27,1.62-.12.8.6.07.89-1.32,1.41-1,2.15,1.06.4-.51,1.76.78,1.84-.31.42,1.07,1.25-.06.85-.86,0-1.89-.68-2.76-.82A6.17,6.17,0,0,0,54.16,302c-1,.21-3.28-.23-3,1.21-.85.79-1.58,1.66-.6,2.73-2,.48-2,4-2,5.62,1,.65,2,.4,1.5,1.56-.87,1,.81,2.18.44,3.4.46,0,.34,1,.21,1-.13.71-.95.63-1.77.22-.9,0-1.79,1-2.77.48-.93.39-1.56-.79-2.57-.77-.63.32-.44.07-1.26,0s-3.63.5-2.82-.91c0-1.33-.22-3.21.87-4.13.59-1.18.14-2.44-1.36-1.59-1.33-.06-2-1.48-3.33-1.5-.36-.83-1.15-1-.32-1.83.63-.22.29-.3.1-.54.76-.71-.34-.6-.53-1.12-.52-.75-1,.56-1.72,0a1.74,1.74,0,0,0-1.44.87c-1.18.41-2.85-.28-4-.74a5.33,5.33,0,0,0-2.93-1.64c-.51-.3-.45-1.49-1.35-.8-1,.09-1.69-.52-1.37-1.3-.33-1.28-2.5-1.32-2-2.54,1-.2.31-.8-.07-.94-1.42-.88,2.47-1.76,3.62-2.23,1.13-.23.7-1.12,1.71-1.37,1.39.18,1.38-.72.59-1.72.53-.82-.23-1.91.34-2.25.53-.82,1.27-.82,2.34-.47,1,.9,2-.45,1.65-1.44.56-.64-.45-.54.37-1.05.72,0,.38-1.1.79-1.24-.92,0,.48-1.5-.46-1,0-.84-.65-.26-.93-.79a2.31,2.31,0,0,0-1.43-1.32c-.87-.65.15-1.06.61-.55.05-.57.71-1.2.82-1.43.65-.24-.38-1.57.84-1.32.57-.23,1.36,0,.92-.57.4-.2,1-.54,1.07-.89,1.16-.57,1.67,0,1.83,1.08.44-.22,0-1.48.9-1.14.52-.25-.56-.93.35-1.22,1.12-.25,2.1-1.65,3.4-.32,1.19.56,1.22-1.55,2.66-1.65a4.79,4.79,0,0,1,1.8-.16c0,1,1.27.68,1.55.4.29-1.05-.41-1.51-1.07-2.08.3-1.08,1.09-1.64,1.21-2.49a1.79,1.79,0,0,1-.1-1.47c-.53-.57-1.2-1.75-2.11-2,.51-1-.52-2-.25-2.93,1.32-.54,2.22-1.51,2-2.83.95-.56,0-1.76,1-2.26.32-.48,1-.73.72-1.41,1.27.1,1.83-.62,1.21-1.51-1.31-.13-1.94-1-1.33-2.29,0-2.16,2.09,2.28,3.16-.19,1-.11,2-.1,2.16-.94,1.43-.06,2,.87,3.06,1.4.73-.56.78-1.65,1.35-2.14-.42-.7.77-1.3.36-2.25.78-1.55,2.62-2.51,1.65-4.47a3.48,3.48,0,0,0,.77-2.92c0-1,1.15-1.06,1.12-2.08s1.46-1.35,1.48-2.48c-.21-.86-.87-.9-1.67-1.21-.25-.82-.89-1.05-1.22-2-.22-.66-1.14-.62-1.44-1,.52-.92-.57-1.16-1-1.29.45-1.4,1.73.07,2.16-1.06.82-.5.13-1.36-.33-1.69-.24-1.21,1.08-.86,1.36-1.86-.24-1.14-.83-1.53-1-2.51a13.73,13.73,0,0,0,2.62.81c.83-1.17,1.74.75,2.67-.47,1.27,1,2.41-.81,3.75-.08a24.18,24.18,0,0,1,1.25-2.53c.8-.5-.5-.89.23-1.89.09-1-1.09.08-1.72-.5-1.56-.28,1.11-2.23.74-3.4.09-1.65-1.81-1.29-2.17-2.86.29-.95-1.61-2.09-.49-2.87,1.19,0,2.7-1,3.63-1.55.09-.44.94-.86,1-.89-.7-.71-1.13-1.52,0-1.69.88.06.78-1,1.28-1.52a6.74,6.74,0,0,0,.7-2.9c-1.15-.76.7-1.27,1.1-1.78.8-.92,1.87-1,3-1.35.32-.67.79-1.25.23-1.8,2.07.06,0-2.72,1.25-3.46.28-.22-.18.38-.29,0Z"/>
            <path id="path18" class="cls-3"
                  d="M43.53,99.73c.4.26-.11.47.61.91.07.75.61.52.87,1.26a3.09,3.09,0,0,1,1.11,2.48,6,6,0,0,0,2.8,1.86c.49.25,1.23,1,1.25,1.31,0,.73,1.21,1.46,1.18,2.1.64.85,1.06,1.61,2.38,1.33.13,1.41,1.08,2.26.75,3.72,1.27,1.81-2.26,2.12-1.42,4.1-.51.37-.47,2.77-2.07,2.92-.48.85-1.64-.26-1,1.36,1.79,1.74,3.9,3.82,5.27,5.44,4.21-.69,7.33,3.65,8.12,7.12.53.23.67.22,1.08.41.48,1.28,1.31.76,1.46,2.12.34.69.41,1.57.76,2.16-.68-.45-.45.48-1,.75-.39.7-.15,1.63-.6,2.46-.18,1-1.18,1-1.26,0-.23.34-.92-.33-1.5,0-1.07-1.08-3.25.46-4.8.33-.29.56.69.5.24,1.16.79-.5,1.27,2.09.61,2.45-1.36-.14.06.69-.88.75-.28-.44-1.63-.4-1.67,0-.74-.84-.64,1.07-1.87.57.56.49-.31,1.78.53,2.33,1.24.1-1.36,1.79.3,1-.26,1.89.86,0,1.13.71-1.68,1.18,2.23.68.47,1.3-1.21.69,0,1.36.7,1.27-.15,1.42,1.11.55.8,1.74.14.1,1.08-.53,1.42.59a.71.71,0,0,0-.59,1.05c1.4-.2.12.24-.14.52,1.58.66-.31.8.61,1.33-.82.49-.13.84-.35,1.3.09,1,1.12.65.87,1.71,1.41.12.37,2.58,1.78,2.16.33-.29,1.47-.07,2.19-.69.7.11,2.63.56,3.3.67a3.82,3.82,0,0,0,2.4-.67c1.48-.14,2.72-.27,3.91-.37.41.53.65.58.71,1.08.35,1,.1,2.7,1,3.64,0,1,1.22.68,1.57.17.58.63,1.32,1.25,1.44,2s.1,1.57-.69,1.8c-1,.89.14,1.64.1,2.4-.1.58.27.42.4.89s-.56,1.13-.53,1.78c1.15.8,2.66,1.71,1.89,3.09-1.15,0-2.24.7-1.79,1.95-.25,1-.11,2.86.73,3.23s3.22.19,2.45,1.75c-.2,1,.93,1.17.78,2-1.15-.56-1.42.54-1.39,1.48-1,.68-2.27.73-2.33,2.11.19,1.12-1.3,1.58-.55,2.83.2.94-.17,1.91-1,2,1,.9-.78,2.39-2,2-.75.81-2.12,1.46-2.65,2.17.92.88.09,1.74,0,2.76A8.69,8.69,0,0,1,70.17,208c-.92-.15-1.6.76-.65,1.32.71.6-.4.56-.78,1.1s-1.44,1-2.27,1.39c-.73.59-1.9-.11-1.73,1.24A12.19,12.19,0,0,1,66,215.64c.43,1.15,2.32.91,1.74,2.73-.35,1.27-2.28,3.19-.09,3.12.6-.08,1.47-.38,1,.65-.42.65.18,1.06.23,1.24a9.42,9.42,0,0,0-1.61,2.86c-1.09-.56-2,.4-3,.41-.9-1-1.73.9-2.56-.3-.7.2-1.22.72-2,.1-1-.21-2-.78-1.1.37.16.58.91,1.27.39,2.16-.76.29-1.33.73-1,1.64,1.35.27.1,2.45-.86,1.81-.7-.25-1.5,1-.46.9.72.5.15,1.65,1.47,1.61.44.63.82,1.75,1.36,2,.22,1.13,1.64.5,1.82,1.6s-1.44,1.55-1.52,2.68-1.38,1.16-1.11,2.45c.61,1.42-1.15,2-.56,3.54.34,1.62-2,2.4-1.88,4.11.08.73-.64,1.22-.41,1.86-.69.22-.57,2.41-1.79,1.62-.5-.95-2.16-1.4-2.75-.94-.13,1.12-2.09,0-2.53,1.35-1.37.62-1.76-1.73-2.51-1-.12,1.19-.64,2.37.73,2.69,1.25.07,1.07,2-.44,1.56-.27.46-.2,1.09-.93,1.43-.85.7-.19,1.81-1.12,2.63.88,1.54-1.82,1.9-1.9,3.06a6.06,6.06,0,0,1,.38,2.49,4.06,4.06,0,0,1,2,2.16c-.38.55.27,1.24,0,1.77-.51.65-1.87,2.13-.36,2.64.56.45.45,2.07-.5,1.58-.86.47-.7-1.38-1.74-.44-.82-.34-1.55.58-2.28.75-.07,1.88-1.23.72-2.36.4-1.11,0-1.51.7-2.5,1.05-.47.42.57,1.08-.34,1.06-.65-.28-.19,1.47-.79,1,.22-1.48-1.18-1.23-1.89-.83.08.68-1.29.53-.74,1.14-.5.16-2.31,0-1.59,1.21a7.93,7.93,0,0,0-.76.93c-.34.71-.4,1-1.12.5-.68.75.61,1,.94,1.33.5.61.93,1.28,1.35,1.21a.59.59,0,0,0,.62.44c-.27.37-.46,1,.11,1.09-.6.23-.14,1.25-1.08,1.29-.39.5.46.42-.25,1,.77,1-.6,2.17-1.35,1.45a2.43,2.43,0,0,0-2.06-.15c-.4.51-1,.77-.6,1.46-.33,1.1.28,2,.38,2.87-.85.05-2.15.3-2.11,1.24-1.51.29-5.42,2.84-5.05.91-.35-.52-.69-.71-1.11-.26-.91,0-1.22.88-2.21.73.43.94-.63-.42-.1-.71-.36-.45-.92.32-1.42-.23-.2-.28-.9.11-.77-.18,0-.74-1-.75-1-1.23a2.36,2.36,0,0,1-2.28-.59c-.53-.68-.42-1.54-1.38-1.78-.42-.05-.66-1.16-1.51-1.23-.47-.58-.85-.24-.87-.78-.31,0-.85-.63-1-.85-.43,0,.5-.44,0-.43-.08.53-.65,0,0-.2.74-.42.51-.49-.14-.23-1,.11-1.31-.83-1.31-1.79.38-.41-1.63.15-2.2-1.34-1.41-.3-1.18-1.15-1.26-1.6.65-.93,1.55-.56,1.38-1.07.93-1.67,3.06-3.95,4.57-3.37-.84.18-1,1.62-.45.48.36.23.38,0,.43,0,.07.13.57-.39.32-.33,0,.1-.21.17-.14,0,.29-.1,1.55-.45,1.13,0-.23.26-.25.2-.35.2s0,0,.05.07a.59.59,0,0,1-.34,0c.06-.53-.31-.16-.21-.11.29.31-.72.09-.38.46-.46,0,.51.36.2,0,.73,1.05,0-.5.68,0-.16.39.17-.43.3.35.54.66-.91.32-.13.33,1.19.57-1.72.68-.1.6.92.8.43-.8.75-1.2.39,1.32.48-.55.61.44.25.5.23,1,.27.19-.6-1.21,1,.19.71-.69.87-.09,1.55,0,1.64.48,1.1-.09-.26,1.61.84.52-.3-.24.09-1.3.26-1.32-.1-1.12.5-1.33-.2-2.49-1.44.72-1.11-.63-1.19-1.24.58-.37.43-.59-.16-1.29-.69-.05-.5-.8-1,.22-.26.73-1.05.3-.57-.67-.54-1.37.15-.63.46-1-1.21-.21-1.06-1.83-1.55-2.76a2.78,2.78,0,0,1,1.2-2.65c.2-1.5,1.46-1.62,1.14-3.21.77-.67,1.54-2.66,1.55-1.49.48-.38-.11-2.15,1-1.7.41-.12.88-1.24,1.59-1.68.08-.89.74-.92,1.25-1.09,1.08-.17,2.08-2,3.64-1.33a17.82,17.82,0,0,1,3.65-.59c-.11.12.28.65.17.88.55.06,1.57-.2,1.63.86a3.22,3.22,0,0,1,2.13-1.13c.78-.7.88,1.58,1.87.37.64-.27.42-1.72,1.68-1.46a1.13,1.13,0,0,1,1.26.13c.29.34.79-.11.42-.52.26-.45-.56-.91.28-1.34.63.38,1.79-.89.52-.94A3.39,3.39,0,0,0,35,251.61c.12-.35,1.39-2.46.1-2.22-.65.83.25-.54.25-.89,1-1.75,3.11-2.84,3.62-5.09.35.72,1.71.82,1-.27.51-.94-2.14.79-.77-.76.85-1,2-2.67,3-2.91.27.27.84-1.4,1.3-2,.44-.43.06.58.21.59,1.14.24.62-1.17-.21-1.51,1.11-1.17,1.51-3,3.1-2.75a1.9,1.9,0,0,0,1.55-1.32c0-1.16,1.21.18.74-1.41-.45-.45-.77.44-.78-.89-.65-1.36,1.31-.45.54-1.77s1.17.14,1.31-.91c.25-.89,1.3-1,1.86-1.36-.25-.18-.38-.09-.47-.26-.14,0-.55-1.37-.84.21-1.19-.36-1.67,1.29-2.43.9-.44,0-1.56.21-1.68.17-.48-.15-1.28-.88-1-1.11.75-1.05-1-.46-.61-1.23.17-.55.06-1,.68-1.26.27-.52.3,0,.52-.44.7.15,1-.1,1.69-.71-.06-.18.38-.76.31-.81.09-.6-1.08-.24-1-1-.39.25-.83.76-.86.14a1.51,1.51,0,0,1-.94.87c-.17.42-.35.69-.32.88-.21.44-.07.81-.58,1.37-.54,2.29-1.37-1.52-2.57-1.56-.68-1.81-2.88-2.54-2.34-4.67-.65-.58.79-3.52,1.12-2.27-1,.93.73.44.91-.06,1,.19,1.07-.84-.11-.73.05-.11,1.12-.3,1.41-1.22.91-1.62.28.24.81-.5.1-.94-.08-.59.54-1,.28-.5.07-.31-.13-.34.21-1.15.25-2.28.77-2.7-.61-.7.43-2.53,0-3.75-.12-.58-.43-2.32.54-2,0-1.21-.63-.73-1.18-.67,1-.79-1-1.58-.17-2.83-.54-1.11-.27-1.48-.6-2.32,0-3.28-.67-5.41-.36-8.67a10.69,10.69,0,0,1-.54-2.94c.38.23.61.72.54.09.45.1-.65-.34.11-.32-.28.06,0-.89-.4-.56-.06-.73-.5.13-.73.11a1,1,0,0,0-1.23-1.29c-.43.3-.4.47-1,.08-1.46.3.64-1.86.26-2.73.32-1.14.68.42,1.64-.58.62-.73,1.28-.73,1.73,0,1.06.13,1.17-1.1,1.46-1.36-.06,0,1-.67,1.14-1.17.72-.87.4-2.28.72-1.83.23-.22-.16-1.42-.11-.39-.58-.44-.36-1.18-.66-1.06.1-.79-.42-.1-.46-.72,0-.31-.1-.51-.33-.48a2.81,2.81,0,0,0-.36-1.72c-.11-.71-.54-1.55-.71-2.28,0-.42-.68-1.23-.29-.3.59.74-.26,1.36-.06.87-.38-.64,0-.95-1.21-1.92a10.27,10.27,0,0,1-1.78-2.34c-.31-.52,0-1.47.14-2.43.06-.63-.27-1.44.23-.47.72.07.9.74,1.43,1.32.43-.27.19-1,.54-1.49.09-.93.71-2.21-.14-2.15-.24-.4-.92-.35-.26-.66.49-.07.64.15,1.11-.08.05-.62-.81-.77-.12-1.1,0-.49.36-.86.09-1.29a2.22,2.22,0,0,0,.73-2.07c-.34-.66-1.34-.25-1.13-1a1.34,1.34,0,0,1-.77-1.21c.31-.38-.11-.53-.05-1-.72.08-.41-.22-1.26-.51-1-.19-1.73,1.14-1.38,1.43-.59-.42-.43.36-.73-.21-.12-.15,0-.85-.05-1.26-.28-.94-.88-1.53-.76-2A3.81,3.81,0,0,0,36,147.59c0,.14-.62-1.08-.79-.11-.1.41-.24,1-.46.36a2.61,2.61,0,0,1,.09-2.11c0-.52.64-.6,1-.7.64-2-2.39-3.05-3.18-4.55,0-.23-.47-.71-.67-.55s-.56-.17-.71-.43c.11-.41-.55-.49-.51-.51,0-.24-.34-.27-.49-.58-.92-.4,1.36-3.82,1.53-5.14.14-2.76,1.48-.73,2.29-2.06.81-.54.71-1,.25-1.64a8.39,8.39,0,0,1-.65-1.63c-.33-.26.16-.91-.09-1.31,0-.45.26-1,.67-1,1,0,1.11.61,2,1.21a7.34,7.34,0,0,0,1.19,3c.17.2.56.91,1,.65a6.87,6.87,0,0,0,1.17-1.67c1.11.69.57-1,1.32-1.52-.23-.54.27-.61.62-.69.08-.8.75-.94.77-1.68.74.13.25-1.12,1-1-.09-.54,1.12.41,1-.42-.17-.45-.5-.84-.65-1.23s.65-.53.59-.81.43-.78.52-1.07c.69-.2,1.62-.78,2.51-.53.46-.2,1.94.15,1.49-.53-.6-.39.16-.62,0-1-.62-.2-1.17-1-1.49-1.3-.35.12.19-.47-.14-.76.07-.42.51-.83.1-1.37s.22-1-.67-1.22a1.76,1.76,0,0,0-.22-1.33c-.23-.26-.87-.77-.68-1.25,0-.24-.43-.64-.45-.87-.47.86-1.61-.52-1.2-1.32.16-.7-.39-1.1-.26-1.8-1-.71-.77-2.62-2.22-1.84,0-.43-.54-1,.05-1.25.21-.53-.11-1.24.49-1.13.65-.26-.18-.87.85-.61a3.84,3.84,0,0,1-.44-1.56c.56-.37,1.32.68,1-.51.34-.15-.16-.25,0-.37Z"/>
            <path id="path22" class="cls-3"
                  d="M294.89,161.61a2.37,2.37,0,0,0,2.49.67c1.09.46,2.55-.22,3.28.92.76-.08,1.57-.17,2,.71.74.42,2.26,1.17.86,1.83-.77,1,.28,2.07.75,2.91a2.27,2.27,0,0,1,1.12,1.73,8.14,8.14,0,0,0-2.13,1.64c-1.32.48-1.83,1.84-2.79,2.71-.23,1.33-1,2.47-1,3.85a9.77,9.77,0,0,0,.63,3.17c.95.64-.62,1.3-.33,2.2a16.89,16.89,0,0,1-2.52,1.84c-1.27,1-3.68,1.6-3.24,3.61,1.59,1.3-1.33,3.5.57,5,.62,1.93-1.14,4.6,0,7,.19,2.71-.77,5.44-.73,7.85,2,1,2,3.13,2.07,4.65-1.67.33-.4,3.79.4,4.87,1,1.25,2.19,3.47-.34,3.68-1.26.22-3.42,4.17-4,2-.46-1.69-3.11-.25-3-2-.66.92-1.35,3.07-1,.85-.51.07-1.78,1.91-1.27.31.71-1.51-2.12-.4-2.08-.52.48,1.52-2-.27-3,.21-1.76-1.11,0,1.79-1.45,1.73-2.31-.78-1.31.44-.5,1.5-.42.56-2-1.48-1.32,0,.15,1.26-1-.53-1.45.55-1.13.15.55,2-.82,1.34-.21-.62-1.57-1.33-1-.23.69.28.45,1.31.05.32-.44-.4-.61.4-1.19,0-.78,1.16-1.5-1.82-1.81-.29.39.05,1.39.91.55.76-.62-.61-1.7.42-2.39-.47-.7.26-.62,2.31-1.85,1.49-.65-1.08-1.17.24-.47.82.5,1.07-.27.38-.52-.22-1,.31-2.31,1-1.84-.85-1.15-.66.56,2-.94,1.38-1.33-1.22-2.05,2.18-3.1.75-.7.88-1.07-1.28-2,.4-.89.52-.85-.17-.25-.64,0-.67-1.35.4-.81-.64-.16-1.13-1,1.31-1.14,0,.2-1.35-2.36-1.16-.73.3-.65,1.38-.92.41-.57-.74-.86-.88-2,2.18-2.78.72-.66,1.65-1-1.64-2-.62-.39.24-.41,1.93-.66,1.06s-1.83.07-2.47-.53c-.36.45,1.12-.07.24.89.34.66-.22,3-.66,1.42-.4.1-.65,1.25-1.26.28-.77,0-1.16,2.12-1.41.26-.71-1-1.34,0-.21.27.13,1.46-1.36-.66-1.85.21-.14,1.71-.59.77-1.38,0-.21.9,1.48,3-.51,1.34-1.27-2.1-.64.15-.25.91.36,2.7-3.58-1.31-1.95,1.27.07,1.27-2.35,1.79-2.05.18-.71,0-2.22,1.4-2.7.28,0,1.23-2.43,1.43-.24,2.38,1,.14.53,1.37-.07.49-1.69,0,1.33,2.82-.42,2.62.24-.72-.9-1.68-.66-.53,1.32,1-1,1.56-1.11.21.82,1.7-.45,0-.86,1.07a3.15,3.15,0,0,0-1,2c-2.19.36,1.09.34.82,1.45-2.61-.69,1.25,3.81-2.23,3.13-.48.74-.08,2.34-2,2.35-2.65,0-2.4,1.91-5.34,2.32-2.08,1.57-7.33,1.91-8.26,3.93.33,1.09,1.4.78,2.2.53.47.58.72,1.27,1.36,1.17.36.1,1-.73,1.29-.19.15.46.21,1.3.75,1.38a5.68,5.68,0,0,1,1.16,1.3c-.07.65.57,1.06.72,1.6.64.81.11,1.55,1.39,2a4.13,4.13,0,0,1,2.06.63c-.13-.89,1.42,1.18.14.35.24,1,1.77.61,1.51,0a2.21,2.21,0,0,1,1.62,0c.84.9,1.37-.06,2,1.14,1.17.27-.32-1.91,1.12-.62.57-.75,1.06-.79.85-.14.74-.05,1.62.59,1.45-.24.94,1.1.52-.88,1.2,0-.63-1.12.65-.18,1.49-.32.44-1.08,1-.89,1.11-.29.67.14.24,1,1.21,1.52-.39.39-.11.84-.66,1-.47-.64.18.75-.89.43-.09.73-1.32.86-1.27,1.11-.49.24.18,1.35-1,1.38-.42-.17-.74.77-.9.82-.34.45-.63.18-.88.32s-.59-.4-1-.08-.57.19-1.07.3c-.84,0-1,.46-1.43.6-.39.54-.47-.26-1-.23.13.84-.59-.28-1,.38-.29-.59-1.11.25-1.08.17.32.49-.62.36-.49.46-.1.44-.89.73-1,.19a3.5,3.5,0,0,0-1,.4,1.5,1.5,0,0,1-1.12.13c-.24.37-.39.17-.67.26.06.17-.55.32-.41.58-.46-.26-.59-.16-1-.08-.06-.09-.41.3-.46,0-.35.08-.3-.45-.61-.24,0,.17-.59-.54-.68-.06s-.56-.12-.83-.22c0,.21-.38.26-.57.32-.22.43-1-.31-1.05,0-.57-.36-.68.32-1.07-.24.11-.49-.49,0-.42,0a9.31,9.31,0,0,1-.44,1c-.09-.19-.55.33-.5.25-.31.05-.77,1-1.19.9s-.42.64-.8.54-.27,0-.54.24c-.69-.29-.75.49-1.28.18-.64.17-.46.73-1.41.56-.32.71-1.84.9-2.15,1.91-.56.26-1,1.58-1.72.76-.71-.16-.9-1.08-1.57-.71-.8-1.25-2.57-.82-1.55,1.1.06,1.15.17,2.15-.9,2.83-.55.6-.27,1.59-.71,2,.08.67-1.14,1-.64,1.7a3.2,3.2,0,0,1-.75,1.73c0,.33-.06.4-.2.67s-.29.16-.09.48c-.18,0,0,.26-.26.2.31.39-.35,0,0,.53.38,0-.68.3-.58.06,0,.48.33.52.05.77.23.25.3.47.11.74-.52.22.13.71.21.4.31.41.05.9.61.95-.1.15.06.51.24.57.15.27.91,1.79-.55.88-.13-.46-.31-1.94-.83-.76.8,1.4.09.32-.34.53-.43-.17-.2,0-.14.13-.4-.16.38.43-.28.22.35.2-.1.5.35.52-.14.1-.18.07,0,.3-.14.09-.28.16-.32.32.5.21-.35,0-.07.34-.15.19.35.27-.13.25s-1,.74-1.15,1.24c-.19.17-.73,1-1.46.61,0-.61-1.37-.37-1.73.34-.78.21.48,2-1.17,1.94-1.44,2-5.4,4.31-5.69,6,1.06,0,1.06,1.24.31,1.71.55.37.6.9,1.36,1.29.43-.06.44-1.26.73.05.67.81-.48,1.62.69,1.93-1.25.78.8.66.59.09.88.24,1.19,1.7,1.24,1.79.13.77-1.15,1.45.28,1.51,1.13-.22-.43-1.26.82-.63,1.53-.46-.85,1.08.74.93.36-.27.5,2.12.89.58,1.75-.78-.88.89.65,1.55.85,1,3,.79,1.86,1.7.81.35,2.56-1.77,1.46-.22s2-.32,1.18,1.35c-.31,1.14,1.69-.3,1.67-1.18.82.41-.65,1.2.75,1.13,1.16.2,1.08-2.12,1.87-.4.42,1,.77,0,1,.2.36.75,0,1.22,1.12,1.54-.79,1.09,2,.21.44,1.46-1.56.41-2.66,0-3.92.81-1.2,1-2.61-.69-4.15-.23-.64,1.76-3.7,1.44-3.72,3.53-1.06,1.09,1.2,3-.44,3.32-2.05,1.27-4.52.32-6.92.7-1.85-.81-1.23,2.28-3.15,1.72-1.56.42-.59,3.51-2.89,4.18,0,1.62-.2,2.86-1.51,3.6-.34.86-1.23.17-1.82,0-.38-.58-1.27-.4-1.35-1.17.56-1-1.35-1.28-1.5.15-1.25,3-4.06,3.29-5.57.57-1.17-.39-1.79-2.32-2.86-1.14-1.39,1.19-4.14,1.71-4.88-.7-2.68-2.46-1.88,3.29-4.1,1.47-2.38,1.77-3-1.46-4.94-2-.77-1.5-1.92,1-3.16-.53-1.18,1.06-2.38-.15-2.74-.44-1.09,2.05-.6-2.77-2.45-1.13-1.18.68.75-1.39-.74-.82-1,.32-1.5-2.08-2.39-.5-1.33.82-2.51-.26-3.63-.86-1.43-.43-3.87-.32-3.94-2.24-.53-.57-1.61.48-1.77-1.15-1.11-.2-2.28,1.65-2.34-.68-.74.28-1.54.88-2.46-.43.54-1.12.92-1.6-.56-1.47-.49-2.53-5,1.4-2.94-1.06-.8-2.57-1.77,2.89-2.19.14-1.09-1.35,0,1.44-1.68.18-1.74-.35-1.19-.76-1.47-1.72-.45-.73-1.91.94-1.19-.12,1.67-.77-2.17-2.33-.2-2.28,1.38-.81-.16-1-.84-1.17-.09-.34,1.34.29,1-.86.16-1.87-1.91-2.66-3.44-2.44-1.33.48-1.94-1.29-3.25-1-.79.79-3.19-1.19-1.46-1.4.09-.65-1.59-1.72-.52-2.35,1.29-.28-.45-1.4-.47-2.16-.71-.63-2.9.89-1.94-.78-.87-.55-1.53,1.15-2.57.63-1.34,0,.48-.76-.8-1.37-1-1.26,1.24-1.71-.17-2.92-1.61-.27-.85-.92-.81-1.91a12,12,0,0,1-2.27-1.31,2.4,2.4,0,0,1-3.65-.43c-1.16,1.18-1.3-.95-1.75-1.31-1.49.41-1.49-1.27-2.79-1.08-.78.69-2.12.16-2.81.9,0-1-1.22-1.88-1.86-.93-.9-.41-.92-1.49-1.76-1.94.11-1.13-1.82-.49-.75-1.45.8-1-1.1-.72-1.5-1.75-.64-.28.38,1.86-.34.73-.37-.5-2,.15-2.28-.64-.61-.09-.9-1-1.45-.9-.21,0-.42-.51-.65-.24-.52.32-1.15-.29-1.34-.07-.45-.36-1.62,0-1.71-1.12,0-.62-.51-.41-.41-.87.69-.64-.7-1.14.31-1.59.49-.52,1.12-.89,1.16-1.35.46-.6,1-.45.57-1,1.07-.37.17-2.14.85-2.27a1.12,1.12,0,0,0,.14-1.17c0-.73.66-1.2.87-1.78.16-.28-.26-.43-.07-.68,0-.23-.47-.71-.25-.55.83.21,1.28,1.42,2,.28.76-.31,1.76-.13,2.34-1.07,1,0,0-1.5,1.24-1.26a2.47,2.47,0,0,1,2.38-1.46c.67-.07.82-1.1,1.73-.89.79-.49,2-.68,1.93-2,.28-1.26,2.07-1.38,2.07-2.66,0-.9.94-1.77,1.44-2.23.7-.9,1-2.43,2.07-2.82,1.64-.22,2.5-1.33,2-2.84,1.08-.72.92-2.63,2.39-2.61.39-1.07,1.51-1.21,1.84-2.44.75-.37,1-2.06,1.59-2.29,1.39.37.74-.94,1.53-1.7,1.18-.65-.75-1.79.45-2.75-.27-.37-.69-1.45.5-1.24,1.62-.08,2.37-2.09,3.52-3.52,1.41-.74,2.09-2.73,3.07-3.26.8-.57,1.22-1.9,2.08-2.14a21.3,21.3,0,0,1,3.19-3.64c.2-1.77,2.19-2.66.77-4.35,1.06-.63.61-2,.35-2.88.65-1.53,2.19-.93,2.55-2.75.37-.93.83-2.2,1.83-2.37.39-.74,1.14-1.3,1.31-1.67.69-.3.35-1.08,1.22-1.38.5-.77.83-.93,1.64-.72.22-.73-1.07-1.85.33-2,.75-1.18,1.13-1.68,1.87-3.07.87-.09,1.39-.25,2.11.26.75,0,1.47-1.1,1.9-1.48.78,0,.71-.35,1-1.08a1.55,1.55,0,0,1,1.62.12c.6-1.25.87-1.47,2.1-1.53.56-1,1.77,0,1.86-1.32.63.1,2.27.65,1.51-.57-.06-.93.25-1.49-.78-2.13.31-1.48-1.31-2.28-.21-3.57.84-.44,1.54-.36,1.57-1.26.49-.81,1.36-1,2.09-1.49a1.45,1.45,0,0,1,2.18.57c-.87,1-1,1.94-.09,2.86-.32.91.84,1.82.57,2.67a3.11,3.11,0,0,0,2.43.81,3.67,3.67,0,0,1,4.31-.42,5.22,5.22,0,0,1,3.59,1.77c.58.28.48,1.07.93-.77.27-4.35,2-9.3,1.85-13.4-1.44-1.42.77-2.5.17-4.14.37-1.1.66-2.72,1.9-1.24.58-1.22,2.16-2,1.64-3.37-.65.05-1.31-.76-1.61-1.24.76-.79,1.16-1.88,2-2.94a5.48,5.48,0,0,1,.38-2.32c-.28-.6.52.07.56.27.6-.78,1.88-1.57,2.32-.31.51.84,1.58.84,1.51,1.87.81.53,1.85-1.39,2.61-1.79.62,0,1.72-.39.86-.89,1-.76,2.24-1.49,2.63-2.75,1-.59,1.27-1.58,1.86-2.06.76-.43,1.18,1.35,2,1.71,1.88.3.92-3,1.83-3.81-.24-.59,2.07-.72.68-1.09-.34,0-.56-1-.91-1.23.07-.52-.81-.45-.63-1-.15-.69-1-.76-1.81-1a8.83,8.83,0,0,0-2.43-1.15c.52-1.54,2-1.26,3.26-.92.68-.6.06-1.45-.13-2.09.33-1-1.36-1.86.29-2.39,1.32-1.18-1.7.19-.95-1-.39-.31-.65-.81-.17-1.28-.58-.47-.49-1.29-1.15-1.11,1-1,.38-2.28,1.16-3.27.55-.78,1-1.09.57-.34-.4.38-.25,1.08-.26,1.69.42.48.51,1.11,1,1.29s1.24.14,1.1,1c-.28.3.22.76.29,1.17,1.14.63,2.3,1,3.4,1.63,1.25-.15,1.87-1.73,3.36-1.6,1.3-2,3.68.1,5.12-1.54,1.67-.36,4.48.42,4.89-1,.7-.08.88.81,1.69.85-.36-1,.59.45.57-.48.6-.09.11-.49.91.2.29.26.39-.52.79.05.53-.65,1.62,0,.88-1.11.6.19.78.82,1,.06,1,.1.66.54,1.72.29a2.15,2.15,0,0,1,1.81-1c.07.68.21-1.05.85.09.51.21.45-.8.74-.75,1.25.84,2.26,1.13,3.27.48,1.09,1.15,1.83,0,2.85,1.31a17.94,17.94,0,0,1,3.13,0c.68-.55,2.21-.88,2.65,0,1.09.44,2.13.1,3.39,0a8,8,0,0,1,2.54-.34c.61.76,1.52-.68,2.31-.76.68-.29.7-.59,1.67-.63,1-.46,1.89.82,2.47.31,1.08.47,2.12-.75,3.17.11.58-1.09.31.68,1.32.56,0,1,1.68,1,1.79,2,.71-.19-.92,1.23.61.61.9.72,1.23-.61,1.33.72,1.23-.47,2.11,1.09,2.31,2.11,1.57.87,3.19-.47,4.84.22,2.32.47,5.35.31,7.12-1.49,1.35-1.18,2.89-1.08,3.76.38,1.78.91,2.52-1.46,3.93-1.91.2-.95,1.25-.82,1.77-1.41.81-.5,1.29.08,1.76.57,1.14-.29,2.07.55,3.21.63.93-.33,2.11-.43,2.63.54,1-.29,2.22-.33,2.8.45,1.1.35,1.68-.61,2.58-.95.68.51,1.61.65,2-.33a13.22,13.22,0,0,1,4.07,0c1,1.08,2-.2,2.92-.48s1.9-.68,2.88-.8a2.45,2.45,0,0,1,2.54.82c.57-.16,1.19-.27,1.71-.46,1.22-.5,1.92-1.59,3.06-2.24.24-.53.8-.51,1.22-.7Z"/>
            <path id="path26" class="cls-3"
                  d="M158.29,83.88c.75.75,0,1.39.93,1.94.7.72-.12,1.39-.39,1.72.85.32.72,1.76,1.65,1.36a1.61,1.61,0,0,0,1.17-1.14c.68,0,1.52.62,1.49-.21.22.6.51.32.58.77s.6-.41.68.16c.18.1-.07.15.1.4a45.2,45.2,0,0,1,2,8.15c.16,1.45.9,4.81,1.6,4.71,1.66,1.48,4.19,4.69,5.76,6.1,0,.27.48.1.59.67-.41.48.53.89.11,1.39-.07.36-.31,1.17.07,1.2.11,1.32.45,1.09.75,2.35-.66.36.19,1-.49,1.32.39.43,1,1.42.47,2,.59.94-.56.22-.87-.21-.85-.21-.64.37-.85.81.13.55-.88.32-.56.85-.29.3-1.12.24-1.25.94,0,.32.8.39.75.79a4.87,4.87,0,0,0,.4,1.26c-.23.47,0,1.3-.58,1.64a14.55,14.55,0,0,0-.12,2.47,6.74,6.74,0,0,0,.5,3.74c-.54.95-1,1.83.12,2.52.12,1.1.56,2.17,2.38,1.83.71.51,1.16.3,1.9.18,1.23.23,2.51-.6,3.09,1.16.55.52-.17,1.49-.11,2.09,1,2.1,2.15,6.13,5,6.32,1.51.71,2.89,0,4.21-.36-.05-1.32,2.85-.76,3.15.11,1.11-.17,2.42-.6,3.11-.31-.81,1.4,1.57-.1,2,.45.55.07.88.37,1.21-.34-.14,1.6,1.4-1,2.46.65,1.28-.14,2.61-.54,3.43,0a10.8,10.8,0,0,1,3-.25c.64.67.09.42.48,1,1.37.47,3.05.42,3.82-.72,1.41.44.57-1.26,1.56-.81.46-.7,1.93,0,1.22-.78a4.83,4.83,0,0,0,2.2-.23c.43-.35,2-.13,2.37-.27,1,1.12,2.42.61,3.33.54.72.8.3.77,1.09,1.38.45.91,1.66.27,2,.49s.68.86,1.42.53a2.48,2.48,0,0,0,3.4.9c.94-1,2.45-.79,3.67-.69,5.89,7.58,12.64,15.52,17.85,22.93A5.27,5.27,0,0,1,249,169c-2.89.6-5.56-.59-8.31.07-1.22-.47-.69-1.75-1.81-2.34a1.7,1.7,0,0,1-1.51-.8c-.53.53-2.43,0-1.26-.67-.69-.08-1-1.35-2-1.39,0-.94-1.13-.82-1.06-1.53-.47.8-1.53-.18-2.25.26a2.38,2.38,0,0,1-2,0,2.84,2.84,0,0,0-2.79.1c-.95.35-1.81,1.15-2.77,1.3-.5-.44-1.06-.21-1.65-.2a12.13,12.13,0,0,1-3.56.53c-.88,0-1.05-.77-2-.75s-1.55,1.1-2.41.39a4.08,4.08,0,0,1-3.66-.74c-.32.72-1.65-.73-2.11-.18s-2.2-.71-2.79-.55c.1.54-.62.88-1.21.21.1,1-.82,0-1.5.72a1.51,1.51,0,0,1-1.29.72c.06-.29-1.22-.65-1.21.09-.54-.61-.88-.69-.45.23-.57-.28-1.27.63-1.65.14-.22,1-1.05-1.09-1,0-.53,0-.29.63-.86,0,.34.94-1.15,0-1.11-.41-1,0-1.34,1.53-3.11.89-2.09-.49-3.58,1.66-5.68.6-1.42,1.23-3.31,1.16-4.48,2.54-1.23.46-2-.92-3.22-1.06a1.69,1.69,0,0,1-1.19-1.54c.39-.76-.57-.85-1-1.08-.16-.19-.67-.4-.67-.91-.41-.55-.55-1.57,0-2,.1-.5.54-.94-.3-.06-.3,1-1,1.81-1.95,1.08-.32-.39-1-.83-1.5-.19a2.25,2.25,0,0,1-.52-1.62c.15-.67,1.2-.19.86-1.06.49-.09.63-.84,1.16-1.06.42-.5-.46-.86,0-1.4,0-.81.72-.74,1-.9s.42-.43.5-.81c1.79.23-1.31-1.88.45-1.8.66-.42.53-1.48,1.27-1.68.54-.31.45-1.36.32-1.82.64-.53-.65-1.52-1-2.18-.21-.74-1.46.46-2.11-.26-.94-.09-1.94.36-2.13-.93.3-1.22-.44.17-.88-.16-1-.18.21-1.61-.48-2.4-.33-1.27-1.8.34-2.58-.44-.59,1.52-.34-.17-1-.3-1.12.76-1.5.1-1.72-1.07.3-.8-1.22.47-1.21-.65-.93-.16-.86-1.38-1.43-2.16.53-.35.41-1.05.58-1.37-.75-.1-1-1.28-.89-1.87,1.09-.28.87-1.59.6-2.18s-1.89-1.82-1.32-3c-.92-.76-2.65-1.16-2.48-2.94.83-.87-.89-1.07-1.34-.62a8.46,8.46,0,0,1-3.43-.24,1.56,1.56,0,0,0-2.29,1.12c.73,1-.21,1.39-.85.86-1-.09-2,.38-2.32-.67-.47-.48-.74.53-1.54,0a2.54,2.54,0,0,1-2.17-1.36c.36-.78-1.25-1.07-1.08-1.78-.17-.18-1.3-.06-1.06-.87-.41-.29-1.27-.74-.24-.44,1.1-.25,1.57,1.12,2.35,1,.42,1,1.06.85,2,.29,1.42-.59,1.31-1.74,2.57-2.76.25-.9-.25-1.57,0-2.46.52-.62,1.24,0,1.48-.88.85-.21.48-2.07-.13-1.72-.21-1.4-2.26.22-2-1.67.64-1.44-1.26-1.51-1.58-2.55a17.72,17.72,0,0,0,.91-2.43c1.33-.37,0-1.83,1.12-2.22.42-.48-.1-1.88.45-2.4,0-1.53-3-1.19-1.55.13.07.82,0,1.33-1,1.47.17.87-.92.27-.64-.07a1.71,1.71,0,0,0-1.8-.5,5,5,0,0,0,1.48-2.07c-.61-1.14-2.12.13-2.42-.82-.57,0-.22-.52.31-.46.58-.55,1.38-.63.28-1.39-.68-1.22.64-2.22,1-3.35.65-.11.75-.72,1.19-1.61,2-.17.57-2,.27-3.13,1.3-.55-.34-2.56.47-3.59,1-1.16-.62-3.19.82-4.08.73.37,1-.63,2-.25,1.18.07,1.93.53,2.78-.24,1.37.62,1.94-1.73,3.38-1.31a1.56,1.56,0,0,1,1.15-1c0-.21,1-1,1-.35Z"/>
            <path id="path30" class="cls-3"
                  d="M298.38,225c1.12,1.56.69,5.25,3.66,4,1.33-1.25,1.63,2.15,2.24,2.52a17,17,0,0,0,1.16,4.07c.46,1.33,3.59,2.23,2.1,4.14-.52,1-1.74,1.58-1.5,2.69-4,.65-6.38,5.71-9.9,7.7-1.84-.32-3.85,6-1.86,3.9.41-.86,2.63-1,2.82-.16,1.42.92,3.75-.9,3.66,1.62,1.16.66-.25,3.5,1.67,2.06,1.44.26,1.51,1.72,2.87,2.38a13.57,13.57,0,0,1,2.71,3.06c.66,1.21,4.07,2,2.8,3.92-1,1.44.17,3.92,1.48,5,1.66-.8,1.38,2.42.74,3.34.08,1.31,2,2,2,3.79s1.33,3.77,2.11,5.3c-.16,2.18,2,3.71,1.43,6.17a2.07,2.07,0,0,1,.74,3.6c2.49,2.51-2.75,1.73-4.37,2.75-2.24,1.09-.29-2.15-2-2.55-.91-.89-1-2.45.55-1.74,1.19-.9.37-2.22.49-3.51-.49-1.4-.32-3.23-1.45-3.76.36-1.83-.26-3.12.14-4.76-.94.08-.38-1.32-2-1.66.34-2.38-1.85-.85-2.68-1.45a9,9,0,0,1-1.06-4.5c-.37-1.08,1.23-2-.22-2.58-.1-1.41-1.91-1.37-1.75-.22-.58-.07-1.1,1.27-2.36.82-.81.36-2.46-.2-1.6,1.5-.53,1.17-1.17,2.58-2.43,2.75s-2.51-2.06-3,.05c-1.25.81-2,3-3.59,2.79a12.71,12.71,0,0,1,.14,2.16c-1.29-.88-2.4-.93-3.12-.1-.1-1.49-.8-1.73-1.88-2.69a1.83,1.83,0,0,0-1.81-1.5c-.36-.06-.6-3-.68-.78-.47,1.39-1.25,1.89-1.34,3.06-.18.43-.7.86-.77,1.09.49-.27-.44.74,0,.3,0,.66.86.16,1.24.23.36-.25-.74,1.47-.06,1.34.09-.35.58.35.83-.21,1.18.08-.05,1.09.54,1.29.26-.26.54-.27.42.14-10.72-.17-22.24.34-32.58-.14-.37-.44-.63-.06-.93-.32-.57.09-.5-.54-.92,0,0-.39-1-.53-1.07-.54-.39-.06-.24-.07-.71-.3a6,6,0,0,1-1.35.66c-.4.28-.55.6-1.11.68a2.13,2.13,0,0,1-1.24-.17c-.66,0-1.56-.2-1.72.37-.21-.14-.83.6-.92.52-.58-.2-.89.22-1.15-.37-1.47-.64.15,4.82-.44,5.88.49,3-.77,8.46.26,10.71,1,1.29,2.77-1.79,3.52-.73-.23,2.35,2.5-.85,3.37.89,1.24.32,2.7-.46,3.71.19-.13,1,.88.61,1.14,0s.32-.56.89-.33c.55-.18,1.18-.31,1.48.41.27.44,1.13.1,1.44.3.17.69,1.93,1.28.7,2,.11.31,2,.9,1,1.09-1,.52.93,1.6,1.12,1.64.13,1.16-1.59.72-.43,2,.82,1.32-1.74.85-.67,2.18.63-.13,2.19,1.8,1.37,2.15a1.39,1.39,0,0,0-1.82-.24c-.24.76,0,.93-1,1a3.4,3.4,0,0,0-1.31,0c-.69.1.18-.61-.15-1.09s-1,.9-1,.22c-.45-.49-.64,1.49-1.14,0-.75-.58-1.14-1.29-1.74-1.8.07-.34-.74-.49-.85-.82a3,3,0,0,0-1.93,1.45c-.58-.14-1.07.42-1.29.83.12.27-.64.77-.51.78a4.21,4.21,0,0,1-1.13-1.18.91.91,0,0,0-1.07.32c-.54-.2-.8,1.62-1.48.92-.6.23-1.22,1.27-1.59,1-.6-.8-1.58.45-2.31-.1s-.65,1.42-1.67.49c-.37-.7-.84,0-.92-.13.25.93-.74.57-1.14.11-.63,5.62.31,13-.21,18.45a1,1,0,0,0,.07,1.52c1,.34,1.5,1.28,2.12,2,.29.13.56.6.75.72a1.77,1.77,0,0,0,1.29,1.11c.07-.3.82.13,1-.05.47-.13.5.79.63.92.65-.26,1,.83,1.39.46,0,.22.56.46.58.53,0,.23.29.23.26.42.15.32.53.5.57.46,0,.19.28,0,.27.23.15,0,.49-.1.38.11a5.33,5.33,0,0,1,1.41.59c-.06.75,1.11.14.87.89-.36.21.15.68.19.88.35.09.2.67,0,1.29.46.32.37.55.83.71-.5.14.53.32,0,.49a2.31,2.31,0,0,0-.29.8c-.16.1-.36.56-.52.46.09.16-.12.53-.16.64-.06.29-.25,0-.28.34-.25.21-.26.41,0,.53.08.3.07.36.34.53.1.62.4.27.64.85-.12.22.55,0,.47.6-.58.36-.11.68.26.74.5.56.68.24.69,1.06.05.1-.39.68.15.88.37.62.9.52,1.44,1.22-.18,1.05,1.7.48.93,1.06.21.05-.83.59,0,.71.5.18-.13.9.12,1,1.77,1.65-1.17,3.79.49,5.79.43,1.81-1,2.67-1,4.6-4.1,23.8-8.49,48.43-12.93,72.25-1,.89-1.86-2.69-3-2.9-.43-1.81-4.08-.59-3.28-3,.28-2.09-2.47-2.17-2.7-4.3-1.38-1.47-2.64-.23-3.9.19-1.61,2.11-3.11,1-3.91-.49-.82.16-1.4.86-2.23.15-1-1.44-2.67-.5-.07-3,5-8.43,10.92-16.63,15.78-25-1-.58.51-3-1.14-2.49.2,1.68-2.58,1.69-1.45-.1-.39-1.59-.72.83-1.61-.14-.16-1.53-.63-3.67-2.77-1.87-1.7-.29-.58-1.57.58-1.45.45-.83-.93-.34-1.43-.86-.8.23-1.91,1.88-2.48.29,0-1.09-.51-1.42-1.26-.7-.82.08-1.43-2.37-2.2-1.24,2.82.71-1.44,2.65-1.61.54.26-.73.81-1.71-.12-1-1.87.28.57-1.89-1.24-1.88a2.35,2.35,0,0,1-2.13-1.16c-1,.12-2,0-2-1.28-.49-1.34-1.43-.2-2.07.22-.81,0-1.9-2.21-2.09-.55.46.58,1,2.67-.26,1.58-.54-1.13-2.05-.25-3-.14-.14.37.63,1.91-.45,1.21-.53.42-.81,1.94-1.68.65-.58-1.14-1.19.62-1.83.66-.5-.34.82-1.27-.38-1-.17.91-1.11,1.08-1.86,1.19-.83,1.18-1.15-.46-.84-1-.8-.48-.86-2-1.82-2.08-.84.41.48,2.82-1,1.76-1-.61.22-1.92-.48-2.4a3.79,3.79,0,0,1-3-1.25c-.88,0-2.83,1.54-2.25-.47.77-.81-.74-1.56-.5-.37-1.14.33-1.53.81-2.31.77-.39,1.46-.93,3.28-2.44,3,.42.83.39,2.29-.75,1.26-.22,0-1.74.43-2-.56-1.09-.5-1.54,1.54-2.56,1.8.1,1.35-1,2.28-1.35.78-.52-.27-1.42.25-2.1-.23.44.9-.87.45-1.24,1.13-1.61.72-2.7-.05-2.71-1.61-.6,1.46-2.17-.37-3.1.08a5.6,5.6,0,0,1-2.13-1.47c-1.15-.42-.53,1.12-1.39,1.7-.49,1.53-1.12-.21-1.16-.8-.73-.11-1.31,1.64-1.47.08-1.13,0-2.4,1.43-3.92,1.17-1.25.91-.38-1-1.25-1.48-.17-1.28-.61-1-1.38-.83-.62-1.19-.6-.59-1,.15-.72-.1-1.24-1.15-2.08-1.18,0-1-1.88-2.53-1-3.56,1.41.19,1-2,2.45-2.31-.2-.38-1.92-.27-.73-1.34.5-.27-.89-.63-.81-1.3a5.32,5.32,0,0,0,.34-2.46c1-1.09-1.66-.4-.92-1.63.49-.88-.27-1.05-.92-.86-.21-.47-1-2.26-1.08-.82.6.88-1.39,1.18-.6.51.24.05.16-.44-.47-.21-.76-.37-1.12.55-.79,1-1,.36-.56-.78-1.56-.72-.37-.87-2.18.07-2-.3,0-1.6-2-1.06-2.73-2.21,0-.88.68-.89.65-1.88.33-.55,2.15-1.76,1.14-1.54-.81.38-.95-.78-.25-1.1-.48-.32-.35-.68-.29-1.23-1.08.29-1.16-.57-1.22-1.34-.81.31-2-.84-.66-.44.6-.43-.07-1.05-.54-1.08-.28-.81,1.07-1.86-.46-1.25-1-.35,0-2.11-1.15-1.56-.55-.51-1-1-1.68-.41-1.11.39-.86-1.39-1.13-1.34.26,1.06-.73,2-1.09,1.09-.84.22-2.29-.34-2.33-1.42-.64-.79-.44-2.36-1.77-1.51-1.36.15.62-1.66-.66-1.09-.35,1.2-1.75-.49-1.4-1.25.52-.45,0-1.55-.27-.57-.33,2.18-3.09-.57-4-.3-2.25.22-2-1.53-2.4-2.81-1.83-.38-.4-1.13.36-.89-.36-1,1-1.41-.45-1.2-.26-1,.1-1.18-.9-.85.8-1.25-2.21-.77-1.4-2.2,2-.3-1-1.7.11-2.53-1.13-.44,0-2.57-1.36-1.36-.35-1,.16-2-1.16-1.61-.07-1.17-1.12.29-1.1-1-1,.76-1.13-1.54-1.83-1.73-.62-.34-1.19-.7-1-1.13-1.07.91-2.1.29-1.93-.58-.43,1.09-1.61,0-1.24-.92-.61-.85-1-3.68-2.49-2.28-.36,1.47-2,.53-2.21.18-.72.52-1.56-1.3-1.88-1.68-1.76-.34-2.26-2.18-4.2-2.28-1.5-1.88-1.94,1-3.27,1.56-1.48-.71-2.71-.63-4.24-1.07a6.23,6.23,0,0,0-3.9-1.62c-.06-.94,0-1-.89-1.19-.51-1.08-1,0-2-.34a6.34,6.34,0,0,1-2.9-.41c-.89-.19-1.11-2.93-2.16-1.84-.12-.76-.74-.44-.7-1.21a6.31,6.31,0,0,1-1.71-1.95c-1-.11-1-.46-.32-.56-.64-.42-.7-1.24-1.68-1.29-.59-1.43-2.28,1.05-2.16-1.53-.74-.94-1.42.35-2.14-.42-.66.62-.31-1-1.27-.53.23-1.36-1.06-.14-1.41-.74-.56.89-.71,1.82-1.81,1.14-2,0-.12,4.58-1.1,3.71-.43-.51-2,1-3-.3-1.18,1.06-1.61,1.09-2.56-.13-.52.42-1.31-.68-2.23-.29-.54-.83-1.49.52-1,.7-.79-.68-1.78-.11-2.61.11a2.84,2.84,0,0,1-2.23-.77c-1.21.53-1.66-.95-2.58-.28-1.38.11-1.5-1.18-1.93-2.47.38,0,.66-.61.49-1a3.88,3.88,0,0,1-.4-1.67c-.56-.66-.74-1.93-.28-2.37.61-1.44-2.11-.42-1.64-2.2s.62-4.34,2-4.91c-1.17-1.22.43-2,.84-2.92.41-1.42,3.59-.27,3.91-1.82.86-.24,2-1.11,3.22,0,1,.17,2.11.65,1.13-.49.09-.31-.76-.35-.42-1s-.81-1.47.36-2.17c.3-.49.55-1.19.71-1.47a11.13,11.13,0,0,1-2.16-.28c-.25-.77-1.17-.41-1.11-1.29a1.48,1.48,0,0,0-1.19-.71c-.46-1-.29-1.36.65-1.85.94-.33,2.36-1.08,3.5-1.37.77-.27,1.43-.85,2.13-1.1.73.42.92,1.11,1.69,1.48a1.64,1.64,0,0,1,.48,1.9c.45.4-.31,1.17.27,1.81-.14.91,1.41,1.29.73,2.38-.1.83-.07,1.62-.57,2a1.86,1.86,0,0,0,.27,1c.23,1.23,1.77.57,2.14,1.67.68.29,1.4,1.77,1.91.53.85.1,2-.34,2,.56.59-.05,1.23-.58,1.44-.43.3-.14,1.08.37.89,0,.12,0,1.88-.35,1-.76-.62,0,.22-.28.46-.32.31-.89,1.63.88,2.19-.11,1.56.19-.76-1.43.88-.89.74.42,1.75-.35,1.91.72.11-.71-.41-1.68.59-.73.65.88,1.83.44.9,1.7-.52.32,1.26.54,1.15,1.51.88.14,1.15,2.61,2.19,1,1.16.2,1,2.34,2.13.95,1.35.16,2.78-1.07,3.39.6,1.13-.18,1.82.31,1.73,1.36.67,1,1.48-.59,1.8.73,1.2,1,2.54-.05,3.4-.17.37.95,1.82.55,2,1.62-1.48,1.31,2.08,1.56,1.1,3.05-1.54.65,1.21,2.25.07,2.68,1.14.46,2-.4,2.94-.73.17.83-.38,1.26.94.89,1.37-.66,1.61,1.2,2.16,2-1.45.25-.65,1.79.09,2.44-.78.36-1.08.91,0,1.31,1.1.79,2.69-.1,3.75,1.27,1.53-.12,3.87-.16,4.31,1.79.29.87-.18,1.83-1,1.31.67.37,2.45.76.63,1.36-1.25.18,2.25,1.74.32,2.33-.29.9,1.46-1,1.61.47-1.52.82,3.4,2.49,2.18.75.86-.23,1,2.57,1.84.32.46-2.16,1.34.74.59.91,1.39-1.64,3-.24,4.11.08,1.25.07-1.24,1.8.76,2.21.9.79,1.59-1.57,1.77.62.56,1.15,2.25-1.73,2.71.71.84-.1,1.22,0,1.38.93,1.12,1.69,3.84.8,5.18,2.37,1,.69,2.19-.08,3-.56.69.45,1.08,1.48,2.12,1,.37.59-.86,1.38.41.8,1.87-1.24,1.05,3.57,2.49,1.09.47,2.1,3-.23,4.14,1.21.89-1.64,2,.35,3,.78.78,1.73,2.44,1.65,4.06,1.12,1.44,1.29,1.07-3.92,3.42-1.62a2.74,2.74,0,0,0,4.13,1.41c.86-.77,1.82-1.52,2.5-.33,1.43.84,2.66,3.09,4.54,2.93.3-.83,4.31-5.35,3.76-2.58.4.56,1,.5,1.46,1,.59.18,1.5.69,1.75-.22,2.38-.46.21-4,2.69-4.46.76-2.22.9-3.53,3.24-3.64-.05-2.29,2.39-1,3.88-1.38,2,.36,4.3-.09,5.26-1.26-1-1.54-.17-3.12.5-4.16,2.3-.43,3.22-3.52,5.6-1.4a20.49,20.49,0,0,0,3.25-1c1.12.91,4-1.21,1.56-1.15.69-1-1.38-.77-.71-1.81-.56-.89-.48.79-1.2-.36,0-.84-1.32-1-.95.06-.7.73-2.24.15-1.31-.59-.92-.58-.7,1.48-1.77,1.36-1.22.29.88-1.6-.94-1.25-1.49.7,0-.94-.19-1.2-.46.81-2.41,1.23-1.42.48-.23-.74-2.92-.67-2.68-2.39,1.45-.79-.37-.94-.39.1-.7-.57-.08-1.5-1.27-1.24.08-.53.95-1.07-.3-.9-1-.57.51.92-1,.72-1-.3.18-.94.12-1.55,0-.21-.67-.61-.63-1.31-.89-1-.69.16-1.57.07-.53-.47.91-.85-.37-1a2,2,0,0,0-.44-2.3c.23,1.42-1.52,0-1.4-.59-.94-.11,1-1,0-1.44s-1.35-.8.78-2.2c1.33-2,4.41-3.2,5.19-5.32-.2-.48.12-.75.38-1,.53-.67,1.59-.66,1.73,0,1.62-.11,1.13-1.42,2.27-1.91-.1-.17.77.07.27-.22-.15-.33.59-.27.07-.45.21-.22.37-.17.28-.39s.19-.22,0-.28.12-.38-.19-.47c.65.19-.23-.34.3-.26-.65-.2.61-.2.48.13.82.59-.67-2,.64-.95-.86,1.56,2.46,1.44.58.37a.77.77,0,0,0-.18-.66c.13-.16-.15-.27-.42-.4.22-.37-.19-.82-.3-.67-.66,0,.19-.67,0-.68.16-.21-.25-.47-.12-.62.29,0-.33-.75-.05-.56.1,0,1-.13.46-.25,0-.45.25-.06.16-.5.19.29-.06-.35.2-.06-.2-.39.08-.33.18-.8.21,0,0-.64.41-.84a3.07,3.07,0,0,0,.39-2,2.27,2.27,0,0,0,.83-1.35,4.33,4.33,0,0,1,1.53-2.77c0-1-.48-2.59-.06-3.58.86-.47,1.14,1,2,.62a14.49,14.49,0,0,0,1.41,1c.58.28.83-.6,1.34-.86a5.71,5.71,0,0,1,2.28-1.84c.12-.38,1.32-.06,1-.66.69-.07,1,0,1.34-.36.63.16.56-.17.9-.24.22.47.42-.41.62-.31.18-.18.91-.31,1-.79.35-.22.59-.54,1-.61-.25-.3.43-.58.2-1,.42.08.48-.27.71.44.26-.29.87,0,1-.21a.71.71,0,0,0,1,.08c.48.14.35-.62.78-.07.14.42.51.09.62-.1.45-.07.45.33.64.21.37-.15.24.29.49.25s.32,0,.83-.09c.18-.31.95.47.75-.29.6.08.22-.48.69-.15,0-.22.59-.45.8-.23.47,0,.93-.49,1.3-.48.38-.26.32.17.65.2.74-.07.23-.62.9-.54.46,0-.16-.56.42-.55.48-.35.54-.19,1.07-.16.5-.4.9.57,1-.35.43.66.72.46,1,.22a7,7,0,0,1,1.91-.7c.17.27.48-.19.71-.23.75.22.73.29,1.24.12.47,0,.67-1.06,1.22-1a.87.87,0,0,0,.8-1.26c.41-.2,1.24-.91,1.86-1.25.6,0,.06-1,.65-.42a1.93,1.93,0,0,0,.49-1.26c-1.14-.59-.47-1.16-1.37-1.54-.07-.91-1,1-1.79.54-1.29-.8-.27.29-.81.26-.21-.34-.45.84-1.13.15.43.73-1,.17-1.48-.06.71-1.06-.83,1-1.34-.08.28.49-.19,1.72-1.09.53-.07-.4-1.33,0-1.62-.88.09.43-1.71-.27-1.39.54,0,.69-2.24,0-1.2-.23.57.47-.54-1.45-.64-.35-1-1.09-1.7-.17-2.77-1.26a7.46,7.46,0,0,0-1.27-2.76c.2-.57-.61-.84-.78-1.3-.76-.25-.93-1-1.1-1.66-.6-.49-1.14.72-1.74.09-.47-.28-.91-1.56-1.92-.73-.63-.27-1.23,0-1.37-1.28,4-1.71,9.26-3.51,12.28-5.45,1.82-.16,3.66-1,3.38-2.71,2.32.55,1.86-2.1,1.29-3.12,2.26.41.21-1.26-.63-1.15,1-.34.92-.62,1.21-1.44.6-.55.9-1.76,1.72-.93-.27-1.78-.06-.17.95-.14,1.23-.31-1-1.66.34-1.54.25.39.25,1.74.89.78.05-.69-1.53-2.74,0-2.22,1.35.5-.93-1.58-1.22-1.6,1.4-.22.95-1.8,2-.95,1.4-.37,2.16-1.32,2.53.33,2.32-.14,1-1.49,1.37-2.3,1.25,1.68,3.07.2,1.72-1.24-1.15-2.6,2.47,2.35,1.51.12s.43-.69.85-.27c-.27-1.55,1-1.47,1.81-.79,1.24-.47-1.35-1-.12-1.29.93.08.57,2.16,1.31.88.2-1.49,1.63.53,1.83-1,.4.28.46,1.15.71.17-.06-.84.78-2.55-.32-2.27.59-.39,1.72.17,2.48,0,0,.37.32,1.08.4.3-.07-1.62,1.65-1.22,1.73,0,.8.51.68-1.52,1.33,0,.76-.22,1.89-2.25,2.11-.78-1.42,2.41,1.88.39.06-.66.86-.63,1.28.53,1.37,1.18.49.12.86-1.39,1-.3-.49,1,1.36-.27.7.85-1.15.91,1,.43,1.07-.43.63-.51.76,1.75,1.35.37,1,1.37,1.55-1.55,2.86-.9.93.89,1.13-.68.64-1.22,1-.6,0,2.41,1.41,1.14.81-1.37,1.49,1.23,1.67.26-.6-.46-.81-2.24.16-1.27.75.92,1.63-.45,1.6-1.18.63-.34,1.54.68,2.3,0,.34.34,1.17.5.56-.15-1.53-.55.2-1.16.43.17.47.1,1-.34,1.4-.11.23-.91,1.2,1.22.82-.06-1-.47-.19-1.54.35-.47.77,1.1,1.15.14.69-.62.47-.65,1.23-.92,1.8-.38.3-.57-.55-1.93.63-.68,1.48,1.11.3-1.05-.43-1.27.68-.61,3.17.5,2.22-1.3.07-1.57,2.08,0,3.27-.25,1.47,1-.11-1.54,1.61-.43,1.91-1.27.47,1,1.29,1.24.87-1.63,1.2-.78,1.19,0,.7-1.8.79-2.25,1.53-.93,1.09-.23,2.67.35,2.67,1.69,1.92-.21,3.92-4.23,5.62-3.06.18,1-.08,2.3.63,3Z"/>
            <path id="path34" class="cls-3"
                  d="M130.24,200.94c0-.28,1.32.06,1.74.43-.51.76,0,2.17-.14,3.4.1.58-.8.91,0,1.28.24.42.87-.1.41.8-.33,1.3-1,1.35-1.56,2.45-.86.16-.4,1.57-1.48,1.88-.49,1.42,1.08,2.1-.23,3.37-.55.7-1.16,1.59-.47,2.34.47,1,1,1.65.18,2.75a3.29,3.29,0,0,1-.6,2.92c-.93-.75-2.21.11-2.5,1.44-.27.42-1.13,1.76-1.78,2,.59,1.07.72,1.82-.52,1.42-.65.75-1.54,1.39-1.78,2.19-.82.22-1.71,0-.81-.78a11.81,11.81,0,0,0,1.48-2.79c.91-1,.44-2.56.31-3.34.17-1,.5-3.06,1.27-3.24,1.29,1.46,2.25.48,2-1.24-.11-1.41,1.56-2,.58-3,0-.93.47-3.72-1.11-2.87-1,1.16-1-.73-1.12-1.44s-.13-2,.38-1.39c.25-1-.53-1.41-.44-2.7-.18-.59,1.13,0,1.46-.49.42-.14,1-.34,1-.46.37-.38,1.44-.19,1.31-.69a1,1,0,0,1,0-1.32c.72-.45,1,0,1-.87.44-.41.06-1.33.8-1.14.36-.11.24-.65.36-.85-.38-.22.33-.46.28-.06Z"/>
            <path id="path38" class="cls-3"
                  d="M121.17,229.53c0,.89-1,1.39-1.55,2.05-1.35.38-1,2.48-2.19,3.38-.64.31-1.78.71-1.76,1.85.8.88.13,2-.33,2.65,1.54,1.76-1,2.74-1,4.69-1.9.75-2.27,3-3.79,3.69a10.11,10.11,0,0,1-2.18,2.45c-1.39,1.94-3,3.34-4.34,5.37-.43.57-1.41.26-2.16.81.14.65.49,1.13-.12,2,.46.88.51,1.23-.08,2-.79.8-.18,1.89-1.81,1.4-.21,1.7-1.62,2.4-2.21,3.95-.85-.13-.9,1.4-1.89,1.19-.45,1-1.09,1.92-1.47,2.88,1,1.71-1.77,1.86-2.58,2.57-.7,1.09-1,2.36-2.11,3.06-.87,1-.42,2.61-1.94,3-.94.78-.69,2.39-1.83,2.81-.66.52-1.63.27-2.1,1s-2.15.13-2.61,1.24c-.43.81-1.38.54-1.18,1.69-.87.31-1.44,1.33-2.42,1-.53.48-1.23,1.09-1.73.19s-1.58.75-1.63-.52c-.2-.61-.31-1.36-.54-1.87,1.41-.37,1.59-2.55,2.68-2.74a1.34,1.34,0,0,1,1.81.89c1-.07,1-.95,1.38-1.63.42-.51.41-1.08,1-1.41-1-.6-.7-1.81-.75-2.85-2.41-.14,1.73-1.71.3-2.8.73-1.56-1.17-1,.06-2.36.39-.69,1.8-.95,1.74-1.83.48-.47.73-1.18.08-1.38.75-.22-.33-1.34.87-.79.86-.61,1.32-.9,1.21-1.86.63-.75.15-1.34-.36-1.92,0-.28.19-.64.43-.62.42-.16.07-.75.08-1.19a1.41,1.41,0,0,1,0-1.81,2.63,2.63,0,0,0,1-1.8,2.39,2.39,0,0,0,.9-1c.14-.59.11-1.43-.69-1.67-1,.25-.66-1.08-.81-1.58-.28-.85-1.33-.27-1.88-.46-1.21-1.57-4.79-2.08-3.7-4.39-.76-.36-.41-1.18-1.33-1.18.46-1.1-1.72-1.47-.12-1.79.38-.88-.82-1.55-.12-2.23.65.51.84-.6.74-.91.76-.41-.22-1.24.37-1.76-.43-.73-.68-1.21-.19-1.83.91-.31-.18-.63.19-1.37a15.16,15.16,0,0,0,.5-1.87,2.93,2.93,0,0,0,.74-3c.23-.48-.11-.8.43-1,.19-.52,1-.57.44-1.31.25-.9,1.29-1.06,1.4-2.19.23-.89,1.68-1.46,1.25-2.6.49-.81.9-.48,1.26-1.14a13.62,13.62,0,0,0,.56-2.22c.47,0,1.79-1.14,1-1.79.25-1.07,1.14-1,1.59-1.81,0-.82,1.13-1.54,1.07-2.12.15-.94,1.64-1.1,1.34-2,.14-1.11.5-2.73.67-4a3.18,3.18,0,0,0,1.52-2.54c.8-.57,1.39-1.42,2.34-1.48.52-.71-.06-2,1.16-2.5-.09-1.26,0-3.21,1.54-4.2.35-1-1.72-2.36-.13-3.2,1-1.13-1.36-2.07.06-2.9.68-.42,1-1.69,2-.92a1.19,1.19,0,0,0,1.39-.76c.59-.25,1.15-.49,1.66,0,.53.06.63-.17.6-.58a8.05,8.05,0,0,1,.88-1.42,2.3,2.3,0,0,0,.58-1c.3-.14.76-.12.87-.41.46-.21,1.15.12,1.6-.36a1.83,1.83,0,0,1,1.91.08c.63.25.86-.57,1.48-.5s1.13.62,1.69.6c.72.75,1.48-.33,1.84-1.61-.46-.69,1.09,0,.48-1.23,1,0-.51-1.52.85-1,0,.49,1.18.46.27,1.18.84.83,1.4-1.17,1.24-2.14a4.8,4.8,0,0,0,1.63-3.22c.41-1.26,1.47-.91,1.1-2.3a1.65,1.65,0,0,0,.39-1.58c-.19-.2-.39-1.12.33-.65,1,.81,2-.42,3.29-1.7.51.48.46.92.9,1.12-.63.37.48,1.33.81,0,.19-.91.23-1.07,1.14-1.17.08-.53,1.16-.18.78-1,.49-.68.25-1.16,1.22-.36,1,.4,1.78.67,1.91,1.62.05.53,1.67.14,1.47,1.12.28.2.64,1.6,1.25,1.62a2.4,2.4,0,0,1,2.36-.2c.16.43.51.07.21.66.58-.51,1.59-1.28,1.64-.2.89-.46,1.2-2,2.33-1.45.47-.69,1,.6,1.57.87.92,1.62,1.12-1.28,1.19-2,.59-.83.68-1.91-.22-2.27,0-.56,1.4-1.22,1.09-2.3.29-1.06,1.86-1.34,1.77-2.36.32-1.42,1.53-.16,2.35.22.66-.21,1.5,1.54,1.59,2.08a7.08,7.08,0,0,1-1,2.62c-.94-.24-1.1-.12-1.15.78-1.07,1.17.76,1.75.84,2.5,1.58,1,2-1.93,2-2.74.7,1.12,2.15-.34,2.45,1.26,1,.48,2.55-.82,1.22-1.76-.8-.16.28-1-.39-1.47-.16-1.65,1.49-1.67,2.19-.4,1.71.89,1.83-2.13,2.95-1.38,0,1,.63,1.79,1.05.4.89-1.14,1.21-2.36,2.37-3.21.82-.18.75-.76,1.79-.8.24-1.34.93-1.88,2-1.83.58-1.13-.65-2.8.59-3.84a13,13,0,0,1,0-2.65c-.08-.89-1.16-.63-1.28-1.64-2-.09.69-2.43,1.05-.72,1.64.1,1.17,2.73,2.61,3.14,1.12-.22,1.68-1.36,2.78-1.49-.72-.69.19-1.57-.14-2.42a5.33,5.33,0,0,0,1.41-2.16c.15-.85-.45-1.55-.09-2.25-.54-.76.12-1.82.59-2.4,1-.28,2.26.43,3.27-.07.06.9,1.84,1.79,1.06,2.45.19.54.22,1.73-.5,1.93-.49.21-.5.9-.77,1.33-1.66.36-.21,1.11-.16,2-.75-.16-.61.28-.83.69-.31,0-.47.44-.91.25-.4.57-.71,1.35-.27,1.79-.05.73-.9.74-1.06,1.46-.42.07-.19.85-.91.77-.49.62.16,1.69.34,1.92.78-.9,1.27.25,2.08.39,1.51,0-.06,2.21.1,2.33.75-.14.47.79,1,1.18-.67.34,0,1,.14,1.17-.64,1.21,2.23-.2,1,1-1.15.49-.81,1-.27,1.82-.32.95.93,1.81.11,2.71-1.26-.36-2.72-.64-3.28.85.21.31,1.74.39,2.15,1.09.81.33,1.91.37,2.05,1,0,.49.27.64.65.87a6.27,6.27,0,0,0,.86,1.51c1.45.19-.73.57-.62,1.05,0,2.05-1.51,5.45-2.92,2.57-.81-1.35-1.39.15-1.81.83-1,.42-1.13,1.42-1.76,2.1s-2.26,1.21-1.45,1.81c-.5.71-1.92.16-2.17,1.57-.85.81-1.88,1.26-1.85-.14-1.08-.07-1.38-2-2.42-1.65-.62.15-.82.83-1.38.92.12-.66-.79-.46-.37-.2-.47.87-.25,1.6-.54,2.46a23,23,0,0,0-1.83,2.93,5.92,5.92,0,0,0,1.72,1.36c-.13,1.25-1.2,2.1-1.88,3-1.3-1.56-1.6.53-1.86,1.65.6,1.38-1.62,2.41-.21,3.64.63,2.93-1.18,6.69-1.25,9.94-.11,1.08-.68,5.63-1.19,4.58-.85-.73-1.69-1.76-3.33-1.86a4.5,4.5,0,0,0-5.17.46c-.47-.42-2.27-.33-2.08-1.25,0-.89-.93-1.68-.63-2.61-1.22-.77-.42-1.81.15-2.66a1.5,1.5,0,0,0-2.22-.56c-.71.48-1.94.84-2.16,1.67,0,1.13-1.88.46-2,2.05.8,1,.39,2.86,1.7,3.69-1,.72.88,2.32-.87,1.76-1-.46-.89.31-1.37.7-1-.39-1.89,1.19-2.69.64-.31.95-.8,1.72-1.47,1.08-.73-.24-1.2.72-1.36,1.15-.91-.28-1.22,1.39-2.17,1.53-1.38.38.37-1.61,0-2.41s1.09-2.17-.2-2.81c-.38-.83-.67-1.59,0-2.4.89-1,1.17-2.09.4-3,.1-1.33,1.41-1.54,1.4-2.74.85-.39,1.17-1.26,1.57-1.91.49-.93.43-1.1-.18-1.26-.18-.35-1-.6.09-.91a20.75,20.75,0,0,1-.09-3.43c.77-.73-1.57-1-1.5-.92-.38-.22-.37.33-.47.46.18.68-.35.25-.68.73-.1,0-.3,1.23-.58,1.54-.11,0-.76,0-1,.49a1.84,1.84,0,0,0,.23,1.25c-.39.41-1.26.32-1.41.57-.28.49-1.23.36-1.93.75-.7-.64-.49,1.62,0,1.7-.08.16.34,1.76-.27.92-.24,1.44-.11,3.16.62,3.5,1.69-1.93,1.81,1.76,1.58,2.77.82.94-1.17,1.84-.74,3.38.55,2.33-1.67.8-2.23.57-.64,1.52-1.43,3.18-.71,4.56a11.16,11.16,0,0,1-1.6,4.11c-.11,0-1.92,2.3,0,1.39Z"/>
        </g>
    </g>
</svg>