<svg xmlns="http://www.w3.org/2000/svg" viewBox="0 0 378.42 323.06">
    <defs>
        <style>
            .cls-1{fill:#276e7b;}.cls-1,.cls-2,.cls-3{stroke:#1c303a;stroke-linecap:round;stroke-linejoin:round;stroke-width:0.75px;fill-rule:evenodd;}.cls-2{fill:#d06c60;}.cls-3{fill:#85a6a5;}.cls-4{opacity:0.75;}
        </style>
    </defs>
    <g id="Layer_2" data-name="Layer 2">
        <g id="puntos_click2_europa" data-name="puntos click2_europa">
            <g id="mapa">
                <path id="AL" class="cls-3"
                      d="M230.71,257.27l.61,1.82,2.12-.91,1.83,2.58,2,1.06.91,3.49-.76,3.34,1.52,4.09L242.4,275l.15,2.58L240,279l-.15,3.18-3.34,4.71-1.37-.61-.3-2.13-4.7-3.33L229,276.23l.16-6.67.75-2.89-1.36-1.51-.76-3.19,2.88-4.7Z"/>
                <path id="AT" class="cls-3"
                      d="M204.31,200.82l-.46,1.21,1.07,3.19-.31,3.94h-4.25l1.67,2.13-2,6.07L198.69,219l-6.67.15-3.65,2.27-6.37-.76-11.08-2.58-2-3.18-7.43,1.67-.76,1.82-4.71-1.37-3.94-.3-3.49-1.82,1.06-2.28-.3-1.67,2.12-.45,4.1,2.58.91-2.58,6.67.45,5.32-1.67,3.64.31,2.58,2,.6-1.67-1.51-6.22,2.58-1.22,2.42-4.4,5.77,3.19,3.95-3.94,2.58-.76,6.07,2.88,3.49-.46,3.64,1.83Z"/>
                <path id="BE" class="cls-3"
                      d="M122.21,180l-.6,6.37-2,.3L119,192l-6.68-4.4-3.79.76-5.31-4.4-3.65-3.79L96.27,180l-1.22-3.34,5.92-1.82,5.46.76,6.83-2,4.7,4.1,4.25,2.28Z"/>
                <path id="BG" class="cls-3"
                      d="M298.39,247.55l-3.49,3.95-2,6.83,3.19,5.46-7-1.21-7.58,3,.45,4.86-7,.91-5.92-3.49L263,270.62l-5.76-.3-1.22-6.38-4.24-3.18,1.06-1.22-.91-1.21.91-3,2.73-3-4.25-4.1-1.06-3.64,1.67-2.13,2.73,4,2.88-.61,6.07,1.37,11.53.61,3.49-2.43,9-2.28,6.07,3.49,4.7,1.06Z"/>
                <path id="BA" class="cls-3"
                      d="M223.13,236.48l2.88-.16-1.67,4.25,4.1,3.8-.76,4.4-1.67.45-1.37.91-2.43,2.28-.6,5.31-7.29-3.64-3.18-4.1L208,247.86l-3.79-3.64-2-2.89-4.09-4.55,1.21-3.95,3,2.28,1.51-2.12,3.49-.16,6.83,1.67,5.31-.15,3.65,2.13Z"/>
                <path id="BY" class="cls-3"
                      d="M312.05,158.17l-5.92-.3-1.21.91,2.27,3,3,6.07-6.22.45-2,2.13.46,4.7-3.19-.91-6.52.46-2.28-2.28-2.58,1.67L285,172.74l-5.92-.15-8.65-2.28-7.44-.75-5.76.3-3.64,2.43-3.49.45-.76-4.25-2.89-4.25,4.25-2-.6-3.64-2.58-3.49-.91-4.1h7.13l7.28-3.49.76-5.16,5.46-3-1.51-4.1,4.09-1.52,7-3.49,8.05,2.28,1.36,2.28,3.64-1.07,7.29,2.13,1.67,4.4-1.07,2.43,5.77,6.07,3.19,1.67v1.66l5.16,1.67,2.58,2.43-2.43,2Z"/>
                <path id="CH" class="cls-3"
                      d="M149.38,211l.3,1.67-1.06,2.28,3.49,1.82,3.94.3-.45,3.8-3.19,1.67-5.76-1.22-1.52,3.8-3.64.3-1.37-1.52-4.1,3.34-3.79.45-3.34-2.12-2.73-4.1L122.52,223v-4.4l5.46-5.31-.3-2.43,3.49.91,2-1.67h6.37l1.52-2,8.35,2.88Z"/>
                <path id="CZ" class="cls-3"
                      d="M187.77,177.14l3.79,3,5.62.76-.31,2.58,4.25,2,.91-2.43,5.16,1.06,1.06,3,5.62.45,3.94,4.71h-2.27L214.48,194l-1.67.45-.31,2.13-1.36.45-.15.91-2.43.91-3.34-.15-.91,2.13L200.67,199l-3.49.46-6.07-2.88-2.58.76-3.95,3.94-5.76-3.19-4.56-3.94-3.94-2.28-1.06-4.09L167.74,185l5.16-2,2.58-2.43,5.31-1.82,1.67-1.82,2,1.06,3.34-.91Z"/>
                <path id="DE" class="cls-3"
                      d="M179,152.41l2.12,4.7-1.82,2.58,2.88,3.19,2.28,5-.3,3.33,3.64,5.92-3.34.91-2-1.06-1.67,1.82-5.31,1.82-2.58,2.43-5.16,2,1.52,2.74,1.06,4.09,3.94,2.28,4.56,3.94-2.43,4.4-2.58,1.22,1.52,6.22-.61,1.67-2.58-2-3.64-.31L163.19,211l-6.68-.45-.91,2.58-4.1-2.58-2.12.45L141,208.1l-1.52,2h-6.37l.61-6.83,3.64-6.37-10.93-1.82-3.64-2.43.3-4.1-1.51-2.12.6-6.37-1.66-9.87H125l1.82-3.49,1.36-8.5L126.77,155l1.21-2,6.07-.46,1.52,2,4.7-4.55-2-3.49-.61-5.16,5.62,1.21,4.4-1.36.45,3.49,7.44,2.12.15,3.34,7.13-1.82,4-2.43,8.5,3.65,3.64,2.88Z"/>
                <path class="cls-3" d="M167.13,135.41l-3.64,7.44-7.89-5.31-1.37-3.8,10.32-3Z"/>
                <path class="cls-3"
                      d="M147.71,141.18l-4.4,1.36-5.62-1.21-3.18-5.16-.61-9.26.91-2.57,2-2.74,6.07-.45,2.43-2.58,5.46-2.58v4.7l-1.82,3,1.06,2.43,4,1.36L152.41,131l-2.12-.91-4.71,6.53Z"/>
                <path id="EE" class="cls-3"
                      d="M269.71,100.36l1.37,1.52L267.13,107l3.64,8.49-2.42,2.89-5.77-.15-6.68-3.34-3.18-1.07L247,115.38l-.15-5.31-2.28,1.22-5-3.19L238,102.94l8.34-2.58,8.5-1.21,7.74,1.36,7.13-.15Z"/>
                <path id="FI" class="cls-3"
                      d="M255.14,17.66l.61,5.76L266.83,29l-4.4,6.37L272.29,45l-2.58,7.29,7.44,6.37-1.37,5.77L287,70.31l-1.36,4.4-5.16,5.16L268.35,91.1l-12.14.76-11.54,3.19L233.9,97,229,92.16l-7.13-2.88.15-8.8-4.55-7.89,2.43-5.16,5-5.31,13.35-9.41,3.95-1.82-1.37-3.64-9.86-4L228.28,40l-2.73-12.89-10.92-5.62-9.11-4.1,3.34-2.12,7.74,4.25,8-.31,7.14,2,5.15-3.64,1.67-6.07,9-2.74,8.8,3.19-1.22,5.77Z"/>
                <path class="cls-3" d="M31.47,151.35l-5.31-1.82-4.55.15,1.82-5-1.37-4.86,6.07-.45,7.44,5.76Z"/>
                <path class="cls-3"
                      d="M55.6,107.79l-7.74,9.87L55,116.44h7.74l-2,7.44-6.53,8.19,7.44.46.45,1.06,6.38,10.78,4.85,1.51,4.4,10.63,2.13,3.64,9,1.67-.91,6.07-3.64,2.73,2.88,4.85-6.68,4.86-9.86-.15-12.75,2.73-3.34-2-5,4.4-6.83-1.06-5.46,3.64-3.8-1.82,11.08-9.87,6.68-2.12-11.54-1.52-2-3.79,7.74-2.89-3.79-5,1.51-6.07,10.78.91,1.21-5.47-4.7-5.61-.15-.15-8.65-1.67L40,140.42l2.73-4.1-2.28-2.58-3.94,4.4-.15-8.95L33,124.64l2.88-9.41L41.64,108l5.46.6Z"/>
                <path class="cls-3"
                      d="M282.15,275.32l-4.85-.3-4.1-.91-9.41,2.43,6.07,5.46-3.79,1.67h-4.4l-4.71-5-1.36,2.13,2.43,5.76,4.4,4.55-2.89,2.13,4.86,4.4,4.25,2.88.61,5.47-7.59-2.58,2.73,5-5,.91,3.8,8.65-5.31.16-7-4.25-3.65-7.74-2-6.53-3.49-4.4-4.55-5.61-.76-2.73,3.34-4.71L240,279l2.58-1.37L242.4,275l5.16-.76,2.73-2.12,4.25.15,1.21-1.67,1.52-.3,5.76.3,6.07-2.73,5.92,3.49,7-.91-.45-4.86,4.09,2.58L284,274.26Z"/>
                <path id="HR" class="cls-3"
                      d="M220.85,226.31l2.28,3.79,2.57,2.73-2.57,3.65-3.65-2.13-5.31.15-6.83-1.67-3.49.16-1.51,2.12-3-2.28-1.21,3.95,4.09,4.55,2,2.89,3.79,3.64,3.19,2.12,3.18,4.1,7.29,3.64-.76,1.52-7.59-3.49-4.85-3.49-7.29-2.89-7.13-7,1.52-.75-3.8-4.1-.45-3.19-5-1.52-2.12,4.1-2.43-3.19v-3.33l.15-.16,5.46.31,1.22-1.52,2.73,1.52,3,.15-.15-2.58,2.58-1.06.46-3.8,5.91-2.58,2.43,1.22,6.07,4.1,6.53,1.82,2.73-1.52Z"/>
                <path id="HU" class="cls-3"
                      d="M243.16,202.48l4.55,2.58.76,2.58-4.4,2L241.18,216l-3.94,6.53-5.92,1.82-4.86-.46-5.61,2.43-2.73,1.52L211.59,226l-6.07-4.1-2.43-1.22-1.82-3.18-1.21-.15,2-6.07-1.67-2.13h4.25l.31-3.94L209,207.8l2.89.91,6.22-1.07.45-2,2.89-.3L225,204l.91.61,3.49-1.21,1.51-2.28,2.43-.61,8.35,2.89,1.52-.92Z"/>
                <path id="IE" class="cls-3"
                      d="M31.47,151.35,32.53,158l-5.92,8.35-13.35,5.46L2.94,170.47l6.53-9.72-3.19-9.4,10.17-7.29,5.61-4.25,1.37,4.86-1.82,5,4.55-.15,5.31,1.82Z"/>
                <path class="cls-3"
                      d="M200.67,300.36l-2.58,7.74,1.36,2.88-1.36,5-6.38-3.64-4.09-1.06-11.38-4.86.75-5,9.41.91,8.2-1.06Z"/>
                <path class="cls-3"
                      d="M149.07,271.53l5,6.83-.61,12.9-3.64-.61-3.18,3.19-3-2.58-.76-11.69-2-5.46,4.4.45Z"/>
                <path class="cls-3"
                      d="M182,220.69l-.6,4.71,2.12,4.1L177.3,228l-5.92,3.49.61,4.7-.76,2.73,2.88,4.86,7.59,4.86,4.4,8,9.26,7.74,6.07-.15,2.12,2.12-2.12,2,7.28,3.49,6.07,2.89,7.13,5.16.91,1.66L221.61,285l-4.71-4.55-7-1.51L207,285.19l5.92,3.64-.61,5-3.19.6-3.79,8.35-3.34.76-.15-3,1.37-5.16,1.67-2.12-3.49-5.62-2.74-4.85-3.33-1.22-2.74-4.09-5.16-1.82-3.64-3.95-5.76-.61-6.53-4.24-7.43-6.38L158.48,255l-2.88-9.56-3.95-1.06-6.37-3.19-3.49,1.21-4.4,4.56-3.19.6.76-4.09-4.25-1.22-2.27-7.43,2.58-2.89-2.28-3.64.15-2.73,3.34,2.12,3.79-.45,4.1-3.34,1.37,1.52,3.64-.3,1.52-3.8,5.76,1.22,3.19-1.67.45-3.8,4.71,1.37.76-1.82,7.43-1.67,2,3.18Z"/>
                <path id="LT" class="cls-3"
                      d="M265.77,135.26l1.51,4.1-5.46,3-.76,5.16L253.78,151h-7.13l-2.13-2.88-3.79-1.06-.91-2.28.3-2.58-3.34-1.36L229,139.21l-2.58-7.74,7.74-2.73,12,.6,6.83-.91,1.37,1.82,3.79.61,7.59,4.4Z"/>
                <path id="LU" class="cls-3" d="M122.82,192.62l-2.12.15L119,192l.6-5.31,2-.3,1.51,2.12Z"/>
                <path id="LV" class="cls-3"
                      d="M268.35,118.42l3.79,2,1.52,4.4,3.18,5.46-7,3.49-4.09,1.52-7.59-4.4-3.79-.61L253,128.43l-6.83.91-12-.6-7.74,2.73-.75-6.83,2.57-5.77,6.23-3,6.67,6.83,5.62-.31.15-7,5.77-1.52,3.18,1.07,6.68,3.34,5.77.15Z"/>
                <path id="MD" class="cls-3"
                      d="M293.54,230.41l-2-4.4.31-4.1-.91-4.1L285.8,212l-3-3.94L280,205.37l-2.43-1.06,1.67-1.37,4.86-.91,6.07,2.88,3,.46,3.95,2.58-.15,3.18,3,1.52,1.67,3.95,3,2.43-.3,1.51,1.52.91-2,.76-4.56-.3-.91-1.37-1.51.76.91,1.67-1.67,3.19-.91,3.18-1.82,1.07Z"/>
                <path id="MK" class="cls-3"
                      d="M257.27,270.32l-1.52.3-1.21,1.67-4.25-.15-2.73,2.12-5.16.76-3.49-2.28-1.52-4.09.76-3.34,1.06.15.15-2,4.4-1.52,1.82-.46,2.58-.45,3.64-.3,4.25,3.18,1.22,6.38Z"/>
                <path id="ME" class="cls-3"
                      d="M234.66,256.05l-1.22,2.13-2.12.91-.61-1.82-2.88,4.7.76,3.19-1.67-.76-2.58-3.19-3.49-2,.76-1.52.6-5.31,2.43-2.28,1.37-.91,2.12,1.67,1.37,1.37,2.58,1.06,3.18,2-.6.76Z"/>
                <path class="cls-3"
                      d="M269.71,13.71,260,16.9l-4.86.76,1.22-5.77-8.8-3.19-9,2.74-1.67,6.07-5.16,3.64-7.13-2-8,.31-7.74-4.25-3.34,2.12-3.94.31.15,5.46-12.14-1.37-.91,4.71h-6.07l-3.49,5.92L174,41.63l-8.65,12,2.73,3-2,3.33-6.53-.15L155.9,68l1.52,11.68,4.7,4.4-1.21,10.47-5.16,6.07L153,105.82l-5-5.46-13,10.32-9.26,2.12-9.86-4.55-2.73-9.56-3-20.49,6.07-5.61,17.15-7.44,12.29-9,10.93-11.84L170,28.13l9.72-6.22,15.63-10.32L208.25,8l10.17.45,7.89-6.68L237.54,2,248.16.51,269,6.43l-7.43,2.12Z"/>
                <path id="PL" class="cls-3"
                      d="M218.42,146.19l9,1.06,13.36-.15,3.79,1.06,2.13,2.88.91,4.1,2.58,3.49.6,3.64-4.25,2,2.89,4.25.76,4.25,4.85,8.2-.45,2.58-3.49,1.06-5.77,7.89,2.43,4.25-1.67-.61-7.59-3.64-5.31,1.37-3.64-.92-4.25,2-4.1-3.34-2.88,1.36-.46-.6-3.94-4.71-5.62-.45-1.06-3L202,183.06l-.91,2.43-4.25-2,.31-2.58-5.62-.76-3.79-3-3.64-5.92.3-3.33-2.28-5-2.88-3.19,1.82-2.58-2.12-4.7,4.7-2.73,10.77-4.25,8.81-3,7.28,1.52.91,2.28Z"/>
                <path id="RO" class="cls-3"
                      d="M277.6,204.31l2.43,1.06,2.73,2.73,3,3.94,5.16,5.77.91,4.1-.31,4.1,2,4.4,3.64,1.82,3.49-1.67,3.64,1.67.61,2.58-3.49,2-2.43-.91-.61,11.68-4.7-1.06L287.62,243l-9,2.28-3.49,2.43-11.53-.61-6.07-1.37-2.88.61-2.73-4-1.52-1.67,1.52-1.66L250,238l-2.27,2.13L243,237.23l-1.06-3.94-4.85-2.13L235.87,228l-4.55-3.64,5.92-1.82,3.94-6.53,2.89-6.37,4.4-2,3-2.12,4.86,1.06h4.85L265,209l2.43-1.52,5.46-.91,1.52-2.27Z"/>
                <path id="RS" class="cls-3"
                      d="M252,242.39l-1.67,2.13,1.06,3.64,4.25,4.1-2.73,3-.91,3,.91,1.21-1.06,1.22-3.65.3-2.58.45-.45-.75.91-1.07.61-2.42-1.07.15-1.67-1.82-1.36-.46-1.22-1.52-1.51-.6-1.22-1.37-1.36.61-.76,3.18-1.82.61.61-.76-3.19-2-2.58-1.06-1.37-1.37L226,249.22l1.67-.45.76-4.4-4.1-3.8,1.67-4.25-2.88.16,2.57-3.65-2.57-2.73-2.28-3.79,5.61-2.43,4.86.46,4.55,3.64,1.22,3.18,4.85,2.13,1.06,3.94,4.71,2.89L250,238l2,1.07-1.52,1.66,1.52,1.67Z"/>
                <path id="SK" class="cls-3"
                      d="M246,196.11l-1.82,2.58-1.06,3.79-1.52.92-8.35-2.89-2.43.61-1.51,2.28-3.49,1.21L225,204l-3.49,1.37-2.89.3-.45,2-6.22,1.07L209,207.8l-4.09-2.58L203.85,202l.46-1.21.91-2.13,3.34.15,2.43-.91.15-.91,1.36-.45.31-2.13,1.67-.45,1.06-1.67h2.27l.46.6,2.88-1.36,4.1,3.34,4.25-2,3.64.92,5.31-1.37,7.59,3.64Z"/>
                <path id="SI" class="cls-3"
                      d="M203.09,220.69l-5.91,2.58-.46,3.8-2.58,1.06.15,2.58-3-.15L188.53,229l-1.22,1.52-5.46-.31,1.67-.75-2.13-4.1.61-4.71,6.38.76,3.64-2.27,6.67-.15,1.37-1.67,1.21.15,1.82,3.18Z"/>
                <path id="SE" class="cls-3"
                      d="M231,43.3l-10.63,2.43-5.31,5.92,2,5.31-9.41,6.83-11.84,7.59-3.19,12.29,5.62,6.22,7.28,5-5,10-7,2.13-.91,15.17-3.18,8.65-8.65-.91-3.34,7.28-8.35.46L166.22,129l-6.83-10.47L153,105.82l2.73-5.16,5.16-6.07,1.21-10.47-4.7-4.4L155.9,68l3.64-8.2,6.53.15,2-3.33-2.73-3,8.65-12,5.16-9.25,3.49-5.92h6.07l.91-4.71,12.14,1.37-.15-5.46,3.94-.31,9.11,4.1,10.92,5.62L228.29,40,231,43.3Z"/>
                <path class="cls-3"
                      d="M282.15,275.32l1.83-1.06,1.66-6.07-4.09-2.58,7.59-3,7,1.21,1.36,3.79,7.29,3-1.07,2.43-9.41.45-3,3-5.92,5.16-3-4.4Z"/>
                <path id="UA" class="cls-3"
                      d="M335.72,176.23l3.49,4.1.15,1.82,10.17,3.34L355,184l5.47,4.4,4.4-.15,11.68,3,.61,2.88-2,4.85,2.73,5.32-.46,3.18-7.28.61-3.34,2.73.61,4.1-5.92.76L357,218.87l-7,.46L343.92,223l1.51,5.92,4.25,2.27,7.74-.6-.91,3.49-8.19,1.67-9.56,5.46-4.71-2,1.06-4.4-8.95-2.89,1.06-1.82,7-3.18-2.58-2.13-12.29-2.43-1.21-3.64-6.83,1.22-2,5.31-5,7-3.64-1.67-3.49,1.67-3.64-1.82,1.82-1.07.91-3.18,1.67-3.19L297,221.3l1.51-.76.91,1.37,4.56.3,2-.76-1.52-.91.3-1.51-3-2.43-1.67-3.95-3-1.52.15-3.18-3.95-2.58-3-.46L284.13,202l-4.86.91-1.67,1.37h-3.18l-1.52,2.27-5.47.91L265,209l-3.8-2.43h-4.85l-4.86-1.06-3,2.12-.76-2.58-4.55-2.58,1.06-3.79,1.82-2.58,1.67.61-2.43-4.25,5.77-7.89,3.49-1.06.45-2.58-4.85-8.2,3.49-.45,3.64-2.43,5.76-.3,7.44.75,8.65,2.28,5.92.15,2.88,1.37,2.58-1.67,2.28,2.28,6.52-.46,3.19.91-.46-4.7,2-2.13,6.22-.45,2.73.3,1.52-2.12,2.27.45,7.44-.91,5.76,5.31-1.36,2,1.21,2.89,5.92.45Z"/>
                <path id="XK" class="cls-3"
                      d="M245.58,261.51l-1.82.46-4.4,1.52-.15,2-1.06-.15-.91-3.49-2-1.06-1.83-2.58,1.22-2.13,1.82-.61.76-3.18,1.36-.61,1.22,1.37,1.52.6,1.21,1.52,1.37.46,1.66,1.82,1.07-.15-.61,2.42-.91,1.07.45.75Z"/>
                <path id="NL" class="cls-3"
                      d="M122.21,180,118,177.75l-4.7-4.1-6.83,2-5.46-.76,3.79-2.58,6.07-13.66,9.87-3.95,6.07.31,1.36,3.18-1.36,8.5L125,170.16h-4.41l1.67,9.87Z"/>
                <path id="PT" class="cls-3"
                      d="M16.6,311.44l-3.34,2.43L9,312.5l-4.1,1.06L6.28,306l-.46-5.92-3.64-.91L.51,295.51l.76-6.38,3.34-3.49.76-3.94,1.82-5.77v-4.1l-1.37-3.49L5.52,265l2.88-2.42,3.34-1.37,1.82,4.7h4.56l1.36-1.21,4.71.3,2,4.86-3.64,2.58L22.06,280l-1.21,1.36-.46,4.71-3.49.76,3,5.76L17.51,299l2.73,2.88L19,304.46l-3,3.64.61,3.34Z"/>
                <path class="cls-3" d="M240.73,147.1l-13.36.15-9-1.06,1.06-3.95,9.56-3,7.74,1.67,3.34,1.36-.3,2.58Z"/>
                <path id="ES" class="cls-3"
                      d="M61.67,250.28l3,3.65,14.42,4.4L82,256.2l8.8,4.4,9-1.21.6,5.61-7.43,6.38-10,2.12-.76,3.19L77.3,282l-3,7.89,3,5.62-4.56,4.24-1.82,6.38-6.07,2-5.61,7.44-10.32.15-7.59-.15-5.16,3.33L33,322.52l-4-.76-2.88-3.34L24,313l-7.43-1.52L16,308.1l3-3.64,1.21-2.58L17.51,299l2.43-6.38-3-5.76,3.49-.76.46-4.71L22.06,280l.46-7.59,3.64-2.58-2-4.86-4.71-.3-1.36,1.21H13.56l-1.82-4.7L8.4,262.58,5.52,265l.76-6.82-3-4.1,11.23-7,9.41,1.67H34.35l8.2,1.67,6.52-.61,12.6.45Z"/>
                <path class="cls-3" d="M151.35,262.42l-2.28,7.44-3.64-2-2-6.38,1.36-3.64,4.86-3.64Z"/>
                <path class="cls-3"
                      d="M119,192l1.67.76,2.12-.15,3.64,2.43,10.93,1.82-3.64,6.37-.61,6.83-2,1.67-3.49-.91.3,2.43-5.46,5.31V223l3.64-1.52,2.73,4.1-.15,2.73,2.28,3.64-2.58,2.89,2.27,7.43,4.25,1.22-.76,4.09L127.37,253l-15.47-2.58-11.23,3.18-.91,5.77-9,1.21L82,256.2l-2.88,2.13-14.42-4.4-3-3.65,4.09-5.76,1.52-19.12-7.74-10-5.61-4.85L42.4,206.89l-.61-7,9.86-2,12.6,2.43L62,189.59l7.13,4.09,17.3-7.28,2.28-7.74,6.37-2L96.27,180l3.33.15,3.65,3.79,5.31,4.4,3.79-.76Z"/>
            </g>
        </g>
    </g>
</svg>