<svg xmlns="http://www.w3.org/2000/svg" viewBox="0 0 395.49 318.24">
    <defs>
        <style>
            .cls-1{fill:#7da8b0;}.cls-1,.cls-2,.cls-3{stroke:#1c303a;stroke-linecap:round;stroke-linejoin:round;stroke-width:0.25px;}.cls-2{fill:#d06c60;}.cls-3{fill:#276e7b;}
        </style>
    </defs>
    <g id="Layer_2" data-name="Layer 2">
        <g id="puntos_click2_mundo" data-name="puntos click2_mundo">
            <g id="mapa">
                <path class="cls-1"
                      d="M341.88,212.49l.23.75-.26,1.15.33,1.11-.33.9.14.81-4.35,0-.29,7.62,1.33,1.94,1.34,1.48-3.86,1-5-.33-1.41-1.12-8.44.07-.3.19-1.23-1.08-1.34-.07-1.26.41-1,.44-.19-1.48.33-2.12.75-2.2.11-1,.71-2.16.52-1,1.22-1.56.71-1.08.22-1.75-.11-1.37-.59-.86-.56-1.45-.48-1.41.11-.52.63-.93-.59-2.31-.45-1.6-1-1.52.22-.45.86-.33.63,0,.74-.26,6.21,0,.49,1.75.59,1.45.49.78.78,1.23,1.41-.19.67-.33,1.15.33.34-.59.55-1.38,1.31-.11L334,203h1.08l-.19.86,2.53,0,0,1.52.41.9-.34,1.45.15,1.48.67.9-.15,2.82.52-.22.89.07,1.31-.37Z"/>
                <path class="cls-1" d="M317.37,200.22l-.55-1.79.85-1,.63-.41.78.82-.74.52-.37.6-.08,1Z"/>
                <path id="AL" class="cls-1"
                      d="M329.53,84.55l.15.45.52-.23.45.64.48.26.23.85-.19.82.37,1,.86.56,0,.63-.64.34,0,.78L331,91.8l-.34-.15-.07-.52-1.15-.81-.26-1.12,0-1.64.19-.7-.34-.38-.18-.78.7-1.15Z"/>
                <path class="cls-1"
                      d="M173.74,316.52l-1.12-.08h-1.86l-2.23-5.05,1.15,1,1.6,1.71,2.9,1.37,2.72.56-.3,1.12-1.64.11Z"/>
                <path class="cls-1"
                      d="M162.39,239.53l4.21,3.87,1.71.37,2.71,1.79,2.2.93.41,1-1.57,3.64,2.16.63,2.34.38,1.57-.38,1.6-1.86.11-2.08,1-.48,1.19,1.41.15,1.9-1.56,1.3-1.23,1-2,2.34-2.23,3.24-.19,1.93-.14,2.45.44,2.38-.33.52.15,1.53.11,1.26,2.9,2.05.07,1.64,1.45,1,.12,1.15-1.23,3.05-2.61,1.3-3.79.49-2.23-.26.78,1.45,0,1.74.67,1.19-.93.86-1.9.33-2.08-.89-.56.63.93,2.35,1.49.7.85-.74.93,1.23-1.56.74-1.08,1.49.45,2.34,0,1.27h-1.78L165,295l0,1.78,2.41,1.71,1.94.45.07,2.12-1.71,1.3-.22,2.72-1.3.89-.34,1.08,1.56,2.41,1.72,1.31-.79-.12-1.82-.37-4.5-.3-1.3-1.33-.71-1.72-1.15.15-1-.85-1.15-2.42,1-1,0-1.45-.67-1.19.26-2L157,295l-.67-1.37.67-.45-.52-.89-1-.45.3-1-1.15-.89-1.38-2.72.63-.48-1.22-2.9-.3-2.42-.08-2.12.93-.86-1.22-2.34-.6-2.16,1.12-1.56-.52-2,.59-2.3-.52-2.2-.6-.44-1.82-4.13.78-2.46-.63-2.3.34-2.2,1-2.23,1.23-1.49-.74-.93.29-.78-.59-4,2.08-1.15.45-2.49-.34-.6,1.49-2.15,2.79.59,1.38,1.71.59-1.93L162,239Z"/>
                <path id="AM" class="cls-1"
                      d="M382.65,93.85l-.67.07-1.05-1.37-.07-.37H380l-.7-.64-.37,0-.9-.67-1.56-.59,0-1.16-.48-.82,2.6-.37.52.6.82.41-.26.59,1.19.82-.41.78,1,.63.93.38.34,1.67Z"/>
                <path id="AT" class="cls-1"
                      d="M323.06,70.72,323,71l.26.78-.07,1h-1l.41.52L322,74.77l-.33.41-1.64,0-.89.55-1.56-.18L314.88,75l-.48-.79-1.82.41-.19.45-1.15-.33-1-.08-.86-.45.26-.55-.07-.41.52-.11,1,.63.23-.63,1.63.11,1.31-.41.89.07.63.49L316,73l-.37-1.53.63-.3.59-1.07,1.42.78,1-1,.63-.19,1.49.71.85-.11.89.45Z"/>
                <path class="cls-1" d="M382,93.92l-1.42-.33-1.19-1.08-.44-.93.37,0,.7.64h.86l.07.37Z"/>
                <path class="cls-1"
                      d="M384.32,87.6l.93-1,1.3,1.23,1.34,1.71.93.11.71.64L388,90.5l0,1.86-.15.82-.63.56.3,1.15L387,95l-1.45-1.27.45-1.15-.71-.71-.7.19-2,1.75-.34-1.67-.93-.38-1-.63.41-.78-1.19-.82.26-.59-.82-.41-.52-.6.41-.41,1.57.71,1.07.11.23-.26-1.23-1.3.45-.3.55.08L383.2,88l.9.19Z"/>
                <path id="BI" class="cls-1"
                      d="M354.42,197l-.23,0V197l-.74-2.27v0l0-.38-.52-1.08,1.3.18.64-1.37,1.15.15.11.93.45.56v.78l-.52.48-.86,1.26-.74.86Z"/>
                <path id="BE" class="cls-2"
                      d="M302.94,65.62l-.15,1.56-.48.08-.15,1.3-1.63-1.08-.93.19-1.31-1.08-.89-.93-.82,0-.29-.82,1.45-.44,1.33.18,1.68-.48,1.15,1,1,.56Z"/>
                <path id="BJ" class="cls-1"
                      d="M299.3,158.56l-.08.78.49,1.42-.41,1,.22.64-1,1.48-.63.75-.41,1.49.07,1.52-.11,3.83-1.75.3-.52-1.64.11-5.5-.44-.49-.08-1.19-.74-.81-.63-.71.26-1.26.74-.27.41-1,1-.22.45-.71.7-.7h.75l1.6,1.37Z"/>
                <path id="BF" class="cls-1"
                      d="M292.53,150.75l-.19,1.16.3,1.07,1.15,1.57.08,1.15,2.42.56,0,1.63-.45.71-1,.22-.41,1-.74.27-1.83,0-1-.19-.67.37-.93-.18-3.65.11-.07,1.38.3,1.78-1.45-.59-1,.07-.74.6-.93-.49-.38-.82-.93-.52-.14-1.37.59-1-.07-.82,1.67-2,.33-1.63.56-.6,1,.34.89-.49.3-.63,1.6-1,.41-.74,2-1,1.15-.33.52.44Z"/>
                <path id="BG" class="cls-1"
                      d="M346.12,82.17l-.85,1-.49,1.67.78,1.34-1.71-.3L342,86.6l.12,1.19-1.72.22-1.45-.86-1.48.67L336,87.75l-.29-1.56-1.05-.78.26-.3-.22-.3.22-.74.67-.75-1-1-.26-.89.41-.52.67,1,.71-.15,1.49.34,2.82.15.86-.6,2.19-.56,1.49.86,1.15.26Z"/>
                <path id="BA" class="cls-1"
                      d="M327.68,79.46l.7,0-.41,1,1,.93-.19,1.08-.41.11-.33.22-.6.56-.15,1.3-1.78-.89-.78-1-.78-.52-.93-.9-.49-.7-1-1.12.3-1,.74.56.37-.52.86,0,1.67.41,1.3,0,.9.53Z"/>
                <path id="BY" class="cls-1"
                      d="M349.47,60.26,348,60.19l-.3.22.56.75.74,1.48-1.52.12-.48.52.11,1.15-.78-.22-1.6.11-.56-.56-.63.41-.71-.34-1.45,0-2.12-.56-1.82-.19-1.42.08-.89.59-.85.11-.19-1-.71-1,1-.48-.14-.89-.64-.86-.22-1h1.75l1.78-.86.19-1.26,1.34-.75-.37-1,1-.37,1.71-.86,2,.56.34.56.89-.26,1.78.52.41,1.08-.26.59L347.39,58l.78.41v.41l1.26.41.63.59-.59.48Z"/>
                <path id="BZ" class="cls-1"
                      d="M106.31,148.45h-.63l.48-2.68.26-1.9,0-.37.26-.11.33.3.93-1.45.41,0,0,.37h.38l-.12.67-.48,1,.15.38-.34.85.12.22-.38,1.23-.48.63-.41.08-.48.82Z"/>
                <path id="BO" class="cls-1"
                      d="M171.28,234.58l-.11-.74-2-1.23-1.93,0-3.57.7-.78,2.08.07,1.31-.56,2.86L162,239l-2.38-.11-.59,1.93-1.38-1.71-2.79-.59-1.49,2.15-1.45.34-1.15-3.31L149.41,235l.41-2.31-1.19-1-.44-1.71L147,228.37l1.07-2.56-1.07-2,.41-.82-.45-.89.71-1.19-.12-2v-1.71l.41-.78-2-3.87,1.56.22,1.08-.07L149,212l1.78-1,1.08-.89,2.72-.41-.15,1.79.33.93-.11,1.6,2.42,2.12,2.38.41.85.89,1.45.48.93.67H164l1.26.71.19,1.37.44.71.11,1-.63,0,1,2.79,4,.11-.18,1.38.29.93,1.19.67.64,1.49-.23,1.89-.48,1,.3,1.34-.6.52Z"/>
                <path id="BR" class="cls-1"
                      d="M172.51,181.85l1.15.22.23-.52-.38-.45.23-.71.85.23,1-.26,1.19.52.93.48.63-.63.48.07.3.67,1-.15.82-.93.67-1.74,1.27-2.2.74-.11.48,1.34,1.12,4.17,1.15.4,0,1.64-1.6,2,.63.71,3.76.37.07,2.42,1.6-1.56,2.64.85,3.54,1.45,1,1.38-.34,1.34,2.46-.75,4.09,1.27,3.16-.08,3.12,2,2.76,2.68,1.63.67,1.79.11.78.75.74,3.05.41,1.45-.78,3.94-1,1.56-2.87,3.31-1.26,2.72-1.49,2-.52.08-.48,1.74.33,4.47-.41,3.68-.11,1.56-.59,1-.19,3.2-1.93,3.08-.19,2.5-1.6,1-.41,1.45H203l-3.16.89-1.38,1.08-2.23.71-2.27,1.9-1.52,2.38L192.3,250l.48,1.3-.11,2.42-.3,1.15-1.26,1.34-1.68,4.2-1.49,1.86-1.19,1.16-.55,2.27L185.12,267l-.78-1.33.67-1.16-1.42-1.6-1.78-1.34-2.35-1.52-.7.07-2.34-1.86-1.27.27,2.23-3.24,2-2.34,1.23-1,1.56-1.3-.15-1.9-1.19-1.41-1,.48.26-1.37.11-1.42-.11-1.34-.78-.41-.75.38-.78-.12-.3-.89-.41-2.19-.44-.71-1.45-.67-.82.48-2.19-.48-.15-3.23-.75-1.31.6-.52-.3-1.34.48-1,.23-1.89-.64-1.49-1.19-.67-.29-.93.18-1.38-4-.11-1-2.79.63,0-.11-1-.44-.71-.19-1.37-1.26-.71h-1.31l-.93-.67-1.45-.48-.85-.89-2.38-.41L154.62,214l.11-1.6-.33-.93.15-1.79-2.72.41-1.08.89L149,212l-.41.71-1.08.07-1.56-.22-1.19.41-1-.26,0-3.61-1.63,1.38-1.86,0-.86-1.3L138,209l.37-1.05-1.23-1.45-1-2.15.55-.41-.07-1,1.26-.67-.26-1.31.52-.81.12-1.12,2.34-1.64,1.71-.44.3-.37,1.89.11.82-6.55,0-1-.33-1.34-1-.89,0-1.75,1.19-.37.4.26.08-.93-1.23-.26v-1.49l4.09.08.71-.86.59.78.38,1.41.41-.29,1.15,1.26,1.63-.15.41-.74,1.57-.56.89-.41.26-1,1.52-.67-.11-.52-1.78-.19-.26-1.52.11-1.6-.93-.6.41-.22,1.52.3,1.68.59.63-.56,1.52-.37,2.38-.89.78-.93-.26-.67,1.12-.07.45.52-.3,1.08.74.33.45,1.12-.6.85-.37,2,.52,1.23.11,1.11,1.31,1.12,1,.11.22-.48.67-.11,1-.41.67-.64L172,182l.48-.11Z"/>
                <path id="BW" class="cls-1"
                      d="M344.26,228.74l.71,1.9.41.45.59,1.37,2.27,2.61.86.26,0,.85.56,1.53,1.6.37,1.26,1.08-3,1.75-1.93,1.78-.75,1.6-.67.89-1.11.19-.45,1.15-.22.75-1.34.52-1.68-.11-.93-.67-.85-.26-1,.52-.56,1.15-1,.71-1.05,1.07-1.48.26-.41-.85.22-1.45-1.11-2.27-.53-.37.23-7,2-.07.3-8.52,1.56-.07L340,229l.74,1,1.38-.93h.63l1.19-.56.37.18Z"/>
                <path id="CF" class="cls-1"
                      d="M341.92,165.82l1.45.93,1.15,1,0,.78,1.45,1.23.89,1,.52,1.42,1.6,1,.34.75-.67.26-1.38,0-1.56-.26L345,174l-.34.6-.66.07-.82-.52-2.35,1.19-1-.22-.3.19-.6,1.45-1.59-.49-1.53-.22-1.34-.89-1.75-.82-1.11.78-.82,1.19-.19,1.67-1.34-.11-1.45-.41-1.22,1.27L325.48,181l-.22-.71-.11-1.08-1-.78-.78-1.22-.19-.86-1-1.26.18-.71-.22-1,.15-1.86.52-.41,1-2.42,1.71-.19.37-.63.38.08.52.52,2.64-.9.89-.93,1.08-.85-.22-.82.59-.22,2.05.15,1.93-1.12,1.49-2.6,1-1,1.34-.41.26,1,1.23,1.49v1l-.3,1,.15.75.7.7.19.12Z"/>
                <path class="cls-1" d="M172.55,75.48l1.26.33,1.75-.07-1.23,1-.74.15-2.05-1-.22-.78.93-.71Z"/>
                <path class="cls-1" d="M177.9,69.53l-.89,0-2.16-.7-1.3-1.12.71-.19,2.19.6,1.56,1Z"/>
                <path class="cls-1"
                      d="M63.39,70.9l-1.15.34-2.35-1v-.81l-1.08-.82.12-.67-1.6-.41.22-1.26.56-.53,1.52.49.89.37,1.53.22.07.82.15,1.08,1.19,1Z"/>
                <path class="cls-1"
                      d="M189.51,65.88l-1.86,2,1.45-.78,1.08.52-.9.78,1.42.63,1-.56,1.6.71-1,1.71,1.41-.41-.11,1.23.18,1.45-1.33,2.08-.9.08-1.08-.45.93-1.9-.44-.29-2.72,2-1.11-.08,1.63-1.12L187.13,73l-2,.15L181.51,73l-.07-.67,1.41-.85-.63-.6,2-1.41,3.05-3.68,1.56-1.31,1.86-.78.78.08-.56.63Z"/>
                <path class="cls-1" d="M55.62,57.92l.55.3L58,58,55.36,60.6l.11,1.86h-.71l-.26-1,.19-1.08-.3-.71.48-1Z"/>
                <path class="cls-3" d="M161,40.26l-1.34,1.11-.63-.19,0-.63.15-.15,1-.63.63,0Z"/>
                <path class="cls-3" d="M157.41,39.07l-2.68,1.19-1.11-.08v-.56l1.86-1,2.23,0Z"/>
                <path class="cls-3"
                      d="M156.26,32.82l-.34.93,1-.34.55.56,1.31.74,1.41.64-.52,1,1.3-.15.71.71-1.86.67-2.2-.52-.29-1L155,37.24l-3.05,1.08.26-1.23-2.34.19,2.12-1,1.34-1.68,1.9-1.89Z"/>
                <path class="cls-3" d="M173,29.73l-1.83.11.26-1,1.42-1.16,1.6-.26.85.56-.56.86-.33.29Z"/>
                <path class="cls-3"
                      d="M145.25,25.75l-1.53.71-1.56-.6-1.45.19-1.26-.89,1.86-.64,1.82-.85,1.11.56.6.37L145,25Z"/>
                <path class="cls-3"
                      d="M165,78.79l-.82-1.34,1.08-3.16-.59-.67-1.38.37-.41-.6-2.05,1.75L159.6,77l-1,1.08-.93.37-.63.12-.41.55h-3.46l-2.9,0-1,.41-2.53,1.64v0l-.34-.15-.74.34-.71.48-.67-.41-1.74.3-1.45.33-.71.3-.86.78.67.26.64-.15h.11l-.11.71-1.79.26-1,.3-.63.37-1-.22-.6.11-1.07.67-1.72.74L132,86l.74-.82,1.38-1.3,1.53-.78.4-.67.34-1.11L137.77,80l.34-1.48.41,1.45,1.41.33.89-.78-.52-1.79L140,77l-1.49-.45-1.41-.26h-1.45L134.35,76l-.15-.52-.52.33-.44-.07.7-.78-.67-.3.71-.89-.45-.67.64-.67-1.94-.34,0-1.34-.29-.29-1.23-.08-1.53-.45-.55.3-.67.56-1.23.37-1.15.93-2-.63-1.64.3-1.45-.71-1.71-.37-1.23-.15-.37-.37.34-1.27h-.64l-.48.9H65.1l-2-2.27-.59-1-2.61-1,.49-2,1.34-1.38-1.53-1,1.15-1.82-.78-1.64.93-1.19,1.9-1.08L64.58,54l-1.71-1.41L63.39,50l.41-1.56-.6-1-.29-.89.22-1.15-2.42.7-2.83,1.23-.11-1.41-.18-1-1-.59L55,44.27,68.22,32.11l9.15-7.59L79.6,25l1.23,1,1.38.19,2.34-.82,2.6-.63,2,.22,3.31-.85,3-.49.07.82,1.67-.48L98.68,23l.78.22L100,25l3.53-1.38-1.45,1.53,2.23-.34,1.19-.56,1.71.11,1.45.82,2.79.75,1.75.33,1.64-.11,1.07,1-3.16,1,2.38.41,4.43-.22,1.64-.37.52,1.23,2.64-1-.78-.89,1.67-.67,1.93-.11,1.45-.19.78.49.56,1.07,1.86-.14,2,.93,2.68-.34,2.23,0,.9-1.27,1.67-.33,1.82.67-1.6,1.93,2.31-1.63,1.19.07,2.38-2.05-.6-1.22-1.08-.82,2.05-2.2,3-1.41,1.67.34.75.85.15,2.23-2.16,1,2.49.41-1.64,2,3.31-1.56.82,1.3-1.6,1.49.49,1.38,2.71-1.45,2.42-1.79L162,24.19l2,.15,2,.29,1.34,1-.63,1-1.9,1.08.34,1.08-.9,1-4.05,1.45-2.42.34L156.59,31l-1.23,1-2.75,1.75-1.11.93-2.87,1.41-2.41.15-1.9.89-1.08,1.41-2.12.26-3.24,1.75L134.39,43l-1.86,1.71-1.82,2.57,2.23.37-.56,2-.3,1.72,2.72-.45,2.6,1,1.23.85.63,1,1.82.64,1.34.93,2.83.14,1.78.23-1.34,1.93-.63,2.27,0,2.57,1.64,2.19,1.74-.74,2.09-2.38.85-3.57-.63-1.19,3.35-1.08,2.79-1.56,1.78-1.57.63-1.48-.14-1.9L158,47.54l3.31-2.3.37-2,1.45-3.35,1.41-.52L167,40l1.56.23,1.68-.6,1.15.75,1.34,1.26.07.82,2.87.19-1,1.82-.85,2.75,1.41.37.59,1.3,3.05-1.22,2.79-2.46,1.57-1,.4,2,1,2.79.75,2.68-1.27,1.41,1.79,1.26L187,55.58l2.57.59.89.71v1.93l1.27.3.41.86-.75,2.56-1.6.86-1.56.82L185,65,182,66.88l-3.2.41-3.75-.52h-2.72l-2,.15-2.12,1.68-2.75,1-3.76,3-2.94,2.15,1.75-.37,4.06-3.09,4.57-1.93,2.83-.22,1.22,1.15L171,71.94l-.23,2.49,0,1.79,2.08,1.15,3.2-.33,2.68-2.64-.37,1.71.93.85-2.76,1.53L172,79.9l-2.15.93-2.68,1.71-1.38-.18.56-2,3.87-2-3,.08Z"/>
                <path class="cls-3"
                      d="M125.35,17.87l-1.75.89,3.91-.56,1,1,2.72-1,.67.64L131,20.69l1.6-.78,1-2,1.6-.3,1.12.3.81.78-1,1.9L135.32,22l1.56,1,1.86,1-1,.85-2.64.19.3.74-1.19.75-2.49-.3-2.12-.56-1.9.11-3.53.71-4.21.3-2.93.18.11-1-1.53-.52-1.6.22-.22-1.6,1.23-.22,2.71-.34,2,.11,2.3-.37-2.41-.45-3.39.15-2.12,0v-.71l4.35-.82-2.34,0-2-.52,2.9-1.45,1.94-.78,5.28-1.16Z"/>
                <path class="cls-3" d="M140,17.31l-2.6,1.26-.86-1.34.78-.29,2-.08Z"/>
                <path class="cls-3"
                      d="M180.43,17.9l-.26.52-1.52,0-1.53,0-1.82.26-.34-.15-.78-1,.64-.67.81-.15,3.13.22Z"/>
                <path class="cls-3"
                      d="M165.63,17.79l.11,1.19,2.68-1.52,4.35-.78.86,2-1.19,1.26,3.34-.56,2-.78,2.53,1,1.38.93-.41.85,3.05-.44.71,1.26,3.12.78.82.78.33,1.9-3.38.93,2.86,1.34,2.2.45,1.22,1.86,2.42.14-1.23,1.46-4.05,2.41-1.49-.89-1.41-2-2.19.26-.86,1.23,1,1.19,1.68,1,.37.55,0,2.12L185,39.14l-1.74-.6-3.2-1.67,1.34,1.82,1,1.3-.11.75-4.06-.86-2.82-1.26-1.42-1L175,37l-1.78-1.08-1.75-1-.33.59-4.88.34-.89-.71,2-1.56,3,0,3.46-.26-.07-.74,1.15-1,3.27-2,.15-.93-.18-.67-1.75-1-2.64-.67,1.3-.52-.74-1.27L173,24.3l-.71-.67-1.22.6-2.94.26L163,24l-2.75-.6L158,23.15l-.71-.71,2.34-.89h-2.12l1.23-2,2.64-1.71,2.23-.79,4.17-.52Z"/>
                <path class="cls-3"
                      d="M146.88,16.49l1.34.41,2.83-.26-.19.56-2.26.93,1.41.81-1.94,1.75-3.12.75-1.26-.15-.34-.75-2.19-1.48.63-.64,2.75.23-.33-1.23Z"/>
                <path class="cls-3"
                      d="M155.29,18.54,152.39,20l-1.64-.08.67-1.71,1-.93,1.56-.82,1.94-.52,2.93.08,2.31.44-3.76,1.71Z"/>
                <path class="cls-3"
                      d="M112.22,21.21l-5,1,.22-.86-2.23-1,1.64-.82,2.79-1.41,2.82-1.26.15-1.16,5.21-.29,1.56.41,3.54.11.7.52.6.82-2.42.48L116.61,19l-3.42,1.37Z"/>
                <path class="cls-3" d="M158.79,14.37l-1.53.71-1.93-.15-1.19-.49,1.67-.81,2.57-.52.52.66Z"/>
                <path class="cls-3"
                      d="M155.51,11.13l.08.86-1,.93-2.16,1.41-2.57.19-1.19-.3,1.27-1.08-2.46.11,1.6-1.41,1.42.07,2.86-.63,1.82.11Z"/>
                <path class="cls-3"
                      d="M140.86,12.1l-.26.63,1.64-.29,1.33.07-.85.93-1.9.86-5.17.29-4.57.82-2.23,0,.55-.6,4-.85-6.65.22-1.57-.33,4.36-1.79,2-.52,3.09.63,1.08,1.08,2.27.15.26-1.75,2.16-.67,1.15.19Z"/>
                <path class="cls-3"
                      d="M161.58,10.46l.85.6h2.75l.52.59-1,.67,1.16.41.44.45,1.82.07,1.9.15,2.64-.37,3-.19,2.16.15.86.71-.38.74-1.33.52-2.5.41-1.6-.26-4.38.3-3,0-2.08-.23-3.2-.59.59-1,.79-.89-.53-.82-2.6-.23-1-.55,1.42-.75Z"/>
                <path class="cls-3"
                      d="M133.42,9.5l-2.16,1.37-2,.64-1.41.07-3.68.78-2.64.3-1.34-.41,4.35-1.38,4.54-1.15,2,0Z"/>
                <path class="cls-3" d="M163.62,9.72l-.67,0-2.45-.11.26-.49,2.68,0,.59.3Z"/>
                <path class="cls-3" d="M141.75,9.39l-3.27.52-1.23-.56,1.9-.56,2.23-.19,1.53.27Z"/>
                <path class="cls-3" d="M144.65,7.82l-2.12.34H140.3l.37-.26,2.12-.49.64.08Z"/>
                <path class="cls-3" d="M162.06,8.75l-2.46.38L159,8.72l.22-.64.82-.7,1.64.07.63.11.85.6Z"/>
                <path class="cls-3" d="M156.93,8.31l-.41.7-2-.18-1.49-.56-2.9-.07,2-.49-1-.41.82-.67,2.26.23,2.79.63Z"/>
                <path class="cls-3"
                      d="M177.05,6l1,.56-2.42.48-3.94,1.3-2.53.11-2.53-.22L166,7.56l.78-.59,1.6-.45H166L165.22,6l.15-.7,1.82-.71,1.53-.48L170.2,4l-.11-.38,3.09-.07.59.82,1.75.33,1.79.34Z"/>
                <path class="cls-1"
                      d="M206.5.83l3.24.11,2.49.19,1.94.37-.41.37-3.65.64-3.35.29-1.48.34h2.79l-3.91.93-2.53.44-3.46,1.31-3,.26L194,6.45l-4.21.15,1.64.22-1.23.3.26.85-1.86.6-2.56.48-1.3.67-2.46.56-.18.41,2.41-.08-.41.45-4.72,1.08-3.16-.52-4.35.29L170,11.69l-2.53-.11.78-.86,3-.4L172,9.05l1-.11,2.79.74-.64-1.11-1.82-.34,1.86-.67L178,7.15l1-.59-1.12-.63.41-.82,3.5,0,.82.18,2.71-.59-2.71-.19-4.69.11-1.64-.52L176,3.51l-.93-.45.41-.48,2.23-.3,1.56,0L182,2l2.53-.56,1.45.08.89.41,1.86-.75L190.7,1l2.41-.15L197,.76l.49.15L201.3.68l2.6.08Z"/>
                <path id="CH" class="cls-1"
                      d="M309.6,73.21l.07.41-.26.55.86.45,1,.08-.12.92-.78.41-1.41-.29-.37.93-.89.07-.34-.37-1,.82-.93.11-.82-.52-.67-1-.89.38V75.07l1.34-1.3-.08-.6.86.22.48-.41h1.56l.37-.48,2.05.71Z"/>
                <path id="CI" class="cls-1"
                      d="M280.4,161.61l.93.52.38.82.93.49.74-.6,1-.07,1.45.59.55,3.42-.89,2-.56,2.72.9,2-.08,1h-1l-1.45-.45h-1.38l-2.49.45-1.45.67-2.09.89-.41-.07.15-2,.23-.3-.08-.93-.89-1-.67-.15-.59-.67.44-1.08-.18-1.15.07-.67h.33l.15-1-.15-.49.19-.33.78-.26-.52-1.94-.48-1,.18-.82.41-.19.3-.22.56.37h1.63l.38-.67.37,0,.59-.26.34,1,.48-.3Z"/>
                <path id="CM" class="cls-1"
                      d="M323.88,168.68l-1,2.42-.52.41-.15,1.86.22,1-.18.71,1,1.26.19.86.78,1.22,1,.78.11,1.08.22.71-.15,1.26-1.67-.55-1.71-.64-2.64-.07-.26-.15-1.27.3-1.26-.3-1,.15-3.46,0,.34-1.89-.86-1.6-1-.38-.41-1.07-.56-.34,0-.67.52-1.71,1-2.3h.6l1.26-1.42.78,0,1.19,1,1.45-.82.19-1,.48-1,.3-1.19,1.12-1,.41-1.67.44-.56.3-1.23.52-1.52,1.75-1.86.11-.78.22-.45-.85-.93.07-.78.56-.11.85,1.52.19,1.57-.07,1.6,1.19,2.15H323l-.6.15-1-.22-.44,1.11,1.26,1.42.93.41.3,1,.67,1.64-.3.67Z"/>
                <path id="CD" class="cls-1"
                      d="M349.36,173.89l1.3,2,1,.29.55-.4,1,.14,1.15-.48.53,1,1.89,1.59-.11,2.79.86.34-.71.82-.78.67-.82,1.22-.45,1.12-.11,1.9-.48.93,0,1.78-.59.67-.08,1.41-.3.19-.22,1.34.52,1.08,0,.37-.45,3.83.56,1.34-.37,1,.67,1.71,1.26,1.31.26,1.3.6.63-.11.41-.34-.11-2.86.41-.56.29-.63,1.53.44,1-.4,2.83-.34,2.38.56.44,1.45.93.59-.44.08,2.56h-1.6l-.82-1.3-.74-1-1.6-.33-.45-1.23-1.3.74-1.64-.33-.7-1.08-1.31-.22-1,0-.11-.74-.71,0-1-.15-1.31.37-.89-.07-.52.22.15-2.82-.67-.9-.15-1.48.34-1.45-.41-.9,0-1.52-2.53,0,.19-.86H334l-.11.41-1.31.11-.55,1.38-.34.59-1.15-.33-.67.33-1.41.19-.78-1.23-.49-.78-.59-1.45-.49-1.75-6.21,0-.74.26-.63,0-.86.33-.3-.74.52-.26.08-1,.37-.6.74-.52.56.26.75-.93,1.15,0,.11.67.78.41,1.27-1.49,1.22-1.15.52-.78,0-2,.93-2.3,1-1.23,1.38-1.15.26-.75,0-.89.33-.82-.11-1.37.26-2.12.41-1.49.63-1.27.11-1.45.19-1.67.82-1.19,1.11-.78,1.75.82,1.34.89,1.52.22,1.6.49.6-1.45.3-.19,1,.22,2.35-1.19.82.52.66-.07.34-.6.78-.18,1.56.26,1.38,0,.67-.26Z"/>
                <path id="CG" class="cls-1"
                      d="M330.61,178l-.11,1.45-.63,1.27-.41,1.49-.26,2.12.11,1.37-.33.82,0,.89-.26.75-1.38,1.15-1,1.23-.93,2.3,0,2-.52.78-1.22,1.15-1.27,1.49-.78-.41-.11-.67-1.15,0-.75.93-.56-.26-.78-.82-.63.41-.85,1-1.72-2.53,1.6-1.34-.78-1.56.75-.59,1.41-.3.15-1.08,1.15,1.15,1.86.12.63-1.12.26-1.6-.22-1.86-1-1.41.93-2.79-.52-.45-1.57.19-.59-1.23.15-1,2.64.07,1.71.64,1.67.55.15-1.26,1.12-2.23,1.22-1.27,1.45.41,1.34.11Z"/>
                <path id="CO" class="cls-1"
                      d="M142.24,158.27l-1.38.4-.6,1.19-.85.67-.67.9-.34,1.71-.66,1.41,1.07.15.23,1.08.44.56.12.93-.27.89,0,.52.52.19.45.81,2.71-.22,1.23.3,1.41,2.08.86-.26,1.52.11,1.2-.26.74.41-.45,1.27-.48.81-.22,1.71.41,1.6.55.71.08.52-1.08,1.19.74.52.56.86.6,2.38-.41.29-.38-1.41-.59-.78-.71.86-4.09-.08v1.49l1.23.26-.08.93-.4-.26-1.19.37,0,1.75,1,.89.33,1.34,0,1-.82,6.55-1.07-1.27-.64,0,1.31-2.46-1.64-1.11-1.27.22-.78-.41-1.15.63-1.56-.33-1.3-2.49-1-.6-.67-1.15-1.41-1.12-.56.22-.89-.55-1.05-.78-.59.37-1.79-.34-.52-1-.41,0-2.08-1.34-.26-.74.78-.19-.07-1.19.52-.89,1-.15.93-1.49.82-1.26-.75-.56.45-1.38-.41-2.19.49-.63-.26-2-.82-1.3.33-1.16.67.19.41-.71-.41-1.41.26-.34,1.08.08,1.67-1.68.9-.26,0-.78.52-2,1.27-1.08,1.3-.08.22-.48,1.64.19,1.71-1.19.86-.52,1.07-1.16.75.15.48.63-.44.79Z"/>
                <path id="CR" class="cls-1"
                      d="M116.28,160.27l.44,1.31.75,1,.93,1-.82.22,0,1,.41.33-.34.3.08.41-.22.48-.12.49-1.11-.53-.41-.52.26-.41,0-.52-.56-.55-.81-.49-.67-.29-.11-.71-.53-.41.08.67-.45.59-.44-.67-.64-.26-.26-.44,0-.75.34-.74-.56-.33.52-.49.33-.3,1.34.64.49-.3.67.19.29.48.64.18.52-.52Z"/>
                <path id="CU" class="cls-1"
                      d="M127.51,132.05l.7.85,1.94-.26.67.56,1.56,1.49,1.19,1.07.67,0,1.19.48-.22.67,1.48.11,1.45,1-.29.56-1.42.29-1.41.12-1.38-.19-3,.22,1.56-1.3-.78-.63-1.34-.15-.63-.71-.3-1.34-1.19.08-1.86-.63-.55-.52-2.64-.38-.67-.44.85-.6-2-.11-1.63,1.23-.86,0-.37.59-1,.26-.86-.26,1.19-.71.56-.89,1-.52,1.11-.45,1.6-.22.52-.3,1.75.19,1.64,0,1.82.82Z"/>
                <path id="CZ" class="cls-1"
                      d="M319,64.91l.93.75,1.38.18-.08.64,1,.48.23-.6,1.26.26.26.75,1.38.11,1,1.15h-.55l-.26.41-.41.11-.08.52-.33.12,0,.22-.6.22-.81,0-.23.53-.89-.45-.85.11-1.49-.71-.63.19-1,1-1.41-.78-1.12-1-1-.56-.26-1-.37-.67,1.26-.49.64-.59,1.3-.45.41-.44.48.26.82-.23Z"/>
                <path id="DE" class="cls-3"
                      d="M316.85,58.85l.52,1.15-.44.64.7.78.56,1.22-.07.82.89,1.45-.82.23-.48-.26-.41.44-1.3.45-.64.59-1.26.49.37.67.26,1,1,.56,1.12,1-.6,1.07-.63.3L316,73l-.15.41-.63-.49-.89-.07-1.31.41-1.63-.11-.23.63-1-.63-.52.11-2.05-.71-.37.48h-1.56l.15-1.67.89-1.56L304,69.3l-.89-.59.08-1-.38-.52.15-1.56-.41-2.42h1.08l.45-.85.33-2.09-.33-.78.3-.48,1.48-.11.38.48,1.15-1.11-.49-.86-.14-1.26,1.37.29,1.08-.33.11.85,1.82.53,0,.81,1.75-.44,1-.6,2.08.89.89.71Z"/>
                <path id="DJ" class="cls-1"
                      d="M382.16,159l-.71,1.3-.48-.45-.48.19-1.19,0-.08-.74-.18-.67.67-1.12.7-1,.9.23.63-.6.52.75,0,1-1.15.6.89.63Z"/>
                <path class="cls-1" d="M314,54.69l-.89,1.82-1.94-1.3-.33-.93,2.53-.75Z"/>
                <path class="cls-1"
                      d="M309.19,56.1l-1.08.33-1.37-.29L306,54.87l-.15-2.27L306,52l.48-.67,1.49-.11.6-.63,1.33-.63v1.15l-.44.74.26.6,1,.33-.38.86-.52-.23L308.67,55Z"/>
                <path id="DO" class="cls-1"
                      d="M142.72,143.31l.11-.67-.48-.7.56-.41.26-.93,0-1.27.3-.4H145l1.19.59.55,0,.26.86,1.16-.08L148,141l.93.11.93.86-.86,1-1-.53-1,.12-.67-.12-.41.45-.82.15-.26-.6-.71.34-1,1.64-.48-.38,0-.67Z"/>
                <path id="DZ" class="cls-1"
                      d="M308.34,98.16,308,99.39l.38,2.27-.41,2L306.74,105l.22,1.78,1.67,1.46,0,.55,1.26,1,1,4.28.71,2.12.15,1.11-.3,1.94.15,1.11-.22,1.3.22,1.49-.82,1,1.26,1.74.08,1,.78,1.34.93-.45,1.67,1.12.93,1.48-7,4.58-5.95,4.69-2.9,1-2.31.26,0-1.53-1-.41-1.3-.67-.49-1.11L288.55,132l-6.92-5.21L274,121l0-.44,0-.15,0-2.83,3.31-1.78,2-.38,1.67-.63.78-1.19,2.38-.93.11-1.78,1.16-.23.93-.85,2.64-.41.37-.93-.52-.52-.71-2.53-.11-1.45-.71-1.53,1.9-1.3,2.16-.41,1.22-1,1.9-.75,3.35-.41,3.27-.18,1,.33,1.82-.93,2.12,0,.82.56,1.34-.15Z"/>
                <path id="EC" class="cls-1"
                      d="M132.79,186.75l.3,1.83-.64,1.52-2.26,2.53-2.5.93-1.26,2.08-.34,1.6-1.15,1L124,197l-.85-.26-.86.19-.11-.86.59-.56-.26-1,1.08-1.79-.48-1-.78,1.12-1.3-1.08.41-.67-.38-2.16.75-.37.37-1.49.78-1.52-.11-1L124,184l1.45-.93,2.08,1.34.41,0,.52,1,1.79.34.59-.37,1.05.78.89.55Z"/>
                <path id="EG" class="cls-1"
                      d="M360.81,111.85l1.45,3.5.26.59-.48,1-.26,1.78-.45,1.27-.44.41-.75-.78-1-1-1.75-3.42-.18.23,1,2.49,1.45,2.42,1.82,3.71.86,1.31.74,1.34,2,2.64-.37.4.14,1.57,2.53,2.15.41.49H343.33l-.37-8.82-.48-8.48-.75-1.93.41-1.45-.37-1,.63-1.16,2.68,0,2,.63,2.05.71,1,.37,1.49-.75.78-.67,1.75-.22,1.45.3.67,1.19.41-.78,1.63.56,1.6.14.93-.59Z"/>
                <path id="ER" class="cls-1"
                      d="M381.94,156.07l-.63.6-.9-.23-.74-.78-.93-1.37-1-.79-.55-.81-1.86-1-1.46,0-.52-.48-1.19.56-1.33-1.08-.56,1.78-2.46-.52-.26-.93.75-3.53.11-1.56.63-.75,1.49-.41,1-1.33,1.34,2.75.71,2.19,1.19,1.16,3,2.26,1.23,1.34,1.19,1.42.67.81,1.08.71Z"/>
                <path id="EE" class="cls-1"
                      d="M339.09,46.09l.34.38-1,1.26.89,2.08-.59.71-1.41,0-1.64-.82-.78-.26-1.42.38,0-1.31-.56.3L331.69,48l-.37-1.26,2.05-.64,2.08-.29,1.9.33,1.74,0Z"/>
                <path id="ET" class="cls-1"
                      d="M373.9,151.68l1.46,0,1.86,1,.55.81,1,.79.93,1.37.74.78-.7,1L379,158.6l.18.67.08.74,1.19,0,.48-.19.48.45-.44.82.82,1.34.82,1.15.81.86,7,2.82,1.78,0-5.8,7.17-2.71.12-1.86,1.67-1.34,0-.56.78h-1.45l-.86-.82-1.93,1-.59,1-1.42-.23-.48-.26-.49.08-.66,0-2.68-2h-1.49l-.71-.78,0-1.34-1.08-.41-1.3-2.6-1-.56-.37-1L362.3,168l-1.3-.18.71-1.34,1.11-.08.3-.7-.08-1.86v-.3l.56-2.49,1-.67.19-1,.85-1.86,1.23-1.15.74-2.38.26-2.05,2.46.52.56-1.78,1.33,1.08,1.19-.56.52.48Z"/>
                <path id="FI" class="cls-1"
                      d="M335.52,25.82l.15,1.42,2.72,1.37-1.08,1.57,2.42,2.34-.64,1.78,1.83,1.57-.34,1.41,2.75,1.45L343,39.81l-1.27,1.26-3,2.76-3,.18-2.82.78-2.64.49-1.19-1.19-1.75-.71,0-2.16-1.11-1.93.59-1.27,1.23-1.3,3.27-2.3,1-.45-.33-.89-2.42-1-.67-.82-.67-3.16-2.68-1.38-2.23-1,.82-.52,1.9,1,2-.07,1.75.48,1.26-.89.41-1.49,2.19-.67,2.16.78-.3,1.41Z"/>
                <path id="GA" class="cls-1"
                      d="M319.31,181l-.15,1,.59,1.23,1.57-.19.52.45-.93,2.79,1,1.41.22,1.86-.26,1.6-.63,1.12-1.86-.12L318.23,191l-.15,1.08-1.41.3-.75.59.78,1.56-1.6,1.34L313,193.49l-1.38-2-1.3-2.46.07-.82.49-.74.48-1.75.45-1.78.7-.12h3.05V181l1-.15,1.26.3,1.27-.3.26.15Z"/>
                <path class="cls-3" d="M280.7,58.59l-1.3-.45-1.12,0,.45-1.23-.33-1.19,1.48-.11,1.83,1.42Z"/>
                <path class="cls-3"
                      d="M286.62,47.92l-1.9,2.41,1.75-.29h1.89l-.48,1.82-1.6,2,1.82.11.11.26,1.57,2.64,1.19.37,1.08,2.61.52.89,2.19.41-.22,1.48-.9.67.71,1.19-1.64,1.19-2.41,0-3.13.67-.82-.49-1.22,1.08-1.68-.26-1.34.89-.92-.44,2.71-2.42,1.64-.52-2.83-.37-.48-.93,1.89-.71-.93-1.23.38-1.48,2.64.22.29-1.34L285.35,57l0,0-2.12-.41-.41-.6.67-1-.55-.63-1,1.08,0-2.2-.82-1.11.71-2.31L283.19,48l1.34.15Z"/>
                <path id="GE" class="cls-1"
                      d="M377,84.51l1.9.49.78,1,1.34.56-.45.3,1.23,1.3-.23.26-1.07-.11L379,87.56l-.41.41-2.6.37-2.08-1.19-2.05.12.11-1-.78-1.6-1.26-.89-1.12-.26L368,82.8l.15-.29,1.71.4,2.87.38,2.82,1.15.45.45,1.08-.38Z"/>
                <path id="GH" class="cls-1"
                      d="M291.78,160.09l-.14.74.85,1.23v1.75l.22,1.86.53.89-.49,2.12.19,1.19.56,1.52.48.86-3.31,1.38-1.19.81-1.9.71-1.86-.67.08-1-.9-2,.56-2.72.89-2-.55-3.42-.3-1.78.07-1.38,3.65-.11.93.18.67-.37,1,.19Z"/>
                <path id="GN" class="cls-1"
                      d="M267.61,156.67l.11.89h.34l.55-.34.34.08.59.63.9.19.55-.52.71-.34.48-.33.41.07.49.52.22.67.86,1-.41.59-.11.78.44-.22.26.26-.11.71.63.7-.41.19-.18.82.48,1,.52,1.94-.78.26-.19.33.15.49-.15,1H274l-.6-.08-.4,1h-.6l-.41-.52.15-1-.89-1.45-.52.26-.49.08-.55.11,0-.86-.33-.63.07-.71-.44-1-.6-.86h-1.67l-.49.45-.59.07-.37.53-.23.63-1.15,1.08-.89-1.42-.82-.93-.52-.33-.52-.49-.22-1-.3-.52L260,160l1-1.15.64,0,.55-.37.45,0,.33-.3-.14-.78.22-.26,0-.82,1,0,1.52.56.45,0,.15-.26,1.15.19.3-.15Z"/>
                <path id="GM" class="cls-1"
                      d="M256.49,155l.3-1.08,2.27,0,.48-.6.67,0,.82.6h.63l.71-.37.41.67-.93.56-.9-.08-.89-.48-.78.56h-.37l-.52.33-1.9,0Z"/>
                <path id="GW" class="cls-1"
                      d="M263,156.33l0,.82-.22.26.14.78-.33.3-.45,0-.55.37-.64,0L260,160l-1.08-1-.9-.19-.48-.67,0-.37-.63-.48-.15-.52,1.11-.38.71.08.56-.3,3.87.11Z"/>
                <path id="GQ" class="cls-1" d="M315.51,181v2.86h-3.05l-.7.12-.41-.34.7-2.68,3.46,0Z"/>
                <path class="cls-1"
                      d="M338.72,101.14l1.15.82,1.53-.15,1.49.15v.44l1-.29-.19.7-2.82.19,0-.37-2.46-.49Z"/>
                <path class="cls-1"
                      d="M342.14,89,341,88.9l-1-.22-2.31.59,1.49,1.34-.93.41h-1.08L336,89.79l-.34.53.6,1.41,1.08,1.11-.71.53,1.19,1.07,1,.71.15,1.34-1.86-.63.67,1.22-1.23.23.93,2.12-1.3,0-1.71-1-.89-1.89-.48-1.6-.86-1.08-1.12-1.38L331,91.8l.82-1.15,0-.78.64-.34,0-.63,1.26-.18.67-.52,1,0,.3-.41.37-.07,1.42.07,1.48-.67,1.45.86,1.72-.22L342,86.6l1,.63-.41,1.49Z"/>
                <path id="GL" class="cls-1"
                      d="M258.24.27l7.4,1.12-2.49.52L258.31,2l-6.88.15.52.26,4.58-.18,3.6.52,2.61-.45.89.52L262,3.7l3.42-.6,6.36-.56,3.72.3.63.63-5.5,1.08-.82.37-4.24.3,3,.07-1.82,1.19-1.34,1.08-.45,1.94,1.38,1.19-2.2,0-2.41.6,2.34,1,0,1.56-1.56.18,1.53,1.6-3.24.15,1.49.75-.6.67-2.12.29-2,0L259,18.8l-.19.89-2.71-.82-.89.52,1.85.48,1.72,1.19.22,1.6-2.75.38-1-.79-1.56-1.11.19,1.34-2,1,4,.07,2,.11-4.42,1.75-4.54,1.6-4.72.67-1.71,0-1.83.78-2.79,2.16-3.79,1.45-1.12.11-2.26.48-2.46.52-1.78,1.27L226,36l-1.26,1.41-3.2,1.71.11,1.67-1.34,1.79-1.52,2.12-2.42.15-1.86-1.79-3.34,0-1.19-1.19-.3-2.08-1.79-2.68-.26-1.37.56-1.9-1.38-1.9L208,30.4l-.71-.74,2.61-2.38,2.68-.79,1-.81,1-1.57-2,.71-1,.3-1.52.26-1.57-.63.56-1.38,1.12-1,1.41,0,2.83.56-2-1.27-1-.66-1.63.26-1-.49,2.6-1.78-.48-.75-.41-1.3-.52-2-1.34-.7.52-.78-3-1.08-2.86-.15-3.76.07-3.53.15-1.16-.59-1.41-1.16,4.09-.55,2.83-.08-5.43-.48-2.42-.71.82-.67,5.84-.82,5.58-.82,1-.59-3-.6,1.72-.63L210,3.58l2-.14.08-.67,3.34-.41,4.09-.23h3.87l1,.45,4-.82,2.64.56,1.71.11,2.3.48-2.49-.78.6-.63,4.72-.82,4.31.08L244,.24l4.43-.12,9.78.15Z"/>
                <path id="GT" class="cls-1"
                      d="M106.42,143.87l-.26,1.9-.48,2.68h.63l.63.44.22-.37.56.3-1,.93-1.08.67-.18.44.11.49-.49.59-.52.15.11.3-.44.26-.75.59-.11.34-1-.41-1.3,0-.89-.48-1-1,.14-.7.3-.56-.26-.45,1.23-1.93h2.68l.15-.82-.3-.15-.19-.52-.7-.56-.67-.78.93,0,.18-1.34h1.94l1.93,0Z"/>
                <path id="GY" class="cls-1"
                      d="M171.43,172.14l-.37,2.16-1.3.59.11.56-.41,1.26.89,1.71H171l.26,1.34,1.23,2.09L172,182l-1.19-.23-.67.64-1,.41-.67.11-.22.48-1-.11L166,182.14l-.11-1.11-.52-1.23.37-2,.6-.85-.45-1.12-.74-.33.3-1.08-.45-.52-1.12.07-1.37-1.78.59-.67v-1.12l1.31-.37.52-.45-.67-.89.18-.86,1.75-1.41,1.34.89,1.23,1.53,0,1.26.78,0,1.12,1.15.78.86Z"/>
                <path id="HN" class="cls-1"
                      d="M118.14,150.57l-.71,0-.34.33-.74.3h-.52l-.48.3-.41-.08-.34-.37-.22.08-.34.56-.18,0-.08.52-.78.63-.44.3-.23.3-.55-.49-.53.63h-.44l-.49,0-.07,1.19H110l-.29.56-.67.11-.3-.74-.63-.23.26-1-.26-.26-.45-.15-.93.26,0-.3-.59-.41-.41-.44-.6-.23.49-.59-.11-.49.18-.44,1.08-.67,1-.93.22.11.49-.41.59,0,.19.19.33-.11,1,.22,1-.07.67-.26.29-.26.64.11.48.15.56,0,.44-.22.93.33.3.08.6.44.56.52.7.37.49.64Z"/>
                <path id="HR" class="cls-1"
                      d="M327.12,77l.56.93.63.67-.63.9-.9-.53-1.3,0-1.67-.41-.86,0-.37.52-.74-.56-.3,1,1,1.12.49.7.93.89.78.53.78,1,1.78.89-.18.37-1.86-.85-1.19-.86-1.79-.7-1.75-1.71.38-.19-.93-1-.12-.79-1.22-.37-.52,1-.6-.78V78l0,0,1.34.08.3-.38.66.38.75,0,0-.63.63-.26.12-.93,1.45-.63.59.3,1.49,1,1.6.45.67-.38Z"/>
                <path id="HT" class="cls-1"
                      d="M143.13,139.33l0,1.27-.26.93-.56.41.48.7-.11.67-1.34-.4-1,.14-1.27-.14-1,.44-1-.74.26-.78,1.89.33,1.53.19.82-.52-.86-1,.15-.93-1.3-.38.56-.63,1.26.08Z"/>
                <path id="HU" class="cls-1"
                      d="M332.58,71.12l1.12.64.19.63-1.08.48-.71,1.56-1,1.6-1.45.45-1.19-.11-1.37.59-.67.38-1.6-.45-1.49-1-.59-.3-.45-.78-.3,0,.49-1.49-.41-.52h1l.07-1,1,.64.7.22,1.53-.26.11-.48.71-.08.85-.33.22.15.86-.3.37-.56.6-.15,2,.71.37-.23Z"/>
                <path id="IE" class="cls-1"
                      d="M280.7,58.59l.26,1.64-1.45,2-3.27,1.34-2.53-.33,1.6-2.38-.78-2.31L277,56.81l1.38-1.05.33,1.19-.45,1.23,1.12,0,1.3.45Z"/>
                <path id="IQ" class="cls-1"
                      d="M379.93,97.64l1.75,2.83,1.41.74.34,1.38-.86.82-.19,1.86,1.72,2.27,2.64,1.33,1.3,1.79-.08,1.75h.64l.18,1.26,1.3,1.27-1.22-.11-1.38-.23-1.23,2.31-3.79-.19-6.25-4.8-3.2-1.67-2.53-.67-1.15-2.9,4.09-2.49.37-2.87-.44-1.74,1-.6.78-1.49.78-.37,2.35.34.78.59.89-.41Z"/>
                <path id="IS" class="cls-1"
                      d="M268.84,31.18l-.52,1.34L270,33.93l-2.27,1.6L262.81,37l-1.45.41-2.08-.33-4.43-.67,1.79-.93-3.35-1,2.94-.41,0-.63L253,32.93l1.34-1.38,2.46-.3L259,32.67l2.6-1.12,1.9.56L266.23,31l2.61.15Z"/>
                <path id="IL" class="cls-1"
                      d="M363.42,106.94l.15,1-.23.37h0l-.26.74-.78-.29-.26,1.56.56.26-.49.33,0,.64.92-.3.15.93-.67,3.79-.26-.59-1.45-3.5.52-.78-.14-.15.4-1.12.23-1.78.22-.63h.71l.15-.41.52,0Z"/>
                <path class="cls-1"
                      d="M322.17,95.11l-.63,1.9.33.71-.33,1.22L320,98.05l-1-.26-2.79-1.19.19-1.23,2.3.23,2-.26Z"/>
                <path class="cls-1"
                      d="M309.53,88.05l1.22,1.67-.15,3.16-.89-.15-.78.78-.74-.63L308,90l-.48-1.34,1.08.11Z"/>
                <path class="cls-1"
                      d="M317.6,75.59l-.15,1.15.52,1-1.53-.37-1.45.86.15,1.15-.18.67.7,1.19,1.86,1.19,1.08,2,2.27,1.9,1.49,0,.52.52-.52.49,1.78.85,1.49.71,1.75,1.26.22.41-.3.86-1.15-1.12-1.71-.37-.71,1.52,1.45.9L325,93.51l-.78.15-.93,2-.81.18,0-.74.33-1.26.41-.52L322.36,92l-.67-1.19-.82-.3-.67-1-1.26-.45-.9-1-1.41-.14-1.6-1-1.82-1.56L311.83,84l-.71-2.34-1-.26-1.56-.78-.86.3L306.66,82l-.78.15.19-1-1-.3-.56-1.82.63-.71-.56-.89,0-.67.82.52.93-.11,1-.82.34.37.89-.07.37-.93,1.41.29.78-.41.12-.92,1.15.33.19-.45,1.82-.41.48.79Z"/>
                <path id="JM" class="cls-1"
                      d="M131.86,143.72l-.67.41-1.12-.41-1.07-.85.29-.56.9-.15.48.08,1.38.22,1,.56.3.67-1.49,0Z"/>
                <path id="JO" class="cls-1"
                      d="M370.48,109.58l-.33.37-3.87,1.19,2.23,2.42-.59.37-.26.82-1.53.34-.41.85-.78.74-2.3-.4-.12-.34.67-3.79-.15-.93.23-.71-.15-1.49.26-.74,2.34,1,3.61-2.57Z"/>
                <path id="KE" class="cls-1"
                      d="M379.93,177.05l-1.82,2.68.07,8.7,1.23,2-1.49,1-.52,1-.82.15-.29,1.71-.71,1-.41,1.56-.86.78-3-2.38-.11-1.38-7.62-4.87.14-1.75-.52-.93v-.11l.6-1,1-1.57.78-1.74-1-2.76-.26-1.19-1-1.67,1.26-1.41,1.42-1.57,1.08.41,0,1.34.71.78h1.49l2.68,2,.66,0,.49-.08.48.26,1.42.23.59-1,1.93-1,.86.82Z"/>
                <path id="KW" class="cls-1"
                      d="M388.86,114.83l.55,1-.11.55.9,1.79-1.46.07-.63-1.15-1.86-.22,1.23-2.31,1.38.23Z"/>
                <path id="LB" class="cls-1"
                      d="M363.42,106.94l-.52,0-.15.41h-.67l.48-2,.82-1.68v-.07l.93.11.45.93-1,.93-.33,1.3Z"/>
                <path id="LR" class="cls-1"
                      d="M274,168.05l-.07.67.18,1.15-.44,1.08.59.67.67.15.89,1,.08.93-.23.3-.15,2-.55,0-2.16-1.16L270.85,173l-1.79-1.3-1.41-1.53.52-.78.11-.7,1-1.27,1-1.11.49-.08.52-.26.89,1.45-.15,1,.41.52h.6l.4-1,.6.08Z"/>
                <path id="LY" class="cls-1"
                      d="M342.4,111l-.63,1.16.37,1-.41,1.45.75,1.93.48,8.48.37,8.82.19,4.76h-2.38v1l-8.41-4.57-8.36-4.58-2.05,1.3-1.41.9-1.19-1.3-3.28-1-.93-1.48-1.67-1.12-.93.45-.78-1.34-.08-1-1.26-1.74.82-1-.22-1.49.22-1.3-.15-1.11.3-1.94-.15-1.11L310.9,114l1-.52.15-1-.23-1,1.34-.93.6-.78,1-.67,0-1.82,2.38.81.86-.22,1.67.41,2.72,1.08,1,2.12,1.82.44,2.9,1,2.23,1.19.93-.63.93-1.08-.59-1.82.56-1.19,1.37-1.12,1.38-.3,2.75.49.74,1,.75,0,.67.41,2,.26.55.78Z"/>
                <path id="LS" class="cls-1"
                      d="M348.54,259.32l-.74.26-1.38-1.86,1.19-1.49,1.15-.93,1-.52.82.74.63.75-.71,1.15-.41.78-1.15.37-.41.75Z"/>
                <path id="LT" class="cls-1"
                      d="M338.13,54.65l.37,1-1.34.75L337,57.66l-1.78.86h-1.75l-.52-.71-.93-.26-.22-.56.07-.63L331,56l-1.89-.4-.64-1.9,1.9-.67,2.94.15L335,53l.34.45.93.15,1.86,1.08Z"/>
                <path id="LU" class="cls-1" d="M303.09,68.71l-.52,0-.41-.18.15-1.3.48-.08.38.52Z"/>
                <path id="LV" class="cls-1"
                      d="M338.76,50.52l.93.48.37,1.08.78,1.34-1.71.86-1,.37-1.86-1.08-.93-.15L335,53l-1.67.23-2.94-.15-1.9.67-.18-1.67.63-1.42,1.52-.74,1.64,1.67,1.38-.07,0-1.71,1.42-.38.78.26,1.64.82,1.41,0Z"/>
                <path id="MA" class="cls-1"
                      d="M287.43,102.4l.71,1.53.11,1.45.71,2.53.52.52-.37.93-2.64.41-.93.85-1.16.23-.11,1.78-2.38.93-.78,1.19-1.67.63-2,.38-3.31,1.78,0,2.83h-.33l0,1.26-1.26.08-.67.55h-.93l-.74-.33-1.71.26-.71,1.86-.67.18-1,3-2.94,2.56-.75,3.31-.89,1.08-.26.86-4.65.18h0l.12-1.11.81-.63.71-1.27-.11-.82.74-1.67,1.19-1.53.71-.37.59-1.37.08-1.31.78-1.45,1.41-.89,1.34-2.42,0,0,1.08-.93,1.89-.26,1.64-1.64,1-.63,1.75-2-.45-2.94.82-2.08.34-1.27,1.34-1.6,2-1.07,1.53-1,1.38-2.45L280,101l1.45,0,1.15,1,1.9-.15,2,.52Z"/>
                <path id="MD" class="cls-1"
                      d="M344.93,78l-.48-1.08.07-1-.22-1L343,73.47l-.75-1-.67-.67-.59-.26.41-.33,1.19-.23,1.48.71.75.11,1,.63,0,.78.74.38.41,1,.74.6-.07.37.37.22-.48.19-1.12-.07-.22-.34-.37.19.22.41-.41.78-.22.78-.45.26Z"/>
                <path id="MX" class="cls-3"
                      d="M92,124.68l.82-.07-1.19,2.12L91,128.44l-.67,3.2-.41,1.15.15,1.3.48,1.19.15,1.82,1.12,1.79.29,1.37.64,1.16,2.12.63.7,1,1.94-.67,1.6-.22,1.63-.44,1.34-.41,1.45-1,.67-1.38.45-2,.44-.7,1.49-.63,2.27-.56,1.82.11,1.27-.22.44.52-.22,1.15-1.3,1.41-.67,1.45.33.41-.44,1-.78,1.86-.45-.63-.41,0-.41,0-.93,1.45-.33-.3-.26.11,0,.37-1.93,0h-1.94l-.18,1.34-.93,0,.67.78.7.56.19.52.3.15-.15.82h-2.68L99.24,150l.26.45-.3.56-.14.7L97,149.12l-1-.78-1.64-.64-1.19.19-1.79.89-1.07.22-1.38-.63-1.53-.44-1.78-1.08-1.53-.34-2.19-1.11-1.6-1.16-.41-.63-1.15-.15-2-.74L76,141.64l-2-1.38-.82-1.48-.3-1.19.71-.23-.12-.67.6-.63.15-.82-.56-1.07v-.93L73.21,132l-1.42-2.38-1.71-1.86-.7-1.49-1.53-1-.26-.59.63-1.45-.89-.56-.93-1.19-.07-1.64-1-.22-.86-1.23-.63-1.19.11-.74-.56-1.79-.11-1.82.3-.93-1.16-1-.7.12-.89-.64-.67,1,0,1.12-.37,1.82.37,1,1,1.63.15.6.26.15,0,.81.37,0v1.56l.48.59.19.86,1,1.19.15,2.23.37,1,.34,1.12-.11,1.26,1,.08.6,1.08.56,1.07-.12.45-1,.86H65l-.26-1.45-1.08-1.38-1.26-1.15-.93-.6.44-1.75,0-1.3-.78-.74-1.16-1-.33.29-.37-.63-1.12-.56-.82-1.41.19-.15.78.11,1-.89.38-1.08-1.08-1.71-1-.63-.3-1.49-.22-1.6-.3-1.89-.07-2.16L59,108.5l2.64-.26-.33.49,2.6,1.15,4,1.67h5.62l.3-1h3.49l.49.85.78.78.89,1,.3,1.22.15,1.34.85.71,1.49.71,1.78-1.86,1.68-.08,1.19,1,.59,1.63.34,1.42.89,1.34.08,1.67.33,1.12,1.45.74,1.34.52Z"/>
                <path id="MK" class="cls-1"
                      d="M336,87.75l-.37.07-.3.41-1,0-.67.52-1.26.18-.86-.56-.37-1,.19-.82.26,0,0-.48,1.08-.38.45-.11.63-.11.89-.07,1.05.78.29,1.56Z"/>
                <path id="ML" class="cls-1"
                      d="M300.6,140.64l0,5.5-1.16,1.6-.15,1.49-1.85.37-2.87.19-.74.85-1.34.11h-1.34l-.52-.44-1.15.33-2,1-.41.74-1.6,1-.3.63-.89.49-1-.34-.56.6-.33,1.63-1.67,2,.07.82-.59,1,.14,1.37-.89.37-.48.3-.34-1-.59.26-.37,0-.38.67h-1.63l-.56-.37-.3.22-.63-.7.11-.71-.26-.26-.44.22.11-.78.41-.59-.86-1-.22-.67-.49-.52-.41-.07-.48.33-.71.34-.55.52-.9-.19-.59-.63-.34-.08-.55.34h-.34l-.11-.89.11-.75-.18-.89-.75-.67-.41-1.38-.07-1.48.71-.45.37-1.41.67,0,1.45.67,1.19-.48.78.14.33-.52,8.37,0,.48-1.68-.37-.29-.93-10.31-.89-10.3,3.16,0,6.92,5.21,6.95,5.21.49,1.11,1.3.67,1,.41,0,1.53,2.31-.26Z"/>
                <path id="ME" class="cls-1"
                      d="M330.5,84.25l-.3.52-.52.23-.15-.45-.7,1.15.18.78-.41-.18-.63-.78-.85-.49.18-.37.15-1.3.6-.56.33-.22.52.41.34.33.63.26.78.49-.15.18Z"/>
                <path id="MZ" class="cls-1"
                      d="M358.8,250.24h-1.52l-.11-1.08-.22-1.08-.15-.85.52-2.64-.41-1.71-.82-3.35,2.31-2.71.63-1.72.3-.22.33-1.41-.3-.71.15-1.78.49-1.64.14-3.05-1-.74-1-.19-.41-.6-1-.48-1.75,0-.07-.89-.15-1.71,6.4-2,1.19,1.16.56-.23.81.6.08,1-.48,1.11.07,1.68,1.3,1.48.71-1.67.93-.48,0-3.09-.82-1.71-.7-.78h-.15l-.23-2.72.56-2.27.82-.07,2.49.67.56-.3,1.45-.07.78-.71,1.27,0,2.3-.93,1.71-1.38.34,1-.19,2.38.19,2.12-.08,3.72.3,1.15-.71,1.72-.89,1.67-1.38,1.49-2,.89-2.41,1.15-2.46,2.57-.82.45-1.56,1.71-.85.52-.3,1.71.89,1.82.34,1.38v.74l.37-.15-.19,2.34-.41,1.12.45.41-.37,1-.9.86-1.74.78-2.57,1.3-.93.89.11,1,.49.15-.27,1.26Z"/>
                <path id="MR" class="cls-1"
                      d="M281.63,126.76l-3.16,0,.89,10.3.93,10.31.37.29-.48,1.68-8.37,0-.33.52-.78-.14-1.19.48-1.45-.67-.67,0-.37,1.41-.71.45L265,149.86l-1.27-1.79-1.33-.63-1-.67h-1.15l-1,.52-1-.18-.74.74-.15-1.26.6-1.19.29-2.23-.15-2.38-.22-1.19.22-1.2-.52-1.11-1-1,.49-.78H265l-.34-3.46.56-1.23,1.93-.19.08-6.13,6.69.15L274,121l7.62,5.8Z"/>
                <path id="MW" class="cls-1"
                      d="M364.61,218.78h.15l.7.78.82,1.71,0,3.09-.93.48-.71,1.67-1.3-1.48-.07-1.68.48-1.11-.08-1-.81-.6-.56.23-1.19-1.16-1.08-.59.74-2.23.67-.82-.33-2,.48-1.93.37-.64-.48-2-1-1.08,2.05.44.37.64,0,.29.67,1.53.08,2.86-.67,1.34.59,1.75-.07,1,.44.71,0,.89.33.52.37-.59.71.93.08-.3-.38-1.27-.41-.11,0-.33Z"/>
                <path id="NA" class="cls-1"
                      d="M340,228.22l1.71-.52,1.34.11.82.56v.19l-1.19.56h-.63l-1.38.93-.74-1-3.24.86-1.56.07-.3,8.52-2,.07-.23,7-.4,8.81-1.86,1.23-1.08.19L328,255.3l-.93-.19-.29-1-.75-.67-1,1.19-1.45-1.82-.74-1.71-.38-2.35L322,247l-.6-3.68,0-2.86-.22-1.3-.78-1-1.05-2-1-2.86-.41-1.49-1.63-2.34-.11-1.83,1-.44,1.26-.41,1.34.07L321,228l.3-.19,8.44-.07,1.41,1.12,5,.33,3.87-1Z"/>
                <path id="NE" class="cls-1"
                      d="M322.32,131.78l.59,3.72.82.64,0,.74.89.82-.44,1-.67,4.83-.08,3.13-2.6,2.23-.86,3.16.9.89v1.53l1.37,0-.22,1.15-.56.11-.07.78-.37,0L319.6,154l-.52-.12-1.6,1.34-1.63-.7-1.12-.12-.59.34-1.23-.07-1.23,1-1.08.07-2.53-1.22-1,.55-1.08,0-.78-.9-2.08-.89-2.27.3-.52.48-.3,1.38-.59,1-.15,2.15-1.6-1.37H297l-.7.7,0-1.63-2.42-.56-.08-1.15L292.64,153l-.3-1.07.19-1.16,1.34-.11.74-.85,2.87-.19,1.85-.37.15-1.49,1.16-1.6,0-5.5,2.9-1,5.95-4.69,7-4.58,3.28,1,1.19,1.3,1.41-.9Z"/>
                <path id="NG" class="cls-1"
                      d="M321.43,156.59l.85.93-.22.45-.11.78-1.75,1.86-.52,1.52-.3,1.23-.44.56-.41,1.67-1.12,1-.3,1.19-.48,1-.19,1-1.45.82-1.19-1-.78,0L311.76,171h-.6l-1,2.3-.52,1.71-2.2.86-.78-.11-.82.52-1.67,0L303,174.7l-.71-1.71-1.49-1.56H297.4l.11-3.83-.07-1.52.41-1.49.63-.75,1-1.48-.22-.64.41-1-.49-1.42.08-.78.15-2.15.59-1,.3-1.38.52-.48,2.27-.3,2.08.89.78.9,1.08,0,1-.55,2.52,1.22,1.08-.07,1.23-1,1.23.07.59-.34,1.12.12,1.63.7,1.6-1.34.52.12,1.46,2.6.37,0Z"/>
                <path id="NI" class="cls-1"
                      d="M118.14,150.57l-.19.26-.19.52.15.85-.56.82-.29,1-.19,1,.08.63,0,1.08-.34.22-.26,1,.08.63-.45.59,0,.63.3.41-.52.52-.64-.18-.29-.48-.67-.19-.49.3-1.34-.64-.33.3-.67-.74-.93-1-.41-.78-.82-.78-.93-1.08.26-.37.3.37.19-.15.67-.11.29-.56h.3l.07-1.19.49,0h.44l.53-.63.55.49.23-.3.44-.3.78-.63.08-.52.18,0,.34-.56.22-.08.34.37.41.08.48-.3h.52l.74-.3.34-.33.71,0Z"/>
                <path class="cls-1"
                      d="M339.09,24.86l-2.38.78-1.19.18.3-1.41-2.16-.78-2.19.67-.41,1.49-1.26.89-1.75-.48-2,.07-1.9-1-.82.52-1,.07,0,1.34-3-.33L319.23,28h-1.49l-.85,1.45-1.26,2.27-2.12,2.94.66.74-.48.82-1.6,0-.89,2,.37,2.87,1.15,1.07-.29,2.57-1.27,1.49-.67,1.26-1.22-1.34-3.2,2.53-2.27.52L301.38,48l-.67-2.34-.74-5,1.48-1.37,4.21-1.82,3-2.2,2.68-2.9,3.31-4L317,26.87l3.83-2.53,3.16-.9,2.49.12,1.94-1.64,2.75.07,2.6-.37,5.1,1.45-1.83.52Z"/>
                <path class="cls-1" d="M325.29,9.13l-2.82.7-2.53-.41.82-.44-1-.56,2.72-.34.7.64Z"/>
                <path class="cls-1"
                      d="M315.77,6l4.69,1.27-3.2.67-.44,1.26-1.12.34L315.36,11l-1.63.07L310.57,10l1.11-.63-2.12-.52L306.7,7.38l-1.19-1.3,3.46-.6.85.56h1.86l.37-.56L314,5.41Z"/>
                <path class="cls-1"
                      d="M324.85,4.85l2.75.56L326,6.3l-3.75.18-4-.29-.37-.45H316L314.36,5l3.91-.45,2,.37,1.16-.48Z"/>
                <path id="PA" class="cls-3"
                      d="M129.18,165.7l-.26.34.41,1.41-.41.71-.67-.19-.33,1.16-.67-.67-.37-1.31.52-.63-.52-.15-.34-.78-1-.67-.89.15-.49.82-.89.59-.45.08-.22.52.93,1.3-.59.3-.3.33-1,.15-.29-1.45-.3.41-.67-.15L120,167l-.86-.18-.56-.26h-.89l-.07.52-.23-.37.12-.49.22-.48-.08-.41.34-.3-.41-.33,0-1,.82-.22.7.85-.07.52.82.11.22-.22.56.6,1-.19.93-.59,1.3-.49.74-.7,1.16.14-.08.23,1.16.07.89.45.67.7.74.67Z"/>
                <path id="PE" class="cls-1"
                      d="M144.5,196.65l-1.89-.11-.3.37-1.71.44L138.26,199l-.12,1.12-.52.81.26,1.31-1.26.67.07,1-.55.41,1,2.15,1.23,1.45L138,209l1.41.11.86,1.3,1.86,0,1.63-1.38,0,3.61,1,.26,1.19-.41,2,3.87-.41.78v1.71l.12,2-.71,1.19.45.89-.41.82,1.07,2L147,228.37l-.41,1.23-1,.59-2.2-1.37-.3-1-4.35-2.38-4-2.64L133,221.38l-1-2,.3-.71-2-3.12-2.38-4.39-2.23-4.76-.89-1.12-.75-1.74L122.26,202l-1.52-1,.63-1-1.11-2.31.63-1.67,1.63-1.49.26,1-.59.56.11.86.86-.19.85.26.93,1.23,1.15-1,.34-1.6,1.26-2.08,2.5-.93,2.26-2.53.64-1.52-.3-1.83.56-.22,1.41,1.12.67,1.15,1,.6,1.3,2.49,1.56.33,1.15-.63.78.41,1.27-.22,1.64,1.11-1.31,2.46.64,0,1.07,1.27Z"/>
                <path id="PL" class="cls-1"
                      d="M326.52,57.33l2.2.26,3.27,0,.93.26.52.71.22,1,.64.86.14.89-1,.48.71,1,.19,1,1.19,2-.12.64-.85.26-1.41,1.93.59,1-.41-.15-1.86-.89-1.3.33-.89-.22-1,.48-1-.81-.7.33-.12-.15-1-1.15L324,67.37l-.26-.75-1.26-.26-.23.6-1-.48.08-.64-1.38-.18-.93-.75-.89-1.45.07-.82-.56-1.22-.7-.78.44-.64-.52-1.15,1.16-.67,2.64-1,2.15-.74,1.79.37.22.56Z"/>
                <path id="PY" class="cls-1"
                      d="M171.28,234.58l.75,1.31.15,3.23,2.19.48.82-.48,1.45.67.44.71.41,2.19.3.89.78.12.75-.38.78.41.11,1.34-.11,1.42-.26,1.37-.11,2.08-1.6,1.86-1.57.38-2.34-.38-2.16-.63,1.57-3.64-.41-1-2.2-.93-2.71-1.79-1.71-.37-4.21-3.87.56-2.86-.07-1.31.78-2.08,3.57-.7,1.93,0,2,1.23.11.74Z"/>
                <path id="PS" class="cls-1" d="M363.12,109l.15,1.49-.23.71-.92.3,0-.64.49-.33-.56-.26.26-1.56.78.29Z"/>
                <path id="RO" class="cls-1"
                      d="M341,71.57l.59.26.67.67.75,1,1.26,1.41.22,1-.07,1,.48,1.08.9.44.85-.4.89.4.15.64-.85.48-.6-.22-.15,2.86L345,81.91l-1.49-.86-2.19.56-.86.6-2.82-.15-1.49-.34-.71.15-.67-1-.37-.41.37-.41-.48-.26-.56.52-1.15-.71-.26-1-1.19-.52-.3-.78-1.12-.89,1.45-.45,1-1.6.71-1.56,1.08-.48.74-.52,1.19.26H337l.93.59.6-.37,1.33-.22.38-.56Z"/>
                <path id="RW" class="cls-1"
                      d="M355.87,189.1l.82,1.34-.12,1.41-.59.3-1.15-.15-.64,1.37-1.3-.18.22-1.34.3-.19.08-1.41.59-.67.52.26,1.27-.74Z"/>
                <path id="EH" class="cls-1"
                      d="M274.08,120.37l0,.15,0,.44-.08,3.65-6.69-.15-.08,6.13-1.93.19-.56,1.23.34,3.46h-8.07l-.49.78.11-1h0l4.65-.18.26-.86.89-1.08.75-3.31,2.94-2.56,1-3,.67-.18.71-1.86,1.71-.26.74.33h.93l.67-.55,1.26-.08,0-1.26Z"/>
                <path id="SD" class="cls-1"
                      d="M367.84,151.94l-.26,2.05-.74,2.38-1.23,1.15-.85,1.86-.19,1-1,.67-.56,2.49v.3l-.29-.08,0-1.19-.29-.82-1.08-.93-.34-1.71.23-1.78-1-.15-.15.52-1.26.15.55.67.19,1.45-1.12,1.3-1,1.71-1.08.26-1.78-1.37-.78.48-.19.67-1.08.48-.07.49h-2.09l-.29-.49-1.53-.11-.74.41-.6-.19-1.08-1.41-.37-.63-1.52.33-.56,1.08-.48,2.16-.75.45-.63.26-.19-.12-.7-.7-.15-.75.3-1v-1L340,160.79l-.26-1v-.59l-.78-.71,0-1.38-.48-.93-.71.15.19-.89.52-1-.26-1,.67-.75-.45-.55.48-1.45.93-1.79,1.79.19-.41-9.49v-1h2.38l-.19-4.76h24.51l.78,2.34-.44.41.44,2.49.93,2.83.82.59,1.19.9-1,1.33-1.49.41-.63.75-.11,1.56-.75,3.53.26.93Z"/>
                <path id="SS" class="cls-1"
                      d="M363,163.81l.08,1.86-.3.7-1.11.08-.71,1.34,1.3.18,1.12,1.16.37,1,1,.56,1.3,2.6-1.42,1.57-1.26,1.41-1.3,1.12h-1.49l-1.67.55-1.34-.55-.86.66-1.89-1.59-.53-1-1.15.48-1-.14-.55.4-1-.29-1.3-2-.34-.75-1.6-1-.52-1.42-.89-1-1.45-1.23,0-.78-1.15-1-1.45-.93.63-.26.75-.45.48-2.16.56-1.08,1.52-.33.37.63,1.08,1.41.6.19.74-.41,1.53.11.29.49h2.09l.07-.49,1.08-.48.19-.67.78-.48,1.78,1.37,1.08-.26,1-1.71,1.12-1.3-.19-1.45-.55-.67,1.26-.15.15-.52,1,.15-.23,1.78.34,1.71,1.08.93.29.82,0,1.19.29.08Z"/>
                <path id="SN" class="cls-1"
                      d="M266.31,151.5l.07,1.48.41,1.38.75.67.18.89-.11.75-.3.15-1.15-.19-.15.26-.45,0-1.52-.56-1,0-3.87-.11-.56.3-.71-.08-1.11.38-.3-1.83,1.9,0,.52-.33h.37l.78-.56.89.48.9.08.93-.56-.41-.67-.71.37H261l-.82-.6-.67,0-.48.6-2.27,0-.86-1.86-1-.81.93-.49,1-1.67.52-1.23.74-.74,1,.18,1-.52h1.15l1,.67,1.33.63,1.27,1.79,1.34,1.64Z"/>
                <path id="SL" class="cls-1"
                      d="M270.21,166.34l-1,1.11-1,1.27-.11.7-.52.78-.56-.18-1.49-1-1.11-1.26-.34-.9-.26-1.74,1.15-1.08.23-.63.37-.53.59-.07.49-.45h1.67l.6.86.44,1-.07.71.33.63,0,.86.55-.11Z"/>
                <path id="SV" class="cls-1"
                      d="M108.06,154.43l-.26.56-1.23,0-.75-.23-.81-.48-1.12-.15-.56-.52.11-.34.75-.59.44-.26-.11-.3.52-.15.6.23.41.44.59.41,0,.3.93-.26.45.15.26.26-.26,1Z"/>
                <path id="RS" class="cls-1"
                      d="M334.74,80.91l-.41.52.26.89,1,1-.67.75-.22.74.22.3-.26.3-.89.07-.63.11-.11-.18.22-.26.15-.6-.26,0-.41-.45-.33-.11-.3-.37-.37-.15-.3-.34-.34.15-.18.78-.45.15.15-.18-.78-.49-.63-.26L328.9,83l-.52-.41.41-.11.19-1.08-1-.93.41-1-.7,0,.63-.9-.63-.67-.56-.93,1.37-.59,1.19.11,1.12.89.3.78,1.19.52.26,1,1.15.71.56-.52.48.26-.37.41.37.41Z"/>
                <path id="SR" class="cls-1"
                      d="M178.16,172.66l-1.15,2,.11,1.64.82,1.41-.41,1-.18,1.11-.56,1-1.19-.52-1,.26-.85-.23-.23.71.38.45-.23.52-1.15-.22-1.23-2.09-.26-1.34h-.67l-.89-1.71.41-1.26-.11-.56,1.3-.59.37-2.16,2.53.48.22-.44,1.71-.19,2.27.67Z"/>
                <path id="SK" class="cls-1"
                      d="M333.29,69.56l-.45.63-.26.93-.37.23-2-.71-.6.15-.37.56-.86.3-.22-.15-.85.33-.71.08-.11.48-1.53.26-.7-.22-1-.64L323,71l.11-.29.23-.53.81,0,.6-.22,0-.22.33-.12.08-.52.41-.11.26-.41h.55l.12.15.7-.33,1,.81,1-.48.89.22,1.3-.33,1.86.89Z"/>
                <path id="SI" class="cls-1"
                      d="M322.77,75.59l-1.45.63-.12.93-.63.26,0,.63-.75,0-.66-.38-.3.38-1.34-.08.41-.19-.52-1,.15-1.15,1.56.18.89-.55,1.64,0,.33-.41.3,0,.45.78Z"/>
                <path id="SE" class="cls-1"
                      d="M329.61,32.11l-2.6.6-1.31,1.45.49,1.3-2.31,1.67L321,39l-.78,3,1.38,1.53,1.78,1.23-1.23,2.45-1.71.52-.22,3.72-.78,2.12-2.12-.22-.82,1.78-2.05.11-.7-2.12-1.68-2.56-1.56-3.13.67-1.26,1.27-1.49.29-2.57L311.57,41l-.37-2.87.89-2,1.6,0,.48-.82-.66-.74,2.12-2.94,1.26-2.27.86-1.45h1.48l.23-1.15,3,.33,0-1.34,1-.07,2.23,1,2.68,1.38.67,3.16.67.82Z"/>
                <path id="SZ" class="cls-1"
                      d="M357,248.08l.22,1.08.11,1.08-.52,1-1.19.26-1.15-1.3,0-.82.64-.89.22-.71.63-.14,1,.4Z"/>
                <path id="SY" class="cls-1"
                      d="M369.33,106.68l-3.61,2.57-2.34-1h0l.23-.37-.15-1,.33-1.3,1-.93-.45-.93-.93-.11-.41-1.82.37-1,.49-.52.44-.52-.07-1.3.7.44,2.09-.67,1.11.45h1.64l2.12-.89,1.08,0,2.19-.38L374.35,99l-1,.6.44,1.74-.37,2.87-4.09,2.49Z"/>
                <path id="TD" class="cls-1"
                      d="M341.14,139.63l.41,9.49-1.79-.19-.93,1.79-.48,1.45.45.55-.67.75.26,1-.52,1-.19.89.71-.15.48.93,0,1.38.78.71v.59l-1.34.41-1,1-1.49,2.6-1.93,1.12-2.05-.15-.59.22.22.82-1.08.85-.89.93-2.64.9-.52-.52-.38-.08-.37.63-1.71.19.3-.67-.67-1.64-.3-1-.93-.41L321,163.58l.44-1.11,1,.22.6-.15h1.19L323,160.39l.07-1.6-.19-1.57-.85-1.52.22-1.15-1.37,0V153l-.9-.89.86-3.16,2.6-2.23.08-3.13.67-4.83.44-1-.89-.82,0-.74-.82-.64-.59-3.72,2-1.3,8.37,4.58,8.41,4.57Z"/>
                <path id="TG" class="cls-1"
                      d="M293.61,160.13l-.26,1.26.63.71.74.81.08,1.19.44.49-.11,5.5.52,1.64-1.67.52-.48-.86-.56-1.52-.19-1.19.49-2.12-.53-.89-.22-1.86v-1.75l-.85-1.23.14-.74,1.83,0Z"/>
                <path id="TN" class="cls-1"
                      d="M314.73,107.28l0,1.82-1,.67-.6.78-1.34.93.23,1-.15,1-1,.52-1-4.28-1.26-1,0-.55L307,106.75l-.22-1.78,1.19-1.34.41-2L308,99.39l.38-1.23,2.12-.93,1.37.26v1.23l1.64-.89.15.44-.93,1.19,0,1.08.71.6-.19,2.08-1.3,1.19.45,1.3,1,0,.52,1.15.78.38Z"/>
                <path class="cls-1"
                      d="M371.82,87.27l2.05-.12L376,88.34l.48.82,0,1.16,1.56.59.9.67-1.23.71L378.78,95l-.26.75,1.41,1.89-.89.41-.78-.59-2.35-.34-.78.37-2.19.38-1.08,0-2.12.89H368.1L367,98.27l-2.09.67-.7-.44.07,1.3-.44.52-.49.52-.85-1.08.63-.89-1.19.22-1.71-.55L359,99.91l-3,.26-1.75-1.26-2.12-.08-.37,1-1.34.3-2-1.27-2.16,0-1.41-2.38-1.57-1.3.75-1.86-1.34-1.15,1.89-2.27,3-.08.6-1.82,3.71.33L354,86.82l2.15-.67,3.17-.07L363,87.75l2.94.93,2.16-.37,1.71.22Z"/>
                <path class="cls-1"
                      d="M342.14,89l.45-.26.41-1.49-1-.63,1.86-.75,1.71.3.34.93,1.78.74-.26.6-2.3.11-.75.74-1.45,1.27-.74-1.08Z"/>
                <path id="TZ" class="cls-1"
                      d="M358.92,188.84l-.08,1.45-.41,1.67.6.93.93-.56,1.23-.15.26.3,1.22-.59-.85-.82.7-1.08,1.05-1.08,7.62,4.87.11,1.38,3,2.38-1,3,.11,1.33,1.31.86.07.63-.63,1.45.11.71-.15,1.15.67,1.49.82,2.38.74.52-1.71,1.38-2.3.93-1.27,0-.78.71-1.45.07-.56.3-2.49-.67-.82.07,0,0-.67-.9-.11-2.53-1.08-1.26-.15.45-.37-.64-2.05-.44-1.19-.71-1.34-.41-.81-.41-.12-.07-1-2.46-.15-1.45-1.67-1.63.52-.9-.41-1,.07-1-.37-.33.11-1,.23,0,.74-.86.86-1.26.52-.48v-.78l-.45-.56-.11-.93.59-.3.12-1.41-.82-1.34.74-.3,2.31,0Z"/>
                <path id="UG" class="cls-1"
                      d="M363.38,176.23l1,1.67.26,1.19,1,2.76-.78,1.74-1,1.57-.6,1v.11l-.07-.14L362,185.6l-.89.6-1.34.33-1,1.38.12.93-2.31,0-.74.3-1.27.74-.52-.26,0-1.78.48-.93.11-1.9.45-1.12.82-1.22.78-.67.71-.82-.86-.34.11-2.79.86-.66,1.34.55,1.67-.55h1.49l1.3-1.12Z"/>
                <path id="UA" class="cls-1"
                      d="M355.27,64.69l.86,1,0,.45,2.5.82,1.34-.37,1.33,1.08,1.08,0,2.87.74.15.71-.49,1.19.67,1.3-.11.78-1.79.15-.81.67.14,1-1.45.19-1.11.78-1.71.11-1.49.9.37,1.45,1,.55,1.9-.14-.22.85-2,.41L356,80.61l-1.16-.48.26-1.08-2.19-.71.26-.45,1.71-.78-.63-.52-3-.59-.29-.9-1.68.3-.48,1.3-1.23,1.71-.89-.4-.86.4-.89-.44.45-.26.22-.78.41-.78-.22-.41.37-.19.22.34,1.12.07.48-.19-.37-.22.07-.37-.74-.6-.41-1-.74-.38,0-.78-1-.63-.75-.11L342.63,71l-1.19.23-.41.33h-.78l-.38.56-1.33.22-.6.37-.93-.59h-1.19l-1.19-.26-.74.52-.19-.63-1.12-.64.26-.93.45-.63.41.15-.59-1,1.41-1.93.85-.26.12-.64-1.19-2,.85-.11.89-.59,1.42-.08,1.82.19,2.12.56,1.45,0,.71.34.63-.41.56.56,1.6-.11.78.22L347,63.28l.48-.52,1.52-.12.67.08.37-.52.56.11,1.83-.22,1.41,1.3-.34.48.3.71,1.45.11Z"/>
                <path id="UY" class="cls-1"
                      d="M185.12,267l-.6,1.52-2,1.3-1.56-.48-1,.26-2-1-1.34.08-1.45-1.34-.15-1.53.33-.52-.44-2.38.14-2.45.19-1.93,1.27-.27,2.34,1.86.71-.07,2.34,1.52,1.78,1.34,1.42,1.6-.67,1.16.78,1.33Z"/>
                <path id="VE" class="cls-3"
                      d="M166.15,166.41l-1.75,1.41-.18.86.67.89-.52.45-1.31.37v1.12l-.59.67,1.37,1.78.26.67-.78.93-2.38.89-1.52.37-.63.56-1.68-.59-1.52-.3-.41.22.93.6-.11,1.6.26,1.52,1.78.19.11.52-1.52.67-.26,1-.89.41-1.57.56-.41.74-1.63.15-1.15-1.26-.6-2.38-.56-.86-.74-.52,1.08-1.19-.08-.52-.55-.71-.41-1.6.22-1.71.48-.81.45-1.27-.74-.41-1.2.26-1.52-.11-.86.26-1.41-2.08-1.23-.3-2.71.22-.45-.81-.52-.19,0-.52.27-.89-.12-.93-.44-.56-.23-1.08-1.07-.15.67-1.41.33-1.71.67-.9.85-.67.6-1.19,1.38-.4-.08.55-1.26.3.63,1.08-.11,1.26-1,1.38.71,1.9.93-.15.56-1.75L142,162V160.2l2.67-1-.22-1.11.78-.78.63,1.71,1.49,0,1.27,1.31.07.81h1.86l2.27-.22,1.15,1,1.56.3,1.23-.74,0-.6,2.64-.15,2.49,0-1.82.71.67,1.15,1.67.15L164,164l.26,1.9,1.08,0,.82.56Z"/>
                <path id="ZM" class="cls-1"
                      d="M357.09,206.84l.12.07.81.41,1.34.41,1.19.71,1,1.08.48,2-.37.64-.48,1.93.33,2-.67.82-.74,2.23,1.08.59-6.4,2,.15,1.71-1.6.33-1.23.93-.29.82-.75.22-1.9,1.94-1.19,1.56-.7,0-.67-.27-2.31-.26-.37-.18v-.19l-.82-.56-1.34-.11-1.71.52-1.34-1.48-1.33-1.94.29-7.62,4.35,0-.14-.81.33-.9-.33-1.11.26-1.15-.23-.75.71,0,.11.74,1,0,1.31.22.7,1.08,1.64.33,1.3-.74.45,1.23,1.6.33.74,1,.82,1.3h1.6l-.08-2.56-.59.44-1.45-.93-.56-.44.34-2.38.4-2.83-.44-1,.63-1.53.56-.29,2.86-.41.34.11-.11.52.7.19.45.48.37-.11-.19-.41Z"/>
                <path id="ZW" class="cls-1"
                      d="M356.09,239.53l-1.08-.26-.71.3-1-.41h-.82l-1.26-1.08-1.6-.37-.56-1.53,0-.85-.86-.26L346,232.46l-.59-1.37-.41-.45-.71-1.9,2.31.26.67.27.7,0,1.2-1.56,1.89-1.94.75-.22.29-.82,1.23-.93,1.6-.33.07.89,1.75,0,1,.48.41.6,1,.19,1,.74-.14,3.05-.49,1.64-.15,1.78.3.71-.33,1.41-.3.22-.63,1.72-2.31,2.71Z"/>
                <path id="XK" class="cls-1"
                      d="M333.18,85.59l-.45.11-1.08.38,0,.48-.26,0-.23-.85-.48-.26-.45-.64.3-.52.45-.15.18-.78.34-.15.3.34.37.15.3.37.33.11.41.45.26,0-.15.6-.22.26.11.18Z"/>
                <path id="ZA" class="cls-1"
                      d="M356.09,239.53l.82,3.35.41,1.71-.52,2.64.15.85-1-.4-.63.14-.22.71-.64.89,0,.82,1.15,1.3,1.19-.26.52-1h1.52l-.63,1.75-.37,2-.63,1.08-1.49,1.23-.41.33-1,1.23-.66,1.23-1.31,1.71-2.49,2.45-1.52,1.41-1.6,1.12-2.2.89-1,.15-.34.67-1.19-.37-1,.45-2.12-.45-1.23.3-.82-.15-2.15,1-1.71.37-1.31.89-.89.07-.78-.85-.67,0-.82-1.08-.11.34-.22-.63.11-1.42-.56-1.6.67-.44,0-1.83-1.23-2.23-.89-2v0L325,254.63l1-1.19.75.67.29,1,.93.19,1.27.45,1.08-.19,1.86-1.23.4-8.81.53.37,1.11,2.27-.22,1.45.41.85,1.48-.26,1.05-1.07,1-.71.56-1.15,1-.52.86.26.92.67,1.68.11,1.34-.52.22-.75.45-1.15,1.11-.19.67-.89.75-1.6,1.93-1.78,3-1.75h.82l1,.41.71-.3,1.08.26Zm-7.55,19.79.41-.75,1.15-.37.41-.78.71-1.15-.63-.75-.82-.74-1,.52-1.15.93-1.19,1.49,1.38,1.86.74-.26Z"/>
                <path class="cls-1"
                      d="M168.53,311.39l2.23,5.05h1.86l1.12.08-.19.89-1.19.71-.89-.08-1.15-.18-1.57-.67-2-.34L164,315.59l-2.38-1.19-3.65-2.57,1.71.48,3.2,1.53,2.72.82.44-1-.11-1.57,1.26-1Z"/>
                <path class="cls-1"
                      d="M153.39,240.68l.34.6-.45,2.49-2.08,1.15.59,4-.29.78.74.93L151,252.1l-1,2.23-.34,2.2.63,2.3-.78,2.46,1.82,4.13.6.44.52,2.2-.59,2.3.52,2-1.12,1.56.6,2.16,1.22,2.34-.93.86.08,2.12.3,2.42,1.22,2.9-.63.48,1.38,2.72,1.15.89-.3,1,1,.45.52.89-.67.45L157,295l.41,3.09-.26,2,.67,1.19,0,1.45-1,1,1.15,2.42,1,.85,1.15-.15.71,1.72,1.3,1.33,4.5.3,1.82.37h-1.59l-.64.56-1.26.82.63,2.12-.71,0-2.34-.71-2.79-1.6-2.82-1.3-1.2-1.45-.11-1.34L154,306.18l-1.86-3.94L152,300l1.26-1.78-3.09-.71,1-2-.74-3.91,2.41.82-.67-4.87-1.48-.63.37,2.93-1.3-.33-.56-3.35-.75-4.39.41-1.63-1.22-2.31-.9-2.68.82-.11.22-3.83.45-3.83,0-3.53-1.23-3.61.22-2-.78-2.94.67-2.9-.33-4.61v-5l0-5.32-.55-3.9-.78-3.39,1-.59.41-1.23,1.19,1.64.44,1.71,1.19,1-.41,2.31,1.38,2.68,1.15,3.31Z"/>
                <path id="NL" class="cls-1"
                      d="M302.94,65.62l-1-.56-1.15-1-1.68.48-1.33-.18.93-.64,1.48-3.34,2.42-1,1.49.07.33.78-.33,2.09-.45.85h-1.08l.41,2.42Z"/>
                <path id="PT" class="cls-1"
                      d="M277.06,97.83l-.82.59-1-.33-1,.26.34-1.86L274.42,95l-.9-.22-.41-.9.19-1.56.82-.85.18-1,.45-1.41v-1l-.33-.85-.08-.82.71-.6.82-.33.44,1.15h1.12l.33-.3,1.16.08.48,1.19-.89.63-.11,1.86-.3.33L278,91.62l-.86.18.75,1.42-.6,1.56.67.71-.3.63-.74.89.15.82Z"/>
                <path class="cls-1" d="M332,57.55l-3.27,0-2.2-.26.26-1,2.35-.74L331,56l.82.34-.07.63Z"/>
                <path class="cls-1"
                      d="M378.18,22.55l-.82.15-5-.26-.85-.86-2.94-.52L367.81,20l1.3-.41-.6-1,2-1.64L369,16.68,371.52,15l-.93-.85,2.53-1L377,12l4.36-.34,1.86-.66,2.49-.23,1.56.71-.48.56L382.5,13l-3.69.85-3.23,1.79-1,1.86-1.23,1.86,1.15,1.6Z"/>
                <path class="cls-1"
                      d="M358.1,4.63l-1.6.18L355.42,5v.26l-1.34.26-1.67-.37.41-.52-2.9,0,2.34-.3h1.93l.56.41.48-.37,1-.26,2.15.33Z"/>
                <path id="ES" class="cls-1"
                      d="M288.1,82.84l.75.89,3.53,1.08.71-.52,2.15,1.08,2.2-.3.15,1.38L295.76,88l-2.45.52-.19.78-1.19,1.3-.74,1.94.74,1.37-1.11,1-.45,1.57-1.49.48-1.37,1.82-2.53,0-1.86,0-1.27.82-.78.89-1-.18-.71-.82-.52-1.34-1.82-.37-.15-.82.74-.89.3-.63-.67-.71.6-1.56-.75-1.42.86-.18.11-1.16.3-.33.11-1.86.89-.63-.48-1.19-1.16-.08-.33.3h-1.12l-.44-1.15-.82.33-.71.6.19-1.68-.75-1,2.76-1.71,2.3.41h2.57l2,.41,1.6-.15,3.08.11Z"/>
                <path class="cls-1" d="M310.08,85.82l-.55,1.82-.9-.49-.48-1.56.33-.89,1.19-.89Z"/>
                <path class="cls-3"
                      d="M302.16,68.56l.41.18.52,0,.89.59,2.68.45-.89,1.56L305.62,73l-.48.41-.86-.22.08.6L303,75.07v1.08l.89-.38.67,1,0,.67.56.89-.63.71.56,1.82,1,.3-.19,1-1.67,1.34-3.8-.63-2.75.78-.22,1.41-2.2.3-2.15-1.08-.71.52-3.53-1.08-.75-.89,1-1.41.37-4.69-1.9-2.45-1.37-1.19-2.83-.9-.15-1.71,2.42-.48,3.09.59L288.18,68l1.75,1,4.24-1.79.55-1.89,1.57-.49.29.82.82,0,.89.93,1.31,1.08.93-.19Z"/>
                <path class="cls-1"
                      d="M125.54,72.09l-2.27.75-1.75.93-1.71,1-.19.33,2.12-.48.78.78,1.71-.56,1.83-.78,2-.78-1.16,1.23.93.3.93.89,1.9-.52,1.9-.19.11.67.56.08.44.07.56.93-1.75.22h0l-1.37-.26-1.68.45-1.37.22-1.75,1.53-1.12.85.15.26,2-1.52h.26l-1.75,1.82L124.79,82l-.93,1.34-.22,1.15-.3.56-.22.63,0,1.23.11.18.67,0,.59-.26.52-.3,1.23-1.16.67-1.56,0-1.45.52-1,1-1.15.78-.82,1-.56-.15.78.81-1.15.49-.23.63-.89,1.41.48,1.05.9-.3,1.08-.6,1.07-1.41.93-.15.6h.37l1.6-1,.6.22-.19,1.37-.26,1-1.38,1.3L132,86l-1,.89,1,.49.93.15,1.49-.34,1.37-.63,1.12-.34,1.71-.66,2.16-1.42,0-.22.11-.71,1-.3,1.45.12,1.49.18,1.71-.78.22-.93-.07-.33,2.53-1.64,1-.41,2.9,0h3.46l.41-.55.63-.12.93-.37,1-1.08,1.19-1.82,2.05-1.75.41.6,1.38-.37.59.67-1.08,3.16.82,1.34.07.78-2.38,1.11-2.23.82-2.23.71-1.49,1.41-.48.52-.45,1.27.26,1.22.79.08.07-.86.41.52-.37.67-1.42.37-.93,0-1.56.41-.85.11L151,88l-1.86.71,3-.45.41.45-2.94.7h-1.23l.15-.29-.78.66.52.12-.93,1.71-2,1.82,0-.63-.4-.11-.45-.6v1.3l.37.41-.22.89-.89.93-1.68,1.9-.15-.07,1.08-1.64-.74-.89.37-2L142,94v1.53l-1.19-.38,1.12.75-.56,2.27.52.18v.82l-.37,2.38-1.71,1.75-2.27.71-1.64,1.41-1,.15-1.26.89-.49.78-2.56,1.56-1.42,1.16-1.3,1.41-.7,1.67v1.68l.22,2,.56,1.68-.19,1,.48,2.75-.37,1.64-.22.93-.74,1.45-.67.29-1-.29-.15-1-.67-.55-.74-2-.6-1.82-.15-.93.75-1.6-.3-1.3-1.15-2-.71-.37-2.27,1.11-.33-.15-.75-1.11-1.11-.6-2.38.34-1.71-.3-1.6.19-.93.37.22.63-.26,1,.3.48-.45.3-.67-.34-.85.45-1.45-.07-1.23-1.27-1.82.3-1.34-.56-1.31.19-1.85.56-2.27,1.74-2.27,1-1.38,1.12-.7,1.08-.38,1.67-.15,1.12.23.82-.82.07-1.34-.52-1.45-.74-.33-1.12-.08-1.67-.89-1.34-.34-1.42L87,116.24l-1.19-1-1.68.08-1.78,1.86-1.49-.71-.85-.71-.15-1.34-.3-1.22-.89-1-.78-.78-.49-.85H73.88l-.3,1H68l-4-1.67-2.6-1.15.33-.49L59,108.5l-2.34.19.11-1.19L56,106.12l-.82-.3,0-.66L54.13,105l-.45-.64-1.78-.22-.34-.41.3-1.3-.93-2.38-.19-3.31.34-.56-.49-.78-.55-2,.67-1.93-.34-1.3,1.45-2,1-2,.41-1.83,2-2.23L56.81,80l1.48-2.12,1.6-3.16.67-2,.15-1.08.52-.48,2.16.82L63,74.21l.81-.63.93-1.9.6-1.89h51l.48-.9h.64l-.34,1.27.37.37,1.23.15,1.71.37,1.45.71,1.64-.3Z"/>
                <path class="cls-1" d="M27.16,51.3l-2.6.86-.3-.6.86-1,2.38-.78,1.3-.34,1,.15v.71Z"/>
                <path class="cls-1" d="M12.66,45.13l-1.45.33-.63-.41-.3-.59,2.12-.37,1.11.22Z"/>
                <path class="cls-1"
                      d="M13.11,36.8l.44.37,1.3-.19.6.56,1.23.26-.45.26-1.82.45L13.77,38l-.11-.37-1.6.11L12,37.58Z"/>
                <path class="cls-1"
                      d="M77.37,24.52l-9.15,7.59L55,44.27l1.57.08,1,.59.18,1,.11,1.41,2.83-1.23,2.42-.7-.22,1.15.29.89.6,1L63.39,50l-.52,2.57L64.58,54l-1.19,1.41-1.9,1.08-.22-.82-.93-.74L61.57,53,61,51.15l1-2.08-1.53-.15-2.64,0-1.41-.67L55.17,46l-1.23-.41-2.12-.78-2.53.18-2.23-1-1-.93-2.35.44L42.41,45l-1.08.15-2.45.44-2.31.75-2.38.48,1.19-1.3,3.13-2.16L41,42.67l.15-.52-3.5,1.19-2.75,1.45-4.17,1.56.08,1.08L27.5,49l-2.87.93-2.45.7-1.49,1-3.94,1.15-1.67,1-3.05,1-1-.15-2.3.6L6.11,56l-2.27.74L.12,57.4.27,57l3.05-1,2.46-.71L9,54l2.41-.23,1.86-.93,3.87-1.34.86-.44,2.12-.78,2.15-1.68,2.31-1.3L21.85,48l-.12-.41-1.82.82.15-1.12-1.34.79.6-1.08-2.72.85h-1l1.38-1.3,1.22-.82L18,44.94l-2.67.45-.23-1-.48-.52,1.49-1.23L16,41.67l2.19-1.23L21,39.21l2-1.07L24.52,38l.67.33,2.64-1,.93.19,2.09-.67.93-1-.41-.37,2.23-.82-1,0-2.31.44-1.08.49-.67-.49-2.56.26-1.71-.52.44-.85-.37-1.19,3.42-.9,4.91-1h1.3l-1.6,1,3.42-.07.45-1.3-.85-.79.29-1-.26-.85-1.22-.63,2.41-1.08,2.79-.08,3.28-.89,1.78-1,2.94-1,1.78-.23,4.17-.89,1.15.15,3.87-1L60,21.7l-.19.89L61,22.22l2.34.11-.71.44,1.83.34,1.82-.19,2.31.6,2.67.22.82.23,2.46-.3,1.52.59Z"/>
                <path id="GF" class="cls-1"
                      d="M176.79,180.88l.56-1,.18-1.08.37-1-.78-1.41L177,174.7l1.15-2,.71.26,1.52.56,2.2,2,.3,1-1.27,2.2-.67,1.74-.82.93-1,.15-.3-.67-.48-.07-.63.63-.93-.48Z"/>
                <path id="AW" class="cls-1" d="M145.4,156.7l-.19-.07-.18-.19,0-.22.08.11.15.15.11.19v0Z"/>
                <path id="AI" class="cls-1" d="M160.76,142.91h-.08l.11-.15h.12l-.08.11-.07,0Z"/>
                <path class="cls-1" d="M163.17,145.51l.23.11-.08.11h-.07l-.26,0-.08,0v-.18l.12,0,0-.11h.08Z"/>
                <path class="cls-1" d="M163.17,144.13h.08l.07.08,0,.15,0,.11-.07,0,0-.07-.11-.07v-.19Z"/>
                <path id="BH" class="cls-1"
                      d="M395,123.71l.11,0,.08,0,.14.26,0,.08,0,.33v.26l-.07.15,0-.15-.22-.29,0-.15-.08-.26v-.15l0-.08Z"/>
                <path class="cls-1"
                      d="M140.75,135.88l-.15.18-.08.19-.22.11h-.18l0,0-.15.08-.19,0-.22-.07-.15,0,0-.19.12-.07.07-.12.15-.07.11-.15h.15l.11-.07.08.11.18.07.19-.07.26-.37h.11v.07Z"/>
                <path class="cls-1" d="M140.82,135.24l-.07-.22.22-.11.11.11v.07l-.11,0Z"/>
                <path class="cls-1"
                      d="M141,132.83l.08,0,.18.11h.15l.15,0,.11.07v.11l-.07,0-.19-.15h-.15l0,0-.18.08-.19-.08v0l.08-.19Z"/>
                <path class="cls-1"
                      d="M139.52,132.16l-.07.15v.26l0,.14-.15.12-.07.14-.15.12-.26.11,0,.07-.07-.07,0-.08.15,0,.08-.08v-.07l.14,0,.08-.15.15,0,.11-.14-.08-.12h-.14l-.08-.07.15-.19,0,0Z"/>
                <path class="cls-1"
                      d="M138.81,132.05l0,0H139l.15.08-.15.15,0-.08h-.07l-.15,0-.15-.07-.11-.22.11,0,.15,0Z"/>
                <path class="cls-1" d="M135.39,129.85l.23.26.11.08.11.18-.11,0,0-.07-.11,0-.15-.15-.07,0-.08-.15Z"/>
                <path class="cls-1"
                      d="M136.77,129.85l.11.22.07.19v.15l.08.07.07.26v.34l.08.11.18.07.15.23v.29l-.15-.26v-.07l-.11-.15-.22-.07.07-.08L137,131v-.11l.08-.11,0-.19-.11-.15,0,0-.11-.15,0-.23-.08,0Z"/>
                <path class="cls-1" d="M137.85,129.85l-.11.08-.12,0,0-.08.22-.07Z"/>
                <path class="cls-1" d="M134.8,129.14l0,0-.11-.26h.07Z"/>
                <path class="cls-1" d="M138.7,129l-.15.22h-.15l.08-.11,0-.22.15-.11,0,.14Z"/>
                <path class="cls-1" d="M131.82,128.51l-.11,0-.07.11-.12,0,.23-.15Z"/>
                <path class="cls-1"
                      d="M131.9,128.77l.15.08.07-.08,0-.18.07,0,.08.22V129l0,.11,0,.22v.11l-.15.3-.08,0-.15-.08.08-.11.15-.07,0,0-.22.15-.08-.07.15-.12h-.15l-.07,0-.08-.07v-.26l0-.08-.15-.18v-.08l.15-.07,0-.11.11,0,0-.08.22-.11,0,.15-.19.15Z"/>
                <path class="cls-1"
                      d="M136.92,128.55l0,.19-.07,0-.19,0-.14,0,0-.07.11-.08.15-.11v-.07l-.15-.08-.07-.22,0-.22-.15-.15v-.08l-.19-.18.12-.11.14.14v.19l.08.11,0,.19.11.18.15.12,0,.11Z"/>
                <path class="cls-1" d="M133.09,126.5l.11.08-.23.11-.11,0-.07.08-.19,0,.08-.11.15-.08Z"/>
                <path class="cls-1"
                      d="M131.52,126.32l.15-.08.11.11,0,.08,0,.07-.07.15.11.11.08.34.07.11.15.19-.07.26,0,.22L132,128l-.11,0-.15.15-.11.07h-.12l-.11.08h-.11v-.15l-.11-.08,0-.22-.11.11-.08,0-.22-.14-.11-.12-.08-.11.26-.11.19.26,0-.22-.12,0,0-.11,0-.11.23-.23.07-.14,0,0,.12-.15v-.19l-.08-.26,0,0h.11Z"/>
                <path class="cls-1"
                      d="M134.54,125.35l0,.07.12.15.29.26.19,0,0,0,.07.15.11.15.19.14v.08l-.08.3,0,.07v.11l0,.19-.07.11,0,.26,0,0-.07-.23-.15-.11,0-.07.19,0,.08-.08,0-.07,0-.15.11-.15,0-.19v-.11l-.18-.15-.15-.26-.11-.07-.23-.11-.11-.11-.22-.08-.15.08.15-.34Z"/>
                <path class="cls-1"
                      d="M131.26,122.56l.19.08h0l.26,0,.07-.07.08,0h.18l.15-.08h.15l.11-.07,0,.18,0,.08h-.26l-.41.07h-.11l-.56.15-.26.15h-.15l-.07,0-.11-.11-.19-.22.22.11,0,.07h.19l.18-.07.15-.22-.11,0,.08-.11,0-.11Z"/>
                <path class="cls-1"
                      d="M132.86,122.08l.3.07.08,0,.14.12.34.37.07.22.15,0,.26.18v.08l-.07.19.07.26h-.15l-.18.14,0,.08-.11.37,0,.34-.07.07-.11-.07,0-.15-.15,0,.11-.19h.08l.18-.15,0-.14.08-.15v-.11l.07-.12v-.22l.08,0,.07-.11,0-.11-.11,0-.19,0,0-.12v-.07l-.14-.07v-.12l-.12-.26-.07,0-.11,0-.19,0h-.11l-.22-.15Z"/>
                <path id="BL" class="cls-1" d="M161.13,143.69l0-.12.11,0-.07.08Z"/>
                <path id="BM" class="cls-1" d="M161.91,109.1h-.11l0,0,0,.08-.15.07,0,0,.08,0h0l0-.11.11,0,0,0Z"/>
                <path id="BB" class="cls-1"
                      d="M167.19,155.22l-.22-.08,0-.18v-.3l.08-.15.07.07.07.23.19.11,0,.15-.19.15Z"/>
                <path class="cls-1" d="M383.54,216l-.34,0-.07-.15v-.11l.18,0,.26.19Z"/>
                <path class="cls-1"
                      d="M384.91,215.24l.08.38v.26l0,.07-.07-.11-.15-.11,0-.08-.11,0-.22-.15,0,0,.19.07.11,0,.08-.15v-.08l.11,0Z"/>
                <path class="cls-1"
                      d="M382.79,214.87l-.18-.15-.11,0-.12-.08-.07-.22,0-.11v-.08l.07-.44,0,0,.08-.15.19,0,.07.11-.07.45,0,.11.08.15,0,.19.08.22Z"/>
                <path class="cls-1" d="M240.2,150.94l-.07.11-.08-.07v-.12l.11,0Z"/>
                <path class="cls-1" d="M240.91,151l-.08,0-.15,0-.11-.12,0-.11.08-.15.18-.11h.15l.08.26,0,.15Z"/>
                <path class="cls-1"
                      d="M242.21,149.82l.07,0v.07l.08.08.15.18h.07l.07.12.08.18.07.08-.11.18-.11,0-.19,0-.11,0-.11-.12v-.07l-.07,0,0-.15,0-.07v-.11l.07-.15-.07-.19Z"/>
                <path class="cls-1" d="M243.36,149.82l.11,0,0,.22,0,.15-.15.08-.15-.15.08-.15,0-.08Z"/>
                <path class="cls-1"
                      d="M244.1,147.7l.12-.07.18.07,0,.08V148l-.15.11-.11.07h-.11l-.19-.07V148l.08-.07v-.22l0,0Z"/>
                <path class="cls-1"
                      d="M241.13,146.66l.15,0,.11.08h.15l.11.07,0,.08h-.19l-.26-.11-.07,0-.12.23-.11-.23,0,0,0-.15.11,0Z"/>
                <path class="cls-1" d="M244,146.48l0,0,0,.23-.07,0v-.18l-.08-.11v-.12l0-.11.15-.11.08.08,0,.22Z"/>
                <path class="cls-1" d="M239.83,146l.07.11,0,.12-.26.11-.11-.08-.08-.07.15-.15Z"/>
                <path class="cls-1"
                      d="M239.53,145.32l.11,0v.07l.11.12-.07.14-.22.12-.15.14-.26,0v-.22l-.08-.08v-.07l.08-.07h.07l.08-.08.26-.15Z"/>
                <path id="CW" class="cls-1"
                      d="M147.67,157.63h-.12l-.14-.11-.12,0-.11-.11,0-.07-.12,0-.07-.15-.11-.11,0-.18.19.11,0,.18.15.15.26.08.07.11.11.15,0,0Z"/>
                <path class="cls-1" d="M123,140.26l.11,0,.07-.15.15,0h.19l0,.07-.08.08-.07,0-.15,0-.08,0h-.26Z"/>
                <path class="cls-1" d="M126,139.33l-.26.12.07-.12Z"/>
                <path class="cls-1" d="M126.24,139.37l0,0,.29-.11-.07.11Z"/>
                <path class="cls-1" d="M359.36,102.66l0,.08.11.15-.15,0h-.11l-.15.07-.11-.11v-.11l.11,0,.08,0Z"/>
                <path class="cls-1"
                      d="M358.73,102.85v0l-.07.07,0,.22,0,.08h-.11l-.07.07-.19.08-.07,0-.23.12-.15,0-.18,0-.11.14-.08-.11-.11,0h-.07l-.12-.11-.14.11h-.19l-.19-.07-.18,0-.15-.11-.11-.23-.11-.11-.08-.26-.07-.11,0-.11.19.11.15,0,.07-.11,0-.11.11,0,.08,0,.07-.07h.08l0,.14.19.08,0,.07h.22l.22-.18.15,0,.11-.07.11,0,.15.07.08-.11h.11l.11.15v.22l.11-.07.11.07,0,0Z"/>
                <path id="DM" class="cls-1"
                      d="M163.66,149.15l.18,0,.08.19v.22l0,.3,0,.07-.07,0-.15.07,0-.15,0-.07,0-.26-.11-.19v-.11l0-.11v-.11h.07l.08.07Z"/>
                <path class="cls-1" d="M184.26,310.75l.15,0v.14l-.3-.11.12-.11.07,0Z"/>
                <path class="cls-1" d="M184,310.23l.08.08.15,0,0,.15-.11,0,0-.15-.07-.07Z"/>
                <path class="cls-1" d="M186.31,309.93l.07,0,0,.15-.12,0-.07-.11.11-.07Z"/>
                <path class="cls-1"
                      d="M181.81,309.6v.07l0,.12-.15,0-.12,0-.07-.08-.11,0,0-.14h.08l0-.08.11,0,.08,0-.11.11.11,0,.11-.11Z"/>
                <path class="cls-1"
                      d="M182.89,309.12l-.15-.08-.19-.11-.3-.11,0-.15-.26,0-.11,0-.11-.15.07,0,.3.11.3.15.18,0,.15,0,.11-.11,0-.11.08,0,.14-.08,0,.08h.19v.11h.11l.33-.07,0,.07H184l.15,0-.11-.07,0-.11h.15l.22.07,0,.15-.15.19,0,.11-.07.07h-.15l-.11.3-.12.11-.11.22,0,.12-.18.11,0-.08h-.15v.11l-.29,0,0,0,.11.15,0,0-.07.15h-.15l-.11.15-.11,0h-.08l-.07-.12-.15-.11v-.07h-.19l.23.15h-.15l-.19-.12-.07,0-.15-.08-.11-.07v-.08l.26.08.22-.08-.19-.07,0,0h.33l.15,0,.11.07v-.07l.15,0,0-.11-.15-.07-.08-.19,0-.07h.23l.07,0,.15,0,0-.11h-.3v0l-.15.08h-.22l-.18-.11v-.12l.26.08.22-.08h.11l.19,0,.15.07v0Z"/>
                <path class="cls-1" d="M183.48,308.41h.11l.11.11-.11,0h-.11Z"/>
                <path class="cls-1" d="M183.11,308.41H183l0-.11.15,0Z"/>
                <path class="cls-1"
                      d="M182.59,308.34l.22,0,.08.11-.11.15-.08,0-.11,0-.11-.08.11-.07.11.07,0-.07-.19,0Z"/>
                <path class="cls-1"
                      d="M185.27,308.37h.22l0,0,.18,0,.15.07.15.11,0,.12v0l-.19,0-.07-.11-.08,0,0,.11.07,0,0,.11.11-.07.07,0,0,.15.11,0,0,0,.19.11,0-.14-.29-.08,0-.18.11-.08.56,0,.26.23.08,0v.15l-.23,0-.18-.08-.23.08.12.07.14,0,.34,0,.11,0,0,.08-.08.18H187l0,0-.26,0-.19.07.12.08-.34.14-.15,0-.18,0h-.26l-.23-.07-.22-.15v.11l.11.08.22.07.12.11.07,0,.15,0,.15.11-.08,0,.08.19H186l-.11-.11-.15,0-.18.15-.08-.11-.11-.08h-.11l-.19-.07-.07,0,.07.15h.12l.07.08-.07,0,.26.23-.08,0-.15-.08h-.11l-.11-.11-.11,0-.11,0,0,.23.19,0v.11l0,.07-.15,0,0-.07-.18-.07,0-.08h-.08l-.14-.19.11-.14V310l-.15-.18v-.08l.18-.07,0-.08.18,0,0-.12.22-.14.22-.08.15.15v.15l.11,0-.18-.22,0-.11-.22-.08-.15-.11,0-.07.15.07,0-.19-.27-.07,0-.11.08,0,.11-.08H185l.07-.11-.11-.11h.15Z"/>
                <path class="cls-1" d="M183.41,308.22h.26l.07.08.08-.08.07,0,.08.11-.08,0-.15,0-.15-.07-.29,0,0-.07Z"/>
                <path class="cls-1" d="M180.88,307.81l-.19,0,0-.08Z"/>
                <path class="cls-1"
                      d="M280.29,41.41l.15.07h.11l0,.08v.15l.07.11,0,.07-.23-.15-.07-.15-.07-.07-.08-.11Z"/>
                <path class="cls-1" d="M280.4,40.81l.3.08.08.07,0,.15,0,0-.15-.19-.18,0-.08-.14Z"/>
                <path class="cls-1"
                      d="M279.93,40.31l0,.06h.11v.11h-.15l-.07.07-.23-.07-.07,0-.08-.11.19,0,0,0,.2,0-.09-.07.07-.3.19,0,.11.18v0l.22.08.12.18.11.08,0,.22-.19-.15-.07-.07-.07,0,0-.08-.08-.07H280Z"/>
                <path class="cls-1" d="M281.3,40.07l-.08-.08.11-.07Z"/>
                <path class="cls-1"
                      d="M280.4,40.26l-.14-.08-.12-.11,0-.11,0,0,.15,0h.11l.23.15,0,.08,0,.07.22.08v.07l-.15.11Z"/>
                <path class="cls-1" d="M281.22,40l-.11.15-.11-.07h-.11L281,40l0-.14,0,0L281,40Z"/>
                <path class="cls-1" d="M280.89,40h-.08l-.07-.15,0-.11.07.15Z"/>
                <path id="GD" class="cls-1" d="M162.62,157.63l-.15.11-.08,0,0-.19.07-.18.11-.15h.11l0,.11,0,.26Z"/>
                <path class="cls-1" d="M161.54,145.55h-.11l0-.08.07-.15h.08l0,.08Z"/>
                <path class="cls-1" d="M161.28,145l0,.11h-.07L161,145l-.08-.08.11-.15.19.15Z"/>
                <path id="LC" class="cls-1"
                      d="M164.29,153.65l-.07-.07-.15-.08,0-.07v-.22l0-.08.26-.41.11.08v.26l0,.3,0,.14-.08.15Z"/>
                <path id="MF" class="cls-1" d="M160.76,143.31l-.15,0,.07-.11.11,0Z"/>
                <path class="cls-1" d="M320.57,100.8l-.07.12-.19-.08-.18-.11v-.19l0,0h.22l.15.11.07.07Z"/>
                <path class="cls-1" d="M320,100.39l-.19,0v-.08l.15,0,.15.11Z"/>
                <path id="MS" class="cls-1" d="M162.25,146.25l.07.15v.11l-.07.08-.08,0,0-.11Z"/>
                <path class="cls-1" d="M150.68,143.28l-.11-.08,0-.07h.12l0,0Z"/>
                <path class="cls-1" d="M156.11,143.09H156l-.33.11h-.22l.07-.07.15-.08.15,0,.22,0Z"/>
                <path class="cls-1"
                      d="M152.58,142.2l.22,0H153l.11,0,.23,0,.11,0,.15,0,.07,0,.19,0,.15,0h.11l.29.08v-.08l.23.08,0,0,.29,0,.08.07h.07l.22.11.08,0,0,.26.08.11-.34.11-.11.15-.11.22-.11.08-.11,0h-.15l-.23,0-.11.07-.26,0-.07-.08-.19.08-.11-.11-.26.07-.34,0-.11,0-.22,0-.07,0-.08-.07-.15,0-.11.08-.22,0,.11-.26v-.15l.07-.15-.07-.22-.08,0,0-.15.15-.07.07,0v-.18l.15-.08Z"/>
                <path class="cls-1"
                      d="M305.69,186.2h-.07l-.07.11h-.08l0-.15-.07-.3v-.11l.15-.19.11,0,.11-.11.15,0,.08.15,0,.11,0,.15-.08.11-.11.15Z"/>
                <path class="cls-1" d="M307.41,182.55l0,.11-.08,0-.11,0v-.11l.08,0v-.11l.07-.07.11,0Z"/>
                <path id="SX" class="cls-1" d="M160.76,143.31v0l-.15,0v0Z"/>
                <path class="cls-1" d="M389.41,208.81l-.11.07h-.18L389,209h-.15v-.08H389l.15,0,.15-.11h.08Z"/>
                <path class="cls-1" d="M389.23,208.7l-.08,0H389v-.08Z"/>
                <path class="cls-1" d="M143.46,134.24h.26l.12.15h-.12l-.11,0-.18,0,0-.11Z"/>
                <path class="cls-1" d="M142.46,134.2l.11.15.22,0-.07.08h-.22l-.15-.08Z"/>
                <path class="cls-1" d="M143.28,134v.19l-.19-.08,0-.11,0,0Z"/>
                <path class="cls-1"
                      d="M164,160.5l-.08.18-.11.15-.07,0,0,.15.07.22-.07,0v.26l.07.11.08.07-.08.08,0,.11v.26l-.08,0-.15.07-.18,0h-.12l-.18,0-.19,0-.15,0-.11,0-.18.07-.15-.07H162l-.11.07-.11,0,.19-.08.11-.11.15,0,.15-.11.07-.11.22,0,.12-.15-.08-.3.08-.15v-.26l-.12-.15-.11,0-.15,0,0,0,.15-.11.4,0,.08-.07h.41l0,0,.44-.07Z"/>
                <path class="cls-1" d="M164.85,159.31l0,.18-.11,0-.15.11h-.07l-.26.15-.08-.07.11-.12.26-.18Z"/>
                <path id="VC" class="cls-1" d="M163.73,155l0,0-.19-.11v-.15l.07-.11.08-.19h.15l0,.15,0,.3-.08.07Z"/>
                <path id="VG" class="cls-1" d="M157.74,142.35l-.14.07h0l-.11.08,0,0,0-.11.22,0,.07,0Z"/>
                <path class="cls-1" d="M157.15,144l.11.12-.41.07,0-.19.26-.07Z"/>
                <path class="cls-1" d="M157.41,142.57l-.07.07h-.19v-.07l.11,0Z"/>
                <path class="cls-1" d="M156.89,142.5l.15.11-.08.07-.11-.07h-.18l.07-.08Z"/>
                <path id="BQBO" class="cls-1"
                      d="M148.78,157.67h-.07l0-.19,0-.11,0-.11-.15,0-.11-.11,0-.11.44.22,0,.08v.15l-.08.07v.15Z"/>
                <path id="BQSE" class="cls-1" d="M160.79,144.65l-.07,0v-.07l0,0,0,.07Z"/>
                <path id="BQSA" class="cls-1" d="M160.24,144.32h0l0-.08,0,0Z"/>
                <path id="MQ" class="cls-1"
                      d="M164.4,151.09v.07l.15,0-.07.19.07.07v.08l.08.07.07.34-.11.11,0-.15,0,0-.22,0h-.15l-.07-.11.22-.19h-.15l-.15-.15,0-.18-.08-.19.11-.15.15,0,.19.11.07.08Z"/>
                <path class="cls-1"
                      d="M255.3,120l-.11.19-.15.18-.11-.14h-.15l-.08-.08.08-.11.15,0,.15-.15.11-.08.07,0Z"/>
                <path class="cls-1"
                      d="M260.36,119.18v.18l.07.15-.07.26,0,.11-.14.15-.19.08-.07.07-.23-.07-.18-.19-.08-.15v-.22l.23-.15,0-.19v-.07l.23,0h.14l.12,0Z"/>
                <path class="cls-1" d="M256.68,119.47h-.08l-.11-.07-.07-.11,0-.15,0-.11h.22l.19.15,0,.11-.19.18Z"/>
                <path class="cls-1"
                      d="M258.94,118.17v.08l-.22.11-.15.18-.11.08v.15l-.15.26,0,.15-.18.22,0,.07H258l-.23.08,0,0,0-.15-.11-.15,0-.07-.07-.11v-.11l-.15-.23.18-.11.12.08.22-.08H258l.18-.07.19-.15v-.08l.22-.11h.23l.11,0Z"/>
                <path class="cls-1"
                      d="M262.74,119.21l-.11.15-.15,0-.11,0h-.15v-.07h.11l.22-.08.15-.11.11-.11,0-.19,0-.11.07-.18.11-.15.11-.22.08-.3.07-.08.15,0,.11.11,0,.18,0,.19,0,.19v.18l0,0-.11.26-.11.11-.23,0-.26.11Z"/>
                <path class="cls-1"
                      d="M255.45,117.54l.11,0,.07.11.08.19-.08.11,0,.15-.22.37,0,0,0-.15-.14-.34,0-.11,0-.07.08-.15.11-.08Z"/>
                <path class="cls-1"
                      d="M264.41,116.8V117l-.07.18-.26.19-.19,0-.15.19-.18-.07v0l.07-.15v-.15l.07-.11.12-.07h.11l.11-.12h.19l0,0,.08-.19.07,0,.08.08Z"/>
                <path id="YT" class="cls-1"
                      d="M386.14,216.62l.08.11.18.08v.11l-.07.07,0,.08-.11.22,0,.07-.11,0-.08-.11v-.11l.08-.08-.08-.26,0,0,0-.08Z"/>
                <path class="cls-1" d="M164,148.48h-.11l-.08-.14,0-.08.11-.11.11.07,0,.12v.07Z"/>
                <path class="cls-1"
                      d="M163.36,147.52h.11v.11l-.07,0v.44l-.08.08-.22.11v-.08l-.07-.07,0-.19v-.18l0-.19v-.11l.08-.11.11,0,.18.11Z"/>
                <path class="cls-1"
                      d="M163.88,147.37l.15,0,.19.14-.49.12-.11,0-.15-.11,0-.22.07,0,0-.22,0-.08.12-.07.11.15v.15Z"/>
                <rect id="_1" data-name="1" class="cls-1" x="175.37" y="269.06"/>
                <polygon class="cls-1" points="392.62 23.12 392.62 20.77 391.57 21.92 391.98 22.55 392.62 23.12"/>
                <polygon class="cls-1"
                         points="392.62 26.05 390.94 25.49 388.48 24.86 383.65 24.26 383.2 24.93 385.43 26.09 384.39 27.42 382.01 26.2 380.15 27.05 377.29 27.09 376.51 27.8 374.5 27.57 375.43 26.34 374.24 26.27 369.63 27.98 366.76 28.99 366.91 30.29 364.68 30.73 363.16 30.03 362.71 28.87 364.61 28.61 363.27 27.5 358.69 26.83 360.29 28.09 360 29.32 361.74 30.55 361.33 31.96 359.62 31.25 358.1 31.14 355.09 33.15 356.69 34.71 355.5 35.23 351.18 33.9 350.4 34.71 351.66 35.61 351.74 36.65 350.32 36.09 348.06 35.46 347.35 33.3 346.98 32.33 343.96 30.81 345.04 30.55 352.56 32.11 354.97 31.55 356.35 30.47 355.79 29.1 354.27 28.13 347.69 25.82 343.33 25.34 340.47 24.15 339.09 24.86 336.71 25.64 335.52 25.82 335.67 27.24 338.39 28.61 337.31 30.18 339.73 32.52 339.09 34.3 340.92 35.87 340.58 37.28 343.33 38.73 343 39.81 341.73 41.07 338.76 43.83 340.77 44.87 339.09 46.09 339.43 46.47 338.46 47.73 339.35 49.81 338.76 50.52 339.69 51 340.06 52.08 340.84 53.42 342.81 53.98 343.15 54.54 344.04 54.28 345.82 54.8 346.23 55.88 345.97 56.47 347.39 57.96 348.17 58.37 348.17 58.78 349.43 59.19 350.06 59.78 349.47 60.26 348.02 60.19 347.72 60.41 348.28 61.16 349.02 62.65 349.69 62.72 350.06 62.2 350.62 62.31 352.44 62.09 353.86 63.39 353.52 63.87 353.82 64.58 355.27 64.69 356.13 65.69 356.16 66.14 358.66 66.96 360 66.59 361.33 67.67 362.41 67.63 365.28 68.37 365.43 69.08 364.94 70.27 365.61 71.57 365.5 72.35 363.71 72.5 362.9 73.17 363.05 74.17 364.64 73.8 364.79 74.32 362.23 75.29 363.45 76.22 362.26 78.15 360.93 78.53 362.82 79.9 365.13 80.79 367.95 82.8 368.1 82.5 369.81 82.91 372.68 83.29 375.5 84.44 375.95 84.89 377.03 84.51 378.93 85 379.71 85.96 381.05 86.52 381.6 86.6 383.2 88.01 384.1 88.2 384.32 87.6 385.25 86.63 382.53 83.84 382.38 82.28 380.15 80.01 381.49 77.6 383.2 77.22 383.72 75.85 382.68 75.44 382.61 74.25 381.01 72.69 379.67 72.76 377.7 71.2 378.33 69.41 377.66 68.97 378.48 66.4 380.71 67.74 380.49 66.07 383.5 63.58 386.33 63.5 390.79 65.1 392.62 65.79 392.62 26.05"/>
                <polygon class="cls-1"
                         points="378.52 95.75 379.93 97.64 381.68 100.47 383.09 101.21 383.43 102.59 382.57 103.41 382.38 105.27 384.1 107.54 386.74 108.88 388.04 110.66 387.96 112.41 388.6 112.41 388.78 113.67 390.08 114.94 390.72 114.01 392.09 114.79 392.62 114.6 392.62 98.44 392.02 98.35 390.42 97.16 388.45 96.68 387.52 94.89 387.03 95.04 385.58 93.78 386.03 92.62 385.32 91.92 384.62 92.1 382.64 93.85 381.98 93.92 380.56 93.59 379.37 92.51 378.93 91.58 377.7 92.29 378.78 95 378.52 95.75"/>
            </g>
        </g>
    </g>
</svg>