<?xml version="1.0" encoding="utf-8" ?>
<svg version="1.1" id="Layer_1"
  xmlns="http://www.w3.org/2000/svg"
  xmlns:xlink="http://www.w3.org/1999/xlink" x="0px" y="0px" viewBox="0 0 559.5 422.9" style="enable-background:new 0 0 559.5 422.9;" xml:space="preserve">
  <style type="text/css">
	.st0{fill:#84A6A5;stroke:#405462;stroke-miterlimit:10;enable-background:new    ;}
	.st1{fill:#D06C60;stroke:#405462;stroke-miterlimit:10;enable-background:new    ;}
  </style>
  <g id="mapa_00000019666463292015884620000006551647653871212182_">
    <g id="NorteAmerica">
      <path class="st0" d="M229.6,99.4l1.6,0.4h2.4L232,101l-1,0.2l-2.8-1.4l-0.2-1l1.2-1L229.6,99.4z" />
      <path class="st0" d="M236.6,91.6h-1.2l-2.8-1l-1.8-1.4l1-0.2l2.8,0.8l2,1.2V91.6z" />
      <path class="st0" d="M84.8,93.4l-1.6,0.4l-3-1.4v-1l-1.4-1l0.2-0.8L76.7,89l0.2-1.6l0.8-0.6l2,0.6l1.2,0.4l2,0.2v1l0.2,1.4
			l1.6,1.2L84.8,93.4z" />
      <path class="st0" d="M252.1,86.8l-2.4,2.6l2-1l1.4,0.6l-1.2,1l1.8,0.8l1.4-0.8l2.2,1l-1.4,2.2l1.8-0.6l-0.2,1.6l0.2,2l-1.8,2.8
			h-1.2l-1.4-0.6l1.2-2.6l-0.6-0.4l-3.6,2.6h-1.4l2.2-1.4l-2.2-0.8L246,96h-4.8v-0.8L243,94l-0.8-0.8l2.6-1.8l4-4.8l2-1.8l2.4-1h1
			l-0.8,0.8L252.1,86.8z" />
      <path class="st0" d="M74.3,76.1l0.8,0.4l2.4-0.2l-3.6,3.4l0.2,2.4h-1l-0.4-1.4l0.2-1.4l-0.4-1l0.6-1.4L74.3,76.1z" />
      <path class="st0" d="M214.3,52.8l-1.8,1.4l-0.8-0.2v-0.8l0.2-0.2l1.4-0.8h0.8L214.3,52.8z" />
      <path class="st0" d="M209.5,51.2l-3.6,1.6h-1.4V52l2.4-1.4h3L209.5,51.2z" />
      <path class="st0" d="M207.8,42.9l-0.4,1.2l1.4-0.4l0.8,0.8l1.8,1l1.8,0.8l-0.6,1.4l1.8-0.2l1,1l-2.4,0.8l-2.8-0.6l-0.4-1.2l-3,1.6
			l-4,1.4l0.4-1.6l-3,0.2l2.8-1.4l1.8-2.2l2.6-2.6H207.8z" />
      <path class="st0" d="M230.2,38.7l-2.4,0.2l0.4-1.4l1.8-1.6l2-0.2l1.2,0.8l-0.8,1.2l-0.4,0.4L230.2,38.7z" />
      <path class="st0" d="M193.4,33.5l-2,1l-2-0.8l-2,0.2l-1.6-1.2l2.4-0.8l2.4-1.2l1.4,0.8l0.8,0.4l0.2,0.4L193.4,33.5z" />
      <path class="st0" d="M219.5,103.9l-1-1.8l1.4-4.2l-0.8-0.8l-1.8,0.4l-0.6-0.8l-2.8,2.4l-1.6,2.4l-1.4,1.4l-1.2,0.4l-0.8,0.2
			l-0.6,0.8h-4.4H200l-1.4,0.6l-3.4,2.2l0,0l-0.4-0.2l-1,0.4l-1,0.6l-0.8-0.6l-2.2,0.4l-2,0.4l-1,0.4l-1,1.2l0.8,0.4l0.8-0.2h0.2
			l-0.2,1l-2.4,0.4l-1.2,0.2l-0.8,0.4l-1.2-0.2l-0.8,0.2l-1.4,0.8l-2.2,1l-1.6-0.2l1-1l1.8-1.8l2-1l0.6-0.8l0.4-1.4l1.8-1.8l0.4-2
			l0.6,2l1.8,0.4l1.2-1l-0.6-2.4l-0.4-1l-2-0.6l-1.8-0.4h-2l-1.6-0.4l-0.2-0.6l-0.8,0.4h-0.6l1-1l-0.8-0.4l1-1.2l-0.8-1l0.8-0.8
			l-2.6-0.4v-1.8l-0.2-0.6h-1.6l-2-0.6l-0.8,0.4l-0.8,0.8l-1.6,0.4l-1.6,1.2l-2.6-0.8l-2.2,0.4l-2-1l-2.2-0.4l-1.6-0.2l-0.4-0.4
			l0.4-1.6h-1l-0.6,1h-5h-8.4h-8.2h-7.4h-7.2h-7.2h-7.4h-2.4h-7.2h-7h-0.4l-2.6-3l-0.8-1.4L80,86.4l0.6-2.8l1.8-1.8l-2-1.4l1.6-2.4
			l-1-2l1.2-1.6l2.6-1.4l1.6-1.8l-2.2-1.8l0.6-3.4l0.6-2l-0.8-1.4l-0.4-1.2l0.2-1.6l-3.2,0.8L77.3,62l-0.2-1.8L76.9,59l-1.4-0.8h-2
			L91,42.1l12.1-10.1l3,0.6l1.6,1.2l1.8,0.2l3-1l3.4-0.8l2.6,0.2l4.4-1.2l4-0.6v1l2.2-0.6l2-1.2l1,0.2l0.6,2.4l4.6-1.8l-2,2l3-0.4
			l1.6-0.8l2.2,0.2l2,1l3.6,1l2.4,0.4l2.2-0.2l1.4,1.4l-4.2,1.4l3.2,0.6l5.8-0.2l2.2-0.4l0.6,1.6l3.4-1.4l-0.4-1.2l2.2-0.8l2.6-0.2
			l2-0.2l1,0.6l0.8,1.4l2.4-0.2l2.6,1.2l3.6-0.4h3l1.2-1.6l2.2-0.4l2.4,0.8l-2.2,2.6l3-2.2h1.6l3.2-2.8l-0.8-1.6l-1.4-1L197,28
			l4-1.8l2.2,0.4l0.6,1l0.2,3l-2.8,1.2l3.2,0.6l-2.2,2.8l4.4-2l1,1.8l-2.2,2l0.6,1.8l3.6-2l3.2-2.4l2.4-2.8l2.8,0.2l2.6,0.4l1.8,1.4
			l-0.8,1.4l-2.6,1.4l0.4,1.4l-1.2,1.4l-5.4,2l-3.2,0.4l-1.6-0.8l-1.6,1.4l-3.6,2.4l-1.4,1.2l-3.6,1.2l-3.2,0.2l-2.6,1.2l-1.4,1.8
			l-2.8,0.4l-4.2,2.4l-4.6,3.2l-2.4,2.2l-2.4,3.4l3,0.4l-0.8,2.8l-0.4,2.2l3.6-0.6l3.4,1.2l1.6,1.2l0.8,1.4l2.4,0.8l1.8,1.2l3.8,0.2
			l2.4,0.2l-1.8,2.8l-0.8,3v3.4l2.2,2.8l2.4-1l2.8-3.2l1.2-4.8l-0.8-1.6l4.4-1.4l3.6-2l2.4-2l0.8-2l-0.2-2.6l-1.6-2.2l4.4-3l0.4-2.6
			l2-4.4l1.8-0.6l3.2,0.8l2,0.2l2.2-0.8l1.6,1l1.8,1.6v1l3.8,0.2l-1.2,2.4l-1.2,3.6l1.8,0.4l0.8,1.8l4-1.6l3.6-3.2l2-1.4l0.6,2.6
			l1.2,3.6l1,3.6l-1.6,1.8l2.4,1.6l1.4,1.6l3.4,1.4l1.2,1v2.6l1.6,0.4l0.6,1.2l-1,3.4l-2.2,1.2l-2,1l-4.4,1l-3.8,2.4l-4.2,0.6
			l-5-0.6h-3.6l-2.6,0.2l-2.8,2.2l-3.6,1.4l-5,4l-3.8,2.8l2.4-0.4l5.4-4l6-2.6l3.8-0.2l1.6,1.6l-3,2l-0.2,3.2v2.4l2.6,1.2l4.2-0.4
			l3.6-3.4l-0.4,2.2l1.2,1.2l-3.6,2l-6,1.8l-2.8,1.2l-3.6,2.2l-1.8-0.2l0.8-2.6l5.2-2.6h-4L219.5,103.9z" />
      <path class="st0" d="M166.8,23l-2.4,1.2l5.2-0.8l1.2,1.2l3.6-1.4l0.8,0.8l-1,2.6l2.2-1l1.4-2.6l2.2-0.4l1.4,0.4l1,1l-1.4,2.6
			l-1.2,1.8l2,1.2l2.4,1.2l-1.2,1.2l-3.4,0.2l0.4,1l-1.6,1l-3.2-0.4l-2.8-0.8l-2.6,0.2l-4.6,1l-5.6,0.4l-3.8,0.2l0.2-1.2l-2-0.6
			l-2.2,0.2l-0.2-2l1.6-0.2l3.6-0.4l2.8,0.2l3-0.4l-3.2-0.6l-4.4-0.2h-2.8v-1l5.8-1h-3l-2.6-0.6l3.8-2l2.6-1l7-1.6L166.8,23z" />
      <path class="st0" d="M186.3,22.2l-3.4,1.6l-1.2-1.8l1-0.4h2.8L186.3,22.2z" />
      <path class="st0" d="M240,23l-0.4,0.6h-2h-2l-2.4,0.4l-0.4-0.2l-1-1.4l0.8-0.8l1-0.2l4.2,0.2L240,23z" />
      <path class="st0" d="M220.3,23l0.2,1.6l3.6-2l5.8-1l1.2,2.6l-1.6,1.6L234,25l2.6-1l3.4,1.2l1.8,1.2l-0.6,1.2l4-0.6l1,1.6l4.2,1
			l1,1l0.4,2.6l-4.4,1.2l3.8,1.8l2.8,0.6l1.6,2.4l3.2,0.2l-1.6,2l-5.4,3.2l-2-1.2l-1.8-2.6l-2.8,0.4l-1.2,1.6l1.4,1.6l2.2,1.2
			l0.4,0.8v2.8l-1.8,2l-2.4-0.8l-4.2-2.2l1.8,2.4l1.4,1.8l-0.2,1l-5.4-1.2l-3.8-1.6l-1.8-1.4l1.2-0.8l-2.4-1.4l-2.4-1.4l-0.4,0.8
			l-6.4,0.4l-1.2-1l2.6-2h4l4.6-0.4v-1l1.6-1.4l4.4-2.6l0.2-1.2l-0.2-0.8l-2.4-1.4l-3.4-0.8l1.8-0.6l-1-1.6l-1.6-0.2l-1-0.8
			l-1.6,0.8l-3.8,0.4l-6.8-0.6l-3.6-0.8l-2.8-0.4l-1-1l3-1.2h-2.8l1.6-2.6l3.4-2.2l3-1l5.4-0.6L220.3,23z" />
      <path class="st0" d="M195.6,21.2l1.8,0.6l3.8-0.4l-0.2,0.8l-3.2,1.2l1.8,1l-2.6,2.4l-4.2,1l-1.6-0.2l-0.4-1l-2.8-2l0.8-0.8
			l3.6,0.2l-0.4-1.6L195.6,21.2z" />
      <path class="st0" d="M206.6,24l-3.8,2h-2.2l0.8-2.2l1.2-1.2l2-1l2.6-0.6h3.8l3,0.6l-5,2.2L206.6,24z" />
      <path class="st0" d="M149.5,27.4l-6.6,1.2l0.2-1.2l-3-1.4l2.2-1l3.6-1.8l3.8-1.6l0.2-1.6l6.8-0.4l2,0.6l4.6,0.2l1,0.6l0.8,1
			l-3.2,0.6l-6.8,1.8l-4.6,1.8L149.5,27.4z" />
      <path class="st0" d="M211.3,18.4l-2,1l-2.6-0.2l-1.6-0.6l2.2-1l3.4-0.6l0.6,0.8L211.3,18.4z" />
      <path class="st0" d="M207,14.2v1.2l-1.4,1.2l-2.8,1.8l-3.4,0.2l-1.6-0.4l1.6-1.4l-3.2,0.2l2.2-1.8h1.8l3.8-0.8l2.4,0.2L207,14.2z" />
      <path class="st0" d="M187.5,15.4l-0.4,0.8l2.2-0.4h1.8l-1.2,1.2l-2.6,1.2l-6.8,0.4l-6,1h-3l0.8-0.8l5.2-1.2l-8.8,0.2l-2-0.4
			l5.8-2.4l2.6-0.6l4,0.8l1.4,1.4l3.2,0.6l0.4-2.4l2.8-0.8l1.6,0.2L187.5,15.4z" />
      <path class="st0" d="M215.1,13.2l1.2,0.8h3.6l0.6,0.8l-1.4,0.8l1.6,0.6l0.6,0.6h2.4l2.6,0.2l3.4-0.4l4-0.2l2.8,0.2l1.2,1l-0.4,1
			l-1.8,0.6l-3.2,0.6l-2.4-0.4l-5.8,0.4h-4l-2.8-0.2l-4.2-0.8l0.8-1.4l1-1.2l-0.6-1l-3.4-0.2l-1.2-0.8l1.8-1L215.1,13.2z" />
      <path class="st0" d="M177.7,12l-2.8,1.8l-2.6,0.8h-1.8l-4.8,1l-3.4,0.4l-2-0.4l5.8-1.8l6-1.6h2.8L177.7,12z" />
      <path class="st0" d="M217.7,12.2h-0.8l-3.2-0.2l0.2-0.4h3.6l0.8,0.4L217.7,12.2z" />
      <path class="st0" d="M188.7,11.8l-4.4,0.6l-1.6-0.8l2.6-0.8l3-0.2l2,0.4L188.7,11.8z" />
      <path class="st0" d="M192.6,9.8l-2.8,0.4h-3l0.4-0.4l2.8-0.6h0.8L192.6,9.8z" />
      <path class="st0" d="M215.7,11l-3.2,0.4l-0.8-0.6l0.2-0.8l1-1h2.2l0.8,0.2l1.2,0.8L215.7,11z" />
      <path class="st0" d="M208.8,10.4l-0.6,1l-2.6-0.2l-2-0.8h-3.8l2.6-0.6L201,9.1l1-0.8l3,0.2l3.6,0.8L208.8,10.4z" />
      <path class="st0" d="M235.6,7.3l1.4,0.8l-3.2,0.6l-5.2,1.8l-3.4,0.2l-3.4-0.2l-0.8-1l1-0.8l2.2-0.6h-3.2l-1-0.8l0.2-1l2.4-1l2-0.6
			l2-0.2l-0.2-0.4h4l0.8,1l2.4,0.4l2.4,0.4L235.6,7.3z" />
      <path class="st0" d="M274.6,0.5l4.2,0.2l3.2,0.2l2.6,0.4l-0.4,0.6l-4.8,0.8L275,3.1l-2,0.4h3.6l-5.2,1.2l-3.2,0.6l-4.6,1.8l-4,0.4
			l-1.4,0.4l-5.6,0.2l2.2,0.2l-1.6,0.4l0.4,1.2l-2.4,0.8l-3.4,0.6l-1.8,0.8l-3.2,0.8l-0.4,0.6h3.2l-0.6,0.6l-6.2,1.4l-4.2-0.6
			l-5.8,0.4l-2.4-0.2l-3.4-0.2l1.2-1.4l4-0.6l1-1.6l1.2-0.2l3.6,1l-0.8-1.4l-2.4-0.4l2.4-0.8l3.8-0.6l1.4-0.8l-1.4-0.8l0.6-1h4.6
			l1,0.2l3.6-0.8L243,5.5l-6.2,0l-2.2-0.6l-0.4-0.8L233,3.5l0.6-0.6l3-0.4h2l3.6-0.2l3.4-0.8h2l1.2,0.6l2.4-1l2.6-0.2l3.2-0.2h5.2
			l0.6,0.2l5-0.2h3.4L274.6,0.5z" />
      <path class="st0" d="M167.2,95l-3,1l-2.4,1.2l-2.2,1.4l-0.2,0.4l2.8-0.6l1,1l2.2-0.8l2.4-1l2.6-1l-1.6,1.6l1.2,0.4l1.2,1.2
			l2.6-0.6l2.6-0.2l0.2,0.8h0.8h0.6l0.8,1.2l-2.4,0.2l0,0l-1.8-0.4l-2.2,0.6l-2,0.6l-2.4,2l-1.4,1.2l0.2,0.4l2.8-2h0.4l-2.4,2.2
			l-1.4,2.2l-1.2,1.8l-0.2,1.6l-0.6,0.6l-0.2,0.8v1.6l0.2,0.2h0.8l0.8-0.4l0.6-0.4l1.6-1.6l0.8-2v-2l0.6-1.4l1.2-1.6l1-1l1.4-0.8
			l-0.2,1l1-1.6l0.6-0.2l0.8-1.2l1.8,0.6l1.4,1.2l-0.4,1.4l-0.4,1.8l-1.8,1.2l-0.2,0.8h0.4l2.2-1.4l0.8,0.2l-0.2,1.8l-0.4,1.2
			l-1.8,1.8l-1,1.4l-1.4,1.2l1.4,0.6l1.2,0.2l2-0.4l1.8-0.8l1.4-0.4l2.2-0.8l2.8-1.8v-0.2l0.2-1l1.4-0.4l2,0.2l2,0.2l2.2-1l0.2-1.2
			v-0.4l3.4-2.2l1.4-0.6h3.8h4.6l0.6-0.8l0.8-0.2l1.2-0.4l1.4-1.4l1.6-2.4l2.8-2.4l0.6,0.8l1.8-0.4l0.8,0.8l-1.4,4.2l1,1.8v1
			l-3.2,1.4l-3,1l-3,1l-2,1.8l-0.6,0.6l-0.6,1.6l0.4,1.6h1v-1.2l0.6,0.6l-0.4,0.8l-1.8,0.4h-1.2l-2,0.6l-1.2,0.2l-1.6,0.4l-2.4,1
			l4-0.6l0.6,0.6l-3.8,1h-1.6l0.2-0.4l-1,0.8l0.6,0.2l-1.2,2.2l-2.6,2.4v-0.8l-0.6-0.2l-0.6-0.8v1.8l0.4,0.6l-0.2,1.2l-1.4,1
			l-2.2,2.6h-0.2l1.4-2.2l-1-1.2l0.4-2.6l-1,1.4v2l-1.6-0.4l1.4,1l-0.8,3l0.6,0.2v1l-0.4,3.2l-2.2,2.4l-3,1l-2.2,1.8l-1.4,0.2
			l-1.6,1.2l-0.6,1l-3.4,2l-1.8,1.6l-1.8,1.8l-1,2.2v2.2l0.8,2.6l0.8,2.2l-0.2,1.4l0.6,3.6l-0.4,2.2l-0.2,1.2l-1,2l-0.8,0.4
			l-1.2-0.4l-0.2-1.4l-1.4-0.8l-1-2.8l-0.8-2.4v-1.2l1-2.2l-0.4-1.8l-1.6-2.6l-1-0.4l-3,1.4l-0.4-0.2l-1-1.4l-1.4-0.8l-3.2,0.4
			l-2.2-0.4l-2.2,0.2l-1.2,0.4l0.2,0.8l-0.4,1.2l0.4,0.6l-0.4,0.8l-0.8-0.4l-1.2,0.4h-2l-1.6-1.6l-2.4,0.4l-1.8-0.8l-1.6,0.2
			l-2.4,0.8l-3,2.4l-3,1.4l-1.8,1.4l-1,1.4l-0.4,2.2l-0.4,1.4l0.2,1h-1l-1.8-0.6l-2-1l-0.4-1.4v-2.2l-1.2-1.8l-0.4-1.8l-0.8-2.2
			l-1.6-1.2h-2.2l-2.4,2.4l-2-1l-1.2-1l-0.2-1.8l-0.4-1.6l-1-1l-1-1l-0.6-1.2h-4.6l-0.4,1.4H96h-5.4l-5.4-2.2l-3.4-1.6l0.4-0.6
			l-3.4,0.4l-3,0.2l0.2-1.6l-1-1.8l-1-0.4V139l-1.4-0.2l-0.6-0.8l-2.4-0.2l-0.4-0.6l0.4-1.8l-1.4-3.2l-0.2-4.4l0.4-0.8l-0.6-1
			l-0.8-2.6l0.8-2.6l-0.4-1.8l2-2.6l1.4-2.6l0.6-2.4l2.8-3l2-2.8l2-2.8l2.2-4.2l0.8-2.6l0.2-1.4l0.6-0.6l2.8,1l-0.4,2.8l1-0.8
			l1.2-2.6l0.8-2.6h7h7.2h2.4h7.2h7.2h7.2h7.4h8.2h8.4h5l0.6-1.2h0.8L156,92l0.4,0.4l1.6,0.2l2.2,0.4l2,1l2.2-0.4L167.2,95z" />
      <path class="st0" d="M36.5,67.5l-3.4,1.2l-0.4-0.8l1.2-1.4l3.2-1l1.8-0.4l1.2,0.2v1L36.5,67.5z" />
      <path class="st0" d="M103.3,31.9L91.2,41.9L73.7,58h2l1.4,0.8l0.2,1.2l0.2,1.8l3.8-1.6l3.2-1l-0.2,1.6l0.4,1.2l0.8,1.4l-0.6,2
			l-0.6,3.4l2.2,1.8L85,72.5l-2.6,1.4l-0.2-1l-1.2-1l1.6-2.6l-0.8-2.4l1.4-2.8l-2-0.2h-3.4L75.9,63l-1.6-3l-2.2-0.2l-2.8-1L65.9,59
			l-2.8-1.4l-1.4-1.2l-3,0.6l-1.8,2l-1.4,0.2l-3.2,0.6l-3,1L46,61.4l1.6-1.8l4.2-2.8l3.4-0.8l0.2-0.6L50.8,57l-3.6,2l-5.4,2v1.4
			l-4.4,2l-3.8,1.2l-3.2,1l-2,1.2l-5.4,1.4l-2.2,1.4l-4,1.2h-1.4l-3,0.8l-3.4,1l-3,1l-5,0.8l0.2-0.6l4-1.4l3.2-1l4.2-1.6l3.2-0.2
			l2.4-1.2l5.2-1.8l1.2-0.6l2.8-1l2.8-2.2l3-1.8l-3.6,0.8l-0.2-0.6l-2.4,1l0.2-1.4l-1.8,1l0.8-1.4l-3.6,1.2H21l1.8-1.8l1.6-1l-0.2-1
			l-3.4,0.8l-0.2-1.4L20,57.6l2-1.6l-0.2-1.2l2.8-1.6l3.8-1.6l2.6-1.4l2-0.2l0.8,0.4l3.4-1.4l1.2,0.2l2.8-0.8l1.2-1.2L42,46.7l3-1
			h-1.4l-3,0.6l-1.4,0.6l-0.8-0.6h-3.4l-2.2-0.6l0.6-1.2l-0.4-1.6l4.6-1.2l6.4-1.4h1.8l-2.2,1.4h4.6l0.6-1.8l-1.2-1l0.4-1.4
			l-0.4-1.2L46,35.5l3.2-1.4h3.6l4.4-1.2l2.4-1.2l3.8-1.2l2.4-0.2l5.4-1.2l1.6,0.2l5.2-1.4l2.2,0.6l-0.2,1.2l1.6-0.4l3,0.2l-1,0.6
			l2.4,0.4l2.4-0.2l3,0.8l3.6,0.2l1,0.2l3.2-0.4l2,0.8L103.3,31.9z" />
    </g>
    <g id="Europa">
      <path id="AL_00000181769642464400432920000000197276372438191538_" class="st1" d="M459.1,176.8l0.4,1.3l1.3-0.4l1.3,1.7l1.3,0.8
			l0.4,2.5l-0.4,2.1l0.8,2.9l2.5,1.7v1.7l-1.7,0.8v2.1l-2.1,3.4l-0.8-0.4v-1.3l-3.4-2.1l-0.8-2.9V186l0.4-2.1l-0.8-0.8L457,181
			L459.1,176.8L459.1,176.8z" />
      <path id="AT_00000166657698927445937950000018316823634350026405_" class="st1" d="M441,138.6l-0.4,0.8l0.8,2.1v2.5h-2.9l1.3,1.3
			l-1.3,4.2l-0.8,1.3h-4.6l-2.5,1.7l-4.2-0.4l-7.6-1.7l-1.3-2.1l-5,1.3l-0.4,1.3l-3.4-0.8h-2.5l-2.5-1.3l0.8-1.7v-1.3l1.3-0.4
			l2.9,1.7l0.4-1.7l4.6,0.4l3.8-1.3h2.5l1.7,1.3l0.4-1.3l-0.8-4.2l1.7-0.8l1.7-2.9l3.8,2.1l2.5-2.5l1.7-0.4l4.2,2.1l2.5-0.4
			L441,138.6L441,138.6z" />
      <path id="BE_00000063591193351636585200000009334657493702740872_" class="st1" d="M385.6,125l-0.4,4.2h-1.3l-0.4,3.8l-4.6-2.9
			l-2.5,0.4l-3.8-2.9l-2.5-2.5H368l-0.8-2.1l4.2-1.3l3.8,0.4l4.6-1.3l3.4,2.9L385.6,125L385.6,125z" />
      <path id="BG_00000118364639693703636930000011497467317832659636_" class="st1" d="M505.3,170.1l-2.5,2.5l-1.3,4.6l2.1,3.8
			l-4.6-0.8l-5,2.1l0.4,3.4l-4.6,0.4l-4.2-2.5l-4.2,1.7h-3.8l-0.8-4.2l-2.9-2.1l0.8-0.8l-0.4-0.8l0.4-2.1l1.7-2.1l-2.9-2.9l-0.8-2.5
			l1.3-1.3l1.7,2.5l2.1-0.4l4.2,0.8l8,0.4l2.5-1.7l5.9-1.7l4.2,2.5L505.3,170.1L505.3,170.1z" />
      <path id="BA_00000072982475713745917990000010992023606327909279_" class="st1" d="M454,161.7h2.1l-1.3,3.2l2.9,2.7l-0.4,3.2
			l-1.3,0.5l-0.8,0.5l-1.7,1.8l-0.4,4.1l-5-2.7l-2.1-3.2l-2.1-1.4l-2.5-2.7l-1.3-2.3l-2.9-3.2l0.8-2.7l2.1,1.8l0.8-1.4h2.5l4.6,1.4
			h3.8L454,161.7L454,161.7z" />
      <path id="BY_00000058575783971256242370000015821417325554348710_" class="st1" d="M514.5,109.6h-4.2l-0.8,0.4l1.7,2.1l2.1,4.2
			l-4.2,0.4l-1.3,1.3l0.4,3.4l-2.1-0.4l-4.6,0.4l-1.7-1.7l-1.7,1.3l-2.1-0.8h-4.2l-5.9-1.7l-5-0.4h-3.8l-2.5,1.7l-2.5,0.4l-0.4-2.9
			l-2.1-2.9l2.9-1.3l-0.4-2.5l-1.7-2.5L470,105h5l5-2.5l0.4-3.4l3.8-2.1l-0.8-2.9l2.9-0.8l4.6-2.5l5.5,1.7l0.8,1.7l2.5-0.8l5,1.3
			l1.3,2.9l-0.8,1.7l3.8,4.2l2.1,1.3v1.3l3.4,1.3l1.7,1.7L514.5,109.6L514.5,109.6z" />
      <path id="CH_00000057826587131792242410000000721663092197101722_" class="st1" d="M403.7,145.3v1.3l-0.8,1.7l2.5,1.3h2.5
			l-0.4,2.5l-2.1,1.3l-3.8-0.8l-0.8,2.5h-2.5l-0.8-0.8l-2.9,2.1l-2.5,0.4l-2.1-1.3l-1.7-2.9l-2.5,0.8v-2.9l3.8-3.8v-1.7l2.5,0.4
			l1.3-1.3h4.2l0.8-1.3L403.7,145.3L403.7,145.3z" />
      <path id="CZ_00000036229285236435813980000009094922995926469773_" class="st1" d="M430.1,122.6l2.5,2.1l3.8,0.4v1.7l2.9,1.3
			l0.4-1.7l3.4,0.8l0.8,2.1l3.8,0.4l2.5,3.4h-1.7l-0.8,1.3l-1.3,0.4v1.3l-0.8,0.4v0.4l-1.7,0.4h-2.1l-0.4,1.3l-2.5-1.3l-2.5,0.4
			l-4.2-2.1l-1.7,0.4l-2.5,2.5l-3.8-2.1l-2.9-2.5l-2.5-1.7l-0.8-2.9l-0.8-1.7l3.4-1.3l1.7-1.7l3.8-1.3l1.3-1.3l1.3,0.8L430.1,122.6
			L430.1,122.6z" />
      <path id="DE_00000052797751351755535430000014585693104837179564_" class="st1" d="M423.8,105.8l1.3,3.4l-1.3,1.7l2.1,2.1l1.7,3.4
			v2.1l2.5,4.2L428,123l-1.3-0.8l-1.3,1.3l-3.8,1.3l-1.7,1.7l-3.4,1.3l0.8,1.7l0.8,2.9l2.5,1.7l2.9,2.5l-1.7,2.9l-1.7,0.8l0.8,4.2
			l-0.4,1.3l-1.7-1.3h-2.5l-3.8,1.3l-4.6-0.4l-0.4,1.7l-2.9-1.7l-1.3,0.4l-5.9-2.1l-0.8,1.3h-4.2l0.4-4.6l2.5-4.2l-7.6-1.3l-2.5-1.7
			v-2.9l-0.8-1.3l0.4-4.2l-1.3-6.7h2.9l1.3-2.5l0.8-5.9l-0.8-2.1l0.8-1.3l4.2-0.4l0.8,1.3l3.4-2.9l-1.3-2.5l-0.4-3.4l3.8,0.8
			l2.9-0.8l0.4,2.5l5,1.3v2.1l5-1.3l2.5-1.7l5.9,2.5L423.8,105.8L423.8,105.8z" />
      <path class="st1" d="M415.8,94.1l-2.5,5l-5.5-3.8l-0.8-2.5l7.1-2.1L415.8,94.1z" />
      <path class="st1" d="M402.8,97.9l-2.9,0.8l-3.8-0.8l-2.1-3.4l-0.4-6.3l0.4-1.7l1.3-1.7l4.2-0.4l1.7-1.7l3.8-1.7v3.4l-1.3,2.1
			l0.8,1.7L407,89l-0.8,2.5l-1.3-0.4l-3.4,4.6L402.8,97.9z" />
      <path id="EE_00000021809997492774264100000004601838147700944774_" class="st1" d="M485.5,70.1l0.8,0.8l-2.5,3.4l2.5,5.9l-1.7,2.1
			h-3.8l-4.6-2.1l-2.1-0.8l-3.8,0.8v-3.8l-1.7,0.8l-3.4-2.1l-0.8-3.4l5.9-1.7l5.9-0.8l5.5,0.8L485.5,70.1L485.5,70.1z" />
      <path id="FI_00000169549536942004250370000009681418057900698511_" class="st1" d="M475.9,14.3l0.4,3.8l7.6,3.8l-2.9,4.2l6.7,6.3
			l-1.7,5l5,4.2l-0.8,3.8l7.6,4.2l-0.8,2.9l-3.4,3.4l-8.4,7.6l-8.4,0.4l-8,2.1l-7.1,1.3l-3.4-3.4l-5-2.1v-5.9l-2.9-5.5l1.7-3.4
			l3.4-3.8l9.2-6.3l2.5-1.3l-0.8-2.5l-6.7-2.5l-1.7-2.1l-1.7-8.8l-7.6-3.8l-6.3-2.9l2.1-1.3l5.5,2.9h5.5l5,1.3l3.4-2.5l1.3-4.2
			l5.9-1.7l5.9,2.1L475.9,14.3L475.9,14.3z" />
      <path class="st1" d="M323.9,105l-3.8-1.3h-2.9l1.3-3.4l-0.8-3.4l4.2-0.4l5,3.8L323.9,105z" />
      <path class="st1" d="M340.3,75.2l-5.5,6.7l5-0.8h5.5l-1.3,5l-4.6,5.5l5,0.4l0.4,0.8l4.2,7.1l3.4,0.8l2.9,7.1l1.3,2.9l5.9,1.3
			l-0.4,4.2l-2.5,1.7l2.1,3.4l-4.6,3.4h-6.7l-8.8,1.7l-2.1-1.3l-3.4,2.9l-4.6-0.8l-3.8,2.5l-2.5-1.3l7.6-6.7l4.6-1.3l-8-0.8
			l-1.3-2.5l5.5-2.1l-2.5-3.4l0.8-4.2l7.1,0.4l0.8-3.8l-3.4-3.8l0,0l-5.9-1.3l-1.3-1.7l1.7-2.9l-1.7-1.7l-2.5,2.9v-5.9l-2.1-2.9
			l2.1-6.3l3.8-5l3.8,0.4L340.3,75.2z" />
      <path class="st1" d="M493.9,189h-3.4l-2.9-0.4l-6.3,1.7l4.2,3.8l-2.5,1.3h-2.9l-3.4-3.4l-0.8,1.3l1.7,3.8l2.9,2.9l-2.1,1.3
			l3.4,2.9l2.9,2.1l0.4,3.8l-5-1.7l1.7,3.4l-3.4,0.4l2.5,5.9h-3.8l-4.6-2.9l-2.5-5.5l-1.3-4.6l-2.5-2.9l-2.9-3.8l-0.4-1.7l2.1-3.4
			v-2.1l1.7-0.8v-1.7l3.4-0.4l1.7-1.3h2.9l0.8-1.3h0.8h3.8l4.2-1.7l4.2,2.5l4.6-0.4l-0.4-3.4l2.9,1.7l-1.3,4.2L493.9,189z" />
      <path id="HR_00000129175095124657534560000016160855779831652765_" class="st1" d="M452.4,155.8l1.7,2.5l1.7,1.7l-1.7,2.5
			l-2.5-1.3h-3.8l-4.6-1.3h-2.5l-0.8,1.3l-2.1-1.7l-0.8,2.5l2.9,2.9l1.3,2.1l2.5,2.5l2.1,1.3l2.1,2.9l5,2.5l-0.4,0.8l-5-2.5
			l-3.4-2.5l-5-2.1l-5-4.6l0.8-0.4l-2.5-2.9l0-0.8l-3.4-0.8l-1.3,2.9l-1.7-2.1v-2.1l0,0h3.8l0.8-0.8l1.7,0.8h2.1v-1.7l1.7-0.8
			l0.4-2.5l4.2-1.7l1.7,0.8l4.2,2.9l4.6,1.3L452.4,155.8L452.4,155.8z" />
      <path id="HU_00000096052420279378086380000017357287928664327100_" class="st1" d="M467.5,139.8l2.9,1.7l0.4,1.7l-2.9,1.3
			l-2.1,4.2l-2.5,4.6l-4.2,1.3l-3.4-0.4l-3.8,1.7l-1.7,0.8l-4.6-1.3l-4.2-2.9l-1.7-0.8l-1.3-2.1h-0.8l1.3-4.2l-1.3-1.3h2.9v-2.5
			l2.9,1.7l2.1,0.4l4.2-0.8l0.4-1.3h2.1l2.5-0.8l0.4,0.4l2.5-0.8l0.8-1.7l1.7-0.4l5.9,2.1L467.5,139.8L467.5,139.8z" />
      <path id="IE_00000085948468058423305590000002369624116110865067_" class="st1" d="M323.9,105l0.8,4.6l-4.2,5.9l-9.2,3.8l-7.1-0.8
			l4.6-6.7l-2.1-6.3l6.7-5l3.8-2.9l0.8,3.4l-1.3,3.4h2.9L323.9,105L323.9,105z" />
      <path class="st1" d="M438.5,206.2l-1.7,5.5l0.8,2.1l-0.8,3.4l-4.2-2.5l-2.9-0.8l-7.6-3.4l0.4-3.4l6.3,0.4l5.5-0.8L438.5,206.2z" />
      <path class="st1" d="M403.7,186.4l3.4,4.6l-0.4,8.8l-2.5-0.4l-2.1,2.1l-2.1-1.7l-0.4-8l-1.3-3.8l2.9,0.4L403.7,186.4z" />
      <path class="st1" d="M425.5,150.7l-0.4,3.4l1.3,2.9l-4.2-0.8l-4.2,2.5l0.4,3.4l-0.4,1.7l2.1,3.4l5,3.4l2.9,5.5l6.3,5.5h4.2
			l1.3,1.3l-1.3,1.3l5,2.5l4.2,2.1l5,3.4l0.4,1.3l-0.8,2.5l-3.4-2.9l-4.6-0.8l-2.1,4.2l4.2,2.5l-0.4,3.4l-2.1,0.4l-2.5,5.9l-2.1,0.4
			v-2.1l0.8-3.4l1.3-1.3l-2.5-3.8l-1.7-3.4l-2.1-0.8l-1.7-2.9l-3.4-1.3l-2.5-2.5l-3.8-0.4l-4.6-2.9l-5-4.2l-3.8-3.8l-2.1-6.3
			l-2.5-0.8l-4.2-2.1l-2.5,0.8l-2.9,2.9l-2.1,0.4l0.4-2.9l-2.9-0.8l-1.7-5l1.7-2.1l-1.7-2.5v-1.7l2.1,1.3l2.5-0.4l2.9-2.1l0.8,0.8
			h2.5l0.8-2.5l3.8,0.8l2.1-1.3l0.4-2.5l3.4,0.8l0.4-1.3l5-1.3l1.3,2.1L425.5,150.7z" />
      <path id="LT_00000081636494208680344700000013000889055640229514_" class="st1" d="M483,94.1l0.8,2.9l-3.8,2.1l-0.4,3.4l-5,2.5
			H470l-1.3-2.1l-2.5-0.8l-0.4-1.7v-1.7l-2.1-0.8l-5.5-1.3l-1.7-5.5l5.5-1.7l8,0.4l4.6-0.4l0.8,1.3l2.5,0.4L483,94.1L483,94.1z" />
      <path id="LU_00000011028677551439156920000013480907628701392055_" class="st1" d="M386,133.1h-1.3l-1.3-0.4l0.4-3.8h1.3l0.8,1.3
			V133.1z" />
      <path id="LV_00000163754918663069750850000017323126027589291435_" class="st1" d="M484.7,82.7l2.5,1.3l0.8,2.9l2.1,3.8l-4.6,2.5
			l-2.9,0.8l-5-2.9l-2.5-0.4l-0.8-1.3l-4.6,0.4l-8-0.4l-5.5,1.7l-0.4-4.6l1.7-3.8l4.2-2.1l4.6,4.6h3.8v-4.6l3.8-0.8l2.1,0.8l4.6,2.1
			L484.7,82.7L484.7,82.7z" />
      <path id="MD_00000096740865847498768530000005771311485827605925_" class="st1" d="M501.9,158.7l-1.3-2.9v-2.9l-0.4-2.9l-3.4-3.8
			l-2.1-2.5l-1.7-1.7l-1.7-0.8l1.3-0.8l3.4-0.4l4.2,2.1l2.1,0.4l2.5,1.7v2.1l2.1,0.8l1.3,2.5l2.1,1.7v0.8l0.8,0.4l-1.3,0.4h-2.9
			l-0.4-0.8l-0.8,0.4l0.4,1.3l-1.3,2.1l-0.4,2.1L501.9,158.7L501.9,158.7z" />
      <path id="MK_00000080897845792043031860000015783862365573632140_" class="st1" d="M477.1,185.6h-0.8l-0.8,1.3h-2.9l-1.7,1.3
			l-3.4,0.4l-2.5-1.7l-0.8-2.9l0.4-2.1h0.8v-1.3l2.9-0.8l1.3-0.4l1.7-0.4h2.5l2.9,2.1L477.1,185.6L477.1,185.6z" />
      <path id="ME_00000148656074534969590620000017108395953395733140_" class="st1" d="M461.6,175.9l-0.8,1.3l-1.3,0.4l-0.4-1.3
			l-2.1,3.4l0.4,2.1l-1.3-0.4l-1.7-2.1l-2.5-1.3l0.4-0.8l0.4-3.8l1.7-1.7l0.8-0.4l1.3,1.3l0.8,0.8l1.7,0.8l2.1,1.3L461.6,175.9
			L461.6,175.9z" />
      <path class="st1" d="M485.5,11.4l-6.7,2.1l-3.4,0.4l0.8-3.8L470.4,8l-5.9,1.7l-1.3,4.2l-3.4,2.5l-5-1.3h-5.5l-5.5-2.9l-2.1,1.3
			h-2.5v3.8l-8.4-0.8l-0.4,3.4h-4.2l-2.5,4.2l-3.4,6.3l-5.9,8l1.7,2.1l-1.3,2.1h-4.6l-2.5,5.5l0.8,8l3.4,2.9l-0.8,7.1l-3.4,4.2
			l-1.7,3.4l-3.4-3.8l-8.8,7.1l-6.3,1.3l-6.7-2.9l-1.7-6.3L377.2,55l4.2-3.8l11.8-5l8.4-5.9l7.6-8l9.2-10.9l6.7-4.2l10.5-7.1
			l8.8-2.5l6.7,0.4l5.5-4.6h7.6l7.1-0.8l14.3,4.2l-5,1.3L485.5,11.4z" />
      <path id="PL_00000091007377536026367340000017479293848245179547_" class="st1" d="M450.7,101.6l5.9,0.8h9.2l2.5,0.8l1.3,2.1
			l0.4,2.9l1.7,2.5l0.4,2.5l-2.9,1.3l2.1,2.9l0.4,2.9l3.4,5.5l-0.4,1.7l-2.5,0.8l-3.8,5.5l1.7,2.9l-1.3-0.4l-5-2.5l-3.8,0.8
			l-2.5-0.4l-2.9,1.3l-2.9-2.1l-2.1,0.8L449,134l-2.5-3.4l-3.8-0.4l-0.8-2.1l-3.4-0.8l-0.4,1.7l-2.9-1.3V126l-3.8-0.4l-2.5-2.1
			l-2.5-4.2v-2.1l-1.7-3.4l-2.1-2.1l1.3-1.7l-1.3-3.4l3.4-1.7l7.1-2.9l5.9-2.1l5,0.8l0.4,1.7L450.7,101.6L450.7,101.6z" />
      <path id="RO_00000116951002509267121840000009209998841940445337_" class="st1" d="M491,141.1l1.7,0.8l1.7,1.7l2.1,2.5l3.4,3.8
			l0.4,2.9v2.9l1.3,2.9l2.5,1.3l2.5-1.3l2.5,1.3l0.4,1.7l-2.5,1.3l-1.7-0.4l-0.4,8l-3.4-0.8l-4.2-2.5l-5.9,1.7l-2.5,1.7l-8-0.4
			l-4.2-0.8l-2.1,0.4l-1.7-2.5l-0.8-1.3l0.8-1.3l-1.3-0.8L470,165l-3.4-2.1l-0.8-2.5l-3.4-1.3l-0.8-2.1l-2.9-2.5l4.2-1.3l2.5-4.6
			l2.1-4.2l2.9-1.3l2.1-1.3l3.4,0.8h3.4l2.5,1.7l1.7-0.8l3.8-0.4l0.8-1.7L491,141.1L491,141.1z" />
      <path id="RS_00000152222880581590986410000016045644082722059914_" class="st1" d="M473.4,166.7l-1.3,1.3l0.8,2.5l2.9,2.9
			l-1.7,2.1l-0.4,2.1l0.4,0.8l-0.8,0.8h-2.5l-1.7,0.4l-0.4-0.4l0.4-0.8l0.4-1.7h-0.8l-1.3-1.3l-0.8-0.4l-0.8-0.8l-0.8-0.4l-0.8-0.8
			l-0.8,0.4l-0.4,2.1l-1.3,0.4l0.4-0.4l-2.1-1.3l-1.7-0.8l-0.8-0.8l-1.3-1.3l1.3-0.4l0.4-2.9l-2.9-2.5l1.3-2.9H454l1.7-2.5l-1.7-1.7
			l-1.7-2.5l3.8-1.7l3.4,0.4l2.9,2.5l0.8,2.1l3.4,1.3l0.8,2.5l3.4,2.1l1.7-1.3l1.3,0.8l-0.8,1.3L473.4,166.7L473.4,166.7z" />
      <path id="SK_00000119113649904833859700000011887282503700103568_" class="st1" d="M469.6,135.2l-1.3,1.7l-0.8,2.5l-0.8,0.4
			l-5.9-2.1l-1.7,0.4l-0.8,1.7l-2.5,0.8l-0.4-0.4l-2.5,0.8h-2.1l-0.4,1.3l-4.2,0.8l-2.1-0.4l-2.9-1.7l-0.8-2.1l0.4-0.8l0.4-1.3h2.1
			l1.7-0.4v-0.4l0.8-0.4v-1.3l1.3-0.4l0.8-1.3h1.7l0.4,0.4l2.1-0.8l2.9,2.1l2.9-1.3l2.5,0.4l3.8-0.8L469.6,135.2L469.6,135.2z" />
      <path id="SI_00000090252507181142223390000016873778934074611349_" class="st1" d="M440.2,152l-4.2,1.7l-0.4,2.5l-1.7,0.8v1.7
			h-2.1l-1.7-0.8l-0.8,0.8h-3.8l1.3-0.4l-1.3-2.9l0.4-3.4l4.2,0.4l2.5-1.7h4.6l0.8-1.3h0.8L440.2,152L440.2,152z" />
      <path id="SE_00000062910021098843015920000006883057717895033513_" class="st1" d="M459.5,31.5l-7.1,1.7l-3.8,4.2l1.3,3.8
			l-6.3,4.6l-8,5l-2.1,8.4l3.8,4.2l5,3.4l-3.4,6.7l-4.6,1.3l-0.4,10.5l-2.1,5.9l-5.9-0.4l-2.1,5l-5.9,0.4l-2.5-6.3l-4.6-7.1
			l-4.2-8.8l1.7-3.4l3.4-4.2l0.8-7.1l-3.4-2.9l-0.8-8l2.5-5.5h4.6l1.3-2.1l-1.7-2.1l5.9-8l3.4-6.3l2.5-4.2h4.2l0.4-3.4l8.4,0.8v-3.8
			h2.5l6.3,2.9l7.6,3.8l1.7,8.8L459.5,31.5L459.5,31.5z" />
      <path class="st1" d="M493.9,189l1.3-0.8l1.3-4.2l-2.9-1.7l5-2.1l4.6,0.8l0.8,2.5l5,2.1l-0.8,1.7l-6.3,0.4l-2.1,2.1l-4.2,3.4
			l-2.1-2.9L493.9,189z" />
      <path id="UA_00000078760672105537062130000012630570111284971425_" class="st1" d="M530.5,121.8l2.5,2.9v1.3l6.7,2.1l3.8-0.8
			l3.8,2.9h2.9l8,1.7l0.4,2.1l-1.3,3.4l1.7,3.8l-0.4,2.1l-5,0.4l-2.1,1.7l0.4,2.9l-4.2,0.4l-2.9,2.1l-4.6,0.4l-4.2,2.5l0.8,4.2
			l2.9,1.7l5.5-0.4l-0.4,2.5l-5.5,1.3l-6.3,3.8l-3.4-1.3l0.8-2.9l-5.9-2.1l0.8-1.3l4.6-2.1l-1.7-1.3l-8.4-1.7l-0.8-2.5l-4.6,0.8
			l-1.3,3.8l-3.4,4.6l-2.5-1.3l-2.5,1.3l-2.5-1.3l1.3-0.8l0.4-2.1l1.3-2.1l-0.4-1.3l0.8-0.4l0.4,0.8h2.9l1.3-0.4l-0.8-0.4V152
			l-2.1-1.7l-1.3-2.5L504,147v-2.1l-2.5-1.7l-2.1-0.4l-4.2-2.1l-3.4,0.4l-1.3,0.8h-2.1l-0.8,1.7l-3.8,0.4l-1.7,0.8l-2.5-1.7h-3.4
			l-3.4-0.8l-2.1,1.3l-0.4-1.7l-2.9-1.7l0.8-2.5l1.3-1.7l1.3,0.4l-1.7-2.9l3.8-5.5l2.5-0.8l0.4-1.7l-3.4-5.5l2.5-0.4l2.5-1.7h3.8
			l5,0.4l5.9,1.7h4.2l2.1,0.8l1.7-1.3l1.7,1.7l4.6-0.4l2.1,0.4l-0.4-3.4l1.3-1.3l4.2-0.4h1.7l0.8-1.3l1.7,0.4l5-0.4l3.8,3.8
			l-0.8,1.3l0.8,2.1L530.5,121.8L530.5,121.8z" />
      <path id="XK_00000176038648223818390430000002912535861818989740_" class="st1" d="M469.2,179.7l-1.3,0.4L465,181v1.3h-0.8
			l-0.4-2.5l-1.3-0.8l-1.3-1.7l0.8-1.3l1.3-0.4l0.4-2.1l0.8-0.4l0.8,0.8l0.8,0.4l0.8,0.8l0.8,0.4l1.3,1.3h0.8l-0.4,1.7l-0.4,0.8
			L469.2,179.7L469.2,179.7z" />
      <path id="NL_00000101821832951531908480000004609738346293263525_" class="st1" d="M385.6,125l-2.9-1.7l-3.4-2.9l-4.6,1.3
			l-3.8-0.4l2.5-1.3l4.2-9.2l6.7-2.5h4.2l0.8,2.1l-0.8,5.9l-1.3,2.5h-2.9L385.6,125L385.6,125z" />
      <path id="PT_00000088818061232542527590000003367790482835952539_" class="st1" d="M315.6,213l-2.3,1.7l-3.2-0.8l-3.2,0.8l0.9-5
			l-0.5-4.2l-2.8-0.4l-1.4-2.5l0.5-4.2l2.3-2.5l0.5-2.5l1.4-3.8v-2.9l-0.9-2.5v-2.1l2.3-1.7l2.3-0.8l1.4,3.4h3.2l0.9-0.8h3.7
			l1.4,3.4l-2.8,1.7l-0.5,5l-0.9,0.8l-0.5,3.4l-2.8,0.4l2.3,3.8l-1.8,4.2l1.8,2.1l-0.9,1.7l-2.3,2.5L315.6,213L315.6,213z" />
      <path class="st1" d="M465.8,102.1h-9.2l-5.9-0.8l0.8-2.5l6.3-2.1l5.5,1.3l2.1,0.8v1.7L465.8,102.1z" />
      <path id="ES_00000143608621393167991750000005379452783184301995_" class="st1" d="M344.5,172.2l2.1,2.5l9.7,2.9l2.1-1.3l5.9,2.9
			l5.9-0.8l0.4,3.8l-5,4.2l-6.7,1.3l-0.4,2.1l-3.4,3.8l-2.1,5.5l2.1,3.8l-2.9,2.9l-1.3,4.2l-4.2,1.3l-3.8,5h-7.1h-5l-3.4,2.1
			l-2.1,2.5l-2.5-0.4l-2.1-2.1l-1.3-3.8l-5-0.8l-0.4-2.1l2.1-2.5l0.8-1.7l-1.7-2.1l1.7-4.2l-2.1-3.8l2.5-0.4l0.4-3.4l0.8-0.8l0.4-5
			l2.5-1.7l-2.5-3.8h-3.4l-0.8,0.8h-2.9l-1.3-3.4l-2.1,0.8l-2.1,1.7l0.4-4.6l-2.1-2.9l7.6-4.6l6.3,1.3h7.1l5.5,1.3l4.6-0.4
			L344.5,172.2L344.5,172.2z" />
      <path class="st1" d="M405.3,180.6l-1.7,5l-2.5-1.3l-1.3-4.2l0.8-2.5l3.4-2.5L405.3,180.6z" />
      <path class="st1" d="M383.1,132.7l1.3,0.4h1.3l2.5,1.7l7.6,1.3l-2.5,4.2l-0.4,4.6l-1.3,1.3l-2.5-0.4v1.7l-3.8,3.8v2.9l2.5-0.8
			l1.7,2.9v1.7l1.7,2.5l-1.7,2.1l1.7,5l2.9,0.8l-0.4,2.9l-4.6,3.8l-10.5-1.7l-7.6,2.1l-0.4,3.8l-5.9,0.8l-5.9-2.9l-2.1,1.3l-9.7-2.9
			l-2.1-2.5l2.9-3.8l0.8-13l-5.5-6.7l-3.8-3.4l-8-2.5L331,139l6.7-1.3l8.4,1.7l-1.7-7.1l5,2.9l11.8-5l1.7-5.5l4.2-1.3l0.8,2.1h2.1
			l2.5,2.5l3.8,2.9l2.5-0.4L383.1,132.7z" />
      <polygon id="_x30__00000152985332080862723070000014470457263595633032_" class="st1" points="366.3,136.9 366.3,136.9 
			366.3,136.9 		" />
    </g>
    <g id="SurAmerica">
      <path class="st0" d="M231.2,420.3h-1.4h-2.4l-3-6.6l1.6,1.4l2.2,2.2l3.8,1.8l3.6,0.8l-0.4,1.4l-2.2,0.2L231.2,420.3z" />
      <path class="st0" d="M216.1,318.2l5.6,5.2l2.2,0.4l3.6,2.4l2.8,1.2l0.6,1.4l-2,4.8l2.8,0.8l3,0.4l2-0.4l2.2-2.4l0.2-2.8l1.2-0.6
			l1.6,1.8l0.2,2.6l-2,1.8l-1.6,1.2l-2.6,3l-3,4.2l-0.2,2.6l-0.2,3.2l0.6,3.2l-0.4,0.6l0.2,2l0.2,1.6l3.8,2.8v2.2l2,1.4l0.2,1.6
			l-1.6,4l-3.4,1.8l-5,0.6l-3-0.4l1,2v2.4l0.8,1.6l-1.2,1.2l-2.6,0.4l-2.8-1.2l-0.8,0.8l1.2,3l2,1l1.2-1l1.2,1.6l-2,1l-1.4,2l0.6,3
			v1.6h-2.4l-1.4,1.6v2.4l3.2,2.2l2.6,0.6v2.8l-2.2,1.8l-0.2,3.6l-1.8,1.2l-0.4,1.4l2,3.2l2.2,1.8l-1-0.2l-2.4-0.4l-6-0.4l-1.8-1.8
			l-1-2.2l-1.6,0.2l-1.2-1.2l-1.6-3.2l1.4-1.4v-2l-0.8-1.6l0.4-2.6l-0.6-4l-0.8-1.8l0.8-0.6l-0.6-1.2l-1.4-0.6l0.4-1.4l-1.6-1.2
			l-1.8-3.6l0.8-0.6l-1.6-3.8l-0.4-3.2v-2.8l1.2-1.2l-1.6-3l-0.8-2.8l1.4-2l-0.6-2.6l0.8-3l-0.6-2.8l-0.8-0.6l-2.4-5.4l1-3.2l-0.8-3
			l0.4-2.8l1.2-3l1.6-2l-1-1.2l0.4-1L201,326l2.8-1.6l0.6-3.2l-0.4-0.8l2-2.8l3.6,0.8l1.8,2.2l0.8-2.6l3.2,0.2H216.1z" />
      <path id="BZ_00000139999468405189657280000009131586613527353251_" class="st0" d="M141.7,197.3h-0.8l0.6-3.6l0.4-2.6v-0.4
			l0.4-0.2l0.4,0.4l1.2-2h0.6v0.4h0.4l-0.2,0.8l-0.6,1.4l0.2,0.4l-0.4,1.2l0.2,0.2l-0.6,2l-0.6,0.8h-0.6L141.7,197.3L141.7,197.3z" />
      <path id="BO_00000026143683143506883890000001856684728557585289_" class="st0" d="M228,311.6l-0.2-1l-2.6-1.6h-2.6l-4.8,1l-1,2.8
			v1.8l-0.8,3.8l-0.4-0.6l-3.2-0.2l-0.8,2.6l-1.8-2.2l-3.6-0.8l-2,2.8l-2,0.4l-1.6-4.4l-1.8-3.6l0.6-3l-1.6-1.4l-0.6-2.2l-1.6-2.2
			l1.4-3.4l-1.4-2.6l0.6-1l-0.6-1.2l1-1.6l-0.2-2.6v-2.2l0.6-1l-2.8-5.2l2,0.2h1.4l0.6-1l2.4-1.2l1.4-1.2l3.6-0.6l-0.2,2.4l0.4,1.2
			l-0.2,2.2l3.2,2.8l3.2,0.6l1.2,1.2l2,0.6l1.2,0.8h1.8l1.6,1l0.2,1.8l0.6,1l0.2,1.4h-0.8l1.4,3.6l5.2,0.2l-0.2,1.8l0.4,1.2l1.6,0.8
			l0.8,2l-0.2,2.6l-0.6,1.4l0.4,1.8L228,311.6L228,311.6z" />
      <path id="BR_00000049921903017013547710000017555523617247499435_" class="st0" d="M229.6,241.6l1.6,0.2l0.2-0.6l-0.4-0.6l0.2-1
			l1.2,0.2l1.4-0.4l1.6,0.6l1.2,0.6l0.8-0.8h0.6l0.4,0.8l1.4-0.2l1-1.2l0.8-2.4l1.6-2.8l1-0.2l0.6,1.8l1.4,5.4l1.6,0.6v2.2l-2.2,2.6
			l0.8,1l5,0.4v3.2l2.2-2l3.4,1.2l4.6,2l1.4,1.8l-0.4,1.8l3.2-1l5.4,1.6h4.2l4.2,2.6l3.6,3.6l2.2,0.8l2.4,0.2l1,1l1,4l0.6,2l-1,5.2
			l-1.4,2l-3.8,4.4l-1.6,3.6l-2,2.8h-0.6l-0.6,2.4l0.4,5.8l-0.6,4.8l-0.2,2l-0.8,1.2l-0.2,4.2l-2.6,4l-0.2,3.2l-2.2,1.4l-0.6,2h-3
			l-4.2,1.2l-1.8,1.4l-3,1l-3,2.6l-2,3.2l-0.2,2.4l0.6,1.8l-0.2,3.2l-0.4,1.6l-1.2,1.8l-2.2,5.6l-2,2.4l-1.6,1.6l-0.8,3l-1.4,1.8
			l-1-1.8l0.8-1.6l-1.8-2.2l-2.4-1.8l-3-2h-1l-3-2.4l-1.6,0.4l3-4.2l2.6-3l1.6-1.2l2-1.8l-0.2-2.6l-1.6-1.8l-1.2,0.6l0.4-1.8
			l0.2-1.8l-0.2-1.8l-1-0.6l-1,0.4l-1-0.2l-0.4-1.2l-0.6-2.8l-0.6-1l-2-0.8l-1,0.6l-2.8-0.6l-0.2-4.2l-1-1.8l0.8-0.6l-0.4-1.8
			l0.6-1.4l0.2-2.6l-0.8-2l-1.6-0.8l-0.4-1.2l0.2-1.8l-5.2-0.2l-1.4-3.6h0.8l-0.2-1.4l-0.6-1l-0.2-1.8l-1.6-1h-1.8l-1.2-0.8l-2-0.6
			l-1.2-1.2l-3.2-0.6l-3.2-2.8l0.2-2.2l-0.4-1.2l0.2-2.4l-3.6,0.6l-1.4,1.2l-2.4,1.2l-0.6,1H196l-2-0.2l-1.6,0.6l-1.2-0.4v-4.8
			l-2.2,1.8h-2.4l-1.2-1.8l-1.8-0.2l0.4-1.4l-1.6-2l-1.2-2.8l0.8-0.6v-1.4l1.6-0.8l-0.4-1.8l0.6-1l0.2-1.4l3-2.2l2.2-0.6l0.4-0.4
			l2.6,0.2l1-8.6V251l-0.4-1.8l-1.2-1.2v-2.4l1.6-0.4l0.6,0.4v-1.2l-1.6-0.4v-2h5.4l1-1.2l0.8,1l0.4,1.8l0.6-0.4l1.6,1.6l2.2-0.2
			l0.6-1l2-0.8l1.2-0.6l0.4-1.4l2-0.8l-0.2-0.6l-2.4,0.4l-0.4-2l0.2-2.2l-1.2-0.8l0.6-0.2l2,0.4l2.2,0.8l0.8-0.8l2-0.4l3.2-1.2
			l1-1.2l-0.4-0.8h1.4l0.6,0.6l-0.4,1.4l1,0.4l0.6,1.4l-0.8,1.2l-0.4,2.6l0.6,1.6l0.2,1.4l1.8,1.4l1.4,0.2l0.2-0.6l0.8-0.2l1.2-0.6
			l0.8-0.8l1.6,0.2L229.6,241.6L229.6,241.6z" />
      <path id="CO_00000122702242572945533200000012515925608267492227_" class="st0" d="M189.3,210.4l-1.8,0.6l-0.8,1.6l-1.2,0.8
			l-0.8,1.2l-0.4,2.2l-0.8,1.8l1.4,0.2l0.2,1.4l0.6,0.8l0.2,1.2l-0.4,1.2v0.6l0.6,0.2l0.6,1l3.6-0.2l1.6,0.4l1.8,2.8l1.2-0.4l2,0.2
			l1.6-0.4l1,0.6l-0.6,1.6l-0.6,1l-0.2,2.2l0.6,2.2l0.8,1v0.6l-1.4,1.6l1,0.6l0.8,1.2l0.8,3.2l-0.6,0.4l-0.4-1.8l-0.8-1l-1,1.2h-5.4
			v2l1.6,0.4v1.2l-0.6-0.4L192,246v2.4l1.2,1.2l0.4,1.8v1.4l-1,8.6l-1.4-1.6h-0.8l1.8-3.2l-2.2-1.4l-1.6,0.2l-1-0.6l-1.6,0.8l-2-0.4
			l-1.8-3.2l-1.2-0.8l-0.8-1.6l-1.8-1.4l-0.8,0.2l-1.2-0.8l-1.4-1l-0.8,0.4l-2.4-0.4l-0.6-1.4h-0.6l-2.8-1.8l-0.4-1l1-0.2v-1.6
			l0.6-1.2l1.4-0.2l1.2-2l1-1.6l-1-0.8l0.6-1.8l-0.6-2.8l0.6-0.8l-0.4-2.6l-1-1.8l0.4-1.6l0.8,0.2l0.6-1l-0.6-1.8l0.4-0.4h1.4
			l2.2-2.2l1.2-0.4v-1l0.6-2.8l1.6-1.4h1.8l0.2-0.6l2.2,0.2l2.2-1.6l1.2-0.6l1.4-1.6l1,0.2l0.6,0.8L189.3,210.4L189.3,210.4z" />
      <path id="CR_00000111874578085568590370000005959164665453657749_" class="st0" d="M155,213l0.6,1.8l1,1.2l1.2,1.4l-1,0.2v1.2
			l0.6,0.4l-0.4,0.4v0.6l-0.2,0.6l-0.2,0.6l-1.4-0.6l-0.6-0.6l0.4-0.6v-0.6l-0.8-0.8l-1-0.6l-0.8-0.4l-0.2-1l-0.6-0.6v0.8l-0.6,0.8
			l-0.6-0.8l-0.8-0.4l-0.4-0.6v-1l0.4-1l-0.8-0.4l0.6-0.6l0.4-0.4l1.8,0.8l0.6-0.4l0.8,0.2l0.4,0.6l0.8,0.2L155,213L155,213z" />
      <path id="CU_00000153689100254461132030000014799116093022270366_" class="st0" d="M169.8,175.6l1,1.2l2.6-0.4l0.8,0.8l2,2
			l1.6,1.4h0.8l1.6,0.6l-0.2,0.8l2,0.2l2,1.2l-0.4,0.8l-2,0.2l-2,0.2l-1.8-0.2l-4,0.2l2-1.8l-1-0.8l-1.8-0.2l-0.8-1l-0.4-1.8h-1.6
			l-2.4-0.8l-0.8-0.6l-3.4-0.4l-0.8-0.6l1.2-0.8l-2.6-0.2l-2.4,1.8h-1.2l-0.4,0.8l-1.4,0.4l-1.2-0.4l1.6-1l0.8-1.2l1.4-0.6l1.4-0.6
			l2.2-0.2l0.6-0.4l2.4,0.2h2.2L169.8,175.6L169.8,175.6z" />
      <path id="DO_00000016043679850811433170000000216225341843977389_" class="st0" d="M189.9,190.5l0.2-0.8l-0.6-1l0.8-0.6l0.4-1.2
			v-1.6l0.4-0.6h2.2l1.6,0.8h0.8l0.4,1.2h1.6l-0.8,0.8l1.2,0.2l1.2,1.2l-1.2,1.2l-1.2-0.6l-1.2,0l-0.8-0.2l-0.6,0.6l-1,0.2l-0.4-0.8
			l-1,0.4l-1.4,2.2l-0.6-0.4V190.5L189.9,190.5z" />
      <path id="EC_00000175290518359920153820000002889413749409575309_" class="st0" d="M176.9,248.2l0.4,2.4l-0.8,2l-3,3.4l-3.2,1.2
			l-1.6,2.8l-0.4,2.2l-1.6,1.4l-1.2-1.6l-1.2-0.4l-1.2,0.2l-0.2-1.2l0.8-0.8l-0.4-1.4l1.4-2.4l-0.6-1.4l-1,1.4l-1.8-1.4l0.6-0.8
			l-0.4-2.8l1-0.4l0.4-2l1-2l-0.2-1.2l1.6-0.6l2-1.2l2.8,1.8h0.6l0.6,1.4l2.4,0.4l0.8-0.4l1.4,1L176.9,248.2L176.9,248.2z" />
      <path id="GT_00000069396566128344609700000008995971239310708135_" class="st0" d="M141.9,191.3l-0.4,2.4l-0.6,3.6h0.8l0.8,0.6
			l0.2-0.4l0.8,0.4l-1.4,1.2l-1.4,0.8l-0.2,0.6l0.2,0.6l-0.6,0.8l-0.6,0.2l0.2,0.4l-0.6,0.4l-1,0.8l-0.2,0.4l-1.4-0.6h-1.8l-1.2-0.6
			l-1.4-1.2l0.2-1l0.4-0.8l-0.4-0.6l1.6-2.6h3.6l0.2-1l-0.4-0.2l-0.2-0.6l-1-0.8l-0.8-1h1.2l0.2-1.8h2.6L141.9,191.3L141.9,191.3z" />
      <path id="GY_00000070818169129845335190000017013222604565528476_" class="st0" d="M228.2,228.7l-0.4,2.8l-1.8,0.8l0.2,0.8
			l-0.6,1.6l1.2,2.2h0.8l0.4,1.8l1.6,2.8l-0.6,0.2l-1.6-0.2l-0.8,0.8l-1.2,0.6l-0.8,0.2l-0.2,0.6l-1.4-0.2l-1.8-1.4l-0.2-1.4
			l-0.6-1.6l0.4-2.6l0.8-1.2l-0.6-1.4l-1-0.4l0.4-1.4l-0.6-0.6h-1.4l-1.8-2.4l0.8-0.8v-1.4l1.8-0.4l0.6-0.6l-0.8-1.2l0.2-1.2
			l2.4-1.8l1.8,1.2l1.6,2v1.6h1l1.4,1.6L228.2,228.7L228.2,228.7z" />
      <path id="HN_00000018236251986001207960000007898369036167460541_" class="st0" d="M157.4,200.2h-1l-0.4,0.4l-1,0.4h-0.6l-0.8,0.4
			H153l-0.4-0.4h-0.2l-0.4,0.8h-0.2v0.6l-1,0.8l-0.6,0.4l-0.2,0.4l-0.8-0.6l-0.6,0.8h-1h-0.6v1.6h-0.4l-0.4,0.8l-0.8,0.2l-0.4-1
			l-0.8-0.2l0.4-1.2l-0.4-0.4l-0.6-0.2l-1.2,0.4v-0.4l-0.8-0.6l-0.6-0.6l-0.8-0.2l0.6-0.8l-0.2-0.6l0.2-0.6l1.4-0.8l1.4-1.2l0.2,0.2
			l0.6-0.6h0.8l0.4-0.4l0.4-0.2l1.2,0.2h1.2l0.8-0.4l0.4-0.4l0.8,0.2l0.6,0.2h0.8l0.6-0.2l1.2,0.4h0.4l0.8,0.6l0.8,0.6l1,0.4
			L157.4,200.2L157.4,200.2z" />
      <path id="HT_00000110466829551008035650000007290137611743238079_" class="st0" d="M190.6,185.3v1.6l-0.4,1.2l-0.8,0.6l0.6,1
			l-0.2,0.8l-1.8-0.6l-1.4,0.2l-1.6-0.2l-1.4,0.6l-1-1l0.4-1l2.6,0.4l2,0.2l1-0.6l-1.2-1.4l0.2-1.2l-1.8-0.4l0.8-0.8h1.6
			L190.6,185.3z" />
      <path id="JM_00000049199436517292118000000007654793280213430926_" class="st0" d="M175.5,191.1l-0.8,0.4l-1.4-0.6l-1.4-1.2
			l0.4-0.8l1.2-0.2h0.6l1.8,0.2l1.4,0.8l0.4,0.8L175.5,191.1L175.5,191.1z" />
      <path id="MX_00000098216251017304181990000016856150335916407960_" class="st0" d="M122.6,165.8h1l-1.6,2.8l-0.8,2.2l-0.8,4.2
			l-0.6,1.6l0.2,1.8l0.6,1.6l0.2,2.4l1.4,2.4l0.4,1.8l0.8,1.6l2.8,0.8l1,1.4l2.6-0.8l2.2-0.2l2.2-0.6l1.8-0.6l2-1.2l0.8-1.8l0.6-2.6
			l0.6-1l2-0.8l3-0.8l2.4,0.2l1.6-0.2l0.6,0.6l-0.2,1.6l-2,1.2l-0.8,2l0.4,0.6l-0.6,1.4l-1,2.4l-0.6-0.8h-0.6h-0.6l-1.2,2l-0.4-0.4
			l-0.4,0.2v0.4h-2.6h-2.6l-0.2,1.8h-1.2l0.8,1l1,0.8l0.2,0.6l0.4,0.2l0,1h-3.6l-1.6,2.6l0.4,0.6l-0.4,0.8l-0.2,1l-2.8-3.4l-1.2-1
			l-2.2-0.8l-1.6,0.2l-2.4,1.2l-1.4,0.2l-1.8-0.8l-2-0.6l-2.4-1.4l-2-0.4l-2.8-1.6l-2.2-1.6l-0.6-0.8l-1.6-0.2l-2.6-1l-1-1.4
			l-2.6-1.8l-1-2l-0.4-1.6l1-0.2l-0.2-0.8l0.8-0.8l0.2-1l-0.8-1.4v-1.2l-0.6-2l-1.8-3.2l-2.2-2.4l-1-2l-2-1.2l-0.4-0.8l0.8-2
			l-1.2-0.8l-1.2-1.6v-2.2h-1.4l-1.2-1.6l-0.8-1.6l0.2-1l-0.8-2.4l-0.2-2.4l0.4-1.2l-1.6-1.2l-1,0.2l-1-1l-0.8,1.2v1.4l-0.4,2.4
			l0.4,1.2l1.4,2.2l0.2,0.8l0.4,0.2v1h0.4v2l0.6,0.8l0.2,1.2L85,163l0.2,3l0.4,1.4l0.4,1.4l-0.2,1.6H87l0.8,1.4l0.8,1.4l-0.2,0.6
			l-1.2,1.6h-0.4l-0.4-2l-1.4-1.8l-1.6-1.6l-1.2-0.8l0.6-2.4V165l-1-1l-1.6-1.4l-0.6,0.8l-0.4-1l-1.4-0.8l-1-1.8l0.2-0.2l1,0.2
			l1.4-1.2l0.4-1.4l-1.4-2.2l-1.2-0.8l-0.4-2l-0.2-2.2l-0.4-2.6v-2.8l3-0.2l3.4-0.4l-0.4,0.6l3.4,1.6l5.4,2.2h5.4h2.2l0.4-1.4h4.2
			l0.6,1.2l1,1l1.2,1.4l0.4,1.6l0.2,1.8l1.2,1l2,1l2.4-2.4h2.2l1.6,1.2l0.8,2.2l0.4,1.8l1.2,1.8v2.2l0.4,1.4l2,1L122.6,165.8
			L122.6,165.8z" />
      <path id="NI_00000170996155381209319400000006690901260422701991_" class="st0" d="M157.4,200.2l-0.2,0.4l-0.2,0.6l0.2,1.2l-0.8,1
			l-0.4,1.2l-0.2,1.4v0.8v1.4l-0.4,0.2l-0.4,1.4v0.8l-0.6,0.8v0.8l0.4,0.6l-0.6,0.6l-0.8-0.2l-0.4-0.6l-0.8-0.2l-0.6,0.4l-1.8-0.8
			l-0.4,0.4l-0.8-1l-1.2-1.2l-0.6-1l-1-1l-1.2-1.4l0.4-0.4l0.4,0.4l0.2-0.2l0.8-0.2l0.4-0.8h0.4V204h0.6h0.6l0.6-0.8l0.8,0.6
			l0.2-0.4l0.6-0.4l1-0.8v-0.6h0.2l0.4-0.8h0.2l0.4,0.4h0.6l0.6-0.4h0.6l1-0.4l0.4-0.4L157.4,200.2L157.4,200.2z" />
      <path id="PA_00000045579054431174413780000006065312664680830375_" class="st0" d="M172.1,220.3l-0.4,0.4l0.6,1.8l-0.6,1l-0.8-0.2
			l-0.4,1.6l-0.8-0.8l-0.4-1.8l0.6-0.8l-0.6-0.2l-0.4-1l-1.4-0.8l-1.2,0.2l-0.6,1l-1.2,0.8h-0.6l-0.2,0.6l1.2,1.8l-0.8,0.4l-0.4,0.4
			l-1.4,0.2l-0.4-2l-0.4,0.6l-0.8-0.2l-0.4-1.2l-1.2-0.2l-0.8-0.4H157v0.6l-0.2-0.4l0.2-0.6l0.2-0.6v-0.6l0.4-0.4l-0.6-0.4v-1.2
			l1-0.2l1,1.2v0.6l1,0.2l0.2-0.2l0.8,0.8l1.4-0.2l1.2-0.8l1.8-0.6l1-1l1.6,0.2v0.2h1.6l1.2,0.6l0.8,1L172.1,220.3L172.1,220.3z" />
      <path id="PE_00000026133565087290033350000001442706147385356174_" class="st0" d="M192.4,261.3l-2.6-0.2l-0.4,0.4l-2.2,0.6
			l-3,2.2l-0.2,1.4l-0.6,1l0.4,1.8l-1.6,0.8v1.4l-0.8,0.6l1.2,2.8l1.6,2l-0.4,1.4l1.8,0.2l1.2,1.8h2.4l2.2-1.8v4.8l1.2,0.4l1.6-0.6
			l2.8,5.2l-0.6,1v2.2l0.2,2.6l-1,1.6l0.6,1.2l-0.6,1l1.4,2.6l-1.4,3.4l-0.6,1.6l-1.4,0.8l-2.8-1.8l-0.4-1.2l-5.8-3.2l-5.2-3.4
			l-2.4-2l-1.4-2.6l0.4-1l-2.6-4.2l-3.2-5.8l-3-6.2l-1.2-1.4l-1-2.4l-2.2-2l-2-1.2l0.8-1.4l-1.4-3l0.8-2.2l2.2-2l0.6,1.4l-0.8,0.8
			l0.2,1.2l1.2-0.2l1.2,0.4l1.2,1.6l1.6-1.4l0.4-2.2l1.6-2.8l3.2-1.2l3-3.4l0.8-2l-0.4-2.4l0.8-0.2l1.8,1.4l0.8,1.6l1.2,0.8l1.8,3.2
			l2,0.4l1.6-0.8l1,0.6l1.6-0.2l2.2,1.4l-1.8,3.2h0.8L192.4,261.3L192.4,261.3z" />
      <path id="PY_00000140009476920762602350000018205053726988790713_" class="st0" d="M228,311.6l1,1.8l0.2,4.2l2.8,0.6l1-0.6l2,0.8
			l0.6,1l0.6,2.8l0.4,1.2l1,0.2l1-0.4l1,0.6l0.2,1.8l-0.2,1.8l-0.4,1.8l-0.2,2.8l-2.2,2.4l-2,0.4l-3-0.4l-2.8-0.8l2-4.8l-0.6-1.4
			l-2.8-1.2l-3.6-2.4l-2.2-0.4l-5.6-5.2l0.8-3.8v-1.8l1-2.8l4.8-1h2.6l2.6,1.6L228,311.6L228,311.6z" />
      <path id="SV_00000075884852392679974060000013474486589832677771_" class="st0" d="M143.9,205.2l-0.4,0.8h-1.6l-1-0.2l-1-0.6
			l-1.4-0.2l-0.8-0.6l0.2-0.4l1-0.8l0.6-0.4l-0.2-0.4l0.6-0.2l0.8,0.2l0.6,0.6l0.8,0.6v0.4l1.2-0.4l0.6,0.2l0.4,0.4L143.9,205.2
			L143.9,205.2z" />
      <path id="SR_00000167386588381233338440000003535585295514254760_" class="st0" d="M237,229.5l-1.6,2.8l0.2,2.2l1,1.8l-0.6,1.4
			l-0.2,1.4l-0.8,1.4l-1.6-0.6l-1.4,0.4l-1.2-0.2l-0.2,1l0.4,0.6l-0.2,0.6l-1.6-0.2l-1.6-2.8l-0.4-1.8h-0.8l-1.2-2.2l0.6-1.6
			l-0.2-0.8l1.8-0.8l0.4-2.8l3.4,0.6l0.2-0.6l2.2-0.2L237,229.5L237,229.5z" />
      <path id="UY_00000164474331456006291980000009611560427383282367_" class="st0" d="M246.3,354.6l-0.8,2l-2.6,1.8l-2-0.6l-1.4,0.4
			l-2.8-1.4h-1.8l-2-1.8l-0.2-2l0.4-0.6l-0.6-3.2l0.2-3.2l0.2-2.6l1.6-0.4l3,2.4h1l3,2l2.4,1.8l1.8,2.2l-0.8,1.6L246.3,354.6
			L246.3,354.6z" />
      <path id="VE_00000155143069357315423040000013952012693236302747_" class="st0" d="M221.1,221.1l-2.4,1.8l-0.2,1.2l0.8,1.2
			l-0.6,0.6l-1.8,0.4v1.4l-0.8,0.8l1.8,2.4l0.4,0.8l-1,1.2l-3.2,1.2l-2,0.4l-0.8,0.8l-2.2-0.8l-2-0.4l-0.6,0.2l1.2,0.8l-0.2,2.2
			l0.4,2l2.4,0.2l0.2,0.6l-2,0.8l-0.4,1.4l-1.2,0.6l-2,0.8l-0.6,1L202,245l-1.6-1.6l-0.8-3.2l-0.8-1.2l-1-0.6l1.4-1.6v-0.6l-0.8-1
			l-0.6-2.2l0.2-2.2l0.6-1l0.6-1.6l-1-0.6l-1.6,0.4l-2-0.2l-1.2,0.4l-1.8-2.8l-1.6-0.4l-3.6,0.2l-0.6-1l-0.6-0.2v-0.6l0.4-1.2
			l-0.2-1.2l-0.6-0.8l-0.2-1.4l-1.4-0.2l0.8-1.8l0.4-2.2l0.8-1.2l1.2-0.8l0.8-1.6l1.8-0.6v0.8l-1.6,0.4l0.8,1.4l-0.2,1.6l-1.4,1.8
			l1,2.6l1.2-0.2l0.8-2.4l-0.8-1v-2.4l3.6-1.2l-0.2-1.4l1-1l0.8,2.2h2l1.6,1.8v1h2.4l3-0.2l1.6,1.4l2,0.4l1.6-1V214l3.4-0.2h3.2
			l-2.4,1l0.8,1.6l2.2,0.2l2,1.6l0.4,2.6h1.4L221.1,221.1L221.1,221.1z" />
      <path class="st0" d="M224.1,413.5l3,6.6h2.4h1.4l-0.2,1.2l-1.6,1H228l-1.6-0.2l-2-0.8l-2.4-0.6l-3.6-1.6l-3.2-1.6l-4.8-3.4
			l2.2,0.6l4.2,2l3.6,1l0.6-1.4l-0.2-2l1.6-1.2L224.1,413.5z" />
      <path class="st0" d="M204.2,319.8l0.4,0.8l-0.6,3.2l-2.8,1.6l0.8,5.2l-0.4,1l1,1.2l-1.6,2l-1.2,3l-0.4,2.8l0.8,3l-1,3.2l2.4,5.4
			l0.8,0.6l0.6,2.8l-0.8,3l0.6,2.6l-1.4,2l0.8,2.8l1.6,3l-1.2,1.2v2.8l0.4,3.2l1.6,3.8l-0.8,0.6l1.8,3.6l1.6,1.2l-0.4,1.4l1.4,0.6
			l0.6,1.2l-0.8,0.6l0.8,1.8l0.6,4l-0.4,2.6l0.8,1.6v2l-1.4,1.4l1.6,3.2l1.2,1.2l1.6-0.2l1,2.2l1.8,1.8l6,0.4l2.4,0.4h-2.2l-0.8,0.8
			l-1.6,1l0.8,2.8h-1l-3-1l-3.6-2.2l-3.8-1.8l-1.6-2l-0.2-1.8l-2-2l-2.4-5.2v-3l1.6-2.4l-4-1l1.4-2.8l-1-5.2l3.2,1l-0.8-6.4l-2-0.8
			l0.4,3.8l-1.8-0.4l-0.8-4.4l-1-5.8l0.6-2.2l-1.6-3l-1.2-3.6l1-0.2l0.2-5l0.6-5v-4.6l-1.6-4.8l0.2-2.6l-1-3.8l0.8-3.8l-0.4-6v-6.6
			v-7l-0.8-5.2l-1-4.4l1.4-0.8l0.6-1.6l1.6,2.2l0.6,2.2l1.6,1.4l-0.6,3l1.8,3.6l1.6,4.4L204.2,319.8z" />
      <path id="GF_00000085227243153528245330000007508150637031229855_" class="st0" d="M235.2,240.4l0.8-1.4l0.2-1.4l0.4-1.4l-1-1.8
			l-0.2-2.2l1.6-2.8l1,0.4l2,0.8l2.8,2.6l0.4,1.2l-1.6,2.8l-0.8,2.4l-1,1.2l-1.4,0.2l-0.4-0.8h-0.6l-0.8,0.8L235.2,240.4
			L235.2,240.4z" />
      <path id="AW_00000141456989363556246360000003648521448062552230_" class="st0" d="M193.6,208.2h-0.2l-0.2-0.2v-0.2v0.2l0.2,0.2
			H193.6L193.6,208.2L193.6,208.2z" />
      <path id="CW_00000003815089910534793240000018407411281809391746_" class="st0" d="M196.6,209.6L196.6,209.6l-0.4-0.2H196
			l-0.2-0.2l0,0h-0.2V209l-0.2-0.2v-0.2l0.2,0.2v0.2l0.2,0.2h0.4v0.2L196.6,209.6L196.6,209.6L196.6,209.6z" />
      <path class="st0" d="M163.8,186.5L163.8,186.5l0.2-0.2h0.2h0.2l0,0l0,0l0,0h-0.2l0,0L163.8,186.5L163.8,186.5z" />
      <path class="st0" d="M167.8,185.3l-0.4,0.2v-0.2H167.8z" />
      <path class="st0" d="M168,185.3L168,185.3l0.4-0.2v0.2H168z" />
      <path class="st0" d="M245,412.7L245,412.7L245,412.7L245,412.7L245,412.7L245,412.7L245,412.7z" />
      <path class="st0" d="M244.8,412.1L244.8,412.1l0.2,0.2v0.2h-0.2V412.1L244.8,412.1L244.8,412.1z" />
      <path class="st0" d="M247.9,411.7L247.9,411.7v0.2V411.7L247.9,411.7L247.9,411.7L247.9,411.7z" />
      <path class="st0" d="M241.8,411.1L241.8,411.1v0.2h-0.2h-0.2l0,0h-0.2v-0.2l0,0l0,0h0.2H241.8h-0.4H241.8L241.8,411.1L241.8,411.1
			z" />
      <path class="st0" d="M243.2,410.5L243.2,410.5l-0.4-0.2l-0.4-0.2v-0.2H242h-0.2l-0.2-0.2l0,0l0.4,0.2l0.4,0.2h0.2h0.2l0.2-0.2
			v-0.2l0,0h0.2l0,0h0.2v0.2h0.2h0.4l0,0h0.2h0.2h-0.2v-0.2h0.2h0.2v0.2l-0.2,0.2v0.2l0,0h-0.2l-0.2,0.4l-0.2,0.2l-0.2,0.2v0.2
			l-0.2,0.2l0,0h-0.2v0.2h-0.4l0,0l0.2,0.2l0,0v0.2h-0.2l-0.2,0.2h-0.2l0,0v-0.2l-0.2-0.2l0,0H242l0.2,0.2H242l-0.2-0.2l0,0h-0.2
			h-0.2l0,0h0.4h0.2h-0.2l0,0h0.4h0.2h0.2l0,0h0.2v-0.2h-0.2v-0.2l0,0h0.2l0,0h0.2L243.2,410.5l-0.2,0.2l0,0h-0.2h-0.2l-0.2-0.2v0.2
			h0.4h0.2h0.2V410.5L243.2,410.5L243.2,410.5L243.2,410.5z" />
      <path class="st0" d="M244,409.7L244,409.7l0.2,0.2L244,409.7L244,409.7L244,409.7z" />
      <path class="st0" d="M243.6,409.7L243.6,409.7L243.6,409.7L243.6,409.7L243.6,409.7z" />
      <path class="st0" d="M242.8,409.5h0.2v0.2l-0.2,0.2l0,0h-0.2v-0.4H242.8L242.8,409.5L242.8,409.5L242.8,409.5L242.8,409.5z" />
      <path class="st0" d="M246.5,409.5h0.2l0,0h0.2h0.2l0.2,0.2v0.2l0,0h-0.2v-0.2l0,0v0.2l0,0v0.2h0.2l0,0v0.2h0.2l0,0l0.2,0.2v-0.2
			h-0.4v-0.2h0.2h0.8l0.4,0.2l0,0v0.2h-0.2h-0.2h-0.2h0.2h0.2h0.4h0.2l0,0v0.2h-0.2l0,0h-0.4h-0.2h0.2l-0.4,0.2h-0.2h-0.2h-0.4h-0.2
			l-0.2-0.2v0.2h0.2h0.2l0.2,0.2l0,0h0.2l0.2,0.2l0,0v0.2l0,0l-0.2-0.2h-0.2l-0.2,0.2v-0.2h-0.2h-0.2h-0.2l0,0v0.2h0.2l0,0l0,0
			l0.4,0.2l0,0h-0.2h-0.2l-0.2-0.2h-0.2h-0.2v0.2h0.2v0.2l0,0h-0.2l0,0H246l0,0l0,0l-0.2-0.2l0.2-0.2l0,0l-0.2-0.2l0,0h0.2l0,0h0.2
			v-0.2l0.2-0.2h0.2l0.2,0.2v0.2h0.2l-1-0.6v-0.2h-0.2l-0.2-0.2l0,0h0.2v-0.2h-0.4v-0.2l0,0h0.2h0.2v-0.2l-0.2-0.2h0.2L246.5,409.5z
			" />
      <path class="st0" d="M244,409.3h0.4l0,0l0,0l0,0v0.2l0,0h-0.2H244V409.3L244,409.3L244,409.3z" />
      <path class="st0" d="M240.6,408.9h-0.2H240.6L240.6,408.9z" />
      <path class="st0" d="M200.6,190.5L200.6,190.5L200.6,190.5L200.6,190.5L200.6,190.5L200.6,190.5z" />
      <path class="st0" d="M203,189.1h0.2h0.2h0.2h0.2h0.2h0.2l0,0h0.2h0.2h0.2h0.4l0,0h0.2l0,0h0.4l0,0l0,0l0.2,0.2l0,0v0.4v0.2
			l-0.4,0.2l-0.2,0.2l-0.2,0.2H205h-0.2h-0.2h-0.2h-0.2h-0.4l0,0h-0.2l-0.2-0.2H203h-0.4h-0.2h-0.2l0,0l0,0H202h-0.2h-0.2l0.2-0.4
			v-0.2v-0.2v-0.2l0,0v-0.2h0.2l0,0v-0.2h0.2L203,189.1z" />
      <path id="BQBO_00000137122720960492421050000017526935245681860539_" class="st0" d="M198,209.6L198,209.6l-0.2-0.2v-0.2V209h-0.2
			l-0.2-0.2v-0.2l0.6,0.2l0,0v0.2L198,209.6L198,209.6L198,209.6z" />
      <polygon id="_x31__00000098179502652450685230000008225570236478789794_" class="st0" points="233.4,357.4 233.4,357.4 
			233.4,357.4 		" />
    </g>
  </g>
</svg>
