<svg xmlns="http://www.w3.org/2000/svg" viewBox="0 0 369.78 227.87">
    <defs>
        <style>
            .cls-1{fill:#276e7b;}.cls-1,.cls-2,.cls-3{stroke:#1c303a;stroke-linecap:round;stroke-linejoin:round;stroke-width:0.75px;fill-rule:evenodd;}.cls-2{fill:#d06c60;}.cls-3{fill:#85a6a5;}.cls-4{opacity:0.75;}
        </style>
    </defs>
    <g id="Layer_2" data-name="Layer 2">
        <g id="puntos_click2_norteamerica" data-name="puntos click2_norteamerica">
            <g id="mapa">
                <path class="cls-3" d="M327,130.78l2.39.64,3.31-.15-2.33,1.83-1.4.29-3.87-1.9L324.7,130l1.76-1.34Z"/>
                <path class="cls-3" d="M337.16,119.52l-1.69.07-4.08-1.33-2.46-2.12,1.33-.35,4.16,1.13,2.95,1.83Z"/>
                <path class="cls-3"
                      d="M120.48,122.13l-2.19.63-4.43-2v-1.55l-2-1.55.21-1.26-3-.78.43-2.39,1-1,2.89.92,1.69.7,2.88.42.14,1.55.28,2,2.26,1.83Z"/>
                <path class="cls-3"
                      d="M359.12,112.63l-3.52,3.8,2.74-1.48,2,1-1.68,1.48,2.67,1.2,2-1.06,3,1.34-2,3.24,2.67-.78-.21,2.32.35,2.75-2.53,3.94-1.69.14-2-.84,1.76-3.59-.85-.57-5.14,3.8-2.11-.14,3.1-2.11-3.1-1-3.87.28-6.75-.14-.14-1.27,2.67-1.62-1.2-1.12,3.8-2.68,5.77-7,3-2.46,3.52-1.48,1.48.14-1.06,1.2Z"/>
                <path class="cls-3"
                      d="M105.77,97.57l1,.56,3.52-.35-5.07,4.85.22,3.52h-1.34l-.49-2,.35-2-.57-1.34.92-1.9Z"/>
                <path class="cls-3" d="M305.21,64.14l-2.53,2.11-1.2-.35-.07-1.2.28-.28,2-1.2,1.2.07Z"/>
                <path class="cls-3" d="M298.38,61.88l-5.06,2.26L291.21,64V62.94l3.51-1.9,4.23.07Z"/>
                <path class="cls-3"
                      d="M296.2,50.06l-.63,1.76,1.9-.63,1,1.05L301,53.65l2.67,1.2-1,1.9,2.46-.28,1.34,1.33L303,59.07l-4.15-1-.57-1.83-4.43,2.19-5.77,2,.49-2.32-4.43.35,4-2,2.53-3.17,3.59-3.59Z"/>
                <path class="cls-3" d="M327.8,44.22l-3.45.21.49-1.9,2.68-2.18,3-.49,1.61,1-1.05,1.62-.64.56Z"/>
                <path class="cls-3"
                      d="M275.37,36.69,272.49,38l-3-1.13-2.74.35-2.4-1.69,3.52-1.19,3.45-1.62,2.11,1.06,1.13.7.28.7Z"/>
                <path class="cls-3"
                      d="M312.67,137.05l-1.55-2.54,2-6L312,127.26l-2.61.71-.77-1.13-3.87,3.31-2.25,3.45-2,2-1.76.7-1.2.21-.77,1.06h-6.55l-5.49.07-1.9.77-4.78,3.1v-.07l-.64-.28-1.41.63-1.33.92-1.27-.78-3.31.56-2.74.64-1.34.56-1.62,1.48,1.27.49,1.2-.28h.21l-.21,1.34-3.38.49-2,.56-1.2.71-1.83-.43-1.12.22-2.05,1.26L252.15,151l-1.9-.28,1.4-1.55,2.61-2.46,2.88-1.48.78-1.27.63-2.11,2.68-2.46.63-2.82.77,2.75,2.68.63,1.69-1.48-1-3.37-.63-1.41-2.82-.85-2.67-.49h-2.75l-2.39-.56-.28-1-1,.64-.84-.15L254,129.8l-1.27-.57,1.34-1.68-.85-1.27,1.2-1.27-3.66-.63-.07-2.54-.56-.56-2.33-.14-2.88-.84-1.06.56-1.26,1.06-2.33.7-2.18,1.76-3.8-1.2-3.09.56-2.75-1.33-3.24-.71-2.32-.28-.7-.7.63-2.39h-1.2l-.91,1.68h-97l-3.8-4.29-1.12-1.9L113.86,112l.91-3.87,2.54-2.6-2.89-1.9,2.18-3.45-1.47-3.1,1.76-2.25,3.59-2,2.25-2.67-3.24-2.68,1-4.85.77-3-1.13-1.9L119.56,76l.42-2.18-4.57,1.34-5.35,2.32-.21-2.68L109.5,73l-2-1.12-3-.14,25.05-23,17.32-14.35,4.22.91,2.32,1.83,2.6.35,4.44-1.54,4.92-1.2,3.73.42,6.27-1.62,5.77-.91.14,1.55,3.17-.92,2.74-1.76,1.48.43,1,3.37,6.69-2.6-2.74,2.88,4.22-.63,2.25-1,3.24.21,2.74,1.55L211.4,37l3.31.64,3.09-.22,2,2-6,1.9,4.51.77,8.37-.42,3.1-.71,1,2.33,5-1.9-1.48-1.69,3.17-1.27,3.66-.21,2.74-.35,1.48.91,1.06,2,3.52-.28,3.73,1.76,5.06-.63,4.22.07,1.69-2.4,3.17-.63L271.29,40l-3,3.66,4.37-3.1,2.25.14,4.5-3.87-1.12-2.32-2-1.55,3.87-4.15,5.77-2.68,3.16.64,1.41,1.62.28,4.22-4.08,1.83,4.72.77-3.1,3.87,6.26-2.95,1.55,2.46-3,2.82L294,44l5.14-2.74,4.57-3.38L307,33.73l3.87.29,3.8.56,2.53,1.9L316,38.38l-3.59,2,.63,2-1.69,1.9-7.67,2.75-4.57.63-2.25-1.2-2.33,2-5.2,3.31-2.12,1.76-5.41,2.67-4.58.29-3.59,1.69-2,2.67-4,.49-6.12,3.31-6.62,4.57-3.52,3.24-3.45,4.86,4.23.7L251,81.94l-.56,3.24,5.14-.85,4.92,1.83,2.32,1.62,1.2,2,3.45,1.2L270,92.71l5.35.28,3.38.42-2.53,3.66-1.2,4.3.07,4.85,3.1,4.15,3.3-1.4,3.94-4.51,1.62-6.75-1.19-2.26,6.33-2,5.28-3,3.38-3L302,84.69l-.28-3.59-2.25-3.17,6.26-4.36.71-3.73,2.74-6.34,2.68-1,4.71,1.12,3,.43,3.16-1.13,2.19,1.41,2.53,2.39.14,1.55,5.42.35-1.83,3.45-1.62,5.21,2.67.7,1.13,2.46,5.77-2.32,5.28-4.64,2.95-1.9.78,3.73L350,80.6l1.41,5.07L349,88.35l3.38,2.39,2,2.39,4.86,1.13L361,95.59v3.66l2.39.57.77,1.62-1.4,4.85-3,1.62-3,1.55L350.53,111,345,114.53l-6.05.77-7.11-1h-5.14l-3.73.29-4,3.16-5.2,2-7.11,5.77-5.56,4.09,3.31-.71L312,123l8.65-3.66L326,119l2.32,2.18-4.29,3-.42,4.71.07,3.38,3.94,2.18,6-.63,5.07-5-.7,3.24,1.75,1.62-5.2,2.88-8.73,2.68-4.08,1.76-5.07,3.23-2.6-.35,1.05-3.73,7.32-3.73-5.7.14Z"/>
                <path class="cls-3"
                      d="M237.72,21.77l-3.31,1.69,7.39-1.06,1.83,1.83,5.14-1.9,1.27,1.2-1.55,3.59,3-1.48,2-3.73,3-.56,2.11.56,1.55,1.48L258.27,27l-1.69,2.6,3,1.83,3.52,1.83-1.83,1.62-5,.35.56,1.41L254.54,38l-4.72-.57-4-1.05-3.59.21L235.54,38l-7.95.56-5.56.35.21-1.83-2.89-1-3,.42-.43-3,2.33-.42,5.13-.63,3.87.21,4.37-.7L227,31.06l-6.4.28-4-.07V29.93l8.23-1.54-4.43.07-3.8-1,5.49-2.74,3.66-1.48,10-2.18Z"/>
                <path class="cls-3" d="M265.52,20.72l-4.93,2.39L259,20.57l1.48-.56,3.87-.14Z"/>
                <path class="cls-3"
                      d="M342,21.84l-.5,1-2.88-.07-2.89-.07-3.45.49-.63-.28L330.12,21l1.2-1.27,1.55-.28,5.91.42Z"/>
                <path class="cls-3"
                      d="M313.94,21.63l.21,2.25L319.21,21l8.24-1.48,1.62,3.73-2.25,2.39,6.33-1.05,3.73-1.48,4.78,1.83,2.61,1.76-.78,1.62,5.77-.85,1.34,2.39,5.91,1.48,1.55,1.48.64,3.59-6.41,1.76,5.42,2.53,4.15.85,2.32,3.52,4.58.28-2.32,2.74-7.67,4.58L356,51l-2.67-3.8-4.16.49L347.51,50l1.9,2.25,3.16,1.83.71,1.06-.07,4L350.67,62l-3.31-1.13-6.05-3.17,2.54,3.45,2,2.46-.21,1.41-7.68-1.62L332.59,61l-2.68-1.9,1.69-1.2-3.38-2-3.3-1.9-.64,1.13-9.22.63-1.69-1.33,3.8-3,5.7-.07,6.55-.49-.14-1.41,2.18-2,6.19-3.8.28-1.76-.35-1.27-3.31-1.9-5-1.26,2.46-1-1.41-2.39L327.94,34l-1.34-1.27-2.32,1.13-5.56.49-9.85-.85-5.21-1.12-4.15-.57-1.34-1.33,4.44-1.69h-4L300.92,25l5-3.24,4.23-1.48,7.88-1Z"/>
                <path class="cls-3"
                      d="M278.47,19.17l2.53.77,5.35-.49L286,20.5l-4.3,1.76,2.68,1.55-3.66,3.31-5.91,1.41-2.39-.28-.64-1.41L267.63,24l1.2-1.19,5.2.42-.63-2.32Z"/>
                <path class="cls-3"
                      d="M294.37,23l-5.49,2.74-3.09-.14,1.26-3.24,1.83-1.75,3-1.55,3.66-1,5.56.14,4.36.85-7.11,3.23Z"/>
                <path class="cls-3"
                      d="M212.88,28.1l-9.5,1.83.42-1.61-4.22-2,3.09-1.55L208,22.12l5.35-2.39.28-2.18,9.85-.56,3,.77,6.69.21,1.33,1,1.13,1.54-4.58.92L221.18,24l-6.47,2.61Z"/>
                <path class="cls-3" d="M301,15.16l-2.89,1.33-3.66-.28-2.25-.91,3.17-1.55,4.85-1,1,1.27Z"/>
                <path class="cls-3"
                      d="M294.79,9l.15,1.62-2,1.76-4.08,2.68-4.85.35-2.25-.57,2.39-2-4.65.21,3-2.67,2.67.14,5.42-1.2,3.45.22Z"/>
                <path class="cls-3"
                      d="M267.07,10.86l-.5,1.2,3.1-.56,2.53.14-1.61,1.76L267,15l-9.79.56-8.65,1.55-4.22.07,1-1.13,7.53-1.62-12.6.42-2.95-.63,8.23-3.38,3.8-1,5.84,1.19,2,2,4.3.29.49-3.31,4.08-1.27,2.18.35Z"/>
                <path class="cls-3"
                      d="M306.27,7.77l1.61,1.12h5.21l1,1.13-2,1.27,2.18.77.84.84,3.45.14,3.59.29,5-.71,5.7-.35,4.08.28,1.62,1.34-.71,1.41-2.53,1-4.71.78-3-.5-8.3.57-5.63.07-4-.43-6-1.12,1.13-2L306.27,12l-1-1.55L300.35,10,298.52,9l2.68-1.4Z"/>
                <path class="cls-3"
                      d="M253,5.94l-4.08,2.6-3.73,1.2-2.67.14-7,1.48-5,.56L228,11.14l8.23-2.6,8.59-2.18,3.87.07Z"/>
                <path class="cls-3" d="M310.14,6.36l-1.27.07-4.65-.21.5-.92,5.06.07,1.13.57Z"/>
                <path class="cls-3" d="M268.76,5.73l-6.2,1-2.32-1,3.59-1.06,4.22-.35,2.89.49Z"/>
                <path class="cls-3" d="M274.24,2.77l-4,.63H266l.7-.49,4-.91,1.19.14Z"/>
                <path class="cls-3" d="M307.18,4.53l-4.64.7-1.13-.77.42-1.2,1.55-1.33,3.1.14,1.19.21,1.62,1.12Z"/>
                <path class="cls-3"
                      d="M297.47,3.68,296.69,5,293,4.67l-2.81-1.06-5.49-.14,3.73-.91-2-.78L288,.52l4.29.42,5.28,1.2Z"/>
                <path class="cls-3"
                      d="M238.07,124.38l-4.29,1.41-3.31,1.76-3.24,1.9-.35.63,4-.92,1.48,1.48,3.24-1,3.45-1.48,3.8-1.48L240.68,129l1.76.57,1.75,1.68,3.59-1,3.59-.35.21,1.26,1.06.14.84.15,1.06,1.76-3.31.42h-.07l-2.6-.5-3.17.85-2.6.42-3.31,2.89-2.11,1.62.28.49,3.87-2.89H242l-3.3,3.45-2.05,3.1-1.75,2.53-.43,2.18-.56,1.06L233.5,150l.07,2.33.21.35,1.27-.07,1.12-.49,1-.57,2.32-2.18,1.27-3-.07-2.75,1-1.9,1.83-2.18L245,138l1.9-1.05-.28,1.47,1.55-2.18.91-.42,1.2-1.69,2.67.92,2,1.68-.56,2.05-1.13,2-2.67,1.76-.28,1.12h.7l3-1.9,1.12.42-.35,2.61-.49,1.83-2.61,2.46-1.4,1.55-1.9,1.69,1.9.91,1.76.28,2.81-.63,2.61-1.2,2.11-.63,3.23-1.27,4.09-2.67.07-.42.21-1.34,1.9-.56,2.74.21,2.82.35,3.23-1.48.43-1.76-.14-.63,4.78-3.1,1.9-.77,5.49-.07h6.55l.77-1.06,1.2-.21,1.76-.7,2-2,2.25-3.45,3.87-3.31.77,1.13,2.61-.71,1.12,1.27-2,6,1.55,2.54.14,1.47-4.5,2.11-4.23,1.55-4.22,1.34-2.81,2.67-.92,1-.84,2.39.49,2.32,1.48.15.14-1.62.77,1-.7,1.27-2.68.7L293,153.3l-3,.78-1.62.21-2.18.21-3.52,1.34,5.7-.85.77.85-5.55,1.33h-2.33l.28-.56-1.47,1.27,1,.21-1.76,3.24-3.73,3.44.07-1.19-.77-.21-.85-1.13v2.46l.71.78-.42,1.69-1.69,1.76-3.17,3.58-.28-.14,2-3.09-1.41-1.69.71-3.8-1.34,2v2.88l-2.25-.7,2.11,1.41-1.06,4.29,1,.35v1.55l-.71,4.5-3.23,3.31-4.3,1.34-3.09,2.67-2,.29-2.4,1.68-.91,1.48-4.86,3L244.9,196l-2.46,2.67-1.34,3.17V205l.42,3.87,1.06,3.17-.36,2,.92,5.2-.7,3.1L242,224l-1.4,2.74-1.27.57-1.83-.57-.28-2L236,223.75l-1.41-3.87-1.12-3.45-.28-1.76,1.4-3-.56-2.46-2.18-3.8-1.34-.7-4.29,2.11-.63-.28-1.41-2.12L222,203.27l-4.51.63-3.23-.56-3,.35-1.76.7.42,1.2-.49,1.83.56.92-.84.56-1.27-.63-1.62.84-2.74-.14-2.32-2.39-3.45.56-2.54-1.06-2.46.36-3.52,1.05-4.29,3.31-4.29,2L178,214.88l-1.34,2-.7,3.17-.28,2.11.42,1.55-1.55.14-2.53-1-2.74-1.4-.64-2.12-.14-3.16-1.69-2.54-.63-2.67-1.13-3.1-2.25-1.83-3.17.14-3.37,3.52-2.82-1.33-1.62-1.34-.28-2.53-.56-2.33-1.69-2-1.48-1.48-.91-1.61h-6.62l-.56,1.9H129.13l-7.67-3.17-4.93-2.18.64-.92-5,.5-4.43.35.21-2.25-1.48-2.61-1.55-.56.07-1.27-2-.28-.84-1.2L98.73,185l-.63-.77.56-2.47-1.76-4.5L96.55,171l.63-1.06-.91-1.48-1.06-3.8L96.48,161l-.64-2.46,2.75-3.73,2-3.8.77-3.45,3.87-4.22,2.82-4,2.81-4,3-6,1.27-3.73.28-2,1-.91,4.09,1.55-.71,4.15,1.55-1.2,1.76-3.59,1.13-3.59h96.48l.91-1.68h1.2l-.63,2.39.7.7,2.32.28,3.24.71,2.75,1.33,3.09-.56Z"/>
                <path class="cls-3" d="M51.93,85,47,86.66l-.56-1.13,1.62-2,4.5-1.48L55,81.45l1.83.28v1.34Z"/>
                <path class="cls-3" d="M24.48,73.36,21.74,74l-1.2-.77L20,72.09l4-.7,2.11.42Z"/>
                <path class="cls-3"
                      d="M25.33,57.59l.84.71,2.47-.36L29.76,59l2.32.49-.84.49-3.45.85-1.2-.92-.21-.7-3,.21-.21-.35Z"/>
                <path class="cls-3"
                      d="M146.94,34.37,129.62,48.72l-25.05,23,3,.14,2,1.12.35,1.83.21,2.68,5.35-2.32L120,73.85,119.56,76l.56,1.69,1.13,1.9-.77,3-1,4.85,3.24,2.68-2.25,2.67-3.59,2-.43-1.55-1.76-1.41L117,88.21l-1.13-3.45,1.9-3.94-2.88-.29-5-.07-2.68-1.26-2.32-4.3-2.32-.77-4-1.48L93.8,73l-4.22-1.9-1.9-1.76-4.43.85-2.47,2.88-2,.29-4.64.84-4.37,1.41-4.5.91,2.25-2.46L73.39,70l4.79-1.27.28-1L71.85,70l-5.21,2.74-7.88,3,.14,2-6.34,3-5.42,1.75L42.5,83.77,39.68,85.6l-7.46,2.18-3.16,2-5.77,1.83-1.9-.28L17,92.43,12.1,93.91l-4.3,1.4-7,1.27.28-.77,5.77-2,4.64-1.34,6.06-2.32,4.57-.43L25.61,88l7.32-2.53,1.62-.84,4-1.48L42.64,80,47,77.51l-5.13,1.27L41.65,78l-3.44,1.55.28-2.11L36,78.92l1.13-2-5.14,1.62H30L32.58,76l2.32-1.55L34.62,73l-5.07.85-.42-2-.92-1L31,68.57l-.28-1.76,4.15-2.32,5.42-2.32,3.73-2,2.88-.29,1.27.64,5-2,1.76.35,3.94-1.27,1.76-1.83-.78-.7,4.22-1.55-2,.07-4.36.85-2,.91-1.27-.91-4.85.49-3.24-1,.84-1.62-.7-2.25L53,48.37l9.28-1.9h2.47l-3,2,6.48-.14L69,45.84l-1.62-1.48.57-2-.5-1.62-2.32-1.19,4.57-2L75,37.39l6.2-1.68,3.37-1.83,5.56-1.83,3.38-.43,7.88-1.69,2.19.29,7.31-2L114,29l-.35,1.69L116,30l4.43.21-1.33.84,3.45.63,3.44-.35,4.37,1.13,5.06.42,1.55.42,4.65-.56,2.88,1.13Z"/>
                <path id="BM" class="cls-3"
                      d="M306.9,194.4h-.21l-.07.07.07.14-.28.14-.07-.07.14-.07h.07l.07-.21.21-.07.07.07Z"/>
            </g>
        </g>
    </g>
</svg>