<svg xmlns="http://www.w3.org/2000/svg" viewBox="0 0 297.27 385.67">
    <defs>
        <style>
            .cls-1{fill:#276e7b;}.cls-1,.cls-2,.cls-3{stroke:#1c303a;stroke-linecap:round;stroke-linejoin:round;stroke-width:0.75px;fill-rule:evenodd;}.cls-2{fill:#d06c60;}.cls-3{fill:#85a6a5;}.cls-4{opacity:0.75;}
        </style>
    </defs>
    <g id="Layer_2" data-name="Layer 2">
        <g id="puntos_click2_centroysuramerica" data-name="puntos click2_centroysuramerica">
            <path class="cls-3"
                  d="M214.57,382.39h-5.28l-4.16-9.16,2.22,1.95,3.05,3.05,5.28,2.5,5,1.11-.56,1.94-3.05.28Z"/>
            <path class="cls-3"
                  d="M193.75,241.35l7.77,7.22,3,.55,5,3.33,3.89,1.67.83,1.94-2.77,6.67,3.88,1.11,4.17.55,2.77-.55,3.06-3.33.28-3.89,1.66-.83,2.22,2.49.28,3.61-2.78,2.5-2.22,1.67-3.61,4.16-4.16,5.83-.28,3.61-.28,4.45.84,4.44-.56.83.28,2.78.28,2.22,5.27,3.89v3.05l2.78,1.94.28,2.22L223.45,311l-4.72,2.5-6.94.83-4.16-.56,1.39,2.78v3.33l1.11,2.22-1.67,1.67-3.61.56L201,322.7l-1.11,1.11,1.67,4.16,2.78,1.39L206,328l1.67,2.23-2.78,1.38-1.94,2.78.83,4.17v2.22h-3.33L198.47,343v3.33l4.44,3.05,3.61.84v3.88l-3.06,2.5-.27,5-2.5,1.67-.56,1.94,2.78,4.44,3.05,2.5-1.39-.28-3.33-.55-8.33-.56-2.5-2.5L189,365.18l-2.23.28-1.66-1.67-2.22-4.44,1.94-1.94v-2.78l-1.11-2.22.56-3.61-.84-5.55-1.11-2.5,1.11-.84-.83-1.66-1.94-.84.55-1.94L179,333.81l-2.5-5,1.11-.84-2.22-5.27-.55-4.44v-3.89l1.66-1.67-2.22-4.16-1.11-3.89,1.94-2.77-.83-3.61,1.11-4.17-.83-3.89-1.11-.83-3.33-7.5,1.38-4.44-1.11-4.16.56-3.89,1.66-4.16,2.23-2.78-1.39-1.67.55-1.39-1.11-7.21,3.89-2.23.83-4.44-.55-1.11,2.77-3.89,5,1.11,2.5,3.06,1.11-3.61,4.44.28Z"/>
            <path id="BZ" class="cls-3"
                  d="M91,74.48H89.9l.84-5,.55-3.61v-.55l.56-.28.55.55,1.67-2.77h.83v.55h.56l-.28,1.11-.83,2,.27.55-.55,1.67.28.28-.84,2.77-.83,1.11h-.83L91,74.48Z"/>
            <path id="BO" class="cls-3"
                  d="M210.13,232.18l-.28-1.38-3.61-2.22h-3.61L196,230l-1.39,3.89v2.5l-1.11,5.27-.56-.83-4.44-.28-1.11,3.61-2.5-3.05-5-1.11-2.77,3.89-2.78.55-2.22-6.11-2.5-5,.83-4.17-2.22-1.94-.83-3.06-2.22-3,1.94-4.72-1.94-3.61.83-1.39-.83-1.67,1.39-2.22-.28-3.61v-3.05l.83-1.39-3.89-7.22,2.78.28h1.94l.84-1.39,3.33-1.66,1.94-1.67,5-.83-.28,3.33.56,1.66L179,195l4.44,3.89,4.44.83,1.67,1.67,2.78.83,1.66,1.11h2.5l2.22,1.39.28,2.5.83,1.38.28,1.95H199l1.94,5,7.22.27-.27,2.5.55,1.67,2.22,1.11,1.11,2.77-.27,3.61-.84,1.95.56,2.5-1.11.27Z"/>
            <path id="BR" class="cls-3"
                  d="M212.35,135.56l2.22.28.28-.83-.56-.84.28-1.38,1.67.27,1.94-.55,2.22.83,1.67.83,1.11-1.11H224l.56,1.11,1.94-.27,1.39-1.67L229,128.9l2.22-3.89,1.39-.28.83,2.5,1.94,7.5,2.22.83v3.06l-3.05,3.61,1.11,1.38,6.94.56v4.44l3.06-2.78,4.72,1.67,6.38,2.78,2,2.5-.56,2.5,4.44-1.39,7.5,2.22h5.83l5.83,3.61,5,5,3.05,1.11,3.34.27,1.38,1.39,1.39,5.55.83,2.78L295.37,183l-1.95,2.78-5.27,6.11-2.22,5-2.78,3.89h-.83l-.84,3.33.56,8.05-.83,6.67-.28,2.77-1.11,1.67-.28,5.83-3.61,5.55-.28,4.45-3,1.94-.83,2.78H267.6l-5.83,1.66-2.5,2-4.16,1.38-4.17,3.61-2.77,4.45-.28,3.33.83,2.5-.28,4.44-.55,2.22-1.67,2.5-3.05,7.77L240.39,283l-2.22,2.23-1.11,4.16-1.94,2.5-1.39-2.5,1.11-2.22-2.5-3.05-3.33-2.5-4.17-2.78h-1.39l-4.16-3.33-2.22.55,4.16-5.83,3.61-4.16,2.22-1.67,2.78-2.5-.28-3.61-2.22-2.49-1.66.83.55-2.5.28-2.5-.28-2.5-1.39-.83-1.39.55-1.38-.27-.56-1.67-.83-3.89-.84-1.39-2.77-1.11-1.39.84-3.89-.84-.27-5.83-1.39-2.5,1.11-.83-.56-2.5.84-1.94.27-3.61-1.11-2.78-2.22-1.11-.55-1.66.27-2.5L201,215,199,210h1.11l-.28-1.94-.83-1.39-.28-2.5-2.22-1.39H194l-1.66-1.11-2.78-.83-1.66-1.67-4.45-.83L179,194.42l.28-3-.56-1.67.28-3.33-5,.84-1.94,1.66-3.33,1.67-.84,1.39H166l-2.78-.28-2.22.83-1.66-.55v-6.67l-3.06,2.5h-3.33l-1.66-2.5-2.5-.28.55-1.94-2.22-2.78-1.67-3.88,1.11-.84V173.6l2.23-1.11-.56-2.5.83-1.39.28-1.94,4.17-3.06,3-.83.56-.55,3.61.27,1.38-11.93v-1.95l-.55-2.5-1.67-1.66v-3.34l2.22-.55.84.55v-1.66l-2.22-.56v-2.77h7.49l1.39-1.67,1.11,1.39.56,2.5.83-.56,2.22,2.22,3.05-.27.84-1.39,2.77-1.11,1.67-.84.55-1.94,2.78-1.11-.28-.83-3.33.55-.55-2.77.27-3.06-1.66-1.11.83-.28,2.78.56,3.05,1.11,1.11-1.11,2.78-.56,4.44-1.66,1.39-1.67-.56-1.11h1.95l.83.83-.55,2,1.38.55.84,2-1.11,1.66L199,132l.83,2.22.28,2,2.5,1.94,1.94.28.28-.83,1.11-.28,1.67-.84,1.11-1.11,2.22.28Z"/>
            <path id="CO" class="cls-3"
                  d="M156.82,92.53l-2.5.83-1.11,2.22-1.67,1.11-1.11,1.67-.55,3-1.11,2.5,1.94.28.28,1.94.83,1.11.28,1.67-.56,1.66v.84l.84.27.83,1.39,5-.28,2.22.56,2.5,3.89,1.66-.56,2.78.28,2.22-.56,1.39.84-.83,2.22-.84,1.39L169,123.9l.84,3,1.11,1.39v.84L169,131.4l1.39.83,1.11,1.67,1.11,4.44-.83.55-.55-2.5L170.15,135l-1.39,1.66h-7.5v2.78l2.22.55v1.67l-.83-.56-2.22.56V145l1.66,1.67.56,2.5v1.94l-1.39,11.94-1.94-2.22h-1.11l2.5-4.44-3.06-1.95-2.22.28-1.39-.83L151.82,155l-2.78-.56-2.5-4.44-1.66-1.11-1.11-2.22-2.5-1.95-1.11.28-1.67-1.11-1.94-1.39-1.11.56-3.33-.56-.84-1.94h-.83l-3.89-2.5-.55-1.39,1.39-.28v-2.22l.83-1.66,1.94-.28,1.67-2.78,1.39-2.22-1.39-1.11.83-2.5-.83-3.88.83-1.11-.55-3.61-1.39-2.5.55-2.22,1.11.27.84-1.39-.84-2.49.56-.56h1.94l3.06-3,1.66-.56v-1.39l.84-3.88,2.22-2h2.5l.27-.83,3.06.28,3-2.22,1.67-.84,1.94-2.22,1.39.28.83,1.11-.55,1.67Z"/>
            <path id="CR" class="cls-3"
                  d="M109.34,96.14l.83,2.49,1.39,1.67,1.67,1.94-1.39.28v1.67l.83.55-.55.56v.83l-.28.83-.28.84-1.94-.84-.84-.83.56-.83v-.84l-1.11-1.11-1.39-.83-1.11-.55-.28-1.39-.83-.84v1.12l-.83,1.11-.84-1.11-1.11-.56-.55-.83V98.08l.55-1.39-1.11-.55.84-.84.55-.55,2.5,1.11.83-.56,1.11.28.56.83,1.11.28,1.11-.55Z"/>
            <path id="CU" class="cls-3"
                  d="M129.89,44.49l1.38,1.67,3.61-.56L136,46.71l2.78,2.78L141,51.43h1.11l2.22.84-.27,1.11,2.77.27,2.78,1.67L149,56.43l-2.77.28-2.78.28-2.5-.28-5.55.28,2.78-2.5-1.39-1.11-2.5-.28-1.11-1.39-.56-2.5h-2.22l-3.33-1.11L126,47.27l-4.72-.56-1.11-.83,1.66-1.11-3.61-.28L114.89,47h-1.66l-.56,1.11-1.94.56-1.67-.56,2.22-1.39,1.11-1.66,2-.84,1.94-.83,3.06-.28.83-.55,3.33.28h3l3.34,1.66Z"/>
            <path id="DO" class="cls-3"
                  d="M157.65,65l.28-1.11-.83-1.39,1.11-.83.55-1.67V57.82l.56-.83h3.05l2.22,1.11h1.11l.56,1.66h2.22l-1.11,1.11,1.66.28,1.67,1.67L169,64.48l-1.66-.83H165.7l-1.11-.28-.83.84-1.39.27-.55-1.11-1.39.56-2,3.05-.83-.55V65Z"/>
            <path id="EC" class="cls-3"
                  d="M139.6,144.72l.56,3.34-1.11,2.77-4.17,4.72-4.44,1.67-2.22,3.89-.56,3-2.22,1.94-1.66-2.22-1.67-.55-1.66.27-.28-1.66,1.11-1.11-.56-2,2-3.33-.84-1.94-1.38,1.94-2.5-1.94.83-1.11-.56-3.89,1.39-.55.56-2.78,1.39-2.78-.28-1.66,2.22-.84,2.78-1.66,3.88,2.5H131l.83,1.94,3.33.56,1.11-.56,1.95,1.39,1.38.55Z"/>
            <path id="GT" class="cls-3"
                  d="M91.29,66.15l-.55,3.33-.84,5H91l1.12.83.27-.55,1.11.55L91.57,77l-1.94,1.11-.28.83.28.83-.84,1.11-.83.28.28.56-.83.55L86,83.36l-.28.56-1.94-.83H81.3l-1.67-.84-1.94-1.66L78,79.2l.56-1.11L78,77.25l2.23-3.6h5l.28-1.39L84.91,72l-.28-.83L83.24,70l-1.11-1.39H83.8l.27-2.5h7.22Z"/>
            <path id="GY" class="cls-3"
                  d="M210.4,117.79l-.55,3.89-2.5,1.11.28,1.11-.83,2.22,1.66,3.06h1.11l.56,2.49,2.22,3.89-.83.28-2.23-.28-1.11,1.11-1.66.84-1.11.27-.28.84-1.94-.28-2.5-2-.28-1.94-.83-2.22.55-3.61,1.11-1.67-.83-1.94-1.39-.55.56-1.95-.84-.83H196.8l-2.5-3.33,1.11-1.11v-1.95l2.5-.55.83-.83-1.11-1.67.28-1.67,3.33-2.5,2.5,1.67,2.22,2.78v2.22h1.39l1.94,2.22,1.11.83Z"/>
            <path id="HN" class="cls-3"
                  d="M112.67,78.37h-1.39l-.55.55-1.39.56h-.83L107.4,80h-.84l-.55-.55h-.28l-.56,1.11h-.27v.83l-1.39,1.11-.83.56-.28.55-1.11-.83-.84,1.11H98.23v2.22h-.55l-.56,1.11L96,87.53l-.55-1.39-1.11-.28.55-1.66-.55-.56-.84-.28-1.66.56v-.56l-1.11-.83-.84-.83-1.11-.28.84-1.11-.28-.83.28-.84,1.94-1.11,1.94-1.66.28.27.83-.83h1.11l.56-.55.56-.28,1.66.28h1.67l1.11-.56.55-.55,1.11.27.84.28h1.11l.83-.28,1.67.56H108l1.11.83,1.11.83,1.39.56,1.11,1.67Z"/>
            <path id="HT" class="cls-3"
                  d="M158.48,57.82V60l-.55,1.67-1.11.83.83,1.39L157.37,65l-2.5-.83-1.94.27-2.22-.27-1.94.83-1.39-1.39.55-1.39,3.61.56,2.78.27,1.39-.83L154,60.32l.28-1.67-2.5-.55L152.93,57h2.22Z"/>
            <path id="JM" class="cls-3"
                  d="M137.66,65.87l-1.11.56-1.94-.84-2-1.66.56-1.11,1.66-.28h.84l2.5.28,1.94,1.11.55,1.11-3.05.83Z"/>
            <path id="MX" class="cls-3"
                  d="M64.64,30.89H66L63.8,34.77l-1.11,3.06-1.11,5.83-.83,2.22.28,2.5.83,2.22.28,3.33,1.94,3.33.56,2.5L65.75,62l3.89,1.11L71,65l3.61-1.11,3.06-.28,3-.83,2.5-.84L86,60.32l1.11-2.5L88,54.21l.83-1.39,2.78-1.11,4.16-1.11,3.34.28,2.22-.28.83.83-.28,2.22-2.77,1.67L98,58.1l.55.83-.83,1.94-1.39,3.34-.83-1.12H93.79l-1.66,2.78-.56-.55-.56.27v.56H83.8l-.28,2.5H81.85L83,70l1.39,1.11.28.83.55.28v1.39h-5L78,77.25l.56.84L78,79.2l-.27,1.39L73.8,75.87l-1.67-1.39-3-1.11-2.22.28-3.33,1.66-2,.28-2.5-1.11-2.77-.83L53,71.7l-2.78-.55-3.89-2.22L43.26,66.7l-.83-1.11-2.23-.27-3.61-1.39-1.38-2L31.6,59.49l-1.39-2.78-.56-2.22L31,54.21l-.28-1.11L31.87,52l.28-1.39L31,48.66V47l-.83-2.78-2.5-4.44-3.05-3.33-1.39-2.78L20.49,32l-.55-1.11,1.11-2.78L19.38,27l-1.67-2.22V21.72H15.77L14.1,19.5,13,17.28l.28-1.39-1.11-3.33-.28-3.33.56-1.67L10.22,5.9l-1.39.28L7.44,4.79,6.33,6.45v2l-.55,3.33.55,1.66,1.94,3.06.28,1.11.56.28v1.39h.55V22l.84,1.11.27,1.67,2,2.22L13,31.16l.56,1.95.55,1.94-.27,2.22h1.66l1.11,1.95,1.11,1.94-.27.83-1.67,2.22h-.55l-.56-2.77-1.94-2.5L10.5,36.72,8.83,35.61l.83-3.33v-2.5L8.27,28.39,6.05,26.44l-.83,1.12-.56-1.39L2.72,25.06l-1.39-2.5.28-.28L3,22.56l1.94-1.67L5.5,19,3.55,15.89,1.89,14.78,1.33,12,1.06,9,.5,5.34V1.46l4.16-.28L9.38.62l-.55.84,4.72,2.22,7.5,3.05H31.6l.55-1.94H38l.84,1.66L40.2,7.84l1.67,1.95L42.43,12l.27,2.5,1.67,1.38,2.78,1.39L50.48,14h3.05l2.22,1.67,1.11,3.05.56,2.5,1.66,2.5v3l.56,2,2.78,1.38,2.22.84Z"/>
            <path id="NI" class="cls-3"
                  d="M112.67,78.37l-.28.55-.27.83.27,1.67-1.11,1.39-.55,1.66-.28,2v3l-.56.28-.55,1.94V92.8l-.83,1.11V95l.55.84-.83.83-1.11-.28-.56-.83-1.11-.28-.83.56-2.5-1.11-.55.55-1.12-1.39-1.66-1.66L98,90.86l-1.39-1.39L94.9,87.53l.56-.56.55.56.28-.28L97.4,87,98,85.86h.55V83.64h1.67l.83-1.11,1.11.83.28-.55.83-.56,1.39-1.11v-.83h.28l.55-1.11h.28l.56.55h.83l.83-.55h.83l1.39-.56.56-.55,1.94.28Z"/>
            <path id="PA" class="cls-3"
                  d="M132.94,106.13l-.56.56.84,2.49-.84,1.39-1.11-.27-.55,2.22-1.11-1.11-.56-2.5.84-1.11-.84-.28-.55-1.39-2-1.11-1.66.28-.83,1.39-1.67,1.11h-.83l-.28.83,1.66,2.5-1.11.55-.55.56-1.94.28-.56-2.78-.56.83-1.11-.27-.55-1.67-1.67-.28-1.11-.55h-1.66v.83l-.28-.56.28-.83.27-.83v-.83L113,105l-.83-.56V102.8l1.38-.28,1.39,1.67V105l1.39.28.28-.28,1.11,1.11,1.94-.28,1.67-1.11,2.5-.83,1.39-1.39,2.22.28v.28h2.22l1.66.83,1.11,1.39.56.83Z"/>
            <path id="PE" class="cls-3"
                  d="M161,162.77l-3.61-.28-.55.56-3.06.83-4.16,3.06-.28,1.94-.83,1.39.55,2.5-2.22,1.11v1.94l-1.11.83,1.67,3.89,2.22,2.78-.56,1.94,2.5.28,1.67,2.5h3.33l3.05-2.5v6.66l1.67.56,2.22-.83,3.89,7.21-.83,1.39v3.06l.27,3.61-1.38,2.22.83,1.66-.83,1.39,1.94,3.61-1.94,4.72-.84,2.22-1.94,1.11-3.89-2.5-.55-1.66-8.06-4.44-7.21-4.72L139.6,208l-1.94-3.61.56-1.39-3.61-5.83-4.45-8L126,180.54l-1.67-1.94-1.39-3.33-3-2.78-2.78-1.67,1.11-1.94-1.94-4.16,1.11-3.06,3.06-2.78.83,2-1.11,1.11.28,1.66,1.66-.27,1.67.55,1.66,2.22,2.22-1.94.56-3,2.22-3.89,4.44-1.67,4.17-4.72,1.11-2.77-.56-3.34,1.11-.27,2.5,1.94,1.11,2.22,1.67,1.11,2.5,4.44,2.77.56,2.23-1.11,1.38.83,2.23-.28,3.05,2-2.5,4.44h1.11l2.22,2.22Z"/>
            <path id="PY" class="cls-3"
                  d="M210.13,232.18l1.39,2.5.27,5.83,3.89.84,1.39-.84,2.77,1.11.84,1.39.83,3.89.56,1.67,1.38.27,1.39-.55,1.39.83.28,2.5-.28,2.5-.55,2.5-.28,3.89-3.06,3.33-2.77.55-4.17-.55-3.88-1.11,2.77-6.67-.83-1.94-3.89-1.67-5-3.33-3-.55-7.77-7.22,1.11-5.28v-2.5l1.38-3.88,6.67-1.39h3.61l3.61,2.22v1.66Z"/>
            <path id="SV" class="cls-3"
                  d="M94.07,85.31l-.56,1.11H91.29l-1.39-.28-1.38-.83-2-.28-1.11-.83.28-.56,1.39-1.11L88,82l-.28-.56.84-.28,1.11.28.83.83,1.11.84v.55l1.67-.55.83.27.55.56-.55,1.39Z"/>
            <path id="SR" class="cls-3"
                  d="M222.62,118.9l-2.22,3.89.28,3,1.39,2.5-.84,1.95-.27,1.94-1.12,1.94-2.22-.83-1.94.56-1.67-.28-.27,1.39.55.83-.28.83-2.22-.28-2.22-3.88L209,130h-1.11L206.24,127l.83-2.22-.27-1.11,2.49-1.11.56-3.88,4.72.83.28-.83,3.05-.28,4.72.55Z"/>
            <path id="UY" class="cls-3"
                  d="M235.39,291.6l-1.11,2.78-3.61,2.5L227.9,296l-2,.56-3.88-1.94h-2.5l-2.78-2.5-.28-2.78.56-.83-.83-4.44.27-4.45.28-3.61,2.22-.55,4.17,3.33h1.39l4.16,2.78,3.33,2.5,2.5,3.05-1.11,2.22,1.94,2.22Z"/>
            <path id="VE" class="cls-3"
                  d="M200.69,107.24l-3.33,2.5-.28,1.67,1.11,1.66-.83.83-2.5.56v1.94l-1.11,1.11,2.49,3.34.56,1.11-1.39,1.66L191,125.29l-2.78.55L187.08,127,184,125.84l-2.78-.55-.83.28,1.66,1.11-.27,3,.55,2.78,3.33.28.28.83-2.78,1.11-.55,1.94-1.67.84-2.77,1.11-.84,1.38-3.05.28-2.22-2.22L171,133.62,169.87,132l-1.39-.83,1.94-2.22v-.83l-1.11-1.39-.83-3.06.28-3.05.83-1.39.83-2.22-1.39-.83-2.22.55L164,116.4l-1.67.56-2.5-3.89-2.22-.55-5,.27-.83-1.38-.83-.28v-.83l.55-1.67-.28-1.67-.83-1.11-.28-1.94-1.94-.28,1.11-2.5.56-3L151,96.41l1.66-1.11,1.11-2.22,2.5-.83v1.11l-2.22.55,1.11,2-.28,2.22-1.94,2.5,1.39,3.61,1.66-.28,1.12-3.33L156,99.19V95.86l5-1.67-.27-1.94,1.38-1.39,1.11,3H166l2.22,2.5V97.8h3.33l4.17-.28,2.22,2,2.78.55,2.22-1.39V97.52l4.72-.27h4.44l-3.33,1.38,1.11,2.23,3,.27,2.78,2.22.55,3.61h1.95l2.5.28Z"/>
            <path class="cls-3"
                  d="M204.85,373l4.17,9.17h5.27l-.28,1.66-2.22,1.39h-1.66l-2.22-.28-2.78-1.11L201.8,383l-5-2.22-4.44-2.22-6.67-4.72,3.06.83,5.83,2.78,5,1.38.83-1.94-.28-2.78,2.22-1.66Z"/>
            <path class="cls-3"
                  d="M177.36,243.57l.56,1.11-.83,4.44-3.89,2.22,1.11,7.22-.56,1.39,1.39,1.67-2.22,2.77-1.66,4.17-.56,3.88,1.11,4.17-1.39,4.44,3.33,7.5,1.12.83.83,3.89-1.11,4.16.83,3.61-1.94,2.78,1.11,3.89,2.22,4.16-1.67,1.67v3.88l.56,4.45,2.22,5.27-1.11.83,2.5,5,2.22,1.67-.56,1.94,1.95.83.83,1.67-1.11.83,1.11,2.5.83,5.56-.55,3.61,1.11,2.22v2.77l-1.95,1.95,2.23,4.44,1.66,1.66,2.22-.27,1.39,3,2.5,2.5,8.33.56,3.33.55h-3l-1.11,1.11-2.22,1.39,1.11,3.89h-1.39L194,376,189,373l-5.28-2.49-2.22-2.78-.28-2.5-2.78-2.78-3.33-7.22V351l2.22-3.33-5.55-1.39,1.94-3.89-1.38-7.22,4.44,1.39-1.11-8.88-2.78-1.11.56,5.27-2.5-.55-1.11-6.11-1.39-8.05.83-3.06-2.22-4.16-1.66-5,1.38-.28.28-6.94.83-6.94v-6.39l-2.22-6.66.28-3.61-1.39-5.28,1.11-5.27-.55-8.33V236.35L164,229.13,162.65,223l1.94-1.11.84-2.22,2.22,3.05.83,3.06,2.22,1.94-.83,4.17,2.5,5,2.22,6.11Z"/>
            <path id="GF" class="cls-3"
                  d="M220.12,133.9l1.11-2,.28-1.94.56-1.94-1.39-2.5-.28-3.06,2.22-3.88,1.39.55,2.78,1.11,3.88,3.61.56,1.67L229,129.45l-1.11,3.34-1.39,1.66-1.94.28-.56-1.11h-.83l-1.11,1.11-1.95-.83Z"/>
            <path id="AW" class="cls-3" d="M162.65,89.47h-.28l-.28-.28v0l.28.28Z"/>
            <path class="cls-3" d="M195.13,69.2l.28.28v.28h-.55V69.2Z"/>
            <path class="cls-3" d="M195.13,66.43h0l.28.27V67h-.28v-.55Z"/>
            <path class="cls-3"
                  d="M154,51.43l-.28.28V52l-.27.28H152.1V52h.28v-.28h.27l.28-.28h.56v.28H154l.56-.55h.27Z"/>
            <path class="cls-3" d="M154.32,50.32v-.27l.28-.28h0l-.28.55Z"/>
            <path class="cls-3" d="M154.6,45.88H156v.28h0l-.28-.28H154.6Z"/>
            <path class="cls-3"
                  d="M151.82,44.49h0V45.6l-.28.28v.28l-.28.28-.55.27h.55v-.27h.28l.28-.28v-.28h-.28l.28-.28h0Z"/>
            <path class="cls-3" d="M150.43,44.49H151l-.28.28h0l-.28-.28h-.28l-.27-.28h.27l.28.28Z"/>
            <path class="cls-3" d="M144.32,40.33l.28.55h.28l.28.28h-.56l-.28-.28h0v-.55Z"/>
            <path class="cls-3"
                  d="M146.82,40.33l.28.27v.84h0v1.39h.28l.28.27v.56l-.28-.56h0l-.28-.27h-.28l-.28-.28v-.83l.56-.28h0l-.28-.28v-.28h0Z"/>
            <path class="cls-3" d="M148.77,40.33Z"/>
            <path class="cls-3" d="M143.21,39.22h0l-.27-.56h0Z"/>
            <path class="cls-3" d="M150.43,38.66l-.28.28h-.27v-.56l.27-.27.28.55Z"/>
            <path class="cls-3" d="M137.66,37.83h0l-.28.28h-.28l.56-.28Z"/>
            <path class="cls-3"
                  d="M137.94,38.38h.28v-.27h0v1.38l-.28.56h-.28v-.28h.28l.28-.28h-.28v-.55h0l-.84-.28h.28v-.28h.28l.28-.27v.27Z"/>
            <path class="cls-3"
                  d="M147.1,38.11v0l-.28.27h0l.28-.27h0l-.56-.28v-.56l-.27-.27h0l-.28-.28.28-.28.27.28v.83l.28.28.28.28Z"/>
            <path class="cls-3"
                  d="M137.1,33.94h.56v.28l.28.28v.83l.28.28v1.11h-.28l-.28.28h-1.11v-.28h-.28v-.28l-.28.28h0l-.27-.28-.28-.28v-.28l.55-.27.28.55v-.28H136v-.55l.28-.28v-.28h0l.28-.27v-.84h0l.55.28Z"/>
            <path class="cls-3"
                  d="M142.66,32h0l.28.28.55.83h.28v.28l.28.27.27.28h0v.56h0v1.38h0v-.27l-.27-.28h.27v-.28l.28-.28v-.55l-.28-.28-.27-.55h-.28l-.28-.28-.28-.28h-.55V32Z"/>
            <path id="BB" class="cls-3" d="M202.63,87h-.28V85.58h0v.28l.28.28V87Z"/>
            <path id="CW" class="cls-3"
                  d="M166.81,91.42h0l-.55-.28H166l-.28-.28h-.27v-.28l-.28-.28V90l.28.27v.28l.27.28h.56v.28l.55.28Z"/>
            <path class="cls-3" d="M121.56,59.49h0l.27-.28h.28l-.55.28Z"/>
            <path class="cls-3" d="M127.11,57.82l-.56.28v-.28Z"/>
            <path class="cls-3" d="M127.39,57.82h0l.55-.28v.28Z"/>
            <path id="DM" class="cls-3" d="M196,75.87h.27V77H196V76.7h0v-.56l-.28-.27v-.28l.28.28Z"/>
            <path class="cls-3" d="M233.45,371h0l.28.28v.28h-.28V371Z"/>
            <path class="cls-3" d="M237.61,370.46h0v0Z"/>
            <path class="cls-3" d="M229.29,369.62h0v.28h-.84v-.28h.84Z"/>
            <path class="cls-3"
                  d="M231.23,368.79h0l-.56-.28-.55-.28V368h-.83l-.28-.28h0l.55.28.56.27h.55L231,368v-.28h.56V368h1.11v-.28h.55V368l-.28.27v.28h-.27l-.28.56-.28.27-.28.28v.28l-.27.28h-.28v.28h-.56l.28.27h0V371h-.28l-.27.28h-.28V371l-.28-.28h-.28l.28.28h-.28l-.27-.28h1.38v-.27h-.27v-.28H231l.28-1.39-.28.28h-.55l-.28-.28v.28h1.11v-.28Z"/>
            <path class="cls-3" d="M232.34,367.68h0l.28.28-.28-.28Z"/>
            <path class="cls-3" d="M230.67,367.4H231v.28l-.28.28h-.27v-.56Z"/>
            <path class="cls-3"
                  d="M235.67,367.4h.83l.28.28V368h-.28v-.28h0V368h0v.27h.28v.28h.28l.28.28v-.28h-.56v-.28h1.39l.56.28h0v.28h.55v.28h-.83l-.56.27H236.5l-.27-.27v.27h.55l.28.28h.28l.27.28h0v.28h0l-.27-.28h-.28l-.28.28v-.28H236v.28h.28l.55.28h-.55l-.28-.28h-.56v.28h.28v.27h-.55l-.28-.27.28-.28h0l-.28-.28h.55v-.28l.28-.28H236l.28.28v.28h.27l-1.38-.83v-.28h-.28l-.28-.28h.28v-.28h-.56V368h.56v-.28l-.28-.28h1.11Z"/>
            <path class="cls-3" d="M232.34,367.12h.55v.28h-.55v-.28Z"/>
            <path class="cls-3" d="M227.62,366.57h0Z"/>
            <path id="GD" class="cls-3" d="M194,91.42h-.27v-.56l.27-.28h.28v.28l-.28.56Z"/>
            <path class="cls-3" d="M192.08,69.2h0v-.27h0v.27Z"/>
            <path class="cls-3" d="M191.8,68.09h-.55l.27-.28.28.28Z"/>
            <path id="LC" class="cls-3" d="M197.08,83.92h0l-.28-.28h0v-.55h0l.56-.84h.27v1.11l-.55.56Z"/>
            <path id="MF" class="cls-3" d="M190.69,65h0v0Z"/>
            <path id="MS" class="cls-3" d="M193.47,70.31h0v.56h0v-.56Z"/>
            <path class="cls-3" d="M182.08,64.76h0l-.83.28h.28l.55-.28Z"/>
            <path class="cls-3"
                  d="M175.7,63.09h3.89l.27.28h0v.84l-.55.27-.28.28-.28.28h-2.22l-.28-.28h-2.5l.28-.55v-.84h0v-.28h.28v-.27h.28Z"/>
            <path class="cls-3" d="M159,48.38h.55l.28.28h-.28l-.55-.28Z"/>
            <path class="cls-3" d="M157.1,48.38h0l.55.28h-.28l-.27-.28Z"/>
            <path class="cls-3" d="M158.76,47.82v.28h-.28v-.28h.28Z"/>
            <path class="cls-3"
                  d="M196.52,96.41v.28l-.28.28h0v.55h0v.84h0v.83h-3.05l.28-.28h.28l.27-.28v-.27h.28l.28-.28V97h0l-.28-.28h-.55l.27-.28h2.5Z"/>
            <path class="cls-3" d="M198.19,94.47v.28h-.28l-.28.27h0l-.55.28h0l.28-.28.55-.27Z"/>
            <path id="VC" class="cls-3" d="M196.24,86.42H196v-.84h.27v.84Z"/>
            <path id="VG" class="cls-3" d="M185.14,63.37h-.56v-.28l.56.28Z"/>
            <path class="cls-3" d="M184,66.15h0l-.56.28v-.28Z"/>
            <path class="cls-3" d="M184.58,63.65Z"/>
            <path class="cls-3" d="M183.75,63.65h0v0l-.28.28.28-.28Z"/>
            <path id="BQBO" class="cls-3" d="M168.76,91.42h0l-.28-.28v-.56h-.28l-.28-.28V90l.84.27h0v1.12Z"/>
            <path id="MQ" class="cls-3"
                  d="M197.36,79.2h0v.28h0V80l-.28.28V80h-.56v-.28l.28-.27h-.28l-.28-.28v-.56l.28-.27h.28l.56.83Z"/>
            <path class="cls-3" d="M196.8,74.48h0l-.28-.28h0l.28-.28h.28l-.28.56Z"/>
            <path class="cls-3" d="M195.41,72.81h0v1.11h0l-.28.28h0V72.81Z"/>
            <path class="cls-1" d="M196.52,72.53h0l.56.28-.84.28H196l-.28-.28v-.28h0v-.27H196l.27-.28.28.55Z"/>
        </g>
    </g>
</svg>