<svg xmlns="http://www.w3.org/2000/svg" width="662" height="500" viewBox="0 0 662 500"><defs><style>.a,.b{fill:#223749;}.b{opacity:0.79;}.c{fill:#d1ede5;}.d{fill:#4d4d4d;}</style></defs><path class="a" d="M35.6,52.7V26.4H46.9c7,0,10.6,2.9,10.6,8.5s-3.6,9-11.4,9H42.4v8.8Zm6.8-21.3v7.5h3.2c4.1,0,5.1-2.3,5.1-4s-1.9-3.5-4.7-3.5Z"/><path class="a" d="M70.4,32c8.3,0,11.2,4.6,11.2,10.5s-4.2,10.6-11,10.6-11-4.6-11-10.6S63.6,32,70.4,32Zm.1,16.1c2.7,0,4.2-2.2,4.2-5.3s-1.1-6-4.2-6-4.1,1.8-4.1,5.3S67.4,48.1,70.5,48.1Z"/><path class="a" d="M85.3,32.4h4.8l1.6,2.8A5.8,5.8,0,0,1,97.1,32a7,7,0,0,1,2.4.4l-1.1,5.2-1.7-.2a7.2,7.2,0,0,0-4.6,1.5V52.7H85.3Z"/><path class="a" d="M118.7,44.1c.2,1.9,2.4,3.5,5.5,3.5a13,13,0,0,0,5.7-1.2l1.4,4.8a16.5,16.5,0,0,1-7.9,1.9c-6.7,0-11.7-3.3-11.7-10.3S116,32,122.4,32s9.4,4.3,9.4,8.6a20.2,20.2,0,0,1-.4,3.5Zm6.4-3.4V40a2.7,2.7,0,0,0-3-3,3.4,3.4,0,0,0-3.5,3.7Z"/><path class="a" d="M135.6,32.4h5.2l1.2,1.7a9.7,9.7,0,0,1,6.2-2.1c5.2,0,7.5,2.7,7.5,7.1V52.7h-6.8V40c0-2.1-1-3-3-3a5.5,5.5,0,0,0-3.4,1.1V52.7h-6.9Z"/><path class="a" d="M161.9,32.4V31.1c0-6.5,4.7-9.1,10.2-9.1a16.3,16.3,0,0,1,4.3.5l-1.1,4.8-2.5-.2c-2.6,0-4.5,1-4.5,4.3,0,.5.1.8.1,1h5.8v4.8h-5.6V60.6H162V37.2h-3.8V32.4Z"/><path class="a" d="M185.5,32c8.3,0,11.2,4.6,11.2,10.5s-4.2,10.6-11,10.6-11-4.6-11-10.6S178.7,32,185.5,32Zm.1,16.1c2.7,0,4.2-2.2,4.2-5.3s-1.1-6-4.2-6-4.1,1.8-4.1,5.3S182.5,48.1,185.6,48.1Z"/><path class="a" d="M214,51.8a9.2,9.2,0,0,1-5.3,1.3c-3.8,0-9.4-2.3-9.4-10.5S206,32,211.3,32a28.8,28.8,0,0,1,9.5,1.6v27H214Zm-.1-14.5a5.7,5.7,0,0,0-2.6-.5c-2.6,0-4.9,1.8-4.9,5.7s1.7,5.4,4.4,5.4a7.1,7.1,0,0,0,3.1-.8Z"/><path class="a" d="M245.5,52.7h-5.2L239.1,51a8.9,8.9,0,0,1-5.8,2.1c-5.8,0-7.7-3.4-7.7-7V32.4h6.8V45.1c0,2,1,3,2.9,3a5.6,5.6,0,0,0,3.3-1.1V32.4h6.9Z"/><path class="a" d="M255.8,44.1c.3,1.9,2.4,3.5,5.5,3.5a13.2,13.2,0,0,0,5.8-1.2l1.3,4.8a16.2,16.2,0,0,1-7.9,1.9c-6.7,0-11.6-3.3-11.6-10.3S253.1,32,259.5,32s9.5,4.3,9.5,8.6a20.2,20.2,0,0,1-.4,3.5Zm6.5-3.4V40a2.8,2.8,0,0,0-3-3,3.5,3.5,0,0,0-3.6,3.7Z"/><rect class="b" x="227.9" y="115" width="57.7" height="58.42"/><path class="c" d="M233.8,132.3a19.8,19.8,0,0,1,9.1-2.4c7.3,0,10.2,2.9,10.2,6.5s-.9,4.5-4.3,6.1c3.6.4,5.9,2.8,5.9,5.8,0,5.2-5,8.7-12.8,8.7a17.5,17.5,0,0,1-8.5-1.9l2-4.7a17.8,17.8,0,0,0,6.5,1.4c3.3,0,5.5-.9,5.5-3.2s-3.2-2.9-5.9-2.9l-3.2.2v-5.2h2.3c3.5,0,5.7-.8,5.7-3.2s-1.9-2.6-4.3-2.6a13.4,13.4,0,0,0-6.4,1.6Z"/><path class="c" d="M259.1,132.3a19,19,0,0,1,9-2.4c7.3,0,10.2,2.9,10.2,6.5s-.9,4.5-4.2,6.1c3.6.4,5.8,2.8,5.8,5.8,0,5.2-5,8.7-12.8,8.7a17.8,17.8,0,0,1-8.5-1.9l2-4.7a17.8,17.8,0,0,0,6.5,1.4c3.3,0,5.6-.9,5.6-3.2s-3.3-2.9-6-2.9l-3.2.2v-5.2h2.3c3.5,0,5.7-.8,5.7-3.2s-1.9-2.6-4.3-2.6a13.4,13.4,0,0,0-6.4,1.6Z"/><rect class="b" x="227.9" y="175.6" width="57.7" height="58.42"/><path class="c" d="M242.4,212.1V196.5l-7.7,2.4-1.5-4.6,10.7-3.8h5.2v21.6h5.5l-.4,5.1H235.4l.3-5.1Z"/><path class="c" d="M271.8,198.3h6v8.2h3.5v5.1h-3.5v5.6h-6.7v-5.6H257.4v-3.5l5.8-17.3h7.3l-5.4,15.7h6Z"/><rect class="b" x="227.9" y="236.2" width="57.7" height="58.42"/><path class="c" d="M233.1,253.9a22.6,22.6,0,0,1,10.1-2.8c7.2,0,10,3.3,10,7.9,0,6.7-7.9,12-10.5,13.7h12.2l-.2,5.1H233.5v-4.1c4.7-3.2,12.5-9.8,12.5-14,0-1.9-1.4-3.1-4.3-3.1a14.9,14.9,0,0,0-6.9,2Z"/><path class="c" d="M259.1,253.5a20.2,20.2,0,0,1,9-2.4c7.3,0,10.2,3,10.2,6.6s-.9,4.4-4.2,6c3.6.4,5.8,2.8,5.8,5.8,0,5.2-5,8.7-12.8,8.7a16.7,16.7,0,0,1-8.5-1.9l2-4.7a17.8,17.8,0,0,0,6.5,1.4c3.3,0,5.6-.9,5.6-3.2s-3.3-2.9-6-2.9l-3.2.2V262h2.3c3.5,0,5.7-.8,5.7-3.2s-1.9-2.6-4.3-2.6a13.4,13.4,0,0,0-6.4,1.6Z"/><rect class="b" x="227.9" y="296.8" width="57.7" height="58.42"/><path class="c" d="M246.6,319.5h6v8.2h3.5v5.1h-3.5v5.6h-6.7v-5.6H232.2v-3.4L238,312h7.3l-5.4,15.7h6Z"/><path class="c" d="M271.8,319.5h6v8.2h3.5v5.1h-3.5v5.6h-6.7v-5.6H257.4v-3.4l5.8-17.4h7.3l-5.4,15.7h6Z"/><rect class="b" x="227.9" y="357.4" width="57.7" height="58.42"/><path class="c" d="M242.4,394V378.3l-7.7,2.4-1.5-4.5,10.7-3.9h5.2V394h5.5l-.4,5H235.4l.3-5Z"/><path class="c" d="M269.2,372.3c9.1,0,10.9,7.7,10.9,13.5s-2.3,13.6-10.9,13.6-11-7.6-11-13.5S260.9,372.3,269.2,372.3Zm-.1,22.2c3.6,0,4.2-5.7,4.2-8.7s-.3-8.5-4.2-8.5-4.2,4.9-4.2,8.6S265.6,394.5,269.1,394.5Z"/><rect class="b" x="227.9" y="418" width="57.7" height="58.42"/><path class="c" d="M259.2,440.8h6v8.1h3.5V454h-3.5v5.6h-6.7V454H244.8v-3.4l5.8-17.4h7.3l-5.4,15.7h6Z"/><path class="a" d="M317.4,149.2h-7v4.1h8.9v3.5H305.6V138.5h13.5V142h-8.7v3.7h7Zm-4.3-16.8h4.2l-4,4.6H310Z"/><path class="a" d="M322.5,142.6v-2.5l4.7-1.1v3.6h3.9V146h-3.9v5.6c0,1,.6,1.6,1.8,1.6a4.2,4.2,0,0,0,1.4-.3l.8,3.3a8.1,8.1,0,0,1-4,.9c-2.9,0-4.8-1.7-4.8-4.6V146H320v-3.4Z"/><path class="a" d="M333.4,142.6H337l.9,1.2a6.6,6.6,0,0,1,4.3-1.4c3.7,0,5.3,1.9,5.3,5v9.4h-4.8v-8.9c0-1.4-.7-2-2.1-2a4.3,4.3,0,0,0-2.4.7v10.2h-4.8Z"/><path class="a" d="M355.6,138.8c0,1.4-.8,2.3-2.6,2.3s-2.5-.9-2.5-2.3.7-2.2,2.5-2.2S355.6,137.4,355.6,138.8Zm-.2,13.8a1,1,0,0,0,1.1,1.1h.5l.7,2.7a6.3,6.3,0,0,1-3,.8c-2.6,0-4.1-1.5-4.1-3.9V142.6h4.8Z"/><path class="a" d="M367.2,142.4a9.2,9.2,0,0,1,3.7.8l-1.2,3.5a5.4,5.4,0,0,0-2.7-.6,3.4,3.4,0,0,0-3.6,3.6,3.5,3.5,0,0,0,3.8,3.6,6.6,6.6,0,0,0,2.6-.6L371,156a9.5,9.5,0,0,1-4.8,1.1c-4.6,0-7.5-2.8-7.5-7.3S362.4,142.4,367.2,142.4Z"/><path class="a" d="M380.2,142.4c5.8,0,7.8,3.2,7.8,7.3s-3,7.4-7.7,7.4-7.7-3.2-7.7-7.4S375.3,142.4,380.2,142.4Zm0,11.3c1.9,0,2.9-1.6,2.9-3.8s-.7-4.1-2.9-4.1-2.9,1.2-2.9,3.7S378.1,153.7,380.2,153.7Z"/><path class="a" d="M314.8,198.2a11.4,11.4,0,0,1,5.5,1.3l-1.5,3.4a8.6,8.6,0,0,0-4.1-.9c-2.4,0-5.4,1.3-5.4,5.7s2.3,5.7,5.5,5.7a8.3,8.3,0,0,0,4.1-1l1.4,3.2a12,12,0,0,1-6.2,1.6c-4,0-9.6-1.8-9.6-9.6C304.5,202,308.4,198.2,314.8,198.2Z"/><path class="a" d="M323.2,203.7a14.2,14.2,0,0,1,5.8-1.3c5.5,0,6.7,2.4,6.7,6.3v4.1c0,.6.4.9,1,.9h.6l.7,2.7a5.6,5.6,0,0,1-3,.9c-2,0-3.1-.7-3.6-1.8a5.5,5.5,0,0,1-4.4,1.8c-2.1,0-4.6-1-4.6-4s4-4.6,8.6-4.6c0-1.6-.7-2.5-2.7-2.5a10.1,10.1,0,0,0-3.9.8Zm7.7,7.2c-2.1.1-3.8.5-3.8,1.7s.5,1.3,1.6,1.3a3.2,3.2,0,0,0,2.2-.9Z"/><path class="a" d="M357.3,207.8c0-1.1-.4-1.9-1.8-1.9a3.7,3.7,0,0,0-2.2.8v10.2h-4.8v-9.1c0-1.1-.3-1.9-1.8-1.9a3.7,3.7,0,0,0-2.2.8v10.2h-4.8V202.7h3.7l.8,1.2a7.6,7.6,0,0,1,4.5-1.5c2,0,3.4.6,4.1,1.5a6.6,6.6,0,0,1,4.4-1.5c3.1,0,4.9,1.7,4.9,4.6v9.9h-4.8Z"/><path class="a" d="M365.3,202.7h3.6l.8,1.2a6.8,6.8,0,0,1,4.4-1.5c3.4,0,6.2,2.2,6.2,7.2a7.4,7.4,0,0,1-7.7,7.6,10.2,10.2,0,0,1-2.6-.4v5.6h-4.7Zm4.7,10.7a5.9,5.9,0,0,0,2.2.4c1.8,0,3.1-1.4,3.1-4s-1.2-3.8-3-3.8a4.5,4.5,0,0,0-2.3.6Z"/><path class="a" d="M387,210.9c.1,1.3,1.7,2.4,3.8,2.4a8.9,8.9,0,0,0,4-.8l1,3.4a12.1,12.1,0,0,1-5.5,1.3c-4.7,0-8.2-2.3-8.2-7.2s3-7.6,7.4-7.6,6.7,3.1,6.7,6.1a12.7,12.7,0,0,1-.3,2.4Zm4.5-2.4v-.4a2,2,0,0,0-2.1-2.2,2.4,2.4,0,0,0-2.5,2.6Z"/><path class="a" d="M408.9,206.8a9.8,9.8,0,0,0-4.2-.8c-1.3,0-1.9.3-1.9.9s7.3.5,7.3,5.2c0,3.1-2.5,5.1-7,5.1a10.9,10.9,0,0,1-5.3-1.4l1-3.3a11.5,11.5,0,0,0,4.5,1c1.4,0,2.2-.4,2.2-1s-7.4-.5-7.4-5.4c0-2.9,2.5-4.7,6.5-4.7a11.3,11.3,0,0,1,5.3,1.1Z"/><path class="a" d="M417.6,198.9c0,1.3-.8,2.2-2.6,2.2s-2.4-.9-2.4-2.2.6-2.3,2.4-2.3S417.6,197.4,417.6,198.9Zm-.2,13.8c0,.7.4,1,1.1,1h.5l.7,2.7a5.3,5.3,0,0,1-3,.9,3.8,3.8,0,0,1-4.1-4V202.7h4.8Z"/><path class="a" d="M421.4,202.7h3.7l.8,1.2a6.9,6.9,0,0,1,4.4-1.5c3.6,0,5.2,1.9,5.2,5v9.5h-4.8V208a1.8,1.8,0,0,0-2-2.1,4.4,4.4,0,0,0-2.5.8v10.2h-4.8Z"/><path class="a" d="M445.5,202.4c5.8,0,7.8,3.2,7.8,7.4s-2.9,7.4-7.7,7.4-7.7-3.2-7.7-7.4S440.7,202.4,445.5,202.4Zm.1,11.3c1.8,0,2.9-1.5,2.9-3.7s-.8-4.2-2.9-4.2-2.9,1.3-2.9,3.7S443.4,213.7,445.6,213.7Z"/><path class="a" d="M321.1,267.5V277a14.7,14.7,0,0,1-7,1.7c-6.5,0-9.6-4-9.6-9.5s4.7-9.5,10.4-9.5a10.4,10.4,0,0,1,6.1,1.6l-1.4,3.4a8.5,8.5,0,0,0-4.6-1.2c-3.5,0-5.7,1.9-5.7,5.7s3.4,5.7,5.3,5.7a6.8,6.8,0,0,0,2.1-.2v-3.8h-4l.2-3.4Z"/><path class="a" d="M328.9,272.4c.2,1.4,1.7,2.4,3.9,2.4a8.9,8.9,0,0,0,4-.8l.9,3.4a11.5,11.5,0,0,1-5.5,1.3c-4.7,0-8.1-2.3-8.1-7.2s2.9-7.6,7.4-7.6,6.6,3.1,6.6,6.1a18.7,18.7,0,0,1-.2,2.4Zm4.5-2.4a.6.6,0,0,0,.1-.4,2,2,0,0,0-2.2-2.1,2.4,2.4,0,0,0-2.5,2.5ZM332,258h4.4l-4,4.7h-3.5Z"/><path class="a" d="M340.8,264.2h3.6l.8,1.2a6.9,6.9,0,0,1,4.4-1.5c3.6,0,5.2,1.9,5.2,5v9.5h-4.7v-8.9a1.9,1.9,0,0,0-2.1-2.1,4,4,0,0,0-2.4.8v10.2h-4.8Z"/><path class="a" d="M362.1,272.4c.1,1.4,1.7,2.4,3.8,2.4a9.6,9.6,0,0,0,4.1-.8l.9,3.4a12.1,12.1,0,0,1-5.5,1.3c-4.7,0-8.2-2.3-8.2-7.2s3-7.6,7.5-7.6,6.6,3.1,6.6,6.1a12.7,12.7,0,0,1-.3,2.4Zm4.5-2.4v-.4a1.9,1.9,0,0,0-2.1-2.1A2.4,2.4,0,0,0,362,270Z"/><path class="a" d="M373.9,264.2h3.4l1.1,1.9a4.2,4.2,0,0,1,3.8-2.2,3.2,3.2,0,0,1,1.6.3l-.7,3.6h-1.2a5.1,5.1,0,0,0-3.2,1v9.7h-4.8Z"/><path class="a" d="M391.9,263.9c5.8,0,7.8,3.3,7.8,7.4s-3,7.4-7.7,7.4-7.7-3.2-7.7-7.4S387,263.9,391.9,263.9Zm0,11.3c1.9,0,2.9-1.5,2.9-3.7s-.7-4.2-2.9-4.2-2.9,1.3-2.9,3.7S389.8,275.2,391.9,275.2Z"/><path class="a" d="M319.4,320.1v3.5h-5.3v14.9h-4.7V323.6H304v-3.5Z"/><path class="a" d="M323.5,332.5c.2,1.3,1.7,2.4,3.9,2.4a8.8,8.8,0,0,0,4-.9l.9,3.4a10.4,10.4,0,0,1-5.5,1.3c-4.7,0-8.1-2.2-8.1-7.1s2.9-7.6,7.4-7.6,6.6,3,6.6,6a21.4,21.4,0,0,1-.2,2.5Zm4.5-2.4a.9.9,0,0,0,.1-.5,2,2,0,0,0-2.2-2.1,2.4,2.4,0,0,0-2.4,2.6Z"/><path class="a" d="M335.4,324.3h3.3l1.2,1.9a4,4,0,0,1,3.8-2.2,3.5,3.5,0,0,1,1.6.3l-.7,3.6h-1.2a5.1,5.1,0,0,0-3.2,1v9.7h-4.8Z"/><path class="a" d="M347.1,324.3h3.3l1.1,1.9a4.2,4.2,0,0,1,3.8-2.2,3.7,3.7,0,0,1,1.7.3l-.8,3.6h-1.1a4.9,4.9,0,0,0-3.2,1v9.7h-4.8Z"/><path class="a" d="M363.7,320.4c0,1.4-.8,2.3-2.6,2.3s-2.5-.9-2.5-2.3.7-2.2,2.5-2.2S363.7,319,363.7,320.4Zm-.2,13.8a1,1,0,0,0,1.1,1.1h.5l.7,2.7a6.3,6.3,0,0,1-3,.8c-2.5,0-4.1-1.5-4.1-3.9V324.3h4.8Z"/><path class="a" d="M368.4,324.3v-2.6l4.7-1.1v3.7h3.8v3.3h-3.8v5.7c0,.9.6,1.5,1.8,1.5a2.9,2.9,0,0,0,1.4-.3l.8,3.3a8.4,8.4,0,0,1-4,.9c-2.9,0-4.8-1.6-4.8-4.5v-6.6h-2.4v-3.3Z"/><path class="a" d="M386.1,324c5.8,0,7.8,3.2,7.8,7.3s-2.9,7.4-7.6,7.4-7.8-3.2-7.8-7.4S381.3,324,386.1,324Zm.1,11.3c1.9,0,2.9-1.6,2.9-3.8s-.7-4.1-2.9-4.1-2.9,1.2-2.9,3.7S384,335.3,386.2,335.3Z"/><path class="a" d="M396.5,324.3h3.4l1.1,1.9a4,4,0,0,1,3.8-2.2,3.7,3.7,0,0,1,1.7.3l-.8,3.6h-1.2a5.3,5.3,0,0,0-3.2,1v9.7h-4.8Z"/><path class="a" d="M413.2,320.4c0,1.4-.9,2.3-2.6,2.3s-2.5-.9-2.5-2.3.7-2.2,2.5-2.2S413.2,319,413.2,320.4Zm-.2,13.8a1,1,0,0,0,1.1,1.1h.5l.7,2.7a6.3,6.3,0,0,1-3,.8c-2.6,0-4.1-1.5-4.1-3.9V324.3H413Z"/><path class="a" d="M417.3,325.2a14.4,14.4,0,0,1,5.8-1.2c5.5,0,6.7,2.4,6.7,6.3v4.1c0,.6.4.9,1,.9h.6l.7,2.7a6.6,6.6,0,0,1-3,.8c-2,0-3.1-.6-3.6-1.8a5.5,5.5,0,0,1-4.4,1.8c-2.1,0-4.7-1-4.7-3.9s4.1-4.6,8.7-4.6c0-1.7-.7-2.5-2.7-2.5a10,10,0,0,0-3.9.7Zm7.7,7.3c-2.1.1-3.8.4-3.8,1.7s.5,1.2,1.6,1.2a2.8,2.8,0,0,0,2.2-.9Z"/><path class="a" d="M438.6,334.2a1,1,0,0,0,1.1,1.1h.5l.7,2.7a6.3,6.3,0,0,1-3,.8c-2.5,0-4.1-1.5-4.1-3.9V317.2h4.8Z"/><path class="a" d="M314.8,379.8a11.4,11.4,0,0,1,5.5,1.3l-1.5,3.4a8.6,8.6,0,0,0-4.1-.9c-2.4,0-5.4,1.4-5.4,5.7s2.3,5.7,5.5,5.7a8.3,8.3,0,0,0,4.1-1l1.4,3.2a11.1,11.1,0,0,1-6.2,1.6c-4,0-9.6-1.8-9.6-9.6C304.5,383.7,308.4,379.8,314.8,379.8Z"/><path class="a" d="M336.8,398.5h-3.6l-.8-1.2a6.4,6.4,0,0,1-4.1,1.5c-4.1,0-5.4-2.4-5.4-4.9v-9.6h4.8v8.9a1.8,1.8,0,0,0,2,2.1,3.5,3.5,0,0,0,2.3-.8V384.3h4.8Z"/><path class="a" d="M340,384.3h3.3l1.2,2a4.1,4.1,0,0,1,3.8-2.3,3.5,3.5,0,0,1,1.6.3l-.7,3.6H348a5.1,5.1,0,0,0-3.2,1v9.7H340Z"/><path class="a" d="M361.7,388.4a9.4,9.4,0,0,0-4.1-.8c-1.3,0-1.9.3-1.9.9s7.2.5,7.2,5.2c0,3.1-2.4,5.1-7,5.1a11.3,11.3,0,0,1-5.3-1.4l1-3.3a12,12,0,0,0,4.6,1c1.4,0,2.1-.3,2.1-1s-7.3-.5-7.3-5.4c0-2.9,2.4-4.7,6.4-4.7a12.4,12.4,0,0,1,5.3,1.1Z"/><path class="a" d="M372.3,384c5.9,0,7.9,3.3,7.9,7.4s-3,7.4-7.7,7.4-7.8-3.2-7.8-7.4S367.5,384,372.3,384Zm.1,11.3c1.9,0,2.9-1.5,2.9-3.7s-.7-4.2-2.9-4.2-2.9,1.3-2.9,3.7S370.3,395.3,372.4,395.3Z"/><path class="a" d="M404.6,398.5H401l-.9-1.2s-.9,1.5-3.8,1.5-6.7-2.3-6.7-7.3a7.2,7.2,0,0,1,7.6-7.5,10.4,10.4,0,0,1,2.7.4v-7.1h4.7Zm-4.8-10.7a5.1,5.1,0,0,0-2.1-.4c-1.8,0-3.2,1.4-3.2,4s1.3,3.7,3,3.7a4.6,4.6,0,0,0,2.3-.5Z"/><path class="a" d="M412.1,392.5c.1,1.4,1.7,2.5,3.8,2.5a8.8,8.8,0,0,0,4-.9l1,3.4a12.1,12.1,0,0,1-5.5,1.3c-4.7,0-8.2-2.3-8.2-7.2s3-7.6,7.5-7.6,6.6,3.1,6.6,6.1a12.7,12.7,0,0,1-.3,2.4Zm4.5-2.4v-.4a1.9,1.9,0,0,0-2.1-2.1,2.4,2.4,0,0,0-2.5,2.5Z"/><path class="a" d="M435,384.3l3,9.3,3.1-9.3h5.1l-5.9,14.2h-4.6l-5.9-14.2Z"/><path class="a" d="M452.8,380.5c0,1.3-.8,2.2-2.5,2.2s-2.5-.9-2.5-2.2.7-2.3,2.5-2.3S452.8,379.1,452.8,380.5Zm-.2,13.8c0,.7.4,1,1.1,1h.5l.7,2.6a5,5,0,0,1-2.9.9c-2.6,0-4.1-1.5-4.1-4V384.3h4.7Z"/><path class="a" d="M471,398.5h-3.7l-.8-1.2s-1,1.5-3.9,1.5-6.7-2.3-6.7-7.3,3.2-7.5,7.7-7.5a10.2,10.2,0,0,1,2.6.4v-7.1H471Zm-4.9-10.7a5.1,5.1,0,0,0-2.1-.4c-1.8,0-3.1,1.4-3.1,4s1.2,3.7,3,3.7a4.4,4.4,0,0,0,2.2-.5Z"/><path class="a" d="M474.6,385.3a14.2,14.2,0,0,1,5.8-1.3c5.5,0,6.7,2.4,6.7,6.4v4c0,.6.4.9,1,.9h.6l.7,2.6a5.6,5.6,0,0,1-3,.9c-2,0-3.1-.7-3.7-1.8a5.3,5.3,0,0,1-4.3,1.8c-2.1,0-4.7-1-4.7-4s4.1-4.6,8.7-4.6c0-1.6-.7-2.5-2.7-2.5a10.1,10.1,0,0,0-3.9.8Zm7.7,7.2c-2.1.1-3.8.5-3.8,1.7s.5,1.3,1.6,1.3a3.2,3.2,0,0,0,2.2-.9Z"/><path class="a" d="M311.6,460h-6V441.6h6c7.2,0,11.1,3.7,11.1,9S318.9,460,311.6,460Zm.6-3.6a5.5,5.5,0,0,0,5.6-5.8c0-2.4-1.4-5.3-5.6-5.3h-1.8v11.1Z"/><path class="a" d="M330.4,442c0,1.4-.8,2.2-2.5,2.2s-2.5-.9-2.5-2.2.6-2.3,2.5-2.3S330.4,440.6,330.4,442Zm-.2,13.8c0,.7.4,1,1.1,1h.5l.7,2.6a5.1,5.1,0,0,1-3,.9,3.7,3.7,0,0,1-4-3.9V445.8h4.7Z"/><path class="a" d="M344.3,449.9a9.4,9.4,0,0,0-4.1-.8c-1.3,0-1.9.4-1.9.9s7.2.5,7.2,5.3c0,3-2.4,5-7,5a10.2,10.2,0,0,1-5.3-1.4l1-3.3a11.9,11.9,0,0,0,4.5,1c1.5,0,2.2-.3,2.2-1s-7.4-.5-7.4-5.4c0-2.8,2.5-4.7,6.5-4.7a12.4,12.4,0,0,1,5.3,1.1Z"/><path class="a" d="M355.9,445.5a9.7,9.7,0,0,1,3.7.8l-1.3,3.5a6.3,6.3,0,0,0-2.6-.5,3.4,3.4,0,0,0-3.6,3.6c0,2.7,2.1,3.5,3.8,3.5a5.5,5.5,0,0,0,2.6-.6l1.2,3.4a10.1,10.1,0,0,1-4.9,1.1c-4.6,0-7.5-2.9-7.5-7.3S351,445.5,355.9,445.5Z"/><path class="a" d="M362.3,446.8a13.8,13.8,0,0,1,5.8-1.3c5.4,0,6.7,2.5,6.7,6.4v4c0,.6.4.9,1,.9h.6l.6,2.6a5.3,5.3,0,0,1-3,.9c-1.9,0-3.1-.7-3.6-1.8a5.3,5.3,0,0,1-4.3,1.8c-2.2,0-4.7-1-4.7-3.9s4-4.7,8.6-4.7c0-1.6-.7-2.5-2.7-2.5a10.5,10.5,0,0,0-3.9.8Zm7.7,7.3c-2.1,0-3.8.4-3.8,1.6a1.3,1.3,0,0,0,1.5,1.3,3.5,3.5,0,0,0,2.3-.9Z"/><path class="a" d="M378.8,445.8h3.6l.8,1.2a6.9,6.9,0,0,1,4.5-1.5c3.3,0,6.1,2.2,6.1,7.2s-3.7,7.6-7.7,7.6a10.2,10.2,0,0,1-2.6-.4v5.7h-4.7Zm4.8,10.7a5.1,5.1,0,0,0,2.1.4c1.8,0,3.2-1.4,3.2-4s-1.3-3.7-3-3.7a4.6,4.6,0,0,0-2.3.5Z"/><path class="a" d="M396.7,446.8a14.2,14.2,0,0,1,5.8-1.3c5.5,0,6.7,2.5,6.7,6.4v4c0,.6.4.9,1,.9h.6l.6,2.6a5,5,0,0,1-2.9.9c-2,0-3.1-.7-3.7-1.8a5.3,5.3,0,0,1-4.3,1.8c-2.1,0-4.7-1-4.7-3.9s4.1-4.7,8.6-4.7c0-1.6-.6-2.5-2.6-2.5a10.1,10.1,0,0,0-3.9.8Zm7.7,7.3c-2.1,0-3.8.4-3.8,1.6s.5,1.3,1.6,1.3a3.2,3.2,0,0,0,2.2-.9Z"/><path class="a" d="M421,445.5a9.2,9.2,0,0,1,3.7.8l-1.3,3.5a6,6,0,0,0-2.6-.5,3.4,3.4,0,0,0-3.6,3.6c0,2.7,2.1,3.5,3.8,3.5a5.3,5.3,0,0,0,2.6-.6l1.2,3.4a9.6,9.6,0,0,1-4.9,1.1c-4.5,0-7.4-2.9-7.4-7.3S416.2,445.5,421,445.5Z"/><path class="a" d="M432,442c0,1.4-.8,2.2-2.5,2.2s-2.5-.9-2.5-2.2.7-2.3,2.5-2.3S432,440.6,432,442Zm-.1,13.8c0,.7.3,1,1,1h.5l.7,2.6a5,5,0,0,1-2.9.9c-2.6,0-4.1-1.5-4.1-3.9V445.8h4.8Z"/><path class="a" d="M450.2,460h-3.7l-.8-1.2s-1,1.5-3.9,1.5-6.7-2.3-6.7-7.3,3.2-7.5,7.7-7.5a10.2,10.2,0,0,1,2.6.4v-7.1h4.8Zm-4.9-10.7a4.9,4.9,0,0,0-2-.4c-1.9,0-3.2,1.4-3.2,4s1.2,3.8,3,3.8a3.9,3.9,0,0,0,2.2-.6Z"/><path class="a" d="M453.8,446.8a14.2,14.2,0,0,1,5.8-1.3c5.5,0,6.7,2.5,6.7,6.4v4c0,.6.4.9,1,.9h.6l.7,2.6a5.6,5.6,0,0,1-3,.9c-2,0-3.1-.7-3.6-1.8a5.5,5.5,0,0,1-4.4,1.8c-2.1,0-4.7-1-4.7-3.9s4.1-4.7,8.7-4.7c0-1.6-.7-2.5-2.7-2.5a10.1,10.1,0,0,0-3.9.8Zm7.7,7.3c-2.1,0-3.8.4-3.8,1.6s.5,1.3,1.6,1.3a3.2,3.2,0,0,0,2.2-.9Z"/><path class="a" d="M484.6,460h-3.7l-.8-1.2s-1,1.5-3.8,1.5-6.8-2.3-6.8-7.3,3.3-7.5,7.7-7.5a9.2,9.2,0,0,1,2.6.4v-7.1h4.8Zm-4.8-10.7a5.1,5.1,0,0,0-2.1-.4c-1.9,0-3.2,1.4-3.2,4s1.2,3.8,3,3.8a4.5,4.5,0,0,0,2.3-.6Z"/><path class="d" d="M40.2,85.7l-2.1.9,2.1.9-1,1.6-1.9-1.2.3,2H35.5l.2-1.9a17.4,17.4,0,0,0-1.8,1.1l-1-1.6,2-.9-2-.9,1-1.5,1.8,1.2c0-.8-.2-1.7-.2-2h2.1l-.2,1.9,1.8-1.1Z"/><path class="d" d="M52.5,91.4a5,5,0,0,1-5.1,5c-4.2,0-5.3-2.7-5.3-5V83.6h3v7.8a2.2,2.2,0,0,0,2.3,2.4,2.2,2.2,0,0,0,2.1-2.4V83.6h3Z"/><path class="d" d="M54.8,86.4H57l.6.8a4.3,4.3,0,0,1,2.7-.9c2.3,0,3.3,1.3,3.3,3.4v6.5h-3V90.1c0-1-.5-1.4-1.3-1.4a2.3,2.3,0,0,0-1.5.5v7h-3Z"/><path class="d" d="M65.8,87.1a8,8,0,0,1,3.6-.8c3.4,0,4.2,1.6,4.2,4.3v2.8a.5.5,0,0,0,.6.6h.4l.4,1.9a3.6,3.6,0,0,1-1.9.6,2.3,2.3,0,0,1-2.3-1.3,3,3,0,0,1-2.7,1.3,2.7,2.7,0,0,1-2.9-2.7c0-2.5,2.5-3.2,5.4-3.2,0-1.1-.4-1.7-1.7-1.7a6.4,6.4,0,0,0-2.4.5Zm4.8,5c-1.4,0-2.4.3-2.4,1.1a.9.9,0,0,0,1,.9,2,2,0,0,0,1.4-.6Z"/><path class="d" d="M91.9,90c0-.8-.3-1.3-1.2-1.3a1.7,1.7,0,0,0-1.3.5v7h-3V90c0-.8-.3-1.3-1.2-1.3a1.7,1.7,0,0,0-1.3.5v7h-3V86.4h2.2l.5.8a5.2,5.2,0,0,1,2.9-.9,3.2,3.2,0,0,1,2.5.9,4.4,4.4,0,0,1,2.8-.9,2.8,2.8,0,0,1,3.1,3.1v6.8h-3Z"/><path class="d" d="M99.9,83.8a1.4,1.4,0,0,1-1.5,1.6,1.4,1.4,0,0,1-1.6-1.6c0-1,.4-1.5,1.6-1.5S99.9,82.8,99.9,83.8Zm-.1,9.5a.6.6,0,0,0,.7.7h.3l.5,1.9a3.6,3.6,0,0,1-1.9.6,2.4,2.4,0,0,1-2.5-2.7V86.4h2.9Z"/><path class="d" d="M108.7,89.2a6,6,0,0,0-2.6-.5q-1.2,0-1.2.6c0,1.2,4.5.3,4.5,3.6s-1.5,3.5-4.4,3.5a5.6,5.6,0,0,1-3.3-1l.6-2.2a7.8,7.8,0,0,0,2.9.6c.9,0,1.4-.2,1.4-.6s-4.7-.4-4.7-3.7,1.6-3.2,4.1-3.2a6.8,6.8,0,0,1,3.3.7Z"/><path class="d" d="M122,90c0-.8-.2-1.3-1.1-1.3a2,2,0,0,0-1.4.5v7h-3V90c0-.8-.2-1.3-1.1-1.3a2,2,0,0,0-1.4.5v7h-3V86.4h2.3l.5.8a5.2,5.2,0,0,1,2.9-.9,3.2,3.2,0,0,1,2.5.9,4.2,4.2,0,0,1,2.8-.9,2.8,2.8,0,0,1,3,3.1v6.8h-3Z"/><path class="d" d="M127.2,87.1a8.8,8.8,0,0,1,3.7-.8c3.4,0,4.2,1.6,4.2,4.3v2.8a.5.5,0,0,0,.6.6h.4l.4,1.9a3.6,3.6,0,0,1-1.9.6,2.3,2.3,0,0,1-2.3-1.3,3.3,3.3,0,0,1-2.7,1.3,2.7,2.7,0,0,1-2.9-2.7c0-2.5,2.5-3.2,5.4-3.2a1.5,1.5,0,0,0-1.7-1.7,6,6,0,0,0-2.4.5Zm4.8,5c-1.3,0-2.3.3-2.3,1.1a.9.9,0,0,0,1,.9,1.6,1.6,0,0,0,1.3-.6Z"/><path class="d" d="M142.3,86.4h2.1l.7,1.4a2.6,2.6,0,0,1,2.4-1.5c.5,0,.8,0,1,.2l-.4,2.4h-.8a2.8,2.8,0,0,0-2,.8v6.6h-3Z"/><path class="d" d="M151.8,92.1a2.2,2.2,0,0,0,2.4,1.6,6.3,6.3,0,0,0,2.6-.5l.6,2.3a6.5,6.5,0,0,1-3.5.9c-2.9,0-5.1-1.6-5.1-5s1.8-5.1,4.7-5.1a3.8,3.8,0,0,1,4.1,4.1,10.9,10.9,0,0,1-.2,1.7Zm2.9-1.7v-.3a1.3,1.3,0,0,0-1.4-1.4,1.5,1.5,0,0,0-1.5,1.7Z"/><path class="d" d="M164.2,86.3a5.2,5.2,0,0,1,2.3.5l-.8,2.4a3.8,3.8,0,0,0-1.6-.4,2.2,2.2,0,0,0-2.3,2.5,2.2,2.2,0,0,0,2.4,2.4,3.8,3.8,0,0,0,1.6-.4l.7,2.3a5.3,5.3,0,0,1-3,.8c-2.9,0-4.7-2-4.7-5S161.1,86.3,164.2,86.3Z"/><path class="d" d="M172.3,86.3c3.6,0,4.9,2.2,4.9,5a4.8,4.8,0,0,1-4.9,5.1c-3.4,0-4.8-2.2-4.8-5.1S169.3,86.3,172.3,86.3Zm0,7.7c1.2,0,1.8-1.1,1.8-2.6s-.4-2.8-1.8-2.8-1.8.8-1.8,2.5S171,94,172.3,94Z"/><path class="d" d="M189.8,90c0-.8-.2-1.3-1.1-1.3a2,2,0,0,0-1.4.5v7h-3V90c0-.8-.2-1.3-1.1-1.3a2,2,0,0,0-1.4.5v7h-3V86.4h2.3l.5.8a4.7,4.7,0,0,1,2.8-.9,3.5,3.5,0,0,1,2.6.9,4.2,4.2,0,0,1,2.8-.9,2.8,2.8,0,0,1,3,3.1v6.8h-3Z"/><path class="d" d="M197.4,92.1c.1.9,1,1.6,2.4,1.6a6.2,6.2,0,0,0,2.5-.5l.6,2.3a6.5,6.5,0,0,1-3.5.9c-2.9,0-5.1-1.6-5.1-5s1.9-5.1,4.7-5.1a3.8,3.8,0,0,1,4.1,4.1c0,.7-.1,1.7-.1,1.7Zm2.8-1.7v-.3a1.2,1.2,0,0,0-1.3-1.4,1.6,1.6,0,0,0-1.6,1.7Z"/><path class="d" d="M204.8,86.4h2.3l.5.8a4.5,4.5,0,0,1,2.7-.9c2.3,0,3.3,1.3,3.3,3.4v6.5h-3V90.1c0-1-.4-1.4-1.3-1.4a2.3,2.3,0,0,0-1.5.5v7h-3Z"/><path class="d" d="M224.5,96.2h-2.3l-.5-.8a2.7,2.7,0,0,1-2.4,1c-2.1,0-4.2-1.6-4.2-5s2-5.1,4.8-5.1l1.6.2V81.6h3Zm-3-7.4a3.8,3.8,0,0,0-1.3-.2c-1.2,0-2,.9-2,2.7s.8,2.6,1.9,2.6a2.4,2.4,0,0,0,1.4-.4Z"/><path class="d" d="M226.8,87.1a8.8,8.8,0,0,1,3.7-.8c3.4,0,4.2,1.6,4.2,4.3v2.8a.5.5,0,0,0,.6.6h.3l.5,1.9a3.6,3.6,0,0,1-1.9.6,2.3,2.3,0,0,1-2.3-1.3,3.3,3.3,0,0,1-2.7,1.3,2.7,2.7,0,0,1-2.9-2.7c0-2.5,2.5-3.2,5.4-3.2a1.5,1.5,0,0,0-1.7-1.7,7,7,0,0,0-2.5.5Zm4.8,5c-1.3,0-2.3.3-2.3,1.1a.8.8,0,0,0,.9.9,1.7,1.7,0,0,0,1.4-.6Z"/><path class="d" d="M242,86.3a5.7,5.7,0,0,1,2.4.5l-.8,2.4a3.8,3.8,0,0,0-1.6-.4,2.2,2.2,0,0,0-2.3,2.5,2.2,2.2,0,0,0,2.3,2.4,4.3,4.3,0,0,0,1.7-.4l.7,2.3a5.3,5.3,0,0,1-3,.8c-2.9,0-4.7-2-4.7-5S239,86.3,242,86.3Z"/><path class="d" d="M249,83.8a1.6,1.6,0,1,1-3.2,0c0-1,.4-1.5,1.6-1.5S249,82.8,249,83.8Zm-.1,9.5c0,.5.2.7.6.7h.3l.5,1.9a3.6,3.6,0,0,1-1.9.6,2.4,2.4,0,0,1-2.5-2.7V86.4h3Z"/><path class="d" d="M255.7,86.3c3.6,0,4.9,2.2,4.9,5a4.8,4.8,0,0,1-4.8,5.1c-3.5,0-4.9-2.2-4.9-5.1S252.7,86.3,255.7,86.3Zm0,7.7c1.2,0,1.9-1.1,1.9-2.6s-.5-2.8-1.9-2.8-1.8.8-1.8,2.5S254.4,94,255.7,94Zm.2-11.8h2.8l-2.5,3.2H254Z"/><path class="d" d="M262.2,86.4h2.3l.5.8a4.5,4.5,0,0,1,2.7-.9c2.3,0,3.3,1.3,3.3,3.4v6.5h-3V90.1c0-1-.4-1.4-1.3-1.4a2.3,2.3,0,0,0-1.5.5v7h-3Z"/><path class="d" d="M277.8,86.4H280l.6.8a3.9,3.9,0,0,1,2.7-.9c2.1,0,3.9,1.5,3.9,4.8s-2.4,5.3-4.8,5.3a5.4,5.4,0,0,1-1.7-.3V100h-2.9Zm3,7.4a3.8,3.8,0,0,0,1.3.2c1.1,0,2-.9,2-2.7s-.8-2.6-1.9-2.6a2.4,2.4,0,0,0-1.4.4Z"/><path class="d" d="M297.5,96.2h-2.2l-.6-.8a3.6,3.6,0,0,1-2.5,1,3.1,3.1,0,0,1-3.4-3.4V86.4h3v6.1c0,1,.4,1.5,1.3,1.5a2.6,2.6,0,0,0,1.4-.5V86.4h3Z"/><path class="d" d="M302.1,92.1c.1.9,1,1.6,2.4,1.6a5.5,5.5,0,0,0,2.5-.5l.6,2.3a6.5,6.5,0,0,1-3.5.9c-2.9,0-5.1-1.6-5.1-5s1.9-5.1,4.7-5.1a3.8,3.8,0,0,1,4.1,4.1c0,.7-.1,1.7-.1,1.7Zm2.8-1.7v-.3a1.2,1.2,0,0,0-1.3-1.4,1.6,1.6,0,0,0-1.6,1.7Z"/><path class="d" d="M318.5,96.2h-2.3l-.6-.8a2.7,2.7,0,0,1-2.4,1c-2.1,0-4.2-1.6-4.2-5a4.8,4.8,0,0,1,4.8-5.1,7.9,7.9,0,0,1,1.7.2V81.6h3Zm-3.1-7.4a3.8,3.8,0,0,0-1.3-.2c-1.1,0-2,.9-2,2.7s.8,2.6,1.9,2.6a2.4,2.4,0,0,0,1.4-.4Z"/><path class="d" d="M323.1,92.1a2.2,2.2,0,0,0,2.4,1.6,6.3,6.3,0,0,0,2.6-.5l.5,2.3a6.2,6.2,0,0,1-3.4.9c-2.9,0-5.1-1.6-5.1-5s1.8-5.1,4.6-5.1,4.2,2,4.2,4.1a10.9,10.9,0,0,1-.2,1.7Zm2.8-1.7a.4.4,0,0,0,.1-.3,1.3,1.3,0,0,0-1.4-1.4,1.5,1.5,0,0,0-1.5,1.7Z"/><path class="d" d="M335.8,86.4V84.7l3-.8v2.5h2.4v2.3h-2.4v3.9a1,1,0,0,0,1.1,1.1l.9-.2.5,2.2a4.4,4.4,0,0,1-2.5.7,2.9,2.9,0,0,1-3-3.2V88.7h-1.5V86.4Z"/><path class="d" d="M345.3,92.1c.1.9,1,1.6,2.4,1.6a6.2,6.2,0,0,0,2.5-.5l.6,2.3a6.5,6.5,0,0,1-3.5.9c-2.9,0-5.1-1.6-5.1-5s1.9-5.1,4.7-5.1a3.8,3.8,0,0,1,4.1,4.1c0,.7-.1,1.7-.1,1.7Zm2.8-1.7v-.3a1.2,1.2,0,0,0-1.3-1.4,1.6,1.6,0,0,0-1.6,1.7Z"/><path class="d" d="M352.7,86.4H355l.5.8a4.5,4.5,0,0,1,2.7-.9c2.3,0,3.3,1.3,3.3,3.4v6.5h-3V90.1c0-1-.4-1.4-1.3-1.4a2.3,2.3,0,0,0-1.5.5v7h-3Z"/><path class="d" d="M366,92.1a2.2,2.2,0,0,0,2.4,1.6,6.3,6.3,0,0,0,2.6-.5l.6,2.3a6.5,6.5,0,0,1-3.5.9c-2.9,0-5.1-1.6-5.1-5s1.8-5.1,4.7-5.1a3.8,3.8,0,0,1,4.1,4.1,10.9,10.9,0,0,1-.2,1.7Zm2.9-1.7v-.3a1.3,1.3,0,0,0-1.4-1.4,1.5,1.5,0,0,0-1.5,1.7Z"/><path class="d" d="M373.5,86.4h2.1l.7,1.4a2.4,2.4,0,0,1,2.3-1.5,1.8,1.8,0,0,1,1.1.2l-.5,2.4h-.7a2.6,2.6,0,0,0-2,.8v6.6h-3Z"/><path class="d" d="M387.7,86.4l1.9,6.4,1.9-6.4h3.3l-3.7,9.8h-2.9l-3.7-9.8Z"/><path class="d" d="M395.7,87.1a8.8,8.8,0,0,1,3.7-.8c3.4,0,4.2,1.6,4.2,4.3v2.8a.5.5,0,0,0,.6.6h.4l.4,1.9a3.6,3.6,0,0,1-1.9.6,2.3,2.3,0,0,1-2.3-1.3,3.3,3.3,0,0,1-2.7,1.3,2.7,2.7,0,0,1-2.9-2.7c0-2.5,2.5-3.2,5.4-3.2a1.5,1.5,0,0,0-1.7-1.7,7,7,0,0,0-2.5.5Zm4.8,5c-1.3,0-2.3.3-2.3,1.1a.9.9,0,0,0,1,.9,1.6,1.6,0,0,0,1.3-.6Z"/><path class="d" d="M406.1,86.4h2.1l.7,1.4a2.4,2.4,0,0,1,2.3-1.5,1.8,1.8,0,0,1,1.1.2l-.5,2.4h-.7a2.6,2.6,0,0,0-2,.8v6.6h-3Z"/><path class="d" d="M416.5,83.8a1.4,1.4,0,0,1-1.6,1.6,1.5,1.5,0,0,1-1.6-1.6c0-1,.4-1.5,1.6-1.5S416.5,82.8,416.5,83.8Zm-.1,9.5c0,.5.2.7.6.7h.4l.4,1.9a3.3,3.3,0,0,1-1.9.6,2.4,2.4,0,0,1-2.5-2.7V86.4h3Z"/><path class="d" d="M423.2,86.3c3.6,0,4.9,2.2,4.9,5s-1.8,5.1-4.8,5.1-4.9-2.2-4.9-5.1S420.2,86.3,423.2,86.3Zm0,7.7c1.2,0,1.9-1.1,1.9-2.6s-.5-2.8-1.9-2.8-1.8.8-1.8,2.5S421.9,94,423.2,94Z"/><path class="d" d="M436,89.2a5.5,5.5,0,0,0-2.6-.5q-1.2,0-1.2.6c0,1.2,4.6.3,4.6,3.6s-1.6,3.5-4.4,3.5a5.6,5.6,0,0,1-3.3-1l.6-2.2a7.7,7.7,0,0,0,2.8.6c.9,0,1.4-.2,1.4-.6s-4.6-.4-4.6-3.7,1.5-3.2,4-3.2a7.2,7.2,0,0,1,3.4.7Z"/><path class="d" d="M445.7,92.1a2.2,2.2,0,0,0,2.4,1.6,6.3,6.3,0,0,0,2.6-.5l.5,2.3a6.2,6.2,0,0,1-3.4.9c-3,0-5.1-1.6-5.1-5s1.8-5.1,4.6-5.1,4.2,2,4.2,4.1a10.9,10.9,0,0,1-.2,1.7Zm2.8-1.7a.4.4,0,0,0,.1-.3,1.3,1.3,0,0,0-1.4-1.4c-.9,0-1.5.6-1.5,1.7Z"/><path class="d" d="M453.1,86.4h2.3l.5.8a4.9,4.9,0,0,1,2.8-.9c2.3,0,3.2,1.3,3.2,3.4v6.5H459V90.1c0-1-.5-1.4-1.3-1.4a2.3,2.3,0,0,0-1.5.5v7h-3.1Z"/><path class="d" d="M464.7,86.4v-.6c0-3.1,2-4.3,4.5-4.3a6.5,6.5,0,0,1,1.9.2l-.5,2.3h-1.2c-1.1,0-1.9.5-1.9,2.1v.4h2.6v2.3h-2.5V100h-2.9V88.7h-1.6V86.4Z"/><path class="d" d="M475.1,86.3c3.6,0,4.9,2.2,4.9,5a4.8,4.8,0,0,1-4.9,5.1c-3.4,0-4.8-2.2-4.8-5.1S472,86.3,475.1,86.3Zm0,7.7c1.2,0,1.8-1.1,1.8-2.6s-.5-2.8-1.8-2.8-1.8.8-1.8,2.5S473.7,94,475.1,94Z"/><path class="d" d="M487.5,95.7a3.3,3.3,0,0,1-2.3.7c-1.6,0-4.1-1.1-4.1-5s2.9-5.1,5.2-5.1a12.8,12.8,0,0,1,4.2.7v13h-3Zm0-6.9a2.7,2.7,0,0,0-1.1-.2c-1.2,0-2.2.8-2.2,2.7s.7,2.6,1.9,2.6a2.6,2.6,0,0,0,1.4-.4Z"/><path class="d" d="M501.4,96.2h-2.3l-.5-.8a3.7,3.7,0,0,1-2.6,1c-2.5,0-3.3-1.7-3.3-3.4V86.4h2.9v6.1c0,1,.4,1.5,1.3,1.5a2.3,2.3,0,0,0,1.4-.5V86.4h3.1Z"/><path class="d" d="M505.9,92.1a2.2,2.2,0,0,0,2.4,1.6,5.5,5.5,0,0,0,2.5-.5l.6,2.3a6.4,6.4,0,0,1-3.4.9c-3,0-5.1-1.6-5.1-5s1.8-5.1,4.6-5.1,4.2,2,4.2,4.1a10.9,10.9,0,0,1-.2,1.7Zm2.8-1.7v-.3c0-.9-.4-1.4-1.3-1.4s-1.5.6-1.5,1.7Z"/><path class="d" d="M519.6,89.2a5.5,5.5,0,0,0-2.6-.5c-.8,0-1.1.2-1.1.6s4.5.3,4.5,3.6-1.5,3.5-4.4,3.5a5.6,5.6,0,0,1-3.3-1l.6-2.2a7.8,7.8,0,0,0,2.9.6c.8,0,1.3-.2,1.3-.6s-4.6-.4-4.6-3.7,1.5-3.2,4-3.2a7.2,7.2,0,0,1,3.4.7Z"/></svg>