<svg xmlns="http://www.w3.org/2000/svg" width="660" height="500" viewBox="0 0 660 500"><defs><style>.a{fill:#d2a206;}.b{fill:#fff;}.c{fill:#223749;}.d{fill:#409195;}.e{fill:#9ab63a;}.f{fill:#6698ac;}.g{fill:#5e788f;}.h{fill:#384f64;}.i{fill:#d58116;}.j{fill:#07a0b9;}.k{fill:#478335;}</style></defs><path class="a" d="M191.3,170.9h-5.4V154.4h5.4c6.5,0,10,3.3,10,8.1S197.9,170.9,191.3,170.9Zm.6-3.2a4.9,4.9,0,0,0,5-5.2c0-2.2-1.2-4.8-5-4.8h-1.7v10Z"/><path class="a" d="M207.5,165.5c.1,1.3,1.5,2.2,3.4,2.2a8.8,8.8,0,0,0,3.6-.7l.9,3a9.7,9.7,0,0,1-5,1.2c-4.2,0-7.3-2.1-7.3-6.5s2.6-6.8,6.7-6.8,5.9,2.8,5.9,5.5a15.6,15.6,0,0,1-.2,2.1Zm4-2.1V163a1.7,1.7,0,0,0-1.9-1.9,2.2,2.2,0,0,0-2.2,2.3Z"/><path class="a" d="M233.9,162.8c0-1-.3-1.7-1.6-1.7a3.4,3.4,0,0,0-2,.6v9.2H226v-8.1c0-1-.3-1.7-1.6-1.7a3.6,3.6,0,0,0-2,.6v9.2h-4.3V158.2h3.3l.7,1a7,7,0,0,1,4.1-1.3,4.7,4.7,0,0,1,3.6,1.3,7,7,0,0,1,4-1.3c2.8,0,4.4,1.5,4.4,4.1v8.9h-4.3Z"/><path class="a" d="M247.2,157.9c5.2,0,7,2.9,7,6.6s-2.6,6.7-6.9,6.7-7-2.9-7-6.7S242.8,157.9,247.2,157.9Zm0,10.2c1.7,0,2.7-1.4,2.7-3.4s-.7-3.7-2.7-3.7-2.6,1.1-2.6,3.3S245.3,168.1,247.2,168.1Z"/><path class="a" d="M263.5,157.9a9,9,0,0,1,3.3.7l-1.1,3.2a5.2,5.2,0,0,0-2.3-.5,3,3,0,0,0-3.3,3.2c0,2.5,1.9,3.2,3.4,3.2a5.2,5.2,0,0,0,2.3-.5l1.1,3a8.8,8.8,0,0,1-4.3,1c-4.1,0-6.7-2.6-6.7-6.6S259.2,157.9,263.5,157.9Z"/><path class="a" d="M269,158.2h3l1,1.7a3.8,3.8,0,0,1,3.4-2,3.1,3.1,0,0,1,1.5.3l-.7,3.2h-1a4.2,4.2,0,0,0-2.9,1v8.6H269Z"/><path class="a" d="M279,159.1a10.9,10.9,0,0,1,5.1-1.2c5,0,6.1,2.2,6.1,5.7v3.6c0,.6.3.9.8.9h.6l.6,2.4a5.4,5.4,0,0,1-2.7.8c-1.8,0-2.8-.6-3.3-1.6a4.6,4.6,0,0,1-3.9,1.6c-1.9,0-4.1-.9-4.1-3.6s3.6-4.1,7.7-4.1c0-1.5-.6-2.3-2.4-2.3a9.9,9.9,0,0,0-3.5.7Zm6.8,6.5c-1.8,0-3.3.4-3.3,1.5s.4,1.1,1.3,1.1a2.7,2.7,0,0,0,2-.8Z"/><path class="a" d="M300.7,157.9a10.2,10.2,0,0,1,3.4.7l-1.2,3.2a4.9,4.9,0,0,0-2.3-.5,3.2,3.2,0,1,0,.1,6.4,5.7,5.7,0,0,0,2.4-.5l1.1,3a9.5,9.5,0,0,1-4.4,1c-4.1,0-6.7-2.6-6.7-6.6S296.4,157.9,300.7,157.9Z"/><path class="a" d="M310.7,154.7a2.3,2.3,0,0,1-4.6,0c0-1.2.6-2,2.3-2S310.7,153.5,310.7,154.7Zm-.2,12.4c0,.7.3,1,1,1h.4l.6,2.4a4.7,4.7,0,0,1-2.6.8,3.4,3.4,0,0,1-3.7-3.6v-9.4h4.3Z"/><path class="a" d="M314.4,159.1a11.7,11.7,0,0,1,5.2-1.2c4.9,0,6,2.2,6,5.7v3.6a.8.8,0,0,0,.9.9h.5l.6,2.4a5,5,0,0,1-2.6.8c-1.8,0-2.8-.6-3.3-1.6a4.8,4.8,0,0,1-3.9,1.6c-1.9,0-4.2-.9-4.2-3.6s3.6-4.1,7.8-4.1c0-1.5-.7-2.3-2.4-2.3a11,11,0,0,0-3.6.7Zm6.9,6.5c-1.9,0-3.4.4-3.4,1.5s.5,1.1,1.4,1.1a2.8,2.8,0,0,0,2-.8Z"/><path d="M185.8,195.3V182.1h7.9v1.4h-6.3v4.3h5.2v1.5h-5.2v4.6h6.5v1.4Z"/><path d="M196.1,193.5a7.2,7.2,0,0,0,2.7.6c1.5,0,2.1-.7,2.1-1.5,0-2.5-5-1.2-5-4.7,0-1.8,1.4-3,3.6-3a7.1,7.1,0,0,1,2.7.5l-.4,1.3a7.3,7.3,0,0,0-2.3-.4c-1.4,0-2.1.6-2.1,1.4,0,2.3,5.2,1.1,5.2,4.6,0,1.7-1.3,3.2-3.9,3.2a6.5,6.5,0,0,1-3.1-.7Z"/><path d="M210.4,195a3.9,3.9,0,0,1-2,.5c-1.8,0-2.9-1.1-2.9-3.2v-6h-1.8v-1.2h1.8v-2.2l1.7-.4v2.6h3.2v1.2h-3.2v6c0,1.3.6,1.8,1.6,1.8a4.2,4.2,0,0,0,1.3-.3Z"/><path d="M220.8,195.2a1.9,1.9,0,0,1-1.2.3,1.6,1.6,0,0,1-1.7-1.2,4.5,4.5,0,0,1-3.2,1.2,2.7,2.7,0,0,1-2.9-2.6c0-2.6,2.6-3.2,6.1-3.2,0-1.8-.1-3.4-2.3-3.4a6.7,6.7,0,0,0-2.7.6l-.4-1.3a8.1,8.1,0,0,1,3.3-.7c3.2,0,3.7,1.7,3.7,4.5v3.7c0,.7.1,1,.7,1h.4Zm-2.9-4.4c-2.7,0-4.4.4-4.4,1.9a1.5,1.5,0,0,0,1.6,1.5,3.9,3.9,0,0,0,2.8-1.1Z"/><path d="M222.8,193.5a7.2,7.2,0,0,0,2.7.6c1.5,0,2.2-.7,2.2-1.5,0-2.5-5.1-1.2-5.1-4.7,0-1.8,1.4-3,3.6-3a8.2,8.2,0,0,1,2.8.5l-.5,1.3a7.3,7.3,0,0,0-2.3-.4c-1.4,0-2,.6-2,1.4,0,2.3,5.1,1.1,5.1,4.6,0,1.7-1.3,3.2-3.9,3.2a6.5,6.5,0,0,1-3.1-.7Z"/><path d="M236.9,195.3V185.1h1l.5,1.4a3.8,3.8,0,0,1,3.1-1.6h.9l-.3,1.5h-.8a3.4,3.4,0,0,0-2.7,1.4v7.5Z"/><path d="M251.2,194.6a5.5,5.5,0,0,1-3.4.9c-2.9,0-4.7-2-4.7-5.2s1.8-5.4,4.5-5.4,3.8,1.9,3.8,4.1a8.1,8.1,0,0,1-.1,1.6h-6.5c.1,1.7,1,3.5,3.3,3.5a5.5,5.5,0,0,0,2.6-.6Zm-1.4-5v-.7c0-1.5-.7-2.6-2.3-2.6s-2.6,1.7-2.7,3.3Z"/><path d="M261,194.8a5.5,5.5,0,0,1-3,.7c-2.5,0-4.7-1.8-4.7-5.2s2.2-5.4,5.2-5.4a4.4,4.4,0,0,1,2.5.6l-.4,1.3a4.3,4.3,0,0,0-2.1-.5c-2.1,0-3.5,1.2-3.5,4s1.6,3.8,3.3,3.8a4,4,0,0,0,2.3-.6Z"/><path d="M267.1,184.9c3.3,0,4.7,2.4,4.7,5.3s-1.8,5.3-4.8,5.3-4.7-2.4-4.7-5.3S264.2,184.9,267.1,184.9Zm0,9.2c2.1,0,3-1.8,3-3.9s-.9-3.9-3-3.9-3.1,1.8-3.1,3.9S265,194.1,267.1,194.1Z"/><path d="M286.5,195.3v-7c0-1.4-.7-2-2.1-2a3.5,3.5,0,0,0-2.3,1.1v7.9h-1.6v-7a1.8,1.8,0,0,0-2-2,3.6,3.6,0,0,0-2.4,1.1v7.9h-1.6V185.1h1l.6,1a4,4,0,0,1,2.7-1.2,3.1,3.1,0,0,1,2.9,1.3,5.2,5.2,0,0,1,3.1-1.3c2.3,0,3.3,1.3,3.3,3.4v7Z"/><path d="M298.7,194.6a5.4,5.4,0,0,1-3.3.9c-2.9,0-4.8-2-4.8-5.2s1.8-5.4,4.5-5.4,3.8,1.9,3.8,4.1a8.1,8.1,0,0,1-.1,1.6h-6.5c.1,1.7,1,3.5,3.3,3.5a5.5,5.5,0,0,0,2.6-.6Zm-1.4-5c0-.2.1-.5.1-.7a2.3,2.3,0,0,0-2.4-2.6c-1.8,0-2.6,1.7-2.6,3.3Z"/><path d="M308,195.3v-7c0-1.6-.8-2-2-2a3.9,3.9,0,0,0-2.7,1.1v7.9h-1.7V185.1h1l.6,1a4.9,4.9,0,0,1,3.2-1.2c2.6,0,3.3,1.5,3.3,3.4v7Z"/><path d="M319.8,195.3l-.4-.9a4.7,4.7,0,0,1-2.9,1.1c-2.5,0-4.3-2.1-4.3-5s1.9-5.6,4.8-5.6a5.7,5.7,0,0,1,2.3.5V180H321v15.3Zm-.5-8.5a4.2,4.2,0,0,0-2.1-.5c-2.1,0-3.3,1.5-3.3,4s1.2,3.8,3,3.8a3.7,3.7,0,0,0,2.4-1Z"/><path d="M332.6,195.2a2.5,2.5,0,0,1-1.3.3,1.6,1.6,0,0,1-1.7-1.2,4.5,4.5,0,0,1-3.2,1.2,2.7,2.7,0,0,1-2.9-2.6c0-2.6,2.7-3.2,6.1-3.2,0-1.8,0-3.4-2.3-3.4a6.7,6.7,0,0,0-2.7.6l-.4-1.3a8.1,8.1,0,0,1,3.3-.7c3.2,0,3.7,1.7,3.7,4.5v3.7c0,.7.1,1,.7,1h.4Zm-3-4.4c-2.6,0-4.4.4-4.4,1.9a1.5,1.5,0,0,0,1.6,1.5,3.9,3.9,0,0,0,2.8-1.1Z"/><path d="M341.6,194.8a5.5,5.5,0,0,1-3,.7c-2.5,0-4.7-1.8-4.7-5.2s2.2-5.4,5.2-5.4a4.4,4.4,0,0,1,2.5.6l-.4,1.3a4.1,4.1,0,0,0-2.1-.5c-2.1,0-3.5,1.2-3.5,4s1.6,3.8,3.3,3.8a4,4,0,0,0,2.3-.6Z"/><path d="M344.6,183a1,1,0,0,1-1-1.1,1.1,1.1,0,0,1,1-1.1,1,1,0,0,1,1.1,1.1A1,1,0,0,1,344.6,183Zm2.1,12.2a2.5,2.5,0,0,1-1.2.3c-1.4,0-1.8-.9-1.8-2v-8.4h1.7v8.2c0,.4.1.8.7.8h.4Z"/><path d="M353.1,184.9c3.2,0,4.7,2.4,4.7,5.3s-1.9,5.3-4.9,5.3-4.6-2.4-4.6-5.3S350.1,184.9,353.1,184.9Zm-.1,9.2c2.1,0,3.1-1.8,3.1-3.9s-1-3.9-3.1-3.9-3.1,1.8-3.1,3.9S350.9,194.1,353,194.1Z"/><path d="M366.8,195.3v-7a1.7,1.7,0,0,0-2-2,4.4,4.4,0,0,0-2.8,1.1v7.9h-1.6V185.1h1l.6,1a4.9,4.9,0,0,1,3.1-1.2c2.6,0,3.3,1.5,3.3,3.4v7Z"/><path d="M379,194.6a5.4,5.4,0,0,1-3.3.9c-2.9,0-4.8-2-4.8-5.2s1.8-5.4,4.6-5.4,3.8,1.9,3.8,4.1a7.8,7.8,0,0,1-.2,1.6h-6.4a3.2,3.2,0,0,0,3.3,3.5,6.2,6.2,0,0,0,2.6-.6Zm-1.4-5a1.7,1.7,0,0,0,.1-.7c0-1.5-.7-2.6-2.3-2.6s-2.7,1.7-2.7,3.3Z"/><path d="M381.8,193.5a6.6,6.6,0,0,0,2.6.6c1.6,0,2.2-.7,2.2-1.5,0-2.5-5.1-1.2-5.1-4.7,0-1.8,1.5-3,3.6-3a7.3,7.3,0,0,1,2.8.5l-.4,1.3a7.3,7.3,0,0,0-2.3-.4c-1.4,0-2.1.6-2.1,1.4,0,2.3,5.1,1.1,5.1,4.6,0,1.7-1.2,3.2-3.8,3.2a6.5,6.5,0,0,1-3.1-.7Z"/><path d="M395.9,199.4V185.1H397l.5.9a4.3,4.3,0,0,1,2.8-1.1c2.7,0,4.4,2.2,4.4,5s-2,5.6-4.9,5.6a5.7,5.7,0,0,1-2.3-.5v4.4Zm1.6-5.8a4.9,4.9,0,0,0,2.2.5c2,0,3.3-1.5,3.3-4s-1.3-3.8-3-3.8a4.2,4.2,0,0,0-2.5,1Z"/><path d="M411.3,184.9c3.3,0,4.7,2.4,4.7,5.3s-1.8,5.3-4.8,5.3-4.7-2.4-4.7-5.3S408.4,184.9,411.3,184.9Zm-.1,9.2c2.1,0,3.1-1.8,3.1-3.9s-1-3.9-3.1-3.9-3,1.8-3,3.9S409.2,194.1,411.2,194.1Z"/><path d="M425,195.3v-7c0-1.6-.8-2-2-2a4.4,4.4,0,0,0-2.7,1.1v7.9h-1.7V185.1h1l.7,1a4.6,4.6,0,0,1,3.1-1.2c2.6,0,3.3,1.5,3.3,3.4v7Z"/><path d="M437.3,194.6a5.4,5.4,0,0,1-3.3.9c-3,0-4.8-2-4.8-5.2s1.8-5.4,4.5-5.4,3.8,1.9,3.8,4.1a8.1,8.1,0,0,1-.1,1.6h-6.5c.1,1.7,1,3.5,3.3,3.5a5.5,5.5,0,0,0,2.6-.6Zm-1.4-5v-.7c0-1.5-.7-2.6-2.3-2.6s-2.6,1.7-2.7,3.3Z"/><path d="M446.6,195.3v-7a1.7,1.7,0,0,0-2-2,3.9,3.9,0,0,0-2.7,1.1v7.9h-1.7V185.1h1l.6,1a4.9,4.9,0,0,1,3.2-1.2c2.6,0,3.3,1.5,3.3,3.4v7Z"/><path d="M463.9,194.6a5.5,5.5,0,0,1-3.4.9c-2.9,0-4.7-2-4.7-5.2s1.8-5.4,4.5-5.4,3.8,1.9,3.8,4.1a8.1,8.1,0,0,1-.1,1.6h-6.5c.1,1.7,1,3.5,3.3,3.5a5.5,5.5,0,0,0,2.6-.6Zm-1.4-5v-.7c0-1.5-.7-2.6-2.3-2.6s-2.6,1.7-2.7,3.3Z"/><path d="M469.8,195.2a2.7,2.7,0,0,1-1.3.3c-1.3,0-1.7-.9-1.7-2V180h1.6v13.3c0,.4.1.8.8.8h.3Z"/><path d="M484,195.3l-.5-.9a4.3,4.3,0,0,1-2.8,1.1c-2.6,0-4.4-2.1-4.4-5s2-5.6,4.9-5.6a5.7,5.7,0,0,1,2.3.5V180h1.6v15.3Zm-.5-8.5a4.2,4.2,0,0,0-2.1-.5c-2.1,0-3.3,1.5-3.3,4s1.2,3.8,2.9,3.8a3.8,3.8,0,0,0,2.5-1Z"/><path d="M489.4,183a1,1,0,0,1-1-1.1,1.1,1.1,0,0,1,1-1.1,1,1,0,0,1,1.1,1.1A1,1,0,0,1,489.4,183Zm2.1,12.2a2.5,2.5,0,0,1-1.2.3c-1.4,0-1.8-.9-1.8-2v-8.4h1.7v8.2c0,.4.1.8.7.8h.4Z"/><path d="M502,195.2a1.9,1.9,0,0,1-1.2.3,1.6,1.6,0,0,1-1.7-1.2,4.5,4.5,0,0,1-3.2,1.2,2.7,2.7,0,0,1-2.9-2.6c0-2.6,2.6-3.2,6.1-3.2,0-1.8-.1-3.4-2.3-3.4a6.7,6.7,0,0,0-2.7.6l-.4-1.3a8.1,8.1,0,0,1,3.3-.7c3.2,0,3.7,1.7,3.7,4.5v3.7c0,.7.1,1,.7,1h.4Zm-2.9-4.4c-2.7,0-4.4.4-4.4,1.9a1.5,1.5,0,0,0,1.6,1.5,3.9,3.9,0,0,0,2.8-1.1Zm-3.3-7.6,1.8-3h1.9l-2.4,3Z"/><path d="M507.2,195.2a2.7,2.7,0,0,1-1.3.3c-1.3,0-1.7-.9-1.7-2V180h1.6v13.3c0,.4.1.8.8.8h.3Z"/><path d="M513.5,184.9c3.3,0,4.7,2.4,4.7,5.3s-1.8,5.3-4.8,5.3-4.7-2.4-4.7-5.3S510.6,184.9,513.5,184.9Zm-.1,9.2c2.1,0,3.1-1.8,3.1-3.9s-1-3.9-3.1-3.9-3,1.8-3,3.9S511.4,194.1,513.4,194.1Z"/><path d="M527.2,186.4a2.5,2.5,0,0,1,.6,1.8,3.5,3.5,0,0,1-3.7,3.7h-.6a2,2,0,0,0-.4.8c0,.5.1.7,1.1.7,3.5,0,4.5,1.1,4.5,2.9s-1.7,3.5-4.6,3.5-3.9-1-3.9-2.9a2.7,2.7,0,0,1,2-2.5,1.4,1.4,0,0,1-.7-1.3v-.4l.9-1.1a3.3,3.3,0,0,1-1.8-3.1,3.4,3.4,0,0,1,3.5-3.5,5.2,5.2,0,0,1,1.9.3h3.6v1.3Zm-5.5,10.1c0,1,.8,1.8,2.5,1.8s2.9-.7,2.9-1.9-.6-1.6-2.9-1.6h-1A1.8,1.8,0,0,0,521.7,196.5Zm4.6-8.3a1.9,1.9,0,0,0-2.1-2,2,2,0,0,0-2.1,2.2,2.1,2.1,0,1,0,4.2-.2Z"/><path d="M535.3,184.9c3.3,0,4.7,2.4,4.7,5.3s-1.9,5.3-4.8,5.3-4.7-2.4-4.7-5.3S532.4,184.9,535.3,184.9Zm-.1,9.2c2.1,0,3.1-1.8,3.1-3.9s-1-3.9-3.1-3.9-3,1.8-3,3.9S533.1,194.1,535.2,194.1Z"/><path d="M546,185.1h1.9l3.2,8.4,2.8-8.4h1.7l-4.2,11.5a3.7,3.7,0,0,1-3.7,2.8,3,3,0,0,1-1.8-.5l.5-1.2a4.9,4.9,0,0,0,1.4.3c1.4,0,2-1.1,2.5-2.6Z"/><path d="M188.6,219.6a2.5,2.5,0,0,1-1.2.3c-1.4,0-1.8-.9-1.8-2.1V204.4h1.7v13.3c0,.4.1.8.7.8h.4Z"/><path d="M199.1,219.6a2.1,2.1,0,0,1-1.2.3,1.7,1.7,0,0,1-1.7-1.2,4.5,4.5,0,0,1-3.2,1.2,2.6,2.6,0,0,1-2.9-2.6c0-2.6,2.6-3.2,6-3.2,0-1.8,0-3.4-2.3-3.4a6.6,6.6,0,0,0-2.6.6l-.4-1.3a8.1,8.1,0,0,1,3.3-.7c3.2,0,3.7,1.7,3.7,4.5v3.7c0,.6.1,1,.7,1h.4Zm-3-4.4c-2.6,0-4.3.4-4.3,1.9a1.6,1.6,0,0,0,1.6,1.5,3.9,3.9,0,0,0,2.7-1.1Z"/><path d="M206.3,223.8V209.5h1.1l.5.9a4.3,4.3,0,0,1,2.8-1.1c2.7,0,4.4,2.2,4.4,5s-1.9,5.6-4.8,5.6a5.1,5.1,0,0,1-2.3-.5v4.4ZM208,218a4.2,4.2,0,0,0,2.1.5c2,0,3.3-1.5,3.3-4s-1.2-3.8-3-3.8a3.7,3.7,0,0,0-2.4,1Z"/><path d="M225.9,219.6a2.1,2.1,0,0,1-1.2.3,1.7,1.7,0,0,1-1.7-1.2,4.7,4.7,0,0,1-3.2,1.2,2.6,2.6,0,0,1-2.9-2.6c0-2.6,2.6-3.2,6-3.2,0-1.8,0-3.4-2.3-3.4a6.2,6.2,0,0,0-2.6.6l-.4-1.3a8.1,8.1,0,0,1,3.3-.7c3.2,0,3.7,1.7,3.7,4.5v3.7c0,.6.1,1,.7,1h.4Zm-3-4.4c-2.6,0-4.3.4-4.3,1.9a1.6,1.6,0,0,0,1.6,1.5,3.9,3.9,0,0,0,2.7-1.1Z"/><path d="M228.1,219.7V209.5h1l.5,1.4a3.8,3.8,0,0,1,3.1-1.6h.9l-.3,1.5h-.9a3.6,3.6,0,0,0-2.7,1.4v7.5Z"/><path d="M240.9,219.4a3.7,3.7,0,0,1-2,.5c-1.8,0-2.8-1.1-2.8-3.3v-5.9h-1.8v-1.2h1.8v-2.2l1.6-.4v2.6h3.2v1.2h-3.2v6c0,1.3.6,1.8,1.6,1.8a4.2,4.2,0,0,0,1.3-.3Z"/><path d="M244.1,207.4a1,1,0,0,1-1-1.1,1,1,0,0,1,1-1.1,1,1,0,0,1,1.1,1.1A1.1,1.1,0,0,1,244.1,207.4Zm2.1,12.2a2.7,2.7,0,0,1-1.3.3c-1.3,0-1.7-.9-1.7-2.1v-8.3h1.6v8.2c0,.4.1.8.7.8h.4Z"/><path d="M255.4,219.2a5.5,5.5,0,0,1-3,.7c-2.5,0-4.7-1.8-4.7-5.2s2.2-5.4,5.2-5.4a4.4,4.4,0,0,1,2.5.6l-.4,1.3a4.3,4.3,0,0,0-2.1-.5c-2.1,0-3.5,1.2-3.5,4s1.5,3.8,3.3,3.8a4,4,0,0,0,2.3-.6Z"/><path d="M258.4,207.4a1.1,1.1,0,0,1,0-2.2,1,1,0,0,1,1.1,1.1A1,1,0,0,1,258.4,207.4Zm2.1,12.2a2.5,2.5,0,0,1-1.2.3c-1.4,0-1.8-.9-1.8-2.1v-8.3h1.7v8.2c0,.4,0,.8.7.8h.3Z"/><path d="M262.8,223.8V209.5H264l.4.9a4.3,4.3,0,0,1,2.8-1.1c2.7,0,4.4,2.2,4.4,5s-1.9,5.6-4.8,5.6a5.1,5.1,0,0,1-2.3-.5v4.4Zm1.7-5.8a4.2,4.2,0,0,0,2.1.5c2,0,3.3-1.5,3.3-4s-1.2-3.8-3-3.8a3.7,3.7,0,0,0-2.4,1Z"/><path d="M282.4,219.6a2.1,2.1,0,0,1-1.2.3,1.7,1.7,0,0,1-1.7-1.2,4.5,4.5,0,0,1-3.2,1.2,2.6,2.6,0,0,1-2.9-2.6c0-2.6,2.6-3.2,6-3.2,0-1.8,0-3.4-2.3-3.4a6.6,6.6,0,0,0-2.6.6l-.4-1.3a8.1,8.1,0,0,1,3.3-.7c3.2,0,3.7,1.7,3.7,4.5v3.7c0,.6.1,1,.7,1h.4Zm-3-4.4c-2.6,0-4.3.4-4.3,1.9a1.6,1.6,0,0,0,1.6,1.5,3.9,3.9,0,0,0,2.7-1.1Z"/><path d="M291.5,219.2a5.5,5.5,0,0,1-3,.7c-2.5,0-4.7-1.8-4.7-5.2s2.2-5.4,5.2-5.4a4.4,4.4,0,0,1,2.5.6l-.5,1.3a3.7,3.7,0,0,0-2-.5c-2.1,0-3.5,1.2-3.5,4s1.5,3.8,3.3,3.8a4,4,0,0,0,2.3-.6Z"/><path d="M294.5,207.4a1.1,1.1,0,0,1,0-2.2,1,1,0,0,1,1.1,1.1A1,1,0,0,1,294.5,207.4Zm2.1,12.2a2.5,2.5,0,0,1-1.2.3c-1.4,0-1.8-.9-1.8-2.1v-8.3h1.7v8.2c0,.4,0,.8.7.8h.3Z"/><path d="M302.9,209.3c3.3,0,4.7,2.3,4.7,5.3s-1.8,5.3-4.8,5.3-4.7-2.4-4.7-5.3S300,209.3,302.9,209.3Zm0,9.2c2.1,0,3-1.8,3-3.9s-.9-3.9-3-3.9-3.1,1.8-3.1,3.9S300.8,218.5,302.9,218.5Zm-1.7-10.9,1.8-3h1.9l-2.4,3Z"/><path d="M316.7,219.7v-7c0-1.6-.9-2-2.1-2a4.9,4.9,0,0,0-2.7,1v8h-1.6V209.5h1l.6.9a5.5,5.5,0,0,1,3.1-1.1c2.6,0,3.3,1.5,3.3,3.4v7Z"/><path d="M333.5,219.2a5.5,5.5,0,0,1-3,.7c-2.5,0-4.7-1.8-4.7-5.2s2.2-5.4,5.2-5.4a4.4,4.4,0,0,1,2.5.6l-.4,1.3a4.3,4.3,0,0,0-2.1-.5c-2.1,0-3.5,1.2-3.5,4s1.6,3.8,3.3,3.8a4,4,0,0,0,2.3-.6Z"/><path d="M339.6,209.3c3.3,0,4.7,2.3,4.7,5.3s-1.8,5.3-4.8,5.3-4.7-2.4-4.7-5.3S336.7,209.3,339.6,209.3Zm0,9.2c2.1,0,3-1.8,3-3.9s-.9-3.9-3-3.9-3.1,1.8-3.1,3.9S337.5,218.5,339.6,218.5Z"/><path d="M359,219.7v-7c0-1.4-.7-2-2.1-2a3.5,3.5,0,0,0-2.3,1.1v7.9H353v-7a1.8,1.8,0,0,0-2-2,3.6,3.6,0,0,0-2.4,1.1v7.9H347V209.5h1l.6.9a4.2,4.2,0,0,1,2.7-1.1,3.1,3.1,0,0,1,2.9,1.3,5.2,5.2,0,0,1,3.1-1.3c2.3,0,3.3,1.2,3.3,3.4v7Z"/><path d="M367.9,209.3c3.2,0,4.7,2.3,4.7,5.3s-1.9,5.3-4.8,5.3-4.7-2.4-4.7-5.3S365,209.3,367.9,209.3Zm-.1,9.2c2.1,0,3.1-1.8,3.1-3.9s-1-3.9-3.1-3.9-3,1.8-3,3.9S365.7,218.5,367.8,218.5Z"/><path d="M392.2,219.7v-7a1.8,1.8,0,0,0-2-2,3.5,3.5,0,0,0-2.3,1.1v7.9h-1.7v-7c0-1.5-.7-2-2-2a3.5,3.5,0,0,0-2.3,1.1v7.9h-1.7V209.5h1l.6.9a4.6,4.6,0,0,1,2.8-1.1,3.1,3.1,0,0,1,2.9,1.3,5.2,5.2,0,0,1,3.1-1.3c2.3,0,3.3,1.2,3.3,3.4v7Z"/><path d="M404.5,219a5.5,5.5,0,0,1-3.4.9c-2.9,0-4.7-2-4.7-5.2s1.8-5.4,4.5-5.4,3.8,1.9,3.8,4.1a8.1,8.1,0,0,1-.1,1.6h-6.5c.1,1.7,1,3.5,3.3,3.5a4.5,4.5,0,0,0,2.6-.7Zm-1.4-5v-.7c0-1.5-.7-2.6-2.3-2.6s-2.6,1.7-2.7,3.3Z"/><path d="M414.3,219.2a5.5,5.5,0,0,1-3,.7c-2.5,0-4.7-1.8-4.7-5.2s2.2-5.4,5.2-5.4a4.4,4.4,0,0,1,2.5.6l-.4,1.3a4.3,4.3,0,0,0-2.1-.5c-2.1,0-3.5,1.2-3.5,4s1.6,3.8,3.3,3.8a4,4,0,0,0,2.3-.6Z"/><path d="M424.6,219.6a2.1,2.1,0,0,1-1.2.3,1.9,1.9,0,0,1-1.8-1.2,4.4,4.4,0,0,1-3.1,1.2,2.6,2.6,0,0,1-2.9-2.6c0-2.6,2.6-3.2,6-3.2,0-1.8,0-3.4-2.3-3.4a7.2,7.2,0,0,0-2.7.6l-.4-1.3a9.1,9.1,0,0,1,3.4-.7c3.1,0,3.7,1.7,3.7,4.5v3.7c0,.6.1,1,.7,1h.4Zm-3-4.4c-2.6,0-4.3.4-4.3,1.9a1.6,1.6,0,0,0,1.6,1.5,3.9,3.9,0,0,0,2.7-1.1Z"/><path d="M433.2,219.7v-7a1.7,1.7,0,0,0-2-2,5,5,0,0,0-2.8,1v8h-1.6V209.5h1l.6.9a5.5,5.5,0,0,1,3.1-1.1c2.6,0,3.3,1.5,3.3,3.4v7Z"/><path d="M439,207.4a1,1,0,0,1-1-1.1,1,1,0,0,1,1-1.1,1,1,0,0,1,1.1,1.1A1.1,1.1,0,0,1,439,207.4Zm2.1,12.2a2.7,2.7,0,0,1-1.3.3c-1.3,0-1.7-.9-1.7-2.1v-8.3h1.6v8.2c0,.4.1.8.7.8h.4Z"/><path d="M443.2,217.9a7.2,7.2,0,0,0,2.7.6c1.5,0,2.2-.7,2.2-1.5,0-2.5-5.1-1.2-5.1-4.7,0-1.9,1.4-3,3.6-3a8.2,8.2,0,0,1,2.8.5l-.5,1.3a7.1,7.1,0,0,0-2.3-.5c-1.4,0-2,.7-2,1.5,0,2.3,5.1,1.1,5.1,4.6,0,1.7-1.3,3.2-3.9,3.2a6.5,6.5,0,0,1-3.1-.7Z"/><path d="M464.3,219.7v-7a1.8,1.8,0,0,0-2-2,3.6,3.6,0,0,0-2.4,1.1v7.9h-1.6v-7c0-1.5-.7-2-2-2a3.9,3.9,0,0,0-2.4,1.1v7.9h-1.6V209.5h1l.6.9a4.2,4.2,0,0,1,2.7-1.1c1.9,0,2.6.8,2.9,1.3a5.2,5.2,0,0,1,3.1-1.3c2.3,0,3.3,1.2,3.3,3.4v7Z"/><path d="M473.2,209.3c3.3,0,4.7,2.3,4.7,5.3s-1.8,5.3-4.8,5.3-4.7-2.4-4.7-5.3S470.3,209.3,473.2,209.3Zm0,9.2c2,0,3-1.8,3-3.9s-1-3.9-3-3.9-3.1,1.8-3.1,3.9S471.1,218.5,473.2,218.5Z"/><path d="M480.4,217.9a6.6,6.6,0,0,0,2.6.6c1.6,0,2.2-.7,2.2-1.5,0-2.5-5.1-1.2-5.1-4.7,0-1.9,1.5-3,3.6-3a7.3,7.3,0,0,1,2.8.5l-.4,1.3a7.1,7.1,0,0,0-2.3-.5c-1.4,0-2.1.7-2.1,1.5,0,2.3,5.1,1.1,5.1,4.6,0,1.7-1.2,3.2-3.8,3.2a6.5,6.5,0,0,1-3.1-.7Z"/><path d="M185.6,248.2V233.9h1.2l.4.9a4.6,4.6,0,0,1,2.8-1.1c2.8,0,4.4,2.2,4.4,5s-1.9,5.6-4.8,5.6a5.7,5.7,0,0,1-2.3-.5v4.4Zm1.7-5.8a4.2,4.2,0,0,0,2.1.5c2.1,0,3.3-1.5,3.3-4s-1.2-3.8-3-3.8a3.7,3.7,0,0,0-2.4,1Z"/><path d="M197.1,244.1V233.9h1l.4,1.4a3.7,3.7,0,0,1,3.1-1.6h1l-.4,1.5h-.8a3.8,3.8,0,0,0-2.7,1.3v7.6Z"/><path d="M205.3,231.7a.9.9,0,0,1-1-1,1,1,0,0,1,1-1.1,1,1,0,0,1,1.1,1.1A1,1,0,0,1,205.3,231.7Zm2.1,12.3a2.7,2.7,0,0,1-1.3.3c-1.3,0-1.7-.9-1.7-2.1v-8.3H206v8.2c0,.4.1.8.8.8h.3Z"/><path d="M213.7,233.7c3.3,0,4.7,2.3,4.7,5.3s-1.8,5.3-4.8,5.3-4.7-2.4-4.7-5.3S210.8,233.7,213.7,233.7Zm-.1,9.2c2.1,0,3.1-1.8,3.1-3.9s-1-3.9-3.1-3.9-3,1.7-3,3.9S211.6,242.9,213.6,242.9Z"/><path d="M221,244.1V233.9h1l.5,1.4a3.6,3.6,0,0,1,3.1-1.6h.9l-.3,1.5h-.8a3.6,3.6,0,0,0-2.7,1.3v7.6Z"/><path d="M229.3,231.7a.9.9,0,0,1-1-1,1,1,0,0,1,1-1.1,1,1,0,0,1,1.1,1.1A1,1,0,0,1,229.3,231.7Zm2.1,12.3a2.7,2.7,0,0,1-1.3.3c-1.3,0-1.7-.9-1.7-2.1v-8.3H230v8.2c0,.4.1.8.7.8h.4Z"/><path d="M238.9,243.8a3.9,3.9,0,0,1-2,.5c-1.8,0-2.9-1.1-2.9-3.3v-5.9h-1.8v-1.2H234v-2.2l1.7-.4v2.6h3.2v1.2h-3.2v6c0,1.3.6,1.8,1.5,1.8a4.2,4.2,0,0,0,1.4-.3Z"/><path d="M249.3,244a3,3,0,0,1-1.2.3,1.7,1.7,0,0,1-1.7-1.2,4.5,4.5,0,0,1-3.2,1.2,2.7,2.7,0,0,1-2.9-2.6c0-2.7,2.6-3.2,6.1-3.2,0-1.9-.1-3.4-2.3-3.4a5.4,5.4,0,0,0-2.7.6l-.4-1.3a8.1,8.1,0,0,1,3.3-.7c3.2,0,3.7,1.7,3.7,4.5v3.7c0,.6.1,1,.7,1h.4Zm-2.9-4.4c-2.7,0-4.4.4-4.4,1.9a1.6,1.6,0,0,0,1.6,1.5,4.4,4.4,0,0,0,2.8-1.1Z"/><path d="M251.5,244.1V233.9h1l.5,1.4a3.6,3.6,0,0,1,3.1-1.6h.9l-.3,1.5h-.9a3.8,3.8,0,0,0-2.7,1.3v7.6Z"/><path d="M259.7,231.7a.9.9,0,0,1-1-1,1,1,0,0,1,1-1.1,1,1,0,0,1,1.1,1.1A1,1,0,0,1,259.7,231.7Zm2.1,12.3a2.5,2.5,0,0,1-1.2.3c-1.4,0-1.8-.9-1.8-2.1v-8.3h1.7v8.2c0,.4.1.8.7.8h.4Z"/><path d="M268.2,233.7c3.2,0,4.7,2.3,4.7,5.3s-1.9,5.3-4.9,5.3-4.7-2.4-4.7-5.3S265.2,233.7,268.2,233.7Zm-.1,9.2c2.1,0,3.1-1.8,3.1-3.9s-1-3.9-3.1-3.9-3.1,1.7-3.1,3.9S266,242.9,268.1,242.9Z"/><path d="M275.3,242.3a6.6,6.6,0,0,0,2.6.6c1.6,0,2.2-.7,2.2-1.5,0-2.5-5-1.2-5-4.8,0-1.8,1.4-2.9,3.6-2.9a5.6,5.6,0,0,1,2.7.5l-.4,1.3a7.1,7.1,0,0,0-2.3-.5c-1.4,0-2.1.7-2.1,1.5,0,2.3,5.2,1.1,5.2,4.6,0,1.7-1.3,3.2-3.9,3.2a6.5,6.5,0,0,1-3.1-.7Z"/><path d="M289.4,248.2V233.9h1.1l.5.9a4.3,4.3,0,0,1,2.8-1.1c2.7,0,4.4,2.2,4.4,5s-1.9,5.6-4.9,5.6a4.9,4.9,0,0,1-2.2-.5v4.4Zm1.7-5.8a4.2,4.2,0,0,0,2.1.5c2,0,3.3-1.5,3.3-4s-1.2-3.8-3-3.8a3.7,3.7,0,0,0-2.4,1Z"/><path d="M309,244a3.5,3.5,0,0,1-1.2.3,1.7,1.7,0,0,1-1.7-1.2,4.9,4.9,0,0,1-3.2,1.2,2.6,2.6,0,0,1-2.9-2.6c0-2.7,2.6-3.2,6-3.2,0-1.9,0-3.4-2.3-3.4a5,5,0,0,0-2.6.6l-.5-1.3a9.1,9.1,0,0,1,3.4-.7c3.2,0,3.7,1.7,3.7,4.5v3.7c0,.6.1,1,.7,1h.4Zm-3-4.4c-2.6,0-4.3.4-4.3,1.9a1.6,1.6,0,0,0,1.6,1.5,3.9,3.9,0,0,0,2.7-1.1Z"/><path d="M311.2,244.1V233.9h1l.5,1.4a3.4,3.4,0,0,1,3-1.6h1l-.3,1.5h-.9a3.8,3.8,0,0,0-2.7,1.3v7.6Z"/><path d="M326.1,244a3.5,3.5,0,0,1-1.2.3,1.8,1.8,0,0,1-1.8-1.2,4.4,4.4,0,0,1-3.1,1.2c-1.7,0-3-1-3-2.6s2.7-3.2,6.1-3.2c0-1.9,0-3.4-2.3-3.4a5.7,5.7,0,0,0-2.7.6l-.4-1.3a9.1,9.1,0,0,1,3.4-.7c3.1,0,3.7,1.7,3.7,4.5v3.7c0,.6,0,1,.7,1h.3Zm-3-4.4c-2.6,0-4.4.4-4.4,1.9a1.6,1.6,0,0,0,1.7,1.5,4.1,4.1,0,0,0,2.7-1.1Z"/><path d="M333.3,244.1V233.9h1l.5,1.4a3.4,3.4,0,0,1,3-1.6h1l-.3,1.5h-.9a3.8,3.8,0,0,0-2.7,1.3v7.6Z"/><path d="M347.5,243.4a5.4,5.4,0,0,1-3.3.9c-2.9,0-4.8-2-4.8-5.2s1.8-5.4,4.5-5.4,3.9,1.9,3.9,4.1a7.8,7.8,0,0,1-.2,1.6h-6.4a3.2,3.2,0,0,0,3.3,3.5,5,5,0,0,0,2.6-.7Zm-1.4-5a1.7,1.7,0,0,0,.1-.7c0-1.5-.7-2.6-2.3-2.6s-2.7,1.6-2.7,3.3Z"/><path d="M350.3,242.3a6.6,6.6,0,0,0,2.6.6c1.6,0,2.2-.7,2.2-1.5,0-2.5-5.1-1.2-5.1-4.8,0-1.8,1.4-2.9,3.6-2.9a5.8,5.8,0,0,1,2.8.5l-.4,1.3a7.1,7.1,0,0,0-2.3-.5c-1.4,0-2.1.7-2.1,1.5,0,2.3,5.1,1.1,5.1,4.6,0,1.7-1.2,3.2-3.9,3.2a6.3,6.3,0,0,1-3-.7Z"/><path d="M363.4,233.7c3.2,0,4.7,2.3,4.7,5.3s-1.9,5.3-4.8,5.3-4.7-2.4-4.7-5.3S360.4,233.7,363.4,233.7Zm-.1,9.2c2.1,0,3.1-1.8,3.1-3.9s-1-3.9-3.1-3.9-3.1,1.7-3.1,3.9S361.2,242.9,363.3,242.9Z"/><path d="M373.7,244a2.7,2.7,0,0,1-1.3.3c-1.3,0-1.7-.9-1.7-2.1V228.8h1.6v13.3c0,.4.1.8.8.8h.3Z"/><path d="M378.1,244.1l-3.7-10.2h1.7l3,8.7h0l3.1-8.7h1.6l-3.7,10.2Z"/><path d="M392.9,243.4a5.4,5.4,0,0,1-3.3.9c-3,0-4.8-2-4.8-5.2s1.8-5.4,4.5-5.4,3.8,1.9,3.8,4.1a8.1,8.1,0,0,1-.1,1.6h-6.5c.1,1.7,1,3.5,3.3,3.5a4.5,4.5,0,0,0,2.6-.7Zm-1.4-5v-.7c0-1.5-.7-2.6-2.3-2.6s-2.6,1.6-2.7,3.3Z"/><path d="M395.8,244.1V233.9h1l.5,1.4a3.6,3.6,0,0,1,3.1-1.6h.9l-.3,1.5h-.9a3.4,3.4,0,0,0-2.6,1.3v7.6Z"/><path d="M415.1,243.6a5.5,5.5,0,0,1-3,.7c-2.5,0-4.7-1.8-4.7-5.2s2.2-5.4,5.1-5.4a5.7,5.7,0,0,1,2.6.5l-.5,1.3a5.2,5.2,0,0,0-2.1-.4c-2,0-3.4,1.2-3.4,4s1.5,3.8,3.3,3.8a4.2,4.2,0,0,0,2.3-.6Z"/><path d="M421.2,233.7c3.3,0,4.7,2.3,4.7,5.3s-1.9,5.3-4.8,5.3-4.7-2.4-4.7-5.3S418.3,233.7,421.2,233.7Zm-.1,9.2c2.1,0,3.1-1.8,3.1-3.9s-1-3.9-3.1-3.9-3,1.7-3,3.9S419,242.9,421.1,242.9Z"/><path d="M434.9,244.1v-7c0-1.6-.8-2-2-2a4.9,4.9,0,0,0-2.7,1v8h-1.7V233.9h1l.6.9a5.8,5.8,0,0,1,3.2-1.1c2.6,0,3.3,1.4,3.3,3.4v7Z"/><path d="M449.3,244a2.5,2.5,0,0,1-1.2.3c-1.4,0-1.8-.9-1.8-2.1v-12a6.1,6.1,0,0,0-1.5-.2c-2.3,0-2.9,1.4-2.9,3.1v.8h2.9v1.2h-2.9v13.1h-1.6V235.1h-1.9v-1.2h1.9v-.3c0-2.5.8-5,4.5-5l1.5.2H448v13.1c0,.6,0,1,.7,1h.6Z"/><path d="M452.5,231.7a.9.9,0,0,1-1-1,1,1,0,0,1,1-1.1,1,1,0,0,1,1.1,1.1A1,1,0,0,1,452.5,231.7Zm2.1,12.3a2.5,2.5,0,0,1-1.2.3c-1.4,0-1.7-.9-1.7-2.1v-8.3h1.6v8.2c0,.4.1.8.7.8h.4Z"/><path d="M463.9,243.6a6,6,0,0,1-3,.7c-2.5,0-4.7-1.8-4.7-5.2s2.2-5.4,5.1-5.4a5.7,5.7,0,0,1,2.6.5l-.5,1.3a5.2,5.2,0,0,0-2.1-.4c-2,0-3.4,1.2-3.4,4s1.5,3.8,3.3,3.8a4.2,4.2,0,0,0,2.3-.6Z"/><path d="M471.5,243.8a3.9,3.9,0,0,1-2,.5c-1.8,0-2.9-1.1-2.9-3.3v-5.9h-1.8v-1.2h1.8v-2.2l1.7-.4v2.6h3.2v1.2h-3.2v6c0,1.3.6,1.8,1.5,1.8a4.2,4.2,0,0,0,1.4-.3Z"/><path d="M477.8,233.7c3.2,0,4.7,2.3,4.7,5.3s-1.9,5.3-4.9,5.3-4.6-2.4-4.6-5.3S474.8,233.7,477.8,233.7Zm-.1,9.2c2.1,0,3.1-1.8,3.1-3.9s-1-3.9-3.1-3.9-3.1,1.7-3.1,3.9S475.6,242.9,477.7,242.9Z"/><path d="M484.9,242.3a7.1,7.1,0,0,0,2.6.6c1.6,0,2.2-.7,2.2-1.5,0-2.5-5-1.2-5-4.8,0-1.8,1.4-2.9,3.6-2.9a5.6,5.6,0,0,1,2.7.5l-.4,1.3a7.1,7.1,0,0,0-2.3-.5c-1.4,0-2.1.7-2.1,1.5,0,2.3,5.2,1.1,5.2,4.6,0,1.7-1.3,3.2-3.9,3.2a6.5,6.5,0,0,1-3.1-.7Z"/><path d="M497.3,233.9h1.9l3.2,8.4,2.9-8.4H507l-4.2,11.5a3.8,3.8,0,0,1-3.7,2.8,3.9,3.9,0,0,1-1.8-.5l.5-1.2a4.2,4.2,0,0,0,1.3.3c1.5,0,2.1-1.1,2.6-2.6Z"/><path d="M192,259.5a3.8,3.8,0,0,1,.6,1.9,3.5,3.5,0,0,1-3.7,3.6h-.6c-.1,0-.4.6-.4.8s.1.7,1.1.7c3.5,0,4.5,1.1,4.5,2.9s-1.7,3.4-4.6,3.4-3.9-.9-3.9-2.9a2.6,2.6,0,0,1,2-2.4,1.5,1.5,0,0,1-.7-1.4v-.3l.9-1.1a3.3,3.3,0,0,1-1.8-3.1,3.3,3.3,0,0,1,3.5-3.5,5.2,5.2,0,0,1,1.9.3h3.6v1.2Zm-5.5,10.2c0,1,.8,1.8,2.5,1.8s2.9-.7,2.9-1.9-.7-1.7-2.9-1.7h-1A1.7,1.7,0,0,0,186.5,269.7Zm4.6-8.3a1.9,1.9,0,0,0-2.1-2.1,2.1,2.1,0,0,0-2.1,2.3,2,2,0,0,0,2.1,2.1A2.1,2.1,0,0,0,191.1,261.4Z"/><path d="M204.3,268.4a4.2,4.2,0,0,1-1.3.3,1.7,1.7,0,0,1-1.7-1.2,4.5,4.5,0,0,1-3.2,1.2,2.7,2.7,0,0,1-2.9-2.6c0-2.7,2.7-3.2,6.1-3.2,0-1.9,0-3.4-2.3-3.4a5.4,5.4,0,0,0-2.7.6l-.4-1.3a8.6,8.6,0,0,1,3.3-.7c3.2,0,3.7,1.7,3.7,4.5v3.7c0,.6.1,1,.7,1h.4Zm-3-4.5c-2.6,0-4.4.5-4.4,2a1.6,1.6,0,0,0,1.7,1.5,4.1,4.1,0,0,0,2.7-1.1Z"/><path d="M206.4,268.5V258.3h1l.5,1.4a3.6,3.6,0,0,1,3.1-1.6h.9l-.3,1.5h-.8a3.3,3.3,0,0,0-2.7,1.3v7.6Z"/><path d="M221.4,268.4a4.2,4.2,0,0,1-1.3.3,1.7,1.7,0,0,1-1.7-1.2,4.5,4.5,0,0,1-3.2,1.2,2.7,2.7,0,0,1-2.9-2.6c0-2.7,2.7-3.2,6.1-3.2,0-1.9-.1-3.4-2.3-3.4a5.4,5.4,0,0,0-2.7.6l-.4-1.3a8.1,8.1,0,0,1,3.3-.7c3.2,0,3.7,1.7,3.7,4.5v3.7c0,.6.1,1,.7,1h.4Zm-3-4.5c-2.7,0-4.4.5-4.4,2a1.6,1.6,0,0,0,1.6,1.5,4.4,4.4,0,0,0,2.8-1.1Z"/><path d="M229.9,268.5v-7a1.7,1.7,0,0,0-2-2,4.4,4.4,0,0,0-2.7,1v8h-1.7V258.3h1l.6.9a5.5,5.5,0,0,1,3.2-1.1c2.5,0,3.3,1.4,3.3,3.4v7Z"/><path d="M240,268.2a3.4,3.4,0,0,1-2,.5c-1.8,0-2.8-1.1-2.8-3.3v-5.9h-1.8v-1.2h1.8v-2.2l1.6-.4v2.6H240v1.2h-3.2v6c0,1.3.7,1.8,1.6,1.8a4.2,4.2,0,0,0,1.3-.3Z"/><path d="M243.2,256.1a.9.9,0,0,1-1-1,1,1,0,0,1,1-1.1,1,1,0,0,1,1.1,1.1A1,1,0,0,1,243.2,256.1Zm2.1,12.3a2.7,2.7,0,0,1-1.3.3c-1.3,0-1.7-.9-1.7-2.1v-8.3h1.6v8.2c0,.4.1.8.7.8h.4Z"/><path d="M246.6,268.5v-1.3l5.8-7.6h-5.8v-1.3h7.6v1.4l-5.8,7.4h5.9v1.4Z"/><path d="M265.1,268.4a4.2,4.2,0,0,1-1.3.3,1.7,1.7,0,0,1-1.7-1.2,4.5,4.5,0,0,1-3.2,1.2,2.7,2.7,0,0,1-2.9-2.6c0-2.7,2.7-3.2,6.1-3.2,0-1.9,0-3.4-2.3-3.4a5.4,5.4,0,0,0-2.7.6l-.4-1.3a8.6,8.6,0,0,1,3.3-.7c3.2,0,3.7,1.7,3.7,4.5v3.7c0,.6.1,1,.7,1h.4Zm-3-4.5c-2.6,0-4.4.5-4.4,2a1.6,1.6,0,0,0,1.7,1.5,4.1,4.1,0,0,0,2.7-1.1Z"/><path d="M267.2,268.5V258.3h1l.5,1.4a3.6,3.6,0,0,1,3.1-1.6h.9l-.3,1.5h-.8a3.3,3.3,0,0,0-2.7,1.3v7.6Z"/><path d="M282.6,268.4a2.7,2.7,0,0,1-1.3.3c-1.3,0-1.7-.9-1.7-2.1V253.2h1.6v13.3c0,.4.1.8.7.8h.4Z"/><path d="M288.9,258.1c3.2,0,4.7,2.3,4.7,5.3s-1.9,5.3-4.8,5.3-4.7-2.4-4.7-5.3S286,258.1,288.9,258.1Zm-.1,9.2c2.1,0,3.1-1.8,3.1-3.9s-1-3.9-3.1-3.9-3,1.7-3,3.9S286.7,267.3,288.8,267.3Z"/><path d="M296.1,266.7a6.2,6.2,0,0,0,2.6.6c1.6,0,2.2-.7,2.2-1.5,0-2.5-5.1-1.2-5.1-4.8,0-1.8,1.4-2.9,3.6-2.9a5.8,5.8,0,0,1,2.8.5l-.5,1.3a6.5,6.5,0,0,0-2.2-.5c-1.5,0-2.1.7-2.1,1.5,0,2.3,5.1,1.1,5.1,4.6,0,1.7-1.2,3.2-3.9,3.2a5.3,5.3,0,0,1-3-.8Z"/><path d="M317,268.5l-.4-1a4.4,4.4,0,0,1-2.8,1.2c-2.6,0-4.4-2.2-4.4-5.1s1.9-5.5,4.8-5.5a5.7,5.7,0,0,1,2.3.5v-5.4h1.7v15.3Zm-.5-8.5a4.2,4.2,0,0,0-2.1-.5c-2.1,0-3.3,1.5-3.3,3.9s1.2,3.9,3,3.9a3.7,3.7,0,0,0,2.4-1Z"/><path d="M328.9,267.8a5.4,5.4,0,0,1-3.3.9c-2.9,0-4.8-2-4.8-5.2s1.8-5.4,4.5-5.4,3.8,1.9,3.8,4.1a8.6,8.6,0,0,1-.1,1.6h-6.5c.1,1.7,1,3.5,3.4,3.5a5,5,0,0,0,2.6-.7Zm-1.4-5.1c0-.2.1-.4.1-.6a2.3,2.3,0,0,0-2.4-2.6c-1.8,0-2.6,1.6-2.6,3.2Z"/><path d="M331.8,268.5V258.3h1l.5,1.4a3.6,3.6,0,0,1,3.1-1.6h.9l-.3,1.5h-.8a3.3,3.3,0,0,0-2.7,1.3v7.6Z"/><path d="M346.1,267.8a5.5,5.5,0,0,1-3.4.9c-2.9,0-4.7-2-4.7-5.2s1.8-5.4,4.5-5.4,3.8,1.9,3.8,4.1a8.6,8.6,0,0,1-.1,1.6h-6.5c.1,1.7,1,3.5,3.3,3.5a4.5,4.5,0,0,0,2.6-.7Zm-1.4-5.1v-.6c0-1.5-.7-2.6-2.3-2.6s-2.6,1.6-2.7,3.2Z"/><path d="M355.9,268a5.5,5.5,0,0,1-3,.7c-2.5,0-4.7-1.8-4.7-5.2s2.2-5.4,5.2-5.4a5.5,5.5,0,0,1,2.5.5l-.4,1.3a6,6,0,0,0-2.1-.4c-2.1,0-3.5,1.2-3.5,4s1.6,3.8,3.3,3.8a4,4,0,0,0,2.3-.6Z"/><path d="M359.7,259.2a5.2,5.2,0,0,1,3.1-1.1c2.6,0,3.3,1.4,3.3,3.4v7h-1.7v-7c0-1.6-.8-2-2-2a4.4,4.4,0,0,0-2.7,1v8H358V253.2h1.7Z"/><path d="M373.4,258.1c3.2,0,4.7,2.3,4.7,5.3s-1.9,5.3-4.8,5.3-4.7-2.4-4.7-5.3S370.4,258.1,373.4,258.1Zm-.1,9.2c2.1,0,3.1-1.8,3.1-3.9s-1-3.9-3.1-3.9-3.1,1.7-3.1,3.9S371.2,267.3,373.3,267.3Z"/><path d="M380.5,266.7a7.2,7.2,0,0,0,2.7.6c1.5,0,2.1-.7,2.1-1.5,0-2.5-5-1.2-5-4.8,0-1.8,1.4-2.9,3.6-2.9a5.6,5.6,0,0,1,2.7.5l-.4,1.3a7.1,7.1,0,0,0-2.3-.5c-1.4,0-2,.7-2,1.5,0,2.3,5.1,1.1,5.1,4.6,0,1.7-1.3,3.2-3.9,3.2a5.4,5.4,0,0,1-3.1-.8Z"/><path d="M395.1,272.6V259.5h-1.9v-1.2h1.9v-.5c0-2.8,1.5-4.8,4.2-4.8a4.5,4.5,0,0,1,1.6.3l-.3,1.3a2.5,2.5,0,0,0-1.2-.2c-1.9,0-2.7,1.2-2.7,3.2v.7h2.9v1.2h-2.9v13.1Z"/><path d="M408,268.5l-.6-1a4.2,4.2,0,0,1-3,1.2c-2.4,0-3.3-1.7-3.3-3.6v-6.8h1.6v6.8a1.9,1.9,0,0,0,2.1,2.2,3.4,3.4,0,0,0,2.5-1.1v-7.9h1.6v10.2Z"/><path d="M418.8,268.5v-7a1.7,1.7,0,0,0-2-2,5,5,0,0,0-2.8,1v8h-1.6V258.3h1l.6.9a5.5,5.5,0,0,1,3.1-1.1c2.6,0,3.3,1.4,3.3,3.4v7Z"/><path d="M430.6,268.5l-.5-1a4.1,4.1,0,0,1-2.8,1.2c-2.6,0-4.4-2.2-4.4-5.1s1.9-5.5,4.9-5.5a4.9,4.9,0,0,1,2.2.5v-5.4h1.7v15.3ZM430,260a4.2,4.2,0,0,0-2.1-.5c-2,0-3.3,1.5-3.3,3.9s1.2,3.9,3,3.9a3.4,3.4,0,0,0,2.4-1Z"/><path d="M443.3,268.4a3.5,3.5,0,0,1-1.2.3,1.8,1.8,0,0,1-1.8-1.2,4.4,4.4,0,0,1-3.1,1.2,2.6,2.6,0,0,1-2.9-2.6c0-2.7,2.6-3.2,6-3.2,0-1.9,0-3.4-2.3-3.4a5.7,5.7,0,0,0-2.7.6l-.4-1.3a9.1,9.1,0,0,1,3.4-.7c3.1,0,3.7,1.7,3.7,4.5v3.7c0,.6,0,1,.7,1h.3Zm-3-4.5c-2.6,0-4.4.5-4.4,2a1.6,1.6,0,0,0,1.7,1.5,4.1,4.1,0,0,0,2.7-1.1Z"/><path d="M457.4,268.5v-7c0-1.4-.6-2-2-2a3.5,3.5,0,0,0-2.3,1.1v7.9h-1.6v-7c0-1.5-.8-2-2.1-2a3.5,3.5,0,0,0-2.3,1.1v7.9h-1.6V258.3h1l.6.9a4.2,4.2,0,0,1,2.7-1.1,3.1,3.1,0,0,1,2.9,1.3,5.2,5.2,0,0,1,3.1-1.3c2.3,0,3.3,1.2,3.3,3.4v7Z"/><path d="M469.7,267.8a5.5,5.5,0,0,1-3.4.9c-2.9,0-4.7-2-4.7-5.2s1.8-5.4,4.5-5.4,3.8,1.9,3.8,4.1a8.6,8.6,0,0,1-.1,1.6h-6.5c.1,1.7,1,3.5,3.3,3.5a4.5,4.5,0,0,0,2.6-.7Zm-1.4-5.1v-.6c0-1.5-.7-2.6-2.3-2.6s-2.6,1.6-2.7,3.2Z"/><path d="M479,268.5v-7a1.7,1.7,0,0,0-2-2,4.4,4.4,0,0,0-2.7,1v8h-1.7V258.3h1l.6.9a5.5,5.5,0,0,1,3.2-1.1c2.5,0,3.3,1.4,3.3,3.4v7Z"/><path d="M489.1,268.2a3.4,3.4,0,0,1-2,.5c-1.8,0-2.8-1.1-2.8-3.3v-5.9h-1.8v-1.2h1.8v-2.2l1.6-.4v2.6h3.2v1.2h-3.2v6c0,1.3.7,1.8,1.6,1.8a4.2,4.2,0,0,0,1.3-.3Z"/><path d="M499.6,268.4a3.5,3.5,0,0,1-1.3.3,1.7,1.7,0,0,1-1.7-1.2,4.5,4.5,0,0,1-3.2,1.2,2.7,2.7,0,0,1-2.9-2.6c0-2.7,2.7-3.2,6.1-3.2,0-1.9,0-3.4-2.3-3.4a5.4,5.4,0,0,0-2.7.6l-.4-1.3a8.6,8.6,0,0,1,3.3-.7c3.2,0,3.7,1.7,3.7,4.5v3.7c0,.6.1,1,.8,1h.3Zm-3-4.5c-2.6,0-4.4.5-4.4,2a1.6,1.6,0,0,0,1.7,1.5,4.1,4.1,0,0,0,2.7-1.1Z"/><path d="M504.7,268.4a2.5,2.5,0,0,1-1.2.3c-1.4,0-1.8-.9-1.8-2.1V253.2h1.7v13.3c0,.4.1.8.7.8h.4Z"/><path d="M514.4,267.8a5.5,5.5,0,0,1-3.4.9c-2.9,0-4.7-2-4.7-5.2s1.8-5.4,4.5-5.4,3.8,1.9,3.8,4.1a8.8,8.8,0,0,1-.2,1.6H508a3.2,3.2,0,0,0,3.3,3.5,4.5,4.5,0,0,0,2.6-.7Zm-1.4-5.1v-.6c0-1.5-.7-2.6-2.3-2.6s-2.6,1.6-2.7,3.2Z"/><path d="M517.1,266.7a7.1,7.1,0,0,0,2.6.6c1.6,0,2.2-.7,2.2-1.5,0-2.5-5-1.2-5-4.8,0-1.8,1.4-2.9,3.6-2.9a5.6,5.6,0,0,1,2.7.5l-.4,1.3a7.1,7.1,0,0,0-2.3-.5c-1.4,0-2.1.7-2.1,1.5,0,2.3,5.2,1.1,5.2,4.6,0,1.7-1.3,3.2-3.9,3.2a5.4,5.4,0,0,1-3.1-.8Z"/><path d="M527.1,268.7a1,1,0,0,1-1-1.1,1.1,1.1,0,0,1,2.1.1A1,1,0,0,1,527.1,268.7Z"/><path d="M536.1,266.5a5.3,5.3,0,0,0,2.9.8c1.8,0,3-.8,3-2.2,0-3.6-6.2-2.3-6.2-6.6,0-2.1,1.8-3.5,4.3-3.5a6.3,6.3,0,0,1,3.4.9l-.6,1.2a6,6,0,0,0-2.7-.7c-1.8,0-2.8.8-2.8,2,0,3.2,6.2,1.9,6.2,6.5,0,2.2-1.7,3.8-4.6,3.8a7,7,0,0,1-3.6-1Z"/><path d="M553.7,267.8a5.4,5.4,0,0,1-3.3.9c-2.9,0-4.8-2-4.8-5.2s1.8-5.4,4.5-5.4,3.8,1.9,3.8,4.1a8.6,8.6,0,0,1-.1,1.6h-6.5c.1,1.7,1,3.5,3.3,3.5a4.5,4.5,0,0,0,2.6-.7Zm-1.4-5.1c0-.2.1-.4.1-.6a2.3,2.3,0,0,0-2.4-2.6c-1.8,0-2.6,1.6-2.6,3.2Z"/><path d="M185.6,277.6h1.7v5.6a4.2,4.2,0,0,1,2.4-.8c2.7,0,4.5,1.9,4.5,5.1s-2.4,5.6-5.3,5.6a6.7,6.7,0,0,1-3.3-.9Zm1.7,13.7a3.9,3.9,0,0,0,1.8.4c2.5,0,3.3-2.1,3.3-4.1s-.7-3.7-3-3.7a4.2,4.2,0,0,0-2.1.7Z"/><path d="M203.6,292.9l-.6-1a4.4,4.4,0,0,1-2.9,1.2c-2.5,0-3.3-1.7-3.3-3.6v-6.9h1.6v6.9c0,1.6.9,2.2,2,2.2a3.7,3.7,0,0,0,2.6-1.1v-8h1.6v10.3Z"/><path d="M207.9,291.1a6.2,6.2,0,0,0,2.6.6c1.6,0,2.2-.7,2.2-1.6,0-2.4-5.1-1.1-5.1-4.7,0-1.8,1.4-3,3.6-3a5.5,5.5,0,0,1,2.8.6l-.5,1.3a4.8,4.8,0,0,0-2.2-.5c-1.5,0-2.1.7-2.1,1.5,0,2.3,5.1,1.1,5.1,4.6,0,1.7-1.2,3.2-3.9,3.2a6.3,6.3,0,0,1-3-.8Z"/><path d="M223.9,292.4a6,6,0,0,1-3,.7c-2.6,0-4.8-1.8-4.8-5.2s2.2-5.5,5.2-5.5a5.9,5.9,0,0,1,2.6.6l-.5,1.3a3.9,3.9,0,0,0-2.1-.4c-2,0-3.4,1.2-3.4,4s1.5,3.8,3.3,3.8a4.5,4.5,0,0,0,2.3-.6Z"/><path d="M234.2,292.8a4.2,4.2,0,0,1-1.3.3,1.7,1.7,0,0,1-1.7-1.2,4.5,4.5,0,0,1-3.2,1.2,2.7,2.7,0,0,1-2.9-2.6c0-2.7,2.7-3.2,6.1-3.2,0-1.9-.1-3.4-2.3-3.4a5.4,5.4,0,0,0-2.7.6l-.4-1.3a7.9,7.9,0,0,1,3.3-.8c3.2,0,3.7,1.8,3.7,4.6v3.7c0,.6.1,1,.7,1h.4Zm-3-4.5c-2.7,0-4.4.4-4.4,2a1.6,1.6,0,0,0,1.6,1.5,4.4,4.4,0,0,0,2.8-1.1Z"/><path d="M241.3,297V282.6h1.2l.4,1a4.4,4.4,0,0,1,2.8-1.2c2.8,0,4.4,2.3,4.4,5.1s-1.9,5.6-4.8,5.6a5.7,5.7,0,0,1-2.3-.5V297Zm1.7-5.8a4.2,4.2,0,0,0,2.1.5c2.1,0,3.3-1.5,3.3-4s-1.2-3.8-3-3.8a3.7,3.7,0,0,0-2.4,1Z"/><path d="M252.8,292.9V282.6h1l.4,1.4a3.8,3.8,0,0,1,3.1-1.6l.9.2-.3,1.5h-.8a3.3,3.3,0,0,0-2.7,1.3v7.6Z"/><path d="M263.7,282.4c3.2,0,4.7,2.4,4.7,5.4s-1.9,5.3-4.8,5.3-4.7-2.4-4.7-5.3S260.8,282.4,263.7,282.4Zm-.1,9.3c2.1,0,3.1-1.8,3.1-3.9s-1-3.9-3.1-3.9-3,1.7-3,3.9S261.5,291.7,263.6,291.7Z"/><path d="M271.5,297V283.8h-1.9v-1.2h1.9v-.4c0-2.8,1.5-4.8,4.2-4.8l1.6.2-.3,1.3h-1.2c-1.9,0-2.7,1.2-2.7,3.2v.6H276v1.2h-2.9V297Z"/><path d="M284.4,292.9l-.6-1a4.6,4.6,0,0,1-3,1.2c-2.4,0-3.3-1.7-3.3-3.6v-6.9h1.7v6.9c0,1.6.8,2.2,2,2.2a3.4,3.4,0,0,0,2.5-1.1v-8h1.7v10.3Z"/><path d="M295.2,292.9v-7a1.7,1.7,0,0,0-2-2,5,5,0,0,0-2.8,1v8h-1.6V282.6h1l.6,1a5.5,5.5,0,0,1,3.1-1.2c2.6,0,3.3,1.5,3.3,3.5v7Z"/><path d="M307,292.9l-.5-1a4.1,4.1,0,0,1-2.8,1.2c-2.6,0-4.4-2.2-4.4-5.1s2-5.6,4.9-5.6a4.9,4.9,0,0,1,2.3.6v-5.4h1.6v15.3Zm-.5-8.5a4.9,4.9,0,0,0-2.2-.5c-2,0-3.3,1.5-3.3,3.9s1.3,3.9,3,3.9a3.8,3.8,0,0,0,2.5-1Z"/><path d="M312.4,280.5a.9.9,0,0,1-1-1,1,1,0,0,1,1-1.1,1,1,0,0,1,1.1,1.1A1,1,0,0,1,312.4,280.5Zm2.1,12.3a2.5,2.5,0,0,1-1.2.3c-1.4,0-1.8-.9-1.8-2.1v-8.4h1.7v8.3c0,.4,0,.8.7.8h.3Z"/><path d="M315.8,292.9v-1.3l5.8-7.6h-5.7v-1.4h7.6v1.5l-5.9,7.4h5.9v1.4Z"/><path d="M334.3,292.8a3.5,3.5,0,0,1-1.2.3,1.9,1.9,0,0,1-1.8-1.2,4.4,4.4,0,0,1-3.1,1.2,2.6,2.6,0,0,1-2.9-2.6c0-2.7,2.6-3.2,6-3.2,0-1.9,0-3.4-2.3-3.4a5.7,5.7,0,0,0-2.7.6l-.4-1.3a8.9,8.9,0,0,1,3.4-.8c3.1,0,3.7,1.8,3.7,4.6v3.7c0,.6,0,1,.7,1h.3Zm-3-4.5c-2.6,0-4.4.4-4.4,2a1.6,1.6,0,0,0,1.7,1.5,4.1,4.1,0,0,0,2.7-1.1Z"/><path d="M336.5,292.9V282.6h1l.4,1.4a4,4,0,0,1,3.1-1.6l.9.2-.3,1.5h-.8a3.5,3.5,0,0,0-2.7,1.3v7.6Z"/><path d="M351.8,292.8a2.5,2.5,0,0,1-1.2.3c-1.4,0-1.8-.9-1.8-2.1V277.6h1.7v13.3c0,.4,0,.8.7.8h.3Z"/><path d="M362.3,292.8a3.5,3.5,0,0,1-1.2.3,1.9,1.9,0,0,1-1.8-1.2,4.4,4.4,0,0,1-3.1,1.2,2.6,2.6,0,0,1-2.9-2.6c0-2.7,2.6-3.2,6-3.2,0-1.9,0-3.4-2.3-3.4a5.7,5.7,0,0,0-2.7.6l-.4-1.3a8.9,8.9,0,0,1,3.4-.8c3.1,0,3.7,1.8,3.7,4.6v3.7c0,.6.1,1,.7,1h.4Zm-3-4.5c-2.6,0-4.3.4-4.3,2a1.6,1.6,0,0,0,1.6,1.5,3.9,3.9,0,0,0,2.7-1.1Z"/><path d="M376.4,292.9l-.5-1a4.1,4.1,0,0,1-2.8,1.2c-2.6,0-4.4-2.2-4.4-5.1s1.9-5.6,4.9-5.6a4.9,4.9,0,0,1,2.3.6v-5.4h1.6v15.3Zm-.5-8.5a4.9,4.9,0,0,0-2.2-.5c-2,0-3.3,1.5-3.3,3.9s1.2,3.9,3,3.9a3.8,3.8,0,0,0,2.5-1Z"/><path d="M388.3,292.2a6.9,6.9,0,0,1-3.4.9c-2.9,0-4.8-2-4.8-5.2s1.8-5.5,4.6-5.5,3.8,2,3.8,4.2a8.8,8.8,0,0,1-.2,1.6h-6.4a3.2,3.2,0,0,0,3.3,3.5,6.2,6.2,0,0,0,2.6-.7Zm-1.5-5.1a1.5,1.5,0,0,0,.1-.7c0-1.5-.7-2.5-2.3-2.5s-2.7,1.6-2.7,3.2Z"/><path d="M403.2,292.9v-7c0-1.4-.7-2-2.1-2a3.7,3.7,0,0,0-2.3,1v8h-1.6v-7c0-1.5-.8-2-2.1-2a3.7,3.7,0,0,0-2.3,1v8h-1.6V282.6h1l.6,1a4,4,0,0,1,2.7-1.2,3.2,3.2,0,0,1,2.9,1.4,5,5,0,0,1,3.1-1.4c2.3,0,3.3,1.3,3.3,3.5v7Z"/><path d="M412.1,282.4c3.2,0,4.7,2.4,4.7,5.4s-1.9,5.3-4.8,5.3-4.7-2.4-4.7-5.3S409.1,282.4,412.1,282.4Zm-.1,9.3c2.1,0,3.1-1.8,3.1-3.9s-1-3.9-3.1-3.9-3,1.7-3,3.9S409.9,291.7,412,291.7Z"/><path d="M426.3,292.4a5.5,5.5,0,0,1-3,.7c-2.5,0-4.7-1.8-4.7-5.2s2.2-5.5,5.2-5.5a5.4,5.4,0,0,1,2.5.6l-.4,1.3a4.4,4.4,0,0,0-2.1-.4c-2.1,0-3.5,1.2-3.5,4s1.6,3.8,3.3,3.8a4,4,0,0,0,2.3-.6Z"/><path d="M428.4,292.9V282.6h1l.5,1.4a3.8,3.8,0,0,1,3.1-1.6l.9.2-.3,1.5h-.8a3.3,3.3,0,0,0-2.7,1.3v7.6Z"/><path d="M443.4,292.8a4.2,4.2,0,0,1-1.3.3,1.7,1.7,0,0,1-1.7-1.2,4.5,4.5,0,0,1-3.2,1.2,2.7,2.7,0,0,1-2.9-2.6c0-2.7,2.7-3.2,6.1-3.2,0-1.9-.1-3.4-2.3-3.4a5.4,5.4,0,0,0-2.7.6l-.4-1.3a7.9,7.9,0,0,1,3.3-.8c3.2,0,3.7,1.8,3.7,4.6v3.7c0,.6.1,1,.7,1h.4Zm-3-4.5c-2.7,0-4.4.4-4.4,2a1.6,1.6,0,0,0,1.6,1.5,4.4,4.4,0,0,0,2.8-1.1Z"/><path d="M452.4,292.4a5.5,5.5,0,0,1-3,.7c-2.5,0-4.7-1.8-4.7-5.2s2.2-5.5,5.2-5.5a5.4,5.4,0,0,1,2.5.6l-.4,1.3a4.4,4.4,0,0,0-2.1-.4c-2.1,0-3.5,1.2-3.5,4s1.6,3.8,3.3,3.8a4,4,0,0,0,2.3-.6Z"/><path d="M455.4,280.5a.9.9,0,0,1-1-1,1,1,0,0,1,1-1.1,1,1,0,0,1,1.1,1.1A1,1,0,0,1,455.4,280.5Zm2.1,12.3a2.5,2.5,0,0,1-1.2.3c-1.4,0-1.8-.9-1.8-2.1v-8.4h1.7v8.3c0,.4.1.8.7.8h.4Z"/><path d="M468,292.8a3.5,3.5,0,0,1-1.2.3,1.7,1.7,0,0,1-1.7-1.2,4.5,4.5,0,0,1-3.2,1.2,2.6,2.6,0,0,1-2.9-2.6c0-2.7,2.6-3.2,6-3.2,0-1.9,0-3.4-2.3-3.4a5.3,5.3,0,0,0-2.6.6l-.4-1.3a7.9,7.9,0,0,1,3.3-.8c3.2,0,3.7,1.8,3.7,4.6v3.7c0,.6.1,1,.7,1h.4Zm-3-4.5c-2.6,0-4.3.4-4.3,2a1.6,1.6,0,0,0,1.6,1.5,3.9,3.9,0,0,0,2.7-1.1Z"/><path d="M475.2,297V282.6h1.1l.5,1a4.1,4.1,0,0,1,2.8-1.2c2.7,0,4.4,2.3,4.4,5.1s-1.9,5.6-4.8,5.6a5.1,5.1,0,0,1-2.3-.5V297Zm1.7-5.8a4.2,4.2,0,0,0,2.1.5c2,0,3.3-1.5,3.3-4s-1.2-3.8-3-3.8a3.7,3.7,0,0,0-2.4,1Z"/><path d="M494.8,292.8a3.5,3.5,0,0,1-1.2.3,1.7,1.7,0,0,1-1.7-1.2,4.9,4.9,0,0,1-3.2,1.2,2.6,2.6,0,0,1-2.9-2.6c0-2.7,2.6-3.2,6-3.2,0-1.9,0-3.4-2.3-3.4a5,5,0,0,0-2.6.6l-.5-1.3a8.9,8.9,0,0,1,3.4-.8c3.2,0,3.7,1.8,3.7,4.6v3.7c0,.6.1,1,.7,1h.4Zm-3-4.5c-2.6,0-4.3.4-4.3,2a1.6,1.6,0,0,0,1.6,1.5,3.9,3.9,0,0,0,2.7-1.1Z"/><path d="M497,292.9V282.6h1l.5,1.4a3.8,3.8,0,0,1,3.1-1.6l.9.2-.3,1.5h-.9a3.5,3.5,0,0,0-2.7,1.3v7.6Z"/><path d="M511.9,292.8a3.5,3.5,0,0,1-1.2.3,1.8,1.8,0,0,1-1.8-1.2,4.4,4.4,0,0,1-3.1,1.2,2.6,2.6,0,0,1-2.9-2.6c0-2.7,2.6-3.2,6-3.2,0-1.9,0-3.4-2.3-3.4a5.7,5.7,0,0,0-2.7.6l-.4-1.3a8.9,8.9,0,0,1,3.4-.8c3.1,0,3.7,1.8,3.7,4.6v3.7c0,.6,0,1,.7,1h.3Zm-3-4.5c-2.6,0-4.4.4-4.4,2a1.6,1.6,0,0,0,1.7,1.5,4.1,4.1,0,0,0,2.7-1.1Z"/><path d="M522.1,292.8a2.7,2.7,0,0,1-1.3.3c-1.3,0-1.7-.9-1.7-2.1V277.6h1.6v13.3c0,.4.1.8.7.8h.4Z"/><path d="M532.6,292.8a4.2,4.2,0,0,1-1.3.3,1.7,1.7,0,0,1-1.7-1.2,4.5,4.5,0,0,1-3.2,1.2,2.7,2.7,0,0,1-2.9-2.6c0-2.7,2.7-3.2,6.1-3.2,0-1.9,0-3.4-2.3-3.4a5.4,5.4,0,0,0-2.7.6l-.4-1.3a7.9,7.9,0,0,1,3.3-.8c3.2,0,3.7,1.8,3.7,4.6v3.7c0,.6.1,1,.7,1h.4Zm-3-4.5c-2.6,0-4.4.4-4.4,2a1.6,1.6,0,0,0,1.7,1.5,4.1,4.1,0,0,0,2.7-1.1Z"/><path d="M539.7,297V282.6h1.2l.4,1a4.5,4.5,0,0,1,2.9-1.2c2.7,0,4.3,2.3,4.3,5.1s-1.9,5.6-4.8,5.6a5.7,5.7,0,0,1-2.3-.5V297Zm1.7-5.8a4.2,4.2,0,0,0,2.1.5c2.1,0,3.3-1.5,3.3-4s-1.2-3.8-3-3.8a3.7,3.7,0,0,0-2.4,1Z"/><path d="M559.4,292.8a4.2,4.2,0,0,1-1.3.3,1.7,1.7,0,0,1-1.7-1.2,4.5,4.5,0,0,1-3.2,1.2,2.7,2.7,0,0,1-2.9-2.6c0-2.7,2.7-3.2,6.1-3.2,0-1.9-.1-3.4-2.3-3.4a5.4,5.4,0,0,0-2.7.6l-.4-1.3a7.9,7.9,0,0,1,3.3-.8c3.2,0,3.7,1.8,3.7,4.6v3.7c0,.6.1,1,.7,1h.4Zm-3-4.5c-2.7,0-4.4.4-4.4,2a1.6,1.6,0,0,0,1.6,1.5,4.4,4.4,0,0,0,2.8-1.1Z"/><path d="M560.7,292.9v-1.3l5.8-7.6h-5.8v-1.4h7.7v1.5l-5.8,7.4h5.9v1.4Z"/><path d="M193.8,317.2a3.5,3.5,0,0,1-1.2.3,1.7,1.7,0,0,1-1.7-1.2,4.5,4.5,0,0,1-3.2,1.2,2.6,2.6,0,0,1-2.9-2.6c0-2.7,2.6-3.2,6-3.2,0-1.9,0-3.4-2.3-3.4a5.3,5.3,0,0,0-2.6.6l-.4-1.3a6.6,6.6,0,0,1,3.3-.8c3.2,0,3.7,1.8,3.7,4.6V315c0,.7.1,1.1.7,1.1h.4Zm-3-4.5c-2.6,0-4.3.4-4.3,2a1.5,1.5,0,0,0,1.6,1.4,3.9,3.9,0,0,0,2.7-1Z"/><path d="M206.2,317a3.7,3.7,0,0,1-2,.5c-1.8,0-2.8-1.1-2.8-3.3v-6h-1.9V307h1.9v-2.2l1.6-.4V307h3.2v1.2H203v6.1c0,1.3.6,1.7,1.6,1.7l1.3-.2Z"/><path d="M208.5,317.3V307h1l.4,1.4a4,4,0,0,1,3.1-1.6l1,.2-.4,1.5h-.8a3.5,3.5,0,0,0-2.7,1.3v7.6Z"/><path d="M223.4,317.2a3.5,3.5,0,0,1-1.3.3,1.7,1.7,0,0,1-1.7-1.2,4.5,4.5,0,0,1-3.2,1.2,2.7,2.7,0,0,1-2.9-2.6c0-2.7,2.7-3.2,6.1-3.2,0-1.9,0-3.4-2.3-3.4a5.4,5.4,0,0,0-2.7.6l-.4-1.3a6.9,6.9,0,0,1,3.3-.8c3.2,0,3.7,1.8,3.7,4.6V315c0,.7.1,1.1.8,1.1h.3Zm-3-4.5c-2.6,0-4.4.4-4.4,2a1.6,1.6,0,0,0,1.7,1.4,4.1,4.1,0,0,0,2.7-1Z"/><path d="M227.6,317.3,223.9,307h1.8l2.9,8.8h.1l3-8.8h1.6l-3.7,10.3Z"/><path d="M242.5,316.6a6.9,6.9,0,0,1-3.4.9c-2.9,0-4.8-2-4.8-5.2s1.8-5.5,4.6-5.5,3.8,1.9,3.8,4.2a8.8,8.8,0,0,1-.2,1.6h-6.4a3.1,3.1,0,0,0,3.3,3.4,6.2,6.2,0,0,0,2.6-.6Zm-1.5-5.1a1.7,1.7,0,0,0,.1-.7c0-1.5-.7-2.5-2.3-2.5s-2.7,1.6-2.7,3.2Zm-3.8-6.3,1.9-3h1.8l-2.3,3Z"/><path d="M245.2,315.5a6.6,6.6,0,0,0,2.6.6c1.6,0,2.2-.7,2.2-1.6s-5.1-1.1-5.1-4.7c0-1.8,1.5-3,3.6-3a5.5,5.5,0,0,1,2.8.6l-.4,1.3a5.2,5.2,0,0,0-2.3-.5c-1.4,0-2.1.7-2.1,1.5,0,2.3,5.1,1.1,5.1,4.6,0,1.7-1.2,3.2-3.8,3.2a6.4,6.4,0,0,1-3.1-.8Z"/><path d="M266.2,317.3l-.5-1a4.1,4.1,0,0,1-2.8,1.2c-2.6,0-4.4-2.2-4.4-5.1s1.9-5.6,4.8-5.6a5.1,5.1,0,0,1,2.3.5V302h1.7v15.3Zm-.6-8.5a4.2,4.2,0,0,0-2.1-.5c-2,0-3.3,1.5-3.3,3.9s1.2,3.8,3,3.8a3.7,3.7,0,0,0,2.4-1Z"/><path d="M278,316.6a6.2,6.2,0,0,1-3.3.9c-2.9,0-4.8-2-4.8-5.2s1.8-5.5,4.5-5.5,3.9,1.9,3.9,4.2a8.8,8.8,0,0,1-.2,1.6h-6.4A3.1,3.1,0,0,0,275,316a6.2,6.2,0,0,0,2.6-.6Zm-1.4-5.1a1.7,1.7,0,0,0,.1-.7c0-1.5-.7-2.5-2.3-2.5s-2.7,1.6-2.7,3.2Z"/><path d="M289,317.2a2.7,2.7,0,0,1-1.3.3c-1.3,0-1.7-.9-1.7-2.1V302h1.6v13.3c0,.4.1.8.7.8h.4Z"/><path d="M299.5,317.2a4.2,4.2,0,0,1-1.3.3,1.7,1.7,0,0,1-1.7-1.2,4.5,4.5,0,0,1-3.2,1.2,2.7,2.7,0,0,1-2.9-2.6c0-2.7,2.7-3.2,6.1-3.2,0-1.9,0-3.4-2.3-3.4a5.4,5.4,0,0,0-2.7.6l-.4-1.3a6.6,6.6,0,0,1,3.3-.8c3.2,0,3.7,1.8,3.7,4.6V315c0,.7.1,1.1.7,1.1h.4Zm-3-4.5c-2.6,0-4.4.4-4.4,2a1.5,1.5,0,0,0,1.7,1.4,4.1,4.1,0,0,0,2.7-1Z"/><path d="M314,316.6a6.3,6.3,0,0,1-3.4.9c-2.9,0-4.7-2-4.7-5.2s1.8-5.5,4.5-5.5,3.8,1.9,3.8,4.2a8.8,8.8,0,0,1-.2,1.6h-6.4a3.2,3.2,0,0,0,3.3,3.4,5.9,5.9,0,0,0,2.6-.6Zm-1.4-5.1v-.7c0-1.5-.7-2.5-2.3-2.5s-2.6,1.6-2.7,3.2Z"/><path d="M322.5,317.3l-2.5-4.2h0l-2.6,4.2h-1.8l3.6-5.4-3.4-4.9h2l2.3,3.8h.1l2.3-3.8h1.9l-3.4,5,3.6,5.3Z"/><path d="M333.4,316.8a5.5,5.5,0,0,1-3,.7c-2.5,0-4.7-1.8-4.7-5.2s2.2-5.5,5.2-5.5a5.4,5.4,0,0,1,2.5.6l-.5,1.3a3.7,3.7,0,0,0-2-.4c-2.1,0-3.5,1.2-3.5,4s1.5,3.7,3.3,3.7a4.4,4.4,0,0,0,2.3-.5Z"/><path d="M338.5,317.2a2.5,2.5,0,0,1-1.2.3c-1.4,0-1.8-.9-1.8-2.1V302h1.7v13.3c0,.4,0,.8.7.8h.3Z"/><path d="M347.7,317.3l-.6-1a4.6,4.6,0,0,1-3,1.2c-2.4,0-3.3-1.7-3.3-3.7V307h1.7v6.8c0,1.7.8,2.2,2,2.2a3.4,3.4,0,0,0,2.5-1v-8h1.7v10.3Z"/><path d="M351.9,315.5a6.6,6.6,0,0,0,2.6.6c1.6,0,2.2-.7,2.2-1.6s-5.1-1.1-5.1-4.7c0-1.8,1.5-3,3.7-3a5.4,5.4,0,0,1,2.7.6l-.4,1.3a5.2,5.2,0,0,0-2.3-.5c-1.4,0-2.1.7-2.1,1.5,0,2.3,5.2,1.1,5.2,4.6,0,1.7-1.3,3.2-3.9,3.2a6.4,6.4,0,0,1-3.1-.8Z"/><path d="M361.9,304.9a1,1,0,0,1-1-1.1.9.9,0,0,1,1-1,1,1,0,0,1,1,1.1A1,1,0,0,1,361.9,304.9Zm2.1,12.3a2.7,2.7,0,0,1-1.3.3c-1.3,0-1.7-.9-1.7-2.1V307h1.6v8.3c0,.4.1.8.7.8h.4Z"/><path d="M370.3,306.8c3.2,0,4.7,2.4,4.7,5.4s-1.9,5.3-4.8,5.3-4.7-2.4-4.7-5.3S367.4,306.8,370.3,306.8Zm-.1,9.2c2.1,0,3.1-1.7,3.1-3.8s-1-3.9-3.1-3.9-3,1.7-3,3.9S368.1,316,370.2,316Zm-1.7-10.8,1.9-3h1.8l-2.3,3Z"/><path d="M384,317.3v-7c0-1.7-.8-2-2-2a4.4,4.4,0,0,0-2.7,1v8h-1.7V307h1l.6,1a5.5,5.5,0,0,1,3.2-1.2c2.6,0,3.3,1.5,3.3,3.5v7Z"/><path d="M400.8,317.3l-.4-1a4.1,4.1,0,0,1-2.8,1.2c-2.6,0-4.4-2.2-4.4-5.1s1.9-5.6,4.8-5.6a5.1,5.1,0,0,1,2.3.5V302H402v15.3Zm-.5-8.5a4.2,4.2,0,0,0-2.1-.5c-2.1,0-3.3,1.5-3.3,3.9s1.2,3.8,3,3.8a3.7,3.7,0,0,0,2.4-1Z"/><path d="M412.7,316.6a6.2,6.2,0,0,1-3.3.9c-2.9,0-4.8-2-4.8-5.2s1.8-5.5,4.5-5.5,3.8,1.9,3.8,4.2a8.6,8.6,0,0,1-.1,1.6h-6.5c.1,1.7,1,3.4,3.4,3.4a6.2,6.2,0,0,0,2.6-.6Zm-1.4-5.1c0-.2.1-.5.1-.7a2.2,2.2,0,0,0-2.4-2.5c-1.8,0-2.6,1.6-2.6,3.2Z"/><path d="M425.1,317.2a3.1,3.1,0,0,1-1.2.3c-1.7,0-1.8-1.2-1.8-2.4v-6.9h-4.4v13.2h-1.6V308.2h-1.9V307h1.9c0-3.1,1.1-5.2,4.7-5.2a9.6,9.6,0,0,1,3.1.5v1.3a11,11,0,0,0-2.9-.4c-2.5,0-3.2,1.2-3.2,3.5v.3h6.1v8.4c0,.6.3.7.7.7h.5Z"/><path d="M433.8,317.3v-7c0-1.7-.8-2-2-2a4.4,4.4,0,0,0-2.7,1v8h-1.7V307h1l.6,1a5.5,5.5,0,0,1,3.2-1.2c2.6,0,3.3,1.5,3.3,3.5v7Z"/><path d="M439.6,304.9a1,1,0,0,1-1-1.1,1.1,1.1,0,0,1,2.1.1A1,1,0,0,1,439.6,304.9Zm2.1,12.3a2.5,2.5,0,0,1-1.2.3c-1.4,0-1.8-.9-1.8-2.1V307h1.7v8.3c0,.4.1.8.7.8h.4Z"/><path d="M449.3,317a4.1,4.1,0,0,1-2.1.5c-1.8,0-2.8-1.1-2.8-3.3v-6h-1.8V307h1.8v-2.2l1.6-.4V307h3.2v1.2H446v6.1c0,1.3.7,1.7,1.6,1.7l1.3-.2Z"/><path d="M452.4,304.9a1,1,0,0,1-1-1.1,1.1,1.1,0,0,1,2.1.1A1,1,0,0,1,452.4,304.9Zm2.1,12.3a2.5,2.5,0,0,1-1.2.3c-1.4,0-1.8-.9-1.8-2.1V307h1.7v8.3c0,.4,0,.8.7.8s.3,0,.3-.1Z"/><path d="M458.9,317.3,455.2,307h1.7l3,8.8h.1l3-8.8h1.6l-3.7,10.3Z"/><path d="M474.6,317.2a4.2,4.2,0,0,1-1.3.3,1.7,1.7,0,0,1-1.7-1.2,4.5,4.5,0,0,1-3.2,1.2,2.7,2.7,0,0,1-2.9-2.6c0-2.7,2.7-3.2,6.1-3.2,0-1.9,0-3.4-2.3-3.4a5.4,5.4,0,0,0-2.7.6l-.4-1.3a6.9,6.9,0,0,1,3.3-.8c3.2,0,3.7,1.8,3.7,4.6V315c0,.7.1,1.1.7,1.1h.4Zm-3-4.5c-2.6,0-4.4.4-4.4,2a1.6,1.6,0,0,0,1.7,1.4,4.1,4.1,0,0,0,2.7-1Z"/><path d="M488.6,317.3l-.4-1a4.4,4.4,0,0,1-2.8,1.2c-2.6,0-4.4-2.2-4.4-5.1s1.9-5.6,4.8-5.6a5.7,5.7,0,0,1,2.3.5V302h1.7v15.3Zm-.5-8.5a4.2,4.2,0,0,0-2.1-.5c-2.1,0-3.3,1.5-3.3,3.9s1.2,3.8,3,3.8a3.7,3.7,0,0,0,2.4-1Z"/><path d="M500.5,316.6a6.2,6.2,0,0,1-3.3.9c-2.9,0-4.8-2-4.8-5.2s1.8-5.5,4.5-5.5,3.8,1.9,3.8,4.2a8.6,8.6,0,0,1-.1,1.6h-6.5c.1,1.7,1,3.4,3.3,3.4a5.5,5.5,0,0,0,2.6-.6Zm-1.4-5.1c0-.2.1-.5.1-.7a2.2,2.2,0,0,0-2.4-2.5c-1.8,0-2.6,1.6-2.6,3.2Z"/><path d="M511.4,317.2a2.5,2.5,0,0,1-1.2.3c-1.4,0-1.8-.9-1.8-2.1V302h1.7v13.3c0,.4.1.8.7.8h.4Z"/><path d="M521.9,317.2a3,3,0,0,1-1.2.3,1.7,1.7,0,0,1-1.7-1.2,4.5,4.5,0,0,1-3.2,1.2,2.7,2.7,0,0,1-2.9-2.6c0-2.7,2.6-3.2,6.1-3.2,0-1.9-.1-3.4-2.3-3.4a5.4,5.4,0,0,0-2.7.6l-.4-1.3a6.6,6.6,0,0,1,3.3-.8c3.2,0,3.7,1.8,3.7,4.6V315c0,.7.1,1.1.7,1.1h.4Zm-2.9-4.5c-2.7,0-4.4.4-4.4,2a1.5,1.5,0,0,0,1.6,1.4,4.3,4.3,0,0,0,2.8-1Z"/><path d="M523.9,315.5a7.2,7.2,0,0,0,2.7.6c1.5,0,2.1-.7,2.1-1.6s-5-1.1-5-4.7c0-1.8,1.4-3,3.6-3a5.4,5.4,0,0,1,2.7.6l-.4,1.3a5.2,5.2,0,0,0-2.3-.5c-1.4,0-2,.7-2,1.5,0,2.3,5.1,1.1,5.1,4.6,0,1.7-1.3,3.2-3.9,3.2a6.4,6.4,0,0,1-3.1-.8Z"/><path d="M193.8,341.6a3.5,3.5,0,0,1-1.2.3,1.7,1.7,0,0,1-1.7-1.2,4.5,4.5,0,0,1-3.2,1.2,2.6,2.6,0,0,1-2.9-2.6c0-2.7,2.6-3.3,6-3.3,0-1.8,0-3.3-2.3-3.3a5.3,5.3,0,0,0-2.6.6l-.4-1.3a6.6,6.6,0,0,1,3.3-.8c3.2,0,3.7,1.8,3.7,4.6v3.6c0,.7.1,1.1.7,1.1h.4Zm-3-4.5c-2.6,0-4.3.4-4.3,2a1.5,1.5,0,0,0,1.6,1.4,3.9,3.9,0,0,0,2.7-1Z"/><path d="M196,341.7V331.4h1l.5,1.4a3.8,3.8,0,0,1,3.1-1.6l.9.2-.3,1.5h-.9a3.5,3.5,0,0,0-2.7,1.3v7.6Z"/><path d="M215.3,341.7v-7a1.8,1.8,0,0,0-2-2,3.7,3.7,0,0,0-2.3,1v8h-1.7v-7c0-1.5-.7-2-2-2a3.7,3.7,0,0,0-2.3,1v8h-1.7V331.4h1l.6,1a4.1,4.1,0,0,1,2.8-1.2,3,3,0,0,1,2.8,1.4,5.5,5.5,0,0,1,3.2-1.4c2.2,0,3.3,1.3,3.3,3.5v7Z"/><path d="M228.4,341.6a3.5,3.5,0,0,1-1.2.3,1.7,1.7,0,0,1-1.7-1.2,4.7,4.7,0,0,1-3.2,1.2,2.6,2.6,0,0,1-2.9-2.6c0-2.7,2.6-3.3,6-3.3,0-1.8,0-3.3-2.3-3.3a5,5,0,0,0-2.6.6l-.4-1.3a6.6,6.6,0,0,1,3.3-.8c3.2,0,3.7,1.8,3.7,4.6v3.6c0,.7.1,1.1.7,1.1h.4Zm-3-4.5c-2.6,0-4.3.4-4.3,2a1.5,1.5,0,0,0,1.6,1.4,3.9,3.9,0,0,0,2.7-1Z"/><path d="M230.4,339.9a6.6,6.6,0,0,0,2.6.6c1.6,0,2.2-.7,2.2-1.6s-5-1.1-5-4.7c0-1.8,1.4-3,3.6-3a5.4,5.4,0,0,1,2.7.6l-.4,1.3a5.2,5.2,0,0,0-2.3-.5c-1.4,0-2.1.7-2.1,1.5s5.2,1.1,5.2,4.6c0,1.7-1.3,3.2-3.9,3.2a6.4,6.4,0,0,1-3.1-.8Z"/><path d="M251.4,341.7l-.5-1a4.1,4.1,0,0,1-2.8,1.2c-2.6,0-4.4-2.2-4.4-5.1s2-5.6,4.9-5.6a5.7,5.7,0,0,1,2.3.5v-5.3h1.6v15.3Zm-.5-8.5a4.9,4.9,0,0,0-2.2-.5c-2,0-3.3,1.5-3.3,3.9s1.3,3.8,3,3.8a3.8,3.8,0,0,0,2.5-1Z"/><path d="M263.3,341a6.6,6.6,0,0,1-3.4.9c-2.9,0-4.8-2-4.8-5.2s1.8-5.5,4.6-5.5,3.8,1.9,3.8,4.2a8.8,8.8,0,0,1-.2,1.6h-6.4a3.1,3.1,0,0,0,3.3,3.4,6.2,6.2,0,0,0,2.6-.6Zm-1.4-5.1v-.7c0-1.5-.7-2.5-2.3-2.5s-2.7,1.6-2.7,3.2Z"/><path d="M274.2,341.6a2.7,2.7,0,0,1-1.3.3c-1.3,0-1.7-.9-1.7-2.1V326.4h1.6v13.2c0,.5.1.9.8.9h.3Z"/><path d="M284.7,341.6a3.5,3.5,0,0,1-1.3.3,1.7,1.7,0,0,1-1.7-1.2,4.4,4.4,0,0,1-3.1,1.2c-1.7,0-3-1-3-2.6s2.7-3.3,6.1-3.3c0-1.8,0-3.3-2.3-3.3a5.4,5.4,0,0,0-2.7.6l-.4-1.3a6.9,6.9,0,0,1,3.3-.8c3.2,0,3.7,1.8,3.7,4.6v3.6c0,.7.1,1.1.8,1.1h.3Zm-3-4.5c-2.6,0-4.4.4-4.4,2a1.6,1.6,0,0,0,1.7,1.4,4.1,4.1,0,0,0,2.7-1Z"/><path d="M291.9,345.8V331.4H293l.5,1a4.1,4.1,0,0,1,2.8-1.2c2.7,0,4.4,2.2,4.4,5.1s-2,5.6-4.9,5.6a5.7,5.7,0,0,1-2.3-.5v4.4Zm1.6-5.9a4.2,4.2,0,0,0,2.1.5c2.1,0,3.3-1.4,3.3-3.9s-1.2-3.8-2.9-3.8a3.8,3.8,0,0,0-2.5,1Z"/><path d="M307.3,331.2c3.2,0,4.7,2.4,4.7,5.4s-1.9,5.3-4.8,5.3-4.7-2.4-4.7-5.3S304.4,331.2,307.3,331.2Zm-.1,9.2c2.1,0,3.1-1.7,3.1-3.8s-1-3.9-3.1-3.9-3,1.7-3,3.9S305.1,340.4,307.2,340.4Z"/><path d="M317.6,341.6a2.5,2.5,0,0,1-1.2.3c-1.4,0-1.8-.9-1.8-2.1V326.4h1.7v13.2c0,.5.1.9.7.9h.4Z"/><path d="M319.8,329.6l1.8-3h1.9l-2.4,3Zm3.1,12a2.5,2.5,0,0,1-1.2.3c-1.4,0-1.8-.9-1.8-2.1v-8.4h1.7v8.2c0,.5.1.9.7.9h.4Z"/><path d="M330.4,341.4a3.4,3.4,0,0,1-2,.5c-1.8,0-2.8-1.1-2.8-3.3v-6h-1.8v-1.2h1.8v-2.2l1.6-.4v2.6h3.2v1.2h-3.2v6.1a1.5,1.5,0,0,0,1.6,1.7l1.3-.2Z"/><path d="M333.6,329.3a1,1,0,0,1-1-1.1.9.9,0,0,1,1-1,1,1,0,0,1,1.1,1.1A1.1,1.1,0,0,1,333.6,329.3Zm2.1,12.3a2.7,2.7,0,0,1-1.3.3c-1.3,0-1.7-.9-1.7-2.1v-8.4h1.6v8.2c0,.5.1.9.8.9h.3Z"/><path d="M344.9,341.1a4.7,4.7,0,0,1-3,.8c-2.5,0-4.7-1.8-4.7-5.2s2.2-5.5,5.2-5.5a5.4,5.4,0,0,1,2.5.6l-.4,1.3a4.4,4.4,0,0,0-2.1-.4c-2.1,0-3.5,1.2-3.5,4s1.6,3.7,3.3,3.7a4.1,4.1,0,0,0,2.3-.5Z"/><path d="M355.2,341.6a3.5,3.5,0,0,1-1.2.3,1.7,1.7,0,0,1-1.7-1.2,4.9,4.9,0,0,1-3.2,1.2,2.6,2.6,0,0,1-2.9-2.6c0-2.7,2.6-3.3,6-3.3,0-1.8,0-3.3-2.3-3.3a5,5,0,0,0-2.6.6l-.5-1.3a7.4,7.4,0,0,1,3.4-.8c3.2,0,3.7,1.8,3.7,4.6v3.6c0,.7.1,1.1.7,1.1h.4Zm-3-4.5c-2.6,0-4.3.4-4.3,2a1.5,1.5,0,0,0,1.6,1.4,3.9,3.9,0,0,0,2.7-1Z"/><path d="M357.7,344.5a3.7,3.7,0,0,0,1-2.4,1.6,1.6,0,0,0-1.1-1.6s.2-1.1,1.2-1.1,1.4.8,1.4,1.8a5.4,5.4,0,0,1-1.7,3.8Z"/><path d="M371.3,341.6a2.5,2.5,0,0,1-1.2.3c-1.4,0-1.7-.9-1.7-2.1V326.4H370v13.2c0,.5.1.9.7.9h.4Z"/><path d="M381.8,341.6a3,3,0,0,1-1.2.3,1.7,1.7,0,0,1-1.7-1.2,4.5,4.5,0,0,1-3.2,1.2,2.7,2.7,0,0,1-2.9-2.6c0-2.7,2.6-3.3,6.1-3.3,0-1.8-.1-3.3-2.3-3.3a5.4,5.4,0,0,0-2.7.6l-.4-1.3a6.6,6.6,0,0,1,3.3-.8c3.2,0,3.7,1.8,3.7,4.6v3.6c0,.7.1,1.1.7,1.1h.4Zm-2.9-4.5c-2.7,0-4.4.4-4.4,2a1.5,1.5,0,0,0,1.6,1.4,4.3,4.3,0,0,0,2.8-1Z"/><path d="M388.8,339.9a7.2,7.2,0,0,0,2.7.6c1.6,0,2.2-.7,2.2-1.6s-5.1-1.1-5.1-4.7c0-1.8,1.4-3,3.6-3a5.5,5.5,0,0,1,2.8.6l-.5,1.3a4.8,4.8,0,0,0-2.2-.5c-1.5,0-2.1.7-2.1,1.5s5.1,1.1,5.1,4.6c0,1.7-1.2,3.2-3.9,3.2a6,6,0,0,1-3-.8Z"/><path d="M404.8,341.7l-.6-1a4.6,4.6,0,0,1-3,1.2c-2.4,0-3.3-1.7-3.3-3.7v-6.8h1.7v6.8c0,1.7.8,2.2,2,2.2a3.8,3.8,0,0,0,2.5-1v-8h1.7v10.3Z"/><path d="M409.2,345.8V331.4h1.1l.5,1a4.1,4.1,0,0,1,2.8-1.2c2.7,0,4.4,2.2,4.4,5.1s-2,5.6-4.9,5.6a5.7,5.7,0,0,1-2.3-.5v4.4Zm1.6-5.9a4.9,4.9,0,0,0,2.2.5c2,0,3.3-1.4,3.3-3.9s-1.3-3.8-3-3.8a4.2,4.2,0,0,0-2.5,1Z"/><path d="M427.9,341a6.2,6.2,0,0,1-3.3.9c-2.9,0-4.8-2-4.8-5.2s1.8-5.5,4.5-5.5,3.9,1.9,3.9,4.2a8.8,8.8,0,0,1-.2,1.6h-6.4a3.1,3.1,0,0,0,3.3,3.4,6.2,6.2,0,0,0,2.6-.6Zm-1.4-5.1a1.7,1.7,0,0,0,.1-.7c0-1.5-.7-2.5-2.3-2.5s-2.7,1.6-2.7,3.2Z"/><path d="M430.9,341.7V331.4h1l.4,1.4a3.8,3.8,0,0,1,3.1-1.6l.9.2-.3,1.5h-.8a3.3,3.3,0,0,0-2.7,1.3v7.6Z"/><path d="M445.8,341.6a4.2,4.2,0,0,1-1.3.3,1.7,1.7,0,0,1-1.7-1.2,4.5,4.5,0,0,1-3.2,1.2,2.7,2.7,0,0,1-2.9-2.6c0-2.7,2.7-3.3,6.1-3.3,0-1.8,0-3.3-2.3-3.3a5.4,5.4,0,0,0-2.7.6l-.4-1.3a6.9,6.9,0,0,1,3.3-.8c3.2,0,3.7,1.8,3.7,4.6v3.6c0,.7.1,1.1.7,1.1h.4Zm-3-4.5c-2.6,0-4.4.4-4.4,2a1.6,1.6,0,0,0,1.7,1.4,4.1,4.1,0,0,0,2.7-1Z"/><path d="M454.9,341.1a5.1,5.1,0,0,1-3,.8c-2.6,0-4.8-1.8-4.8-5.2s2.2-5.5,5.2-5.5a5.1,5.1,0,0,1,2.5.6l-.4,1.3a3.9,3.9,0,0,0-2.1-.4c-2.1,0-3.5,1.2-3.5,4a3.3,3.3,0,0,0,3.4,3.7,4.6,4.6,0,0,0,2.3-.5Z"/><path d="M457.8,329.3a1,1,0,0,1-1-1.1,1.1,1.1,0,1,1,2.1.1A1,1,0,0,1,457.8,329.3Zm2.1,12.3a2.5,2.5,0,0,1-1.2.3c-1.4,0-1.7-.9-1.7-2.1v-8.4h1.6v8.2c0,.5.1.9.7.9h.4Z"/><path d="M466.3,331.2c3.2,0,4.7,2.4,4.7,5.4s-1.9,5.3-4.8,5.3-4.7-2.4-4.7-5.3S463.3,331.2,466.3,331.2Zm-.1,9.2c2.1,0,3.1-1.7,3.1-3.8s-1-3.9-3.1-3.9-3,1.7-3,3.9S464.1,340.4,466.2,340.4Zm-1.7-10.8,1.9-3h1.8l-2.3,3Z"/><path d="M480,341.7v-7c0-1.7-.9-2-2-2a5,5,0,0,0-2.8,1v8h-1.6V331.4h1l.6,1a5.5,5.5,0,0,1,3.2-1.2c2.5,0,3.2,1.5,3.2,3.5v7Z"/><path d="M496.8,341.7l-.4-1a4.5,4.5,0,0,1-2.9,1.2c-2.5,0-4.3-2.2-4.3-5.1s1.9-5.6,4.8-5.6a5.7,5.7,0,0,1,2.3.5v-5.3H498v15.3Zm-.5-8.5a4.2,4.2,0,0,0-2.1-.5c-2.1,0-3.3,1.5-3.3,3.9s1.2,3.8,3,3.8a3.7,3.7,0,0,0,2.4-1Z"/><path d="M508.7,341a6.2,6.2,0,0,1-3.3.9c-3,0-4.8-2-4.8-5.2s1.8-5.5,4.5-5.5,3.8,1.9,3.8,4.2a8.6,8.6,0,0,1-.1,1.6h-6.5c.1,1.7,1,3.4,3.3,3.4a5.5,5.5,0,0,0,2.6-.6Zm-1.4-5.1v-.7c0-1.5-.7-2.5-2.3-2.5s-2.6,1.6-2.7,3.2Z"/><path d="M516.5,339.9a6.2,6.2,0,0,0,2.6.6c1.6,0,2.2-.7,2.2-1.6s-5.1-1.1-5.1-4.7c0-1.8,1.4-3,3.6-3a5.5,5.5,0,0,1,2.8.6l-.5,1.3a4.8,4.8,0,0,0-2.2-.5c-1.5,0-2.1.7-2.1,1.5s5.1,1.1,5.1,4.6c0,1.7-1.2,3.2-3.9,3.2a6.3,6.3,0,0,1-3-.8Z"/><path d="M532.4,341.7l-.6-1a4.6,4.6,0,0,1-3,1.2c-2.4,0-3.3-1.7-3.3-3.7v-6.8h1.7v6.8c0,1.7.9,2.2,2,2.2a3.8,3.8,0,0,0,2.5-1v-8h1.7v10.3Z"/><path d="M185.6,366.1V355.8h1l.5,1.4a3.8,3.8,0,0,1,3.1-1.6l.9.2-.3,1.5H190a3.3,3.3,0,0,0-2.7,1.3v7.6Z"/><path d="M199.9,365.4a6.2,6.2,0,0,1-3.3.9c-3,0-4.8-2-4.8-5.2s1.8-5.5,4.5-5.5,3.8,1.9,3.8,4.2a9.2,9.2,0,0,1-.1,1.6h-6.5c.1,1.7,1,3.4,3.3,3.4a5.5,5.5,0,0,0,2.6-.6Zm-1.4-5.1v-.7c0-1.5-.7-2.5-2.3-2.5s-2.6,1.6-2.7,3.2Z"/><path d="M205.8,365.9a2.1,2.1,0,0,1-1.2.4c-1.4,0-1.8-.9-1.8-2.1V350.8h1.7V364c0,.5,0,.9.7.9h.3Z"/><path d="M216.3,365.9a2.1,2.1,0,0,1-1.2.4,1.9,1.9,0,0,1-1.8-1.2,4.4,4.4,0,0,1-3.1,1.2,2.6,2.6,0,0,1-2.9-2.6c0-2.7,2.6-3.3,6-3.3,0-1.8,0-3.3-2.3-3.3a5.7,5.7,0,0,0-2.7.6l-.4-1.3a7.4,7.4,0,0,1,3.4-.8c3.1,0,3.7,1.7,3.7,4.6v3.6c0,.7.1,1.1.7,1.1h.3Zm-3-4.4c-2.6,0-4.3.4-4.3,2a1.5,1.5,0,0,0,1.6,1.4,3.9,3.9,0,0,0,2.7-1Z"/><path d="M225.4,365.5a5.7,5.7,0,0,1-3,.8c-2.5,0-4.7-1.8-4.7-5.2s2.2-5.5,5.1-5.5a5.5,5.5,0,0,1,2.6.6l-.5,1.3a3.9,3.9,0,0,0-2.1-.4c-2,0-3.4,1.2-3.4,4s1.5,3.7,3.3,3.7a4.4,4.4,0,0,0,2.3-.5Z"/><path d="M228.4,353.7a1,1,0,0,1-1-1.1.9.9,0,0,1,1-1,1,1,0,0,1,1.1,1.1A1.1,1.1,0,0,1,228.4,353.7Zm2.1,12.2a2.2,2.2,0,0,1-1.3.4c-1.3,0-1.7-.9-1.7-2.1v-8.4h1.6V364c0,.5.1.9.7.9h.4Z"/><path d="M236.8,355.6c3.3,0,4.7,2.4,4.7,5.3s-1.9,5.4-4.8,5.4-4.7-2.4-4.7-5.4S233.9,355.6,236.8,355.6Zm-.1,9.2c2.1,0,3.1-1.7,3.1-3.9s-1-3.8-3.1-3.8-3,1.7-3,3.8S234.6,364.8,236.7,364.8ZM235.1,354l1.8-3h1.9l-2.4,3Z"/><path d="M250.5,366.1v-7c0-1.7-.8-2-2-2a4.9,4.9,0,0,0-2.7,1v8h-1.7V355.8h1l.6,1a5.8,5.8,0,0,1,3.2-1.2c2.6,0,3.3,1.5,3.3,3.5v7Z"/><path d="M267.4,365.5a5.4,5.4,0,0,1-3,.8c-2.5,0-4.7-1.8-4.7-5.2s2.2-5.5,5.2-5.5a5.4,5.4,0,0,1,2.5.6l-.5,1.3a3.7,3.7,0,0,0-2-.4c-2.1,0-3.5,1.2-3.5,4s1.5,3.7,3.3,3.7a4.4,4.4,0,0,0,2.3-.5Z"/><path d="M273.5,355.6c3.3,0,4.7,2.4,4.7,5.3s-1.8,5.4-4.8,5.4-4.7-2.4-4.7-5.4S270.6,355.6,273.5,355.6Zm-.1,9.2c2.1,0,3.1-1.7,3.1-3.9s-1-3.8-3.1-3.8-3,1.7-3,3.8S271.4,364.8,273.4,364.8Z"/><path d="M287.3,366.1v-7c0-1.7-.9-2-2.1-2a4.9,4.9,0,0,0-2.7,1v8h-1.7V355.8h1l.7,1a5.2,5.2,0,0,1,3.1-1.2c2.6,0,3.3,1.5,3.3,3.5v7Z"/><path d="M304.5,365.4a6.2,6.2,0,0,1-3.3.9c-2.9,0-4.8-2-4.8-5.2s1.8-5.5,4.5-5.5,3.9,1.9,3.9,4.2a10,10,0,0,1-.2,1.6h-6.5c.1,1.7,1,3.4,3.4,3.4a6.2,6.2,0,0,0,2.6-.6Zm-1.4-5.1c0-.2.1-.5.1-.7a2.2,2.2,0,0,0-2.4-2.5c-1.8,0-2.6,1.6-2.6,3.2Z"/><path d="M310.4,365.9a2.1,2.1,0,0,1-1.2.4c-1.4,0-1.8-.9-1.8-2.1V350.8h1.7V364c0,.5.1.9.7.9h.4Z"/><path d="M325.1,365.4a6.3,6.3,0,0,1-3.4.9c-2.9,0-4.7-2-4.7-5.2s1.8-5.5,4.5-5.5,3.8,1.9,3.8,4.2a9.2,9.2,0,0,1-.1,1.6h-6.5c.1,1.7,1,3.4,3.3,3.4a5.5,5.5,0,0,0,2.6-.6Zm-1.4-5.1v-.7c0-1.5-.7-2.5-2.3-2.5s-2.6,1.6-2.7,3.2Z"/><path d="M334.4,366.1v-7c0-1.7-.9-2-2-2a4.4,4.4,0,0,0-2.7,1v8H328V355.8h1l.6,1a5.5,5.5,0,0,1,3.2-1.2c2.5,0,3.3,1.5,3.3,3.5v7Z"/><path d="M344.5,365.8a4.4,4.4,0,0,1-2,.5c-1.8,0-2.8-1.1-2.8-3.3v-6h-1.8v-1.2h1.8v-2.2l1.6-.4v2.6h3.2V357h-3.2v6.1a1.5,1.5,0,0,0,1.6,1.7,2.5,2.5,0,0,0,1.3-.3Z"/><path d="M346.8,366.1V355.8h1l.5,1.4a3.8,3.8,0,0,1,3.1-1.6l.9.2-.3,1.5h-.9a3.5,3.5,0,0,0-2.7,1.3v7.6Z"/><path d="M361.7,365.9a2.1,2.1,0,0,1-1.2.4,1.9,1.9,0,0,1-1.8-1.2,4.4,4.4,0,0,1-3.1,1.2,2.6,2.6,0,0,1-2.9-2.6c0-2.7,2.6-3.3,6-3.3,0-1.8,0-3.3-2.3-3.3a5.7,5.7,0,0,0-2.7.6l-.4-1.3a7.4,7.4,0,0,1,3.4-.8c3.1,0,3.7,1.7,3.7,4.6v3.6c0,.7,0,1.1.7,1.1h.3Zm-3-4.4c-2.6,0-4.3.4-4.3,2a1.5,1.5,0,0,0,1.6,1.4,4.1,4.1,0,0,0,2.7-1Z"/><path d="M375.9,366.1v-7c0-1.4-.7-2-2.1-2a3.7,3.7,0,0,0-2.3,1v8h-1.6v-7c0-1.5-.8-2-2.1-2a3.7,3.7,0,0,0-2.3,1v8h-1.6V355.8h1l.6,1a4,4,0,0,1,2.7-1.2,3.2,3.2,0,0,1,2.9,1.4,5,5,0,0,1,3.1-1.4c2.3,0,3.3,1.3,3.3,3.5v7Z"/><path d="M389,365.9a2.5,2.5,0,0,1-1.3.4,1.7,1.7,0,0,1-1.7-1.2,4.5,4.5,0,0,1-3.2,1.2,2.7,2.7,0,0,1-2.9-2.6c0-2.7,2.7-3.3,6.1-3.3,0-1.8,0-3.3-2.3-3.3a5.4,5.4,0,0,0-2.7.6l-.4-1.3a6.6,6.6,0,0,1,3.3-.8c3.2,0,3.7,1.7,3.7,4.6v3.6c0,.7.1,1.1.7,1.1h.4Zm-3-4.4c-2.6,0-4.4.4-4.4,2a1.5,1.5,0,0,0,1.7,1.4,4.1,4.1,0,0,0,2.7-1Z"/><path d="M398,366.1l-.5-1a4.1,4.1,0,0,1-2.8,1.2c-2.6,0-4.4-2.2-4.4-5.1s2-5.6,4.9-5.6a5.7,5.7,0,0,1,2.3.5v-5.3h1.6v15.3Zm-.5-8.5a4.9,4.9,0,0,0-2.2-.5c-2,0-3.2,1.4-3.2,3.9s1.2,3.8,2.9,3.8a3.8,3.8,0,0,0,2.5-1Z"/><path d="M406.6,355.6c3.2,0,4.7,2.4,4.7,5.3s-1.9,5.4-4.9,5.4-4.6-2.4-4.6-5.4S403.6,355.6,406.6,355.6Zm-.1,9.2c2.1,0,3.1-1.7,3.1-3.9s-1-3.8-3.1-3.8-3.1,1.7-3.1,3.8S404.4,364.8,406.5,364.8Z"/><path d="M425.8,366.1l-.5-1a4.1,4.1,0,0,1-2.8,1.2c-2.6,0-4.4-2.2-4.4-5.1s2-5.6,4.9-5.6a5.7,5.7,0,0,1,2.3.5v-5.3h1.6v15.3Zm-.5-8.5a4.9,4.9,0,0,0-2.2-.5c-2,0-3.3,1.4-3.3,3.9s1.3,3.8,3,3.8a3.8,3.8,0,0,0,2.5-1Z"/><path d="M437.7,365.4a6.6,6.6,0,0,1-3.4.9c-2.9,0-4.8-2-4.8-5.2s1.8-5.5,4.6-5.5,3.8,1.9,3.8,4.2a10,10,0,0,1-.2,1.6h-6.4a3.1,3.1,0,0,0,3.3,3.4,5.9,5.9,0,0,0,2.6-.6Zm-1.4-5.1v-.7c0-1.5-.7-2.5-2.3-2.5s-2.7,1.6-2.7,3.2Z"/><path d="M443.6,365.9a2.2,2.2,0,0,1-1.3.4c-1.3,0-1.7-.9-1.7-2.1V350.8h1.6V364c0,.5.1.9.7.9h.4Z"/><path d="M457.8,365.5a5.4,5.4,0,0,1-3,.8c-2.5,0-4.7-1.8-4.7-5.2s2.2-5.5,5.2-5.5a5.4,5.4,0,0,1,2.5.6l-.4,1.3a4.4,4.4,0,0,0-2.1-.4c-2.1,0-3.5,1.2-3.5,4s1.6,3.7,3.3,3.7a4.1,4.1,0,0,0,2.3-.5Z"/><path d="M464,355.6c3.2,0,4.6,2.4,4.6,5.3s-1.8,5.4-4.8,5.4-4.7-2.4-4.7-5.4S461,355.6,464,355.6Zm-.1,9.2c2.1,0,3-1.7,3-3.9s-.9-3.8-3-3.8-3.1,1.7-3.1,3.8S461.8,364.8,463.9,364.8Z"/><path d="M477.7,366.1v-7c0-1.7-.9-2-2-2a5,5,0,0,0-2.8,1v8h-1.6V355.8h1l.6,1a5.5,5.5,0,0,1,3.1-1.2c2.6,0,3.3,1.5,3.3,3.5v7Z"/><path d="M492.1,365.9a2.2,2.2,0,0,1-1.3.4c-1.4,0-1.7-.9-1.7-2.1V352.1h-1.5c-2.4,0-3,1.3-3,3.1a1.7,1.7,0,0,0,.1.7h2.8V357h-2.9v13.2H483V357h-1.9v-1.2H483v-.3c0-2.4.8-4.9,4.5-4.9l1.6.2h1.6v13c0,.7,0,1.1.7,1.1h.6Z"/><path d="M495.3,353.7a1,1,0,0,1-1-1.1.9.9,0,0,1,1-1,1,1,0,0,1,1.1,1.1A1.1,1.1,0,0,1,495.3,353.7Zm2.1,12.2a2.2,2.2,0,0,1-1.3.4c-1.3,0-1.7-.9-1.7-2.1v-8.4H496V364c0,.5.1.9.7.9h.4Z"/><path d="M506.6,365.5a5.4,5.4,0,0,1-3,.8c-2.5,0-4.7-1.8-4.7-5.2s2.2-5.5,5.2-5.5a5.4,5.4,0,0,1,2.5.6l-.5,1.3a3.7,3.7,0,0,0-2-.4c-2.1,0-3.5,1.2-3.5,4s1.5,3.7,3.3,3.7a4.1,4.1,0,0,0,2.3-.5Z"/><path d="M514.2,365.8a4.8,4.8,0,0,1-2,.5c-1.8,0-2.8-1.1-2.8-3.3v-6h-1.8v-1.2h1.8v-2.2l1.6-.4v2.6h3.2V357H511v6.1c0,1.2.6,1.7,1.6,1.7a2.5,2.5,0,0,0,1.3-.3Z"/><path d="M520.5,355.6c3.2,0,4.7,2.4,4.7,5.3s-1.9,5.4-4.8,5.4-4.7-2.4-4.7-5.4S517.6,355.6,520.5,355.6Zm-.1,9.2c2.1,0,3.1-1.7,3.1-3.9s-1-3.8-3.1-3.8-3,1.7-3,3.8S518.3,364.8,520.4,364.8Z"/><path d="M531.2,355.8h1.9l3.2,8.5,2.8-8.5h1.7l-4.2,11.5a3.7,3.7,0,0,1-3.7,2.9,3.9,3.9,0,0,1-1.8-.5l.5-1.3a2.6,2.6,0,0,0,1.4.4c1.4,0,2-1.1,2.5-2.6Z"/><path d="M550.6,365.9a2.1,2.1,0,0,1-1.2.4c-1.4,0-1.8-.9-1.8-2.1V350.8h1.7V364c0,.5,0,.9.7.9h.3Z"/><path d="M561.1,365.9a2.1,2.1,0,0,1-1.2.4,1.9,1.9,0,0,1-1.8-1.2,4.4,4.4,0,0,1-3.1,1.2,2.6,2.6,0,0,1-2.9-2.6c0-2.7,2.6-3.3,6-3.3,0-1.8,0-3.3-2.3-3.3a5.7,5.7,0,0,0-2.7.6l-.4-1.3a7.4,7.4,0,0,1,3.4-.8c3.1,0,3.7,1.7,3.7,4.6v3.6c0,.7,0,1.1.7,1.1h.3Zm-3-4.4c-2.6,0-4.3.4-4.3,2a1.5,1.5,0,0,0,1.6,1.4,3.9,3.9,0,0,0,2.7-1Z"/><path d="M185.6,394.6V380.2h1.2l.4,1A4.4,4.4,0,0,1,190,380c2.8,0,4.4,2.2,4.4,5.1s-1.9,5.6-4.8,5.6a5.7,5.7,0,0,1-2.3-.5v4.4Zm1.7-5.9a4.2,4.2,0,0,0,2.1.5c2.1,0,3.3-1.5,3.3-3.9s-1.2-3.8-3-3.8a3.7,3.7,0,0,0-2.4,1Z"/><path d="M203.9,390.5l-.6-1a4.4,4.4,0,0,1-2.9,1.2c-2.5,0-3.3-1.7-3.3-3.7v-6.8h1.6V387c0,1.7.9,2.2,2,2.2a4.1,4.1,0,0,0,2.6-1v-8h1.6v10.3Z"/><path d="M215.7,389.7a6,6,0,0,1-3.4,1c-2.9,0-4.8-2-4.8-5.2s1.8-5.5,4.6-5.5,3.8,1.9,3.8,4.2a10,10,0,0,1-.2,1.6h-6.4a3.1,3.1,0,0,0,3.3,3.4,6.2,6.2,0,0,0,2.6-.6Zm-1.4-5V384c0-1.5-.7-2.5-2.3-2.5s-2.7,1.6-2.7,3.2Z"/><path d="M218.4,388.7a6.6,6.6,0,0,0,2.6.6c1.6,0,2.2-.8,2.2-1.6,0-2.5-5.1-1.2-5.1-4.7,0-1.8,1.5-3,3.7-3a5.4,5.4,0,0,1,2.7.6l-.4,1.3a5.2,5.2,0,0,0-2.3-.5c-1.4,0-2.1.6-2.1,1.5s5.1,1,5.1,4.6c0,1.7-1.2,3.2-3.8,3.2a6.4,6.4,0,0,1-3.1-.8Z"/><path d="M232.7,390.2a5.3,5.3,0,0,1-2,.5c-1.8,0-2.9-1.1-2.9-3.3v-6H226v-1.2h1.8V378l1.7-.4v2.6h3.1v1.2h-3.1v6.1c0,1.2.6,1.7,1.5,1.7a2.6,2.6,0,0,0,1.4-.3Z"/><path d="M243.1,390.3a2.1,2.1,0,0,1-1.2.4,1.7,1.7,0,0,1-1.7-1.2,4.9,4.9,0,0,1-3.2,1.2,2.6,2.6,0,0,1-2.9-2.6c0-2.7,2.6-3.3,6-3.3,0-1.8,0-3.3-2.3-3.3a5,5,0,0,0-2.6.6l-.5-1.3a7.4,7.4,0,0,1,3.4-.8c3.2,0,3.7,1.7,3.7,4.5v3.7c0,.7.1,1.1.7,1.1h.4Zm-3-4.4c-2.6,0-4.3.4-4.3,2a1.5,1.5,0,0,0,1.6,1.4,3.5,3.5,0,0,0,2.7-1.1Z"/><path d="M257.6,389.7a5.4,5.4,0,0,1-3.3,1c-2.9,0-4.8-2-4.8-5.2s1.8-5.5,4.5-5.5,3.9,1.9,3.9,4.2a10,10,0,0,1-.2,1.6h-6.4a3.1,3.1,0,0,0,3.3,3.4,6.2,6.2,0,0,0,2.6-.6Zm-1.4-5a1.7,1.7,0,0,0,.1-.7c0-1.5-.7-2.5-2.3-2.5s-2.7,1.6-2.7,3.2Z"/><path d="M266.9,390.5v-7c0-1.7-.8-2-2-2a4.9,4.9,0,0,0-2.7,1v8h-1.7V380.2h1l.6,1a5.2,5.2,0,0,1,3.2-1.2c2.6,0,3.3,1.5,3.3,3.5v7Z"/><path d="M288.9,390.5v-7a1.8,1.8,0,0,0-2-2,3.7,3.7,0,0,0-2.4,1v8h-1.6v-7c0-1.5-.7-2-2-2a3.7,3.7,0,0,0-2.4,1v8h-1.6V380.2h1l.6,1a4,4,0,0,1,2.7-1.2c1.9,0,2.6.8,2.9,1.4a5,5,0,0,1,3.1-1.4c2.3,0,3.3,1.3,3.3,3.5v7Z"/><path d="M302,390.3a2.2,2.2,0,0,1-1.3.4,1.7,1.7,0,0,1-1.7-1.2,4.4,4.4,0,0,1-3.1,1.2c-1.7,0-3-1-3-2.6s2.7-3.3,6.1-3.3c0-1.8,0-3.3-2.3-3.3a5.4,5.4,0,0,0-2.7.6l-.4-1.3a6.9,6.9,0,0,1,3.3-.8c3.2,0,3.7,1.7,3.7,4.5v3.7c0,.7.1,1.1.8,1.1h.3Zm-3-4.4c-2.6,0-4.4.4-4.4,2a1.6,1.6,0,0,0,1.7,1.4,3.7,3.7,0,0,0,2.7-1.1Z"/><path d="M304.1,390.5V380.2h1l.5,1.4a3.8,3.8,0,0,1,3.1-1.6l.9.2-.3,1.5h-.8a3.3,3.3,0,0,0-2.7,1.3v7.6Z"/><path d="M318,389.9a5.4,5.4,0,0,1-3,.8c-2.5,0-4.7-1.8-4.7-5.2s2.2-5.5,5.1-5.5a5.5,5.5,0,0,1,2.6.6l-.5,1.3a3.9,3.9,0,0,0-2.1-.4c-2,0-3.4,1.2-3.4,4s1.5,3.7,3.3,3.7a4.4,4.4,0,0,0,2.3-.5Z"/><path d="M321.7,381.2a4.9,4.9,0,0,1,3.2-1.2c2.5,0,3.2,1.5,3.2,3.5v7h-1.6v-7c0-1.7-.9-2-2-2a5,5,0,0,0-2.8,1v8h-1.6V375.2h1.6Z"/><path d="M339.6,390.3a2.1,2.1,0,0,1-1.2.4,1.9,1.9,0,0,1-1.8-1.2,4.4,4.4,0,0,1-3.1,1.2,2.6,2.6,0,0,1-2.9-2.6c0-2.7,2.6-3.3,6-3.3,0-1.8,0-3.3-2.3-3.3a5.7,5.7,0,0,0-2.7.6l-.4-1.3a7.4,7.4,0,0,1,3.4-.8c3.1,0,3.7,1.7,3.7,4.5v3.7c0,.7.1,1.1.7,1.1h.3Zm-3-4.4c-2.6,0-4.3.4-4.3,2a1.5,1.5,0,0,0,1.6,1.4,3.5,3.5,0,0,0,2.7-1.1Z"/><path d="M353.7,390.5l-.5-1a4.1,4.1,0,0,1-2.8,1.2c-2.6,0-4.4-2.2-4.4-5.1s1.9-5.6,4.9-5.6a5.7,5.7,0,0,1,2.3.5v-5.3h1.6v15.3Zm-.5-8.6a5.9,5.9,0,0,0-2.2-.4c-2,0-3.3,1.4-3.3,3.9s1.2,3.8,3,3.8a3.8,3.8,0,0,0,2.5-1Z"/><path d="M365.5,389.7a5.4,5.4,0,0,1-3.3,1c-2.9,0-4.8-2-4.8-5.2s1.8-5.5,4.6-5.5,3.8,1.9,3.8,4.2a10,10,0,0,1-.2,1.6h-6.4a3.1,3.1,0,0,0,3.3,3.4,6.2,6.2,0,0,0,2.6-.6Zm-1.4-5a1.7,1.7,0,0,0,.1-.7c0-1.5-.7-2.5-2.3-2.5s-2.7,1.6-2.7,3.2Z"/><path d="M380.3,390.5l-.6-1a4.4,4.4,0,0,1-2.9,1.2c-2.5,0-3.3-1.7-3.3-3.7v-6.8h1.6V387c0,1.7.9,2.2,2,2.2a4.1,4.1,0,0,0,2.6-1v-8h1.6v10.3Z"/><path d="M391.1,390.5v-7c0-1.7-.8-2-2-2a4.9,4.9,0,0,0-2.7,1v8h-1.7V380.2h1l.6,1a5.2,5.2,0,0,1,3.2-1.2c2.6,0,3.3,1.5,3.3,3.5v7Z"/><path d="M404.3,390.3a2.5,2.5,0,0,1-1.3.4,1.7,1.7,0,0,1-1.7-1.2,4.5,4.5,0,0,1-3.2,1.2,2.7,2.7,0,0,1-2.9-2.6c0-2.7,2.6-3.3,6.1-3.3,0-1.8-.1-3.3-2.3-3.3a5.4,5.4,0,0,0-2.7.6l-.4-1.3a6.6,6.6,0,0,1,3.3-.8c3.2,0,3.7,1.7,3.7,4.5v3.7c0,.7.1,1.1.7,1.1h.4Zm-3-4.4c-2.7,0-4.4.4-4.4,2a1.5,1.5,0,0,0,1.6,1.4,3.9,3.9,0,0,0,2.8-1.1Z"/><path d="M411.4,390.5V380.2h1l.5,1.4A3.8,3.8,0,0,1,416,380l.9.2-.3,1.5h-.8a3.3,3.3,0,0,0-2.7,1.3v7.6Z"/><path d="M425.7,389.7a5.5,5.5,0,0,1-3.4,1c-2.9,0-4.7-2-4.7-5.2s1.8-5.5,4.5-5.5,3.8,1.9,3.8,4.2a9.2,9.2,0,0,1-.1,1.6h-6.5c.1,1.7,1,3.4,3.3,3.4a5.5,5.5,0,0,0,2.6-.6Zm-1.4-5V384c0-1.5-.7-2.5-2.3-2.5s-2.6,1.6-2.7,3.2Z"/><path d="M429.1,394.6V381.4h-2v-1.2h2v-.4c0-2.8,1.5-4.8,4.1-4.8l1.7.2-.3,1.3h-1.3c-1.8,0-2.7,1.2-2.7,3.2v.6h2.9v1.2h-2.9v13.2Z"/><path d="M438.9,380c3.2,0,4.7,2.4,4.7,5.3s-1.9,5.4-4.8,5.4-4.7-2.4-4.7-5.4S436,380,438.9,380Zm-.1,9.2c2.1,0,3.1-1.7,3.1-3.9s-1-3.8-3.1-3.8-3,1.7-3,3.8S436.7,389.2,438.8,389.2Z"/><path d="M446.2,390.5V380.2h1l.5,1.4a3.8,3.8,0,0,1,3.1-1.6l.9.2-.3,1.5h-.8a3.3,3.3,0,0,0-2.7,1.3v7.6Z"/><path d="M465.6,390.5v-7c0-1.4-.7-2-2.1-2a3.7,3.7,0,0,0-2.3,1v8h-1.6v-7c0-1.5-.8-2-2.1-2a3.7,3.7,0,0,0-2.3,1v8h-1.6V380.2h1l.6,1a4,4,0,0,1,2.7-1.2,3,3,0,0,1,2.9,1.4,5,5,0,0,1,3.1-1.4c2.3,0,3.3,1.3,3.3,3.5v7Z"/><path d="M478.7,390.3a2.5,2.5,0,0,1-1.3.4,1.7,1.7,0,0,1-1.7-1.2,4.5,4.5,0,0,1-3.2,1.2,2.7,2.7,0,0,1-2.9-2.6c0-2.7,2.7-3.3,6.1-3.3,0-1.8,0-3.3-2.3-3.3a5.4,5.4,0,0,0-2.7.6l-.4-1.3a6.6,6.6,0,0,1,3.3-.8c3.2,0,3.7,1.7,3.7,4.5v3.7c0,.7.1,1.1.7,1.1h.4Zm-3-4.4c-2.6,0-4.4.4-4.4,2a1.5,1.5,0,0,0,1.7,1.4,3.7,3.7,0,0,0,2.7-1.1Z"/><path d="M492.2,394.6V390a5.8,5.8,0,0,1-2.6.7c-2.8,0-4.5-2-4.5-5.1s2.1-5.6,5.1-5.6a10.2,10.2,0,0,1,3.6.8v13.8Zm0-12.8a7,7,0,0,0-2-.3c-2.5,0-3.4,1.9-3.4,4s.8,3.7,3,3.7a6.2,6.2,0,0,0,2.4-.6Z"/><path d="M504.1,390.5l-.6-1a4.6,4.6,0,0,1-3,1.2c-2.4,0-3.3-1.7-3.3-3.7v-6.8h1.7V387c0,1.7.9,2.2,2,2.2a3.8,3.8,0,0,0,2.5-1v-8h1.7v10.3Z"/><path d="M515.8,389.7a5.4,5.4,0,0,1-3.3,1c-2.9,0-4.8-2-4.8-5.2s1.8-5.5,4.5-5.5,3.9,1.9,3.9,4.2a10,10,0,0,1-.2,1.6h-6.4a3.1,3.1,0,0,0,3.3,3.4,6.2,6.2,0,0,0,2.6-.6Zm-1.4-5a1.7,1.7,0,0,0,.1-.7c0-1.5-.7-2.5-2.3-2.5s-2.7,1.6-2.7,3.2Z"/><path d="M532,390.3a2.5,2.5,0,0,1-1.3.4,1.7,1.7,0,0,1-1.7-1.2,4.5,4.5,0,0,1-3.2,1.2,2.7,2.7,0,0,1-2.9-2.6c0-2.7,2.7-3.3,6.1-3.3,0-1.8,0-3.3-2.3-3.3a5.4,5.4,0,0,0-2.7.6l-.4-1.3a6.6,6.6,0,0,1,3.3-.8c3.2,0,3.7,1.7,3.7,4.5v3.7c0,.7.1,1.1.7,1.1h.4Zm-3-4.4c-2.6,0-4.4.4-4.4,2a1.5,1.5,0,0,0,1.7,1.4,3.7,3.7,0,0,0,2.7-1.1Z"/><path d="M534.1,375.2h1.7v5.5a4.6,4.6,0,0,1,2.4-.7c2.7,0,4.4,1.8,4.4,5.1s-2.3,5.6-5.2,5.6a6.2,6.2,0,0,1-3.3-1Zm1.7,13.7a3.7,3.7,0,0,0,1.7.4c2.6,0,3.4-2.2,3.4-4.2s-.7-3.7-3-3.7a3.8,3.8,0,0,0-2.1.7Z"/><path d="M545.3,390.5V380.2h1l.4,1.4a4,4,0,0,1,3.1-1.6l.9.2-.3,1.5h-.8a3.3,3.3,0,0,0-2.7,1.3v7.6Z"/><path d="M560.2,390.3a2.5,2.5,0,0,1-1.3.4,1.7,1.7,0,0,1-1.7-1.2,4.5,4.5,0,0,1-3.2,1.2,2.7,2.7,0,0,1-2.9-2.6c0-2.7,2.7-3.3,6.1-3.3,0-1.8,0-3.3-2.3-3.3a5.4,5.4,0,0,0-2.7.6l-.4-1.3a6.9,6.9,0,0,1,3.3-.8c3.2,0,3.7,1.7,3.7,4.5v3.7c0,.7.1,1.1.7,1.1h.4Zm-3-4.4c-2.6,0-4.4.4-4.4,2a1.6,1.6,0,0,0,1.7,1.4,3.7,3.7,0,0,0,2.7-1.1Z"/><path d="M193,414.1a5.7,5.7,0,0,1-3.4,1c-2.9,0-4.8-2.1-4.8-5.2s1.9-5.5,4.6-5.5,3.8,1.9,3.8,4.2a10,10,0,0,1-.2,1.6h-6.4a3.2,3.2,0,0,0,3.3,3.4,5.9,5.9,0,0,0,2.6-.6Zm-1.4-5v-.7c0-1.5-.7-2.5-2.3-2.5s-2.6,1.6-2.7,3.2Z"/><path d="M195.7,413a5.3,5.3,0,0,0,2.6.7c1.6,0,2.2-.8,2.2-1.6,0-2.5-5-1.2-5-4.7,0-1.8,1.4-3,3.6-3a5.4,5.4,0,0,1,2.7.6l-.4,1.3a5.2,5.2,0,0,0-2.3-.5c-1.4,0-2.1.6-2.1,1.5s5.2,1,5.2,4.6c0,1.7-1.3,3.2-3.9,3.2a6.4,6.4,0,0,1-3.1-.8Z"/><path d="M204.8,419V404.6h1.1l.5,1a4.1,4.1,0,0,1,2.8-1.2c2.7,0,4.4,2.2,4.4,5.1s-2,5.6-4.9,5.6a4.9,4.9,0,0,1-2.3-.6V419Zm1.6-5.9a4.9,4.9,0,0,0,2.2.5c2,0,3.3-1.5,3.3-3.9s-1.3-3.9-3-3.9a4.2,4.2,0,0,0-2.5,1Z"/><path d="M224.4,414.7a2.1,2.1,0,0,1-1.2.4,1.8,1.8,0,0,1-1.8-1.2,4.4,4.4,0,0,1-3.1,1.2,2.6,2.6,0,0,1-2.9-2.6c0-2.7,2.6-3.3,6-3.3,0-1.8,0-3.4-2.3-3.4a5.7,5.7,0,0,0-2.7.7l-.4-1.3a7.4,7.4,0,0,1,3.4-.8c3.1,0,3.7,1.7,3.7,4.5v3.7c0,.7,0,1.1.7,1.1h.3Zm-3-4.4c-2.6,0-4.4.4-4.4,2a1.6,1.6,0,0,0,1.7,1.4,3.7,3.7,0,0,0,2.7-1.1Z"/><path d="M233.5,414.3a6,6,0,0,1-3,.8c-2.5,0-4.7-1.8-4.7-5.2s2.2-5.5,5.1-5.5a5.5,5.5,0,0,1,2.6.6l-.5,1.3a3.8,3.8,0,0,0-2.1-.5c-2,0-3.4,1.3-3.4,4.1s1.5,3.7,3.3,3.7a4.4,4.4,0,0,0,2.3-.5Z"/><path d="M236.5,402.5a1,1,0,0,1-1-1.1.9.9,0,0,1,1-1,1,1,0,0,1,1.1,1.1A1.1,1.1,0,0,1,236.5,402.5Zm2.1,12.2a2.2,2.2,0,0,1-1.3.4c-1.3,0-1.7-1-1.7-2.1v-8.4h1.6v8.2c0,.4.1.9.7.9h.4Z"/><path d="M244.9,404.4c3.2,0,4.7,2.4,4.7,5.3s-1.9,5.4-4.8,5.4-4.7-2.4-4.7-5.4S242,404.4,244.9,404.4Zm-.1,9.2c2.1,0,3.1-1.7,3.1-3.9s-1-3.9-3.1-3.9-3,1.8-3,3.9S242.7,413.6,244.8,413.6Z"/><path d="M252,413a5.7,5.7,0,0,0,2.7.7c1.6,0,2.2-.8,2.2-1.6,0-2.5-5.1-1.2-5.1-4.7,0-1.8,1.4-3,3.6-3a5.5,5.5,0,0,1,2.8.6l-.5,1.3a4.8,4.8,0,0,0-2.2-.5c-1.5,0-2.1.6-2.1,1.5s5.1,1,5.1,4.6c0,1.7-1.2,3.2-3.9,3.2a6,6,0,0,1-3-.8Z"/><path d="M266.2,419V404.6h1.1l.4,1a4.5,4.5,0,0,1,2.9-1.2c2.7,0,4.4,2.2,4.4,5.1s-2,5.6-4.9,5.6a4.9,4.9,0,0,1-2.3-.6V419Zm1.6-5.9a4.2,4.2,0,0,0,2.1.5c2.1,0,3.3-1.5,3.3-3.9s-1.2-3.9-3-3.9a3.7,3.7,0,0,0-2.4,1Z"/><path d="M285.8,414.7a2.5,2.5,0,0,1-1.3.4,1.7,1.7,0,0,1-1.7-1.2,4.5,4.5,0,0,1-3.2,1.2,2.7,2.7,0,0,1-2.9-2.6c0-2.7,2.7-3.3,6.1-3.3,0-1.8,0-3.4-2.3-3.4a5.4,5.4,0,0,0-2.7.7l-.4-1.3a6.6,6.6,0,0,1,3.3-.8c3.2,0,3.7,1.7,3.7,4.5v3.7c0,.7.1,1.1.7,1.1h.4Zm-3-4.4c-2.6,0-4.4.4-4.4,2a1.5,1.5,0,0,0,1.7,1.4,3.7,3.7,0,0,0,2.7-1.1Z"/><path d="M287.9,414.9V404.6h1l.5,1.4a3.8,3.8,0,0,1,3.1-1.6,1.5,1.5,0,0,1,.9.2l-.3,1.5-.8-.2a3.4,3.4,0,0,0-2.7,1.4v7.6Z"/><path d="M302.8,414.7a1.9,1.9,0,0,1-1.2.4,1.7,1.7,0,0,1-1.7-1.2,4.5,4.5,0,0,1-3.2,1.2,2.7,2.7,0,0,1-2.9-2.6c0-2.7,2.6-3.3,6.1-3.3,0-1.8-.1-3.4-2.3-3.4a5.4,5.4,0,0,0-2.7.7l-.4-1.3a6.6,6.6,0,0,1,3.3-.8c3.2,0,3.7,1.7,3.7,4.5v3.7c0,.7.1,1.1.7,1.1h.4Zm-2.9-4.4c-2.7,0-4.4.4-4.4,2a1.5,1.5,0,0,0,1.6,1.4,3.9,3.9,0,0,0,2.8-1.1Z"/><path d="M309.8,413a5.7,5.7,0,0,0,2.7.7c1.6,0,2.2-.8,2.2-1.6,0-2.5-5.1-1.2-5.1-4.7,0-1.8,1.4-3,3.6-3a5.8,5.8,0,0,1,2.8.6l-.5,1.3a4.9,4.9,0,0,0-2.3-.5c-1.4,0-2,.6-2,1.5s5.1,1,5.1,4.6c0,1.7-1.2,3.2-3.9,3.2a6,6,0,0,1-3-.8Z"/><path d="M326.3,414.1a6,6,0,0,1-3.4,1c-2.9,0-4.8-2.1-4.8-5.2s1.8-5.5,4.6-5.5,3.8,1.9,3.8,4.2a10,10,0,0,1-.2,1.6h-6.4a3.2,3.2,0,0,0,3.3,3.4,6.2,6.2,0,0,0,2.6-.6Zm-1.4-5v-.7c0-1.5-.7-2.5-2.3-2.5s-2.7,1.6-2.7,3.2Z"/><path d="M336.1,414.3a6,6,0,0,1-3,.8c-2.5,0-4.7-1.8-4.7-5.2s2.2-5.5,5.1-5.5a5.5,5.5,0,0,1,2.6.6l-.5,1.3a3.8,3.8,0,0,0-2.1-.5c-2,0-3.4,1.3-3.4,4.1s1.5,3.7,3.3,3.7a4.4,4.4,0,0,0,2.3-.5Z"/><path d="M343.7,414.6a4.8,4.8,0,0,1-2,.5c-1.8,0-2.9-1.1-2.9-3.3v-6H337v-1.2h1.8v-2.2l1.7-.4v2.6h3.2v1.2h-3.2v6c0,1.3.6,1.8,1.6,1.8a2.5,2.5,0,0,0,1.3-.3Z"/><path d="M350,404.4c3.2,0,4.7,2.4,4.7,5.3s-1.9,5.4-4.8,5.4-4.7-2.4-4.7-5.4S347,404.4,350,404.4Zm-.1,9.2c2.1,0,3.1-1.7,3.1-3.9s-1-3.9-3.1-3.9-3.1,1.8-3.1,3.9S347.8,413.6,349.9,413.6Z"/><path d="M357.3,414.9V404.6h1l.5,1.4a3.8,3.8,0,0,1,3.1-1.6,1.5,1.5,0,0,1,.9.2l-.3,1.5-.9-.2a3.6,3.6,0,0,0-2.7,1.4v7.6Z"/><path d="M371.6,414.1a5.7,5.7,0,0,1-3.4,1c-2.9,0-4.8-2.1-4.8-5.2s1.8-5.5,4.6-5.5,3.8,1.9,3.8,4.2a10,10,0,0,1-.2,1.6h-6.4a3.2,3.2,0,0,0,3.3,3.4,6.2,6.2,0,0,0,2.6-.6Zm-1.4-5v-.7c0-1.5-.7-2.5-2.3-2.5s-2.7,1.6-2.7,3.2Z"/><path d="M374.3,413a5.3,5.3,0,0,0,2.6.7c1.6,0,2.2-.8,2.2-1.6,0-2.5-5.1-1.2-5.1-4.7,0-1.8,1.5-3,3.7-3a5.4,5.4,0,0,1,2.7.6l-.4,1.3a5.2,5.2,0,0,0-2.3-.5c-1.4,0-2.1.6-2.1,1.5s5.2,1,5.2,4.6c0,1.7-1.3,3.2-3.9,3.2a6.4,6.4,0,0,1-3.1-.8Z"/><path d="M386.7,404.6h1.9l3.2,8.5,2.9-8.5h1.7l-4.2,11.5c-.6,1.5-1.6,2.9-3.7,2.9a2.7,2.7,0,0,1-1.8-.6l.5-1.2a2.5,2.5,0,0,0,1.3.3c1.5,0,2.1-1,2.6-2.5Z"/><path d="M409.5,405.9a2.8,2.8,0,0,1,.7,1.9,3.6,3.6,0,0,1-3.7,3.6h-.7a1.9,1.9,0,0,0-.4.9c0,.4.2.7,1.2.7,3.4,0,4.4,1.1,4.4,2.8s-1.6,3.5-4.6,3.5-3.9-.9-3.9-2.9a2.7,2.7,0,0,1,2-2.5,1.4,1.4,0,0,1-.7-1.3.8.8,0,0,1,.1-.4l.8-1.1a3.1,3.1,0,0,1-1.8-3,3.5,3.5,0,0,1,3.6-3.6,4.6,4.6,0,0,1,1.9.4l3.5-.2v1.3ZM404,416.1c0,.9.8,1.8,2.6,1.8s2.8-.7,2.8-2-.6-1.6-2.8-1.6h-1A2,2,0,0,0,404,416.1Zm4.6-8.3a1.9,1.9,0,0,0-2.1-2.1,2.2,2.2,0,0,0,0,4.4A2.1,2.1,0,0,0,408.6,407.8Z"/><path d="M413.6,414.9V404.6h1l.5,1.4a3.8,3.8,0,0,1,3.1-1.6,1.5,1.5,0,0,1,.9.2l-.3,1.5-.8-.2a3.4,3.4,0,0,0-2.7,1.4v7.6Z"/><path d="M427.8,414.9l-.6-1a4.4,4.4,0,0,1-2.9,1.2c-2.5,0-3.3-1.7-3.3-3.7v-6.8h1.6v6.8c0,1.7.9,2.2,2,2.2a4.1,4.1,0,0,0,2.6-1v-8h1.6v10.3Z"/><path d="M432.2,419V404.6h1.2l.4,1a4.1,4.1,0,0,1,2.8-1.2c2.8,0,4.4,2.2,4.4,5.1s-1.9,5.6-4.8,5.6a4.5,4.5,0,0,1-2.3-.6V419Zm1.7-5.9a4.2,4.2,0,0,0,2.1.5c2.1,0,3.3-1.5,3.3-3.9s-1.2-3.9-3-3.9a3.7,3.7,0,0,0-2.4,1Z"/><path d="M447.7,404.4c3.2,0,4.7,2.4,4.7,5.3s-1.9,5.4-4.9,5.4-4.6-2.4-4.6-5.4S444.7,404.4,447.7,404.4Zm-.1,9.2c2.1,0,3.1-1.7,3.1-3.9s-1-3.9-3.1-3.9-3.1,1.8-3.1,3.9S445.5,413.6,447.6,413.6Z"/><path d="M454.8,413a5.6,5.6,0,0,0,2.6.7c1.6,0,2.2-.8,2.2-1.6,0-2.5-5-1.2-5-4.7,0-1.8,1.4-3,3.6-3a5.4,5.4,0,0,1,2.7.6l-.4,1.3a5.2,5.2,0,0,0-2.3-.5c-1.4,0-2.1.6-2.1,1.5s5.2,1,5.2,4.6c0,1.7-1.3,3.2-3.9,3.2a6.4,6.4,0,0,1-3.1-.8Z"/><path d="M476.3,414.1a6,6,0,0,1-3.4,1c-2.9,0-4.8-2.1-4.8-5.2s1.8-5.5,4.6-5.5,3.8,1.9,3.8,4.2a10,10,0,0,1-.2,1.6h-6.4a3.2,3.2,0,0,0,3.3,3.4,6.2,6.2,0,0,0,2.6-.6Zm-1.5-5a1.7,1.7,0,0,0,.1-.7c0-1.5-.7-2.5-2.3-2.5s-2.7,1.6-2.7,3.2Z"/><path d="M484.8,414.9l-2.5-4.2h0l-2.6,4.2h-1.9l3.6-5.4-3.3-4.9h2l2.3,3.7h0l2.4-3.7h1.9l-3.4,4.9,3.6,5.4Z"/><path d="M495.7,414.3a6,6,0,0,1-3,.8c-2.5,0-4.7-1.8-4.7-5.2s2.2-5.5,5.1-5.5a5.5,5.5,0,0,1,2.6.6l-.5,1.3a3.8,3.8,0,0,0-2.1-.5c-2,0-3.4,1.3-3.4,4.1s1.5,3.7,3.3,3.7a4.6,4.6,0,0,0,2.3-.5Z"/><path d="M500.8,414.7a2.2,2.2,0,0,1-1.3.4c-1.3,0-1.7-1-1.7-2.1V399.6h1.6v13.2c0,.4.1.9.7.9h.4Z"/><path d="M509.9,414.9l-.6-1a4.1,4.1,0,0,1-2.9,1.2c-2.5,0-3.3-1.7-3.3-3.7v-6.8h1.6v6.8c0,1.7.9,2.2,2,2.2a4.1,4.1,0,0,0,2.6-1v-8h1.6v10.3Z"/><path d="M515.2,402.5a1,1,0,0,1-1-1.1,1,1,0,0,1,1-1,1,1,0,0,1,1.1,1.1A1,1,0,0,1,515.2,402.5Zm2.1,12.2a2.1,2.1,0,0,1-1.2.4c-1.4,0-1.8-1-1.8-2.1v-8.4H516v8.2c0,.4.1.9.7.9h.4Z"/><path d="M526.5,414.9l-.4-1a4.5,4.5,0,0,1-2.9,1.2c-2.5,0-4.3-2.2-4.3-5.1s1.9-5.6,4.8-5.6a5.7,5.7,0,0,1,2.3.5v-5.3h1.7v15.3Zm-.5-8.6a4.2,4.2,0,0,0-2.1-.5c-2.1,0-3.3,1.5-3.3,4s1.2,3.8,3,3.8a3.7,3.7,0,0,0,2.4-1Z"/><path d="M535.1,404.4c3.2,0,4.7,2.4,4.7,5.3s-1.9,5.4-4.8,5.4-4.7-2.4-4.7-5.4S532.1,404.4,535.1,404.4Zm-.1,9.2c2.1,0,3.1-1.7,3.1-3.9s-1-3.9-3.1-3.9-3,1.8-3,3.9S532.9,413.6,535,413.6Z"/><path d="M542.2,413a5.7,5.7,0,0,0,2.7.7c1.6,0,2.2-.8,2.2-1.6,0-2.5-5.1-1.2-5.1-4.7,0-1.8,1.4-3,3.6-3a5.8,5.8,0,0,1,2.8.6l-.5,1.3a4.9,4.9,0,0,0-2.3-.5c-1.4,0-2,.6-2,1.5s5.1,1,5.1,4.6c0,1.7-1.2,3.2-3.9,3.2a6,6,0,0,1-3-.8Z"/><rect class="a" x="97.2" y="237" width="63.9" height="64.71"/><path class="b" d="M113.3,277.5V260.2l-8.6,2.7-1.6-5.1,11.9-4.2h5.8v23.9h6l-.4,5.6H105.5l.4-5.6Z"/><path class="b" d="M131.8,256.2a22.7,22.7,0,0,1,10-2.6c8.1,0,11.3,3.2,11.3,7.2,0,2.4-1,5-4.7,6.7,4,.5,6.4,3.1,6.4,6.5,0,5.7-5.5,9.6-14.1,9.6-4,0-7.3-.8-9.4-2.1l2.2-5.2a20.7,20.7,0,0,0,7.2,1.6c3.6,0,6.1-1.1,6.1-3.6s-3.6-3.3-6.6-3.3a23.8,23.8,0,0,0-3.5.3v-5.7h2.6c3.8,0,6.3-.9,6.3-3.6s-2.2-2.8-4.8-2.8a14.4,14.4,0,0,0-7.1,1.7Z"/><path class="c" d="M238.3,54.8v-26h11.2c7,0,10.6,2.9,10.6,8.5s-3.6,8.8-11.4,8.8h-3.6v8.7Zm6.8-21v7.4h3.2c4.1,0,5-2.3,5-4s-1.9-3.4-4.6-3.4Z"/><path class="c" d="M272.8,34.4c8.2,0,11.1,4.5,11.1,10.3S279.7,55.2,273,55.2s-10.9-4.5-10.9-10.5S266,34.4,272.8,34.4Zm.1,15.9c2.6,0,4.1-2.2,4.1-5.3s-1.1-5.8-4.1-5.8-4,1.7-4,5.2S269.9,50.3,272.9,50.3Z"/><path class="c" d="M287.5,34.8h4.7l1.6,2.7a6,6,0,0,1,5.4-3.1,4.5,4.5,0,0,1,2.3.4l-1,5.1-1.7-.2a6.9,6.9,0,0,0-4.5,1.5V54.8h-6.8Z"/><path class="c" d="M335.1,28.8v5h-7.5v21h-6.7v-21h-7.7v-5Z"/><path class="c" d="M340.9,46.3c.2,1.9,2.4,3.5,5.4,3.5a13,13,0,0,0,5.7-1.2l1.3,4.8a15.8,15.8,0,0,1-7.8,1.8c-6.6,0-11.5-3.2-11.5-10.1s4.2-10.7,10.5-10.7,9.4,4.3,9.4,8.5a18.4,18.4,0,0,1-.4,3.4Zm6.3-3.3a1.7,1.7,0,0,0,.1-.7,2.7,2.7,0,0,0-3-2.9,3.3,3.3,0,0,0-3.5,3.6Z"/><path class="c" d="M382.4,42c0-1.6-.5-2.7-2.5-2.7a5.1,5.1,0,0,0-3.1,1.1V54.8h-6.7V42c0-1.6-.5-2.7-2.6-2.7a5.3,5.3,0,0,0-3.1,1.1V54.8h-6.8v-20h5.1l1.2,1.6a11.3,11.3,0,0,1,6.4-2c2.8,0,4.8.9,5.8,2a9.9,9.9,0,0,1,6.2-2c4.4,0,6.9,2.3,6.9,6.4v14h-6.8Z"/><path class="c" d="M394.1,36.1a21,21,0,0,1,8.2-1.7c7.7,0,9.5,3.4,9.5,8.9V49a1.2,1.2,0,0,0,1.4,1.3h.8l.9,3.8a8.4,8.4,0,0,1-4.2,1.2c-2.7,0-4.3-.9-5.1-2.6-.8,1.3-3.1,2.6-6.1,2.6s-6.6-1.4-6.6-5.6,5.7-6.5,12.1-6.5c0-2.3-.9-3.5-3.7-3.5a14.2,14.2,0,0,0-5.5,1ZM405,46.4c-3,.1-5.4.6-5.4,2.3a2,2,0,0,0,2.2,1.9,4.7,4.7,0,0,0,3.2-1.3Z"/><path class="c" d="M431.6,40.5a14,14,0,0,0-5.8-1.1c-1.9,0-2.7.5-2.7,1.2,0,2.5,10.2.8,10.2,7.5,0,4.3-3.4,7.1-9.9,7.1a16.2,16.2,0,0,1-7.4-1.9l1.4-4.7a16.8,16.8,0,0,0,6.4,1.4c2,0,3.1-.5,3.1-1.4s-10.5-.7-10.5-7.6c0-4.1,3.5-6.6,9.1-6.6a19.3,19.3,0,0,1,7.6,1.4Z"/><path class="a" d="M119,166.3a6.5,6.5,0,0,1,1.4,0,3.6,3.6,0,0,1,3.1,3.9c0,2.5-.1,5-.2,7.6v4.3a3.8,3.8,0,0,1,3.8.6,4.1,4.1,0,0,1,1.6,3.6l1.3-.6a2.6,2.6,0,0,1,.2-3.5,4.3,4.3,0,0,1,4.1-1.4,5.9,5.9,0,0,1,3.4,2.1c0-.9-.1-1.5-.1-2.2-.4-4.2-.7-8.5-1.1-12.7a3.9,3.9,0,0,1,1.8-3.7,3.8,3.8,0,0,1,4.2.1l.3.2a18.5,18.5,0,0,1,1.2-3.3,3,3,0,0,1,3.1-1.4c2.1,0,3.3,1.4,3.7,4.4,1.8-1.1,3.5-1.1,5,.4s1.1,3.3,1,5.1h.7a3.8,3.8,0,0,1,4,3.8c0,1.7-.1,3.5-.2,5.2-.2,3.6-.4,7.2-.8,10.8a19.1,19.1,0,0,1-1.1,4.1c-.3,1.1-.7,2.2-1,3.2a.7.7,0,0,0,.3,1,2.8,2.8,0,0,1,.9,2.2v24.5c0,1.2-.5,1.6-1.7,1.6H101.5c-1.6,0-2-.4-2-2V197a3.6,3.6,0,0,1,1.1-2.9c.2-.1.2-.5.1-.7a10.9,10.9,0,0,0-1.3-1.7,20.3,20.3,0,0,0-2.3-1.8,10,10,0,0,1-2.8-4,17.4,17.4,0,0,0-1.8-3.3c-.7-1-1.4-2-.7-3.2a3.6,3.6,0,0,1,3.2-2.2,5.1,5.1,0,0,1,4.1,1.3l.7.7c-.2-1.7-.3-3.2-.4-4.8-.2-3.3-.5-6.6-.8-10a3.9,3.9,0,0,1,6.1-3.6l.2.2h.2a3.9,3.9,0,0,1,3.8-4.6,2.8,2.8,0,0,1,2.9,1.3,17.5,17.5,0,0,1,1.3,2.8,9,9,0,0,1,1.9-.4,3.7,3.7,0,0,1,4,3.7ZM110.3,206a19,19,0,0,1,2,3.7,10.4,10.4,0,0,0,4,5,6.7,6.7,0,0,1,2.1,2c.5.8.9,1.2,1.9,1.1a1.4,1.4,0,0,1,1.4,1.4,1.3,1.3,0,0,1-1.5,1.3h-1.6c-.2,0-.5.2-.5.4v2.4h19.3v-2.9h-4.7a1.2,1.2,0,0,1-1.4-1.3,1.3,1.3,0,0,1,1.4-1.4c.8.1,1.2-.2,1.4-1.1a3.8,3.8,0,0,1,.3-1,24.5,24.5,0,0,0,1.8-8c.2-3.9.3-7.9.5-11.8a.6.6,0,0,0-.1-.4c0-.5-.4-.8-.9-.9a1.1,1.1,0,0,0-1.1.7,5.7,5.7,0,0,0-.1,1.3c-.1,1.6-.1,3.3-.2,5s-.7,1.6-1.5,1.5-1.3-.7-1.3-1.7c.1-2.6.3-5.1.4-7.7s.1-2.8.2-4.1-.2-1.2-.9-1.3a1.1,1.1,0,0,0-1.2,1,3.1,3.1,0,0,0-.2.8c-.1,1.1-.1,2.1-.2,3.2-.1,2.8-.3,5.6-.5,8.4a1.2,1.2,0,0,1-.8,1.3c-.4.1-1.1.1-1.3-.2a2,2,0,0,1-.6-1.5c-.2-4.9-.3-9.9-.5-14.9,0-.3.1-.6,0-.8a2.7,2.7,0,0,0-1-.9c-.6-.2-1,.3-1.1.8a1.7,1.7,0,0,0-.1.7l-.3,12.1c-.1,1.1-.1,2.3-.2,3.4a1.3,1.3,0,0,1-1.2,1.4,1.4,1.4,0,0,1-1.5-1.3.9.9,0,0,0-.1-.5c-.3-3.7-.6-7.3-1-11a2,2,0,0,0-.2-1.1.9.9,0,0,0-1.1-.7,1,1,0,0,0-.9,1.1v.7c.4,5.5.9,11,1.3,16.5a22.8,22.8,0,0,1,.2,2.6,1.2,1.2,0,0,1-1.2,1.3,1.5,1.5,0,0,1-1.5-.9c0-.2,0-.4-.2-.5l-2.6-3A2.1,2.1,0,0,0,110.3,206Zm22.1-22a16.3,16.3,0,0,1,1.9,3.4,10.2,10.2,0,0,0,4.5,5.5,5.8,5.8,0,0,1,2.6,3.7.7.7,0,0,0,.6.5h13a.7.7,0,0,0,.6-.5c.4-1.1.6-2.3,1.1-3.4a26.9,26.9,0,0,0,1.7-8.8l.3-10.4c0-.2.1-.5,0-.6s-.5-.7-.8-.7a1,1,0,0,0-1,.4,1.7,1.7,0,0,0-.3,1c-.1,1.8-.2,3.6-.2,5.4s-.6,1.6-1.5,1.6-1.3-.7-1.3-1.7c.2-3.2.3-6.3.5-9.5,0-.9.1-1.7.1-2.5a1,1,0,0,0-.9-1.1,1.1,1.1,0,0,0-1.2.8,1.7,1.7,0,0,0-.1.7c-.1,1.7-.2,3.4-.4,5.1s-.2,4.5-.4,6.8a1.4,1.4,0,0,1-1.1,1.4,1.3,1.3,0,0,1-1.5-.9,2.5,2.5,0,0,1-.1-.8c-.2-4.8-.3-9.5-.4-14.3-.1-.4,0-.8-.1-1.2a1.2,1.2,0,0,0-1.1-1.3c-.6,0-1,.5-1.1,1.3v.7c-.2,5-.3,9.9-.4,14.8-.1,1.1-.5,1.6-1.4,1.7s-1.3-.5-1.4-1.6c-.3-2.9-.5-5.8-.8-8.7-.1-1-.2-2.1-.4-3.1a1.6,1.6,0,0,0-.7-1.1.9.9,0,0,0-1.1.3c-.3.2-.3.7-.3,1.1l.9,11.2.6,7.9a1.3,1.3,0,0,1-1,1.6c-.8.2-1.4-.2-1.7-1.1l-.2-.4-2.6-2.9A2.1,2.1,0,0,0,132.4,184Zm-28.8,9.5h11.1l-.3-3.7a3.7,3.7,0,0,1,2.9-3.9,11.3,11.3,0,0,1,2.6,0c.2-1.1.4-2.3.5-3.5.2-4,.3-8.1.4-12.1,0-.2,0-.5-.1-.6s-.5-.7-.8-.7-.8.2-1,.5a1.3,1.3,0,0,0-.2.9l-.3,5.4c0,1.1-.6,1.7-1.4,1.7s-1.3-.7-1.3-1.8.2-3.4.2-5.1l.3-6.6c.1-.7-.1-1.2-.8-1.3a1.2,1.2,0,0,0-1.3,1,2.8,2.8,0,0,0-.1.9c-.3,3.8-.5,7.6-.7,11.4-.1,1-.6,1.5-1.4,1.5s-1.3-.6-1.4-1.6c-.1-5.1-.3-10.1-.4-15.2,0-1.1-.4-1.7-1.1-1.7s-1.1.5-1.2,1.7c-.1,5-.2,10.1-.4,15.1,0,1.1-.5,1.7-1.4,1.7s-1.3-.6-1.4-1.6c-.2-3.1-.5-6.2-.8-9.3a24.8,24.8,0,0,0-.3-2.7,1.5,1.5,0,0,0-.9-1c-.3-.1-.8.2-1.1.5a1.1,1.1,0,0,0-.1,1c.3,4.9.7,9.9,1.1,14.9.2,1.4.3,2.9.4,4.3a1.4,1.4,0,0,1-1.1,1.5,1.4,1.4,0,0,1-1.6-1c-.1-.2-.1-.4-.2-.5l-2.7-3a2.1,2.1,0,0,0-2.9-.3,31.2,31.2,0,0,1,2,3.5,9.7,9.7,0,0,0,4.1,5.2A6.6,6.6,0,0,1,103.6,193.5Zm53.2,29.9V206.9H140.2v16.5Zm-40.4-5-1.8-1.6a10.5,10.5,0,0,1-4.3-5,17.6,17.6,0,0,0-2.4-4.2,2.6,2.6,0,0,1,0-3.2l.9-1.1h-6.5v20.1h13C115.6,221.8,114.8,219.9,116.4,218.4ZM156.9,200H140.3v4h16.6Zm-54.6.4h13l-.4-4.1H103c-.3,0-.7-.2-.7.4Zm13.2,4.3c.2-1.6-.1-1.8-1.6-1.4Zm21.9,13.1v-2h-.1l-.7,2Z"/><path class="a" d="M126.4,220.5a1.3,1.3,0,0,1-1.3-1.4,1.4,1.4,0,0,1,1.4-1.3,1.4,1.4,0,0,1-.1,2.7Z"/><path class="d" d="M165.4,86a26.9,26.9,0,0,0-2-2.7,2.6,2.6,0,0,0-2.7-1,3,3,0,0,0-2.5,2.2,16.7,16.7,0,0,0-.5,3.1c-.1.2.1.4.1.7l.3.9a.9.9,0,0,1-.7,1c-.5.1-.8-.2-1-.7a8.5,8.5,0,0,0-.6-1.7,9.3,9.3,0,0,0-5.7-4.2,14.6,14.6,0,0,0-2.2-.3,21,21,0,0,1-9.2-2.1h-.2v.3a6.4,6.4,0,0,0,6.1,5.2h1.9a.9.9,0,0,1,1,.9c0,.5-.4.8-1,.8s-2.3,0-3.4-.2a7.2,7.2,0,0,1-4.1-2.2c-.1-.1-.3-.2-.4-.4h-.2a14.3,14.3,0,0,0,.8,2.2,7.2,7.2,0,0,0,6.4,4h3.6c.6,0,1,.4.9.9s-.2.8-.7.8c-2.1,0-4.3.3-6.5-.5l-1.6-.6a14.6,14.6,0,0,0,2.7,2.4,13.2,13.2,0,0,0,7,2h2.2c.6,0,.9.3.9.8s-.3.9-1,.8a8.1,8.1,0,0,0-4,.9,16.3,16.3,0,0,1-7.2,1.5h-1.7l3.6,7.1.5-.3,2.9-2.3a9.6,9.6,0,0,1,5.5-1.9,11.7,11.7,0,0,0,6-1.6.8.8,0,0,1,1.2.2c.3.5.2.9-.4,1.2A11.5,11.5,0,0,1,153,105a7.5,7.5,0,0,0-4.8,1.6l-3.7,2.9c-1,.8-1.4.7-2-.5l-4.3-8.5c-.5-.9-.1-1.5.9-1.5l5.5-.3a15.7,15.7,0,0,0,2.8-.6h-.3a14.2,14.2,0,0,1-10-10,14.7,14.7,0,0,1-.4-3.6c-.1-1.5,0-3,0-4.6s.6-1.3,1.4-.8a18.4,18.4,0,0,0,9.6,2.7,11.4,11.4,0,0,1,8.3,3.7l.3.2a3,3,0,0,1,.2-1,4.7,4.7,0,0,1,7-3.4,10.6,10.6,0,0,1,1.5,1.5l1.9,2.4.4.3,1.3-4.2a5.1,5.1,0,0,1-3.4-1.9,4.8,4.8,0,0,1-.9-4,1,1,0,0,1,.9-.9,4.9,4.9,0,0,1,5.6,2.9l.2.4,1.6-1.5c.1-.1.1-.4.2-.5a4.6,4.6,0,0,1,6.5-3.1c.8.3.9.6.8,1.5a4.7,4.7,0,0,1-6.2,3.7c-.1,0-.4-.1-.5,0a13,13,0,0,0-3.5,4.9,7.9,7.9,0,0,1,2-.4,5.6,5.6,0,0,1,1.3,0,1.2,1.2,0,0,1,1,1,5,5,0,0,1-4.3,5.9H169a11,11,0,0,1,.3,1.6.8.8,0,0,1-.1.8,1,1,0,0,1-.8.4.8.8,0,0,1-.7-.7c-.2-1.1-.3-2.3-.5-3.4v-.5a1.2,1.2,0,0,0-1.4,1.3V92a15.1,15.1,0,0,1-.9,4.7.9.9,0,0,1-1.2.7,1,1,0,0,1-.4-1.3,13.2,13.2,0,0,0,.8-4.4,22.5,22.5,0,0,1,0-2.6A3.3,3.3,0,0,1,165.4,86Zm4-6.6a3.2,3.2,0,0,0-3.5-3.5A3.3,3.3,0,0,0,169.4,79.4ZM169,87c-.1.3.1.4.5.4a3.4,3.4,0,0,0,3.1-3.1c0-.4-.1-.5-.5-.5A3.3,3.3,0,0,0,169,87Zm9.3-13.1a2.9,2.9,0,0,0-3.9,2.1A2.8,2.8,0,0,0,178.3,73.9Z"/><path class="d" d="M162.1,99a.8.8,0,0,1,.8.9.9.9,0,0,1-.8.8.8.8,0,0,1-.8-.9A.9.9,0,0,1,162.1,99Z"/><path class="d" d="M162.3,85.6a.9.9,0,0,1-.9.9.9.9,0,0,1-.8-.9.8.8,0,0,1,.9-.8A.9.9,0,0,1,162.3,85.6Z"/><path class="e" d="M193.1,106.3v-2.6a3.2,3.2,0,0,1,2.3-3.1l2.8-.8c.2,0,.3-.1.3-.4h0a2.2,2.2,0,0,0-.6-2,3.3,3.3,0,0,1-.8-2.7,1.3,1.3,0,0,0-.4-1,4.1,4.1,0,0,1-.7-5.1,4.4,4.4,0,0,1,3.3-1.8,8.2,8.2,0,0,1,4.1.5,1.3,1.3,0,0,0,1.7-.2c.3-.4.7-.3,1,.1a4.7,4.7,0,0,1,.8,4,4.6,4.6,0,0,1-1.5,2.6.9.9,0,0,0-.3.7,3.7,3.7,0,0,1-.7,2.9,2.2,2.2,0,0,0-.6,2,.5.5,0,0,0,.4.6l2.7.7a3.2,3.2,0,0,1,2.3,3v5.7c0,.4-.2.7-.6.7s-.5-.3-.5-.7-.1-3.7-.1-5.6a1.9,1.9,0,0,0-1.5-2L204,101c-.3-.1-.4,0-.5.2a2.7,2.7,0,0,1-4.5.1.7.7,0,0,0-.8-.3l-2.5.7a2,2,0,0,0-1.4,2v5.4c0,.1.1.2,0,.3a.5.5,0,0,1-.6.6c-.3,0-.5-.2-.5-.6v-3.1Zm12.3-18.1c-.8.7-1.6.4-2.5.1l-.7-.2a6.5,6.5,0,0,0-3.4-.2,2.8,2.8,0,0,0-2.2,2.1,3.2,3.2,0,0,0,1.1,3l.6-1c.4-.7.5-.7,1.2-.4s2.5.9,3.8-.1a.8.8,0,0,1,1.2.2,3,3,0,0,1,.4.8A3.6,3.6,0,0,0,205.4,88.2Zm-1.7,4.5-1.5.5a5,5,0,0,1-2.7-.3h-.4c-.4.7-1.1,1.3-.8,2.2v.2a3.4,3.4,0,0,0,2.7,2.8h.3a3.3,3.3,0,0,0,2.6-2.6,13.3,13.3,0,0,0,0-2A2.4,2.4,0,0,0,203.7,92.7Zm-4,6.2c-.2,1.1,0,1.8.7,2.2a1.7,1.7,0,0,0,1.7,0c.7-.6.5-1.4.5-2.3A2.8,2.8,0,0,1,199.7,98.9Z"/><path class="e" d="M216.1,93.3l1.4.4a2.8,2.8,0,0,1,2.3,3c0,2.1-.1,4.2-.1,6.3,0,.1.1.3,0,.4s-.2.5-.6.5a.5.5,0,0,1-.5-.5V96.6a1.5,1.5,0,0,0-1.2-1.7l-2.3-.6a2.2,2.2,0,0,1-4-.1l-2.9.9a1.4,1.4,0,0,0-.7,1.3v2.7a.5.5,0,0,1-.6.6.5.5,0,0,1-.5-.5,2.4,2.4,0,0,1,0-1.2,9.7,9.7,0,0,1,0-1.7,2.6,2.6,0,0,1,1.9-2.5l1.7-.5h-1.1c-.5-.1-.7-.2-.7-.7s-.1-3.5,0-5.3a4.9,4.9,0,0,1,9.7.3c.1,1.7,0,3.3,0,4.9s-.2.7-.7.8h-1.1Zm.7-1.2V87.6a3.7,3.7,0,0,0-3.6-3.5,3.5,3.5,0,0,0-3.8,3.3c-.1,1.5,0,3-.1,4.6h1.3a9.4,9.4,0,0,1-.6-1.5,12.1,12.1,0,0,1-.1-1.9,2.1,2.1,0,0,1,.7-1.5,10.5,10.5,0,0,1,.8-1.1.7.7,0,0,1,.5-.3c.2,0,.5.2.5.4a2.6,2.6,0,0,0,1.5,1.4l1.7.6c.4,0,.6.2.6.5s.1,2.3-.8,3.3h1.4Zm-4.9-4.6c-.4.4-.8.7-.8,1.2v1.4a2.1,2.1,0,0,0,1.7,1.8,2,2,0,0,0,2.2-2.1c0-.4,0-.6-.4-.7A5,5,0,0,1,211.9,87.5Zm.3,5.5c-.1.7,0,1,.3,1.2a1.3,1.3,0,0,0,1.2,0,1,1,0,0,0,.2-1.2Z"/><path class="e" d="M191.4,94.3a2.4,2.4,0,0,1-4.2,0l-2.5.7a1.4,1.4,0,0,0-.9,1.5v6.4a.9.9,0,0,1-.1.5c0,.3-.2.5-.5.4s-.4-.2-.6-.4V96.5a2.6,2.6,0,0,1,2-2.7l2.1-.6c.3-.1.3-.2.3-.4a2,2,0,0,0-.4-1.5,2.6,2.6,0,0,1-.7-2.2,1.2,1.2,0,0,0-.3-.9,3.5,3.5,0,0,1-.9-3.6,3.3,3.3,0,0,1,2.9-2.2,6,6,0,0,1,3.5.4,1.2,1.2,0,0,0,1.5-.2c.2-.3.6-.2.9.2a4.1,4.1,0,0,1,.7,3.4,3.7,3.7,0,0,1-1.2,2,.9.9,0,0,0-.3.7,3.6,3.6,0,0,1-1,2.8c-.2.3-.1.9-.1,1.4h.3l2.1.6a2.7,2.7,0,0,1,2,2.7v2.4c0,.5-.3.8-.6.8s-.6-.3-.6-.8V96.6a1.5,1.5,0,0,0-1.2-1.7l-2-.6Zm1.1-7.3a2.9,2.9,0,0,0,.3-3.1,2.1,2.1,0,0,1-1.9,0,5.9,5.9,0,0,0-3.2-.3,2.1,2.1,0,0,0-1.9,1.3,2.4,2.4,0,0,0,.7,2.6,4.3,4.3,0,0,1,.4-.7c.3-.7.5-.7,1.1-.4a2.7,2.7,0,0,0,3.1-.1c.3-.3.8-.1,1.1.2S192.3,86.9,192.5,87Zm-1.2.5a3.5,3.5,0,0,1-3.3.2h-.2a3.4,3.4,0,0,0-.7,1.1,2.5,2.5,0,0,0,1.4,2.8,1.5,1.5,0,0,0,1.6,0C191.6,90.6,191.8,89.5,191.3,87.5Zm-.9,5.2a2.8,2.8,0,0,1-2.2,0,1.4,1.4,0,0,0,.5,1.5,1.1,1.1,0,0,0,1.2,0C190.5,93.9,190.4,93.3,190.4,92.7Z"/><path class="e" d="M206.3,81v3.1a.5.5,0,0,0,.4.6,2.6,2.6,0,0,1,1,1.3c.2.5.1.8-.2.9a.5.5,0,0,1-.8-.4,1.8,1.8,0,0,0-1.1-1l-2.1-.6-.4.2c-.7,1.4-3.2,1.4-3.8,0l-.4-.2-2.1.6a1.4,1.4,0,0,0-1.2,1.5v.3a.6.6,0,0,1-.6.5c-.3-.1-.5-.2-.5-.6a2.5,2.5,0,0,1,1.2-2.5c.3-.2.4-.3.4-.6-.1-2-.1-4.1,0-6.1a5.2,5.2,0,0,1,5.2-5.2,5.2,5.2,0,0,1,5,5V81Zm-9.1,3.2,1.6-.5h.2a1.7,1.7,0,0,0-.2-1.2,4,4,0,0,1-.8-1.6,7.1,7.1,0,0,1-.1-1.5c0-.7.1-.8.8-1s2.6-.7,3.2-2.1a.7.7,0,0,1,.5-.3.9.9,0,0,1,.5.3,4.4,4.4,0,0,1,.8,1.1,3.7,3.7,0,0,1,.7,1.2,10.5,10.5,0,0,1-.1,2.5,1.7,1.7,0,0,1-.7,1.3c-.3.4-.2.8-.3,1.2a.2.2,0,0,0,.2.2l1.6.5h0c0-2.2.1-4.3,0-6.4a3.8,3.8,0,0,0-3.9-3.7,4,4,0,0,0-4,4.1v6.1Zm5.2-6.5a5.3,5.3,0,0,1-2.6,1.5c-.7.3-.7.3-.7,1.1a2,2,0,0,0,2,2,2,2,0,0,0,2.2-1.9v-.9A1.8,1.8,0,0,0,202.4,77.7Zm-2.2,5.7c0,.5-.2,1.1.4,1.4a1.5,1.5,0,0,0,1.3,0c.4-.4.3-.9.3-1.4Z"/><path class="a" d="M239.5,77.6h.7a2,2,0,0,1,1.7,2.2c0,1.3-.1,2.7-.1,4v2.4a2.1,2.1,0,0,1,2,.3,2.2,2.2,0,0,1,.9,2l.7-.4a1.5,1.5,0,0,1,.1-1.9,2.6,2.6,0,0,1,2.2-.7,2.9,2.9,0,0,1,1.8,1.1V85.5l-.6-6.9a2.1,2.1,0,0,1,1-2,2,2,0,0,1,2.2,0h.2a11.5,11.5,0,0,1,.6-1.7,1.9,1.9,0,0,1,1.7-.8c1.1,0,1.8.8,2,2.4a2,2,0,0,1,2.7.2c.8.8.6,1.8.6,2.8h.4a1.9,1.9,0,0,1,2.1,2c0,.9-.1,1.9-.1,2.8s-.2,3.9-.4,5.9a11.1,11.1,0,0,1-.7,2.2,10.9,10.9,0,0,1-.5,1.7.4.4,0,0,0,.2.5,1.7,1.7,0,0,1,.5,1.2v13.2c0,.7-.3.9-1,.9H230c-.9,0-1.1-.2-1.1-1.1V94.2a1.7,1.7,0,0,1,.6-1.5.6.6,0,0,0,.1-.4,3.1,3.1,0,0,0-.7-.9l-1.3-1a5.7,5.7,0,0,1-1.5-2.2,16.2,16.2,0,0,0-1-1.8c-.3-.5-.7-1-.4-1.7a2.3,2.3,0,0,1,1.8-1.2,3,3,0,0,1,2.2.8l.4.3c-.1-.9-.1-1.7-.2-2.5s-.3-3.7-.5-5.5a2,2,0,0,1,1.1-2,2,2,0,0,1,2.2.1h.2a2.4,2.4,0,0,1,.9-2.1l1.2-.5a1.8,1.8,0,0,1,1.6.8c.3.4.4,1,.7,1.5l1-.3a2,2,0,0,1,2.1,2A6.6,6.6,0,0,1,239.5,77.6Zm-4.7,21.5c.3.7.8,1.3,1.1,2a5.1,5.1,0,0,0,2.1,2.7,5.7,5.7,0,0,1,1.1,1.1c.3.4.5.6,1,.6a.7.7,0,0,1,.8.7.7.7,0,0,1-.8.7h-.9c-.1.1-.2.2-.2.3a5.6,5.6,0,0,0,0,1.3h10.4v-1.6h-2.6a.7.7,0,0,1-.7-.7.6.6,0,0,1,.7-.7.7.7,0,0,0,.8-.6,1.4,1.4,0,0,1,.2-.6,12.7,12.7,0,0,0,.9-4.3l.3-6.4v-.2a.6.6,0,0,0-.5-.5.7.7,0,0,0-.6.4,2,2,0,0,0-.1.7c0,.9-.1,1.8-.1,2.7s-.4.9-.8.8-.7-.3-.7-.9.1-2.8.2-4.1.1-1.5.1-2.3-.1-.6-.5-.6-.5.1-.6.5a.6.6,0,0,0-.1.4c0,.6-.1,1.2-.1,1.7l-.3,4.6c0,.3-.1.6-.4.6h-.7a1.5,1.5,0,0,1-.4-.8c-.1-2.7-.1-5.4-.2-8.1a.6.6,0,0,0-.1-.4c-.1-.2-.3-.5-.5-.5s-.5.1-.6.4v.4c-.1,2.2-.1,4.4-.2,6.5a11.5,11.5,0,0,1-.1,1.9.7.7,0,0,1-.7.7c-.4.1-.7-.2-.7-.7a.3.3,0,0,1-.1-.2c-.1-2-.3-4-.5-6,0-.2-.1-.4-.1-.6a.7.7,0,0,0-.6-.4c-.4.1-.5.3-.5.6v.4c.2,3,.5,6,.7,8.9,0,.5.1,1,.1,1.4a.7.7,0,0,1-.6.7.6.6,0,0,1-.8-.5v-.2l-1.5-1.6A1,1,0,0,0,234.8,99.1Zm11.9-11.9a11.4,11.4,0,0,1,1,1.9,5.7,5.7,0,0,0,2.4,2.9,3.7,3.7,0,0,1,1.5,2,.3.3,0,0,0,.3.3h7a.3.3,0,0,0,.3-.3l.6-1.8a13.6,13.6,0,0,0,.9-4.8c.1-1.8.1-3.7.2-5.6v-.3c-.1-.2-.3-.4-.4-.4l-.6.2a1.3,1.3,0,0,0-.1.6c-.1,1-.1,1.9-.2,2.9s-.3.9-.8.8-.7-.3-.7-.9l.3-5.1V78.2c0-.3-.1-.5-.4-.5a.6.6,0,0,0-.7.4.6.6,0,0,1-.1.4c0,.9-.1,1.8-.1,2.7l-.3,3.7c0,.4-.2.7-.6.7a.7.7,0,0,1-.8-.4v-.5l-.3-7.7v-.6c0-.5-.2-.7-.6-.7s-.6.2-.6.7v.4c-.1,2.6-.1,5.3-.2,7.9,0,.6-.3.9-.7.9s-.8-.2-.8-.8-.3-3.1-.5-4.7a9.7,9.7,0,0,0-.1-1.7,1.5,1.5,0,0,0-.5-.6c-.1-.1-.4,0-.5.2s-.2.4-.2.6c.2,2,.3,4,.5,6l.3,4.3a.8.8,0,0,1-.5.9.9.9,0,0,1-.9-.6V89l-1.4-1.6A1.1,1.1,0,0,0,246.7,87.2Zm-15.6,5.1h6c0-.6-.1-1.3-.1-2a1.9,1.9,0,0,1,1.5-2.1,6.5,6.5,0,0,1,1.4,0,11.3,11.3,0,0,0,.3-1.8c.1-2.2.2-4.4.2-6.6v-.3c-.1-.1-.3-.4-.5-.4a.7.7,0,0,0-.5.3.7.7,0,0,0-.1.5c-.1,1-.1,1.9-.2,2.9s-.3.9-.7.9a.7.7,0,0,1-.7-.9c0-1,.1-1.9.1-2.8s.1-2.4.2-3.6a.6.6,0,0,0-.5-.7c-.3-.1-.6.2-.7.6a1.1,1.1,0,0,1-.1.5l-.3,6.1c-.1.5-.4.8-.8.8s-.7-.3-.7-.9l-.3-8.1c0-.7-.2-1-.5-1s-.6.3-.7.9c-.1,2.8-.1,5.5-.2,8.2,0,.6-.3.9-.8.9s-.7-.3-.7-.9-.3-3.3-.4-5-.1-.9-.2-1.4a1.5,1.5,0,0,0-.5-.6l-.6.3c-.1.1-.1.4-.1.5.2,2.7.5,5.4.7,8.1,0,.7.1,1.5.1,2.3s-.2.7-.6.8-.6-.1-.8-.5a.4.4,0,0,0-.1-.3l-1.5-1.6a1.1,1.1,0,0,0-1.5-.2l1.1,1.9a5.4,5.4,0,0,0,2.1,2.8A3.4,3.4,0,0,1,231.1,92.3Zm28.8,16.2V99.6h-9v8.9Zm-21.8-2.7-1-.9a6.3,6.3,0,0,1-2.4-2.7,10.1,10.1,0,0,0-1.2-2.3,1.2,1.2,0,0,1,0-1.7l.4-.6h-3.4v10.9h6.9C237.6,107.6,237.2,106.6,238.1,105.8Zm21.8-10h-9V98h9Zm-29.5.3h7l-.2-2.3h-6.4c-.2,0-.4,0-.4.3Zm7.2,2.3c.1-.9-.1-1-.9-.7Zm11.8,7v-1h-.1l-.3,1Z"/><path class="a" d="M243.5,106.9a.7.7,0,0,1-.8-.7.8.8,0,0,1,.8-.7.7.7,0,0,1,0,1.4Z"/><path class="f" d="M328.7,93a2.3,2.3,0,0,1-3.6-.7l-.8.8v.4a2.9,2.9,0,0,1-1.6,3.1,2.8,2.8,0,0,1-3.4-.6q-3.2-3-6.3-6.3a2.7,2.7,0,0,1-.5-3.3,2.8,2.8,0,0,1,3-1.6.9.9,0,0,0,.7-.3l8.3-8.3c.2-.2.3-.3.2-.6a3,3,0,0,1,1.6-3,2.7,2.7,0,0,1,3.4.5l6.3,6.3a2.9,2.9,0,0,1,.5,3.4,3.2,3.2,0,0,1-3.1,1.6c-.1-.1-.3,0-.5.1l-.7.6a2.7,2.7,0,0,1,1.3,1.7,2.3,2.3,0,0,1-.6,1.9l3,2.6,8.4,7.4,3.9,3.4a4.4,4.4,0,0,1,1.4,5.1,4.4,4.4,0,0,1-7.1,1.6c-1.3-1.3-2.4-2.7-3.6-4-3.3-3.9-6.7-7.8-10.1-11.6A.3.3,0,0,0,328.7,93Zm3-9.5-6.1-6.1-8.3,8.2,6.2,6.2ZM341,97.7l-9.1-7.9-2.2,2.1,8,9.2,2.6-2.7Zm-.4,6.7,2.7,3.1a2.9,2.9,0,0,0,4.3.1,2.8,2.8,0,0,0-.2-4.2l-2.3-2.1-.7-.6Zm-5.2-23a2,2,0,0,0-.6-1.2l-3-2.9c-1-1.1-2-2.1-3.1-3.1a1.5,1.5,0,0,0-2.3.2,1.4,1.4,0,0,0,.3,1.9l4.4,4.4,1.8,1.8a1.4,1.4,0,0,0,1.6.3A1.6,1.6,0,0,0,335.4,81.4ZM321.3,95.5l.7-.2a1.5,1.5,0,0,0,.4-2.4l-2.3-2.3-3.9-3.9a1.4,1.4,0,0,0-2.1,0,1.3,1.3,0,0,0,0,2q3,3.1,6.3,6.3Zm10.8-8.4c-.2-.2-.3-.5-.5-.6a.7.7,0,0,0-.9.2l-4,4.1a.7.7,0,0,0-.1,1.1.8.8,0,0,0,1.1-.1l4-4A1.6,1.6,0,0,0,332.1,87.1Zm11.1,12.5-1-.9-3.5,3.5.9,1Z"/><path class="f" d="M314,105.3a11,11,0,0,1-.3-1.6,2.4,2.4,0,0,1,2.4-2.5c4.3-.1,8.5-.1,12.8,0a2.5,2.5,0,0,1,2.1,3.7c0,.1-.1.2-.1.3l.5.4a4.2,4.2,0,0,1,1.4,3.8c0,.3-.3.5-.7.6H313.2c-.8,0-1-.2-1-1A3.7,3.7,0,0,1,314,105.3Zm17.3,3.2v-.2a2.2,2.2,0,0,0-2.3-2H315.3a2,2,0,0,0-1.6,2.1Zm-8.8-5.9h-6.2a1.1,1.1,0,1,0,0,2.2h11.3a4,4,0,0,0,1.1,0,1.1,1.1,0,0,0,1.1-.7,1.1,1.1,0,0,0-1.2-1.5Z"/><path class="f" d="M322.4,84.4c-.2-.2-.5-.3-.6-.6a.9.9,0,0,1,.1-.7c.1-.3.3-.4.5-.6l2.5-2.5c.4-.4.8-.5,1.2-.1s.3.7-.2,1.1L323,84Z"/><path class="f" d="M321.1,85.6a.7.7,0,0,1-.7.7.7.7,0,0,1-.8-.7.7.7,0,0,1,.7-.7A.8.8,0,0,1,321.1,85.6Z"/><path class="g" d="M387,84.4c-.1,2-.1,4-.3,6a21.6,21.6,0,0,1-4,10.9,24.3,24.3,0,0,1-9.2,7.9l-2.2.7a3.1,3.1,0,0,1-2.3-.3,24.9,24.9,0,0,1-6.5-4.2,22.9,22.9,0,0,1-7.1-11.9,24.6,24.6,0,0,1-.7-6V79.8c0-.7.1-.9.8-1.1a55.9,55.9,0,0,0,8.9-3.3c1.8-.8,3.6-1.8,5.4-2.8a1.8,1.8,0,0,1,2,0,57,57,0,0,0,12.6,5.6l1.7.5c.6.2.8.4.8,1v4.7Zm-1.7.9V80.6c0-.4-.1-.5-.5-.6a61.6,61.6,0,0,1-13.7-5.9h-.6L366.9,76a55.3,55.3,0,0,1-10.2,4c-.3.1-.4.2-.4.6v6.9a23.4,23.4,0,0,0,1.3,7.9,21.9,21.9,0,0,0,11.2,12.3,3.5,3.5,0,0,0,3.4.3,22.3,22.3,0,0,0,6.9-4.9A20.9,20.9,0,0,0,385,91.6,44.3,44.3,0,0,0,385.3,85.3Z"/><path class="g" d="M368.4,92.4l.3-.5,7.3-7.3a2.7,2.7,0,0,1,3.3-.6,2.4,2.4,0,0,1,.7,3.8c-1,1.2-2.1,2.2-3.2,3.3l-6.5,6.6a2.6,2.6,0,0,1-2.9.7,3,3,0,0,1-1.1-.6l-4.5-4.6a2.5,2.5,0,0,1,2-4.4,2.6,2.6,0,0,1,1.8.9l2.4,2.4Zm-4.8-2.1c-.3.1-.5.1-.7.3s-.5,1,.1,1.5,2.9,3,4.4,4.4,1.1.7,1.7,0l8.3-8.3a8,8,0,0,0,1.3-1.3,1,1,0,0,0-1.4-1.4l-.3.4-8,8c-.6.5-.9.5-1.5-.1s-2.1-2-3.1-3.1Z"/><path class="g" d="M357.8,83.4V82c0-.5.2-.7.7-.9l4.1-1.5a.8.8,0,0,1,1.1.5c.2.4,0,.8-.6,1l-3.3,1.2a.5.5,0,0,0-.4.5v2c0,.6-.3.9-.7.9a.8.8,0,0,1-.9-.9Z"/><path class="g" d="M375,104.5c-.2-.2-.5-.3-.6-.5a1.1,1.1,0,0,1,.1-.8c0-.2.3-.4.5-.5a27.2,27.2,0,0,0,4-4.3c0-.1.1-.2.1-.3s.8-.5,1.2-.2a.8.8,0,0,1,.1,1.1,21.5,21.5,0,0,1-1.8,2.4,37.1,37.1,0,0,1-2.9,2.7Z"/><path class="g" d="M373.1,105.7a.8.8,0,0,1-.8-.8.9.9,0,0,1,.9-.8.8.8,0,0,1,.7.8A.8.8,0,0,1,373.1,105.7Z"/><path class="g" d="M365.2,80.2a.9.9,0,0,1-.7-.9.8.8,0,0,1,.8-.7.9.9,0,0,1,.8.8A.9.9,0,0,1,365.2,80.2Z"/><path class="h" d="M456.5,101.7l-.8.7-1.3-1.5c-.1-.1-.1-.4-.1-.6v-.7a9.6,9.6,0,0,1-5.3,0c0,.1-.1.2,0,.3a1.9,1.9,0,0,1-.7,1.7l-3.9,4.4-.3.3a.6.6,0,0,0,0,.8.5.5,0,0,0,.8-.1,37,37,0,0,0,2.8-2.8l1.8-1.7.5-.3h3.2a.5.5,0,0,1,.5.3l4.5,4.4c.1,0,.1.1.2.2a.5.5,0,0,0,.7,0,.5.5,0,0,0,.1-.8l-1-1-.3-.4.8-.7,1.4,1.5a1.7,1.7,0,0,1-.2,2.2,1.6,1.6,0,0,1-2.3-.1l-4.3-4.2-.6-.3h-2.1a.9.9,0,0,0-.7.3l-4.1,4.2a1.7,1.7,0,0,1-2.5-2.3l4.2-4.6c.5-.6.3-1.1.3-1.7s-.1-.1-.2-.2a8.2,8.2,0,0,1-3.8-3.8.5.5,0,0,0-.5-.3,1.8,1.8,0,0,0-1.7.6l-4.4,3.9a1.6,1.6,0,0,1-2.6-.4,1.6,1.6,0,0,1,.4-2l3.1-3.2a3.7,3.7,0,0,0,1.2-1.3c.3-.5.1-1.2.1-1.8a2.1,2.1,0,0,0-.7-1.8l-3.8-3.7a1.7,1.7,0,0,1,.7-2.8,1.7,1.7,0,0,1,1.7.4l4.7,4.3a2.2,2.2,0,0,0,1.6.2c.1,0,.1-.2.2-.2a7.8,7.8,0,0,1,3.8-3.8c.2-.1.2-.3.3-.5a1.9,1.9,0,0,0-.7-1.7L446,79.7l.8-.7,1,1.1.2.2a2.3,2.3,0,0,1,.9,2.4,8.3,8.3,0,0,1,5.4,0v-.4a1.9,1.9,0,0,1,.6-1.6l3.9-4.3.3-.4c.2-.3.3-.6,0-.9s-.5-.1-.8.1l-2.2,2.3-2.4,2.3-.5.2h-3.1l-.6-.2L445,75.3l-.3-.2h-.6a.5.5,0,0,0,0,.7l1.1,1.3.9,1-.8.7c-.8-.8-1.5-1.7-2.2-2.5l-.2-.4a1.6,1.6,0,0,1,2.5-1.8l.5.4,4.1,4.1.6.2h2.1a.7.7,0,0,0,.6-.3l4.2-4.1a1.6,1.6,0,0,1,2-.4,1.6,1.6,0,0,1,.4,2.6c-1.3,1.6-2.7,3.2-4.1,4.7s-.3,1.1-.4,1.6l.3.2a8.9,8.9,0,0,1,3.8,3.9l.4.2a1.8,1.8,0,0,0,1.7-.5l4.5-4a1.6,1.6,0,0,1,2-.2,1.6,1.6,0,0,1,.7,1.7,2.7,2.7,0,0,1-.6,1l-4.1,4.1a.9.9,0,0,0-.3.7,6.7,6.7,0,0,1,0,2,.9.9,0,0,0,.3.7l4.2,4.2a1.6,1.6,0,0,1,.5,1.7,1.7,1.7,0,0,1-2.8.7l-4.7-4.2a3,3,0,0,0-1.6-.3l-.2.3a9.3,9.3,0,0,1-3.8,3.8.5.5,0,0,0-.3.5,1.7,1.7,0,0,0,.6,1.6Zm-5.7-2.8a4.3,4.3,0,0,1,.5-3,2,2,0,0,1,2.5-1.1l3.2,1.3a.6.6,0,0,0,.7-.1,8.7,8.7,0,0,0,1.7-4.7,7.8,7.8,0,0,0-7-7.9.5.5,0,0,0-.5.3,3.9,3.9,0,0,0,.9,3.9L454,89a3.1,3.1,0,0,1,.5,1c.4,1-1,3.2-2.7,2.7l-1.1-.4-1.9-1a3.4,3.4,0,0,0-1.7-.5,10.7,10.7,0,0,0-3,.6c-.2.1-.2.2-.2.4a7.6,7.6,0,0,0,4.9,6.5A9.5,9.5,0,0,0,450.8,98.9Zm-.1-15.4a7.5,7.5,0,0,0-6.7,6.7l.9-.2a5.5,5.5,0,0,1,5,.6l1.9,1c.6.2.9.1,1.3-.5a1,1,0,0,0,0-1.4l-1-1.2a4.7,4.7,0,0,1-1.4-2.9A14.7,14.7,0,0,1,450.7,83.5Zm-7.6,4.9h-.6a1.4,1.4,0,0,1-1.1-.5l-4.7-4.2-.3-.3a.6.6,0,0,0-.7.1c-.3.3-.2.5,0,.8l.2.2,4.4,4.4a1.1,1.1,0,0,1,.2.6v3.1a1.4,1.4,0,0,1-.2.6,25,25,0,0,0-2.3,2.3l-2.3,2.2c-.2.3-.3.5,0,.8s.5.2.7,0,.3-.2.4-.3l4.7-4.2a1.4,1.4,0,0,1,.9-.3h.7c-.1-1-.3-1.8-.3-2.7S443,89.4,443.1,88.4Zm17,5.4h.6a1.4,1.4,0,0,1,1.2.4c1.5,1.5,3.1,2.9,4.7,4.3l.4.2h.6a.8.8,0,0,0,0-.7l-.2-.2c-1.5-1.5-2.9-3-4.4-4.4l-.3-.6V89.5c.1-.2.1-.4.3-.5l1.7-1.8a37,37,0,0,0,2.8-2.8.5.5,0,0,0,.1-.8.6.6,0,0,0-.8,0l-.3.2c-1.4,1.4-2.9,2.7-4.4,4a1.9,1.9,0,0,1-1.7.7h-.3A9.5,9.5,0,0,1,460.1,93.8Zm-3.6,3.3a12.5,12.5,0,0,0-3-1.2.9.9,0,0,0-1,.2,3.2,3.2,0,0,0-.6,2.5.3.3,0,0,0,.3.3A7.8,7.8,0,0,0,456.5,97.1Z"/><path class="h" d="M470.5,88.6v5h-3.6c-.4-.4-1.1-.7-1.2-1.2a4.5,4.5,0,0,1,0-2.3c.1-.5.8-.9,1.2-1.3h3.6Zm-1.1,1.1h-1.7l-.5.3a1.4,1.4,0,0,0-.6,1.4c.1.3.6,1.1.9,1.1h1.9Z"/><path class="h" d="M451.6,77.2h-.8a1.5,1.5,0,0,1-1.6-1.5,6.7,6.7,0,0,1,0-2,1.6,1.6,0,0,1,1.6-1.5h1.7a1.6,1.6,0,0,1,1.6,1.6,5.4,5.4,0,0,1,0,1.8,1.6,1.6,0,0,1-1.7,1.6Zm.1-3.9h-.8a.5.5,0,0,0-.6.6,4.3,4.3,0,0,0,0,1.6c0,.4.2.6.5.6h1.6a.5.5,0,0,0,.6-.6v-.8C453,73.3,453,73.3,451.7,73.3Z"/><path class="h" d="M437.7,91.3c.2.6-.2,1.1-.7,1.6a2.7,2.7,0,0,1-1.7.8,2.6,2.6,0,0,1-1.9-.8,2.2,2.2,0,0,1-.7-1.7,2.2,2.2,0,0,1,.8-1.9,2.2,2.2,0,0,1,1.7-.7,2.4,2.4,0,0,1,1.9.8C437.7,90.1,437.7,90.1,437.7,91.3Zm-1.1-.2a1.3,1.3,0,0,0-1.3-1.4,1.3,1.3,0,0,0-1.5,1.3c0,1,.5,1.5,1.4,1.5A1.3,1.3,0,0,0,436.6,91.1Z"/><path class="h" d="M451.7,110a2.5,2.5,0,1,1-.1-5,2.5,2.5,0,0,1,.1,5Zm1.3-2.5a1.4,1.4,0,0,0-1.4-1.4c-.7.1-1.4.7-1.3,1.4a1.3,1.3,0,0,0,1.3,1.4A1.4,1.4,0,0,0,453,107.5Z"/><path class="h" d="M457.2,104l-.8-.8.8-.7.8.8Z"/><path class="h" d="M456.7,88.9h1.1v1h-1.1Z"/><path class="h" d="M456.7,86.7v1h-1.1v-1Z"/><path class="i" d="M409.8,95.2h-5.9v13.3c0,1.2-.4,1.5-1.5,1.5h-3.9c-.8,0-1.2-.4-1.2-1.3V81a1.2,1.2,0,0,0-.4-.9,4.7,4.7,0,0,1-.5-5.4,4.8,4.8,0,0,1,4.8-2.4,4.7,4.7,0,0,1,4.1,3.9,4.9,4.9,0,0,1-1.1,4,.9.9,0,0,0-.3,1h11.9a4,4,0,0,1,4.3,4.3v.8h5.3a1.3,1.3,0,0,1,1.4,1.4V99c0,.9-.4,1.3-1.4,1.3H414a4,4,0,0,1-4.2-4.2ZM403.9,93h7.3a37.5,37.5,0,0,1,6.7.2V85.5a1.9,1.9,0,0,0-2.1-2.1H403.9Zm-2.3,14.8v-26h-2.1v26Zm22.9-9.7v-.2c0-3,0-6,.1-9.1,0-.2-.2-.3-.4-.3h-4.1v.5c-.1,3,.2,6-.1,9ZM400.6,79.6a2.6,2.6,0,0,0,2.6-2.6,2.8,2.8,0,0,0-2.6-2.6A2.6,2.6,0,0,0,398,77,2.6,2.6,0,0,0,400.6,79.6ZM412,95.2v1.1a1.8,1.8,0,0,0,1.8,1.8h2.6a1.4,1.4,0,0,0,1.5-1.5,1.5,1.5,0,0,0-1.5-1.4H412Z"/><path class="j" d="M479.6,83.3V81.6a1,1,0,0,1,.7-1.1,17.3,17.3,0,0,1,11-.5,20.1,20.1,0,0,1,6.1,2.9.4.4,0,0,0,.6,0,20.7,20.7,0,0,1,9.2-3.5,16,16,0,0,1,7.8,1.1c.7.2.8.5.8,1.2v1.6h2.4c.8.1,1.1.4,1.1,1.2v24.3c0,.9-.3,1.2-1.2,1.2H477.3c-.9,0-1.2-.3-1.2-1.2V84.6c0-1,.3-1.3,1.2-1.3Zm1.8,21.6c5.5-1.6,10.6-.5,15.4,2.4V85c0-.2,0-.4-.3-.5s-2.5-1.5-3.9-2.1a15.8,15.8,0,0,0-10.7-.6c-.4.2-.5.3-.5.7v22.4Zm32.6,0V82.4c0-.3,0-.4-.3-.5s-2.4-.6-3.6-.7A17.6,17.6,0,0,0,499,84.4a.8.8,0,0,0-.4.7v22.2C503.5,104.4,508.5,103.3,514,104.9ZM478,85.2v23h16.5l-.2-.2c-4.3-2.1-8.8-2.8-13.4-.9H480c-.4-.2-.4-.6-.4-1V85.2Zm37.8,0v21.1a.9.9,0,0,1-1.2.8l-1-.4a15.5,15.5,0,0,0-10.4.4l-2.2,1h16.5v-23Z"/><path class="k" d="M269.6,92.6A17.4,17.4,0,1,1,286.9,110,17.4,17.4,0,0,1,269.6,92.6ZM287,109a16.4,16.4,0,1,0-16.4-16.4A16.4,16.4,0,0,0,287,109Z"/><path class="k" d="M280.6,92.2a9.1,9.1,0,0,1-2-3.2,10.5,10.5,0,0,1-.6-2.4c-.2-.6.1-.9.7-.8l2.2.6h.4L278.8,82c-.7.7-1.4,1.3-2,2a13.3,13.3,0,0,0-3,6.6c-.1.2-.1.4-.4.5a.5.5,0,0,1-.6-.6,14.3,14.3,0,0,1,.4-2.2,14.9,14.9,0,0,1,5.3-7.3c.5-.4.8-.3,1.1.2,4.3,7.9,8.6,15.9,13,23.8.3.5.2.8-.4,1A14.3,14.3,0,0,1,273,95.8a15.4,15.4,0,0,1-.4-3c0-.4.2-.6.5-.6s.5.2.5.6a13,13,0,0,0,7,11.5,12.7,12.7,0,0,0,10.6.9h.3l-4-7.1h0v5.1a.6.6,0,0,1-.6.5c-.3,0-.4-.2-.5-.5V97.9l-.3.4a5.7,5.7,0,0,1-3.5,2c-.5.1-.8-.1-.7-.6a14.6,14.6,0,0,1,.5-2l.2-.3h-1.3a10.1,10.1,0,0,1-6.5-2.1c-.5-.4-.5-.7,0-1.1a9.1,9.1,0,0,1,5.2-2Zm5.3,2.7c-.1-.2-.3-.3-.4-.4a9.1,9.1,0,0,0-9.4.1l-.3.2A8.9,8.9,0,0,0,285.9,94.9Zm-1.1-2-2.6-4.6a.2.2,0,0,0-.2-.2l-2.3-1h-.6a9,9,0,0,0,3,5.1h.2Zm1.4,3.1a6.6,6.6,0,0,1-1.5.7,2.1,2.1,0,0,0-1.1,1,3.4,3.4,0,0,0-.6,1.5A5.1,5.1,0,0,0,286.2,96Z"/><path class="k" d="M286.6,78.3a14.4,14.4,0,0,1,14.5,11.9,13.9,13.9,0,0,1-5.7,14c-.5.4-.8.3-1.1-.2-4.3-7.9-8.6-15.8-13-23.7-.3-.6-.2-.8.4-1A13,13,0,0,1,286.6,78.3Zm-1.7,6.3a5.7,5.7,0,0,1,.4-1.4l1.2-2.4c.2-.4.6-.3.9,0l.3.5a14.2,14.2,0,0,1,1.7,5.4c.1.6.1,1.2.2,1.8l.2-.2a10.3,10.3,0,0,1,5.4-2.5c.6,0,.8.2.8.7a9.7,9.7,0,0,1-2.5,5.4l-.2.3h.3a10.2,10.2,0,0,1,5.6,2.2q.6.4,0,.9l-1.3.9a.5.5,0,0,1-.8-.2.6.6,0,0,1,.3-.7l.7-.4a8.9,8.9,0,0,0-8.2-1.1l1.2,2.1c.1.3.3.4.6.5a11.4,11.4,0,0,0,3.7-.3c.4-.1.7,0,.8.4a.7.7,0,0,1-.5.6,9.6,9.6,0,0,1-3.4.3h-.4l3.1,5.8a13.3,13.3,0,0,0-12.6-23.1Zm10,2.4h-.3a9.1,9.1,0,0,0-5.9,4.2v.4l.6,1c.1.2.2.2.4.2l1.8-.5.4-.2a8.2,8.2,0,0,0,2.3-3.2A10.7,10.7,0,0,0,294.9,87ZM287,82.1h-.1l-.2.4c-.3,1.1-.7,2.1-1,3.2a.7.7,0,0,0,.1.6l2,3.7.2.3a1.6,1.6,0,0,0,.5-1.1,17.1,17.1,0,0,0-.9-5.5A7.6,7.6,0,0,0,287,82.1Z"/></svg>