<svg xmlns="http://www.w3.org/2000/svg" width="660" height="500" viewBox="0 0 660 500"><defs><style>.a{fill:#07a0b9;}.b,.e{fill:#223749;}.b{opacity:0.79;}.c{fill:#d1ede5;}.d{fill:#fff;}.f{fill:#409195;}.g{fill:#9ab63a;}.h{fill:#d2a206;}.i{fill:#6698ac;}.j{fill:#5e788f;}.k{fill:#384f64;}.l{fill:#d58116;}.m{fill:#478335;}</style></defs><path class="a" d="M185.9,148.4h4.3v13.3H197v3.2h-11Z"/><path class="a" d="M202.7,159.5c.1,1.2,1.5,2.2,3.4,2.2a7.4,7.4,0,0,0,3.6-.8l.9,3.1a11.2,11.2,0,0,1-5,1.1c-4.2,0-7.3-2-7.3-6.4s2.6-6.8,6.7-6.8,5.9,2.7,5.9,5.4a15.9,15.9,0,0,1-.2,2.2Zm4-2.1v-.5a1.8,1.8,0,0,0-1.9-1.9,2.2,2.2,0,0,0-2.2,2.4Z"/><path class="a" d="M225.8,152.1v3.3l-2.6-.2a2.9,2.9,0,0,1,.5,1.4c0,1.4-.8,4.5-5.7,4.5h-.8c0,.1-.2.2-.2.5s.4.3,1.3.3c3.5,0,6.5.9,6.5,3.7s-2.5,4.6-6.7,4.6-5.9-1.2-5.9-3.7,2.7-3.4,2.7-3.4-1.1-.8-1.1-1.8l1-1a3.8,3.8,0,0,1-2.3-3.8c0-2.2,1.7-4.6,5.5-4.6a17.2,17.2,0,0,1,2.9.3Zm-8.7,12.7a1.4,1.4,0,0,0-.9,1.2c0,.8.9,1.4,2.1,1.4s2.3-.6,2.3-1.5-.8-1.1-2.2-1.1Zm-.7-8.3a1.6,1.6,0,0,0,1.7,1.7,1.7,1.7,0,0,0,1.8-1.8,1.6,1.6,0,0,0-1.8-1.7A1.7,1.7,0,0,0,216.4,156.5Z"/><path class="a" d="M227.6,153a13.5,13.5,0,0,1,5.2-1.1c4.9,0,6,2.1,6,5.6v3.7a.8.8,0,0,0,.9.8h.6l.6,2.5a6.7,6.7,0,0,1-2.7.7c-1.8,0-2.8-.6-3.3-1.6a4.8,4.8,0,0,1-3.9,1.6c-1.9,0-4.2-.9-4.2-3.5s3.7-4.2,7.8-4.2c0-1.4-.6-2.2-2.4-2.2a8.1,8.1,0,0,0-3.5.7Zm6.9,6.5c-1.9.1-3.4.4-3.4,1.5s.5,1.2,1.4,1.2a3.1,3.1,0,0,0,2-.8Z"/><path class="a" d="M255.3,164.9H252l-.8-1.1s-.9,1.3-3.4,1.3-6.1-2.1-6.1-6.5,2.9-6.7,6.9-6.7a11.4,11.4,0,0,1,2.4.3v-6.4h4.3Zm-4.4-9.6a3.9,3.9,0,0,0-1.8-.4c-1.7,0-2.9,1.3-2.9,3.6s1.1,3.3,2.7,3.3a4.3,4.3,0,0,0,2-.4Z"/><path class="a" d="M264.4,151.9c5.2,0,7,2.9,7,6.6s-2.6,6.6-6.9,6.6-6.9-2.9-6.9-6.6S260.1,151.9,264.4,151.9Zm.1,10.1c1.6,0,2.6-1.4,2.6-3.3s-.7-3.8-2.6-3.8-2.6,1.1-2.6,3.3S262.5,162,264.5,162Z"/><path d="M185.8,189.3V176h7.9v1.4h-6.3v4.4h5.2v1.4h-5.2v4.6h6.5v1.5Z"/><path d="M195.8,187.5a7.2,7.2,0,0,0,2.7.6c1.6,0,2.2-.7,2.2-1.6,0-2.5-5.1-1.2-5.1-4.7,0-1.8,1.4-3,3.6-3a5.5,5.5,0,0,1,2.8.6l-.5,1.3a4.8,4.8,0,0,0-2.2-.5c-1.5,0-2.1.6-2.1,1.5s5.1,1,5.1,4.6c0,1.7-1.2,3.2-3.9,3.2a6,6,0,0,1-3-.8Z"/><path d="M209.9,189a5.3,5.3,0,0,1-2,.5c-1.9,0-2.9-1.1-2.9-3.3v-6h-1.8V179H205v-2.2l1.7-.4V179h3.1v1.2h-3.1v6.1c0,1.2.6,1.7,1.5,1.7a2.6,2.6,0,0,0,1.4-.3Z"/><path d="M220.1,189.1a2.5,2.5,0,0,1-1.3.4,1.7,1.7,0,0,1-1.7-1.2,4.5,4.5,0,0,1-3.2,1.2,2.7,2.7,0,0,1-2.9-2.6c0-2.7,2.6-3.3,6.1-3.3,0-1.8-.1-3.3-2.3-3.3a5.4,5.4,0,0,0-2.7.6l-.4-1.3a6.6,6.6,0,0,1,3.3-.8c3.2,0,3.7,1.7,3.7,4.5V187c0,.7.1,1.1.7,1.1h.4Zm-3-4.4c-2.7,0-4.4.4-4.4,2a1.5,1.5,0,0,0,1.6,1.4,3.9,3.9,0,0,0,2.8-1.1Z"/><path d="M226.7,189.3V179h1l.5,1.4a3.8,3.8,0,0,1,3.1-1.6l.9.2-.3,1.5H231a3.5,3.5,0,0,0-2.7,1.3v7.6Z"/><path d="M240.7,188.5a5.5,5.5,0,0,1-3.4,1c-2.9,0-4.7-2-4.7-5.2s1.8-5.5,4.5-5.5,3.8,1.9,3.8,4.2a9.2,9.2,0,0,1-.1,1.6h-6.5c.1,1.7,1,3.4,3.3,3.4a5.5,5.5,0,0,0,2.6-.6Zm-1.4-5v-.7c0-1.5-.7-2.5-2.3-2.5s-2.6,1.6-2.7,3.2Z"/><path d="M250.3,188.7a6,6,0,0,1-3,.8c-2.6,0-4.7-1.8-4.7-5.2s2.1-5.5,5.1-5.5a5.5,5.5,0,0,1,2.6.6l-.5,1.3a3.9,3.9,0,0,0-2.1-.4c-2,0-3.4,1.2-3.4,4s1.5,3.7,3.3,3.7a4.6,4.6,0,0,0,2.3-.5Z"/><path d="M256.1,178.8c3.3,0,4.7,2.4,4.7,5.3s-1.8,5.4-4.8,5.4-4.7-2.4-4.7-5.4S253.2,178.8,256.1,178.8ZM256,188c2.1,0,3.1-1.7,3.1-3.9s-1-3.8-3.1-3.8-3,1.7-3,3.8S254,188,256,188Z"/><path d="M275.2,189.3v-7a1.8,1.8,0,0,0-2-2,3.7,3.7,0,0,0-2.4,1v8h-1.6v-7c0-1.5-.7-2-2-2a3.7,3.7,0,0,0-2.4,1v8h-1.6V179h1l.6,1a4,4,0,0,1,2.7-1.2c1.9,0,2.6.8,2.9,1.4a5,5,0,0,1,3.1-1.4c2.3,0,3.3,1.3,3.3,3.5v7Z"/><path d="M287.2,188.5a5.7,5.7,0,0,1-3.4,1c-2.9,0-4.8-2-4.8-5.2s1.8-5.5,4.6-5.5,3.8,1.9,3.8,4.2a10,10,0,0,1-.2,1.6h-6.4a3.1,3.1,0,0,0,3.3,3.4,5.9,5.9,0,0,0,2.6-.6Zm-1.4-5v-.7c0-1.5-.7-2.5-2.3-2.5s-2.7,1.6-2.7,3.2Z"/><path d="M296.2,189.3v-7c0-1.7-.9-2-2-2a4.4,4.4,0,0,0-2.7,1v8h-1.7V179h1l.6,1a4.9,4.9,0,0,1,3.2-1.2c2.6,0,3.3,1.5,3.3,3.5v7Z"/><path d="M307.7,189.3l-.4-1a4.1,4.1,0,0,1-2.8,1.2c-2.6,0-4.4-2.2-4.4-5.1s1.9-5.6,4.8-5.6a5.1,5.1,0,0,1,2.3.5V174h1.7v15.3Zm-.5-8.6a5.1,5.1,0,0,0-2.1-.4c-2.1,0-3.3,1.4-3.3,3.9s1.2,3.8,3,3.8a3.7,3.7,0,0,0,2.4-1Z"/><path d="M320.2,189.1a2.1,2.1,0,0,1-1.2.4,1.7,1.7,0,0,1-1.7-1.2,4.9,4.9,0,0,1-3.2,1.2,2.6,2.6,0,0,1-2.9-2.6c0-2.7,2.6-3.3,6-3.3,0-1.8,0-3.3-2.3-3.3a5,5,0,0,0-2.6.6l-.5-1.3a7.4,7.4,0,0,1,3.4-.8c3.2,0,3.7,1.7,3.7,4.5V187c0,.7.1,1.1.7,1.1h.4Zm-3-4.4c-2.6,0-4.3.4-4.3,2a1.5,1.5,0,0,0,1.6,1.4,3.5,3.5,0,0,0,2.7-1.1Z"/><path d="M329,188.7a5.4,5.4,0,0,1-3,.8c-2.5,0-4.7-1.8-4.7-5.2s2.2-5.5,5.2-5.5a5.4,5.4,0,0,1,2.5.6l-.4,1.3a4.4,4.4,0,0,0-2.1-.4c-2.1,0-3.5,1.2-3.5,4s1.6,3.7,3.3,3.7a4.1,4.1,0,0,0,2.3-.5Z"/><path d="M331.8,176.9a1,1,0,0,1-1-1.1.9.9,0,0,1,1-1,1,1,0,0,1,1,1.1A1,1,0,0,1,331.8,176.9Zm2.1,12.2a2.2,2.2,0,0,1-1.3.4c-1.3,0-1.7-1-1.7-2.1V179h1.6v8.2c0,.5.1.9.7.9h.4Z"/><path d="M339.9,178.8c3.3,0,4.7,2.4,4.7,5.3s-1.8,5.4-4.8,5.4-4.7-2.4-4.7-5.4S337,178.8,339.9,178.8Zm0,9.2c2.1,0,3-1.7,3-3.9s-.9-3.8-3-3.8-3.1,1.7-3.1,3.8S337.8,188,339.9,188Zm-1.7-10.8,1.8-3h1.9l-2.4,3Z"/><path d="M353.4,189.3v-7c0-1.7-.9-2-2-2a5,5,0,0,0-2.8,1v8H347V179h1l.6,1a4.9,4.9,0,0,1,3.1-1.2c2.6,0,3.3,1.5,3.3,3.5v7Z"/><path d="M370.1,188.5a5.4,5.4,0,0,1-3.3,1c-2.9,0-4.8-2-4.8-5.2s1.8-5.5,4.5-5.5,3.9,1.9,3.9,4.2a10,10,0,0,1-.2,1.6h-6.4a3.1,3.1,0,0,0,3.3,3.4,6.2,6.2,0,0,0,2.6-.6Zm-1.4-5a1.7,1.7,0,0,0,.1-.7c0-1.5-.7-2.5-2.3-2.5s-2.7,1.6-2.7,3.2Z"/><path d="M372.6,187.5a7.1,7.1,0,0,0,2.6.6c1.6,0,2.2-.7,2.2-1.6,0-2.5-5-1.2-5-4.7,0-1.8,1.4-3,3.6-3a5.4,5.4,0,0,1,2.7.6l-.4,1.3a5.2,5.2,0,0,0-2.3-.5c-1.4,0-2.1.6-2.1,1.5s5.2,1,5.2,4.6c0,1.7-1.3,3.2-3.9,3.2a6.4,6.4,0,0,1-3.1-.8Z"/><path d="M393,189.3l-.6-1a4.1,4.1,0,0,1-2.9,1.2c-2.5,0-3.3-1.7-3.3-3.7V179h1.6v6.8c0,1.7.9,2.2,2,2.2a4.1,4.1,0,0,0,2.6-1v-8H394v10.3Z"/><path d="M403.6,189.3v-7c0-1.7-.9-2-2-2a5,5,0,0,0-2.8,1v8h-1.6V179h1l.6,1a4.9,4.9,0,0,1,3.1-1.2c2.6,0,3.3,1.5,3.3,3.5v7Z"/><path d="M416,189.1a2.2,2.2,0,0,1-1.3.4c-1.3,0-1.7-1-1.7-2.1V174h1.6v13.2c0,.5.1.9.8.9h.3Z"/><path d="M421,189.1a2.1,2.1,0,0,1-1.2.4c-1.4,0-1.8-1-1.8-2.1V174h1.7v13.2c0,.5.1.9.7.9h.4Z"/><path d="M431.3,189.1a2.5,2.5,0,0,1-1.3.4,1.7,1.7,0,0,1-1.7-1.2,4.5,4.5,0,0,1-3.2,1.2,2.7,2.7,0,0,1-2.9-2.6c0-2.7,2.7-3.3,6.1-3.3,0-1.8,0-3.3-2.3-3.3a5.4,5.4,0,0,0-2.7.6l-.4-1.3a6.6,6.6,0,0,1,3.3-.8c3.2,0,3.7,1.7,3.7,4.5V187c0,.7.1,1.1.7,1.1h.4Zm-3-4.4c-2.6,0-4.4.4-4.4,2a1.5,1.5,0,0,0,1.7,1.4,3.7,3.7,0,0,0,2.7-1.1Z"/><path d="M445.1,189.3v-7c0-1.4-.6-2-2-2a3.7,3.7,0,0,0-2.3,1v8h-1.6v-7c0-1.5-.8-2-2.1-2a3.7,3.7,0,0,0-2.3,1v8h-1.6V179h1l.6,1a4,4,0,0,1,2.7-1.2,3,3,0,0,1,2.9,1.4,5,5,0,0,1,3.1-1.4c2.3,0,3.3,1.3,3.3,3.5v7Z"/><path d="M458,189.1a2.1,2.1,0,0,1-1.2.4,1.8,1.8,0,0,1-1.8-1.2,4.4,4.4,0,0,1-3.1,1.2,2.6,2.6,0,0,1-2.9-2.6c0-2.7,2.6-3.3,6-3.3,0-1.8,0-3.3-2.3-3.3a5.7,5.7,0,0,0-2.7.6l-.4-1.3a7.4,7.4,0,0,1,3.4-.8c3.1,0,3.7,1.7,3.7,4.5V187c0,.7,0,1.1.7,1.1h.3Zm-3-4.4c-2.6,0-4.4.4-4.4,2a1.6,1.6,0,0,0,1.7,1.4A3.7,3.7,0,0,0,455,187Z"/><path d="M466.8,189.3l-.5-1a4.1,4.1,0,0,1-2.8,1.2c-2.6,0-4.4-2.2-4.4-5.1s1.9-5.6,4.9-5.6a4.9,4.9,0,0,1,2.2.5V174h1.7v15.3Zm-.6-8.6a5.1,5.1,0,0,0-2.1-.4c-2,0-3.3,1.4-3.3,3.9s1.2,3.8,3,3.8a3.4,3.4,0,0,0,2.4-1Z"/><path d="M475.1,178.8c3.2,0,4.7,2.4,4.7,5.3s-1.9,5.4-4.9,5.4-4.6-2.4-4.6-5.4S472.1,178.8,475.1,178.8ZM475,188c2.1,0,3.1-1.7,3.1-3.9s-1-3.8-3.1-3.8-3.1,1.7-3.1,3.8S472.9,188,475,188Z"/><path d="M495.1,189.1a2.5,2.5,0,0,1-1.3.4,1.7,1.7,0,0,1-1.7-1.2,4.5,4.5,0,0,1-3.2,1.2,2.7,2.7,0,0,1-2.9-2.6c0-2.7,2.7-3.3,6.1-3.3,0-1.8,0-3.3-2.3-3.3a5.4,5.4,0,0,0-2.7.6l-.4-1.3a6.6,6.6,0,0,1,3.3-.8c3.2,0,3.7,1.7,3.7,4.5V187c0,.7.1,1.1.7,1.1h.4Zm-3-4.4c-2.6,0-4.4.4-4.4,2a1.5,1.5,0,0,0,1.7,1.4,3.7,3.7,0,0,0,2.7-1.1Z"/><path d="M508.1,193.4v-4.6a5.9,5.9,0,0,1-2.7.7c-2.7,0-4.5-2-4.5-5.1s2.2-5.6,5.2-5.6a10.2,10.2,0,0,1,3.6.8v13.8Zm0-12.8a7,7,0,0,0-2-.3c-2.6,0-3.4,1.9-3.4,4s.7,3.7,3,3.7a6.2,6.2,0,0,0,2.4-.6Z"/><path d="M519.7,189.3l-.6-1a4.4,4.4,0,0,1-3,1.2c-2.4,0-3.2-1.7-3.2-3.7V179h1.6v6.8c0,1.7.9,2.2,2,2.2a4.1,4.1,0,0,0,2.6-1v-8h1.6v10.3Z"/><path d="M531.2,188.5a5.5,5.5,0,0,1-3.4,1c-2.9,0-4.7-2-4.7-5.2s1.8-5.5,4.5-5.5,3.8,1.9,3.8,4.2a9.2,9.2,0,0,1-.1,1.6h-6.5a3.2,3.2,0,0,0,3.3,3.4,5.5,5.5,0,0,0,2.6-.6Zm-1.4-5v-.7c0-1.5-.7-2.5-2.3-2.5s-2.6,1.6-2.7,3.2Z"/><path d="M190.8,213.4a4.4,4.4,0,0,1-2,.5c-1.8,0-2.8-1.1-2.8-3.3v-6h-1.8v-1.2H186v-2.2l1.6-.4v2.6h3.2v1.2h-3.2v6c0,1.3.7,1.8,1.6,1.8a2.5,2.5,0,0,0,1.3-.3Z"/><path d="M196.9,203.2c3.2,0,4.7,2.4,4.7,5.3s-1.9,5.4-4.9,5.4-4.7-2.4-4.7-5.4S193.9,203.2,196.9,203.2Zm-.1,9.2c2.1,0,3-1.7,3-3.9s-.9-3.9-3-3.9-3.1,1.8-3.1,3.9S194.7,212.4,196.8,212.4Z"/><path d="M210.8,213.7l-.5-1a4.1,4.1,0,0,1-2.8,1.2c-2.6,0-4.4-2.2-4.4-5.1s2-5.6,4.9-5.6a5.7,5.7,0,0,1,2.3.5v-5.3h1.6v15.3Zm-.5-8.6a4.9,4.9,0,0,0-2.2-.5c-2,0-3.3,1.5-3.3,4s1.3,3.8,3,3.8a3.8,3.8,0,0,0,2.5-1Z"/><path d="M223.3,213.5a2.5,2.5,0,0,1-1.3.4,1.7,1.7,0,0,1-1.7-1.2,4.5,4.5,0,0,1-3.2,1.2,2.7,2.7,0,0,1-2.9-2.6c0-2.7,2.7-3.3,6.1-3.3,0-1.8,0-3.4-2.3-3.4a5.4,5.4,0,0,0-2.7.7l-.4-1.3a6.6,6.6,0,0,1,3.3-.8c3.2,0,3.7,1.7,3.7,4.5v3.7c0,.7.1,1.1.7,1.1h.4Zm-3-4.4c-2.6,0-4.4.4-4.4,2a1.5,1.5,0,0,0,1.7,1.4,3.9,3.9,0,0,0,2.7-1.1Z"/><path d="M232.9,213.5a2.1,2.1,0,0,1-1.2.4c-1.4,0-1.8-1-1.8-2.1V198.4h1.7v13.2c0,.4,0,.9.7.9h.3Z"/><path d="M243.1,213.5a1.9,1.9,0,0,1-1.2.4,1.7,1.7,0,0,1-1.7-1.2,4.5,4.5,0,0,1-3.2,1.2,2.7,2.7,0,0,1-2.9-2.6c0-2.7,2.6-3.3,6.1-3.3,0-1.8-.1-3.4-2.3-3.4a5.4,5.4,0,0,0-2.7.7l-.4-1.3a6.6,6.6,0,0,1,3.3-.8c3.2,0,3.7,1.7,3.7,4.5v3.7c0,.7.1,1.1.7,1.1h.4Zm-2.9-4.4c-2.7,0-4.4.4-4.4,2a1.5,1.5,0,0,0,1.6,1.4,3.9,3.9,0,0,0,2.8-1.1Z"/><path d="M249.6,211.8a5.6,5.6,0,0,0,2.6.7c1.6,0,2.2-.8,2.2-1.6,0-2.5-5-1.2-5-4.7,0-1.8,1.4-3,3.6-3a5.4,5.4,0,0,1,2.7.6l-.4,1.3a5.2,5.2,0,0,0-2.3-.5c-1.4,0-2.1.6-2.1,1.5s5.2,1,5.2,4.6c0,1.7-1.3,3.2-3.9,3.2a6.4,6.4,0,0,1-3.1-.8Z"/><path d="M262.5,203.2c3.2,0,4.6,2.4,4.6,5.3s-1.8,5.4-4.8,5.4-4.7-2.4-4.7-5.4S259.5,203.2,262.5,203.2Zm-.1,9.2c2.1,0,3-1.7,3-3.9s-.9-3.9-3-3.9-3.1,1.8-3.1,3.9S260.3,212.4,262.4,212.4Z"/><path d="M276.4,213.1a5.4,5.4,0,0,1-3,.8c-2.5,0-4.7-1.8-4.7-5.2s2.2-5.5,5.2-5.5a5.4,5.4,0,0,1,2.5.6l-.4,1.3a4.3,4.3,0,0,0-2.1-.5c-2.1,0-3.5,1.3-3.5,4.1s1.6,3.7,3.3,3.7a4.1,4.1,0,0,0,2.3-.5Z"/><path d="M279.2,201.3a1.1,1.1,0,0,1-1.1-1.1,1,1,0,0,1,1.1-1c.6,0,1,.3,1,1.1A1,1,0,0,1,279.2,201.3Zm2.1,12.2a2.6,2.6,0,0,1-1.3.4c-1.3,0-1.7-1-1.7-2.1v-8.4h1.6v8.2c0,.4.1.9.7.9h.4Z"/><path d="M290.6,212.9a5.4,5.4,0,0,1-3.3,1c-2.9,0-4.8-2.1-4.8-5.2s1.8-5.5,4.5-5.5,3.9,1.9,3.9,4.2a10,10,0,0,1-.2,1.6h-6.4a3.2,3.2,0,0,0,3.3,3.4,6.2,6.2,0,0,0,2.6-.6Zm-1.4-5a1.7,1.7,0,0,0,.1-.7c0-1.5-.7-2.5-2.3-2.5s-2.7,1.6-2.7,3.2Z"/><path d="M300.2,213.7l-.5-1a4.1,4.1,0,0,1-2.8,1.2c-2.6,0-4.4-2.2-4.4-5.1s1.9-5.6,4.9-5.6a4.9,4.9,0,0,1,2.2.5v-5.3h1.7v15.3Zm-.6-8.6a4.2,4.2,0,0,0-2.1-.5c-2,0-3.3,1.5-3.3,4s1.2,3.8,3,3.8a3.4,3.4,0,0,0,2.4-1Z"/><path d="M312.6,213.5a1.9,1.9,0,0,1-1.2.4,1.7,1.7,0,0,1-1.7-1.2,4.5,4.5,0,0,1-3.2,1.2,2.7,2.7,0,0,1-2.9-2.6c0-2.7,2.6-3.3,6.1-3.3,0-1.8-.1-3.4-2.3-3.4a5.4,5.4,0,0,0-2.7.7l-.4-1.3a6.6,6.6,0,0,1,3.3-.8c3.2,0,3.7,1.7,3.7,4.5v3.7c0,.7.1,1.1.7,1.1h.4Zm-2.9-4.4c-2.7,0-4.4.4-4.4,2a1.5,1.5,0,0,0,1.6,1.4,3.9,3.9,0,0,0,2.8-1.1Z"/><path d="M321.4,213.7l-.4-1a4.5,4.5,0,0,1-2.9,1.2c-2.6,0-4.4-2.2-4.4-5.1s2-5.6,4.9-5.6a5.7,5.7,0,0,1,2.3.5v-5.3h1.6v15.3Zm-.5-8.6a4.2,4.2,0,0,0-2.1-.5c-2.1,0-3.3,1.5-3.3,4s1.2,3.8,3,3.8a3.7,3.7,0,0,0,2.4-1Z"/><path d="M328.8,203.4h1.9l3.2,8.5,2.8-8.5h1.7l-4.2,11.5a3.8,3.8,0,0,1-3.7,2.9,3.9,3.9,0,0,1-1.8-.5l.5-1.3a2.6,2.6,0,0,0,1.4.3c1.4,0,2-1,2.5-2.5Z"/><path d="M347.7,213.5a2.2,2.2,0,0,1-1.3.4c-1.3,0-1.7-1-1.7-2.1V198.4h1.6v13.2c0,.4.1.9.8.9h.3Z"/><path d="M357.9,213.5a2.1,2.1,0,0,1-1.2.4,1.7,1.7,0,0,1-1.7-1.2,4.7,4.7,0,0,1-3.2,1.2,2.6,2.6,0,0,1-2.9-2.6c0-2.7,2.6-3.3,6-3.3,0-1.8,0-3.4-2.3-3.4a5,5,0,0,0-2.6.7l-.4-1.3a6.6,6.6,0,0,1,3.3-.8c3.2,0,3.7,1.7,3.7,4.5v3.7c0,.7.1,1.1.7,1.1h.4Zm-3-4.4c-2.6,0-4.3.4-4.3,2a1.5,1.5,0,0,0,1.6,1.4,3.5,3.5,0,0,0,2.7-1.1Z"/><path d="M359.6,211.8a5.7,5.7,0,0,0,2.7.7c1.6,0,2.2-.8,2.2-1.6,0-2.5-5.1-1.2-5.1-4.7,0-1.8,1.4-3,3.6-3a5.8,5.8,0,0,1,2.8.6l-.5,1.3a4.9,4.9,0,0,0-2.3-.5c-1.4,0-2,.6-2,1.5s5.1,1,5.1,4.6c0,1.7-1.2,3.2-3.9,3.2a6,6,0,0,1-3-.8Z"/><path d="M374.1,201.3a1,1,0,0,1-1-1.1,1,1,0,0,1,1-1,1,1,0,0,1,1.1,1.1A1,1,0,0,1,374.1,201.3Zm2.1,12.2a2.1,2.1,0,0,1-1.2.4c-1.4,0-1.8-1-1.8-2.1v-8.4h1.7v8.2c0,.4,0,.9.7.9h.3Z"/><path d="M384.7,213.7v-7c0-1.7-.9-2.1-2.1-2.1a5,5,0,0,0-2.7,1.1v8h-1.6V203.4h.9l.7,1a4.6,4.6,0,0,1,3.1-1.2c2.6,0,3.3,1.5,3.3,3.5v7Z"/><path d="M389.1,211.8a5.7,5.7,0,0,0,2.7.7c1.6,0,2.2-.8,2.2-1.6,0-2.5-5.1-1.2-5.1-4.7,0-1.8,1.4-3,3.6-3a5.8,5.8,0,0,1,2.8.6l-.5,1.3a5.2,5.2,0,0,0-2.3-.5c-1.4,0-2,.6-2,1.5s5.1,1,5.1,4.6c0,1.7-1.3,3.2-3.9,3.2a5.7,5.7,0,0,1-3-.8Z"/><path d="M403.2,213.4a5.4,5.4,0,0,1-2.1.5c-1.8,0-2.8-1.1-2.8-3.3v-6h-1.8v-1.2h1.8v-2.2l1.6-.4v2.6h3.2v1.2h-3.2v6c0,1.3.7,1.8,1.6,1.8a2.5,2.5,0,0,0,1.3-.3Z"/><path d="M406,201.3a1,1,0,0,1-1-1.1,1,1,0,0,1,1-1,1,1,0,0,1,1.1,1.1A1,1,0,0,1,406,201.3Zm2.1,12.2a2.1,2.1,0,0,1-1.2.4c-1.4,0-1.8-1-1.8-2.1v-8.4h1.7v8.2c0,.4.1.9.7.9h.4Z"/><path d="M415.4,213.4a5.3,5.3,0,0,1-2,.5c-1.8,0-2.9-1.1-2.9-3.3v-6h-1.8v-1.2h1.8v-2.2l1.7-.4v2.6h3.1v1.2h-3.1v6c0,1.3.6,1.8,1.5,1.8a2.6,2.6,0,0,0,1.4-.3Z"/><path d="M424.2,213.7l-.6-1a4.1,4.1,0,0,1-2.9,1.2c-2.5,0-3.3-1.7-3.3-3.7v-6.8H419v6.8c0,1.7.9,2.2,2,2.2a4.1,4.1,0,0,0,2.6-1v-8h1.6v10.3Z"/><path d="M435.3,213.1a5.4,5.4,0,0,1-3,.8c-2.5,0-4.7-1.8-4.7-5.2s2.2-5.5,5.1-5.5a5.5,5.5,0,0,1,2.6.6l-.5,1.3a3.8,3.8,0,0,0-2.1-.5c-2,0-3.4,1.3-3.4,4.1s1.5,3.7,3.3,3.7a4.4,4.4,0,0,0,2.3-.5Z"/><path d="M438,201.3a1,1,0,0,1-1-1.1,1,1,0,0,1,1-1,1,1,0,0,1,1.1,1.1A1,1,0,0,1,438,201.3Zm2.1,12.2a2.1,2.1,0,0,1-1.2.4c-1.4,0-1.8-1-1.8-2.1v-8.4h1.7v8.2c0,.4.1.9.7.9h.4Z"/><path d="M446.2,203.2c3.2,0,4.7,2.4,4.7,5.3s-1.9,5.4-4.8,5.4-4.7-2.4-4.7-5.4S443.3,203.2,446.2,203.2Zm-.1,9.2c2.1,0,3.1-1.7,3.1-3.9s-1-3.9-3.1-3.9-3,1.8-3,3.9S444,212.4,446.1,212.4Z"/><path d="M459.7,213.7v-7c0-1.7-.9-2.1-2.1-2.1a5,5,0,0,0-2.7,1.1v8h-1.6V203.4h1l.6,1a4.9,4.9,0,0,1,3.1-1.2c2.6,0,3.3,1.5,3.3,3.5v7Z"/><path d="M471.7,212.9a6,6,0,0,1-3.4,1c-2.9,0-4.8-2.1-4.8-5.2s1.8-5.5,4.6-5.5,3.8,1.9,3.8,4.2a10,10,0,0,1-.2,1.6h-6.4a3.2,3.2,0,0,0,3.3,3.4,6.2,6.2,0,0,0,2.6-.6Zm-1.5-5a1.7,1.7,0,0,0,.1-.7c0-1.5-.7-2.5-2.3-2.5s-2.7,1.6-2.7,3.2Z"/><path d="M474.1,211.8a5.7,5.7,0,0,0,2.7.7c1.5,0,2.1-.8,2.1-1.6,0-2.5-5-1.2-5-4.7,0-1.8,1.4-3,3.6-3a5.4,5.4,0,0,1,2.7.6l-.4,1.3a5.2,5.2,0,0,0-2.3-.5c-1.4,0-2,.6-2,1.5s5.1,1,5.1,4.6c0,1.7-1.3,3.2-3.9,3.2a6.4,6.4,0,0,1-3.1-.8Z"/><path d="M487.5,211.8a5.6,5.6,0,0,0,2.6.7c1.6,0,2.2-.8,2.2-1.6,0-2.5-5-1.2-5-4.7,0-1.8,1.4-3,3.6-3a5.4,5.4,0,0,1,2.7.6l-.4,1.3a5.2,5.2,0,0,0-2.3-.5c-1.4,0-2.1.6-2.1,1.5s5.2,1,5.2,4.6c0,1.7-1.3,3.2-3.9,3.2a6.4,6.4,0,0,1-3.1-.8Z"/><path d="M503.7,212.9a5.7,5.7,0,0,1-3.4,1c-2.9,0-4.8-2.1-4.8-5.2s1.8-5.5,4.6-5.5,3.8,1.9,3.8,4.2a10,10,0,0,1-.2,1.6h-6.4a3.2,3.2,0,0,0,3.3,3.4,6.2,6.2,0,0,0,2.6-.6Zm-1.4-5v-.7c0-1.5-.7-2.5-2.3-2.5s-2.7,1.6-2.7,3.2Z"/><path d="M193.8,237.9a2.1,2.1,0,0,1-1.2.3,1.6,1.6,0,0,1-1.7-1.1,4.5,4.5,0,0,1-3.2,1.1c-1.7,0-2.9-.9-2.9-2.6s2.6-3.2,6-3.2c0-1.8,0-3.4-2.3-3.4a5.3,5.3,0,0,0-2.6.7l-.4-1.3a6.6,6.6,0,0,1,3.3-.8c3.2,0,3.7,1.7,3.7,4.5v3.7c0,.7.1,1.1.7,1.1h.4Zm-3-4.4c-2.6,0-4.3.4-4.3,1.9a1.5,1.5,0,0,0,1.6,1.5,3.5,3.5,0,0,0,2.7-1.1Z"/><path d="M195.7,242.2V227.8h1.2l.4,1a4.1,4.1,0,0,1,2.8-1.2c2.8,0,4.4,2.2,4.4,5.1s-1.9,5.5-4.8,5.5a5.1,5.1,0,0,1-2.3-.5v4.5Zm1.7-5.9a4.2,4.2,0,0,0,2.1.5c2.1,0,3.3-1.5,3.3-3.9s-1.2-3.9-3-3.9a3.7,3.7,0,0,0-2.4,1Z"/><path d="M206.9,238V227.8h1l.5,1.4a3.8,3.8,0,0,1,3.1-1.6,1.5,1.5,0,0,1,.9.2l-.3,1.5-.9-.2a3.6,3.6,0,0,0-2.7,1.4V238Z"/><path d="M217.6,227.6c3.2,0,4.7,2.4,4.7,5.3s-1.9,5.3-4.9,5.3-4.6-2.3-4.6-5.3S214.6,227.6,217.6,227.6Zm-.1,9.2c2.1,0,3.1-1.7,3.1-3.9s-1-3.9-3.1-3.9-3.1,1.8-3.1,3.9S215.4,236.8,217.5,236.8Z"/><path d="M230,238l-2.5-4.1h0l-2.6,4.1h-1.8l3.6-5.3-3.4-4.9h2l2.3,3.7h.1l2.3-3.7h1.9l-3.4,4.9,3.6,5.3Z"/><path d="M234.8,225.7a1,1,0,0,1-1-1.1,1,1,0,0,1,1-1,1,1,0,0,1,1.1,1.1A1,1,0,0,1,234.8,225.7Zm2.1,12.2a2.5,2.5,0,0,1-1.2.3c-1.4,0-1.7-.9-1.7-2v-8.4h1.6V236c0,.4.1.8.7.8h.4Z"/><path d="M251,238v-6.9a1.8,1.8,0,0,0-2-2.1,3.6,3.6,0,0,0-2.4,1.1V238H245v-6.9c0-1.6-.7-2.1-2-2.1a3.9,3.9,0,0,0-2.4,1.1V238H239V227.8h1l.6,1a4,4,0,0,1,2.7-1.2c1.9,0,2.6.8,2.9,1.3a5.2,5.2,0,0,1,3.1-1.3c2.3,0,3.3,1.3,3.3,3.5V238Z"/><path d="M263,237.3a5.5,5.5,0,0,1-3.4.9c-2.9,0-4.7-2-4.7-5.1s1.8-5.5,4.5-5.5,3.8,1.9,3.8,4.1a9.9,9.9,0,0,1-.2,1.7h-6.4a3.2,3.2,0,0,0,3.3,3.4,5.9,5.9,0,0,0,2.6-.6Zm-1.4-5v-.7c0-1.5-.7-2.5-2.3-2.5s-2.6,1.6-2.7,3.2Z"/><path d="M272,238v-6.9c0-1.7-.8-2.1-2-2.1a3.9,3.9,0,0,0-2.7,1.1V238h-1.7V227.8h1l.6,1a4.9,4.9,0,0,1,3.2-1.2c2.6,0,3.3,1.5,3.3,3.5V238Z"/><path d="M289.6,237.9a2.1,2.1,0,0,1-1.2.3,1.6,1.6,0,0,1-1.7-1.1,4.5,4.5,0,0,1-3.2,1.1c-1.7,0-2.9-.9-2.9-2.6s2.6-3.2,6-3.2c0-1.8,0-3.4-2.3-3.4a5.3,5.3,0,0,0-2.6.7l-.4-1.3a6.6,6.6,0,0,1,3.3-.8c3.2,0,3.7,1.7,3.7,4.5v3.7c0,.7.1,1.1.7,1.1h.4Zm-3-4.4c-2.6,0-4.3.4-4.3,1.9a1.5,1.5,0,0,0,1.6,1.5,3.5,3.5,0,0,0,2.7-1.1Z"/><path d="M294.5,237.9a2.5,2.5,0,0,1-1.2.3c-1.4,0-1.8-.9-1.8-2V222.8h1.7V236c0,.4,0,.8.7.8h.3Z"/><path d="M304.3,237.9a2.5,2.5,0,0,1-1.2.3c-1.4,0-1.8-.9-1.8-2V222.8H303V236c0,.4,0,.8.7.8h.3Z"/><path d="M313.7,237.3a5.5,5.5,0,0,1-3.4.9c-2.9,0-4.7-2-4.7-5.1s1.8-5.5,4.5-5.5,3.8,1.9,3.8,4.1a9.7,9.7,0,0,1-.1,1.7h-6.5c.1,1.6,1,3.4,3.3,3.4a5.5,5.5,0,0,0,2.6-.6Zm-1.4-5v-.7c0-1.5-.7-2.5-2.3-2.5s-2.6,1.6-2.7,3.2Z"/><path d="M322.7,229.1a3.2,3.2,0,0,1,.6,1.9,3.5,3.5,0,0,1-3.7,3.6H319a1.9,1.9,0,0,0-.4.9c0,.4.1.7,1.1.7,3.5,0,4.5,1.1,4.5,2.8s-1.7,3.5-4.6,3.5-3.9-.9-3.9-2.9a2.7,2.7,0,0,1,2-2.5,1.4,1.4,0,0,1-.7-1.3v-.4l.9-1.1a3.3,3.3,0,0,1-1.8-3,3.4,3.4,0,0,1,3.5-3.6,4.1,4.1,0,0,1,1.9.4l3.6-.2v1.3Zm-5.5,10.1c0,1,.8,1.9,2.5,1.9s2.9-.7,2.9-2-.7-1.6-2.9-1.6h-1A1.8,1.8,0,0,0,317.2,239.2Zm4.6-8.2a1.9,1.9,0,0,0-2.1-2.1,2,2,0,0,0-2.1,2.3,1.9,1.9,0,0,0,2.1,2A2,2,0,0,0,321.8,231Z"/><path d="M334.7,237.9a2.1,2.1,0,0,1-1.2.3,1.8,1.8,0,0,1-1.8-1.1,4.4,4.4,0,0,1-3.1,1.1c-1.7,0-2.9-.9-2.9-2.6s2.6-3.2,6-3.2c0-1.8,0-3.4-2.3-3.4a5.7,5.7,0,0,0-2.7.7l-.4-1.3a7.4,7.4,0,0,1,3.4-.8c3.1,0,3.7,1.7,3.7,4.5v3.7c0,.7.1,1.1.7,1.1h.3Zm-3-4.4c-2.6,0-4.3.4-4.3,1.9a1.5,1.5,0,0,0,1.6,1.5,3.5,3.5,0,0,0,2.7-1.1Z"/><path d="M343.5,238l-.5-.9a4.3,4.3,0,0,1-2.8,1.1c-2.6,0-4.4-2.1-4.4-5s2-5.6,4.9-5.6a5.7,5.7,0,0,1,2.3.5v-5.3h1.6V238Zm-.5-8.5a4.9,4.9,0,0,0-2.2-.5c-2,0-3.3,1.5-3.3,4s1.3,3.8,3,3.8a3.8,3.8,0,0,0,2.5-1Z"/><path d="M351.8,227.6c3.2,0,4.7,2.4,4.7,5.3s-1.9,5.3-4.8,5.3-4.7-2.3-4.7-5.3S348.8,227.6,351.8,227.6Zm-.1,9.2c2.1,0,3.1-1.7,3.1-3.9s-1-3.9-3.1-3.9-3,1.8-3,3.9S349.6,236.8,351.7,236.8Z"/><path d="M369.9,242.2v-4.6a5.3,5.3,0,0,1-2.6.7c-2.7,0-4.5-2-4.5-5.1s2.2-5.6,5.1-5.6a10.4,10.4,0,0,1,3.7.8v13.8Zm0-12.8a5.3,5.3,0,0,0-1.9-.4c-2.6,0-3.5,2-3.5,4.1s.8,3.7,3.1,3.7a5.5,5.5,0,0,0,2.3-.6Z"/><path d="M381.6,238l-.6-1a4.2,4.2,0,0,1-3,1.2c-2.4,0-3.3-1.6-3.3-3.6v-6.8h1.7v6.8c0,1.7.9,2.2,2,2.2a3.4,3.4,0,0,0,2.5-1.1v-7.9h1.7V238Z"/><path d="M393.1,237.3a5.8,5.8,0,0,1-3.4.9c-2.9,0-4.8-2-4.8-5.1s1.9-5.5,4.6-5.5,3.8,1.9,3.8,4.1a9.9,9.9,0,0,1-.2,1.7h-6.4a3.2,3.2,0,0,0,3.3,3.4,5.9,5.9,0,0,0,2.6-.6Zm-1.4-5v-.7c0-1.5-.7-2.5-2.3-2.5s-2.6,1.6-2.7,3.2Z"/><path d="M407.3,238l-.4-.9a4.3,4.3,0,0,1-2.8,1.1c-2.6,0-4.4-2.1-4.4-5s1.9-5.6,4.8-5.6a5.1,5.1,0,0,1,2.3.5v-5.3h1.7V238Zm-.5-8.5a4.2,4.2,0,0,0-2.1-.5c-2.1,0-3.3,1.5-3.3,4s1.2,3.8,3,3.8a3.7,3.7,0,0,0,2.4-1Z"/><path d="M419,237.3a5.8,5.8,0,0,1-3.4.9c-2.9,0-4.8-2-4.8-5.1s1.8-5.5,4.6-5.5,3.8,1.9,3.8,4.1a9.9,9.9,0,0,1-.2,1.7h-6.4a3.2,3.2,0,0,0,3.3,3.4,6.2,6.2,0,0,0,2.6-.6Zm-1.4-5v-.7c0-1.5-.7-2.5-2.3-2.5s-2.7,1.6-2.7,3.2Z"/><path d="M418.8,240.8h.9c1.1,0,1.9-.5,1.9-2V227.8h1.7v10.9c0,2.4-1.4,3.7-3.4,3.7a3.7,3.7,0,0,1-1.4-.3Zm3.6-15.1a1,1,0,0,1-1-1.1,1,1,0,0,1,1-1,1,1,0,0,1,1.1,1.1A1,1,0,0,1,422.4,225.7Z"/><path d="M434.6,237.9a2.1,2.1,0,0,1-1.2.3,1.7,1.7,0,0,1-1.8-1.1,4.4,4.4,0,0,1-3.1,1.1c-1.7,0-2.9-.9-2.9-2.6s2.6-3.2,6-3.2c0-1.8,0-3.4-2.3-3.4a5.7,5.7,0,0,0-2.7.7l-.4-1.3a7.4,7.4,0,0,1,3.4-.8c3.1,0,3.7,1.7,3.7,4.5v3.7c0,.7,0,1.1.7,1.1h.3Zm-3-4.4c-2.6,0-4.4.4-4.4,1.9a1.6,1.6,0,0,0,1.7,1.5,3.7,3.7,0,0,0,2.7-1.1Z"/><path d="M448.5,238v-6.9a1.8,1.8,0,0,0-2-2.1,3.6,3.6,0,0,0-2.4,1.1V238h-1.6v-6.9c0-1.6-.7-2.1-2-2.1a3.9,3.9,0,0,0-2.4,1.1V238h-1.6V227.8h1l.6,1a4,4,0,0,1,2.7-1.2c1.9,0,2.6.8,2.9,1.3a5.2,5.2,0,0,1,3.1-1.3c2.3,0,3.3,1.3,3.3,3.5V238Z"/><path d="M457.2,227.6c3.2,0,4.7,2.4,4.7,5.3s-1.9,5.3-4.9,5.3-4.7-2.3-4.7-5.3S454.2,227.6,457.2,227.6Zm-.1,9.2c2.1,0,3.1-1.7,3.1-3.9s-1-3.9-3.1-3.9-3.1,1.8-3.1,3.9S455,236.8,457.1,236.8Z"/><path d="M464,236.2a5.7,5.7,0,0,0,2.7.7c1.6,0,2.2-.8,2.2-1.6,0-2.5-5.1-1.2-5.1-4.7,0-1.8,1.4-3,3.6-3a5.8,5.8,0,0,1,2.8.6l-.5,1.2a6.8,6.8,0,0,0-2.3-.4c-1.4,0-2,.6-2,1.4s5.1,1.1,5.1,4.7c0,1.6-1.2,3.1-3.9,3.1a6,6,0,0,1-3-.7Z"/><path d="M484.5,237.5a5.5,5.5,0,0,1-3,.7c-2.5,0-4.7-1.7-4.7-5.1s2.2-5.5,5.2-5.5a5.4,5.4,0,0,1,2.5.6l-.4,1.3a4.3,4.3,0,0,0-2.1-.5c-2.1,0-3.5,1.3-3.5,4.1a3.4,3.4,0,0,0,3.3,3.7,4.1,4.1,0,0,0,2.3-.5Z"/><path d="M490.4,227.6c3.2,0,4.7,2.4,4.7,5.3s-1.9,5.3-4.8,5.3-4.7-2.3-4.7-5.3S487.4,227.6,490.4,227.6Zm-.1,9.2c2.1,0,3.1-1.7,3.1-3.9s-1-3.9-3.1-3.9-3,1.8-3,3.9S488.2,236.8,490.3,236.8Z"/><path d="M509.4,238v-6.9c0-1.4-.6-2.1-2-2.1a3.5,3.5,0,0,0-2.3,1.1V238h-1.7v-6.9c0-1.6-.7-2.1-2-2.1a3.5,3.5,0,0,0-2.3,1.1V238h-1.6V227.8h.9l.7,1a4,4,0,0,1,2.7-1.2,3.1,3.1,0,0,1,2.9,1.3,5.2,5.2,0,0,1,3.1-1.3c2.3,0,3.3,1.3,3.3,3.5V238Z"/><path d="M518.1,227.6c3.3,0,4.7,2.4,4.7,5.3s-1.9,5.3-4.8,5.3-4.7-2.3-4.7-5.3S515.2,227.6,518.1,227.6Zm-.1,9.2c2.1,0,3.1-1.7,3.1-3.9s-1-3.9-3.1-3.9-3,1.8-3,3.9S515.9,236.8,518,236.8Z"/><path d="M194.8,261.6a7,7,0,0,1-3.7,1c-3.7,0-6.2-2.7-6.2-6.8s2.5-6.8,6.4-6.8a6,6,0,0,1,3.5.8l-.6,1.3a5.6,5.6,0,0,0-2.9-.7c-2.4,0-4.7,1.7-4.7,5.3s1.5,5.4,4.7,5.4a4.9,4.9,0,0,0,3-.8Z"/><path d="M201,252c3.2,0,4.7,2.4,4.7,5.3s-1.9,5.3-4.9,5.3-4.7-2.3-4.7-5.3S198,252,201,252Zm-.1,9.2c2.1,0,3.1-1.7,3.1-3.9s-1-3.9-3.1-3.9-3.1,1.8-3.1,3.9S198.8,261.2,200.9,261.2Z"/><path d="M220,262.4v-7a1.8,1.8,0,0,0-2-2,3.5,3.5,0,0,0-2.3,1.1v7.9H214v-7c0-1.5-.7-2-2-2a3.5,3.5,0,0,0-2.3,1.1v7.9H208V252.2h1l.6,1a4.1,4.1,0,0,1,2.8-1.2,2.9,2.9,0,0,1,2.8,1.3,5.6,5.6,0,0,1,3.2-1.3c2.2,0,3.3,1.3,3.3,3.4v7Z"/><path d="M225.6,250.1a1.1,1.1,0,0,1,0-2.2c.6,0,1,.4,1,1.2A1,1,0,0,1,225.6,250.1Zm2.1,12.2a3.3,3.3,0,0,1-1.3.3c-1.3,0-1.7-.9-1.7-2v-8.4h1.6v8.2c0,.4.1.8.7.8h.4Z"/><path d="M229.5,260.6a5.7,5.7,0,0,0,2.7.7c1.6,0,2.2-.8,2.2-1.6,0-2.5-5.1-1.2-5.1-4.7,0-1.8,1.4-3,3.6-3a5.8,5.8,0,0,1,2.8.6l-.5,1.2a7.3,7.3,0,0,0-2.3-.4c-1.4,0-2,.6-2,1.4,0,2.3,5.1,1.1,5.1,4.7,0,1.6-1.3,3.1-3.9,3.1a5.8,5.8,0,0,1-3-.7Z"/><path d="M239.2,250.1a1,1,0,0,1-1-1.1,1.1,1.1,0,0,1,1-1.1c.7,0,1.1.4,1.1,1.2A1,1,0,0,1,239.2,250.1Zm2.1,12.2a2.5,2.5,0,0,1-1.2.3c-1.4,0-1.8-.9-1.8-2v-8.4H240v8.2c0,.4.1.8.7.8h.4Z"/><path d="M247.4,252c3.2,0,4.7,2.4,4.7,5.3s-1.9,5.3-4.8,5.3-4.7-2.3-4.7-5.3S244.5,252,247.4,252Zm-.1,9.2c2.1,0,3.1-1.7,3.1-3.9s-1-3.9-3.1-3.9-3,1.8-3,3.9S245.2,261.2,247.3,261.2Zm-1.7-10.9,1.9-2.9h1.8l-2.3,2.9Z"/><path d="M260.9,262.4v-7a1.7,1.7,0,0,0-2-2,4.4,4.4,0,0,0-2.8,1.1v7.9h-1.6V252.2h1l.6,1a4.9,4.9,0,0,1,3.1-1.2c2.6,0,3.3,1.5,3.3,3.4v7Z"/><path d="M266.5,262.6a1,1,0,0,1-1.1-1,1,1,0,0,1,1.1-1.1,1,1,0,0,1,1,1.1A.9.9,0,0,1,266.5,262.6Z"/><path d="M275.5,262.4V249.2h7.9v1.4h-6.2V255h5.1v1.4h-5.1V261h6.4v1.4Z"/><path d="M288.7,262.3a2.5,2.5,0,0,1-1.2.3c-1.4,0-1.8-.9-1.8-2V247.2h1.7v13.2c0,.4.1.8.7.8h.4Z"/><path d="M298.5,262.3a2.5,2.5,0,0,1-1.2.3c-1.4,0-1.8-.9-1.8-2V247.2h1.7v13.2c0,.4.1.8.7.8h.4Z"/><path d="M307.9,261.7a5.4,5.4,0,0,1-3.3.9c-2.9,0-4.8-2-4.8-5.1s1.8-5.5,4.5-5.5,3.8,1.9,3.8,4.1a9.7,9.7,0,0,1-.1,1.7h-6.5a3.3,3.3,0,0,0,3.4,3.4,6.2,6.2,0,0,0,2.6-.6Zm-1.4-5c0-.2.1-.5.1-.7a2.2,2.2,0,0,0-2.4-2.5c-1.8,0-2.6,1.6-2.6,3.2Z"/><path d="M316.9,253.5a2.6,2.6,0,0,1,.7,1.9,3.6,3.6,0,0,1-3.7,3.6h-.7a1.9,1.9,0,0,0-.4.9c0,.4.1.7,1.2.7,3.4,0,4.4,1,4.4,2.8s-1.7,3.5-4.6,3.5-3.9-.9-3.9-2.9a2.7,2.7,0,0,1,2-2.5,1.4,1.4,0,0,1-.7-1.3.6.6,0,0,1,.1-.4l.8-1.1a3.3,3.3,0,0,1-1.8-3.1,3.4,3.4,0,0,1,3.6-3.5,3.9,3.9,0,0,1,1.8.4l3.6-.2v1.3Zm-5.5,10.1c0,1,.8,1.8,2.6,1.8s2.8-.6,2.8-1.9-.6-1.6-2.8-1.6h-1C312,262.1,311.4,262.6,311.4,263.6Zm4.6-8.2a1.9,1.9,0,0,0-2.1-2.1,2,2,0,0,0-2.1,2.2,2,2,0,0,0,2.1,2.1A2,2,0,0,0,316,255.4Z"/><path d="M328.9,262.3a1.9,1.9,0,0,1-1.2.3,1.7,1.7,0,0,1-1.7-1.1,4.5,4.5,0,0,1-3.2,1.1,2.6,2.6,0,0,1-2.9-2.6c0-2.6,2.6-3.2,6.1-3.2,0-1.8-.1-3.4-2.3-3.4a6.7,6.7,0,0,0-2.7.6l-.4-1.2a6.6,6.6,0,0,1,3.3-.8c3.2,0,3.7,1.7,3.7,4.5v3.7c0,.7.1,1.1.7,1.1h.4Zm-2.9-4.4c-2.7,0-4.4.4-4.4,1.9a1.5,1.5,0,0,0,1.6,1.5,3.9,3.9,0,0,0,2.8-1.1Z"/><path d="M337.7,262.4l-.4-.9a4.7,4.7,0,0,1-2.9,1.1c-2.6,0-4.4-2.1-4.4-5s2-5.6,4.9-5.6a5.7,5.7,0,0,1,2.3.5v-5.3h1.6v15.2Zm-.5-8.5a4.2,4.2,0,0,0-2.1-.5c-2.1,0-3.3,1.5-3.3,4s1.2,3.8,3,3.8a3.7,3.7,0,0,0,2.4-1Z"/><path d="M346,252c3.2,0,4.7,2.4,4.7,5.3s-1.9,5.3-4.8,5.3-4.7-2.3-4.7-5.3S343.1,252,346,252Zm-.1,9.2c2.1,0,3.1-1.7,3.1-3.9s-1-3.9-3.1-3.9-3,1.8-3,3.9S343.8,261.2,345.9,261.2Z"/><path d="M365.2,261.7a5.8,5.8,0,0,1-3.4.9c-2.9,0-4.8-2-4.8-5.1s1.8-5.5,4.6-5.5,3.8,1.9,3.8,4.1a9.9,9.9,0,0,1-.2,1.7h-6.4a3.2,3.2,0,0,0,3.3,3.4,6.2,6.2,0,0,0,2.6-.6Zm-1.4-5V256c0-1.5-.7-2.5-2.3-2.5s-2.7,1.6-2.7,3.2Z"/><path d="M367.6,260.6a5.7,5.7,0,0,0,2.7.7c1.6,0,2.2-.8,2.2-1.6,0-2.5-5.1-1.2-5.1-4.7,0-1.8,1.4-3,3.6-3a5.8,5.8,0,0,1,2.8.6l-.5,1.2a7.3,7.3,0,0,0-2.3-.4c-1.4,0-2,.6-2,1.4,0,2.3,5.1,1.1,5.1,4.7,0,1.6-1.3,3.1-3.9,3.1a5.8,5.8,0,0,1-3-.7Z"/><path d="M381.6,262.2a4.6,4.6,0,0,1-2,.4c-1.8,0-2.8-1-2.8-3.2v-6H375v-1.2h1.8V250l1.6-.4v2.6h3.2v1.2h-3.2v6c0,1.3.7,1.8,1.6,1.8a2.5,2.5,0,0,0,1.3-.3Z"/><path d="M391.8,262.3a2.1,2.1,0,0,1-1.2.3,1.6,1.6,0,0,1-1.7-1.1,4.5,4.5,0,0,1-3.2,1.1c-1.7,0-2.9-.9-2.9-2.6s2.6-3.2,6-3.2c0-1.8,0-3.4-2.3-3.4a6.6,6.6,0,0,0-2.6.6l-.4-1.2a6.6,6.6,0,0,1,3.3-.8c3.2,0,3.7,1.7,3.7,4.5v3.7c0,.7.1,1.1.7,1.1h.4Zm-3-4.4c-2.6,0-4.3.4-4.3,1.9a1.5,1.5,0,0,0,1.6,1.5,3.5,3.5,0,0,0,2.7-1.1Zm-3.2-7.6,1.8-2.9h1.9l-2.4,2.9Z"/><path d="M405.4,261.9a5.5,5.5,0,0,1-3,.7c-2.5,0-4.7-1.7-4.7-5.1s2.2-5.5,5.1-5.5a5.5,5.5,0,0,1,2.6.6l-.5,1.3a3.8,3.8,0,0,0-2.1-.5c-2,0-3.4,1.3-3.4,4.1s1.5,3.7,3.3,3.7a3.5,3.5,0,0,0,2.3-.6Z"/><path d="M411.3,252c3.2,0,4.7,2.4,4.7,5.3s-1.9,5.3-4.9,5.3-4.7-2.3-4.7-5.3S408.3,252,411.3,252Zm-.1,9.2c2.1,0,3.1-1.7,3.1-3.9s-1-3.9-3.1-3.9-3.1,1.8-3.1,3.9S409.1,261.2,411.2,261.2Z"/><path d="M424.7,262.4v-7a1.7,1.7,0,0,0-2-2,3.9,3.9,0,0,0-2.7,1.1v7.9h-1.7V252.2h1l.6,1a4.9,4.9,0,0,1,3.2-1.2c2.6,0,3.3,1.5,3.3,3.4v7Z"/><path d="M429.2,260.6a5.3,5.3,0,0,0,2.6.7c1.6,0,2.2-.8,2.2-1.6,0-2.5-5.1-1.2-5.1-4.7,0-1.8,1.5-3,3.7-3a5.4,5.4,0,0,1,2.7.6l-.4,1.2a7.3,7.3,0,0,0-2.3-.4c-1.4,0-2.1.6-2.1,1.4,0,2.3,5.2,1.1,5.2,4.7,0,1.6-1.3,3.1-3.9,3.1a6.5,6.5,0,0,1-3.1-.7Z"/><path d="M443.2,262.2a5,5,0,0,1-2,.4c-1.8,0-2.8-1-2.8-3.2v-6h-1.8v-1.2h1.8V250l1.6-.4v2.6h3.2v1.2H440v6c0,1.3.6,1.8,1.6,1.8a2.5,2.5,0,0,0,1.3-.3Z"/><path d="M446.1,250.1a1,1,0,0,1-1-1.1,1.1,1.1,0,0,1,1-1.1c.7,0,1.1.4,1.1,1.2A1,1,0,0,1,446.1,250.1Zm2.1,12.2a2.5,2.5,0,0,1-1.2.3c-1.4,0-1.8-.9-1.8-2v-8.4h1.7v8.2c0,.4,0,.8.7.8h.3Z"/><path d="M455.5,262.2a5.6,5.6,0,0,1-2.1.4c-1.8,0-2.8-1-2.8-3.2v-6h-1.8v-1.2h1.8V250l1.6-.4v2.6h3.2v1.2h-3.2v6c0,1.3.7,1.8,1.6,1.8a2.5,2.5,0,0,0,1.3-.3Z"/><path d="M464.3,262.4l-.6-1a4.2,4.2,0,0,1-3,1.2c-2.4,0-3.3-1.6-3.3-3.6v-6.8h1.7V259c0,1.6.9,2.2,2,2.2a3.4,3.4,0,0,0,2.5-1.1v-7.9h1.7v10.2Z"/><path d="M469.3,250.1a1,1,0,0,1-1-1.1,1.1,1.1,0,0,1,1-1.1c.7,0,1.1.4,1.1,1.2A1,1,0,0,1,469.3,250.1Zm2.1,12.2a2.5,2.5,0,0,1-1.2.3c-1.4,0-1.8-.9-1.8-2v-8.4h1.7v8.2c0,.4.1.8.7.8h.4Z"/><path d="M480.4,262.4l-.5-.9a4.3,4.3,0,0,1-2.8,1.1c-2.6,0-4.4-2.1-4.4-5s1.9-5.6,4.8-5.6a5.1,5.1,0,0,1,2.3.5v-5.3h1.7v15.2Zm-.6-8.5a4.2,4.2,0,0,0-2.1-.5c-2,0-3.3,1.5-3.3,4s1.2,3.8,3,3.8a3.7,3.7,0,0,0,2.4-1Z"/><path d="M488.7,252c3.2,0,4.7,2.4,4.7,5.3s-1.9,5.3-4.9,5.3-4.6-2.3-4.6-5.3S485.7,252,488.7,252Zm-.1,9.2c2.1,0,3.1-1.7,3.1-3.9s-1-3.9-3.1-3.9-3.1,1.8-3.1,3.9S486.5,261.2,488.6,261.2Z"/><path d="M500.5,266.6V252.2h1.1l.5.9a4.3,4.3,0,0,1,2.8-1.1c2.7,0,4.4,2.2,4.4,5.1s-2,5.5-4.9,5.5a5.7,5.7,0,0,1-2.3-.5v4.5Zm1.6-5.9a4.9,4.9,0,0,0,2.2.5c2,0,3.3-1.5,3.3-3.9s-1.3-3.9-3-3.9a4.2,4.2,0,0,0-2.5,1Z"/><path d="M515.7,252c3.2,0,4.7,2.4,4.7,5.3s-1.9,5.3-4.9,5.3-4.7-2.3-4.7-5.3S512.7,252,515.7,252Zm-.1,9.2c2.1,0,3.1-1.7,3.1-3.9s-1-3.9-3.1-3.9-3.1,1.8-3.1,3.9S513.5,261.2,515.6,261.2Z"/><path d="M522.7,262.4V252.2h1l.5,1.4a3.8,3.8,0,0,1,3.1-1.6,1.5,1.5,0,0,1,.9.2l-.3,1.5-.9-.2a3.2,3.2,0,0,0-2.6,1.4v7.5Z"/><path d="M537.5,262.3a2.5,2.5,0,0,1-1.2.3c-1.4,0-1.8-.9-1.8-2V247.2h1.7v13.2c0,.4.1.8.7.8h.4Z"/><path d="M543.6,252c3.2,0,4.7,2.4,4.7,5.3s-1.9,5.3-4.8,5.3-4.7-2.3-4.7-5.3S540.7,252,543.6,252Zm-.1,9.2c2.1,0,3.1-1.7,3.1-3.9s-1-3.9-3.1-3.9-3,1.8-3,3.9S541.4,261.2,543.5,261.2Z"/><path d="M550.5,260.6a5.3,5.3,0,0,0,2.6.7c1.6,0,2.2-.8,2.2-1.6,0-2.5-5.1-1.2-5.1-4.7,0-1.8,1.5-3,3.7-3a5.4,5.4,0,0,1,2.7.6l-.4,1.2a7.3,7.3,0,0,0-2.3-.4c-1.4,0-2.1.6-2.1,1.4,0,2.3,5.1,1.1,5.1,4.7,0,1.6-1.2,3.1-3.8,3.1a6.5,6.5,0,0,1-3.1-.7Z"/><path d="M193.8,286.7a2.1,2.1,0,0,1-1.2.3,1.6,1.6,0,0,1-1.7-1.1,5,5,0,0,1-3.2,1.1c-1.7,0-2.9-.9-2.9-2.6s2.6-3.2,6-3.2c0-1.8,0-3.4-2.3-3.4a6.6,6.6,0,0,0-2.6.6l-.4-1.2a6.6,6.6,0,0,1,3.3-.8c3.2,0,3.7,1.7,3.7,4.5v3.7c0,.7.1,1.1.7,1.1h.4Zm-3-4.4c-2.6,0-4.3.4-4.3,1.9a1.5,1.5,0,0,0,1.6,1.5,3.5,3.5,0,0,0,2.7-1.1Z"/><path d="M195.7,291V276.6h1.2l.4.9a4.3,4.3,0,0,1,2.8-1.1c2.8,0,4.4,2.2,4.4,5s-1.9,5.6-4.8,5.6a5.1,5.1,0,0,1-2.3-.5V291Zm1.7-5.9a4.2,4.2,0,0,0,2.1.5c2.1,0,3.3-1.5,3.3-4s-1.2-3.8-3-3.8a3.7,3.7,0,0,0-2.4,1Z"/><path d="M206.9,286.8V276.6h1l.5,1.4a3.8,3.8,0,0,1,3.1-1.6h.9l-.3,1.5h-.9a3.6,3.6,0,0,0-2.7,1.4v7.5Z"/><path d="M220.9,286.1a5.5,5.5,0,0,1-3.4.9c-2.9,0-4.7-2-4.7-5.1s1.8-5.5,4.5-5.5,3.8,1.9,3.8,4.1a9.9,9.9,0,0,1-.2,1.7h-6.4a3.2,3.2,0,0,0,3.3,3.4,5.5,5.5,0,0,0,2.6-.6Zm-1.4-5v-.7c0-1.5-.7-2.6-2.3-2.6s-2.6,1.7-2.7,3.3Z"/><path d="M229.9,286.8v-7c0-1.6-.8-2-2-2a3.9,3.9,0,0,0-2.7,1.1v7.9h-1.7V276.6h1l.6,1a4.9,4.9,0,0,1,3.2-1.2c2.6,0,3.3,1.5,3.3,3.4v7Z"/><path d="M241.5,286.8l-.5-.9a4.3,4.3,0,0,1-2.8,1.1c-2.6,0-4.4-2.1-4.4-5s1.9-5.6,4.9-5.6a4.9,4.9,0,0,1,2.2.5v-5.4h1.7v15.3Zm-.6-8.5a4.2,4.2,0,0,0-2.1-.5c-2,0-3.3,1.5-3.3,4s1.2,3.8,3,3.8a3.4,3.4,0,0,0,2.4-1Z"/><path d="M246.6,274.5a1,1,0,0,1-1-1.1,1.1,1.1,0,0,1,1-1.1c.7,0,1.1.4,1.1,1.2A1,1,0,0,1,246.6,274.5Zm2.1,12.2a2.5,2.5,0,0,1-1.2.3c-1.4,0-1.8-.9-1.8-2v-8.4h1.7v8.2c0,.4.1.8.7.8h.4Z"/><path d="M249.8,286.8v-1.3l5.8-7.5h-5.8v-1.4h7.6V278l-5.8,7.4h5.9v1.4Z"/><path d="M268,286.7a2.1,2.1,0,0,1-1.2.3,1.7,1.7,0,0,1-1.8-1.1,4.9,4.9,0,0,1-3.1,1.1c-1.7,0-2.9-.9-2.9-2.6s2.6-3.2,6-3.2c0-1.8,0-3.4-2.3-3.4a7.2,7.2,0,0,0-2.7.6l-.4-1.2a7.4,7.4,0,0,1,3.4-.8c3.1,0,3.7,1.7,3.7,4.5v3.7c0,.7,0,1.1.7,1.1h.3Zm-3-4.4c-2.6,0-4.4.4-4.4,1.9a1.6,1.6,0,0,0,1.7,1.5,3.7,3.7,0,0,0,2.7-1.1Z"/><path d="M267.1,289.6h.9a1.8,1.8,0,0,0,1.9-2V276.6h1.6v10.8c0,2.5-1.3,3.8-3.3,3.8a3.7,3.7,0,0,1-1.4-.3Zm3.6-15.1a1,1,0,0,1-1-1.1,1.1,1.1,0,0,1,1-1.1c.7,0,1.1.4,1.1,1.2A1,1,0,0,1,270.7,274.5Z"/><path d="M282,286.1a5.4,5.4,0,0,1-3.3.9c-2.9,0-4.8-2-4.8-5.1s1.8-5.5,4.5-5.5,3.9,1.9,3.9,4.1a9.9,9.9,0,0,1-.2,1.7h-6.5a3.3,3.3,0,0,0,3.4,3.4,6.2,6.2,0,0,0,2.6-.6Zm-1.4-5c0-.2.1-.5.1-.7s-.7-2.6-2.4-2.6-2.6,1.7-2.6,3.3Z"/><path d="M284.5,285a6.6,6.6,0,0,0,2.6.7c1.6,0,2.2-.8,2.2-1.6,0-2.5-5.1-1.2-5.1-4.7,0-1.8,1.5-3,3.7-3a5.4,5.4,0,0,1,2.7.6l-.4,1.2a7.3,7.3,0,0,0-2.3-.4c-1.4,0-2.1.6-2.1,1.4,0,2.3,5.2,1.1,5.2,4.6,0,1.7-1.3,3.2-3.9,3.2a6.5,6.5,0,0,1-3.1-.7Z"/><path d="M293,289.7a3.7,3.7,0,0,0,1-2.4,1.6,1.6,0,0,0-1.1-1.6s.3-1.1,1.3-1.1,1.4.7,1.4,1.8a5.7,5.7,0,0,1-1.8,3.8Z"/><path d="M304.8,277.5a5.2,5.2,0,0,1,3.1-1.1c2.6,0,3.3,1.5,3.3,3.4v7h-1.7v-7c0-1.6-.8-2-2-2a4.4,4.4,0,0,0-2.7,1.1v7.9h-1.7V271.5h1.7Z"/><path d="M322.4,286.7a2.1,2.1,0,0,1-1.2.3,1.7,1.7,0,0,1-1.8-1.1,4.9,4.9,0,0,1-3.1,1.1c-1.7,0-2.9-.9-2.9-2.6s2.6-3.2,6-3.2c0-1.8,0-3.4-2.3-3.4a7.2,7.2,0,0,0-2.7.6l-.4-1.2a7.4,7.4,0,0,1,3.4-.8c3.1,0,3.7,1.7,3.7,4.5v3.7c0,.7,0,1.1.7,1.1h.3Zm-3-4.4c-2.6,0-4.4.4-4.4,1.9a1.6,1.6,0,0,0,1.7,1.5,3.7,3.7,0,0,0,2.7-1.1Z"/><path d="M327.3,286.7a2.7,2.7,0,0,1-1.3.3c-1.3,0-1.7-.9-1.7-2V271.5h1.6v13.3c0,.4.1.8.7.8h.4Z"/><path d="M332.3,286.7a2.5,2.5,0,0,1-1.2.3c-1.4,0-1.8-.9-1.8-2V271.5H331v13.3c0,.4.1.8.7.8h.4Z"/><path d="M342.6,286.7a2.5,2.5,0,0,1-1.3.3,1.7,1.7,0,0,1-1.7-1.1,5,5,0,0,1-3.2,1.1,2.6,2.6,0,0,1-2.9-2.6c0-2.6,2.7-3.2,6.1-3.2,0-1.8-.1-3.4-2.3-3.4a6.7,6.7,0,0,0-2.7.6l-.4-1.2a6.6,6.6,0,0,1,3.3-.8c3.2,0,3.7,1.7,3.7,4.5v3.7c0,.7.1,1.1.7,1.1h.4Zm-3-4.4c-2.7,0-4.4.4-4.4,1.9a1.5,1.5,0,0,0,1.6,1.5,3.9,3.9,0,0,0,2.8-1.1Z"/><path d="M343.6,286.8v-1.3l5.9-7.5h-5.8v-1.4h7.6V278l-5.8,7.4h5.9v1.4Z"/><path d="M360,277.9a2.6,2.6,0,0,1,.7,1.9,3.6,3.6,0,0,1-3.7,3.6h-.7a2,2,0,0,0-.4.8c0,.5.2.8,1.2.8,3.4,0,4.4,1,4.4,2.8s-1.6,3.5-4.6,3.5-3.9-1-3.9-2.9a2.7,2.7,0,0,1,2-2.5,1.4,1.4,0,0,1-.7-1.3.6.6,0,0,1,.1-.4l.8-1.1a3.3,3.3,0,0,1-1.8-3.1,3.4,3.4,0,0,1,3.6-3.5,5.9,5.9,0,0,1,1.9.3h3.5v1.3ZM354.5,288c0,1,.8,1.8,2.6,1.8s2.8-.7,2.8-1.9-.6-1.6-2.8-1.6h-1C355.2,286.5,354.5,287,354.5,288Zm4.6-8.2a1.9,1.9,0,0,0-2.1-2.1,2,2,0,0,0-2.1,2.2A2,2,0,0,0,357,282,1.9,1.9,0,0,0,359.1,279.8Z"/><path d="M367.9,276.4c3.2,0,4.7,2.4,4.7,5.3s-1.9,5.3-4.8,5.3-4.7-2.3-4.7-5.3S364.9,276.4,367.9,276.4Zm-.1,9.2c2.1,0,3.1-1.8,3.1-3.9s-1-3.9-3.1-3.9-3,1.8-3,3.9S365.7,285.6,367.8,285.6Z"/><path d="M374.8,285a6.2,6.2,0,0,0,2.6.7c1.6,0,2.2-.8,2.2-1.6,0-2.5-5.1-1.2-5.1-4.7,0-1.8,1.4-3,3.6-3a5.5,5.5,0,0,1,2.8.6l-.5,1.2a6.7,6.7,0,0,0-2.2-.4c-1.5,0-2.1.6-2.1,1.4,0,2.3,5.1,1.1,5.1,4.6,0,1.7-1.2,3.2-3.9,3.2a6.3,6.3,0,0,1-3-.7Z"/><path d="M386.7,276.6h1.9l3.2,8.4,2.8-8.4h1.7l-4.2,11.5a3.8,3.8,0,0,1-3.7,2.9,3,3,0,0,1-1.8-.6l.5-1.2a2.6,2.6,0,0,0,1.4.3c1.4,0,2-1.1,2.5-2.6Z"/><path d="M402.6,286.8V276.6h1l.5,1.4a3.8,3.8,0,0,1,3.1-1.6h.9l-.3,1.5h-.9a3.6,3.6,0,0,0-2.7,1.4v7.5Z"/><path d="M416.6,286.1a5.5,5.5,0,0,1-3.4.9c-2.9,0-4.7-2-4.7-5.1s1.8-5.5,4.5-5.5,3.8,1.9,3.8,4.1a5,5,0,0,1-.2,1.7h-6.4a3.2,3.2,0,0,0,3.3,3.4,5.5,5.5,0,0,0,2.6-.6Zm-1.4-5v-.7c0-1.5-.7-2.6-2.3-2.6s-2.6,1.7-2.7,3.3Z"/><path d="M426.2,286.3a6,6,0,0,1-3,.7c-2.6,0-4.8-1.8-4.8-5.1s2.2-5.5,5.2-5.5a4.2,4.2,0,0,1,2.5.6l-.4,1.3a3.8,3.8,0,0,0-2.1-.5c-2.1,0-3.5,1.2-3.5,4.1a3.4,3.4,0,0,0,3.4,3.7,4.5,4.5,0,0,0,2.3-.6Z"/><path d="M432,276.4c3.2,0,4.7,2.4,4.7,5.3s-1.9,5.3-4.8,5.3-4.7-2.3-4.7-5.3S429.1,276.4,432,276.4Zm-.1,9.2c2.1,0,3.1-1.8,3.1-3.9s-1-3.9-3.1-3.9-3,1.8-3,3.9S429.8,285.6,431.9,285.6Z"/><path d="M451.1,286.8v-7a1.8,1.8,0,0,0-2.1-2,3.5,3.5,0,0,0-2.3,1.1v7.9h-1.6v-7a1.8,1.8,0,0,0-2-2,3.6,3.6,0,0,0-2.4,1.1v7.9h-1.6V276.6h1l.6,1a4,4,0,0,1,2.7-1.2,3.1,3.1,0,0,1,2.9,1.3,5.2,5.2,0,0,1,3.1-1.3c2.3,0,3.3,1.3,3.3,3.4v7Z"/><path d="M463.1,286.1a6,6,0,0,1-3.4.9c-2.9,0-4.8-2-4.8-5.1s1.8-5.5,4.6-5.5,3.8,1.9,3.8,4.1a9.9,9.9,0,0,1-.2,1.7h-6.4a3.2,3.2,0,0,0,3.3,3.4,6.2,6.2,0,0,0,2.6-.6Zm-1.4-5v-.7c0-1.5-.7-2.6-2.3-2.6s-2.7,1.7-2.7,3.3Z"/><path d="M472.1,286.8v-7a1.7,1.7,0,0,0-2-2,4.4,4.4,0,0,0-2.8,1.1v7.9h-1.6V276.6h1l.6,1a4.9,4.9,0,0,1,3.2-1.2c2.5,0,3.2,1.5,3.2,3.4v7Z"/><path d="M483.6,286.8l-.4-.9a4.6,4.6,0,0,1-2.8,1.1c-2.6,0-4.4-2.1-4.4-5s1.9-5.6,4.8-5.6a5.7,5.7,0,0,1,2.3.5v-5.4h1.7v15.3Zm-.5-8.5a4.2,4.2,0,0,0-2.1-.5c-2.1,0-3.3,1.5-3.3,4s1.2,3.8,3,3.8a3.7,3.7,0,0,0,2.4-1Z"/><path d="M496.1,286.7a2.1,2.1,0,0,1-1.2.3,1.8,1.8,0,0,1-1.8-1.1A4.9,4.9,0,0,1,490,287c-1.7,0-2.9-.9-2.9-2.6s2.6-3.2,6-3.2c0-1.8,0-3.4-2.3-3.4a7.2,7.2,0,0,0-2.7.6l-.4-1.2a7.4,7.4,0,0,1,3.4-.8c3.1,0,3.7,1.7,3.7,4.5v3.7c0,.7,0,1.1.7,1.1h.3Zm-3-4.4c-2.6,0-4.3.4-4.3,1.9a1.5,1.5,0,0,0,1.6,1.5,3.7,3.7,0,0,0,2.7-1.1Z"/><path d="M504.9,286.3a5.5,5.5,0,0,1-3,.7c-2.5,0-4.7-1.8-4.7-5.1s2.2-5.5,5.2-5.5a4.4,4.4,0,0,1,2.5.6l-.4,1.3a4.3,4.3,0,0,0-2.1-.5c-2.1,0-3.5,1.2-3.5,4.1a3.4,3.4,0,0,0,3.3,3.7,4,4,0,0,0,2.3-.6Z"/><path d="M507.7,274.5a1,1,0,0,1-1.1-1.1,1.1,1.1,0,0,1,1.1-1.1c.6,0,1,.4,1,1.2A1,1,0,0,1,507.7,274.5Zm2,12.2a2.5,2.5,0,0,1-1.2.3c-1.4,0-1.7-.9-1.7-2v-8.4h1.6v8.2c0,.4.1.8.7.8h.4Z"/><path d="M515.8,276.4c3.3,0,4.7,2.4,4.7,5.3s-1.9,5.3-4.8,5.3-4.7-2.3-4.7-5.3S512.9,276.4,515.8,276.4Zm-.1,9.2c2.1,0,3.1-1.8,3.1-3.9s-1-3.9-3.1-3.9-3,1.8-3,3.9S513.6,285.6,515.7,285.6Z"/><path d="M529.3,286.8v-7a1.7,1.7,0,0,0-2-2,4.4,4.4,0,0,0-2.8,1.1v7.9h-1.6V276.6h1l.6,1a4.9,4.9,0,0,1,3.1-1.2c2.6,0,3.3,1.5,3.3,3.4v7Z"/><path d="M541.3,286.1a5.8,5.8,0,0,1-3.4.9c-2.9,0-4.8-2-4.8-5.1s1.9-5.5,4.6-5.5,3.8,1.9,3.8,4.1a9.9,9.9,0,0,1-.2,1.7h-6.4a3.2,3.2,0,0,0,3.3,3.4,5.9,5.9,0,0,0,2.6-.6Zm-1.4-5v-.7c0-1.5-.7-2.6-2.3-2.6s-2.6,1.7-2.7,3.3Z"/><path d="M543.7,285a7.1,7.1,0,0,0,2.7.7c1.6,0,2.2-.8,2.2-1.6,0-2.5-5.1-1.2-5.1-4.7,0-1.8,1.4-3,3.6-3a5.8,5.8,0,0,1,2.8.6l-.5,1.2a6.8,6.8,0,0,0-2.3-.4c-1.4,0-2,.6-2,1.4,0,2.3,5.1,1.1,5.1,4.6,0,1.7-1.2,3.2-3.9,3.2a6,6,0,0,1-3-.7Z"/><path d="M192,315.3v-4.6a5.8,5.8,0,0,1-2.6.7c-2.8,0-4.6-1.9-4.6-5s2.2-5.6,5.2-5.6a11.4,11.4,0,0,1,3.6.7v13.8Zm0-12.7a5.5,5.5,0,0,0-2-.4c-2.5,0-3.4,2-3.4,4.1s.7,3.7,3,3.7a5.5,5.5,0,0,0,2.4-.7Z"/><path d="M203.6,311.2l-.6-1a3.9,3.9,0,0,1-2.9,1.2c-2.5,0-3.3-1.6-3.3-3.6V301h1.6v6.8c0,1.6.9,2.2,2,2.2a3.7,3.7,0,0,0,2.6-1.1V301h1.6v10.2Z"/><path d="M215.1,310.5a5.4,5.4,0,0,1-3.3.9c-2.9,0-4.8-2-4.8-5.2s1.8-5.4,4.5-5.4,3.8,1.9,3.8,4.1a8.1,8.1,0,0,1-.1,1.6h-6.5c.1,1.7,1,3.5,3.3,3.5a5.5,5.5,0,0,0,2.6-.6Zm-1.4-5c0-.2.1-.5.1-.7a2.3,2.3,0,0,0-2.4-2.6c-1.8,0-2.6,1.7-2.6,3.3Z"/><path d="M229.8,310.5a5.4,5.4,0,0,1-3.3.9c-2.9,0-4.8-2-4.8-5.2s1.8-5.4,4.6-5.4,3.8,1.9,3.8,4.1a7.8,7.8,0,0,1-.2,1.6h-6.4a3.2,3.2,0,0,0,3.3,3.5,6.2,6.2,0,0,0,2.6-.6Zm-1.4-5a1.7,1.7,0,0,0,.1-.7c0-1.5-.7-2.6-2.3-2.6s-2.7,1.7-2.7,3.3Z"/><path d="M232.3,309.4a7.2,7.2,0,0,0,2.7.6c1.5,0,2.1-.7,2.1-1.5,0-2.5-5-1.2-5-4.7,0-1.8,1.4-3,3.6-3a7.1,7.1,0,0,1,2.7.5l-.4,1.3a7.3,7.3,0,0,0-2.3-.4c-1.4,0-2,.6-2,1.4s5.1,1.1,5.1,4.6c0,1.7-1.3,3.2-3.9,3.2a6.5,6.5,0,0,1-3.1-.7Z"/><path d="M241.1,315.3V301h1.2l.4.9a4.6,4.6,0,0,1,2.8-1.1c2.8,0,4.4,2.2,4.4,5s-1.9,5.6-4.8,5.6a5.7,5.7,0,0,1-2.3-.5v4.4Zm1.7-5.8a4.2,4.2,0,0,0,2.1.5c2.1,0,3.3-1.5,3.3-4s-1.2-3.8-3-3.8a3.7,3.7,0,0,0-2.4,1Z"/><path d="M259.6,310.5a5.4,5.4,0,0,1-3.3.9c-2.9,0-4.8-2-4.8-5.2s1.8-5.4,4.5-5.4,3.9,1.9,3.9,4.1a7.8,7.8,0,0,1-.2,1.6h-6.5c.1,1.7,1,3.5,3.4,3.5a6.2,6.2,0,0,0,2.6-.6Zm-1.4-5c0-.2.1-.5.1-.7s-.7-2.6-2.4-2.6-2.6,1.7-2.6,3.3Z"/><path d="M262.3,311.2V301h1l.5,1.4a3.6,3.6,0,0,1,3-1.6h1l-.3,1.5h-.9a3.6,3.6,0,0,0-2.7,1.4v7.5Z"/><path d="M276.9,311.1a2.1,2.1,0,0,1-1.2.3,1.6,1.6,0,0,1-1.7-1.2,4.5,4.5,0,0,1-3.2,1.2,2.6,2.6,0,0,1-2.9-2.6c0-2.6,2.6-3.2,6-3.2,0-1.8,0-3.4-2.3-3.4a6.6,6.6,0,0,0-2.6.6l-.4-1.3a8.1,8.1,0,0,1,3.3-.7c3.2,0,3.7,1.7,3.7,4.5V309c0,.7.1,1,.7,1h.4Zm-3-4.4c-2.6,0-4.3.4-4.3,1.9a1.5,1.5,0,0,0,1.6,1.5,3.5,3.5,0,0,0,2.7-1.1Z"/><path d="M290.8,311.2v-7a1.8,1.8,0,0,0-2-2,3.5,3.5,0,0,0-2.3,1.1v7.9h-1.7v-7c0-1.5-.7-2-2-2a3.5,3.5,0,0,0-2.3,1.1v7.9h-1.7V301h1l.6,1a4.1,4.1,0,0,1,2.8-1.2,2.9,2.9,0,0,1,2.8,1.3,5.6,5.6,0,0,1,3.2-1.3c2.2,0,3.3,1.3,3.3,3.4v7Z"/><path d="M299.5,300.8c3.2,0,4.7,2.4,4.7,5.3s-1.9,5.3-4.8,5.3-4.7-2.4-4.7-5.3S296.5,300.8,299.5,300.8Zm-.1,9.2c2.1,0,3.1-1.8,3.1-3.9s-1-3.9-3.1-3.9-3,1.8-3,3.9S297.3,310,299.4,310Z"/><path d="M306.4,309.4a6.6,6.6,0,0,0,2.6.6c1.6,0,2.2-.7,2.2-1.5,0-2.5-5.1-1.2-5.1-4.7,0-1.8,1.4-3,3.6-3a7.3,7.3,0,0,1,2.8.5l-.4,1.3a7.9,7.9,0,0,0-2.3-.4c-1.4,0-2.1.6-2.1,1.4s5.1,1.1,5.1,4.6c0,1.7-1.2,3.2-3.9,3.2a6.3,6.3,0,0,1-3-.7Z"/><path d="M320.4,315.3V302.2h-1.9V301h1.9v-.4c0-2.9,1.5-4.8,4.2-4.8a4.4,4.4,0,0,1,1.6.2l-.3,1.3-1.2-.2c-1.9,0-2.7,1.2-2.7,3.2v.7h2.9v1.2H322v13.1Z"/><path d="M333,311.2l-.6-1a3.9,3.9,0,0,1-2.9,1.2c-2.5,0-3.3-1.6-3.3-3.6V301h1.6v6.8c0,1.6.9,2.2,2,2.2a3.7,3.7,0,0,0,2.6-1.1V301H334v10.2Z"/><path d="M343.6,311.2v-7c0-1.6-.9-2-2.1-2a4.4,4.4,0,0,0-2.7,1.1v7.9h-1.6V301h1l.6,1a4.9,4.9,0,0,1,3.1-1.2c2.6,0,3.3,1.5,3.3,3.4v7Z"/><path d="M355.1,311.2l-.5-.9a4.3,4.3,0,0,1-2.8,1.1c-2.6,0-4.4-2.1-4.4-5s2-5.6,4.9-5.6a5.7,5.7,0,0,1,2.3.5v-5.4h1.6v15.3Zm-.5-8.5a4.9,4.9,0,0,0-2.2-.5c-2,0-3.3,1.5-3.3,4s1.3,3.8,3,3.8a3.8,3.8,0,0,0,2.5-1Z"/><path d="M367.6,311.1a2.5,2.5,0,0,1-1.3.3,1.6,1.6,0,0,1-1.7-1.2,4.5,4.5,0,0,1-3.2,1.2,2.7,2.7,0,0,1-2.9-2.6c0-2.6,2.7-3.2,6.1-3.2,0-1.8,0-3.4-2.3-3.4a6.7,6.7,0,0,0-2.7.6l-.4-1.3a8.1,8.1,0,0,1,3.3-.7c3.2,0,3.7,1.7,3.7,4.5V309c0,.7.1,1,.7,1h.4Zm-3-4.4c-2.6,0-4.4.4-4.4,1.9a1.5,1.5,0,0,0,1.7,1.5,3.7,3.7,0,0,0,2.7-1.1Z"/><path d="M381.4,311.2v-7c0-1.4-.6-2-2-2a3.5,3.5,0,0,0-2.3,1.1v7.9h-1.6v-7c0-1.5-.8-2-2.1-2a3.5,3.5,0,0,0-2.3,1.1v7.9h-1.6V301h1l.6,1a4,4,0,0,1,2.7-1.2,3.1,3.1,0,0,1,2.9,1.3,5.2,5.2,0,0,1,3.1-1.3c2.3,0,3.3,1.3,3.3,3.4v7Z"/><path d="M393.4,310.5a5.4,5.4,0,0,1-3.3.9c-2.9,0-4.8-2-4.8-5.2s1.8-5.4,4.5-5.4,3.9,1.9,3.9,4.1a7.8,7.8,0,0,1-.2,1.6h-6.4a3.2,3.2,0,0,0,3.3,3.5,6.2,6.2,0,0,0,2.6-.6Zm-1.4-5a1.7,1.7,0,0,0,.1-.7c0-1.5-.7-2.6-2.3-2.6s-2.7,1.7-2.7,3.3Z"/><path d="M402.5,311.2v-7a1.7,1.7,0,0,0-2-2,4.4,4.4,0,0,0-2.8,1.1v7.9h-1.6V301h1l.6,1a4.9,4.9,0,0,1,3.1-1.2c2.6,0,3.3,1.5,3.3,3.4v7Z"/><path d="M412.3,310.9a3.4,3.4,0,0,1-2,.5c-1.8,0-2.8-1.1-2.8-3.2v-6h-1.8V301h1.8v-2.2l1.6-.4V301h3.2v1.2h-3.2v6c0,1.3.7,1.8,1.6,1.8a4.2,4.2,0,0,0,1.3-.3Z"/><path d="M421.7,310.5a5.8,5.8,0,0,1-3.4.9c-2.9,0-4.8-2-4.8-5.2s1.9-5.4,4.6-5.4,3.8,1.9,3.8,4.1a7.8,7.8,0,0,1-.2,1.6h-6.4a3.2,3.2,0,0,0,3.3,3.5,5.9,5.9,0,0,0,2.6-.6Zm-1.4-5v-.7c0-1.5-.7-2.6-2.3-2.6s-2.6,1.7-2.7,3.3Z"/><path d="M430.7,311.2v-7a1.7,1.7,0,0,0-2-2,3.9,3.9,0,0,0-2.7,1.1v7.9h-1.7V301h1l.6,1a4.9,4.9,0,0,1,3.2-1.2c2.6,0,3.3,1.5,3.3,3.4v7Z"/><path d="M447,311.2l-.6-1a4.2,4.2,0,0,1-3,1.2c-2.4,0-3.3-1.6-3.3-3.6V301h1.7v6.8c0,1.6.9,2.2,2,2.2a3.4,3.4,0,0,0,2.5-1.1V301H448v10.2Z"/><path d="M457.5,311.2v-7c0-1.6-.8-2-2-2a3.9,3.9,0,0,0-2.7,1.1v7.9h-1.7V301h1l.6,1a4.9,4.9,0,0,1,3.2-1.2c2.6,0,3.3,1.5,3.3,3.4v7Z"/><path d="M470.4,311.1a2.5,2.5,0,0,1-1.3.3,1.6,1.6,0,0,1-1.7-1.2,4.5,4.5,0,0,1-3.2,1.2,2.7,2.7,0,0,1-2.9-2.6c0-2.6,2.7-3.2,6.1-3.2,0-1.8,0-3.4-2.3-3.4a6.7,6.7,0,0,0-2.7.6l-.4-1.3a8.6,8.6,0,0,1,3.3-.7c3.2,0,3.7,1.7,3.7,4.5V309c0,.7.1,1,.7,1h.4Zm-3-4.4c-2.6,0-4.4.4-4.4,1.9a1.6,1.6,0,0,0,1.7,1.5,3.7,3.7,0,0,0,2.7-1.1Z"/><path d="M483.4,311.2v-7c0-1.6-.8-2-2-2a3.9,3.9,0,0,0-2.7,1.1v7.9H477V301h1l.6,1a4.9,4.9,0,0,1,3.2-1.2c2.6,0,3.3,1.5,3.3,3.4v7Z"/><path d="M494.9,311.2l-.6-1a3.8,3.8,0,0,1-2.9,1.2c-2.5,0-3.3-1.6-3.3-3.6V301h1.6v6.8c0,1.6.9,2.2,2,2.2a3.7,3.7,0,0,0,2.6-1.1V301h1.6v10.2Z"/><path d="M506.4,310.5a5.4,5.4,0,0,1-3.3.9c-2.9,0-4.8-2-4.8-5.2s1.8-5.4,4.5-5.4,3.8,1.9,3.8,4.1a8.1,8.1,0,0,1-.1,1.6H500c.1,1.7,1,3.5,3.3,3.5a5.5,5.5,0,0,0,2.6-.6Zm-1.4-5c0-.2.1-.5.1-.7a2.3,2.3,0,0,0-2.4-2.6c-1.8,0-2.6,1.7-2.6,3.3Z"/><path d="M511.1,311.2,507.4,301h1.8l2.9,8.7h.1l3-8.7h1.6l-3.6,10.2Z"/><path d="M526.6,311.1a2.5,2.5,0,0,1-1.3.3,1.6,1.6,0,0,1-1.7-1.2,4.5,4.5,0,0,1-3.2,1.2,2.7,2.7,0,0,1-2.9-2.6c0-2.6,2.7-3.2,6.1-3.2,0-1.8,0-3.4-2.3-3.4a6.7,6.7,0,0,0-2.7.6l-.4-1.3a8.1,8.1,0,0,1,3.3-.7c3.2,0,3.7,1.7,3.7,4.5V309c0,.7.1,1,.7,1h.4Zm-3-4.4c-2.6,0-4.4.4-4.4,1.9a1.5,1.5,0,0,0,1.6,1.5,3.9,3.9,0,0,0,2.8-1.1Z"/><path d="M197.6,335.6v-7a1.8,1.8,0,0,0-2-2,3.5,3.5,0,0,0-2.3,1.1v7.9h-1.7v-7c0-1.5-.7-2-2-2a3.5,3.5,0,0,0-2.3,1.1v7.9h-1.7V325.4h1l.6.9a4.6,4.6,0,0,1,2.8-1.1,3.1,3.1,0,0,1,2.9,1.3,5.2,5.2,0,0,1,3.1-1.3c2.3,0,3.3,1.2,3.3,3.4v7Z"/><path d="M210.5,335.5a2.5,2.5,0,0,1-1.3.3,1.7,1.7,0,0,1-1.7-1.2,4.5,4.5,0,0,1-3.2,1.2,2.7,2.7,0,0,1-2.9-2.6c0-2.6,2.7-3.2,6.1-3.2,0-1.8,0-3.4-2.3-3.4a6.7,6.7,0,0,0-2.7.6l-.4-1.3a8.6,8.6,0,0,1,3.3-.7c3.2,0,3.7,1.7,3.7,4.5v3.7c0,.6.1,1,.7,1h.4Zm-3-4.4c-2.6,0-4.4.4-4.4,1.9a1.6,1.6,0,0,0,1.7,1.5,4.1,4.1,0,0,0,2.7-1.1Z"/><path d="M218.8,335.6v-7a1.7,1.7,0,0,0-2-2,5,5,0,0,0-2.8,1v8h-1.6V325.4h1l.6.9a5.5,5.5,0,0,1,3.1-1.1c2.6,0,3.3,1.5,3.3,3.4v7Z"/><path d="M230.8,334.9a5.8,5.8,0,0,1-3.4.9c-2.9,0-4.8-2-4.8-5.2s1.8-5.4,4.6-5.4,3.8,1.9,3.8,4.1a7.8,7.8,0,0,1-.2,1.6h-6.4a3.2,3.2,0,0,0,3.3,3.5,5,5,0,0,0,2.6-.7Zm-1.4-5v-.7c0-1.5-.7-2.6-2.3-2.6s-2.7,1.7-2.7,3.3Z"/><path d="M233.4,335.6V325.4h1l.5,1.4a3.8,3.8,0,0,1,3.1-1.6h.9l-.3,1.5h-.9a3.2,3.2,0,0,0-2.6,1.4v7.5Z"/><path d="M248.1,335.5a2.5,2.5,0,0,1-1.3.3,1.7,1.7,0,0,1-1.7-1.2,4.5,4.5,0,0,1-3.2,1.2,2.7,2.7,0,0,1-2.9-2.6c0-2.6,2.7-3.2,6.1-3.2,0-1.8,0-3.4-2.3-3.4a6.7,6.7,0,0,0-2.7.6l-.4-1.3a8.1,8.1,0,0,1,3.3-.7c3.2,0,3.7,1.7,3.7,4.5v3.7c0,.6.1,1,.7,1h.4Zm-3-4.4c-2.6,0-4.4.4-4.4,1.9a1.6,1.6,0,0,0,1.7,1.5,4.4,4.4,0,0,0,2.7-1.1Z"/><path d="M261.6,335.6l-.5-.9a4.3,4.3,0,0,1-2.8,1.1c-2.6,0-4.4-2.1-4.4-5s2-5.6,4.9-5.6a5.7,5.7,0,0,1,2.3.5v-5.4h1.6v15.3Zm-.5-8.5a4.9,4.9,0,0,0-2.2-.5c-2,0-3.3,1.5-3.3,4s1.3,3.8,3,3.8a3.8,3.8,0,0,0,2.5-1Z"/><path d="M273.2,334.9a5.4,5.4,0,0,1-3.3.9c-3,0-4.8-2-4.8-5.2s1.8-5.4,4.5-5.4,3.8,1.9,3.8,4.1a8.1,8.1,0,0,1-.1,1.6h-6.5c.1,1.7,1,3.5,3.3,3.5a4.5,4.5,0,0,0,2.6-.7Zm-1.4-5v-.7c0-1.5-.7-2.6-2.3-2.6s-2.6,1.7-2.7,3.3Z"/><path d="M287.9,334.9a5.4,5.4,0,0,1-3.3.9c-2.9,0-4.8-2-4.8-5.2s1.8-5.4,4.5-5.4,3.9,1.9,3.9,4.1a7.8,7.8,0,0,1-.2,1.6h-6.4a3.2,3.2,0,0,0,3.3,3.5,5,5,0,0,0,2.6-.7Zm-1.4-5a1.7,1.7,0,0,0,.1-.7c0-1.5-.7-2.6-2.3-2.6s-2.7,1.7-2.7,3.3Z"/><path d="M297,335.6v-7a1.7,1.7,0,0,0-2-2,5,5,0,0,0-2.8,1v8h-1.6V325.4h1l.6.9a5.5,5.5,0,0,1,3.1-1.1c2.6,0,3.3,1.5,3.3,3.4v7Z"/><path d="M306.8,335.3a3.4,3.4,0,0,1-2,.5c-1.8,0-2.8-1.1-2.8-3.3v-5.9h-1.8v-1.2H302v-2.2l1.6-.4v2.6h3.2v1.2h-3.2v6c0,1.3.7,1.8,1.6,1.8a4.2,4.2,0,0,0,1.3-.3Z"/><path d="M316.2,334.9a5.8,5.8,0,0,1-3.4.9c-2.9,0-4.8-2-4.8-5.2s1.9-5.4,4.6-5.4,3.8,1.9,3.8,4.1a7.8,7.8,0,0,1-.2,1.6h-6.4a3.2,3.2,0,0,0,3.3,3.5,4.7,4.7,0,0,0,2.6-.7Zm-1.4-5v-.7c0-1.5-.7-2.6-2.3-2.6s-2.6,1.7-2.7,3.3Z"/><path d="M325.2,335.6v-7a1.7,1.7,0,0,0-2-2,4.4,4.4,0,0,0-2.7,1v8h-1.7V325.4h1l.6.9a5.5,5.5,0,0,1,3.2-1.1c2.6,0,3.3,1.5,3.3,3.4v7Z"/><path d="M336.7,335.6l-.4-.9a4.3,4.3,0,0,1-2.8,1.1c-2.6,0-4.4-2.1-4.4-5s1.9-5.6,4.8-5.6a5.1,5.1,0,0,1,2.3.5v-5.4h1.7v15.3Zm-.5-8.5a4.2,4.2,0,0,0-2.1-.5c-2,0-3.3,1.5-3.3,4s1.2,3.8,3,3.8a3.7,3.7,0,0,0,2.4-1Z"/><path d="M348.4,334.9a5.8,5.8,0,0,1-3.4.9c-2.9,0-4.8-2-4.8-5.2s1.9-5.4,4.6-5.4,3.8,1.9,3.8,4.1a7.8,7.8,0,0,1-.2,1.6H342a3.2,3.2,0,0,0,3.3,3.5,4.7,4.7,0,0,0,2.6-.7Zm-1.4-5v-.7c0-1.5-.7-2.6-2.3-2.6s-2.6,1.7-2.7,3.3Z"/><path d="M351,335.6V325.4h1l.5,1.4a3.8,3.8,0,0,1,3.1-1.6h.9l-.3,1.5h-.9a3.3,3.3,0,0,0-2.6,1.4v7.5Z"/><path d="M369.3,335.6v-7c0-1.6-.9-2-2.1-2a4.9,4.9,0,0,0-2.7,1v8h-1.7V325.4h1l.7.9a5.2,5.2,0,0,1,3.1-1.1c2.6,0,3.3,1.5,3.3,3.4v7Z"/><path d="M380.8,335.6l-.6-1a4.2,4.2,0,0,1-3,1.2c-2.4,0-3.3-1.6-3.3-3.6v-6.8h1.7v6.8c0,1.6.8,2.2,2,2.2a3.4,3.4,0,0,0,2.5-1.1v-7.9h1.7v10.2Z"/><path d="M392.2,334.9a5.4,5.4,0,0,1-3.3.9c-2.9,0-4.8-2-4.8-5.2s1.8-5.4,4.5-5.4,3.9,1.9,3.9,4.1a7.8,7.8,0,0,1-.2,1.6h-6.4a3.2,3.2,0,0,0,3.3,3.5,5,5,0,0,0,2.6-.7Zm-1.4-5a1.7,1.7,0,0,0,.1-.7c0-1.5-.7-2.6-2.3-2.6s-2.7,1.7-2.7,3.3Z"/><path d="M394.7,333.8a6.6,6.6,0,0,0,2.6.6c1.6,0,2.2-.7,2.2-1.5,0-2.5-5-1.2-5-4.7,0-1.9,1.4-3,3.6-3a7.1,7.1,0,0,1,2.7.5l-.4,1.3a7.1,7.1,0,0,0-2.3-.5c-1.4,0-2.1.7-2.1,1.5,0,2.3,5.2,1.1,5.2,4.6,0,1.7-1.3,3.2-3.9,3.2a6.5,6.5,0,0,1-3.1-.7Z"/><path d="M408.7,335.3a3.7,3.7,0,0,1-2,.5c-1.8,0-2.8-1.1-2.8-3.3v-5.9h-1.8v-1.2h1.8v-2.2l1.6-.4v2.6h3.2v1.2h-3.2v6c0,1.3.6,1.8,1.6,1.8a4.2,4.2,0,0,0,1.3-.3Z"/><path d="M410.7,335.6V325.4h1l.5,1.4a3.8,3.8,0,0,1,3.1-1.6h.9l-.3,1.5H415a3.3,3.3,0,0,0-2.6,1.4v7.5Z"/><path d="M425.4,335.5a2.5,2.5,0,0,1-1.3.3,1.7,1.7,0,0,1-1.7-1.2,4.5,4.5,0,0,1-3.2,1.2,2.7,2.7,0,0,1-2.9-2.6c0-2.6,2.7-3.2,6.1-3.2,0-1.8,0-3.4-2.3-3.4a6.7,6.7,0,0,0-2.7.6l-.4-1.3a8.6,8.6,0,0,1,3.3-.7c3.2,0,3.7,1.7,3.7,4.5v3.7c0,.6.1,1,.7,1h.4Zm-3-4.4c-2.6,0-4.4.4-4.4,1.9a1.6,1.6,0,0,0,1.7,1.5,4.1,4.1,0,0,0,2.7-1.1Z"/><path d="M433.7,326.3a5.2,5.2,0,0,1,3.1-1.1c2.6,0,3.3,1.5,3.3,3.4v7h-1.7v-7a1.7,1.7,0,0,0-2-2,4.4,4.4,0,0,0-2.7,1v8H432V320.3h1.7Z"/><path d="M444,323.3a1,1,0,0,1-1-1.1,1,1,0,1,1,2,0A1,1,0,0,1,444,323.3Zm2.1,12.2a2.7,2.7,0,0,1-1.3.3c-1.3,0-1.7-.9-1.7-2.1v-8.3h1.6v8.2c0,.4.1.8.7.8h.4Z"/><path d="M447.9,333.8a7.2,7.2,0,0,0,2.7.6c1.6,0,2.2-.7,2.2-1.5,0-2.5-5.1-1.2-5.1-4.7,0-1.9,1.4-3,3.6-3a7.3,7.3,0,0,1,2.8.5l-.5,1.3a6.5,6.5,0,0,0-2.2-.5c-1.5,0-2.1.7-2.1,1.5,0,2.3,5.1,1.1,5.1,4.6,0,1.7-1.2,3.2-3.9,3.2a6,6,0,0,1-3-.7Z"/><path d="M462,335.3a4.1,4.1,0,0,1-2.1.5c-1.8,0-2.8-1.1-2.8-3.3v-5.9h-1.8v-1.2h1.8v-2.2l1.7-.4v2.6h3.1v1.2h-3.1v6c0,1.3.6,1.8,1.5,1.8a4.9,4.9,0,0,0,1.4-.3Z"/><path d="M468,325.2c3.2,0,4.7,2.3,4.7,5.3s-1.9,5.3-4.8,5.3-4.7-2.4-4.7-5.3S465,325.2,468,325.2Zm-.1,9.2c2.1,0,3.1-1.8,3.1-3.9s-1-3.9-3.1-3.9-3.1,1.8-3.1,3.9S465.8,334.4,467.9,334.4Z"/><path d="M475,335.6V325.4h1l.5,1.4a3.8,3.8,0,0,1,3.1-1.6h.9l-.3,1.5h-.8a3.4,3.4,0,0,0-2.7,1.4v7.5Z"/><path d="M483,323.3a1.1,1.1,0,0,1,0-2.2,1,1,0,0,1,1.1,1.1A1,1,0,0,1,483,323.3Zm2.1,12.2a2.5,2.5,0,0,1-1.2.3c-1.4,0-1.8-.9-1.8-2.1v-8.3h1.7v8.2c0,.4,0,.8.7.8h.3Z"/><path d="M495.3,335.5a1.9,1.9,0,0,1-1.2.3,1.7,1.7,0,0,1-1.7-1.2,4.5,4.5,0,0,1-3.2,1.2,2.7,2.7,0,0,1-2.9-2.6c0-2.6,2.6-3.2,6-3.2,0-1.8,0-3.4-2.2-3.4a6.7,6.7,0,0,0-2.7.6l-.4-1.3a8.1,8.1,0,0,1,3.3-.7c3.2,0,3.7,1.7,3.7,4.5v3.7c0,.6.1,1,.7,1h.4Zm-3-4.4c-2.6,0-4.3.4-4.3,1.9a1.6,1.6,0,0,0,1.6,1.5,3.9,3.9,0,0,0,2.7-1.1Z"/><path d="M500.3,325.4h1.9l3.2,8.4,2.8-8.4H510l-4.2,11.5a3.9,3.9,0,0,1-3.8,2.8,2.6,2.6,0,0,1-1.7-.5l.5-1.2a4.2,4.2,0,0,0,1.3.3c1.4,0,2.1-1.1,2.5-2.6Z"/><path d="M509.9,338.5a4.1,4.1,0,0,0,1-2.4,1.8,1.8,0,0,0-1-1.7,1.3,1.3,0,0,1,1.2-1c1,0,1.4.7,1.4,1.8a5.3,5.3,0,0,1-1.8,3.8Z"/><path d="M186.1,364.1V351h-1.9v-1.2h1.9v-.5c0-2.8,1.5-4.8,4.2-4.8a4.5,4.5,0,0,1,1.6.3l-.3,1.3a2.5,2.5,0,0,0-1.2-.2c-1.9,0-2.7,1.2-2.7,3.2v.7h2.9V351h-2.9v13.1Z"/><path d="M198.7,360l-.6-1a3.9,3.9,0,0,1-2.9,1.2c-2.5,0-3.3-1.7-3.3-3.6v-6.8h1.6v6.8c0,1.6.9,2.2,2,2.2a3.7,3.7,0,0,0,2.6-1.1v-7.9h1.6V360Z"/><path d="M209.3,360v-7c0-1.6-.9-2-2.1-2a4.9,4.9,0,0,0-2.7,1v8h-1.6V349.8h1l.6.9a5.5,5.5,0,0,1,3.1-1.1c2.6,0,3.3,1.4,3.3,3.4v7Z"/><path d="M220.8,360l-.5-.9a4.3,4.3,0,0,1-2.8,1.1c-2.6,0-4.4-2.1-4.4-5.1s2-5.5,4.9-5.5a5.7,5.7,0,0,1,2.3.5v-5.4h1.6V360Zm-.5-8.5a4.9,4.9,0,0,0-2.2-.5c-2,0-3.3,1.5-3.3,3.9s1.3,3.9,3,3.9a3.8,3.8,0,0,0,2.5-1Z"/><path d="M233.3,359.9a4.2,4.2,0,0,1-1.3.3,1.7,1.7,0,0,1-1.7-1.2,4.5,4.5,0,0,1-3.2,1.2,2.7,2.7,0,0,1-2.9-2.6c0-2.7,2.7-3.2,6.1-3.2,0-1.9,0-3.4-2.3-3.4a5.4,5.4,0,0,0-2.7.6l-.4-1.3a8.1,8.1,0,0,1,3.3-.7c3.2,0,3.7,1.7,3.7,4.5v3.7c0,.6.1,1,.7,1h.4Zm-3-4.4c-2.6,0-4.4.4-4.4,1.9a1.6,1.6,0,0,0,1.7,1.5,4.1,4.1,0,0,0,2.7-1.1Z"/><path d="M247.1,360v-7c0-1.4-.6-2-2-2a3.5,3.5,0,0,0-2.3,1.1V360h-1.6v-7c0-1.5-.8-2-2.1-2a3.5,3.5,0,0,0-2.3,1.1V360h-1.6V349.8h1l.6.9a4.2,4.2,0,0,1,2.7-1.1,3.1,3.1,0,0,1,2.9,1.3,5.2,5.2,0,0,1,3.1-1.3c2.3,0,3.3,1.2,3.3,3.4v7Z"/><path d="M259.1,359.3a5.4,5.4,0,0,1-3.3.9c-2.9,0-4.8-2-4.8-5.2s1.8-5.4,4.5-5.4,3.9,1.9,3.9,4.1a7.8,7.8,0,0,1-.2,1.6h-6.4a3.2,3.2,0,0,0,3.3,3.5,5,5,0,0,0,2.6-.7Zm-1.4-5a1.7,1.7,0,0,0,.1-.7c0-1.5-.7-2.6-2.3-2.6s-2.7,1.6-2.7,3.3Z"/><path d="M268.2,360v-7a1.7,1.7,0,0,0-2-2,5,5,0,0,0-2.8,1v8h-1.6V349.8h1l.6.9a5.5,5.5,0,0,1,3.1-1.1c2.6,0,3.3,1.4,3.3,3.4v7Z"/><path d="M278,359.7a3.4,3.4,0,0,1-2,.5c-1.8,0-2.8-1.1-2.8-3.3V351h-1.8v-1.2h1.8v-2.2l1.6-.4v2.6H278V351h-3.2v6c0,1.3.7,1.8,1.6,1.8a4.2,4.2,0,0,0,1.3-.3Z"/><path d="M288.2,359.9a3.5,3.5,0,0,1-1.2.3,1.7,1.7,0,0,1-1.7-1.2,4.5,4.5,0,0,1-3.2,1.2,2.6,2.6,0,0,1-2.9-2.6c0-2.7,2.6-3.2,6-3.2,0-1.9,0-3.4-2.3-3.4a5.3,5.3,0,0,0-2.6.6l-.4-1.3a8.1,8.1,0,0,1,3.3-.7c3.2,0,3.7,1.7,3.7,4.5v3.7c0,.6.1,1,.7,1h.4Zm-3-4.4c-2.6,0-4.3.4-4.3,1.9a1.6,1.6,0,0,0,1.6,1.5,3.9,3.9,0,0,0,2.7-1.1Z"/><path d="M293.1,359.9a2.5,2.5,0,0,1-1.2.3c-1.4,0-1.8-.9-1.8-2.1V344.7h1.7V358c0,.4,0,.8.7.8s.3,0,.3-.1Z"/><path d="M307.2,360v-7c0-1.4-.7-2-2.1-2a3.5,3.5,0,0,0-2.3,1.1V360h-1.6v-7c0-1.5-.8-2-2.1-2a3.5,3.5,0,0,0-2.3,1.1V360h-1.6V349.8h1l.6.9a4.2,4.2,0,0,1,2.7-1.1,3.1,3.1,0,0,1,2.9,1.3,5.2,5.2,0,0,1,3.1-1.3c2.3,0,3.3,1.2,3.3,3.4v7Z"/><path d="M319.1,359.3a5.4,5.4,0,0,1-3.3.9c-2.9,0-4.8-2-4.8-5.2s1.8-5.4,4.5-5.4,3.9,1.9,3.9,4.1a7.8,7.8,0,0,1-.2,1.6h-6.4a3.2,3.2,0,0,0,3.3,3.5,5,5,0,0,0,2.6-.7Zm-1.4-5a1.7,1.7,0,0,0,.1-.7c0-1.5-.7-2.6-2.3-2.6s-2.7,1.6-2.7,3.3Z"/><path d="M328.2,360v-7a1.7,1.7,0,0,0-2-2,5,5,0,0,0-2.8,1v8h-1.6V349.8h1l.6.9a5.5,5.5,0,0,1,3.1-1.1c2.6,0,3.3,1.4,3.3,3.4v7Z"/><path d="M338,359.7a3.4,3.4,0,0,1-2,.5c-1.8,0-2.8-1.1-2.8-3.3V351h-1.8v-1.2h1.8v-2.2l1.6-.4v2.6H338V351h-3.2v6c0,1.3.7,1.8,1.6,1.8a4.2,4.2,0,0,0,1.3-.3Z"/><path d="M347.4,359.3a5.5,5.5,0,0,1-3.4.9c-2.9,0-4.8-2-4.8-5.2s1.9-5.4,4.6-5.4,3.8,1.9,3.8,4.1a7.8,7.8,0,0,1-.2,1.6H341a3.2,3.2,0,0,0,3.3,3.5,4.7,4.7,0,0,0,2.6-.7Zm-1.4-5v-.7c0-1.5-.7-2.6-2.3-2.6s-2.6,1.6-2.7,3.3Z"/><path d="M349.7,362.9a4.1,4.1,0,0,0,1-2.4,1.8,1.8,0,0,0-1-1.7,1.3,1.3,0,0,1,1.2-1c1,0,1.4.7,1.4,1.8a5.7,5.7,0,0,1-1.8,3.8Z"/><path d="M366.3,360v-7a1.7,1.7,0,0,0-2-2,5,5,0,0,0-2.8,1v8h-1.6V349.8h1l.6.9a5.5,5.5,0,0,1,3.1-1.1c2.6,0,3.3,1.4,3.3,3.4v7Z"/><path d="M377.8,360l-.6-1a4.2,4.2,0,0,1-3,1.2c-2.4,0-3.3-1.7-3.3-3.6v-6.8h1.7v6.8c0,1.6.8,2.2,2,2.2a3.4,3.4,0,0,0,2.5-1.1v-7.9h1.7V360Z"/><path d="M389.3,359.3a6,6,0,0,1-3.4.9c-2.9,0-4.8-2-4.8-5.2s1.8-5.4,4.6-5.4,3.8,1.9,3.8,4.1a7.8,7.8,0,0,1-.2,1.6h-6.4a3.2,3.2,0,0,0,3.3,3.5,5,5,0,0,0,2.6-.7Zm-1.5-5a1.7,1.7,0,0,0,.1-.7c0-1.5-.7-2.6-2.3-2.6s-2.7,1.6-2.7,3.3Z"/><path d="M391.7,358.2a7.2,7.2,0,0,0,2.7.6c1.5,0,2.1-.7,2.1-1.5,0-2.5-5-1.2-5-4.8,0-1.8,1.4-2.9,3.6-2.9a6.3,6.3,0,0,1,2.8.5l-.5,1.3a7.1,7.1,0,0,0-2.3-.5c-1.4,0-2,.7-2,1.5,0,2.3,5.1,1.1,5.1,4.6,0,1.7-1.3,3.2-3.9,3.2a6.5,6.5,0,0,1-3.1-.7Z"/><path d="M405.7,359.7a3.4,3.4,0,0,1-2,.5c-1.8,0-2.8-1.1-2.8-3.3V351h-1.8v-1.2h1.8v-2.2l1.6-.4v2.6h3.2V351h-3.2v6c0,1.3.7,1.8,1.6,1.8a4.2,4.2,0,0,0,1.3-.3Z"/><path d="M407.7,360V349.8h1l.5,1.4a3.8,3.8,0,0,1,3.1-1.6h.9l-.3,1.5h-.8a3.6,3.6,0,0,0-2.7,1.3V360Z"/><path d="M418.4,349.6c3.3,0,4.7,2.3,4.7,5.3s-1.9,5.3-4.8,5.3-4.7-2.4-4.7-5.3S415.5,349.6,418.4,349.6Zm-.1,9.2c2.1,0,3.1-1.8,3.1-3.9s-1-3.9-3.1-3.9-3,1.8-3,3.9S416.2,358.8,418.3,358.8Z"/><path d="M430.7,364.1V351h-1.9v-1.2h1.9v-.5c0-2.8,1.5-4.8,4.2-4.8a4.5,4.5,0,0,1,1.6.3l-.3,1.3a2.5,2.5,0,0,0-1.2-.2c-1.9,0-2.7,1.2-2.7,3.2v.7h2.9V351h-2.9v13.1Z"/><path d="M443.3,360l-.6-1a4.2,4.2,0,0,1-3,1.2c-2.4,0-3.2-1.7-3.2-3.6v-6.8h1.6v6.8c0,1.6.9,2.2,2,2.2a3.9,3.9,0,0,0,2.6-1.1v-7.9h1.6V360Z"/><path d="M452.7,359.7a4.1,4.1,0,0,1-2.1.5c-1.8,0-2.8-1.1-2.8-3.3V351H446v-1.2h1.8v-2.2l1.6-.4v2.6h3.2V351h-3.2v6c0,1.3.7,1.8,1.6,1.8a4.2,4.2,0,0,0,1.3-.3Z"/><path d="M461.5,360l-.6-1a4.2,4.2,0,0,1-3,1.2c-2.4,0-3.3-1.7-3.3-3.6v-6.8h1.7v6.8c0,1.6.9,2.2,2,2.2a3.4,3.4,0,0,0,2.5-1.1v-7.9h1.7V360Z"/><path d="M465.6,360V349.8h1l.5,1.4a3.8,3.8,0,0,1,3.1-1.6h.9l-.3,1.5H470a3.6,3.6,0,0,0-2.7,1.3V360Z"/><path d="M476.3,349.6c3.3,0,4.7,2.3,4.7,5.3s-1.8,5.3-4.8,5.3-4.7-2.4-4.7-5.3S473.4,349.6,476.3,349.6Zm0,9.2c2,0,3-1.8,3-3.9s-1-3.9-3-3.9-3.1,1.8-3.1,3.9S474.2,358.8,476.3,358.8Z"/><path d="M495.1,359.5a6,6,0,0,1-3,.7c-2.6,0-4.7-1.8-4.7-5.2s2.1-5.4,5.1-5.4a5.7,5.7,0,0,1,2.6.5l-.5,1.4a3.8,3.8,0,0,0-2.1-.5c-2,0-3.4,1.2-3.4,4s1.5,3.8,3.3,3.8a4.5,4.5,0,0,0,2.3-.6Z"/><path d="M500.9,349.6c3.3,0,4.7,2.3,4.7,5.3s-1.8,5.3-4.8,5.3-4.7-2.4-4.7-5.3S498,349.6,500.9,349.6Zm-.1,9.2c2.1,0,3.1-1.8,3.1-3.9s-1-3.9-3.1-3.9-3,1.8-3,3.9S498.8,358.8,500.8,358.8Z"/><path d="M520,360v-7a1.8,1.8,0,0,0-2-2,3.6,3.6,0,0,0-2.4,1.1V360H514v-7a1.8,1.8,0,0,0-2-2,3.6,3.6,0,0,0-2.4,1.1V360H508V349.8h1l.6.9a4.2,4.2,0,0,1,2.7-1.1c1.9,0,2.6.8,2.9,1.3a5.2,5.2,0,0,1,3.1-1.3c2.3,0,3.3,1.2,3.3,3.4v7Z"/><path d="M528.7,349.6c3.2,0,4.6,2.3,4.6,5.3s-1.8,5.3-4.8,5.3-4.7-2.4-4.7-5.3S525.7,349.6,528.7,349.6Zm-.1,9.2c2.1,0,3-1.8,3-3.9s-.9-3.9-3-3.9-3.1,1.8-3.1,3.9S526.5,358.8,528.6,358.8Z"/><path d="M185.5,382.6a6.2,6.2,0,0,0,2.6.6c1.6,0,2.2-.7,2.2-1.5,0-2.5-5.1-1.2-5.1-4.8,0-1.8,1.4-2.9,3.6-2.9a5.8,5.8,0,0,1,2.8.5l-.5,1.3a6.5,6.5,0,0,0-2.2-.5c-1.5,0-2.1.7-2.1,1.5,0,2.3,5.1,1.1,5.1,4.6,0,1.7-1.2,3.2-3.9,3.2a6.3,6.3,0,0,1-3-.7Z"/><path d="M198.3,374c3.2,0,4.7,2.3,4.7,5.3s-1.9,5.3-4.8,5.3-4.7-2.4-4.7-5.3S195.4,374,198.3,374Zm-.1,9.2c2.1,0,3.1-1.8,3.1-3.9s-1-3.9-3.1-3.9-3,1.7-3,3.9S196.1,383.2,198.2,383.2Z"/><path d="M212.3,383.9a6,6,0,0,1-3,.7c-2.5,0-4.7-1.8-4.7-5.2s2.2-5.4,5.1-5.4a5.7,5.7,0,0,1,2.6.5l-.5,1.3a5.2,5.2,0,0,0-2.1-.4c-2,0-3.4,1.2-3.4,4s1.5,3.8,3.3,3.8a4.2,4.2,0,0,0,2.3-.6Z"/><path d="M215,372a.9.9,0,0,1-1-1,1,1,0,0,1,1-1.1,1,1,0,0,1,1.1,1.1A1,1,0,0,1,215,372Zm2.1,12.3a2.5,2.5,0,0,1-1.2.3c-1.4,0-1.8-.9-1.8-2.1v-8.3h1.7v8.2c0,.4,0,.8.7.8h.3Z"/><path d="M226.5,383.7a5.5,5.5,0,0,1-3.4.9c-2.9,0-4.7-2-4.7-5.2s1.8-5.4,4.5-5.4,3.8,1.9,3.8,4.1a8.6,8.6,0,0,1-.1,1.6h-6.5c.1,1.7,1,3.5,3.3,3.5a4.5,4.5,0,0,0,2.6-.7Zm-1.4-5.1V378c0-1.5-.7-2.6-2.3-2.6s-2.6,1.6-2.7,3.2Z"/><path d="M236,384.4l-.4-1a4.5,4.5,0,0,1-2.9,1.2c-2.5,0-4.4-2.2-4.4-5.1s2-5.5,4.9-5.5a5.7,5.7,0,0,1,2.3.5v-5.4h1.6v15.3Zm-.5-8.5a4.2,4.2,0,0,0-2.1-.5c-2.1,0-3.3,1.5-3.3,3.9s1.2,3.9,3,3.9a3.7,3.7,0,0,0,2.4-1Z"/><path d="M248.5,384.3a3.5,3.5,0,0,1-1.3.3,1.7,1.7,0,0,1-1.7-1.2,4.5,4.5,0,0,1-3.2,1.2,2.7,2.7,0,0,1-2.9-2.6c0-2.7,2.7-3.2,6.1-3.2,0-1.9,0-3.4-2.3-3.4a5.4,5.4,0,0,0-2.7.6l-.4-1.3a8.6,8.6,0,0,1,3.3-.7c3.2,0,3.7,1.7,3.7,4.5v3.7c0,.6.1,1,.8,1h.3Zm-3-4.5c-2.6,0-4.4.5-4.4,2a1.6,1.6,0,0,0,1.7,1.5,4.1,4.1,0,0,0,2.7-1.1Z"/><path d="M257.2,384.4l-.4-1a4.1,4.1,0,0,1-2.8,1.2c-2.6,0-4.4-2.2-4.4-5.1s1.9-5.5,4.8-5.5a5.1,5.1,0,0,1,2.3.5v-5.4h1.7v15.3Zm-.5-8.5a4.2,4.2,0,0,0-2.1-.5c-2,0-3.3,1.5-3.3,3.9s1.2,3.9,3,3.9a3.7,3.7,0,0,0,2.4-1Z"/><path d="M262.5,384.6a1,1,0,0,1-1-1.1.9.9,0,0,1,1-1,1,1,0,0,1,1.1,1.1A1.1,1.1,0,0,1,262.5,384.6Z"/><path d="M271.5,384.4V371.1h3.8c3.2,0,4.9,1.5,4.9,4.2s-1.7,4.2-4.9,4.2h-2.1v4.9Zm3.9-6.3c2.3,0,3.1-1.4,3.1-2.8s-.8-2.7-3-2.7h-2.3v5.5Z"/><path d="M286.3,374c3.2,0,4.7,2.3,4.7,5.3s-1.9,5.3-4.9,5.3-4.7-2.4-4.7-5.3S283.3,374,286.3,374Zm-.1,9.2c2.1,0,3-1.8,3-3.9s-.9-3.9-3-3.9-3.1,1.7-3.1,3.9S284.1,383.2,286.2,383.2Z"/><path d="M293.3,384.4V374.2h1l.5,1.4a3.6,3.6,0,0,1,3.1-1.6h.9l-.3,1.5h-.9a3.1,3.1,0,0,0-2.6,1.3v7.6Z"/><path d="M312.5,383.7a5.5,5.5,0,0,1-3.4.9c-2.9,0-4.8-2-4.8-5.2s1.9-5.4,4.6-5.4,3.8,1.9,3.8,4.1a8.8,8.8,0,0,1-.2,1.6h-6.4a3.2,3.2,0,0,0,3.3,3.5,4.7,4.7,0,0,0,2.6-.7Zm-1.4-5.1V378c0-1.5-.7-2.6-2.3-2.6s-2.6,1.6-2.7,3.2Z"/><path d="M318.1,384.3a2.5,2.5,0,0,1-1.2.3c-1.4,0-1.8-.9-1.8-2.1V369.1h1.7v13.3c0,.4,0,.8.7.8h.3Z"/><path d="M323.1,384.3a2.5,2.5,0,0,1-1.2.3c-1.4,0-1.7-.9-1.7-2.1V369.1h1.6v13.3c0,.4.1.8.7.8h.4Z"/><path d="M329.2,374c3.3,0,4.7,2.3,4.7,5.3s-1.8,5.3-4.8,5.3-4.7-2.4-4.7-5.3S326.3,374,329.2,374Zm-.1,9.2c2.1,0,3.1-1.8,3.1-3.9s-1-3.9-3.1-3.9-3,1.7-3,3.9S327.1,383.2,329.1,383.2Z"/><path d="M336,387.2a3.7,3.7,0,0,0,1-2.3,1.8,1.8,0,0,0-1.1-1.7,1.3,1.3,0,0,1,1.2-1c1,0,1.4.7,1.4,1.8a5.6,5.6,0,0,1-1.7,3.8Z"/><path d="M353,383.9a5.5,5.5,0,0,1-3,.7c-2.5,0-4.7-1.8-4.7-5.2s2.2-5.4,5.2-5.4a5.5,5.5,0,0,1,2.5.5l-.4,1.3a5.6,5.6,0,0,0-2.1-.4c-2.1,0-3.5,1.2-3.5,4s1.6,3.8,3.3,3.8a4,4,0,0,0,2.3-.6Z"/><path d="M358.9,374c3.2,0,4.7,2.3,4.7,5.3s-1.9,5.3-4.8,5.3-4.7-2.4-4.7-5.3S356,374,358.9,374Zm-.1,9.2c2.1,0,3.1-1.8,3.1-3.9s-1-3.9-3.1-3.9-3,1.7-3,3.9S356.7,383.2,358.8,383.2Z"/><path d="M372.4,384.4v-7c0-1.6-.9-2-2.1-2a4.9,4.9,0,0,0-2.7,1v8H366V374.2h1l.6.9a5.5,5.5,0,0,1,3.1-1.1c2.6,0,3.3,1.4,3.3,3.4v7Z"/><path d="M381,374c3.3,0,4.7,2.3,4.7,5.3s-1.8,5.3-4.8,5.3-4.7-2.4-4.7-5.3S378.1,374,381,374Zm0,9.2c2.1,0,3-1.8,3-3.9s-.9-3.9-3-3.9-3.1,1.7-3.1,3.9S378.9,383.2,381,383.2Z"/><path d="M395,383.9a5.5,5.5,0,0,1-3,.7c-2.5,0-4.7-1.8-4.7-5.2s2.2-5.4,5.2-5.4a5.5,5.5,0,0,1,2.5.5l-.4,1.3a6,6,0,0,0-2.1-.4c-2.1,0-3.5,1.2-3.5,4s1.6,3.8,3.3,3.8a4,4,0,0,0,2.3-.6Z"/><path d="M404.2,383.7a5.5,5.5,0,0,1-3.4.9c-2.9,0-4.7-2-4.7-5.2s1.8-5.4,4.5-5.4,3.8,1.9,3.8,4.1a8.6,8.6,0,0,1-.1,1.6h-6.5a3.2,3.2,0,0,0,3.3,3.5,4.5,4.5,0,0,0,2.6-.7Zm-1.4-5.1V378c0-1.5-.7-2.6-2.3-2.6s-2.6,1.6-2.7,3.2Z"/><path d="M406.8,384.4V374.2h1l.5,1.4a3.6,3.6,0,0,1,3.1-1.6h.9l-.3,1.5h-.8a3.3,3.3,0,0,0-2.7,1.3v7.6Z"/><path d="M412,387.2a3.7,3.7,0,0,0,1-2.3,1.8,1.8,0,0,0-1.1-1.7,1.3,1.3,0,0,1,1.2-1c1,0,1.4.7,1.4,1.8a5.6,5.6,0,0,1-1.7,3.8Z"/><path d="M429,384.4l-.5-1a4.1,4.1,0,0,1-2.8,1.2c-2.6,0-4.4-2.2-4.4-5.1s2-5.5,4.9-5.5a5.7,5.7,0,0,1,2.3.5v-5.4h1.6v15.3Zm-.5-8.5a4.9,4.9,0,0,0-2.2-.5c-2,0-3.2,1.5-3.2,3.9s1.2,3.9,2.9,3.9a3.8,3.8,0,0,0,2.5-1Z"/><path d="M434.2,372a.9.9,0,0,1-1-1,1,1,0,0,1,1-1.1,1,1,0,0,1,1.1,1.1A1,1,0,0,1,434.2,372Zm2.1,12.3a2.7,2.7,0,0,1-1.3.3c-1.3,0-1.7-.9-1.7-2.1v-8.3h1.6v8.2c0,.4.1.8.7.8h.4Z"/><path d="M438.8,388.5V375.4h-1.9v-1.2h1.9v-.5c0-2.8,1.5-4.8,4.2-4.8a4.5,4.5,0,0,1,1.6.3l-.3,1.3a2.5,2.5,0,0,0-1.2-.2c-1.9,0-2.7,1.2-2.7,3.2v.7h2.9v1.2h-2.9v13.1Z"/><path d="M451.4,384.4l-.6-1a4.2,4.2,0,0,1-3,1.2c-2.4,0-3.3-1.7-3.3-3.6v-6.8h1.7V381c0,1.6.9,2.2,2,2.2a3.4,3.4,0,0,0,2.5-1.1v-7.9h1.7v10.2Z"/><path d="M461.9,384.4v-7c0-1.6-.8-2-2-2a4.9,4.9,0,0,0-2.7,1v8h-1.7V374.2h1l.6.9a5.8,5.8,0,0,1,3.2-1.1c2.6,0,3.3,1.4,3.3,3.4v7Z"/><path d="M473.5,384.4l-.5-1a4.1,4.1,0,0,1-2.8,1.2c-2.6,0-4.4-2.2-4.4-5.1s2-5.5,4.9-5.5a5.7,5.7,0,0,1,2.3.5v-5.4h1.6v15.3Zm-.5-8.5a4.9,4.9,0,0,0-2.2-.5c-2,0-3.3,1.5-3.3,3.9s1.2,3.9,3,3.9a3.8,3.8,0,0,0,2.5-1Z"/><path d="M478.6,372a.9.9,0,0,1-1-1,1,1,0,0,1,1-1.1,1,1,0,0,1,1.1,1.1A1,1,0,0,1,478.6,372Zm2.1,12.3a2.5,2.5,0,0,1-1.2.3c-1.4,0-1.7-.9-1.7-2.1v-8.3h1.6v8.2c0,.4.1.8.7.8h.4Z"/><path d="M482.8,384.4V374.2h1l.5,1.4a3.6,3.6,0,0,1,3.1-1.6h.9l-.3,1.5h-.9a3.5,3.5,0,0,0-2.7,1.3v7.6Z"/><path d="M493,374.2h1.8l3.3,8.4,2.8-8.4h1.7l-4.2,11.5a3.7,3.7,0,0,1-3.7,2.8,3.9,3.9,0,0,1-1.8-.5l.5-1.2a4.2,4.2,0,0,0,1.3.3c1.5,0,2.1-1.1,2.6-2.6Z"/><path d="M515.7,384.4l-.4-1a4.1,4.1,0,0,1-2.8,1.2c-2.6,0-4.4-2.2-4.4-5.1s1.9-5.5,4.8-5.5a5.1,5.1,0,0,1,2.3.5v-5.4h1.7v15.3Zm-.5-8.5a4.2,4.2,0,0,0-2.1-.5c-2.1,0-3.3,1.5-3.3,3.9s1.2,3.9,3,3.9a3.7,3.7,0,0,0,2.4-1Z"/><path d="M528.2,384.3a3.5,3.5,0,0,1-1.2.3,1.7,1.7,0,0,1-1.7-1.2,4.9,4.9,0,0,1-3.2,1.2,2.6,2.6,0,0,1-2.9-2.6c0-2.7,2.6-3.2,6-3.2,0-1.9,0-3.4-2.3-3.4a5,5,0,0,0-2.6.6l-.5-1.3a9.1,9.1,0,0,1,3.4-.7c3.2,0,3.7,1.7,3.7,4.5v3.7c0,.6.1,1,.7,1h.4Zm-3-4.5c-2.6,0-4.3.5-4.3,2a1.6,1.6,0,0,0,1.6,1.5,3.9,3.9,0,0,0,2.7-1.1Z"/><path d="M530.1,384.4V374.2h1l.5,1.4a3.6,3.6,0,0,1,3.1-1.6h.9l-.3,1.5h-.9a3.1,3.1,0,0,0-2.6,1.3v7.6Z"/><path d="M540.2,384.3a2.7,2.7,0,0,1-1.3.3c-1.3,0-1.7-.9-1.7-2.1V369.1h1.6v13.3c0,.4.1.8.7.8h.4Z"/><path d="M549.6,383.7a5.8,5.8,0,0,1-3.4.9c-2.9,0-4.8-2-4.8-5.2s1.8-5.4,4.6-5.4,3.8,1.9,3.8,4.1a8.8,8.8,0,0,1-.2,1.6h-6.4a3.2,3.2,0,0,0,3.3,3.5,5,5,0,0,0,2.6-.7Zm-1.4-5.1V378c0-1.5-.7-2.6-2.3-2.6s-2.7,1.6-2.7,3.2Z"/><path d="M192.6,408.3a6,6,0,0,1-3,.7c-2.6,0-4.8-1.8-4.8-5.2s2.2-5.5,5.2-5.5a5.1,5.1,0,0,1,2.5.6l-.4,1.3a5.2,5.2,0,0,0-2.1-.4c-2,0-3.4,1.2-3.4,4s1.5,3.8,3.3,3.8a4.5,4.5,0,0,0,2.3-.6Z"/><path d="M198.4,398.3c3.3,0,4.7,2.4,4.7,5.4s-1.9,5.3-4.8,5.3-4.7-2.4-4.7-5.3S195.5,398.3,198.4,398.3Zm-.1,9.3c2.1,0,3.1-1.8,3.1-3.9s-1-3.9-3.1-3.9-3,1.7-3,3.9S196.2,407.6,198.3,407.6Z"/><path d="M211.9,408.8v-7a1.7,1.7,0,0,0-2-2,5,5,0,0,0-2.8,1v8h-1.6V398.5h1l.6,1a5.5,5.5,0,0,1,3.1-1.2c2.6,0,3.3,1.5,3.3,3.5v7Z"/><path d="M221.7,408.5a3.4,3.4,0,0,1-2,.5c-1.8,0-2.8-1.1-2.8-3.3v-6h-1.8v-1.2h1.8v-2.1l1.6-.5v2.6h3.2v1.2h-3.2v6.1c0,1.3.7,1.8,1.6,1.8a4.2,4.2,0,0,0,1.3-.3Z"/><path d="M224.6,396.4a.9.9,0,0,1-1-1,1,1,0,0,1,1-1.1,1,1,0,0,1,1.1,1.1A1,1,0,0,1,224.6,396.4Zm2.1,12.3a2.5,2.5,0,0,1-1.2.3c-1.4,0-1.8-.9-1.8-2.1v-8.4h1.7v8.3c0,.4.1.8.7.8h.4Z"/><path d="M235.2,408.8v-7a1.7,1.7,0,0,0-2-2,5,5,0,0,0-2.8,1v8h-1.6V398.5h1l.6,1a5.5,5.5,0,0,1,3.1-1.2c2.6,0,3.3,1.5,3.3,3.5v7Z"/><path d="M246.7,408.8l-.6-1a4.6,4.6,0,0,1-3,1.2c-2.4,0-3.3-1.7-3.3-3.6v-6.9h1.7v6.9c0,1.6.8,2.2,2,2.2a3.4,3.4,0,0,0,2.5-1.1v-8h1.7v10.3Z"/><path d="M251.7,396.4a.9.9,0,0,1-1-1,1,1,0,0,1,1-1.1,1,1,0,0,1,1.1,1.1A1,1,0,0,1,251.7,396.4Zm2.1,12.3a2.5,2.5,0,0,1-1.2.3c-1.4,0-1.8-.9-1.8-2.1v-8.4h1.7v8.3c0,.4.1.8.7.8s.3,0,.3-.1Z"/><path d="M262.7,408.8l-.4-1a4.1,4.1,0,0,1-2.8,1.2c-2.6,0-4.4-2.2-4.4-5.1s1.9-5.6,4.8-5.6a4.5,4.5,0,0,1,2.3.6v-5.4h1.7v15.3Zm-.5-8.5a4.2,4.2,0,0,0-2.1-.5c-2.1,0-3.3,1.5-3.3,3.9s1.2,3.9,3,3.9a3.7,3.7,0,0,0,2.4-1Z"/><path d="M275.2,408.7a3.5,3.5,0,0,1-1.2.3,1.7,1.7,0,0,1-1.7-1.2,4.9,4.9,0,0,1-3.2,1.2,2.6,2.6,0,0,1-2.9-2.6c0-2.7,2.6-3.2,6-3.2,0-1.9,0-3.4-2.3-3.4a5,5,0,0,0-2.6.6l-.5-1.3a8.9,8.9,0,0,1,3.4-.8c3.1,0,3.7,1.8,3.7,4.6v3.7c0,.6.1,1,.7,1h.4Zm-3-4.5c-2.6,0-4.3.4-4.3,2a1.6,1.6,0,0,0,1.6,1.5,3.9,3.9,0,0,0,2.7-1.1Z"/><path d="M284,408.8l-.5-1a4.1,4.1,0,0,1-2.8,1.2c-2.6,0-4.4-2.2-4.4-5.1s2-5.6,4.9-5.6a4.9,4.9,0,0,1,2.3.6v-5.4h1.6v15.3Zm-.5-8.5a4.9,4.9,0,0,0-2.2-.5c-2,0-3.3,1.5-3.3,3.9s1.3,3.9,3,3.9a3.8,3.8,0,0,0,2.5-1Z"/><path d="M301.2,408.7a3.5,3.5,0,0,1-1.2.3,1.9,1.9,0,0,1-1.8-1.2,4.4,4.4,0,0,1-3.1,1.2,2.6,2.6,0,0,1-2.9-2.6c0-2.7,2.6-3.2,6-3.2,0-1.9,0-3.4-2.3-3.4a5.7,5.7,0,0,0-2.7.6l-.4-1.3a8.9,8.9,0,0,1,3.4-.8c3.1,0,3.7,1.8,3.7,4.6v3.7c0,.6.1,1,.7,1h.4Zm-3-4.5c-2.6,0-4.3.4-4.3,2a1.6,1.6,0,0,0,1.6,1.5,3.9,3.9,0,0,0,2.7-1.1Z"/><path d="M306.1,408.7a2.5,2.5,0,0,1-1.2.3c-1.4,0-1.8-.9-1.8-2.1V393.5h1.7v13.3c0,.4,0,.8.7.8h.3Z"/><path d="M315.9,408.7a2.7,2.7,0,0,1-1.3.3c-1.3,0-1.7-.9-1.7-2.1V393.5h1.6v13.3c0,.4.1.8.8.8h.3Z"/><path d="M325.3,408.1a6.3,6.3,0,0,1-3.4.9c-2.9,0-4.7-2-4.7-5.2s1.8-5.5,4.5-5.5,3.8,2,3.8,4.2a8.8,8.8,0,0,1-.2,1.6h-6.4a3.2,3.2,0,0,0,3.3,3.5,5.8,5.8,0,0,0,2.6-.7Zm-1.4-5.1v-.7c0-1.5-.7-2.5-2.3-2.5s-2.6,1.6-2.7,3.2Z"/><path d="M334.3,399.8a3.8,3.8,0,0,1,.6,1.9,3.5,3.5,0,0,1-3.7,3.6h-.7a1.9,1.9,0,0,0-.4.8c0,.5.2.7,1.2.7,3.5,0,4.5,1.1,4.5,2.9s-1.7,3.4-4.6,3.4-3.9-.9-3.9-2.9a2.6,2.6,0,0,1,2-2.4,1.5,1.5,0,0,1-.7-1.4V406l.8-1.1a3.1,3.1,0,0,1-1.7-3,3.4,3.4,0,0,1,3.5-3.6,4.1,4.1,0,0,1,1.9.4l3.6-.2v1.3ZM328.8,410c0,1,.8,1.8,2.5,1.8s2.9-.7,2.9-2-.7-1.6-2.9-1.6h-1A1.7,1.7,0,0,0,328.8,410Zm4.6-8.3a1.9,1.9,0,0,0-2.1-2.1,2.1,2.1,0,0,0-2.2,2.3,2.1,2.1,0,0,0,2.2,2.1A2.1,2.1,0,0,0,333.4,401.7Z"/><path d="M346.3,408.7a3.5,3.5,0,0,1-1.2.3,1.8,1.8,0,0,1-1.8-1.2,4.4,4.4,0,0,1-3.1,1.2,2.6,2.6,0,0,1-2.9-2.6c0-2.7,2.6-3.2,6-3.2,0-1.9,0-3.4-2.3-3.4a5.7,5.7,0,0,0-2.7.6l-.4-1.3a8.9,8.9,0,0,1,3.4-.8c3.1,0,3.7,1.8,3.7,4.6v3.7c0,.6,0,1,.7,1h.3Zm-3-4.5c-2.6,0-4.4.4-4.4,2a1.6,1.6,0,0,0,1.7,1.5,4.1,4.1,0,0,0,2.7-1.1Z"/><path d="M355.1,408.8l-.5-1a4.1,4.1,0,0,1-2.8,1.2c-2.6,0-4.4-2.2-4.4-5.1s1.9-5.6,4.9-5.6a4.9,4.9,0,0,1,2.3.6v-5.4h1.6v15.3Zm-.5-8.5a4.9,4.9,0,0,0-2.2-.5c-2,0-3.3,1.5-3.3,3.9s1.2,3.9,3,3.9a3.8,3.8,0,0,0,2.5-1Z"/><path d="M363.4,398.3c3.2,0,4.7,2.4,4.7,5.4s-1.9,5.3-4.8,5.3-4.7-2.4-4.7-5.3S360.4,398.3,363.4,398.3Zm-.1,9.3c2.1,0,3.1-1.8,3.1-3.9s-1-3.9-3.1-3.9-3.1,1.7-3.1,3.9S361.2,407.6,363.3,407.6Z"/><path d="M382.5,408.1a6.2,6.2,0,0,1-3.3.9c-2.9,0-4.8-2-4.8-5.2s1.8-5.5,4.5-5.5,3.8,2,3.8,4.2a8.6,8.6,0,0,1-.1,1.6h-6.5c.1,1.7,1,3.5,3.4,3.5a6.2,6.2,0,0,0,2.6-.7Zm-1.4-5.1c0-.2.1-.4.1-.7a2.2,2.2,0,0,0-2.4-2.5c-1.8,0-2.6,1.6-2.6,3.2Z"/><path d="M385,407a6.6,6.6,0,0,0,2.6.6c1.6,0,2.2-.7,2.2-1.6s-5.1-1.1-5.1-4.7c0-1.8,1.5-3,3.7-3a5.4,5.4,0,0,1,2.7.6l-.4,1.3a7.1,7.1,0,0,0-2.3-.5c-1.4,0-2.1.7-2.1,1.5,0,2.3,5.1,1.1,5.1,4.6,0,1.7-1.2,3.2-3.8,3.2a6.4,6.4,0,0,1-3.1-.8Z"/><path d="M405.4,408.8l-.6-1a4.4,4.4,0,0,1-2.9,1.2c-2.5,0-3.3-1.7-3.3-3.6v-6.9h1.6v6.9c0,1.6.9,2.2,2,2.2a3.7,3.7,0,0,0,2.6-1.1v-8h1.6v10.3Z"/><path d="M416,408.8v-7c0-1.6-.9-2-2.1-2a4.9,4.9,0,0,0-2.7,1v8h-1.6V398.5h1l.6,1a5.5,5.5,0,0,1,3.1-1.2c2.6,0,3.3,1.5,3.3,3.5v7Z"/><path d="M428.8,408.7a3.5,3.5,0,0,1-1.2.3,1.9,1.9,0,0,1-1.8-1.2,4.4,4.4,0,0,1-3.1,1.2,2.6,2.6,0,0,1-2.9-2.6c0-2.7,2.6-3.2,6-3.2,0-1.9,0-3.4-2.3-3.4a5.7,5.7,0,0,0-2.7.6l-.4-1.3a8.9,8.9,0,0,1,3.4-.8c3.1,0,3.7,1.8,3.7,4.6v3.7c0,.6,0,1,.7,1h.3Zm-3-4.5c-2.6,0-4.4.4-4.4,2a1.6,1.6,0,0,0,1.7,1.5,4.1,4.1,0,0,0,2.7-1.1Z"/><path d="M447.4,408.8v-7c0-1.4-.6-2-2-2a3.7,3.7,0,0,0-2.3,1v8h-1.7v-7c0-1.5-.7-2-2-2a3.7,3.7,0,0,0-2.3,1v8h-1.6V398.5h.9l.7,1a4,4,0,0,1,2.7-1.2,3.2,3.2,0,0,1,2.9,1.4,5,5,0,0,1,3.1-1.4c2.3,0,3.3,1.3,3.3,3.5v7Z"/><path d="M460.3,408.7a3.5,3.5,0,0,1-1.3.3,1.7,1.7,0,0,1-1.7-1.2,4.4,4.4,0,0,1-3.1,1.2c-1.7,0-3-1-3-2.6s2.7-3.2,6.1-3.2c0-1.9,0-3.4-2.3-3.4a5.4,5.4,0,0,0-2.7.6l-.4-1.3a8.4,8.4,0,0,1,3.3-.8c3.2,0,3.7,1.8,3.7,4.6v3.7c0,.6.1,1,.8,1h.3Zm-3-4.5c-2.6,0-4.4.4-4.4,2a1.6,1.6,0,0,0,1.7,1.5,4.1,4.1,0,0,0,2.7-1.1Z"/><path d="M468.6,408.8v-7a1.7,1.7,0,0,0-2-2,5,5,0,0,0-2.8,1v8h-1.6V398.5h1l.6,1a5.5,5.5,0,0,1,3.1-1.2c2.6,0,3.3,1.5,3.3,3.5v7Z"/><path d="M480.6,408.1a6.6,6.6,0,0,1-3.4.9c-2.9,0-4.8-2-4.8-5.2s1.9-5.5,4.6-5.5,3.8,2,3.8,4.2a8.8,8.8,0,0,1-.2,1.6h-6.4a3.2,3.2,0,0,0,3.3,3.5,5.8,5.8,0,0,0,2.6-.7Zm-1.4-5.1v-.7c0-1.5-.7-2.5-2.3-2.5s-2.6,1.6-2.7,3.2Z"/><path d="M483.2,408.8V398.5h1l.5,1.5a3.7,3.7,0,0,1,3.1-1.7l.9.2-.3,1.5h-.9a3.3,3.3,0,0,0-2.6,1.3v7.6Z"/><path d="M497.9,408.7a4.2,4.2,0,0,1-1.3.3,1.7,1.7,0,0,1-1.7-1.2,4.5,4.5,0,0,1-3.2,1.2,2.7,2.7,0,0,1-2.9-2.6c0-2.7,2.7-3.2,6.1-3.2,0-1.9,0-3.4-2.3-3.4a5.4,5.4,0,0,0-2.7.6l-.4-1.3a8.4,8.4,0,0,1,3.3-.8c3.2,0,3.7,1.8,3.7,4.6v3.7c0,.6.1,1,.7,1h.4Zm-3-4.5c-2.6,0-4.4.4-4.4,2a1.6,1.6,0,0,0,1.7,1.5,4.1,4.1,0,0,0,2.7-1.1Z"/><path d="M511.4,408.8l-.5-1a4.1,4.1,0,0,1-2.8,1.2c-2.6,0-4.4-2.2-4.4-5.1s2-5.6,4.9-5.6a4.9,4.9,0,0,1,2.3.6v-5.4h1.6v15.3Zm-.5-8.5a4.9,4.9,0,0,0-2.2-.5c-2,0-3.2,1.5-3.2,3.9s1.2,3.9,2.9,3.9a3.8,3.8,0,0,0,2.5-1Z"/><path d="M523,408.1a6.2,6.2,0,0,1-3.3.9c-2.9,0-4.8-2-4.8-5.2s1.8-5.5,4.5-5.5,3.8,2,3.8,4.2a8.6,8.6,0,0,1-.1,1.6h-6.5c.1,1.7,1,3.5,3.3,3.5a6.2,6.2,0,0,0,2.7-.7Zm-1.4-5.1c0-.2.1-.4.1-.7a2.2,2.2,0,0,0-2.4-2.5c-1.8,0-2.6,1.6-2.6,3.2Z"/><path d="M192.6,432.7a6,6,0,0,1-3,.7c-2.6,0-4.8-1.8-4.8-5.2s2.2-5.5,5.2-5.5a5.1,5.1,0,0,1,2.5.6l-.4,1.3a3.9,3.9,0,0,0-2.1-.4c-2,0-3.4,1.2-3.4,4s1.5,3.7,3.3,3.7a4.6,4.6,0,0,0,2.3-.5Z"/><path d="M198.4,422.7c3.3,0,4.7,2.4,4.7,5.4s-1.9,5.3-4.8,5.3-4.7-2.4-4.7-5.3S195.5,422.7,198.4,422.7Zm-.1,9.2c2.1,0,3.1-1.7,3.1-3.8s-1-3.9-3.1-3.9-3,1.7-3,3.9S196.2,431.9,198.3,431.9Z"/><path d="M211.9,433.2v-7c0-1.7-.9-2-2-2a5,5,0,0,0-2.8,1v8h-1.6V422.9h1l.6,1a5.5,5.5,0,0,1,3.1-1.2c2.6,0,3.3,1.5,3.3,3.5v7Z"/><path d="M221.7,432.9a3.4,3.4,0,0,1-2,.5c-1.8,0-2.8-1.1-2.8-3.3v-6h-1.8v-1.2h1.8v-2.2l1.6-.4v2.6h3.2v1.2h-3.2v6.1c0,1.3.7,1.7,1.6,1.7l1.3-.2Z"/><path d="M223.7,433.2V422.9h1l.5,1.4a3.8,3.8,0,0,1,3.1-1.6l.9.2-.3,1.5h-.8a3.3,3.3,0,0,0-2.7,1.3v7.6Z"/><path d="M231.7,420.8a1,1,0,0,1-1-1.1,1,1,0,0,1,1-1,1,1,0,0,1,1.1,1.1A1.1,1.1,0,0,1,231.7,420.8Zm2.1,12.3a2.5,2.5,0,0,1-1.2.3c-1.4,0-1.8-.9-1.8-2.1v-8.4h1.7v8.3c0,.4,0,.8.7.8h.3Z"/><path d="M235.8,417.9h1.7v5.5a4.6,4.6,0,0,1,2.4-.7c2.8,0,4.5,1.8,4.5,5.1s-2.4,5.6-5.3,5.6a6.7,6.7,0,0,1-3.3-.9Zm1.7,13.7a3.9,3.9,0,0,0,1.8.4c2.5,0,3.3-2.1,3.3-4.1s-.7-3.7-3-3.7a4.2,4.2,0,0,0-2.1.7Z"/><path d="M253.6,433.2l-.6-1a4.6,4.6,0,0,1-3,1.2c-2.4,0-3.3-1.7-3.3-3.7v-6.8h1.7v6.8c0,1.7.8,2.2,2,2.2a3.4,3.4,0,0,0,2.5-1v-8h1.7v10.3Z"/><path d="M258.6,420.8a1,1,0,0,1-1-1.1,1.1,1.1,0,1,1,2.1.1A1,1,0,0,1,258.6,420.8Zm2.1,12.3a2.5,2.5,0,0,1-1.2.3c-1.4,0-1.8-.9-1.8-2.1v-8.4h1.7v8.3c0,.4,0,.8.7.8s.3,0,.3-.1Z"/><path d="M262.8,433.2V422.9h1l.4,1.4a3.8,3.8,0,0,1,3.1-1.6l.9.2-.3,1.5h-.8a3.3,3.3,0,0,0-2.7,1.3v7.6Z"/><path d="M282.8,433.1a4.2,4.2,0,0,1-1.3.3,1.7,1.7,0,0,1-1.7-1.2,4.5,4.5,0,0,1-3.2,1.2,2.7,2.7,0,0,1-2.9-2.6c0-2.7,2.7-3.2,6.1-3.2,0-1.9,0-3.4-2.3-3.4a5.4,5.4,0,0,0-2.7.6l-.4-1.3a6.9,6.9,0,0,1,3.3-.8c3.2,0,3.7,1.8,3.7,4.6v3.6c0,.7.1,1.1.7,1.1h.4Zm-3-4.5c-2.6,0-4.4.4-4.4,2a1.6,1.6,0,0,0,1.7,1.4,4.1,4.1,0,0,0,2.7-1Z"/><path d="M287.7,433.1a3.3,3.3,0,0,1-1.3.3c-1.3,0-1.7-.9-1.7-2.1V417.9h1.6v13.3c0,.4.1.8.7.8h.4Z"/><path d="M301.4,432.7a5.8,5.8,0,0,1-3,.7c-2.5,0-4.7-1.8-4.7-5.2s2.2-5.5,5.1-5.5a5.5,5.5,0,0,1,2.6.6l-.5,1.3a3.9,3.9,0,0,0-2.1-.4c-2,0-3.4,1.2-3.4,4s1.5,3.7,3.3,3.7a4.4,4.4,0,0,0,2.3-.5Z"/><path d="M311.4,433.1a3.5,3.5,0,0,1-1.2.3,1.9,1.9,0,0,1-1.8-1.2,4.4,4.4,0,0,1-3.1,1.2,2.6,2.6,0,0,1-2.9-2.6c0-2.7,2.6-3.2,6-3.2,0-1.9,0-3.4-2.3-3.4a5.7,5.7,0,0,0-2.7.6l-.4-1.3a7.4,7.4,0,0,1,3.4-.8c3.1,0,3.7,1.8,3.7,4.6v3.6c0,.7.1,1.1.7,1.1h.4Zm-3-4.5c-2.6,0-4.3.4-4.3,2a1.5,1.5,0,0,0,1.6,1.4,3.9,3.9,0,0,0,2.7-1Z"/><path d="M325.3,433.2v-7a1.8,1.8,0,0,0-2-2,3.7,3.7,0,0,0-2.4,1v8h-1.6v-7c0-1.5-.7-2-2-2a3.7,3.7,0,0,0-2.3,1v8h-1.7V422.9h1l.6,1a4.1,4.1,0,0,1,2.8-1.2,3,3,0,0,1,2.8,1.4,5.1,5.1,0,0,1,3.2-1.4c2.2,0,3.2,1.3,3.2,3.5v7Z"/><path d="M330,417.9h1.6v5.5a4.6,4.6,0,0,1,2.4-.7c2.8,0,4.5,1.8,4.5,5.1s-2.3,5.6-5.3,5.6a6.1,6.1,0,0,1-3.2-.9Zm1.6,13.7a3.9,3.9,0,0,0,1.8.4c2.5,0,3.3-2.1,3.3-4.1s-.7-3.7-2.9-3.7a4.3,4.3,0,0,0-2.2.7Z"/><path d="M341.7,420.8a1,1,0,0,1-1-1.1,1.1,1.1,0,0,1,2.1.1A1,1,0,0,1,341.7,420.8Zm2.1,12.3a2.5,2.5,0,0,1-1.2.3c-1.4,0-1.8-.9-1.8-2.1v-8.4h1.7v8.3c0,.4.1.8.7.8h.4Z"/><path d="M349.9,422.7c3.2,0,4.7,2.4,4.7,5.4s-1.9,5.3-4.8,5.3-4.7-2.4-4.7-5.3S346.9,422.7,349.9,422.7Zm-.1,9.2c2.1,0,3.1-1.7,3.1-3.8s-1-3.9-3.1-3.9-3,1.7-3,3.9S347.7,431.9,349.8,431.9Z"/><path d="M360,422.9h1.9l3.2,8.5,2.9-8.5h1.7l-4.2,11.5c-.6,1.6-1.6,2.9-3.7,2.9a3.9,3.9,0,0,1-1.8-.5l.5-1.3a2.5,2.5,0,0,0,1.3.4c1.5,0,2.1-1.1,2.6-2.6Z"/><path d="M378.9,433.1a2.5,2.5,0,0,1-1.2.3c-1.4,0-1.7-.9-1.7-2.1V417.9h1.6v13.3c0,.4.1.8.7.8h.4Z"/><path d="M389.2,433.1a3.5,3.5,0,0,1-1.3.3,1.7,1.7,0,0,1-1.7-1.2,4.5,4.5,0,0,1-3.2,1.2,2.7,2.7,0,0,1-2.9-2.6c0-2.7,2.7-3.2,6.1-3.2,0-1.9,0-3.4-2.3-3.4a5.4,5.4,0,0,0-2.7.6l-.4-1.3a6.9,6.9,0,0,1,3.3-.8c3.2,0,3.7,1.8,3.7,4.6v3.6c0,.7.1,1.1.8,1.1h.3Zm-3-4.5c-2.6,0-4.4.4-4.4,2a1.6,1.6,0,0,0,1.7,1.4,4.1,4.1,0,0,0,2.7-1Z"/><path d="M402.8,432.7a6,6,0,0,1-3,.7c-2.6,0-4.8-1.8-4.8-5.2s2.2-5.5,5.2-5.5a5.1,5.1,0,0,1,2.5.6l-.4,1.3a3.9,3.9,0,0,0-2.1-.4c-2.1,0-3.5,1.2-3.5,4a3.3,3.3,0,0,0,3.4,3.7,4.6,4.6,0,0,0,2.3-.5Z"/><path d="M408.6,422.7c3.2,0,4.7,2.4,4.7,5.4s-1.9,5.3-4.8,5.3-4.7-2.4-4.7-5.3S405.7,422.7,408.6,422.7Zm-.1,9.2c2.1,0,3.1-1.7,3.1-3.8s-1-3.9-3.1-3.9-3,1.7-3,3.9S406.4,431.9,408.5,431.9Z"/><path d="M422.1,433.2v-7c0-1.7-.9-2-2-2a5,5,0,0,0-2.8,1v8h-1.6V422.9h1l.6,1a5.5,5.5,0,0,1,3.1-1.2c2.6,0,3.3,1.5,3.3,3.5v7Z"/><path d="M426.5,431.4a7.2,7.2,0,0,0,2.7.6c1.6,0,2.2-.7,2.2-1.6s-5.1-1.1-5.1-4.7c0-1.8,1.4-3,3.6-3a5.5,5.5,0,0,1,2.8.6l-.5,1.3a4.8,4.8,0,0,0-2.2-.5c-1.5,0-2.1.7-2.1,1.5s5.1,1.1,5.1,4.6c0,1.7-1.2,3.2-3.9,3.2a6,6,0,0,1-3-.8Z"/><path d="M440.6,432.9a3.9,3.9,0,0,1-2,.5c-1.9,0-2.9-1.1-2.9-3.3v-6h-1.8v-1.2h1.8v-2.2l1.7-.4v2.6h3.1v1.2h-3.1v6.1c0,1.3.6,1.7,1.5,1.7l1.4-.2Z"/><path d="M442.6,433.2V422.9h1l.4,1.4a4,4,0,0,1,3.1-1.6l1,.2-.4,1.5h-.8a3.5,3.5,0,0,0-2.7,1.3v7.6Z"/><path d="M456.5,433.2l-.6-1a4.6,4.6,0,0,1-3,1.2c-2.4,0-3.3-1.7-3.3-3.7v-6.8h1.7v6.8c0,1.7.9,2.2,2,2.2a3.4,3.4,0,0,0,2.5-1v-8h1.7v10.3Z"/><path d="M467.6,432.7a6,6,0,0,1-3,.7c-2.6,0-4.8-1.8-4.8-5.2s2.2-5.5,5.2-5.5a5.1,5.1,0,0,1,2.5.6l-.4,1.3a3.9,3.9,0,0,0-2.1-.4c-2.1,0-3.5,1.2-3.5,4a3.3,3.3,0,0,0,3.4,3.7,4.6,4.6,0,0,0,2.3-.5Z"/><path d="M476.3,432.7a5.5,5.5,0,0,1-3,.7c-2.5,0-4.7-1.8-4.7-5.2s2.2-5.5,5.2-5.5a5.4,5.4,0,0,1,2.5.6l-.4,1.3a4.4,4.4,0,0,0-2.1-.4c-2.1,0-3.5,1.2-3.5,4s1.6,3.7,3.3,3.7a4.1,4.1,0,0,0,2.3-.5Z"/><path d="M479,420.8a1,1,0,0,1-1-1.1,1.1,1.1,0,0,1,2.1.1A1,1,0,0,1,479,420.8Zm2.1,12.3a2.5,2.5,0,0,1-1.2.3c-1.4,0-1.7-.9-1.7-2.1v-8.4h1.6v8.3c0,.4.1.8.7.8h.4Z"/><path d="M487.2,422.7c3.2,0,4.7,2.4,4.7,5.4s-1.9,5.3-4.8,5.3-4.7-2.4-4.7-5.3S484.3,422.7,487.2,422.7Zm-.1,9.2c2.1,0,3.1-1.7,3.1-3.8s-1-3.9-3.1-3.9-3,1.7-3,3.9S485,431.9,487.1,431.9Zm-1.7-10.8,1.9-3h1.8l-2.3,3Z"/><path d="M500.7,433.2v-7c0-1.7-.9-2-2-2a5,5,0,0,0-2.8,1v8h-1.6V422.9h1l.6,1a5.5,5.5,0,0,1,3.1-1.2c2.6,0,3.3,1.5,3.3,3.5v7Z"/><path d="M517,433.2l-.5-1a4.1,4.1,0,0,1-2.8,1.2c-2.6,0-4.4-2.2-4.4-5.1s1.9-5.6,4.9-5.6a4.9,4.9,0,0,1,2.2.5v-5.3h1.7v15.3Zm-.6-8.5a4.2,4.2,0,0,0-2.1-.5c-2,0-3.3,1.5-3.3,3.9s1.2,3.8,3,3.8a3.4,3.4,0,0,0,2.4-1Z"/><path d="M528.6,432.5a6.3,6.3,0,0,1-3.4.9c-2.9,0-4.7-2-4.7-5.2s1.8-5.5,4.5-5.5,3.8,1.9,3.8,4.2a8.8,8.8,0,0,1-.2,1.6h-6.4a3.2,3.2,0,0,0,3.3,3.4,5.5,5.5,0,0,0,2.6-.6Zm-1.4-5.1v-.7c0-1.5-.7-2.5-2.3-2.5s-2.6,1.6-2.7,3.2Z"/><path d="M536,437.3V422.9h1.1l.5,1a4.1,4.1,0,0,1,2.8-1.2c2.7,0,4.4,2.3,4.4,5.1s-2,5.6-4.9,5.6a5.7,5.7,0,0,1-2.3-.5v4.4Zm1.6-5.8a5.9,5.9,0,0,0,2.2.4c2,0,3.3-1.4,3.3-3.9s-1.3-3.8-3-3.8a4.2,4.2,0,0,0-2.5,1Z"/><path d="M555.3,433.1a3.5,3.5,0,0,1-1.2.3,1.7,1.7,0,0,1-1.7-1.2,4.5,4.5,0,0,1-3.2,1.2,2.6,2.6,0,0,1-2.9-2.6c0-2.7,2.6-3.2,6-3.2,0-1.9,0-3.4-2.3-3.4a5.3,5.3,0,0,0-2.6.6l-.4-1.3a6.6,6.6,0,0,1,3.3-.8c3.2,0,3.7,1.8,3.7,4.6v3.6c0,.7.1,1.1.7,1.1h.4Zm-3-4.5c-2.6,0-4.3.4-4.3,2a1.5,1.5,0,0,0,1.6,1.4,3.9,3.9,0,0,0,2.7-1Z"/><path d="M556.4,433.2v-1.3l5.8-7.6h-5.7v-1.4h7.6v1.5l-5.9,7.4h5.9v1.4Z"/><rect class="b" x="97.2" y="237.4" width="62.5" height="63.31"/><path class="c" d="M126.8,277V260.1l-7.7,2.5-1.5-4.9,10.7-4.1h5.1V277h5.4l-.3,5.5H119.8l.3-5.5Z"/><rect class="a" x="97.2" y="237" width="63.9" height="64.71"/><path class="d" d="M141.5,259l-10,24.1h-7.8l9.5-23.4h-8.3v6.8h-7.1V254h23.6Z"/><path class="e" d="M238.3,54.8v-26h11.2c7,0,10.6,2.9,10.6,8.5s-3.6,8.8-11.4,8.8h-3.6v8.7Zm6.8-21v7.4h3.2c4.1,0,5-2.3,5-4s-1.9-3.4-4.6-3.4Z"/><path class="e" d="M272.8,34.4c8.2,0,11.1,4.5,11.1,10.3S279.7,55.2,273,55.2s-10.9-4.5-10.9-10.5S266,34.4,272.8,34.4Zm.1,15.9c2.6,0,4.1-2.2,4.1-5.3s-1.1-5.8-4.1-5.8-4,1.7-4,5.2S269.9,50.3,272.9,50.3Z"/><path class="e" d="M287.5,34.8h4.7l1.6,2.7a6,6,0,0,1,5.4-3.1,4.5,4.5,0,0,1,2.3.4l-1,5.1-1.7-.2a6.9,6.9,0,0,0-4.5,1.5V54.8h-6.8Z"/><path class="e" d="M335.1,28.8v5h-7.5v21h-6.7v-21h-7.7v-5Z"/><path class="e" d="M340.9,46.3c.2,1.9,2.4,3.5,5.4,3.5a13,13,0,0,0,5.7-1.2l1.3,4.8a15.8,15.8,0,0,1-7.8,1.8c-6.6,0-11.5-3.2-11.5-10.1s4.2-10.7,10.5-10.7,9.4,4.3,9.4,8.5a18.4,18.4,0,0,1-.4,3.4Zm6.3-3.3a1.7,1.7,0,0,0,.1-.7,2.7,2.7,0,0,0-3-2.9,3.3,3.3,0,0,0-3.5,3.6Z"/><path class="e" d="M382.4,42c0-1.6-.5-2.7-2.5-2.7a5.1,5.1,0,0,0-3.1,1.1V54.8h-6.7V42c0-1.6-.5-2.7-2.6-2.7a5.3,5.3,0,0,0-3.1,1.1V54.8h-6.8v-20h5.1l1.2,1.6a11.3,11.3,0,0,1,6.4-2c2.8,0,4.8.9,5.8,2a9.9,9.9,0,0,1,6.2-2c4.4,0,6.9,2.3,6.9,6.4v14h-6.8Z"/><path class="e" d="M394.1,36.1a21,21,0,0,1,8.2-1.7c7.7,0,9.5,3.4,9.5,8.9V49a1.2,1.2,0,0,0,1.4,1.3h.8l.9,3.8a8.4,8.4,0,0,1-4.2,1.2c-2.7,0-4.3-.9-5.1-2.6-.8,1.3-3.1,2.6-6.1,2.6s-6.6-1.4-6.6-5.6,5.7-6.5,12.1-6.5c0-2.3-.9-3.5-3.7-3.5a14.2,14.2,0,0,0-5.5,1ZM405,46.4c-3,.1-5.4.6-5.4,2.3a2,2,0,0,0,2.2,1.9,4.7,4.7,0,0,0,3.2-1.3Z"/><path class="e" d="M431.6,40.5a14,14,0,0,0-5.8-1.1c-1.9,0-2.7.5-2.7,1.2,0,2.5,10.2.8,10.2,7.5,0,4.3-3.4,7.1-9.9,7.1a16.2,16.2,0,0,1-7.4-1.9l1.4-4.7a16.8,16.8,0,0,0,6.4,1.4c2,0,3.1-.5,3.1-1.4s-10.5-.7-10.5-7.6c0-4.1,3.5-6.6,9.1-6.6a19.3,19.3,0,0,1,7.6,1.4Z"/><path class="a" d="M91.8,168.9v-3.5a2,2,0,0,1,1.4-2.1,33,33,0,0,1,21.7-1,41.3,41.3,0,0,1,12.2,5.7.9.9,0,0,0,1.2.1,39,39,0,0,1,18.2-6.9,31.5,31.5,0,0,1,15.5,2c1.4.5,1.6,1,1.6,2.4v3.3h4.7c1.6,0,2.2.6,2.2,2.2v48.3c0,1.7-.6,2.3-2.4,2.3H87.3c-1.8,0-2.4-.6-2.4-2.4v-48c0-1.9.6-2.4,2.4-2.4Zm3.6,42.8c10.9-3.2,21-1,30.5,4.7V172.2c0-.5-.1-.8-.5-1a84,84,0,0,0-7.8-4.2,30.6,30.6,0,0,0-21.3-1.1c-.7.2-.9.5-.9,1.3v44.5Zm64.6,0c0-.3.1-.4.1-.6V166.9a.8.8,0,0,0-.7-.9c-2.3-.4-4.7-1.2-7.1-1.4-8.1-.6-15.4,1.9-22.1,6.4a1.7,1.7,0,0,0-.7,1.5v43a2.8,2.8,0,0,0,.1.9C139.1,210.7,149.1,208.5,160,211.7ZM88.5,172.5v45.6h32.9l-.4-.3c-8.6-4.3-17.4-5.5-26.6-1.9a2.5,2.5,0,0,1-1.7-.1c-.8-.3-.9-1.2-.9-2V172.5Zm75.1,0v41a2.7,2.7,0,0,1,0,.9,1.8,1.8,0,0,1-2.4,1.6l-2-.8c-7-2.3-13.9-1.7-20.7.8l-4.3,1.9v.2h32.7V172.5Z"/><path class="f" d="M165.4,86a26.9,26.9,0,0,0-2-2.7,2.6,2.6,0,0,0-2.7-1,3,3,0,0,0-2.5,2.2,16.7,16.7,0,0,0-.5,3.1c-.1.2.1.4.1.7l.3.9a.9.9,0,0,1-.7,1c-.5.1-.8-.2-1-.7a8.5,8.5,0,0,0-.6-1.7,9.3,9.3,0,0,0-5.7-4.2,14.6,14.6,0,0,0-2.2-.3,21,21,0,0,1-9.2-2.1h-.2v.3a6.4,6.4,0,0,0,6.1,5.2h1.9a.9.9,0,0,1,1,.9c0,.5-.4.8-1,.8s-2.3,0-3.4-.2a7.2,7.2,0,0,1-4.1-2.2c-.1-.1-.3-.2-.4-.4h-.2a14.3,14.3,0,0,0,.8,2.2,7.2,7.2,0,0,0,6.4,4h3.6c.6,0,1,.4.9.9s-.2.8-.7.8c-2.1,0-4.3.3-6.5-.5l-1.6-.6a14.6,14.6,0,0,0,2.7,2.4,13.2,13.2,0,0,0,7,2h2.2c.6,0,.9.3.9.8s-.3.9-1,.8a8.1,8.1,0,0,0-4,.9,16.3,16.3,0,0,1-7.2,1.5h-1.7l3.6,7.1.5-.3,2.9-2.3a9.6,9.6,0,0,1,5.5-1.9,11.7,11.7,0,0,0,6-1.6.8.8,0,0,1,1.2.2c.3.5.2.9-.4,1.2A11.5,11.5,0,0,1,153,105a7.5,7.5,0,0,0-4.8,1.6l-3.7,2.9c-1,.8-1.4.7-2-.5l-4.3-8.5c-.5-.9-.1-1.5.9-1.5l5.5-.3a15.7,15.7,0,0,0,2.8-.6h-.3a14.2,14.2,0,0,1-10-10,14.7,14.7,0,0,1-.4-3.6c-.1-1.5,0-3,0-4.6s.6-1.3,1.4-.8a18.4,18.4,0,0,0,9.6,2.7,11.4,11.4,0,0,1,8.3,3.7l.3.2a3,3,0,0,1,.2-1,4.7,4.7,0,0,1,7-3.4,10.6,10.6,0,0,1,1.5,1.5l1.9,2.4.4.3,1.3-4.2a5.1,5.1,0,0,1-3.4-1.9,4.8,4.8,0,0,1-.9-4,1,1,0,0,1,.9-.9,4.9,4.9,0,0,1,5.6,2.9l.2.4,1.6-1.5c.1-.1.1-.4.2-.5a4.6,4.6,0,0,1,6.5-3.1c.8.3.9.6.8,1.5a4.7,4.7,0,0,1-6.2,3.7c-.1,0-.4-.1-.5,0a13,13,0,0,0-3.5,4.9,7.9,7.9,0,0,1,2-.4,5.6,5.6,0,0,1,1.3,0,1.2,1.2,0,0,1,1,1,5,5,0,0,1-4.3,5.9H169a11,11,0,0,1,.3,1.6.8.8,0,0,1-.1.8,1,1,0,0,1-.8.4.8.8,0,0,1-.7-.7c-.2-1.1-.3-2.3-.5-3.4v-.5a1.2,1.2,0,0,0-1.4,1.3V92a15.1,15.1,0,0,1-.9,4.7.9.9,0,0,1-1.2.7,1,1,0,0,1-.4-1.3,13.2,13.2,0,0,0,.8-4.4,22.5,22.5,0,0,1,0-2.6A3.3,3.3,0,0,1,165.4,86Zm4-6.6a3.2,3.2,0,0,0-3.5-3.5A3.3,3.3,0,0,0,169.4,79.4ZM169,87c-.1.3.1.4.5.4a3.4,3.4,0,0,0,3.1-3.1c0-.4-.1-.5-.5-.5A3.3,3.3,0,0,0,169,87Zm9.3-13.1a2.9,2.9,0,0,0-3.9,2.1A2.8,2.8,0,0,0,178.3,73.9Z"/><path class="f" d="M162.1,99a.8.8,0,0,1,.8.9.9.9,0,0,1-.8.8.8.8,0,0,1-.8-.9A.9.9,0,0,1,162.1,99Z"/><path class="f" d="M162.3,85.6a.9.9,0,0,1-.9.9.9.9,0,0,1-.8-.9.8.8,0,0,1,.9-.8A.9.9,0,0,1,162.3,85.6Z"/><path class="g" d="M193.1,106.3v-2.6a3.2,3.2,0,0,1,2.3-3.1l2.8-.8c.2,0,.3-.1.3-.4h0a2.2,2.2,0,0,0-.6-2,3.3,3.3,0,0,1-.8-2.7,1.3,1.3,0,0,0-.4-1,4.1,4.1,0,0,1-.7-5.1,4.4,4.4,0,0,1,3.3-1.8,8.2,8.2,0,0,1,4.1.5,1.3,1.3,0,0,0,1.7-.2c.3-.4.7-.3,1,.1a4.7,4.7,0,0,1,.8,4,4.6,4.6,0,0,1-1.5,2.6.9.9,0,0,0-.3.7,3.7,3.7,0,0,1-.7,2.9,2.2,2.2,0,0,0-.6,2,.5.5,0,0,0,.4.6l2.7.7a3.2,3.2,0,0,1,2.3,3v5.7c0,.4-.2.7-.6.7s-.5-.3-.5-.7-.1-3.7-.1-5.6a1.9,1.9,0,0,0-1.5-2L204,101c-.3-.1-.4,0-.5.2a2.7,2.7,0,0,1-4.5.1.7.7,0,0,0-.8-.3l-2.5.7a2,2,0,0,0-1.4,2v5.4c0,.1.1.2,0,.3a.5.5,0,0,1-.6.6c-.3,0-.5-.2-.5-.6v-3.1Zm12.3-18.1c-.8.7-1.6.4-2.5.1l-.7-.2a6.5,6.5,0,0,0-3.4-.2,2.8,2.8,0,0,0-2.2,2.1,3.2,3.2,0,0,0,1.1,3l.6-1c.4-.7.5-.7,1.2-.4s2.5.9,3.8-.1a.8.8,0,0,1,1.2.2,3,3,0,0,1,.4.8A3.6,3.6,0,0,0,205.4,88.2Zm-1.7,4.5-1.5.5a5,5,0,0,1-2.7-.3h-.4c-.4.7-1.1,1.3-.8,2.2v.2a3.4,3.4,0,0,0,2.7,2.8h.3a3.3,3.3,0,0,0,2.6-2.6,13.3,13.3,0,0,0,0-2A2.4,2.4,0,0,0,203.7,92.7Zm-4,6.2c-.2,1.1,0,1.8.7,2.2a1.7,1.7,0,0,0,1.7,0c.7-.6.5-1.4.5-2.3A2.8,2.8,0,0,1,199.7,98.9Z"/><path class="g" d="M216.1,93.3l1.4.4a2.8,2.8,0,0,1,2.3,3c0,2.1-.1,4.2-.1,6.3,0,.1.1.3,0,.4s-.2.5-.6.5a.5.5,0,0,1-.5-.5V96.6a1.5,1.5,0,0,0-1.2-1.7l-2.3-.6a2.2,2.2,0,0,1-4-.1l-2.9.9a1.4,1.4,0,0,0-.7,1.3v2.7a.5.5,0,0,1-.6.6.5.5,0,0,1-.5-.5,2.4,2.4,0,0,1,0-1.2,9.7,9.7,0,0,1,0-1.7,2.6,2.6,0,0,1,1.9-2.5l1.7-.5h-1.1c-.5-.1-.7-.2-.7-.7s-.1-3.5,0-5.3a4.9,4.9,0,0,1,9.7.3c.1,1.7,0,3.3,0,4.9s-.2.7-.7.8h-1.1Zm.7-1.2V87.6a3.7,3.7,0,0,0-3.6-3.5,3.5,3.5,0,0,0-3.8,3.3c-.1,1.5,0,3-.1,4.6h1.3a9.4,9.4,0,0,1-.6-1.5,12.1,12.1,0,0,1-.1-1.9,2.1,2.1,0,0,1,.7-1.5,10.5,10.5,0,0,1,.8-1.1.7.7,0,0,1,.5-.3c.2,0,.5.2.5.4a2.6,2.6,0,0,0,1.5,1.4l1.7.6c.4,0,.6.2.6.5s.1,2.3-.8,3.3h1.4Zm-4.9-4.6c-.4.4-.8.7-.8,1.2v1.4a2.1,2.1,0,0,0,1.7,1.8,2,2,0,0,0,2.2-2.1c0-.4,0-.6-.4-.7A5,5,0,0,1,211.9,87.5Zm.3,5.5c-.1.7,0,1,.3,1.2a1.3,1.3,0,0,0,1.2,0,1,1,0,0,0,.2-1.2Z"/><path class="g" d="M191.4,94.3a2.4,2.4,0,0,1-4.2,0l-2.5.7a1.4,1.4,0,0,0-.9,1.5v6.4a.9.9,0,0,1-.1.5c0,.3-.2.5-.5.4s-.4-.2-.6-.4V96.5a2.6,2.6,0,0,1,2-2.7l2.1-.6c.3-.1.3-.2.3-.4a2,2,0,0,0-.4-1.5,2.6,2.6,0,0,1-.7-2.2,1.2,1.2,0,0,0-.3-.9,3.5,3.5,0,0,1-.9-3.6,3.3,3.3,0,0,1,2.9-2.2,6,6,0,0,1,3.5.4,1.2,1.2,0,0,0,1.5-.2c.2-.3.6-.2.9.2a4.1,4.1,0,0,1,.7,3.4,3.7,3.7,0,0,1-1.2,2,.9.9,0,0,0-.3.7,3.6,3.6,0,0,1-1,2.8c-.2.3-.1.9-.1,1.4h.3l2.1.6a2.7,2.7,0,0,1,2,2.7v2.4c0,.5-.3.8-.6.8s-.6-.3-.6-.8V96.6a1.5,1.5,0,0,0-1.2-1.7l-2-.6Zm1.1-7.3a2.9,2.9,0,0,0,.3-3.1,2.1,2.1,0,0,1-1.9,0,5.9,5.9,0,0,0-3.2-.3,2.1,2.1,0,0,0-1.9,1.3,2.4,2.4,0,0,0,.7,2.6,4.3,4.3,0,0,1,.4-.7c.3-.7.5-.7,1.1-.4a2.7,2.7,0,0,0,3.1-.1c.3-.3.8-.1,1.1.2S192.3,86.9,192.5,87Zm-1.2.5a3.5,3.5,0,0,1-3.3.2h-.2a3.4,3.4,0,0,0-.7,1.1,2.5,2.5,0,0,0,1.4,2.8,1.5,1.5,0,0,0,1.6,0C191.6,90.6,191.8,89.5,191.3,87.5Zm-.9,5.2a2.8,2.8,0,0,1-2.2,0,1.4,1.4,0,0,0,.5,1.5,1.1,1.1,0,0,0,1.2,0C190.5,93.9,190.4,93.3,190.4,92.7Z"/><path class="g" d="M206.3,81v3.1a.5.5,0,0,0,.4.6,2.6,2.6,0,0,1,1,1.3c.2.5.1.8-.2.9a.5.5,0,0,1-.8-.4,1.8,1.8,0,0,0-1.1-1l-2.1-.6-.4.2c-.7,1.4-3.2,1.4-3.8,0l-.4-.2-2.1.6a1.4,1.4,0,0,0-1.2,1.5v.3a.6.6,0,0,1-.6.5c-.3-.1-.5-.2-.5-.6a2.5,2.5,0,0,1,1.2-2.5c.3-.2.4-.3.4-.6-.1-2-.1-4.1,0-6.1a5.2,5.2,0,0,1,5.2-5.2,5.2,5.2,0,0,1,5,5V81Zm-9.1,3.2,1.6-.5h.2a1.7,1.7,0,0,0-.2-1.2,4,4,0,0,1-.8-1.6,7.1,7.1,0,0,1-.1-1.5c0-.7.1-.8.8-1s2.6-.7,3.2-2.1a.7.7,0,0,1,.5-.3.9.9,0,0,1,.5.3,4.4,4.4,0,0,1,.8,1.1,3.7,3.7,0,0,1,.7,1.2,10.5,10.5,0,0,1-.1,2.5,1.7,1.7,0,0,1-.7,1.3c-.3.4-.2.8-.3,1.2a.2.2,0,0,0,.2.2l1.6.5h0c0-2.2.1-4.3,0-6.4a3.8,3.8,0,0,0-3.9-3.7,4,4,0,0,0-4,4.1v6.1Zm5.2-6.5a5.3,5.3,0,0,1-2.6,1.5c-.7.3-.7.3-.7,1.1a2,2,0,0,0,2,2,2,2,0,0,0,2.2-1.9v-.9A1.8,1.8,0,0,0,202.4,77.7Zm-2.2,5.7c0,.5-.2,1.1.4,1.4a1.5,1.5,0,0,0,1.3,0c.4-.4.3-.9.3-1.4Z"/><path class="h" d="M239.5,77.6h.7a2,2,0,0,1,1.7,2.2c0,1.3-.1,2.7-.1,4v2.4a2.1,2.1,0,0,1,2,.3,2.2,2.2,0,0,1,.9,2l.7-.4a1.5,1.5,0,0,1,.1-1.9,2.6,2.6,0,0,1,2.2-.7,2.9,2.9,0,0,1,1.8,1.1V85.5l-.6-6.9a2.1,2.1,0,0,1,1-2,2,2,0,0,1,2.2,0h.2a11.5,11.5,0,0,1,.6-1.7,1.9,1.9,0,0,1,1.7-.8c1.1,0,1.8.8,2,2.4a2,2,0,0,1,2.7.2c.8.8.6,1.8.6,2.8h.4a1.9,1.9,0,0,1,2.1,2c0,.9-.1,1.9-.1,2.8s-.2,3.9-.4,5.9a11.1,11.1,0,0,1-.7,2.2,10.9,10.9,0,0,1-.5,1.7.4.4,0,0,0,.2.5,1.7,1.7,0,0,1,.5,1.2v13.2c0,.7-.3.9-1,.9H230c-.9,0-1.1-.2-1.1-1.1V94.2a1.7,1.7,0,0,1,.6-1.5.6.6,0,0,0,.1-.4,3.1,3.1,0,0,0-.7-.9l-1.3-1a5.7,5.7,0,0,1-1.5-2.2,16.2,16.2,0,0,0-1-1.8c-.3-.5-.7-1-.4-1.7a2.3,2.3,0,0,1,1.8-1.2,3,3,0,0,1,2.2.8l.4.3c-.1-.9-.1-1.7-.2-2.5s-.3-3.7-.5-5.5a2,2,0,0,1,1.1-2,2,2,0,0,1,2.2.1h.2a2.4,2.4,0,0,1,.9-2.1l1.2-.5a1.8,1.8,0,0,1,1.6.8c.3.4.4,1,.7,1.5l1-.3a2,2,0,0,1,2.1,2A6.6,6.6,0,0,1,239.5,77.6Zm-4.7,21.5c.3.7.8,1.3,1.1,2a5.1,5.1,0,0,0,2.1,2.7,5.7,5.7,0,0,1,1.1,1.1c.3.4.5.6,1,.6a.7.7,0,0,1,.8.7.7.7,0,0,1-.8.7h-.9c-.1.1-.2.2-.2.3a5.6,5.6,0,0,0,0,1.3h10.4v-1.6h-2.6a.7.7,0,0,1-.7-.7.6.6,0,0,1,.7-.7.7.7,0,0,0,.8-.6,1.4,1.4,0,0,1,.2-.6,12.7,12.7,0,0,0,.9-4.3l.3-6.4v-.2a.6.6,0,0,0-.5-.5.7.7,0,0,0-.6.4,2,2,0,0,0-.1.7c0,.9-.1,1.8-.1,2.7s-.4.9-.8.8-.7-.3-.7-.9.1-2.8.2-4.1.1-1.5.1-2.3-.1-.6-.5-.6-.5.1-.6.5a.6.6,0,0,0-.1.4c0,.6-.1,1.2-.1,1.7l-.3,4.6c0,.3-.1.6-.4.6h-.7a1.5,1.5,0,0,1-.4-.8c-.1-2.7-.1-5.4-.2-8.1a.6.6,0,0,0-.1-.4c-.1-.2-.3-.5-.5-.5s-.5.1-.6.4v.4c-.1,2.2-.1,4.4-.2,6.5a11.5,11.5,0,0,1-.1,1.9.7.7,0,0,1-.7.7c-.4.1-.7-.2-.7-.7a.3.3,0,0,1-.1-.2c-.1-2-.3-4-.5-6,0-.2-.1-.4-.1-.6a.7.7,0,0,0-.6-.4c-.4.1-.5.3-.5.6v.4c.2,3,.5,6,.7,8.9,0,.5.1,1,.1,1.4a.7.7,0,0,1-.6.7.6.6,0,0,1-.8-.5v-.2l-1.5-1.6A1,1,0,0,0,234.8,99.1Zm11.9-11.9a11.4,11.4,0,0,1,1,1.9,5.7,5.7,0,0,0,2.4,2.9,3.7,3.7,0,0,1,1.5,2,.3.3,0,0,0,.3.3h7a.3.3,0,0,0,.3-.3l.6-1.8a13.6,13.6,0,0,0,.9-4.8c.1-1.8.1-3.7.2-5.6v-.3c-.1-.2-.3-.4-.4-.4l-.6.2a1.3,1.3,0,0,0-.1.6c-.1,1-.1,1.9-.2,2.9s-.3.9-.8.8-.7-.3-.7-.9l.3-5.1V78.2c0-.3-.1-.5-.4-.5a.6.6,0,0,0-.7.4.6.6,0,0,1-.1.4c0,.9-.1,1.8-.1,2.7l-.3,3.7c0,.4-.2.7-.6.7a.7.7,0,0,1-.8-.4v-.5l-.3-7.7v-.6c0-.5-.2-.7-.6-.7s-.6.2-.6.7v.4c-.1,2.6-.1,5.3-.2,7.9,0,.6-.3.9-.7.9s-.8-.2-.8-.8-.3-3.1-.5-4.7a9.7,9.7,0,0,0-.1-1.7,1.5,1.5,0,0,0-.5-.6c-.1-.1-.4,0-.5.2s-.2.4-.2.6c.2,2,.3,4,.5,6l.3,4.3a.8.8,0,0,1-.5.9.9.9,0,0,1-.9-.6V89l-1.4-1.6A1.1,1.1,0,0,0,246.7,87.2Zm-15.6,5.1h6c0-.6-.1-1.3-.1-2a1.9,1.9,0,0,1,1.5-2.1,6.5,6.5,0,0,1,1.4,0,11.3,11.3,0,0,0,.3-1.8c.1-2.2.2-4.4.2-6.6v-.3c-.1-.1-.3-.4-.5-.4a.7.7,0,0,0-.5.3.7.7,0,0,0-.1.5c-.1,1-.1,1.9-.2,2.9s-.3.9-.7.9a.7.7,0,0,1-.7-.9c0-1,.1-1.9.1-2.8s.1-2.4.2-3.6a.6.6,0,0,0-.5-.7c-.3-.1-.6.2-.7.6a1.1,1.1,0,0,1-.1.5l-.3,6.1c-.1.5-.4.8-.8.8s-.7-.3-.7-.9l-.3-8.1c0-.7-.2-1-.5-1s-.6.3-.7.9c-.1,2.8-.1,5.5-.2,8.2,0,.6-.3.9-.8.9s-.7-.3-.7-.9-.3-3.3-.4-5-.1-.9-.2-1.4a1.5,1.5,0,0,0-.5-.6l-.6.3c-.1.1-.1.4-.1.5.2,2.7.5,5.4.7,8.1,0,.7.1,1.5.1,2.3s-.2.7-.6.8-.6-.1-.8-.5a.4.4,0,0,0-.1-.3l-1.5-1.6a1.1,1.1,0,0,0-1.5-.2l1.1,1.9a5.4,5.4,0,0,0,2.1,2.8A3.4,3.4,0,0,1,231.1,92.3Zm28.8,16.2V99.6h-9v8.9Zm-21.8-2.7-1-.9a6.3,6.3,0,0,1-2.4-2.7,10.1,10.1,0,0,0-1.2-2.3,1.2,1.2,0,0,1,0-1.7l.4-.6h-3.4v10.9h6.9C237.6,107.6,237.2,106.6,238.1,105.8Zm21.8-10h-9V98h9Zm-29.5.3h7l-.2-2.3h-6.4c-.2,0-.4,0-.4.3Zm7.2,2.3c.1-.9-.1-1-.9-.7Zm11.8,7v-1h-.1l-.3,1Z"/><path class="h" d="M243.5,106.9a.7.7,0,0,1-.8-.7.8.8,0,0,1,.8-.7.7.7,0,0,1,0,1.4Z"/><path class="i" d="M328.7,93a2.3,2.3,0,0,1-3.6-.7l-.8.8v.4a2.9,2.9,0,0,1-1.6,3.1,2.8,2.8,0,0,1-3.4-.6q-3.2-3-6.3-6.3a2.7,2.7,0,0,1-.5-3.3,2.8,2.8,0,0,1,3-1.6.9.9,0,0,0,.7-.3l8.3-8.3c.2-.2.3-.3.2-.6a3,3,0,0,1,1.6-3,2.7,2.7,0,0,1,3.4.5l6.3,6.3a2.9,2.9,0,0,1,.5,3.4,3.2,3.2,0,0,1-3.1,1.6c-.1-.1-.3,0-.5.1l-.7.6a2.7,2.7,0,0,1,1.3,1.7,2.3,2.3,0,0,1-.6,1.9l3,2.6,8.4,7.4,3.9,3.4a4.4,4.4,0,0,1,1.4,5.1,4.4,4.4,0,0,1-7.1,1.6c-1.3-1.3-2.4-2.7-3.6-4-3.3-3.9-6.7-7.8-10.1-11.6A.3.3,0,0,0,328.7,93Zm3-9.5-6.1-6.1-8.3,8.2,6.2,6.2ZM341,97.7l-9.1-7.9-2.2,2.1,8,9.2,2.6-2.7Zm-.4,6.7,2.7,3.1a2.9,2.9,0,0,0,4.3.1,2.8,2.8,0,0,0-.2-4.2l-2.3-2.1-.7-.6Zm-5.2-23a2,2,0,0,0-.6-1.2l-3-2.9c-1-1.1-2-2.1-3.1-3.1a1.5,1.5,0,0,0-2.3.2,1.4,1.4,0,0,0,.3,1.9l4.4,4.4,1.8,1.8a1.4,1.4,0,0,0,1.6.3A1.6,1.6,0,0,0,335.4,81.4ZM321.3,95.5l.7-.2a1.5,1.5,0,0,0,.4-2.4l-2.3-2.3-3.9-3.9a1.4,1.4,0,0,0-2.1,0,1.3,1.3,0,0,0,0,2q3,3.1,6.3,6.3Zm10.8-8.4c-.2-.2-.3-.5-.5-.6a.7.7,0,0,0-.9.2l-4,4.1a.7.7,0,0,0-.1,1.1.8.8,0,0,0,1.1-.1l4-4A1.6,1.6,0,0,0,332.1,87.1Zm11.1,12.5-1-.9-3.5,3.5.9,1Z"/><path class="i" d="M314,105.3a11,11,0,0,1-.3-1.6,2.4,2.4,0,0,1,2.4-2.5c4.3-.1,8.5-.1,12.8,0a2.5,2.5,0,0,1,2.1,3.7c0,.1-.1.2-.1.3l.5.4a4.2,4.2,0,0,1,1.4,3.8c0,.3-.3.5-.7.6H313.2c-.8,0-1-.2-1-1A3.7,3.7,0,0,1,314,105.3Zm17.3,3.2v-.2a2.2,2.2,0,0,0-2.3-2H315.3a2,2,0,0,0-1.6,2.1Zm-8.8-5.9h-6.2a1.1,1.1,0,1,0,0,2.2h11.3a4,4,0,0,0,1.1,0,1.1,1.1,0,0,0,1.1-.7,1.1,1.1,0,0,0-1.2-1.5Z"/><path class="i" d="M322.4,84.4c-.2-.2-.5-.3-.6-.6a.9.9,0,0,1,.1-.7c.1-.3.3-.4.5-.6l2.5-2.5c.4-.4.8-.5,1.2-.1s.3.7-.2,1.1L323,84Z"/><path class="i" d="M321.1,85.6a.7.7,0,0,1-.7.7.7.7,0,0,1-.8-.7.7.7,0,0,1,.7-.7A.8.8,0,0,1,321.1,85.6Z"/><path class="j" d="M387,84.4c-.1,2-.1,4-.3,6a21.6,21.6,0,0,1-4,10.9,24.3,24.3,0,0,1-9.2,7.9l-2.2.7a3.1,3.1,0,0,1-2.3-.3,24.9,24.9,0,0,1-6.5-4.2,22.9,22.9,0,0,1-7.1-11.9,24.6,24.6,0,0,1-.7-6V79.8c0-.7.1-.9.8-1.1a55.9,55.9,0,0,0,8.9-3.3c1.8-.8,3.6-1.8,5.4-2.8a1.8,1.8,0,0,1,2,0,57,57,0,0,0,12.6,5.6l1.7.5c.6.2.8.4.8,1v4.7Zm-1.7.9V80.6c0-.4-.1-.5-.5-.6a61.6,61.6,0,0,1-13.7-5.9h-.6L366.9,76a55.3,55.3,0,0,1-10.2,4c-.3.1-.4.2-.4.6v6.9a23.4,23.4,0,0,0,1.3,7.9,21.9,21.9,0,0,0,11.2,12.3,3.5,3.5,0,0,0,3.4.3,22.3,22.3,0,0,0,6.9-4.9A20.9,20.9,0,0,0,385,91.6,44.3,44.3,0,0,0,385.3,85.3Z"/><path class="j" d="M368.4,92.4l.3-.5,7.3-7.3a2.7,2.7,0,0,1,3.3-.6,2.4,2.4,0,0,1,.7,3.8c-1,1.2-2.1,2.2-3.2,3.3l-6.5,6.6a2.6,2.6,0,0,1-2.9.7,3,3,0,0,1-1.1-.6l-4.5-4.6a2.5,2.5,0,0,1,2-4.4,2.6,2.6,0,0,1,1.8.9l2.4,2.4Zm-4.8-2.1c-.3.1-.5.1-.7.3s-.5,1,.1,1.5,2.9,3,4.4,4.4,1.1.7,1.7,0l8.3-8.3a8,8,0,0,0,1.3-1.3,1,1,0,0,0-1.4-1.4l-.3.4-8,8c-.6.5-.9.5-1.5-.1s-2.1-2-3.1-3.1Z"/><path class="j" d="M357.8,83.4V82c0-.5.2-.7.7-.9l4.1-1.5a.8.8,0,0,1,1.1.5c.2.4,0,.8-.6,1l-3.3,1.2a.5.5,0,0,0-.4.5v2c0,.6-.3.9-.7.9a.8.8,0,0,1-.9-.9Z"/><path class="j" d="M375,104.5c-.2-.2-.5-.3-.6-.5a1.1,1.1,0,0,1,.1-.8c0-.2.3-.4.5-.5a27.2,27.2,0,0,0,4-4.3c0-.1.1-.2.1-.3s.8-.5,1.2-.2a.8.8,0,0,1,.1,1.1,21.5,21.5,0,0,1-1.8,2.4,37.1,37.1,0,0,1-2.9,2.7Z"/><path class="j" d="M373.1,105.7a.8.8,0,0,1-.8-.8.9.9,0,0,1,.9-.8.8.8,0,0,1,.7.8A.8.8,0,0,1,373.1,105.7Z"/><path class="j" d="M365.2,80.2a.9.9,0,0,1-.7-.9.8.8,0,0,1,.8-.7.9.9,0,0,1,.8.8A.9.9,0,0,1,365.2,80.2Z"/><path class="k" d="M456.5,101.7l-.8.7-1.3-1.5c-.1-.1-.1-.4-.1-.6v-.7a9.6,9.6,0,0,1-5.3,0c0,.1-.1.2,0,.3a1.9,1.9,0,0,1-.7,1.7l-3.9,4.4-.3.3a.6.6,0,0,0,0,.8.5.5,0,0,0,.8-.1,37,37,0,0,0,2.8-2.8l1.8-1.7.5-.3h3.2a.5.5,0,0,1,.5.3l4.5,4.4c.1,0,.1.1.2.2a.5.5,0,0,0,.7,0,.5.5,0,0,0,.1-.8l-1-1-.3-.4.8-.7,1.4,1.5a1.7,1.7,0,0,1-.2,2.2,1.6,1.6,0,0,1-2.3-.1l-4.3-4.2-.6-.3h-2.1a.9.9,0,0,0-.7.3l-4.1,4.2a1.7,1.7,0,0,1-2.5-2.3l4.2-4.6c.5-.6.3-1.1.3-1.7s-.1-.1-.2-.2a8.2,8.2,0,0,1-3.8-3.8.5.5,0,0,0-.5-.3,1.8,1.8,0,0,0-1.7.6l-4.4,3.9a1.6,1.6,0,0,1-2.6-.4,1.6,1.6,0,0,1,.4-2l3.1-3.2a3.7,3.7,0,0,0,1.2-1.3c.3-.5.1-1.2.1-1.8a2.1,2.1,0,0,0-.7-1.8l-3.8-3.7a1.7,1.7,0,0,1,.7-2.8,1.7,1.7,0,0,1,1.7.4l4.7,4.3a2.2,2.2,0,0,0,1.6.2c.1,0,.1-.2.2-.2a7.8,7.8,0,0,1,3.8-3.8c.2-.1.2-.3.3-.5a1.9,1.9,0,0,0-.7-1.7L446,79.7l.8-.7,1,1.1.2.2a2.3,2.3,0,0,1,.9,2.4,8.3,8.3,0,0,1,5.4,0v-.4a1.9,1.9,0,0,1,.6-1.6l3.9-4.3.3-.4c.2-.3.3-.6,0-.9s-.5-.1-.8.1l-2.2,2.3-2.4,2.3-.5.2h-3.1l-.6-.2L445,75.3l-.3-.2h-.6a.5.5,0,0,0,0,.7l1.1,1.3.9,1-.8.7c-.8-.8-1.5-1.7-2.2-2.5l-.2-.4a1.6,1.6,0,0,1,2.5-1.8l.5.4,4.1,4.1.6.2h2.1a.7.7,0,0,0,.6-.3l4.2-4.1a1.6,1.6,0,0,1,2-.4,1.6,1.6,0,0,1,.4,2.6c-1.3,1.6-2.7,3.2-4.1,4.7s-.3,1.1-.4,1.6l.3.2a8.9,8.9,0,0,1,3.8,3.9l.4.2a1.8,1.8,0,0,0,1.7-.5l4.5-4a1.6,1.6,0,0,1,2-.2,1.6,1.6,0,0,1,.7,1.7,2.7,2.7,0,0,1-.6,1l-4.1,4.1a.9.9,0,0,0-.3.7,6.7,6.7,0,0,1,0,2,.9.9,0,0,0,.3.7l4.2,4.2a1.6,1.6,0,0,1,.5,1.7,1.7,1.7,0,0,1-2.8.7l-4.7-4.2a3,3,0,0,0-1.6-.3l-.2.3a9.3,9.3,0,0,1-3.8,3.8.5.5,0,0,0-.3.5,1.7,1.7,0,0,0,.6,1.6Zm-5.7-2.8a4.3,4.3,0,0,1,.5-3,2,2,0,0,1,2.5-1.1l3.2,1.3a.6.6,0,0,0,.7-.1,8.7,8.7,0,0,0,1.7-4.7,7.8,7.8,0,0,0-7-7.9.5.5,0,0,0-.5.3,3.9,3.9,0,0,0,.9,3.9L454,89a3.1,3.1,0,0,1,.5,1c.4,1-1,3.2-2.7,2.7l-1.1-.4-1.9-1a3.4,3.4,0,0,0-1.7-.5,10.7,10.7,0,0,0-3,.6c-.2.1-.2.2-.2.4a7.6,7.6,0,0,0,4.9,6.5A9.5,9.5,0,0,0,450.8,98.9Zm-.1-15.4a7.5,7.5,0,0,0-6.7,6.7l.9-.2a5.5,5.5,0,0,1,5,.6l1.9,1c.6.2.9.1,1.3-.5a1,1,0,0,0,0-1.4l-1-1.2a4.7,4.7,0,0,1-1.4-2.9A14.7,14.7,0,0,1,450.7,83.5Zm-7.6,4.9h-.6a1.4,1.4,0,0,1-1.1-.5l-4.7-4.2-.3-.3a.6.6,0,0,0-.7.1c-.3.3-.2.5,0,.8l.2.2,4.4,4.4a1.1,1.1,0,0,1,.2.6v3.1a1.4,1.4,0,0,1-.2.6,25,25,0,0,0-2.3,2.3l-2.3,2.2c-.2.3-.3.5,0,.8s.5.2.7,0,.3-.2.4-.3l4.7-4.2a1.4,1.4,0,0,1,.9-.3h.7c-.1-1-.3-1.8-.3-2.7S443,89.4,443.1,88.4Zm17,5.4h.6a1.4,1.4,0,0,1,1.2.4c1.5,1.5,3.1,2.9,4.7,4.3l.4.2h.6a.8.8,0,0,0,0-.7l-.2-.2c-1.5-1.5-2.9-3-4.4-4.4l-.3-.6V89.5c.1-.2.1-.4.3-.5l1.7-1.8a37,37,0,0,0,2.8-2.8.5.5,0,0,0,.1-.8.6.6,0,0,0-.8,0l-.3.2c-1.4,1.4-2.9,2.7-4.4,4a1.9,1.9,0,0,1-1.7.7h-.3A9.5,9.5,0,0,1,460.1,93.8Zm-3.6,3.3a12.5,12.5,0,0,0-3-1.2.9.9,0,0,0-1,.2,3.2,3.2,0,0,0-.6,2.5.3.3,0,0,0,.3.3A7.8,7.8,0,0,0,456.5,97.1Z"/><path class="k" d="M470.5,88.6v5h-3.6c-.4-.4-1.1-.7-1.2-1.2a4.5,4.5,0,0,1,0-2.3c.1-.5.8-.9,1.2-1.3h3.6Zm-1.1,1.1h-1.7l-.5.3a1.4,1.4,0,0,0-.6,1.4c.1.3.6,1.1.9,1.1h1.9Z"/><path class="k" d="M451.6,77.2h-.8a1.5,1.5,0,0,1-1.6-1.5,6.7,6.7,0,0,1,0-2,1.6,1.6,0,0,1,1.6-1.5h1.7a1.6,1.6,0,0,1,1.6,1.6,5.4,5.4,0,0,1,0,1.8,1.6,1.6,0,0,1-1.7,1.6Zm.1-3.9h-.8a.5.5,0,0,0-.6.6,4.3,4.3,0,0,0,0,1.6c0,.4.2.6.5.6h1.6a.5.5,0,0,0,.6-.6v-.8C453,73.3,453,73.3,451.7,73.3Z"/><path class="k" d="M437.7,91.3c.2.6-.2,1.1-.7,1.6a2.7,2.7,0,0,1-1.7.8,2.6,2.6,0,0,1-1.9-.8,2.2,2.2,0,0,1-.7-1.7,2.2,2.2,0,0,1,.8-1.9,2.2,2.2,0,0,1,1.7-.7,2.4,2.4,0,0,1,1.9.8C437.7,90.1,437.7,90.1,437.7,91.3Zm-1.1-.2a1.3,1.3,0,0,0-1.3-1.4,1.3,1.3,0,0,0-1.5,1.3c0,1,.5,1.5,1.4,1.5A1.3,1.3,0,0,0,436.6,91.1Z"/><path class="k" d="M451.7,110a2.5,2.5,0,1,1-.1-5,2.5,2.5,0,0,1,.1,5Zm1.3-2.5a1.4,1.4,0,0,0-1.4-1.4c-.7.1-1.4.7-1.3,1.4a1.3,1.3,0,0,0,1.3,1.4A1.4,1.4,0,0,0,453,107.5Z"/><path class="k" d="M457.2,104l-.8-.8.8-.7.8.8Z"/><path class="k" d="M456.7,88.9h1.1v1h-1.1Z"/><path class="k" d="M456.7,86.7v1h-1.1v-1Z"/><path class="l" d="M409.8,95.2h-5.9v13.3c0,1.2-.4,1.5-1.5,1.5h-3.9c-.8,0-1.2-.4-1.2-1.3V81a1.2,1.2,0,0,0-.4-.9,4.7,4.7,0,0,1-.5-5.4,4.8,4.8,0,0,1,4.8-2.4,4.7,4.7,0,0,1,4.1,3.9,4.9,4.9,0,0,1-1.1,4,.9.9,0,0,0-.3,1h11.9a4,4,0,0,1,4.3,4.3v.8h5.3a1.3,1.3,0,0,1,1.4,1.4V99c0,.9-.4,1.3-1.4,1.3H414a4,4,0,0,1-4.2-4.2ZM403.9,93h7.3a37.5,37.5,0,0,1,6.7.2V85.5a1.9,1.9,0,0,0-2.1-2.1H403.9Zm-2.3,14.8v-26h-2.1v26Zm22.9-9.7v-.2c0-3,0-6,.1-9.1,0-.2-.2-.3-.4-.3h-4.1v.5c-.1,3,.2,6-.1,9ZM400.6,79.6a2.6,2.6,0,0,0,2.6-2.6,2.8,2.8,0,0,0-2.6-2.6A2.6,2.6,0,0,0,398,77,2.6,2.6,0,0,0,400.6,79.6ZM412,95.2v1.1a1.8,1.8,0,0,0,1.8,1.8h2.6a1.4,1.4,0,0,0,1.5-1.5,1.5,1.5,0,0,0-1.5-1.4H412Z"/><path class="a" d="M479.6,83.3V81.6a1,1,0,0,1,.7-1.1,17.3,17.3,0,0,1,11-.5,20.1,20.1,0,0,1,6.1,2.9.4.4,0,0,0,.6,0,20.7,20.7,0,0,1,9.2-3.5,16,16,0,0,1,7.8,1.1c.7.2.8.5.8,1.2v1.6h2.4c.8.1,1.1.4,1.1,1.2v24.3c0,.9-.3,1.2-1.2,1.2H477.3c-.9,0-1.2-.3-1.2-1.2V84.6c0-1,.3-1.3,1.2-1.3Zm1.8,21.6c5.5-1.6,10.6-.5,15.4,2.4V85c0-.2,0-.4-.3-.5s-2.5-1.5-3.9-2.1a15.8,15.8,0,0,0-10.7-.6c-.4.2-.5.3-.5.7v22.4Zm32.6,0V82.4c0-.3,0-.4-.3-.5s-2.4-.6-3.6-.7A17.6,17.6,0,0,0,499,84.4a.8.8,0,0,0-.4.7v22.2C503.5,104.4,508.5,103.3,514,104.9ZM478,85.2v23h16.5l-.2-.2c-4.3-2.1-8.8-2.8-13.4-.9H480c-.4-.2-.4-.6-.4-1V85.2Zm37.8,0v21.1a.9.9,0,0,1-1.2.8l-1-.4a15.5,15.5,0,0,0-10.4.4l-2.2,1h16.5v-23Z"/><path class="m" d="M269.6,92.6A17.4,17.4,0,1,1,286.9,110,17.4,17.4,0,0,1,269.6,92.6ZM287,109a16.4,16.4,0,1,0-16.4-16.4A16.4,16.4,0,0,0,287,109Z"/><path class="m" d="M280.6,92.2a9.1,9.1,0,0,1-2-3.2,10.5,10.5,0,0,1-.6-2.4c-.2-.6.1-.9.7-.8l2.2.6h.4L278.8,82c-.7.7-1.4,1.3-2,2a13.3,13.3,0,0,0-3,6.6c-.1.2-.1.4-.4.5a.5.5,0,0,1-.6-.6,14.3,14.3,0,0,1,.4-2.2,14.9,14.9,0,0,1,5.3-7.3c.5-.4.8-.3,1.1.2,4.3,7.9,8.6,15.9,13,23.8.3.5.2.8-.4,1A14.3,14.3,0,0,1,273,95.8a15.4,15.4,0,0,1-.4-3c0-.4.2-.6.5-.6s.5.2.5.6a13,13,0,0,0,7,11.5,12.7,12.7,0,0,0,10.6.9h.3l-4-7.1h0v5.1a.6.6,0,0,1-.6.5c-.3,0-.4-.2-.5-.5V97.9l-.3.4a5.7,5.7,0,0,1-3.5,2c-.5.1-.8-.1-.7-.6a14.6,14.6,0,0,1,.5-2l.2-.3h-1.3a10.1,10.1,0,0,1-6.5-2.1c-.5-.4-.5-.7,0-1.1a9.1,9.1,0,0,1,5.2-2Zm5.3,2.7c-.1-.2-.3-.3-.4-.4a9.1,9.1,0,0,0-9.4.1l-.3.2A8.9,8.9,0,0,0,285.9,94.9Zm-1.1-2-2.6-4.6a.2.2,0,0,0-.2-.2l-2.3-1h-.6a9,9,0,0,0,3,5.1h.2Zm1.4,3.1a6.6,6.6,0,0,1-1.5.7,2.1,2.1,0,0,0-1.1,1,3.4,3.4,0,0,0-.6,1.5A5.1,5.1,0,0,0,286.2,96Z"/><path class="m" d="M286.6,78.3a14.4,14.4,0,0,1,14.5,11.9,13.9,13.9,0,0,1-5.7,14c-.5.4-.8.3-1.1-.2-4.3-7.9-8.6-15.8-13-23.7-.3-.6-.2-.8.4-1A13,13,0,0,1,286.6,78.3Zm-1.7,6.3a5.7,5.7,0,0,1,.4-1.4l1.2-2.4c.2-.4.6-.3.9,0l.3.5a14.2,14.2,0,0,1,1.7,5.4c.1.6.1,1.2.2,1.8l.2-.2a10.3,10.3,0,0,1,5.4-2.5c.6,0,.8.2.8.7a9.7,9.7,0,0,1-2.5,5.4l-.2.3h.3a10.2,10.2,0,0,1,5.6,2.2q.6.4,0,.9l-1.3.9a.5.5,0,0,1-.8-.2.6.6,0,0,1,.3-.7l.7-.4a8.9,8.9,0,0,0-8.2-1.1l1.2,2.1c.1.3.3.4.6.5a11.4,11.4,0,0,0,3.7-.3c.4-.1.7,0,.8.4a.7.7,0,0,1-.5.6,9.6,9.6,0,0,1-3.4.3h-.4l3.1,5.8a13.3,13.3,0,0,0-12.6-23.1Zm10,2.4h-.3a9.1,9.1,0,0,0-5.9,4.2v.4l.6,1c.1.2.2.2.4.2l1.8-.5.4-.2a8.2,8.2,0,0,0,2.3-3.2A10.7,10.7,0,0,0,294.9,87ZM287,82.1h-.1l-.2.4c-.3,1.1-.7,2.1-1,3.2a.7.7,0,0,0,.1.6l2,3.7.2.3a1.6,1.6,0,0,0,.5-1.1,17.1,17.1,0,0,0-.9-5.5A7.6,7.6,0,0,0,287,82.1Z"/></svg>