<?xml version="1.0" encoding="utf-8"?>
<!-- Generator: Adobe Illustrator 24.2.0, SVG Export Plug-In . SVG Version: 6.00 Build 0)  -->
<!DOCTYPE svg PUBLIC "-//W3C//DTD SVG 1.1//EN" "http://www.w3.org/Graphics/SVG/1.1/DTD/svg11.dtd" [
	<!ENTITY ns_extend "http://ns.adobe.com/Extensibility/1.0/">
	<!ENTITY ns_ai "http://ns.adobe.com/AdobeIllustrator/10.0/">
	<!ENTITY ns_graphs "http://ns.adobe.com/Graphs/1.0/">
	<!ENTITY ns_vars "http://ns.adobe.com/Variables/1.0/">
	<!ENTITY ns_imrep "http://ns.adobe.com/ImageReplacement/1.0/">
	<!ENTITY ns_sfw "http://ns.adobe.com/SaveForWeb/1.0/">
	<!ENTITY ns_custom "http://ns.adobe.com/GenericCustomNamespace/1.0/">
	<!ENTITY ns_adobe_xpath "http://ns.adobe.com/XPath/1.0/">
]>
<svg version="1.1" id="Layer_1" xmlns:x="&ns_extend;" xmlns:i="&ns_ai;" xmlns:graph="&ns_graphs;"
	 xmlns="http://www.w3.org/2000/svg" xmlns:xlink="http://www.w3.org/1999/xlink" x="0px" y="0px" viewBox="0 0 1193.6 104"
	 style="enable-background:new 0 0 1193.6 104;" xml:space="preserve">
<style type="text/css">
	.st0{fill:#85782F;}
	.st1{fill:#213B73;}
	.st2{enable-background:new    ;}
</style>
<metadata>
	<sfw  xmlns="&ns_sfw;">
		<slices></slices>
		<sliceSourceBounds  bottomLeftOrigin="true" height="70.8" width="1127.7" x="35" y="16.6"></sliceSourceBounds>
		<optimizationSettings>
			<targetSettings  fileFormat="PNG24Format" targetSettingsID="0">
				<PNG24Format  filtered="false" interlaced="false" matteColor="#FFFFFF" noMatteColor="false" transparency="true">
					</PNG24Format>
			</targetSettings>
		</optimizationSettings>
	</sfw>
</metadata>
<g>
	<g>
		<g>
			<g>
				<path class="st0" d="M609,64.8L609,64.8c-0.3,0-0.5,0.2-0.5,0.5l-1.8,15.2c-0.1,0.6,0.4,1.2,1.1,1.1l0,0c0.5,0,0.9-0.4,1-1
					l0.8-15.2C609.6,65.1,609.3,64.8,609,64.8z"/>
				<path class="st0" d="M609.4,57.6l-0.6,5.2c0,0.3,0.2,0.5,0.5,0.5l0,0c0.2,0,0.4-0.2,0.4-0.4l0.3-5.3c0-0.2-0.1-0.3-0.3-0.3l0,0
					C609.5,57.4,609.4,57.5,609.4,57.6z"/>
				<path class="st0" d="M609.7,54.5l-0.1,1.2c0,0.2,0.1,0.3,0.3,0.3l0,0c0.1,0,0.2-0.1,0.2-0.2l0.1-1.2c0-0.1-0.1-0.2-0.2-0.2l0,0
					C609.8,54.3,609.7,54.4,609.7,54.5z"/>
				<path class="st0" d="M609.2,54.4l-0.4,1.2c-0.1,0.2,0,0.3,0.2,0.3l0,0c0.1,0,0.2-0.1,0.3-0.2l0.3-1.2c0-0.1,0-0.2-0.2-0.3l0,0
					C609.3,54.3,609.2,54.4,609.2,54.4z"/>
				<path class="st0" d="M608,57.5l-1.9,5.1c-0.1,0.3,0.1,0.6,0.4,0.6l0,0c0.2,0,0.5-0.1,0.5-0.3l1.5-5.2c0.1-0.2-0.1-0.4-0.2-0.4
					l0,0C608.2,57.3,608.1,57.4,608,57.5z"/>
				<path class="st0" d="M606.7,57.1l-3.1,4.7c-0.2,0.3-0.1,0.6,0.2,0.7l0,0c0.2,0.1,0.5,0,0.6-0.2l2.8-4.9c0.1-0.2,0-0.4-0.2-0.4
					l0,0C606.9,56.9,606.8,57,606.7,57.1z"/>
				<path class="st0" d="M608.6,54.3l-0.7,1.1c-0.1,0.1,0,0.3,0.1,0.4l0,0c0.1,0,0.2,0,0.3-0.1l0.7-1.1c0.1-0.1,0-0.3-0.1-0.3l0,0
					C608.7,54.2,608.6,54.2,608.6,54.3z"/>
				<path class="st0" d="M608,54l-1,1c-0.1,0.1-0.1,0.3,0.1,0.4l0,0c0.1,0.1,0.2,0,0.3-0.1l1-1c0.1-0.1,0.1-0.2,0-0.3l0,0
					C608.1,53.9,608,53.9,608,54z"/>
				<path class="st0" d="M605.4,56.4l-4.3,4.1c-0.2,0.2-0.2,0.6,0.1,0.8l0,0c0.2,0.1,0.5,0.1,0.7-0.1l4.1-4.3
					c0.1-0.1,0.1-0.4-0.1-0.5l0,0C605.7,56.2,605.5,56.3,605.4,56.4z"/>
				<path class="st0" d="M604.2,55.3l-5.4,3.1c-0.3,0.2-0.4,0.6-0.1,0.8l0,0c0.2,0.2,0.5,0.2,0.7,0.1l5.2-3.4
					c0.2-0.1,0.2-0.4,0.1-0.5l0,0C604.5,55.3,604.4,55.2,604.2,55.3z"/>
				<path class="st0" d="M607.4,53.5l-1.3,0.8c-0.2,0.1-0.2,0.3,0,0.4l0,0c0.1,0.1,0.2,0.1,0.3,0l1.3-0.8c0.1-0.1,0.1-0.3,0-0.4l0,0
					C607.6,53.5,607.5,53.5,607.4,53.5z"/>
				<path class="st0" d="M606.9,52.9l-1.5,0.5c-0.2,0.1-0.3,0.3-0.2,0.4l0,0c0.1,0.1,0.2,0.1,0.3,0.1l1.5-0.6
					c0.1-0.1,0.2-0.2,0.1-0.4l0,0C607.1,52.9,607,52.8,606.9,52.9z"/>
				<path class="st0" d="M603.3,53.9l-6.2,1.9c-0.3,0.1-0.5,0.5-0.3,0.8l0,0c0.1,0.2,0.4,0.3,0.7,0.2l6.1-2.2
					c0.2-0.1,0.3-0.3,0.2-0.5l0,0C603.6,54,603.4,53.9,603.3,53.9z"/>
				<path class="st0" d="M602.7,52.3l-6.8,0.4c-0.4,0-0.6,0.4-0.5,0.7l0,0c0.1,0.3,0.3,0.5,0.6,0.4l6.7-0.8c0.2,0,0.3-0.2,0.3-0.4
					c0,0,0,0,0-0.1C603,52.4,602.8,52.3,602.7,52.3z"/>
				<path class="st0" d="M606.5,52l-1.7,0.1c-0.2,0-0.3,0.2-0.3,0.4l0,0c0,0.1,0.2,0.2,0.3,0.2l1.7-0.2c0.2,0,0.3-0.2,0.2-0.3l0,0
					C606.7,52.1,606.6,52,606.5,52z"/>
				<path class="st0" d="M602.8,50.8L602.8,50.8c0-0.2-0.1-0.3-0.3-0.3l-7-1.2c-0.3-0.1-0.6,0.2-0.6,0.5l0,0v0.1
					c0,0.3,0.2,0.5,0.5,0.5l7,0.8C602.6,51.2,602.8,51,602.8,50.8L602.8,50.8z"/>
				<path class="st0" d="M606.4,51.1l-1.8-0.3c-0.2,0-0.4,0.1-0.4,0.3l0,0c0,0.2,0.1,0.3,0.3,0.3l1.8,0.2c0.2,0,0.3-0.1,0.3-0.3l0,0
					C606.6,51.2,606.5,51.1,606.4,51.1z"/>
				<path class="st0" d="M602.8,48.5l-6.7-2.9c-0.4-0.2-0.8,0.1-0.8,0.4l0,0c-0.1,0.3,0.1,0.6,0.4,0.7l6.9,2.5
					c0.2,0.1,0.4,0,0.4-0.2v-0.1C603,48.7,602.9,48.6,602.8,48.5z"/>
				<path class="st0" d="M606.5,50.1l-1.8-0.8c-0.2-0.1-0.4,0-0.4,0.2l0,0c0,0.2,0.1,0.3,0.2,0.4l1.8,0.7c0.1,0.1,0.3,0,0.3-0.2l0,0
					C606.7,50.3,606.6,50.2,606.5,50.1z"/>
				<path class="st0" d="M608.9,51.3c0-0.1,0-0.2-0.2-0.3l-0.4-0.2c-0.1-0.1-0.3,0-0.3,0.2l0,0c0,0.1,0,0.2,0.1,0.2l0.4,0.1
					C608.7,51.5,608.8,51.4,608.9,51.3z"/>
				<path class="st0" d="M606.9,49.1l-1.6-1.2c-0.2-0.1-0.4-0.1-0.5,0.1l0,0c-0.1,0.1,0,0.3,0.1,0.4l1.7,1.1c0.1,0.1,0.3,0,0.4-0.1
					l0,0C607.1,49.4,607,49.2,606.9,49.1z"/>
				<path class="st0" d="M609.1,51c0.1-0.1,0-0.2-0.1-0.3l-0.5-0.4c-0.1-0.1-0.3,0-0.3,0.1l0,0c0,0.1,0,0.2,0.1,0.2l0.6,0.4
					C608.9,51.1,609.1,51.1,609.1,51z"/>
				<path class="st0" d="M603.6,46.6l-6.1-4.5c-0.3-0.2-0.8-0.1-1,0.2l0,0c-0.1,0.3,0,0.6,0.2,0.8l6.4,4.1c0.2,0.1,0.4,0,0.5-0.1
					c0,0,0-0.1,0.1-0.1C603.7,46.9,603.7,46.7,603.6,46.6z"/>
				<path class="st0" d="M604.8,45l-5.1-6.1c-0.3-0.3-0.8-0.3-1,0l0,0c-0.2,0.3-0.2,0.6,0,0.9l5.5,5.8c0.1,0.1,0.4,0.1,0.5,0
					l0.1-0.1C604.9,45.3,604.9,45.1,604.8,45z"/>
				<path class="st0" d="M609.4,50.7c0.1-0.1,0.1-0.2,0-0.3l-0.6-0.7c-0.1-0.1-0.2-0.1-0.3,0l0,0c-0.1,0.1-0.1,0.2,0,0.3l0.6,0.6
					C609.2,50.8,609.4,50.8,609.4,50.7z"/>
				<path class="st0" d="M607.6,48.3l-1.4-1.7c-0.1-0.2-0.4-0.2-0.5,0l0,0c-0.1,0.1-0.1,0.3,0,0.5l1.5,1.6c0.1,0.1,0.3,0.1,0.4,0
					l0,0C607.7,48.5,607.7,48.4,607.6,48.3z"/>
				<path class="st0" d="M609.8,50.6c0.1-0.1,0.1-0.2,0-0.3l-0.5-0.9c-0.1-0.1-0.2-0.2-0.3-0.1l0,0c-0.1,0.1-0.1,0.2-0.1,0.3
					l0.5,0.9C609.6,50.6,609.7,50.6,609.8,50.6z"/>
				<path class="st0" d="M608.5,47.6l-1-2.1c-0.1-0.2-0.3-0.3-0.5-0.1l0,0c-0.1,0.1-0.2,0.3-0.1,0.5l1.2,2c0.1,0.1,0.2,0.2,0.4,0.1
					l0,0C608.5,47.9,608.6,47.7,608.5,47.6z"/>
				<path class="st0" d="M606.5,43.5l-3.7-7.3c-0.2-0.4-0.7-0.5-1-0.2l0,0c-0.3,0.2-0.4,0.6-0.2,0.9l4.1,7.1
					c0.1,0.2,0.4,0.3,0.6,0.1l0,0C606.5,44,606.6,43.7,606.5,43.5z"/>
				<path class="st0" d="M610.2,50.5L610.2,50.5c0.1,0,0.2-0.2,0.1-0.3l-0.3-1.1c0-0.1-0.1-0.2-0.3-0.2l0,0c-0.1,0-0.2,0.2-0.2,0.3
					l0.3,1.1C610,50.4,610.1,50.5,610.2,50.5z"/>
				<path class="st0" d="M608.5,42.6l-2-8.4c-0.1-0.4-0.5-0.6-0.9-0.5c0,0,0,0-0.1,0c-0.3,0.1-0.5,0.5-0.4,0.8l2.5,8.2
					c0.1,0.2,0.3,0.4,0.6,0.3l0,0C608.4,43,608.6,42.8,608.5,42.6z"/>
				<path class="st0" d="M609.6,47.2l-0.6-2.4c-0.1-0.2-0.3-0.3-0.5-0.3l0,0c-0.2,0.1-0.3,0.3-0.2,0.4l0.7,2.4
					c0,0.1,0.2,0.2,0.3,0.2l0,0C609.6,47.5,609.6,47.4,609.6,47.2z"/>
				<path class="st0" d="M610.6,50.5c0.1,0,0.2-0.1,0.2-0.2v-1.1c0-0.1-0.1-0.2-0.2-0.2l0,0c-0.1,0-0.2,0.1-0.2,0.2l0.1,1.1
					C610.4,50.4,610.5,50.5,610.6,50.5z"/>
				<path class="st0" d="M610.8,47.2v-2.7c0-0.2-0.2-0.4-0.4-0.4l0,0c-0.2,0-0.4,0.2-0.3,0.4l0.2,2.7c0,0.1,0.1,0.3,0.3,0.3l0,0
					C610.7,47.5,610.8,47.3,610.8,47.2z"/>
				<path class="st0" d="M610.8,42.3v-9c0-0.4-0.4-0.7-0.8-0.7h-0.1c-0.4,0-0.6,0.4-0.6,0.7l0.6,9c0,0.2,0.2,0.4,0.5,0.4l0,0
					C610.6,42.7,610.8,42.5,610.8,42.3z"/>
				<path class="st0" d="M611.9,47.4l0.6-2.7c0-0.2-0.1-0.4-0.3-0.5l0,0c-0.2,0-0.4,0.1-0.4,0.3l-0.5,2.8c0,0.1,0.1,0.3,0.2,0.3l0,0
					C611.7,47.7,611.9,47.6,611.9,47.4z"/>
				<path class="st0" d="M611,50.6c0.1,0,0.2-0.1,0.2-0.2l0.2-1c0-0.1,0-0.2-0.1-0.3l0,0c-0.1,0-0.3,0-0.3,0.2l-0.2,1.1
					C610.8,50.4,610.9,50.6,611,50.6z"/>
				<path class="st0" d="M613.1,42.5l2.2-9.1c0.1-0.4-0.2-0.8-0.6-0.8h-0.1c-0.4,0-0.7,0.2-0.7,0.6l-1.6,9.2c0,0.2,0.1,0.5,0.4,0.5
					l0,0C612.8,42.9,613,42.7,613.1,42.5z"/>
				<path class="st0" d="M613,47.9l1.3-2.7c0.1-0.2,0-0.4-0.2-0.5l0,0c-0.2-0.1-0.4,0-0.5,0.2l-1.2,2.7c-0.1,0.1,0,0.3,0.1,0.4l0,0
					C612.7,48.1,612.9,48.1,613,47.9z"/>
				<path class="st0" d="M611.4,50.8c0.1,0,0.2,0,0.3-0.1l0.5-0.9c0-0.1,0-0.2-0.1-0.3l0,0c-0.1-0.1-0.3,0-0.3,0.1l-0.4,1
					C611.2,50.6,611.3,50.7,611.4,50.8z"/>
				<path class="st0" d="M615.3,43.3l4.4-8.7c0.2-0.4,0-0.8-0.4-0.9h-0.1c-0.3-0.1-0.7,0-0.8,0.4l-3.8,8.9c-0.1,0.2,0,0.5,0.2,0.6
					l0,0C615,43.6,615.2,43.5,615.3,43.3z"/>
				<path class="st0" d="M611.7,51c0.1,0.1,0.2,0,0.3-0.1l0.6-0.8c0.1-0.1,0.1-0.2,0-0.3l0,0c-0.1-0.1-0.3-0.1-0.3,0l-0.6,0.8
					C611.6,50.8,611.6,51,611.7,51z"/>
				<path class="st0" d="M617.4,44.5l6.5-7.8c0.3-0.3,0.2-0.8-0.2-1c-0.1,0-0.1-0.1-0.2-0.1c-0.3-0.2-0.7-0.1-0.9,0.2l-6,8.1
					c-0.1,0.2-0.1,0.5,0.1,0.6l0,0C616.9,44.7,617.2,44.7,617.4,44.5z"/>
				<path class="st0" d="M613.9,48.7l2-2.4c0.1-0.2,0.1-0.4-0.1-0.6l0,0c-0.2-0.1-0.4-0.1-0.5,0.1l-1.9,2.5c-0.1,0.1-0.1,0.3,0,0.4
					l0,0C613.6,48.8,613.8,48.8,613.9,48.7z"/>
				<path class="st0" d="M619.1,46.3l8.4-6.3c0.4-0.3,0.4-0.8,0.1-1.2l0,0c-0.3-0.3-0.7-0.3-1.1,0l-8,6.8c-0.2,0.2-0.2,0.4-0.1,0.6
					l0,0C618.6,46.4,618.9,46.4,619.1,46.3z"/>
				<path class="st0" d="M614.5,49.6l2.7-2c0.2-0.1,0.2-0.4,0.1-0.6l0,0c-0.1-0.2-0.4-0.2-0.5,0l-2.6,2.2c-0.1,0.1-0.1,0.2-0.1,0.4
					l0,0C614.2,49.7,614.4,49.7,614.5,49.6z"/>
				<path class="st0" d="M611.9,51.3c0.1,0.1,0.2,0.1,0.3,0l0.7-0.6c0.1-0.1,0.1-0.2,0.1-0.3l0,0c-0.1-0.1-0.2-0.2-0.3-0.1l-0.7,0.6
					C611.9,51.1,611.8,51.3,611.9,51.3z"/>
				<path class="st0" d="M615,50.7l3.3-1.4c0.2-0.1,0.3-0.3,0.2-0.5l0,0c-0.1-0.2-0.3-0.3-0.5-0.2l-3.2,1.6
					c-0.1,0.1-0.2,0.2-0.1,0.3l0,0C614.6,50.7,614.8,50.7,615,50.7z"/>
				<path class="st0" d="M620.3,48.4l10.4-4.5c0.3-0.1,0.4-0.4,0.2-0.7c-0.1-0.2-0.3-0.4-0.4-0.6c-0.1-0.2-0.4-0.3-0.6-0.2l-10,5.1
					c-0.2,0.1-0.3,0.4-0.2,0.6l0,0C619.9,48.4,620.1,48.5,620.3,48.4z"/>
				<path class="st0" d="M615.1,51.8l3.7-0.6c0.2,0,0.4-0.3,0.3-0.5l0,0c0-0.2-0.3-0.3-0.5-0.3l-3.6,0.9c-0.1,0-0.2,0.2-0.2,0.3l0,0
					C614.8,51.7,615,51.8,615.1,51.8z"/>
				<path class="st0" d="M621.1,50.7l11.2-2c0.5-0.1,0.8-0.6,0.6-1l0,0c-0.1-0.4-0.6-0.7-1-0.6l-11.1,2.7c-0.2,0.1-0.4,0.3-0.3,0.5
					l0,0C620.6,50.6,620.8,50.8,621.1,50.7z"/>
				<path class="st0" d="M621.2,53.2l11.8,0.7c0.5,0,0.9-0.4,0.9-0.9l0,0c0-0.5-0.4-0.8-0.8-0.8l-11.8,0.1c-0.3,0-0.5,0.2-0.5,0.5
					l0,0C620.8,53,621,53.2,621.2,53.2z"/>
				<path class="st0" d="M615,52.9l3.9,0.2c0.2,0,0.4-0.2,0.4-0.4l0,0c0-0.2-0.2-0.4-0.4-0.4H615c-0.1,0-0.3,0.1-0.3,0.2l0,0
					C614.8,52.7,614.9,52.9,615,52.9z"/>
				<path class="st0" d="M620.9,55.8l11.7,3.5c0.5,0.1,1-0.2,1.1-0.7l0,0c0.1-0.4-0.2-0.9-0.7-1l-11.9-2.8c-0.3-0.1-0.5,0.1-0.6,0.4
					l0,0C620.5,55.4,620.6,55.7,620.9,55.8z"/>
				<path class="st0" d="M614.8,53.9l3.9,1.2c0.2,0.1,0.5-0.1,0.5-0.3l0,0c0-0.2-0.1-0.4-0.3-0.5l-3.9-0.9c-0.1,0-0.3,0-0.3,0.2l0,0
					C614.5,53.7,614.6,53.9,614.8,53.9z"/>
				<path class="st0" d="M612.1,52.9L612.1,52.9c-0.1,0.1,0,0.3,0.1,0.3l0,0l0.7,0.2c0.1,0,0.2,0,0.3-0.1l0,0c0-0.1,0-0.2-0.2-0.3
					L612.1,52.9L612.1,52.9C612.2,52.8,612.1,52.8,612.1,52.9z"/>
				<path class="st0" d="M614.3,54.9L618,57c0.2,0.1,0.5,0,0.6-0.2l0,0c0.1-0.2,0-0.4-0.2-0.5l-3.8-1.9c-0.1-0.1-0.3,0-0.4,0.1l0,0
					C614.1,54.7,614.1,54.8,614.3,54.9z"/>
				<path class="st0" d="M611.9,53.3L611.9,53.3c-0.1,0.1,0,0.2,0,0.3l0,0l0.7,0.4c0.1,0.1,0.2,0,0.3-0.1l0,0c0.1-0.1,0-0.2-0.1-0.3
					l-0.7-0.4l0,0C612,53.2,611.9,53.2,611.9,53.3z"/>
				<path class="st0" d="M619.9,58.2l10.9,6.3c0.5,0.3,1.1,0.1,1.3-0.4l0,0c0.2-0.4,0-0.9-0.4-1.1l-11.3-5.6c-0.2-0.1-0.5,0-0.6,0.2
					l0,0C619.7,57.8,619.7,58.1,619.9,58.2z"/>
				<path class="st0" d="M613.6,55.8l3.2,3c0.2,0.2,0.5,0.1,0.6-0.1l0,0c0.1-0.2,0.1-0.4-0.1-0.6l-3.4-2.8c-0.1-0.1-0.3-0.1-0.4,0
					l0,0C613.5,55.5,613.5,55.7,613.6,55.8z"/>
				<path class="st0" d="M618.5,60.4l9.5,9c0.4,0.4,1.1,0.3,1.4-0.2l0,0c0.3-0.4,0.2-0.9-0.2-1.2l-10.1-8.4
					c-0.2-0.2-0.5-0.1-0.7,0.1l0,0C618.3,60,618.3,60.3,618.5,60.4z"/>
				<path class="st0" d="M611.6,53.6L611.6,53.6c-0.1,0.1-0.1,0.2,0,0.3l0,0l0.6,0.6c0.1,0.1,0.2,0.1,0.3,0l0,0
					c0.1-0.1,0.1-0.2,0-0.3l-0.7-0.6l0,0C611.7,53.5,611.6,53.5,611.6,53.6z"/>
				<path class="st0" d="M612.8,56.5l2.5,3.9c0.1,0.2,0.5,0.3,0.6,0.1l0,0c0.2-0.1,0.2-0.4,0-0.6l-2.8-3.7c-0.1-0.1-0.3-0.1-0.4,0
					l0,0C612.7,56.3,612.7,56.4,612.8,56.5z"/>
				<path class="st0" d="M616.6,62.4l7.5,11.4c0.3,0.5,1,0.6,1.4,0.2l0,0c0.3-0.3,0.4-0.9,0.1-1.2l-8.2-10.9
					c-0.2-0.2-0.5-0.3-0.7-0.1l0,0C616.5,61.9,616.5,62.2,616.6,62.4z"/>
				<path class="st0" d="M611.2,53.9L611.2,53.9c-0.1,0.1-0.1,0.2-0.1,0.3l0.5,0.8c0.1,0.1,0.2,0.1,0.3,0l0,0c0.1-0.1,0.1-0.2,0-0.3
					l-0.6-0.7C611.4,53.8,611.3,53.8,611.2,53.9z"/>
				<path class="st0" d="M611.8,57.1l1.7,4.6c0.1,0.3,0.4,0.4,0.6,0.2l0,0c0.2-0.1,0.3-0.3,0.2-0.5l-1.9-4.5
					c-0.1-0.1-0.2-0.2-0.4-0.1l0,0C611.8,56.8,611.7,57,611.8,57.1z"/>
				<path class="st0" d="M614.2,64l4.9,13.4c0.2,0.6,0.9,0.8,1.4,0.5l0,0c0.4-0.2,0.6-0.8,0.4-1.2l-5.7-13c-0.1-0.3-0.5-0.4-0.7-0.2
					l0,0C614.3,63.5,614.2,63.7,614.2,64z"/>
				<path class="st0" d="M610.8,54.1L610.8,54.1c-0.1,0-0.1,0.1-0.1,0.2c0.1,0.2,0.2,0.7,0.3,1c0,0.1,0.2,0.2,0.3,0.1l0,0
					c0.1-0.1,0.2-0.2,0.1-0.3c-0.1-0.3-0.3-0.7-0.4-1C611,54.1,610.9,54,610.8,54.1z"/>
				<path class="st0" d="M610.3,54.5l0.1,1.1c0,0.1,0.2,0.2,0.3,0.2l0,0c0.1,0,0.2-0.1,0.2-0.3l-0.2-1.1c0-0.1-0.1-0.2-0.2-0.2l0,0
					C610.3,54.3,610.2,54.4,610.3,54.5z"/>
				<path class="st0" d="M611.5,65l1.7,14.7c0.1,0.6,0.7,1,1.3,0.8l0,0c0.5-0.1,0.8-0.6,0.7-1.1l-2.6-14.5c-0.1-0.3-0.4-0.5-0.7-0.4
					l0,0C611.6,64.5,611.5,64.7,611.5,65z"/>
				<path class="st0" d="M610.9,57.2C610.8,57.2,610.8,57.2,610.9,57.2c-0.2,0-0.3,0.2-0.2,0.3l0.6,5.1c0,0.3,0.3,0.5,0.6,0.4l0,0
					c0.2-0.1,0.3-0.3,0.3-0.5l-0.9-5C611.2,57.2,611,57.1,610.9,57.2z"/>
				<path class="st0" d="M613.3,51.2c0-0.1-0.2-0.2-0.3-0.1l-0.8,0.4c-0.1,0.1-0.2,0.1-0.1,0.2l0,0c0,0.1,0.2,0.1,0.3,0.1l0,0
					l0.8-0.3C613.3,51.4,613.3,51.3,613.3,51.2L613.3,51.2z"/>
				<path class="st0" d="M613.4,51.9c0-0.1-0.1-0.2-0.3-0.2l-0.7,0.2l0,0c-0.1,0-0.2,0.1-0.2,0.2c0,0.1,0.1,0.1,0.2,0.1h0.1l0.8-0.1
					C613.3,52.1,613.4,52,613.4,51.9L613.4,51.9z"/>
				<path class="st0" d="M612.4,52.3C612.3,52.3,612.3,52.3,612.4,52.3c-0.2,0-0.2,0.1-0.2,0.2l0,0c0,0.1,0,0.1,0.1,0.1
					c0,0,0.1,0.1,0.2,0.1h0.8c0.1,0,0.2-0.1,0.2-0.2l0,0c0-0.1-0.1-0.2-0.2-0.2L612.4,52.3z"/>
				<path class="st0" d="M612,52.9L612,52.9L612,52.9L612,52.9z"/>
				<path class="st0" d="M608.5,84.1c0-0.6-0.5-1.1-1.1-1.1c-0.1,0-0.2,0-0.2,0c-0.5,0-0.9,0.4-1,0.9l-0.2,2
					c-0.1,0.7,0.5,1.3,1.2,1.3l0,0c0.6,0,1.2-0.5,1.2-1.1L608.5,84.1z"/>
				<path class="st0" d="M606,64.6C605.9,64.6,605.9,64.6,606,64.6c-0.3,0-0.5,0.1-0.6,0.4l-7.5,20.7c-0.3,0.8,0.3,1.6,1.1,1.6h0.1
					c0.5,0,1-0.4,1.2-0.9l6.2-21.1C606.5,65,606.3,64.7,606,64.6z"/>
				<path class="st0" d="M602.9,63.8L602.9,63.8c-0.3-0.1-0.6,0-0.7,0.2l-13.9,21.2c-0.6,0.9,0.1,2.1,1.2,2.1l0,0
					c0.5,0,1-0.3,1.2-0.7l12.6-22C603.3,64.3,603.2,63.9,602.9,63.8z"/>
				<path class="st0" d="M627.7,75.5c-0.4-0.5-1.1-0.6-1.5-0.1l0,0c-0.4,0.3-0.4,0.9-0.2,1.3l6.5,9.9c0.3,0.4,0.7,0.6,1.2,0.6l0,0
					c1.2,0,1.8-1.3,1.1-2.3L627.7,75.5z"/>
				<path class="st0" d="M622.3,79.7c-0.2-0.5-0.9-0.7-1.4-0.4c-0.1,0-0.1,0.1-0.2,0.1c-0.4,0.2-0.6,0.7-0.4,1.2l2.2,6
					c0.2,0.5,0.6,0.8,1.1,0.8h0.2c0.9,0,1.4-0.9,1.1-1.7L622.3,79.7z"/>
				<path class="st0" d="M615.8,82.7c-0.1-0.6-0.8-1-1.3-0.7c-0.5,0.1-0.9,0.6-0.8,1.1l0.4,3.1c0.1,0.6,0.6,1.1,1.2,1.1l0,0
					c0.7,0,1.3-0.7,1.2-1.4L615.8,82.7z"/>
				<path class="st0" d="M628.8,36.8c-0.3,0.3-0.4,0.8-0.1,1.1c0,0.1,0.1,0.1,0.1,0.2c0.3,0.3,0.7,0.3,1,0.1l11.9-8.8
					c0.3-0.3,0.5-0.7,0.5-1.1l0,0c0-1.2-1.3-1.8-2.2-1L628.8,36.8z"/>
				<path class="st0" d="M632.5,41.1c-0.5,0.2-0.6,0.8-0.4,1.3l0,0c0.2,0.4,0.7,0.5,1.1,0.4l8.3-3.6c0.4-0.2,0.7-0.6,0.7-1.1l0,0
					c0-0.9-0.9-1.5-1.7-1.1L632.5,41.1z"/>
				<path class="st0" d="M635.1,46.4c-0.5,0.1-0.8,0.7-0.7,1.2l0,0c0.1,0.4,0.6,0.7,1,0.6l6-1c0.5-0.1,0.9-0.5,0.9-1.1l0,0
					c0-0.7-0.7-1.2-1.4-1.1L635.1,46.4z"/>
				<path class="st0" d="M636.3,52.2c-0.5,0-1,0.4-0.9,1l0,0c0,0.5,0.4,0.9,0.9,0.9l4.9,0.3c0.6,0,1.2-0.5,1.2-1.1l0,0
					c0-0.6-0.5-1.1-1.1-1.1L636.3,52.2z"/>
				<path class="st0" d="M636.1,58.3c-0.5-0.1-1.1,0.2-1.2,0.8l0,0c-0.1,0.5,0.2,0.9,0.7,1.1l5.3,1.6c0.7,0.2,1.4-0.3,1.4-1.1v-0.1
					c0-0.5-0.4-1-0.9-1.1L636.1,58.3z"/>
				<path class="st0" d="M634.7,64.4c-0.5-0.3-1.1,0-1.3,0.5l0,0c-0.2,0.4,0,1,0.4,1.2l6.9,4c0.7,0.4,1.6-0.1,1.6-1v-0.3
					c0-0.4-0.2-0.8-0.6-1L634.7,64.4z"/>
				<path class="st0" d="M631.9,70.2c-0.5-0.4-1.1-0.3-1.5,0.2l0,0c-0.3,0.4-0.2,1,0.1,1.3l9.4,8.9c0.9,0.9,2.4,0.2,2.4-1l0,0
					c0-0.4-0.2-0.8-0.5-1.1L631.9,70.2z"/>
				<path class="st0" d="M601.2,34.5L601.2,34.5c0.3-0.2,0.4-0.6,0.2-1l-8.1-16.1c-0.2-0.5-0.7-0.7-1.2-0.7l0,0c-1,0-1.7,1.1-1.2,2
					l9.1,15.5C600.3,34.7,600.8,34.8,601.2,34.5z"/>
				<path class="st0" d="M605.4,32.3L605.4,32.3c0.4-0.1,0.6-0.5,0.5-0.9l-3.2-13.7c-0.1-0.5-0.6-0.9-1.2-0.9h-0.1
					c-0.8,0-1.4,0.8-1.2,1.6l4.1,13.5C604.4,32.2,604.9,32.4,605.4,32.3z"/>
				<path class="st0" d="M610.1,31.1L610.1,31.1c0.4,0,0.7-0.4,0.7-0.8V17.9c0-0.7-0.5-1.2-1.2-1.2l0,0c-0.7,0-1.3,0.6-1.2,1.3
					l0.8,12.4C609.2,30.8,609.6,31.2,610.1,31.1z"/>
				<path class="st0" d="M615,31.2L615,31.2c0.4,0.1,0.8-0.2,0.9-0.6l2.9-12.3c0.2-0.8-0.4-1.5-1.2-1.5l0,0c-0.6,0-1.1,0.4-1.2,1
					l-2.1,12.5C614.2,30.7,614.5,31.1,615,31.2z"/>
				<path class="st0" d="M620,32.3L620,32.3c0.4,0.1,0.9,0,1-0.4l6.7-13.3c0.4-0.9-0.2-1.9-1.2-1.9l0,0c-0.5,0-1,0.3-1.2,0.8
					l-5.8,13.7C619.3,31.7,619.5,32.2,620,32.3z"/>
				<path class="st0" d="M624.7,34.6L624.7,34.6c0.4,0.2,0.9,0.2,1.1-0.2l12.8-15.3c0.8-1,0.1-2.5-1.1-2.5l0,0
					c-0.5,0-0.9,0.2-1.2,0.6l-11.8,16.1C624.1,33.8,624.2,34.4,624.7,34.6z"/>
				<g>
					<path class="st0" d="M608.7,51.7c0-0.1-0.1-0.2-0.2-0.2h-0.2c-0.1,0-0.3,0.1-0.2,0.2l0,0c0,0.1,0.1,0.1,0.2,0.1h0.2
						C608.6,51.9,608.7,51.8,608.7,51.7z"/>
					<path class="st0" d="M608.5,51.9c-0.1,0-0.2,0.1-0.2,0.2l0,0c0,0.1,0.1,0.1,0.1,0.1h0.1c0.1,0,0.2-0.1,0.2-0.2
						c0-0.1-0.1-0.2-0.1-0.2C608.6,51.9,608.5,51.9,608.5,51.9z"/>
					<circle class="st0" cx="608.6" cy="52.5" r="0.1"/>
				</g>
				<g>
					<path class="st0" d="M600,62.2L600,62.2c-0.2-0.2-0.5-0.1-0.8,0.1l-17.3,16.4c-0.3,0.3-0.4,0.6-0.4,1l0,0
						c0,1.2,1.5,1.8,2.3,0.9l16.3-17.5C600.3,62.8,600.3,62.4,600,62.2z"/>
					<path class="st0" d="M597.2,60.8c0.3-0.2,0.4-0.6,0.1-0.9l0,0c-0.2-0.2-0.5-0.3-0.8-0.1L582,68.2c-0.4,0.2-0.6,0.6-0.6,1l0,0
						c0,0.9,1,1.5,1.8,1L597.2,60.8z"/>
					<path class="st0" d="M594.9,57.8c0.4-0.1,0.5-0.6,0.3-0.9l0,0c-0.1-0.3-0.5-0.4-0.7-0.3l-12.3,3.7c-0.4,0.1-0.7,0.5-0.7,1v0.1
						c0,0.7,0.7,1.2,1.4,0.9L594.9,57.8z"/>
					<path class="st0" d="M593.3,54.2c0.4,0,0.7-0.4,0.6-0.8l0,0c-0.1-0.3-0.4-0.5-0.7-0.5l-10.8,0.6c-0.5,0-1,0.5-1,1l0,0
						c0,0.6,0.5,1.1,1.1,1L593.3,54.2z"/>
					<path class="st0" d="M592.7,50.1c0.4,0,0.8-0.3,0.8-0.7l0,0c0-0.3-0.2-0.6-0.6-0.7l-10.2-1.8c-0.6-0.1-1.2,0.4-1.2,1l0,0
						c0,0.5,0.4,0.9,0.9,1L592.7,50.1z"/>
					<path class="st0" d="M593,45.8c0.4,0.1,0.8-0.1,0.9-0.5l0,0c0.1-0.3-0.1-0.7-0.4-0.8l-10.7-4.6c-0.7-0.3-1.4,0.2-1.4,0.9V41
						c0,0.4,0.3,0.8,0.7,1L593,45.8z"/>
					<path class="st0" d="M594.4,41.6c0.4,0.2,0.9,0.1,1-0.3l0,0c0.2-0.3,0.1-0.7-0.2-0.9l-11.8-8.8c-0.8-0.6-1.9,0-1.9,1l0,0
						c0,0.4,0.2,0.8,0.5,1L594.4,41.6z"/>
					<path class="st0" d="M596.7,37.7c0.3,0.3,0.8,0.3,1.1,0l0,0c0.2-0.3,0.2-0.7,0-1l-13.9-16.5c-0.9-1-2.5-0.4-2.5,0.9l0,0
						c0,0.4,0.1,0.7,0.4,1L596.7,37.7z"/>
				</g>
			</g>
		</g>
	</g>
</g>
<g>
	<g>
		<path class="st1" d="M669.1,45.6V61h6.1v4.3h-11.1V45.6H669.1z"/>
		<path class="st1" d="M688.9,50h-6v3.3h5.7v4.3h-5.7V61h6v4.3h-11.1V45.6h11.1V50z"/>
		<path class="st1" d="M702,54.3h10.1c0,1,0,2-0.1,2.8c-0.1,0.9-0.3,1.6-0.5,2.4c-0.4,1-0.9,1.9-1.5,2.7s-1.3,1.4-2.2,2
			c-0.8,0.5-1.8,0.9-2.8,1.2c-1,0.3-2.1,0.4-3.2,0.4c-1.5,0-2.9-0.3-4.1-0.8c-1.2-0.5-2.3-1.2-3.2-2.1c-0.9-0.9-1.6-2-2.1-3.3
			s-0.7-2.7-0.7-4.2s0.2-2.9,0.7-4.2s1.2-2.4,2.1-3.3c0.9-0.9,2-1.6,3.3-2.1s2.7-0.8,4.3-0.8c2,0,3.8,0.4,5.4,1.3s2.7,2.3,3.6,4.1
			l-4.8,2c-0.4-1.1-1-1.8-1.7-2.3s-1.5-0.7-2.4-0.7c-0.8,0-1.4,0.1-2.1,0.4c-0.6,0.3-1.2,0.7-1.6,1.2c-0.4,0.5-0.8,1.2-1,1.9
			s-0.4,1.6-0.4,2.5c0,0.8,0.1,1.6,0.3,2.3s0.5,1.3,1,1.8c0.4,0.5,1,0.9,1.6,1.2s1.4,0.4,2.2,0.4c0.5,0,1-0.1,1.4-0.2
			c0.5-0.1,0.9-0.3,1.3-0.5c0.4-0.3,0.7-0.6,0.9-1s0.4-0.9,0.5-1.5H702V54.3z"/>
		<path class="st1" d="M726.5,61.9h-7.2l-1.2,3.4h-5.4l7.4-19.6h5.5l7.4,19.6h-5.4L726.5,61.9z M725.2,58l-2.3-6.5l-2.3,6.5H725.2z"
			/>
		<path class="st1" d="M735.3,45.6h7.5c1.3,0,2.6,0.3,3.7,0.8c1.2,0.5,2.2,1.3,3,2.1c0.9,0.9,1.6,1.9,2.1,3.1
			c0.5,1.2,0.7,2.4,0.7,3.7s-0.2,2.5-0.7,3.7s-1.2,2.2-2,3.1c-0.9,0.9-1.9,1.6-3,2.2c-1.2,0.5-2.4,0.8-3.8,0.8h-7.5V45.6z M740.4,61
			h1.2c0.9,0,1.7-0.1,2.4-0.4c0.7-0.3,1.3-0.7,1.7-1.1c0.5-0.5,0.8-1.1,1.1-1.7c0.2-0.7,0.4-1.4,0.4-2.2s-0.1-1.5-0.4-2.2
			c-0.3-0.7-0.6-1.3-1.1-1.7c-0.5-0.5-1.1-0.9-1.7-1.1c-0.7-0.3-1.5-0.4-2.3-0.4h-1.2V61H740.4z"/>
		<path class="st1" d="M754.7,55.5c0-1.5,0.3-2.8,0.8-4.1s1.3-2.4,2.2-3.3c0.9-0.9,2.1-1.7,3.4-2.2c1.3-0.5,2.8-0.8,4.4-0.8
			c1.6,0,3,0.3,4.3,0.8s2.5,1.3,3.4,2.2c1,0.9,1.7,2,2.2,3.3s0.8,2.6,0.8,4.1s-0.3,2.8-0.8,4.1s-1.3,2.4-2.2,3.3
			c-1,0.9-2.1,1.7-3.4,2.2c-1.3,0.5-2.8,0.8-4.3,0.8c-1.6,0-3-0.3-4.4-0.8c-1.3-0.5-2.5-1.3-3.4-2.2s-1.7-2-2.2-3.3
			S754.7,56.9,754.7,55.5z M760,55.5c0,0.8,0.1,1.5,0.4,2.2c0.3,0.7,0.7,1.2,1.2,1.7s1.1,0.9,1.7,1.1c0.7,0.3,1.4,0.4,2.1,0.4
			c0.7,0,1.4-0.1,2.1-0.4s1.2-0.6,1.8-1.1s0.9-1.1,1.2-1.7c0.3-0.7,0.4-1.4,0.4-2.2s-0.1-1.5-0.4-2.2c-0.3-0.7-0.7-1.2-1.2-1.7
			s-1.1-0.9-1.8-1.1c-0.7-0.3-1.4-0.4-2.1-0.4c-0.7,0-1.4,0.1-2.1,0.4c-0.7,0.3-1.2,0.6-1.7,1.1s-0.9,1.1-1.2,1.7
			C760.2,54,760,54.7,760,55.5z"/>
		<path class="st1" d="M819.9,52.2c-1.2-1.4-2.6-2.2-4.3-2.2c-0.8,0-1.5,0.1-2.1,0.4c-0.6,0.3-1.2,0.7-1.7,1.1
			c-0.5,0.5-0.8,1-1.1,1.7s-0.4,1.4-0.4,2.1c0,0.8,0.1,1.5,0.4,2.2c0.3,0.7,0.6,1.2,1.1,1.7s1,0.9,1.7,1.1c0.6,0.3,1.3,0.4,2.1,0.4
			c1.6,0,3.1-0.7,4.4-2.1v6l-0.5,0.2c-0.8,0.3-1.5,0.5-2.2,0.6s-1.3,0.2-2,0.2c-1.3,0-2.6-0.3-3.9-0.8c-1.2-0.5-2.3-1.2-3.3-2.2
			c-0.9-0.9-1.7-2-2.3-3.3s-0.9-2.7-0.9-4.2s0.3-2.9,0.8-4.2c0.6-1.3,1.3-2.3,2.2-3.3c0.9-0.9,2-1.6,3.3-2.1s2.5-0.8,3.9-0.8
			c0.8,0,1.5,0.1,2.3,0.2s1.5,0.4,2.4,0.8L819.9,52.2L819.9,52.2z"/>
		<path class="st1" d="M822.5,55.5c0-1.5,0.3-2.8,0.8-4.1s1.3-2.4,2.2-3.3c0.9-0.9,2.1-1.7,3.4-2.2c1.3-0.5,2.8-0.8,4.4-0.8
			c1.6,0,3,0.3,4.3,0.8s2.5,1.3,3.4,2.2c1,0.9,1.7,2,2.2,3.3s0.8,2.6,0.8,4.1s-0.3,2.8-0.8,4.1s-1.3,2.4-2.2,3.3
			c-1,0.9-2.1,1.7-3.4,2.2c-1.3,0.5-2.8,0.8-4.3,0.8c-1.6,0-3-0.3-4.4-0.8c-1.3-0.5-2.5-1.3-3.4-2.2s-1.7-2-2.2-3.3
			S822.5,56.9,822.5,55.5z M827.8,55.5c0,0.8,0.1,1.5,0.4,2.2c0.3,0.7,0.7,1.2,1.2,1.7s1.1,0.9,1.7,1.1c0.7,0.3,1.4,0.4,2.1,0.4
			c0.7,0,1.4-0.1,2.1-0.4c0.7-0.3,1.2-0.6,1.8-1.1s0.9-1.1,1.2-1.7c0.3-0.7,0.4-1.4,0.4-2.2s-0.1-1.5-0.4-2.2
			c-0.3-0.7-0.7-1.2-1.2-1.7s-1.1-0.9-1.8-1.1c-0.7-0.3-1.4-0.4-2.1-0.4c-0.7,0-1.4,0.1-2.1,0.4c-0.7,0.3-1.2,0.6-1.7,1.1
			s-0.9,1.1-1.2,1.7C828,54,827.8,54.7,827.8,55.5z"/>
		<path class="st1" d="M846.4,65.3l3.3-19.6h5l3.9,10.5l3.9-10.5h5l3.3,19.6h-5L864.1,54l-4.6,11.3h-2L853.2,54l-1.7,11.3H846.4z"/>
		<path class="st1" d="M879.1,45.6v19.6H874V45.6H879.1z"/>
		<path class="st1" d="M893.9,50.7c-0.6-0.5-1.1-0.8-1.7-1c-0.6-0.2-1.1-0.3-1.6-0.3c-0.7,0-1.2,0.2-1.6,0.5
			c-0.4,0.3-0.6,0.7-0.6,1.2c0,0.3,0.1,0.6,0.3,0.9c0.2,0.2,0.5,0.4,0.8,0.6c0.3,0.2,0.7,0.3,1.1,0.4c0.4,0.1,0.8,0.3,1.3,0.4
			c1.7,0.6,2.9,1.3,3.6,2.2c0.8,0.9,1.1,2.1,1.1,3.6c0,1-0.2,1.9-0.5,2.7s-0.8,1.5-1.5,2.1c-0.6,0.6-1.4,1-2.4,1.4
			c-0.9,0.3-2,0.5-3.2,0.5c-2.5,0-4.7-0.7-6.8-2.2l2.2-4.1c0.8,0.7,1.5,1.2,2.2,1.5s1.5,0.5,2.2,0.5c0.8,0,1.4-0.2,1.8-0.6
			c0.4-0.4,0.6-0.8,0.6-1.3c0-0.3-0.1-0.6-0.2-0.8c-0.1-0.2-0.3-0.4-0.5-0.6c-0.2-0.2-0.6-0.4-0.9-0.5c-0.4-0.2-0.9-0.3-1.4-0.5
			c-0.7-0.2-1.3-0.4-1.9-0.7c-0.6-0.3-1.2-0.6-1.7-1s-0.9-0.9-1.2-1.6c-0.3-0.6-0.5-1.4-0.5-2.4s0.2-1.9,0.5-2.6
			c0.3-0.8,0.8-1.5,1.3-2c0.6-0.6,1.3-1,2.1-1.3s1.8-0.5,2.8-0.5s2,0.1,3,0.4c1.1,0.3,2.1,0.7,3,1.2L893.9,50.7z"/>
		<path class="st1" d="M905,45.6v19.6h-5.1V45.6H905z"/>
		<path class="st1" d="M908.2,55.5c0-1.5,0.3-2.8,0.8-4.1s1.3-2.4,2.2-3.3c0.9-0.9,2.1-1.7,3.4-2.2c1.3-0.5,2.8-0.8,4.4-0.8
			c1.6,0,3,0.3,4.3,0.8s2.5,1.3,3.4,2.2c1,0.9,1.7,2,2.2,3.3s0.8,2.6,0.8,4.1s-0.3,2.8-0.8,4.1s-1.3,2.4-2.2,3.3
			c-1,0.9-2.1,1.7-3.4,2.2c-1.3,0.5-2.8,0.8-4.3,0.8c-1.6,0-3-0.3-4.4-0.8c-1.3-0.5-2.5-1.3-3.4-2.2s-1.7-2-2.2-3.3
			S908.2,56.9,908.2,55.5z M913.5,55.5c0,0.8,0.1,1.5,0.4,2.2c0.3,0.7,0.7,1.2,1.2,1.7s1.1,0.9,1.7,1.1c0.7,0.3,1.4,0.4,2.1,0.4
			c0.7,0,1.4-0.1,2.1-0.4c0.7-0.3,1.2-0.6,1.8-1.1c0.5-0.5,0.9-1.1,1.2-1.7c0.3-0.7,0.4-1.4,0.4-2.2s-0.1-1.5-0.4-2.2
			c-0.3-0.7-0.7-1.2-1.2-1.7s-1.1-0.9-1.8-1.1c-0.7-0.3-1.4-0.4-2.1-0.4c-0.7,0-1.4,0.1-2.1,0.4c-0.7,0.3-1.2,0.6-1.7,1.1
			s-0.9,1.1-1.2,1.7C913.6,54,913.5,54.7,913.5,55.5z M923.6,40.7l-5,3.4l-2-1.8l4.2-4.1L923.6,40.7z"/>
		<path class="st1" d="M933,65.3V45.6h5.1l9.4,12v-12h5v19.6h-5l-9.4-12v12H933V65.3z"/>
		<path class="st1" d="M965.3,45.6h7.5c1.3,0,2.6,0.3,3.7,0.8c1.2,0.5,2.2,1.3,3,2.1c0.9,0.9,1.6,1.9,2.1,3.1
			c0.5,1.2,0.7,2.4,0.7,3.7s-0.2,2.5-0.7,3.7s-1.2,2.2-2,3.1c-0.9,0.9-1.9,1.6-3,2.2c-1.2,0.5-2.4,0.8-3.8,0.8h-7.5V45.6z M970.4,61
			h1.2c0.9,0,1.7-0.1,2.4-0.4c0.7-0.3,1.3-0.7,1.7-1.1c0.5-0.5,0.8-1.1,1.1-1.7c0.2-0.7,0.4-1.4,0.4-2.2s-0.1-1.5-0.4-2.2
			c-0.3-0.7-0.6-1.3-1.1-1.7c-0.5-0.5-1.1-0.9-1.7-1.1c-0.7-0.3-1.5-0.4-2.3-0.4h-1.2V61H970.4z"/>
		<path class="st1" d="M996.7,50h-6v3.3h5.7v4.3h-5.7V61h6v4.3h-11.1V45.6h11.1V50z"/>
		<path class="st1" d="M1014.2,45.6V61h6.1v4.3h-11.1V45.6H1014.2z"/>
		<path class="st1" d="M1035.6,61.9h-7.2l-1.2,3.4h-5.4l7.4-19.6h5.5l7.4,19.6h-5.4L1035.6,61.9z M1034.3,58l-2.3-6.5l-2.3,6.5
			H1034.3z"/>
		<path class="st1" d="M1055.4,45.6l4.7,11.9l4.7-11.9h5.5l-8.2,19.6h-4l-8.2-19.6H1055.4z"/>
		<path class="st1" d="M1083.4,50h-6v3.3h5.7v4.3h-5.7V61h6v4.3h-11.1V45.6h11.1V50z"/>
		<path class="st1" d="M1103.3,65.3h-6.3l-4.8-7.5v7.5h-5.1V45.6h7.9c1.1,0,2,0.2,2.8,0.5s1.5,0.8,2,1.3c0.5,0.6,0.9,1.2,1.2,1.9
			c0.3,0.7,0.4,1.5,0.4,2.3c0,1.5-0.4,2.7-1.1,3.6c-0.7,0.9-1.8,1.6-3.2,1.9L1103.3,65.3z M1092.1,54.4h1c1,0,1.8-0.2,2.3-0.6
			c0.5-0.4,0.8-1,0.8-1.8s-0.3-1.4-0.8-1.8c-0.5-0.4-1.3-0.6-2.3-0.6h-1V54.4z"/>
		<path class="st1" d="M1105.4,45.6h7.5c1.3,0,2.6,0.3,3.7,0.8c1.2,0.5,2.2,1.3,3,2.1c0.9,0.9,1.6,1.9,2.1,3.1
			c0.5,1.2,0.7,2.4,0.7,3.7s-0.2,2.5-0.7,3.7s-1.2,2.2-2,3.1c-0.9,0.9-1.9,1.6-3,2.2c-1.2,0.5-2.4,0.8-3.8,0.8h-7.5L1105.4,45.6
			L1105.4,45.6z M1110.5,61h1.2c0.9,0,1.7-0.1,2.4-0.4c0.7-0.3,1.3-0.7,1.7-1.1c0.5-0.5,0.8-1.1,1.1-1.7c0.2-0.7,0.4-1.4,0.4-2.2
			s-0.1-1.5-0.4-2.2s-0.6-1.3-1.1-1.7c-0.5-0.5-1.1-0.9-1.7-1.1c-0.7-0.3-1.5-0.4-2.3-0.4h-1.2L1110.5,61L1110.5,61z"/>
		<path class="st1" d="M1136.8,61.9h-7.2l-1.2,3.4h-5.4l7.4-19.6h5.5l7.4,19.6h-5.4L1136.8,61.9z M1135.5,58l-2.3-6.5l-2.3,6.5
			H1135.5z"/>
		<path class="st1" d="M1145.6,45.6h7.5c1.3,0,2.6,0.3,3.7,0.8c1.2,0.5,2.2,1.3,3.1,2.1c0.9,0.9,1.6,1.9,2.1,3.1
			c0.5,1.2,0.7,2.4,0.7,3.7s-0.2,2.5-0.7,3.7s-1.2,2.2-2,3.1c-0.9,0.9-1.9,1.6-3.1,2.2c-1.2,0.5-2.4,0.8-3.8,0.8h-7.5L1145.6,45.6
			L1145.6,45.6z M1150.7,61h1.2c0.9,0,1.7-0.1,2.4-0.4c0.7-0.3,1.3-0.7,1.7-1.1c0.5-0.5,0.8-1.1,1.1-1.7c0.2-0.7,0.4-1.4,0.4-2.2
			s-0.1-1.5-0.4-2.2s-0.6-1.3-1.1-1.7c-0.5-0.5-1.1-0.9-1.7-1.1c-0.7-0.3-1.5-0.4-2.3-0.4h-1.2L1150.7,61L1150.7,61z"/>
	</g>
	<path class="st1" d="M791.9,28v48c0,0.2-0.2,0.4-0.4,0.4H789c-0.2,0-0.4-0.2-0.4-0.4V28c0-0.2,0.2-0.4,0.4-0.4h2.6
		C791.7,27.6,791.9,27.8,791.9,28"/>
</g>
<g class="st2">
	<path class="st0" d="M41.5,50.1h9.4v-9.7h6.6v25.2h-6.6V55.3h-9.4v10.4H35V40.4h6.6v9.7H41.5z"/>
	<path class="st0" d="M78.2,61.3h-9.3l-1.5,4.4h-7L70,40.5h7.2l9.6,25.2h-7L78.2,61.3z M76.5,56.4l-2.9-8.4l-2.9,8.4H76.5z"/>
	<path class="st0" d="M93.3,53.6l-9.2-13.1h7.8l4.7,6.9l4.7-6.9h7.8l-9.2,13.1v12h-6.6v-12H93.3z"/>
	<path class="st0" d="M137.2,46h-7.9v4.3h7.2v5.6h-7.2v9.9h-6.6V40.4h14.5V46z"/>
	<path class="st0" d="M147.6,40.1v13.8c0,0.7,0,1.5,0.1,2.2c0.1,0.8,0.2,1.4,0.5,2.1c0.3,0.6,0.7,1.1,1.3,1.5s1.4,0.6,2.5,0.6
		s1.9-0.2,2.5-0.6c0.6-0.4,1-0.9,1.3-1.5c0.3-0.6,0.5-1.3,0.5-2.1c0.1-0.8,0.1-1.5,0.1-2.2V40.1h6.5v14.6c0,3.9-0.9,6.8-2.7,8.6
		c-1.8,1.8-4.6,2.7-8.3,2.7c-3.7,0-6.5-0.9-8.3-2.7c-1.8-1.8-2.7-4.7-2.7-8.6V40.1H147.6z"/>
	<path class="st0" d="M177.9,46v19.6h-6.6V46h-5.4v-5.6h17.3V46H177.9z"/>
	<path class="st0" d="M192.7,40.1v13.8c0,0.7,0,1.5,0.1,2.2c0.1,0.8,0.2,1.4,0.5,2.1c0.3,0.6,0.7,1.1,1.3,1.5s1.4,0.6,2.5,0.6
		s1.9-0.2,2.5-0.6c0.6-0.4,1-0.9,1.3-1.5c0.3-0.6,0.5-1.3,0.5-2.1c0.1-0.8,0.1-1.5,0.1-2.2V40.1h6.5v14.6c0,3.9-0.9,6.8-2.7,8.6
		c-1.8,1.8-4.6,2.7-8.3,2.7c-3.7,0-6.5-0.9-8.3-2.7s-2.7-4.7-2.7-8.6V40.1H192.7z"/>
	<path class="st0" d="M234.4,65.7h-8.2l-6.3-9.7v9.7h-6.6V40.5h10.2c1.4,0,2.6,0.2,3.6,0.6c1,0.4,1.9,1,2.6,1.7
		c0.7,0.7,1.2,1.5,1.5,2.4c0.3,0.9,0.5,1.9,0.5,3c0,1.9-0.5,3.4-1.4,4.7c-0.9,1.2-2.3,2-4,2.4L234.4,65.7z M220,51.8h1.2
		c1.3,0,2.3-0.3,2.9-0.8c0.7-0.5,1-1.3,1-2.3s-0.3-1.7-1-2.3c-0.7-0.5-1.7-0.8-2.9-0.8H220V51.8z"/>
	<path class="st0" d="M235.5,53.1c0-1.8,0.3-3.6,1-5.3c0.7-1.6,1.6-3,2.8-4.3c1.2-1.2,2.7-2.1,4.4-2.8c1.6-0.7,3.5-1,5.7-1
		c2,0,3.8,0.3,5.6,1c1.7,0.7,3.2,1.6,4.5,2.8c1.2,1.2,2.2,2.6,2.9,4.3c0.7,1.6,1,3.3,1,5.3c0,1.8-0.3,3.6-1,5.3s-1.6,3-2.9,4.3
		c-1.2,1.2-2.7,2.1-4.5,2.8c-1.7,0.7-3.5,1-5.6,1c-2,0-3.9-0.3-5.7-1c-1.7-0.7-3.1-1.6-4.4-2.8c-1.2-1.2-2.2-2.6-2.8-4.3
		C235.8,56.6,235.5,54.9,235.5,53.1z M242.4,53.1c0,1,0.2,1.9,0.6,2.7c0.4,0.8,0.9,1.6,1.5,2.2s1.4,1.1,2.2,1.4
		c0.8,0.3,1.7,0.5,2.7,0.5c0.9,0,1.8-0.2,2.7-0.5c0.8-0.3,1.6-0.8,2.2-1.4c0.6-0.6,1.2-1.3,1.5-2.2c0.4-0.8,0.6-1.7,0.6-2.7
		s-0.2-1.9-0.6-2.7c-0.4-0.8-0.9-1.6-1.5-2.2c-0.6-0.6-1.4-1.1-2.2-1.4c-0.8-0.3-1.7-0.5-2.7-0.5c-0.9,0-1.8,0.2-2.7,0.5
		c-0.8,0.3-1.6,0.8-2.2,1.4c-0.6,0.6-1.1,1.3-1.5,2.2C242.6,51.1,242.4,52,242.4,53.1z"/>
	<path class="st0" d="M291.9,47c-0.7-0.6-1.4-1-2.1-1.3c-0.7-0.3-1.4-0.4-2-0.4c-0.8,0-1.5,0.2-2,0.6c-0.5,0.4-0.8,0.9-0.8,1.6
		c0,0.4,0.1,0.8,0.4,1.1s0.6,0.5,1,0.7c0.4,0.2,0.9,0.4,1.5,0.5c0.5,0.2,1.1,0.3,1.6,0.5c2.1,0.7,3.7,1.6,4.7,2.8
		c1,1.2,1.5,2.7,1.5,4.7c0,1.3-0.2,2.4-0.6,3.5c-0.4,1-1.1,1.9-1.9,2.7c-0.8,0.7-1.8,1.3-3,1.7s-2.6,0.6-4.2,0.6
		c-3.1,0-6.2-0.9-8.8-2.8l2.8-5.3c1,0.9,1.9,1.5,2.9,1.9c0.9,0.4,1.9,0.6,2.8,0.6c1.1,0,1.8-0.2,2.4-0.7c0.5-0.5,0.8-1,0.8-1.7
		c0-0.4-0.1-0.7-0.2-1s-0.4-0.5-0.7-0.8c-0.3-0.2-0.7-0.4-1.2-0.6c-0.5-0.2-1.1-0.4-1.8-0.7c-0.8-0.3-1.7-0.6-2.5-0.9
		c-0.8-0.3-1.5-0.7-2.1-1.3c-0.6-0.5-1.1-1.2-1.5-2c-0.4-0.8-0.6-1.8-0.6-3.1s0.2-2.3,0.6-3.3c0.4-1,1-1.9,1.7-2.6
		c0.7-0.7,1.6-1.3,2.7-1.7c1.1-0.4,2.3-0.6,3.6-0.6c1.2,0,2.5,0.2,3.9,0.5c1.3,0.3,2.6,0.8,3.9,1.5L291.9,47z"/>
	<path class="st0" d="M306.2,40.5v25.2h-6.6V40.5H306.2z"/>
	<path class="st0" d="M329.4,50.1h9.4v-9.7h6.6v25.2h-6.6V55.3h-9.4v10.4h-6.6V40.4h6.6V50.1z"/>
	<path class="st0" d="M366.1,61.3h-9.3l-1.5,4.4h-7l9.6-25.2h7.2l9.6,25.2h-7L366.1,61.3z M364.4,56.4l-2.9-8.4l-2.9,8.4H364.4z"/>
	<path class="st0" d="M381.2,53.6L372,40.5h7.8l4.7,6.9l4.7-6.9h7.8l-9.2,13.1v12h-6.6v-12H381.2z"/>
	<path class="st0" d="M415.1,40.5l6.1,15.3l6.1-15.3h7.1l-10.5,25.2h-5.2L408,40.5H415.1z"/>
	<path class="st0" d="M451.4,46h-7.8v4.3h7.4v5.6h-7.4v4.4h7.8v5.6h-14.4V40.4h14.4V46z"/>
	<path class="st0" d="M477.1,65.7h-8.2l-6.3-9.7v9.7H456V40.5h10.3c1.4,0,2.6,0.2,3.6,0.6c1,0.4,1.9,1,2.6,1.7
		c0.7,0.7,1.2,1.5,1.5,2.4c0.3,0.9,0.5,1.9,0.5,3c0,1.9-0.5,3.4-1.4,4.7c-0.9,1.2-2.3,2-4,2.4L477.1,65.7z M462.7,51.8h1.2
		c1.3,0,2.3-0.3,2.9-0.8c0.7-0.5,1-1.3,1-2.3s-0.3-1.7-1-2.3c-0.7-0.5-1.7-0.8-2.9-0.8h-1.2V51.8z"/>
	<path class="st0" d="M479.8,40.5h9.7c1.7,0,3.3,0.3,4.9,1c1.5,0.7,2.8,1.6,3.9,2.7s2,2.5,2.6,4c0.6,1.5,1,3.1,1,4.8
		s-0.3,3.2-0.9,4.8c-0.6,1.5-1.5,2.8-2.6,4c-1.1,1.1-2.4,2.1-3.9,2.7c-1.5,0.6-3.1,1-4.9,1h-9.7V40.5H479.8z M486.4,60.1h1.5
		c1.1,0,2.1-0.2,3-0.5c0.9-0.4,1.6-0.8,2.2-1.5c0.6-0.6,1.1-1.3,1.4-2.2c0.3-0.8,0.5-1.8,0.5-2.8s-0.2-1.9-0.5-2.8
		c-0.3-0.9-0.8-1.6-1.4-2.2c-0.6-0.6-1.3-1.1-2.2-1.5s-1.9-0.5-3-0.5h-1.5V60.1z"/>
	<path class="st0" d="M520.4,61.3h-9.3l-1.5,4.4h-7l9.6-25.2h7.2l9.6,25.2h-7L520.4,61.3z M518.7,56.4l-2.9-8.4l-2.9,8.4H518.7z"/>
	<path class="st0" d="M531.8,40.5h9.7c1.7,0,3.3,0.3,4.9,1s2.8,1.6,3.9,2.7c1.1,1.1,2,2.5,2.6,4c0.6,1.5,1,3.1,1,4.8
		s-0.3,3.2-0.9,4.8c-0.6,1.5-1.5,2.8-2.6,4c-1.1,1.1-2.4,2.1-3.9,2.7c-1.5,0.6-3.1,1-4.9,1h-9.7V40.5H531.8z M538.3,60.1h1.5
		c1.1,0,2.1-0.2,3-0.5c0.9-0.4,1.6-0.8,2.2-1.5c0.6-0.6,1.1-1.3,1.4-2.2c0.3-0.8,0.5-1.8,0.5-2.8s-0.2-1.9-0.5-2.8
		c-0.3-0.9-0.8-1.6-1.4-2.2c-0.6-0.6-1.3-1.1-2.2-1.5s-1.9-0.5-3-0.5h-1.5V60.1z"/>
</g>
</svg>
