<?xml version="1.0" encoding="utf-8"?>
<!-- Generator: Adobe Illustrator 25.2.1, SVG Export Plug-In . SVG Version: 6.00 Build 0)  -->
<svg version="1.1" id="Capa_1" xmlns="http://www.w3.org/2000/svg" xmlns:xlink="http://www.w3.org/1999/xlink" x="0px" y="0px"
	 viewBox="0 0 216.9 35.9" style="enable-background:new 0 0 216.9 35.9;" xml:space="preserve">
<style type="text/css">
	.st0{opacity:0.1;fill:none;stroke:#CBE6DA;stroke-width:0.75;stroke-miterlimit:10;enable-background:new    ;}
	.st1{opacity:0.2;fill:none;stroke:#CBE6DA;stroke-width:0.75;stroke-miterlimit:10;enable-background:new    ;}
	.st2{opacity:0.1;fill:none;stroke:#E1E3F1;stroke-width:0.75;stroke-miterlimit:10;enable-background:new    ;}
	
		.st3{fill-rule:evenodd;clip-rule:evenodd;fill:#84A6A5;stroke:#1C303A;stroke-width:0.75;stroke-linecap:round;stroke-linejoin:round;stroke-miterlimit:10;}
</style>
<rect x="-0.1" y="0.4" class="st0" width="216.5" height="36"/>
<rect x="1.1" y="2.4" class="st0" width="214" height="32.5"/>
<line class="st1" x1="0.4" y1="90.7" x2="216.9" y2="90.7"/>
<rect x="51.5" y="9.9" class="st2" width="157.2" height="19.3"/>
<g id="regiones">
	<path id="magdalenamedio" class="st3" d="M21.2,10c0.1,0,0.1,0.1,0.2,0.1c0.1,0-0.1,0.1-0.1,0C21.2,10.1,21.2,10.1,21.2,10
		C21.1,10.1,21,10,21.2,10L21.2,10z M22.2,10c0,0,0.1,0,0.1,0c0,0.1,0,0.2,0,0.3c0,0,0,0,0,0c0,0.1,0,0.2,0,0.2
		c-0.1,0-0.1,0-0.2,0.1c0,0,0,0.1,0,0.1c0,0,0.1,0,0.1,0c0,0,0.2,0,0.1,0c0,0,0.1-0.1,0.1-0.1c0-0.1,0.1-0.1,0.1-0.1c0,0,0,0,0.1,0
		c0.1,0,0.1-0.1,0.1,0c0,0.1-0.1,0.1-0.1,0.1c-0.1,0-0.1,0.1-0.1,0.2c0,0.1,0.1,0.1,0.1,0.1c0,0-0.1,0-0.1,0c0,0,0,0,0,0
		c0,0,0.2,0,0.1,0.1c0,0-0.1,0.1-0.1,0.1c0,0,0.1,0,0.1,0c0,0,0.1,0,0.1,0c0.1,0,0.1,0,0-0.1c0-0.1,0-0.1,0.1-0.1
		c0.1,0.1,0,0.1,0,0.2c-0.1,0,0,0.1-0.1,0.1c0,0,0,0.1-0.1,0.1c0,0.1,0.1,0.1,0.1,0.2c0,0.1,0,0.1,0.1,0.1c0.1,0,0,0.1,0.1,0.1
		c0,0.1,0,0.1,0,0.1c0,0-0.1,0-0.1,0.1c0,0.1,0,0.1,0,0.2c0,0.1-0.1,0.1-0.1,0.1c0,0.1-0.1,0-0.1,0c0,0-0.1-0.1-0.1-0.1c0,0,0,0,0,0
		c0,0,0,0.1,0.1,0.1c0,0,0,0.1,0.1,0.1c0,0,0,0.1,0.1,0.1c0,0,0.1,0.1,0.2,0c0.1,0,0.1,0.1,0.1,0c0,0,0.1,0,0.1,0
		c0-0.1,0-0.1,0.1-0.1c0.1,0,0.1,0,0.2,0c0.1,0,0.1,0,0.2,0c0,0,0,0.1,0,0.1c0.1,0.1,0.2,0.1,0.1,0.2c0,0.1,0.1,0.1,0.1,0.1
		c0,0.1,0,0.1-0.1,0.1c0,0,0,0.1,0.1,0.1c0,0,0,0.1,0,0.1c0,0.1,0,0.1,0.1,0.1c0,0,0.1,0,0.1,0.1c0,0.1,0,0.1,0.1,0
		c0.1-0.1,0,0.1,0.1,0c0,0,0.1,0,0.1,0c0,0,0,0.1,0,0.2c0,0.1,0.1,0,0.1,0c0,0.1,0.1,0.1,0,0.2c0,0,0,0.1,0,0.1c0,0.1,0,0.1-0.1,0.2
		c0,0,0,0.1,0,0.1c0,0,0,0.1,0,0.1c0,0-0.1,0.1-0.2,0c0-0.1-0.1-0.1-0.1-0.2c0-0.1-0.2,0.1-0.1,0.1c0,0.1,0.1,0.1,0.1,0.1
		c-0.1,0.1,0,0.2,0,0.2c0,0.1,0.1,0.2-0.1,0.2c-0.1,0,0,0.2-0.1,0.1c0,0-0.1,0-0.1,0.1c-0.1,0.1-0.1,0.1-0.1,0.2
		c0-0.1-0.1-0.1-0.1,0c0,0.1-0.1,0-0.2,0c-0.1,0-0.1,0.1-0.1,0.1c0,0,0.1,0.1,0,0.2c-0.1,0-0.1-0.1-0.2-0.1c-0.1-0.1,0,0,0,0.1
		c0,0.1-0.1,0.1-0.1,0.1c0-0.1-0.1-0.1,0-0.2c0-0.1,0.1,0,0.1-0.1c0-0.1,0.1-0.1,0-0.2c0-0.1-0.1,0-0.1-0.1
		c-0.1-0.1-0.1,0.1-0.2,0.1c-0.1,0,0,0.2-0.1,0.2c0,0,0.1,0.1,0,0.2c0,0.1,0,0.2-0.1,0.1c-0.1,0-0.1-0.1-0.1,0
		c-0.1,0-0.1,0.1-0.1,0.1c0-0.1-0.1,0.1-0.1,0c0,0,0,0-0.1,0c0,0-0.1,0-0.1,0c0-0.1-0.1-0.1-0.1-0.1c-0.1,0-0.1,0-0.1-0.1
		c0-0.1-0.1-0.1-0.2-0.1c0,0,0,0.1,0,0.1c0,0,0,0-0.1,0c0,0.1-0.1,0.2-0.1,0.1c0,0,0,0,0-0.1c0-0.1-0.1,0.1-0.2,0.1c0,0-0.1,0-0.1,0
		c0,0,0,0,0,0.1c0,0,0,0.1,0,0.1c0,0-0.1,0-0.1,0.1c0,0.1-0.1,0.1-0.1,0.2c0,0.1,0,0.2-0.1,0.1c0.1-0.1,0,0,0-0.1c-0.1,0,0,0,0,0.1
		c0,0,0,0.1-0.1,0.1c0,0.1-0.1,0.2-0.1,0.1c0,0-0.1,0-0.1,0c0,0,0,0,0,0c0,0,0.1,0,0.1-0.1c0,0,0,0,0,0c0,0,0,0,0-0.1
		c0,0,0.1,0,0-0.1c0,0,0,0,0,0c0,0,0,0,0,0c0,0,0,0,0-0.1c0,0,0,0,0,0c0,0-0.1,0-0.1,0c0,0-0.1,0-0.1,0c0,0-0.1,0,0,0
		c0,0,0-0.1,0.1-0.1c0,0,0.1,0,0-0.1c0,0,0-0.1,0.1-0.1c0-0.1,0.1,0,0.1-0.1c0-0.1,0.1-0.2,0.1-0.2c-0.1-0.1-0.1-0.1,0-0.1
		c0-0.1,0-0.1,0-0.1c0,0,0,0-0.1,0c0,0-0.1,0-0.1,0c0,0-0.1,0-0.1,0.1c0,0-0.1,0-0.1,0c-0.1,0-0.1-0.1-0.1,0c0,0-0.1,0,0-0.1
		c0.1,0,0.1-0.1,0.1-0.2c0-0.1,0.1-0.1,0.1-0.1c0.1,0,0-0.2,0.1-0.1c0,0.1,0.1,0.1,0.1,0c0-0.1,0-0.1-0.1-0.1c0,0,0-0.1-0.1-0.1
		c0,0-0.1-0.1,0-0.1c0,0,0,0-0.1,0c0-0.1,0,0,0,0c0,0,0.1,0,0.1,0c0.1,0,0.1-0.1,0.1-0.1c0-0.1,0.1-0.1,0.1-0.1c0,0,0.1-0.1,0.1-0.1
		c0-0.1,0.2-0.2,0.1-0.2c0,0-0.1-0.1,0-0.1c0,0.1,0.1,0,0.1,0c0,0,0-0.1,0-0.1c0,0,0.1,0,0.1,0c0,0,0,0,0,0c0-0.1,0.1,0,0.1-0.1
		c0,0,0-0.1,0-0.1c0,0,0,0-0.1,0c-0.1,0,0-0.1,0-0.1c0,0,0,0,0-0.1c0-0.1-0.1-0.1-0.1-0.2c0,0,0.1-0.1,0-0.2c0-0.1,0.1-0.1,0.1-0.1
		c0.1,0,0.1-0.1,0-0.1c0-0.1-0.1,0-0.1,0.1c0,0.1-0.1,0.1-0.1,0.1c-0.1-0.1-0.2-0.2-0.1-0.3c0-0.1,0-0.3,0.2-0.3c0.1,0,0-0.1,0-0.1
		c0-0.1,0-0.1,0-0.2c0-0.1,0-0.2-0.1-0.3c-0.1-0.1-0.1-0.1-0.1-0.2c0,0,0-0.1-0.1-0.1c0,0,0-0.1,0-0.1c0,0,0.1,0,0.1-0.1
		c0.1,0,0.1,0,0.1,0c0-0.1,0.1-0.1,0-0.1c0,0,0-0.1,0-0.1c0,0,0-0.1,0-0.1c0,0,0.1,0,0.1,0c0,0,0.1-0.1,0.1-0.1c0.1-0.1,0-0.1,0-0.1
		c0,0,0.1,0,0.1,0c0,0,0-0.1,0-0.1c0,0-0.1,0-0.1-0.1c0-0.1,0,0,0,0c0.1,0,0.2,0,0.3,0c0-0.1-0.1,0-0.1-0.1c0-0.1,0.2,0,0.2-0.1
		c0.1,0,0.1-0.1,0-0.1c0,0,0,0-0.1,0c-0.1,0-0.2,0.1-0.3,0c0-0.1-0.1-0.1,0-0.1c0,0,0.1,0.1,0.1,0c0-0.1,0.1-0.2,0.2-0.2
		c0-0.1,0.1,0.1,0.1,0c0,0,0.1,0,0.1,0c0,0,0,0,0.1,0c0,0,0.1,0,0,0c0,0,0,0,0,0c0,0,0.1,0,0.1,0c0,0,0.1,0.1,0.1,0.1
		c0.1,0,0.1-0.1,0.1-0.1C22.1,10,22.1,10,22.2,10C22.2,10,22.1,10,22.2,10L22.2,10z"/>
	<path id="antioquia" class="st3" d="M17.7,10.3c0.1,0.1,0,0.1,0,0.2c0.1,0,0.1,0.2,0.1,0.2c0.1,0,0.1,0,0.1,0c0,0,0,0.1,0.1,0.1
		c-0.1,0,0.1,0.1,0,0.2c0,0.1,0.1,0.1,0,0.1c-0.1,0-0.1,0.1-0.2,0.2c0,0.1-0.1,0.2,0,0.2c-0.1,0-0.1,0.1-0.1,0.1c0,0-0.1,0.1,0,0.1
		c0,0.1,0,0.2,0,0.2c-0.1,0.1-0.1,0.2-0.1,0.3c0,0.1-0.1,0.2,0,0.3c0.1,0.1,0.1,0.2,0.1,0.2c0.3,0.1,0.7,0.1,1,0.1c0,0,0-0.1,0-0.1
		c0-0.1,0.1-0.1,0.1-0.1c0,0,0-0.1,0-0.1c0,0,0-0.1,0-0.1c0,0,0.1,0.1,0.1,0c0,0,0.1,0.1,0.1,0c0.1,0,0.1-0.1,0.1-0.1
		c0,0,0-0.1,0.1-0.1c0-0.1,0.1-0.1,0.1-0.2c0.1,0,0.1,0,0.1-0.1c0.1,0,0.1-0.1,0.1-0.1c0.1,0,0.1-0.1,0.1-0.1c0,0,0-0.1,0-0.1
		c0,0,0.1,0,0.1,0c0,0,0.1,0,0.1,0c0.1,0.1,0.1,0,0.2,0c0.1,0,0.1,0,0.2-0.1c0-0.1,0.1-0.2,0.1-0.1c0,0.1,0.1,0.1,0.1,0.1
		c0.1,0,0.1,0.1,0.1,0.1c0,0,0.1,0,0.1,0.1c0,0,0.1,0,0.1,0.1c0.1,0.1,0.1,0.2,0.1,0.3c0,0.1,0,0.1,0,0.2c0,0.1,0.1,0.1,0,0.1
		c-0.1,0-0.1,0.1-0.1,0.3c-0.1,0-0.1,0.2,0,0.2c0.1,0.1,0.1,0.2,0.2,0.1c0.1,0,0-0.2,0.1-0.1c0,0,0.1,0,0.1,0.1c0,0-0.1,0.1-0.1,0.1
		c-0.1,0.1,0,0.1,0,0.2c0,0.1,0,0.1,0,0.1c0,0,0.1,0.1,0,0.1c0,0,0,0,0,0.1c0,0.1,0,0.1,0.1,0.1c0,0.1,0.1,0,0.1,0c0,0,0,0,0,0.1
		c-0.1,0-0.1,0-0.1,0.1c0,0,0,0-0.1,0c0,0,0,0.1,0,0.1c0,0,0,0.1-0.1,0.1c-0.1-0.1-0.1,0,0,0c0,0.1-0.1,0.2-0.2,0.2
		c0,0-0.1,0-0.1,0.1c0,0,0,0.1-0.1,0.1c0,0.1,0,0.1,0,0.2c0,0,0,0-0.1,0c0,0-0.1,0-0.1,0c-0.1,0,0,0,0,0.1c0,0,0.1,0,0,0
		c0,0,0,0,0,0.1c0,0,0,0,0,0.1c0,0,0.1,0,0.1,0.1c0,0.1,0,0.1-0.1,0c0,0.1-0.1,0.2-0.1,0.2c-0.1,0.1-0.1,0.1-0.1,0.2
		c0,0.1-0.1,0-0.2,0.1c0.1,0,0.1,0,0.1,0c0.1,0,0.1,0.1,0.2,0.1c0,0,0-0.1,0-0.1c0,0,0.1,0,0.1,0c0,0,0.1,0,0.1,0c0,0,0,0,0,0.1
		c-0.1,0-0.1,0.1,0,0.1c0,0.1-0.1,0.1-0.1,0.2c0,0.1-0.1,0-0.1,0.1c0,0,0,0.1-0.1,0.1c0.1,0,0,0,0,0.1c0,0,0,0.1-0.1,0.1
		c0,0,0,0,0.1,0c0,0,0,0,0.1,0c0,0,0.1,0,0.1,0c0,0-0.1,0,0,0c0,0,0,0.1,0,0.1c0,0,0,0,0,0c0,0-0.1,0,0,0.1c0,0,0,0,0,0.1
		c-0.1,0,0,0.1,0,0.1c0,0,0.1,0,0,0c0,0-0.1,0-0.1,0.1c0,0,0,0,0,0c0,0-0.1,0-0.1,0c0,0-0.1,0-0.1,0c0,0-0.1,0-0.1,0
		c0,0-0.1,0-0.1,0c0,0,0,0-0.1,0c0,0,0,0,0,0.1c0,0-0.1,0.1-0.1,0.1c0,0-0.1,0-0.1,0c0,0-0.1,0-0.1,0c0,0-0.1,0-0.1,0
		c-0.1,0-0.1,0.1-0.1,0.1c0,0,0,0.1,0,0.1c0,0.1-0.1,0.2,0,0.2c0,0.1-0.1,0.2-0.1,0.3c0,0.1-0.1,0.1-0.1,0.2c0,0.1-0.1,0-0.1,0.1
		c-0.1,0,0,0.1-0.1,0.2c-0.1,0.1,0,0.2-0.1,0.2c0,0,0,0.1,0,0.1c-0.1,0.1,0,0.1-0.1,0.2c0,0.1-0.1,0.1-0.1,0.1c0,0.1-0.1,0-0.2,0
		c0,0,0-0.1,0-0.1c0-0.1,0-0.1,0.1-0.1c0-0.1,0-0.1,0-0.2c0-0.1,0-0.1-0.1-0.1c0,0-0.1,0-0.1,0c0,0,0.1,0,0-0.1c0,0,0-0.1,0-0.1
		c0,0,0,0,0-0.1c0,0,0-0.1,0-0.1c0,0,0.1-0.1,0.1-0.1c0,0,0.1,0,0.1,0c0.1,0,0-0.1,0-0.1c0,0-0.1,0-0.1,0c0,0-0.1,0-0.1,0
		c0,0,0-0.1,0-0.1c0,0-0.1,0-0.1,0c0,0,0,0,0-0.1c0,0,0.1,0,0-0.1c0-0.1-0.1,0-0.1,0c-0.1,0,0-0.1-0.1-0.1c0-0.1,0-0.1-0.1-0.2
		c0-0.1,0-0.2,0.2-0.2c0,0,0-0.2,0.1-0.1c0.1,0,0-0.1,0-0.1c0-0.1,0-0.1-0.1-0.1c-0.1,0-0.1,0-0.1-0.1c0-0.1,0-0.2,0-0.2
		c0.1,0,0.1,0,0.1-0.1c0-0.1-0.2-0.1-0.1-0.2c0,0,0-0.1,0-0.1c0,0,0-0.1,0-0.1c0-0.1,0.1-0.1,0.1-0.1c0-0.1-0.1-0.1-0.1-0.2
		c0,0-0.1,0.1-0.1,0c0-0.1-0.1-0.2-0.1-0.2c0,0,0,0,0-0.1c0,0-0.1,0-0.2,0c-0.1,0-0.1,0-0.2,0.1c-0.1,0-0.1,0-0.2,0
		c-0.1,0-0.1,0-0.2,0c-0.1,0-0.1,0-0.1,0c-0.1,0,0-0.1-0.1-0.2c0.1-0.1-0.1,0,0-0.1c0,0,0-0.1,0-0.1c-0.1,0,0.1,0,0-0.1
		c0,0,0.1,0,0,0c0,0,0-0.1,0-0.1c0-0.1-0.1,0-0.1,0c0,0-0.1,0-0.1-0.1c0,0-0.1,0,0-0.1c0.1,0-0.1,0,0-0.1c0-0.1-0.1,0.1-0.1,0
		c0,0-0.1,0,0,0c0,0-0.1,0,0-0.1c0,0,0-0.1,0-0.1c0-0.1,0.1-0.1,0.1,0c0-0.1,0.1,0,0.1,0c0.1,0,0-0.1,0.1,0c0,0,0-0.2,0-0.2
		c0,0,0,0,0,0c-0.1-0.1,0.2-0.1,0.3-0.1c0,0,0.1,0,0.1,0c0,0,0,0,0,0c0,0.1,0.1,0,0.1-0.1c0-0.1,0-0.1,0-0.1c0-0.1,0.1,0,0,0
		c0-0.1,0-0.1-0.1-0.2c-0.1,0-0.1-0.1-0.1-0.1c-0.1-0.1-0.1-0.3-0.2-0.4c-0.1-0.1-0.3-0.1-0.4-0.1c0-0.2-0.3-0.2-0.3-0.4
		c0.1,0,0.2-0.1,0.2-0.2c0,0,0-0.2,0.1-0.2c0.1-0.1,0-0.2,0-0.2c-0.1-0.1,0-0.2,0-0.1c0,0,0,0,0,0c0,0.1,0.1,0.1,0,0.1c0,0,0,0,0,0
		c0,0,0,0,0,0c0,0-0.1,0,0,0.1c0,0,0.1,0.1,0.1,0c0,0,0.1,0,0.1,0c-0.1,0-0.1,0-0.1,0.1c0,0,0.1,0,0,0c-0.1,0,0,0,0,0.1
		c0,0-0.1,0,0,0c0,0,0.1,0.1,0,0c0,0-0.1,0-0.1,0c0,0.1,0,0.2,0.1,0.2c0.1,0,0.2,0,0.2-0.1c0.1-0.1,0-0.1,0-0.1c0,0,0-0.1,0-0.1
		c0,0,0,0,0,0c0,0,0,0,0,0c0,0,0,0,0,0c0,0,0,0,0,0c0,0,0-0.1,0,0c0,0,0-0.1,0-0.1c0-0.1,0-0.1,0-0.1c0-0.1,0-0.2,0-0.2
		c-0.1,0,0-0.2-0.1-0.2c-0.1,0-0.1-0.1-0.1,0c0,0,0.1,0,0,0c0-0.1,0.1-0.1,0.1-0.2c0.1,0,0.4,0,0.4-0.1c0-0.1,0.2-0.1,0.2-0.2
		C17.6,10.4,17.7,10.3,17.7,10.3L17.7,10.3z"/>
	<path id="caribe" class="st3" d="M18.1,9.4C18.1,9.5,18.1,9.4,18.1,9.4C18.1,9.4,18.1,9.4,18.1,9.4z M18.7,8.7
		C18.7,8.7,18.6,8.7,18.7,8.7C18.7,8.7,18.7,8.7,18.7,8.7C18.7,8.7,18.6,8.7,18.7,8.7C18.7,8.7,18.7,8.7,18.7,8.7
		C18.7,8.7,18.6,8.7,18.7,8.7L18.7,8.7z M19,8.1C19,8.1,19,8.1,19,8.1C19,8.1,19,8.1,19,8.1z M18.8,8.1C18.8,8.1,18.8,8.1,18.8,8.1
		L18.8,8.1z M18.8,8.1C18.9,8.1,18.8,8.1,18.8,8.1C18.8,8.1,18.8,8.1,18.8,8.1z M19.1,7.7C19.1,7.7,19.2,7.8,19.1,7.7
		C19.2,7.8,19.2,7.7,19.1,7.7C19.2,7.8,19.2,7.8,19.1,7.7C19.1,7.8,19.1,7.8,19.1,7.7C19.1,7.8,19.1,7.7,19.1,7.7L19.1,7.7z
		 M25.8,4.2c0.1,0.1,0.2,0,0.3,0.1c0.1,0,0.1,0.1,0.2,0.1c0.1,0,0.1,0,0.2,0.1c0.1,0.1,0.1,0.2,0.2,0.3c0.1,0.1,0.2,0.3,0.1,0.3
		c-0.1,0-0.2,0.1-0.2,0.2c0,0-0.1,0,0,0c0,0-0.1,0,0,0c0,0,0.1,0,0,0c0,0.1,0,0.1,0,0.1c0,0,0,0,0,0c0,0,0,0,0,0
		C26.4,5.3,26,5.3,26,5.4c-0.2,0.1-0.5,0.1-0.7,0.2c-0.2,0.3-0.3,0.6-0.5,0.8c-0.1,0-0.2,0-0.3,0c0,0-0.1,0-0.1,0.1c0,0,0,0.1,0,0.1
		c0,0,0,0,0,0.1c0,0.1-0.1,0.1-0.1,0.2c-0.1,0-0.1,0.1-0.1,0.1c0,0,0,0.1-0.1,0.1c0,0.1,0,0.1-0.1,0.2c0,0.1-0.1,0.1-0.2,0.2
		c0,0,0,0.1-0.1,0.1c-0.1,0,0,0.1,0,0.1c0,0,0,0.1,0,0.1c0,0.1,0,0.1,0,0.2c0,0.1,0,0.1,0,0.1c-0.1,0,0,0.1-0.1,0.2c0,0,0,0.1,0,0.1
		c0,0,0,0.1,0,0.1c0,0,0.1,0.1,0,0.1c-0.1,0.1-0.1,0.2-0.1,0.2c0,0.1,0,0.2-0.1,0.2c-0.1,0-0.1,0.1-0.2,0.1c0,0,0,0.1,0,0.1
		c-0.1,0-0.1,0.1-0.1,0.2C23,9.6,23,9.7,23,9.7c-0.1,0,0,0.1-0.1,0.1c-0.1,0.1,0,0.2-0.1,0.3c0,0.1,0,0.2,0,0.2
		c0.1,0.1,0,0.1-0.1,0.1c0,0,0,0,0,0c0,0-0.1,0-0.1,0.1c0,0,0,0.1,0,0.1c0,0,0,0.1-0.1,0c0,0-0.1,0-0.1,0c0,0-0.1,0-0.1,0
		c0-0.1,0.1-0.1,0.1-0.1c0,0,0.1,0,0.1,0c0,0,0-0.1,0-0.2c0,0,0-0.1,0,0c0-0.1,0-0.2,0-0.3c-0.1,0-0.2-0.1-0.2,0c0,0,0,0,0,0.1
		c0,0-0.1,0.1-0.1,0.1c0,0-0.1-0.1-0.1-0.1c0,0-0.1,0-0.1,0c0,0-0.1,0,0,0c0,0,0-0.1-0.1,0c0,0,0,0-0.1,0c0,0,0,0.1,0,0.1
		c0,0-0.1,0-0.1,0c-0.1,0-0.1,0.1-0.2,0.2c0,0.1-0.1,0-0.1,0c-0.1,0-0.1,0,0,0c0,0.1,0.2,0.1,0.3,0c0.1,0,0.1,0,0.1,0
		c0.1,0,0,0.1,0,0.1c0,0.1-0.1,0-0.2,0.1c0,0.1,0.1,0,0.1,0c0,0.1-0.1,0-0.1,0.1c-0.1,0-0.2,0-0.3,0c0,0.1,0,0.1,0.1,0.1
		c0,0,0,0.1,0,0.1c0,0-0.1,0-0.1,0.1c0,0,0.1,0,0,0.1c0,0.1-0.1,0-0.1,0.1c0,0,0,0.1-0.1,0.1c0,0-0.1,0-0.1,0c0,0,0,0.1,0,0.1
		c0,0,0,0.1,0,0.1c0,0.1-0.1,0-0.1,0c-0.1,0-0.1,0-0.1,0.1c0,0-0.1,0.1,0,0.1c0,0,0,0.1,0.1,0.1c0,0.1,0,0.1,0,0.1
		c-0.1,0-0.1-0.1-0.1-0.1c0,0-0.1-0.1-0.1-0.1c-0.1-0.1-0.1-0.2-0.1-0.1c0,0.1-0.1,0.1-0.1,0.2c-0.1-0.1-0.2,0.1-0.3,0
		c0,0-0.1,0.1-0.1,0c0,0-0.1,0-0.1,0c0,0-0.1,0-0.1,0c0,0.1-0.1,0.1-0.1,0.1c0,0-0.1,0-0.1,0.1c0,0.1-0.1,0.1-0.2,0.2
		c-0.1-0.1,0,0.1-0.1,0.1c0,0.1-0.1,0-0.1,0.2c0,0.1,0,0.1-0.1,0.1c0,0.1-0.1,0-0.2,0c0,0.1-0.1-0.1-0.1,0c0,0,0,0.1,0,0.1
		c-0.1,0,0,0.1,0,0.1c0,0-0.1,0-0.1,0.1c-0.1,0,0,0.2-0.1,0.1c-0.3,0-0.6,0-0.9-0.1c-0.1-0.1-0.1-0.1-0.1-0.2
		c-0.1-0.1-0.1-0.1,0-0.2c0-0.1,0-0.2,0-0.2c0-0.1,0.1-0.2,0.1-0.2c0-0.1,0-0.2,0-0.2c0,0,0-0.1,0.1-0.1c0-0.1,0.1,0,0-0.1
		c0-0.1,0.1-0.2,0.1-0.3c0-0.1,0.1-0.1,0.2-0.1c-0.1,0,0-0.2-0.1-0.2c0,0,0-0.1-0.1-0.1c0,0,0-0.1,0-0.1c0-0.1-0.1,0-0.1,0
		c0-0.1-0.1-0.2-0.1-0.2c0.1,0,0-0.2,0-0.2c0.1,0,0.2-0.1,0.2-0.1c0.1,0,0.1-0.1,0.1-0.1c0.1-0.1,0.2-0.2,0.1-0.3
		c0-0.1,0.2-0.1,0.1-0.2c0-0.1,0.3-0.1,0.3-0.2c0,0,0,0,0-0.1c0.1,0,0.2,0.1,0.2,0c0,0,0.1,0,0.1,0c-0.1,0-0.1,0.1,0,0
		c0,0,0.1,0,0.1,0c0.1,0,0.1,0,0.1,0c0,0,0.1,0,0.1-0.1c0-0.1,0.1-0.1,0.1-0.2c0-0.1,0-0.2-0.1-0.2c0,0-0.2,0-0.1,0
		c0,0,0.1-0.1,0.1-0.1c0.1-0.1,0-0.2,0.1-0.2c0-0.1,0-0.1,0-0.2c0-0.1,0-0.2,0-0.2c0,0,0.1-0.1,0.1-0.1c0,0,0,0,0,0c0,0,0.1,0,0-0.1
		c0,0-0.1,0,0,0c0.1,0,0,0-0.1,0c0,0-0.1,0.1-0.1,0.1c0,0.1-0.1,0.1-0.1,0.1c0,0,0,0,0,0c0,0,0.1,0,0.1-0.1c0,0,0.1-0.1,0.1-0.1
		c0,0-0.1,0,0-0.1c0.1,0,0-0.1,0-0.1c0,0,0,0.1,0.1,0c0,0,0,0,0,0c0,0,0,0,0,0c0,0,0,0,0,0c0,0,0,0,0-0.1c0,0,0,0,0,0c0,0,0,0,0,0
		c0,0,0,0,0,0c0,0,0,0,0,0c0,0,0,0,0,0c-0.1,0,0,0,0-0.1c0,0,0.1,0,0.1-0.1c0,0,0-0.1,0-0.1c0,0,0.1,0,0.1-0.1
		c0.1,0,0.1-0.1,0.1-0.1c0.1,0,0.2-0.1,0.2-0.1c0-0.1,0-0.1,0.1-0.1c0-0.1,0.1,0,0.1-0.1c0-0.1,0.1,0,0.1-0.1c0,0,0.1,0,0.1-0.1
		c0-0.1-0.1,0,0-0.1c0.1,0,0.1,0,0.1-0.1c0,0,0,0,0.1-0.1c0.1,0,0.2,0,0.1-0.1c0,0,0.1,0,0.2,0.1c0.2,0.1,0.5,0.2,0.8,0.1
		c0.1,0,0.1-0.1,0.1-0.2c0,0,0-0.1,0-0.1c0-0.1,0-0.1,0-0.1c0,0,0,0,0,0c0,0,0,0,0,0c0,0,0,0,0,0c0,0,0,0,0,0c0,0,0,0,0,0
		c0,0,0,0,0-0.1c0,0,0,0,0.1,0c0.1,0,0,0,0-0.1c0,0,0,0,0,0c0,0,0,0,0,0c0,0,0-0.1,0,0c0,0,0,0,0,0c0,0,0,0,0,0c0,0,0-0.1,0,0
		c0,0,0.1,0,0.1,0c0,0,0.1,0,0.2,0.1c0.1,0,0.2,0,0.3,0c0.1,0,0.2,0,0.3,0c0.2,0,0.4,0,0.5-0.2c0,0,0.1-0.1,0.1-0.1
		c0.1-0.1,0.2-0.2,0.3-0.2c0.1,0,0.1-0.1,0.2-0.2c0.1-0.1,0.2-0.1,0.3-0.1c0.1,0,0.2-0.1,0.2-0.1c0.1-0.1,0.2-0.1,0.3-0.2
		c0,0.1,0.1,0,0,0C24.9,5,25,4.9,25,4.8c0-0.1,0-0.2-0.1-0.2c0-0.1,0.2,0,0.3-0.1c0.1,0,0.1-0.1,0.1,0c-0.1,0-0.1,0.1,0,0.1
		c0,0,0,0.1,0,0c0,0,0,0,0,0c0,0,0,0,0,0c0,0,0,0,0,0c0,0,0,0,0,0c0,0,0,0,0,0c0,0,0,0,0,0c0,0,0,0,0,0c0,0,0,0,0,0c0,0,0,0,0,0
		c0,0,0.1,0,0.1,0c0,0,0-0.1,0-0.1c0,0,0,0,0-0.1c0,0-0.1,0-0.1,0c0,0,0.1-0.1,0.1-0.1c0,0,0.1-0.1,0.1-0.1c0,0-0.1,0.1,0,0.1
		c0-0.1,0.2-0.1,0.1-0.1c0,0,0.1-0.1,0.1,0c0,0,0,0.1,0,0.1c0,0,0,0,0,0c0,0,0-0.1,0-0.1c0,0,0.1,0,0.1,0c0,0-0.1,0-0.1,0
		C25.9,4.2,25.9,4.2,25.8,4.2C25.8,4.2,25.8,4.3,25.8,4.2c0,0-0.1,0.1-0.1,0.1C25.7,4.2,25.8,4.2,25.8,4.2L25.8,4.2z M21.1,10
		C21.1,10.1,21.2,10.1,21.1,10c0.1,0.1,0.2,0.1,0.2,0.1c0.1-0.1-0.1,0-0.1,0C21.2,10,21.1,10,21.1,10z"/>
	<path id="surandina" class="st3" d="M18.3,16.9c0,0.1,0.1,0.1,0.1,0.2c0,0.1,0.1,0.1,0.1,0.1c0,0.1,0.1,0,0.1,0c0.1,0,0,0.1,0,0.1
		c0,0,0,0.1,0,0.1c0,0,0,0,0.1,0c0-0.1,0.1,0,0,0.1c0,0,0.1,0,0.1,0c0,0,0.1,0,0.1,0c0.1,0.1,0,0.1-0.1,0.1c0,0-0.1,0-0.1,0
		c0,0-0.1,0.1-0.1,0.1c0,0,0,0.1,0,0.1c0,0,0,0.1,0,0.1c0,0.1,0,0.1,0,0.1c0,0-0.1,0.1,0,0.1c0,0,0.1,0,0.1,0c0,0.1,0,0.1,0,0.2
		c0,0.1-0.1,0.1-0.1,0.2c0,0,0,0.1,0,0.1c0,0,0.1,0,0.1,0.1c0.1,0,0,0.1-0.1,0.1c0,0.1,0,0.1-0.1,0.2c0,0-0.1,0.1-0.1,0.1
		c-0.1,0.1-0.1,0.1-0.1,0.2c0,0-0.1,0.1-0.1,0.1c0,0,0,0-0.1,0.1c0,0,0,0.1,0,0.1c0,0.1-0.1,0.1-0.1,0.2c0,0.1-0.1,0.1,0,0.1
		c0,0-0.1,0.1,0,0.1c0,0,0,0.1,0,0.1c0,0,0,0.1-0.1,0.1c-0.1,0,0,0.1,0,0.1c0.1,0.1-0.1,0.1,0,0.1c0,0,0,0.1,0.1,0.1
		c0,0.1,0.1,0.1,0,0.2c0.1,0.1,0.2,0.1,0.3,0.2c0.1,0,0.1,0,0.1,0.1c0,0,0.1,0,0.1,0.1c0,0,0,0.1-0.1,0.1c0,0,0,0.1-0.1,0.1
		c0,0,0,0.1,0,0.1c0,0,0,0.1,0,0.1c0,0,0,0.1,0,0.1c0,0,0,0.1,0,0.1c0,0.1-0.1,0.1-0.1,0.1c0,0,0,0.1,0,0.1c0,0.1,0,0.1-0.1,0.1
		c-0.1,0-0.1,0.1-0.1,0.1c0.1,0,0,0.1,0,0.1c0,0-0.1,0.1-0.1,0.1c0.1,0,0,0.1,0,0.1c0.1,0.1,0,0,0,0.1c0,0,0,0.1-0.1,0.1
		c0,0-0.1,0-0.1,0c0,0-0.1,0-0.1,0c-0.1,0.1-0.1,0.1-0.1,0.2c0.1,0,0,0.2,0.1,0.1c0,0,0.1,0,0,0c0,0,0,0.1,0,0.1c0,0,0,0.1,0,0.1
		c0,0,0,0,0,0.1c0,0.1-0.1,0.1,0,0.1c0,0,0,0-0.1,0c0,0-0.1,0.1-0.1,0.1c0,0,0,0.1,0,0.1c0,0,0,0,0,0.1c0,0.1,0.1,0.1,0.1,0.1
		c0,0,0,0,0.1,0c0,0,0,0,0.1,0c0,0,0,0,0.1,0.1c0,0,0,0,0,0c0.1,0.1-0.1,0-0.1,0.1c0,0-0.1,0-0.1,0c0,0,0,0,0,0c0,0.1-0.1,0-0.1,0.1
		c0,0,0,0-0.1,0c0,0-0.1,0.1-0.1,0c0,0-0.1,0-0.1,0c-0.1,0-0.1-0.1-0.1-0.1c0-0.1-0.1,0-0.1-0.1c0,0,0,0,0-0.1c0,0,0-0.1,0-0.2
		c-0.1,0-0.1-0.1-0.1-0.2c0,0,0-0.1,0-0.1c0,0-0.1-0.1-0.1-0.1c0-0.1-0.1-0.1-0.1,0c-0.1,0-0.2,0.1-0.3,0.1c0,0-0.1,0.1-0.1,0.1
		c0,0,0,0.1,0.1,0.1c0,0,0,0,0,0.1c0.1,0,0.1,0.1,0.1,0.1c0,0,0.1,0,0.1,0c0,0.1-0.1,0.1-0.1,0.1c0.1,0,0,0.1,0.1,0.1
		c0,0,0.1,0.1,0,0.1c-0.1,0-0.1,0-0.2-0.1c-0.1,0-0.1,0-0.2,0.1c-0.1,0-0.2,0-0.2,0.1c-0.1,0.1-0.1,0.1,0,0.2
		c-0.1,0-0.1,0.3-0.1,0.4c0.1,0,0.1,0,0.1,0.1c-0.1,0.1,0.1,0.1,0,0.2c0,0,0,0.1,0,0.1c0,0-0.1,0-0.1,0c-0.1,0-0.1,0.1-0.2,0
		c-0.1,0-0.1-0.1-0.2-0.1c0,0,0,0-0.1,0c-0.1,0-0.2,0-0.2-0.1c0-0.1,0-0.2,0.1-0.3c0-0.1,0-0.2-0.1-0.1c-0.1,0-0.1-0.1-0.2-0.1
		c0-0.1-0.1-0.1,0-0.1c0,0,0,0,0,0c0.1,0,0,0,0-0.1c0-0.1-0.1,0-0.1,0c0,0-0.1,0-0.1,0.1c-0.1,0-0.2,0-0.3,0
		C14.9,24,14.9,24,14.8,24c0,0,0-0.1-0.1-0.1c-0.1,0-0.1,0-0.1-0.1c0-0.1-0.2-0.1-0.1-0.2c0.1,0,0-0.1,0-0.1
		c-0.1-0.1,0.2-0.1,0.2-0.1c0.1,0,0-0.1,0.1-0.1c0.1,0,0.1,0,0-0.1c0-0.1,0-0.1,0-0.1c0-0.1,0.1-0.1,0.1,0c0.1,0.1,0.1,0,0.1-0.1
		c0,0,0,0,0-0.1c0,0,0-0.1,0.1-0.1c-0.1,0,0-0.1,0-0.1c0-0.1,0,0-0.1-0.1c0,0-0.1-0.1-0.1-0.1c-0.1,0,0-0.1,0,0c0,0,0-0.1,0.1-0.1
		c0,0,0-0.1,0.1-0.1c0,0,0.1,0,0.1,0c0,0,0.1,0,0.1-0.1c0.1,0,0.1,0,0.1,0.1c0,0,0-0.1,0.1-0.1c0,0,0-0.1,0-0.1c0.1,0,0.1-0.1,0.2,0
		c0.1,0,0.1-0.1,0.2-0.1c0,0,0.1,0,0.1,0c0,0.1,0.1,0,0.1,0c0-0.1,0-0.1-0.1-0.1c0-0.1,0.1-0.1,0.1-0.2c0,0,0-0.1,0-0.1
		c0,0-0.1-0.1-0.1-0.1c0-0.1,0-0.1,0-0.2c0.1,0,0.1-0.1,0.1-0.2c0.1,0,0-0.1,0.1-0.1c0,0,0.1,0,0-0.1c0.1,0,0.1,0,0.1-0.1
		c-0.1,0-0.1-0.1-0.1-0.1c0-0.1,0.1,0.1,0.2,0c0.1,0,0.1,0,0.1-0.1c0.1,0,0.1,0.1,0.2,0.1c0,0,0.1-0.1,0.1-0.1c0,0,0.1-0.1,0-0.1
		c0.1-0.1,0.2-0.2,0.1-0.3c0-0.1,0.1-0.1,0.1-0.2c0-0.1,0.1-0.1,0.1-0.1c0-0.1,0.1-0.1,0.1-0.2c0-0.1-0.1-0.1-0.1-0.1
		c0-0.1-0.1-0.1-0.1-0.1c0,0-0.1,0-0.1-0.1c0-0.1,0-0.1-0.1-0.1c0-0.1,0.1,0,0.1-0.1c0.1,0,0-0.1,0-0.1c0-0.1,0.1-0.1,0.1-0.1
		c0-0.1-0.1-0.1-0.1-0.2c0,0,0.1,0,0.2,0.1c0.1-0.1,0.1,0.1,0.2,0c0.1,0.1,0.2-0.1,0.2,0c0,0,0.1-0.1,0.1-0.2c0.1,0,0-0.1,0-0.1
		c0-0.1-0.1,0-0.1,0c-0.1,0,0.1-0.1,0-0.2c0-0.1-0.1-0.1-0.1-0.2c0-0.1-0.1-0.1,0-0.2c0.1,0,0.2-0.1,0.2-0.1c0,0,0.1-0.1,0.1-0.1
		c0,0-0.1-0.1,0-0.1c0.1,0,0.1-0.1,0.1-0.1c0-0.1,0-0.1,0-0.2c-0.1-0.1,0-0.1,0.1-0.1c0.1-0.1,0.1-0.1,0.2-0.1c0,0,0.1-0.1,0-0.1
		C18.3,17.1,18.2,16.9,18.3,16.9C18.3,16.8,18.3,16.9,18.3,16.9L18.3,16.9z"/>
	<path id="pacifico" class="st3" d="M16.1,10.6C16.1,10.6,16,10.7,16.1,10.6c0,0.1,0.1,0.1,0.1,0.1c0,0,0.1,0.1,0.1,0.2
		c0,0.1,0.1,0.1,0.2,0.1c0,0,0.1,0.1,0.1,0.1c0,0,0.1,0.1,0.1,0.1c0,0.1,0.1,0.1,0.2,0.1c0,0.1,0.1,0.1,0,0.2
		c0.1,0.1-0.1,0.1-0.1,0.3c0,0,0,0.2-0.1,0.2c0,0.1-0.1,0-0.1,0.1c0.1,0.1,0.3,0.2,0.3,0.4c0.3,0,0.5,0.2,0.5,0.5c0,0,0,0,0.1,0
		c0,0.1,0.1,0.1,0.1,0.1c0,0,0,0.1,0.1,0.1c0,0,0,0-0.1,0.1c0,0,0,0.1,0,0.2c0,0.1-0.1,0.1-0.1,0c0,0-0.1,0-0.1,0
		c-0.1-0.1-0.2,0-0.3,0c0,0,0,0,0,0.1c0.1,0,0.1,0.1,0,0.2c-0.1,0,0,0-0.1,0c0,0-0.1,0-0.1,0c0-0.1,0,0.1-0.1,0c0,0,0,0.1,0,0.1
		c0.1,0-0.1,0.1,0,0.1c0,0.1,0.1,0,0.1,0c-0.1,0.1,0.1,0,0,0.1c-0.1,0,0,0.1,0,0.1c0,0.1,0.1,0,0.1,0.1c0,0,0.1,0,0.1,0
		c0,0-0.1,0,0,0.1c0.1,0,0,0,0,0c0.1,0,0,0.1,0,0.1c-0.1,0,0,0.1,0,0.1c0,0.1,0.1,0,0.1,0.1c0.1,0,0,0.2,0.1,0.1c0,0,0.1,0,0.1,0
		c0,0,0.2,0,0.2,0c0,0,0.1,0,0.2,0c0.1,0,0.2,0,0.3,0c0,0,0,0,0,0.1c0,0.1,0,0.2,0.1,0.2c0,0.1,0.1,0,0.1,0c0,0,0.1,0.1,0.1,0.1
		c0,0.1,0,0.1,0,0.1c-0.1,0.1,0,0.1,0,0.2c0,0,0,0,0,0.1c0,0,0,0.1,0,0.1c0.1,0.1,0.2,0.1,0.1,0.2c-0.1,0-0.1,0-0.1,0.1
		c0,0.1,0,0.2,0,0.2c0.1,0,0.2,0,0.2,0.1c0,0.1,0.1,0.1,0.1,0.1c-0.1,0-0.1,0-0.1,0.1c-0.1,0-0.1,0-0.1,0.1c0,0.1-0.1,0.1,0,0.2
		c0,0.1,0,0.1-0.1,0.1c0.1,0.1-0.1,0.2-0.1,0.1c0,0.1-0.1,0.1-0.2,0.1c0.1,0.1,0,0.1,0,0.2c0,0.1,0,0.1-0.1,0.1
		c-0.1,0-0.1,0.1,0,0.1c0,0,0,0-0.1,0.1c0,0-0.1,0.1-0.1,0.1c0,0-0.1,0-0.1,0.1c0,0.1,0.1,0.1,0.1,0.2c0,0.1,0.1,0.1,0.1,0.2
		c0,0.1-0.1,0.2,0,0.2c0,0,0.1,0,0.1,0c0,0,0,0.1,0,0.1c-0.1,0.1-0.1,0.1-0.1,0.2c-0.1,0-0.1,0-0.2,0c-0.1-0.1-0.1,0.1-0.2,0
		c0,0-0.1,0-0.1,0c-0.1,0-0.1-0.1-0.1,0c0,0,0.1,0.1,0,0.1c-0.1,0-0.1,0-0.1,0.1c0.1,0,0,0.2-0.1,0.1c0,0-0.1,0.1,0,0.1
		c0,0,0,0.1,0.1,0.1c0,0,0.1,0.1,0.1,0.1c0,0.1,0.1,0,0.1,0.1c0,0.1-0.1,0.1-0.1,0.2c0,0.1-0.1,0.1-0.1,0.2c0,0.1-0.1,0.1,0,0.2
		c0,0.1-0.1,0.2-0.1,0.3c0,0,0,0.1,0,0.1c0,0,0,0.2-0.1,0.1c0-0.1-0.1-0.1-0.2-0.1c0,0.1-0.1,0-0.2,0.1c-0.1,0-0.1-0.1-0.2-0.1
		c0,0.1,0,0.2,0,0.2c0.1,0,0.1,0.1,0,0.1c0,0,0,0.1-0.1,0.1c-0.1,0,0,0.1-0.1,0.2c0.1,0.1-0.1,0.1-0.1,0.2c0,0,0,0.1,0,0.2
		c0.1,0,0.1,0.1,0.1,0.1c0,0,0,0.1,0,0.1c0,0-0.1,0.1,0,0.2c0,0,0,0.1,0,0.1c-0.1,0,0-0.1-0.1,0c-0.1,0-0.1,0-0.1,0
		c0,0.1-0.1,0-0.2,0c-0.1,0-0.1,0-0.2,0.1c0,0,0,0.1,0,0.1c0,0,0,0.1-0.1,0.1c0-0.1-0.1-0.1-0.1-0.1c0,0-0.1,0,0,0.1
		c0,0-0.1,0-0.1,0.1c0,0,0,0-0.1,0.1c0,0,0,0.1-0.1,0c0,0,0,0.1,0.1,0.1c0,0,0.1,0.1,0.1,0.1c0,0,0,0,0,0c0,0,0,0.1,0,0.1
		c0,0,0,0.1-0.1,0.1c0,0,0,0,0,0.1c0.1,0.1,0,0.1-0.1,0.1c0,0-0.1,0-0.1,0c0,0-0.1,0.1,0,0.1c0,0.1,0,0.1,0,0.2
		c-0.1,0-0.1,0-0.1,0.1c-0.1,0-0.4,0.2-0.3,0.1c0,0,0,0-0.1,0c-0.1,0-0.1,0.1-0.1,0c0,0.1,0,0,0,0c0,0-0.1,0-0.1,0c0,0-0.1,0-0.1,0
		c0,0-0.1,0-0.1-0.1c-0.1,0-0.1,0-0.1,0c0,0,0-0.1-0.1-0.1c0,0,0-0.1-0.1-0.1c0,0-0.1,0-0.1-0.1c0,0-0.1,0-0.1-0.1c0,0,0,0,0,0
		c0,0,0,0,0,0c0,0,0,0,0,0c-0.1,0-0.1-0.1-0.1-0.1c0,0-0.1,0-0.1-0.1c-0.1,0-0.1-0.1-0.1-0.1c0-0.1,0.1,0,0.1-0.1
		c0.1-0.1,0.2-0.3,0.3-0.2c-0.1,0-0.1,0.1,0,0c0,0,0,0,0,0c0,0,0,0,0,0c0,0,0,0,0,0c0,0,0.1,0,0.1,0c0,0,0,0,0,0c0,0,0,0,0,0
		c0,0,0,0,0,0c0,0,0,0,0,0c0,0,0,0,0,0c0,0,0,0,0,0c0,0.1,0,0,0,0c0,0,0,0,0,0c0,0-0.1,0,0,0c0.1,0-0.1,0,0,0c0.1,0.1,0-0.1,0.1-0.1
		c0,0.1,0,0,0,0c0,0,0,0.1,0,0c0-0.1,0.1,0,0,0c0.1,0,0.1,0,0.1,0c0.1,0,0,0.1,0.1,0c0,0,0-0.1,0-0.1c0-0.1,0-0.1,0-0.2
		c-0.1,0-0.1,0-0.1-0.1c0,0,0,0,0-0.1c0,0,0-0.1-0.1,0c0,0-0.1,0,0,0c0-0.1,0,0,0-0.1c-0.1,0-0.1-0.1-0.1-0.2c0-0.1,0-0.1,0.1-0.2
		c0-0.1,0.1-0.1,0.1-0.2c0.1,0,0.1-0.2,0.1-0.1c0,0,0-0.1,0.1-0.1c0,0,0.1-0.1,0.1-0.1c0-0.1,0-0.1,0.1-0.1c0.1,0,0.1-0.1,0.2-0.1
		c0.1,0,0.2,0,0.2,0c0,0,0,0,0,0.1c0,0,0.1,0,0.1,0.1c0,0,0.1-0.1,0.1-0.1c0.1,0,0.1,0.1,0.1,0c0,0,0-0.1,0.1-0.1c0,0,0,0,0.1,0
		c0,0,0.1,0,0,0c0,0,0-0.1,0-0.1c0,0,0.1-0.1,0-0.1c0.1,0,0.1-0.1,0.1-0.2c0,0,0.1-0.2,0-0.1c0,0.1,0,0,0-0.1
		c0.1-0.1,0.2-0.2,0.2-0.3c0,0,0.1,0.1,0.1,0c0-0.1-0.1,0.1-0.1-0.1c0.1-0.1,0.1-0.2,0.2-0.2c0,0,0.1-0.1,0.1-0.1c0,0,0,0,0,0
		c0.1,0,0-0.1,0-0.1c0.1-0.1,0.1-0.2,0.2-0.2c0,0,0.1,0,0.1-0.1c0-0.1,0.1,0,0-0.1c0,0-0.1,0-0.1-0.1c0-0.1,0.1,0,0-0.1
		c0-0.1,0.1,0,0.1-0.1c0-0.1,0.1-0.1,0.1-0.1c0,0,0,0,0,0c0,0,0-0.1-0.1,0c-0.1,0-0.1,0.1-0.2,0.1c0,0-0.1,0-0.1,0
		c0,0-0.1-0.1-0.1-0.1c0-0.1-0.1,0,0-0.1c0,0,0-0.1,0-0.1c0,0,0,0,0,0c0,0,0.1,0,0.1,0c0,0,0-0.1,0-0.1c0,0-0.1,0-0.1-0.1
		c0,0-0.1,0.1-0.1,0c0,0-0.1,0.1-0.1,0.1c0,0,0,0,0,0.1c0,0,0,0.1,0,0.1c0,0.1-0.1-0.1-0.2-0.1c0-0.1-0.2-0.2-0.1-0.3
		c0,0,0.1-0.2,0.1-0.1c-0.1,0.1,0,0,0.1,0c0.1,0,0.1-0.1,0,0c0,0,0.1,0,0.1-0.1c0.1-0.1,0,0,0.1,0c0-0.1,0,0,0-0.1c0,0,0,0,0,0
		c0-0.1,0-0.1,0.1-0.2c0,0,0-0.2,0-0.2c0,0,0-0.1,0-0.1c0-0.1,0,0-0.1,0c0.1-0.1-0.1-0.1,0-0.2c0-0.1,0-0.1,0-0.1c0-0.2,0-0.4,0-0.6
		c0-0.1,0-0.1,0-0.2c0,0,0,0,0,0c0,0,0,0,0,0c0,0,0-0.1,0,0c0,0,0,0,0,0c0-0.1-0.1-0.1-0.1-0.1c0,0,0,0-0.1,0c-0.1,0,0-0.1,0-0.2
		c0-0.1,0,0,0.1,0c0,0,0.1,0,0.1,0c0.1,0,0.1-0.1,0.1-0.1c0,0,0.1,0,0.1-0.1c0-0.1,0-0.1,0-0.1c0,0,0-0.1,0,0c0,0,0-0.1,0-0.1
		c0-0.1,0,0,0,0c0,0,0,0,0,0c0,0,0-0.1,0-0.1c0,0,0-0.1,0-0.1c0,0,0-0.1,0,0c0,0,0,0.1,0,0.1c0,0,0-0.1-0.1-0.1
		c-0.1-0.1-0.1-0.1-0.1-0.1c0,0,0-0.1,0-0.2c0,0,0-0.1,0,0c0,0,0.1,0,0.1,0.1c0,0,0-0.1,0-0.1c0-0.1,0-0.1,0-0.1c0,0-0.1,0,0,0
		c0,0,0,0,0.1,0c0,0-0.1-0.1,0-0.1c0,0,0-0.1,0-0.1c0,0,0.1-0.1,0-0.1c0,0-0.1,0-0.1-0.1c0,0-0.1-0.1-0.1-0.1c0,0,0,0,0-0.1
		c0,0,0,0-0.1,0c-0.1,0-0.1,0.1-0.1,0.1c0,0,0,0,0,0c0,0,0-0.1,0-0.1c0-0.1-0.1-0.1-0.1-0.1c0-0.1-0.1-0.1-0.1-0.1c0,0,0-0.1-0.1,0
		c0,0,0,0.1,0,0c0,0,0-0.1,0-0.1c0,0,0,0,0.1,0c0-0.1-0.2-0.2-0.2-0.3c0,0,0,0,0,0c0,0,0,0,0,0c0,0,0,0,0,0c0,0,0,0,0,0
		c-0.1,0,0.1-0.2,0.1-0.3c0-0.2,0.1,0,0.1-0.1c0.1,0,0-0.1,0-0.1c0,0,0-0.1,0-0.1c0,0,0-0.1,0-0.1c0,0,0-0.1,0-0.1
		c0.1,0,0.1,0,0.1,0.1c0,0.1,0,0.1,0.1,0.2c0,0,0,0.1,0.1,0c0,0,0.1-0.1,0.1-0.1c0.1,0,0-0.1,0.1-0.1c0,0,0,0,0,0
		c0-0.1,0.1-0.1,0.1-0.1c0,0,0-0.1,0.1-0.1c0,0,0.1,0,0.1,0c0,0,0-0.1,0-0.1c0,0,0,0,0-0.1c0,0,0-0.1,0-0.1c0,0,0.1-0.1,0.2,0
		c0,0,0.1,0,0.1,0c0,0,0,0,0-0.1c0,0-0.1-0.1-0.1-0.1c0,0,0,0,0-0.1c0,0,0-0.1,0-0.1c0,0,0-0.1,0-0.1c0,0,0-0.1,0-0.1
		c0,0-0.1-0.1,0-0.1c0,0,0,0,0-0.1c0,0.1-0.1,0-0.1-0.1c0,0,0-0.1,0-0.1C16,11.1,16,11,15.9,11c0,0,0-0.1,0-0.1c0,0,0-0.1,0-0.1
		c0,0,0-0.1,0.1,0C16,10.8,16,10.8,16.1,10.6C16,10.7,16,10.8,16.1,10.6C16.1,10.6,16,10.6,16.1,10.6L16.1,10.6z"/>
	<path id="orinoquia" class="st3" d="M32.4,14.7c0.1,0,0.1,0.1,0.2,0c0.1,0,0.2,0,0.2,0.1c0.1,0,0.1,0,0.1,0c0,0,0.1,0.1,0.1,0.1
		c-0.1,0.1,0,0.1,0.1,0.2c0,0,0.1,0.1,0.1,0.1c-0.1,0-0.1,0.1-0.1,0.1c-0.1,0-0.1,0.1-0.2,0.2c0,0.1-0.1,0.2-0.1,0.3
		c0,0.1,0,0.1,0,0.2c0.1,0,0,0.1,0,0.1c0,0.1-0.1,0.1-0.2,0.1c-0.1,0.1-0.2,0.1-0.2,0.2c0.1,0.1-0.1,0.2,0,0.3c0,0.1-0.1,0.3,0,0.5
		c0,0.2-0.1,0.4,0,0.5c0.1,0.1,0.1,0.2,0.1,0.3c-0.1,0,0,0.2,0,0.3c0.1,0.1,0.1,0.2,0,0.2c-0.1,0-0.2,0.3-0.3,0.1
		c0-0.1-0.2,0-0.2-0.1c0,0.1-0.1,0.2-0.1,0.1c0,0-0.1,0.1-0.1,0c0-0.1-0.1,0-0.1,0c0,0.1-0.1,0-0.2,0c-0.1-0.1,0,0.1-0.1,0.1
		c-0.1-0.1-0.1,0,0,0.1c0,0-0.1-0.1-0.1,0c0,0.1-0.1,0-0.1,0c-0.1,0,0,0.1-0.1,0.1c0,0-0.1-0.1-0.1,0c0,0,0,0.1,0,0c0,0,0,0-0.1,0
		C31,19.1,31,18.9,31,19c0,0,0.1,0.1,0,0.1c0,0-0.1,0-0.2,0c0,0,0,0.1-0.1,0.1c0-0.1-0.1,0,0,0.1c0,0.1,0,0,0,0
		c-0.1,0-0.1,0.1-0.1-0.1c-0.1,0,0,0.1-0.1,0.1c-0.1-0.1-0.1,0.1-0.2,0c0,0.1-0.1-0.1-0.1,0c-0.1,0-0.1,0,0,0c0,0-0.1,0-0.1,0
		c0-0.1-0.1,0.1-0.1,0c0-0.1-0.2-0.1,0,0c0,0.1-0.1,0,0,0c-0.1-0.1-0.1,0.1-0.2,0c0,0.1-0.1-0.1-0.1,0c0,0,0,0.1,0,0.1
		c0-0.1-0.1,0-0.2,0c0,0,0.1,0,0,0.1c0,0,0,0.2,0,0.1c0,0,0,0.1-0.1,0c-0.1,0-0.1,0.1-0.1,0c0-0.1-0.1,0,0,0c0,0.1-0.1,0-0.1,0
		c0,0.1,0,0.1-0.1,0c0,0.1,0.1,0.2,0,0.1c-0.1-0.1,0,0,0,0.1c0,0.2-0.2-0.1-0.1,0.1c0,0.1-0.1,0.1-0.1,0c0,0-0.1,0.1-0.2,0
		c0,0.1-0.2,0.1,0,0.2c0.1,0,0,0.1,0,0c-0.1,0,0.1,0.2,0,0.2c0,0-0.1-0.1,0,0c0.1,0.1-0.1,0.1-0.1,0c0.1,0.1,0,0-0.1,0.1
		c0,0-0.1,0.1-0.1,0.1c-0.1,0,0.1,0,0.1,0.1c-0.2,0,0.1,0.2-0.1,0.2c0,0,0,0.1-0.1,0.2c-0.2,0-0.2,0.1-0.3,0.1
		c-0.1,0.1-0.5,0.1-0.5,0.3c0,0.1,0.1,0.1,0.1,0c0,0,0,0.1,0.1,0.1c0,0,0.1,0,0.1,0c0,0,0,0.1,0,0.1c0,0,0.1,0.1,0.1,0.1
		c0,0,0,0.1,0,0.1c0,0.1,0,0.1,0.1,0.1c0,0,0.1,0,0.1,0c0-0.1,0.1,0.1,0,0c0,0.1,0.1,0,0.1,0c0.1,0,0.1,0,0.1,0
		c0.1,0.1,0.1,0,0.1,0.1c0.1,0,0-0.1,0.1,0c0-0.1,0.1-0.1,0.1,0c0,0,0.1,0,0.1,0c0.1,0.1,0-0.1,0.1,0c0-0.1,0,0,0.1,0
		c0-0.1,0.1-0.1,0.1,0c0,0,0,0.1,0.1,0.1c0,0,0,0.1,0,0.1c0,0,0,0.1-0.1,0c0,0-0.1,0.1-0.1,0.1c0,0,0,0.1-0.1,0.1c0,0,0,0.1-0.1,0.1
		c0,0,0,0-0.1,0c0,0,0,0-0.1,0c0,0,0,0-0.1,0c-0.1,0-0.1,0-0.1,0c0,0,0,0-0.1,0c0,0.1,0,0-0.1,0c0,0-0.1,0-0.1,0c0,0,0,0,0,0
		c0,0-0.1,0-0.1,0c0,0,0,0-0.1,0c0,0,0,0-0.1,0c0,0,0,0,0,0c0,0,0,0,0,0c0,0,0,0-0.1,0c0,0,0,0,0,0c0,0,0,0,0,0c0,0,0,0,0,0
		c0,0,0,0-0.1,0c0,0,0,0,0,0c0,0-0.1,0-0.1,0c0,0,0,0-0.1,0c0,0,0,0,0,0c0,0,0,0,0,0.1c0,0,0,0,0,0c0,0-0.1,0.1-0.1,0.1
		c0,0,0,0-0.1,0c0,0,0,0,0,0c0,0-0.1,0-0.1,0c0,0,0,0-0.1,0c0,0-0.1,0.1-0.1,0.1c0,0-0.1,0.1-0.1,0.1c0,0-0.1-0.1-0.1,0
		c-0.1-0.1-0.2-0.1-0.1,0.1c0,0.1,0,0.1-0.1,0.2c0,0,0,0.1,0,0.1c0,0-0.1,0.1,0,0.1c0,0.1,0,0.1,0,0.1c0,0,0,0,0,0c0,0,0,0,0,0
		c0,0,0,0,0,0c0,0,0,0,0,0c0,0,0,0,0,0c0,0,0,0,0,0.1c0,0,0,0,0,0c0,0,0,0,0,0c0,0,0,0.1,0,0.1c0,0,0,0,0,0c0,0,0.1,0.1,0,0.1
		c0,0,0-0.1-0.1-0.1c0.1,0.1,0,0,0,0c0,0,0,0,0,0c0,0,0,0,0,0c0,0,0,0,0,0c0,0,0,0,0,0c0,0,0,0,0,0c0,0,0,0,0,0c0,0,0,0,0,0
		c0,0-0.1,0-0.1,0.1c0,0,0,0.1-0.1,0c0,0-0.1,0-0.1,0c-0.1,0,0,0.1-0.1,0.1c-0.1,0.1-0.4,0.3-0.4,0.4c0.1,0,0.1,0.1,0,0.1
		c0,0,0,0.1,0.1,0.1c0,0,0-0.1,0,0c0,0.1,0,0.1,0,0.1c-0.1,0.1,0.1,0,0,0c0.1,0,0.1,0.1,0.1,0.1c0,0.1-0.1,0.1,0,0.1
		c0.1,0,0-0.1,0.1,0c0.1,0-0.1,0.1,0,0.1c0,0,0,0.1,0.1,0c0.1-0.1-0.1,0.1,0,0.1c0.1,0.1,0.2,0.1,0.1,0.1c0.1,0,0.2-0.1,0.1,0
		c-0.1,0.1,0.1,0,0.1,0.1c0,0.1,0.1,0,0.1-0.1c0.1,0,0,0.1,0,0.1c0.1,0,0.1-0.1,0.1,0c0,0.1,0.1,0,0.1,0c0,0,0,0.1,0.1,0.1
		c-0.1,0.1,0.1,0,0,0.1c-0.1,0-0.2,0-0.3,0.1c-0.1,0.1-0.2,0-0.3,0c0,0.1-0.2,0.1-0.2,0.2c-0.1,0.1,0.1,0.2,0,0.2
		c-0.1,0.1-0.3,0-0.4,0c-0.1-0.1-0.1,0.1-0.2,0.1c-0.1,0,0,0.2-0.2,0.3c0,0.1,0,0.2-0.1,0.2c0,0.1-0.1,0-0.1,0c0,0-0.1,0-0.1-0.1
		c0-0.1-0.1-0.1-0.1,0c-0.1,0.2-0.3,0.2-0.4,0c-0.1,0-0.1-0.1-0.2-0.1c-0.1,0.1-0.3,0.1-0.3,0c-0.2-0.2-0.1,0.2-0.3,0.1
		c-0.2,0.1-0.2-0.1-0.3-0.1c-0.1-0.1-0.1,0.1-0.2,0c-0.1,0.1-0.2,0-0.2,0c-0.1,0.1,0-0.2-0.2-0.1c-0.1,0,0.1-0.1,0-0.1
		c-0.1,0-0.1-0.1-0.2,0c-0.1,0.1-0.2,0-0.2-0.1c-0.1,0-0.3,0-0.3-0.1c0,0-0.1,0-0.1-0.1c-0.1,0-0.1,0.1-0.1,0c0,0-0.1,0.1-0.2,0
		c0-0.1,0.1-0.1,0-0.1c0-0.2-0.3,0.1-0.2-0.1c-0.1-0.2-0.1,0.2-0.1,0c-0.1-0.1,0,0.1-0.1,0c-0.1,0-0.1-0.1-0.1-0.1
		c0,0-0.1,0.1-0.1,0c0.1-0.1-0.1-0.1,0-0.1c0.1-0.1,0-0.1-0.1-0.1c0,0,0.1,0,0.1-0.1c0-0.1-0.1-0.2-0.2-0.2c-0.1,0-0.1-0.1-0.2-0.1
		C20.2,25.1,20,25,20.2,25c0,0-0.1-0.1,0-0.2c0.1,0,0-0.1,0-0.1c0,0-0.2,0.1-0.1-0.1c-0.1,0-0.1,0.1-0.2,0c-0.1,0,0-0.1-0.1-0.1
		c-0.1-0.1,0.1-0.1,0-0.2c-0.1,0-0.1-0.1-0.1-0.1c-0.1,0-0.1-0.1-0.1-0.1c-0.1,0.1-0.2,0.1-0.2,0c-0.1,0.1-0.1-0.1-0.1-0.1
		c-0.1,0-0.1-0.1-0.2-0.1c-0.1,0-0.1,0-0.2,0.1c0-0.1-0.1-0.1-0.1-0.1c-0.1,0-0.1-0.1-0.1-0.1c0-0.1-0.1,0,0-0.1
		c0.1-0.1-0.1,0-0.1-0.1c0,0,0,0.1,0,0c0,0-0.1,0-0.1,0c0,0-0.1-0.1-0.1-0.1c0,0,0,0,0,0c0,0-0.1,0-0.1,0c0,0-0.1,0-0.1-0.1
		c0,0,0,0,0-0.1c0,0,0-0.1,0-0.1c0,0,0.1-0.1,0.1-0.1c0,0,0.1,0,0-0.1c0.1,0,0-0.1,0.1-0.1c0,0,0,0,0-0.1c0,0,0-0.1,0.1-0.1
		c0,0,0,0,0,0c0,0,0,0,0,0c0.1,0,0.1,0.1,0.1,0c0.1,0,0.1,0,0.1-0.1c0.1,0,0-0.1,0.1-0.1c0-0.1,0.1-0.1,0.2-0.1c0,0,0.1-0.1,0.1-0.1
		c0.1,0,0.1,0,0.1-0.1c0-0.1,0.1-0.1,0.1-0.2c0-0.1,0.1-0.1,0.1-0.1c0-0.1,0.1-0.2,0.1-0.2c0.1,0,0.2-0.1,0.1-0.2
		c0.1,0,0.1-0.2,0.2-0.2c0-0.1,0.1-0.1,0.1-0.2c0,0,0.1-0.1,0.1-0.1c0.1,0,0-0.1,0.1-0.1c0.1,0-0.1-0.1,0-0.2c0,0,0-0.1,0-0.1
		c0.1,0,0.2-0.1,0.2-0.2c0.1,0,0.1-0.2,0.2-0.2c0.1,0,0.1-0.1,0.1-0.1c0.1-0.1,0.1-0.2,0.2-0.2c0-0.1,0.1-0.2,0.1-0.3
		c0.1,0,0-0.1,0-0.2c0-0.1,0.1-0.1,0.2-0.2c0-0.1,0.1-0.1,0.1-0.2c0,0,0.1-0.1,0.1-0.1c0,0,0-0.1,0.1-0.1c0-0.1,0.1-0.1,0.1,0
		c0,0-0.1-0.1,0-0.1c0-0.1,0.1-0.1,0.1-0.2c0.1,0,0.1,0,0.1,0c0.1,0,0.1-0.1,0.1-0.1c0.1,0,0,0,0.1-0.1c0,0,0.1,0,0.1,0
		c0-0.1,0.1-0.1,0.1-0.1c0-0.1,0.1,0,0.1-0.1c0,0,0.1,0,0.1,0c0-0.1,0-0.1-0.1-0.1c0-0.1-0.1-0.1,0-0.2c0.1,0,0.1,0,0.1-0.1
		c0-0.1,0.1-0.1,0.1-0.1c0,0,0.1,0,0.1,0c-0.1,0.1-0.1,0.1,0,0.2c0,0.1,0.1,0.1,0,0.2c0,0,0.1,0.1,0.2,0.1c0.1-0.1,0.2-0.1,0.3,0
		c0.1,0,0.2,0.1,0.2,0.1c0,0,0,0.1,0.1-0.1c0-0.3,0.1-0.6,0.1-0.9c-0.1-0.1,0.1-0.2,0-0.3c0-0.1,0-0.2,0.1-0.1
		c0-0.1,0.1-0.1,0.1-0.2c0,0-0.1-0.1-0.1-0.1c0.1-0.1,0.1-0.1,0.1-0.2c0-0.1,0-0.1,0-0.1c0,0,0,0,0,0c0-0.1,0.1-0.1,0.1,0
		c0,0.1,0.1,0.1,0.1,0.1c0.1,0,0.1-0.1,0.2-0.1c0,0,0.1,0,0.1-0.1c0.1-0.1,0.1-0.1,0.2-0.2c0.1,0,0.1-0.1,0.1-0.1
		c0.1,0,0.1,0.1,0.1,0.1c0.1,0,0.1-0.2,0.1-0.2c0,0,0.1,0,0-0.1c0,0,0-0.1-0.1-0.1c0,0-0.1,0,0-0.1c0,0-0.1-0.1-0.1-0.1
		c0,0-0.1-0.1-0.2-0.1c0-0.1,0.1-0.1,0.2-0.1c0,0,0-0.1,0-0.1c0-0.1-0.1-0.1,0-0.2c0.1-0.1-0.1,0-0.1-0.1c0,0,0-0.1,0-0.1
		c0,0,0-0.1-0.1-0.1c0.1-0.1,0-0.1,0.1-0.2c0-0.1,0.1-0.1,0,0c0,0,0,0.1,0,0.1c0,0,0,0.1,0.1,0.1c0,0,0.1,0,0.1,0.1c0,0,0,0.1,0,0.1
		c0.1,0,0.1,0.1,0.2,0.1c0.1,0,0.1-0.1,0.2-0.1c0.1-0.1,0.2,0,0.3-0.1c0.1,0,0.3,0,0.3-0.1c0,0,0.1,0.1,0.1,0.1c0-0.1,0,0,0,0
		c0,0,0,0,0.1,0c0,0,0,0,0.1,0c0,0,0.1,0,0.1-0.1c0,0,0.1,0.1,0.1,0c0.1,0,0,0,0.1,0c0,0,0.1-0.1,0.1-0.1c0,0,0-0.1,0.1,0
		c0,0,0-0.1,0,0c0.1,0.1,0.1,0.1,0.2,0c0.1,0.1,0.1,0,0.2,0.1c0.1,0,0.2,0,0.2,0c0,0,0.1-0.1,0.2,0c0.1,0,0.1,0,0.2,0
		c0.1,0,0.1,0,0.2,0c0,0.1,0.1,0,0.1-0.1c0,0,0,0,0.1,0c0.1,0,0.1,0.1,0.2,0c0.1,0,0.1,0,0.2,0c0-0.1,0,0,0.1,0
		c0,0.1,0.1,0.1,0.1,0.1c0,0-0.1,0.1,0,0c0.1,0,0.1,0,0.1,0c0.1,0,0.1,0.1,0.1,0.1c0.1,0.1,0.2,0,0.3,0c0.1,0,0.4,0,0.5-0.1
		c0.1-0.1,0.2-0.1,0.2,0c0.1,0.1,0.2-0.1,0.3-0.1c0-0.1,0.1-0.1,0.1-0.1c0.1,0,0.1,0,0.1,0c0.1,0,0.1,0,0.2,0c0.1,0,0.1,0,0.2,0
		c0.1,0,0.1,0,0.2,0c0.1,0,0.1,0,0.2-0.1c0,0,0.1,0,0.1,0c0.1,0,0.2,0,0.3,0c0.1,0.1,0.1,0,0.2,0c0.1,0,0.1,0,0.2-0.1
		c0.1,0,0.1,0,0.2,0.1c0,0,0.1,0,0.1,0c0.1,0,0.1-0.1,0.2-0.1C32.4,14.7,32.4,14.7,32.4,14.7L32.4,14.7z"/>
	<path id="nororiente" class="st3" d="M23.5,9.6c0,0.1,0,0.1,0.1,0.1c0,0,0,0.1,0,0.1c0.1,0,0,0.1,0.1,0.1c0,0,0.1,0,0.1-0.1
		c0,0,0.1,0,0.1,0c0,0,0,0,0,0.1c0,0,0,0,0,0c0,0,0,0,0,0c0,0.1,0.1,0.4,0.1,0.5c0,0.1,0.1,0.3,0.1,0.3c0.1,0.1,0.3,0.3,0.4,0.4
		c0,0,0,0,0,0c0,0,0,0.1,0,0.1c0,0,0,0.1,0,0.1c0,0.1,0,0.1,0.1,0.2c0,0,0,0.1,0,0.1c0,0,0.1,0.1,0,0.1c0,0.1,0,0-0.1,0
		c-0.1,0,0,0-0.1,0.1c0,0-0.1,0,0,0.1c0,0-0.1,0-0.1,0.1c0,0,0.1,0,0.1,0.1s0,0.1,0,0.1c0,0,0,0.1,0,0.1c0,0.1,0,0.1,0,0.2
		c0,0.1,0,0.2,0,0.2c0,0.1-0.1,0.1,0,0.2c0,0.1,0,0.1,0.2,0.1c0,0,0.1,0,0.1,0c0.1,0,0.2,0,0.2,0.1c0,0,0,0.1,0,0.1
		c0.1,0.1,0.1,0.4,0.3,0.4c0.1,0,0.2,0,0.3,0c0-0.1,0.2-0.1,0.2,0c0.1,0,0.2,0,0.2,0c-0.1,0.1,0.1,0,0.1,0c0,0,0.1,0,0.1,0
		c0,0.1,0.1-0.1,0.2,0c0.1,0,0.2,0,0.2,0c0,0,0.1,0,0.2,0c0,0,0,0,0,0.1c0.1,0,0.2,0,0.2,0c0.1,0,0-0.1,0.1-0.1c0,0,0.1,0,0.1-0.1
		c0,0,0.1,0,0.1,0c0,0,0.1,0,0.2,0c0.1,0.1,0.2,0,0.2,0c0,0.1,0,0.1,0.1,0.1c0,0.1,0.1,0,0.1,0c0,0,0,0.1,0.1,0
		c0,0.1,0.1,0.1,0.2,0.1c0.1-0.1,0.2-0.1,0.2,0c0.4,0.5,0.8,1,1.2,1.5c0,0.1-0.1,0.1-0.2,0.1c-0.2,0-0.4,0-0.5,0
		c-0.1,0,0-0.1-0.1-0.1c-0.1,0-0.1,0-0.1-0.1c0,0-0.2,0-0.1,0c0,0-0.1-0.1-0.1-0.1c0-0.1-0.1-0.1-0.1-0.1c0,0.1-0.1,0-0.1,0
		c-0.1,0-0.1,0-0.1,0c-0.1,0-0.2,0-0.2,0c-0.1,0-0.1,0.1-0.2,0.1c0,0-0.1,0-0.1,0c-0.1,0-0.2,0-0.2,0c-0.1,0-0.1-0.1-0.1,0
		c-0.1,0-0.1,0.1-0.2,0c-0.1,0-0.2,0-0.2,0c0,0-0.1,0-0.1,0c0,0-0.1,0-0.2,0c0,0,0,0.1-0.1,0c0,0.1-0.1,0-0.1,0c0,0-0.1,0.1-0.1,0
		c0,0-0.1,0-0.1,0c0,0-0.1,0,0,0c0,0-0.1,0-0.1,0c0,0.1-0.1-0.1-0.1,0c0,0,0,0-0.1,0c0,0.1-0.1,0-0.1,0c-0.1,0-0.1,0.1-0.2,0.1
		c-0.1,0-0.2,0.1-0.4,0C25.2,15,25.1,15,25,15.1c-0.1,0-0.1-0.1-0.2-0.1c-0.1,0-0.1-0.1-0.1-0.1c0-0.1,0-0.1-0.1-0.1c0,0,0,0,0-0.1
		c0,0,0-0.1,0-0.1c0,0,0-0.1,0,0c0,0.1-0.1,0.1-0.1,0.1c0,0-0.1-0.1-0.1,0c0,0,0-0.1,0-0.1c0,0,0.1,0,0.1-0.1c0,0,0-0.1,0.1-0.1
		c0,0,0-0.1,0-0.1c0-0.1,0,0,0.1-0.1c0,0,0,0,0-0.1c0.1,0-0.1-0.1,0-0.1c0,0,0-0.1,0.1-0.1c0,0,0-0.1,0-0.1c0,0,0-0.1-0.1-0.1
		c0,0-0.1,0-0.1,0c-0.1,0-0.1,0-0.1-0.1c0-0.1,0,0-0.1,0c-0.1,0,0-0.1,0-0.2c0-0.1-0.1,0-0.2,0c0,0.1,0,0-0.1,0
		c-0.1,0.1-0.1,0-0.1-0.1c0-0.1-0.1,0-0.1,0c-0.1,0-0.1-0.1-0.1-0.1c0,0,0-0.1,0-0.1c-0.1,0-0.1-0.1-0.1-0.1c0.1,0,0.1-0.1,0-0.1
		c0,0-0.1-0.1-0.1-0.2c-0.1-0.1-0.2-0.1-0.2-0.2c0.1-0.1-0.1-0.1-0.1,0c-0.1,0-0.1,0-0.2,0c-0.1,0-0.1,0-0.1,0.1
		c0,0.1,0,0.1-0.1,0.1c-0.1,0-0.1,0-0.1,0c0,0,0,0-0.1,0c-0.1,0-0.1,0-0.1-0.1c0-0.1-0.1-0.1-0.1-0.1c0,0-0.1,0-0.1-0.1
		c0,0-0.1,0,0,0c0.1,0,0.1,0.1,0.1,0.1c0,0.1,0.1,0.1,0.1,0c0.1,0,0.1-0.1,0.2-0.2c0-0.1,0-0.1,0-0.2c0,0,0.1,0,0.1-0.1
		c0.1,0,0-0.1,0-0.1c0-0.1-0.1,0-0.1-0.1c0-0.1-0.1-0.1-0.1-0.2c0-0.1,0-0.1,0.1-0.2c0.1,0,0-0.1,0.1-0.1c0,0,0-0.1,0-0.2
		c0-0.1-0.2-0.1-0.1,0c0,0.1,0,0.1-0.1,0.1c0,0.1-0.1,0,0,0c0,0-0.1,0-0.1,0c0,0,0.1-0.1,0.1-0.1c0-0.1-0.1,0-0.2-0.1c0,0,0,0,0,0
		c0,0,0.1,0,0-0.1c0-0.1,0-0.1,0.1-0.2c0,0,0.1,0,0.1-0.1c0.1,0,0-0.1,0-0.2c0.1,0,0-0.2,0-0.2c0.1-0.1,0-0.2,0.1-0.3
		c0,0,0.1,0,0.1,0c0.1,0,0.1,0,0.2,0c0.1,0,0.1-0.1,0.2-0.1C23.4,9.6,23.4,9.6,23.5,9.6C23.5,9.6,23.5,9.6,23.5,9.6L23.5,9.6z"/>
	<path id="amzonia" class="st3" d="M32.7,18.8c0.1,0.1,0,0.3,0.2,0.3C33,19,33,19.2,33,19.2c0,0.1,0,0.2,0.1,0.3
		c0,0.1,0.2,0.1,0.1,0.3c0,0.1-0.1,0.1-0.1,0.2c-0.3,0-0.4,0.4-0.6,0.5c-0.1,0-0.2,0.4-0.1,0.3c0-0.1,0.2-0.1,0.2,0
		c0.1,0.1,0.2-0.1,0.2,0.1c0.1,0,0,0.2,0.1,0.1c0.1,0,0.1,0.1,0.2,0.2c0.1,0.1,0.1,0.1,0.2,0.2c0,0.1,0.3,0.1,0.2,0.3
		c-0.1,0.1,0,0.3,0.1,0.3c0.1-0.1,0.1,0.2,0,0.2c0,0.1,0.1,0.1,0.1,0.2c0,0.1,0.1,0.2,0.1,0.3c0,0.1,0.1,0.2,0.1,0.4
		c0.1,0,0.1,0.2,0,0.2c0.2,0.2-0.2,0.1-0.3,0.2c-0.1,0.1,0-0.1-0.1-0.2c-0.1-0.1-0.1-0.2,0-0.1c0.1-0.1,0-0.1,0-0.2
		c0-0.1,0-0.2-0.1-0.2c0-0.1,0-0.2,0-0.3c-0.1,0,0-0.1-0.1-0.1c0-0.2-0.1-0.1-0.2-0.1c-0.1-0.1-0.1-0.2-0.1-0.3c0-0.1,0.1-0.1,0-0.2
		c0-0.1-0.1-0.1-0.1,0c0,0-0.1,0.1-0.2,0.1c-0.1,0-0.2,0-0.1,0.1c0,0.1-0.1,0.2-0.2,0.2c-0.1,0-0.2-0.1-0.2,0
		c-0.1,0.1-0.1,0.2-0.2,0.2c0,0,0,0.1,0,0.1c-0.1-0.1-0.2-0.1-0.2,0c0-0.1-0.1-0.1-0.1-0.2c0-0.1-0.1-0.1-0.1-0.1c0,0,0-0.2,0-0.1
		c0,0.1-0.1,0.1-0.1,0.2c0,0,0,0.1-0.1,0.1c0,0,0,0,0,0c0,0,0.1,0,0.1,0c0,0,0,0.1,0,0.1c0,0,0,0,0.1,0c0.1,0,0,0.1,0,0.1
		c0,0,0,0,0,0c-0.7,0-1.4,0-2.1,0c0,0,0,0-0.1,0c0,0,0,0-0.1,0c0,0-0.1,0-0.1,0c0,0,0,0,0,0c0,0-0.1,0-0.1,0c0,0,0,0-0.1,0
		c0,0-0.1,0-0.1,0c0,0-0.1,0-0.1,0c0,0-0.1,0-0.1,0c0,0-0.1,0-0.1,0c-0.1,0,0,0.3,0,0.4c0,0.2-0.1,0.6,0,0.7c0.1,0.1,0.2-0.1,0.2,0
		c0,0.1,0.2-0.1,0.2,0.1c0.1,0,0.2,0,0.2,0c0,0.1,0.1,0,0.1,0c0,0,0,0,0.1,0c0,0,0.1,0,0.1,0c0,0,0.1,0,0.1,0c0,0,0.1,0.1,0,0.1
		c0,0,0.1,0.1,0.1,0.1c-0.1,0,0.1,0.1,0.1,0.1c0,0.1-0.1,0,0,0.1c0.1,0.1-0.1,0.1,0,0.1c0,0,0.1,0.1,0.1,0.1c0,0-0.1,0-0.1,0
		c0,0.1,0,0.1-0.1,0.1c0,0-0.1,0-0.1,0c0,0,0,0,0-0.1c0,0-0.1,0.1-0.1,0c0,0,0,0.1-0.1,0c-0.1,0-0.1-0.1-0.1-0.1c0,0,0,0-0.1-0.1
		c-0.1,0-0.1,0.1-0.1,0.1c0,0-0.1,0-0.1,0.1c0,0,0,0.1,0,0.1c0,0-0.1-0.1-0.1-0.1c0,0-0.1,0-0.1,0c0,0-0.1,0.1-0.1,0.1
		c0,0-0.1,0.1-0.1,0.1c0-0.1-0.1,0-0.1,0c0,0,0,0.1-0.1,0c0,0-0.1,0-0.1,0c0,0.1,0,0-0.1,0c0,0.4,0,0.8,0,1.2c0,0,0,0.1,0,0.1
		c0.1,0,0.1,0.1,0.1,0.1c0,0,0,0,0,0c0,0,0.1,0.1,0.1,0.1c0,0,0.1,0,0.1,0c0,0,0,0.1,0,0.1c0,0,0.1,0.1,0.1,0c0,0,0,0,0,0
		c0,0,0,0,0,0c0,0,0,0,0,0c0,0,0,0,0,0c0,0,0,0,0,0c0,0,0,0,0.1,0c0,0.1,0.1,0,0.1,0.1c0,0,0,0,0,0.1c0,0,0,0,0,0.1c0,0,0,0,0.1,0
		c0,0,0,0,0,0c0,0,0,0,0,0.1c0,0,0,0,0,0c0,0,0,0,0,0c0,0,0,0,0,0c0,0,0,0,0,0c0,0,0,0,0,0c0,0,0,0,0,0.1c0,0,0,0,0,0c0,0,0,0,0,0
		c0,0,0,0,0,0.1c0,0,0,0,0,0.1c0,0,0.1,0,0.1,0.1c0,0.1,0.1,0,0.1,0.1c0,0-0.1,0,0,0c0,0,0,0.1,0,0.1c0.1,0.1-0.1,0.2,0,0.4
		c0,0.1-0.1,0.2-0.1,0.3c-0.3,1.6-0.6,3.2-0.8,4.7c-0.1,0.1-0.1-0.2-0.2-0.2c0-0.1-0.3,0-0.2-0.2c0-0.1-0.2-0.1-0.2-0.3
		c-0.1-0.1-0.2,0-0.3,0c-0.1,0.1-0.2,0.1-0.3,0c-0.1,0-0.1,0.1-0.1,0c-0.1-0.1-0.2,0,0-0.2c0.3-0.5,0.7-1.1,1-1.6
		c-0.1,0,0-0.2-0.1-0.2c0,0.1-0.2,0.1-0.1,0c0-0.1,0,0.1-0.1,0c0-0.1,0-0.2-0.2-0.1c-0.1,0,0-0.1,0-0.1c0-0.1-0.1,0-0.1-0.1
		c-0.1,0-0.1,0.1-0.2,0c0-0.1,0-0.1-0.1,0c-0.1,0-0.1-0.2-0.1-0.1c0.2,0-0.1,0.2-0.1,0c0,0,0.1-0.1,0-0.1c-0.1,0,0-0.1-0.1-0.1
		c-0.1,0-0.1,0-0.1-0.1c-0.1,0-0.1,0-0.1-0.1c0-0.1-0.1,0-0.1,0c-0.1,0-0.1-0.1-0.1,0c0,0,0.1,0.2,0,0.1c0-0.1-0.1,0-0.2,0
		c0,0,0,0.1,0,0.1c0,0-0.1,0.1-0.1,0c0-0.1-0.1,0-0.1,0c0,0,0.1-0.1,0-0.1c0,0.1-0.1,0.1-0.1,0.1c-0.1,0.1-0.1,0-0.1-0.1
		c-0.1,0-0.1-0.1-0.1-0.1c-0.1,0,0,0.2-0.1,0.1c-0.1,0,0-0.1,0-0.2c-0.1,0-0.1,0-0.2-0.1c-0.1,0-0.2,0.1-0.1,0c0.1-0.1,0-0.1,0,0
		c-0.1,0-0.1,0.1-0.1,0.1c0,0.1-0.1,0.2-0.2,0.2c0,0.1,0,0.1,0,0.1c0,0-0.1,0-0.1,0c-0.1,0-0.1,0.1-0.2,0.1c0,0.1-0.1,0.1-0.1,0.1
		c0,0-0.1,0-0.1,0c0,0.1-0.1,0-0.1,0.1c-0.1,0-0.2,0-0.2-0.1c0,0.1-0.1,0-0.2,0c-0.1,0-0.1-0.1-0.1-0.1c-0.1,0,0,0.1-0.1,0.1
		c0,0.1-0.1,0-0.1-0.1c0,0-0.1,0.1-0.1,0c-0.1,0-0.2,0.1-0.3,0.1c-0.1,0.1,0-0.1-0.1-0.1c0-0.1,0-0.1-0.1-0.1c0-0.1,0,0-0.1,0
		c0,0-0.1-0.1-0.1-0.1c0-0.1-0.1-0.2-0.1-0.2c0.1,0,0.1-0.1,0.2-0.1c0,0-0.1,0,0-0.1c0,0-0.1,0-0.1-0.1c0,0,0-0.1,0-0.2
		c0.1-0.1-0.1,0-0.1-0.1c0-0.1,0-0.1-0.1-0.1c0,0-0.1-0.1-0.1-0.1c0,0.1-0.1,0.1,0,0c0,0,0,0,0,0c-0.1,0-0.1,0-0.1,0.1
		c-0.1,0,0-0.1-0.1,0c0-0.1-0.1,0-0.1,0c0-0.1-0.1-0.1-0.2-0.1c0-0.1,0-0.1,0-0.1c0,0,0.1-0.1,0.1-0.1c-0.1,0-0.1-0.1,0-0.1
		c0,0,0,0,0-0.1c-0.1,0-0.1,0-0.1-0.1c-0.1,0-0.1-0.1,0,0c0,0,0-0.1,0-0.1c0-0.1,0.1-0.1,0-0.1c-0.1,0,0-0.1-0.1-0.1
		c0,0-0.1-0.1-0.1,0c-0.1,0-0.1-0.1-0.1-0.1c0,0.1,0,0.1-0.1,0.1c-0.1,0-0.1,0-0.1-0.1c0-0.1,0-0.2-0.1-0.1c-0.1,0,0-0.1,0-0.1
		c0,0.1-0.1,0-0.1-0.1c0,0,0-0.1,0,0c0,0.1-0.2,0-0.3,0c-0.1,0-0.1-0.1-0.2-0.2c-0.1,0,0-0.1,0-0.1c0-0.1,0.1-0.1,0-0.1
		c0-0.1,0-0.1-0.1-0.1c0.1-0.1-0.1-0.1-0.1-0.1c0.1,0-0.1-0.1,0-0.2c-0.1,0,0-0.2-0.1-0.1c0-0.1,0-0.1-0.1-0.1c0-0.1-0.1,0-0.1-0.1
		c-0.1,0.1-0.1-0.1-0.1-0.1c0,0-0.1,0-0.1-0.1c-0.1,0.1-0.1,0-0.1,0c0,0.1-0.1,0-0.1-0.1c0-0.1-0.1-0.2-0.2-0.1c0,0.1-0.1,0-0.1,0
		c0,0-0.1-0.1-0.1-0.1c-0.1,0-0.1-0.1-0.3-0.1c-0.1-0.1-0.1,0.1-0.2,0.1c-0.1,0-0.2,0-0.3-0.1c-0.1-0.1-0.2-0.1-0.3-0.1
		c0-0.1,0-0.1-0.1-0.1c0-0.1-0.1,0-0.1,0c-0.1,0-0.1,0-0.2,0c-0.1,0-0.1-0.2-0.1-0.1c0-0.1,0,0,0-0.1c-0.1,0-0.1-0.1-0.1-0.1
		c-0.1,0-0.1,0,0,0c0,0,0-0.1-0.1-0.1c0-0.1-0.1,0.1-0.1-0.1c0-0.1-0.1,0-0.1,0c0,0,0-0.1-0.1,0c0-0.1-0.1,0-0.1,0
		c0,0.1,0,0.1-0.1,0.1c-0.1,0,0,0.3-0.1,0.2c0,0-0.1,0.1-0.2,0c-0.1,0.1-0.1,0.1-0.2,0c0,0-0.1,0-0.1,0c0-0.1-0.1,0-0.1,0
		c-0.1,0-0.1,0-0.2,0c-0.1,0-0.1,0-0.1-0.1c-0.1,0-0.1-0.1-0.2,0c-0.1,0-0.1-0.1-0.1-0.2c0,0,0,0,0-0.1c0,0,0-0.1,0-0.1
		c0,0,0-0.1,0-0.2c0-0.1-0.1,0-0.1-0.1c0-0.1,0-0.3,0.1-0.3c-0.1-0.1,0-0.1,0.1-0.2c0-0.1,0.2,0,0.3-0.1c0.1,0,0.1-0.1,0.2,0
		c0.1,0,0.1,0,0.1,0c0,0-0.1,0,0-0.1c0-0.1-0.1-0.1,0-0.1c0,0,0-0.1,0-0.1c0,0-0.1,0-0.1,0c0-0.1-0.1,0-0.1-0.1c0,0,0,0-0.1,0
		c0-0.1,0-0.1,0-0.1c0.1,0,0.2-0.1,0.2-0.1c0.1,0,0.1-0.1,0.1-0.1c0,0,0.1,0.1,0.1,0.1c0,0,0.1,0.1,0,0.1c0,0,0,0.1,0,0.1
		c0,0.1,0.1,0.1,0,0.2c0,0.1,0,0.1,0,0.1c0,0,0,0,0,0.1c0,0.1,0.1,0,0.1,0.1c0,0,0.1,0.1,0.1,0c0.1,0,0.1,0,0.1,0c0,0,0.1,0,0.1,0
		c0,0,0.1,0,0.1,0c0,0,0.1,0,0.1-0.1c0,0,0,0,0,0c0-0.1,0.1,0.1,0.1,0c0.1,0-0.1-0.1,0.1-0.1c0,0,0.1,0,0.1,0c0,0,0-0.1,0,0
		c0,0.1,0.1,0,0.1,0.1c0,0,0.1,0,0.1,0.1c0.1,0,0.1,0.2,0.1,0.1c0.1,0,0.1,0.1,0.1,0.1c0.1,0,0.2-0.1,0.2,0c0.1,0,0.1,0,0.1,0.1
		c0,0.1,0.1,0,0.1,0c0.1,0.1,0.2,0,0.2,0c0,0.1,0.1,0,0.1,0.1c-0.1,0.1,0.1,0.1,0.1,0.2c-0.1,0,0.1,0.1,0,0.2c0.1,0,0.1,0,0.2,0
		c0,0.1,0,0.1,0.1,0.1c0.1,0,0.1,0.1,0.1,0.1c-0.1,0,0,0.1,0,0.2c-0.1,0-0.1,0.1,0,0.1c0.1,0.1,0.2,0,0.2,0.1c0.1,0,0.3,0,0.3,0.1
		c0,0.1,0,0.1-0.1,0.1c0,0,0.2,0.1,0,0.1c-0.1,0,0.1,0.1,0,0.1c0,0.1,0.1-0.1,0.1,0c-0.1,0.1,0.2,0.2,0.1,0.1c0.1,0,0.1,0.2,0.1,0
		c0-0.1,0.1,0,0,0.1c0.1-0.1,0.2,0,0.3,0c0.1,0-0.1,0.1,0.1,0.1c0.1,0.1,0.1-0.1,0.1,0c0,0.1,0.1-0.1,0.2,0c0.1,0,0.1,0,0.1,0.1
		c0.1,0.1,0.2,0.1,0.3,0.2c0.1,0,0.1,0,0.2,0c0,0,0.1,0.1,0.1,0.1c0,0-0.1,0.1,0,0.1c0.1-0.1,0.1,0.2,0.2,0.1c0,0.1,0.2,0,0.3,0.1
		c0.1-0.1,0.1,0,0.2,0.1c0.1,0.1,0.2,0.1,0.3,0.1c0.1,0.1,0.1-0.3,0.2-0.1c0.1,0.1,0.2,0.2,0.3,0.1c0.1-0.1,0.1-0.1,0.2,0
		c0.1,0.1,0.2,0.2,0.3,0.2c0-0.1,0.3-0.3,0.2-0.2c0,0,0.1,0,0.1,0.1c0,0,0.1,0,0.1,0c0.2,0,0-0.3,0.2-0.3C25,26.1,25,26,25.1,26
		c0-0.1,0.2-0.1,0.3-0.1c0.1,0,0.3,0,0.3-0.1c-0.1-0.1,0-0.2,0-0.3c0.1,0,0.2-0.2,0.4-0.1c0.1,0,0.1,0,0.2-0.1
		c0.1,0.1,0.3-0.1,0.1-0.1c0-0.1-0.1-0.1,0-0.1c0-0.1,0,0.1-0.1,0c0-0.1-0.1-0.1-0.1,0c0,0-0.1,0-0.1,0c-0.1,0,0,0.1-0.1,0.1
		c-0.1,0,0.1-0.1-0.1-0.1c-0.1,0,0-0.1,0-0.1c0,0.1-0.2,0.1-0.1,0c0,0-0.2,0-0.2-0.2c0.1-0.1,0-0.1,0,0c0,0,0-0.1-0.1-0.1
		c0,0,0.1-0.1,0-0.1c-0.1,0,0,0.1-0.1,0c-0.1,0,0-0.1,0-0.1c0,0,0,0,0-0.1c-0.1-0.1,0,0-0.1,0c0,0,0.1-0.1,0-0.1c0,0,0-0.1,0-0.1
		c0,0.1-0.1,0-0.1,0c-0.1,0,0.1-0.1,0-0.1c-0.1,0-0.1-0.1,0.1-0.1c0.1-0.1,0.3-0.2,0.3-0.3c0,0,0-0.1,0-0.1c0,0,0.1,0,0.1,0
		c0.1,0,0.1-0.1,0.1-0.1c0,0,0.1,0,0,0c0,0,0,0,0,0c0,0,0,0,0,0c0,0,0,0,0,0c0,0,0,0,0,0c0,0,0,0,0,0c0,0,0,0,0,0c0.1,0,0-0.1,0-0.1
		c-0.1,0.1,0.2,0.1,0,0c0,0,0,0,0,0c0,0,0,0,0,0c0,0,0-0.1,0,0c0,0,0,0,0,0c0,0,0,0,0,0c0,0,0-0.1,0,0c0,0,0.1,0,0,0c0,0,0,0,0,0
		c0,0,0,0,0,0c0,0,0,0,0-0.1c0,0,0,0,0-0.1c0,0,0-0.1,0-0.1c0,0,0-0.1,0.1-0.1c0-0.1,0-0.1,0.1-0.2c0-0.1,0-0.2,0-0.2
		c0.1,0,0.1,0.1,0.1,0c0,0,0.1,0,0.1,0.1c0,0,0.1,0,0.1-0.1c0-0.1,0.1-0.1,0.1-0.1c0,0,0.1,0,0.1,0c0,0,0.1,0,0.1,0c0,0,0,0,0.1,0
		c0,0,0,0,0,0c0,0,0.1,0,0.1-0.1c0,0,0,0,0.1,0c0,0,0,0,0-0.1c0,0,0,0,0,0c0,0,0.1,0,0.1,0c0,0,0.1,0,0.1,0c0,0,0,0,0.1,0
		c0,0,0,0,0,0c0,0,0,0,0,0c0,0,0,0,0,0c0,0,0,0,0.1,0c0,0,0.1,0,0.1,0c0,0,0,0,0,0c0,0,0,0,0.1,0c0,0,0.1,0,0.1,0c0,0,0,0,0,0
		c0,0,0,0,0.1,0c0,0,0,0,0,0c0,0,0,0,0.1,0c0,0,0.1,0,0.1,0c0,0,0,0,0.1,0c0,0,0.1,0,0.1,0c0,0,0,0,0,0c0,0,0,0,0.1,0
		c0,0,0-0.1,0.1-0.1c0.1,0,0.1-0.1,0.1-0.1c0,0,0.1-0.1,0.1-0.1c0,0,0-0.1,0,0c0,0,0,0,0-0.1c-0.1,0,0-0.1-0.1-0.1
		c0-0.1-0.1,0.1-0.1,0c-0.1-0.1,0,0-0.1,0c0,0,0,0.1-0.1,0c0,0-0.1,0-0.1,0c0-0.1-0.1,0.1-0.1,0c0,0,0,0.1-0.1,0c0,0-0.1,0-0.1-0.1
		c0,0-0.1,0-0.1,0c0,0-0.1,0-0.1,0c0,0,0-0.1,0,0c-0.1-0.1-0.1,0-0.2-0.1c0-0.1-0.1-0.1-0.1-0.2c0,0,0-0.1-0.1-0.1
		c-0.1,0-0.1-0.1-0.1-0.1c0,0-0.1,0-0.1,0c0,0-0.1-0.1-0.1,0c0,0-0.1,0-0.1-0.1c0.3-0.1,0.6-0.2,0.8-0.4c0.1,0,0.2-0.1,0.2-0.2
		c0.1,0,0.1-0.1,0.1-0.2c0.1,0,0-0.1,0-0.1c0.1,0,0.1,0,0.1-0.1c0,0,0.1-0.1,0.1-0.1c0-0.1,0,0,0.1,0c0.1,0-0.1-0.1,0-0.1
		c0,0,0,0.1,0.1,0.1c0,0-0.1-0.2,0-0.1c0.1,0-0.1-0.1-0.1-0.1c0.1,0,0.1-0.1,0.1-0.1c0.1,0,0.1-0.1,0.2,0c0.1,0,0.1-0.1,0.1-0.1
		c0.1,0.1,0.2,0,0.1-0.1c-0.1-0.2,0.2,0.1,0.1,0c-0.1-0.1,0,0,0.1,0c0-0.1,0.1-0.1,0.1-0.1c0.1,0-0.1-0.1,0-0.1c0.1,0,0,0.1,0.1,0.1
		c0-0.1,0.1,0,0.1-0.1c0,0,0,0.1,0,0c0-0.1,0.1-0.2,0-0.1c0,0,0.1,0,0.2,0c0,0,0,0.1,0,0c0-0.1,0.1-0.1,0.1,0c0.1,0,0-0.1,0.1,0
		c0.1,0,0.1-0.1,0.1-0.1c-0.1,0.2,0.1,0,0,0c0.1,0,0.1,0,0.1,0.1c0,0,0.1-0.1,0.1,0c0,0.1,0.1,0,0,0.1c-0.1,0.1,0.1,0,0.1,0
		c0,0,0.1,0.1,0.1,0c0.1,0.1,0.1-0.1,0.2-0.1c0.1,0.1,0.1,0,0-0.1c0.1,0,0,0.2,0.1,0.1c0.1-0.1,0.1,0.1,0.1,0c0,0-0.1-0.1,0-0.1
		c0.1,0.1,0.1,0,0.1-0.1c0,0,0.1,0,0.1,0c0,0,0.1,0,0,0c-0.1,0,0-0.1,0,0c0,0,0.1,0,0.1,0c0-0.1,0.1,0.1,0.1,0c-0.1,0,0-0.1,0,0
		c0.1,0.1,0.1,0,0,0c0,0,0.1-0.1,0.1,0c0,0,0-0.1,0,0c0.1,0.1,0-0.1,0-0.1c0,0,0.2,0,0.1-0.1c0-0.1,0.1,0,0.2,0c0.1,0.1,0-0.1,0.1,0
		c0.1-0.1,0,0.1,0.1,0.1c0.1-0.1,0.1-0.1,0.1,0c0-0.1,0.1-0.1,0.1-0.1c0.1,0,0.2,0,0.2,0.1c0.1,0,0.3-0.3,0.4-0.2
		C32.6,18.7,32.6,18.7,32.7,18.8L32.7,18.8z"/>
	<path id="bogota" class="st3" d="M21.7,17.2c0,0,0.1,0,0.1,0c0,0.1,0,0.1,0,0.2c0,0-0.1,0.1,0,0.1c0,0,0.1,0,0,0.1
		c0,0.1-0.1,0.1-0.1,0.2c-0.1,0,0,0.1-0.1,0.1c0,0.1,0.1,0.1,0,0.2c0,0-0.1,0.1,0,0.1c0,0.1,0.1,0.1,0,0.2c0,0,0,0.1,0,0.2
		c-0.1,0-0.1,0-0.2,0.1c0,0-0.1,0.1-0.1,0.1c0,0.1,0,0.1,0,0.1c0,0-0.1,0.1-0.1,0.1c-0.1,0-0.1,0-0.1-0.1c0-0.1,0.1-0.1,0.1-0.2
		c0.1-0.1,0-0.2,0-0.2c0-0.1,0-0.2,0.1-0.2c0.1,0.1,0.1,0,0.1-0.1c0-0.1,0.1-0.1,0-0.2c0-0.1,0-0.2-0.1-0.2c-0.1,0.1-0.1,0-0.1-0.1
		c0,0,0-0.1,0-0.1c0-0.1,0-0.1,0-0.2c0,0,0.1,0,0.1,0c0,0,0.1,0,0.1,0c0,0,0.1,0,0.1,0c0,0,0-0.1,0-0.1c0,0,0.1,0,0.1-0.1
		C21.6,17.3,21.6,17.3,21.7,17.2C21.7,17.3,21.7,17.2,21.7,17.2C21.7,17.2,21.7,17.2,21.7,17.2L21.7,17.2z"/>
	<path id="centroandina" class="st3" d="M21.1,19.1c0,0.1-0.1,0.1-0.1,0.1c-0.1,0-0.1,0.2-0.1,0.2c0,0-0.1,0-0.1,0.1
		c0.1,0.1,0,0.1,0,0.2c0.1,0.1-0.1,0.2-0.1,0.3c-0.1,0.1-0.1,0.2-0.2,0.2c0,0.1-0.1,0.1-0.1,0.2c-0.1,0.1-0.2,0.2-0.3,0.4
		c0,0-0.1,0-0.1,0.1c0,0,0,0.1,0,0.1c0,0.1,0,0.1,0,0.1c-0.1,0.1,0,0.1-0.1,0.1c0,0.1-0.1,0.2-0.1,0.3c-0.1,0-0.1,0.1-0.1,0.1
		c0,0.1-0.1,0.1-0.1,0.2c0.1,0.1-0.1,0.1-0.2,0.2c0,0.1-0.1,0.2-0.1,0.2c-0.1,0.1,0,0.2-0.1,0.2c-0.1,0.1,0,0.2-0.1,0.2
		c0,0-0.1,0-0.1,0.1c0,0-0.1,0-0.2,0.1c0,0.1-0.1,0-0.1,0.1c-0.1,0-0.1,0.1-0.2,0.1c0,0-0.1,0.1-0.1,0c0-0.1-0.1,0.1-0.1,0
		c0,0,0-0.1,0-0.1c0.1,0,0.1-0.2,0.2-0.2c0,0,0.1,0,0.1,0.1c0.1,0,0.1-0.1,0.1-0.1c0,0,0-0.1,0.1-0.1c-0.1,0,0-0.1-0.1-0.2
		c-0.2,0,0.1-0.1,0-0.2c0-0.1-0.1-0.1,0-0.2c0,0,0.1-0.1,0.1-0.1c0,0,0-0.1,0-0.1c0,0,0-0.1,0.1-0.1c0.1,0,0.1-0.1,0.1-0.1
		c0,0,0-0.1,0-0.1c0,0,0,0,0,0c0,0,0,0,0-0.1c0,0,0-0.1,0-0.1c0,0,0.1-0.1,0.1-0.1c0,0,0.1,0,0.1-0.1c0,0,0-0.1,0-0.1
		c-0.1,0,0-0.1-0.1-0.1c0-0.1-0.1,0-0.1,0c-0.1-0.1-0.3-0.1-0.2-0.3c-0.1,0,0-0.1-0.1-0.1c0-0.1-0.1-0.1,0-0.1c0-0.1-0.1-0.1,0-0.1
		c0,0,0.1,0,0-0.1c0.1,0,0-0.1,0-0.1c0,0,0-0.1,0-0.1c0.1,0,0,0,0-0.1c0,0,0-0.1,0-0.1c0.1-0.1,0.1-0.1,0-0.2c0,0,0-0.1,0-0.1
		c0,0,0.1,0,0-0.1c0-0.1,0.1-0.1,0.1-0.1c0-0.1,0.1-0.1,0.1-0.2c0-0.1,0.1,0,0.1-0.1c0-0.1,0-0.1,0-0.1c0,0,0.1-0.1,0.1-0.1
		c0-0.1,0.1-0.1,0.1-0.1c0-0.1,0.1-0.1,0.1-0.1c0-0.1,0.1-0.1,0.1-0.1c0-0.1,0-0.2,0-0.3c0.1,0,0.1-0.1,0.1-0.2
		c0.1,0,0.1-0.1,0.1-0.1c0,0,0-0.1,0.1-0.2c0-0.1,0-0.2,0.1-0.3c0-0.1-0.1-0.2,0-0.2c0.1-0.1-0.1-0.1,0-0.2c0,0,0.1-0.1,0.1-0.1
		c0,0,0.1,0,0.1-0.1c0,0,0.1,0,0.1,0c0,0,0,0,0,0c0,0,0-0.1,0.1-0.1c0,0,0,0,0-0.1c0,0,0.1,0,0.1,0c0,0,0.1,0,0.1,0c0,0,0.1,0,0.1,0
		c0,0,0.1,0,0.1,0c0,0,0.1,0,0.1,0c0,0.1,0.1,0,0.1-0.1c0,0,0.1,0,0-0.1c0.1,0,0-0.1,0.1-0.1c0,0,0.1,0,0,0.1
		c0.1,0.1,0.1-0.1,0.1-0.1c0.1-0.1,0.1-0.1,0.1-0.2c0-0.1,0.1-0.1,0.1-0.1c0,0,0-0.1,0-0.1c0,0,0-0.1,0,0c0.1,0.1,0.1,0,0.2-0.1
		c0,0,0,0.1,0.1,0.1c0,0,0,0.1,0.1,0c0-0.1,0-0.1,0.1-0.1c0,0,0.1,0,0.1-0.1c0,0,0-0.1,0.1,0c0.1,0,0.1,0,0.1,0.1c0,0,0.1,0,0.1,0.1
		c0,0,0,0.1,0.1,0.1c0,0,0.1,0,0.2,0c0,0,0,0,0,0c0,0,0.1-0.1,0.1,0c0.1,0,0.1-0.1,0.1-0.1c0,0,0.1,0,0.1,0.1
		c0.1,0.1,0.1-0.1,0.1-0.1c0-0.1,0-0.1,0-0.1c0,0,0.1-0.1,0.1-0.1c0-0.1,0.1-0.1,0.1-0.2c0-0.1,0.1,0,0.1,0c0,0,0.1,0.1,0.1,0.1
		c0,0.1,0,0.1-0.1,0.2c-0.1,0-0.1,0-0.1,0.1c-0.1,0.1,0.1,0.1,0.1,0.2c0.1,0.1,0.1-0.1,0.1-0.2c0,0.1,0.1,0,0.2,0.1
		c0.1,0,0.2-0.1,0.1-0.1c-0.1,0,0-0.1,0-0.1c0-0.1,0.1-0.1,0.1,0c0.1,0.1,0.1-0.1,0.2-0.1c0,0.1,0,0.1,0.1,0
		c0.1-0.1,0.1-0.2,0.2-0.2c0.1,0,0-0.1,0.1-0.1c0-0.1,0.1-0.1,0.1-0.1c0-0.1,0-0.2,0-0.2c0,0,0-0.1,0-0.2c0-0.1-0.1,0-0.1-0.1
		c-0.1,0,0-0.2,0.1,0c0.1,0,0.1,0.2,0.2,0.2c0.1,0,0.1-0.1,0.2-0.1c0,0,0-0.1,0-0.2c0,0,0.1-0.1,0.1-0.1c0-0.1,0-0.1,0-0.1
		c0-0.1,0-0.1,0-0.2c0.1,0,0.1,0,0.2,0c0,0.1,0.1,0.1,0.1,0.2c0,0,0,0.1,0,0.1c0,0,0,0.1-0.1,0.1c-0.1,0,0,0.1,0,0.1
		c-0.1,0,0,0-0.1,0c0,0,0,0-0.1,0c0,0,0,0.1,0,0.1c0,0-0.1,0-0.1,0.1c0,0,0,0.1-0.1,0.1c0,0,0,0.1,0,0.1c0.1-0.1,0.1,0,0.1,0
		c0.1,0,0,0.1,0,0.1c0.1,0,0,0.1,0.1,0.1c0,0,0,0.1,0,0.1c0,0.1,0.1,0,0.1,0.1c-0.1,0-0.1,0.1,0,0.1c0,0.1,0.1,0.1,0,0.2
		c-0.1,0-0.2,0-0.2,0.1c0,0,0.1,0,0.1,0.1c0.1,0,0.1,0,0.1,0.1c0,0,0,0,0,0.1c0,0,0,0.1,0.1,0.1c0.1,0,0,0,0,0.1
		c0,0.1-0.1,0.4-0.2,0.2c-0.1-0.1-0.1,0-0.1,0.1c-0.1,0-0.1,0.1-0.1,0.1c0,0-0.1,0.1-0.1,0.1c0,0-0.1,0-0.1,0.1
		c-0.1,0.1-0.1,0.1-0.1,0c-0.1,0-0.1-0.1-0.2-0.1c0,0-0.1,0.1-0.1,0.1c0,0-0.1,0,0,0c0,0.1,0,0.1,0,0.2c0,0.1-0.1,0.1-0.1,0.2
		c0,0,0.1,0.1,0.1,0.1c0,0.1-0.1,0.1-0.1,0.2c-0.1-0.1-0.1,0-0.1,0.1c0,0.1-0.1,0.2,0,0.2c0,0.2-0.1,0.4-0.1,0.6
		c0,0.1,0,0.4-0.1,0.3c-0.1,0-0.1-0.1-0.2-0.1c-0.1-0.1-0.2,0-0.3,0c0,0-0.1,0-0.1-0.1c0-0.1-0.1-0.1,0-0.2c-0.1-0.1,0-0.1,0-0.2
		c0-0.1-0.1-0.1-0.1,0c0,0-0.1,0.1-0.1,0.1c0,0.1-0.1,0-0.1,0.1c0.1,0.1,0,0.2,0.1,0.2c-0.1,0,0.1,0.1-0.1,0.1c-0.1,0-0.1,0-0.1,0
		c-0.1,0-0.1,0.1-0.2,0c0,0.1-0.1,0.1-0.1,0.1c0,0-0.1,0-0.1,0.1c-0.1,0-0.1,0.1-0.1,0.1c-0.1,0,0-0.1,0-0.2c0-0.1,0.1-0.1,0-0.2
		c0-0.1,0-0.1,0-0.2c0.1-0.1,0.1-0.1,0-0.2c0-0.1,0.1-0.1,0.1-0.2c0.1,0,0.1-0.1,0.1-0.1c0-0.1,0-0.1,0-0.1c0,0-0.1,0,0-0.1
		c0-0.1,0-0.2,0-0.2c0.1,0-0.1-0.1-0.1-0.1c0,0,0,0,0,0c0,0,0,0,0,0c0,0,0,0.1,0,0.1c0,0-0.1,0-0.1,0c0,0,0,0.1,0,0.1
		c0,0-0.1,0-0.1,0c0,0-0.1,0-0.1,0c0,0,0,0.1,0,0.1c0,0,0,0.1,0,0.1c0,0.1,0,0.2,0,0.2c0.1-0.1,0.1,0.1,0.1,0.2
		c0.1,0.1-0.1,0.1,0,0.2c0,0.1-0.1,0.1-0.1,0c0,0.1-0.1,0.2,0,0.3C21.2,18.8,21.2,18.9,21.1,19.1C21.1,19,21,19.1,21.1,19.1
		L21.1,19.1z"/>
</g>
</svg>
