<svg id="Capa_1" data-name="Capa 1" xmlns="http://www.w3.org/2000/svg" viewBox="0 0 357.86 66.3"><defs><style>.cls-1{fill:none;stroke:#fff;stroke-miterlimit:10;}.cls-2{fill:#fff;}</style></defs><rect class="cls-1" x="23.38" y="39.47" width="29.16" height="10.34"/><rect class="cls-1" x="55.75" y="32.78" width="72.22" height="17.31"/><line class="cls-1" x1="3.63" y1="50.74" x2="355.15" y2="50.7"/><path class="cls-2" d="M2.84,62.88c2.11-2.06,3.45-3.4,3.45-4.57A1.18,1.18,0,0,0,5,57a2.08,2.08,0,0,0-1.48.84l-.77-.75A3.08,3.08,0,0,1,5.21,55.9a2.24,2.24,0,0,1,2.41,2.34c0,1.36-1.26,2.76-2.78,4.34.4,0,.91-.07,1.28-.07H8v1.17H2.84Z"/><path class="cls-2" d="M8.42,59.83c0-2.58,1-3.93,2.59-3.93s2.59,1.36,2.59,3.93-1,4-2.59,4S8.42,62.41,8.42,59.83Zm3.86,0c0-2.16-.54-2.85-1.27-2.85s-1.28.69-1.28,2.85.54,2.91,1.28,2.91S12.28,62,12.28,59.83Z"/><path class="cls-2" d="M14.37,62.55h1.71v-5H14.67v-.87A4.77,4.77,0,0,0,16.43,56h1v6.51H19v1.13H14.37Z"/><path class="cls-2" d="M23.18,57.21H19.57V56h5.12v.85c-1.79,2.22-2.1,3.81-2.23,6.79h-1.4A10.66,10.66,0,0,1,23.18,57.21Z"/><rect class="cls-1" x="6.87" y="42.34" width="13.96" height="7.49"/><rect class="cls-1" x="311.52" y="17.47" width="42.29" height="32.33"/><path class="cls-2" d="M27.37,63.05c2.11-2.06,3.45-3.39,3.45-4.56a1.18,1.18,0,0,0-1.26-1.31,2.08,2.08,0,0,0-1.49.84l-.77-.76a3.13,3.13,0,0,1,2.44-1.18,2.23,2.23,0,0,1,2.41,2.34c0,1.36-1.26,2.75-2.78,4.34.41,0,.91-.08,1.29-.08h1.86v1.17H27.37Z"/><path class="cls-2" d="M33.43,60c0-2.58,1-3.93,2.59-3.93s2.59,1.35,2.59,3.93-1,4-2.59,4S33.43,62.59,33.43,60Zm3.86,0c0-2.16-.53-2.85-1.27-2.85s-1.27.69-1.27,2.85.53,2.9,1.27,2.9S37.29,62.17,37.29,60Z"/><path class="cls-2" d="M39.87,62.73h1.71v-5H40.16v-.87a4.88,4.88,0,0,0,1.76-.63h1v6.51h1.5v1.12H39.87Z"/><path class="cls-2" d="M45.51,61.9a2.25,2.25,0,0,1,1.37-2v0a2.18,2.18,0,0,1-1-1.78,2.07,2.07,0,0,1,2.3-2,2,2,0,0,1,2.24,2.06,2.27,2.27,0,0,1-1,1.75v0a2.2,2.2,0,0,1,1.33,2c0,1.18-1,2.08-2.58,2.08S45.51,63.13,45.51,61.9Zm3.87,0c0-.83-.81-1.13-1.84-1.56a1.83,1.83,0,0,0-.82,1.44A1.29,1.29,0,0,0,48.12,63,1.12,1.12,0,0,0,49.38,61.88Zm-.15-3.65a1.07,1.07,0,0,0-1.12-1.17,1,1,0,0,0-1,1c0,.76.68,1.1,1.53,1.44A1.85,1.85,0,0,0,49.23,58.23Z"/><path class="cls-2" d="M82.73,62.91c2.12-2.06,3.45-3.4,3.45-4.56A1.18,1.18,0,0,0,84.92,57a2.1,2.1,0,0,0-1.49.85l-.77-.76a3.14,3.14,0,0,1,2.44-1.19,2.23,2.23,0,0,1,2.41,2.34c0,1.36-1.25,2.76-2.77,4.35.4,0,.9-.08,1.28-.08h1.86v1.17H82.73Z"/><path class="cls-2" d="M88.91,59.86c0-2.58,1-3.93,2.59-3.93s2.59,1.36,2.59,3.93-1,4-2.59,4S88.91,62.44,88.91,59.86Zm3.86,0c0-2.16-.53-2.84-1.27-2.84s-1.27.68-1.27,2.84.53,2.91,1.27,2.91S92.77,62,92.77,59.86Z"/><path class="cls-2" d="M95.47,62.58h1.71v-5H95.77v-.86a5,5,0,0,0,1.76-.63h1v6.5h1.5v1.13H95.47Z"/><path class="cls-2" d="M101.3,63l.75-.84a1.67,1.67,0,0,0,1.22.58c1,0,1.79-.78,1.79-3.07,0-1.88-.6-2.67-1.46-2.67-.64,0-1.14.52-1.14,1.45s.44,1.36,1.2,1.36a1.74,1.74,0,0,0,1.41-.95l.06,1a2.3,2.3,0,0,1-1.73,1,2.09,2.09,0,0,1-2.22-2.36,2.38,2.38,0,0,1,2.4-2.51c1.49,0,2.76,1.16,2.76,3.73,0,3-1.43,4.19-3,4.19A2.77,2.77,0,0,1,101.3,63Z"/><path class="cls-2" d="M149.47,63.21c2.12-2.05,3.45-3.39,3.45-4.56a1.18,1.18,0,0,0-1.26-1.31,2.12,2.12,0,0,0-1.49.84l-.76-.76a3.09,3.09,0,0,1,2.43-1.18,2.24,2.24,0,0,1,2.42,2.34c0,1.36-1.26,2.75-2.78,4.34.4,0,.91-.08,1.28-.08h1.87V64h-5.16Z"/><path class="cls-2" d="M155.65,60.17c0-2.58,1-3.93,2.6-3.93s2.59,1.36,2.59,3.93-1,4-2.59,4S155.65,62.75,155.65,60.17Zm3.87,0c0-2.16-.54-2.85-1.27-2.85S157,58,157,60.17s.54,2.9,1.28,2.9S159.52,62.33,159.52,60.17Z"/><path class="cls-2" d="M161.79,63.21c2.11-2.05,3.45-3.39,3.45-4.56A1.18,1.18,0,0,0,164,57.34a2.08,2.08,0,0,0-1.48.84l-.77-.76a3.1,3.1,0,0,1,2.44-1.18,2.23,2.23,0,0,1,2.41,2.34c0,1.36-1.26,2.75-2.78,4.34.4,0,.91-.08,1.28-.08h1.87V64h-5.15Z"/><path class="cls-2" d="M168,60.17c0-2.58,1-3.93,2.59-3.93s2.59,1.36,2.59,3.93-1,4-2.59,4S168,62.75,168,60.17Zm3.86,0c0-2.16-.53-2.85-1.27-2.85s-1.27.69-1.27,2.85.53,2.9,1.27,2.9S171.83,62.33,171.83,60.17Z"/><path class="cls-2" d="M241.66,62.9c2.12-2.06,3.45-3.4,3.45-4.57A1.18,1.18,0,0,0,243.85,57a2.12,2.12,0,0,0-1.49.84l-.77-.76A3.13,3.13,0,0,1,244,55.92a2.23,2.23,0,0,1,2.41,2.34c0,1.36-1.25,2.75-2.77,4.34.4,0,.9-.07,1.28-.07h1.86V63.7h-5.15Z"/><path class="cls-2" d="M247.84,59.85c0-2.58,1-3.93,2.59-3.93S253,57.28,253,59.85s-1,4-2.59,4S247.84,62.43,247.84,59.85Zm3.86,0c0-2.16-.53-2.85-1.27-2.85s-1.27.69-1.27,2.85.53,2.91,1.27,2.91S251.7,62,251.7,59.85Z"/><path class="cls-2" d="M254,62.9c2.12-2.06,3.45-3.4,3.45-4.57A1.18,1.18,0,0,0,256.16,57a2.12,2.12,0,0,0-1.49.84l-.77-.76a3.13,3.13,0,0,1,2.44-1.18,2.23,2.23,0,0,1,2.41,2.34c0,1.36-1.25,2.75-2.77,4.34.4,0,.9-.07,1.28-.07h1.86V63.7H254Z"/><path class="cls-2" d="M260.55,62.57h1.71v-5h-1.41v-.87a4.77,4.77,0,0,0,1.76-.63h1v6.51h1.51V63.7h-4.6Z"/><path class="cls-2" d="M322.45,62.77c2.11-2.05,3.44-3.39,3.44-4.56a1.18,1.18,0,0,0-1.26-1.31,2.08,2.08,0,0,0-1.48.84l-.77-.76a3.09,3.09,0,0,1,2.43-1.18,2.24,2.24,0,0,1,2.42,2.34c0,1.36-1.26,2.75-2.78,4.34.4,0,.91-.08,1.28-.08h1.87v1.18h-5.15Z"/><path class="cls-2" d="M328.63,59.73c0-2.58,1-3.93,2.59-3.93s2.59,1.36,2.59,3.93-1,4-2.59,4S328.63,62.31,328.63,59.73Zm3.86,0c0-2.16-.54-2.85-1.27-2.85s-1.28.69-1.28,2.85.54,2.9,1.28,2.9S332.49,61.89,332.49,59.73Z"/><path class="cls-2" d="M334.76,62.77c2.11-2.05,3.45-3.39,3.45-4.56a1.18,1.18,0,0,0-1.27-1.31,2.08,2.08,0,0,0-1.48.84l-.77-.76a3.11,3.11,0,0,1,2.44-1.18,2.23,2.23,0,0,1,2.41,2.34c0,1.36-1.26,2.75-2.78,4.34.41,0,.91-.08,1.28-.08h1.87v1.18h-5.15Z"/><path class="cls-2" d="M340.91,62.77c2.12-2.05,3.45-3.39,3.45-4.56a1.18,1.18,0,0,0-1.26-1.31,2.12,2.12,0,0,0-1.49.84l-.76-.76a3.09,3.09,0,0,1,2.43-1.18,2.24,2.24,0,0,1,2.42,2.34c0,1.36-1.26,2.75-2.78,4.34.4,0,.9-.08,1.28-.08h1.87v1.18h-5.16Z"/><rect class="cls-1" x="196.74" y="20.34" width="111.05" height="29.72"/><rect class="cls-1" x="131.32" y="27.99" width="62.88" height="22.06"/><rect class="cls-1" x="3.17" y="2.56" width="352.48" height="50.86"/></svg>