<?xml version="1.0" encoding="utf-8"?>
<!-- Generator: Adobe Illustrator 25.2.1, SVG Export Plug-In . SVG Version: 6.00 Build 0)  -->
<svg version="1.1" id="Capa_1" xmlns="http://www.w3.org/2000/svg" xmlns:xlink="http://www.w3.org/1999/xlink" x="0px" y="0px"
	 viewBox="0 0 216.9 35.9" style="enable-background:new 0 0 216.9 35.9;" xml:space="preserve">
<style type="text/css">
	.st0{opacity:0.1;fill:none;stroke:#CBE6DA;stroke-width:0.75;stroke-miterlimit:10;enable-background:new    ;}
	.st1{opacity:0.2;fill:none;stroke:#CBE6DA;stroke-width:0.75;stroke-miterlimit:10;enable-background:new    ;}
	.st2{opacity:0.1;fill:none;stroke:#E1E3F1;stroke-width:0.75;stroke-miterlimit:10;enable-background:new    ;}
	.st3{fill:#84A6A5;stroke:#405462;stroke-miterlimit:10;}
</style>
<rect x="-0.1" y="0.4" class="st0" width="216.5" height="36"/>
<rect x="1.1" y="2.4" class="st0" width="214" height="32.5"/>
<line class="st1" x1="0.4" y1="90.7" x2="216.9" y2="90.7"/>
<rect x="51.5" y="9.9" class="st2" width="157.2" height="19.3"/>
<g id="mapa_00000019666463292015884620000006551647653871212182_">
	<g id="NorteAmerica">
		<path class="st3" d="M25.4,14.1L25.4,14.1l0.2,0l-0.1,0.1L25.4,14.1L25.4,14.1L25.4,14.1L25.4,14.1L25.4,14.1z"/>
		<path class="st3" d="M25.7,13.8L25.7,13.8l-0.2-0.1l-0.1-0.1l0.1,0l0.1,0L25.7,13.8L25.7,13.8z"/>
		<path class="st3" d="M18.1,13.8L18.1,13.8l-0.2-0.1v-0.1l-0.1-0.1l0,0l-0.1,0l0-0.1l0,0l0.1,0l0.1,0l0.1,0v0.1l0,0.1L18.1,13.8
			L18.1,13.8z"/>
		<path class="st3" d="M26.5,13.5l-0.1,0.1L26.5,13.5l0.1,0.1l-0.1,0.1l0.1,0l0.1,0l0.1,0.1l-0.1,0.1l0.1,0l0,0.1l0,0.1l-0.1,0.1
			h-0.1l-0.1,0l0.1-0.1l0,0l-0.2,0.1h-0.1l0.1-0.1l-0.1,0l-0.1,0H26v0l0.1-0.1l0,0l0.1-0.1l0.2-0.2l0.1-0.1l0.1-0.1h0.1l0,0
			L26.5,13.5z"/>
		<path class="st3" d="M17.6,13L17.6,13l0.2,0l-0.2,0.2l0,0.1h-0.1l0-0.1l0-0.1l0-0.1L17.6,13L17.6,13z"/>
		<path class="st3" d="M24.6,11.8L24.6,11.8l-0.1,0.1v0l0,0L24.6,11.8L24.6,11.8L24.6,11.8z"/>
		<path class="st3" d="M24.4,11.7l-0.2,0.1h-0.1v0l0.1-0.1L24.4,11.7L24.4,11.7z"/>
		<path class="st3" d="M24.3,11.3L24.3,11.3L24.3,11.3L24.3,11.3l0.2,0.1l0.1,0l0,0.1l0.1,0l0.1,0.1l-0.1,0l-0.1,0l0-0.1l-0.2,0.1
			L24,11.7l0-0.1l-0.2,0l0.1-0.1l0.1-0.1L24.3,11.3L24.3,11.3z"/>
		<path class="st3" d="M25.4,11.1l-0.1,0l0-0.1l0.1-0.1l0.1,0l0.1,0l0,0.1L25.4,11.1L25.4,11.1z"/>
		<path class="st3" d="M23.6,10.9l-0.1,0.1l-0.1,0l-0.1,0l-0.1-0.1l0.1,0l0.1-0.1l0.1,0L23.6,10.9L23.6,10.9L23.6,10.9z"/>
		<path class="st3" d="M24.9,14.4L24.9,14.4l0-0.3l0,0l-0.1,0l0,0l-0.1,0.1l-0.1,0.1l-0.1,0.1l-0.1,0l0,0l0,0h-0.2h-0.2l-0.1,0
			l-0.2,0.1l0,0l0,0l-0.1,0l-0.1,0l0,0l-0.1,0l-0.1,0l-0.1,0l-0.1,0.1l0,0l0,0h0l0,0.1l-0.1,0l-0.1,0l0,0l-0.1,0l0,0l-0.1,0
			l-0.1,0.1l-0.1,0l0.1-0.1l0.1-0.1l0.1-0.1l0,0l0-0.1l0.1-0.1l0-0.1l0,0.1l0.1,0l0.1-0.1l0-0.1l0-0.1l-0.1,0l-0.1,0h-0.1l-0.1,0
			l0,0l0,0h0l0.1-0.1l0,0l0.1-0.1l0-0.1l0,0l-0.1,0v-0.1l0,0h-0.1l-0.1,0l0,0l0,0l-0.1,0l-0.1,0.1l-0.1,0l-0.1,0l-0.1-0.1l-0.1,0
			l-0.1,0l0,0l0-0.1h-0.1l0,0.1h-0.3H21h-0.4h-0.4h-0.4h-0.4h-0.4H19h-0.4h-0.4h0l-0.1-0.2l0-0.1l-0.2-0.1l0-0.1l0.1-0.1l-0.1-0.1
			l0.1-0.1L18,13l0.1-0.1l0.1-0.1l0.1-0.1l-0.1-0.1l0-0.2l0-0.1l0-0.1l0-0.1l0-0.1l-0.2,0l-0.2,0.1l0-0.1l0-0.1l-0.1,0h-0.1l0.9-0.8
			l0.6-0.5l0.2,0l0.1,0.1l0.1,0l0.2-0.1l0.2,0l0.1,0l0.2-0.1l0.2,0v0.1l0.1,0l0.1-0.1l0.1,0l0,0.1l0.2-0.1l-0.1,0.1l0.2,0l0.1,0
			l0.1,0l0.1,0.1l0.2,0.1l0.1,0l0.1,0l0.1,0.1L21.4,11l0.2,0l0.3,0l0.1,0l0,0.1l0.2-0.1l0-0.1l0.1,0l0.1,0l0.1,0l0.1,0l0,0.1l0.1,0
			l0.1,0.1l0.2,0h0.2l0.1-0.1l0.1,0l0.1,0l-0.1,0.1l0.2-0.1h0.1l0.2-0.1l0-0.1l-0.1-0.1l0.2-0.1l0.2-0.1l0.1,0l0,0.1l0,0.2L24,10.8
			l0.2,0L24,10.9l0.2-0.1l0.1,0.1L24.2,11l0,0.1l0.2-0.1l0.2-0.1l0.1-0.1l0.1,0l0.1,0l0.1,0.1l0,0.1L24.9,11l0,0.1l-0.1,0.1
			l-0.3,0.1l-0.2,0l-0.1,0l-0.1,0.1L24,11.4L24,11.5l-0.2,0.1l-0.2,0l-0.1,0.1l-0.1,0.1l-0.1,0l-0.2,0.1L22.9,12l-0.1,0.1l-0.1,0.2
			l0.2,0l0,0.1l0,0.1l0.2,0l0.2,0.1l0.1,0.1l0,0.1l0.1,0l0.1,0.1l0.2,0l0.1,0L23.6,13l0,0.2v0.2l0.1,0.1l0.1-0.1l0.1-0.2L24,13
			l0-0.1l0.2-0.1l0.2-0.1l0.1-0.1l0-0.1l0-0.1l-0.1-0.1l0.2-0.2l0-0.1l0.1-0.2l0.1,0l0.2,0l0.1,0l0.1,0l0.1,0.1l0.1,0.1v0.1l0.2,0
			l-0.1,0.1l-0.1,0.2l0.1,0l0,0.1l0.2-0.1l0.2-0.2l0.1-0.1l0,0.1l0.1,0.2l0.1,0.2l-0.1,0.1l0.1,0.1l0.1,0.1l0.2,0.1l0.1,0.1V13
			l0.1,0l0,0.1l-0.1,0.2l-0.1,0.1l-0.1,0.1l-0.2,0.1L26,13.6l-0.2,0l-0.3,0h-0.2l-0.1,0l-0.1,0.1l-0.2,0.1L24.7,14l-0.2,0.1l0.1,0
			l0.3-0.2l0.3-0.1l0.2,0l0.1,0.1l-0.2,0.1l0,0.2v0.1l0.1,0.1l0.2,0l0.2-0.2l0,0.1l0.1,0.1l-0.2,0.1l-0.3,0.1l-0.1,0.1L25,14.6
			l-0.1,0L24.9,14.4l0.4,0H25L24.9,14.4z"/>
		<path class="st3" d="M22.2,10.3l-0.1,0.1l0.3,0l0.1,0.1l0.2-0.1l0,0l-0.1,0.1l0.1-0.1l0.1-0.1l0.1,0l0.1,0l0.1,0.1L23,10.5
			l-0.1,0.1l0.1,0.1l0.1,0.1l-0.1,0.1l-0.2,0l0,0.1l-0.1,0.1l-0.2,0l-0.1,0l-0.1,0l-0.2,0.1l-0.3,0l-0.2,0l0-0.1l-0.1,0l-0.1,0
			l0-0.1l0.1,0l0.2,0l0.1,0l0.2,0l-0.2,0l-0.2,0h-0.1v-0.1l0.3-0.1h-0.2l-0.1,0l0.2-0.1l0.1-0.1L22.2,10.3L22.2,10.3z"/>
		<path class="st3" d="M23.2,10.3l-0.2,0.1L23,10.3l0.1,0L23.2,10.3L23.2,10.3z"/>
		<path class="st3" d="M25.9,10.3L25.9,10.3l-0.1,0h-0.1l-0.1,0l0,0l-0.1-0.1l0,0l0.1,0l0.2,0L25.9,10.3z"/>
		<path class="st3" d="M24.9,10.3L24.9,10.3l0.2,0l0.3-0.1l0.1,0.1l-0.1,0.1l0.2,0l0.1-0.1l0.2,0.1l0.1,0.1l0,0.1l0.2,0l0.1,0.1
			l0.2,0.1l0.1,0.1l0,0.1l-0.2,0.1l0.2,0.1l0.1,0l0.1,0.1l0.2,0l-0.1,0.1l-0.3,0.2l-0.1-0.1l-0.1-0.1l-0.1,0l-0.1,0.1l0.1,0.1
			l0.1,0.1l0,0v0.1l-0.1,0.1l-0.1,0l-0.2-0.1l0.1,0.1l0.1,0.1l0,0.1l-0.3-0.1l-0.2-0.1l-0.1-0.1l0.1,0l-0.1-0.1l-0.1-0.1l0,0l-0.3,0
			l-0.1-0.1l0.1-0.1h0.2l0.2,0v-0.1l0.1-0.1l0.2-0.1l0-0.1l0,0l-0.1-0.1l-0.2,0l0.1,0l-0.1-0.1l-0.1,0l-0.1,0l-0.1,0l-0.2,0l-0.3,0
			l-0.2,0l-0.1,0l-0.1-0.1l0.2-0.1h-0.1l0.1-0.1l0.2-0.1l0.2-0.1l0.3,0L24.9,10.3z"/>
		<path class="st3" d="M23.7,10.2L23.7,10.2l0.3,0l0,0l-0.2,0.1l0.1,0.1l-0.1,0.1l-0.2,0.1l-0.1,0l0-0.1l-0.1-0.1l0,0l0.2,0l0-0.1
			L23.7,10.2z"/>
		<path class="st3" d="M24.2,10.4L24,10.5h-0.1l0-0.1l0.1-0.1l0.1-0.1l0.1,0h0.2l0.2,0l-0.3,0.1L24.2,10.4z"/>
		<path class="st3" d="M21.4,10.5l-0.3,0.1l0-0.1l-0.2-0.1l0.1-0.1l0.2-0.1l0.2-0.1l0-0.1l0.3,0l0.1,0l0.2,0l0.1,0l0,0.1l-0.2,0
			l-0.3,0.1L21.4,10.5L21.4,10.5z"/>
		<path class="st3" d="M24.5,10.1l-0.1,0.1l-0.1,0l-0.1,0l0.1-0.1L24.5,10.1L24.5,10.1L24.5,10.1z"/>
		<path class="st3" d="M24.3,9.9L24.3,9.9L24.2,10L24,10.1l-0.2,0l-0.1,0l0.1-0.1l-0.2,0l0.1-0.1h0.1l0.2,0L24.3,9.9L24.3,9.9z"/>
		<path class="st3" d="M23.3,9.9L23.3,9.9L23.3,9.9l0.2,0L23.4,10l-0.1,0.1l-0.3,0l-0.3,0.1h-0.2l0,0l0.3-0.1l-0.4,0l-0.1,0l0.3-0.1
			l0.1,0l0.2,0l0.1,0.1l0.2,0l0-0.1L23.3,9.9L23.3,9.9L23.3,9.9z"/>
		<path class="st3" d="M24.7,9.8L24.7,9.8l0.2,0l0,0l-0.1,0l0.1,0l0,0h0.1l0.1,0l0.2,0l0.2,0l0.1,0l0.1,0.1l0,0.1l-0.1,0l-0.2,0
			l-0.1,0l-0.3,0h-0.2l-0.1,0l-0.2,0l0-0.1l0.1-0.1l0-0.1l-0.2,0l-0.1,0l0.1-0.1H24.7z"/>
		<path class="st3" d="M22.8,9.8l-0.1,0.1l-0.1,0h-0.1L22.2,10L22,10l-0.1,0l0.3-0.1l0.3-0.1h0.1L22.8,9.8z"/>
		<path class="st3" d="M24.8,9.8L24.8,9.8l-0.2,0l0,0L24.8,9.8L24.8,9.8L24.8,9.8z"/>
		<path class="st3" d="M23.3,9.8l-0.2,0l-0.1,0l0.1,0L23.3,9.8L23.3,9.8L23.3,9.8z"/>
		<path class="st3" d="M23.5,9.7l-0.1,0h-0.2l0,0l0.1,0L23.5,9.7L23.5,9.7z"/>
		<path class="st3" d="M24.7,9.7l-0.2,0l0,0l0,0l0.1-0.1h0.1L24.7,9.7L24.7,9.7L24.7,9.7z"/>
		<path class="st3" d="M24.3,9.7L24.3,9.7l-0.2,0l-0.1,0h-0.2l0.1,0l-0.1,0l0.1,0l0.2,0L24.3,9.7L24.3,9.7z"/>
		<path class="st3" d="M25.7,9.5L25.7,9.5L25.7,9.5l-0.4,0.2l-0.2,0l-0.2,0l0-0.1l0.1,0l0.1,0H25l-0.1,0l0-0.1L25,9.4l0.1,0l0.1,0
			l0,0h0.2l0,0.1l0.1,0L25.7,9.5L25.7,9.5z"/>
		<path class="st3" d="M27.6,9.2l0.2,0l0.2,0l0.1,0l0,0l-0.2,0l-0.2,0l-0.1,0h0.2l-0.3,0.1l-0.2,0l-0.2,0.1l-0.2,0l-0.1,0l-0.3,0
			l0.1,0l-0.1,0l0,0.1l-0.1,0l-0.2,0l-0.1,0l-0.2,0l0,0h0.2l0,0L25.8,10l-0.2,0l-0.3,0l-0.1,0l-0.2,0l0.1-0.1l0.2,0l0.1-0.1l0.1,0
			l0.2,0.1l0-0.1l-0.1,0l0.1,0l0.2,0l0.1,0l-0.1,0l0-0.1H26l0.1,0l0.2,0l-0.2,0h-0.3l-0.1,0l0,0l-0.1,0l0,0l0.2,0h0.1l0.2,0l0.2,0
			h0.1l0.1,0l0.1-0.1l0.1,0l0.2,0H27l0,0l0.3,0h0.2L27.6,9.2z"/>
		<path class="st3" d="M22.3,13.9L22.1,14L22,14l-0.1,0.1l0,0l0.1,0l0.1,0.1l0.1,0l0.1-0.1l0.1-0.1l-0.1,0.1l0.1,0l0.1,0.1l0.1,0
			l0.1,0l0,0h0h0l0,0.1l-0.1,0l0,0l-0.1,0l-0.1,0l-0.1,0l-0.1,0.1l-0.1,0.1l0,0l0.1-0.1h0l-0.1,0.1l-0.1,0.1l-0.1,0.1l0,0.1l0,0l0,0
			v0.1l0,0h0l0,0l0,0l0.1-0.1l0-0.1v-0.1l0-0.1l0.1-0.1l0.1-0.1l0.1,0l0,0.1l0.1-0.1l0,0l0-0.1l0.1,0l0.1,0.1l0,0.1l0,0.1l-0.1,0.1
			l0,0h0l0.1-0.1l0,0l0,0.1l0,0.1l-0.1,0.1l-0.1,0.1l-0.1,0.1l0.1,0l0.1,0l0.1,0l0.1,0l0.1,0l0.1,0l0.1-0.1v0l0-0.1l0.1,0l0.1,0
			l0.1,0l0.1-0.1l0-0.1v0l0.2-0.1l0.1,0h0.2h0.2l0,0l0,0l0.1,0l0.1-0.1l0.1-0.1l0.1-0.1l0,0l0.1,0l0,0l-0.1,0.2l0.1,0.1v0.1
			l-0.2,0.1l-0.2,0.1l-0.2,0.1l-0.1,0.1l0,0l0,0.1l0,0.1h0.1v-0.1l0,0l0,0l-0.1,0h-0.1l-0.1,0L24,15l-0.1,0L23.8,15l0.2,0l0,0
			l-0.2,0.1h-0.1l0,0l-0.1,0l0,0l-0.1,0.1l-0.1,0.1v0l0,0l0,0v0.1l0,0l0,0.1l-0.1,0.1l-0.1,0.1h0l0.1-0.1l-0.1-0.1l0-0.1l-0.1,0.1
			v0.1l-0.1,0l0.1,0.1l0,0.2l0,0v0.1l0,0.2L23.2,16L23,16.1l-0.1,0.1l-0.1,0l-0.1,0.1l0,0.1l-0.2,0.1l-0.1,0.1l-0.1,0.1l-0.1,0.1
			v0.1l0,0.1l0,0.1l0,0.1l0,0.2l0,0.1l0,0.1l-0.1,0.1l0,0l-0.1,0l0-0.1l-0.1,0l-0.1-0.1l0-0.1v-0.1l0.1-0.1l0-0.1L22,16.8l-0.1,0
			l-0.2,0.1l0,0l-0.1-0.1l-0.1,0l-0.2,0l-0.1,0l-0.1,0l-0.1,0l0,0l0,0.1l0,0l0,0l0,0l-0.1,0h-0.1L21,16.8l-0.1,0l-0.1,0l-0.1,0
			l-0.1,0L20.4,17L20.3,17l-0.1,0.1l-0.1,0.1l0,0.1l0,0.1l0,0.1H20l-0.1,0l-0.1-0.1l0-0.1v-0.1L19.8,17l0-0.1l0-0.1l-0.1-0.1h-0.1
			l-0.1,0.1l-0.1-0.1l-0.1-0.1l0-0.1l0-0.1l-0.1-0.1l-0.1-0.1l0-0.1h-0.2l0,0.1h-0.1h-0.3l-0.3-0.1L18,16.4l0,0l-0.2,0l-0.2,0l0-0.1
			l-0.1-0.1l-0.1,0v0l-0.1,0l0,0l-0.1,0l0,0l0-0.1l-0.1-0.2l0-0.2l0,0l0-0.1l0-0.1l0-0.1l0-0.1l0.1-0.1l0.1-0.1l0-0.1l0.1-0.2
			l0.1-0.1l0.1-0.1l0.1-0.2l0-0.1l0-0.1l0,0l0.1,0.1l0,0.1l0.1,0l0.1-0.1l0-0.1h0.4H19h0.1h0.4h0.4h0.4h0.4H21h0.4h0.3l0-0.1h0
			l0,0.1l0,0l0.1,0l0.1,0l0.1,0.1l0.1,0L22.3,13.9z"/>
		<path class="st3" d="M15.7,12.6l-0.2,0.1l0,0l0.1-0.1l0.2-0.1l0.1,0l0.1,0v0.1L15.7,12.6z"/>
		<path class="st3" d="M19.1,10.8l-0.6,0.5l-0.9,0.8h0.1l0.1,0l0,0.1l0,0.1l0.2-0.1l0.2-0.1l0,0.1l0,0.1l0,0.1l0,0.1l0,0.2l0.1,0.1
			l-0.1,0.1L18,12.9l0-0.1L18,12.8l0.1-0.1l0-0.1l0.1-0.1l-0.1,0h-0.2l-0.1,0l-0.1-0.2l-0.1,0l-0.1-0.1l-0.2,0l-0.1-0.1L17,12
			l-0.2,0l-0.1,0.1l-0.1,0l-0.2,0l-0.2,0.1l-0.2,0l0.1-0.1l0.2-0.1l0.2,0l0,0L16.4,12l-0.2,0.1L16,12.2v0.1l-0.2,0.1l-0.2,0.1
			l-0.2,0.1l-0.1,0.1l-0.3,0.1l-0.1,0.1l-0.2,0.1h-0.1l-0.2,0l-0.2,0.1l-0.2,0.1l-0.3,0l0,0l0.2-0.1l0.2-0.1l0.2-0.1l0.2,0l0.1-0.1
			l0.3-0.1l0.1,0l0.1-0.1l0.1-0.1l0.2-0.1l-0.2,0l0,0l-0.1,0.1l0-0.1l-0.1,0.1l0-0.1L15,12.3H15l0.1-0.1l0.1-0.1l0-0.1l-0.2,0l0-0.1
			l0,0L15,12l0-0.1l0.1-0.1l0.2-0.1l0.1-0.1l0.1,0l0,0l0.2-0.1l0.1,0l0.1,0l0.1-0.1l0,0l0.2-0.1h-0.1l-0.2,0l-0.1,0l0,0h-0.2l-0.1,0
			l0-0.1l0-0.1l0.2-0.1l0.3-0.1h0.1l-0.1,0.1h0.2l0-0.1l-0.1-0.1l0-0.1l0-0.1l-0.1,0l0.2-0.1h0.2l0.2-0.1l0.1-0.1l0.2-0.1l0.1,0
			l0.3-0.1l0.1,0l0.3-0.1l0.1,0l0,0.1l0.1,0l0.2,0l-0.1,0l0.1,0l0.1,0l0.2,0l0.2,0l0.1,0l0.2,0l0.1,0L19.1,10.8z"/>
	</g>
	<g id="Europa">
		<path id="AL_00000181769642464400432920000000197276372438191538_" class="st3" d="M36.9,18L36.9,18L36.9,18l0.2,0.1l0.1,0l0,0.1
			l0,0.1l0,0.1l0.1,0.1v0.1l-0.1,0v0.1l-0.1,0.2l0,0V19l-0.2-0.1l0-0.1v-0.2l0-0.1l0,0l0-0.1L36.9,18L36.9,18z"/>
		<path id="AT_00000166657698927445937950000018316823634350026405_" class="st3" d="M36,16.1L36,16.1l0,0.1v0.1h-0.1l0.1,0.1
			l-0.1,0.2l0,0.1h-0.2l-0.1,0.1l-0.2,0l-0.4-0.1l-0.1-0.1l-0.3,0.1l0,0.1l-0.2,0h-0.1l-0.1-0.1l0-0.1v-0.1l0.1,0l0.1,0.1l0-0.1
			l0.2,0l0.2-0.1h0.1l0.1,0.1l0-0.1l0-0.2l0.1,0l0.1-0.1l0.2,0.1l0.1-0.1l0.1,0l0.2,0.1L36,16.1L36,16.1L36,16.1z"/>
		<path id="BE_00000063591193351636585200000009334657493702740872_" class="st3" d="M33.2,15.4l0,0.2h-0.1l0,0.2l-0.2-0.1l-0.1,0
			l-0.2-0.1l-0.1-0.1h-0.1l0-0.1l0.2-0.1l0.2,0l0.2-0.1l0.2,0.1L33.2,15.4L33.2,15.4z"/>
		<path id="BG_00000118364639693703636930000011497467317832659636_" class="st3" d="M39.2,17.7l-0.1,0.1L39,18l0.1,0.2l-0.2,0
			l-0.3,0.1l0,0.2l-0.2,0l-0.2-0.1L38,18.4h-0.2l0-0.2l-0.1-0.1l0,0l0,0l0-0.1l0.1-0.1l-0.1-0.1l0-0.1l0.1-0.1l0.1,0.1l0.1,0l0.2,0
			l0.4,0l0.1-0.1l0.3-0.1l0.2,0.1L39.2,17.7L39.2,17.7z"/>
		<path id="BA_00000072982475713745917990000010992023606327909279_" class="st3" d="M36.6,17.3h0.1l-0.1,0.2l0.1,0.1l0,0.2l-0.1,0
			l0,0l-0.1,0.1l0,0.2l-0.3-0.1l-0.1-0.2l-0.1-0.1L36,17.6l-0.1-0.1l-0.1-0.2l0-0.1l0.1,0.1l0-0.1h0.1l0.2,0.1h0.2L36.6,17.3
			L36.6,17.3z"/>
		<path id="BY_00000058575783971256242370000015821417325554348710_" class="st3" d="M39.6,14.7h-0.2l0,0l0.1,0.1l0.1,0.2l-0.2,0
			l-0.1,0.1l0,0.2l-0.1,0l-0.2,0l-0.1-0.1l-0.1,0.1l-0.1,0h-0.2l-0.3-0.1l-0.3,0h-0.2l-0.1,0.1l-0.1,0l0-0.1l-0.1-0.1l0.1-0.1l0-0.1
			l-0.1-0.1l0-0.2h0.3l0.3-0.1l0-0.2l0.2-0.1l0-0.1l0.1,0l0.2-0.1l0.3,0.1l0,0.1l0.1,0l0.3,0.1l0.1,0.1l0,0.1l0.2,0.2l0.1,0.1v0.1
			l0.2,0.1V14.7L39.6,14.7L39.6,14.7z"/>
		<path id="CH_00000057826587131792242410000000721663092197101722_" class="st3" d="M34.1,16.4L34.1,16.4l0,0.2l0.1,0.1h0.1l0,0.1
			l-0.1,0.1l-0.2,0l0,0.1h-0.1l0,0L33.6,17l-0.1,0L33.4,17l-0.1-0.1l-0.1,0v-0.1l0.2-0.2v-0.1l0.1,0l0.1-0.1h0.2l0-0.1L34.1,16.4
			L34.1,16.4z"/>
		<path id="CZ_00000036229285236435813980000009094922995926469773_" class="st3" d="M35.4,15.3l0.1,0.1l0.2,0v0.1l0.1,0.1l0-0.1
			l0.2,0l0,0.1l0.2,0l0.1,0.2h-0.1l0,0.1l-0.1,0V16l0,0v0l-0.1,0H36l0,0.1L35.9,16l-0.1,0L35.5,16l-0.1,0l-0.1,0.1L35.1,16L35,15.9
			l-0.1-0.1l0-0.1l0-0.1l0.2-0.1l0.1-0.1l0.2-0.1l0.1-0.1L35.4,15.3L35.4,15.3L35.4,15.3z"/>
		<path id="DE_00000052797751351755535430000014585693104837179564_" class="st3" d="M35.1,14.5l0.1,0.2l-0.1,0.1l0.1,0.1l0.1,0.2
			v0.1l0.1,0.2l-0.1,0l-0.1,0l-0.1,0.1L35,15.4l-0.1,0.1l-0.2,0.1l0,0.1l0,0.1l0.1,0.1l0.1,0.1L35,16.2l-0.1,0l0,0.2l0,0.1l-0.1-0.1
			h-0.1l-0.2,0.1l-0.2,0l0,0.1l-0.1-0.1l-0.1,0l-0.3-0.1l0,0.1h-0.2l0-0.2l0.1-0.2l-0.4-0.1l-0.1-0.1v-0.1l0-0.1l0-0.2l-0.1-0.3h0.1
			l0.1-0.1l0-0.3l0-0.1l0-0.1l0.2,0l0,0.1l0.2-0.1l-0.1-0.1l0-0.2l0.2,0l0.1,0l0,0.1l0.3,0.1v0.1l0.3-0.1l0.1-0.1l0.3,0.1L35.1,14.5
			L35.1,14.5z"/>
		<path class="st3" d="M34.7,13.9l-0.1,0.3l-0.3-0.2l0-0.1l0.4-0.1L34.7,13.9z"/>
		<path class="st3" d="M34,14.1l-0.1,0l-0.2,0l-0.1-0.2l0-0.3l0-0.1l0.1-0.1l0.2,0l0.1-0.1l0.2-0.1v0.2l-0.1,0.1l0,0.1l0.1,0l0,0.1
			l-0.1,0L34,14L34,14.1z"/>
		<path id="EE_00000021809997492774264100000004601838147700944774_" class="st3" d="M38.2,12.7L38.2,12.7l-0.1,0.2l0.1,0.3
			l-0.1,0.1H38l-0.2-0.1l-0.1,0l-0.2,0V13l-0.1,0l-0.2-0.1l0-0.2l0.3-0.1l0.3,0l0.3,0L38.2,12.7L38.2,12.7z"/>
		<path id="FI_00000169549536942004250370000009681418057900698511_" class="st3" d="M37.7,9.9l0,0.2l0.4,0.2L38,10.5l0.3,0.3
			L38.2,11l0.3,0.2l0,0.2l0.4,0.2l0,0.1L38.6,12l-0.4,0.4l-0.4,0l-0.4,0.1L37,12.5l-0.2-0.2l-0.3-0.1V12l-0.1-0.3l0.1-0.2l0.2-0.2
			l0.5-0.3l0.1-0.1l0-0.1l-0.3-0.1l-0.1-0.1l-0.1-0.4L36.3,10L36,9.8l0.1-0.1l0.3,0.1h0.3l0.3,0.1l0.2-0.1l0.1-0.2l0.3-0.1l0.3,0.1
			L37.7,9.9L37.7,9.9z"/>
		<path class="st3" d="M30.1,14.4l-0.2-0.1h-0.1l0.1-0.2l0-0.2l0.2,0l0.3,0.2L30.1,14.4z"/>
		<path class="st3" d="M30.9,12.9l-0.3,0.3l0.3,0h0.3l-0.1,0.3l-0.2,0.3l0.3,0l0,0l0.2,0.4l0.2,0l0.1,0.4l0.1,0.1l0.3,0.1l0,0.2
			l-0.1,0.1l0.1,0.2l-0.2,0.2h-0.3L31,15.5l-0.1-0.1l-0.2,0.1l-0.2,0l-0.2,0.1l-0.1-0.1l0.4-0.3l0.2-0.1l-0.4,0L30.3,15l0.3-0.1
			l-0.1-0.2l0-0.2l0.4,0l0-0.2l-0.2-0.2l0,0l-0.3-0.1L30.4,14l0.1-0.1l-0.1-0.1L30.2,14v-0.3l-0.1-0.1l0.1-0.3l0.2-0.3l0.2,0
			L30.9,12.9z"/>
		<path class="st3" d="M38.6,18.6h-0.2l-0.1,0L38,18.7l0.2,0.2L38.1,19h-0.1l-0.2-0.2l0,0.1l0.1,0.2l0.1,0.1l-0.1,0.1l0.2,0.1
			l0.1,0.1l0,0.2l-0.3-0.1l0.1,0.2l-0.2,0l0.1,0.3h-0.2l-0.2-0.1l-0.1-0.3l-0.1-0.2l-0.1-0.1l-0.1-0.2l0-0.1l0.1-0.2v-0.1l0.1,0
			v-0.1l0.2,0l0.1-0.1h0.1l0-0.1h0h0.2l0.2-0.1l0.2,0.1l0.2,0l0-0.2l0.1,0.1L38.6,18.6L38.6,18.6z"/>
		<path id="HR_00000129175095124657534560000016160855779831652765_" class="st3" d="M36.5,17l0.1,0.1l0.1,0.1l-0.1,0.1l-0.1-0.1
			h-0.2l-0.2-0.1h-0.1l0,0.1l-0.1-0.1l0,0.1l0.1,0.1l0.1,0.1l0.1,0.1l0.1,0.1l0.1,0.1l0.3,0.1l0,0l-0.3-0.1l-0.2-0.1l-0.3-0.1
			l-0.3-0.2l0,0l-0.1-0.1v0l-0.2,0l-0.1,0.1l-0.1-0.1v-0.1l0,0h0.2l0,0l0.1,0h0.1v-0.1l0.1,0l0-0.1l0.2-0.1l0.1,0l0.2,0.1L36.5,17
			L36.5,17L36.5,17z"/>
		<path id="HU_00000096052420279378086380000017357287928664327100_" class="st3" d="M37.3,16.2l0.1,0.1l0,0.1l-0.1,0.1l-0.1,0.2
			l-0.1,0.2l-0.2,0.1l-0.2,0L36.5,17l-0.1,0L36.2,17L36,16.8l-0.1,0l-0.1-0.1h0l0.1-0.2l-0.1-0.1h0.1v-0.1l0.1,0.1l0.1,0l0.2,0
			l0-0.1h0.1l0.1,0l0,0l0.1,0l0-0.1l0.1,0L37.3,16.2L37.3,16.2L37.3,16.2z"/>
		<path id="IE_00000085948468058423305590000002369624116110865067_" class="st3" d="M30.1,14.4l0,0.2L29.9,15l-0.5,0.2l-0.4,0
			l0.2-0.3l-0.1-0.3l0.3-0.3l0.2-0.1l0,0.2l-0.1,0.2h0.1L30.1,14.4L30.1,14.4z"/>
		<path class="st3" d="M35.8,19.5l-0.1,0.3l0,0.1l0,0.2l-0.2-0.1l-0.1,0L35,19.7l0-0.2l0.3,0l0.3,0L35.8,19.5z"/>
		<path class="st3" d="M34.1,18.5l0.2,0.2l0,0.4l-0.1,0L34,19.3l-0.1-0.1l0-0.4l-0.1-0.2l0.1,0L34.1,18.5z"/>
		<path class="st3" d="M35.2,16.7l0,0.2l0.1,0.1L35,17l-0.2,0.1l0,0.2l0,0.1l0.1,0.2l0.3,0.2l0.1,0.3l0.3,0.3h0.2l0.1,0.1l-0.1,0.1
			l0.3,0.1l0.2,0.1l0.3,0.2l0,0.1l0,0.1l-0.2-0.1l-0.2,0L36,19l0.2,0.1l0,0.2l-0.1,0L36,19.6l-0.1,0v-0.1l0-0.2l0.1-0.1l-0.1-0.2
			l-0.1-0.2l-0.1,0l-0.1-0.1l-0.2-0.1l-0.1-0.1l-0.2,0l-0.2-0.1l-0.3-0.2L34.4,18l-0.1-0.3l-0.1,0L34,17.5l-0.1,0l-0.1,0.1l-0.1,0
			l0-0.1l-0.1,0l-0.1-0.3l0.1-0.1l-0.1-0.1V17l0.1,0.1l0.1,0l0.1-0.1l0,0h0.1l0-0.1l0.2,0l0.1-0.1l0-0.1l0.2,0l0-0.1l0.3-0.1
			l0.1,0.1L35.2,16.7z"/>
		<path id="LT_00000081636494208680344700000013000889055640229514_" class="st3" d="M38.1,13.9l0,0.1l-0.2,0.1l0,0.2l-0.3,0.1h-0.2
			l-0.1-0.1l-0.1,0l0-0.1v-0.1l-0.1,0L36.8,14l-0.1-0.3l0.3-0.1l0.4,0l0.2,0l0,0.1l0.1,0L38.1,13.9L38.1,13.9z"/>
		<path id="LU_00000011028677551439156920000013480907628701392055_" class="st3" d="M33.2,15.8L33.2,15.8l-0.1,0l0-0.2h0.1l0,0.1
			L33.2,15.8L33.2,15.8z"/>
		<path id="LV_00000163754918663069750850000017323126027589291435_" class="st3" d="M38.1,13.3l0.1,0.1l0,0.1l0.1,0.2l-0.2,0.1
			l-0.1,0l-0.3-0.1l-0.1,0l0-0.1l-0.2,0l-0.4,0l-0.3,0.1l0-0.2l0.1-0.2l0.2-0.1l0.2,0.2h0.2v-0.2l0.2,0l0.1,0l0.2,0.1H38.1
			L38.1,13.3z"/>
		<path id="MD_00000096740865847498768530000005771311485827605925_" class="st3" d="M39,17.1L38.9,17v-0.1l0-0.1l-0.2-0.2l-0.1-0.1
			l-0.1-0.1l-0.1,0l0.1,0l0.2,0l0.2,0.1l0.1,0l0.1,0.1v0.1l0.1,0l0.1,0.1l0.1,0.1v0l0,0l-0.1,0h-0.1l0,0l0,0l0,0.1L39.2,17l0,0.1
			L39,17.1L39,17.1z"/>
		<path id="MK_00000080897845792043031860000015783862365573632140_" class="st3" d="M37.8,18.5L37.8,18.5L37.8,18.5l-0.2,0.1
			l-0.1,0.1l-0.2,0l-0.1-0.1l0-0.1l0-0.1h0v-0.1l0.1,0l0.1,0l0.1,0h0.1l0.1,0.1L37.8,18.5L37.8,18.5z"/>
		<path id="ME_00000148656074534969590620000017108395953395733140_" class="st3" d="M37,18L37,18l-0.1,0.1l0-0.1l-0.1,0.2l0,0.1
			l-0.1,0l-0.1-0.1l-0.1-0.1l0,0l0-0.2l0.1-0.1l0,0l0.1,0.1l0,0l0.1,0L37,18L37,18L37,18z"/>
		<path class="st3" d="M38.2,9.7l-0.3,0.1l-0.2,0l0-0.2l-0.3-0.1l-0.3,0.1l-0.1,0.2L36.9,10l-0.3-0.1h-0.3l-0.3-0.1L36,9.9h-0.1V10
			l-0.4,0l0,0.2h-0.2l-0.1,0.2l-0.2,0.3l-0.3,0.4l0.1,0.1l-0.1,0.1h-0.2l-0.1,0.3l0,0.4l0.2,0.1l0,0.4l-0.2,0.2l-0.1,0.2L34,12.7
			L33.6,13l-0.3,0.1l-0.3-0.1l-0.1-0.3l-0.1-0.7l0.2-0.2l0.6-0.3l0.4-0.3l0.4-0.4l0.5-0.5l0.3-0.2l0.5-0.4l0.4-0.1l0.3,0l0.3-0.2
			h0.4l0.4,0l0.7,0.2l-0.3,0.1L38.2,9.7z"/>
		<path id="PL_00000091007377536026367340000017479293848245179547_" class="st3" d="M36.4,14.3l0.3,0h0.5l0.1,0l0.1,0.1l0,0.1
			l0.1,0.1l0,0.1l-0.1,0.1l0.1,0.1l0,0.1l0.2,0.3l0,0.1l-0.1,0l-0.2,0.3l0.1,0.1l-0.1,0l-0.3-0.1l-0.2,0l-0.1,0L36.6,16l-0.1-0.1
			l-0.1,0l0,0l-0.1-0.2l-0.2,0l0-0.1l-0.2,0l0,0.1l-0.1-0.1v-0.1l-0.2,0l-0.1-0.1l-0.1-0.2V15l-0.1-0.2L35,14.8l0.1-0.1L35,14.5
			l0.2-0.1l0.4-0.1l0.3-0.1l0.3,0l0,0.1L36.4,14.3L36.4,14.3z"/>
		<path id="RO_00000116951002509267121840000009209998841940445337_" class="st3" d="M38.5,16.2L38.5,16.2l0.2,0.1l0.1,0.1l0.2,0.2
			l0,0.1V17l0.1,0.1l0.1,0.1l0.1-0.1l0.1,0.1l0,0.1l-0.1,0.1l-0.1,0l0,0.4l-0.2,0l-0.2-0.1l-0.3,0.1l-0.1,0.1l-0.4,0l-0.2,0l-0.1,0
			l-0.1-0.1l0-0.1l0-0.1l-0.1,0l-0.1,0.1l-0.2-0.1l0-0.1L37,17.1l0-0.1l-0.1-0.1l0.2-0.1l0.1-0.2l0.1-0.2l0.1-0.1l0.1-0.1l0.2,0h0.2
			l0.1,0.1l0.1,0l0.2,0l0-0.1L38.5,16.2L38.5,16.2z"/>
		<path id="RS_00000152222880581590986410000016045644082722059914_" class="st3" d="M37.6,17.5L37.6,17.5l0,0.2l0.1,0.1L37.6,18
			l0,0.1l0,0l0,0h-0.1l-0.1,0l0,0l0,0l0-0.1h0L37.3,18l0,0l0,0l0,0l0,0l0,0l0,0.1L37,18l0,0l-0.1-0.1l-0.1,0l0,0l-0.1-0.1l0.1,0
			l0-0.1l-0.1-0.1l0.1-0.1h-0.1l0.1-0.1l-0.1-0.1L36.5,17l0.2-0.1l0.2,0L37,17l0,0.1l0.2,0.1l0,0.1l0.2,0.1l0.1-0.1l0.1,0L37.6,17.5
			L37.6,17.5L37.6,17.5z"/>
		<path id="SK_00000119113649904833859700000011887282503700103568_" class="st3" d="M37.4,15.9L37.4,15.9l-0.1,0.2l0,0l-0.3-0.1
			l-0.1,0l0,0.1l-0.1,0l0,0l-0.1,0h-0.1l0,0.1l-0.2,0l-0.1,0L36,16.2l0-0.1l0,0l0-0.1h0.1l0.1,0v0l0,0v-0.1l0.1,0l0-0.1h0.1l0,0
			l0.1,0l0.1,0.1l0.1-0.1l0.1,0l0.2,0L37.4,15.9L37.4,15.9z"/>
		<path id="SI_00000090252507181142223390000016873778934074611349_" class="st3" d="M35.9,16.8l-0.2,0.1l0,0.1l-0.1,0v0.1h-0.1
			l-0.1,0l0,0h-0.2l0.1,0L35.2,17l0-0.2l0.2,0l0.1-0.1h0.2l0-0.1h0L35.9,16.8L35.9,16.8z"/>
		<path id="SE_00000062910021098843015920000006883057717895033513_" class="st3" d="M36.9,10.8l-0.4,0.1L36.3,11l0.1,0.2l-0.3,0.2
			l-0.4,0.3l-0.1,0.4l0.2,0.2l0.3,0.2l-0.2,0.3l-0.2,0.1l0,0.5l-0.1,0.3l-0.3,0L35.1,14l-0.3,0l-0.1-0.3l-0.2-0.4l-0.2-0.4l0.1-0.2
			l0.2-0.2l0-0.4L34.4,12l0-0.4l0.1-0.3h0.2l0.1-0.1l-0.1-0.1l0.3-0.4l0.2-0.3l0.1-0.2h0.2l0-0.2l0.4,0V9.9H36l0.3,0.1l0.4,0.2
			l0.1,0.4L36.9,10.8L36.9,10.8z"/>
		<path class="st3" d="M38.6,18.6L38.6,18.6l0.1-0.3l-0.1-0.1l0.3-0.1l0.2,0l0,0.1l0.3,0.1l0,0.1l-0.3,0l-0.1,0.1l-0.2,0.2
			L38.6,18.6L38.6,18.6z"/>
		<path id="UA_00000078760672105537062130000012630570111284971425_" class="st3" d="M40.4,15.3l0.1,0.1v0.1l0.3,0.1l0.2,0l0.2,0.1
			h0.1l0.4,0.1l0,0.1l-0.1,0.2l0.1,0.2l0,0.1l-0.3,0l-0.1,0.1l0,0.1l-0.2,0l-0.1,0.1l-0.2,0l-0.2,0.1l0,0.2l0.1,0.1l0.3,0l0,0.1
			l-0.3,0.1l-0.3,0.2l-0.2-0.1l0-0.1l-0.3-0.1l0-0.1l0.2-0.1L40.3,17l-0.4-0.1l0-0.1l-0.2,0L39.6,17l-0.2,0.2l-0.1-0.1l-0.1,0.1
			L39,17.2l0.1,0l0-0.1l0.1-0.1l0-0.1l0,0l0,0h0.1l0.1,0l0,0v0l-0.1-0.1l-0.1-0.1l-0.1,0v-0.1L39,16.3l-0.1,0l-0.2-0.1l-0.2,0
			l-0.1,0h-0.1l0,0.1l-0.2,0l-0.1,0l-0.1-0.1h-0.2l-0.2,0l-0.1,0.1l0-0.1l-0.1-0.1l0-0.1l0.1-0.1l0.1,0l-0.1-0.1l0.2-0.3l0.1,0
			l0-0.1l-0.2-0.3l0.1,0l0.1-0.1H38l0.3,0l0.3,0.1h0.2l0.1,0l0.1-0.1l0.1,0.1l0.2,0l0.1,0l0-0.2l0.1-0.1l0.2,0h0.1l0-0.1l0.1,0
			l0.3,0l0.2,0.2l0,0.1l0,0.1L40.4,15.3L40.4,15.3z"/>
		<path id="XK_00000176038648223818390430000002912535861818989740_" class="st3" d="M37.4,18.2L37.4,18.2l-0.2,0.1v0.1h0l0-0.1
			l-0.1,0L37,18l0-0.1l0.1,0l0-0.1l0,0l0,0l0,0l0,0l0,0l0.1,0.1h0L37.4,18.2L37.4,18.2L37.4,18.2L37.4,18.2z"/>
		<path id="NL_00000101821832951531908480000004609738346293263525_" class="st3" d="M33.2,15.4L33,15.3l-0.2-0.1l-0.2,0.1l-0.2,0
			l0.1-0.1l0.2-0.5l0.3-0.1h0.2l0,0.1l0,0.3l-0.1,0.1h-0.1L33.2,15.4L33.2,15.4z"/>
		<path id="PT_00000088818061232542527590000003367790482835952539_" class="st3" d="M29.7,19.8l-0.1,0.1l-0.2,0l-0.2,0l0-0.3l0-0.2
			l-0.1,0l-0.1-0.1l0-0.2l0.1-0.1l0-0.1l0.1-0.2v-0.1l0-0.1v-0.1l0.1-0.1l0.1,0l0.1,0.2h0.2l0,0h0.2l0.1,0.2l-0.1,0.1l0,0.3l0,0
			l0,0.2l-0.1,0l0.1,0.2l-0.1,0.2l0.1,0.1l0,0.1L29.7,19.8L29.7,19.8L29.7,19.8z"/>
		<path class="st3" d="M37.2,14.3h-0.5l-0.3,0l0-0.1l0.3-0.1l0.3,0.1l0.1,0L37.2,14.3L37.2,14.3z"/>
		<path id="ES_00000143608621393167991750000005379452783184301995_" class="st3" d="M31.1,17.8l0.1,0.1l0.5,0.1l0.1-0.1l0.3,0.1
			l0.3,0l0,0.2l-0.3,0.2l-0.3,0.1l0,0.1l-0.2,0.2l-0.1,0.3l0.1,0.2l-0.1,0.1l-0.1,0.2l-0.2,0.1L31.1,20h-0.4h-0.3l-0.2,0.1l-0.1,0.1
			l-0.1,0l-0.1-0.1l-0.1-0.2l-0.3,0l0-0.1l0.1-0.1l0-0.1l-0.1-0.1l0.1-0.2l-0.1-0.2l0.1,0l0-0.2l0,0l0-0.3l0.1-0.1l-0.1-0.2h-0.2
			l0,0h-0.1l-0.1-0.2l-0.1,0l-0.1,0.1l0-0.2l-0.1-0.1l0.4-0.2l0.3,0.1h0.4l0.3,0.1l0.2,0L31.1,17.8L31.1,17.8z"/>
		<path class="st3" d="M34.2,18.2l-0.1,0.3L34,18.4l-0.1-0.2l0-0.1l0.2-0.1L34.2,18.2z"/>
		<path class="st3" d="M33.1,15.8L33.1,15.8l0.1,0l0.1,0.1l0.4,0.1l-0.1,0.2l0,0.2l-0.1,0.1l-0.1,0v0.1l-0.2,0.2v0.1l0.1,0l0.1,0.1
			v0.1l0.1,0.1l-0.1,0.1l0.1,0.3l0.1,0l0,0.1l-0.2,0.2l-0.5-0.1L32.5,18l0,0.2l-0.3,0L31.8,18l-0.1,0.1L31.3,18l-0.1-0.1l0.1-0.2
			l0-0.7l-0.3-0.3l-0.2-0.2l-0.4-0.1l0-0.2l0.3-0.1l0.4,0.1l-0.1-0.4l0.3,0.1l0.6-0.3l0.1-0.3l0.2-0.1l0,0.1h0.1l0.1,0.1l0.2,0.1
			l0.1,0L33.1,15.8z"/>
		<path id="_x30__00000152985332080862723070000014470457263595633032_" class="st3" d="M32.2,16L32.2,16L32.2,16z"/>
	</g>
	<g id="SurAmerica">
		<path class="st3" d="M25.5,30.2L25.5,30.2h-0.2l-0.2-0.3l0.1,0.1l0.1,0.1L25.5,30.2l0.2,0l0,0.1L25.5,30.2L25.5,30.2z"/>
		<path class="st3" d="M24.7,25.1l0.3,0.3l0.1,0l0.2,0.1l0.1,0.1l0,0.1l-0.1,0.2l0.1,0l0.2,0l0.1,0l0.1-0.1l0-0.1l0.1,0l0.1,0.1
			l0,0.1l-0.1,0.1L25.8,26l-0.1,0.2l-0.2,0.2l0,0.1l0,0.2l0,0.2l0,0l0,0.1l0,0.1l0.2,0.1v0.1l0.1,0.1l0,0.1l-0.1,0.2l-0.2,0.1
			l-0.3,0l-0.2,0l0.1,0.1v0.1l0,0.1l-0.1,0.1l-0.1,0L25,28l0,0l0.1,0.2l0.1,0.1l0.1-0.1l0.1,0.1l-0.1,0.1L25,28.4l0,0.2v0.1H25
			l-0.1,0.1v0.1L25,29l0.1,0v0.1l-0.1,0.1l0,0.2L25,29.5l0,0.1l0.1,0.2l0.1,0.1l-0.1,0l-0.1,0l-0.3,0l-0.1-0.1l-0.1-0.1l-0.1,0
			l-0.1-0.1l-0.1-0.2l0.1-0.1v-0.1l0-0.1l0-0.1l0-0.2l0-0.1l0,0l0-0.1l-0.1,0l0-0.1l-0.1-0.1l-0.1-0.2l0,0L24.1,28l0-0.2v-0.1
			l0.1-0.1L24,27.5l0-0.1l0.1-0.1l0-0.1l0-0.2l0-0.1l0,0l-0.1-0.3l0.1-0.2l0-0.2l0-0.1L24,26l0.1-0.1L24,25.8l0-0.1l0-0.3l0.1-0.1
			l0-0.2l0,0l0.1-0.1l0.2,0l0.1,0.1l0-0.1L24.7,25.1L24.7,25.1z"/>
		<path id="BZ_00000139999468405189657280000009131586613527353251_" class="st3" d="M21,19L21,19l0-0.2l0-0.1v0l0,0l0,0l0.1-0.1h0
			v0h0l0,0l0,0.1l0,0l0,0.1l0,0l0,0.1L21,19L21,19L21,19L21,19z"/>
		<path id="BO_00000026143683143506883890000001856684728557585289_" class="st3" d="M25.3,24.8L25.3,24.8l-0.1-0.1H25l-0.2,0.1
			l-0.1,0.1v0.1l0,0.2l0,0l-0.2,0l0,0.1l-0.1-0.1l-0.2,0l-0.1,0.1l-0.1,0L23.9,25l-0.1-0.2l0-0.2l-0.1-0.1l0-0.1l-0.1-0.1l0.1-0.2
			l-0.1-0.1l0-0.1l0-0.1l0.1-0.1l0-0.1v-0.1l0-0.1l-0.1-0.3l0.1,0h0.1l0-0.1l0.1-0.1l0.1-0.1l0.2,0l0,0.1l0,0.1l0,0.1l0.2,0.1l0.2,0
			l0.1,0.1l0.1,0l0.1,0h0.1l0.1,0.1l0,0.1l0,0.1l0,0.1h0l0.1,0.2l0.3,0l0,0.1l0,0.1l0.1,0l0,0.1l0,0.1l0,0.1L25.3,24.8L25.3,24.8
			L25.3,24.8z"/>
		<path id="BR_00000049921903017013547710000017555523617247499435_" class="st3" d="M25.4,21.3L25.4,21.3L25.4,21.3L25.4,21.3
			l0.1-0.1l0.1,0l0.1,0l0.1,0l0.1,0l0,0h0l0,0l0.1,0l0.1-0.1l0-0.1l0.1-0.1l0.1,0l0,0.1l0.1,0.3l0.1,0v0.1l-0.1,0.1l0,0.1l0.3,0v0.2
			l0.1-0.1l0.2,0.1l0.2,0.1l0.1,0.1l0,0.1l0.2-0.1l0.3,0.1h0.2l0.2,0.1l0.2,0.2l0.1,0l0.1,0l0.1,0.1l0.1,0.2l0,0.1L28.4,23l-0.1,0.1
			l-0.2,0.2L28,23.5l-0.1,0.1h0l0,0.1l0,0.3l0,0.2l0,0.1l0,0.1l0,0.2l-0.1,0.2l0,0.2l-0.1,0.1l0,0.1h-0.2l-0.2,0.1l-0.1,0.1
			l-0.2,0.1l-0.2,0.1l-0.1,0.2l0,0.1l0,0.1l0,0.2l0,0.1l-0.1,0.1l-0.1,0.3l-0.1,0.1l-0.1,0.1l0,0.2l-0.1,0.1l-0.1-0.1l0-0.1
			l-0.1-0.1L26,26.5l-0.2-0.1h-0.1l-0.2-0.1l-0.1,0l0.2-0.2l0.1-0.2l0.1-0.1l0.1-0.1l0-0.1l-0.1-0.1l-0.1,0l0-0.1l0-0.1l0-0.1
			l-0.1,0l-0.1,0l-0.1,0l0-0.1l0-0.1l0-0.1l-0.1,0l-0.1,0l-0.1,0l0-0.2l-0.1-0.1l0,0l0-0.1l0-0.1l0-0.1l0-0.1l-0.1,0l0-0.1l0-0.1
			l-0.3,0l-0.1-0.2h0l0-0.1l0-0.1l0-0.1l-0.1-0.1h-0.1l-0.1,0l-0.1,0l-0.1-0.1l-0.2,0l-0.2-0.1l0-0.1l0-0.1l0-0.1l-0.2,0l-0.1,0.1
			l-0.1,0.1l0,0.1h-0.1l-0.1,0l-0.1,0l-0.1,0v-0.2l-0.1,0.1h-0.1l-0.1-0.1l-0.1,0l0-0.1L23,22.9L23,22.7l0,0v-0.1l0.1,0l0-0.1l0-0.1
			l0-0.1l0.2-0.1l0.1,0l0,0l0.1,0l0.1-0.4v-0.1l0-0.1l-0.1-0.1v-0.1l0.1,0l0,0v-0.1l-0.1,0v-0.1h0.3l0.1-0.1l0,0.1l0,0.1l0,0
			l0.1,0.1l0.1,0l0-0.1l0.1,0l0.1,0l0-0.1l0.1,0l0,0l-0.1,0l0-0.1l0-0.1l-0.1,0l0,0l0.1,0l0.1,0l0,0l0.1,0l0.2-0.1l0.1-0.1l0,0h0.1
			l0,0l0,0.1l0.1,0l0,0.1l0,0.1l0,0.1l0,0.1l0,0.1l0.1,0.1l0.1,0l0,0l0,0l0.1,0l0,0L25.4,21.3L25.4,21.3L25.4,21.3z"/>
		<path id="CO_00000122702242572945533200000012515925608267492227_" class="st3" d="M23.4,19.7L23.4,19.7l-0.1,0.1l-0.1,0l0,0.1
			l0,0.1l0,0.1l0.1,0l0,0.1l0,0l0,0.1l0,0.1v0l0,0l0,0.1l0.2,0l0.1,0l0.1,0.1l0.1,0l0.1,0l0.1,0l0.1,0l0,0.1l0,0.1l0,0.1l0,0.1
			l0,0.1v0l-0.1,0.1l0.1,0l0,0.1l0,0.2l0,0l0-0.1l0-0.1l-0.1,0.1h-0.3v0.1l0.1,0v0.1l0,0l-0.1,0v0.1l0.1,0.1l0,0.1v0.1l-0.1,0.4
			l-0.1-0.1h0l0.1-0.2l-0.1-0.1l-0.1,0l-0.1,0l-0.1,0l-0.1,0L23,21.8l-0.1,0l0-0.1l-0.1-0.1l0,0l-0.1,0l-0.1-0.1l0,0l-0.1,0l0-0.1h0
			l-0.1-0.1l0-0.1l0.1,0v-0.1l0-0.1l0.1,0l0.1-0.1l0.1-0.1l-0.1,0l0-0.1l0-0.1l0,0l0-0.1l-0.1-0.1l0-0.1l0,0l0-0.1l0-0.1l0,0h0.1
			l0.1-0.1l0.1,0V20l0-0.1l0.1-0.1H23l0,0l0.1,0l0.1-0.1l0.1,0l0.1-0.1L23.4,19.7L23.4,19.7L23.4,19.7L23.4,19.7z"/>
		<path id="CR_00000111874578085568590370000005959164665453657749_" class="st3" d="M21.7,19.8L21.7,19.8l0.1,0.2l0.1,0.1l-0.1,0
			v0.1l0,0l0,0v0l0,0l0,0l-0.1,0l0,0l0,0v0l0,0l-0.1,0l0,0l0-0.1l0,0v0l0,0l0,0l0,0l0,0v-0.1l0-0.1l0,0l0,0l0,0l0.1,0l0,0l0,0
			L21.7,19.8L21.7,19.8L21.7,19.8L21.7,19.8z"/>
		<path id="CU_00000153689100254461132030000014799116093022270366_" class="st3" d="M22.4,18L22.4,18l0.2,0l0,0l0.1,0.1l0.1,0.1h0
			l0.1,0l0,0l0.1,0l0.1,0.1l0,0l-0.1,0l-0.1,0l-0.1,0l-0.2,0l0.1-0.1l-0.1,0l-0.1,0l0-0.1l0-0.1h-0.1l-0.1,0l0,0l-0.2,0l0,0l0.1,0
			L22,18l-0.1,0.1h-0.1l0,0l-0.1,0l-0.1,0l0.1-0.1l0-0.1l0.1,0l0.1,0l0.1,0l0,0l0.1,0h0.1L22.4,18L22.4,18z"/>
		<path id="DO_00000016043679850811433170000000216225341843977389_" class="st3" d="M23.4,18.7L23.4,18.7L23.4,18.7l0-0.1l0-0.1
			v-0.1l0,0h0.1l0.1,0h0l0,0.1h0.1l0,0l0.1,0l0.1,0.1l-0.1,0.1l-0.1,0h-0.1l0,0l0,0l-0.1,0l0,0l-0.1,0L23.4,18.7L23.4,18.7
			L23.4,18.7L23.4,18.7z"/>
		<path id="EC_00000175290518359920153820000002889413749409575309_" class="st3" d="M22.8,21.6l0,0.1l0,0.1L22.6,22L22.4,22
			l-0.1,0.1l0,0.1l-0.1,0.1l-0.1-0.1l-0.1,0l-0.1,0l0-0.1l0,0l0-0.1l0.1-0.1l0-0.1L22.1,22L22,21.9l0,0l0-0.1l0.1,0l0-0.1l0.1-0.1
			l0-0.1l0.1,0l0.1-0.1l0.1,0.1h0l0,0.1l0.1,0l0,0L22.8,21.6L22.8,21.6L22.8,21.6z"/>
		<path id="GT_00000069396566128344609700000008995971239310708135_" class="st3" d="M21,18.7l0,0.1l0,0.2h0l0,0l0,0l0,0L21,19.1
			l-0.1,0l0,0l0,0l0,0l0,0l0,0l0,0l-0.1,0l0,0l-0.1,0h-0.1l-0.1,0l-0.1-0.1l0-0.1l0,0l0,0l0.1-0.1h0.2l0-0.1l0,0l0,0l-0.1,0l0-0.1
			h0.1l0-0.1h0.1L21,18.7L21,18.7z"/>
		<path id="GY_00000070818169129845335190000017013222604565528476_" class="st3" d="M25.3,20.6l0,0.1l-0.1,0l0,0l0,0.1l0.1,0.1h0
			l0,0.1l0.1,0.1l0,0l-0.1,0l0,0l-0.1,0l0,0l0,0l-0.1,0L25,21.3l0-0.1l0-0.1l0-0.1l0-0.1l0-0.1l-0.1,0l0-0.1l0,0h-0.1l-0.1-0.1l0,0
			v-0.1l0.1,0l0,0l0-0.1l0-0.1l0.1-0.1l0.1,0.1l0.1,0.1v0.1h0.1L25.3,20.6L25.3,20.6L25.3,20.6z"/>
		<path id="HN_00000018236251986001207960000007898369036167460541_" class="st3" d="M21.8,19.2L21.8,19.2L21.8,19.2l-0.1,0h0l0,0h0
			l0,0h0l0,0h0v0l-0.1,0l0,0l0,0l0,0l0,0h-0.1h0v0.1h0l0,0l0,0l0-0.1l0,0l0-0.1l0,0l0,0l-0.1,0v0l0,0l0,0l0,0l0,0l0,0l0,0l0.1,0
			l0.1-0.1l0,0l0,0h0l0,0l0,0l0.1,0h0.1l0,0l0,0l0,0l0,0h0l0,0l0.1,0h0l0,0L21.8,19.2L21.8,19.2L21.8,19.2L21.8,19.2z"/>
		<path id="HT_00000110466829551008035650000007290137611743238079_" class="st3" d="M23.4,18.4L23.4,18.4l0,0.1l0,0l0,0.1l0,0
			l-0.1,0l-0.1,0l-0.1,0l-0.1,0L23,18.7l0-0.1l0.1,0l0.1,0l0.1,0l-0.1-0.1l0-0.1l-0.1,0l0,0h0.1L23.4,18.4z"/>
		<path id="JM_00000049199436517292118000000007654793280213430926_" class="st3" d="M22.7,18.7L22.7,18.7l-0.1,0l-0.1-0.1l0,0
			l0.1,0h0l0.1,0L22.7,18.7l0.1,0L22.7,18.7L22.7,18.7z"/>
		<path id="MX_00000098216251017304181990000016856150335916407960_" class="st3" d="M20,17.5L20,17.5l0,0.1l0,0.1l0,0.2l0,0.1
			l0,0.1l0,0.1l0,0.1l0.1,0.1l0,0.1l0,0.1l0.1,0l0.1,0.1l0.1,0l0.1,0l0.1,0l0.1,0l0.1-0.1l0-0.1l0-0.1l0-0.1l0.1,0l0.2,0l0.1,0
			l0.1,0l0,0l0,0.1l-0.1,0.1l0,0.1l0,0l0,0.1l-0.1,0.1l0,0h0h0L21,18.7l0,0l0,0v0h-0.1h-0.1l0,0.1h-0.1l0,0.1l0.1,0l0,0l0,0V19h-0.2
			l-0.1,0.1l0,0l0,0l0,0.1l-0.1-0.2L20.3,19l-0.1,0l-0.1,0L20,19.1l-0.1,0l-0.1,0l-0.1,0l-0.1-0.1l-0.1,0l-0.1-0.1l-0.1-0.1l0,0
			l-0.1,0L19,18.7L19,18.6l-0.1-0.1l-0.1-0.1l0-0.1l0.1,0l0,0l0,0l0-0.1l0-0.1v-0.1l0-0.1l-0.1-0.2l-0.1-0.1l-0.1-0.1l-0.1-0.1l0,0
			l0-0.1l-0.1,0l-0.1-0.1v-0.1h-0.1l-0.1-0.1l0-0.1l0-0.1l0-0.1l0-0.1l0-0.1l-0.1-0.1l-0.1,0L18,16.5l0,0.1v0.1l0,0.1l0,0.1L18,17
			l0,0l0,0v0.1h0v0.1l0,0l0,0.1l0.1,0.1l0,0.2l0,0.1l0,0.1l0,0.1h0.1l0,0.1l0,0.1l0,0L18.3,18h0l0-0.1l-0.1-0.1l-0.1-0.1l-0.1,0
			l0-0.1v-0.1L18,17.4l-0.1-0.1l0,0l0-0.1l-0.1,0l-0.1-0.1l0,0l0.1,0l0.1-0.1l0-0.1l-0.1-0.1l-0.1,0l0-0.1l0-0.1l0-0.1v-0.1l0.2,0
			l0.2,0l0,0l0.2,0.1l0.3,0.1h0.3h0.1l0-0.1h0.2l0,0.1l0.1,0.1l0.1,0.1l0,0.1l0,0.1l0.1,0.1l0.1,0.1l0.1-0.1h0.1l0.1,0.1l0,0.1
			l0,0.1l0.1,0.1v0.1l0,0.1L20,17.5L20,17.5L20,17.5z"/>
		<path id="NI_00000170996155381209319400000006690901260422701991_" class="st3" d="M21.8,19.2L21.8,19.2L21.8,19.2l0,0.1l0,0.1
			l0,0.1l0,0.1v0v0.1l0,0l0,0.1v0l0,0v0l0,0l0,0l0,0l0,0l0,0l0,0l-0.1,0l0,0l0-0.1l-0.1-0.1l0-0.1l-0.1-0.1l-0.1-0.1l0,0l0,0l0,0
			l0,0l0,0h0v-0.1h0h0l0,0l0,0l0,0l0,0l0.1,0v0h0l0,0h0l0,0h0l0,0h0L21.8,19.2L21.8,19.2L21.8,19.2L21.8,19.2z"/>
		<path id="PA_00000045579054431174413780000006065312664680830375_" class="st3" d="M22.5,20.2L22.5,20.2l0,0.1l0,0.1l0,0l0,0.1
			l0,0l0-0.1l0,0l0,0l0-0.1l-0.1,0l-0.1,0l0,0.1l-0.1,0h0l0,0l0.1,0.1l0,0l0,0l-0.1,0l0-0.1l0,0l0,0l0-0.1l-0.1,0l0,0h-0.1v0l0,0
			l0,0l0,0v0l0,0l0,0v-0.1l0.1,0l0.1,0.1v0l0.1,0l0,0l0,0l0.1,0l0.1,0l0.1,0l0.1-0.1l0.1,0v0h0.1L22.5,20.2L22.5,20.2L22.5,20.2
			L22.5,20.2z"/>
		<path id="PE_00000026133565087290033350000001442706147385356174_" class="st3" d="M23.5,22.2l-0.1,0l0,0l-0.1,0l-0.2,0.1l0,0.1
			l0,0.1l0,0.1l-0.1,0v0.1l0,0l0.1,0.1l0.1,0.1l0,0.1l0.1,0l0.1,0.1h0.1l0.1-0.1v0.2l0.1,0l0.1,0l0.1,0.3l0,0.1v0.1l0,0.1l-0.1,0.1
			l0,0.1l0,0.1l0.1,0.1l-0.1,0.2l0,0.1l-0.1,0l-0.1-0.1l0-0.1l-0.3-0.2L22.9,24l-0.1-0.1l-0.1-0.1l0-0.1l-0.1-0.2l-0.2-0.3l-0.2-0.3
			l-0.1-0.1l-0.1-0.1L22,22.6l-0.1-0.1l0-0.1l-0.1-0.2l0-0.1l0.1-0.1l0,0.1l0,0l0,0.1l0.1,0l0.1,0l0.1,0.1l0.1-0.1l0-0.1l0.1-0.1
			l0.2-0.1l0.2-0.2l0-0.1l0-0.1l0,0l0.1,0.1l0,0.1l0.1,0l0.1,0.2l0.1,0l0.1,0l0.1,0l0.1,0l0.1,0.1l-0.1,0.2L23.5,22.2L23.5,22.2
			L23.5,22.2z"/>
		<path id="PY_00000140009476920762602350000018205053726988790713_" class="st3" d="M25.3,24.8L25.3,24.8l0.1,0.3l0.1,0l0.1,0
			l0.1,0l0,0.1l0,0.1l0,0.1l0.1,0l0.1,0l0.1,0l0,0.1l0,0.1l0,0.1l0,0.1l-0.1,0.1l-0.1,0l-0.2,0l-0.1,0l0.1-0.2l0-0.1l-0.1-0.1
			l-0.2-0.1l-0.1,0l-0.3-0.3l0-0.2v-0.1l0.1-0.1l0.2-0.1h0.1L25.3,24.8L25.3,24.8L25.3,24.8z"/>
		<path id="SV_00000075884852392679974060000013474486589832677771_" class="st3" d="M21.1,19.4L21.1,19.4l-0.1,0l-0.1,0l-0.1,0
			l-0.1,0l0,0l0,0l0.1,0l0,0l0,0l0,0l0,0l0,0L21.1,19.4L21.1,19.4L21.1,19.4L21.1,19.4L21.1,19.4L21.1,19.4L21.1,19.4z"/>
		<path id="SR_00000167386588381233338440000003535585295514254760_" class="st3" d="M25.8,20.7l-0.1,0.1l0,0.1l0.1,0.1l0,0.1l0,0.1
			l0,0.1l-0.1,0l-0.1,0l-0.1,0l0,0.1l0,0l0,0l-0.1,0l-0.1-0.1l0-0.1h0l-0.1-0.1l0-0.1l0,0l0.1,0l0-0.1l0.2,0l0,0l0.1,0L25.8,20.7
			L25.8,20.7z"/>
		<path id="UY_00000164474331456006291980000009611560427383282367_" class="st3" d="M26.2,26.9l0,0.1l-0.1,0.1l-0.1,0l-0.1,0
			L25.7,27h-0.1l-0.1-0.1l0-0.1l0,0l0-0.2l0-0.2l0-0.1l0.1,0l0.2,0.1h0.1l0.2,0.1l0.1,0.1l0.1,0.1L26.2,26.9L26.2,26.9L26.2,26.9z"
			/>
		<path id="VE_00000155143069357315423040000013952012693236302747_" class="st3" d="M25,20.2l-0.1,0.1l0,0.1l0,0.1l0,0l-0.1,0v0.1
			l0,0l0.1,0.1l0,0l-0.1,0.1l-0.2,0.1l-0.1,0l0,0l-0.1,0l-0.1,0l0,0l0.1,0l0,0.1l0,0.1l0.1,0l0,0l-0.1,0l0,0.1l-0.1,0l-0.1,0l0,0.1
			l-0.1,0l-0.1-0.1l0-0.2l0-0.1l-0.1,0l0.1-0.1v0l0-0.1l0-0.1l0-0.1l0-0.1l0-0.1l-0.1,0l-0.1,0l-0.1,0l-0.1,0l-0.1-0.1l-0.1,0
			l-0.2,0l0-0.1l0,0v0l0-0.1l0-0.1l0,0l0-0.1l-0.1,0l0-0.1l0-0.1l0-0.1l0.1,0l0-0.1l0.1,0v0l-0.1,0l0,0.1l0,0.1L23.2,20l0.1,0.1
			l0.1,0l0-0.1l0-0.1v-0.1l0.2-0.1l0-0.1l0.1-0.1l0,0.1h0.1l0.1,0.1v0.1h0.1l0.2,0l0.1,0.1l0.1,0l0.1-0.1v-0.1l0.2,0h0.2l-0.1,0.1
			l0,0.1l0.1,0l0.1,0.1l0,0.1L25,20.2L25,20.2L25,20.2z"/>
		<path class="st3" d="M25.1,29.9l0.2,0.3h0.1h0.1l0,0.1l-0.1,0.1h-0.1l-0.1,0l-0.1,0l-0.1,0l-0.2-0.1l-0.2-0.1l-0.2-0.2l0.1,0
			l0.2,0.1l0.2,0.1l0-0.1l0-0.1L25.1,29.9L25.1,29.9z"/>
		<path class="st3" d="M24.1,25.2L24.1,25.2l0,0.2L24,25.5l0,0.3l0,0.1l0.1,0.1L24,25.9l-0.1,0.2l0,0.1l0,0.2l-0.1,0.2l0.1,0.3l0,0
			l0,0.1l0,0.2l0,0.1L24,27.3l0,0.1l0.1,0.2L24,27.7v0.1l0,0.2l0.1,0.2l0,0l0.1,0.2l0.1,0.1l0,0.1l0.1,0l0,0.1l0,0l0,0.1l0,0.2
			l0,0.1l0,0.1v0.1l-0.1,0.1l0.1,0.2l0.1,0.1l0.1,0l0.1,0.1l0.1,0.1l0.3,0l0.1,0H25l0,0l-0.1,0.1l0,0.1h-0.1l-0.2-0.1l-0.2-0.1
			l-0.2-0.1l-0.1-0.1l0-0.1l-0.1-0.1L24,29.2V29l0.1-0.1l-0.2-0.1l0.1-0.1l-0.1-0.3l0.2,0.1l0-0.3l-0.1,0l0,0.2l-0.1,0l0-0.2
			l-0.1-0.3l0-0.1l-0.1-0.2l-0.1-0.2l0.1,0l0-0.3l0-0.3v-0.2l-0.1-0.2l0-0.1l-0.1-0.2l0-0.2l0-0.3v-0.3v-0.4l0-0.3l-0.1-0.2l0.1,0
			l0-0.1l0.1,0.1l0,0.1l0.1,0.1l0,0.2l0.1,0.2l0.1,0.2L24.1,25.2z"/>
		<path id="GF_00000085227243153528245330000007508150637031229855_" class="st3" d="M25.7,21.2L25.7,21.2l0.1-0.1l0-0.1l-0.1-0.1
			l0-0.1l0.1-0.1l0.1,0l0.1,0l0.1,0.1l0,0.1L26,21l0,0.1l-0.1,0.1l-0.1,0l0,0h0L25.7,21.2L25.7,21.2L25.7,21.2z"/>
		<path id="AW_00000141456989363556246360000003648521448062552230_" class="st3" d="M23.6,19.6L23.6,19.6L23.6,19.6L23.6,19.6
			L23.6,19.6L23.6,19.6L23.6,19.6L23.6,19.6L23.6,19.6z"/>
		<path id="CW_00000003815089910534793240000018407411281809391746_" class="st3" d="M23.7,19.7L23.7,19.7L23.7,19.7L23.7,19.7
			L23.7,19.7L23.7,19.7L23.7,19.7L23.7,19.7L23.7,19.7L23.7,19.7L23.7,19.7L23.7,19.7L23.7,19.7L23.7,19.7L23.7,19.7L23.7,19.7
			L23.7,19.7L23.7,19.7z"/>
		<path class="st3" d="M22.1,18.5L22.1,18.5L22.1,18.5L22.1,18.5L22.1,18.5L22.1,18.5L22.1,18.5L22.1,18.5L22.1,18.5L22.1,18.5
			L22.1,18.5L22.1,18.5z"/>
		<path class="st3" d="M22.3,18.4L22.3,18.4L22.3,18.4L22.3,18.4z"/>
		<path class="st3" d="M22.3,18.4L22.3,18.4L22.3,18.4L22.3,18.4L22.3,18.4z"/>
		<path class="st3" d="M26.2,29.8L26.2,29.8L26.2,29.8L26.2,29.8L26.2,29.8L26.2,29.8L26.2,29.8z"/>
		<path class="st3" d="M26.1,29.8L26.1,29.8L26.1,29.8L26.1,29.8L26.1,29.8L26.1,29.8L26.1,29.8L26.1,29.8z"/>
		<path class="st3" d="M26.3,29.8L26.3,29.8L26.3,29.8L26.3,29.8L26.3,29.8L26.3,29.8L26.3,29.8z"/>
		<path class="st3" d="M26,29.7L26,29.7L26,29.7L26,29.7L26,29.7L26,29.7L26,29.7L26,29.7L26,29.7L26,29.7L26,29.7L26,29.7L26,29.7
			L26,29.7L26,29.7L26,29.7z"/>
		<path class="st3" d="M26.1,29.7L26.1,29.7L26.1,29.7L26.1,29.7L26.1,29.7L26.1,29.7L26.1,29.7L26.1,29.7L26.1,29.7L26.1,29.7
			L26.1,29.7L26.1,29.7L26.1,29.7L26.1,29.7L26.1,29.7L26.1,29.7L26.1,29.7L26.1,29.7L26.1,29.7L26.1,29.7L26.1,29.7L26.1,29.7
			L26.1,29.7L26.1,29.7L26.1,29.7L26.1,29.7L26.1,29.7L26.1,29.7L26.1,29.7L26.1,29.7L26.1,29.7L26.1,29.7L26.1,29.7L26.1,29.7
			L26.1,29.7L26.1,29.7L26.1,29.7L26.1,29.7L26.1,29.7L26.1,29.7L26.1,29.7L26.1,29.7L26.1,29.7L26.1,29.7L26.1,29.7L26.1,29.7
			L26.1,29.7L26.1,29.7L26.1,29.7L26.1,29.7L26.1,29.7L26.1,29.7L26.1,29.7L26.1,29.7L26.1,29.7L26.1,29.7L26.1,29.7L26.1,29.7
			L26.1,29.7L26.1,29.7L26.1,29.7L26.1,29.7L26.1,29.7L26.1,29.7L26.1,29.7L26.1,29.7L26.1,29.7L26.1,29.7L26.1,29.7L26.1,29.7
			L26.1,29.7L26.1,29.7L26.1,29.7L26.1,29.7L26.1,29.7L26.1,29.7L26.1,29.7L26.1,29.7L26.1,29.7L26.1,29.7L26.1,29.7L26.1,29.7
			L26.1,29.7L26.1,29.7L26.1,29.7L26.1,29.7L26.1,29.7L26.1,29.7L26.1,29.7L26.1,29.7L26.1,29.7L26.1,29.7z"/>
		<path class="st3" d="M26.1,29.7L26.1,29.7L26.1,29.7L26.1,29.7L26.1,29.7L26.1,29.7z"/>
		<path class="st3" d="M26.1,29.7L26.1,29.7L26.1,29.7L26.1,29.7L26.1,29.7z"/>
		<path class="st3" d="M26,29.7L26,29.7L26,29.7L26,29.7L26,29.7L26,29.7L26,29.7L26,29.7L26,29.7L26,29.7L26,29.7L26,29.7z"/>
		<path class="st3" d="M26.2,29.7L26.2,29.7L26.2,29.7L26.2,29.7L26.2,29.7L26.2,29.7L26.2,29.7L26.2,29.7L26.2,29.7L26.2,29.7
			L26.2,29.7L26.2,29.7L26.2,29.7L26.2,29.7L26.2,29.7L26.2,29.7L26.2,29.7L26.2,29.7L26.2,29.7L26.2,29.7L26.2,29.7L26.2,29.7
			L26.2,29.7L26.2,29.7L26.2,29.7l0.1,0l0,0v0h0L26.2,29.7L26.2,29.7L26.2,29.7l0.1,0.1h0h0l0,0v0h0l0,0h0L26.2,29.7l0.1,0.1
			L26.2,29.7L26.2,29.7L26.2,29.7L26.2,29.7L26.2,29.7L26.2,29.7L26.2,29.7L26.2,29.7L26.2,29.7L26.2,29.7L26.2,29.7L26.2,29.7
			L26.2,29.7L26.2,29.7l0.1,0.1l0,0L26.2,29.7L26.2,29.7l0,0.1L26.2,29.7L26.2,29.7L26.2,29.7L26.2,29.7L26.2,29.7l0,0.1h0l0,0l0,0
			l0,0l0,0h0h0l0,0h0h0v0h0v0l0,0h0l0,0h0l0,0l0,0l0,0l0,0l0,0L26.2,29.7L26.2,29.7L26.2,29.7L26.2,29.7L26.2,29.7L26.2,29.7
			L26.2,29.7L26.2,29.7L26.2,29.7L26.2,29.7L26.2,29.7L26.2,29.7L26.2,29.7L26.2,29.7L26.2,29.7L26.2,29.7L26.2,29.7L26.2,29.7
			L26.2,29.7L26.2,29.7L26.2,29.7L26.2,29.7L26.2,29.7L26.2,29.7L26.2,29.7L26.2,29.7L26.2,29.7z"/>
		<path class="st3" d="M26.1,29.6L26.1,29.6L26.1,29.6L26.1,29.6L26.1,29.6L26.1,29.6L26.1,29.6L26.1,29.6L26.1,29.6L26.1,29.6
			L26.1,29.6L26.1,29.6z"/>
		<path class="st3" d="M25.9,29.6L25.9,29.6L25.9,29.6L25.9,29.6z"/>
		<path class="st3" d="M23.9,18.7L23.9,18.7L23.9,18.7L23.9,18.7L23.9,18.7L23.9,18.7z"/>
		<path class="st3" d="M24.1,18.6L24.1,18.6L24.1,18.6L24.1,18.6L24.1,18.6L24.1,18.6L24.1,18.6L24.1,18.6L24.1,18.6L24.1,18.6
			L24.1,18.6h0.1l0,0h0l0,0h0l0,0l0,0l0,0l0,0v0v0l0,0l0,0l0,0h0L24.1,18.6L24.1,18.6L24.1,18.6L24.1,18.6L24.1,18.6L24.1,18.6
			L24.1,18.6L24.1,18.6L24.1,18.6L24.1,18.6L24.1,18.6L24.1,18.6L24.1,18.6L24.1,18.6L24.1,18.6L24.1,18.6L24.1,18.6L24.1,18.6
			L24.1,18.6L24.1,18.6L24.1,18.6L24.1,18.6L24.1,18.6L24.1,18.6L24.1,18.6L24.1,18.6L24.1,18.6L24.1,18.6z"/>
		<path id="BQBO_00000137122720960492421050000017526935245681860539_" class="st3" d="M23.8,19.7L23.8,19.7L23.8,19.7L23.8,19.7
			L23.8,19.7L23.8,19.7L23.8,19.7L23.8,19.7L23.8,19.7L23.8,19.7L23.8,19.7L23.8,19.7L23.8,19.7L23.8,19.7z"/>
		<path id="_x31__00000098179502652450685230000008225570236478789794_" class="st3" d="M25.6,27.1L25.6,27.1L25.6,27.1z"/>
	</g>
</g>
</svg>
