<svg id="Capa_1" data-name="Capa 1" xmlns="http://www.w3.org/2000/svg" viewBox="0 0 360 68.08"><defs><style>.cls-1{fill:none;stroke:#fff;stroke-miterlimit:10;}.cls-2{fill:#fff;}</style></defs><rect class="cls-1" x="3.26" y="2.57" width="351.46" height="50.71"/><rect class="cls-1" x="6.09" y="27.98" width="45.89" height="23.4"/><rect class="cls-1" x="55.18" y="22.87" width="60.33" height="28.5"/><rect class="cls-1" x="285.94" y="7.59" width="66.85" height="43.78"/><rect class="cls-1" x="195.97" y="9.98" width="87.59" height="41.4"/><rect class="cls-1" x="118.32" y="17.62" width="75.1" height="33.75"/><path class="cls-2" d="M12,59.41H9.77V58.24h5.92v1.17H13.43v6.67H12Z"/><path class="cls-2" d="M15.65,63.14a2.87,2.87,0,0,1,2.71-3.09c1.6,0,2.43,1.15,2.43,2.79a3,3,0,0,1-.06.68H17a1.68,1.68,0,0,0,1.74,1.64,2.49,2.49,0,0,0,1.37-.43l.47.86a3.64,3.64,0,0,1-2,.64A2.85,2.85,0,0,1,15.65,63.14Zm4-.56c0-.91-.4-1.46-1.21-1.46A1.48,1.48,0,0,0,17,62.58Z"/><path class="cls-2" d="M22.12,60.19h1.13l.11.8h0a2.49,2.49,0,0,1,1.8-.94,1.59,1.59,0,0,1,1.63,1.05,2.66,2.66,0,0,1,1.89-1.05c1.25,0,1.82.85,1.82,2.34v3.69H29.16V62.57c0-1-.29-1.34-.91-1.34A1.82,1.82,0,0,0,27,62v4.11H25.64V62.57c0-1-.29-1.34-.91-1.34A1.84,1.84,0,0,0,23.5,62v4.11H22.12Z"/><path class="cls-2" d="M31.92,64.5c0-1.26,1-1.92,3.46-2.18,0-.63-.27-1.16-1.07-1.16a3.2,3.2,0,0,0-1.65.58l-.51-.92a4.57,4.57,0,0,1,2.42-.77c1.47,0,2.19.9,2.19,2.54v3.49H35.63l-.1-.65h0a2.88,2.88,0,0,1-1.83.8A1.65,1.65,0,0,1,31.92,64.5Zm3.46,0V63.18c-1.6.2-2.13.62-2.13,1.21s.36.75.85.75A1.82,1.82,0,0,0,35.38,64.5Z"/><path class="cls-2" d="M40.84,65h1.7V60H41.13v-.87a5,5,0,0,0,1.76-.63h1V65h1.51v1.12H40.84Z"/><path class="cls-2" d="M69.29,59.44H67V58.27h5.92v1.17H70.68v6.67H69.29Z"/><path class="cls-2" d="M72.9,63.17a2.87,2.87,0,0,1,2.71-3.09c1.6,0,2.43,1.15,2.43,2.8a3.9,3.9,0,0,1-.05.67H74.25A1.67,1.67,0,0,0,76,65.19a2.49,2.49,0,0,0,1.37-.43l.47.86a3.64,3.64,0,0,1-2,.64A2.84,2.84,0,0,1,72.9,63.17Zm3.95-.56c0-.91-.4-1.46-1.21-1.46a1.48,1.48,0,0,0-1.41,1.46Z"/><path class="cls-2" d="M79.37,60.22H80.5l.11.81h0a2.51,2.51,0,0,1,1.81-1,1.58,1.58,0,0,1,1.62,1.05A2.66,2.66,0,0,1,86,60.08c1.24,0,1.81.85,1.81,2.34v3.69H86.41V62.6c0-1-.28-1.34-.9-1.34a1.82,1.82,0,0,0-1.24.74v4.11H82.89V62.6c0-1-.29-1.34-.91-1.34a1.84,1.84,0,0,0-1.23.74v4.11H79.37Z"/><path class="cls-2" d="M89.17,64.53c0-1.26,1-1.92,3.46-2.18,0-.63-.27-1.16-1.07-1.16a3.32,3.32,0,0,0-1.65.58l-.51-.92a4.57,4.57,0,0,1,2.42-.77c1.47,0,2.19.91,2.19,2.55v3.48H92.88l-.1-.65h0a2.86,2.86,0,0,1-1.83.8A1.65,1.65,0,0,1,89.17,64.53Zm3.46,0V63.21c-1.59.2-2.13.62-2.13,1.21s.36.75.85.75A1.84,1.84,0,0,0,92.63,64.54Z"/><path class="cls-2" d="M97.66,65.31c2.12-2.06,3.45-3.39,3.45-4.56a1.18,1.18,0,0,0-1.26-1.31,2.08,2.08,0,0,0-1.49.84l-.77-.76A3.13,3.13,0,0,1,100,58.34a2.23,2.23,0,0,1,2.41,2.34c0,1.36-1.25,2.75-2.77,4.34.4,0,.9-.08,1.28-.08h1.86v1.17H97.66Z"/><path class="cls-2" d="M140.12,59.31h-2.27V58.14h5.92v1.17h-2.26V66h-1.39Z"/><path class="cls-2" d="M143.72,63.05a2.87,2.87,0,0,1,2.72-3.1c1.59,0,2.43,1.15,2.43,2.8a3.66,3.66,0,0,1-.06.67h-3.74a1.68,1.68,0,0,0,1.74,1.64,2.55,2.55,0,0,0,1.37-.43l.47.86a3.7,3.7,0,0,1-2,.64A2.85,2.85,0,0,1,143.72,63.05Zm4-.57c0-.91-.41-1.46-1.21-1.46a1.48,1.48,0,0,0-1.41,1.46Z"/><path class="cls-2" d="M150.2,60.1h1.13l.1.8h0a2.54,2.54,0,0,1,1.81-.95A1.6,1.6,0,0,1,154.91,61,2.65,2.65,0,0,1,156.8,60c1.24,0,1.82.86,1.82,2.34V66h-1.38V62.47c0-1-.29-1.33-.91-1.33a1.82,1.82,0,0,0-1.23.73V66h-1.38V62.47c0-1-.29-1.33-.91-1.33a1.84,1.84,0,0,0-1.23.73V66H150.2Z"/><path class="cls-2" d="M160,64.4c0-1.26,1-1.91,3.46-2.17,0-.64-.27-1.16-1.07-1.16a3.23,3.23,0,0,0-1.66.58l-.5-.93a4.63,4.63,0,0,1,2.41-.77c1.48,0,2.2.91,2.2,2.55V66h-1.13l-.11-.66h0a2.78,2.78,0,0,1-1.82.8A1.65,1.65,0,0,1,160,64.4Zm3.46,0V63.08c-1.6.21-2.13.62-2.13,1.22s.35.75.85.75A1.88,1.88,0,0,0,163.46,64.41Z"/><path class="cls-2" d="M168.31,65.05l.66-.88a2.51,2.51,0,0,0,1.81.83c.83,0,1.41-.43,1.41-1.15s-.51-1.29-2.24-1.29v-1c1.49,0,2-.52,2-1.22a1,1,0,0,0-1.13-1,2.16,2.16,0,0,0-1.52.72l-.72-.86a3.4,3.4,0,0,1,2.3-1c1.46,0,2.46.73,2.46,2A1.82,1.82,0,0,1,172,62V62a1.93,1.93,0,0,1,1.59,1.9c0,1.39-1.21,2.2-2.68,2.2A3.29,3.29,0,0,1,168.31,65.05Z"/><path class="cls-2" d="M224.52,59.6h-2.26V58.43h5.92V59.6h-2.26v6.67h-1.4Z"/><path class="cls-2" d="M228.13,63.33a2.87,2.87,0,0,1,2.72-3.09c1.59,0,2.43,1.15,2.43,2.79a3.79,3.79,0,0,1-.06.68h-3.74a1.68,1.68,0,0,0,1.74,1.64,2.49,2.49,0,0,0,1.36-.43l.47.86a3.64,3.64,0,0,1-2,.64A2.85,2.85,0,0,1,228.13,63.33Zm4-.57c0-.9-.41-1.45-1.21-1.45a1.47,1.47,0,0,0-1.41,1.45Z"/><path class="cls-2" d="M234.61,60.38h1.13l.1.8h0a2.53,2.53,0,0,1,1.81-.94,1.59,1.59,0,0,1,1.63,1,2.64,2.64,0,0,1,1.89-1c1.24,0,1.82.85,1.82,2.34v3.69h-1.38V62.75c0-1-.29-1.33-.91-1.33a1.8,1.8,0,0,0-1.23.74v4.11h-1.38V62.75c0-1-.29-1.33-.91-1.33a1.82,1.82,0,0,0-1.23.74v4.11h-1.38Z"/><path class="cls-2" d="M244.4,64.69c0-1.26,1-1.92,3.47-2.18,0-.63-.28-1.16-1.07-1.16a3.23,3.23,0,0,0-1.66.58l-.51-.92a4.6,4.6,0,0,1,2.42-.77c1.48,0,2.2.9,2.2,2.54v3.49h-1.13l-.11-.65h0a2.83,2.83,0,0,1-1.82.8A1.66,1.66,0,0,1,244.4,64.69Zm3.47,0V63.37c-1.6.2-2.13.62-2.13,1.21s.35.75.85.75A1.84,1.84,0,0,0,247.87,64.69Z"/><path class="cls-2" d="M256,61.51c0-.44,0-1.14.06-1.59H256c-.19.4-.4.78-.62,1.19L254,63.24h4.25v1.07h-5.61v-.94l3-4.73h1.63v7.63H256Z"/><path class="cls-2" d="M303.16,59.31H300.9V58.14h5.92v1.17h-2.27V66h-1.39Z"/><path class="cls-2" d="M306.77,63.05a2.87,2.87,0,0,1,2.72-3.1c1.59,0,2.43,1.15,2.43,2.8a3.66,3.66,0,0,1-.06.67h-3.74a1.67,1.67,0,0,0,1.74,1.64,2.49,2.49,0,0,0,1.36-.43l.47.86a3.64,3.64,0,0,1-2,.64A2.84,2.84,0,0,1,306.77,63.05Zm4-.57c0-.91-.4-1.46-1.2-1.46a1.48,1.48,0,0,0-1.41,1.46Z"/><path class="cls-2" d="M313.24,60.1h1.14l.1.8h0a2.54,2.54,0,0,1,1.81-.95A1.61,1.61,0,0,1,318,61,2.65,2.65,0,0,1,319.85,60c1.24,0,1.82.86,1.82,2.34V66h-1.38V62.47c0-1-.29-1.33-.91-1.33a1.82,1.82,0,0,0-1.23.73V66h-1.38V62.47c0-1-.29-1.33-.91-1.33a1.82,1.82,0,0,0-1.23.73V66h-1.39Z"/><path class="cls-2" d="M323,64.4c0-1.26,1-1.91,3.47-2.17,0-.64-.28-1.16-1.07-1.16a3.23,3.23,0,0,0-1.66.58l-.51-.93a4.69,4.69,0,0,1,2.42-.77c1.47,0,2.2.91,2.2,2.55V66h-1.13l-.11-.66h0a2.81,2.81,0,0,1-1.83.8A1.65,1.65,0,0,1,323,64.4Zm3.47,0V63.08c-1.6.21-2.13.62-2.13,1.22s.35.75.85.75A1.88,1.88,0,0,0,326.51,64.41Z"/><path class="cls-2" d="M331.36,65.07l.64-.88a2.55,2.55,0,0,0,1.78.81,1.38,1.38,0,0,0,1.48-1.46,1.31,1.31,0,0,0-1.41-1.42,2,2,0,0,0-1.22.42l-.65-.42.23-3.77h4.07v1.18H333.4l-.16,1.84a2.13,2.13,0,0,1,1-.25,2.22,2.22,0,0,1,2.4,2.38A2.57,2.57,0,0,1,334,66.13,3.46,3.46,0,0,1,331.36,65.07Z"/></svg>