<?xml version="1.0" encoding="UTF-8"?><svg id="a" xmlns="http://www.w3.org/2000/svg" viewBox="0 0 222.35 161.89"><defs><style>.b{fill:#f2f1f1;}.c{fill:#878d7a;}</style></defs><path class="b" d="M222,3.33c-1.22-.18-2.19-.64-3.05-1.27C217.69,1.14,216.12,0,213.17,0s-4.51,1.14-5.78,2.06c-.99,.72-1.74,1.26-3.17,1.36-1.63-.06-2.82-.6-3.86-1.36C199.11,1.14,197.54,0,194.59,0s-4.51,1.14-5.78,2.06c-.99,.72-1.74,1.26-3.17,1.36-1.63-.06-2.82-.6-3.86-1.36C180.53,1.14,178.96,0,176.01,0s-4.51,1.14-5.78,2.06c-.99,.72-1.74,1.26-3.17,1.36-1.63-.06-2.82-.6-3.86-1.36C161.95,1.14,160.38,0,157.43,0s-4.51,1.14-5.78,2.06c-.99,.72-1.74,1.26-3.17,1.36-1.63-.06-2.82-.6-3.86-1.36C143.37,1.14,141.8,0,138.85,0s-4.51,1.14-5.78,2.06c-.99,.72-1.74,1.26-3.17,1.36-1.63-.06-2.82-.6-3.86-1.36C124.79,1.14,123.22,0,120.27,0s-4.51,1.14-5.78,2.06c-.99,.72-1.74,1.26-3.17,1.36-1.63-.06-2.82-.6-3.86-1.36C106.2,1.14,104.64,0,101.69,0s-4.51,1.14-5.78,2.06c-.99,.72-1.74,1.26-3.17,1.36-1.63-.06-2.82-.6-3.86-1.36C87.62,1.14,86.06,0,83.11,0s-4.51,1.14-5.78,2.06c-.99,.72-1.74,1.26-3.17,1.36-1.63-.06-2.82-.6-3.86-1.36C69.04,1.14,67.47,0,64.53,0s-4.51,1.14-5.78,2.06c-.99,.72-1.74,1.26-3.17,1.36-1.63-.06-2.82-.6-3.86-1.36C50.46,1.14,48.89,0,45.95,0s-4.51,1.14-5.78,2.06c-.99,.72-1.74,1.26-3.17,1.36-1.63-.06-2.82-.6-3.86-1.36C31.88,1.14,30.31,0,27.37,0s-4.51,1.14-5.78,2.06c-.99,.72-1.74,1.26-3.17,1.36-1.63-.06-2.82-.6-3.86-1.36C13.3,1.14,11.73,0,8.79,0S4.27,1.14,3.01,2.06c-.95,.69-1.69,1.21-3.01,1.34V158.51c1.42,.13,2.51,.62,3.46,1.31,1.26,.92,2.83,2.06,5.77,2.06s4.52-1.14,5.78-2.06c.99-.72,1.74-1.26,3.17-1.36,1.63,.06,2.82,.6,3.86,1.36,1.26,.92,2.83,2.06,5.77,2.06s4.52-1.14,5.78-2.06c.99-.72,1.74-1.26,3.17-1.36,1.63,.06,2.82,.6,3.86,1.36,1.26,.92,2.83,2.06,5.77,2.06s4.52-1.14,5.78-2.06c.99-.72,1.74-1.26,3.17-1.36,1.63,.06,2.82,.6,3.86,1.36,1.26,.92,2.83,2.06,5.77,2.06s4.52-1.14,5.78-2.06c.99-.72,1.74-1.26,3.17-1.36,1.63,.06,2.82,.6,3.86,1.36,1.26,.92,2.83,2.06,5.77,2.06s4.52-1.14,5.78-2.06c.99-.72,1.74-1.26,3.17-1.36,1.63,.06,2.82,.6,3.86,1.36,1.26,.92,2.83,2.06,5.77,2.06s4.52-1.14,5.78-2.06c.99-.72,1.74-1.26,3.17-1.36,1.63,.06,2.82,.6,3.86,1.36,1.26,.92,2.83,2.06,5.77,2.06s4.52-1.14,5.78-2.06c.99-.72,1.74-1.26,3.17-1.36,1.63,.06,2.82,.6,3.86,1.36,1.26,.92,2.83,2.06,5.77,2.06s4.52-1.14,5.78-2.06c.99-.72,1.74-1.26,3.17-1.36,1.63,.06,2.82,.6,3.86,1.36,1.26,.92,2.83,2.06,5.77,2.06s4.52-1.14,5.78-2.06c.99-.72,1.74-1.26,3.17-1.36,1.63,.06,2.82,.6,3.86,1.36,1.26,.92,2.83,2.06,5.77,2.06s4.52-1.14,5.78-2.06c.99-.72,1.74-1.26,3.17-1.36,1.63,.06,2.82,.6,3.86,1.36,1.26,.92,2.83,2.06,5.77,2.06s4.52-1.14,5.78-2.06c.99-.72,1.74-1.26,3.17-1.36,1.63,.06,2.82,.6,3.86,1.36,1.26,.92,2.83,2.06,5.77,2.06s4.52-1.14,5.78-2.06c.85-.62,1.52-1.1,2.61-1.29V3.33Z"/><path class="c" d="M148.84,29.12c-2.04,0-3.69,1.65-3.69,3.69v97.5c0,2.04,1.65,3.69,3.69,3.69s3.69-1.65,3.69-3.69V32.81c0-2.04-1.65-3.69-3.69-3.69Z"/><path class="c" d="M205.56,42.38l-17.08-9.76c-1.11-.64-2.46-.7-3.63-.17l-20.73,9.35c-1.43,.65-2.36,2.07-2.36,3.65v24.19c0,1.32,.65,2.55,1.74,3.3l36.07,24.72v19.71l-13.21,7.24-16.6-7.81v-12.94l6.1-2.87,8.75,8.95c1.54,1.58,4.08,1.61,5.66,.06s1.61-4.08,.06-5.66l-10.73-10.98c-1.19-1.22-3.02-1.55-4.56-.82l-10.98,5.15c-1.4,.66-2.3,2.07-2.3,3.62v18.02c0,1.55,.9,2.96,2.3,3.62l20.73,9.76c.54,.25,1.12,.38,1.7,.38,.66,0,1.32-.17,1.92-.49l17.08-9.35c1.28-.7,2.08-2.05,2.08-3.51v-24.19c0-1.32-.65-2.55-1.74-3.3l-36.07-24.72v-19.5l16.52-7.45,13.29,7.59v13.16l-6.1,2.87-8.75-8.95c-1.54-1.58-4.08-1.61-5.66-.06-1.58,1.54-1.61,4.08-.06,5.66l10.73,10.98c1.19,1.22,3.02,1.55,4.56,.82l10.98-5.15c1.4-.66,2.3-2.07,2.3-3.62v-18.02c0-1.44-.77-2.76-2.02-3.47Z"/><path class="c" d="M.35,29.12c2.04,0,3.69,1.65,3.69,3.69v97.5c0,2.04-1.65,3.69-3.69,3.69V29.12Z"/><path class="c" d="M222.35,29.12c-2.04,0-3.69,1.65-3.69,3.69v97.5c0,2.04,1.65,3.69,3.69,3.69V29.12Z"/><g><rect class="c" x="5.7" y="12.2" width="6.67" height="10"/><rect class="c" x="24.28" y="12.2" width="6.67" height="10"/><rect class="c" x="42.86" y="12.2" width="6.67" height="10"/><rect class="c" x="61.45" y="12.2" width="6.67" height="10"/><rect class="c" x="80.03" y="12.2" width="6.67" height="10"/><rect class="c" x="98.61" y="12.2" width="6.67" height="10"/><rect class="c" x="117.19" y="12.2" width="6.67" height="10"/><rect class="c" x="135.77" y="12.2" width="6.67" height="10"/><rect class="c" x="154.35" y="12.2" width="6.67" height="10"/><rect class="c" x="172.93" y="12.2" width="6.67" height="10"/><rect class="c" x="191.51" y="12.2" width="6.67" height="10"/><rect class="c" x="210.09" y="12.2" width="6.67" height="10"/><path class="c" d="M222,8.33c-1.22-.18-2.19-.64-3.05-1.27-1.26-.92-2.83-2.06-5.78-2.06s-4.51,1.14-5.78,2.06c-.99,.72-1.74,1.26-3.17,1.36-1.63-.06-2.82-.6-3.86-1.36-1.26-.92-2.83-2.06-5.78-2.06s-4.51,1.14-5.78,2.06c-.99,.72-1.74,1.26-3.17,1.36-1.63-.06-2.82-.6-3.86-1.36-1.26-.92-2.83-2.06-5.78-2.06s-4.51,1.14-5.78,2.06c-.99,.72-1.74,1.26-3.17,1.36-1.63-.06-2.82-.6-3.86-1.36-1.26-.92-2.83-2.06-5.78-2.06s-4.51,1.14-5.78,2.06c-.99,.72-1.74,1.26-3.17,1.36-1.63-.06-2.82-.6-3.86-1.36-1.26-.92-2.83-2.06-5.78-2.06s-4.51,1.14-5.78,2.06c-.99,.72-1.74,1.26-3.17,1.36-1.63-.06-2.82-.6-3.86-1.36-1.26-.92-2.83-2.06-5.78-2.06s-4.51,1.14-5.78,2.06c-.99,.72-1.74,1.26-3.17,1.36-1.63-.06-2.82-.6-3.86-1.36-1.26-.92-2.83-2.06-5.78-2.06s-4.51,1.14-5.78,2.06c-.99,.72-1.74,1.26-3.17,1.36-1.63-.06-2.82-.6-3.86-1.36-1.26-.92-2.83-2.06-5.78-2.06s-4.51,1.14-5.78,2.06c-.99,.72-1.74,1.26-3.17,1.36-1.63-.06-2.82-.6-3.86-1.36-1.26-.92-2.83-2.06-5.78-2.06s-4.51,1.14-5.78,2.06c-.99,.72-1.74,1.26-3.17,1.36-1.63-.06-2.82-.6-3.86-1.36-1.26-.92-2.83-2.06-5.78-2.06s-4.51,1.14-5.78,2.06c-.99,.72-1.74,1.26-3.17,1.36-1.63-.06-2.82-.6-3.86-1.36-1.26-.92-2.83-2.06-5.78-2.06s-4.51,1.14-5.78,2.06c-.99,.72-1.74,1.26-3.17,1.36-1.63-.06-2.82-.6-3.86-1.36-1.26-.92-2.83-2.06-5.78-2.06s-4.51,1.14-5.78,2.06c-.95,.69-1.69,1.21-3.01,1.34v3.48s.07,0,.1,0v-.04c2.46-.18,3.87-1.19,5.02-2.03,1.1-.8,1.89-1.38,3.67-1.38s2.57,.58,3.67,1.38c1.15,.84,2.93,1.85,5.46,2.03v.04c.13,0,.25-.01,.38-.02,.13,0,.25,.02,.38,.02v-.04c2.46-.18,3.87-1.19,5.02-2.03,1.1-.8,1.89-1.38,3.67-1.38s2.57,.58,3.67,1.38c1.15,.84,2.93,1.85,5.46,2.03v.04c.13,0,.25-.01,.38-.02,.13,0,.25,.02,.38,.02v-.04c2.46-.18,3.87-1.19,5.02-2.03,1.1-.8,1.89-1.38,3.67-1.38s2.57,.58,3.67,1.38c1.15,.84,2.93,1.85,5.46,2.03v.04c.13,0,.25-.01,.38-.02,.13,0,.25,.02,.38,.02v-.04c2.46-.18,3.87-1.19,5.02-2.03,1.1-.8,1.89-1.38,3.67-1.38s2.57,.58,3.67,1.38c1.15,.84,2.93,1.85,5.46,2.03v.04c.13,0,.25-.01,.38-.02,.13,0,.25,.02,.38,.02v-.04c2.46-.18,3.87-1.19,5.02-2.03,1.1-.8,1.89-1.38,3.67-1.38s2.57,.58,3.67,1.38c1.15,.84,2.93,1.85,5.46,2.03v.04c.13,0,.25-.01,.38-.02,.13,0,.25,.02,.38,.02v-.04c2.46-.18,3.87-1.19,5.02-2.03,1.1-.8,1.89-1.38,3.67-1.38s2.57,.58,3.67,1.38c1.15,.84,2.93,1.85,5.46,2.03v.04c.13,0,.25-.01,.38-.02,.13,0,.25,.02,.38,.02v-.04c2.46-.18,3.87-1.19,5.02-2.03,1.1-.8,1.89-1.38,3.67-1.38s2.57,.58,3.67,1.38c1.15,.84,2.93,1.85,5.46,2.03v.04c.13,0,.25-.01,.38-.02,.13,0,.25,.02,.38,.02v-.04c2.46-.18,3.87-1.19,5.02-2.03,1.1-.8,1.89-1.38,3.67-1.38s2.57,.58,3.67,1.38c1.15,.84,2.93,1.85,5.46,2.03v.04c.13,0,.25-.01,.38-.02,.13,0,.25,.02,.38,.02v-.04c2.46-.18,3.87-1.19,5.02-2.03,1.1-.8,1.89-1.38,3.67-1.38s2.57,.58,3.67,1.38c1.15,.84,2.93,1.85,5.46,2.03v.04c.13,0,.25-.01,.38-.02,.13,0,.25,.02,.38,.02v-.04c2.46-.18,3.87-1.19,5.02-2.03,1.1-.8,1.89-1.38,3.67-1.38s2.57,.58,3.67,1.38c1.15,.84,2.93,1.85,5.46,2.03v.04c.13,0,.25-.01,.38-.02,.13,0,.25,.02,.38,.02v-.04c2.46-.18,3.87-1.19,5.02-2.03,1.1-.8,1.89-1.38,3.67-1.38s2.57,.58,3.67,1.38c1.15,.84,2.93,1.85,5.46,2.03v.04c.13,0,.25-.01,.38-.02,.13,0,.25,.02,.38,.02v-.04c2.46-.18,3.87-1.19,5.02-2.03,1.1-.8,1.89-1.38,3.67-1.38s2.57,.58,3.67,1.38c1.1,.8,2.79,1.76,5.16,1.99v-3.49Z"/><path class="c" d="M222,22.07c-2.26,.24-3.62,1.19-4.71,1.99-1.1,.8-1.89,1.38-3.67,1.38s-2.57-.58-3.67-1.38c-1.15-.84-2.93-1.85-5.46-2.03v-.04c-.13,0-.25,.01-.38,.02-.13,0-.25-.02-.38-.02v.04c-2.46,.18-3.87,1.19-5.02,2.03-1.1,.8-1.89,1.38-3.67,1.38s-2.57-.58-3.67-1.38c-1.15-.84-2.93-1.85-5.46-2.03v-.04c-.13,0-.25,.01-.38,.02-.13,0-.25-.02-.38-.02v.04c-2.46,.18-3.87,1.19-5.02,2.03-1.1,.8-1.89,1.38-3.67,1.38s-2.57-.58-3.67-1.38c-1.15-.84-2.93-1.85-5.46-2.03v-.04c-.13,0-.25,.01-.38,.02-.13,0-.25-.02-.38-.02v.04c-2.46,.18-3.87,1.19-5.02,2.03-1.1,.8-1.89,1.38-3.67,1.38s-2.57-.58-3.67-1.38c-1.15-.84-2.93-1.85-5.46-2.03v-.04c-.13,0-.25,.01-.38,.02-.13,0-.25-.02-.38-.02v.04c-2.46,.18-3.87,1.19-5.02,2.03-1.1,.8-1.89,1.38-3.67,1.38s-2.57-.58-3.67-1.38c-1.15-.84-2.93-1.85-5.46-2.03v-.04c-.13,0-.25,.01-.38,.02-.13,0-.25-.02-.38-.02v.04c-2.46,.18-3.87,1.19-5.02,2.03-1.1,.8-1.89,1.38-3.67,1.38s-2.57-.58-3.67-1.38c-1.15-.84-2.93-1.85-5.46-2.03v-.04c-.13,0-.25,.01-.38,.02-.13,0-.25-.02-.38-.02v.04c-2.46,.18-3.87,1.19-5.02,2.03-1.1,.8-1.89,1.38-3.67,1.38s-2.57-.58-3.67-1.38c-1.15-.84-2.93-1.85-5.46-2.03v-.04c-.13,0-.25,.01-.38,.02-.13,0-.25-.02-.38-.02v.04c-2.46,.18-3.87,1.19-5.02,2.03-1.1,.8-1.89,1.38-3.67,1.38s-2.57-.58-3.67-1.38c-1.15-.84-2.93-1.85-5.46-2.03v-.04c-.13,0-.25,.01-.38,.02-.13,0-.25-.02-.38-.02v.04c-2.46,.18-3.87,1.19-5.02,2.03-1.1,.8-1.89,1.38-3.67,1.38s-2.57-.58-3.67-1.38c-1.15-.84-2.93-1.85-5.46-2.03v-.04c-.13,0-.25,.01-.38,.02-.13,0-.25-.02-.38-.02v.04c-2.46,.18-3.87,1.19-5.02,2.03-1.1,.8-1.89,1.38-3.67,1.38s-2.57-.58-3.67-1.38c-1.15-.84-2.93-1.85-5.46-2.03v-.04c-.13,0-.25,.01-.38,.02-.13,0-.25-.02-.38-.02v.04c-2.46,.18-3.87,1.19-5.02,2.03-1.1,.8-1.89,1.38-3.67,1.38s-2.57-.58-3.67-1.38c-1.15-.84-2.93-1.85-5.46-2.03v-.04c-.13,0-.25,.01-.38,.02-.13,0-.25-.02-.38-.02v.04c-2.46,.18-3.87,1.19-5.02,2.03-1.1,.8-1.89,1.38-3.67,1.38s-2.57-.58-3.67-1.38c-1.15-.84-2.93-1.85-5.46-2.03v-.04s-.07,0-.1,0v3.51c1.42,.13,2.51,.62,3.46,1.31,1.26,.92,2.83,2.06,5.77,2.06s4.52-1.14,5.78-2.06c.99-.72,1.74-1.26,3.17-1.36,1.63,.06,2.82,.6,3.86,1.36,1.26,.92,2.83,2.06,5.77,2.06s4.52-1.14,5.78-2.06c.99-.72,1.74-1.26,3.17-1.36,1.63,.06,2.82,.6,3.86,1.36,1.26,.92,2.83,2.06,5.77,2.06s4.52-1.14,5.78-2.06c.99-.72,1.74-1.26,3.17-1.36,1.63,.06,2.82,.6,3.86,1.36,1.26,.92,2.83,2.06,5.77,2.06s4.52-1.14,5.78-2.06c.99-.72,1.74-1.26,3.17-1.36,1.63,.06,2.82,.6,3.86,1.36,1.26,.92,2.83,2.06,5.77,2.06s4.52-1.14,5.78-2.06c.99-.72,1.74-1.26,3.17-1.36,1.63,.06,2.82,.6,3.86,1.36,1.26,.92,2.83,2.06,5.77,2.06s4.52-1.14,5.78-2.06c.99-.72,1.74-1.26,3.17-1.36,1.63,.06,2.82,.6,3.86,1.36,1.26,.92,2.83,2.06,5.77,2.06s4.52-1.14,5.78-2.06c.99-.72,1.74-1.26,3.17-1.36,1.63,.06,2.82,.6,3.86,1.36,1.26,.92,2.83,2.06,5.77,2.06s4.52-1.14,5.78-2.06c.99-.72,1.74-1.26,3.17-1.36,1.63,.06,2.82,.6,3.86,1.36,1.26,.92,2.83,2.06,5.77,2.06s4.52-1.14,5.78-2.06c.99-.72,1.74-1.26,3.17-1.36,1.63,.06,2.82,.6,3.86,1.36,1.26,.92,2.83,2.06,5.77,2.06s4.52-1.14,5.78-2.06c.99-.72,1.74-1.26,3.17-1.36,1.63,.06,2.82,.6,3.86,1.36,1.26,.92,2.83,2.06,5.77,2.06s4.52-1.14,5.78-2.06c.99-.72,1.74-1.26,3.17-1.36,1.63,.06,2.82,.6,3.86,1.36,1.26,.92,2.83,2.06,5.77,2.06s4.52-1.14,5.78-2.06c.85-.62,1.52-1.1,2.61-1.29v-3.46Z"/></g><g><rect class="c" x="5.7" y="141.2" width="6.67" height="10"/><rect class="c" x="24.28" y="141.2" width="6.67" height="10"/><rect class="c" x="42.86" y="141.2" width="6.67" height="10"/><rect class="c" x="61.45" y="141.2" width="6.67" height="10"/><rect class="c" x="80.03" y="141.2" width="6.67" height="10"/><rect class="c" x="98.61" y="141.2" width="6.67" height="10"/><rect class="c" x="117.19" y="141.2" width="6.67" height="10"/><rect class="c" x="135.77" y="141.2" width="6.67" height="10"/><rect class="c" x="154.35" y="141.2" width="6.67" height="10"/><rect class="c" x="172.93" y="141.2" width="6.67" height="10"/><rect class="c" x="191.51" y="141.2" width="6.67" height="10"/><rect class="c" x="210.09" y="141.2" width="6.67" height="10"/><path class="c" d="M222,137.33c-1.22-.18-2.19-.64-3.05-1.27-1.26-.92-2.83-2.06-5.78-2.06s-4.51,1.14-5.78,2.06c-.99,.72-1.74,1.26-3.17,1.36-1.63-.06-2.82-.6-3.86-1.36-1.26-.92-2.83-2.06-5.78-2.06s-4.51,1.14-5.78,2.06c-.99,.72-1.74,1.26-3.17,1.36-1.63-.06-2.82-.6-3.86-1.36-1.26-.92-2.83-2.06-5.78-2.06s-4.51,1.14-5.78,2.06c-.99,.72-1.74,1.26-3.17,1.36-1.63-.06-2.82-.6-3.86-1.36-1.26-.92-2.83-2.06-5.78-2.06s-4.51,1.14-5.78,2.06c-.99,.72-1.74,1.26-3.17,1.36-1.63-.06-2.82-.6-3.86-1.36-1.26-.92-2.83-2.06-5.78-2.06s-4.51,1.14-5.78,2.06c-.99,.72-1.74,1.26-3.17,1.36-1.63-.06-2.82-.6-3.86-1.36-1.26-.92-2.83-2.06-5.78-2.06s-4.51,1.14-5.78,2.06c-.99,.72-1.74,1.26-3.17,1.36-1.63-.06-2.82-.6-3.86-1.36-1.26-.92-2.83-2.06-5.78-2.06s-4.51,1.14-5.78,2.06c-.99,.72-1.74,1.26-3.17,1.36-1.63-.06-2.82-.6-3.86-1.36-1.26-.92-2.83-2.06-5.78-2.06s-4.51,1.14-5.78,2.06c-.99,.72-1.74,1.26-3.17,1.36-1.63-.06-2.82-.6-3.86-1.36-1.26-.92-2.83-2.06-5.78-2.06s-4.51,1.14-5.78,2.06c-.99,.72-1.74,1.26-3.17,1.36-1.63-.06-2.82-.6-3.86-1.36-1.26-.92-2.83-2.06-5.78-2.06s-4.51,1.14-5.78,2.06c-.99,.72-1.74,1.26-3.17,1.36-1.63-.06-2.82-.6-3.86-1.36-1.26-.92-2.83-2.06-5.78-2.06s-4.51,1.14-5.78,2.06c-.99,.72-1.74,1.26-3.17,1.36-1.63-.06-2.82-.6-3.86-1.36-1.26-.92-2.83-2.06-5.78-2.06s-4.51,1.14-5.78,2.06c-.95,.69-1.69,1.21-3.01,1.34v3.48s.07,0,.1,0v-.04c2.46-.18,3.87-1.19,5.02-2.03,1.1-.8,1.89-1.38,3.67-1.38s2.57,.58,3.67,1.38c1.15,.84,2.93,1.85,5.46,2.03v.04c.13,0,.25-.01,.38-.02,.13,0,.25,.02,.38,.02v-.04c2.46-.18,3.87-1.19,5.02-2.03,1.1-.8,1.89-1.38,3.67-1.38s2.57,.58,3.67,1.38c1.15,.84,2.93,1.85,5.46,2.03v.04c.13,0,.25-.01,.38-.02,.13,0,.25,.02,.38,.02v-.04c2.46-.18,3.87-1.19,5.02-2.03,1.1-.8,1.89-1.38,3.67-1.38s2.57,.58,3.67,1.38c1.15,.84,2.93,1.85,5.46,2.03v.04c.13,0,.25-.01,.38-.02,.13,0,.25,.02,.38,.02v-.04c2.46-.18,3.87-1.19,5.02-2.03,1.1-.8,1.89-1.38,3.67-1.38s2.57,.58,3.67,1.38c1.15,.84,2.93,1.85,5.46,2.03v.04c.13,0,.25-.01,.38-.02,.13,0,.25,.02,.38,.02v-.04c2.46-.18,3.87-1.19,5.02-2.03,1.1-.8,1.89-1.38,3.67-1.38s2.57,.58,3.67,1.38c1.15,.84,2.93,1.85,5.46,2.03v.04c.13,0,.25-.01,.38-.02,.13,0,.25,.02,.38,.02v-.04c2.46-.18,3.87-1.19,5.02-2.03,1.1-.8,1.89-1.38,3.67-1.38s2.57,.58,3.67,1.38c1.15,.84,2.93,1.85,5.46,2.03v.04c.13,0,.25-.01,.38-.02,.13,0,.25,.02,.38,.02v-.04c2.46-.18,3.87-1.19,5.02-2.03,1.1-.8,1.89-1.38,3.67-1.38s2.57,.58,3.67,1.38c1.15,.84,2.93,1.85,5.46,2.03v.04c.13,0,.25-.01,.38-.02,.13,0,.25,.02,.38,.02v-.04c2.46-.18,3.87-1.19,5.02-2.03,1.1-.8,1.89-1.38,3.67-1.38s2.57,.58,3.67,1.38c1.15,.84,2.93,1.85,5.46,2.03v.04c.13,0,.25-.01,.38-.02,.13,0,.25,.02,.38,.02v-.04c2.46-.18,3.87-1.19,5.02-2.03,1.1-.8,1.89-1.38,3.67-1.38s2.57,.58,3.67,1.38c1.15,.84,2.93,1.85,5.46,2.03v.04c.13,0,.25-.01,.38-.02,.13,0,.25,.02,.38,.02v-.04c2.46-.18,3.87-1.19,5.02-2.03,1.1-.8,1.89-1.38,3.67-1.38s2.57,.58,3.67,1.38c1.15,.84,2.93,1.85,5.46,2.03v.04c.13,0,.25-.01,.38-.02,.13,0,.25,.02,.38,.02v-.04c2.46-.18,3.87-1.19,5.02-2.03,1.1-.8,1.89-1.38,3.67-1.38s2.57,.58,3.67,1.38c1.15,.84,2.93,1.85,5.46,2.03v.04c.13,0,.25-.01,.38-.02,.13,0,.25,.02,.38,.02v-.04c2.46-.18,3.87-1.19,5.02-2.03,1.1-.8,1.89-1.38,3.67-1.38s2.57,.58,3.67,1.38c1.1,.8,2.79,1.76,5.16,1.99v-3.49Z"/><path class="c" d="M222,151.07c-2.26,.24-3.62,1.19-4.71,1.99-1.1,.8-1.89,1.38-3.67,1.38s-2.57-.58-3.67-1.38c-1.15-.84-2.93-1.85-5.46-2.03v-.04c-.13,0-.25,.01-.38,.02-.13,0-.25-.02-.38-.02v.04c-2.46,.18-3.87,1.19-5.02,2.03-1.1,.8-1.89,1.38-3.67,1.38s-2.57-.58-3.67-1.38c-1.15-.84-2.93-1.85-5.46-2.03v-.04c-.13,0-.25,.01-.38,.02-.13,0-.25-.02-.38-.02v.04c-2.46,.18-3.87,1.19-5.02,2.03-1.1,.8-1.89,1.38-3.67,1.38s-2.57-.58-3.67-1.38c-1.15-.84-2.93-1.85-5.46-2.03v-.04c-.13,0-.25,.01-.38,.02-.13,0-.25-.02-.38-.02v.04c-2.46,.18-3.87,1.19-5.02,2.03-1.1,.8-1.89,1.38-3.67,1.38s-2.57-.58-3.67-1.38c-1.15-.84-2.93-1.85-5.46-2.03v-.04c-.13,0-.25,.01-.38,.02-.13,0-.25-.02-.38-.02v.04c-2.46,.18-3.87,1.19-5.02,2.03-1.1,.8-1.89,1.38-3.67,1.38s-2.57-.58-3.67-1.38c-1.15-.84-2.93-1.85-5.46-2.03v-.04c-.13,0-.25,.01-.38,.02-.13,0-.25-.02-.38-.02v.04c-2.46,.18-3.87,1.19-5.02,2.03-1.1,.8-1.89,1.38-3.67,1.38s-2.57-.58-3.67-1.38c-1.15-.84-2.93-1.85-5.46-2.03v-.04c-.13,0-.25,.01-.38,.02-.13,0-.25-.02-.38-.02v.04c-2.46,.18-3.87,1.19-5.02,2.03-1.1,.8-1.89,1.38-3.67,1.38s-2.57-.58-3.67-1.38c-1.15-.84-2.93-1.85-5.46-2.03v-.04c-.13,0-.25,.01-.38,.02-.13,0-.25-.02-.38-.02v.04c-2.46,.18-3.87,1.19-5.02,2.03-1.1,.8-1.89,1.38-3.67,1.38s-2.57-.58-3.67-1.38c-1.15-.84-2.93-1.85-5.46-2.03v-.04c-.13,0-.25,.01-.38,.02-.13,0-.25-.02-.38-.02v.04c-2.46,.18-3.87,1.19-5.02,2.03-1.1,.8-1.89,1.38-3.67,1.38s-2.57-.58-3.67-1.38c-1.15-.84-2.93-1.85-5.46-2.03v-.04c-.13,0-.25,.01-.38,.02-.13,0-.25-.02-.38-.02v.04c-2.46,.18-3.87,1.19-5.02,2.03-1.1,.8-1.89,1.38-3.67,1.38s-2.57-.58-3.67-1.38c-1.15-.84-2.93-1.85-5.46-2.03v-.04c-.13,0-.25,.01-.38,.02-.13,0-.25-.02-.38-.02v.04c-2.46,.18-3.87,1.19-5.02,2.03-1.1,.8-1.89,1.38-3.67,1.38s-2.57-.58-3.67-1.38c-1.15-.84-2.93-1.85-5.46-2.03v-.04c-.13,0-.25,.01-.38,.02-.13,0-.25-.02-.38-.02v.04c-2.46,.18-3.87,1.19-5.02,2.03-1.1,.8-1.89,1.38-3.67,1.38s-2.57-.58-3.67-1.38c-1.15-.84-2.93-1.85-5.46-2.03v-.04s-.07,0-.1,0v3.51c1.42,.13,2.51,.62,3.46,1.31,1.26,.92,2.83,2.06,5.77,2.06s4.52-1.14,5.78-2.06c.99-.72,1.74-1.26,3.17-1.36,1.63,.06,2.82,.6,3.86,1.36,1.26,.92,2.83,2.06,5.77,2.06s4.52-1.14,5.78-2.06c.99-.72,1.74-1.26,3.17-1.36,1.63,.06,2.82,.6,3.86,1.36,1.26,.92,2.83,2.06,5.77,2.06s4.52-1.14,5.78-2.06c.99-.72,1.74-1.26,3.17-1.36,1.63,.06,2.82,.6,3.86,1.36,1.26,.92,2.83,2.06,5.77,2.06s4.52-1.14,5.78-2.06c.99-.72,1.74-1.26,3.17-1.36,1.63,.06,2.82,.6,3.86,1.36,1.26,.92,2.83,2.06,5.77,2.06s4.52-1.14,5.78-2.06c.99-.72,1.74-1.26,3.17-1.36,1.63,.06,2.82,.6,3.86,1.36,1.26,.92,2.83,2.06,5.77,2.06s4.52-1.14,5.78-2.06c.99-.72,1.74-1.26,3.17-1.36,1.63,.06,2.82,.6,3.86,1.36,1.26,.92,2.83,2.06,5.77,2.06s4.52-1.14,5.78-2.06c.99-.72,1.74-1.26,3.17-1.36,1.63,.06,2.82,.6,3.86,1.36,1.26,.92,2.83,2.06,5.77,2.06s4.52-1.14,5.78-2.06c.99-.72,1.74-1.26,3.17-1.36,1.63,.06,2.82,.6,3.86,1.36,1.26,.92,2.83,2.06,5.77,2.06s4.52-1.14,5.78-2.06c.99-.72,1.74-1.26,3.17-1.36,1.63,.06,2.82,.6,3.86,1.36,1.26,.92,2.83,2.06,5.77,2.06s4.52-1.14,5.78-2.06c.99-.72,1.74-1.26,3.17-1.36,1.63,.06,2.82,.6,3.86,1.36,1.26,.92,2.83,2.06,5.77,2.06s4.52-1.14,5.78-2.06c.99-.72,1.74-1.26,3.17-1.36,1.63,.06,2.82,.6,3.86,1.36,1.26,.92,2.83,2.06,5.77,2.06s4.52-1.14,5.78-2.06c.85-.62,1.52-1.1,2.61-1.29v-3.46Z"/></g><g><path class="c" d="M136.77,55.54l-14.84-10.15,7.54-5.27c1.81-1.26,2.25-3.76,.99-5.57-1.26-1.81-3.76-2.25-5.57-.99l-62.15,43.4-31.93-22.3,7.11-12.28,15.86,9.66-4.55,6.51c-1.27,1.81-.83,4.3,.98,5.57,1.81,1.27,4.3,.83,5.57-.98l7-10c.63-.91,.86-2.03,.64-3.11-.23-1.08-.89-2.02-1.84-2.6l-23-14c-.92-.56-2.03-.73-3.07-.46-1.04,.27-1.93,.94-2.47,1.87l-11,19c-1.04,1.8-.53,4.09,1.17,5.28l32.54,22.72-32.54,22.72c-1.7,1.19-2.21,3.49-1.17,5.28l11,19c.54,.93,1.43,1.61,2.47,1.87,.33,.08,.66,.12,.99,.12,.73,0,1.45-.2,2.08-.58l23-14c.94-.58,1.61-1.51,1.84-2.6,.23-1.08,0-2.21-.64-3.11l-7-10c-1.27-1.81-3.76-2.25-5.57-.98-1.81,1.27-2.25,3.76-.98,5.57l4.55,6.51-15.86,9.66-7.11-12.28,31.93-22.3,62.15,43.4c.7,.49,1.5,.72,2.29,.72,1.26,0,2.5-.6,3.28-1.71,1.27-1.81,.82-4.3-.99-5.57l-59.74-41.72,9.86-6.89,48.76,31.25c.67,.43,1.42,.63,2.15,.63,1.32,0,2.61-.65,3.37-1.84,1.19-1.86,.65-4.33-1.21-5.53l-45.99-29.47,10.13-7.07,34.53,22.28c.67,.43,1.42,.64,2.16,.64,1.31,0,2.6-.65,3.37-1.83,1.2-1.86,.66-4.33-1.19-5.53l-31.78-20.5,11.02-7.7,17.33,11.86c.69,.47,1.48,.7,2.26,.7,1.28,0,2.53-.61,3.3-1.74,1.25-1.82,.78-4.31-1.04-5.56Z"/><path class="c" d="M74.83,52.61c.56,.48,1.25,.72,1.95,.72s1.34-.22,1.89-.67l10.81-8.76c.7-.57,1.11-1.43,1.11-2.33s-.41-1.76-1.11-2.33l-10.81-8.76c-1.12-.91-2.74-.89-3.84,.05l-10.26,8.76c-.67,.57-1.05,1.4-1.05,2.28s.38,1.71,1.05,2.28l10.26,8.76Zm2-15.91l6,4.86-6,4.86-5.69-4.86,5.69-4.86Z"/><path class="c" d="M25.77,93.33c.67,0,1.34-.22,1.89-.67l10.81-8.76c.7-.57,1.11-1.43,1.11-2.33s-.41-1.76-1.11-2.33l-10.81-8.76c-1.12-.91-2.74-.89-3.84,.05l-10.26,8.76c-.67,.57-1.05,1.4-1.05,2.28s.38,1.71,1.05,2.28l10.26,8.76c.56,.48,1.25,.72,1.95,.72Zm.05-16.62l6,4.86-6,4.86-5.69-4.86,5.69-4.86Z"/><path class="c" d="M78.66,110.47c-1.12-.91-2.74-.89-3.84,.05l-10.26,8.76c-.67,.57-1.05,1.4-1.05,2.28s.38,1.71,1.05,2.28l10.26,8.76c.56,.48,1.25,.72,1.95,.72s1.34-.22,1.89-.67l10.81-8.76c.7-.57,1.11-1.43,1.11-2.33s-.41-1.76-1.11-2.33l-10.81-8.76Zm-1.84,15.96l-5.69-4.86,5.69-4.86,6,4.86-6,4.86Z"/></g></svg>