<?xml version="1.0" encoding="UTF-8"?><svg id="a" xmlns="http://www.w3.org/2000/svg" viewBox="0 0 222.35 161.89"><defs><style>.b{fill:#fff;}.c{fill:#629fce;}.d{fill:#313385;}.e{fill:#508b4a;}</style></defs><path class="b" d="M222,3.33c-1.22-.18-2.19-.64-3.05-1.27C217.69,1.14,216.12,0,213.17,0s-4.51,1.14-5.78,2.06c-.99,.72-1.74,1.26-3.17,1.36-1.63-.06-2.82-.6-3.86-1.36C199.11,1.14,197.54,0,194.59,0s-4.51,1.14-5.78,2.06c-.99,.72-1.74,1.26-3.17,1.36-1.63-.06-2.82-.6-3.86-1.36C180.53,1.14,178.96,0,176.01,0s-4.51,1.14-5.78,2.06c-.99,.72-1.74,1.26-3.17,1.36-1.63-.06-2.82-.6-3.86-1.36C161.95,1.14,160.38,0,157.43,0s-4.51,1.14-5.78,2.06c-.99,.72-1.74,1.26-3.17,1.36-1.63-.06-2.82-.6-3.86-1.36C143.37,1.14,141.8,0,138.85,0s-4.51,1.14-5.78,2.06c-.99,.72-1.74,1.26-3.17,1.36-1.63-.06-2.82-.6-3.86-1.36C124.79,1.14,123.22,0,120.27,0s-4.51,1.14-5.78,2.06c-.99,.72-1.74,1.26-3.17,1.36-1.63-.06-2.82-.6-3.86-1.36C106.2,1.14,104.64,0,101.69,0s-4.51,1.14-5.78,2.06c-.99,.72-1.74,1.26-3.17,1.36-1.63-.06-2.82-.6-3.86-1.36C87.62,1.14,86.06,0,83.11,0s-4.51,1.14-5.78,2.06c-.99,.72-1.74,1.26-3.17,1.36-1.63-.06-2.82-.6-3.86-1.36C69.04,1.14,67.47,0,64.53,0s-4.51,1.14-5.78,2.06c-.99,.72-1.74,1.26-3.17,1.36-1.63-.06-2.82-.6-3.86-1.36C50.46,1.14,48.89,0,45.95,0s-4.51,1.14-5.78,2.06c-.99,.72-1.74,1.26-3.17,1.36-1.63-.06-2.82-.6-3.86-1.36C31.88,1.14,30.31,0,27.37,0s-4.51,1.14-5.78,2.06c-.99,.72-1.74,1.26-3.17,1.36-1.63-.06-2.82-.6-3.86-1.36C13.3,1.14,11.73,0,8.79,0S4.27,1.14,3.01,2.06C2.06,2.76,1.33,3.27,0,3.4V158.51c1.42,.13,2.51,.62,3.46,1.31,1.26,.92,2.83,2.06,5.77,2.06s4.52-1.14,5.78-2.06c.99-.72,1.74-1.26,3.17-1.36,1.63,.06,2.82,.6,3.86,1.36,1.26,.92,2.83,2.06,5.77,2.06s4.52-1.14,5.78-2.06c.99-.72,1.74-1.26,3.17-1.36,1.63,.06,2.82,.6,3.86,1.36,1.26,.92,2.83,2.06,5.77,2.06s4.52-1.14,5.78-2.06c.99-.72,1.74-1.26,3.17-1.36,1.63,.06,2.82,.6,3.86,1.36,1.26,.92,2.83,2.06,5.77,2.06s4.52-1.14,5.78-2.06c.99-.72,1.74-1.26,3.17-1.36,1.63,.06,2.82,.6,3.86,1.36,1.26,.92,2.83,2.06,5.77,2.06s4.52-1.14,5.78-2.06c.99-.72,1.74-1.26,3.17-1.36,1.63,.06,2.82,.6,3.86,1.36,1.26,.92,2.83,2.06,5.77,2.06s4.52-1.14,5.78-2.06c.99-.72,1.74-1.26,3.17-1.36,1.63,.06,2.82,.6,3.86,1.36,1.26,.92,2.83,2.06,5.77,2.06s4.52-1.14,5.78-2.06c.99-.72,1.74-1.26,3.17-1.36,1.63,.06,2.82,.6,3.86,1.36,1.26,.92,2.83,2.06,5.77,2.06s4.52-1.14,5.78-2.06c.99-.72,1.74-1.26,3.17-1.36,1.63,.06,2.82,.6,3.86,1.36,1.26,.92,2.83,2.06,5.77,2.06s4.52-1.14,5.78-2.06c.99-.72,1.74-1.26,3.17-1.36,1.63,.06,2.82,.6,3.86,1.36,1.26,.92,2.83,2.06,5.77,2.06s4.52-1.14,5.78-2.06c.99-.72,1.74-1.26,3.17-1.36,1.63,.06,2.82,.6,3.86,1.36,1.26,.92,2.83,2.06,5.77,2.06s4.52-1.14,5.78-2.06c.99-.72,1.74-1.26,3.17-1.36,1.63,.06,2.82,.6,3.86,1.36,1.26,.92,2.83,2.06,5.77,2.06s4.52-1.14,5.78-2.06c.85-.62,1.52-1.1,2.61-1.29V3.33Z"/><path class="e" d="M205.56,42.38l-17.08-9.76c-1.11-.64-2.46-.7-3.63-.17l-20.73,9.35c-1.43,.65-2.36,2.07-2.36,3.65v24.19c0,1.32,.65,2.55,1.74,3.3l36.07,24.72v19.71l-13.21,7.24-16.6-7.81v-12.94l6.1-2.87,8.75,8.95c1.54,1.58,4.08,1.61,5.66,.06s1.61-4.08,.06-5.66l-10.73-10.98c-1.19-1.22-3.02-1.55-4.56-.82l-10.98,5.15c-1.4,.66-2.3,2.07-2.3,3.62v18.02c0,1.55,.9,2.96,2.3,3.62l20.73,9.76c.54,.25,1.12,.38,1.7,.38,.66,0,1.32-.17,1.92-.49l17.08-9.35c1.28-.7,2.08-2.05,2.08-3.51v-24.19c0-1.32-.65-2.55-1.74-3.3l-36.07-24.72v-19.5l16.52-7.45,13.29,7.59v13.16l-6.1,2.87-8.75-8.95c-1.54-1.58-4.08-1.61-5.66-.06-1.58,1.54-1.61,4.08-.06,5.66l10.73,10.98c1.19,1.22,3.02,1.55,4.56,.82l10.98-5.15c1.4-.66,2.3-2.07,2.3-3.62v-18.02c0-1.44-.77-2.76-2.02-3.47Z"/><path class="e" d="M.35,29.12c2.04,0,3.69,1.65,3.69,3.69v97.5c0,2.04-1.65,3.69-3.69,3.69V29.12Z"/><path class="e" d="M222.35,29.12c-2.04,0-3.69,1.65-3.69,3.69v97.5c0,2.04,1.65,3.69,3.69,3.69V29.12Z"/><g><rect class="d" x="5.7" y="12.2" width="6.67" height="10"/><rect class="d" x="24.28" y="12.2" width="6.67" height="10"/><rect class="d" x="42.86" y="12.2" width="6.67" height="10"/><rect class="d" x="61.45" y="12.2" width="6.67" height="10"/><rect class="d" x="80.03" y="12.2" width="6.67" height="10"/><rect class="d" x="98.61" y="12.2" width="6.67" height="10"/><rect class="d" x="117.19" y="12.2" width="6.67" height="10"/><rect class="d" x="135.77" y="12.2" width="6.67" height="10"/><rect class="d" x="154.35" y="12.2" width="6.67" height="10"/><rect class="d" x="172.93" y="12.2" width="6.67" height="10"/><rect class="d" x="191.51" y="12.2" width="6.67" height="10"/><rect class="d" x="210.09" y="12.2" width="6.67" height="10"/><path class="c" d="M222,8.33c-1.22-.18-2.19-.64-3.05-1.27-1.26-.92-2.83-2.06-5.78-2.06s-4.51,1.14-5.78,2.06c-.99,.72-1.74,1.26-3.17,1.36-1.63-.06-2.82-.6-3.86-1.36-1.26-.92-2.83-2.06-5.78-2.06s-4.51,1.14-5.78,2.06c-.99,.72-1.74,1.26-3.17,1.36-1.63-.06-2.82-.6-3.86-1.36-1.26-.92-2.83-2.06-5.78-2.06s-4.51,1.14-5.78,2.06c-.99,.72-1.74,1.26-3.17,1.36-1.63-.06-2.82-.6-3.86-1.36-1.26-.92-2.83-2.06-5.78-2.06s-4.51,1.14-5.78,2.06c-.99,.72-1.74,1.26-3.17,1.36-1.63-.06-2.82-.6-3.86-1.36-1.26-.92-2.83-2.06-5.78-2.06s-4.51,1.14-5.78,2.06c-.99,.72-1.74,1.26-3.17,1.36-1.63-.06-2.82-.6-3.86-1.36-1.26-.92-2.83-2.06-5.78-2.06s-4.51,1.14-5.78,2.06c-.99,.72-1.74,1.26-3.17,1.36-1.63-.06-2.82-.6-3.86-1.36-1.26-.92-2.83-2.06-5.78-2.06s-4.51,1.14-5.78,2.06c-.99,.72-1.74,1.26-3.17,1.36-1.63-.06-2.82-.6-3.86-1.36-1.26-.92-2.83-2.06-5.78-2.06s-4.51,1.14-5.78,2.06c-.99,.72-1.74,1.26-3.17,1.36-1.63-.06-2.82-.6-3.86-1.36-1.26-.92-2.83-2.06-5.78-2.06s-4.51,1.14-5.78,2.06c-.99,.72-1.74,1.26-3.17,1.36-1.63-.06-2.82-.6-3.86-1.36-1.26-.92-2.83-2.06-5.78-2.06s-4.51,1.14-5.78,2.06c-.99,.72-1.74,1.26-3.17,1.36-1.63-.06-2.82-.6-3.86-1.36-1.26-.92-2.83-2.06-5.78-2.06s-4.51,1.14-5.78,2.06c-.99,.72-1.74,1.26-3.17,1.36-1.63-.06-2.82-.6-3.86-1.36-1.26-.92-2.83-2.06-5.78-2.06s-4.51,1.14-5.78,2.06C2.06,7.76,1.33,8.27,0,8.4v3.48s.07,0,.1,0v-.04c2.46-.18,3.87-1.19,5.02-2.03,1.1-.8,1.89-1.38,3.67-1.38s2.57,.58,3.67,1.38c1.15,.84,2.93,1.85,5.46,2.03v.04c.13,0,.25-.01,.38-.02,.13,0,.25,.02,.38,.02v-.04c2.46-.18,3.87-1.19,5.02-2.03,1.1-.8,1.89-1.38,3.67-1.38s2.57,.58,3.67,1.38c1.15,.84,2.93,1.85,5.46,2.03v.04c.13,0,.25-.01,.38-.02,.13,0,.25,.02,.38,.02v-.04c2.46-.18,3.87-1.19,5.02-2.03,1.1-.8,1.89-1.38,3.67-1.38s2.57,.58,3.67,1.38c1.15,.84,2.93,1.85,5.46,2.03v.04c.13,0,.25-.01,.38-.02,.13,0,.25,.02,.38,.02v-.04c2.46-.18,3.87-1.19,5.02-2.03,1.1-.8,1.89-1.38,3.67-1.38s2.57,.58,3.67,1.38c1.15,.84,2.93,1.85,5.46,2.03v.04c.13,0,.25-.01,.38-.02,.13,0,.25,.02,.38,.02v-.04c2.46-.18,3.87-1.19,5.02-2.03,1.1-.8,1.89-1.38,3.67-1.38s2.57,.58,3.67,1.38c1.15,.84,2.93,1.85,5.46,2.03v.04c.13,0,.25-.01,.38-.02,.13,0,.25,.02,.38,.02v-.04c2.46-.18,3.87-1.19,5.02-2.03,1.1-.8,1.89-1.38,3.67-1.38s2.57,.58,3.67,1.38c1.15,.84,2.93,1.85,5.46,2.03v.04c.13,0,.25-.01,.38-.02,.13,0,.25,.02,.38,.02v-.04c2.46-.18,3.87-1.19,5.02-2.03,1.1-.8,1.89-1.38,3.67-1.38s2.57,.58,3.67,1.38c1.15,.84,2.93,1.85,5.46,2.03v.04c.13,0,.25-.01,.38-.02,.13,0,.25,.02,.38,.02v-.04c2.46-.18,3.87-1.19,5.02-2.03,1.1-.8,1.89-1.38,3.67-1.38s2.57,.58,3.67,1.38c1.15,.84,2.93,1.85,5.46,2.03v.04c.13,0,.25-.01,.38-.02,.13,0,.25,.02,.38,.02v-.04c2.46-.18,3.87-1.19,5.02-2.03,1.1-.8,1.89-1.38,3.67-1.38s2.57,.58,3.67,1.38c1.15,.84,2.93,1.85,5.46,2.03v.04c.13,0,.25-.01,.38-.02,.13,0,.25,.02,.38,.02v-.04c2.46-.18,3.87-1.19,5.02-2.03,1.1-.8,1.89-1.38,3.67-1.38s2.57,.58,3.67,1.38c1.15,.84,2.93,1.85,5.46,2.03v.04c.13,0,.25-.01,.38-.02,.13,0,.25,.02,.38,.02v-.04c2.46-.18,3.87-1.19,5.02-2.03,1.1-.8,1.89-1.38,3.67-1.38s2.57,.58,3.67,1.38c1.15,.84,2.93,1.85,5.46,2.03v.04c.13,0,.25-.01,.38-.02,.13,0,.25,.02,.38,.02v-.04c2.46-.18,3.87-1.19,5.02-2.03,1.1-.8,1.89-1.38,3.67-1.38s2.57,.58,3.67,1.38c1.1,.8,2.79,1.76,5.16,1.99v-3.49Z"/><path class="c" d="M222,22.07c-2.26,.24-3.62,1.19-4.71,1.99-1.1,.8-1.89,1.38-3.67,1.38s-2.57-.58-3.67-1.38c-1.15-.84-2.93-1.85-5.46-2.03v-.04c-.13,0-.25,.01-.38,.02-.13,0-.25-.02-.38-.02v.04c-2.46,.18-3.87,1.19-5.02,2.03-1.1,.8-1.89,1.38-3.67,1.38s-2.57-.58-3.67-1.38c-1.15-.84-2.93-1.85-5.46-2.03v-.04c-.13,0-.25,.01-.38,.02-.13,0-.25-.02-.38-.02v.04c-2.46,.18-3.87,1.19-5.02,2.03-1.1,.8-1.89,1.38-3.67,1.38s-2.57-.58-3.67-1.38c-1.15-.84-2.93-1.85-5.46-2.03v-.04c-.13,0-.25,.01-.38,.02-.13,0-.25-.02-.38-.02v.04c-2.46,.18-3.87,1.19-5.02,2.03-1.1,.8-1.89,1.38-3.67,1.38s-2.57-.58-3.67-1.38c-1.15-.84-2.93-1.85-5.46-2.03v-.04c-.13,0-.25,.01-.38,.02-.13,0-.25-.02-.38-.02v.04c-2.46,.18-3.87,1.19-5.02,2.03-1.1,.8-1.89,1.38-3.67,1.38s-2.57-.58-3.67-1.38c-1.15-.84-2.93-1.85-5.46-2.03v-.04c-.13,0-.25,.01-.38,.02-.13,0-.25-.02-.38-.02v.04c-2.46,.18-3.87,1.19-5.02,2.03-1.1,.8-1.89,1.38-3.67,1.38s-2.57-.58-3.67-1.38c-1.15-.84-2.93-1.85-5.46-2.03v-.04c-.13,0-.25,.01-.38,.02-.13,0-.25-.02-.38-.02v.04c-2.46,.18-3.87,1.19-5.02,2.03-1.1,.8-1.89,1.38-3.67,1.38s-2.57-.58-3.67-1.38c-1.15-.84-2.93-1.85-5.46-2.03v-.04c-.13,0-.25,.01-.38,.02-.13,0-.25-.02-.38-.02v.04c-2.46,.18-3.87,1.19-5.02,2.03-1.1,.8-1.89,1.38-3.67,1.38s-2.57-.58-3.67-1.38c-1.15-.84-2.93-1.85-5.46-2.03v-.04c-.13,0-.25,.01-.38,.02-.13,0-.25-.02-.38-.02v.04c-2.46,.18-3.87,1.19-5.02,2.03-1.1,.8-1.89,1.38-3.67,1.38s-2.57-.58-3.67-1.38c-1.15-.84-2.93-1.85-5.46-2.03v-.04c-.13,0-.25,.01-.38,.02-.13,0-.25-.02-.38-.02v.04c-2.46,.18-3.87,1.19-5.02,2.03-1.1,.8-1.89,1.38-3.67,1.38s-2.57-.58-3.67-1.38c-1.15-.84-2.93-1.85-5.46-2.03v-.04c-.13,0-.25,.01-.38,.02-.13,0-.25-.02-.38-.02v.04c-2.46,.18-3.87,1.19-5.02,2.03-1.1,.8-1.89,1.38-3.67,1.38s-2.57-.58-3.67-1.38c-1.15-.84-2.93-1.85-5.46-2.03v-.04c-.13,0-.25,.01-.38,.02-.13,0-.25-.02-.38-.02v.04c-2.46,.18-3.87,1.19-5.02,2.03-1.1,.8-1.89,1.38-3.67,1.38s-2.57-.58-3.67-1.38c-1.15-.84-2.93-1.85-5.46-2.03v-.04S.03,22,0,22v3.51c1.42,.13,2.51,.62,3.46,1.31,1.26,.92,2.83,2.06,5.77,2.06s4.52-1.14,5.78-2.06c.99-.72,1.74-1.26,3.17-1.36,1.63,.06,2.82,.6,3.86,1.36,1.26,.92,2.83,2.06,5.77,2.06s4.52-1.14,5.78-2.06c.99-.72,1.74-1.26,3.17-1.36,1.63,.06,2.82,.6,3.86,1.36,1.26,.92,2.83,2.06,5.77,2.06s4.52-1.14,5.78-2.06c.99-.72,1.74-1.26,3.17-1.36,1.63,.06,2.82,.6,3.86,1.36,1.26,.92,2.83,2.06,5.77,2.06s4.52-1.14,5.78-2.06c.99-.72,1.74-1.26,3.17-1.36,1.63,.06,2.82,.6,3.86,1.36,1.26,.92,2.83,2.06,5.77,2.06s4.52-1.14,5.78-2.06c.99-.72,1.74-1.26,3.17-1.36,1.63,.06,2.82,.6,3.86,1.36,1.26,.92,2.83,2.06,5.77,2.06s4.52-1.14,5.78-2.06c.99-.72,1.74-1.26,3.17-1.36,1.63,.06,2.82,.6,3.86,1.36,1.26,.92,2.83,2.06,5.77,2.06s4.52-1.14,5.78-2.06c.99-.72,1.74-1.26,3.17-1.36,1.63,.06,2.82,.6,3.86,1.36,1.26,.92,2.83,2.06,5.77,2.06s4.52-1.14,5.78-2.06c.99-.72,1.74-1.26,3.17-1.36,1.63,.06,2.82,.6,3.86,1.36,1.26,.92,2.83,2.06,5.77,2.06s4.52-1.14,5.78-2.06c.99-.72,1.74-1.26,3.17-1.36,1.63,.06,2.82,.6,3.86,1.36,1.26,.92,2.83,2.06,5.77,2.06s4.52-1.14,5.78-2.06c.99-.72,1.74-1.26,3.17-1.36,1.63,.06,2.82,.6,3.86,1.36,1.26,.92,2.83,2.06,5.77,2.06s4.52-1.14,5.78-2.06c.99-.72,1.74-1.26,3.17-1.36,1.63,.06,2.82,.6,3.86,1.36,1.26,.92,2.83,2.06,5.77,2.06s4.52-1.14,5.78-2.06c.85-.62,1.52-1.1,2.61-1.29v-3.46Z"/></g><g><rect class="d" x="5.7" y="141.2" width="6.67" height="10"/><rect class="d" x="24.28" y="141.2" width="6.67" height="10"/><rect class="d" x="42.86" y="141.2" width="6.67" height="10"/><rect class="d" x="61.45" y="141.2" width="6.67" height="10"/><rect class="d" x="80.03" y="141.2" width="6.67" height="10"/><rect class="d" x="98.61" y="141.2" width="6.67" height="10"/><rect class="d" x="117.19" y="141.2" width="6.67" height="10"/><rect class="d" x="135.77" y="141.2" width="6.67" height="10"/><rect class="d" x="154.35" y="141.2" width="6.67" height="10"/><rect class="d" x="172.93" y="141.2" width="6.67" height="10"/><rect class="d" x="191.51" y="141.2" width="6.67" height="10"/><rect class="d" x="210.09" y="141.2" width="6.67" height="10"/><path class="c" d="M222,137.33c-1.22-.18-2.19-.64-3.05-1.27-1.26-.92-2.83-2.06-5.78-2.06s-4.51,1.14-5.78,2.06c-.99,.72-1.74,1.26-3.17,1.36-1.63-.06-2.82-.6-3.86-1.36-1.26-.92-2.83-2.06-5.78-2.06s-4.51,1.14-5.78,2.06c-.99,.72-1.74,1.26-3.17,1.36-1.63-.06-2.82-.6-3.86-1.36-1.26-.92-2.83-2.06-5.78-2.06s-4.51,1.14-5.78,2.06c-.99,.72-1.74,1.26-3.17,1.36-1.63-.06-2.82-.6-3.86-1.36-1.26-.92-2.83-2.06-5.78-2.06s-4.51,1.14-5.78,2.06c-.99,.72-1.74,1.26-3.17,1.36-1.63-.06-2.82-.6-3.86-1.36-1.26-.92-2.83-2.06-5.78-2.06s-4.51,1.14-5.78,2.06c-.99,.72-1.74,1.26-3.17,1.36-1.63-.06-2.82-.6-3.86-1.36-1.26-.92-2.83-2.06-5.78-2.06s-4.51,1.14-5.78,2.06c-.99,.72-1.74,1.26-3.17,1.36-1.63-.06-2.82-.6-3.86-1.36-1.26-.92-2.83-2.06-5.78-2.06s-4.51,1.14-5.78,2.06c-.99,.72-1.74,1.26-3.17,1.36-1.63-.06-2.82-.6-3.86-1.36-1.26-.92-2.83-2.06-5.78-2.06s-4.51,1.14-5.78,2.06c-.99,.72-1.74,1.26-3.17,1.36-1.63-.06-2.82-.6-3.86-1.36-1.26-.92-2.83-2.06-5.78-2.06s-4.51,1.14-5.78,2.06c-.99,.72-1.74,1.26-3.17,1.36-1.63-.06-2.82-.6-3.86-1.36-1.26-.92-2.83-2.06-5.78-2.06s-4.51,1.14-5.78,2.06c-.99,.72-1.74,1.26-3.17,1.36-1.63-.06-2.82-.6-3.86-1.36-1.26-.92-2.83-2.06-5.78-2.06s-4.51,1.14-5.78,2.06c-.99,.72-1.74,1.26-3.17,1.36-1.63-.06-2.82-.6-3.86-1.36-1.26-.92-2.83-2.06-5.78-2.06s-4.51,1.14-5.78,2.06C2.06,136.76,1.33,137.27,0,137.4v3.48s.07,0,.1,0v-.04c2.46-.18,3.87-1.19,5.02-2.03,1.1-.8,1.89-1.38,3.67-1.38s2.57,.58,3.67,1.38c1.15,.84,2.93,1.85,5.46,2.03v.04c.13,0,.25-.01,.38-.02,.13,0,.25,.02,.38,.02v-.04c2.46-.18,3.87-1.19,5.02-2.03,1.1-.8,1.89-1.38,3.67-1.38s2.57,.58,3.67,1.38c1.15,.84,2.93,1.85,5.46,2.03v.04c.13,0,.25-.01,.38-.02,.13,0,.25,.02,.38,.02v-.04c2.46-.18,3.87-1.19,5.02-2.03,1.1-.8,1.89-1.38,3.67-1.38s2.57,.58,3.67,1.38c1.15,.84,2.93,1.85,5.46,2.03v.04c.13,0,.25-.01,.38-.02,.13,0,.25,.02,.38,.02v-.04c2.46-.18,3.87-1.19,5.02-2.03,1.1-.8,1.89-1.38,3.67-1.38s2.57,.58,3.67,1.38c1.15,.84,2.93,1.85,5.46,2.03v.04c.13,0,.25-.01,.38-.02,.13,0,.25,.02,.38,.02v-.04c2.46-.18,3.87-1.19,5.02-2.03,1.1-.8,1.89-1.38,3.67-1.38s2.57,.58,3.67,1.38c1.15,.84,2.93,1.85,5.46,2.03v.04c.13,0,.25-.01,.38-.02,.13,0,.25,.02,.38,.02v-.04c2.46-.18,3.87-1.19,5.02-2.03,1.1-.8,1.89-1.38,3.67-1.38s2.57,.58,3.67,1.38c1.15,.84,2.93,1.85,5.46,2.03v.04c.13,0,.25-.01,.38-.02,.13,0,.25,.02,.38,.02v-.04c2.46-.18,3.87-1.19,5.02-2.03,1.1-.8,1.89-1.38,3.67-1.38s2.57,.58,3.67,1.38c1.15,.84,2.93,1.85,5.46,2.03v.04c.13,0,.25-.01,.38-.02,.13,0,.25,.02,.38,.02v-.04c2.46-.18,3.87-1.19,5.02-2.03,1.1-.8,1.89-1.38,3.67-1.38s2.57,.58,3.67,1.38c1.15,.84,2.93,1.85,5.46,2.03v.04c.13,0,.25-.01,.38-.02,.13,0,.25,.02,.38,.02v-.04c2.46-.18,3.87-1.19,5.02-2.03,1.1-.8,1.89-1.38,3.67-1.38s2.57,.58,3.67,1.38c1.15,.84,2.93,1.85,5.46,2.03v.04c.13,0,.25-.01,.38-.02,.13,0,.25,.02,.38,.02v-.04c2.46-.18,3.87-1.19,5.02-2.03,1.1-.8,1.89-1.38,3.67-1.38s2.57,.58,3.67,1.38c1.15,.84,2.93,1.85,5.46,2.03v.04c.13,0,.25-.01,.38-.02,.13,0,.25,.02,.38,.02v-.04c2.46-.18,3.87-1.19,5.02-2.03,1.1-.8,1.89-1.38,3.67-1.38s2.57,.58,3.67,1.38c1.15,.84,2.93,1.85,5.46,2.03v.04c.13,0,.25-.01,.38-.02,.13,0,.25,.02,.38,.02v-.04c2.46-.18,3.87-1.19,5.02-2.03,1.1-.8,1.89-1.38,3.67-1.38s2.57,.58,3.67,1.38c1.1,.8,2.79,1.76,5.16,1.99v-3.49Z"/><path class="c" d="M222,151.07c-2.26,.24-3.62,1.19-4.71,1.99-1.1,.8-1.89,1.38-3.67,1.38s-2.57-.58-3.67-1.38c-1.15-.84-2.93-1.85-5.46-2.03v-.04c-.13,0-.25,.01-.38,.02-.13,0-.25-.02-.38-.02v.04c-2.46,.18-3.87,1.19-5.02,2.03-1.1,.8-1.89,1.38-3.67,1.38s-2.57-.58-3.67-1.38c-1.15-.84-2.93-1.85-5.46-2.03v-.04c-.13,0-.25,.01-.38,.02-.13,0-.25-.02-.38-.02v.04c-2.46,.18-3.87,1.19-5.02,2.03-1.1,.8-1.89,1.38-3.67,1.38s-2.57-.58-3.67-1.38c-1.15-.84-2.93-1.85-5.46-2.03v-.04c-.13,0-.25,.01-.38,.02-.13,0-.25-.02-.38-.02v.04c-2.46,.18-3.87,1.19-5.02,2.03-1.1,.8-1.89,1.38-3.67,1.38s-2.57-.58-3.67-1.38c-1.15-.84-2.93-1.85-5.46-2.03v-.04c-.13,0-.25,.01-.38,.02-.13,0-.25-.02-.38-.02v.04c-2.46,.18-3.87,1.19-5.02,2.03-1.1,.8-1.89,1.38-3.67,1.38s-2.57-.58-3.67-1.38c-1.15-.84-2.93-1.85-5.46-2.03v-.04c-.13,0-.25,.01-.38,.02-.13,0-.25-.02-.38-.02v.04c-2.46,.18-3.87,1.19-5.02,2.03-1.1,.8-1.89,1.38-3.67,1.38s-2.57-.58-3.67-1.38c-1.15-.84-2.93-1.85-5.46-2.03v-.04c-.13,0-.25,.01-.38,.02-.13,0-.25-.02-.38-.02v.04c-2.46,.18-3.87,1.19-5.02,2.03-1.1,.8-1.89,1.38-3.67,1.38s-2.57-.58-3.67-1.38c-1.15-.84-2.93-1.85-5.46-2.03v-.04c-.13,0-.25,.01-.38,.02-.13,0-.25-.02-.38-.02v.04c-2.46,.18-3.87,1.19-5.02,2.03-1.1,.8-1.89,1.38-3.67,1.38s-2.57-.58-3.67-1.38c-1.15-.84-2.93-1.85-5.46-2.03v-.04c-.13,0-.25,.01-.38,.02-.13,0-.25-.02-.38-.02v.04c-2.46,.18-3.87,1.19-5.02,2.03-1.1,.8-1.89,1.38-3.67,1.38s-2.57-.58-3.67-1.38c-1.15-.84-2.93-1.85-5.46-2.03v-.04c-.13,0-.25,.01-.38,.02-.13,0-.25-.02-.38-.02v.04c-2.46,.18-3.87,1.19-5.02,2.03-1.1,.8-1.89,1.38-3.67,1.38s-2.57-.58-3.67-1.38c-1.15-.84-2.93-1.85-5.46-2.03v-.04c-.13,0-.25,.01-.38,.02-.13,0-.25-.02-.38-.02v.04c-2.46,.18-3.87,1.19-5.02,2.03-1.1,.8-1.89,1.38-3.67,1.38s-2.57-.58-3.67-1.38c-1.15-.84-2.93-1.85-5.46-2.03v-.04c-.13,0-.25,.01-.38,.02-.13,0-.25-.02-.38-.02v.04c-2.46,.18-3.87,1.19-5.02,2.03-1.1,.8-1.89,1.38-3.67,1.38s-2.57-.58-3.67-1.38c-1.15-.84-2.93-1.85-5.46-2.03v-.04S.03,151,0,151v3.51c1.42,.13,2.51,.62,3.46,1.31,1.26,.92,2.83,2.06,5.77,2.06s4.52-1.14,5.78-2.06c.99-.72,1.74-1.26,3.17-1.36,1.63,.06,2.82,.6,3.86,1.36,1.26,.92,2.83,2.06,5.77,2.06s4.52-1.14,5.78-2.06c.99-.72,1.74-1.26,3.17-1.36,1.63,.06,2.82,.6,3.86,1.36,1.26,.92,2.83,2.06,5.77,2.06s4.52-1.14,5.78-2.06c.99-.72,1.74-1.26,3.17-1.36,1.63,.06,2.82,.6,3.86,1.36,1.26,.92,2.83,2.06,5.77,2.06s4.52-1.14,5.78-2.06c.99-.72,1.74-1.26,3.17-1.36,1.63,.06,2.82,.6,3.86,1.36,1.26,.92,2.83,2.06,5.77,2.06s4.52-1.14,5.78-2.06c.99-.72,1.74-1.26,3.17-1.36,1.63,.06,2.82,.6,3.86,1.36,1.26,.92,2.83,2.06,5.77,2.06s4.52-1.14,5.78-2.06c.99-.72,1.74-1.26,3.17-1.36,1.63,.06,2.82,.6,3.86,1.36,1.26,.92,2.83,2.06,5.77,2.06s4.52-1.14,5.78-2.06c.99-.72,1.74-1.26,3.17-1.36,1.63,.06,2.82,.6,3.86,1.36,1.26,.92,2.83,2.06,5.77,2.06s4.52-1.14,5.78-2.06c.99-.72,1.74-1.26,3.17-1.36,1.63,.06,2.82,.6,3.86,1.36,1.26,.92,2.83,2.06,5.77,2.06s4.52-1.14,5.78-2.06c.99-.72,1.74-1.26,3.17-1.36,1.63,.06,2.82,.6,3.86,1.36,1.26,.92,2.83,2.06,5.77,2.06s4.52-1.14,5.78-2.06c.99-.72,1.74-1.26,3.17-1.36,1.63,.06,2.82,.6,3.86,1.36,1.26,.92,2.83,2.06,5.77,2.06s4.52-1.14,5.78-2.06c.99-.72,1.74-1.26,3.17-1.36,1.63,.06,2.82,.6,3.86,1.36,1.26,.92,2.83,2.06,5.77,2.06s4.52-1.14,5.78-2.06c.85-.62,1.52-1.1,2.61-1.29v-3.46Z"/></g><g><path class="e" d="M148.78,29.5c-2.04,0-3.69,1.65-3.69,3.69v44.76l-37.76-30.78,7.65-7.65c1.17-1.17,1.17-3.07,0-4.24-1.17-1.17-3.07-1.17-4.24,0l-10,10c-.6,.6-.92,1.43-.88,2.27s.44,1.64,1.1,2.17l22.22,18.11-12.21,9.2-36.64-29.86,7.65-7.65c1.17-1.17,1.17-3.07,0-4.24-1.17-1.17-3.07-1.17-4.24,0l-10,10c-.6,.6-.92,1.43-.88,2.27s.44,1.64,1.1,2.17l22.22,18.11-11.69,8.81-36.16-29.47,7.65-7.65c1.17-1.17,1.17-3.07,0-4.24-1.17-1.17-3.07-1.17-4.24,0l-10,10c-.6,.6-.92,1.43-.88,2.27s.44,1.64,1.1,2.17l22.22,18.11-13.9,10.47-14.52-12.41c-.89-.76-2.14-.93-3.2-.44-1.06,.49-1.74,1.55-1.74,2.72v27.89c0,1.17,.68,2.23,1.74,2.72,.4,.18,.83,.28,1.26,.28,.7,0,1.4-.25,1.95-.72l15.65-13.38,12.51,10.14-21.96,17.9c-.66,.54-1.06,1.33-1.1,2.17s.27,1.67,.88,2.27l10,10c.59,.59,1.35,.88,2.12,.88s1.54-.29,2.12-.88c1.17-1.17,1.17-3.07,0-4.24l-7.65-7.65,22.29-18.17h0l.02-.03,13.99-11.4,11.28,9.15-21.96,17.9c-.66,.54-1.06,1.33-1.1,2.17s.27,1.67,.88,2.27l10,10c.59,.59,1.35,.88,2.12,.88s1.54-.29,2.12-.88c1.17-1.17,1.17-3.07,0-4.24l-7.65-7.65,22.29-18.17h0l.02-.03,14.49-11.81,11.78,9.55-21.96,17.9c-.66,.54-1.06,1.33-1.1,2.17s.27,1.67,.88,2.27l10,10c.59,.59,1.35,.88,2.12,.88s1.54-.29,2.12-.88c1.17-1.17,1.17-3.07,0-4.24l-7.65-7.65,22.29-18.17h0l.02-.03,15.44-12.58v45.92c0,2.04,1.65,3.69,3.69,3.69s3.69-1.65,3.69-3.69V33.19c0-2.04-1.65-3.69-3.69-3.69Zm-66.3,51.64l12.27-9.24,11.56,9.32-11.67,9.97-12.15-9.85c0-.07,0-.14,0-.2Zm-51.67,8.41v-14.87l8.7,7.44-8.7,7.43Zm31.94-17.65l11.56,9.32-11.67,9.97-12.28-9.96,12.4-9.34Zm65,0l11.56,9.32-11.67,9.97-12.28-9.96,12.4-9.34Z"/><circle class="e" cx="126.81" cy="81.1" r="4"/><circle class="e" cx="93.81" cy="81.1" r="4"/><circle class="e" cx="62.81" cy="81.1" r="4"/></g></svg>