<?xml version="1.0" encoding="UTF-8"?><svg id="a" xmlns="http://www.w3.org/2000/svg" viewBox="0 0 222.35 161.89"><defs><style>.b{fill:#f2f1f1;}.c{fill:#878d7a;}</style></defs><path class="b" d="M222,3.33c-1.22-.18-2.19-.64-3.05-1.27C217.69,1.14,216.12,0,213.17,0s-4.51,1.14-5.78,2.06c-.99,.72-1.74,1.26-3.17,1.36-1.63-.06-2.82-.6-3.86-1.36C199.11,1.14,197.54,0,194.59,0s-4.51,1.14-5.78,2.06c-.99,.72-1.74,1.26-3.17,1.36-1.63-.06-2.82-.6-3.86-1.36C180.53,1.14,178.96,0,176.01,0s-4.51,1.14-5.78,2.06c-.99,.72-1.74,1.26-3.17,1.36-1.63-.06-2.82-.6-3.86-1.36C161.95,1.14,160.38,0,157.43,0s-4.51,1.14-5.78,2.06c-.99,.72-1.74,1.26-3.17,1.36-1.63-.06-2.82-.6-3.86-1.36C143.37,1.14,141.8,0,138.85,0s-4.51,1.14-5.78,2.06c-.99,.72-1.74,1.26-3.17,1.36-1.63-.06-2.82-.6-3.86-1.36C124.79,1.14,123.22,0,120.27,0s-4.51,1.14-5.78,2.06c-.99,.72-1.74,1.26-3.17,1.36-1.63-.06-2.82-.6-3.86-1.36C106.2,1.14,104.64,0,101.69,0s-4.51,1.14-5.78,2.06c-.99,.72-1.74,1.26-3.17,1.36-1.63-.06-2.82-.6-3.86-1.36C87.62,1.14,86.06,0,83.11,0s-4.51,1.14-5.78,2.06c-.99,.72-1.74,1.26-3.17,1.36-1.63-.06-2.82-.6-3.86-1.36C69.04,1.14,67.47,0,64.53,0s-4.51,1.14-5.78,2.06c-.99,.72-1.74,1.26-3.17,1.36-1.63-.06-2.82-.6-3.86-1.36C50.46,1.14,48.89,0,45.95,0s-4.51,1.14-5.78,2.06c-.99,.72-1.74,1.26-3.17,1.36-1.63-.06-2.82-.6-3.86-1.36C31.88,1.14,30.31,0,27.37,0s-4.51,1.14-5.78,2.06c-.99,.72-1.74,1.26-3.17,1.36-1.63-.06-2.82-.6-3.86-1.36C13.3,1.14,11.73,0,8.79,0S4.27,1.14,3.01,2.06c-.95,.69-1.69,1.21-3.01,1.34V158.51c1.42,.13,2.51,.62,3.46,1.31,1.26,.92,2.83,2.06,5.77,2.06s4.52-1.14,5.78-2.06c.99-.72,1.74-1.26,3.17-1.36,1.63,.06,2.82,.6,3.86,1.36,1.26,.92,2.83,2.06,5.77,2.06s4.52-1.14,5.78-2.06c.99-.72,1.74-1.26,3.17-1.36,1.63,.06,2.82,.6,3.86,1.36,1.26,.92,2.83,2.06,5.77,2.06s4.52-1.14,5.78-2.06c.99-.72,1.74-1.26,3.17-1.36,1.63,.06,2.82,.6,3.86,1.36,1.26,.92,2.83,2.06,5.77,2.06s4.52-1.14,5.78-2.06c.99-.72,1.74-1.26,3.17-1.36,1.63,.06,2.82,.6,3.86,1.36,1.26,.92,2.83,2.06,5.77,2.06s4.52-1.14,5.78-2.06c.99-.72,1.74-1.26,3.17-1.36,1.63,.06,2.82,.6,3.86,1.36,1.26,.92,2.83,2.06,5.77,2.06s4.52-1.14,5.78-2.06c.99-.72,1.74-1.26,3.17-1.36,1.63,.06,2.82,.6,3.86,1.36,1.26,.92,2.83,2.06,5.77,2.06s4.52-1.14,5.78-2.06c.99-.72,1.74-1.26,3.17-1.36,1.63,.06,2.82,.6,3.86,1.36,1.26,.92,2.83,2.06,5.77,2.06s4.52-1.14,5.78-2.06c.99-.72,1.74-1.26,3.17-1.36,1.63,.06,2.82,.6,3.86,1.36,1.26,.92,2.83,2.06,5.77,2.06s4.52-1.14,5.78-2.06c.99-.72,1.74-1.26,3.17-1.36,1.63,.06,2.82,.6,3.86,1.36,1.26,.92,2.83,2.06,5.77,2.06s4.52-1.14,5.78-2.06c.99-.72,1.74-1.26,3.17-1.36,1.63,.06,2.82,.6,3.86,1.36,1.26,.92,2.83,2.06,5.77,2.06s4.52-1.14,5.78-2.06c.99-.72,1.74-1.26,3.17-1.36,1.63,.06,2.82,.6,3.86,1.36,1.26,.92,2.83,2.06,5.77,2.06s4.52-1.14,5.78-2.06c.85-.62,1.52-1.1,2.61-1.29V3.33Z"/><path class="c" d="M148.84,29.12c-2.04,0-3.69,1.65-3.69,3.69v97.5c0,2.04,1.65,3.69,3.69,3.69s3.69-1.65,3.69-3.69V32.81c0-2.04-1.65-3.69-3.69-3.69Z"/><path class="c" d="M205.56,41.35l-17.08-9.76c-1.11-.64-2.46-.7-3.63-.17l-20.73,9.35c-1.43,.65-2.36,2.07-2.36,3.65v24.19c0,1.32,.65,2.55,1.74,3.3l36.07,24.72v19.71l-13.21,7.24-16.6-7.81v-12.94l6.1-2.87,8.75,8.95c1.54,1.58,4.08,1.61,5.66,.06s1.61-4.08,.06-5.66l-10.73-10.98c-1.19-1.22-3.02-1.55-4.56-.82l-10.98,5.15c-1.4,.66-2.3,2.07-2.3,3.62v18.02c0,1.55,.9,2.96,2.3,3.62l20.73,9.76c.54,.25,1.12,.38,1.7,.38,.66,0,1.32-.17,1.92-.49l17.08-9.35c1.28-.7,2.08-2.05,2.08-3.51v-24.19c0-1.32-.65-2.55-1.74-3.3l-36.07-24.72v-19.5l16.52-7.45,13.29,7.59v13.16l-6.1,2.87-8.75-8.95c-1.54-1.58-4.08-1.61-5.66-.06-1.58,1.54-1.61,4.08-.06,5.66l10.73,10.98c1.19,1.22,3.02,1.55,4.56,.82l10.98-5.15c1.4-.66,2.3-2.07,2.3-3.62v-18.02c0-1.44-.77-2.76-2.02-3.47Z"/><path class="c" d="M.35,29.12c2.04,0,3.69,1.65,3.69,3.69v97.5c0,2.04-1.65,3.69-3.69,3.69V29.12Z"/><path class="c" d="M222.35,29.12c-2.04,0-3.69,1.65-3.69,3.69v97.5c0,2.04,1.65,3.69,3.69,3.69V29.12Z"/><g><rect class="c" x="5.7" y="12.2" width="6.67" height="10"/><rect class="c" x="24.28" y="12.2" width="6.67" height="10"/><rect class="c" x="42.86" y="12.2" width="6.67" height="10"/><rect class="c" x="61.45" y="12.2" width="6.67" height="10"/><rect class="c" x="80.03" y="12.2" width="6.67" height="10"/><rect class="c" x="98.61" y="12.2" width="6.67" height="10"/><rect class="c" x="117.19" y="12.2" width="6.67" height="10"/><rect class="c" x="135.77" y="12.2" width="6.67" height="10"/><rect class="c" x="154.35" y="12.2" width="6.67" height="10"/><rect class="c" x="172.93" y="12.2" width="6.67" height="10"/><rect class="c" x="191.51" y="12.2" width="6.67" height="10"/><rect class="c" x="210.09" y="12.2" width="6.67" height="10"/><path class="c" d="M222,8.33c-1.22-.18-2.19-.64-3.05-1.27-1.26-.92-2.83-2.06-5.78-2.06s-4.51,1.14-5.78,2.06c-.99,.72-1.74,1.26-3.17,1.36-1.63-.06-2.82-.6-3.86-1.36-1.26-.92-2.83-2.06-5.78-2.06s-4.51,1.14-5.78,2.06c-.99,.72-1.74,1.26-3.17,1.36-1.63-.06-2.82-.6-3.86-1.36-1.26-.92-2.83-2.06-5.78-2.06s-4.51,1.14-5.78,2.06c-.99,.72-1.74,1.26-3.17,1.36-1.63-.06-2.82-.6-3.86-1.36-1.26-.92-2.83-2.06-5.78-2.06s-4.51,1.14-5.78,2.06c-.99,.72-1.74,1.26-3.17,1.36-1.63-.06-2.82-.6-3.86-1.36-1.26-.92-2.83-2.06-5.78-2.06s-4.51,1.14-5.78,2.06c-.99,.72-1.74,1.26-3.17,1.36-1.63-.06-2.82-.6-3.86-1.36-1.26-.92-2.83-2.06-5.78-2.06s-4.51,1.14-5.78,2.06c-.99,.72-1.74,1.26-3.17,1.36-1.63-.06-2.82-.6-3.86-1.36-1.26-.92-2.83-2.06-5.78-2.06s-4.51,1.14-5.78,2.06c-.99,.72-1.74,1.26-3.17,1.36-1.63-.06-2.82-.6-3.86-1.36-1.26-.92-2.83-2.06-5.78-2.06s-4.51,1.14-5.78,2.06c-.99,.72-1.74,1.26-3.17,1.36-1.63-.06-2.82-.6-3.86-1.36-1.26-.92-2.83-2.06-5.78-2.06s-4.51,1.14-5.78,2.06c-.99,.72-1.74,1.26-3.17,1.36-1.63-.06-2.82-.6-3.86-1.36-1.26-.92-2.83-2.06-5.78-2.06s-4.51,1.14-5.78,2.06c-.99,.72-1.74,1.26-3.17,1.36-1.63-.06-2.82-.6-3.86-1.36-1.26-.92-2.83-2.06-5.78-2.06s-4.51,1.14-5.78,2.06c-.99,.72-1.74,1.26-3.17,1.36-1.63-.06-2.82-.6-3.86-1.36-1.26-.92-2.83-2.06-5.78-2.06s-4.51,1.14-5.78,2.06c-.95,.69-1.69,1.21-3.01,1.34v3.48s.07,0,.1,0v-.04c2.46-.18,3.87-1.19,5.02-2.03,1.1-.8,1.89-1.38,3.67-1.38s2.57,.58,3.67,1.38c1.15,.84,2.93,1.85,5.46,2.03v.04c.13,0,.25-.01,.38-.02,.13,0,.25,.02,.38,.02v-.04c2.46-.18,3.87-1.19,5.02-2.03,1.1-.8,1.89-1.38,3.67-1.38s2.57,.58,3.67,1.38c1.15,.84,2.93,1.85,5.46,2.03v.04c.13,0,.25-.01,.38-.02,.13,0,.25,.02,.38,.02v-.04c2.46-.18,3.87-1.19,5.02-2.03,1.1-.8,1.89-1.38,3.67-1.38s2.57,.58,3.67,1.38c1.15,.84,2.93,1.85,5.46,2.03v.04c.13,0,.25-.01,.38-.02,.13,0,.25,.02,.38,.02v-.04c2.46-.18,3.87-1.19,5.02-2.03,1.1-.8,1.89-1.38,3.67-1.38s2.57,.58,3.67,1.38c1.15,.84,2.93,1.85,5.46,2.03v.04c.13,0,.25-.01,.38-.02,.13,0,.25,.02,.38,.02v-.04c2.46-.18,3.87-1.19,5.02-2.03,1.1-.8,1.89-1.38,3.67-1.38s2.57,.58,3.67,1.38c1.15,.84,2.93,1.85,5.46,2.03v.04c.13,0,.25-.01,.38-.02,.13,0,.25,.02,.38,.02v-.04c2.46-.18,3.87-1.19,5.02-2.03,1.1-.8,1.89-1.38,3.67-1.38s2.57,.58,3.67,1.38c1.15,.84,2.93,1.85,5.46,2.03v.04c.13,0,.25-.01,.38-.02,.13,0,.25,.02,.38,.02v-.04c2.46-.18,3.87-1.19,5.02-2.03,1.1-.8,1.89-1.38,3.67-1.38s2.57,.58,3.67,1.38c1.15,.84,2.93,1.85,5.46,2.03v.04c.13,0,.25-.01,.38-.02,.13,0,.25,.02,.38,.02v-.04c2.46-.18,3.87-1.19,5.02-2.03,1.1-.8,1.89-1.38,3.67-1.38s2.57,.58,3.67,1.38c1.15,.84,2.93,1.85,5.46,2.03v.04c.13,0,.25-.01,.38-.02,.13,0,.25,.02,.38,.02v-.04c2.46-.18,3.87-1.19,5.02-2.03,1.1-.8,1.89-1.38,3.67-1.38s2.57,.58,3.67,1.38c1.15,.84,2.93,1.85,5.46,2.03v.04c.13,0,.25-.01,.38-.02,.13,0,.25,.02,.38,.02v-.04c2.46-.18,3.87-1.19,5.02-2.03,1.1-.8,1.89-1.38,3.67-1.38s2.57,.58,3.67,1.38c1.15,.84,2.93,1.85,5.46,2.03v.04c.13,0,.25-.01,.38-.02,.13,0,.25,.02,.38,.02v-.04c2.46-.18,3.87-1.19,5.02-2.03,1.1-.8,1.89-1.38,3.67-1.38s2.57,.58,3.67,1.38c1.15,.84,2.93,1.85,5.46,2.03v.04c.13,0,.25-.01,.38-.02,.13,0,.25,.02,.38,.02v-.04c2.46-.18,3.87-1.19,5.02-2.03,1.1-.8,1.89-1.38,3.67-1.38s2.57,.58,3.67,1.38c1.1,.8,2.79,1.76,5.16,1.99v-3.49Z"/><path class="c" d="M222,22.07c-2.26,.24-3.62,1.19-4.71,1.99-1.1,.8-1.89,1.38-3.67,1.38s-2.57-.58-3.67-1.38c-1.15-.84-2.93-1.85-5.46-2.03v-.04c-.13,0-.25,.01-.38,.02-.13,0-.25-.02-.38-.02v.04c-2.46,.18-3.87,1.19-5.02,2.03-1.1,.8-1.89,1.38-3.67,1.38s-2.57-.58-3.67-1.38c-1.15-.84-2.93-1.85-5.46-2.03v-.04c-.13,0-.25,.01-.38,.02-.13,0-.25-.02-.38-.02v.04c-2.46,.18-3.87,1.19-5.02,2.03-1.1,.8-1.89,1.38-3.67,1.38s-2.57-.58-3.67-1.38c-1.15-.84-2.93-1.85-5.46-2.03v-.04c-.13,0-.25,.01-.38,.02-.13,0-.25-.02-.38-.02v.04c-2.46,.18-3.87,1.19-5.02,2.03-1.1,.8-1.89,1.38-3.67,1.38s-2.57-.58-3.67-1.38c-1.15-.84-2.93-1.85-5.46-2.03v-.04c-.13,0-.25,.01-.38,.02-.13,0-.25-.02-.38-.02v.04c-2.46,.18-3.87,1.19-5.02,2.03-1.1,.8-1.89,1.38-3.67,1.38s-2.57-.58-3.67-1.38c-1.15-.84-2.93-1.85-5.46-2.03v-.04c-.13,0-.25,.01-.38,.02-.13,0-.25-.02-.38-.02v.04c-2.46,.18-3.87,1.19-5.02,2.03-1.1,.8-1.89,1.38-3.67,1.38s-2.57-.58-3.67-1.38c-1.15-.84-2.93-1.85-5.46-2.03v-.04c-.13,0-.25,.01-.38,.02-.13,0-.25-.02-.38-.02v.04c-2.46,.18-3.87,1.19-5.02,2.03-1.1,.8-1.89,1.38-3.67,1.38s-2.57-.58-3.67-1.38c-1.15-.84-2.93-1.85-5.46-2.03v-.04c-.13,0-.25,.01-.38,.02-.13,0-.25-.02-.38-.02v.04c-2.46,.18-3.87,1.19-5.02,2.03-1.1,.8-1.89,1.38-3.67,1.38s-2.57-.58-3.67-1.38c-1.15-.84-2.93-1.85-5.46-2.03v-.04c-.13,0-.25,.01-.38,.02-.13,0-.25-.02-.38-.02v.04c-2.46,.18-3.87,1.19-5.02,2.03-1.1,.8-1.89,1.38-3.67,1.38s-2.57-.58-3.67-1.38c-1.15-.84-2.93-1.85-5.46-2.03v-.04c-.13,0-.25,.01-.38,.02-.13,0-.25-.02-.38-.02v.04c-2.46,.18-3.87,1.19-5.02,2.03-1.1,.8-1.89,1.38-3.67,1.38s-2.57-.58-3.67-1.38c-1.15-.84-2.93-1.85-5.46-2.03v-.04c-.13,0-.25,.01-.38,.02-.13,0-.25-.02-.38-.02v.04c-2.46,.18-3.87,1.19-5.02,2.03-1.1,.8-1.89,1.38-3.67,1.38s-2.57-.58-3.67-1.38c-1.15-.84-2.93-1.85-5.46-2.03v-.04c-.13,0-.25,.01-.38,.02-.13,0-.25-.02-.38-.02v.04c-2.46,.18-3.87,1.19-5.02,2.03-1.1,.8-1.89,1.38-3.67,1.38s-2.57-.58-3.67-1.38c-1.15-.84-2.93-1.85-5.46-2.03v-.04s-.07,0-.1,0v3.51c1.42,.13,2.51,.62,3.46,1.31,1.26,.92,2.83,2.06,5.77,2.06s4.52-1.14,5.78-2.06c.99-.72,1.74-1.26,3.17-1.36,1.63,.06,2.82,.6,3.86,1.36,1.26,.92,2.83,2.06,5.77,2.06s4.52-1.14,5.78-2.06c.99-.72,1.74-1.26,3.17-1.36,1.63,.06,2.82,.6,3.86,1.36,1.26,.92,2.83,2.06,5.77,2.06s4.52-1.14,5.78-2.06c.99-.72,1.74-1.26,3.17-1.36,1.63,.06,2.82,.6,3.86,1.36,1.26,.92,2.83,2.06,5.77,2.06s4.52-1.14,5.78-2.06c.99-.72,1.74-1.26,3.17-1.36,1.63,.06,2.82,.6,3.86,1.36,1.26,.92,2.83,2.06,5.77,2.06s4.52-1.14,5.78-2.06c.99-.72,1.74-1.26,3.17-1.36,1.63,.06,2.82,.6,3.86,1.36,1.26,.92,2.83,2.06,5.77,2.06s4.52-1.14,5.78-2.06c.99-.72,1.74-1.26,3.17-1.36,1.63,.06,2.82,.6,3.86,1.36,1.26,.92,2.83,2.06,5.77,2.06s4.52-1.14,5.78-2.06c.99-.72,1.74-1.26,3.17-1.36,1.63,.06,2.82,.6,3.86,1.36,1.26,.92,2.83,2.06,5.77,2.06s4.52-1.14,5.78-2.06c.99-.72,1.74-1.26,3.17-1.36,1.63,.06,2.82,.6,3.86,1.36,1.26,.92,2.83,2.06,5.77,2.06s4.52-1.14,5.78-2.06c.99-.72,1.74-1.26,3.17-1.36,1.63,.06,2.82,.6,3.86,1.36,1.26,.92,2.83,2.06,5.77,2.06s4.52-1.14,5.78-2.06c.99-.72,1.74-1.26,3.17-1.36,1.63,.06,2.82,.6,3.86,1.36,1.26,.92,2.83,2.06,5.77,2.06s4.52-1.14,5.78-2.06c.99-.72,1.74-1.26,3.17-1.36,1.63,.06,2.82,.6,3.86,1.36,1.26,.92,2.83,2.06,5.77,2.06s4.52-1.14,5.78-2.06c.85-.62,1.52-1.1,2.61-1.29v-3.46Z"/></g><g><rect class="c" x="5.7" y="141.2" width="6.67" height="10"/><rect class="c" x="24.28" y="141.2" width="6.67" height="10"/><rect class="c" x="42.86" y="141.2" width="6.67" height="10"/><rect class="c" x="61.45" y="141.2" width="6.67" height="10"/><rect class="c" x="80.03" y="141.2" width="6.67" height="10"/><rect class="c" x="98.61" y="141.2" width="6.67" height="10"/><rect class="c" x="117.19" y="141.2" width="6.67" height="10"/><rect class="c" x="135.77" y="141.2" width="6.67" height="10"/><rect class="c" x="154.35" y="141.2" width="6.67" height="10"/><rect class="c" x="172.93" y="141.2" width="6.67" height="10"/><rect class="c" x="191.51" y="141.2" width="6.67" height="10"/><rect class="c" x="210.09" y="141.2" width="6.67" height="10"/><path class="c" d="M222,137.33c-1.22-.18-2.19-.64-3.05-1.27-1.26-.92-2.83-2.06-5.78-2.06s-4.51,1.14-5.78,2.06c-.99,.72-1.74,1.26-3.17,1.36-1.63-.06-2.82-.6-3.86-1.36-1.26-.92-2.83-2.06-5.78-2.06s-4.51,1.14-5.78,2.06c-.99,.72-1.74,1.26-3.17,1.36-1.63-.06-2.82-.6-3.86-1.36-1.26-.92-2.83-2.06-5.78-2.06s-4.51,1.14-5.78,2.06c-.99,.72-1.74,1.26-3.17,1.36-1.63-.06-2.82-.6-3.86-1.36-1.26-.92-2.83-2.06-5.78-2.06s-4.51,1.14-5.78,2.06c-.99,.72-1.74,1.26-3.17,1.36-1.63-.06-2.82-.6-3.86-1.36-1.26-.92-2.83-2.06-5.78-2.06s-4.51,1.14-5.78,2.06c-.99,.72-1.74,1.26-3.17,1.36-1.63-.06-2.82-.6-3.86-1.36-1.26-.92-2.83-2.06-5.78-2.06s-4.51,1.14-5.78,2.06c-.99,.72-1.74,1.26-3.17,1.36-1.63-.06-2.82-.6-3.86-1.36-1.26-.92-2.83-2.06-5.78-2.06s-4.51,1.14-5.78,2.06c-.99,.72-1.74,1.26-3.17,1.36-1.63-.06-2.82-.6-3.86-1.36-1.26-.92-2.83-2.06-5.78-2.06s-4.51,1.14-5.78,2.06c-.99,.72-1.74,1.26-3.17,1.36-1.63-.06-2.82-.6-3.86-1.36-1.26-.92-2.83-2.06-5.78-2.06s-4.51,1.14-5.78,2.06c-.99,.72-1.74,1.26-3.17,1.36-1.63-.06-2.82-.6-3.86-1.36-1.26-.92-2.83-2.06-5.78-2.06s-4.51,1.14-5.78,2.06c-.99,.72-1.74,1.26-3.17,1.36-1.63-.06-2.82-.6-3.86-1.36-1.26-.92-2.83-2.06-5.78-2.06s-4.51,1.14-5.78,2.06c-.99,.72-1.74,1.26-3.17,1.36-1.63-.06-2.82-.6-3.86-1.36-1.26-.92-2.83-2.06-5.78-2.06s-4.51,1.14-5.78,2.06c-.95,.69-1.69,1.21-3.01,1.34v3.48s.07,0,.1,0v-.04c2.46-.18,3.87-1.19,5.02-2.03,1.1-.8,1.89-1.38,3.67-1.38s2.57,.58,3.67,1.38c1.15,.84,2.93,1.85,5.46,2.03v.04c.13,0,.25-.01,.38-.02,.13,0,.25,.02,.38,.02v-.04c2.46-.18,3.87-1.19,5.02-2.03,1.1-.8,1.89-1.38,3.67-1.38s2.57,.58,3.67,1.38c1.15,.84,2.93,1.85,5.46,2.03v.04c.13,0,.25-.01,.38-.02,.13,0,.25,.02,.38,.02v-.04c2.46-.18,3.87-1.19,5.02-2.03,1.1-.8,1.89-1.38,3.67-1.38s2.57,.58,3.67,1.38c1.15,.84,2.93,1.85,5.46,2.03v.04c.13,0,.25-.01,.38-.02,.13,0,.25,.02,.38,.02v-.04c2.46-.18,3.87-1.19,5.02-2.03,1.1-.8,1.89-1.38,3.67-1.38s2.57,.58,3.67,1.38c1.15,.84,2.93,1.85,5.46,2.03v.04c.13,0,.25-.01,.38-.02,.13,0,.25,.02,.38,.02v-.04c2.46-.18,3.87-1.19,5.02-2.03,1.1-.8,1.89-1.38,3.67-1.38s2.57,.58,3.67,1.38c1.15,.84,2.93,1.85,5.46,2.03v.04c.13,0,.25-.01,.38-.02,.13,0,.25,.02,.38,.02v-.04c2.46-.18,3.87-1.19,5.02-2.03,1.1-.8,1.89-1.38,3.67-1.38s2.57,.58,3.67,1.38c1.15,.84,2.93,1.85,5.46,2.03v.04c.13,0,.25-.01,.38-.02,.13,0,.25,.02,.38,.02v-.04c2.46-.18,3.87-1.19,5.02-2.03,1.1-.8,1.89-1.38,3.67-1.38s2.57,.58,3.67,1.38c1.15,.84,2.93,1.85,5.46,2.03v.04c.13,0,.25-.01,.38-.02,.13,0,.25,.02,.38,.02v-.04c2.46-.18,3.87-1.19,5.02-2.03,1.1-.8,1.89-1.38,3.67-1.38s2.57,.58,3.67,1.38c1.15,.84,2.93,1.85,5.46,2.03v.04c.13,0,.25-.01,.38-.02,.13,0,.25,.02,.38,.02v-.04c2.46-.18,3.87-1.19,5.02-2.03,1.1-.8,1.89-1.38,3.67-1.38s2.57,.58,3.67,1.38c1.15,.84,2.93,1.85,5.46,2.03v.04c.13,0,.25-.01,.38-.02,.13,0,.25,.02,.38,.02v-.04c2.46-.18,3.87-1.19,5.02-2.03,1.1-.8,1.89-1.38,3.67-1.38s2.57,.58,3.67,1.38c1.15,.84,2.93,1.85,5.46,2.03v.04c.13,0,.25-.01,.38-.02,.13,0,.25,.02,.38,.02v-.04c2.46-.18,3.87-1.19,5.02-2.03,1.1-.8,1.89-1.38,3.67-1.38s2.57,.58,3.67,1.38c1.15,.84,2.93,1.85,5.46,2.03v.04c.13,0,.25-.01,.38-.02,.13,0,.25,.02,.38,.02v-.04c2.46-.18,3.87-1.19,5.02-2.03,1.1-.8,1.89-1.38,3.67-1.38s2.57,.58,3.67,1.38c1.1,.8,2.79,1.76,5.16,1.99v-3.49Z"/><path class="c" d="M222,151.07c-2.26,.24-3.62,1.19-4.71,1.99-1.1,.8-1.89,1.38-3.67,1.38s-2.57-.58-3.67-1.38c-1.15-.84-2.93-1.85-5.46-2.03v-.04c-.13,0-.25,.01-.38,.02-.13,0-.25-.02-.38-.02v.04c-2.46,.18-3.87,1.19-5.02,2.03-1.1,.8-1.89,1.38-3.67,1.38s-2.57-.58-3.67-1.38c-1.15-.84-2.93-1.85-5.46-2.03v-.04c-.13,0-.25,.01-.38,.02-.13,0-.25-.02-.38-.02v.04c-2.46,.18-3.87,1.19-5.02,2.03-1.1,.8-1.89,1.38-3.67,1.38s-2.57-.58-3.67-1.38c-1.15-.84-2.93-1.85-5.46-2.03v-.04c-.13,0-.25,.01-.38,.02-.13,0-.25-.02-.38-.02v.04c-2.46,.18-3.87,1.19-5.02,2.03-1.1,.8-1.89,1.38-3.67,1.38s-2.57-.58-3.67-1.38c-1.15-.84-2.93-1.85-5.46-2.03v-.04c-.13,0-.25,.01-.38,.02-.13,0-.25-.02-.38-.02v.04c-2.46,.18-3.87,1.19-5.02,2.03-1.1,.8-1.89,1.38-3.67,1.38s-2.57-.58-3.67-1.38c-1.15-.84-2.93-1.85-5.46-2.03v-.04c-.13,0-.25,.01-.38,.02-.13,0-.25-.02-.38-.02v.04c-2.46,.18-3.87,1.19-5.02,2.03-1.1,.8-1.89,1.38-3.67,1.38s-2.57-.58-3.67-1.38c-1.15-.84-2.93-1.85-5.46-2.03v-.04c-.13,0-.25,.01-.38,.02-.13,0-.25-.02-.38-.02v.04c-2.46,.18-3.87,1.19-5.02,2.03-1.1,.8-1.89,1.38-3.67,1.38s-2.57-.58-3.67-1.38c-1.15-.84-2.93-1.85-5.46-2.03v-.04c-.13,0-.25,.01-.38,.02-.13,0-.25-.02-.38-.02v.04c-2.46,.18-3.87,1.19-5.02,2.03-1.1,.8-1.89,1.38-3.67,1.38s-2.57-.58-3.67-1.38c-1.15-.84-2.93-1.85-5.46-2.03v-.04c-.13,0-.25,.01-.38,.02-.13,0-.25-.02-.38-.02v.04c-2.46,.18-3.87,1.19-5.02,2.03-1.1,.8-1.89,1.38-3.67,1.38s-2.57-.58-3.67-1.38c-1.15-.84-2.93-1.85-5.46-2.03v-.04c-.13,0-.25,.01-.38,.02-.13,0-.25-.02-.38-.02v.04c-2.46,.18-3.87,1.19-5.02,2.03-1.1,.8-1.89,1.38-3.67,1.38s-2.57-.58-3.67-1.38c-1.15-.84-2.93-1.85-5.46-2.03v-.04c-.13,0-.25,.01-.38,.02-.13,0-.25-.02-.38-.02v.04c-2.46,.18-3.87,1.19-5.02,2.03-1.1,.8-1.89,1.38-3.67,1.38s-2.57-.58-3.67-1.38c-1.15-.84-2.93-1.85-5.46-2.03v-.04c-.13,0-.25,.01-.38,.02-.13,0-.25-.02-.38-.02v.04c-2.46,.18-3.87,1.19-5.02,2.03-1.1,.8-1.89,1.38-3.67,1.38s-2.57-.58-3.67-1.38c-1.15-.84-2.93-1.85-5.46-2.03v-.04s-.07,0-.1,0v3.51c1.42,.13,2.51,.62,3.46,1.31,1.26,.92,2.83,2.06,5.77,2.06s4.52-1.14,5.78-2.06c.99-.72,1.74-1.26,3.17-1.36,1.63,.06,2.82,.6,3.86,1.36,1.26,.92,2.83,2.06,5.77,2.06s4.52-1.14,5.78-2.06c.99-.72,1.74-1.26,3.17-1.36,1.63,.06,2.82,.6,3.86,1.36,1.26,.92,2.83,2.06,5.77,2.06s4.52-1.14,5.78-2.06c.99-.72,1.74-1.26,3.17-1.36,1.63,.06,2.82,.6,3.86,1.36,1.26,.92,2.83,2.06,5.77,2.06s4.52-1.14,5.78-2.06c.99-.72,1.74-1.26,3.17-1.36,1.63,.06,2.82,.6,3.86,1.36,1.26,.92,2.83,2.06,5.77,2.06s4.52-1.14,5.78-2.06c.99-.72,1.74-1.26,3.17-1.36,1.63,.06,2.82,.6,3.86,1.36,1.26,.92,2.83,2.06,5.77,2.06s4.52-1.14,5.78-2.06c.99-.72,1.74-1.26,3.17-1.36,1.63,.06,2.82,.6,3.86,1.36,1.26,.92,2.83,2.06,5.77,2.06s4.52-1.14,5.78-2.06c.99-.72,1.74-1.26,3.17-1.36,1.63,.06,2.82,.6,3.86,1.36,1.26,.92,2.83,2.06,5.77,2.06s4.52-1.14,5.78-2.06c.99-.72,1.74-1.26,3.17-1.36,1.63,.06,2.82,.6,3.86,1.36,1.26,.92,2.83,2.06,5.77,2.06s4.52-1.14,5.78-2.06c.99-.72,1.74-1.26,3.17-1.36,1.63,.06,2.82,.6,3.86,1.36,1.26,.92,2.83,2.06,5.77,2.06s4.52-1.14,5.78-2.06c.99-.72,1.74-1.26,3.17-1.36,1.63,.06,2.82,.6,3.86,1.36,1.26,.92,2.83,2.06,5.77,2.06s4.52-1.14,5.78-2.06c.99-.72,1.74-1.26,3.17-1.36,1.63,.06,2.82,.6,3.86,1.36,1.26,.92,2.83,2.06,5.77,2.06s4.52-1.14,5.78-2.06c.85-.62,1.52-1.1,2.61-1.29v-3.46Z"/></g><g><path class="c" d="M129.34,63.49c-1.43-1.68-3.96-1.88-5.64-.44l-15.5,13.25-3.63-3.1,18.24-15.26c1.69-1.42,1.92-3.94,.5-5.63-1.42-1.69-3.94-1.92-5.63-.5l-19.27,16.12-4.93-4.21c5.79-4.98,11.66-9.6,17.85-14.45,4.14-3.25,8.43-6.6,12.67-10.07,1.71-1.4,1.96-3.92,.56-5.63-1.4-1.71-3.92-1.96-5.63-.56-4.18,3.42-8.43,6.75-12.54,9.97-6.31,4.94-12.81,10.05-19.07,15.49l-5.88-5.02,9.81-7.96c1.72-1.39,1.98-3.91,.59-5.63-1.39-1.72-3.91-1.98-5.63-.59l-10.96,8.89-10.41-8.89c-1.68-1.43-4.21-1.24-5.64,.44-1.44,1.68-1.24,4.2,.44,5.64l9.28,7.93-5.87,4.76c-6.46-5.66-13.21-10.95-19.74-16.07-4.11-3.22-8.36-6.55-12.54-9.97-1.71-1.4-4.23-1.15-5.63,.56-1.4,1.71-1.15,4.23,.56,5.63,4.24,3.47,8.53,6.83,12.67,10.07,6.37,4.99,12.41,9.74,18.36,14.89l-5.05,4.1-19.66-16.45c-1.69-1.42-4.22-1.19-5.63,.5-1.42,1.69-1.19,4.22,.5,5.63l18.46,15.44-4.94,4.01c-.14-.15-.27-.3-.43-.43l-9.5-7.7c-.23-.18-.47-.33-.72-.46l-2.51-2.04c-1.71-1.39-4.23-1.13-5.63,.59-1.39,1.72-1.13,4.24,.59,5.63l11.82,9.58-11.82,9.58c-1.72,1.39-1.98,3.91-.59,5.63,.79,.98,1.95,1.48,3.11,1.48,.89,0,1.78-.29,2.52-.89l2.53-2.05c.24-.12,.48-.27,.7-.45l9.5-7.7c.16-.13,.3-.28,.43-.43l4.94,4.01-18.46,15.44c-1.69,1.42-1.92,3.94-.5,5.63,.79,.95,1.93,1.43,3.07,1.43,.91,0,1.82-.31,2.56-.93l19.66-16.45,5.05,4.1c-5.95,5.15-11.99,9.9-18.36,14.89-4.14,3.24-8.43,6.6-12.67,10.07-1.71,1.4-1.96,3.92-.56,5.63,.79,.97,1.94,1.47,3.1,1.47,.89,0,1.79-.3,2.53-.9,4.18-3.42,8.43-6.75,12.54-9.97,6.53-5.12,13.28-10.41,19.75-16.07l5.87,4.76-9.28,7.93c-1.68,1.44-1.88,3.96-.44,5.64,.79,.93,1.91,1.4,3.04,1.4,.92,0,1.84-.31,2.6-.96l10.41-8.89,10.96,8.89c.74,.6,1.63,.89,2.52,.89,1.16,0,2.32-.51,3.11-1.48,1.39-1.72,1.13-4.24-.59-5.63l-9.81-7.96,5.88-5.02c6.26,5.44,12.76,10.55,19.07,15.49,4.11,3.22,8.36,6.55,12.54,9.97,.74,.61,1.64,.9,2.53,.9,1.16,0,2.31-.5,3.1-1.47,1.4-1.71,1.15-4.23-.56-5.63-4.24-3.47-8.53-6.83-12.67-10.07-6.19-4.85-12.06-9.47-17.85-14.46l4.93-4.21,19.27,16.12c.75,.63,1.66,.93,2.56,.93,1.14,0,2.28-.49,3.07-1.43,1.42-1.69,1.19-4.22-.5-5.63l-18.24-15.26,3.63-3.1,15.5,13.25c.75,.64,1.68,.96,2.6,.96,1.13,0,2.25-.48,3.04-1.4,1.44-1.68,1.24-4.2-.44-5.64l-14.54-12.43,14.54-12.43c1.68-1.44,1.88-3.96,.44-5.64Zm-54.22,41.07l-28.38-23,28.38-23,26.92,23-26.92,23Z"/><polygon class="c" points="61.86 81.56 74.72 91.99 86.92 81.56 74.72 71.14 61.86 81.56"/></g></svg>