<?xml version="1.0" encoding="UTF-8"?><svg id="a" xmlns="http://www.w3.org/2000/svg" viewBox="0 0 222.35 161.89"><defs><style>.b{fill:#f2f1f1;}.c{fill:#878d7a;}</style></defs><path class="b" d="M222,3.33c-1.22-.18-2.19-.64-3.05-1.27C217.69,1.14,216.12,0,213.17,0s-4.51,1.14-5.78,2.06c-.99,.72-1.74,1.26-3.17,1.36-1.63-.06-2.82-.6-3.86-1.36C199.11,1.14,197.54,0,194.59,0s-4.51,1.14-5.78,2.06c-.99,.72-1.74,1.26-3.17,1.36-1.63-.06-2.82-.6-3.86-1.36C180.53,1.14,178.96,0,176.01,0s-4.51,1.14-5.78,2.06c-.99,.72-1.74,1.26-3.17,1.36-1.63-.06-2.82-.6-3.86-1.36C161.95,1.14,160.38,0,157.43,0s-4.51,1.14-5.78,2.06c-.99,.72-1.74,1.26-3.17,1.36-1.63-.06-2.82-.6-3.86-1.36C143.37,1.14,141.8,0,138.85,0s-4.51,1.14-5.78,2.06c-.99,.72-1.74,1.26-3.17,1.36-1.63-.06-2.82-.6-3.86-1.36C124.79,1.14,123.22,0,120.27,0s-4.51,1.14-5.78,2.06c-.99,.72-1.74,1.26-3.17,1.36-1.63-.06-2.82-.6-3.86-1.36C106.2,1.14,104.64,0,101.69,0s-4.51,1.14-5.78,2.06c-.99,.72-1.74,1.26-3.17,1.36-1.63-.06-2.82-.6-3.86-1.36C87.62,1.14,86.06,0,83.11,0s-4.51,1.14-5.78,2.06c-.99,.72-1.74,1.26-3.17,1.36-1.63-.06-2.82-.6-3.86-1.36C69.04,1.14,67.47,0,64.53,0s-4.51,1.14-5.78,2.06c-.99,.72-1.74,1.26-3.17,1.36-1.63-.06-2.82-.6-3.86-1.36C50.46,1.14,48.89,0,45.95,0s-4.51,1.14-5.78,2.06c-.99,.72-1.74,1.26-3.17,1.36-1.63-.06-2.82-.6-3.86-1.36C31.88,1.14,30.31,0,27.37,0s-4.51,1.14-5.78,2.06c-.99,.72-1.74,1.26-3.17,1.36-1.63-.06-2.82-.6-3.86-1.36C13.3,1.14,11.73,0,8.79,0S4.27,1.14,3.01,2.06c-.95,.69-1.69,1.21-3.01,1.34V158.51c1.42,.13,2.51,.62,3.46,1.31,1.26,.92,2.83,2.06,5.77,2.06s4.52-1.14,5.78-2.06c.99-.72,1.74-1.26,3.17-1.36,1.63,.06,2.82,.6,3.86,1.36,1.26,.92,2.83,2.06,5.77,2.06s4.52-1.14,5.78-2.06c.99-.72,1.74-1.26,3.17-1.36,1.63,.06,2.82,.6,3.86,1.36,1.26,.92,2.83,2.06,5.77,2.06s4.52-1.14,5.78-2.06c.99-.72,1.74-1.26,3.17-1.36,1.63,.06,2.82,.6,3.86,1.36,1.26,.92,2.83,2.06,5.77,2.06s4.52-1.14,5.78-2.06c.99-.72,1.74-1.26,3.17-1.36,1.63,.06,2.82,.6,3.86,1.36,1.26,.92,2.83,2.06,5.77,2.06s4.52-1.14,5.78-2.06c.99-.72,1.74-1.26,3.17-1.36,1.63,.06,2.82,.6,3.86,1.36,1.26,.92,2.83,2.06,5.77,2.06s4.52-1.14,5.78-2.06c.99-.72,1.74-1.26,3.17-1.36,1.63,.06,2.82,.6,3.86,1.36,1.26,.92,2.83,2.06,5.77,2.06s4.52-1.14,5.78-2.06c.99-.72,1.74-1.26,3.17-1.36,1.63,.06,2.82,.6,3.86,1.36,1.26,.92,2.83,2.06,5.77,2.06s4.52-1.14,5.78-2.06c.99-.72,1.74-1.26,3.17-1.36,1.63,.06,2.82,.6,3.86,1.36,1.26,.92,2.83,2.06,5.77,2.06s4.52-1.14,5.78-2.06c.99-.72,1.74-1.26,3.17-1.36,1.63,.06,2.82,.6,3.86,1.36,1.26,.92,2.83,2.06,5.77,2.06s4.52-1.14,5.78-2.06c.99-.72,1.74-1.26,3.17-1.36,1.63,.06,2.82,.6,3.86,1.36,1.26,.92,2.83,2.06,5.77,2.06s4.52-1.14,5.78-2.06c.99-.72,1.74-1.26,3.17-1.36,1.63,.06,2.82,.6,3.86,1.36,1.26,.92,2.83,2.06,5.77,2.06s4.52-1.14,5.78-2.06c.85-.62,1.52-1.1,2.61-1.29V3.33Z"/><path class="c" d="M148.84,29.32c-2.04,0-3.69,1.65-3.69,3.69v97.5c0,2.04,1.65,3.69,3.69,3.69s3.69-1.65,3.69-3.69V33.01c0-2.04-1.65-3.69-3.69-3.69Z"/><path class="c" d="M205.56,42.38l-17.08-9.76c-1.11-.64-2.46-.7-3.63-.17l-20.73,9.35c-1.43,.65-2.36,2.07-2.36,3.65v24.19c0,1.32,.65,2.55,1.74,3.3l36.07,24.72v19.71l-13.21,7.24-16.6-7.81v-12.94l6.1-2.87,8.75,8.95c1.54,1.58,4.08,1.61,5.66,.06s1.61-4.08,.06-5.66l-10.73-10.98c-1.19-1.22-3.02-1.55-4.56-.82l-10.98,5.15c-1.4,.66-2.3,2.07-2.3,3.62v18.02c0,1.55,.9,2.96,2.3,3.62l20.73,9.76c.54,.25,1.12,.38,1.7,.38,.66,0,1.32-.17,1.92-.49l17.08-9.35c1.28-.7,2.08-2.05,2.08-3.51v-24.19c0-1.32-.65-2.55-1.74-3.3l-36.07-24.72v-19.5l16.52-7.45,13.29,7.59v13.16l-6.1,2.87-8.75-8.95c-1.54-1.58-4.08-1.61-5.66-.06-1.58,1.54-1.61,4.08-.06,5.66l10.73,10.98c1.19,1.22,3.02,1.55,4.56,.82l10.98-5.15c1.4-.66,2.3-2.07,2.3-3.62v-18.02c0-1.44-.77-2.76-2.02-3.47Z"/><path class="c" d="M.35,29.32c2.04,0,3.69,1.65,3.69,3.69v97.5c0,2.04-1.65,3.69-3.69,3.69V29.32Z"/><path class="c" d="M222.35,29.12c-2.04,0-3.69,1.65-3.69,3.69v97.5c0,2.04,1.65,3.69,3.69,3.69V29.12Z"/><g><rect class="c" x="5.7" y="12.2" width="6.67" height="10"/><rect class="c" x="24.28" y="12.2" width="6.67" height="10"/><rect class="c" x="42.86" y="12.2" width="6.67" height="10"/><rect class="c" x="61.45" y="12.2" width="6.67" height="10"/><rect class="c" x="80.03" y="12.2" width="6.67" height="10"/><rect class="c" x="98.61" y="12.2" width="6.67" height="10"/><rect class="c" x="117.19" y="12.2" width="6.67" height="10"/><rect class="c" x="135.77" y="12.2" width="6.67" height="10"/><rect class="c" x="154.35" y="12.2" width="6.67" height="10"/><rect class="c" x="172.93" y="12.2" width="6.67" height="10"/><rect class="c" x="191.51" y="12.2" width="6.67" height="10"/><rect class="c" x="210.09" y="12.2" width="6.67" height="10"/><path class="c" d="M222,8.33c-1.22-.18-2.19-.64-3.05-1.27-1.26-.92-2.83-2.06-5.78-2.06s-4.51,1.14-5.78,2.06c-.99,.72-1.74,1.26-3.17,1.36-1.63-.06-2.82-.6-3.86-1.36-1.26-.92-2.83-2.06-5.78-2.06s-4.51,1.14-5.78,2.06c-.99,.72-1.74,1.26-3.17,1.36-1.63-.06-2.82-.6-3.86-1.36-1.26-.92-2.83-2.06-5.78-2.06s-4.51,1.14-5.78,2.06c-.99,.72-1.74,1.26-3.17,1.36-1.63-.06-2.82-.6-3.86-1.36-1.26-.92-2.83-2.06-5.78-2.06s-4.51,1.14-5.78,2.06c-.99,.72-1.74,1.26-3.17,1.36-1.63-.06-2.82-.6-3.86-1.36-1.26-.92-2.83-2.06-5.78-2.06s-4.51,1.14-5.78,2.06c-.99,.72-1.74,1.26-3.17,1.36-1.63-.06-2.82-.6-3.86-1.36-1.26-.92-2.83-2.06-5.78-2.06s-4.51,1.14-5.78,2.06c-.99,.72-1.74,1.26-3.17,1.36-1.63-.06-2.82-.6-3.86-1.36-1.26-.92-2.83-2.06-5.78-2.06s-4.51,1.14-5.78,2.06c-.99,.72-1.74,1.26-3.17,1.36-1.63-.06-2.82-.6-3.86-1.36-1.26-.92-2.83-2.06-5.78-2.06s-4.51,1.14-5.78,2.06c-.99,.72-1.74,1.26-3.17,1.36-1.63-.06-2.82-.6-3.86-1.36-1.26-.92-2.83-2.06-5.78-2.06s-4.51,1.14-5.78,2.06c-.99,.72-1.74,1.26-3.17,1.36-1.63-.06-2.82-.6-3.86-1.36-1.26-.92-2.83-2.06-5.78-2.06s-4.51,1.14-5.78,2.06c-.99,.72-1.74,1.26-3.17,1.36-1.63-.06-2.82-.6-3.86-1.36-1.26-.92-2.83-2.06-5.78-2.06s-4.51,1.14-5.78,2.06c-.99,.72-1.74,1.26-3.17,1.36-1.63-.06-2.82-.6-3.86-1.36-1.26-.92-2.83-2.06-5.78-2.06s-4.51,1.14-5.78,2.06c-.95,.69-1.69,1.21-3.01,1.34v3.48s.07,0,.1,0v-.04c2.46-.18,3.87-1.19,5.02-2.03,1.1-.8,1.89-1.38,3.67-1.38s2.57,.58,3.67,1.38c1.15,.84,2.93,1.85,5.46,2.03v.04c.13,0,.25-.01,.38-.02,.13,0,.25,.02,.38,.02v-.04c2.46-.18,3.87-1.19,5.02-2.03,1.1-.8,1.89-1.38,3.67-1.38s2.57,.58,3.67,1.38c1.15,.84,2.93,1.85,5.46,2.03v.04c.13,0,.25-.01,.38-.02,.13,0,.25,.02,.38,.02v-.04c2.46-.18,3.87-1.19,5.02-2.03,1.1-.8,1.89-1.38,3.67-1.38s2.57,.58,3.67,1.38c1.15,.84,2.93,1.85,5.46,2.03v.04c.13,0,.25-.01,.38-.02,.13,0,.25,.02,.38,.02v-.04c2.46-.18,3.87-1.19,5.02-2.03,1.1-.8,1.89-1.38,3.67-1.38s2.57,.58,3.67,1.38c1.15,.84,2.93,1.85,5.46,2.03v.04c.13,0,.25-.01,.38-.02,.13,0,.25,.02,.38,.02v-.04c2.46-.18,3.87-1.19,5.02-2.03,1.1-.8,1.89-1.38,3.67-1.38s2.57,.58,3.67,1.38c1.15,.84,2.93,1.85,5.46,2.03v.04c.13,0,.25-.01,.38-.02,.13,0,.25,.02,.38,.02v-.04c2.46-.18,3.87-1.19,5.02-2.03,1.1-.8,1.89-1.38,3.67-1.38s2.57,.58,3.67,1.38c1.15,.84,2.93,1.85,5.46,2.03v.04c.13,0,.25-.01,.38-.02,.13,0,.25,.02,.38,.02v-.04c2.46-.18,3.87-1.19,5.02-2.03,1.1-.8,1.89-1.38,3.67-1.38s2.57,.58,3.67,1.38c1.15,.84,2.93,1.85,5.46,2.03v.04c.13,0,.25-.01,.38-.02,.13,0,.25,.02,.38,.02v-.04c2.46-.18,3.87-1.19,5.02-2.03,1.1-.8,1.89-1.38,3.67-1.38s2.57,.58,3.67,1.38c1.15,.84,2.93,1.85,5.46,2.03v.04c.13,0,.25-.01,.38-.02,.13,0,.25,.02,.38,.02v-.04c2.46-.18,3.87-1.19,5.02-2.03,1.1-.8,1.89-1.38,3.67-1.38s2.57,.58,3.67,1.38c1.15,.84,2.93,1.85,5.46,2.03v.04c.13,0,.25-.01,.38-.02,.13,0,.25,.02,.38,.02v-.04c2.46-.18,3.87-1.19,5.02-2.03,1.1-.8,1.89-1.38,3.67-1.38s2.57,.58,3.67,1.38c1.15,.84,2.93,1.85,5.46,2.03v.04c.13,0,.25-.01,.38-.02,.13,0,.25,.02,.38,.02v-.04c2.46-.18,3.87-1.19,5.02-2.03,1.1-.8,1.89-1.38,3.67-1.38s2.57,.58,3.67,1.38c1.15,.84,2.93,1.85,5.46,2.03v.04c.13,0,.25-.01,.38-.02,.13,0,.25,.02,.38,.02v-.04c2.46-.18,3.87-1.19,5.02-2.03,1.1-.8,1.89-1.38,3.67-1.38s2.57,.58,3.67,1.38c1.1,.8,2.79,1.76,5.16,1.99v-3.49Z"/><path class="c" d="M222,22.07c-2.26,.24-3.62,1.19-4.71,1.99-1.1,.8-1.89,1.38-3.67,1.38s-2.57-.58-3.67-1.38c-1.15-.84-2.93-1.85-5.46-2.03v-.04c-.13,0-.25,.01-.38,.02-.13,0-.25-.02-.38-.02v.04c-2.46,.18-3.87,1.19-5.02,2.03-1.1,.8-1.89,1.38-3.67,1.38s-2.57-.58-3.67-1.38c-1.15-.84-2.93-1.85-5.46-2.03v-.04c-.13,0-.25,.01-.38,.02-.13,0-.25-.02-.38-.02v.04c-2.46,.18-3.87,1.19-5.02,2.03-1.1,.8-1.89,1.38-3.67,1.38s-2.57-.58-3.67-1.38c-1.15-.84-2.93-1.85-5.46-2.03v-.04c-.13,0-.25,.01-.38,.02-.13,0-.25-.02-.38-.02v.04c-2.46,.18-3.87,1.19-5.02,2.03-1.1,.8-1.89,1.38-3.67,1.38s-2.57-.58-3.67-1.38c-1.15-.84-2.93-1.85-5.46-2.03v-.04c-.13,0-.25,.01-.38,.02-.13,0-.25-.02-.38-.02v.04c-2.46,.18-3.87,1.19-5.02,2.03-1.1,.8-1.89,1.38-3.67,1.38s-2.57-.58-3.67-1.38c-1.15-.84-2.93-1.85-5.46-2.03v-.04c-.13,0-.25,.01-.38,.02-.13,0-.25-.02-.38-.02v.04c-2.46,.18-3.87,1.19-5.02,2.03-1.1,.8-1.89,1.38-3.67,1.38s-2.57-.58-3.67-1.38c-1.15-.84-2.93-1.85-5.46-2.03v-.04c-.13,0-.25,.01-.38,.02-.13,0-.25-.02-.38-.02v.04c-2.46,.18-3.87,1.19-5.02,2.03-1.1,.8-1.89,1.38-3.67,1.38s-2.57-.58-3.67-1.38c-1.15-.84-2.93-1.85-5.46-2.03v-.04c-.13,0-.25,.01-.38,.02-.13,0-.25-.02-.38-.02v.04c-2.46,.18-3.87,1.19-5.02,2.03-1.1,.8-1.89,1.38-3.67,1.38s-2.57-.58-3.67-1.38c-1.15-.84-2.93-1.85-5.46-2.03v-.04c-.13,0-.25,.01-.38,.02-.13,0-.25-.02-.38-.02v.04c-2.46,.18-3.87,1.19-5.02,2.03-1.1,.8-1.89,1.38-3.67,1.38s-2.57-.58-3.67-1.38c-1.15-.84-2.93-1.85-5.46-2.03v-.04c-.13,0-.25,.01-.38,.02-.13,0-.25-.02-.38-.02v.04c-2.46,.18-3.87,1.19-5.02,2.03-1.1,.8-1.89,1.38-3.67,1.38s-2.57-.58-3.67-1.38c-1.15-.84-2.93-1.85-5.46-2.03v-.04c-.13,0-.25,.01-.38,.02-.13,0-.25-.02-.38-.02v.04c-2.46,.18-3.87,1.19-5.02,2.03-1.1,.8-1.89,1.38-3.67,1.38s-2.57-.58-3.67-1.38c-1.15-.84-2.93-1.85-5.46-2.03v-.04c-.13,0-.25,.01-.38,.02-.13,0-.25-.02-.38-.02v.04c-2.46,.18-3.87,1.19-5.02,2.03-1.1,.8-1.89,1.38-3.67,1.38s-2.57-.58-3.67-1.38c-1.15-.84-2.93-1.85-5.46-2.03v-.04s-.07,0-.1,0v3.51c1.42,.13,2.51,.62,3.46,1.31,1.26,.92,2.83,2.06,5.77,2.06s4.52-1.14,5.78-2.06c.99-.72,1.74-1.26,3.17-1.36,1.63,.06,2.82,.6,3.86,1.36,1.26,.92,2.83,2.06,5.77,2.06s4.52-1.14,5.78-2.06c.99-.72,1.74-1.26,3.17-1.36,1.63,.06,2.82,.6,3.86,1.36,1.26,.92,2.83,2.06,5.77,2.06s4.52-1.14,5.78-2.06c.99-.72,1.74-1.26,3.17-1.36,1.63,.06,2.82,.6,3.86,1.36,1.26,.92,2.83,2.06,5.77,2.06s4.52-1.14,5.78-2.06c.99-.72,1.74-1.26,3.17-1.36,1.63,.06,2.82,.6,3.86,1.36,1.26,.92,2.83,2.06,5.77,2.06s4.52-1.14,5.78-2.06c.99-.72,1.74-1.26,3.17-1.36,1.63,.06,2.82,.6,3.86,1.36,1.26,.92,2.83,2.06,5.77,2.06s4.52-1.14,5.78-2.06c.99-.72,1.74-1.26,3.17-1.36,1.63,.06,2.82,.6,3.86,1.36,1.26,.92,2.83,2.06,5.77,2.06s4.52-1.14,5.78-2.06c.99-.72,1.74-1.26,3.17-1.36,1.63,.06,2.82,.6,3.86,1.36,1.26,.92,2.83,2.06,5.77,2.06s4.52-1.14,5.78-2.06c.99-.72,1.74-1.26,3.17-1.36,1.63,.06,2.82,.6,3.86,1.36,1.26,.92,2.83,2.06,5.77,2.06s4.52-1.14,5.78-2.06c.99-.72,1.74-1.26,3.17-1.36,1.63,.06,2.82,.6,3.86,1.36,1.26,.92,2.83,2.06,5.77,2.06s4.52-1.14,5.78-2.06c.99-.72,1.74-1.26,3.17-1.36,1.63,.06,2.82,.6,3.86,1.36,1.26,.92,2.83,2.06,5.77,2.06s4.52-1.14,5.78-2.06c.99-.72,1.74-1.26,3.17-1.36,1.63,.06,2.82,.6,3.86,1.36,1.26,.92,2.83,2.06,5.77,2.06s4.52-1.14,5.78-2.06c.85-.62,1.52-1.1,2.61-1.29v-3.46Z"/></g><g><rect class="c" x="5.7" y="141.2" width="6.67" height="10"/><rect class="c" x="24.28" y="141.2" width="6.67" height="10"/><rect class="c" x="42.86" y="141.2" width="6.67" height="10"/><rect class="c" x="61.45" y="141.2" width="6.67" height="10"/><rect class="c" x="80.03" y="141.2" width="6.67" height="10"/><rect class="c" x="98.61" y="141.2" width="6.67" height="10"/><rect class="c" x="117.19" y="141.2" width="6.67" height="10"/><rect class="c" x="135.77" y="141.2" width="6.67" height="10"/><rect class="c" x="154.35" y="141.2" width="6.67" height="10"/><rect class="c" x="172.93" y="141.2" width="6.67" height="10"/><rect class="c" x="191.51" y="141.2" width="6.67" height="10"/><rect class="c" x="210.09" y="141.2" width="6.67" height="10"/><path class="c" d="M222,137.33c-1.22-.18-2.19-.64-3.05-1.27-1.26-.92-2.83-2.06-5.78-2.06s-4.51,1.14-5.78,2.06c-.99,.72-1.74,1.26-3.17,1.36-1.63-.06-2.82-.6-3.86-1.36-1.26-.92-2.83-2.06-5.78-2.06s-4.51,1.14-5.78,2.06c-.99,.72-1.74,1.26-3.17,1.36-1.63-.06-2.82-.6-3.86-1.36-1.26-.92-2.83-2.06-5.78-2.06s-4.51,1.14-5.78,2.06c-.99,.72-1.74,1.26-3.17,1.36-1.63-.06-2.82-.6-3.86-1.36-1.26-.92-2.83-2.06-5.78-2.06s-4.51,1.14-5.78,2.06c-.99,.72-1.74,1.26-3.17,1.36-1.63-.06-2.82-.6-3.86-1.36-1.26-.92-2.83-2.06-5.78-2.06s-4.51,1.14-5.78,2.06c-.99,.72-1.74,1.26-3.17,1.36-1.63-.06-2.82-.6-3.86-1.36-1.26-.92-2.83-2.06-5.78-2.06s-4.51,1.14-5.78,2.06c-.99,.72-1.74,1.26-3.17,1.36-1.63-.06-2.82-.6-3.86-1.36-1.26-.92-2.83-2.06-5.78-2.06s-4.51,1.14-5.78,2.06c-.99,.72-1.74,1.26-3.17,1.36-1.63-.06-2.82-.6-3.86-1.36-1.26-.92-2.83-2.06-5.78-2.06s-4.51,1.14-5.78,2.06c-.99,.72-1.74,1.26-3.17,1.36-1.63-.06-2.82-.6-3.86-1.36-1.26-.92-2.83-2.06-5.78-2.06s-4.51,1.14-5.78,2.06c-.99,.72-1.74,1.26-3.17,1.36-1.63-.06-2.82-.6-3.86-1.36-1.26-.92-2.83-2.06-5.78-2.06s-4.51,1.14-5.78,2.06c-.99,.72-1.74,1.26-3.17,1.36-1.63-.06-2.82-.6-3.86-1.36-1.26-.92-2.83-2.06-5.78-2.06s-4.51,1.14-5.78,2.06c-.99,.72-1.74,1.26-3.17,1.36-1.63-.06-2.82-.6-3.86-1.36-1.26-.92-2.83-2.06-5.78-2.06s-4.51,1.14-5.78,2.06c-.95,.69-1.69,1.21-3.01,1.34v3.48s.07,0,.1,0v-.04c2.46-.18,3.87-1.19,5.02-2.03,1.1-.8,1.89-1.38,3.67-1.38s2.57,.58,3.67,1.38c1.15,.84,2.93,1.85,5.46,2.03v.04c.13,0,.25-.01,.38-.02,.13,0,.25,.02,.38,.02v-.04c2.46-.18,3.87-1.19,5.02-2.03,1.1-.8,1.89-1.38,3.67-1.38s2.57,.58,3.67,1.38c1.15,.84,2.93,1.85,5.46,2.03v.04c.13,0,.25-.01,.38-.02,.13,0,.25,.02,.38,.02v-.04c2.46-.18,3.87-1.19,5.02-2.03,1.1-.8,1.89-1.38,3.67-1.38s2.57,.58,3.67,1.38c1.15,.84,2.93,1.85,5.46,2.03v.04c.13,0,.25-.01,.38-.02,.13,0,.25,.02,.38,.02v-.04c2.46-.18,3.87-1.19,5.02-2.03,1.1-.8,1.89-1.38,3.67-1.38s2.57,.58,3.67,1.38c1.15,.84,2.93,1.85,5.46,2.03v.04c.13,0,.25-.01,.38-.02,.13,0,.25,.02,.38,.02v-.04c2.46-.18,3.87-1.19,5.02-2.03,1.1-.8,1.89-1.38,3.67-1.38s2.57,.58,3.67,1.38c1.15,.84,2.93,1.85,5.46,2.03v.04c.13,0,.25-.01,.38-.02,.13,0,.25,.02,.38,.02v-.04c2.46-.18,3.87-1.19,5.02-2.03,1.1-.8,1.89-1.38,3.67-1.38s2.57,.58,3.67,1.38c1.15,.84,2.93,1.85,5.46,2.03v.04c.13,0,.25-.01,.38-.02,.13,0,.25,.02,.38,.02v-.04c2.46-.18,3.87-1.19,5.02-2.03,1.1-.8,1.89-1.38,3.67-1.38s2.57,.58,3.67,1.38c1.15,.84,2.93,1.85,5.46,2.03v.04c.13,0,.25-.01,.38-.02,.13,0,.25,.02,.38,.02v-.04c2.46-.18,3.87-1.19,5.02-2.03,1.1-.8,1.89-1.38,3.67-1.38s2.57,.58,3.67,1.38c1.15,.84,2.93,1.85,5.46,2.03v.04c.13,0,.25-.01,.38-.02,.13,0,.25,.02,.38,.02v-.04c2.46-.18,3.87-1.19,5.02-2.03,1.1-.8,1.89-1.38,3.67-1.38s2.57,.58,3.67,1.38c1.15,.84,2.93,1.85,5.46,2.03v.04c.13,0,.25-.01,.38-.02,.13,0,.25,.02,.38,.02v-.04c2.46-.18,3.87-1.19,5.02-2.03,1.1-.8,1.89-1.38,3.67-1.38s2.57,.58,3.67,1.38c1.15,.84,2.93,1.85,5.46,2.03v.04c.13,0,.25-.01,.38-.02,.13,0,.25,.02,.38,.02v-.04c2.46-.18,3.87-1.19,5.02-2.03,1.1-.8,1.89-1.38,3.67-1.38s2.57,.58,3.67,1.38c1.15,.84,2.93,1.85,5.46,2.03v.04c.13,0,.25-.01,.38-.02,.13,0,.25,.02,.38,.02v-.04c2.46-.18,3.87-1.19,5.02-2.03,1.1-.8,1.89-1.38,3.67-1.38s2.57,.58,3.67,1.38c1.1,.8,2.79,1.76,5.16,1.99v-3.49Z"/><path class="c" d="M222,151.07c-2.26,.24-3.62,1.19-4.71,1.99-1.1,.8-1.89,1.38-3.67,1.38s-2.57-.58-3.67-1.38c-1.15-.84-2.93-1.85-5.46-2.03v-.04c-.13,0-.25,.01-.38,.02-.13,0-.25-.02-.38-.02v.04c-2.46,.18-3.87,1.19-5.02,2.03-1.1,.8-1.89,1.38-3.67,1.38s-2.57-.58-3.67-1.38c-1.15-.84-2.93-1.85-5.46-2.03v-.04c-.13,0-.25,.01-.38,.02-.13,0-.25-.02-.38-.02v.04c-2.46,.18-3.87,1.19-5.02,2.03-1.1,.8-1.89,1.38-3.67,1.38s-2.57-.58-3.67-1.38c-1.15-.84-2.93-1.85-5.46-2.03v-.04c-.13,0-.25,.01-.38,.02-.13,0-.25-.02-.38-.02v.04c-2.46,.18-3.87,1.19-5.02,2.03-1.1,.8-1.89,1.38-3.67,1.38s-2.57-.58-3.67-1.38c-1.15-.84-2.93-1.85-5.46-2.03v-.04c-.13,0-.25,.01-.38,.02-.13,0-.25-.02-.38-.02v.04c-2.46,.18-3.87,1.19-5.02,2.03-1.1,.8-1.89,1.38-3.67,1.38s-2.57-.58-3.67-1.38c-1.15-.84-2.93-1.85-5.46-2.03v-.04c-.13,0-.25,.01-.38,.02-.13,0-.25-.02-.38-.02v.04c-2.46,.18-3.87,1.19-5.02,2.03-1.1,.8-1.89,1.38-3.67,1.38s-2.57-.58-3.67-1.38c-1.15-.84-2.93-1.85-5.46-2.03v-.04c-.13,0-.25,.01-.38,.02-.13,0-.25-.02-.38-.02v.04c-2.46,.18-3.87,1.19-5.02,2.03-1.1,.8-1.89,1.38-3.67,1.38s-2.57-.58-3.67-1.38c-1.15-.84-2.93-1.85-5.46-2.03v-.04c-.13,0-.25,.01-.38,.02-.13,0-.25-.02-.38-.02v.04c-2.46,.18-3.87,1.19-5.02,2.03-1.1,.8-1.89,1.38-3.67,1.38s-2.57-.58-3.67-1.38c-1.15-.84-2.93-1.85-5.46-2.03v-.04c-.13,0-.25,.01-.38,.02-.13,0-.25-.02-.38-.02v.04c-2.46,.18-3.87,1.19-5.02,2.03-1.1,.8-1.89,1.38-3.67,1.38s-2.57-.58-3.67-1.38c-1.15-.84-2.93-1.85-5.46-2.03v-.04c-.13,0-.25,.01-.38,.02-.13,0-.25-.02-.38-.02v.04c-2.46,.18-3.87,1.19-5.02,2.03-1.1,.8-1.89,1.38-3.67,1.38s-2.57-.58-3.67-1.38c-1.15-.84-2.93-1.85-5.46-2.03v-.04c-.13,0-.25,.01-.38,.02-.13,0-.25-.02-.38-.02v.04c-2.46,.18-3.87,1.19-5.02,2.03-1.1,.8-1.89,1.38-3.67,1.38s-2.57-.58-3.67-1.38c-1.15-.84-2.93-1.85-5.46-2.03v-.04c-.13,0-.25,.01-.38,.02-.13,0-.25-.02-.38-.02v.04c-2.46,.18-3.87,1.19-5.02,2.03-1.1,.8-1.89,1.38-3.67,1.38s-2.57-.58-3.67-1.38c-1.15-.84-2.93-1.85-5.46-2.03v-.04s-.07,0-.1,0v3.51c1.42,.13,2.51,.62,3.46,1.31,1.26,.92,2.83,2.06,5.77,2.06s4.52-1.14,5.78-2.06c.99-.72,1.74-1.26,3.17-1.36,1.63,.06,2.82,.6,3.86,1.36,1.26,.92,2.83,2.06,5.77,2.06s4.52-1.14,5.78-2.06c.99-.72,1.74-1.26,3.17-1.36,1.63,.06,2.82,.6,3.86,1.36,1.26,.92,2.83,2.06,5.77,2.06s4.52-1.14,5.78-2.06c.99-.72,1.74-1.26,3.17-1.36,1.63,.06,2.82,.6,3.86,1.36,1.26,.92,2.83,2.06,5.77,2.06s4.52-1.14,5.78-2.06c.99-.72,1.74-1.26,3.17-1.36,1.63,.06,2.82,.6,3.86,1.36,1.26,.92,2.83,2.06,5.77,2.06s4.52-1.14,5.78-2.06c.99-.72,1.74-1.26,3.17-1.36,1.63,.06,2.82,.6,3.86,1.36,1.26,.92,2.83,2.06,5.77,2.06s4.52-1.14,5.78-2.06c.99-.72,1.74-1.26,3.17-1.36,1.63,.06,2.82,.6,3.86,1.36,1.26,.92,2.83,2.06,5.77,2.06s4.52-1.14,5.78-2.06c.99-.72,1.74-1.26,3.17-1.36,1.63,.06,2.82,.6,3.86,1.36,1.26,.92,2.83,2.06,5.77,2.06s4.52-1.14,5.78-2.06c.99-.72,1.74-1.26,3.17-1.36,1.63,.06,2.82,.6,3.86,1.36,1.26,.92,2.83,2.06,5.77,2.06s4.52-1.14,5.78-2.06c.99-.72,1.74-1.26,3.17-1.36,1.63,.06,2.82,.6,3.86,1.36,1.26,.92,2.83,2.06,5.77,2.06s4.52-1.14,5.78-2.06c.99-.72,1.74-1.26,3.17-1.36,1.63,.06,2.82,.6,3.86,1.36,1.26,.92,2.83,2.06,5.77,2.06s4.52-1.14,5.78-2.06c.99-.72,1.74-1.26,3.17-1.36,1.63,.06,2.82,.6,3.86,1.36,1.26,.92,2.83,2.06,5.77,2.06s4.52-1.14,5.78-2.06c.85-.62,1.52-1.1,2.61-1.29v-3.46Z"/></g><g><circle class="c" cx="26.14" cy="59.05" r="3.95"/><path class="c" d="M124.5,38.12l-36.28,27.21-4.14-6.74,20.54-16.18c1.71-1.35,2.01-3.83,.66-5.55-1.35-1.71-3.83-2.01-5.55-.66l-19.81,15.61-3.77-6.14,10.77-8.81c1.69-1.38,1.94-3.87,.56-5.56-1.38-1.69-3.87-1.94-5.56-.56l-9.94,8.13-1-1.63c-.55-.89-1.43-1.53-2.45-1.78-1.02-.24-2.09-.07-2.99,.48l-12.84,7.9c-1.86,1.14-2.44,3.57-1.3,5.43l41.49,67.69-6.45,3.85L33.46,34.28c-1.14-1.86-3.57-2.45-5.43-1.31-1.86,1.14-2.44,3.57-1.31,5.43l16.58,27.07-12.4,8.04c-1.83,1.19-2.35,3.63-1.16,5.46,.76,1.17,2.02,1.8,3.32,1.8,.74,0,1.48-.21,2.15-.64l12.22-7.93,3.69,6.02-20.32,14.11c-1.79,1.24-2.24,3.71-.99,5.5,.77,1.1,2,1.7,3.25,1.7,.78,0,1.56-.23,2.25-.71l19.94-13.85,3.79,6.18-37.24,27.93c-1.74,1.31-2.1,3.79-.79,5.53,.78,1.03,1.96,1.58,3.16,1.58,.82,0,1.66-.26,2.37-.79l36.64-27.48,4.12,6.73-20.89,16.46c-1.71,1.35-2.01,3.83-.66,5.55,.78,.99,1.94,1.51,3.11,1.51,.86,0,1.72-.28,2.44-.85l20.16-15.88,3.78,6.17c-.09,.06-.18,.11-.27,.18l-10.86,8.89c-1.69,1.38-1.94,3.87-.56,5.56,.78,.95,1.92,1.45,3.06,1.45,.88,0,1.77-.29,2.5-.89l10.27-8.41,2.37,3.88c1.13,1.84,3.53,2.44,5.39,1.33l13.23-7.9c.91-.54,1.56-1.42,1.81-2.45,.25-1.03,.08-2.11-.47-3.01L60.21,48.5l6.11-3.76,51.26,83.53c.75,1.22,2.04,1.89,3.37,1.89,.7,0,1.42-.19,2.06-.58,1.86-1.14,2.44-3.57,1.3-5.43l-16.17-26.35,11.99-7.78c1.83-1.19,2.35-3.63,1.16-5.46-1.19-1.83-3.63-2.35-5.46-1.16l-11.82,7.67-3.7-6.03,19.93-13.84c1.79-1.24,2.24-3.71,.99-5.5-1.25-1.79-3.7-2.24-5.5-.99l-19.56,13.58-3.8-6.19,36.87-27.65c1.74-1.31,2.1-3.79,.79-5.53-1.31-1.75-3.78-2.1-5.53-.79Z"/><circle class="c" cx="124.89" cy="104.48" r="3.95"/></g></svg>