<?xml version="1.0" encoding="UTF-8"?><svg id="a" xmlns="http://www.w3.org/2000/svg" viewBox="0 0 222.35 161.89"><defs><style>.b{fill:#f2f1f1;}.c{fill:#dfa94a;}.d{fill:#629fce;}</style></defs><path class="b" d="M222,3.33c-1.22-.18-2.19-.64-3.05-1.27C217.69,1.14,216.12,0,213.17,0s-4.51,1.14-5.78,2.06c-.99,.72-1.74,1.26-3.17,1.36-1.63-.06-2.82-.6-3.86-1.36C199.11,1.14,197.54,0,194.59,0s-4.51,1.14-5.78,2.06c-.99,.72-1.74,1.26-3.17,1.36-1.63-.06-2.82-.6-3.86-1.36C180.53,1.14,178.96,0,176.01,0s-4.51,1.14-5.78,2.06c-.99,.72-1.74,1.26-3.17,1.36-1.63-.06-2.82-.6-3.86-1.36C161.95,1.14,160.38,0,157.43,0s-4.51,1.14-5.78,2.06c-.99,.72-1.74,1.26-3.17,1.36-1.63-.06-2.82-.6-3.86-1.36C143.37,1.14,141.8,0,138.85,0s-4.51,1.14-5.78,2.06c-.99,.72-1.74,1.26-3.17,1.36-1.63-.06-2.82-.6-3.86-1.36C124.79,1.14,123.22,0,120.27,0s-4.51,1.14-5.78,2.06c-.99,.72-1.74,1.26-3.17,1.36-1.63-.06-2.82-.6-3.86-1.36C106.2,1.14,104.64,0,101.69,0s-4.51,1.14-5.78,2.06c-.99,.72-1.74,1.26-3.17,1.36-1.63-.06-2.82-.6-3.86-1.36C87.62,1.14,86.06,0,83.11,0s-4.51,1.14-5.78,2.06c-.99,.72-1.74,1.26-3.17,1.36-1.63-.06-2.82-.6-3.86-1.36C69.04,1.14,67.47,0,64.53,0s-4.51,1.14-5.78,2.06c-.99,.72-1.74,1.26-3.17,1.36-1.63-.06-2.82-.6-3.86-1.36C50.46,1.14,48.89,0,45.95,0s-4.51,1.14-5.78,2.06c-.99,.72-1.74,1.26-3.17,1.36-1.63-.06-2.82-.6-3.86-1.36C31.88,1.14,30.31,0,27.37,0s-4.51,1.14-5.78,2.06c-.99,.72-1.74,1.26-3.17,1.36-1.63-.06-2.82-.6-3.86-1.36C13.3,1.14,11.73,0,8.79,0S4.27,1.14,3.01,2.06c-.95,.69-1.69,1.21-3.01,1.34V158.51c1.42,.13,2.51,.62,3.46,1.31,1.26,.92,2.83,2.06,5.77,2.06s4.52-1.14,5.78-2.06c.99-.72,1.74-1.26,3.17-1.36,1.63,.06,2.82,.6,3.86,1.36,1.26,.92,2.83,2.06,5.77,2.06s4.52-1.14,5.78-2.06c.99-.72,1.74-1.26,3.17-1.36,1.63,.06,2.82,.6,3.86,1.36,1.26,.92,2.83,2.06,5.77,2.06s4.52-1.14,5.78-2.06c.99-.72,1.74-1.26,3.17-1.36,1.63,.06,2.82,.6,3.86,1.36,1.26,.92,2.83,2.06,5.77,2.06s4.52-1.14,5.78-2.06c.99-.72,1.74-1.26,3.17-1.36,1.63,.06,2.82,.6,3.86,1.36,1.26,.92,2.83,2.06,5.77,2.06s4.52-1.14,5.78-2.06c.99-.72,1.74-1.26,3.17-1.36,1.63,.06,2.82,.6,3.86,1.36,1.26,.92,2.83,2.06,5.77,2.06s4.52-1.14,5.78-2.06c.99-.72,1.74-1.26,3.17-1.36,1.63,.06,2.82,.6,3.86,1.36,1.26,.92,2.83,2.06,5.77,2.06s4.52-1.14,5.78-2.06c.99-.72,1.74-1.26,3.17-1.36,1.63,.06,2.82,.6,3.86,1.36,1.26,.92,2.83,2.06,5.77,2.06s4.52-1.14,5.78-2.06c.99-.72,1.74-1.26,3.17-1.36,1.63,.06,2.82,.6,3.86,1.36,1.26,.92,2.83,2.06,5.77,2.06s4.52-1.14,5.78-2.06c.99-.72,1.74-1.26,3.17-1.36,1.63,.06,2.82,.6,3.86,1.36,1.26,.92,2.83,2.06,5.77,2.06s4.52-1.14,5.78-2.06c.99-.72,1.74-1.26,3.17-1.36,1.63,.06,2.82,.6,3.86,1.36,1.26,.92,2.83,2.06,5.77,2.06s4.52-1.14,5.78-2.06c.99-.72,1.74-1.26,3.17-1.36,1.63,.06,2.82,.6,3.86,1.36,1.26,.92,2.83,2.06,5.77,2.06s4.52-1.14,5.78-2.06c.85-.62,1.52-1.1,2.61-1.29V3.33Z"/><path class="d" d="M148.84,29.31c-2.04,0-3.69,1.65-3.69,3.69v97.5c0,2.04,1.65,3.69,3.69,3.69s3.69-1.65,3.69-3.69V33c0-2.04-1.65-3.69-3.69-3.69Z"/><path class="d" d="M205.56,42.38l-17.08-9.76c-1.11-.64-2.46-.7-3.63-.17l-20.73,9.35c-1.43,.65-2.36,2.07-2.36,3.65v24.19c0,1.32,.65,2.55,1.74,3.3l36.07,24.72v19.71l-13.21,7.24-16.6-7.81v-12.94l6.1-2.87,8.75,8.95c1.54,1.58,4.08,1.61,5.66,.06s1.61-4.08,.06-5.66l-10.73-10.98c-1.19-1.22-3.02-1.55-4.56-.82l-10.98,5.15c-1.4,.66-2.3,2.07-2.3,3.62v18.02c0,1.55,.9,2.96,2.3,3.62l20.73,9.76c.54,.25,1.12,.38,1.7,.38,.66,0,1.32-.17,1.92-.49l17.08-9.35c1.28-.7,2.08-2.05,2.08-3.51v-24.19c0-1.32-.65-2.55-1.74-3.3l-36.07-24.72v-19.5l16.52-7.45,13.29,7.59v13.16l-6.1,2.87-8.75-8.95c-1.54-1.58-4.08-1.61-5.66-.06-1.58,1.54-1.61,4.08-.06,5.66l10.73,10.98c1.19,1.22,3.02,1.55,4.56,.82l10.98-5.15c1.4-.66,2.3-2.07,2.3-3.62v-18.02c0-1.44-.77-2.76-2.02-3.47Z"/><path class="d" d="M.35,29.31c2.04,0,3.69,1.65,3.69,3.69v97.5c0,2.04-1.65,3.69-3.69,3.69V29.31Z"/><path class="d" d="M222.35,29.12c-2.04,0-3.69,1.65-3.69,3.69v97.5c0,2.04,1.65,3.69,3.69,3.69V29.12Z"/><g><rect class="c" x="5.7" y="12.2" width="6.67" height="10"/><rect class="c" x="24.28" y="12.2" width="6.67" height="10"/><rect class="c" x="42.86" y="12.2" width="6.67" height="10"/><rect class="c" x="61.45" y="12.2" width="6.67" height="10"/><rect class="c" x="80.03" y="12.2" width="6.67" height="10"/><rect class="c" x="98.61" y="12.2" width="6.67" height="10"/><rect class="c" x="117.19" y="12.2" width="6.67" height="10"/><rect class="c" x="135.77" y="12.2" width="6.67" height="10"/><rect class="c" x="154.35" y="12.2" width="6.67" height="10"/><rect class="c" x="172.93" y="12.2" width="6.67" height="10"/><rect class="c" x="191.51" y="12.2" width="6.67" height="10"/><rect class="c" x="210.09" y="12.2" width="6.67" height="10"/><path class="c" d="M222,8.33c-1.22-.18-2.19-.64-3.05-1.27-1.26-.92-2.83-2.06-5.78-2.06s-4.51,1.14-5.78,2.06c-.99,.72-1.74,1.26-3.17,1.36-1.63-.06-2.82-.6-3.86-1.36-1.26-.92-2.83-2.06-5.78-2.06s-4.51,1.14-5.78,2.06c-.99,.72-1.74,1.26-3.17,1.36-1.63-.06-2.82-.6-3.86-1.36-1.26-.92-2.83-2.06-5.78-2.06s-4.51,1.14-5.78,2.06c-.99,.72-1.74,1.26-3.17,1.36-1.63-.06-2.82-.6-3.86-1.36-1.26-.92-2.83-2.06-5.78-2.06s-4.51,1.14-5.78,2.06c-.99,.72-1.74,1.26-3.17,1.36-1.63-.06-2.82-.6-3.86-1.36-1.26-.92-2.83-2.06-5.78-2.06s-4.51,1.14-5.78,2.06c-.99,.72-1.74,1.26-3.17,1.36-1.63-.06-2.82-.6-3.86-1.36-1.26-.92-2.83-2.06-5.78-2.06s-4.51,1.14-5.78,2.06c-.99,.72-1.74,1.26-3.17,1.36-1.63-.06-2.82-.6-3.86-1.36-1.26-.92-2.83-2.06-5.78-2.06s-4.51,1.14-5.78,2.06c-.99,.72-1.74,1.26-3.17,1.36-1.63-.06-2.82-.6-3.86-1.36-1.26-.92-2.83-2.06-5.78-2.06s-4.51,1.14-5.78,2.06c-.99,.72-1.74,1.26-3.17,1.36-1.63-.06-2.82-.6-3.86-1.36-1.26-.92-2.83-2.06-5.78-2.06s-4.51,1.14-5.78,2.06c-.99,.72-1.74,1.26-3.17,1.36-1.63-.06-2.82-.6-3.86-1.36-1.26-.92-2.83-2.06-5.78-2.06s-4.51,1.14-5.78,2.06c-.99,.72-1.74,1.26-3.17,1.36-1.63-.06-2.82-.6-3.86-1.36-1.26-.92-2.83-2.06-5.78-2.06s-4.51,1.14-5.78,2.06c-.99,.72-1.74,1.26-3.17,1.36-1.63-.06-2.82-.6-3.86-1.36-1.26-.92-2.83-2.06-5.78-2.06s-4.51,1.14-5.78,2.06c-.95,.69-1.69,1.21-3.01,1.34v3.48s.07,0,.1,0v-.04c2.46-.18,3.87-1.19,5.02-2.03,1.1-.8,1.89-1.38,3.67-1.38s2.57,.58,3.67,1.38c1.15,.84,2.93,1.85,5.46,2.03v.04c.13,0,.25-.01,.38-.02,.13,0,.25,.02,.38,.02v-.04c2.46-.18,3.87-1.19,5.02-2.03,1.1-.8,1.89-1.38,3.67-1.38s2.57,.58,3.67,1.38c1.15,.84,2.93,1.85,5.46,2.03v.04c.13,0,.25-.01,.38-.02,.13,0,.25,.02,.38,.02v-.04c2.46-.18,3.87-1.19,5.02-2.03,1.1-.8,1.89-1.38,3.67-1.38s2.57,.58,3.67,1.38c1.15,.84,2.93,1.85,5.46,2.03v.04c.13,0,.25-.01,.38-.02,.13,0,.25,.02,.38,.02v-.04c2.46-.18,3.87-1.19,5.02-2.03,1.1-.8,1.89-1.38,3.67-1.38s2.57,.58,3.67,1.38c1.15,.84,2.93,1.85,5.46,2.03v.04c.13,0,.25-.01,.38-.02,.13,0,.25,.02,.38,.02v-.04c2.46-.18,3.87-1.19,5.02-2.03,1.1-.8,1.89-1.38,3.67-1.38s2.57,.58,3.67,1.38c1.15,.84,2.93,1.85,5.46,2.03v.04c.13,0,.25-.01,.38-.02,.13,0,.25,.02,.38,.02v-.04c2.46-.18,3.87-1.19,5.02-2.03,1.1-.8,1.89-1.38,3.67-1.38s2.57,.58,3.67,1.38c1.15,.84,2.93,1.85,5.46,2.03v.04c.13,0,.25-.01,.38-.02,.13,0,.25,.02,.38,.02v-.04c2.46-.18,3.87-1.19,5.02-2.03,1.1-.8,1.89-1.38,3.67-1.38s2.57,.58,3.67,1.38c1.15,.84,2.93,1.85,5.46,2.03v.04c.13,0,.25-.01,.38-.02,.13,0,.25,.02,.38,.02v-.04c2.46-.18,3.87-1.19,5.02-2.03,1.1-.8,1.89-1.38,3.67-1.38s2.57,.58,3.67,1.38c1.15,.84,2.93,1.85,5.46,2.03v.04c.13,0,.25-.01,.38-.02,.13,0,.25,.02,.38,.02v-.04c2.46-.18,3.87-1.19,5.02-2.03,1.1-.8,1.89-1.38,3.67-1.38s2.57,.58,3.67,1.38c1.15,.84,2.93,1.85,5.46,2.03v.04c.13,0,.25-.01,.38-.02,.13,0,.25,.02,.38,.02v-.04c2.46-.18,3.87-1.19,5.02-2.03,1.1-.8,1.89-1.38,3.67-1.38s2.57,.58,3.67,1.38c1.15,.84,2.93,1.85,5.46,2.03v.04c.13,0,.25-.01,.38-.02,.13,0,.25,.02,.38,.02v-.04c2.46-.18,3.87-1.19,5.02-2.03,1.1-.8,1.89-1.38,3.67-1.38s2.57,.58,3.67,1.38c1.15,.84,2.93,1.85,5.46,2.03v.04c.13,0,.25-.01,.38-.02,.13,0,.25,.02,.38,.02v-.04c2.46-.18,3.87-1.19,5.02-2.03,1.1-.8,1.89-1.38,3.67-1.38s2.57,.58,3.67,1.38c1.1,.8,2.79,1.76,5.16,1.99v-3.49Z"/><path class="c" d="M222,22.07c-2.26,.24-3.62,1.19-4.71,1.99-1.1,.8-1.89,1.38-3.67,1.38s-2.57-.58-3.67-1.38c-1.15-.84-2.93-1.85-5.46-2.03v-.04c-.13,0-.25,.01-.38,.02-.13,0-.25-.02-.38-.02v.04c-2.46,.18-3.87,1.19-5.02,2.03-1.1,.8-1.89,1.38-3.67,1.38s-2.57-.58-3.67-1.38c-1.15-.84-2.93-1.85-5.46-2.03v-.04c-.13,0-.25,.01-.38,.02-.13,0-.25-.02-.38-.02v.04c-2.46,.18-3.87,1.19-5.02,2.03-1.1,.8-1.89,1.38-3.67,1.38s-2.57-.58-3.67-1.38c-1.15-.84-2.93-1.85-5.46-2.03v-.04c-.13,0-.25,.01-.38,.02-.13,0-.25-.02-.38-.02v.04c-2.46,.18-3.87,1.19-5.02,2.03-1.1,.8-1.89,1.38-3.67,1.38s-2.57-.58-3.67-1.38c-1.15-.84-2.93-1.85-5.46-2.03v-.04c-.13,0-.25,.01-.38,.02-.13,0-.25-.02-.38-.02v.04c-2.46,.18-3.87,1.19-5.02,2.03-1.1,.8-1.89,1.38-3.67,1.38s-2.57-.58-3.67-1.38c-1.15-.84-2.93-1.85-5.46-2.03v-.04c-.13,0-.25,.01-.38,.02-.13,0-.25-.02-.38-.02v.04c-2.46,.18-3.87,1.19-5.02,2.03-1.1,.8-1.89,1.38-3.67,1.38s-2.57-.58-3.67-1.38c-1.15-.84-2.93-1.85-5.46-2.03v-.04c-.13,0-.25,.01-.38,.02-.13,0-.25-.02-.38-.02v.04c-2.46,.18-3.87,1.19-5.02,2.03-1.1,.8-1.89,1.38-3.67,1.38s-2.57-.58-3.67-1.38c-1.15-.84-2.93-1.85-5.46-2.03v-.04c-.13,0-.25,.01-.38,.02-.13,0-.25-.02-.38-.02v.04c-2.46,.18-3.87,1.19-5.02,2.03-1.1,.8-1.89,1.38-3.67,1.38s-2.57-.58-3.67-1.38c-1.15-.84-2.93-1.85-5.46-2.03v-.04c-.13,0-.25,.01-.38,.02-.13,0-.25-.02-.38-.02v.04c-2.46,.18-3.87,1.19-5.02,2.03-1.1,.8-1.89,1.38-3.67,1.38s-2.57-.58-3.67-1.38c-1.15-.84-2.93-1.85-5.46-2.03v-.04c-.13,0-.25,.01-.38,.02-.13,0-.25-.02-.38-.02v.04c-2.46,.18-3.87,1.19-5.02,2.03-1.1,.8-1.89,1.38-3.67,1.38s-2.57-.58-3.67-1.38c-1.15-.84-2.93-1.85-5.46-2.03v-.04c-.13,0-.25,.01-.38,.02-.13,0-.25-.02-.38-.02v.04c-2.46,.18-3.87,1.19-5.02,2.03-1.1,.8-1.89,1.38-3.67,1.38s-2.57-.58-3.67-1.38c-1.15-.84-2.93-1.85-5.46-2.03v-.04c-.13,0-.25,.01-.38,.02-.13,0-.25-.02-.38-.02v.04c-2.46,.18-3.87,1.19-5.02,2.03-1.1,.8-1.89,1.38-3.67,1.38s-2.57-.58-3.67-1.38c-1.15-.84-2.93-1.85-5.46-2.03v-.04s-.07,0-.1,0v3.51c1.42,.13,2.51,.62,3.46,1.31,1.26,.92,2.83,2.06,5.77,2.06s4.52-1.14,5.78-2.06c.99-.72,1.74-1.26,3.17-1.36,1.63,.06,2.82,.6,3.86,1.36,1.26,.92,2.83,2.06,5.77,2.06s4.52-1.14,5.78-2.06c.99-.72,1.74-1.26,3.17-1.36,1.63,.06,2.82,.6,3.86,1.36,1.26,.92,2.83,2.06,5.77,2.06s4.52-1.14,5.78-2.06c.99-.72,1.74-1.26,3.17-1.36,1.63,.06,2.82,.6,3.86,1.36,1.26,.92,2.83,2.06,5.77,2.06s4.52-1.14,5.78-2.06c.99-.72,1.74-1.26,3.17-1.36,1.63,.06,2.82,.6,3.86,1.36,1.26,.92,2.83,2.06,5.77,2.06s4.52-1.14,5.78-2.06c.99-.72,1.74-1.26,3.17-1.36,1.63,.06,2.82,.6,3.86,1.36,1.26,.92,2.83,2.06,5.77,2.06s4.52-1.14,5.78-2.06c.99-.72,1.74-1.26,3.17-1.36,1.63,.06,2.82,.6,3.86,1.36,1.26,.92,2.83,2.06,5.77,2.06s4.52-1.14,5.78-2.06c.99-.72,1.74-1.26,3.17-1.36,1.63,.06,2.82,.6,3.86,1.36,1.26,.92,2.83,2.06,5.77,2.06s4.52-1.14,5.78-2.06c.99-.72,1.74-1.26,3.17-1.36,1.63,.06,2.82,.6,3.86,1.36,1.26,.92,2.83,2.06,5.77,2.06s4.52-1.14,5.78-2.06c.99-.72,1.74-1.26,3.17-1.36,1.63,.06,2.82,.6,3.86,1.36,1.26,.92,2.83,2.06,5.77,2.06s4.52-1.14,5.78-2.06c.99-.72,1.74-1.26,3.17-1.36,1.63,.06,2.82,.6,3.86,1.36,1.26,.92,2.83,2.06,5.77,2.06s4.52-1.14,5.78-2.06c.99-.72,1.74-1.26,3.17-1.36,1.63,.06,2.82,.6,3.86,1.36,1.26,.92,2.83,2.06,5.77,2.06s4.52-1.14,5.78-2.06c.85-.62,1.52-1.1,2.61-1.29v-3.46Z"/></g><g><rect class="c" x="5.7" y="141.2" width="6.67" height="10"/><rect class="c" x="24.28" y="141.2" width="6.67" height="10"/><rect class="c" x="42.86" y="141.2" width="6.67" height="10"/><rect class="c" x="61.45" y="141.2" width="6.67" height="10"/><rect class="c" x="80.03" y="141.2" width="6.67" height="10"/><rect class="c" x="98.61" y="141.2" width="6.67" height="10"/><rect class="c" x="117.19" y="141.2" width="6.67" height="10"/><rect class="c" x="135.77" y="141.2" width="6.67" height="10"/><rect class="c" x="154.35" y="141.2" width="6.67" height="10"/><rect class="c" x="172.93" y="141.2" width="6.67" height="10"/><rect class="c" x="191.51" y="141.2" width="6.67" height="10"/><rect class="c" x="210.09" y="141.2" width="6.67" height="10"/><path class="c" d="M222,137.33c-1.22-.18-2.19-.64-3.05-1.27-1.26-.92-2.83-2.06-5.78-2.06s-4.51,1.14-5.78,2.06c-.99,.72-1.74,1.26-3.17,1.36-1.63-.06-2.82-.6-3.86-1.36-1.26-.92-2.83-2.06-5.78-2.06s-4.51,1.14-5.78,2.06c-.99,.72-1.74,1.26-3.17,1.36-1.63-.06-2.82-.6-3.86-1.36-1.26-.92-2.83-2.06-5.78-2.06s-4.51,1.14-5.78,2.06c-.99,.72-1.74,1.26-3.17,1.36-1.63-.06-2.82-.6-3.86-1.36-1.26-.92-2.83-2.06-5.78-2.06s-4.51,1.14-5.78,2.06c-.99,.72-1.74,1.26-3.17,1.36-1.63-.06-2.82-.6-3.86-1.36-1.26-.92-2.83-2.06-5.78-2.06s-4.51,1.14-5.78,2.06c-.99,.72-1.74,1.26-3.17,1.36-1.63-.06-2.82-.6-3.86-1.36-1.26-.92-2.83-2.06-5.78-2.06s-4.51,1.14-5.78,2.06c-.99,.72-1.74,1.26-3.17,1.36-1.63-.06-2.82-.6-3.86-1.36-1.26-.92-2.83-2.06-5.78-2.06s-4.51,1.14-5.78,2.06c-.99,.72-1.74,1.26-3.17,1.36-1.63-.06-2.82-.6-3.86-1.36-1.26-.92-2.83-2.06-5.78-2.06s-4.51,1.14-5.78,2.06c-.99,.72-1.74,1.26-3.17,1.36-1.63-.06-2.82-.6-3.86-1.36-1.26-.92-2.83-2.06-5.78-2.06s-4.51,1.14-5.78,2.06c-.99,.72-1.74,1.26-3.17,1.36-1.63-.06-2.82-.6-3.86-1.36-1.26-.92-2.83-2.06-5.78-2.06s-4.51,1.14-5.78,2.06c-.99,.72-1.74,1.26-3.17,1.36-1.63-.06-2.82-.6-3.86-1.36-1.26-.92-2.83-2.06-5.78-2.06s-4.51,1.14-5.78,2.06c-.99,.72-1.74,1.26-3.17,1.36-1.63-.06-2.82-.6-3.86-1.36-1.26-.92-2.83-2.06-5.78-2.06s-4.51,1.14-5.78,2.06c-.95,.69-1.69,1.21-3.01,1.34v3.48s.07,0,.1,0v-.04c2.46-.18,3.87-1.19,5.02-2.03,1.1-.8,1.89-1.38,3.67-1.38s2.57,.58,3.67,1.38c1.15,.84,2.93,1.85,5.46,2.03v.04c.13,0,.25-.01,.38-.02,.13,0,.25,.02,.38,.02v-.04c2.46-.18,3.87-1.19,5.02-2.03,1.1-.8,1.89-1.38,3.67-1.38s2.57,.58,3.67,1.38c1.15,.84,2.93,1.85,5.46,2.03v.04c.13,0,.25-.01,.38-.02,.13,0,.25,.02,.38,.02v-.04c2.46-.18,3.87-1.19,5.02-2.03,1.1-.8,1.89-1.38,3.67-1.38s2.57,.58,3.67,1.38c1.15,.84,2.93,1.85,5.46,2.03v.04c.13,0,.25-.01,.38-.02,.13,0,.25,.02,.38,.02v-.04c2.46-.18,3.87-1.19,5.02-2.03,1.1-.8,1.89-1.38,3.67-1.38s2.57,.58,3.67,1.38c1.15,.84,2.93,1.85,5.46,2.03v.04c.13,0,.25-.01,.38-.02,.13,0,.25,.02,.38,.02v-.04c2.46-.18,3.87-1.19,5.02-2.03,1.1-.8,1.89-1.38,3.67-1.38s2.57,.58,3.67,1.38c1.15,.84,2.93,1.85,5.46,2.03v.04c.13,0,.25-.01,.38-.02,.13,0,.25,.02,.38,.02v-.04c2.46-.18,3.87-1.19,5.02-2.03,1.1-.8,1.89-1.38,3.67-1.38s2.57,.58,3.67,1.38c1.15,.84,2.93,1.85,5.46,2.03v.04c.13,0,.25-.01,.38-.02,.13,0,.25,.02,.38,.02v-.04c2.46-.18,3.87-1.19,5.02-2.03,1.1-.8,1.89-1.38,3.67-1.38s2.57,.58,3.67,1.38c1.15,.84,2.93,1.85,5.46,2.03v.04c.13,0,.25-.01,.38-.02,.13,0,.25,.02,.38,.02v-.04c2.46-.18,3.87-1.19,5.02-2.03,1.1-.8,1.89-1.38,3.67-1.38s2.57,.58,3.67,1.38c1.15,.84,2.93,1.85,5.46,2.03v.04c.13,0,.25-.01,.38-.02,.13,0,.25,.02,.38,.02v-.04c2.46-.18,3.87-1.19,5.02-2.03,1.1-.8,1.89-1.38,3.67-1.38s2.57,.58,3.67,1.38c1.15,.84,2.93,1.85,5.46,2.03v.04c.13,0,.25-.01,.38-.02,.13,0,.25,.02,.38,.02v-.04c2.46-.18,3.87-1.19,5.02-2.03,1.1-.8,1.89-1.38,3.67-1.38s2.57,.58,3.67,1.38c1.15,.84,2.93,1.85,5.46,2.03v.04c.13,0,.25-.01,.38-.02,.13,0,.25,.02,.38,.02v-.04c2.46-.18,3.87-1.19,5.02-2.03,1.1-.8,1.89-1.38,3.67-1.38s2.57,.58,3.67,1.38c1.15,.84,2.93,1.85,5.46,2.03v.04c.13,0,.25-.01,.38-.02,.13,0,.25,.02,.38,.02v-.04c2.46-.18,3.87-1.19,5.02-2.03,1.1-.8,1.89-1.38,3.67-1.38s2.57,.58,3.67,1.38c1.1,.8,2.79,1.76,5.16,1.99v-3.49Z"/><path class="c" d="M222,151.07c-2.26,.24-3.62,1.19-4.71,1.99-1.1,.8-1.89,1.38-3.67,1.38s-2.57-.58-3.67-1.38c-1.15-.84-2.93-1.85-5.46-2.03v-.04c-.13,0-.25,.01-.38,.02-.13,0-.25-.02-.38-.02v.04c-2.46,.18-3.87,1.19-5.02,2.03-1.1,.8-1.89,1.38-3.67,1.38s-2.57-.58-3.67-1.38c-1.15-.84-2.93-1.85-5.46-2.03v-.04c-.13,0-.25,.01-.38,.02-.13,0-.25-.02-.38-.02v.04c-2.46,.18-3.87,1.19-5.02,2.03-1.1,.8-1.89,1.38-3.67,1.38s-2.57-.58-3.67-1.38c-1.15-.84-2.93-1.85-5.46-2.03v-.04c-.13,0-.25,.01-.38,.02-.13,0-.25-.02-.38-.02v.04c-2.46,.18-3.87,1.19-5.02,2.03-1.1,.8-1.89,1.38-3.67,1.38s-2.57-.58-3.67-1.38c-1.15-.84-2.93-1.85-5.46-2.03v-.04c-.13,0-.25,.01-.38,.02-.13,0-.25-.02-.38-.02v.04c-2.46,.18-3.87,1.19-5.02,2.03-1.1,.8-1.89,1.38-3.67,1.38s-2.57-.58-3.67-1.38c-1.15-.84-2.93-1.85-5.46-2.03v-.04c-.13,0-.25,.01-.38,.02-.13,0-.25-.02-.38-.02v.04c-2.46,.18-3.87,1.19-5.02,2.03-1.1,.8-1.89,1.38-3.67,1.38s-2.57-.58-3.67-1.38c-1.15-.84-2.93-1.85-5.46-2.03v-.04c-.13,0-.25,.01-.38,.02-.13,0-.25-.02-.38-.02v.04c-2.46,.18-3.87,1.19-5.02,2.03-1.1,.8-1.89,1.38-3.67,1.38s-2.57-.58-3.67-1.38c-1.15-.84-2.93-1.85-5.46-2.03v-.04c-.13,0-.25,.01-.38,.02-.13,0-.25-.02-.38-.02v.04c-2.46,.18-3.87,1.19-5.02,2.03-1.1,.8-1.89,1.38-3.67,1.38s-2.57-.58-3.67-1.38c-1.15-.84-2.93-1.85-5.46-2.03v-.04c-.13,0-.25,.01-.38,.02-.13,0-.25-.02-.38-.02v.04c-2.46,.18-3.87,1.19-5.02,2.03-1.1,.8-1.89,1.38-3.67,1.38s-2.57-.58-3.67-1.38c-1.15-.84-2.93-1.85-5.46-2.03v-.04c-.13,0-.25,.01-.38,.02-.13,0-.25-.02-.38-.02v.04c-2.46,.18-3.87,1.19-5.02,2.03-1.1,.8-1.89,1.38-3.67,1.38s-2.57-.58-3.67-1.38c-1.15-.84-2.93-1.85-5.46-2.03v-.04c-.13,0-.25,.01-.38,.02-.13,0-.25-.02-.38-.02v.04c-2.46,.18-3.87,1.19-5.02,2.03-1.1,.8-1.89,1.38-3.67,1.38s-2.57-.58-3.67-1.38c-1.15-.84-2.93-1.85-5.46-2.03v-.04c-.13,0-.25,.01-.38,.02-.13,0-.25-.02-.38-.02v.04c-2.46,.18-3.87,1.19-5.02,2.03-1.1,.8-1.89,1.38-3.67,1.38s-2.57-.58-3.67-1.38c-1.15-.84-2.93-1.85-5.46-2.03v-.04s-.07,0-.1,0v3.51c1.42,.13,2.51,.62,3.46,1.31,1.26,.92,2.83,2.06,5.77,2.06s4.52-1.14,5.78-2.06c.99-.72,1.74-1.26,3.17-1.36,1.63,.06,2.82,.6,3.86,1.36,1.26,.92,2.83,2.06,5.77,2.06s4.52-1.14,5.78-2.06c.99-.72,1.74-1.26,3.17-1.36,1.63,.06,2.82,.6,3.86,1.36,1.26,.92,2.83,2.06,5.77,2.06s4.52-1.14,5.78-2.06c.99-.72,1.74-1.26,3.17-1.36,1.63,.06,2.82,.6,3.86,1.36,1.26,.92,2.83,2.06,5.77,2.06s4.52-1.14,5.78-2.06c.99-.72,1.74-1.26,3.17-1.36,1.63,.06,2.82,.6,3.86,1.36,1.26,.92,2.83,2.06,5.77,2.06s4.52-1.14,5.78-2.06c.99-.72,1.74-1.26,3.17-1.36,1.63,.06,2.82,.6,3.86,1.36,1.26,.92,2.83,2.06,5.77,2.06s4.52-1.14,5.78-2.06c.99-.72,1.74-1.26,3.17-1.36,1.63,.06,2.82,.6,3.86,1.36,1.26,.92,2.83,2.06,5.77,2.06s4.52-1.14,5.78-2.06c.99-.72,1.74-1.26,3.17-1.36,1.63,.06,2.82,.6,3.86,1.36,1.26,.92,2.83,2.06,5.77,2.06s4.52-1.14,5.78-2.06c.99-.72,1.74-1.26,3.17-1.36,1.63,.06,2.82,.6,3.86,1.36,1.26,.92,2.83,2.06,5.77,2.06s4.52-1.14,5.78-2.06c.99-.72,1.74-1.26,3.17-1.36,1.63,.06,2.82,.6,3.86,1.36,1.26,.92,2.83,2.06,5.77,2.06s4.52-1.14,5.78-2.06c.99-.72,1.74-1.26,3.17-1.36,1.63,.06,2.82,.6,3.86,1.36,1.26,.92,2.83,2.06,5.77,2.06s4.52-1.14,5.78-2.06c.99-.72,1.74-1.26,3.17-1.36,1.63,.06,2.82,.6,3.86,1.36,1.26,.92,2.83,2.06,5.77,2.06s4.52-1.14,5.78-2.06c.85-.62,1.52-1.1,2.61-1.29v-3.46Z"/></g><g><path class="d" d="M111.02,81.78c0-.88-.38-1.71-1.05-2.28l-32.93-28.14c-1.1-.94-2.71-.96-3.84-.05l-34.71,28.14c-.7,.57-1.11,1.43-1.11,2.33s.41,1.76,1.11,2.33l34.71,28.14c.55,.45,1.22,.67,1.89,.67s1.39-.24,1.95-.72l32.93-28.14c.67-.57,1.05-1.4,1.05-2.28Zm-35.98,24.23l-29.89-24.23,29.89-24.23,28.36,24.23-28.36,24.23Z"/><path class="d" d="M29.09,81.75l38.82-31.64c.66-.54,1.06-1.33,1.1-2.17s-.27-1.67-.88-2.27l-10-10c-1.09-1.09-2.82-1.18-4.02-.2l-24.79,20.2-5.03-5.59,11.67-10c1.26-1.08,1.4-2.97,.33-4.23-1.08-1.26-2.97-1.4-4.23-.33l-14,12c-.61,.53-.99,1.28-1.04,2.08-.05,.81,.22,1.6,.76,2.2l9,10c1.07,1.19,2.89,1.33,4.12,.32l24.9-20.29,5.74,5.74-39.06,31.83c-.67,.54-1.03,1.31-1.09,2.11,0,.08,0,.17,0,.25,0,.08,0,.17,0,.25,.06,.79,.42,1.56,1.09,2.11l39.06,31.83-5.74,5.74-24.9-20.29c-1.24-1.01-3.05-.87-4.12,.32l-9,10c-.54,.6-.82,1.39-.76,2.2,.05,.81,.43,1.56,1.04,2.08l14,12c.57,.49,1.26,.72,1.95,.72,.84,0,1.69-.36,2.28-1.05,1.08-1.26,.93-3.15-.33-4.23l-11.67-10,5.03-5.59,24.79,20.2c1.19,.97,2.93,.88,4.02-.21l10-10c.6-.6,.92-1.43,.88-2.27s-.44-1.64-1.1-2.17l-38.82-31.64Z"/><path class="d" d="M124.25,101.71c-1.07-1.19-2.89-1.33-4.12-.32l-24.9,20.29-5.74-5.74,39.06-31.83c.67-.54,1.03-1.31,1.09-2.11,0-.08,0-.17,0-.25,0-.08,0-.17,0-.25-.06-.79-.42-1.56-1.09-2.11l-39.06-31.83,5.74-5.74,24.9,20.29c1.24,1.01,3.06,.87,4.12-.32l9-10c.54-.6,.82-1.39,.76-2.2-.05-.81-.43-1.56-1.04-2.08l-14-12c-1.26-1.08-3.15-.93-4.23,.33-1.08,1.26-.93,3.15,.33,4.23l11.67,10-5.03,5.59-24.79-20.2c-1.19-.97-2.93-.88-4.02,.2l-10,10c-.6,.6-.92,1.43-.88,2.27,.04,.85,.44,1.64,1.1,2.17l38.82,31.64-38.82,31.64c-.66,.54-1.06,1.33-1.1,2.17s.27,1.67,.88,2.27l10,10c1.09,1.09,2.82,1.18,4.02,.21l24.79-20.2,5.03,5.59-11.67,10c-1.26,1.08-1.4,2.97-.33,4.23,.59,.69,1.43,1.05,2.28,1.05,.69,0,1.39-.24,1.95-.72l14-12c.61-.53,.99-1.28,1.04-2.08,.05-.81-.22-1.6-.76-2.2l-9-10Z"/><path class="d" d="M72.78,64.62l-18.3,14.83c-.7,.57-1.11,1.43-1.11,2.33s.41,1.76,1.11,2.33l18.3,14.83c.55,.45,1.22,.67,1.89,.67s1.39-.24,1.95-.72l17.36-14.83c.67-.57,1.05-1.4,1.05-2.28s-.38-1.71-1.05-2.28l-17.36-14.83c-1.1-.94-2.71-.96-3.84-.05Zm14.63,17.16l-12.79,10.93-13.48-10.93,13.48-10.93,12.79,10.93Z"/><circle class="d" cx="74.02" cy="81.72" r="4"/></g></svg>