<svg xmlns="http://www.w3.org/2000/svg" viewBox="0 0 22.08 29.05"><defs><style>.cls-1{fill:#fff;}</style></defs><title>Recurso 2</title><g id="Capa_2" data-name="Capa 2"><g id="Layer_74" data-name="Layer 74"><path class="cls-1" d="M15.69,14.81h0a.45.45,0,0,0-.58,0l-2.76,2.33c-.15.14-.29,0-.29-.15l.58-5.37A1.42,1.42,0,0,0,11.18,10a1.61,1.61,0,0,0-1.59,1.6l.58,5.52c0,.14-.15.29-.29.14L7.12,15a.43.43,0,0,0-.58,0h0a.64.64,0,0,0,0,.73l4.06,3.92a.56.56,0,0,0,.44.14.53.53,0,0,0,.43-.14l4.07-3.92C15.83,15.25,15.83,15,15.69,14.81Z"/><path class="cls-1" d="M7,23c-.43,0-.58-.29-.58-.73h0A.62.62,0,0,1,7,21.64h8.14a.92.92,0,0,1,.72,1.45h0a1.06,1.06,0,0,1-.72.29Z"/><path class="cls-1" d="M17.28.73A2.33,2.33,0,0,0,16,.29L1.16,0h0C.73,0,.29.58.29,1.16L0,27.31a2,2,0,0,0,.44,1.3c.29.29.43.44.72.44H21.21a1.16,1.16,0,0,0,.72-1.16l.15-22.23a2.33,2.33,0,0,0-.87-1.88ZM2.61,26.58l-.43-25H15V5.37a2,2,0,0,0,.44,1.31c.29.29.43.44.72.44h4.07l.29,19.46ZM20,4.94H16.7V1.6Z"/></g></g></svg>