<?xml version="1.0" encoding="utf-8"?>
<!-- Generator: Adobe Illustrator 25.1.0, SVG Export Plug-In . SVG Version: 6.00 Build 0)  -->
<svg version="1.1" id="Capa_1" xmlns="http://www.w3.org/2000/svg" xmlns:xlink="http://www.w3.org/1999/xlink" x="0px" y="0px"
	 viewBox="0 0 285.6 106.4" style="enable-background:new 0 0 285.6 106.4;" xml:space="preserve">
<style type="text/css">
	.st0{fill:#E2DCCC;}
	.st1{fill:none;stroke:#E2DCCC;stroke-width:1.03;stroke-linecap:round;stroke-miterlimit:10;}
	.st2{fill:#FFFFFF;}
	.st3{opacity:0.5;fill:none;stroke:url(#SVGID_1_);stroke-linecap:round;stroke-miterlimit:10;enable-background:new    ;}
</style>
<g id="Capa_2_1_">
	<g id="Overlay">
		<path class="st0" d="M3.4,93.4V84h2.7c2.2,0,3.4,1,3.4,3c0,1.7-1.2,3-3.4,3H4.6v3.5L3.4,93.4z M6.2,89c1,0.2,2-0.6,2.2-1.6
			c0-0.1,0-0.3,0-0.4c0-1.1-0.6-2-2.2-2H4.6v4H6.2z"/>
		<path class="st0" d="M16.4,92.9c-0.7,0.5-1.5,0.7-2.4,0.7c-2.1,0-3.4-1.4-3.4-3.7s1.3-3.9,3.2-3.9s2.7,1.4,2.7,2.9
			c0,0.4,0,0.8-0.1,1.2h-4.6c-0.1,1.3,0.9,2.3,2.1,2.4c0.1,0,0.2,0,0.2,0c0.6,0,1.2-0.1,1.8-0.4L16.4,92.9z M15.4,89.3
			c0-0.1,0-0.3,0-0.5c0-1.1-0.5-1.8-1.6-1.8s-1.9,1.2-1.9,2.3H15.4z"/>
		<path class="st0" d="M18.4,93.4v-7.3h0.7l0.3,1c0.5-0.7,1.3-1.2,2.2-1.2c0.2,0,0.4,0,0.6,0.1l-0.2,1.1c-0.2-0.1-0.4-0.1-0.6-0.1
			c-0.8,0-1.5,0.4-1.9,1v5.4L18.4,93.4z"/>
		<path class="st0" d="M24.3,84.7c-0.4,0-0.8-0.3-0.8-0.8c0-0.4,0.3-0.8,0.8-0.8c0.4,0,0.7,0.3,0.8,0.7c0,0,0,0.1,0,0.1
			C25,84.3,24.7,84.7,24.3,84.7C24.3,84.7,24.3,84.7,24.3,84.7z M25.8,93.3c-0.3,0.1-0.6,0.2-0.9,0.2c-1,0-1.2-0.7-1.2-1.5v-5.9h1.2
			V92c0,0.3,0.1,0.6,0.5,0.6c0.1,0,0.2,0,0.3,0L25.8,93.3z"/>
		<path class="st0" d="M30.2,86c2.3,0,3.3,1.7,3.3,3.8c0.2,1.9-1.3,3.6-3.2,3.8c-0.1,0-0.2,0-0.2,0c-2.3,0-3.3-1.7-3.3-3.8
			c-0.2-1.9,1.3-3.6,3.2-3.8C30.1,86,30.2,86,30.2,86z M30.2,92.5c1.5,0,2.2-1.2,2.2-2.8S31.7,87,30.2,87S28,88.3,28,89.8
			S28.7,92.5,30.2,92.5L30.2,92.5z"/>
		<path class="st0" d="M40.3,93.4L40,92.8c-0.5,0.5-1.3,0.8-2,0.8c-1.8,0-3.1-1.5-3.1-3.6c0-2.3,1.4-4,3.5-4c0.6,0,1.1,0.1,1.6,0.4
			v-3.8h1.2v10.8H40.3z M39.9,87.4c-0.5-0.3-1-0.4-1.5-0.4c-1.5,0-2.3,1-2.3,2.8s0.9,2.7,2.1,2.7c0.6,0,1.3-0.3,1.7-0.7L39.9,87.4z"
			/>
		<path class="st0" d="M46.4,86c2.3,0,3.3,1.7,3.3,3.8c0.2,1.9-1.3,3.6-3.2,3.8c-0.1,0-0.2,0-0.2,0c-2.3,0-3.3-1.7-3.3-3.8
			c-0.2-1.9,1.3-3.6,3.2-3.8C46.2,86,46.3,86,46.4,86z M46.3,92.5c1.5,0,2.2-1.2,2.2-2.8S47.8,87,46.3,87s-2.2,1.2-2.2,2.8
			S44.8,92.5,46.3,92.5L46.3,92.5z"/>
		<path class="st0" d="M51.5,92.1c0.6,0.3,1.2,0.4,1.9,0.4c1.1,0,1.6-0.5,1.6-1.1c0-1.8-3.6-0.8-3.6-3.3c0-1.3,1-2.1,2.6-2.1
			c0.7,0,1.4,0.1,2,0.4l-0.3,0.9C55,87.1,54.4,87,53.9,87c-1,0-1.5,0.5-1.5,1c0,1.6,3.6,0.8,3.6,3.3c0,1.2-0.9,2.3-2.8,2.3
			c-0.8,0-1.5-0.2-2.2-0.5L51.5,92.1z"/>
		<path class="st0" d="M1.2,99.7c0.6-0.5,1.4-0.8,2.2-0.8c1.8,0,2.3,1.1,2.3,2.4v5H4.5v-5c0-1.2-0.6-1.4-1.4-1.4
			c-0.7,0-1.4,0.3-1.9,0.7v5.7H0V95.4h1.2V99.7z"/>
		<path class="st0" d="M8.7,97.5c-0.4,0-0.8-0.4-0.7-0.8c0-0.4,0.4-0.8,0.8-0.7c0.4,0,0.8,0.4,0.7,0.8c0,0,0,0,0,0
			C9.4,97.2,9.1,97.5,8.7,97.5C8.7,97.5,8.7,97.5,8.7,97.5z M10.1,106.2c-0.3,0.2-0.6,0.2-0.9,0.2c-1,0-1.2-0.7-1.2-1.5v-6h1.2v5.8
			c0,0.3,0.1,0.6,0.5,0.6c0.1,0,0.2,0,0.3,0L10.1,106.2z"/>
		<path class="st0" d="M11.7,105c0.6,0.3,1.2,0.4,1.9,0.4c1.1,0,1.6-0.5,1.6-1.1c0-1.8-3.6-0.8-3.6-3.3c0-1.3,1-2.1,2.6-2.1
			c0.7,0,1.4,0.1,2,0.4l-0.3,0.9c-0.5-0.2-1.1-0.3-1.6-0.3c-1,0-1.5,0.5-1.5,1c0,1.6,3.6,0.8,3.6,3.3c0,1.2-0.9,2.3-2.8,2.3
			c-0.8,0-1.5-0.2-2.2-0.5L11.7,105z"/>
		<path class="st0" d="M21.8,106.1c-0.4,0.2-0.9,0.4-1.4,0.3c-1.3,0-2-0.8-2-2.3v-4.2h-1.3V99h1.3v-1.5l1.2-0.3V99h2.2v0.8h-2.2v4.3
			c0,0.9,0.4,1.3,1.1,1.3c0.3,0,0.7-0.1,1-0.2L21.8,106.1z"/>
		<path class="st0" d="M26.2,98.9c2.3,0,3.3,1.7,3.3,3.8c0.2,1.9-1.3,3.6-3.2,3.8c-0.1,0-0.2,0-0.2,0c-2.3,0-3.3-1.7-3.3-3.8
			c-0.2-1.9,1.3-3.6,3.2-3.8C26.1,98.9,26.2,98.9,26.2,98.9z M26.2,105.4c1.5,0,2.2-1.2,2.2-2.8s-0.7-2.8-2.2-2.8s-2.2,1.2-2.2,2.8
			S24.7,105.4,26.2,105.4z M25,97.7l1.3-2.1h1.3L26,97.7H25z"/>
		<path class="st0" d="M31.4,106.3V99h0.7l0.3,1c0.5-0.7,1.3-1.1,2.2-1.1c0.2,0,0.4,0,0.7,0.1l-0.2,1.1c-0.2-0.1-0.4-0.1-0.6-0.1
			c-0.8,0-1.5,0.4-1.9,1v5.4L31.4,106.3z"/>
		<path class="st0" d="M37.3,97.5c-0.4,0-0.7-0.3-0.7-0.7c0,0,0,0,0-0.1c0-0.4,0.3-0.7,0.7-0.7c0,0,0,0,0,0c0.4,0,0.7,0.3,0.8,0.7
			c0,0,0,0.1,0,0.1C38,97.2,37.7,97.5,37.3,97.5C37.3,97.5,37.3,97.5,37.3,97.5z M38.8,106.2c-0.3,0.2-0.6,0.2-0.9,0.2
			c-1,0-1.2-0.7-1.2-1.5v-6h1.2v5.8c0,0.3,0.1,0.6,0.5,0.6c0.1,0,0.2,0,0.3,0L38.8,106.2z"/>
		<path class="st0" d="M45.3,105.9c-0.6,0.4-1.4,0.5-2.1,0.5c-1.8,0-3.4-1.5-3.4-3.3c0-0.1,0-0.2,0-0.4c-0.2-2,1.3-3.7,3.2-3.9
			c0.2,0,0.3,0,0.5,0c0.6,0,1.3,0.1,1.8,0.4l-0.3,0.9c-0.5-0.2-1-0.3-1.5-0.3c-1.5,0-2.5,0.9-2.5,2.8c-0.2,1.3,0.8,2.5,2.1,2.6
			c0.1,0,0.2,0,0.3,0c0.6,0,1.1-0.1,1.6-0.4L45.3,105.9z"/>
		<path class="st0" d="M49.7,98.9c2.3,0,3.3,1.7,3.3,3.8c0.2,1.9-1.3,3.6-3.2,3.8c-0.1,0-0.2,0-0.2,0c-2.3,0-3.3-1.7-3.3-3.8
			c-0.2-1.9,1.3-3.6,3.2-3.8C49.5,98.9,49.6,98.9,49.7,98.9z M49.6,105.4c1.5,0,2.2-1.2,2.2-2.8s-0.7-2.8-2.2-2.8s-2.2,1.2-2.2,2.8
			S48.1,105.4,49.6,105.4z"/>
		<path class="st0" d="M54.7,105c0.6,0.3,1.2,0.4,1.9,0.4c1.1,0,1.6-0.5,1.6-1.1c0-1.8-3.6-0.8-3.6-3.3c0-1.3,1-2.1,2.6-2.1
			c0.7,0,1.4,0.1,2,0.4l-0.3,0.9c-0.5-0.2-1.1-0.3-1.6-0.3c-1,0-1.5,0.5-1.5,1c0,1.6,3.6,0.8,3.6,3.3c0,1.2-0.9,2.3-2.8,2.3
			c-0.8,0-1.5-0.2-2.2-0.5L54.7,105z"/>
		<path class="st0" d="M231.4,89.7v-3.9h-4.1v3.9h-1v-8.5h1v3.7h4.1v-3.7h1.1v8.5H231.4z"/>
		<path class="st0" d="M239.5,89.2c-0.6,0.4-1.4,0.6-2.1,0.6c-1.7,0-3-1.3-3.1-2.9c0-0.1,0-0.3,0-0.4c0-2,1.2-3.5,2.9-3.5
			s2.4,1.2,2.4,2.7c0,0.3,0,0.7-0.1,1h-4.1c-0.1,1.1,0.8,2.1,1.9,2.2c0.1,0,0.1,0,0.2,0c0.6,0,1.1-0.1,1.7-0.4L239.5,89.2z
			 M238.6,86c0-0.1,0-0.3,0-0.4c0-1-0.5-1.6-1.5-1.6s-1.7,1-1.7,2.1L238.6,86z"/>
		<path class="st0" d="M245.8,89.3c-0.6,0.3-1.2,0.5-1.9,0.5c-1.7,0-3-1.3-3-3c0-0.1,0-0.2,0-0.3c-0.2-1.8,1.1-3.3,2.9-3.5
			c0.1,0,0.3,0,0.4,0c0.6,0,1.1,0.1,1.6,0.4l-0.3,0.8c-0.4-0.2-0.9-0.3-1.3-0.3c-1.3,0-2.2,0.8-2.2,2.6c-0.1,1.2,0.7,2.2,1.9,2.4
			c0.1,0,0.2,0,0.2,0c0.5,0,1-0.1,1.5-0.3L245.8,89.3z"/>
		<path class="st0" d="M248.2,83.7c0.6-0.5,1.3-0.7,2-0.7c1.6,0,2.1,1,2.1,2.2v4.5h-1.1v-4.5c0-1-0.6-1.3-1.3-1.3
			c-0.6,0-1.3,0.3-1.8,0.7v5.1h-1.1v-9.8h1.1L248.2,83.7z"/>
		<path class="st0" d="M257,83c2.1,0,3,1.5,3,3.4c0.1,1.7-1.1,3.2-2.9,3.4c-0.1,0-0.1,0-0.2,0c-2.1,0-3-1.5-3-3.4
			c-0.1-1.7,1.1-3.2,2.9-3.4C256.9,83,256.9,83,257,83z M256.9,88.9c1.3,0,2-1.1,2-2.5s-0.6-2.5-2-2.5S255,85,255,86.4
			S255.6,88.9,256.9,88.9L256.9,88.9z"/>
		<path class="st0" d="M261.5,88.5c0.5,0.3,1.1,0.4,1.7,0.4c1,0,1.4-0.5,1.4-1c0-1.6-3.2-0.8-3.2-3c0-1.2,0.9-1.9,2.3-1.9
			c0.6,0,1.2,0.1,1.8,0.4l-0.3,0.8c-0.5-0.2-1-0.3-1.5-0.3c-0.9,0-1.3,0.4-1.3,0.9c0,1.5,3.3,0.7,3.3,3c0,1.1-0.8,2-2.5,2
			c-0.7,0-1.4-0.1-2-0.5L261.5,88.5z"/>
		<path class="st0" d="M211,102.1c-0.6,0.4-1.4,0.6-2.1,0.6c-1.7,0-3-1.3-3.1-2.9c0-0.1,0-0.3,0-0.4c0-2,1.2-3.5,2.9-3.5
			s2.4,1.2,2.4,2.7c0,0.3,0,0.7-0.1,1h-4.1c-0.1,1.1,0.7,2.1,1.8,2.2c0.1,0,0.2,0,0.3,0c0.6,0,1.1-0.1,1.7-0.4L211,102.1z
			 M210.1,98.8c0-0.1,0-0.3,0-0.4c0-1-0.5-1.6-1.5-1.6s-1.7,1-1.7,2.1L210.1,98.8z"/>
		<path class="st0" d="M216.1,102.3c-0.4,0.2-0.8,0.3-1.3,0.3c-1.2,0-1.8-0.7-1.8-2.1v-3.8h-1.2V96h1.1v-1.4l1.1-0.3V96h2v0.8h-2
			v3.9c0,0.8,0.4,1.1,1,1.1c0.3,0,0.6-0.1,0.9-0.2L216.1,102.3z"/>
		<path class="st0" d="M221.7,102.5v-4.5c0-1-0.6-1.3-1.3-1.3c-0.6,0-1.3,0.3-1.8,0.7v5.1h-1V96h0.6l0.4,0.6c0.6-0.5,1.3-0.7,2-0.8
			c1.6,0,2.1,1,2.1,2.2v4.5L221.7,102.5z"/>
		<path class="st0" d="M227.4,95.8c2.1,0,3,1.5,3,3.4c0.1,1.7-1.1,3.2-2.9,3.4c-0.1,0-0.1,0-0.2,0c-2.1,0-3-1.5-3-3.4
			c-0.1-1.7,1.1-3.2,2.9-3.4C227.3,95.9,227.3,95.9,227.4,95.8z M227.3,101.7c1.3,0,2-1.1,2-2.5s-0.6-2.5-2-2.5s-1.9,1.1-1.9,2.5
			S226,101.7,227.3,101.7L227.3,101.7z"/>
		<path class="st0" d="M233.1,96.6c0.6-0.5,1.3-0.7,2-0.7c1.6,0,2.1,1,2.1,2.2v4.5h-1v-4.5c0-1-0.6-1.3-1.3-1.3
			c-0.6,0-1.3,0.3-1.8,0.7v5.1h-1.1v-9.8h1.1L233.1,96.6z"/>
		<path class="st0" d="M239.9,94.6c-0.4,0-0.7-0.3-0.7-0.6c0,0,0,0,0,0c0-0.4,0.3-0.7,0.7-0.7s0.7,0.3,0.7,0.7c0,0,0,0,0,0
			C240.6,94.3,240.3,94.6,239.9,94.6C239.9,94.6,239.9,94.6,239.9,94.6z M241.2,102.4c-0.2,0.1-0.5,0.2-0.8,0.2
			c-0.9,0-1.1-0.6-1.1-1.3V96h1v5.2c0,0.3,0.1,0.5,0.4,0.5c0.1,0,0.2,0,0.2,0L241.2,102.4z"/>
		<path class="st0" d="M242.6,101.4c0.5,0.2,1.1,0.4,1.7,0.4c1,0,1.4-0.5,1.4-1c0-1.6-3.2-0.8-3.2-3c0-1.2,0.9-1.9,2.3-1.9
			c0.6,0,1.2,0.1,1.8,0.4l-0.3,0.8c-0.5-0.2-1-0.3-1.4-0.3c-0.9,0-1.3,0.4-1.3,0.9c0,1.5,3.3,0.7,3.3,3c0,1.1-0.8,2-2.5,2
			c-0.7,0-1.4-0.2-1.9-0.5L242.6,101.4z"/>
		<path class="st0" d="M251.7,102.3c-0.4,0.2-0.8,0.3-1.3,0.3c-1.1,0-1.8-0.7-1.8-2.1v-3.8h-1.1V96h1.1v-1.4l1.1-0.3V96h2v0.8h-2
			v3.9c0,0.8,0.4,1.1,1,1.1c0.3,0,0.6-0.1,0.9-0.2L251.7,102.3z"/>
		<path class="st0" d="M255.8,95.8c2.1,0,3,1.5,3,3.4c0.1,1.7-1.1,3.2-2.9,3.4c-0.1,0-0.1,0-0.2,0c-2.1,0-3-1.5-3-3.4
			c-0.1-1.7,1.1-3.2,2.9-3.4C255.6,95.9,255.7,95.9,255.8,95.8z M255.8,101.7c1.3,0,2-1.1,2-2.5s-0.6-2.5-2-2.5s-2,1.1-2,2.5
			S254.4,101.7,255.8,101.7L255.8,101.7z M254.7,94.8l1.2-1.9h1.1l-1.5,1.9L254.7,94.8z"/>
		<path class="st0" d="M260.4,102.5V96h0.6l0.3,0.9c0.5-0.6,1.2-1,2-1c0.2,0,0.4,0,0.6,0.1l-0.2,1c-0.2-0.1-0.4-0.1-0.5-0.1
			c-0.7,0-1.3,0.3-1.7,0.9v4.8L260.4,102.5z"/>
		<path class="st0" d="M265.7,94.6c-0.4,0-0.7-0.3-0.7-0.6c0,0,0,0,0,0c0-0.4,0.3-0.7,0.6-0.7c0,0,0,0,0,0c0.4,0,0.7,0.2,0.7,0.6
			c0,0,0,0.1,0,0.1C266.4,94.3,266.1,94.6,265.7,94.6C265.7,94.6,265.7,94.6,265.7,94.6z M267,102.4c-0.2,0.1-0.5,0.2-0.8,0.2
			c-0.9,0-1.1-0.6-1.1-1.3V96h1v5.2c0,0.3,0.1,0.5,0.5,0.5c0.1,0,0.2,0,0.2,0L267,102.4z"/>
		<path class="st0" d="M273,102.2c-0.6,0.3-1.3,0.5-1.9,0.5c-1.7,0-3-1.3-3-3c0-0.1,0-0.2,0-0.3c-0.1-1.9,1.4-3.4,3.2-3.5
			c0.6,0,1.2,0.1,1.7,0.4l-0.3,0.8c-0.4-0.2-0.9-0.3-1.3-0.3c-1.3,0-2.2,0.8-2.2,2.6c-0.1,1.2,0.7,2.2,1.9,2.4c0.1,0,0.2,0,0.2,0
			c0.5,0,1-0.1,1.5-0.3L273,102.2z"/>
		<path class="st0" d="M276.9,95.8c2.1,0,3,1.5,3,3.4c0.1,1.7-1.1,3.2-2.8,3.4c-0.1,0-0.2,0-0.2,0c-2.1,0-3-1.5-3-3.4
			c-0.1-1.7,1.1-3.2,2.9-3.4C276.7,95.9,276.8,95.9,276.9,95.8z M276.8,101.7c1.3,0,2-1.1,2-2.5s-0.6-2.5-2-2.5s-2,1.1-2,2.5
			S275.5,101.7,276.8,101.7z"/>
		<path class="st0" d="M281.4,101.4c0.5,0.2,1.1,0.4,1.7,0.4c1,0,1.4-0.5,1.4-1c0-1.6-3.2-0.8-3.2-3c0-1.2,0.9-1.9,2.3-1.9
			c0.6,0,1.2,0.1,1.8,0.4l-0.3,0.8c-0.5-0.2-1-0.3-1.5-0.3c-0.9,0-1.3,0.4-1.3,0.9c0,1.5,3.3,0.7,3.3,3c0,1.1-0.8,2-2.5,2
			c-0.7,0-1.4-0.2-2-0.5L281.4,101.4z"/>
		<rect x="7" y="38.1" class="st0" width="66.8" height="8.2"/>
		<rect x="77.6" y="38.1" class="st0" width="99.6" height="8.2"/>
		<rect x="181.4" y="38.1" class="st0" width="100.8" height="8.2"/>
		<rect x="7.7" y="24.8" class="st0" width="10" height="8.2"/>
		<rect x="31.3" y="24.8" class="st0" width="10" height="8.2"/>
		<rect x="31.3" y="12.7" class="st0" width="10" height="8.1"/>
		<rect x="31.3" class="st0" width="10" height="8.1"/>
		<rect x="181.5" y="24.8" class="st0" width="10.1" height="8.2"/>
		<rect x="181.5" y="12.7" class="st0" width="10.1" height="8.1"/>
		<rect x="181.5" class="st0" width="10.1" height="8.1"/>
		<rect x="57.1" y="24.8" class="st0" width="10" height="8.2"/>
		<rect x="137" y="24.8" class="st0" width="10.1" height="8.2"/>
		<rect x="157.9" y="24.8" class="st0" width="10.1" height="8.2"/>
		<rect x="85.2" y="24.8" class="st0" width="10.1" height="8.2"/>
		<rect x="85.2" y="12.7" class="st0" width="10.1" height="8.1"/>
		<rect x="111.7" y="24.8" class="st0" width="10.1" height="8.2"/>
		<rect x="111.7" y="12.7" class="st0" width="10.1" height="8.1"/>
		<rect x="226.1" y="24.8" class="st0" width="10.5" height="8.2"/>
		<rect x="204.9" y="24.8" class="st0" width="10.5" height="8.2"/>
		<rect x="243.6" y="24.8" class="st0" width="10.5" height="8.2"/>
		<rect x="261.1" y="24.8" class="st0" width="21" height="8.2"/>
		<line class="st1" x1="27.9" y1="74" x2="27.9" y2="47.6"/>
		<path class="st2" d="M30.2,47.7c0-1.3-1-2.3-2.3-2.3s-2.3,1-2.3,2.3c0,1.3,1,2.3,2.3,2.3c0,0,0,0,0,0C29.2,50,30.2,49,30.2,47.7z"
			/>
		<path class="st0" d="M30.6,47.7c0,1.5-1.2,2.6-2.6,2.6c-1.5,0-2.6-1.2-2.6-2.6c0-1.5,1.2-2.6,2.6-2.6l0,0
			C29.4,45.1,30.6,46.2,30.6,47.7C30.6,47.7,30.6,47.7,30.6,47.7z M25.9,47.7c0,1.1,0.9,2,2,2s2-0.9,2-2s-0.9-2-2-2
			S25.9,46.6,25.9,47.7z"/>
		
			<radialGradient id="SVGID_1_" cx="249.46" cy="37.2" r="17.63" gradientTransform="matrix(1 0 0 -0.96 0 87.08)" gradientUnits="userSpaceOnUse">
			<stop  offset="0" style="stop-color:#233A6E"/>
			<stop  offset="0.46" style="stop-color:#1F325C"/>
			<stop  offset="1" style="stop-color:#182742"/>
		</radialGradient>
		<line class="st3" x1="249.5" y1="75" x2="249.5" y2="28"/>
		<line class="st1" x1="248.8" y1="74.7" x2="248.8" y2="28.3"/>
		<ellipse transform="matrix(0.9871 -0.1602 0.1602 0.9871 -1.3378 40.2361)" class="st2" cx="248.8" cy="28.4" rx="2.3" ry="2.3"/>
		<path class="st0" d="M251.5,28.4c0,1.5-1.2,2.6-2.6,2.6c-1.5,0-2.6-1.2-2.6-2.6c0-1.5,1.2-2.6,2.6-2.6
			C250.3,25.8,251.5,27,251.5,28.4z M246.8,28.4c0,1.1,0.9,2,2,2s2-0.9,2-2s-0.9-2-2-2S246.8,27.3,246.8,28.4z"/>
	</g>
</g>
</svg>
