<?xml version="1.0" encoding="utf-8"?>
<!-- Generator: Adobe Illustrator 25.1.0, SVG Export Plug-In . SVG Version: 6.00 Build 0)  -->
<svg version="1.1" id="Capa_2" xmlns="http://www.w3.org/2000/svg" xmlns:xlink="http://www.w3.org/1999/xlink" x="0px" y="0px"
	 viewBox="0 0 227 48" style="enable-background:new 0 0 227 48;" xml:space="preserve">
<style type="text/css">
	.st0{fill:#B2B2B2;}
</style>
<g id="Capa_2_1_">
	<g id="Overlay">
		<rect x="9.7" y="31.9" class="st0" width="52.6" height="6.4"/>
		<rect x="65.4" y="31.9" class="st0" width="77.5" height="6.4"/>
		<rect x="147" y="31.9" class="st0" width="79.4" height="6.4"/>
		<rect x="10.2" y="21.4" class="st0" width="7.9" height="6.4"/>
		<rect x="28.8" y="21.4" class="st0" width="7.9" height="6.4"/>
		<rect x="28.8" y="11.9" class="st0" width="7.9" height="6.4"/>
		<rect x="28.8" y="1.9" class="st0" width="7.9" height="6.4"/>
		<rect x="147.2" y="21.4" class="st0" width="7.9" height="6.4"/>
		<rect x="147.2" y="11.9" class="st0" width="7.9" height="6.4"/>
		<rect x="147.2" y="1.9" class="st0" width="7.9" height="6.4"/>
		<rect x="49.2" y="21.4" class="st0" width="7.9" height="6.4"/>
		<rect x="112.1" y="21.4" class="st0" width="7.9" height="6.4"/>
		<rect x="128.6" y="21.4" class="st0" width="7.9" height="6.4"/>
		<rect x="71.3" y="21.4" class="st0" width="7.9" height="6.4"/>
		<rect x="71.3" y="11.9" class="st0" width="7.9" height="6.4"/>
		<rect x="92.1" y="21.4" class="st0" width="7.9" height="6.4"/>
		<rect x="92.1" y="11.9" class="st0" width="7.9" height="6.4"/>
		<rect x="182.2" y="21.4" class="st0" width="8.2" height="6.4"/>
		<rect x="165.5" y="21.4" class="st0" width="8.2" height="6.4"/>
		<rect x="196" y="21.4" class="st0" width="8.2" height="6.4"/>
		<rect x="209.8" y="21.4" class="st0" width="16.6" height="6.4"/>
	</g>
</g>
</svg>
