<svg width="24" height="24" fill="none" xmlns="http://www.w3.org/2000/svg"><path d="M18.45 9.347c-.265-.272-.528-.272-.792 0l-3.956 3.401c-.132.136-.527 0-.395-.272l.79-8.027C14.23 3.224 13.308 2 12.12 2 10.802 2 9.747 3.088 9.88 4.449l.79 8.163c0 .272-.263.408-.395.272L6.187 9.347c-.264-.272-.528-.136-.791 0a.672.672 0 000 .952l5.933 5.85a.991.991 0 00.66.273.991.991 0 00.659-.272l5.933-5.85c.132-.273.132-.681-.132-.953zM5.922 21.456c-.527 0-.923-.544-.923-1.089 0-.408.396-.816.923-.816l11.735-.136c1.187 0 1.714 1.36 1.055 2.177-.264.272-.66.408-1.055.408l-11.735-.544z" fill="#fff"/></svg>